<?xml version="1.0" encoding="UTF-8" standalone="no"?>
<!DOCTYPE svg PUBLIC "-//W3C//DTD SVG 1.1//EN"
 "http://www.w3.org/Graphics/SVG/1.1/DTD/svg11.dtd">
<!-- Generated by graphviz version 12.2.1 (0)
 -->
<!-- Title: src/audio.h Pages: 1 -->
<svg width="1475pt" height="264pt"
 viewBox="0.00 0.00 1475.16 264.00" xmlns="http://www.w3.org/2000/svg" xmlns:xlink="http://www.w3.org/1999/xlink">
<g id="graph0" class="graph" transform="scale(1 1) rotate(0) translate(4 260)">
<title>src/audio.h</title>
<!-- Node1 -->
<g id="Node000001" class="node">
<title>Node1</title>
<g id="a_Node000001"><a xlink:title="Declarations for audio capture and encoding.">
<polygon fill="#999999" stroke="#666666" points="804.66,-256 740.66,-256 740.66,-236 804.66,-236 804.66,-256"/>
<text text-anchor="middle" x="772.66" y="-242.5" font-family="Helvetica,sans-Serif" font-size="10.00">src/audio.h</text>
</a>
</g>
</g>
<!-- Node2 -->
<g id="Node000002" class="node">
<title>Node2</title>
<g id="a_Node000002"><a xlink:href="common_8h.html" target="_top" xlink:title="Declarations for common platform specific utilities.">
<polygon fill="white" stroke="#666666" points="644.66,-200 544.66,-200 544.66,-180 644.66,-180 644.66,-200"/>
<text text-anchor="middle" x="594.66" y="-186.5" font-family="Helvetica,sans-Serif" font-size="10.00">platform/common.h</text>
</a>
</g>
</g>
<!-- Node1&#45;&gt;Node2 -->
<g id="edge1_Node000001_Node000002" class="edge">
<title>Node1&#45;&gt;Node2</title>
<g id="a_edge1_Node000001_Node000002"><a xlink:title=" ">
<path fill="none" stroke="#63b8ff" d="M741.66,-235.59C712.61,-226.78 668.96,-213.54 636.77,-203.78"/>
<polygon fill="#63b8ff" stroke="#63b8ff" points="637.94,-200.47 627.36,-200.92 635.91,-207.17 637.94,-200.47"/>
</a>
</g>
</g>
<!-- Node3 -->
<g id="Node000003" class="node">
<title>Node3</title>
<g id="a_Node000003"><a xlink:title=" ">
<polygon fill="#e0e0e0" stroke="#999999" points="133.66,-20 93.66,-20 93.66,0 133.66,0 133.66,-20"/>
<text text-anchor="middle" x="113.66" y="-6.5" font-family="Helvetica,sans-Serif" font-size="10.00">bitset</text>
</a>
</g>
</g>
<!-- Node1&#45;&gt;Node3 -->
<g id="edge51_Node000001_Node000003" class="edge">
<title>Node1&#45;&gt;Node3</title>
<g id="a_edge51_Node000001_Node000003"><a xlink:title=" ">
<path fill="none" stroke="#63b8ff" d="M740.6,-243.23C601.39,-235.25 54.15,-200.43 4.66,-144 -9.85,-127.46 14.61,-60.94 18.66,-56 34.77,-36.35 61.45,-24.77 82.45,-18.28"/>
<polygon fill="#63b8ff" stroke="#63b8ff" points="83.29,-21.68 91.96,-15.6 81.39,-14.94 83.29,-21.68"/>
</a>
</g>
</g>
<!-- Node21 -->
<g id="Node000021" class="node">
<title>Node21</title>
<g id="a_Node000021"><a xlink:href="thread__safe_8h.html" target="_top" xlink:title="Declarations for thread&#45;safe data structures.">
<polygon fill="white" stroke="#666666" points="1103.54,-138 1011.79,-138 1011.79,-118 1103.54,-118 1103.54,-138"/>
<text text-anchor="middle" x="1057.66" y="-124.5" font-family="Helvetica,sans-Serif" font-size="10.00">src/thread_safe.h</text>
</a>
</g>
</g>
<!-- Node1&#45;&gt;Node21 -->
<g id="edge49_Node000001_Node000021" class="edge">
<title>Node1&#45;&gt;Node21</title>
<g id="a_edge49_Node000001_Node000021"><a xlink:title=" ">
<path fill="none" stroke="#63b8ff" d="M805.05,-244.53C849.98,-242.56 932.46,-234.12 992.66,-200 1015.3,-187.17 1034.44,-163.69 1045.97,-147.25"/>
<polygon fill="#63b8ff" stroke="#63b8ff" points="1048.61,-149.6 1051.28,-139.34 1042.8,-145.69 1048.61,-149.6"/>
</a>
</g>
</g>
<!-- Node26 -->
<g id="Node000026" class="node">
<title>Node26</title>
<g id="a_Node000026"><a xlink:href="utility_8h.html" target="_top" xlink:title="Declarations for utility functions.">
<polygon fill="white" stroke="#666666" points="1026.04,-76 979.29,-76 979.29,-56 1026.04,-56 1026.04,-76"/>
<text text-anchor="middle" x="1002.66" y="-62.5" font-family="Helvetica,sans-Serif" font-size="10.00">utility.h</text>
</a>
</g>
</g>
<!-- Node1&#45;&gt;Node26 -->
<g id="edge50_Node000001_Node000026" class="edge">
<title>Node1&#45;&gt;Node26</title>
<g id="a_edge50_Node000001_Node000026"><a xlink:title=" ">
<path fill="none" stroke="#63b8ff" d="M790.37,-235.75C820.84,-219.41 884.48,-183.41 931.66,-144 953.36,-125.87 974.89,-101.36 988.45,-84.91"/>
<polygon fill="#63b8ff" stroke="#63b8ff" points="990.93,-87.41 994.51,-77.44 985.49,-83 990.93,-87.41"/>
</a>
</g>
</g>
<!-- Node2&#45;&gt;Node3 -->
<g id="edge2_Node000002_Node000003" class="edge">
<title>Node2&#45;&gt;Node3</title>
<g id="a_edge2_Node000002_Node000003"><a xlink:title=" ">
<path fill="none" stroke="#63b8ff" d="M544.28,-181.73C503.93,-174.9 446.39,-162.86 398.66,-144 372.36,-133.61 368.87,-124.82 343.66,-112 273.96,-76.56 189.06,-41.22 144.45,-23.22"/>
<polygon fill="#63b8ff" stroke="#63b8ff" points="146,-20.07 135.42,-19.59 143.39,-26.57 146,-20.07"/>
</a>
</g>
</g>
<!-- Node4 -->
<g id="Node000004" class="node">
<title>Node4</title>
<g id="a_Node000004"><a xlink:title=" ">
<polygon fill="#e0e0e0" stroke="#999999" points="334.16,-138 273.16,-138 273.16,-118 334.16,-118 334.16,-138"/>
<text text-anchor="middle" x="303.66" y="-124.5" font-family="Helvetica,sans-Serif" font-size="10.00">filesystem</text>
</a>
</g>
</g>
<!-- Node2&#45;&gt;Node4 -->
<g id="edge3_Node000002_Node000004" class="edge">
<title>Node2&#45;&gt;Node4</title>
<g id="a_edge3_Node000002_Node000004"><a xlink:title=" ">
<path fill="none" stroke="#63b8ff" d="M544.27,-181.91C494.23,-174.37 415.52,-161.17 348.66,-144 345.94,-143.3 343.14,-142.52 340.34,-141.7"/>
<polygon fill="#63b8ff" stroke="#63b8ff" points="341.68,-138.45 331.09,-138.81 339.59,-145.13 341.68,-138.45"/>
</a>
</g>
</g>
<!-- Node5 -->
<g id="Node000005" class="node">
<title>Node5</title>
<g id="a_Node000005"><a xlink:title=" ">
<polygon fill="#e0e0e0" stroke="#999999" points="725.66,-20 667.66,-20 667.66,0 725.66,0 725.66,-20"/>
<text text-anchor="middle" x="696.66" y="-6.5" font-family="Helvetica,sans-Serif" font-size="10.00">functional</text>
</a>
</g>
</g>
<!-- Node2&#45;&gt;Node5 -->
<g id="edge4_Node000002_Node000005" class="edge">
<title>Node2&#45;&gt;Node5</title>
<g id="a_edge4_Node000002_Node000005"><a xlink:title=" ">
<path fill="none" stroke="#63b8ff" d="M644.97,-183.69C707.03,-174.12 810.03,-147.75 856.66,-76 861.5,-68.55 862.03,-63.09 856.66,-56 852.94,-51.09 782.87,-32.68 736.71,-20.98"/>
<polygon fill="#63b8ff" stroke="#63b8ff" points="737.85,-17.66 727.29,-18.61 736.13,-24.45 737.85,-17.66"/>
</a>
</g>
</g>
<!-- Node6 -->
<g id="Node000006" class="node">
<title>Node6</title>
<g id="a_Node000006"><a xlink:title=" ">
<polygon fill="#e0e0e0" stroke="#999999" points="1467.16,-20 1424.16,-20 1424.16,0 1467.16,0 1467.16,-20"/>
<text text-anchor="middle" x="1445.66" y="-6.5" font-family="Helvetica,sans-Serif" font-size="10.00">mutex</text>
</a>
</g>
</g>
<!-- Node2&#45;&gt;Node6 -->
<g id="edge5_Node000002_Node000006" class="edge">
<title>Node2&#45;&gt;Node6</title>
<g id="a_edge5_Node000002_Node000006"><a xlink:title=" ">
<path fill="none" stroke="#63b8ff" d="M645.03,-189.3C738.48,-188.83 944.48,-182.97 1112.66,-144 1194.35,-125.07 1210.8,-107.15 1288.66,-76 1332.03,-58.65 1381.81,-37.9 1413.48,-24.59"/>
<polygon fill="#63b8ff" stroke="#63b8ff" points="1414.63,-27.9 1422.49,-20.79 1411.91,-21.45 1414.63,-27.9"/>
</a>
</g>
</g>
<!-- Node7 -->
<g id="Node000007" class="node">
<title>Node7</title>
<g id="a_Node000007"><a xlink:title=" ">
<polygon fill="#e0e0e0" stroke="#999999" points="421.66,-20 381.66,-20 381.66,0 421.66,0 421.66,-20"/>
<text text-anchor="middle" x="401.66" y="-6.5" font-family="Helvetica,sans-Serif" font-size="10.00">string</text>
</a>
</g>
</g>
<!-- Node2&#45;&gt;Node7 -->
<g id="edge6_Node000002_Node000007" class="edge">
<title>Node2&#45;&gt;Node7</title>
<g id="a_edge6_Node000002_Node000007"><a xlink:title=" ">
<path fill="none" stroke="#63b8ff" d="M544.16,-182.34C498.53,-175.24 436.08,-162.46 419.66,-144 392.01,-112.91 394.18,-60.48 398.02,-31.61"/>
<polygon fill="#63b8ff" stroke="#63b8ff" points="401.44,-32.4 399.51,-21.98 394.52,-31.32 401.44,-32.4"/>
</a>
</g>
</g>
<!-- Node8 -->
<g id="Node000008" class="node">
<title>Node8</title>
<g id="a_Node000008"><a xlink:title=" ">
<polygon fill="#e0e0e0" stroke="#999999" points="566.79,-138 428.54,-138 428.54,-118 566.79,-118 566.79,-138"/>
<text text-anchor="middle" x="497.66" y="-124.5" font-family="Helvetica,sans-Serif" font-size="10.00">boost/core/noncopyable.hpp</text>
</a>
</g>
</g>
<!-- Node2&#45;&gt;Node8 -->
<g id="edge7_Node000002_Node000008" class="edge">
<title>Node2&#45;&gt;Node8</title>
<g id="a_edge7_Node000002_Node000008"><a xlink:title=" ">
<path fill="none" stroke="#63b8ff" d="M579.5,-179.62C564.2,-170.16 540.31,-155.38 522.28,-144.23"/>
<polygon fill="#63b8ff" stroke="#63b8ff" points="524.34,-141.39 514,-139.11 520.66,-147.34 524.34,-141.39"/>
</a>
</g>
</g>
<!-- Node9 -->
<g id="Node000009" class="node">
<title>Node9</title>
<g id="a_Node000009"><a xlink:href="config_8h.html" target="_top" xlink:title="Declarations for the configuration of Sunshine.">
<polygon fill="white" stroke="#666666" points="496.16,-76 429.16,-76 429.16,-56 496.16,-56 496.16,-76"/>
<text text-anchor="middle" x="462.66" y="-62.5" font-family="Helvetica,sans-Serif" font-size="10.00">src/config.h</text>
</a>
</g>
</g>
<!-- Node2&#45;&gt;Node9 -->
<g id="edge8_Node000002_Node000009" class="edge">
<title>Node2&#45;&gt;Node9</title>
<g id="a_edge8_Node000002_Node000009"><a xlink:title=" ">
<path fill="none" stroke="#63b8ff" d="M594.95,-179.72C594.94,-163.89 592.67,-131.51 575.66,-112 566.08,-101 533.92,-88.77 506.36,-79.84"/>
<polygon fill="#63b8ff" stroke="#63b8ff" points="507.72,-76.6 497.13,-76.92 505.61,-83.27 507.72,-76.6"/>
</a>
</g>
</g>
<!-- Node15 -->
<g id="Node000015" class="node">
<title>Node15</title>
<g id="a_Node000015"><a xlink:href="logging_8h.html" target="_top" xlink:title="Declarations for logging related functions.">
<polygon fill="white" stroke="#666666" points="694.41,-138 622.91,-138 622.91,-118 694.41,-118 694.41,-138"/>
<text text-anchor="middle" x="658.66" y="-124.5" font-family="Helvetica,sans-Serif" font-size="10.00">src/logging.h</text>
</a>
</g>
</g>
<!-- Node2&#45;&gt;Node15 -->
<g id="edge16_Node000002_Node000015" class="edge">
<title>Node2&#45;&gt;Node15</title>
<g id="a_edge16_Node000002_Node000015"><a xlink:title=" ">
<path fill="none" stroke="#63b8ff" d="M604.66,-179.62C614.3,-170.59 629.09,-156.72 640.76,-145.78"/>
<polygon fill="#63b8ff" stroke="#63b8ff" points="642.93,-148.54 647.84,-139.15 638.15,-143.43 642.93,-148.54"/>
</a>
</g>
</g>
<!-- Node2&#45;&gt;Node21 -->
<g id="edge25_Node000002_Node000021" class="edge">
<title>Node2&#45;&gt;Node21</title>
<g id="a_edge25_Node000002_Node000021"><a xlink:title=" ">
<path fill="none" stroke="#63b8ff" d="M644.95,-182.64C713.11,-174.01 838.6,-158.03 945.66,-144 963.37,-141.68 982.65,-139.11 1000.15,-136.77"/>
<polygon fill="#63b8ff" stroke="#63b8ff" points="1000.4,-140.26 1009.85,-135.46 999.47,-133.32 1000.4,-140.26"/>
</a>
</g>
</g>
<!-- Node2&#45;&gt;Node26 -->
<g id="edge45_Node000002_Node000026" class="edge">
<title>Node2&#45;&gt;Node26</title>
<g id="a_edge45_Node000002_Node000026"><a xlink:title=" ">
<path fill="none" stroke="#63b8ff" d="M644.95,-188.07C705.11,-185.45 807.94,-176.14 889.66,-144 926.06,-129.68 962.41,-101.9 983.7,-83.91"/>
<polygon fill="#63b8ff" stroke="#63b8ff" points="985.95,-86.6 991.23,-77.41 981.37,-81.3 985.95,-86.6"/>
</a>
</g>
</g>
<!-- Node33 -->
<g id="Node000033" class="node">
<title>Node33</title>
<g id="a_Node000033"><a xlink:href="video__colorspace_8h.html" target="_top" xlink:title="Declarations for colorspace functions.">
<polygon fill="white" stroke="#666666" points="129.91,-138 13.41,-138 13.41,-118 129.91,-118 129.91,-138"/>
<text text-anchor="middle" x="71.66" y="-124.5" font-family="Helvetica,sans-Serif" font-size="10.00">src/video_colorspace.h</text>
</a>
</g>
</g>
<!-- Node2&#45;&gt;Node33 -->
<g id="edge46_Node000002_Node000033" class="edge">
<title>Node2&#45;&gt;Node33</title>
<g id="a_edge46_Node000002_Node000033"><a xlink:title=" ">
<path fill="none" stroke="#63b8ff" d="M544.25,-185.97C460.06,-180.48 285.66,-167.24 139.66,-144 133.77,-143.06 127.61,-141.93 121.53,-140.71"/>
<polygon fill="#63b8ff" stroke="#63b8ff" points="122.69,-137.38 112.19,-138.75 121.26,-144.23 122.69,-137.38"/>
</a>
</g>
</g>
<!-- Node35 -->
<g id="Node000035" class="node">
<title>Node35</title>
<g id="a_Node000035"><a xlink:title=" ">
<polygon fill="#e0e0e0" stroke="#999999" points="255.04,-144 148.29,-144 148.29,-112 255.04,-112 255.04,-144"/>
<text text-anchor="start" x="156.29" y="-130.5" font-family="Helvetica,sans-Serif" font-size="10.00">moonlight&#45;common&#45;c</text>
<text text-anchor="middle" x="201.66" y="-118.5" font-family="Helvetica,sans-Serif" font-size="10.00">/src/Limelight.h</text>
</a>
</g>
</g>
<!-- Node2&#45;&gt;Node35 -->
<g id="edge48_Node000002_Node000035" class="edge">
<title>Node2&#45;&gt;Node35</title>
<g id="a_edge48_Node000002_Node000035"><a xlink:title=" ">
<path fill="none" stroke="#63b8ff" d="M544.38,-183.7C481.68,-176.75 371.03,-163.35 266.29,-144.18"/>
<polygon fill="#63b8ff" stroke="#63b8ff" points="267.16,-140.78 256.69,-142.4 265.88,-147.67 267.16,-140.78"/>
</a>
</g>
</g>
<!-- Node9&#45;&gt;Node3 -->
<g id="edge9_Node000009_Node000003" class="edge">
<title>Node9&#45;&gt;Node3</title>
<g id="a_edge9_Node000009_Node000003"><a xlink:title=" ">
<path fill="none" stroke="#63b8ff" d="M428.9,-60.95C362.1,-52.84 214.18,-34.3 145.28,-20.2"/>
<polygon fill="#63b8ff" stroke="#63b8ff" points="146.14,-16.81 135.62,-18.12 144.66,-23.65 146.14,-16.81"/>
</a>
</g>
</g>
<!-- Node9&#45;&gt;Node7 -->
<g id="edge12_Node000009_Node000007" class="edge">
<title>Node9&#45;&gt;Node7</title>
<g id="a_edge12_Node000009_Node000007"><a xlink:title=" ">
<path fill="none" stroke="#63b8ff" d="M452.04,-55.59C443.38,-47.93 430.93,-36.91 420.58,-27.75"/>
<polygon fill="#63b8ff" stroke="#63b8ff" points="423.1,-25.31 413.3,-21.3 418.47,-30.55 423.1,-25.31"/>
</a>
</g>
</g>
<!-- Node10 -->
<g id="Node000010" class="node">
<title>Node10</title>
<g id="a_Node000010"><a xlink:title=" ">
<polygon fill="#e0e0e0" stroke="#999999" points="485.29,-20 440.04,-20 440.04,0 485.29,0 485.29,-20"/>
<text text-anchor="middle" x="462.66" y="-6.5" font-family="Helvetica,sans-Serif" font-size="10.00">chrono</text>
</a>
</g>
</g>
<!-- Node9&#45;&gt;Node10 -->
<g id="edge10_Node000009_Node000010" class="edge">
<title>Node9&#45;&gt;Node10</title>
<g id="a_edge10_Node000009_Node000010"><a xlink:title=" ">
<path fill="none" stroke="#63b8ff" d="M462.66,-55.59C462.66,-49.01 462.66,-39.96 462.66,-31.73"/>
<polygon fill="#63b8ff" stroke="#63b8ff" points="466.16,-31.81 462.66,-21.81 459.16,-31.81 466.16,-31.81"/>
</a>
</g>
</g>
<!-- Node11 -->
<g id="Node000011" class="node">
<title>Node11</title>
<g id="a_Node000011"><a xlink:title=" ">
<polygon fill="#e0e0e0" stroke="#999999" points="793.54,-20 743.79,-20 743.79,0 793.54,0 793.54,-20"/>
<text text-anchor="middle" x="768.66" y="-6.5" font-family="Helvetica,sans-Serif" font-size="10.00">optional</text>
</a>
</g>
</g>
<!-- Node9&#45;&gt;Node11 -->
<g id="edge11_Node000009_Node000011" class="edge">
<title>Node9&#45;&gt;Node11</title>
<g id="a_edge11_Node000009_Node000011"><a xlink:title=" ">
<path fill="none" stroke="#63b8ff" d="M496.55,-57.57C499.29,-57.02 502.02,-56.49 504.66,-56 602.92,-37.8 631.47,-41.01 732.48,-20.27"/>
<polygon fill="#63b8ff" stroke="#63b8ff" points="732.92,-23.75 742,-18.29 731.49,-16.9 732.92,-23.75"/>
</a>
</g>
</g>
<!-- Node12 -->
<g id="Node000012" class="node">
<title>Node12</title>
<g id="a_Node000012"><a xlink:title=" ">
<polygon fill="#e0e0e0" stroke="#999999" points="234.04,-20 151.29,-20 151.29,0 234.04,0 234.04,-20"/>
<text text-anchor="middle" x="192.66" y="-6.5" font-family="Helvetica,sans-Serif" font-size="10.00">unordered_map</text>
</a>
</g>
</g>
<!-- Node9&#45;&gt;Node12 -->
<g id="edge13_Node000009_Node000012" class="edge">
<title>Node9&#45;&gt;Node12</title>
<g id="a_edge13_Node000009_Node000012"><a xlink:title=" ">
<path fill="none" stroke="#63b8ff" d="M428.74,-58.22C382.59,-48.99 299.57,-32.38 245.3,-21.53"/>
<polygon fill="#63b8ff" stroke="#63b8ff" points="246.15,-18.13 235.66,-19.6 244.78,-24.99 246.15,-18.13"/>
</a>
</g>
</g>
<!-- Node13 -->
<g id="Node000013" class="node">
<title>Node13</title>
<g id="a_Node000013"><a xlink:title=" ">
<polygon fill="#e0e0e0" stroke="#999999" points="854.16,-20 811.16,-20 811.16,0 854.16,0 854.16,-20"/>
<text text-anchor="middle" x="832.66" y="-6.5" font-family="Helvetica,sans-Serif" font-size="10.00">vector</text>
</a>
</g>
</g>
<!-- Node9&#45;&gt;Node13 -->
<g id="edge14_Node000009_Node000013" class="edge">
<title>Node9&#45;&gt;Node13</title>
<g id="a_edge14_Node000009_Node000013"><a xlink:title=" ">
<path fill="none" stroke="#63b8ff" d="M496.54,-57.46C499.28,-56.94 502.01,-56.44 504.66,-56 632.64,-34.6 670.04,-46.57 799.66,-20.33"/>
<polygon fill="#63b8ff" stroke="#63b8ff" points="800.25,-23.78 809.33,-18.33 798.83,-16.93 800.25,-23.78"/>
</a>
</g>
</g>
<!-- Node14 -->
<g id="Node000014" class="node">
<title>Node14</title>
<g id="a_Node000014"><a xlink:href="nvenc__config_8h.html" target="_top" xlink:title="Declarations for NVENC encoder configuration.">
<polygon fill="white" stroke="#666666" points="363.29,-20 252.04,-20 252.04,0 363.29,0 363.29,-20"/>
<text text-anchor="middle" x="307.66" y="-6.5" font-family="Helvetica,sans-Serif" font-size="10.00">nvenc/nvenc_config.h</text>
</a>
</g>
</g>
<!-- Node9&#45;&gt;Node14 -->
<g id="edge15_Node000009_Node000014" class="edge">
<title>Node9&#45;&gt;Node14</title>
<g id="a_edge15_Node000009_Node000014"><a xlink:title=" ">
<path fill="none" stroke="#63b8ff" d="M435.66,-55.59C410.7,-46.9 373.36,-33.89 345.44,-24.16"/>
<polygon fill="#63b8ff" stroke="#63b8ff" points="346.89,-20.96 336.3,-20.98 344.59,-27.57 346.89,-20.96"/>
</a>
</g>
</g>
<!-- Node15&#45;&gt;Node9 -->
<g id="edge19_Node000015_Node000009" class="edge">
<title>Node15&#45;&gt;Node9</title>
<g id="a_edge19_Node000015_Node000009"><a xlink:title=" ">
<path fill="none" stroke="#63b8ff" d="M628.04,-117.62C594.76,-107.44 541.41,-91.11 504.34,-79.76"/>
<polygon fill="#63b8ff" stroke="#63b8ff" points="505.43,-76.43 494.84,-76.85 503.38,-83.12 505.43,-76.43"/>
</a>
</g>
</g>
<!-- Node16 -->
<g id="Node000016" class="node">
<title>Node16</title>
<g id="a_Node000016"><a xlink:title=" ">
<polygon fill="#e0e0e0" stroke="#999999" points="847.16,-76 732.16,-76 732.16,-56 847.16,-56 847.16,-76"/>
<text text-anchor="middle" x="789.66" y="-62.5" font-family="Helvetica,sans-Serif" font-size="10.00">boost/log/common.hpp</text>
</a>
</g>
</g>
<!-- Node15&#45;&gt;Node16 -->
<g id="edge17_Node000015_Node000016" class="edge">
<title>Node15&#45;&gt;Node16</title>
<g id="a_edge17_Node000015_Node000016"><a xlink:title=" ">
<path fill="none" stroke="#63b8ff" d="M679.13,-117.62C700.57,-107.81 734.48,-92.27 759.09,-81"/>
<polygon fill="#63b8ff" stroke="#63b8ff" points="760.33,-84.29 767.96,-76.94 757.41,-77.92 760.33,-84.29"/>
</a>
</g>
</g>
<!-- Node17 -->
<g id="Node000017" class="node">
<title>Node17</title>
<g id="a_Node000017"><a xlink:title=" ">
<polygon fill="#e0e0e0" stroke="#999999" points="714.04,-76 613.29,-76 613.29,-56 714.04,-56 714.04,-76"/>
<text text-anchor="middle" x="663.66" y="-62.5" font-family="Helvetica,sans-Serif" font-size="10.00">boost/log/sinks.hpp</text>
</a>
</g>
</g>
<!-- Node15&#45;&gt;Node17 -->
<g id="edge18_Node000015_Node000017" class="edge">
<title>Node15&#45;&gt;Node17</title>
<g id="a_edge18_Node000015_Node000017"><a xlink:title=" ">
<path fill="none" stroke="#63b8ff" d="M659.44,-117.62C660.11,-109.56 661.11,-97.65 661.96,-87.41"/>
<polygon fill="#63b8ff" stroke="#63b8ff" points="665.43,-87.88 662.78,-77.62 658.46,-87.3 665.43,-87.88"/>
</a>
</g>
</g>
<!-- Node18 -->
<g id="Node000018" class="node">
<title>Node18</title>
<g id="a_Node000018"><a xlink:href="stat__trackers_8h.html" target="_top" xlink:title="Declarations for streaming statistic tracking.">
<polygon fill="white" stroke="#666666" points="595.29,-76 514.04,-76 514.04,-56 595.29,-56 595.29,-76"/>
<text text-anchor="middle" x="554.66" y="-62.5" font-family="Helvetica,sans-Serif" font-size="10.00">stat_trackers.h</text>
</a>
</g>
</g>
<!-- Node15&#45;&gt;Node18 -->
<g id="edge20_Node000015_Node000018" class="edge">
<title>Node15&#45;&gt;Node18</title>
<g id="a_edge20_Node000015_Node000018"><a xlink:title=" ">
<path fill="none" stroke="#63b8ff" d="M642.41,-117.62C625.85,-108.07 599.91,-93.11 580.52,-81.92"/>
<polygon fill="#63b8ff" stroke="#63b8ff" points="582.52,-79.03 572.11,-77.07 579.02,-85.09 582.52,-79.03"/>
</a>
</g>
</g>
<!-- Node18&#45;&gt;Node5 -->
<g id="edge22_Node000018_Node000005" class="edge">
<title>Node18&#45;&gt;Node5</title>
<g id="a_edge22_Node000018_Node000005"><a xlink:title=" ">
<path fill="none" stroke="#63b8ff" d="M579.39,-55.59C601.96,-47.01 635.57,-34.23 661.03,-24.55"/>
<polygon fill="#63b8ff" stroke="#63b8ff" points="662.22,-27.84 670.32,-21.02 659.73,-21.3 662.22,-27.84"/>
</a>
</g>
</g>
<!-- Node18&#45;&gt;Node10 -->
<g id="edge21_Node000018_Node000010" class="edge">
<title>Node18&#45;&gt;Node10</title>
<g id="a_edge21_Node000018_Node000010"><a xlink:title=" ">
<path fill="none" stroke="#63b8ff" d="M538.64,-55.59C524.87,-47.51 504.76,-35.71 488.68,-26.27"/>
<polygon fill="#63b8ff" stroke="#63b8ff" points="490.51,-23.29 480.12,-21.25 486.97,-29.33 490.51,-23.29"/>
</a>
</g>
</g>
<!-- Node19 -->
<g id="Node000019" class="node">
<title>Node19</title>
<g id="a_Node000019"><a xlink:title=" ">
<polygon fill="#e0e0e0" stroke="#999999" points="649.29,-20 610.04,-20 610.04,0 649.29,0 649.29,-20"/>
<text text-anchor="middle" x="629.66" y="-6.5" font-family="Helvetica,sans-Serif" font-size="10.00">limits</text>
</a>
</g>
</g>
<!-- Node18&#45;&gt;Node19 -->
<g id="edge23_Node000018_Node000019" class="edge">
<title>Node18&#45;&gt;Node19</title>
<g id="a_edge23_Node000018_Node000019"><a xlink:title=" ">
<path fill="none" stroke="#63b8ff" d="M567.72,-55.59C578.63,-47.74 594.41,-36.38 607.32,-27.09"/>
<polygon fill="#63b8ff" stroke="#63b8ff" points="609.2,-30.05 615.27,-21.36 605.11,-24.37 609.2,-30.05"/>
</a>
</g>
</g>
<!-- Node20 -->
<g id="Node000020" class="node">
<title>Node20</title>
<g id="a_Node000020"><a xlink:title=" ">
<polygon fill="#e0e0e0" stroke="#999999" points="592.41,-20 502.91,-20 502.91,0 592.41,0 592.41,-20"/>
<text text-anchor="middle" x="547.66" y="-6.5" font-family="Helvetica,sans-Serif" font-size="10.00">boost/format.hpp</text>
</a>
</g>
</g>
<!-- Node18&#45;&gt;Node20 -->
<g id="edge24_Node000018_Node000020" class="edge">
<title>Node18&#45;&gt;Node20</title>
<g id="a_edge24_Node000018_Node000020"><a xlink:title=" ">
<path fill="none" stroke="#63b8ff" d="M553.44,-55.59C552.58,-48.93 551.39,-39.75 550.31,-31.44"/>
<polygon fill="#63b8ff" stroke="#63b8ff" points="553.82,-31.27 549.06,-21.8 546.87,-32.17 553.82,-31.27"/>
</a>
</g>
</g>
<!-- Node21&#45;&gt;Node5 -->
<g id="edge29_Node000021_Node000005" class="edge">
<title>Node21&#45;&gt;Node5</title>
<g id="a_edge29_Node000021_Node000005"><a xlink:title=" ">
<path fill="none" stroke="#63b8ff" d="M1031.16,-117.58C1004.63,-107.93 962.82,-92.09 927.66,-76 910.31,-68.06 907.55,-62.66 889.66,-56 826.62,-32.53 805.57,-35.75 737.05,-20.49"/>
<polygon fill="#63b8ff" stroke="#63b8ff" points="738.12,-17.14 727.59,-18.33 736.56,-23.97 738.12,-17.14"/>
</a>
</g>
</g>
<!-- Node21&#45;&gt;Node6 -->
<g id="edge31_Node000021_Node000006" class="edge">
<title>Node21&#45;&gt;Node6</title>
<g id="a_edge31_Node000021_Node000006"><a xlink:title=" ">
<path fill="none" stroke="#63b8ff" d="M1094.15,-117.5C1131.75,-107.59 1191.99,-91.39 1243.66,-76 1303.75,-58.1 1373.23,-35.27 1413.05,-21.98"/>
<polygon fill="#63b8ff" stroke="#63b8ff" points="1414.13,-25.31 1422.5,-18.82 1411.91,-18.67 1414.13,-25.31"/>
</a>
</g>
</g>
<!-- Node21&#45;&gt;Node13 -->
<g id="edge32_Node000021_Node000013" class="edge">
<title>Node21&#45;&gt;Node13</title>
<g id="a_edge32_Node000021_Node000013"><a xlink:title=" ">
<path fill="none" stroke="#63b8ff" d="M1041.4,-117.73C1016.95,-103.87 969.14,-77.13 927.66,-56 906.59,-45.27 882.51,-33.87 863.87,-25.23"/>
<polygon fill="#63b8ff" stroke="#63b8ff" points="865.51,-22.13 854.96,-21.12 862.57,-28.49 865.51,-22.13"/>
</a>
</g>
</g>
<!-- Node22 -->
<g id="Node000022" class="node">
<title>Node22</title>
<g id="a_Node000022"><a xlink:title=" ">
<polygon fill="#e0e0e0" stroke="#999999" points="1081.54,-76 1043.79,-76 1043.79,-56 1081.54,-56 1081.54,-76"/>
<text text-anchor="middle" x="1062.66" y="-62.5" font-family="Helvetica,sans-Serif" font-size="10.00">array</text>
</a>
</g>
</g>
<!-- Node21&#45;&gt;Node22 -->
<g id="edge26_Node000021_Node000022" class="edge">
<title>Node21&#45;&gt;Node22</title>
<g id="a_edge26_Node000021_Node000022"><a xlink:title=" ">
<path fill="none" stroke="#63b8ff" d="M1058.44,-117.62C1059.11,-109.56 1060.11,-97.65 1060.96,-87.41"/>
<polygon fill="#63b8ff" stroke="#63b8ff" points="1064.43,-87.88 1061.78,-77.62 1057.46,-87.3 1064.43,-87.88"/>
</a>
</g>
</g>
<!-- Node23 -->
<g id="Node000023" class="node">
<title>Node23</title>
<g id="a_Node000023"><a xlink:title=" ">
<polygon fill="#e0e0e0" stroke="#999999" points="1145.29,-76 1100.04,-76 1100.04,-56 1145.29,-56 1145.29,-76"/>
<text text-anchor="middle" x="1122.66" y="-62.5" font-family="Helvetica,sans-Serif" font-size="10.00">atomic</text>
</a>
</g>
</g>
<!-- Node21&#45;&gt;Node23 -->
<g id="edge27_Node000021_Node000023" class="edge">
<title>Node21&#45;&gt;Node23</title>
<g id="a_edge27_Node000021_Node000023"><a xlink:title=" ">
<path fill="none" stroke="#63b8ff" d="M1067.82,-117.62C1077.6,-108.59 1092.63,-94.72 1104.48,-83.78"/>
<polygon fill="#63b8ff" stroke="#63b8ff" points="1106.7,-86.49 1111.68,-77.14 1101.95,-81.35 1106.7,-86.49"/>
</a>
</g>
</g>
<!-- Node24 -->
<g id="Node000024" class="node">
<title>Node24</title>
<g id="a_Node000024"><a xlink:title=" ">
<polygon fill="#e0e0e0" stroke="#999999" points="1405.66,-20 1311.66,-20 1311.66,0 1405.66,0 1405.66,-20"/>
<text text-anchor="middle" x="1358.66" y="-6.5" font-family="Helvetica,sans-Serif" font-size="10.00">condition_variable</text>
</a>
</g>
</g>
<!-- Node21&#45;&gt;Node24 -->
<g id="edge28_Node000021_Node000024" class="edge">
<title>Node21&#45;&gt;Node24</title>
<g id="a_edge28_Node000021_Node000024"><a xlink:title=" ">
<path fill="none" stroke="#63b8ff" d="M1087.29,-117.58C1117.53,-107.79 1165.7,-91.74 1206.66,-76 1249.13,-59.68 1297.29,-38.64 1327.81,-24.99"/>
<polygon fill="#63b8ff" stroke="#63b8ff" points="1329.14,-28.23 1336.83,-20.94 1326.27,-21.85 1329.14,-28.23"/>
</a>
</g>
</g>
<!-- Node25 -->
<g id="Node000025" class="node">
<title>Node25</title>
<g id="a_Node000025"><a xlink:title=" ">
<polygon fill="#e0e0e0" stroke="#999999" points="1198.04,-76 1163.29,-76 1163.29,-56 1198.04,-56 1198.04,-76"/>
<text text-anchor="middle" x="1180.66" y="-62.5" font-family="Helvetica,sans-Serif" font-size="10.00">map</text>
</a>
</g>
</g>
<!-- Node21&#45;&gt;Node25 -->
<g id="edge30_Node000021_Node000025" class="edge">
<title>Node21&#45;&gt;Node25</title>
<g id="a_edge30_Node000021_Node000025"><a xlink:title=" ">
<path fill="none" stroke="#63b8ff" d="M1076.88,-117.62C1097.29,-107.67 1129.76,-91.83 1152.94,-80.52"/>
<polygon fill="#63b8ff" stroke="#63b8ff" points="1154.35,-83.73 1161.81,-76.2 1151.29,-77.43 1154.35,-83.73"/>
</a>
</g>
</g>
<!-- Node21&#45;&gt;Node26 -->
<g id="edge33_Node000021_Node000026" class="edge">
<title>Node21&#45;&gt;Node26</title>
<g id="a_edge33_Node000021_Node000026"><a xlink:title=" ">
<path fill="none" stroke="#63b8ff" d="M1049.07,-117.62C1040.95,-108.77 1028.57,-95.26 1018.63,-84.43"/>
<polygon fill="#63b8ff" stroke="#63b8ff" points="1021.37,-82.23 1012.04,-77.23 1016.21,-86.97 1021.37,-82.23"/>
</a>
</g>
</g>
<!-- Node26&#45;&gt;Node6 -->
<g id="edge37_Node000026_Node000006" class="edge">
<title>Node26&#45;&gt;Node6</title>
<g id="a_edge37_Node000026_Node000006"><a xlink:title=" ">
<path fill="none" stroke="#63b8ff" d="M1026.31,-57.84C1029.11,-57.14 1031.94,-56.51 1034.66,-56 1197.85,-25.58 1245.96,-50.66 1412.62,-20.01"/>
<polygon fill="#63b8ff" stroke="#63b8ff" points="1413.1,-23.48 1422.28,-18.19 1411.81,-16.6 1413.1,-23.48"/>
</a>
</g>
</g>
<!-- Node26&#45;&gt;Node7 -->
<g id="edge40_Node000026_Node000007" class="edge">
<title>Node26&#45;&gt;Node7</title>
<g id="a_edge40_Node000026_Node000007"><a xlink:title=" ">
<path fill="none" stroke="#63b8ff" d="M978.98,-63.45C882.71,-57.11 522.06,-32.94 433.36,-19.85"/>
<polygon fill="#63b8ff" stroke="#63b8ff" points="434.05,-16.42 423.6,-18.22 432.89,-23.32 434.05,-16.42"/>
</a>
</g>
</g>
<!-- Node26&#45;&gt;Node11 -->
<g id="edge38_Node000026_Node000011" class="edge">
<title>Node26&#45;&gt;Node11</title>
<g id="a_edge38_Node000026_Node000011"><a xlink:title=" ">
<path fill="none" stroke="#63b8ff" d="M978.89,-59.95C943.26,-52.32 873.64,-37.17 804.9,-20.48"/>
<polygon fill="#63b8ff" stroke="#63b8ff" points="805.9,-17.12 795.35,-18.15 804.24,-23.92 805.9,-17.12"/>
</a>
</g>
</g>
<!-- Node26&#45;&gt;Node13 -->
<g id="edge44_Node000026_Node000013" class="edge">
<title>Node26&#45;&gt;Node13</title>
<g id="a_edge44_Node000026_Node000013"><a xlink:title=" ">
<path fill="none" stroke="#63b8ff" d="M979.02,-57.49C949.35,-48.07 898.32,-31.86 865.03,-21.28"/>
<polygon fill="#63b8ff" stroke="#63b8ff" points="866.52,-18.08 855.93,-18.39 864.4,-24.75 866.52,-18.08"/>
</a>
</g>
</g>
<!-- Node26&#45;&gt;Node24 -->
<g id="edge35_Node000026_Node000024" class="edge">
<title>Node26&#45;&gt;Node24</title>
<g id="a_edge35_Node000026_Node000024"><a xlink:title=" ">
<path fill="none" stroke="#63b8ff" d="M1026.33,-57.94C1029.13,-57.23 1031.95,-56.56 1034.66,-56 1148.79,-32.41 1181.78,-37.21 1299.99,-20.34"/>
<polygon fill="#63b8ff" stroke="#63b8ff" points="1300.43,-23.82 1309.82,-18.91 1299.42,-16.89 1300.43,-23.82"/>
</a>
</g>
</g>
<!-- Node27 -->
<g id="Node000027" class="node">
<title>Node27</title>
<g id="a_Node000027"><a xlink:title=" ">
<polygon fill="#e0e0e0" stroke="#999999" points="991.54,-20 935.79,-20 935.79,0 991.54,0 991.54,-20"/>
<text text-anchor="middle" x="963.66" y="-6.5" font-family="Helvetica,sans-Serif" font-size="10.00">algorithm</text>
</a>
</g>
</g>
<!-- Node26&#45;&gt;Node27 -->
<g id="edge34_Node000026_Node000027" class="edge">
<title>Node26&#45;&gt;Node27</title>
<g id="a_edge34_Node000026_Node000027"><a xlink:title=" ">
<path fill="none" stroke="#63b8ff" d="M995.87,-55.59C990.67,-48.39 983.33,-38.23 976.97,-29.43"/>
<polygon fill="#63b8ff" stroke="#63b8ff" points="979.95,-27.58 971.26,-21.53 974.28,-31.68 979.95,-27.58"/>
</a>
</g>
</g>
<!-- Node28 -->
<g id="Node000028" class="node">
<title>Node28</title>
<g id="a_Node000028"><a xlink:title=" ">
<polygon fill="#e0e0e0" stroke="#999999" points="1061.29,-20 1010.04,-20 1010.04,0 1061.29,0 1061.29,-20"/>
<text text-anchor="middle" x="1035.66" y="-6.5" font-family="Helvetica,sans-Serif" font-size="10.00">memory</text>
</a>
</g>
</g>
<!-- Node26&#45;&gt;Node28 -->
<g id="edge36_Node000026_Node000028" class="edge">
<title>Node26&#45;&gt;Node28</title>
<g id="a_edge36_Node000026_Node000028"><a xlink:title=" ">
<path fill="none" stroke="#63b8ff" d="M1008.41,-55.59C1012.71,-48.55 1018.75,-38.67 1024.05,-30"/>
<polygon fill="#63b8ff" stroke="#63b8ff" points="1026.96,-31.95 1029.19,-21.59 1020.99,-28.3 1026.96,-31.95"/>
</a>
</g>
</g>
<!-- Node29 -->
<g id="Node000029" class="node">
<title>Node29</title>
<g id="a_Node000029"><a xlink:title=" ">
<polygon fill="#e0e0e0" stroke="#999999" points="1130.29,-20 1079.04,-20 1079.04,0 1130.29,0 1130.29,-20"/>
<text text-anchor="middle" x="1104.66" y="-6.5" font-family="Helvetica,sans-Serif" font-size="10.00">ostream</text>
</a>
</g>
</g>
<!-- Node26&#45;&gt;Node29 -->
<g id="edge39_Node000026_Node000029" class="edge">
<title>Node26&#45;&gt;Node29</title>
<g id="a_edge39_Node000026_Node000029"><a xlink:title=" ">
<path fill="none" stroke="#63b8ff" d="M1020.43,-55.59C1035.98,-47.36 1058.84,-35.26 1076.82,-25.74"/>
<polygon fill="#63b8ff" stroke="#63b8ff" points="1078.22,-28.96 1085.42,-21.19 1074.94,-22.77 1078.22,-28.96"/>
</a>
</g>
</g>
<!-- Node30 -->
<g id="Node000030" class="node">
<title>Node30</title>
<g id="a_Node000030"><a xlink:title=" ">
<polygon fill="#e0e0e0" stroke="#999999" points="1213.41,-20 1147.91,-20 1147.91,0 1213.41,0 1213.41,-20"/>
<text text-anchor="middle" x="1180.66" y="-6.5" font-family="Helvetica,sans-Serif" font-size="10.00">string_view</text>
</a>
</g>
</g>
<!-- Node26&#45;&gt;Node30 -->
<g id="edge41_Node000026_Node000030" class="edge">
<title>Node26&#45;&gt;Node30</title>
<g id="a_edge41_Node000026_Node000030"><a xlink:title=" ">
<path fill="none" stroke="#63b8ff" d="M1026.3,-57.83C1054.88,-49.16 1103.52,-34.4 1138.57,-23.77"/>
<polygon fill="#63b8ff" stroke="#63b8ff" points="1139.43,-27.17 1147.98,-20.91 1137.4,-20.47 1139.43,-27.17"/>
</a>
</g>
</g>
<!-- Node31 -->
<g id="Node000031" class="node">
<title>Node31</title>
<g id="a_Node000031"><a xlink:title=" ">
<polygon fill="#e0e0e0" stroke="#999999" points="1293.54,-20 1231.79,-20 1231.79,0 1293.54,0 1293.54,-20"/>
<text text-anchor="middle" x="1262.66" y="-6.5" font-family="Helvetica,sans-Serif" font-size="10.00">type_traits</text>
</a>
</g>
</g>
<!-- Node26&#45;&gt;Node31 -->
<g id="edge42_Node000026_Node000031" class="edge">
<title>Node26&#45;&gt;Node31</title>
<g id="a_edge42_Node000026_Node000031"><a xlink:title=" ">
<path fill="none" stroke="#63b8ff" d="M1026.37,-58.09C1029.15,-57.35 1031.96,-56.64 1034.66,-56 1113.98,-37.29 1137.42,-37.3 1220.41,-20.4"/>
<polygon fill="#63b8ff" stroke="#63b8ff" points="1221.1,-23.83 1230.19,-18.38 1219.69,-16.97 1221.1,-23.83"/>
</a>
</g>
</g>
<!-- Node32 -->
<g id="Node000032" class="node">
<title>Node32</title>
<g id="a_Node000032"><a xlink:title=" ">
<polygon fill="#e0e0e0" stroke="#999999" points="917.29,-20 872.04,-20 872.04,0 917.29,0 917.29,-20"/>
<text text-anchor="middle" x="894.66" y="-6.5" font-family="Helvetica,sans-Serif" font-size="10.00">variant</text>
</a>
</g>
</g>
<!-- Node26&#45;&gt;Node32 -->
<g id="edge43_Node000026_Node000032" class="edge">
<title>Node26&#45;&gt;Node32</title>
<g id="a_edge43_Node000026_Node000032"><a xlink:title=" ">
<path fill="none" stroke="#63b8ff" d="M983.85,-55.59C967.3,-47.32 942.95,-35.14 923.87,-25.6"/>
<polygon fill="#63b8ff" stroke="#63b8ff" points="925.48,-22.5 914.97,-21.16 922.35,-28.76 925.48,-22.5"/>
</a>
</g>
</g>
<!-- Node34 -->
<g id="Node000034" class="node">
<title>Node34</title>
<g id="a_Node000034"><a xlink:title=" ">
<polygon fill="#e0e0e0" stroke="#999999" points="115.29,-76 28.04,-76 28.04,-56 115.29,-56 115.29,-76"/>
<text text-anchor="middle" x="71.66" y="-62.5" font-family="Helvetica,sans-Serif" font-size="10.00">libavutil/pixfmt.h</text>
</a>
</g>
</g>
<!-- Node33&#45;&gt;Node34 -->
<g id="edge47_Node000033_Node000034" class="edge">
<title>Node33&#45;&gt;Node34</title>
<g id="a_edge47_Node000033_Node000034"><a xlink:title=" ">
<path fill="none" stroke="#63b8ff" d="M71.66,-117.62C71.66,-109.56 71.66,-97.65 71.66,-87.41"/>
<polygon fill="#63b8ff" stroke="#63b8ff" points="75.16,-87.63 71.66,-77.63 68.16,-87.63 75.16,-87.63"/>
</a>
</g>
</g>
</g>
</svg>
