<?xml version="1.0" encoding="UTF-8" standalone="no"?>
<!DOCTYPE svg PUBLIC "-//W3C//DTD SVG 1.1//EN"
 "http://www.w3.org/Graphics/SVG/1.1/DTD/svg11.dtd">
<!-- Generated by graphviz version 12.2.1 (0)
 -->
<!-- Title: src/audio.h Pages: 1 -->
<svg width="400pt" height="140pt"
 viewBox="0.00 0.00 400.38 140.00" xmlns="http://www.w3.org/2000/svg" xmlns:xlink="http://www.w3.org/1999/xlink">
<g id="graph0" class="graph" transform="scale(1 1) rotate(0) translate(4 136)">
<title>src/audio.h</title>
<!-- Node1 -->
<g id="Node000001" class="node">
<title>Node1</title>
<g id="a_Node000001"><a xlink:title="Declarations for audio capture and encoding.">
<polygon fill="#999999" stroke="#666666" points="182.25,-132 118.25,-132 118.25,-112 182.25,-112 182.25,-132"/>
<text text-anchor="middle" x="150.25" y="-118.5" font-family="Helvetica,sans-Serif" font-size="10.00">src/audio.h</text>
</a>
</g>
</g>
<!-- Node2 -->
<g id="Node000002" class="node">
<title>Node2</title>
<g id="a_Node000002"><a xlink:href="audio_8cpp.html" target="_top" xlink:title="Definitions for audio capture and encoding.">
<polygon fill="white" stroke="#666666" points="74.5,-76 0,-76 0,-56 74.5,-56 74.5,-76"/>
<text text-anchor="middle" x="37.25" y="-62.5" font-family="Helvetica,sans-Serif" font-size="10.00">src/audio.cpp</text>
</a>
</g>
</g>
<!-- Node1&#45;&gt;Node2 -->
<g id="edge1_Node000001_Node000002" class="edge">
<title>Node1&#45;&gt;Node2</title>
<g id="a_edge1_Node000001_Node000002"><a xlink:title=" ">
<path fill="none" stroke="#63b8ff" d="M120.42,-106.75C100.41,-97.18 74.61,-84.85 57.09,-76.48"/>
<polygon fill="#63b8ff" stroke="#63b8ff" points="118.67,-109.79 129.2,-110.94 121.69,-103.47 118.67,-109.79"/>
</a>
</g>
</g>
<!-- Node3 -->
<g id="Node000003" class="node">
<title>Node3</title>
<g id="a_Node000003"><a xlink:href="display__device_8cpp.html" target="_top" xlink:title="Definitions for display device handling.">
<polygon fill="white" stroke="#666666" points="208.12,-76 92.38,-76 92.38,-56 208.12,-56 208.12,-76"/>
<text text-anchor="middle" x="150.25" y="-62.5" font-family="Helvetica,sans-Serif" font-size="10.00">src/display_device.cpp</text>
</a>
</g>
</g>
<!-- Node1&#45;&gt;Node3 -->
<g id="edge2_Node000001_Node000003" class="edge">
<title>Node1&#45;&gt;Node3</title>
<g id="a_edge2_Node000001_Node000003"><a xlink:title=" ">
<path fill="none" stroke="#63b8ff" d="M150.25,-100.13C150.25,-91.9 150.25,-82.85 150.25,-76.3"/>
<polygon fill="#63b8ff" stroke="#63b8ff" points="146.75,-100.08 150.25,-110.08 153.75,-100.08 146.75,-100.08"/>
</a>
</g>
</g>
<!-- Node4 -->
<g id="Node000004" class="node">
<title>Node4</title>
<g id="a_Node000004"><a xlink:href="stream_8h.html" target="_top" xlink:title="Declarations for the streaming protocols.">
<polygon fill="white" stroke="#666666" points="296.62,-76 225.88,-76 225.88,-56 296.62,-56 296.62,-76"/>
<text text-anchor="middle" x="261.25" y="-62.5" font-family="Helvetica,sans-Serif" font-size="10.00">src/stream.h</text>
</a>
</g>
</g>
<!-- Node1&#45;&gt;Node4 -->
<g id="edge3_Node000001_Node000004" class="edge">
<title>Node1&#45;&gt;Node4</title>
<g id="a_edge3_Node000001_Node000004"><a xlink:title=" ">
<path fill="none" stroke="#63b8ff" d="M179.82,-106.61C199.44,-97.07 224.63,-84.81 241.76,-76.48"/>
<polygon fill="#63b8ff" stroke="#63b8ff" points="178.41,-103.41 170.95,-110.93 181.47,-109.7 178.41,-103.41"/>
</a>
</g>
</g>
<!-- Node5 -->
<g id="Node000005" class="node">
<title>Node5</title>
<g id="a_Node000005"><a xlink:href="rtsp_8cpp.html" target="_top" xlink:title="Definitions for RTSP streaming.">
<polygon fill="white" stroke="#666666" points="202.12,-20 134.38,-20 134.38,0 202.12,0 202.12,-20"/>
<text text-anchor="middle" x="168.25" y="-6.5" font-family="Helvetica,sans-Serif" font-size="10.00">src/rtsp.cpp</text>
</a>
</g>
</g>
<!-- Node4&#45;&gt;Node5 -->
<g id="edge4_Node000004_Node000005" class="edge">
<title>Node4&#45;&gt;Node5</title>
<g id="a_edge4_Node000004_Node000005"><a xlink:title=" ">
<path fill="none" stroke="#63b8ff" d="M235.55,-50.08C219.26,-40.62 198.66,-28.66 184.58,-20.48"/>
<polygon fill="#63b8ff" stroke="#63b8ff" points="233.34,-52.84 243.74,-54.83 236.85,-46.79 233.34,-52.84"/>
</a>
</g>
</g>
<!-- Node6 -->
<g id="Node000006" class="node">
<title>Node6</title>
<g id="a_Node000006"><a xlink:href="stream_8cpp.html" target="_top" xlink:title="Definitions for the streaming protocols.">
<polygon fill="white" stroke="#666666" points="301.88,-20 220.62,-20 220.62,0 301.88,0 301.88,-20"/>
<text text-anchor="middle" x="261.25" y="-6.5" font-family="Helvetica,sans-Serif" font-size="10.00">src/stream.cpp</text>
</a>
</g>
</g>
<!-- Node4&#45;&gt;Node6 -->
<g id="edge5_Node000004_Node000006" class="edge">
<title>Node4&#45;&gt;Node6</title>
<g id="a_edge5_Node000004_Node000006"><a xlink:title=" ">
<path fill="none" stroke="#63b8ff" d="M261.25,-44.13C261.25,-35.9 261.25,-26.85 261.25,-20.3"/>
<polygon fill="#63b8ff" stroke="#63b8ff" points="257.75,-44.08 261.25,-54.08 264.75,-44.08 257.75,-44.08"/>
</a>
</g>
</g>
<!-- Node7 -->
<g id="Node000007" class="node">
<title>Node7</title>
<g id="a_Node000007"><a xlink:href="upnp_8cpp.html" target="_top" xlink:title="Definitions for UPnP port mapping.">
<polygon fill="white" stroke="#666666" points="392.38,-20 320.12,-20 320.12,0 392.38,0 392.38,-20"/>
<text text-anchor="middle" x="356.25" y="-6.5" font-family="Helvetica,sans-Serif" font-size="10.00">src/upnp.cpp</text>
</a>
</g>
</g>
<!-- Node4&#45;&gt;Node7 -->
<g id="edge6_Node000004_Node000007" class="edge">
<title>Node4&#45;&gt;Node7</title>
<g id="a_edge6_Node000004_Node000007"><a xlink:title=" ">
<path fill="none" stroke="#63b8ff" d="M287.5,-50.08C304.15,-40.62 325.18,-28.66 339.57,-20.48"/>
<polygon fill="#63b8ff" stroke="#63b8ff" points="286.08,-46.86 279.11,-54.85 289.54,-52.95 286.08,-46.86"/>
</a>
</g>
</g>
</g>
</svg>
