<?xml version="1.0" encoding="UTF-8" standalone="no"?>
<!DOCTYPE svg PUBLIC "-//W3C//DTD SVG 1.1//EN"
 "http://www.w3.org/Graphics/SVG/1.1/DTD/svg11.dtd">
<!-- Generated by graphviz version 12.2.1 (0)
 -->
<!-- Title: src/platform/macos/av_img_t.h Pages: 1 -->
<!--zoomable 276 -->

<svg id="main" version="1.1" xmlns="http://www.w3.org/2000/svg" xmlns:xlink="http://www.w3.org/1999/xlink" xml:space="preserve" onload="init(evt)">

<style type="text/css"><![CDATA[
.node, .edge {opacity: 0.7;}
.node.selected, .edge.selected {opacity: 1;}
.edge:hover path { stroke: red; }
.edge:hover polygon { stroke: red; fill: red; }
]]></style>

<defs>
  <circle id="rim" cx="0" cy="0" r="7"/>
  <circle id="rim2" cx="0" cy="0" r="3.5"/>
  <g id="zoomPlus">
    <use xlink:href="#rim" fill="#404040"><set attributeName="fill" to="#808080" begin="zoomplus.mouseover" end="zoomplus.mouseout"/></use>
    <path d="M-4,0h8M0,-4v8" fill="none" stroke="white" stroke-width="1.5" pointer-events="none"/>
  </g>
  <g id="zoomMin">
    <use xlink:href="#rim" fill="#404040"><set attributeName="fill" to="#808080" begin="zoomminus.mouseover" end="zoomminus.mouseout"/></use>
    <path d="M-4,0h8" fill="none" stroke="white" stroke-width="1.5" pointer-events="none"/>
  </g>
  <g id="arrowUp" transform="translate(30 24)">
    <use xlink:href="#rim"/>
    <path pointer-events="none" fill="none" stroke="white" stroke-width="1.5" d="M0,-3.0v7 M-2.5,-0.5L0,-3.0L2.5,-0.5"/>
  </g>
  <g id="arrowRight" transform="rotate(90) translate(36 -43)">
    <use xlink:href="#rim"/>
    <path pointer-events="none" fill="none" stroke="white" stroke-width="1.5" d="M0,-3.0v7 M-2.5,-0.5L0,-3.0L2.5,-0.5"/>
  </g>
  <g id="arrowDown" transform="rotate(180) translate(-30 -48)">
    <use xlink:href="#rim"/>
    <path pointer-events="none" fill="none" stroke="white" stroke-width="1.5" d="M0,-3.0v7 M-2.5,-0.5L0,-3.0L2.5,-0.5"/>
  </g>
  <g id="arrowLeft" transform="rotate(270) translate(-36 17)">
    <use xlink:href="#rim"/>
    <path pointer-events="none" fill="none" stroke="white" stroke-width="1.5" d="M0,-3.0v7 M-2.5,-0.5L0,-3.0L2.5,-0.5"/>
  </g>
  <g id="resetDef">
    <use xlink:href="#rim2" fill="#404040"><set attributeName="fill" to="#808080" begin="reset.mouseover" end="reset.mouseout"/></use>
  </g>
</defs>
<script type="application/ecmascript">
var viewWidth = 1471;
var viewHeight = 276;
var sectionId = 'dynsection-0';
</script>
<script type="application/ecmascript" xlink:href="svg.min.js"/>
<svg id="graph" class="graph">
<g id="viewport">
<title>src/platform/macos/av_img_t.h</title>
<!-- Node1 -->
<g id="Node000001" class="node">
<title>Node1</title>
<g id="a_Node000001"><a xlink:title="Declarations for AV image types on macOS.">
<polygon fill="#999999" stroke="#666666" points="761,-268 661,-268 661,-236 761,-236 761,-268"/>
<text text-anchor="start" x="669" y="-254.5" font-family="Helvetica,sans-Serif" font-size="10.00">src/platform/macos</text>
<text text-anchor="middle" x="711" y="-242.5" font-family="Helvetica,sans-Serif" font-size="10.00">/av_img_t.h</text>
</a>
</g>
</g>
<!-- Node2 -->
<g id="Node000002" class="node">
<title>Node2</title>
<g id="a_Node000002"><a xlink:title=" ">
<polygon fill="#e0e0e0" stroke="#999999" points="633.88,-200 512.12,-200 512.12,-180 633.88,-180 633.88,-200"/>
<text text-anchor="middle" x="573" y="-186.5" font-family="Helvetica,sans-Serif" font-size="10.00">CoreMedia/CoreMedia.h</text>
</a>
</g>
</g>
<!-- Node1&#45;&gt;Node2 -->
<g id="edge1_Node000001_Node000002" class="edge">
<title>Node1&#45;&gt;Node2</title>
<g id="a_edge1_Node000001_Node000002"><a xlink:title=" ">
<path fill="none" stroke="#63b8ff" d="M675.46,-235.55C653.7,-226.09 626.08,-214.08 605,-204.91"/>
<polygon fill="#63b8ff" stroke="#63b8ff" points="606.59,-201.79 596.03,-201.01 603.8,-208.21 606.59,-201.79"/>
</a>
</g>
</g>
<!-- Node3 -->
<g id="Node000003" class="node">
<title>Node3</title>
<g id="a_Node000003"><a xlink:title=" ">
<polygon fill="#e0e0e0" stroke="#999999" points="770.38,-200 651.62,-200 651.62,-180 770.38,-180 770.38,-200"/>
<text text-anchor="middle" x="711" y="-186.5" font-family="Helvetica,sans-Serif" font-size="10.00">CoreVideo/CoreVideo.h</text>
</a>
</g>
</g>
<!-- Node1&#45;&gt;Node3 -->
<g id="edge2_Node000001_Node000003" class="edge">
<title>Node1&#45;&gt;Node3</title>
<g id="a_edge2_Node000001_Node000003"><a xlink:title=" ">
<path fill="none" stroke="#63b8ff" d="M711,-235.55C711,-228.34 711,-219.66 711,-211.88"/>
<polygon fill="#63b8ff" stroke="#63b8ff" points="714.5,-211.92 711,-201.92 707.5,-211.92 714.5,-211.92"/>
</a>
</g>
</g>
<!-- Node4 -->
<g id="Node000004" class="node">
<title>Node4</title>
<g id="a_Node000004"><a xlink:href="common_8h.html" target="_top" xlink:title="Declarations for common platform specific utilities.">
<polygon fill="white" stroke="#666666" points="905.25,-200 788.75,-200 788.75,-180 905.25,-180 905.25,-200"/>
<text text-anchor="middle" x="847" y="-186.5" font-family="Helvetica,sans-Serif" font-size="10.00">src/platform/common.h</text>
</a>
</g>
</g>
<!-- Node1&#45;&gt;Node4 -->
<g id="edge3_Node000001_Node000004" class="edge">
<title>Node1&#45;&gt;Node4</title>
<g id="a_edge3_Node000001_Node000004"><a xlink:title=" ">
<path fill="none" stroke="#63b8ff" d="M746.02,-235.55C767.37,-226.13 794.44,-214.19 815.18,-205.04"/>
<polygon fill="#63b8ff" stroke="#63b8ff" points="816.55,-208.26 824.29,-201.02 813.73,-201.85 816.55,-208.26"/>
</a>
</g>
</g>
<!-- Node5 -->
<g id="Node000005" class="node">
<title>Node5</title>
<g id="a_Node000005"><a xlink:title=" ">
<polygon fill="#e0e0e0" stroke="#999999" points="40,-20 0,-20 0,0 40,0 40,-20"/>
<text text-anchor="middle" x="20" y="-6.5" font-family="Helvetica,sans-Serif" font-size="10.00">bitset</text>
</a>
</g>
</g>
<!-- Node4&#45;&gt;Node5 -->
<g id="edge4_Node000004_Node000005" class="edge">
<title>Node4&#45;&gt;Node5</title>
<g id="a_edge4_Node000004_Node000005"><a xlink:title=" ">
<path fill="none" stroke="#63b8ff" d="M788.42,-181.02C785.24,-180.66 782.08,-180.31 779,-180 556.03,-157.29 491.69,-204.93 276,-144 183.41,-117.85 85.63,-56.05 42.58,-26.83"/>
<polygon fill="#63b8ff" stroke="#63b8ff" points="44.79,-24.1 34.56,-21.33 40.82,-29.87 44.79,-24.1"/>
</a>
</g>
</g>
<!-- Node6 -->
<g id="Node000006" class="node">
<title>Node6</title>
<g id="a_Node000006"><a xlink:title=" ">
<polygon fill="#e0e0e0" stroke="#999999" points="1047.5,-138 986.5,-138 986.5,-118 1047.5,-118 1047.5,-138"/>
<text text-anchor="middle" x="1017" y="-124.5" font-family="Helvetica,sans-Serif" font-size="10.00">filesystem</text>
</a>
</g>
</g>
<!-- Node4&#45;&gt;Node6 -->
<g id="edge5_Node000004_Node000006" class="edge">
<title>Node4&#45;&gt;Node6</title>
<g id="a_edge5_Node000004_Node000006"><a xlink:title=" ">
<path fill="none" stroke="#63b8ff" d="M873.56,-179.62C902.05,-169.57 947.5,-153.53 979.6,-142.2"/>
<polygon fill="#63b8ff" stroke="#63b8ff" points="980.65,-145.54 988.92,-138.91 978.32,-138.94 980.65,-145.54"/>
</a>
</g>
</g>
<!-- Node7 -->
<g id="Node000007" class="node">
<title>Node7</title>
<g id="a_Node000007"><a xlink:title=" ">
<polygon fill="#e0e0e0" stroke="#999999" points="701,-20 643,-20 643,0 701,0 701,-20"/>
<text text-anchor="middle" x="672" y="-6.5" font-family="Helvetica,sans-Serif" font-size="10.00">functional</text>
</a>
</g>
</g>
<!-- Node4&#45;&gt;Node7 -->
<g id="edge6_Node000004_Node000007" class="edge">
<title>Node4&#45;&gt;Node7</title>
<g id="a_edge6_Node000004_Node000007"><a xlink:title=" ">
<path fill="none" stroke="#63b8ff" d="M836.48,-179.66C815.31,-160.73 766.32,-116.22 728,-76 713.28,-60.55 697.5,-42.04 686.46,-28.73"/>
<polygon fill="#63b8ff" stroke="#63b8ff" points="689.35,-26.74 680.3,-21.25 683.95,-31.19 689.35,-26.74"/>
</a>
</g>
</g>
<!-- Node8 -->
<g id="Node000008" class="node">
<title>Node8</title>
<g id="a_Node000008"><a xlink:title=" ">
<polygon fill="#e0e0e0" stroke="#999999" points="1375.5,-20 1332.5,-20 1332.5,0 1375.5,0 1375.5,-20"/>
<text text-anchor="middle" x="1354" y="-6.5" font-family="Helvetica,sans-Serif" font-size="10.00">mutex</text>
</a>
</g>
</g>
<!-- Node4&#45;&gt;Node8 -->
<g id="edge7_Node000004_Node000008" class="edge">
<title>Node4&#45;&gt;Node8</title>
<g id="a_edge7_Node000004_Node000008"><a xlink:title=" ">
<path fill="none" stroke="#63b8ff" d="M869.72,-179.66C888.83,-171.39 916.56,-158.42 939,-144 957.86,-131.88 958.05,-122.23 978,-112 1011.16,-94.99 1252.77,-38.14 1321.06,-20.38"/>
<polygon fill="#63b8ff" stroke="#63b8ff" points="1321.78,-23.81 1330.54,-17.84 1319.97,-17.04 1321.78,-23.81"/>
</a>
</g>
</g>
<!-- Node9 -->
<g id="Node000009" class="node">
<title>Node9</title>
<g id="a_Node000009"><a xlink:title=" ">
<polygon fill="#e0e0e0" stroke="#999999" points="98,-20 58,-20 58,0 98,0 98,-20"/>
<text text-anchor="middle" x="78" y="-6.5" font-family="Helvetica,sans-Serif" font-size="10.00">string</text>
</a>
</g>
</g>
<!-- Node4&#45;&gt;Node9 -->
<g id="edge8_Node000004_Node000009" class="edge">
<title>Node4&#45;&gt;Node9</title>
<g id="a_edge8_Node000004_Node000009"><a xlink:title=" ">
<path fill="none" stroke="#63b8ff" d="M788.41,-181.08C785.23,-180.7 782.08,-180.34 779,-180 597.17,-159.99 545.86,-190.7 369,-144 265.18,-116.59 152.22,-54.73 103.12,-26.09"/>
<polygon fill="#63b8ff" stroke="#63b8ff" points="105.07,-23.17 94.68,-21.11 101.52,-29.2 105.07,-23.17"/>
</a>
</g>
</g>
<!-- Node10 -->
<g id="Node000010" class="node">
<title>Node10</title>
<g id="a_Node000010"><a xlink:title=" ">
<polygon fill="#e0e0e0" stroke="#999999" points="1204.12,-138 1065.88,-138 1065.88,-118 1204.12,-118 1204.12,-138"/>
<text text-anchor="middle" x="1135" y="-124.5" font-family="Helvetica,sans-Serif" font-size="10.00">boost/core/noncopyable.hpp</text>
</a>
</g>
</g>
<!-- Node4&#45;&gt;Node10 -->
<g id="edge9_Node000004_Node000010" class="edge">
<title>Node4&#45;&gt;Node10</title>
<g id="a_edge9_Node000004_Node000010"><a xlink:title=" ">
<path fill="none" stroke="#63b8ff" d="M892.32,-179.56C942.6,-169.08 1023.81,-152.16 1078.28,-140.82"/>
<polygon fill="#63b8ff" stroke="#63b8ff" points="1078.91,-144.26 1087.99,-138.79 1077.49,-137.41 1078.91,-144.26"/>
</a>
</g>
</g>
<!-- Node11 -->
<g id="Node000011" class="node">
<title>Node11</title>
<g id="a_Node000011"><a xlink:href="config_8h.html" target="_top" xlink:title="Declarations for the configuration of Sunshine.">
<polygon fill="white" stroke="#666666" points="310.5,-76 243.5,-76 243.5,-56 310.5,-56 310.5,-76"/>
<text text-anchor="middle" x="277" y="-62.5" font-family="Helvetica,sans-Serif" font-size="10.00">src/config.h</text>
</a>
</g>
</g>
<!-- Node4&#45;&gt;Node11 -->
<g id="edge10_Node000004_Node000011" class="edge">
<title>Node4&#45;&gt;Node11</title>
<g id="a_edge10_Node000004_Node000011"><a xlink:title=" ">
<path fill="none" stroke="#63b8ff" d="M788.4,-181.17C785.22,-180.77 782.07,-180.38 779,-180 637.38,-162.64 598.05,-180.04 460,-144 402.57,-129.01 339.61,-99.35 304.54,-81.54"/>
<polygon fill="#63b8ff" stroke="#63b8ff" points="306.42,-78.57 295.93,-77.11 303.22,-84.8 306.42,-78.57"/>
</a>
</g>
</g>
<!-- Node17 -->
<g id="Node000017" class="node">
<title>Node17</title>
<g id="a_Node000017"><a xlink:href="logging_8h.html" target="_top" xlink:title="Declarations for logging related functions.">
<polygon fill="white" stroke="#666666" points="540.75,-138 469.25,-138 469.25,-118 540.75,-118 540.75,-138"/>
<text text-anchor="middle" x="505" y="-124.5" font-family="Helvetica,sans-Serif" font-size="10.00">src/logging.h</text>
</a>
</g>
</g>
<!-- Node4&#45;&gt;Node17 -->
<g id="edge18_Node000004_Node000017" class="edge">
<title>Node4&#45;&gt;Node17</title>
<g id="a_edge18_Node000004_Node000017"><a xlink:title=" ">
<path fill="none" stroke="#63b8ff" d="M793.19,-179.56C726.96,-167.94 615.53,-148.39 552.4,-137.31"/>
<polygon fill="#63b8ff" stroke="#63b8ff" points="553.13,-133.89 542.68,-135.61 551.92,-140.79 553.13,-133.89"/>
</a>
</g>
</g>
<!-- Node23 -->
<g id="Node000023" class="node">
<title>Node23</title>
<g id="a_Node000023"><a xlink:href="thread__safe_8h.html" target="_top" xlink:title="Declarations for thread&#45;safe data structures.">
<polygon fill="white" stroke="#666666" points="929.88,-138 838.12,-138 838.12,-118 929.88,-118 929.88,-138"/>
<text text-anchor="middle" x="884" y="-124.5" font-family="Helvetica,sans-Serif" font-size="10.00">src/thread_safe.h</text>
</a>
</g>
</g>
<!-- Node4&#45;&gt;Node23 -->
<g id="edge27_Node000004_Node000023" class="edge">
<title>Node4&#45;&gt;Node23</title>
<g id="a_edge27_Node000004_Node000023"><a xlink:title=" ">
<path fill="none" stroke="#63b8ff" d="M852.78,-179.62C858.03,-171.12 865.91,-158.33 872.45,-147.74"/>
<polygon fill="#63b8ff" stroke="#63b8ff" points="875.32,-149.75 877.59,-139.4 869.36,-146.08 875.32,-149.75"/>
</a>
</g>
</g>
<!-- Node28 -->
<g id="Node000028" class="node">
<title>Node28</title>
<g id="a_Node000028"><a xlink:href="utility_8h.html" target="_top" xlink:title="Declarations for utility functions.">
<polygon fill="white" stroke="#666666" points="840.38,-76 793.62,-76 793.62,-56 840.38,-56 840.38,-76"/>
<text text-anchor="middle" x="817" y="-62.5" font-family="Helvetica,sans-Serif" font-size="10.00">utility.h</text>
</a>
</g>
</g>
<!-- Node4&#45;&gt;Node28 -->
<g id="edge47_Node000004_Node000028" class="edge">
<title>Node4&#45;&gt;Node28</title>
<g id="a_edge47_Node000004_Node000028"><a xlink:title=" ">
<path fill="none" stroke="#63b8ff" d="M842.49,-179.56C838.4,-170.6 832.47,-156.66 829,-144 823.81,-125.06 820.64,-102.83 818.88,-87.14"/>
<polygon fill="#63b8ff" stroke="#63b8ff" points="822.41,-87.25 817.91,-77.65 815.45,-87.96 822.41,-87.25"/>
</a>
</g>
</g>
<!-- Node35 -->
<g id="Node000035" class="node">
<title>Node35</title>
<g id="a_Node000035"><a xlink:href="video__colorspace_8h.html" target="_top" xlink:title="Declarations for colorspace functions.">
<polygon fill="white" stroke="#666666" points="1338.25,-138 1221.75,-138 1221.75,-118 1338.25,-118 1338.25,-138"/>
<text text-anchor="middle" x="1280" y="-124.5" font-family="Helvetica,sans-Serif" font-size="10.00">src/video_colorspace.h</text>
</a>
</g>
</g>
<!-- Node4&#45;&gt;Node35 -->
<g id="edge48_Node000004_Node000035" class="edge">
<title>Node4&#45;&gt;Node35</title>
<g id="a_edge48_Node000004_Node000035"><a xlink:title=" ">
<path fill="none" stroke="#63b8ff" d="M905.58,-183.58C978.06,-176.47 1105.13,-162.66 1213,-144 1218.51,-143.05 1224.25,-141.94 1229.96,-140.77"/>
<polygon fill="#63b8ff" stroke="#63b8ff" points="1230.27,-144.28 1239.32,-138.77 1228.81,-137.43 1230.27,-144.28"/>
</a>
</g>
</g>
<!-- Node37 -->
<g id="Node000037" class="node">
<title>Node37</title>
<g id="a_Node000037"><a xlink:title=" ">
<polygon fill="#e0e0e0" stroke="#999999" points="1463.38,-144 1356.62,-144 1356.62,-112 1463.38,-112 1463.38,-144"/>
<text text-anchor="start" x="1364.62" y="-130.5" font-family="Helvetica,sans-Serif" font-size="10.00">moonlight&#45;common&#45;c</text>
<text text-anchor="middle" x="1410" y="-118.5" font-family="Helvetica,sans-Serif" font-size="10.00">/src/Limelight.h</text>
</a>
</g>
</g>
<!-- Node4&#45;&gt;Node37 -->
<g id="edge50_Node000004_Node000037" class="edge">
<title>Node4&#45;&gt;Node37</title>
<g id="a_edge50_Node000004_Node000037"><a xlink:title=" ">
<path fill="none" stroke="#63b8ff" d="M905.46,-186.47C997.05,-181.91 1180.05,-170.39 1344.82,-144.19"/>
<polygon fill="#63b8ff" stroke="#63b8ff" points="1345.34,-147.65 1354.65,-142.6 1344.22,-140.74 1345.34,-147.65"/>
</a>
</g>
</g>
<!-- Node11&#45;&gt;Node5 -->
<g id="edge11_Node000011_Node000005" class="edge">
<title>Node11&#45;&gt;Node5</title>
<g id="a_edge11_Node000011_Node000005"><a xlink:title=" ">
<path fill="none" stroke="#63b8ff" d="M243.14,-59.47C200.49,-52.26 124.78,-38.63 51.06,-20.31"/>
<polygon fill="#63b8ff" stroke="#63b8ff" points="52.22,-16.99 41.67,-17.94 50.51,-23.78 52.22,-16.99"/>
</a>
</g>
</g>
<!-- Node11&#45;&gt;Node9 -->
<g id="edge14_Node000011_Node000009" class="edge">
<title>Node11&#45;&gt;Node9</title>
<g id="a_edge14_Node000011_Node000009"><a xlink:title=" ">
<path fill="none" stroke="#63b8ff" d="M243.02,-56.45C210.83,-48.26 160.91,-35.3 109,-20.49"/>
<polygon fill="#63b8ff" stroke="#63b8ff" points="110.28,-17.22 99.7,-17.82 108.35,-23.94 110.28,-17.22"/>
</a>
</g>
</g>
<!-- Node12 -->
<g id="Node000012" class="node">
<title>Node12</title>
<g id="a_Node000012"><a xlink:title=" ">
<polygon fill="#e0e0e0" stroke="#999999" points="391.62,-20 346.38,-20 346.38,0 391.62,0 391.62,-20"/>
<text text-anchor="middle" x="369" y="-6.5" font-family="Helvetica,sans-Serif" font-size="10.00">chrono</text>
</a>
</g>
</g>
<!-- Node11&#45;&gt;Node12 -->
<g id="edge12_Node000011_Node000012" class="edge">
<title>Node11&#45;&gt;Node12</title>
<g id="a_edge12_Node000011_Node000012"><a xlink:title=" ">
<path fill="none" stroke="#63b8ff" d="M293.03,-55.59C306.79,-47.51 326.9,-35.71 342.98,-26.27"/>
<polygon fill="#63b8ff" stroke="#63b8ff" points="344.69,-29.33 351.54,-21.25 341.15,-23.29 344.69,-29.33"/>
</a>
</g>
</g>
<!-- Node13 -->
<g id="Node000013" class="node">
<title>Node13</title>
<g id="a_Node000013"><a xlink:title=" ">
<polygon fill="#e0e0e0" stroke="#999999" points="566.88,-20 517.12,-20 517.12,0 566.88,0 566.88,-20"/>
<text text-anchor="middle" x="542" y="-6.5" font-family="Helvetica,sans-Serif" font-size="10.00">optional</text>
</a>
</g>
</g>
<!-- Node11&#45;&gt;Node13 -->
<g id="edge13_Node000011_Node000013" class="edge">
<title>Node11&#45;&gt;Node13</title>
<g id="a_edge13_Node000011_Node000013"><a xlink:title=" ">
<path fill="none" stroke="#63b8ff" d="M310.79,-57.87C313.9,-57.23 317.01,-56.6 320,-56 399.91,-39.99 423.13,-38.96 505.6,-20.42"/>
<polygon fill="#63b8ff" stroke="#63b8ff" points="506.34,-23.84 515.32,-18.22 504.79,-17.02 506.34,-23.84"/>
</a>
</g>
</g>
<!-- Node14 -->
<g id="Node000014" class="node">
<title>Node14</title>
<g id="a_Node000014"><a xlink:title=" ">
<polygon fill="#e0e0e0" stroke="#999999" points="328.38,-20 245.62,-20 245.62,0 328.38,0 328.38,-20"/>
<text text-anchor="middle" x="287" y="-6.5" font-family="Helvetica,sans-Serif" font-size="10.00">unordered_map</text>
</a>
</g>
</g>
<!-- Node11&#45;&gt;Node14 -->
<g id="edge15_Node000011_Node000014" class="edge">
<title>Node11&#45;&gt;Node14</title>
<g id="a_edge15_Node000011_Node000014"><a xlink:title=" ">
<path fill="none" stroke="#63b8ff" d="M278.74,-55.59C279.98,-48.93 281.68,-39.75 283.21,-31.44"/>
<polygon fill="#63b8ff" stroke="#63b8ff" points="286.62,-32.26 285,-21.79 279.74,-30.98 286.62,-32.26"/>
</a>
</g>
</g>
<!-- Node15 -->
<g id="Node000015" class="node">
<title>Node15</title>
<g id="a_Node000015"><a xlink:title=" ">
<polygon fill="#e0e0e0" stroke="#999999" points="762.5,-20 719.5,-20 719.5,0 762.5,0 762.5,-20"/>
<text text-anchor="middle" x="741" y="-6.5" font-family="Helvetica,sans-Serif" font-size="10.00">vector</text>
</a>
</g>
</g>
<!-- Node11&#45;&gt;Node15 -->
<g id="edge16_Node000011_Node000015" class="edge">
<title>Node11&#45;&gt;Node15</title>
<g id="a_edge16_Node000011_Node000015"><a xlink:title=" ">
<path fill="none" stroke="#63b8ff" d="M310.74,-57.56C313.86,-56.98 316.98,-56.45 320,-56 488.52,-30.67 536.95,-51.5 707.94,-20.01"/>
<polygon fill="#63b8ff" stroke="#63b8ff" points="708.44,-23.48 717.62,-18.19 707.15,-16.6 708.44,-23.48"/>
</a>
</g>
</g>
<!-- Node16 -->
<g id="Node000016" class="node">
<title>Node16</title>
<g id="a_Node000016"><a xlink:href="nvenc__config_8h.html" target="_top" xlink:title="Declarations for NVENC encoder configuration.">
<polygon fill="white" stroke="#666666" points="227.62,-20 116.38,-20 116.38,0 227.62,0 227.62,-20"/>
<text text-anchor="middle" x="172" y="-6.5" font-family="Helvetica,sans-Serif" font-size="10.00">nvenc/nvenc_config.h</text>
</a>
</g>
</g>
<!-- Node11&#45;&gt;Node16 -->
<g id="edge17_Node000011_Node000016" class="edge">
<title>Node11&#45;&gt;Node16</title>
<g id="a_edge17_Node000011_Node000016"><a xlink:title=" ">
<path fill="none" stroke="#63b8ff" d="M258.71,-55.59C242.7,-47.36 219.17,-35.26 200.66,-25.74"/>
<polygon fill="#63b8ff" stroke="#63b8ff" points="202.27,-22.63 191.78,-21.17 199.07,-28.86 202.27,-22.63"/>
</a>
</g>
</g>
<!-- Node17&#45;&gt;Node11 -->
<g id="edge21_Node000017_Node000011" class="edge">
<title>Node17&#45;&gt;Node11</title>
<g id="a_edge21_Node000017_Node000011"><a xlink:title=" ">
<path fill="none" stroke="#63b8ff" d="M469.12,-117.56C429.29,-107.08 364.95,-90.14 321.83,-78.8"/>
<polygon fill="#63b8ff" stroke="#63b8ff" points="322.83,-75.44 312.27,-76.28 321.05,-82.21 322.83,-75.44"/>
</a>
</g>
</g>
<!-- Node18 -->
<g id="Node000018" class="node">
<title>Node18</title>
<g id="a_Node000018"><a xlink:title=" ">
<polygon fill="#e0e0e0" stroke="#999999" points="562.5,-76 447.5,-76 447.5,-56 562.5,-56 562.5,-76"/>
<text text-anchor="middle" x="505" y="-62.5" font-family="Helvetica,sans-Serif" font-size="10.00">boost/log/common.hpp</text>
</a>
</g>
</g>
<!-- Node17&#45;&gt;Node18 -->
<g id="edge19_Node000017_Node000018" class="edge">
<title>Node17&#45;&gt;Node18</title>
<g id="a_edge19_Node000017_Node000018"><a xlink:title=" ">
<path fill="none" stroke="#63b8ff" d="M505,-117.62C505,-109.56 505,-97.65 505,-87.41"/>
<polygon fill="#63b8ff" stroke="#63b8ff" points="508.5,-87.63 505,-77.63 501.5,-87.63 508.5,-87.63"/>
</a>
</g>
</g>
<!-- Node19 -->
<g id="Node000019" class="node">
<title>Node19</title>
<g id="a_Node000019"><a xlink:title=" ">
<polygon fill="#e0e0e0" stroke="#999999" points="429.38,-76 328.62,-76 328.62,-56 429.38,-56 429.38,-76"/>
<text text-anchor="middle" x="379" y="-62.5" font-family="Helvetica,sans-Serif" font-size="10.00">boost/log/sinks.hpp</text>
</a>
</g>
</g>
<!-- Node17&#45;&gt;Node19 -->
<g id="edge20_Node000017_Node000019" class="edge">
<title>Node17&#45;&gt;Node19</title>
<g id="a_edge20_Node000017_Node000019"><a xlink:title=" ">
<path fill="none" stroke="#63b8ff" d="M485.31,-117.62C464.79,-107.85 432.37,-92.41 408.72,-81.15"/>
<polygon fill="#63b8ff" stroke="#63b8ff" points="410.45,-78.1 399.92,-76.96 407.44,-84.42 410.45,-78.1"/>
</a>
</g>
</g>
<!-- Node20 -->
<g id="Node000020" class="node">
<title>Node20</title>
<g id="a_Node000020"><a xlink:href="stat__trackers_8h.html" target="_top" xlink:title="Declarations for streaming statistic tracking.">
<polygon fill="white" stroke="#666666" points="661.62,-76 580.38,-76 580.38,-56 661.62,-56 661.62,-76"/>
<text text-anchor="middle" x="621" y="-62.5" font-family="Helvetica,sans-Serif" font-size="10.00">stat_trackers.h</text>
</a>
</g>
</g>
<!-- Node17&#45;&gt;Node20 -->
<g id="edge22_Node000017_Node000020" class="edge">
<title>Node17&#45;&gt;Node20</title>
<g id="a_edge22_Node000017_Node000020"><a xlink:title=" ">
<path fill="none" stroke="#63b8ff" d="M523.12,-117.62C541.85,-107.94 571.33,-92.69 593.05,-81.46"/>
<polygon fill="#63b8ff" stroke="#63b8ff" points="594.38,-84.71 601.66,-77 591.17,-78.49 594.38,-84.71"/>
</a>
</g>
</g>
<!-- Node20&#45;&gt;Node7 -->
<g id="edge24_Node000020_Node000007" class="edge">
<title>Node20&#45;&gt;Node7</title>
<g id="a_edge24_Node000020_Node000007"><a xlink:title=" ">
<path fill="none" stroke="#63b8ff" d="M629.88,-55.59C636.9,-48.16 646.9,-37.58 655.39,-28.58"/>
<polygon fill="#63b8ff" stroke="#63b8ff" points="657.86,-31.07 662.18,-21.4 652.77,-26.27 657.86,-31.07"/>
</a>
</g>
</g>
<!-- Node20&#45;&gt;Node12 -->
<g id="edge23_Node000020_Node000012" class="edge">
<title>Node20&#45;&gt;Node12</title>
<g id="a_edge23_Node000020_Node000012"><a xlink:title=" ">
<path fill="none" stroke="#63b8ff" d="M580,-57.07C530.22,-47.37 448.09,-31.15 402.89,-20.53"/>
<polygon fill="#63b8ff" stroke="#63b8ff" points="403.98,-17.19 393.44,-18.25 402.34,-24 403.98,-17.19"/>
</a>
</g>
</g>
<!-- Node21 -->
<g id="Node000021" class="node">
<title>Node21</title>
<g id="a_Node000021"><a xlink:title=" ">
<polygon fill="#e0e0e0" stroke="#999999" points="624.62,-20 585.38,-20 585.38,0 624.62,0 624.62,-20"/>
<text text-anchor="middle" x="605" y="-6.5" font-family="Helvetica,sans-Serif" font-size="10.00">limits</text>
</a>
</g>
</g>
<!-- Node20&#45;&gt;Node21 -->
<g id="edge25_Node000020_Node000021" class="edge">
<title>Node20&#45;&gt;Node21</title>
<g id="a_edge25_Node000020_Node000021"><a xlink:title=" ">
<path fill="none" stroke="#63b8ff" d="M618.21,-55.59C616.22,-48.86 613.45,-39.53 610.97,-31.15"/>
<polygon fill="#63b8ff" stroke="#63b8ff" points="614.38,-30.34 608.19,-21.75 607.67,-32.33 614.38,-30.34"/>
</a>
</g>
</g>
<!-- Node22 -->
<g id="Node000022" class="node">
<title>Node22</title>
<g id="a_Node000022"><a xlink:title=" ">
<polygon fill="#e0e0e0" stroke="#999999" points="498.75,-20 409.25,-20 409.25,0 498.75,0 498.75,-20"/>
<text text-anchor="middle" x="454" y="-6.5" font-family="Helvetica,sans-Serif" font-size="10.00">boost/format.hpp</text>
</a>
</g>
</g>
<!-- Node20&#45;&gt;Node22 -->
<g id="edge26_Node000020_Node000022" class="edge">
<title>Node20&#45;&gt;Node22</title>
<g id="a_edge26_Node000020_Node000022"><a xlink:title=" ">
<path fill="none" stroke="#63b8ff" d="M591.91,-55.59C564.78,-46.82 524.07,-33.66 493.91,-23.9"/>
<polygon fill="#63b8ff" stroke="#63b8ff" points="495.35,-20.69 484.76,-20.95 493.19,-27.35 495.35,-20.69"/>
</a>
</g>
</g>
<!-- Node23&#45;&gt;Node7 -->
<g id="edge31_Node000023_Node000007" class="edge">
<title>Node23&#45;&gt;Node7</title>
<g id="a_edge31_Node000023_Node000007"><a xlink:title=" ">
<path fill="none" stroke="#63b8ff" d="M857.49,-117.6C832.66,-108.37 794.85,-93.19 764,-76 738.2,-61.62 710.82,-41.58 692.71,-27.57"/>
<polygon fill="#63b8ff" stroke="#63b8ff" points="694.88,-24.83 684.85,-21.41 690.56,-30.34 694.88,-24.83"/>
</a>
</g>
</g>
<!-- Node23&#45;&gt;Node8 -->
<g id="edge33_Node000023_Node000008" class="edge">
<title>Node23&#45;&gt;Node8</title>
<g id="a_edge33_Node000023_Node000008"><a xlink:title=" ">
<path fill="none" stroke="#63b8ff" d="M922.78,-117.51C958.62,-108.31 1013.08,-93.25 1059,-76 1078.73,-68.59 1081.85,-62.2 1102,-56 1193.68,-27.8 1223.76,-40.87 1320.86,-20.19"/>
<polygon fill="#63b8ff" stroke="#63b8ff" points="1321.58,-23.62 1330.59,-18.05 1320.07,-16.78 1321.58,-23.62"/>
</a>
</g>
</g>
<!-- Node23&#45;&gt;Node15 -->
<g id="edge34_Node000023_Node000015" class="edge">
<title>Node23&#45;&gt;Node15</title>
<g id="a_edge34_Node000023_Node000015"><a xlink:title=" ">
<path fill="none" stroke="#63b8ff" d="M857.44,-117.57C836.15,-109.07 806.4,-94.99 785,-76 770.52,-63.15 758.57,-44.56 750.79,-30.54"/>
<polygon fill="#63b8ff" stroke="#63b8ff" points="753.95,-29.03 746.19,-21.82 747.76,-32.3 753.95,-29.03"/>
</a>
</g>
</g>
<!-- Node24 -->
<g id="Node000024" class="node">
<title>Node24</title>
<g id="a_Node000024"><a xlink:title=" ">
<polygon fill="#e0e0e0" stroke="#999999" points="895.88,-76 858.12,-76 858.12,-56 895.88,-56 895.88,-76"/>
<text text-anchor="middle" x="877" y="-62.5" font-family="Helvetica,sans-Serif" font-size="10.00">array</text>
</a>
</g>
</g>
<!-- Node23&#45;&gt;Node24 -->
<g id="edge28_Node000023_Node000024" class="edge">
<title>Node23&#45;&gt;Node24</title>
<g id="a_edge28_Node000023_Node000024"><a xlink:title=" ">
<path fill="none" stroke="#63b8ff" d="M882.91,-117.62C881.97,-109.56 880.58,-97.65 879.38,-87.41"/>
<polygon fill="#63b8ff" stroke="#63b8ff" points="882.87,-87.14 878.24,-77.62 875.92,-87.95 882.87,-87.14"/>
</a>
</g>
</g>
<!-- Node25 -->
<g id="Node000025" class="node">
<title>Node25</title>
<g id="a_Node000025"><a xlink:title=" ">
<polygon fill="#e0e0e0" stroke="#999999" points="997.62,-76 952.38,-76 952.38,-56 997.62,-56 997.62,-76"/>
<text text-anchor="middle" x="975" y="-62.5" font-family="Helvetica,sans-Serif" font-size="10.00">atomic</text>
</a>
</g>
</g>
<!-- Node23&#45;&gt;Node25 -->
<g id="edge29_Node000023_Node000025" class="edge">
<title>Node23&#45;&gt;Node25</title>
<g id="a_edge29_Node000023_Node000025"><a xlink:title=" ">
<path fill="none" stroke="#63b8ff" d="M898.22,-117.62C912.51,-108.2 934.78,-93.52 951.66,-82.39"/>
<polygon fill="#63b8ff" stroke="#63b8ff" points="953.2,-85.57 959.62,-77.14 949.34,-79.72 953.2,-85.57"/>
</a>
</g>
</g>
<!-- Node26 -->
<g id="Node000026" class="node">
<title>Node26</title>
<g id="a_Node000026"><a xlink:title=" ">
<polygon fill="#e0e0e0" stroke="#999999" points="1314,-20 1220,-20 1220,0 1314,0 1314,-20"/>
<text text-anchor="middle" x="1267" y="-6.5" font-family="Helvetica,sans-Serif" font-size="10.00">condition_variable</text>
</a>
</g>
</g>
<!-- Node23&#45;&gt;Node26 -->
<g id="edge30_Node000023_Node000026" class="edge">
<title>Node23&#45;&gt;Node26</title>
<g id="a_edge30_Node000023_Node000026"><a xlink:title=" ">
<path fill="none" stroke="#63b8ff" d="M888.7,-117.72C897.18,-102.04 916.64,-70.59 943,-56 1044.97,0.43 1089.39,-35.22 1208.3,-20.25"/>
<polygon fill="#63b8ff" stroke="#63b8ff" points="1208.72,-23.73 1218.16,-18.9 1207.78,-16.79 1208.72,-23.73"/>
</a>
</g>
</g>
<!-- Node27 -->
<g id="Node000027" class="node">
<title>Node27</title>
<g id="a_Node000027"><a xlink:title=" ">
<polygon fill="#e0e0e0" stroke="#999999" points="1050.38,-76 1015.62,-76 1015.62,-56 1050.38,-56 1050.38,-76"/>
<text text-anchor="middle" x="1033" y="-62.5" font-family="Helvetica,sans-Serif" font-size="10.00">map</text>
</a>
</g>
</g>
<!-- Node23&#45;&gt;Node27 -->
<g id="edge32_Node000023_Node000027" class="edge">
<title>Node23&#45;&gt;Node27</title>
<g id="a_edge32_Node000023_Node000027"><a xlink:title=" ">
<path fill="none" stroke="#63b8ff" d="M907.28,-117.62C933.73,-106.98 976.86,-89.61 1005.09,-78.24"/>
<polygon fill="#63b8ff" stroke="#63b8ff" points="1006.1,-81.61 1014.07,-74.62 1003.48,-75.11 1006.1,-81.61"/>
</a>
</g>
</g>
<!-- Node23&#45;&gt;Node28 -->
<g id="edge35_Node000023_Node000028" class="edge">
<title>Node23&#45;&gt;Node28</title>
<g id="a_edge35_Node000023_Node000028"><a xlink:title=" ">
<path fill="none" stroke="#63b8ff" d="M873.53,-117.62C863.44,-108.59 847.95,-94.72 835.74,-83.78"/>
<polygon fill="#63b8ff" stroke="#63b8ff" points="838.09,-81.19 828.3,-77.12 833.42,-86.4 838.09,-81.19"/>
</a>
</g>
</g>
<!-- Node28&#45;&gt;Node8 -->
<g id="edge39_Node000028_Node000008" class="edge">
<title>Node28&#45;&gt;Node8</title>
<g id="a_edge39_Node000028_Node000008"><a xlink:title=" ">
<path fill="none" stroke="#63b8ff" d="M840.64,-57.79C843.44,-57.1 846.27,-56.48 849,-56 1053.39,-19.87 1113.02,-56.33 1320.82,-19.98"/>
<polygon fill="#63b8ff" stroke="#63b8ff" points="1321.4,-23.43 1330.63,-18.23 1320.17,-16.54 1321.4,-23.43"/>
</a>
</g>
</g>
<!-- Node28&#45;&gt;Node9 -->
<g id="edge42_Node000028_Node000009" class="edge">
<title>Node28&#45;&gt;Node9</title>
<g id="a_edge42_Node000028_Node000009"><a xlink:title=" ">
<path fill="none" stroke="#63b8ff" d="M793.29,-63.54C679.46,-56.5 191.58,-26.29 109.71,-19.2"/>
<polygon fill="#63b8ff" stroke="#63b8ff" points="110.26,-15.74 99.95,-18.16 109.53,-22.7 110.26,-15.74"/>
</a>
</g>
</g>
<!-- Node28&#45;&gt;Node13 -->
<g id="edge40_Node000028_Node000013" class="edge">
<title>Node28&#45;&gt;Node13</title>
<g id="a_edge40_Node000028_Node000013"><a xlink:title=" ">
<path fill="none" stroke="#63b8ff" d="M793.28,-61.17C751.75,-54.34 662.97,-39.17 578.31,-20.38"/>
<polygon fill="#63b8ff" stroke="#63b8ff" points="579.2,-17 568.68,-18.22 577.67,-23.83 579.2,-17"/>
</a>
</g>
</g>
<!-- Node28&#45;&gt;Node15 -->
<g id="edge46_Node000028_Node000015" class="edge">
<title>Node28&#45;&gt;Node15</title>
<g id="a_edge46_Node000028_Node000015"><a xlink:title=" ">
<path fill="none" stroke="#63b8ff" d="M803.76,-55.59C792.71,-47.74 776.72,-36.38 763.64,-27.09"/>
<polygon fill="#63b8ff" stroke="#63b8ff" points="765.75,-24.3 755.58,-21.36 761.7,-30 765.75,-24.3"/>
</a>
</g>
</g>
<!-- Node28&#45;&gt;Node26 -->
<g id="edge37_Node000028_Node000026" class="edge">
<title>Node28&#45;&gt;Node26</title>
<g id="a_edge37_Node000028_Node000026"><a xlink:title=" ">
<path fill="none" stroke="#63b8ff" d="M840.66,-57.85C843.45,-57.15 846.28,-56.51 849,-56 1004.31,-26.67 1048.68,-40.19 1208.47,-20.24"/>
<polygon fill="#63b8ff" stroke="#63b8ff" points="1208.69,-23.74 1218.17,-19 1207.81,-16.8 1208.69,-23.74"/>
</a>
</g>
</g>
<!-- Node29 -->
<g id="Node000029" class="node">
<title>Node29</title>
<g id="a_Node000029"><a xlink:title=" ">
<polygon fill="#e0e0e0" stroke="#999999" points="835.88,-20 780.12,-20 780.12,0 835.88,0 835.88,-20"/>
<text text-anchor="middle" x="808" y="-6.5" font-family="Helvetica,sans-Serif" font-size="10.00">algorithm</text>
</a>
</g>
</g>
<!-- Node28&#45;&gt;Node29 -->
<g id="edge36_Node000028_Node000029" class="edge">
<title>Node28&#45;&gt;Node29</title>
<g id="a_edge36_Node000028_Node000029"><a xlink:title=" ">
<path fill="none" stroke="#63b8ff" d="M815.43,-55.59C814.32,-48.93 812.79,-39.75 811.41,-31.44"/>
<polygon fill="#63b8ff" stroke="#63b8ff" points="814.89,-31.08 809.8,-21.79 807.99,-32.23 814.89,-31.08"/>
</a>
</g>
</g>
<!-- Node30 -->
<g id="Node000030" class="node">
<title>Node30</title>
<g id="a_Node000030"><a xlink:title=" ">
<polygon fill="#e0e0e0" stroke="#999999" points="905.62,-20 854.38,-20 854.38,0 905.62,0 905.62,-20"/>
<text text-anchor="middle" x="880" y="-6.5" font-family="Helvetica,sans-Serif" font-size="10.00">memory</text>
</a>
</g>
</g>
<!-- Node28&#45;&gt;Node30 -->
<g id="edge38_Node000028_Node000030" class="edge">
<title>Node28&#45;&gt;Node30</title>
<g id="a_edge38_Node000028_Node000030"><a xlink:title=" ">
<path fill="none" stroke="#63b8ff" d="M827.97,-55.59C836.92,-47.93 849.77,-36.91 860.46,-27.75"/>
<polygon fill="#63b8ff" stroke="#63b8ff" points="862.69,-30.45 868,-21.28 858.13,-25.13 862.69,-30.45"/>
</a>
</g>
</g>
<!-- Node31 -->
<g id="Node000031" class="node">
<title>Node31</title>
<g id="a_Node000031"><a xlink:title=" ">
<polygon fill="#e0e0e0" stroke="#999999" points="974.62,-20 923.38,-20 923.38,0 974.62,0 974.62,-20"/>
<text text-anchor="middle" x="949" y="-6.5" font-family="Helvetica,sans-Serif" font-size="10.00">ostream</text>
</a>
</g>
</g>
<!-- Node28&#45;&gt;Node31 -->
<g id="edge41_Node000028_Node000031" class="edge">
<title>Node28&#45;&gt;Node31</title>
<g id="a_edge41_Node000028_Node000031"><a xlink:title=" ">
<path fill="none" stroke="#63b8ff" d="M839.99,-55.59C860.78,-47.09 891.65,-34.46 915.24,-24.81"/>
<polygon fill="#63b8ff" stroke="#63b8ff" points="916.5,-28.08 924.43,-21.05 913.85,-21.6 916.5,-28.08"/>
</a>
</g>
</g>
<!-- Node32 -->
<g id="Node000032" class="node">
<title>Node32</title>
<g id="a_Node000032"><a xlink:title=" ">
<polygon fill="#e0e0e0" stroke="#999999" points="1057.75,-20 992.25,-20 992.25,0 1057.75,0 1057.75,-20"/>
<text text-anchor="middle" x="1025" y="-6.5" font-family="Helvetica,sans-Serif" font-size="10.00">string_view</text>
</a>
</g>
</g>
<!-- Node28&#45;&gt;Node32 -->
<g id="edge43_Node000028_Node000032" class="edge">
<title>Node28&#45;&gt;Node32</title>
<g id="a_edge43_Node000028_Node000032"><a xlink:title=" ">
<path fill="none" stroke="#63b8ff" d="M840.75,-58.25C843.53,-57.48 846.32,-56.72 849,-56 893.8,-43.97 945.22,-30.91 980.86,-21.98"/>
<polygon fill="#63b8ff" stroke="#63b8ff" points="981.53,-25.42 990.38,-19.59 979.83,-18.62 981.53,-25.42"/>
</a>
</g>
</g>
<!-- Node33 -->
<g id="Node000033" class="node">
<title>Node33</title>
<g id="a_Node000033"><a xlink:title=" ">
<polygon fill="#e0e0e0" stroke="#999999" points="1137.88,-20 1076.12,-20 1076.12,0 1137.88,0 1137.88,-20"/>
<text text-anchor="middle" x="1107" y="-6.5" font-family="Helvetica,sans-Serif" font-size="10.00">type_traits</text>
</a>
</g>
</g>
<!-- Node28&#45;&gt;Node33 -->
<g id="edge44_Node000028_Node000033" class="edge">
<title>Node28&#45;&gt;Node33</title>
<g id="a_edge44_Node000028_Node000033"><a xlink:title=" ">
<path fill="none" stroke="#63b8ff" d="M840.69,-58.02C843.48,-57.29 846.3,-56.6 849,-56 941.39,-35.44 968.66,-38.52 1064.91,-20.3"/>
<polygon fill="#63b8ff" stroke="#63b8ff" points="1065.38,-23.77 1074.54,-18.44 1064.06,-16.89 1065.38,-23.77"/>
</a>
</g>
</g>
<!-- Node34 -->
<g id="Node000034" class="node">
<title>Node34</title>
<g id="a_Node000034"><a xlink:title=" ">
<polygon fill="#e0e0e0" stroke="#999999" points="1201.62,-20 1156.38,-20 1156.38,0 1201.62,0 1201.62,-20"/>
<text text-anchor="middle" x="1179" y="-6.5" font-family="Helvetica,sans-Serif" font-size="10.00">variant</text>
</a>
</g>
</g>
<!-- Node28&#45;&gt;Node34 -->
<g id="edge45_Node000028_Node000034" class="edge">
<title>Node28&#45;&gt;Node34</title>
<g id="a_edge45_Node000028_Node000034"><a xlink:title=" ">
<path fill="none" stroke="#63b8ff" d="M840.67,-57.91C843.46,-57.2 846.28,-56.54 849,-56 976.24,-30.58 1014.12,-45.28 1144.79,-20.13"/>
<polygon fill="#63b8ff" stroke="#63b8ff" points="1145.41,-23.58 1154.55,-18.21 1144.06,-16.71 1145.41,-23.58"/>
</a>
</g>
</g>
<!-- Node36 -->
<g id="Node000036" class="node">
<title>Node36</title>
<g id="a_Node000036"><a xlink:title=" ">
<polygon fill="#e0e0e0" stroke="#999999" points="1323.62,-76 1236.38,-76 1236.38,-56 1323.62,-56 1323.62,-76"/>
<text text-anchor="middle" x="1280" y="-62.5" font-family="Helvetica,sans-Serif" font-size="10.00">libavutil/pixfmt.h</text>
</a>
</g>
</g>
<!-- Node35&#45;&gt;Node36 -->
<g id="edge49_Node000035_Node000036" class="edge">
<title>Node35&#45;&gt;Node36</title>
<g id="a_edge49_Node000035_Node000036"><a xlink:title=" ">
<path fill="none" stroke="#63b8ff" d="M1280,-117.62C1280,-109.56 1280,-97.65 1280,-87.41"/>
<polygon fill="#63b8ff" stroke="#63b8ff" points="1283.5,-87.63 1280,-77.63 1276.5,-87.63 1283.5,-87.63"/>
</a>
</g>
</g>
</g>
</svg>

<g id="navigator" transform="translate(0 0)" fill="#404254">
  <rect fill="#f2f5e9" fill-opacity="0.5" stroke="#606060" stroke-width=".5" x="0" y="0" width="60" height="60"/>
  <use id="zoomplus" xlink:href="#zoomPlus" x="17" y="9" onmousedown="handleZoom(evt,'in')"/>
  <use id="zoomminus" xlink:href="#zoomMin" x="42" y="9" onmousedown="handleZoom(evt,'out')"/>
  <use id="reset" xlink:href="#resetDef" x="30" y="36" onmousedown="handleReset()"/>
   <use id="arrowup" xlink:href="#arrowUp" x="0" y="0" onmousedown="handlePan(0,-1)"/>
  <use id="arrowright" xlink:href="#arrowRight" x="0" y="0" onmousedown="handlePan(1,0)"/>
  <use id="arrowdown" xlink:href="#arrowDown" x="0" y="0" onmousedown="handlePan(0,1)"/>
  <use id="arrowleft" xlink:href="#arrowLeft" x="0" y="0" onmousedown="handlePan(-1,0)"/>
</g>
<svg viewBox="0 0 15 15" width="100%" height="30px" preserveAspectRatio="xMaxYMin meet">
 <g id="arrow_out" transform="scale(0.3 0.3)">
  <a xlink:href="av__img__t_8h__incl_org.svg" target="_base">
   <rect id="button" ry="5" rx="5" y="6" x="6" height="38" width="38"
        fill="#f2f5e9" fill-opacity="0.5" stroke="#606060" stroke-width="1.0"/>
   <path id="arrow"
     d="M 11.500037,31.436501 C 11.940474,20.09759 22.043105,11.32322 32.158766,21.979434 L 37.068811,17.246167 C 37.068811,17.246167 37.088388,32 37.088388,32 L 22.160133,31.978069 C 22.160133,31.978069 26.997745,27.140456 26.997745,27.140456 C 18.528582,18.264221 13.291696,25.230495 11.500037,31.436501 z"
     style="fill:#404040;"/>
  </a>
 </g>
</svg>

<style type='text/css'>
<![CDATA[
[data-mouse-over-selected='false'] { opacity: 0.7; }
[data-mouse-over-selected='true']  { opacity: 1.0; }
]]>
</style>
<script type="application/ecmascript"><![CDATA[
document.addEventListener('DOMContentLoaded', (event) => {
  highlightEdges();
  highlightAdjacentNodes();
});
]]></script>
</svg>
