<?xml version="1.0" encoding="UTF-8" standalone="no"?>
<!DOCTYPE svg PUBLIC "-//W3C//DTD SVG 1.1//EN"
 "http://www.w3.org/Graphics/SVG/1.1/DTD/svg11.dtd">
<!-- Generated by graphviz version 12.2.1 (0)
 -->
<!-- Title: src/platform/macos/av_video.h Pages: 1 -->
<svg width="226pt" height="108pt"
 viewBox="0.00 0.00 226.00 108.00" xmlns="http://www.w3.org/2000/svg" xmlns:xlink="http://www.w3.org/1999/xlink">
<g id="graph0" class="graph" transform="scale(1 1) rotate(0) translate(4 104)">
<title>src/platform/macos/av_video.h</title>
<!-- Node1 -->
<g id="Node000001" class="node">
<title>Node1</title>
<g id="a_Node000001"><a xlink:title="Declarations for video capture on macOS.">
<polygon fill="#999999" stroke="#666666" points="159,-100 59,-100 59,-68 159,-68 159,-100"/>
<text text-anchor="start" x="67" y="-86.5" font-family="Helvetica,sans-Serif" font-size="10.00">src/platform/macos</text>
<text text-anchor="middle" x="109" y="-74.5" font-family="Helvetica,sans-Serif" font-size="10.00">/av_video.h</text>
</a>
</g>
</g>
<!-- Node2 -->
<g id="Node000002" class="node">
<title>Node2</title>
<g id="a_Node000002"><a xlink:href="av__video_8m.html" target="_top" xlink:title="Definitions for video capture on macOS.">
<polygon fill="white" stroke="#666666" points="100,-32 0,-32 0,0 100,0 100,-32"/>
<text text-anchor="start" x="8" y="-18.5" font-family="Helvetica,sans-Serif" font-size="10.00">src/platform/macos</text>
<text text-anchor="middle" x="50" y="-6.5" font-family="Helvetica,sans-Serif" font-size="10.00">/av_video.m</text>
</a>
</g>
</g>
<!-- Node1&#45;&gt;Node2 -->
<g id="edge1_Node000001_Node000002" class="edge">
<title>Node1&#45;&gt;Node2</title>
<g id="a_edge1_Node000001_Node000002"><a xlink:title=" ">
<path fill="none" stroke="#63b8ff" d="M87.68,-59.15C79.65,-50.17 70.75,-40.21 63.61,-32.22"/>
<polygon fill="#63b8ff" stroke="#63b8ff" points="85.03,-61.44 94.31,-66.56 90.25,-56.78 85.03,-61.44"/>
</a>
</g>
</g>
<!-- Node3 -->
<g id="Node000003" class="node">
<title>Node3</title>
<g id="a_Node000003"><a xlink:href="display_8mm.html" target="_top" xlink:title="Definitions for display capture on macOS.">
<polygon fill="white" stroke="#666666" points="218,-32 118,-32 118,0 218,0 218,-32"/>
<text text-anchor="start" x="126" y="-18.5" font-family="Helvetica,sans-Serif" font-size="10.00">src/platform/macos</text>
<text text-anchor="middle" x="168" y="-6.5" font-family="Helvetica,sans-Serif" font-size="10.00">/display.mm</text>
</a>
</g>
</g>
<!-- Node1&#45;&gt;Node3 -->
<g id="edge2_Node000001_Node000003" class="edge">
<title>Node1&#45;&gt;Node3</title>
<g id="a_edge2_Node000001_Node000003"><a xlink:title=" ">
<path fill="none" stroke="#63b8ff" d="M130.32,-59.15C138.35,-50.17 147.25,-40.21 154.39,-32.22"/>
<polygon fill="#63b8ff" stroke="#63b8ff" points="127.75,-56.78 123.69,-66.56 132.97,-61.44 127.75,-56.78"/>
</a>
</g>
</g>
</g>
</svg>
