<?xml version="1.0" encoding="UTF-8" standalone="no"?>
<!DOCTYPE svg PUBLIC "-//W3C//DTD SVG 1.1//EN"
 "http://www.w3.org/Graphics/SVG/1.1/DTD/svg11.dtd">
<!-- Generated by graphviz version 12.2.1 (0)
 -->
<!-- Title: src/platform/macos/av_audio.h Pages: 1 -->
<svg width="310pt" height="108pt"
 viewBox="0.00 0.00 309.62 108.00" xmlns="http://www.w3.org/2000/svg" xmlns:xlink="http://www.w3.org/1999/xlink">
<g id="graph0" class="graph" transform="scale(1 1) rotate(0) translate(4 104)">
<title>src/platform/macos/av_audio.h</title>
<!-- Node1 -->
<g id="Node000001" class="node">
<title>Node1</title>
<g id="a_Node000001"><a xlink:title="Declarations for audio capture on macOS.">
<polygon fill="#999999" stroke="#666666" points="204.38,-100 104.38,-100 104.38,-68 204.38,-68 204.38,-100"/>
<text text-anchor="start" x="112.38" y="-86.5" font-family="Helvetica,sans-Serif" font-size="10.00">src/platform/macos</text>
<text text-anchor="middle" x="154.38" y="-74.5" font-family="Helvetica,sans-Serif" font-size="10.00">/av_audio.h</text>
</a>
</g>
</g>
<!-- Node2 -->
<g id="Node000002" class="node">
<title>Node2</title>
<g id="a_Node000002"><a xlink:title=" ">
<polygon fill="#e0e0e0" stroke="#999999" points="148.75,-26 0,-26 0,-6 148.75,-6 148.75,-26"/>
<text text-anchor="middle" x="74.38" y="-12.5" font-family="Helvetica,sans-Serif" font-size="10.00">AVFoundation/AVFoundation.h</text>
</a>
</g>
</g>
<!-- Node1&#45;&gt;Node2 -->
<g id="edge1_Node000001_Node000002" class="edge">
<title>Node1&#45;&gt;Node2</title>
<g id="a_edge1_Node000001_Node000002"><a xlink:title=" ">
<path fill="none" stroke="#63b8ff" d="M135.82,-67.69C123.46,-57.5 107.22,-44.1 94.55,-33.64"/>
<polygon fill="#63b8ff" stroke="#63b8ff" points="96.78,-30.94 86.83,-27.28 92.32,-36.34 96.78,-30.94"/>
</a>
</g>
</g>
<!-- Node3 -->
<g id="Node000003" class="node">
<title>Node3</title>
<g id="a_Node000003"><a xlink:title=" ">
<polygon fill="#e0e0e0" stroke="#999999" points="301.62,-32 167.12,-32 167.12,0 301.62,0 301.62,-32"/>
<text text-anchor="start" x="175.12" y="-18.5" font-family="Helvetica,sans-Serif" font-size="10.00">third&#45;party/TPCircularBuffer</text>
<text text-anchor="middle" x="234.38" y="-6.5" font-family="Helvetica,sans-Serif" font-size="10.00">/TPCircularBuffer.h</text>
</a>
</g>
</g>
<!-- Node1&#45;&gt;Node3 -->
<g id="edge2_Node000001_Node000003" class="edge">
<title>Node1&#45;&gt;Node3</title>
<g id="a_edge2_Node000001_Node000003"><a xlink:title=" ">
<path fill="none" stroke="#63b8ff" d="M172.93,-67.69C183.05,-59.34 195.78,-48.84 207.02,-39.56"/>
<polygon fill="#63b8ff" stroke="#63b8ff" points="208.99,-42.48 214.48,-33.42 204.54,-37.08 208.99,-42.48"/>
</a>
</g>
</g>
</g>
</svg>
