<?xml version="1.0" encoding="UTF-8" standalone="no"?>
<!DOCTYPE svg PUBLIC "-//W3C//DTD SVG 1.1//EN"
 "http://www.w3.org/Graphics/SVG/1.1/DTD/svg11.dtd">
<!-- Generated by graphviz version 12.2.1 (0)
 -->
<!-- Title: src/platform/macos/av_video.m Pages: 1 -->
<svg width="260pt" height="152pt"
 viewBox="0.00 0.00 260.25 152.00" xmlns="http://www.w3.org/2000/svg" xmlns:xlink="http://www.w3.org/1999/xlink">

<svg id="main" version="1.1" xmlns="http://www.w3.org/2000/svg" xmlns:xlink="http://www.w3.org/1999/xlink" xml:space="preserve">

<style type="text/css"><![CDATA[
.node, .edge {opacity: 0.7;}
.node.selected, .edge.selected {opacity: 1;}
.edge:hover path { stroke: red; }
.edge:hover polygon { stroke: red; fill: red; }
]]></style>
<script type="application/ecmascript" xlink:href="svg.min.js"/>
<svg id="graph" class="graph">
<g id="graph0" class="graph" transform="scale(1 1) rotate(0) translate(4 148)">
<title>src/platform/macos/av_video.m</title>
<!-- Node1 -->
<g id="Node000001" class="node">
<title>Node1</title>
<g id="a_Node000001"><a xlink:title="Definitions for video capture on macOS.">
<polygon fill="#999999" stroke="#666666" points="159.88,-144 59.88,-144 59.88,-112 159.88,-112 159.88,-144"/>
<text text-anchor="start" x="67.88" y="-130.5" font-family="Helvetica,sans-Serif" font-size="10.00">src/platform/macos</text>
<text text-anchor="middle" x="109.88" y="-118.5" font-family="Helvetica,sans-Serif" font-size="10.00">/av_video.m</text>
</a>
</g>
</g>
<!-- Node2 -->
<g id="Node000002" class="node">
<title>Node2</title>
<g id="a_Node000002"><a xlink:href="av__video_8h.html" target="_top" xlink:title="Declarations for video capture on macOS.">
<polygon fill="white" stroke="#666666" points="141.5,-76 78.25,-76 78.25,-56 141.5,-56 141.5,-76"/>
<text text-anchor="middle" x="109.88" y="-62.5" font-family="Helvetica,sans-Serif" font-size="10.00">av_video.h</text>
</a>
</g>
</g>
<!-- Node1&#45;&gt;Node2 -->
<g id="edge1_Node000001_Node000002" class="edge">
<title>Node1&#45;&gt;Node2</title>
<g id="a_edge1_Node000001_Node000002"><a xlink:title=" ">
<path fill="none" stroke="#63b8ff" d="M109.88,-111.55C109.88,-104.34 109.88,-95.66 109.88,-87.88"/>
<polygon fill="#63b8ff" stroke="#63b8ff" points="113.38,-87.92 109.88,-77.92 106.38,-87.92 113.38,-87.92"/>
</a>
</g>
</g>
<!-- Node3 -->
<g id="Node000003" class="node">
<title>Node3</title>
<g id="a_Node000003"><a xlink:title=" ">
<polygon fill="#e0e0e0" stroke="#999999" points="85.75,-20 0,-20 0,0 85.75,0 85.75,-20"/>
<text text-anchor="middle" x="42.88" y="-6.5" font-family="Helvetica,sans-Serif" font-size="10.00">AppKit/AppKit.h</text>
</a>
</g>
</g>
<!-- Node2&#45;&gt;Node3 -->
<g id="edge2_Node000002_Node000003" class="edge">
<title>Node2&#45;&gt;Node3</title>
<g id="a_edge2_Node000002_Node000003"><a xlink:title=" ">
<path fill="none" stroke="#63b8ff" d="M98.2,-55.59C88.6,-47.85 74.75,-36.69 63.31,-27.47"/>
<polygon fill="#63b8ff" stroke="#63b8ff" points="65.57,-24.8 55.59,-21.25 61.18,-30.25 65.57,-24.8"/>
</a>
</g>
</g>
<!-- Node4 -->
<g id="Node000004" class="node">
<title>Node4</title>
<g id="a_Node000004"><a xlink:title=" ">
<polygon fill="#e0e0e0" stroke="#999999" points="252.25,-20 103.5,-20 103.5,0 252.25,0 252.25,-20"/>
<text text-anchor="middle" x="177.88" y="-6.5" font-family="Helvetica,sans-Serif" font-size="10.00">AVFoundation/AVFoundation.h</text>
</a>
</g>
</g>
<!-- Node2&#45;&gt;Node4 -->
<g id="edge3_Node000002_Node000004" class="edge">
<title>Node2&#45;&gt;Node4</title>
<g id="a_edge3_Node000002_Node000004"><a xlink:title=" ">
<path fill="none" stroke="#63b8ff" d="M121.72,-55.59C131.57,-47.77 145.81,-36.46 157.48,-27.19"/>
<polygon fill="#63b8ff" stroke="#63b8ff" points="159.33,-30.2 164.98,-21.24 154.97,-24.72 159.33,-30.2"/>
</a>
</g>
</g>
</g>
</svg>
</svg>

<style type='text/css'>
<![CDATA[
[data-mouse-over-selected='false'] { opacity: 0.7; }
[data-mouse-over-selected='true']  { opacity: 1.0; }
]]>
</style>
<script type="application/ecmascript"><![CDATA[
document.addEventListener('DOMContentLoaded', (event) => {
  highlightEdges();
  highlightAdjacentNodes();
});
]]></script>
</svg>
