<?xml version="1.0" encoding="UTF-8" standalone="no"?>
<!DOCTYPE svg PUBLIC "-//W3C//DTD SVG 1.1//EN"
 "http://www.w3.org/Graphics/SVG/1.1/DTD/svg11.dtd">
<!-- Generated by graphviz version 12.2.1 (0)
 -->
<!-- Title: src/platform/macos/av_video.h Pages: 1 -->
<svg width="260pt" height="96pt"
 viewBox="0.00 0.00 260.25 96.00" xmlns="http://www.w3.org/2000/svg" xmlns:xlink="http://www.w3.org/1999/xlink">
<g id="graph0" class="graph" transform="scale(1 1) rotate(0) translate(4 92)">
<title>src/platform/macos/av_video.h</title>
<!-- Node1 -->
<g id="Node000001" class="node">
<title>Node1</title>
<g id="a_Node000001"><a xlink:title="Declarations for video capture on macOS.">
<polygon fill="#999999" stroke="#666666" points="159.88,-88 59.88,-88 59.88,-56 159.88,-56 159.88,-88"/>
<text text-anchor="start" x="67.88" y="-74.5" font-family="Helvetica,sans-Serif" font-size="10.00">src/platform/macos</text>
<text text-anchor="middle" x="109.88" y="-62.5" font-family="Helvetica,sans-Serif" font-size="10.00">/av_video.h</text>
</a>
</g>
</g>
<!-- Node2 -->
<g id="Node000002" class="node">
<title>Node2</title>
<g id="a_Node000002"><a xlink:title=" ">
<polygon fill="#e0e0e0" stroke="#999999" points="85.75,-20 0,-20 0,0 85.75,0 85.75,-20"/>
<text text-anchor="middle" x="42.88" y="-6.5" font-family="Helvetica,sans-Serif" font-size="10.00">AppKit/AppKit.h</text>
</a>
</g>
</g>
<!-- Node1&#45;&gt;Node2 -->
<g id="edge1_Node000001_Node000002" class="edge">
<title>Node1&#45;&gt;Node2</title>
<g id="a_edge1_Node000001_Node000002"><a xlink:title=" ">
<path fill="none" stroke="#63b8ff" d="M92.62,-55.55C83.22,-47.13 71.56,-36.69 61.9,-28.04"/>
<polygon fill="#63b8ff" stroke="#63b8ff" points="64.29,-25.48 54.51,-21.42 59.62,-30.7 64.29,-25.48"/>
</a>
</g>
</g>
<!-- Node3 -->
<g id="Node000003" class="node">
<title>Node3</title>
<g id="a_Node000003"><a xlink:title=" ">
<polygon fill="#e0e0e0" stroke="#999999" points="252.25,-20 103.5,-20 103.5,0 252.25,0 252.25,-20"/>
<text text-anchor="middle" x="177.88" y="-6.5" font-family="Helvetica,sans-Serif" font-size="10.00">AVFoundation/AVFoundation.h</text>
</a>
</g>
</g>
<!-- Node1&#45;&gt;Node3 -->
<g id="edge2_Node000001_Node000003" class="edge">
<title>Node1&#45;&gt;Node3</title>
<g id="a_edge2_Node000001_Node000003"><a xlink:title=" ">
<path fill="none" stroke="#63b8ff" d="M127.39,-55.55C137.03,-47.04 149,-36.48 158.87,-27.77"/>
<polygon fill="#63b8ff" stroke="#63b8ff" points="160.89,-30.65 166.08,-21.41 156.26,-25.4 160.89,-30.65"/>
</a>
</g>
</g>
</g>
</svg>
