<?xml version="1.0" encoding="UTF-8" standalone="no"?>
<!DOCTYPE svg PUBLIC "-//W3C//DTD SVG 1.1//EN"
 "http://www.w3.org/Graphics/SVG/1.1/DTD/svg11.dtd">
<!-- Generated by graphviz version 12.2.1 (0)
 -->
<!-- Title: src/platform/macos/av_audio.m Pages: 1 -->
<svg width="310pt" height="164pt"
 viewBox="0.00 0.00 309.62 164.00" xmlns="http://www.w3.org/2000/svg" xmlns:xlink="http://www.w3.org/1999/xlink">
<g id="graph0" class="graph" transform="scale(1 1) rotate(0) translate(4 160)">
<title>src/platform/macos/av_audio.m</title>
<!-- Node1 -->
<g id="Node000001" class="node">
<title>Node1</title>
<g id="a_Node000001"><a xlink:title="Definitions for audio capture on macOS.">
<polygon fill="#999999" stroke="#666666" points="204.38,-156 104.38,-156 104.38,-124 204.38,-124 204.38,-156"/>
<text text-anchor="start" x="112.38" y="-142.5" font-family="Helvetica,sans-Serif" font-size="10.00">src/platform/macos</text>
<text text-anchor="middle" x="154.38" y="-130.5" font-family="Helvetica,sans-Serif" font-size="10.00">/av_audio.m</text>
</a>
</g>
</g>
<!-- Node2 -->
<g id="Node000002" class="node">
<title>Node2</title>
<g id="a_Node000002"><a xlink:href="av__audio_8h.html" target="_top" xlink:title="Declarations for audio capture on macOS.">
<polygon fill="white" stroke="#666666" points="186,-88 122.75,-88 122.75,-68 186,-68 186,-88"/>
<text text-anchor="middle" x="154.38" y="-74.5" font-family="Helvetica,sans-Serif" font-size="10.00">av_audio.h</text>
</a>
</g>
</g>
<!-- Node1&#45;&gt;Node2 -->
<g id="edge1_Node000001_Node000002" class="edge">
<title>Node1&#45;&gt;Node2</title>
<g id="a_edge1_Node000001_Node000002"><a xlink:title=" ">
<path fill="none" stroke="#63b8ff" d="M154.38,-123.55C154.38,-116.34 154.38,-107.66 154.38,-99.88"/>
<polygon fill="#63b8ff" stroke="#63b8ff" points="157.88,-99.92 154.38,-89.92 150.88,-99.92 157.88,-99.92"/>
</a>
</g>
</g>
<!-- Node3 -->
<g id="Node000003" class="node">
<title>Node3</title>
<g id="a_Node000003"><a xlink:title=" ">
<polygon fill="#e0e0e0" stroke="#999999" points="148.75,-26 0,-26 0,-6 148.75,-6 148.75,-26"/>
<text text-anchor="middle" x="74.38" y="-12.5" font-family="Helvetica,sans-Serif" font-size="10.00">AVFoundation/AVFoundation.h</text>
</a>
</g>
</g>
<!-- Node2&#45;&gt;Node3 -->
<g id="edge2_Node000002_Node000003" class="edge">
<title>Node2&#45;&gt;Node3</title>
<g id="a_edge2_Node000002_Node000003"><a xlink:title=" ">
<path fill="none" stroke="#63b8ff" d="M141.88,-67.62C129.55,-58.38 110.46,-44.07 95.73,-33.01"/>
<polygon fill="#63b8ff" stroke="#63b8ff" points="98.1,-30.42 88,-27.22 93.9,-36.02 98.1,-30.42"/>
</a>
</g>
</g>
<!-- Node4 -->
<g id="Node000004" class="node">
<title>Node4</title>
<g id="a_Node000004"><a xlink:title=" ">
<polygon fill="#e0e0e0" stroke="#999999" points="301.62,-32 167.12,-32 167.12,0 301.62,0 301.62,-32"/>
<text text-anchor="start" x="175.12" y="-18.5" font-family="Helvetica,sans-Serif" font-size="10.00">third&#45;party/TPCircularBuffer</text>
<text text-anchor="middle" x="234.38" y="-6.5" font-family="Helvetica,sans-Serif" font-size="10.00">/TPCircularBuffer.h</text>
</a>
</g>
</g>
<!-- Node2&#45;&gt;Node4 -->
<g id="edge3_Node000002_Node000004" class="edge">
<title>Node2&#45;&gt;Node4</title>
<g id="a_edge3_Node000002_Node000004"><a xlink:title=" ">
<path fill="none" stroke="#63b8ff" d="M166.88,-67.62C176.99,-60.04 191.65,-49.05 204.72,-39.24"/>
<polygon fill="#63b8ff" stroke="#63b8ff" points="206.77,-42.08 212.67,-33.28 202.57,-36.48 206.77,-42.08"/>
</a>
</g>
</g>
</g>
</svg>
