<?xml version="1.0" encoding="UTF-8" standalone="no"?>
<!DOCTYPE svg PUBLIC "-//W3C//DTD SVG 1.1//EN"
 "http://www.w3.org/Graphics/SVG/1.1/DTD/svg11.dtd">
<!-- Generated by graphviz version 12.2.1 (0)
 -->
<!-- Title: src/cbs.h Pages: 1 -->
<svg width="790pt" height="140pt"
 viewBox="0.00 0.00 790.38 140.00" xmlns="http://www.w3.org/2000/svg" xmlns:xlink="http://www.w3.org/1999/xlink">
<g id="graph0" class="graph" transform="scale(1 1) rotate(0) translate(4 136)">
<title>src/cbs.h</title>
<!-- Node1 -->
<g id="Node000001" class="node">
<title>Node1</title>
<g id="a_Node000001"><a xlink:title="Declarations for FFmpeg Coded Bitstream API.">
<polygon fill="#999999" stroke="#666666" points="438.12,-132 381.62,-132 381.62,-112 438.12,-112 438.12,-132"/>
<text text-anchor="middle" x="409.88" y="-118.5" font-family="Helvetica,sans-Serif" font-size="10.00">src/cbs.h</text>
</a>
</g>
</g>
<!-- Node2 -->
<g id="Node000002" class="node">
<title>Node2</title>
<g id="a_Node000002"><a xlink:href="utility_8h.html" target="_top" xlink:title="Declarations for utility functions.">
<polygon fill="white" stroke="#666666" points="433.25,-76 386.5,-76 386.5,-56 433.25,-56 433.25,-76"/>
<text text-anchor="middle" x="409.88" y="-62.5" font-family="Helvetica,sans-Serif" font-size="10.00">utility.h</text>
</a>
</g>
</g>
<!-- Node1&#45;&gt;Node2 -->
<g id="edge1_Node000001_Node000002" class="edge">
<title>Node1&#45;&gt;Node2</title>
<g id="a_edge1_Node000001_Node000002"><a xlink:title=" ">
<path fill="none" stroke="#63b8ff" d="M409.88,-111.59C409.88,-105.01 409.88,-95.96 409.88,-87.73"/>
<polygon fill="#63b8ff" stroke="#63b8ff" points="413.38,-87.81 409.88,-77.81 406.38,-87.81 413.38,-87.81"/>
</a>
</g>
</g>
<!-- Node3 -->
<g id="Node000003" class="node">
<title>Node3</title>
<g id="a_Node000003"><a xlink:title=" ">
<polygon fill="#e0e0e0" stroke="#999999" points="55.75,-20 0,-20 0,0 55.75,0 55.75,-20"/>
<text text-anchor="middle" x="27.88" y="-6.5" font-family="Helvetica,sans-Serif" font-size="10.00">algorithm</text>
</a>
</g>
</g>
<!-- Node2&#45;&gt;Node3 -->
<g id="edge2_Node000002_Node000003" class="edge">
<title>Node2&#45;&gt;Node3</title>
<g id="a_edge2_Node000002_Node000003"><a xlink:title=" ">
<path fill="none" stroke="#63b8ff" d="M386.31,-62.82C331.87,-57.6 192.99,-43.19 67.06,-20.23"/>
<polygon fill="#63b8ff" stroke="#63b8ff" points="68.05,-16.85 57.58,-18.47 66.77,-23.73 68.05,-16.85"/>
</a>
</g>
</g>
<!-- Node4 -->
<g id="Node000004" class="node">
<title>Node4</title>
<g id="a_Node000004"><a xlink:title=" ">
<polygon fill="#e0e0e0" stroke="#999999" points="167.88,-20 73.88,-20 73.88,0 167.88,0 167.88,-20"/>
<text text-anchor="middle" x="120.88" y="-6.5" font-family="Helvetica,sans-Serif" font-size="10.00">condition_variable</text>
</a>
</g>
</g>
<!-- Node2&#45;&gt;Node4 -->
<g id="edge3_Node000002_Node000004" class="edge">
<title>Node2&#45;&gt;Node4</title>
<g id="a_edge3_Node000002_Node000004"><a xlink:title=" ">
<path fill="none" stroke="#63b8ff" d="M386.22,-60.58C341.4,-52.2 242.87,-33.79 179.3,-21.92"/>
<polygon fill="#63b8ff" stroke="#63b8ff" points="180.21,-18.53 169.74,-20.13 178.92,-25.41 180.21,-18.53"/>
</a>
</g>
</g>
<!-- Node5 -->
<g id="Node000005" class="node">
<title>Node5</title>
<g id="a_Node000005"><a xlink:title=" ">
<polygon fill="#e0e0e0" stroke="#999999" points="237.5,-20 186.25,-20 186.25,0 237.5,0 237.5,-20"/>
<text text-anchor="middle" x="211.88" y="-6.5" font-family="Helvetica,sans-Serif" font-size="10.00">memory</text>
</a>
</g>
</g>
<!-- Node2&#45;&gt;Node5 -->
<g id="edge4_Node000002_Node000005" class="edge">
<title>Node2&#45;&gt;Node5</title>
<g id="a_edge4_Node000002_Node000005"><a xlink:title=" ">
<path fill="none" stroke="#63b8ff" d="M386.38,-58.59C352.37,-49.32 289.09,-32.06 248.8,-21.07"/>
<polygon fill="#63b8ff" stroke="#63b8ff" points="249.87,-17.73 239.3,-18.48 248.03,-24.49 249.87,-17.73"/>
</a>
</g>
</g>
<!-- Node6 -->
<g id="Node000006" class="node">
<title>Node6</title>
<g id="a_Node000006"><a xlink:title=" ">
<polygon fill="#e0e0e0" stroke="#999999" points="298.38,-20 255.38,-20 255.38,0 298.38,0 298.38,-20"/>
<text text-anchor="middle" x="276.88" y="-6.5" font-family="Helvetica,sans-Serif" font-size="10.00">mutex</text>
</a>
</g>
</g>
<!-- Node2&#45;&gt;Node6 -->
<g id="edge5_Node000002_Node000006" class="edge">
<title>Node2&#45;&gt;Node6</title>
<g id="a_edge5_Node000002_Node000006"><a xlink:title=" ">
<path fill="none" stroke="#63b8ff" d="M386.71,-55.59C365.15,-46.84 332.84,-33.72 308.83,-23.97"/>
<polygon fill="#63b8ff" stroke="#63b8ff" points="310.44,-20.85 299.86,-20.33 307.81,-27.34 310.44,-20.85"/>
</a>
</g>
</g>
<!-- Node7 -->
<g id="Node000007" class="node">
<title>Node7</title>
<g id="a_Node000007"><a xlink:title=" ">
<polygon fill="#e0e0e0" stroke="#999999" points="365.75,-20 316,-20 316,0 365.75,0 365.75,-20"/>
<text text-anchor="middle" x="340.88" y="-6.5" font-family="Helvetica,sans-Serif" font-size="10.00">optional</text>
</a>
</g>
</g>
<!-- Node2&#45;&gt;Node7 -->
<g id="edge6_Node000002_Node000007" class="edge">
<title>Node2&#45;&gt;Node7</title>
<g id="a_edge6_Node000002_Node000007"><a xlink:title=" ">
<path fill="none" stroke="#63b8ff" d="M397.86,-55.59C387.86,-47.77 373.41,-36.46 361.57,-27.19"/>
<polygon fill="#63b8ff" stroke="#63b8ff" points="363.98,-24.64 353.95,-21.23 359.67,-30.15 363.98,-24.64"/>
</a>
</g>
</g>
<!-- Node8 -->
<g id="Node000008" class="node">
<title>Node8</title>
<g id="a_Node000008"><a xlink:title=" ">
<polygon fill="#e0e0e0" stroke="#999999" points="435.5,-20 384.25,-20 384.25,0 435.5,0 435.5,-20"/>
<text text-anchor="middle" x="409.88" y="-6.5" font-family="Helvetica,sans-Serif" font-size="10.00">ostream</text>
</a>
</g>
</g>
<!-- Node2&#45;&gt;Node8 -->
<g id="edge7_Node000002_Node000008" class="edge">
<title>Node2&#45;&gt;Node8</title>
<g id="a_edge7_Node000002_Node000008"><a xlink:title=" ">
<path fill="none" stroke="#63b8ff" d="M409.88,-55.59C409.88,-49.01 409.88,-39.96 409.88,-31.73"/>
<polygon fill="#63b8ff" stroke="#63b8ff" points="413.38,-31.81 409.88,-21.81 406.38,-31.81 413.38,-31.81"/>
</a>
</g>
</g>
<!-- Node9 -->
<g id="Node000009" class="node">
<title>Node9</title>
<g id="a_Node000009"><a xlink:title=" ">
<polygon fill="#e0e0e0" stroke="#999999" points="493.88,-20 453.88,-20 453.88,0 493.88,0 493.88,-20"/>
<text text-anchor="middle" x="473.88" y="-6.5" font-family="Helvetica,sans-Serif" font-size="10.00">string</text>
</a>
</g>
</g>
<!-- Node2&#45;&gt;Node9 -->
<g id="edge8_Node000002_Node000009" class="edge">
<title>Node2&#45;&gt;Node9</title>
<g id="a_edge8_Node000002_Node000009"><a xlink:title=" ">
<path fill="none" stroke="#63b8ff" d="M421.02,-55.59C430.2,-47.85 443.43,-36.69 454.36,-27.47"/>
<polygon fill="#63b8ff" stroke="#63b8ff" points="456.31,-30.4 461.7,-21.27 451.8,-25.05 456.31,-30.4"/>
</a>
</g>
</g>
<!-- Node10 -->
<g id="Node000010" class="node">
<title>Node10</title>
<g id="a_Node000010"><a xlink:title=" ">
<polygon fill="#e0e0e0" stroke="#999999" points="577.62,-20 512.12,-20 512.12,0 577.62,0 577.62,-20"/>
<text text-anchor="middle" x="544.88" y="-6.5" font-family="Helvetica,sans-Serif" font-size="10.00">string_view</text>
</a>
</g>
</g>
<!-- Node2&#45;&gt;Node10 -->
<g id="edge9_Node000002_Node000010" class="edge">
<title>Node2&#45;&gt;Node10</title>
<g id="a_edge9_Node000002_Node000010"><a xlink:title=" ">
<path fill="none" stroke="#63b8ff" d="M433.39,-55.59C454.75,-47.05 486.51,-34.35 510.67,-24.68"/>
<polygon fill="#63b8ff" stroke="#63b8ff" points="511.79,-28.01 519.77,-21.04 509.19,-21.51 511.79,-28.01"/>
</a>
</g>
</g>
<!-- Node11 -->
<g id="Node000011" class="node">
<title>Node11</title>
<g id="a_Node000011"><a xlink:title=" ">
<polygon fill="#e0e0e0" stroke="#999999" points="657.75,-20 596,-20 596,0 657.75,0 657.75,-20"/>
<text text-anchor="middle" x="626.88" y="-6.5" font-family="Helvetica,sans-Serif" font-size="10.00">type_traits</text>
</a>
</g>
</g>
<!-- Node2&#45;&gt;Node11 -->
<g id="edge10_Node000002_Node000011" class="edge">
<title>Node2&#45;&gt;Node11</title>
<g id="a_edge10_Node000002_Node000011"><a xlink:title=" ">
<path fill="none" stroke="#63b8ff" d="M433.51,-59.12C469.76,-50.1 539.62,-32.71 584.7,-21.5"/>
<polygon fill="#63b8ff" stroke="#63b8ff" points="585.26,-24.96 594.12,-19.15 583.57,-18.17 585.26,-24.96"/>
</a>
</g>
</g>
<!-- Node12 -->
<g id="Node000012" class="node">
<title>Node12</title>
<g id="a_Node000012"><a xlink:title=" ">
<polygon fill="#e0e0e0" stroke="#999999" points="721.5,-20 676.25,-20 676.25,0 721.5,0 721.5,-20"/>
<text text-anchor="middle" x="698.88" y="-6.5" font-family="Helvetica,sans-Serif" font-size="10.00">variant</text>
</a>
</g>
</g>
<!-- Node2&#45;&gt;Node12 -->
<g id="edge11_Node000002_Node000012" class="edge">
<title>Node2&#45;&gt;Node12</title>
<g id="a_edge11_Node000002_Node000012"><a xlink:title=" ">
<path fill="none" stroke="#63b8ff" d="M433.42,-61.69C477.07,-55.38 573.69,-40.61 664.79,-20.28"/>
<polygon fill="#63b8ff" stroke="#63b8ff" points="665.42,-23.72 674.4,-18.1 663.87,-16.9 665.42,-23.72"/>
</a>
</g>
</g>
<!-- Node13 -->
<g id="Node000013" class="node">
<title>Node13</title>
<g id="a_Node000013"><a xlink:title=" ">
<polygon fill="#e0e0e0" stroke="#999999" points="782.38,-20 739.38,-20 739.38,0 782.38,0 782.38,-20"/>
<text text-anchor="middle" x="760.88" y="-6.5" font-family="Helvetica,sans-Serif" font-size="10.00">vector</text>
</a>
</g>
</g>
<!-- Node2&#45;&gt;Node13 -->
<g id="edge12_Node000002_Node000013" class="edge">
<title>Node2&#45;&gt;Node13</title>
<g id="a_edge12_Node000002_Node000013"><a xlink:title=" ">
<path fill="none" stroke="#63b8ff" d="M433.45,-62.93C485.18,-58.14 612.63,-44.91 727.91,-20.38"/>
<polygon fill="#63b8ff" stroke="#63b8ff" points="728.51,-23.84 737.54,-18.3 727.03,-16.99 728.51,-23.84"/>
</a>
</g>
</g>
</g>
</svg>
