<?xml version="1.0" encoding="UTF-8" standalone="no"?>
<!DOCTYPE svg PUBLIC "-//W3C//DTD SVG 1.1//EN"
 "http://www.w3.org/Graphics/SVG/1.1/DTD/svg11.dtd">
<!-- Generated by graphviz version 12.2.1 (0)
 -->
<!-- Title: src/cbs.cpp Pages: 1 -->
<!--zoomable 196 -->

<svg id="main" version="1.1" xmlns="http://www.w3.org/2000/svg" xmlns:xlink="http://www.w3.org/1999/xlink" xml:space="preserve" onload="init(evt)">

<style type="text/css"><![CDATA[
.node, .edge {opacity: 0.7;}
.node.selected, .edge.selected {opacity: 1;}
.edge:hover path { stroke: red; }
.edge:hover polygon { stroke: red; fill: red; }
]]></style>

<defs>
  <circle id="rim" cx="0" cy="0" r="7"/>
  <circle id="rim2" cx="0" cy="0" r="3.5"/>
  <g id="zoomPlus">
    <use xlink:href="#rim" fill="#404040"><set attributeName="fill" to="#808080" begin="zoomplus.mouseover" end="zoomplus.mouseout"/></use>
    <path d="M-4,0h8M0,-4v8" fill="none" stroke="white" stroke-width="1.5" pointer-events="none"/>
  </g>
  <g id="zoomMin">
    <use xlink:href="#rim" fill="#404040"><set attributeName="fill" to="#808080" begin="zoomminus.mouseover" end="zoomminus.mouseout"/></use>
    <path d="M-4,0h8" fill="none" stroke="white" stroke-width="1.5" pointer-events="none"/>
  </g>
  <g id="arrowUp" transform="translate(30 24)">
    <use xlink:href="#rim"/>
    <path pointer-events="none" fill="none" stroke="white" stroke-width="1.5" d="M0,-3.0v7 M-2.5,-0.5L0,-3.0L2.5,-0.5"/>
  </g>
  <g id="arrowRight" transform="rotate(90) translate(36 -43)">
    <use xlink:href="#rim"/>
    <path pointer-events="none" fill="none" stroke="white" stroke-width="1.5" d="M0,-3.0v7 M-2.5,-0.5L0,-3.0L2.5,-0.5"/>
  </g>
  <g id="arrowDown" transform="rotate(180) translate(-30 -48)">
    <use xlink:href="#rim"/>
    <path pointer-events="none" fill="none" stroke="white" stroke-width="1.5" d="M0,-3.0v7 M-2.5,-0.5L0,-3.0L2.5,-0.5"/>
  </g>
  <g id="arrowLeft" transform="rotate(270) translate(-36 17)">
    <use xlink:href="#rim"/>
    <path pointer-events="none" fill="none" stroke="white" stroke-width="1.5" d="M0,-3.0v7 M-2.5,-0.5L0,-3.0L2.5,-0.5"/>
  </g>
  <g id="resetDef">
    <use xlink:href="#rim2" fill="#404040"><set attributeName="fill" to="#808080" begin="reset.mouseover" end="reset.mouseout"/></use>
  </g>
</defs>
<script type="application/ecmascript">
var viewWidth = 1582;
var viewHeight = 196;
var sectionId = 'dynsection-0';
</script>
<script type="application/ecmascript" xlink:href="svg.min.js"/>
<svg id="graph" class="graph">
<g id="viewport">
<title>src/cbs.cpp</title>
<!-- Node1 -->
<g id="Node000001" class="node">
<title>Node1</title>
<g id="a_Node000001"><a xlink:title="Definitions for FFmpeg Coded Bitstream API.">
<polygon fill="#999999" stroke="#666666" points="556.75,-188 489.75,-188 489.75,-168 556.75,-168 556.75,-188"/>
<text text-anchor="middle" x="523.25" y="-174.5" font-family="Helvetica,sans-Serif" font-size="10.00">src/cbs.cpp</text>
</a>
</g>
</g>
<!-- Node2 -->
<g id="Node000002" class="node">
<title>Node2</title>
<g id="a_Node000002"><a xlink:title=" ">
<polygon fill="#e0e0e0" stroke="#999999" points="110.5,-132 0,-132 0,-112 110.5,-112 110.5,-132"/>
<text text-anchor="middle" x="55.25" y="-118.5" font-family="Helvetica,sans-Serif" font-size="10.00">libavcodec/avcodec.h</text>
</a>
</g>
</g>
<!-- Node1&#45;&gt;Node2 -->
<g id="edge1_Node000001_Node000002" class="edge">
<title>Node1&#45;&gt;Node2</title>
<g id="a_edge1_Node000001_Node000002"><a xlink:title=" ">
<path fill="none" stroke="#63b8ff" d="M489.43,-173.56C421.74,-166.62 264.56,-150.13 121.86,-132.3"/>
<polygon fill="#63b8ff" stroke="#63b8ff" points="122.6,-128.86 112.24,-131.09 121.73,-135.81 122.6,-128.86"/>
</a>
</g>
</g>
<!-- Node3 -->
<g id="Node000003" class="node">
<title>Node3</title>
<g id="a_Node000003"><a xlink:title=" ">
<polygon fill="#e0e0e0" stroke="#999999" points="244.12,-132 128.38,-132 128.38,-112 244.12,-112 244.12,-132"/>
<text text-anchor="middle" x="186.25" y="-118.5" font-family="Helvetica,sans-Serif" font-size="10.00">libavcodec/cbs_h264.h</text>
</a>
</g>
</g>
<!-- Node1&#45;&gt;Node3 -->
<g id="edge2_Node000001_Node000003" class="edge">
<title>Node1&#45;&gt;Node3</title>
<g id="a_edge2_Node000001_Node000003"><a xlink:title=" ">
<path fill="none" stroke="#63b8ff" d="M489.39,-171.58C434.97,-162.85 326.92,-145.54 255.62,-134.12"/>
<polygon fill="#63b8ff" stroke="#63b8ff" points="256.43,-130.7 246,-132.57 255.32,-137.61 256.43,-130.7"/>
</a>
</g>
</g>
<!-- Node4 -->
<g id="Node000004" class="node">
<title>Node4</title>
<g id="a_Node000004"><a xlink:title=" ">
<polygon fill="#e0e0e0" stroke="#999999" points="378.12,-132 262.38,-132 262.38,-112 378.12,-112 378.12,-132"/>
<text text-anchor="middle" x="320.25" y="-118.5" font-family="Helvetica,sans-Serif" font-size="10.00">libavcodec/cbs_h265.h</text>
</a>
</g>
</g>
<!-- Node1&#45;&gt;Node4 -->
<g id="edge3_Node000001_Node000004" class="edge">
<title>Node1&#45;&gt;Node4</title>
<g id="a_edge3_Node000001_Node000004"><a xlink:title=" ">
<path fill="none" stroke="#63b8ff" d="M489.27,-167.96C455.72,-159.04 404.16,-145.32 366.8,-135.38"/>
<polygon fill="#63b8ff" stroke="#63b8ff" points="367.73,-132.01 357.17,-132.82 365.93,-138.77 367.73,-132.01"/>
</a>
</g>
</g>
<!-- Node5 -->
<g id="Node000005" class="node">
<title>Node5</title>
<g id="a_Node000005"><a xlink:title=" ">
<polygon fill="#e0e0e0" stroke="#999999" points="522,-132 396.5,-132 396.5,-112 522,-112 522,-132"/>
<text text-anchor="middle" x="459.25" y="-118.5" font-family="Helvetica,sans-Serif" font-size="10.00">libavcodec/h264_levels.h</text>
</a>
</g>
</g>
<!-- Node1&#45;&gt;Node5 -->
<g id="edge4_Node000001_Node000005" class="edge">
<title>Node1&#45;&gt;Node5</title>
<g id="a_edge4_Node000001_Node000005"><a xlink:title=" ">
<path fill="none" stroke="#63b8ff" d="M512.1,-167.59C502.92,-159.85 489.7,-148.69 478.77,-139.47"/>
<polygon fill="#63b8ff" stroke="#63b8ff" points="481.33,-137.05 471.43,-133.27 476.81,-142.4 481.33,-137.05"/>
</a>
</g>
</g>
<!-- Node6 -->
<g id="Node000006" class="node">
<title>Node6</title>
<g id="a_Node000006"><a xlink:title=" ">
<polygon fill="#e0e0e0" stroke="#999999" points="634.25,-132 540.25,-132 540.25,-112 634.25,-112 634.25,-132"/>
<text text-anchor="middle" x="587.25" y="-118.5" font-family="Helvetica,sans-Serif" font-size="10.00">libavutil/pixdesc.h</text>
</a>
</g>
</g>
<!-- Node1&#45;&gt;Node6 -->
<g id="edge5_Node000001_Node000006" class="edge">
<title>Node1&#45;&gt;Node6</title>
<g id="a_edge5_Node000001_Node000006"><a xlink:title=" ">
<path fill="none" stroke="#63b8ff" d="M534.4,-167.59C543.58,-159.85 556.8,-148.69 567.73,-139.47"/>
<polygon fill="#63b8ff" stroke="#63b8ff" points="569.69,-142.4 575.07,-133.27 565.17,-137.05 569.69,-142.4"/>
</a>
</g>
</g>
<!-- Node7 -->
<g id="Node000007" class="node">
<title>Node7</title>
<g id="a_Node000007"><a xlink:href="cbs_8h.html" target="_top" xlink:title="Declarations for FFmpeg Coded Bitstream API.">
<polygon fill="white" stroke="#666666" points="730.25,-132 690.25,-132 690.25,-112 730.25,-112 730.25,-132"/>
<text text-anchor="middle" x="710.25" y="-118.5" font-family="Helvetica,sans-Serif" font-size="10.00">cbs.h</text>
</a>
</g>
</g>
<!-- Node1&#45;&gt;Node7 -->
<g id="edge6_Node000001_Node000007" class="edge">
<title>Node1&#45;&gt;Node7</title>
<g id="a_edge6_Node000001_Node000007"><a xlink:title=" ">
<path fill="none" stroke="#63b8ff" d="M555.82,-167.59C590.51,-157.58 645.03,-141.83 679.15,-131.98"/>
<polygon fill="#63b8ff" stroke="#63b8ff" points="679.79,-135.44 688.42,-129.3 677.84,-128.72 679.79,-135.44"/>
</a>
</g>
</g>
<!-- Node8 -->
<g id="Node000008" class="node">
<title>Node8</title>
<g id="a_Node000008"><a xlink:href="utility_8h.html" target="_top" xlink:title="Declarations for utility functions.">
<polygon fill="white" stroke="#666666" points="685.62,-76 638.88,-76 638.88,-56 685.62,-56 685.62,-76"/>
<text text-anchor="middle" x="662.25" y="-62.5" font-family="Helvetica,sans-Serif" font-size="10.00">utility.h</text>
</a>
</g>
</g>
<!-- Node1&#45;&gt;Node8 -->
<g id="edge35_Node000001_Node000008" class="edge">
<title>Node1&#45;&gt;Node8</title>
<g id="a_edge35_Node000001_Node000008"><a xlink:title=" ">
<path fill="none" stroke="#63b8ff" d="M557.07,-172.67C583.99,-167.48 620.77,-156.22 643.25,-132 654.51,-119.87 659.13,-101.43 661.01,-87.28"/>
<polygon fill="#63b8ff" stroke="#63b8ff" points="664.46,-88.01 661.91,-77.73 657.49,-87.36 664.46,-88.01"/>
</a>
</g>
</g>
<!-- Node20 -->
<g id="Node000020" class="node">
<title>Node20</title>
<g id="a_Node000020"><a xlink:href="logging_8h.html" target="_top" xlink:title="Declarations for logging related functions.">
<polygon fill="white" stroke="#666666" points="988.75,-132 933.75,-132 933.75,-112 988.75,-112 988.75,-132"/>
<text text-anchor="middle" x="961.25" y="-118.5" font-family="Helvetica,sans-Serif" font-size="10.00">logging.h</text>
</a>
</g>
</g>
<!-- Node1&#45;&gt;Node20 -->
<g id="edge19_Node000001_Node000020" class="edge">
<title>Node1&#45;&gt;Node20</title>
<g id="a_edge19_Node000001_Node000020"><a xlink:title=" ">
<path fill="none" stroke="#63b8ff" d="M556.89,-172.85C636.67,-163.02 837,-138.32 922.07,-127.83"/>
<polygon fill="#63b8ff" stroke="#63b8ff" points="922.28,-131.33 931.78,-126.63 921.42,-124.38 922.28,-131.33"/>
</a>
</g>
</g>
<!-- Node7&#45;&gt;Node8 -->
<g id="edge7_Node000007_Node000008" class="edge">
<title>Node7&#45;&gt;Node8</title>
<g id="a_edge7_Node000007_Node000008"><a xlink:title=" ">
<path fill="none" stroke="#63b8ff" d="M701.89,-111.59C695.35,-104.24 686.07,-93.8 678.13,-84.87"/>
<polygon fill="#63b8ff" stroke="#63b8ff" points="680.78,-82.58 671.52,-77.43 675.55,-87.23 680.78,-82.58"/>
</a>
</g>
</g>
<!-- Node9 -->
<g id="Node000009" class="node">
<title>Node9</title>
<g id="a_Node000009"><a xlink:title=" ">
<polygon fill="#e0e0e0" stroke="#999999" points="551.12,-20 495.38,-20 495.38,0 551.12,0 551.12,-20"/>
<text text-anchor="middle" x="523.25" y="-6.5" font-family="Helvetica,sans-Serif" font-size="10.00">algorithm</text>
</a>
</g>
</g>
<!-- Node8&#45;&gt;Node9 -->
<g id="edge8_Node000008_Node000009" class="edge">
<title>Node8&#45;&gt;Node9</title>
<g id="a_edge8_Node000008_Node000009"><a xlink:title=" ">
<path fill="none" stroke="#63b8ff" d="M638.67,-55.84C616.54,-47.24 583.17,-34.28 557.99,-24.5"/>
<polygon fill="#63b8ff" stroke="#63b8ff" points="559.41,-21.29 548.82,-20.93 556.88,-27.82 559.41,-21.29"/>
</a>
</g>
</g>
<!-- Node10 -->
<g id="Node000010" class="node">
<title>Node10</title>
<g id="a_Node000010"><a xlink:title=" ">
<polygon fill="#e0e0e0" stroke="#999999" points="663.25,-20 569.25,-20 569.25,0 663.25,0 663.25,-20"/>
<text text-anchor="middle" x="616.25" y="-6.5" font-family="Helvetica,sans-Serif" font-size="10.00">condition_variable</text>
</a>
</g>
</g>
<!-- Node8&#45;&gt;Node10 -->
<g id="edge9_Node000008_Node000010" class="edge">
<title>Node8&#45;&gt;Node10</title>
<g id="a_edge9_Node000008_Node000010"><a xlink:title=" ">
<path fill="none" stroke="#63b8ff" d="M654.24,-55.59C647.97,-48.24 639.08,-37.8 631.47,-28.87"/>
<polygon fill="#63b8ff" stroke="#63b8ff" points="634.3,-26.79 625.15,-21.45 628.97,-31.33 634.3,-26.79"/>
</a>
</g>
</g>
<!-- Node11 -->
<g id="Node000011" class="node">
<title>Node11</title>
<g id="a_Node000011"><a xlink:title=" ">
<polygon fill="#e0e0e0" stroke="#999999" points="732.88,-20 681.62,-20 681.62,0 732.88,0 732.88,-20"/>
<text text-anchor="middle" x="707.25" y="-6.5" font-family="Helvetica,sans-Serif" font-size="10.00">memory</text>
</a>
</g>
</g>
<!-- Node8&#45;&gt;Node11 -->
<g id="edge10_Node000008_Node000011" class="edge">
<title>Node8&#45;&gt;Node11</title>
<g id="a_edge10_Node000008_Node000011"><a xlink:title=" ">
<path fill="none" stroke="#63b8ff" d="M670.09,-55.59C676.22,-48.24 684.92,-37.8 692.36,-28.87"/>
<polygon fill="#63b8ff" stroke="#63b8ff" points="694.82,-31.38 698.53,-21.46 689.44,-26.9 694.82,-31.38"/>
</a>
</g>
</g>
<!-- Node12 -->
<g id="Node000012" class="node">
<title>Node12</title>
<g id="a_Node000012"><a xlink:title=" ">
<polygon fill="#e0e0e0" stroke="#999999" points="793.75,-20 750.75,-20 750.75,0 793.75,0 793.75,-20"/>
<text text-anchor="middle" x="772.25" y="-6.5" font-family="Helvetica,sans-Serif" font-size="10.00">mutex</text>
</a>
</g>
</g>
<!-- Node8&#45;&gt;Node12 -->
<g id="edge11_Node000008_Node000012" class="edge">
<title>Node8&#45;&gt;Node12</title>
<g id="a_edge11_Node000008_Node000012"><a xlink:title=" ">
<path fill="none" stroke="#63b8ff" d="M681.41,-55.59C698.34,-47.28 723.3,-35.03 742.77,-25.47"/>
<polygon fill="#63b8ff" stroke="#63b8ff" points="744.15,-28.7 751.58,-21.15 741.06,-22.41 744.15,-28.7"/>
</a>
</g>
</g>
<!-- Node13 -->
<g id="Node000013" class="node">
<title>Node13</title>
<g id="a_Node000013"><a xlink:title=" ">
<polygon fill="#e0e0e0" stroke="#999999" points="981.12,-20 931.38,-20 931.38,0 981.12,0 981.12,-20"/>
<text text-anchor="middle" x="956.25" y="-6.5" font-family="Helvetica,sans-Serif" font-size="10.00">optional</text>
</a>
</g>
</g>
<!-- Node8&#45;&gt;Node13 -->
<g id="edge12_Node000008_Node000013" class="edge">
<title>Node8&#45;&gt;Node13</title>
<g id="a_edge12_Node000008_Node000013"><a xlink:title=" ">
<path fill="none" stroke="#63b8ff" d="M685.79,-61.71C729.93,-55.38 828.3,-40.51 919.95,-20.58"/>
<polygon fill="#63b8ff" stroke="#63b8ff" points="920.6,-24.02 929.61,-18.45 919.09,-17.19 920.6,-24.02"/>
</a>
</g>
</g>
<!-- Node14 -->
<g id="Node000014" class="node">
<title>Node14</title>
<g id="a_Node000014"><a xlink:title=" ">
<polygon fill="#e0e0e0" stroke="#999999" points="249.88,-20 198.62,-20 198.62,0 249.88,0 249.88,-20"/>
<text text-anchor="middle" x="224.25" y="-6.5" font-family="Helvetica,sans-Serif" font-size="10.00">ostream</text>
</a>
</g>
</g>
<!-- Node8&#45;&gt;Node14 -->
<g id="edge13_Node000008_Node000014" class="edge">
<title>Node8&#45;&gt;Node14</title>
<g id="a_edge13_Node000008_Node000014"><a xlink:title=" ">
<path fill="none" stroke="#63b8ff" d="M638.39,-63.58C577.2,-59.67 409.61,-47.34 261.25,-20.33"/>
<polygon fill="#63b8ff" stroke="#63b8ff" points="262.11,-16.93 251.64,-18.55 260.83,-23.82 262.11,-16.93"/>
</a>
</g>
</g>
<!-- Node15 -->
<g id="Node000015" class="node">
<title>Node15</title>
<g id="a_Node000015"><a xlink:title=" ">
<polygon fill="#e0e0e0" stroke="#999999" points="852.25,-20 812.25,-20 812.25,0 852.25,0 852.25,-20"/>
<text text-anchor="middle" x="832.25" y="-6.5" font-family="Helvetica,sans-Serif" font-size="10.00">string</text>
</a>
</g>
</g>
<!-- Node8&#45;&gt;Node15 -->
<g id="edge14_Node000008_Node000015" class="edge">
<title>Node8&#45;&gt;Node15</title>
<g id="a_edge14_Node000008_Node000015"><a xlink:title=" ">
<path fill="none" stroke="#63b8ff" d="M685.89,-57.49C715.92,-47.95 767.84,-31.46 801.08,-20.9"/>
<polygon fill="#63b8ff" stroke="#63b8ff" points="802.08,-24.25 810.55,-17.89 799.96,-17.58 802.08,-24.25"/>
</a>
</g>
</g>
<!-- Node16 -->
<g id="Node000016" class="node">
<title>Node16</title>
<g id="a_Node000016"><a xlink:title=" ">
<polygon fill="#e0e0e0" stroke="#999999" points="333,-20 267.5,-20 267.5,0 333,0 333,-20"/>
<text text-anchor="middle" x="300.25" y="-6.5" font-family="Helvetica,sans-Serif" font-size="10.00">string_view</text>
</a>
</g>
</g>
<!-- Node8&#45;&gt;Node16 -->
<g id="edge15_Node000008_Node000016" class="edge">
<title>Node8&#45;&gt;Node16</title>
<g id="a_edge15_Node000008_Node000016"><a xlink:title=" ">
<path fill="none" stroke="#63b8ff" d="M638.47,-62.25C586.9,-56.15 460.68,-40.55 344.44,-20.27"/>
<polygon fill="#63b8ff" stroke="#63b8ff" points="345.17,-16.85 334.71,-18.56 343.95,-23.74 345.17,-16.85"/>
</a>
</g>
</g>
<!-- Node17 -->
<g id="Node000017" class="node">
<title>Node17</title>
<g id="a_Node000017"><a xlink:title=" ">
<polygon fill="#e0e0e0" stroke="#999999" points="413.12,-20 351.38,-20 351.38,0 413.12,0 413.12,-20"/>
<text text-anchor="middle" x="382.25" y="-6.5" font-family="Helvetica,sans-Serif" font-size="10.00">type_traits</text>
</a>
</g>
</g>
<!-- Node8&#45;&gt;Node17 -->
<g id="edge16_Node000008_Node000017" class="edge">
<title>Node8&#45;&gt;Node17</title>
<g id="a_edge16_Node000008_Node000017"><a xlink:title=" ">
<path fill="none" stroke="#63b8ff" d="M638.69,-60.87C597.43,-53.58 509.17,-37.72 424.36,-20.38"/>
<polygon fill="#63b8ff" stroke="#63b8ff" points="425.22,-16.98 414.72,-18.39 423.81,-23.83 425.22,-16.98"/>
</a>
</g>
</g>
<!-- Node18 -->
<g id="Node000018" class="node">
<title>Node18</title>
<g id="a_Node000018"><a xlink:title=" ">
<polygon fill="#e0e0e0" stroke="#999999" points="476.88,-20 431.62,-20 431.62,0 476.88,0 476.88,-20"/>
<text text-anchor="middle" x="454.25" y="-6.5" font-family="Helvetica,sans-Serif" font-size="10.00">variant</text>
</a>
</g>
</g>
<!-- Node8&#45;&gt;Node18 -->
<g id="edge17_Node000008_Node000018" class="edge">
<title>Node8&#45;&gt;Node18</title>
<g id="a_edge17_Node000008_Node000018"><a xlink:title=" ">
<path fill="none" stroke="#63b8ff" d="M638.58,-59.14C606.65,-51.19 547.79,-36.4 488.07,-20.44"/>
<polygon fill="#63b8ff" stroke="#63b8ff" points="489.33,-17.16 478.77,-17.95 487.52,-23.92 489.33,-17.16"/>
</a>
</g>
</g>
<!-- Node19 -->
<g id="Node000019" class="node">
<title>Node19</title>
<g id="a_Node000019"><a xlink:title=" ">
<polygon fill="#e0e0e0" stroke="#999999" points="913.75,-20 870.75,-20 870.75,0 913.75,0 913.75,-20"/>
<text text-anchor="middle" x="892.25" y="-6.5" font-family="Helvetica,sans-Serif" font-size="10.00">vector</text>
</a>
</g>
</g>
<!-- Node8&#45;&gt;Node19 -->
<g id="edge18_Node000008_Node000019" class="edge">
<title>Node8&#45;&gt;Node19</title>
<g id="a_edge18_Node000008_Node000019"><a xlink:title=" ">
<path fill="none" stroke="#63b8ff" d="M685.95,-60.12C721.46,-52.71 790.8,-37.85 859.3,-20.38"/>
<polygon fill="#63b8ff" stroke="#63b8ff" points="860,-23.81 868.81,-17.93 858.26,-17.03 860,-23.81"/>
</a>
</g>
</g>
<!-- Node21 -->
<g id="Node000021" class="node">
<title>Node21</title>
<g id="a_Node000021"><a xlink:title=" ">
<polygon fill="#e0e0e0" stroke="#999999" points="892.75,-76 777.75,-76 777.75,-56 892.75,-56 892.75,-76"/>
<text text-anchor="middle" x="835.25" y="-62.5" font-family="Helvetica,sans-Serif" font-size="10.00">boost/log/common.hpp</text>
</a>
</g>
</g>
<!-- Node20&#45;&gt;Node21 -->
<g id="edge20_Node000020_Node000021" class="edge">
<title>Node20&#45;&gt;Node21</title>
<g id="a_edge20_Node000020_Node000021"><a xlink:title=" ">
<path fill="none" stroke="#63b8ff" d="M939.3,-111.59C919.55,-103.13 890.26,-90.58 867.78,-80.94"/>
<polygon fill="#63b8ff" stroke="#63b8ff" points="869.33,-77.8 858.76,-77.08 866.57,-84.23 869.33,-77.8"/>
</a>
</g>
</g>
<!-- Node22 -->
<g id="Node000022" class="node">
<title>Node22</title>
<g id="a_Node000022"><a xlink:title=" ">
<polygon fill="#e0e0e0" stroke="#999999" points="1011.62,-76 910.88,-76 910.88,-56 1011.62,-56 1011.62,-76"/>
<text text-anchor="middle" x="961.25" y="-62.5" font-family="Helvetica,sans-Serif" font-size="10.00">boost/log/sinks.hpp</text>
</a>
</g>
</g>
<!-- Node20&#45;&gt;Node22 -->
<g id="edge21_Node000020_Node000022" class="edge">
<title>Node20&#45;&gt;Node22</title>
<g id="a_edge21_Node000020_Node000022"><a xlink:title=" ">
<path fill="none" stroke="#63b8ff" d="M961.25,-111.59C961.25,-105.01 961.25,-95.96 961.25,-87.73"/>
<polygon fill="#63b8ff" stroke="#63b8ff" points="964.75,-87.81 961.25,-77.81 957.75,-87.81 964.75,-87.81"/>
</a>
</g>
</g>
<!-- Node23 -->
<g id="Node000023" class="node">
<title>Node23</title>
<g id="a_Node000023"><a xlink:href="config_8h.html" target="_top" xlink:title="Declarations for the configuration of Sunshine.">
<polygon fill="white" stroke="#666666" points="1080.5,-76 1030,-76 1030,-56 1080.5,-56 1080.5,-76"/>
<text text-anchor="middle" x="1055.25" y="-62.5" font-family="Helvetica,sans-Serif" font-size="10.00">config.h</text>
</a>
</g>
</g>
<!-- Node20&#45;&gt;Node23 -->
<g id="edge22_Node000020_Node000023" class="edge">
<title>Node20&#45;&gt;Node23</title>
<g id="a_edge22_Node000020_Node000023"><a xlink:title=" ">
<path fill="none" stroke="#63b8ff" d="M977.62,-111.59C991.82,-103.44 1012.63,-91.48 1029.13,-82"/>
<polygon fill="#63b8ff" stroke="#63b8ff" points="1030.51,-85.25 1037.44,-77.23 1027.02,-79.18 1030.51,-85.25"/>
</a>
</g>
</g>
<!-- Node28 -->
<g id="Node000028" class="node">
<title>Node28</title>
<g id="a_Node000028"><a xlink:href="stat__trackers_8h.html" target="_top" xlink:title="Declarations for streaming statistic tracking.">
<polygon fill="white" stroke="#666666" points="1435.88,-76 1354.62,-76 1354.62,-56 1435.88,-56 1435.88,-76"/>
<text text-anchor="middle" x="1395.25" y="-62.5" font-family="Helvetica,sans-Serif" font-size="10.00">stat_trackers.h</text>
</a>
</g>
</g>
<!-- Node20&#45;&gt;Node28 -->
<g id="edge30_Node000020_Node000028" class="edge">
<title>Node20&#45;&gt;Node28</title>
<g id="a_edge30_Node000020_Node000028"><a xlink:title=" ">
<path fill="none" stroke="#63b8ff" d="M989.06,-117.54C1060.29,-108.68 1250.18,-85.05 1342.88,-73.52"/>
<polygon fill="#63b8ff" stroke="#63b8ff" points="1343.23,-77 1352.72,-72.29 1342.36,-70.05 1343.23,-77"/>
</a>
</g>
</g>
<!-- Node23&#45;&gt;Node13 -->
<g id="edge25_Node000023_Node000013" class="edge">
<title>Node23&#45;&gt;Node13</title>
<g id="a_edge25_Node000023_Node000013"><a xlink:title=" ">
<path fill="none" stroke="#63b8ff" d="M1038.01,-55.59C1022.91,-47.36 1000.72,-35.26 983.27,-25.74"/>
<polygon fill="#63b8ff" stroke="#63b8ff" points="985.41,-22.92 974.96,-21.2 982.06,-29.07 985.41,-22.92"/>
</a>
</g>
</g>
<!-- Node23&#45;&gt;Node15 -->
<g id="edge26_Node000023_Node000015" class="edge">
<title>Node23&#45;&gt;Node15</title>
<g id="a_edge26_Node000023_Node000015"><a xlink:title=" ">
<path fill="none" stroke="#63b8ff" d="M1029.66,-58.33C1026.49,-57.53 1023.3,-56.74 1020.25,-56 953.54,-39.83 933.73,-38.46 863.3,-20.12"/>
<polygon fill="#63b8ff" stroke="#63b8ff" points="864.56,-16.83 853.99,-17.67 862.78,-23.6 864.56,-16.83"/>
</a>
</g>
</g>
<!-- Node23&#45;&gt;Node19 -->
<g id="edge28_Node000023_Node000019" class="edge">
<title>Node23&#45;&gt;Node19</title>
<g id="a_edge28_Node000023_Node000019"><a xlink:title=" ">
<path fill="none" stroke="#63b8ff" d="M1029.78,-56.56C1001.47,-47.18 955.68,-32.01 924.79,-21.78"/>
<polygon fill="#63b8ff" stroke="#63b8ff" points="926.18,-18.55 915.59,-18.73 923.98,-25.2 926.18,-18.55"/>
</a>
</g>
</g>
<!-- Node24 -->
<g id="Node000024" class="node">
<title>Node24</title>
<g id="a_Node000024"><a xlink:title=" ">
<polygon fill="#e0e0e0" stroke="#999999" points="1169.25,-20 1129.25,-20 1129.25,0 1169.25,0 1169.25,-20"/>
<text text-anchor="middle" x="1149.25" y="-6.5" font-family="Helvetica,sans-Serif" font-size="10.00">bitset</text>
</a>
</g>
</g>
<!-- Node23&#45;&gt;Node24 -->
<g id="edge23_Node000023_Node000024" class="edge">
<title>Node23&#45;&gt;Node24</title>
<g id="a_edge23_Node000023_Node000024"><a xlink:title=" ">
<path fill="none" stroke="#63b8ff" d="M1071.62,-55.59C1085.82,-47.44 1106.63,-35.48 1123.13,-26"/>
<polygon fill="#63b8ff" stroke="#63b8ff" points="1124.51,-29.25 1131.44,-21.23 1121.02,-23.18 1124.51,-29.25"/>
</a>
</g>
</g>
<!-- Node25 -->
<g id="Node000025" class="node">
<title>Node25</title>
<g id="a_Node000025"><a xlink:title=" ">
<polygon fill="#e0e0e0" stroke="#999999" points="1332.88,-20 1287.62,-20 1287.62,0 1332.88,0 1332.88,-20"/>
<text text-anchor="middle" x="1310.25" y="-6.5" font-family="Helvetica,sans-Serif" font-size="10.00">chrono</text>
</a>
</g>
</g>
<!-- Node23&#45;&gt;Node25 -->
<g id="edge24_Node000023_Node000025" class="edge">
<title>Node23&#45;&gt;Node25</title>
<g id="a_edge24_Node000023_Node000025"><a xlink:title=" ">
<path fill="none" stroke="#63b8ff" d="M1080.8,-60.49C1120.52,-53.34 1199.69,-38.54 1276.42,-20.29"/>
<polygon fill="#63b8ff" stroke="#63b8ff" points="1276.86,-23.79 1285.76,-18.05 1275.22,-16.98 1276.86,-23.79"/>
</a>
</g>
</g>
<!-- Node26 -->
<g id="Node000026" class="node">
<title>Node26</title>
<g id="a_Node000026"><a xlink:title=" ">
<polygon fill="#e0e0e0" stroke="#999999" points="1269.62,-20 1186.88,-20 1186.88,0 1269.62,0 1269.62,-20"/>
<text text-anchor="middle" x="1228.25" y="-6.5" font-family="Helvetica,sans-Serif" font-size="10.00">unordered_map</text>
</a>
</g>
</g>
<!-- Node23&#45;&gt;Node26 -->
<g id="edge27_Node000023_Node000026" class="edge">
<title>Node23&#45;&gt;Node26</title>
<g id="a_edge27_Node000023_Node000026"><a xlink:title=" ">
<path fill="none" stroke="#63b8ff" d="M1080.78,-57.03C1108.81,-48.28 1154.23,-34.1 1187.27,-23.79"/>
<polygon fill="#63b8ff" stroke="#63b8ff" points="1188.01,-27.23 1196.51,-20.91 1185.92,-20.55 1188.01,-27.23"/>
</a>
</g>
</g>
<!-- Node27 -->
<g id="Node000027" class="node">
<title>Node27</title>
<g id="a_Node000027"><a xlink:href="nvenc__config_8h.html" target="_top" xlink:title="Declarations for NVENC encoder configuration.">
<polygon fill="white" stroke="#666666" points="1110.88,-20 999.62,-20 999.62,0 1110.88,0 1110.88,-20"/>
<text text-anchor="middle" x="1055.25" y="-6.5" font-family="Helvetica,sans-Serif" font-size="10.00">nvenc/nvenc_config.h</text>
</a>
</g>
</g>
<!-- Node23&#45;&gt;Node27 -->
<g id="edge29_Node000023_Node000027" class="edge">
<title>Node23&#45;&gt;Node27</title>
<g id="a_edge29_Node000023_Node000027"><a xlink:title=" ">
<path fill="none" stroke="#63b8ff" d="M1055.25,-55.59C1055.25,-49.01 1055.25,-39.96 1055.25,-31.73"/>
<polygon fill="#63b8ff" stroke="#63b8ff" points="1058.75,-31.81 1055.25,-21.81 1051.75,-31.81 1058.75,-31.81"/>
</a>
</g>
</g>
<!-- Node28&#45;&gt;Node25 -->
<g id="edge31_Node000028_Node000025" class="edge">
<title>Node28&#45;&gt;Node25</title>
<g id="a_edge31_Node000028_Node000025"><a xlink:title=" ">
<path fill="none" stroke="#63b8ff" d="M1380.44,-55.59C1367.85,-47.59 1349.5,-35.93 1334.72,-26.54"/>
<polygon fill="#63b8ff" stroke="#63b8ff" points="1336.77,-23.7 1326.45,-21.29 1333.01,-29.61 1336.77,-23.7"/>
</a>
</g>
</g>
<!-- Node29 -->
<g id="Node000029" class="node">
<title>Node29</title>
<g id="a_Node000029"><a xlink:title=" ">
<polygon fill="#e0e0e0" stroke="#999999" points="1516.25,-20 1458.25,-20 1458.25,0 1516.25,0 1516.25,-20"/>
<text text-anchor="middle" x="1487.25" y="-6.5" font-family="Helvetica,sans-Serif" font-size="10.00">functional</text>
</a>
</g>
</g>
<!-- Node28&#45;&gt;Node29 -->
<g id="edge32_Node000028_Node000029" class="edge">
<title>Node28&#45;&gt;Node29</title>
<g id="a_edge32_Node000028_Node000029"><a xlink:title=" ">
<path fill="none" stroke="#63b8ff" d="M1411.28,-55.59C1425.04,-47.51 1445.15,-35.71 1461.23,-26.27"/>
<polygon fill="#63b8ff" stroke="#63b8ff" points="1462.94,-29.33 1469.79,-21.25 1459.4,-23.29 1462.94,-29.33"/>
</a>
</g>
</g>
<!-- Node30 -->
<g id="Node000030" class="node">
<title>Node30</title>
<g id="a_Node000030"><a xlink:title=" ">
<polygon fill="#e0e0e0" stroke="#999999" points="1573.88,-20 1534.62,-20 1534.62,0 1573.88,0 1573.88,-20"/>
<text text-anchor="middle" x="1554.25" y="-6.5" font-family="Helvetica,sans-Serif" font-size="10.00">limits</text>
</a>
</g>
</g>
<!-- Node28&#45;&gt;Node30 -->
<g id="edge33_Node000028_Node000030" class="edge">
<title>Node28&#45;&gt;Node30</title>
<g id="a_edge33_Node000028_Node000030"><a xlink:title=" ">
<path fill="none" stroke="#63b8ff" d="M1422.95,-55.59C1451.07,-46.04 1494.5,-31.29 1523.63,-21.4"/>
<polygon fill="#63b8ff" stroke="#63b8ff" points="1524.63,-24.76 1532.97,-18.23 1522.38,-18.13 1524.63,-24.76"/>
</a>
</g>
</g>
<!-- Node31 -->
<g id="Node000031" class="node">
<title>Node31</title>
<g id="a_Node000031"><a xlink:title=" ">
<polygon fill="#e0e0e0" stroke="#999999" points="1440,-20 1350.5,-20 1350.5,0 1440,0 1440,-20"/>
<text text-anchor="middle" x="1395.25" y="-6.5" font-family="Helvetica,sans-Serif" font-size="10.00">boost/format.hpp</text>
</a>
</g>
</g>
<!-- Node28&#45;&gt;Node31 -->
<g id="edge34_Node000028_Node000031" class="edge">
<title>Node28&#45;&gt;Node31</title>
<g id="a_edge34_Node000028_Node000031"><a xlink:title=" ">
<path fill="none" stroke="#63b8ff" d="M1395.25,-55.59C1395.25,-49.01 1395.25,-39.96 1395.25,-31.73"/>
<polygon fill="#63b8ff" stroke="#63b8ff" points="1398.75,-31.81 1395.25,-21.81 1391.75,-31.81 1398.75,-31.81"/>
</a>
</g>
</g>
</g>
</svg>

<g id="navigator" transform="translate(0 0)" fill="#404254">
  <rect fill="#f2f5e9" fill-opacity="0.5" stroke="#606060" stroke-width=".5" x="0" y="0" width="60" height="60"/>
  <use id="zoomplus" xlink:href="#zoomPlus" x="17" y="9" onmousedown="handleZoom(evt,'in')"/>
  <use id="zoomminus" xlink:href="#zoomMin" x="42" y="9" onmousedown="handleZoom(evt,'out')"/>
  <use id="reset" xlink:href="#resetDef" x="30" y="36" onmousedown="handleReset()"/>
   <use id="arrowup" xlink:href="#arrowUp" x="0" y="0" onmousedown="handlePan(0,-1)"/>
  <use id="arrowright" xlink:href="#arrowRight" x="0" y="0" onmousedown="handlePan(1,0)"/>
  <use id="arrowdown" xlink:href="#arrowDown" x="0" y="0" onmousedown="handlePan(0,1)"/>
  <use id="arrowleft" xlink:href="#arrowLeft" x="0" y="0" onmousedown="handlePan(-1,0)"/>
</g>
<svg viewBox="0 0 15 15" width="100%" height="30px" preserveAspectRatio="xMaxYMin meet">
 <g id="arrow_out" transform="scale(0.3 0.3)">
  <a xlink:href="cbs_8cpp__incl_org.svg" target="_base">
   <rect id="button" ry="5" rx="5" y="6" x="6" height="38" width="38"
        fill="#f2f5e9" fill-opacity="0.5" stroke="#606060" stroke-width="1.0"/>
   <path id="arrow"
     d="M 11.500037,31.436501 C 11.940474,20.09759 22.043105,11.32322 32.158766,21.979434 L 37.068811,17.246167 C 37.068811,17.246167 37.088388,32 37.088388,32 L 22.160133,31.978069 C 22.160133,31.978069 26.997745,27.140456 26.997745,27.140456 C 18.528582,18.264221 13.291696,25.230495 11.500037,31.436501 z"
     style="fill:#404040;"/>
  </a>
 </g>
</svg>

<style type='text/css'>
<![CDATA[
[data-mouse-over-selected='false'] { opacity: 0.7; }
[data-mouse-over-selected='true']  { opacity: 1.0; }
]]>
</style>
<script type="application/ecmascript"><![CDATA[
document.addEventListener('DOMContentLoaded', (event) => {
  highlightEdges();
  highlightAdjacentNodes();
});
]]></script>
</svg>
