<?xml version="1.0" encoding="UTF-8" standalone="no"?>
<!DOCTYPE svg PUBLIC "-//W3C//DTD SVG 1.1//EN"
 "http://www.w3.org/Graphics/SVG/1.1/DTD/svg11.dtd">
<!-- Generated by graphviz version 12.2.1 (0)
 -->
<!-- Title: video::avcodec_encode_session_t Pages: 1 -->
<svg width="532pt" height="146pt"
 viewBox="0.00 0.00 531.50 146.00" xmlns="http://www.w3.org/2000/svg" xmlns:xlink="http://www.w3.org/1999/xlink">
<g id="graph0" class="graph" transform="scale(1 1) rotate(0) translate(4 142)">
<title>video::avcodec_encode_session_t</title>
<!-- Node1 -->
<g id="Node000001" class="node">
<title>Node1</title>
<g id="a_Node000001"><a xlink:title=" ">
<polygon fill="#999999" stroke="#666666" points="523.5,-88 404.75,-88 404.75,-56 523.5,-56 523.5,-88"/>
<text text-anchor="start" x="412.75" y="-74.5" font-family="Helvetica,sans-Serif" font-size="10.00">video::avcodec_encode</text>
<text text-anchor="middle" x="464.12" y="-62.5" font-family="Helvetica,sans-Serif" font-size="10.00">_session_t</text>
</a>
</g>
</g>
<!-- Node2 -->
<g id="Node000002" class="node">
<title>Node2</title>
<g id="a_Node000002"><a xlink:href="structvideo_1_1encode__session__t.html" target="_top" xlink:title=" ">
<polygon fill="white" stroke="#bfbfbf" points="293,-138 169,-138 169,-118 293,-118 293,-138"/>
<text text-anchor="middle" x="231" y="-124.5" font-family="Helvetica,sans-Serif" font-size="10.00">video::encode_session_t</text>
</a>
</g>
</g>
<!-- Node2&#45;&gt;Node1 -->
<g id="edge1_Node000001_Node000002" class="edge">
<title>Node2&#45;&gt;Node1</title>
<g id="a_edge1_Node000001_Node000002"><a xlink:title=" ">
<path fill="none" stroke="#63b8ff" d="M286.31,-114.84C321.8,-106.24 368.11,-95.02 404.44,-86.22"/>
<polygon fill="#63b8ff" stroke="#63b8ff" points="285.57,-111.42 276.67,-117.18 287.22,-118.22 285.57,-111.42"/>
</a>
</g>
</g>
<!-- Node3 -->
<g id="Node000003" class="node">
<title>Node3</title>
<g id="a_Node000003"><a xlink:href="classutil_1_1uniq__ptr.html" target="_top" xlink:title=" ">
<polygon fill="white" stroke="#bfbfbf" points="310.25,-100 151.75,-100 151.75,-44 310.25,-44 310.25,-100"/>
<text text-anchor="start" x="159.75" y="-86.5" font-family="Helvetica,sans-Serif" font-size="10.00">util::uniq_ptr&lt; T,</text>
<text text-anchor="start" x="159.75" y="-74.5" font-family="Helvetica,sans-Serif" font-size="10.00"> Destroy&lt; T *, void,</text>
<text text-anchor="start" x="159.75" y="-62.5" font-family="Helvetica,sans-Serif" font-size="10.00"> function &gt; &gt;&lt; AVCodecContext,</text>
<text text-anchor="middle" x="231" y="-50.5" font-family="Helvetica,sans-Serif" font-size="10.00"> free_ctx &gt;</text>
</a>
</g>
</g>
<!-- Node3&#45;&gt;Node1 -->
<g id="edge2_Node000001_Node000003" class="edge">
<title>Node3&#45;&gt;Node1</title>
<g id="a_edge2_Node000001_Node000003"><a xlink:title=" ">
<path fill="none" stroke="#9a32cd" stroke-dasharray="5,2" d="M321.9,-72C349.63,-72 379.44,-72 404.49,-72"/>
<polygon fill="#9a32cd" stroke="#9a32cd" points="322.08,-68.5 312.08,-72 322.08,-75.5 322.08,-68.5"/>
</a>
</g>
<text text-anchor="middle" x="357.5" y="-74.5" font-family="Helvetica,sans-Serif" font-size="10.00" fill="grey"> avcodec_ctx</text>
</g>
<!-- Node4 -->
<g id="Node000004" class="node">
<title>Node4</title>
<g id="a_Node000004"><a xlink:href="structcbs_1_1nal__t.html" target="_top" xlink:title=" ">
<polygon fill="white" stroke="#bfbfbf" points="260.38,-26 201.62,-26 201.62,-6 260.38,-6 260.38,-26"/>
<text text-anchor="middle" x="231" y="-12.5" font-family="Helvetica,sans-Serif" font-size="10.00">cbs::nal_t</text>
</a>
</g>
</g>
<!-- Node4&#45;&gt;Node1 -->
<g id="edge3_Node000001_Node000004" class="edge">
<title>Node4&#45;&gt;Node1</title>
<g id="a_edge3_Node000001_Node000004"><a xlink:title=" ">
<path fill="none" stroke="#9a32cd" stroke-dasharray="5,2" d="M272.23,-21.33C303.71,-25.97 348.43,-33.59 386.75,-44 398.47,-47.18 410.94,-51.39 422.32,-55.57"/>
<polygon fill="#9a32cd" stroke="#9a32cd" points="272.74,-17.87 262.35,-19.92 271.75,-24.8 272.74,-17.87"/>
</a>
</g>
<text text-anchor="middle" x="357.5" y="-58.5" font-family="Helvetica,sans-Serif" font-size="10.00" fill="grey"> sps</text>
<text text-anchor="middle" x="357.5" y="-46.5" font-family="Helvetica,sans-Serif" font-size="10.00" fill="grey">vps</text>
</g>
<!-- Node5 -->
<g id="Node000005" class="node">
<title>Node5</title>
<g id="a_Node000005"><a xlink:href="classutil_1_1buffer__t.html" target="_top" xlink:title=" ">
<polygon fill="white" stroke="#bfbfbf" points="89.5,-32 0,-32 0,0 89.5,0 89.5,-32"/>
<text text-anchor="start" x="8" y="-18.5" font-family="Helvetica,sans-Serif" font-size="10.00">util::buffer_t&lt; std</text>
<text text-anchor="middle" x="44.75" y="-6.5" font-family="Helvetica,sans-Serif" font-size="10.00">::uint8_t &gt;</text>
</a>
</g>
</g>
<!-- Node5&#45;&gt;Node4 -->
<g id="edge4_Node000004_Node000005" class="edge">
<title>Node5&#45;&gt;Node4</title>
<g id="a_edge4_Node000004_Node000005"><a xlink:title=" ">
<path fill="none" stroke="#9a32cd" stroke-dasharray="5,2" d="M101.18,-16C134.09,-16 174.47,-16 201.15,-16"/>
<polygon fill="#9a32cd" stroke="#9a32cd" points="101.4,-12.5 91.4,-16 101.4,-19.5 101.4,-12.5"/>
</a>
</g>
<text text-anchor="middle" x="120.62" y="-30.5" font-family="Helvetica,sans-Serif" font-size="10.00" fill="grey"> _new</text>
<text text-anchor="middle" x="120.62" y="-18.5" font-family="Helvetica,sans-Serif" font-size="10.00" fill="grey">old</text>
</g>
</g>
</svg>
