<?xml version="1.0" encoding="UTF-8" standalone="no"?>
<!DOCTYPE svg PUBLIC "-//W3C//DTD SVG 1.1//EN"
 "http://www.w3.org/Graphics/SVG/1.1/DTD/svg11.dtd">
<!-- Generated by graphviz version 12.2.1 (0)
 -->
<!-- Title: nvenc::nvenc_d3d11 Pages: 1 -->
<svg width="157pt" height="165pt"
 viewBox="0.00 0.00 157.00 165.00" xmlns="http://www.w3.org/2000/svg" xmlns:xlink="http://www.w3.org/1999/xlink">
<g id="graph0" class="graph" transform="scale(1 1) rotate(0) translate(4 161)">
<title>nvenc::nvenc_d3d11</title>
<!-- Node1 -->
<g id="Node000001" class="node">
<title>Node1</title>
<g id="a_Node000001"><a xlink:title="Abstract Direct3D11 NVENC encoder. Encapsulates common code used by native and interop implementation...">
<polygon fill="#999999" stroke="#666666" points="119.12,-20 13.88,-20 13.88,0 119.12,0 119.12,-20"/>
<text text-anchor="middle" x="66.5" y="-6.5" font-family="Helvetica,sans-Serif" font-size="10.00">nvenc::nvenc_d3d11</text>
</a>
</g>
</g>
<!-- Node2 -->
<g id="Node000002" class="node">
<title>Node2</title>
<g id="a_Node000002"><a xlink:href="classnvenc_1_1nvenc__base.html" target="_top" xlink:title="Abstract platform&#45;agnostic base of standalone NVENC encoder. Derived classes perform platform&#45;specifi...">
<polygon fill="white" stroke="#666666" points="116.88,-77 16.12,-77 16.12,-57 116.88,-57 116.88,-77"/>
<text text-anchor="middle" x="66.5" y="-63.5" font-family="Helvetica,sans-Serif" font-size="10.00">nvenc::nvenc_base</text>
</a>
</g>
</g>
<!-- Node2&#45;&gt;Node1 -->
<g id="edge1_Node000001_Node000002" class="edge">
<title>Node2&#45;&gt;Node1</title>
<g id="a_edge1_Node000001_Node000002"><a xlink:title=" ">
<path fill="none" stroke="#63b8ff" d="M66.5,-45.69C66.5,-36.97 66.5,-27.22 66.5,-20.28"/>
<polygon fill="#63b8ff" stroke="#63b8ff" points="63,-45.4 66.5,-55.4 70,-45.4 63,-45.4"/>
</a>
</g>
</g>
<!-- Node3 -->
<g id="Node000003" class="node">
<title>Node3</title>
<g id="a_Node000003"><a xlink:href="classlogging_1_1min__max__avg__periodic__logger.html" target="_top" xlink:title=" ">
<polygon fill="white" stroke="#666666" points="133,-157 0,-157 0,-125 133,-125 133,-157"/>
<text text-anchor="start" x="8" y="-143.5" font-family="Helvetica,sans-Serif" font-size="10.00">logging::min_max_avg</text>
<text text-anchor="middle" x="66.5" y="-131.5" font-family="Helvetica,sans-Serif" font-size="10.00">_periodic_logger&lt; double &gt;</text>
</a>
</g>
</g>
<!-- Node3&#45;&gt;Node2 -->
<g id="edge2_Node000002_Node000003" class="edge">
<title>Node3&#45;&gt;Node2</title>
<g id="a_edge2_Node000002_Node000003"><a xlink:title=" ">
<path fill="none" stroke="#9a32cd" stroke-dasharray="5,2" d="M66.5,-113.34C66.5,-100.7 66.5,-86.41 66.5,-77.31"/>
<polygon fill="#9a32cd" stroke="#9a32cd" points="63,-113.22 66.5,-123.22 70,-113.22 63,-113.22"/>
</a>
</g>
<text text-anchor="middle" x="107.75" y="-97.5" font-family="Helvetica,sans-Serif" font-size="10.00" fill="grey"> frame_size_logger</text>
</g>
</g>
</svg>
