<?xml version="1.0" encoding="UTF-8" standalone="no"?>
<!DOCTYPE svg PUBLIC "-//W3C//DTD SVG 1.1//EN"
 "http://www.w3.org/Graphics/SVG/1.1/DTD/svg11.dtd">
<!-- Generated by graphviz version 12.2.1 (0)
 -->
<!-- Title: nvenc::nvenc_d3d11_on_cuda Pages: 1 -->
<svg width="157pt" height="234pt"
 viewBox="0.00 0.00 157.00 234.00" xmlns="http://www.w3.org/2000/svg" xmlns:xlink="http://www.w3.org/1999/xlink">
<g id="graph0" class="graph" transform="scale(1 1) rotate(0) translate(4 230)">
<title>nvenc::nvenc_d3d11_on_cuda</title>
<!-- Node1 -->
<g id="Node000001" class="node">
<title>Node1</title>
<g id="a_Node000001"><a xlink:title="Interop Direct3D11 on CUDA NVENC encoder. Input surface is Direct3D11, encoding is performed by CUDA.">
<polygon fill="#999999" stroke="#666666" points="119.12,-32 13.88,-32 13.88,0 119.12,0 119.12,-32"/>
<text text-anchor="start" x="21.88" y="-18.5" font-family="Helvetica,sans-Serif" font-size="10.00">nvenc::nvenc_d3d11</text>
<text text-anchor="middle" x="66.5" y="-6.5" font-family="Helvetica,sans-Serif" font-size="10.00">_on_cuda</text>
</a>
</g>
</g>
<!-- Node2 -->
<g id="Node000002" class="node">
<title>Node2</title>
<g id="a_Node000002"><a xlink:href="classnvenc_1_1nvenc__d3d11.html" target="_top" xlink:title="Abstract Direct3D11 NVENC encoder. Encapsulates common code used by native and interop implementation...">
<polygon fill="white" stroke="#666666" points="119.12,-89 13.88,-89 13.88,-69 119.12,-69 119.12,-89"/>
<text text-anchor="middle" x="66.5" y="-75.5" font-family="Helvetica,sans-Serif" font-size="10.00">nvenc::nvenc_d3d11</text>
</a>
</g>
</g>
<!-- Node2&#45;&gt;Node1 -->
<g id="edge1_Node000001_Node000002" class="edge">
<title>Node2&#45;&gt;Node1</title>
<g id="a_edge1_Node000001_Node000002"><a xlink:title=" ">
<path fill="none" stroke="#63b8ff" d="M66.5,-57.36C66.5,-49.07 66.5,-39.69 66.5,-32.06"/>
<polygon fill="#63b8ff" stroke="#63b8ff" points="63,-57.22 66.5,-67.22 70,-57.22 63,-57.22"/>
</a>
</g>
</g>
<!-- Node3 -->
<g id="Node000003" class="node">
<title>Node3</title>
<g id="a_Node000003"><a xlink:href="classnvenc_1_1nvenc__base.html" target="_top" xlink:title="Abstract platform&#45;agnostic base of standalone NVENC encoder. Derived classes perform platform&#45;specifi...">
<polygon fill="white" stroke="#666666" points="116.88,-146 16.12,-146 16.12,-126 116.88,-126 116.88,-146"/>
<text text-anchor="middle" x="66.5" y="-132.5" font-family="Helvetica,sans-Serif" font-size="10.00">nvenc::nvenc_base</text>
</a>
</g>
</g>
<!-- Node3&#45;&gt;Node2 -->
<g id="edge2_Node000002_Node000003" class="edge">
<title>Node3&#45;&gt;Node2</title>
<g id="a_edge2_Node000002_Node000003"><a xlink:title=" ">
<path fill="none" stroke="#63b8ff" d="M66.5,-114.69C66.5,-105.97 66.5,-96.22 66.5,-89.28"/>
<polygon fill="#63b8ff" stroke="#63b8ff" points="63,-114.4 66.5,-124.4 70,-114.4 63,-114.4"/>
</a>
</g>
</g>
<!-- Node4 -->
<g id="Node000004" class="node">
<title>Node4</title>
<g id="a_Node000004"><a xlink:href="classlogging_1_1min__max__avg__periodic__logger.html" target="_top" xlink:title=" ">
<polygon fill="white" stroke="#666666" points="133,-226 0,-226 0,-194 133,-194 133,-226"/>
<text text-anchor="start" x="8" y="-212.5" font-family="Helvetica,sans-Serif" font-size="10.00">logging::min_max_avg</text>
<text text-anchor="middle" x="66.5" y="-200.5" font-family="Helvetica,sans-Serif" font-size="10.00">_periodic_logger&lt; double &gt;</text>
</a>
</g>
</g>
<!-- Node4&#45;&gt;Node3 -->
<g id="edge3_Node000003_Node000004" class="edge">
<title>Node4&#45;&gt;Node3</title>
<g id="a_edge3_Node000003_Node000004"><a xlink:title=" ">
<path fill="none" stroke="#9a32cd" stroke-dasharray="5,2" d="M66.5,-182.34C66.5,-169.7 66.5,-155.41 66.5,-146.31"/>
<polygon fill="#9a32cd" stroke="#9a32cd" points="63,-182.22 66.5,-192.22 70,-182.22 63,-182.22"/>
</a>
</g>
<text text-anchor="middle" x="107.75" y="-166.5" font-family="Helvetica,sans-Serif" font-size="10.00" fill="grey"> frame_size_logger</text>
</g>
</g>
</svg>
