<?xml version="1.0" encoding="UTF-8" standalone="no"?>
<!DOCTYPE svg PUBLIC "-//W3C//DTD SVG 1.1//EN"
 "http://www.w3.org/Graphics/SVG/1.1/DTD/svg11.dtd">
<!-- Generated by graphviz version 12.2.1 (0)
 -->
<!-- Title: platf::mic_t Pages: 1 -->
<svg width="338pt" height="84pt"
 viewBox="0.00 0.00 338.12 84.00" xmlns="http://www.w3.org/2000/svg" xmlns:xlink="http://www.w3.org/1999/xlink">

<svg id="main" version="1.1" xmlns="http://www.w3.org/2000/svg" xmlns:xlink="http://www.w3.org/1999/xlink" xml:space="preserve">

<style type="text/css"><![CDATA[
.node, .edge {opacity: 0.7;}
.node.selected, .edge.selected {opacity: 1;}
.edge:hover path { stroke: red; }
.edge:hover polygon { stroke: red; fill: red; }
]]></style>
<script type="application/ecmascript" xlink:href="svg.min.js"/>
<svg id="graph" class="graph">
<g id="graph0" class="graph" transform="scale(1 1) rotate(0) translate(4 80)">
<title>platf::mic_t</title>
<!-- Node1 -->
<g id="Node000001" class="node">
<title>Node1</title>
<g id="a_Node000001"><a xlink:title=" ">
<polygon fill="#999999" stroke="#666666" points="220.38,-76 155.62,-76 155.62,-56 220.38,-56 220.38,-76"/>
<text text-anchor="middle" x="188" y="-62.5" font-family="Helvetica,sans-Serif" font-size="10.00">platf::mic_t</text>
</a>
</g>
</g>
<!-- Node2 -->
<g id="Node000002" class="node">
<title>Node2</title>
<g id="a_Node000002"><a xlink:href="classplatf_1_1audio_1_1mic__wasapi__t.html" target="_top" xlink:title=" ">
<polygon fill="white" stroke="#bfbfbf" points="130,-20 0,-20 0,0 130,0 130,-20"/>
<text text-anchor="middle" x="65" y="-6.5" font-family="Helvetica,sans-Serif" font-size="10.00">platf::audio::mic_wasapi_t</text>
</a>
</g>
</g>
<!-- Node1&#45;&gt;Node2 -->
<g id="edge1_Node000001_Node000002" class="edge">
<title>Node1&#45;&gt;Node2</title>
<g id="a_edge1_Node000001_Node000002"><a xlink:title=" ">
<path fill="none" stroke="#63b8ff" d="M156.13,-51.01C134.27,-41.41 105.84,-28.93 86.59,-20.48"/>
<polygon fill="#63b8ff" stroke="#63b8ff" points="154.63,-54.17 165.19,-54.99 157.44,-47.76 154.63,-54.17"/>
</a>
</g>
</g>
<!-- Node3 -->
<g id="Node000003" class="node">
<title>Node3</title>
<g id="a_Node000003"><a xlink:href="structplatf_1_1av__mic__t.html" target="_top" xlink:title=" ">
<polygon fill="white" stroke="#bfbfbf" points="228.25,-20 147.75,-20 147.75,0 228.25,0 228.25,-20"/>
<text text-anchor="middle" x="188" y="-6.5" font-family="Helvetica,sans-Serif" font-size="10.00">platf::av_mic_t</text>
</a>
</g>
</g>
<!-- Node1&#45;&gt;Node3 -->
<g id="edge2_Node000001_Node000003" class="edge">
<title>Node1&#45;&gt;Node3</title>
<g id="a_edge2_Node000001_Node000003"><a xlink:title=" ">
<path fill="none" stroke="#63b8ff" d="M188,-44.13C188,-35.9 188,-26.85 188,-20.3"/>
<polygon fill="#63b8ff" stroke="#63b8ff" points="184.5,-44.08 188,-54.08 191.5,-44.08 184.5,-44.08"/>
</a>
</g>
</g>
<!-- Node4 -->
<g id="Node000004" class="node">
<title>Node4</title>
<g id="a_Node000004"><a xlink:href="structplatf_1_1mic__attr__t.html" target="_top" xlink:title=" ">
<polygon fill="white" stroke="#bfbfbf" points="330.12,-20 245.88,-20 245.88,0 330.12,0 330.12,-20"/>
<text text-anchor="middle" x="288" y="-6.5" font-family="Helvetica,sans-Serif" font-size="10.00">platf::mic_attr_t</text>
</a>
</g>
</g>
<!-- Node1&#45;&gt;Node4 -->
<g id="edge3_Node000001_Node000004" class="edge">
<title>Node1&#45;&gt;Node4</title>
<g id="a_edge3_Node000001_Node000004"><a xlink:title=" ">
<path fill="none" stroke="#63b8ff" d="M215.13,-50.35C232.74,-40.84 255.15,-28.74 270.45,-20.48"/>
<polygon fill="#63b8ff" stroke="#63b8ff" points="213.89,-47.04 206.75,-54.87 217.21,-53.2 213.89,-47.04"/>
</a>
</g>
</g>
</g>
</svg>
</svg>

<style type='text/css'>
<![CDATA[
[data-mouse-over-selected='false'] { opacity: 0.7; }
[data-mouse-over-selected='true']  { opacity: 1.0; }
]]>
</style>
<script type="application/ecmascript"><![CDATA[
document.addEventListener('DOMContentLoaded', (event) => {
  highlightEdges();
  highlightAdjacentNodes();
});
]]></script>
</svg>
