<?xml version="1.0" encoding="UTF-8" standalone="no"?>
<!DOCTYPE svg PUBLIC "-//W3C//DTD SVG 1.1//EN"
 "http://www.w3.org/Graphics/SVG/1.1/DTD/svg11.dtd">
<!-- Generated by graphviz version 12.2.1 (0)
 -->
<!-- Title: platf::dxgi::display_ddup_ram_t Pages: 1 -->
<!--zoomable 404 -->

<svg id="main" version="1.1" xmlns="http://www.w3.org/2000/svg" xmlns:xlink="http://www.w3.org/1999/xlink" xml:space="preserve" onload="init(evt)">

<style type="text/css"><![CDATA[
.node, .edge {opacity: 0.7;}
.node.selected, .edge.selected {opacity: 1;}
.edge:hover path { stroke: red; }
.edge:hover polygon { stroke: red; fill: red; }
]]></style>

<defs>
  <circle id="rim" cx="0" cy="0" r="7"/>
  <circle id="rim2" cx="0" cy="0" r="3.5"/>
  <g id="zoomPlus">
    <use xlink:href="#rim" fill="#404040"><set attributeName="fill" to="#808080" begin="zoomplus.mouseover" end="zoomplus.mouseout"/></use>
    <path d="M-4,0h8M0,-4v8" fill="none" stroke="white" stroke-width="1.5" pointer-events="none"/>
  </g>
  <g id="zoomMin">
    <use xlink:href="#rim" fill="#404040"><set attributeName="fill" to="#808080" begin="zoomminus.mouseover" end="zoomminus.mouseout"/></use>
    <path d="M-4,0h8" fill="none" stroke="white" stroke-width="1.5" pointer-events="none"/>
  </g>
  <g id="arrowUp" transform="translate(30 24)">
    <use xlink:href="#rim"/>
    <path pointer-events="none" fill="none" stroke="white" stroke-width="1.5" d="M0,-3.0v7 M-2.5,-0.5L0,-3.0L2.5,-0.5"/>
  </g>
  <g id="arrowRight" transform="rotate(90) translate(36 -43)">
    <use xlink:href="#rim"/>
    <path pointer-events="none" fill="none" stroke="white" stroke-width="1.5" d="M0,-3.0v7 M-2.5,-0.5L0,-3.0L2.5,-0.5"/>
  </g>
  <g id="arrowDown" transform="rotate(180) translate(-30 -48)">
    <use xlink:href="#rim"/>
    <path pointer-events="none" fill="none" stroke="white" stroke-width="1.5" d="M0,-3.0v7 M-2.5,-0.5L0,-3.0L2.5,-0.5"/>
  </g>
  <g id="arrowLeft" transform="rotate(270) translate(-36 17)">
    <use xlink:href="#rim"/>
    <path pointer-events="none" fill="none" stroke="white" stroke-width="1.5" d="M0,-3.0v7 M-2.5,-0.5L0,-3.0L2.5,-0.5"/>
  </g>
  <g id="resetDef">
    <use xlink:href="#rim2" fill="#404040"><set attributeName="fill" to="#808080" begin="reset.mouseover" end="reset.mouseout"/></use>
  </g>
</defs>
<script type="application/ecmascript">
var viewWidth = 1091;
var viewHeight = 404;
var sectionId = 'dynsection-1';
</script>
<script type="application/ecmascript" xlink:href="svg.min.js"/>
<svg id="graph" class="graph">
<g id="viewport">
<title>platf::dxgi::display_ddup_ram_t</title>
<!-- Node1 -->
<g id="Node000001" class="node">
<title>Node1</title>
<g id="a_Node000001"><a xlink:title=" ">
<polygon fill="#999999" stroke="#666666" points="1082.75,-108 987.25,-108 987.25,-76 1082.75,-76 1082.75,-108"/>
<text text-anchor="start" x="995.25" y="-94.5" font-family="Helvetica,sans-Serif" font-size="10.00">platf::dxgi::display</text>
<text text-anchor="middle" x="1035" y="-82.5" font-family="Helvetica,sans-Serif" font-size="10.00">_ddup_ram_t</text>
</a>
</g>
</g>
<!-- Node2 -->
<g id="Node000002" class="node">
<title>Node2</title>
<g id="a_Node000002"><a xlink:href="classplatf_1_1dxgi_1_1display__ram__t.html" target="_top" xlink:title=" ">
<polygon fill="white" stroke="#666666" points="909.25,-167 813.75,-167 813.75,-135 909.25,-135 909.25,-167"/>
<text text-anchor="start" x="821.75" y="-153.5" font-family="Helvetica,sans-Serif" font-size="10.00">platf::dxgi::display</text>
<text text-anchor="middle" x="861.5" y="-141.5" font-family="Helvetica,sans-Serif" font-size="10.00">_ram_t</text>
</a>
</g>
</g>
<!-- Node2&#45;&gt;Node1 -->
<g id="edge1_Node000001_Node000002" class="edge">
<title>Node2&#45;&gt;Node1</title>
<g id="a_edge1_Node000001_Node000002"><a xlink:title=" ">
<path fill="none" stroke="#63b8ff" d="M920.11,-131.18C941.82,-123.71 966.25,-115.31 986.9,-108.2"/>
<polygon fill="#63b8ff" stroke="#63b8ff" points="919.11,-127.82 910.79,-134.39 921.39,-134.44 919.11,-127.82"/>
</a>
</g>
</g>
<!-- Node3 -->
<g id="Node000003" class="node">
<title>Node3</title>
<g id="a_Node000003"><a xlink:href="classplatf_1_1dxgi_1_1display__base__t.html" target="_top" xlink:title=" ">
<polygon fill="white" stroke="#bfbfbf" points="685.88,-229 590.38,-229 590.38,-197 685.88,-197 685.88,-229"/>
<text text-anchor="start" x="598.38" y="-215.5" font-family="Helvetica,sans-Serif" font-size="10.00">platf::dxgi::display</text>
<text text-anchor="middle" x="638.12" y="-203.5" font-family="Helvetica,sans-Serif" font-size="10.00">_base_t</text>
</a>
</g>
</g>
<!-- Node3&#45;&gt;Node2 -->
<g id="edge2_Node000002_Node000003" class="edge">
<title>Node3&#45;&gt;Node2</title>
<g id="a_edge2_Node000002_Node000003"><a xlink:title=" ">
<path fill="none" stroke="#63b8ff" d="M697.37,-197.65C709.1,-194.5 721.33,-191.18 732.75,-188 759.56,-180.54 789.43,-171.91 813.55,-164.85"/>
<polygon fill="#63b8ff" stroke="#63b8ff" points="696.55,-194.25 687.79,-200.21 698.35,-201.01 696.55,-194.25"/>
</a>
</g>
</g>
<!-- Node4 -->
<g id="Node000004" class="node">
<title>Node4</title>
<g id="a_Node000004"><a xlink:href="classplatf_1_1display__t.html" target="_top" xlink:title=" ">
<polygon fill="white" stroke="#bfbfbf" points="388.25,-390 308.5,-390 308.5,-370 388.25,-370 388.25,-390"/>
<text text-anchor="middle" x="348.38" y="-376.5" font-family="Helvetica,sans-Serif" font-size="10.00">platf::display_t</text>
</a>
</g>
</g>
<!-- Node4&#45;&gt;Node3 -->
<g id="edge3_Node000003_Node000004" class="edge">
<title>Node4&#45;&gt;Node3</title>
<g id="a_edge3_Node000003_Node000004"><a xlink:title=" ">
<path fill="none" stroke="#63b8ff" d="M399.79,-376.54C418.48,-373.88 439.44,-369.2 457.25,-361 528.52,-328.19 595.07,-260.12 623.12,-229.07"/>
<polygon fill="#63b8ff" stroke="#63b8ff" points="399.49,-373.05 390,-377.76 400.36,-379.99 399.49,-373.05"/>
</a>
</g>
</g>
<!-- Node5 -->
<g id="Node000005" class="node">
<title>Node5</title>
<g id="a_Node000005"><a xlink:href="classlogging_1_1time__delta__periodic__logger.html" target="_top" xlink:title="A helper class for tracking and logging short time intervals across a period of time.">
<polygon fill="white" stroke="#666666" points="97.75,-396 0,-396 0,-364 97.75,-364 97.75,-396"/>
<text text-anchor="start" x="8" y="-382.5" font-family="Helvetica,sans-Serif" font-size="10.00">logging::time_delta</text>
<text text-anchor="middle" x="48.88" y="-370.5" font-family="Helvetica,sans-Serif" font-size="10.00">_periodic_logger</text>
</a>
</g>
</g>
<!-- Node5&#45;&gt;Node4 -->
<g id="edge4_Node000004_Node000005" class="edge">
<title>Node5&#45;&gt;Node4</title>
<g id="a_edge4_Node000004_Node000005"><a xlink:title=" ">
<path fill="none" stroke="#9a32cd" stroke-dasharray="5,2" d="M109.42,-380C168.59,-380 257.62,-380 308.34,-380"/>
<polygon fill="#9a32cd" stroke="#9a32cd" points="109.52,-376.5 99.52,-380 109.52,-383.5 109.52,-376.5"/>
</a>
</g>
<text text-anchor="middle" x="168.62" y="-382.5" font-family="Helvetica,sans-Serif" font-size="10.00" fill="grey"> sleep_overshoot_logger</text>
</g>
<!-- Node6 -->
<g id="Node000006" class="node">
<title>Node6</title>
<g id="a_Node000006"><a xlink:href="classutil_1_1uniq__ptr.html" target="_top" xlink:title=" ">
<polygon fill="white" stroke="#bfbfbf" points="423.12,-352 273.62,-352 273.62,-296 423.12,-296 423.12,-352"/>
<text text-anchor="start" x="281.62" y="-338.5" font-family="Helvetica,sans-Serif" font-size="10.00">util::uniq_ptr&lt; T,</text>
<text text-anchor="start" x="281.62" y="-326.5" font-family="Helvetica,sans-Serif" font-size="10.00"> Destroy&lt; T *, void,</text>
<text text-anchor="start" x="281.62" y="-314.5" font-family="Helvetica,sans-Serif" font-size="10.00"> function &gt; &gt;&lt; IDXGIFactory1,</text>
<text text-anchor="middle" x="348.38" y="-302.5" font-family="Helvetica,sans-Serif" font-size="10.00"> Release&lt; IDXGIFactory1 &gt; &gt;</text>
</a>
</g>
</g>
<!-- Node6&#45;&gt;Node3 -->
<g id="edge5_Node000003_Node000006" class="edge">
<title>Node6&#45;&gt;Node3</title>
<g id="a_edge5_Node000003_Node000006"><a xlink:title=" ">
<path fill="none" stroke="#9a32cd" stroke-dasharray="5,2" d="M434.22,-295.44C442.03,-292.65 449.8,-289.81 457.25,-287 506.7,-268.37 562.91,-244.86 599.14,-229.4"/>
<polygon fill="#9a32cd" stroke="#9a32cd" points="433.26,-292.06 425,-298.7 435.59,-298.66 433.26,-292.06"/>
</a>
</g>
<text text-anchor="middle" x="500.38" y="-281.96" font-family="Helvetica,sans-Serif" font-size="10.00" fill="grey"> factory</text>
</g>
<!-- Node7 -->
<g id="Node000007" class="node">
<title>Node7</title>
<g id="a_Node000007"><a xlink:href="classutil_1_1uniq__ptr.html" target="_top" xlink:title=" ">
<polygon fill="white" stroke="#bfbfbf" points="423.5,-278 273.25,-278 273.25,-222 423.5,-222 423.5,-278"/>
<text text-anchor="start" x="281.25" y="-264.5" font-family="Helvetica,sans-Serif" font-size="10.00">util::uniq_ptr&lt; T,</text>
<text text-anchor="start" x="281.25" y="-252.5" font-family="Helvetica,sans-Serif" font-size="10.00"> Destroy&lt; T *, void,</text>
<text text-anchor="start" x="281.25" y="-240.5" font-family="Helvetica,sans-Serif" font-size="10.00"> function &gt; &gt;&lt; IDXGIAdapter1,</text>
<text text-anchor="middle" x="348.38" y="-228.5" font-family="Helvetica,sans-Serif" font-size="10.00"> Release&lt; IDXGIAdapter1 &gt; &gt;</text>
</a>
</g>
</g>
<!-- Node7&#45;&gt;Node3 -->
<g id="edge6_Node000003_Node000007" class="edge">
<title>Node7&#45;&gt;Node3</title>
<g id="a_edge6_Node000003_Node000007"><a xlink:title=" ">
<path fill="none" stroke="#9a32cd" stroke-dasharray="5,2" d="M435.14,-238.97C485.84,-232.45 548.11,-224.45 590,-219.06"/>
<polygon fill="#9a32cd" stroke="#9a32cd" points="434.83,-235.48 425.35,-240.23 435.72,-242.43 434.83,-235.48"/>
</a>
</g>
<text text-anchor="middle" x="500.38" y="-236.22" font-family="Helvetica,sans-Serif" font-size="10.00" fill="grey"> adapter</text>
</g>
<!-- Node8 -->
<g id="Node000008" class="node">
<title>Node8</title>
<g id="a_Node000008"><a xlink:href="classutil_1_1uniq__ptr.html" target="_top" xlink:title=" ">
<polygon fill="white" stroke="#bfbfbf" points="418.62,-204 278.12,-204 278.12,-148 418.62,-148 418.62,-204"/>
<text text-anchor="start" x="286.12" y="-190.5" font-family="Helvetica,sans-Serif" font-size="10.00">util::uniq_ptr&lt; T,</text>
<text text-anchor="start" x="286.12" y="-178.5" font-family="Helvetica,sans-Serif" font-size="10.00"> Destroy&lt; T *, void,</text>
<text text-anchor="start" x="286.12" y="-166.5" font-family="Helvetica,sans-Serif" font-size="10.00"> function &gt; &gt;&lt; IDXGIOutput,</text>
<text text-anchor="middle" x="348.38" y="-154.5" font-family="Helvetica,sans-Serif" font-size="10.00"> Release&lt; IDXGIOutput &gt; &gt;</text>
</a>
</g>
</g>
<!-- Node8&#45;&gt;Node3 -->
<g id="edge7_Node000003_Node000008" class="edge">
<title>Node8&#45;&gt;Node3</title>
<g id="a_edge7_Node000003_Node000008"><a xlink:title=" ">
<path fill="none" stroke="#9a32cd" stroke-dasharray="5,2" d="M430.16,-186.39C481.76,-193.02 546.87,-201.39 590.14,-206.96"/>
<polygon fill="#9a32cd" stroke="#9a32cd" points="430.9,-182.95 420.53,-185.15 430,-189.9 430.9,-182.95"/>
</a>
</g>
<text text-anchor="middle" x="500.38" y="-200.31" font-family="Helvetica,sans-Serif" font-size="10.00" fill="grey"> output</text>
</g>
<!-- Node9 -->
<g id="Node000009" class="node">
<title>Node9</title>
<g id="a_Node000009"><a xlink:href="classutil_1_1uniq__ptr.html" target="_top" xlink:title=" ">
<polygon fill="white" stroke="#bfbfbf" points="422,-130 274.75,-130 274.75,-74 422,-74 422,-130"/>
<text text-anchor="start" x="282.75" y="-116.5" font-family="Helvetica,sans-Serif" font-size="10.00">util::uniq_ptr&lt; T,</text>
<text text-anchor="start" x="282.75" y="-104.5" font-family="Helvetica,sans-Serif" font-size="10.00"> Destroy&lt; T *, void,</text>
<text text-anchor="start" x="282.75" y="-92.5" font-family="Helvetica,sans-Serif" font-size="10.00"> function &gt; &gt;&lt; ID3D11Device,</text>
<text text-anchor="middle" x="348.38" y="-80.5" font-family="Helvetica,sans-Serif" font-size="10.00"> Release&lt; ID3D11Device &gt; &gt;</text>
</a>
</g>
</g>
<!-- Node9&#45;&gt;Node3 -->
<g id="edge8_Node000003_Node000009" class="edge">
<title>Node9&#45;&gt;Node3</title>
<g id="a_edge8_Node000003_Node000009"><a xlink:title=" ">
<path fill="none" stroke="#9a32cd" stroke-dasharray="5,2" d="M432.81,-129.06C441.14,-132.22 449.41,-135.56 457.25,-139 488.84,-152.87 495.95,-158.19 525.5,-176 533.73,-180.96 534.74,-184.04 543.5,-188 558.06,-194.58 574.71,-199.72 589.89,-203.58"/>
<polygon fill="#9a32cd" stroke="#9a32cd" points="434.27,-125.87 423.67,-125.67 431.83,-132.43 434.27,-125.87"/>
</a>
</g>
<text text-anchor="middle" x="500.38" y="-178.5" font-family="Helvetica,sans-Serif" font-size="10.00" fill="grey"> device</text>
</g>
<!-- Node10 -->
<g id="Node000010" class="node">
<title>Node10</title>
<g id="a_Node000010"><a xlink:href="classutil_1_1uniq__ptr.html" target="_top" xlink:title=" ">
<polygon fill="white" stroke="#bfbfbf" points="457.25,-56 239.5,-56 239.5,0 457.25,0 457.25,-56"/>
<text text-anchor="start" x="247.5" y="-42.5" font-family="Helvetica,sans-Serif" font-size="10.00">util::uniq_ptr&lt; T,</text>
<text text-anchor="start" x="247.5" y="-30.5" font-family="Helvetica,sans-Serif" font-size="10.00"> Destroy&lt; T *, void,</text>
<text text-anchor="start" x="247.5" y="-18.5" font-family="Helvetica,sans-Serif" font-size="10.00"> function &gt; &gt;&lt; ID3D11Device</text>
<text text-anchor="middle" x="348.38" y="-6.5" font-family="Helvetica,sans-Serif" font-size="10.00">Context, Release&lt; ID3D11DeviceContext &gt; &gt;</text>
</a>
</g>
</g>
<!-- Node10&#45;&gt;Node3 -->
<g id="edge9_Node000003_Node000010" class="edge">
<title>Node10&#45;&gt;Node3</title>
<g id="a_edge9_Node000003_Node000010"><a xlink:title=" ">
<path fill="none" stroke="#9a32cd" stroke-dasharray="5,2" d="M451.55,-61.64C453.48,-62.73 455.39,-63.85 457.25,-65 493.41,-87.34 503.18,-95.82 525.5,-132 539.23,-154.25 524.56,-169.98 543.5,-188 556.06,-199.94 573.66,-206.32 590.23,-209.68"/>
<polygon fill="#9a32cd" stroke="#9a32cd" points="453.44,-58.68 442.95,-57.13 450.19,-64.88 453.44,-58.68"/>
</a>
</g>
<text text-anchor="middle" x="500.38" y="-134.5" font-family="Helvetica,sans-Serif" font-size="10.00" fill="grey"> device_ctx</text>
</g>
<!-- Node11 -->
<g id="Node000011" class="node">
<title>Node11</title>
<g id="a_Node000011"><a xlink:href="classutil_1_1uniq__ptr.html" target="_top" xlink:title=" ">
<polygon fill="white" stroke="#bfbfbf" points="723.38,-179 552.88,-179 552.88,-123 723.38,-123 723.38,-179"/>
<text text-anchor="start" x="560.88" y="-165.5" font-family="Helvetica,sans-Serif" font-size="10.00">util::uniq_ptr&lt; T,</text>
<text text-anchor="start" x="560.88" y="-153.5" font-family="Helvetica,sans-Serif" font-size="10.00"> Destroy&lt; T *, void,</text>
<text text-anchor="start" x="560.88" y="-141.5" font-family="Helvetica,sans-Serif" font-size="10.00"> function &gt; &gt;&lt; ID3D11Texture2</text>
<text text-anchor="middle" x="638.12" y="-129.5" font-family="Helvetica,sans-Serif" font-size="10.00">D, Release&lt; ID3D11Texture2D &gt; &gt;</text>
</a>
</g>
</g>
<!-- Node11&#45;&gt;Node2 -->
<g id="edge10_Node000002_Node000011" class="edge">
<title>Node11&#45;&gt;Node2</title>
<g id="a_edge10_Node000002_Node000011"><a xlink:title=" ">
<path fill="none" stroke="#9a32cd" stroke-dasharray="5,2" d="M735.27,-151C762.34,-151 790.59,-151 813.39,-151"/>
<polygon fill="#9a32cd" stroke="#9a32cd" points="735.28,-147.5 725.28,-151 735.28,-154.5 735.28,-147.5"/>
</a>
</g>
<text text-anchor="middle" x="767.25" y="-153.5" font-family="Helvetica,sans-Serif" font-size="10.00" fill="grey"> texture</text>
</g>
<!-- Node12 -->
<g id="Node000012" class="node">
<title>Node12</title>
<g id="a_Node000012"><a xlink:href="classplatf_1_1dxgi_1_1duplication__t.html" target="_top" xlink:title=" ">
<polygon fill="white" stroke="#666666" points="921.25,-102 801.75,-102 801.75,-82 921.25,-82 921.25,-102"/>
<text text-anchor="middle" x="861.5" y="-88.5" font-family="Helvetica,sans-Serif" font-size="10.00">platf::dxgi::duplication_t</text>
</a>
</g>
</g>
<!-- Node12&#45;&gt;Node1 -->
<g id="edge11_Node000001_Node000012" class="edge">
<title>Node12&#45;&gt;Node1</title>
<g id="a_edge11_Node000001_Node000012"><a xlink:title=" ">
<path fill="none" stroke="#9a32cd" stroke-dasharray="5,2" d="M932.96,-92C951.08,-92 970.15,-92 986.78,-92"/>
<polygon fill="#9a32cd" stroke="#9a32cd" points="933.03,-88.5 923.03,-92 933.03,-95.5 933.03,-88.5"/>
</a>
</g>
<text text-anchor="middle" x="954.25" y="-94.5" font-family="Helvetica,sans-Serif" font-size="10.00" fill="grey"> dup</text>
</g>
<!-- Node13 -->
<g id="Node000013" class="node">
<title>Node13</title>
<g id="a_Node000013"><a xlink:href="classutil_1_1uniq__ptr.html" target="_top" xlink:title=" ">
<polygon fill="white" stroke="#bfbfbf" points="732.75,-105 543.5,-105 543.5,-49 732.75,-49 732.75,-105"/>
<text text-anchor="start" x="551.5" y="-91.5" font-family="Helvetica,sans-Serif" font-size="10.00">util::uniq_ptr&lt; T,</text>
<text text-anchor="start" x="551.5" y="-79.5" font-family="Helvetica,sans-Serif" font-size="10.00"> Destroy&lt; T *, void,</text>
<text text-anchor="start" x="551.5" y="-67.5" font-family="Helvetica,sans-Serif" font-size="10.00"> function &gt; &gt;&lt; IDXGIOutputDuplication,</text>
<text text-anchor="middle" x="638.12" y="-55.5" font-family="Helvetica,sans-Serif" font-size="10.00"> Release&lt; IDXGIOutputDuplication &gt; &gt;</text>
</a>
</g>
</g>
<!-- Node13&#45;&gt;Node12 -->
<g id="edge12_Node000012_Node000013" class="edge">
<title>Node13&#45;&gt;Node12</title>
<g id="a_edge12_Node000012_Node000013"><a xlink:title=" ">
<path fill="none" stroke="#9a32cd" stroke-dasharray="5,2" d="M744.22,-84.12C763.9,-85.45 783.81,-86.8 801.47,-88"/>
<polygon fill="#9a32cd" stroke="#9a32cd" points="744.73,-80.65 734.52,-83.46 744.26,-87.63 744.73,-80.65"/>
</a>
</g>
<text text-anchor="middle" x="767.25" y="-89.22" font-family="Helvetica,sans-Serif" font-size="10.00" fill="grey"> dup</text>
</g>
<!-- Node14 -->
<g id="Node000014" class="node">
<title>Node14</title>
<g id="a_Node000014"><a xlink:href="structplatf_1_1dxgi_1_1cursor__t.html" target="_top" xlink:title=" ">
<polygon fill="white" stroke="#bfbfbf" points="911.5,-64 811.5,-64 811.5,-44 911.5,-44 911.5,-64"/>
<text text-anchor="middle" x="861.5" y="-50.5" font-family="Helvetica,sans-Serif" font-size="10.00">platf::dxgi::cursor_t</text>
</a>
</g>
</g>
<!-- Node14&#45;&gt;Node1 -->
<g id="edge13_Node000001_Node000014" class="edge">
<title>Node14&#45;&gt;Node1</title>
<g id="a_edge13_Node000001_Node000014"><a xlink:title=" ">
<path fill="none" stroke="#9a32cd" stroke-dasharray="5,2" d="M922.62,-65.96C937.86,-69.11 954.18,-72.59 969.25,-76 975.01,-77.3 981.04,-78.72 987.02,-80.16"/>
<polygon fill="#9a32cd" stroke="#9a32cd" points="923.73,-62.62 913.23,-64.04 922.32,-69.47 923.73,-62.62"/>
</a>
</g>
<text text-anchor="middle" x="954.25" y="-78.5" font-family="Helvetica,sans-Serif" font-size="10.00" fill="grey"> cursor</text>
</g>
</g>
</svg>

<g id="navigator" transform="translate(0 0)" fill="#404254">
  <rect fill="#f2f5e9" fill-opacity="0.5" stroke="#606060" stroke-width=".5" x="0" y="0" width="60" height="60"/>
  <use id="zoomplus" xlink:href="#zoomPlus" x="17" y="9" onmousedown="handleZoom(evt,'in')"/>
  <use id="zoomminus" xlink:href="#zoomMin" x="42" y="9" onmousedown="handleZoom(evt,'out')"/>
  <use id="reset" xlink:href="#resetDef" x="30" y="36" onmousedown="handleReset()"/>
   <use id="arrowup" xlink:href="#arrowUp" x="0" y="0" onmousedown="handlePan(0,-1)"/>
  <use id="arrowright" xlink:href="#arrowRight" x="0" y="0" onmousedown="handlePan(1,0)"/>
  <use id="arrowdown" xlink:href="#arrowDown" x="0" y="0" onmousedown="handlePan(0,1)"/>
  <use id="arrowleft" xlink:href="#arrowLeft" x="0" y="0" onmousedown="handlePan(-1,0)"/>
</g>
<svg viewBox="0 0 15 15" width="100%" height="30px" preserveAspectRatio="xMaxYMin meet">
 <g id="arrow_out" transform="scale(0.3 0.3)">
  <a xlink:href="classplatf_1_1dxgi_1_1display__ddup__ram__t__coll__graph_org.svg" target="_base">
   <rect id="button" ry="5" rx="5" y="6" x="6" height="38" width="38"
        fill="#f2f5e9" fill-opacity="0.5" stroke="#606060" stroke-width="1.0"/>
   <path id="arrow"
     d="M 11.500037,31.436501 C 11.940474,20.09759 22.043105,11.32322 32.158766,21.979434 L 37.068811,17.246167 C 37.068811,17.246167 37.088388,32 37.088388,32 L 22.160133,31.978069 C 22.160133,31.978069 26.997745,27.140456 26.997745,27.140456 C 18.528582,18.264221 13.291696,25.230495 11.500037,31.436501 z"
     style="fill:#404040;"/>
  </a>
 </g>
</svg>

<style type='text/css'>
<![CDATA[
[data-mouse-over-selected='false'] { opacity: 0.7; }
[data-mouse-over-selected='true']  { opacity: 1.0; }
]]>
</style>
<script type="application/ecmascript"><![CDATA[
document.addEventListener('DOMContentLoaded', (event) => {
  highlightEdges();
  highlightAdjacentNodes();
});
]]></script>
</svg>
