<?xml version="1.0" encoding="UTF-8" standalone="no"?>
<!DOCTYPE svg PUBLIC "-//W3C//DTD SVG 1.1//EN"
 "http://www.w3.org/Graphics/SVG/1.1/DTD/svg11.dtd">
<!-- Generated by graphviz version 12.2.1 (0)
 -->
<!-- Title: crypto::cipher::cipher_t Pages: 1 -->
<svg width="363pt" height="84pt"
 viewBox="0.00 0.00 362.75 84.00" xmlns="http://www.w3.org/2000/svg" xmlns:xlink="http://www.w3.org/1999/xlink">
<g id="graph0" class="graph" transform="scale(1 1) rotate(0) translate(4 80)">
<title>crypto::cipher::cipher_t</title>
<!-- Node1 -->
<g id="Node000001" class="node">
<title>Node1</title>
<g id="a_Node000001"><a xlink:title=" ">
<polygon fill="#999999" stroke="#666666" points="233.5,-76 117.75,-76 117.75,-56 233.5,-56 233.5,-76"/>
<text text-anchor="middle" x="175.62" y="-62.5" font-family="Helvetica,sans-Serif" font-size="10.00">crypto::cipher::cipher_t</text>
</a>
</g>
</g>
<!-- Node2 -->
<g id="Node000002" class="node">
<title>Node2</title>
<g id="a_Node000002"><a xlink:href="classcrypto_1_1cipher_1_1cbc__t.html" target="_top" xlink:title=" ">
<polygon fill="white" stroke="#bfbfbf" points="105.25,-20 0,-20 0,0 105.25,0 105.25,-20"/>
<text text-anchor="middle" x="52.62" y="-6.5" font-family="Helvetica,sans-Serif" font-size="10.00">crypto::cipher::cbc_t</text>
</a>
</g>
</g>
<!-- Node1&#45;&gt;Node2 -->
<g id="edge1_Node000001_Node000002" class="edge">
<title>Node1&#45;&gt;Node2</title>
<g id="a_edge1_Node000001_Node000002"><a xlink:title=" ">
<path fill="none" stroke="#63b8ff" d="M143.76,-51.01C121.89,-41.41 93.47,-28.93 74.22,-20.48"/>
<polygon fill="#63b8ff" stroke="#63b8ff" points="142.25,-54.17 152.81,-54.99 145.06,-47.76 142.25,-54.17"/>
</a>
</g>
</g>
<!-- Node3 -->
<g id="Node000003" class="node">
<title>Node3</title>
<g id="a_Node000003"><a xlink:href="classcrypto_1_1cipher_1_1ecb__t.html" target="_top" xlink:title=" ">
<polygon fill="white" stroke="#bfbfbf" points="228.25,-20 123,-20 123,0 228.25,0 228.25,-20"/>
<text text-anchor="middle" x="175.62" y="-6.5" font-family="Helvetica,sans-Serif" font-size="10.00">crypto::cipher::ecb_t</text>
</a>
</g>
</g>
<!-- Node1&#45;&gt;Node3 -->
<g id="edge2_Node000001_Node000003" class="edge">
<title>Node1&#45;&gt;Node3</title>
<g id="a_edge2_Node000001_Node000003"><a xlink:title=" ">
<path fill="none" stroke="#63b8ff" d="M175.62,-44.13C175.62,-35.9 175.62,-26.85 175.62,-20.3"/>
<polygon fill="#63b8ff" stroke="#63b8ff" points="172.13,-44.08 175.63,-54.08 179.13,-44.08 172.13,-44.08"/>
</a>
</g>
</g>
<!-- Node4 -->
<g id="Node000004" class="node">
<title>Node4</title>
<g id="a_Node000004"><a xlink:href="classcrypto_1_1cipher_1_1gcm__t.html" target="_top" xlink:title=" ">
<polygon fill="white" stroke="#bfbfbf" points="354.75,-20 246.5,-20 246.5,0 354.75,0 354.75,-20"/>
<text text-anchor="middle" x="300.62" y="-6.5" font-family="Helvetica,sans-Serif" font-size="10.00">crypto::cipher::gcm_t</text>
</a>
</g>
</g>
<!-- Node1&#45;&gt;Node4 -->
<g id="edge3_Node000001_Node000004" class="edge">
<title>Node1&#45;&gt;Node4</title>
<g id="a_edge3_Node000001_Node000004"><a xlink:title=" ">
<path fill="none" stroke="#63b8ff" d="M207.71,-51.14C229.97,-41.52 259.03,-28.97 278.68,-20.48"/>
<polygon fill="#63b8ff" stroke="#63b8ff" points="206.58,-47.81 198.79,-54.99 209.36,-54.24 206.58,-47.81"/>
</a>
</g>
</g>
</g>
</svg>
