<?xml version="1.0" encoding="UTF-8" standalone="no"?>
<!DOCTYPE svg PUBLIC "-//W3C//DTD SVG 1.1//EN"
 "http://www.w3.org/Graphics/SVG/1.1/DTD/svg11.dtd">
<!-- Generated by graphviz version 12.2.1 (0)
 -->
<!-- Title: platf::dxgi::d3d_base_encode_device Pages: 1 -->
<svg width="468pt" height="706pt"
 viewBox="0.00 0.00 468.25 706.00" xmlns="http://www.w3.org/2000/svg" xmlns:xlink="http://www.w3.org/1999/xlink">
<g id="graph0" class="graph" transform="scale(1 1) rotate(0) translate(4 702)">
<title>platf::dxgi::d3d_base_encode_device</title>
<!-- Node1 -->
<g id="Node000001" class="node">
<title>Node1</title>
<g id="a_Node000001"><a xlink:title=" ">
<polygon fill="#999999" stroke="#666666" points="460.25,-384 353.5,-384 353.5,-352 460.25,-352 460.25,-384"/>
<text text-anchor="start" x="361.5" y="-370.5" font-family="Helvetica,sans-Serif" font-size="10.00">platf::dxgi::d3d_base</text>
<text text-anchor="middle" x="406.88" y="-358.5" font-family="Helvetica,sans-Serif" font-size="10.00">_encode_device</text>
</a>
</g>
</g>
<!-- Node2 -->
<g id="Node000002" class="node">
<title>Node2</title>
<g id="a_Node000002"><a xlink:href="structvideo_1_1color__t.html" target="_top" xlink:title=" ">
<polygon fill="white" stroke="#bfbfbf" points="146.12,-698 71.62,-698 71.62,-678 146.12,-678 146.12,-698"/>
<text text-anchor="middle" x="108.88" y="-684.5" font-family="Helvetica,sans-Serif" font-size="10.00">video::color_t</text>
</a>
</g>
</g>
<!-- Node2&#45;&gt;Node1 -->
<g id="edge1_Node000001_Node000002" class="edge">
<title>Node2&#45;&gt;Node1</title>
<g id="a_edge1_Node000001_Node000002"><a xlink:title=" ">
<path fill="none" stroke="#9a32cd" stroke-dasharray="5,2" d="M157.68,-689.41C209.15,-688.17 289.76,-677.77 335.5,-629 402.44,-557.63 407.02,-429.38 406.42,-384.25"/>
<polygon fill="#9a32cd" stroke="#9a32cd" points="157.69,-685.91 147.73,-689.53 157.77,-692.91 157.69,-685.91"/>
</a>
</g>
<text text-anchor="middle" x="285.62" y="-682.38" font-family="Helvetica,sans-Serif" font-size="10.00" fill="grey"> color_p</text>
</g>
<!-- Node3 -->
<g id="Node000003" class="node">
<title>Node3</title>
<g id="a_Node000003"><a xlink:href="classutil_1_1uniq__ptr.html" target="_top" xlink:title=" ">
<polygon fill="white" stroke="#bfbfbf" points="179.88,-660 37.88,-660 37.88,-604 179.88,-604 179.88,-660"/>
<text text-anchor="start" x="45.88" y="-646.5" font-family="Helvetica,sans-Serif" font-size="10.00">util::uniq_ptr&lt; T,</text>
<text text-anchor="start" x="45.88" y="-634.5" font-family="Helvetica,sans-Serif" font-size="10.00"> Destroy&lt; T *, void,</text>
<text text-anchor="start" x="45.88" y="-622.5" font-family="Helvetica,sans-Serif" font-size="10.00"> function &gt; &gt;&lt; ID3D11Buffer,</text>
<text text-anchor="middle" x="108.88" y="-610.5" font-family="Helvetica,sans-Serif" font-size="10.00"> Release&lt; ID3D11Buffer &gt; &gt;</text>
</a>
</g>
</g>
<!-- Node3&#45;&gt;Node1 -->
<g id="edge2_Node000001_Node000003" class="edge">
<title>Node3&#45;&gt;Node1</title>
<g id="a_edge2_Node000001_Node000003"><a xlink:title=" ">
<path fill="none" stroke="#9a32cd" stroke-dasharray="5,2" d="M191.11,-616.03C238.89,-602.79 297.24,-579.37 335.5,-539 378.79,-493.33 397.04,-417.36 403.22,-384.25"/>
<polygon fill="#9a32cd" stroke="#9a32cd" points="190.38,-612.6 181.62,-618.55 192.18,-619.37 190.38,-612.6"/>
</a>
</g>
<text text-anchor="middle" x="285.62" y="-615.8" font-family="Helvetica,sans-Serif" font-size="10.00" fill="grey"> color_matrix</text>
<text text-anchor="middle" x="285.62" y="-603.8" font-family="Helvetica,sans-Serif" font-size="10.00" fill="grey">subsample_offset</text>
</g>
<!-- Node4 -->
<g id="Node000004" class="node">
<title>Node4</title>
<g id="a_Node000004"><a xlink:href="classutil_1_1uniq__ptr.html" target="_top" xlink:title=" ">
<polygon fill="white" stroke="#bfbfbf" points="191.12,-586 26.62,-586 26.62,-530 191.12,-530 191.12,-586"/>
<text text-anchor="start" x="34.62" y="-572.5" font-family="Helvetica,sans-Serif" font-size="10.00">util::uniq_ptr&lt; T,</text>
<text text-anchor="start" x="34.62" y="-560.5" font-family="Helvetica,sans-Serif" font-size="10.00"> Destroy&lt; T *, void,</text>
<text text-anchor="start" x="34.62" y="-548.5" font-family="Helvetica,sans-Serif" font-size="10.00"> function &gt; &gt;&lt; ID3D11BlendState,</text>
<text text-anchor="middle" x="108.88" y="-536.5" font-family="Helvetica,sans-Serif" font-size="10.00"> Release&lt; ID3D11BlendState &gt; &gt;</text>
</a>
</g>
</g>
<!-- Node4&#45;&gt;Node1 -->
<g id="edge3_Node000001_Node000004" class="edge">
<title>Node4&#45;&gt;Node1</title>
<g id="a_edge3_Node000001_Node000004"><a xlink:title=" ">
<path fill="none" stroke="#9a32cd" stroke-dasharray="5,2" d="M202.43,-535.36C246.19,-521.28 297.13,-499.69 335.5,-468 364.31,-444.21 386.77,-405.87 397.99,-384.22"/>
<polygon fill="#9a32cd" stroke="#9a32cd" points="201.42,-532.01 192.91,-538.33 203.5,-538.69 201.42,-532.01"/>
</a>
</g>
<text text-anchor="middle" x="285.62" y="-525.18" font-family="Helvetica,sans-Serif" font-size="10.00" fill="grey"> blend_disable</text>
</g>
<!-- Node5 -->
<g id="Node000005" class="node">
<title>Node5</title>
<g id="a_Node000005"><a xlink:href="classutil_1_1uniq__ptr.html" target="_top" xlink:title=" ">
<polygon fill="white" stroke="#bfbfbf" points="209.12,-512 8.62,-512 8.62,-456 209.12,-456 209.12,-512"/>
<text text-anchor="start" x="16.62" y="-498.5" font-family="Helvetica,sans-Serif" font-size="10.00">util::uniq_ptr&lt; T,</text>
<text text-anchor="start" x="16.62" y="-486.5" font-family="Helvetica,sans-Serif" font-size="10.00"> Destroy&lt; T *, void,</text>
<text text-anchor="start" x="16.62" y="-474.5" font-family="Helvetica,sans-Serif" font-size="10.00"> function &gt; &gt;&lt; ID3D11Sampler</text>
<text text-anchor="middle" x="108.88" y="-462.5" font-family="Helvetica,sans-Serif" font-size="10.00">State, Release&lt; ID3D11SamplerState &gt; &gt;</text>
</a>
</g>
</g>
<!-- Node5&#45;&gt;Node1 -->
<g id="edge4_Node000001_Node000005" class="edge">
<title>Node5&#45;&gt;Node1</title>
<g id="a_edge4_Node000001_Node000005"><a xlink:title=" ">
<path fill="none" stroke="#9a32cd" stroke-dasharray="5,2" d="M220.46,-457.96C257.91,-447.25 299.38,-433.25 335.5,-416 353.38,-407.46 371.83,-394.71 385.34,-384.49"/>
<polygon fill="#9a32cd" stroke="#9a32cd" points="219.64,-454.56 210.95,-460.63 221.53,-461.3 219.64,-454.56"/>
</a>
</g>
<text text-anchor="middle" x="285.62" y="-454.97" font-family="Helvetica,sans-Serif" font-size="10.00" fill="grey"> sampler_linear</text>
</g>
<!-- Node6 -->
<g id="Node000006" class="node">
<title>Node6</title>
<g id="a_Node000006"><a xlink:href="classutil_1_1uniq__ptr.html" target="_top" xlink:title=" ">
<polygon fill="white" stroke="#bfbfbf" points="198.62,-438 19.12,-438 19.12,-370 198.62,-370 198.62,-438"/>
<text text-anchor="start" x="27.12" y="-424.5" font-family="Helvetica,sans-Serif" font-size="10.00">util::uniq_ptr&lt; T,</text>
<text text-anchor="start" x="27.12" y="-412.5" font-family="Helvetica,sans-Serif" font-size="10.00"> Destroy&lt; T *, void,</text>
<text text-anchor="start" x="27.12" y="-400.5" font-family="Helvetica,sans-Serif" font-size="10.00"> function &gt; &gt;&lt; ID3D11Render</text>
<text text-anchor="start" x="27.12" y="-388.5" font-family="Helvetica,sans-Serif" font-size="10.00">TargetView, Release&lt; ID3D11Render</text>
<text text-anchor="middle" x="108.88" y="-376.5" font-family="Helvetica,sans-Serif" font-size="10.00">TargetView &gt; &gt;</text>
</a>
</g>
</g>
<!-- Node6&#45;&gt;Node1 -->
<g id="edge5_Node000001_Node000006" class="edge">
<title>Node6&#45;&gt;Node1</title>
<g id="a_edge5_Node000001_Node000006"><a xlink:title=" ">
<path fill="none" stroke="#9a32cd" stroke-dasharray="5,2" d="M210.47,-391.77C258.46,-385.93 313.88,-379.19 353.42,-374.38"/>
<polygon fill="#9a32cd" stroke="#9a32cd" points="210.09,-388.29 200.59,-392.97 210.94,-395.23 210.09,-388.29"/>
</a>
</g>
<text text-anchor="middle" x="285.62" y="-402.66" font-family="Helvetica,sans-Serif" font-size="10.00" fill="grey"> out_UV_rtv</text>
<text text-anchor="middle" x="285.62" y="-390.66" font-family="Helvetica,sans-Serif" font-size="10.00" fill="grey">out_Y_or_YUV_rtv</text>
</g>
<!-- Node7 -->
<g id="Node000007" class="node">
<title>Node7</title>
<g id="a_Node000007"><a xlink:href="classutil_1_1uniq__ptr.html" target="_top" xlink:title=" ">
<polygon fill="white" stroke="#bfbfbf" points="212.5,-352 5.25,-352 5.25,-296 212.5,-296 212.5,-352"/>
<text text-anchor="start" x="13.25" y="-338.5" font-family="Helvetica,sans-Serif" font-size="10.00">util::uniq_ptr&lt; T,</text>
<text text-anchor="start" x="13.25" y="-326.5" font-family="Helvetica,sans-Serif" font-size="10.00"> Destroy&lt; T *, void,</text>
<text text-anchor="start" x="13.25" y="-314.5" font-family="Helvetica,sans-Serif" font-size="10.00"> function &gt; &gt;&lt; ID3D11Vertex</text>
<text text-anchor="middle" x="108.88" y="-302.5" font-family="Helvetica,sans-Serif" font-size="10.00">Shader, Release&lt; ID3D11VertexShader &gt; &gt;</text>
</a>
</g>
</g>
<!-- Node7&#45;&gt;Node1 -->
<g id="edge6_Node000001_Node000007" class="edge">
<title>Node7&#45;&gt;Node1</title>
<g id="a_edge6_Node000001_Node000007"><a xlink:title=" ">
<path fill="none" stroke="#9a32cd" stroke-dasharray="5,2" d="M223.87,-333.2C259.76,-337.01 299.44,-342.18 335.5,-349 341.22,-350.08 347.16,-351.39 353.05,-352.81"/>
<polygon fill="#9a32cd" stroke="#9a32cd" points="224.67,-329.76 214.37,-332.21 223.95,-336.72 224.67,-329.76"/>
</a>
</g>
<text text-anchor="middle" x="285.62" y="-363.5" font-family="Helvetica,sans-Serif" font-size="10.00" fill="grey"> convert_UV_vs</text>
<text text-anchor="middle" x="285.62" y="-351.5" font-family="Helvetica,sans-Serif" font-size="10.00" fill="grey">convert_Y_or_YUV_vs</text>
</g>
<!-- Node8 -->
<g id="Node000008" class="node">
<title>Node8</title>
<g id="a_Node000008"><a xlink:href="classutil_1_1uniq__ptr.html" target="_top" xlink:title=" ">
<polygon fill="white" stroke="#bfbfbf" points="193.38,-278 24.38,-278 24.38,-222 193.38,-222 193.38,-278"/>
<text text-anchor="start" x="32.38" y="-264.5" font-family="Helvetica,sans-Serif" font-size="10.00">util::uniq_ptr&lt; T,</text>
<text text-anchor="start" x="32.38" y="-252.5" font-family="Helvetica,sans-Serif" font-size="10.00"> Destroy&lt; T *, void,</text>
<text text-anchor="start" x="32.38" y="-240.5" font-family="Helvetica,sans-Serif" font-size="10.00"> function &gt; &gt;&lt; ID3D11PixelShader,</text>
<text text-anchor="middle" x="108.88" y="-228.5" font-family="Helvetica,sans-Serif" font-size="10.00"> Release&lt; ID3D11PixelShader &gt; &gt;</text>
</a>
</g>
</g>
<!-- Node8&#45;&gt;Node1 -->
<g id="edge7_Node000001_Node000008" class="edge">
<title>Node8&#45;&gt;Node1</title>
<g id="a_edge7_Node000001_Node000008"><a xlink:title=" ">
<path fill="none" stroke="#9a32cd" stroke-dasharray="5,2" d="M205.11,-241.72C247.49,-242.2 296.52,-248.79 335.5,-271 367.68,-289.34 389.13,-329.07 399.22,-351.58"/>
<polygon fill="#9a32cd" stroke="#9a32cd" points="205.14,-238.22 195.14,-241.73 205.15,-245.22 205.14,-238.22"/>
</a>
</g>
<text text-anchor="middle" x="285.62" y="-321.5" font-family="Helvetica,sans-Serif" font-size="10.00" fill="grey"> convert_UV_fp16_ps</text>
<text text-anchor="middle" x="285.62" y="-309.5" font-family="Helvetica,sans-Serif" font-size="10.00" fill="grey">convert_UV_ps</text>
<text text-anchor="start" x="235.75" y="-297.5" font-family="Helvetica,sans-Serif" font-size="10.00" fill="grey">convert_Y_or_YUV</text>
<text text-anchor="middle" x="285.62" y="-285.5" font-family="Helvetica,sans-Serif" font-size="10.00" fill="grey">_fp16_ps</text>
<text text-anchor="middle" x="285.62" y="-273.5" font-family="Helvetica,sans-Serif" font-size="10.00" fill="grey">convert_Y_or_YUV_ps</text>
</g>
<!-- Node9 -->
<g id="Node000009" class="node">
<title>Node9</title>
<g id="a_Node000009"><a xlink:href="classutil_1_1uniq__ptr.html" target="_top" xlink:title=" ">
<polygon fill="white" stroke="#bfbfbf" points="182.5,-204 35.25,-204 35.25,-148 182.5,-148 182.5,-204"/>
<text text-anchor="start" x="43.25" y="-190.5" font-family="Helvetica,sans-Serif" font-size="10.00">util::uniq_ptr&lt; T,</text>
<text text-anchor="start" x="43.25" y="-178.5" font-family="Helvetica,sans-Serif" font-size="10.00"> Destroy&lt; T *, void,</text>
<text text-anchor="start" x="43.25" y="-166.5" font-family="Helvetica,sans-Serif" font-size="10.00"> function &gt; &gt;&lt; ID3D11Device,</text>
<text text-anchor="middle" x="108.88" y="-154.5" font-family="Helvetica,sans-Serif" font-size="10.00"> Release&lt; ID3D11Device &gt; &gt;</text>
</a>
</g>
</g>
<!-- Node9&#45;&gt;Node1 -->
<g id="edge8_Node000001_Node000009" class="edge">
<title>Node9&#45;&gt;Node1</title>
<g id="a_edge8_Node000001_Node000009"><a xlink:title=" ">
<path fill="none" stroke="#9a32cd" stroke-dasharray="5,2" d="M194.2,-177.9C240.14,-182.87 295.59,-195.7 335.5,-227 376.62,-259.25 395.55,-321.86 402.52,-351.58"/>
<polygon fill="#9a32cd" stroke="#9a32cd" points="194.54,-174.42 184.25,-176.95 193.87,-181.39 194.54,-174.42"/>
</a>
</g>
<text text-anchor="middle" x="285.62" y="-229.5" font-family="Helvetica,sans-Serif" font-size="10.00" fill="grey"> device</text>
</g>
<!-- Node10 -->
<g id="Node000010" class="node">
<title>Node10</title>
<g id="a_Node000010"><a xlink:href="classutil_1_1uniq__ptr.html" target="_top" xlink:title=" ">
<polygon fill="white" stroke="#bfbfbf" points="217.75,-130 0,-130 0,-74 217.75,-74 217.75,-130"/>
<text text-anchor="start" x="8" y="-116.5" font-family="Helvetica,sans-Serif" font-size="10.00">util::uniq_ptr&lt; T,</text>
<text text-anchor="start" x="8" y="-104.5" font-family="Helvetica,sans-Serif" font-size="10.00"> Destroy&lt; T *, void,</text>
<text text-anchor="start" x="8" y="-92.5" font-family="Helvetica,sans-Serif" font-size="10.00"> function &gt; &gt;&lt; ID3D11Device</text>
<text text-anchor="middle" x="108.88" y="-80.5" font-family="Helvetica,sans-Serif" font-size="10.00">Context, Release&lt; ID3D11DeviceContext &gt; &gt;</text>
</a>
</g>
</g>
<!-- Node10&#45;&gt;Node1 -->
<g id="edge9_Node000001_Node000010" class="edge">
<title>Node10&#45;&gt;Node1</title>
<g id="a_edge9_Node000001_Node000010"><a xlink:title=" ">
<path fill="none" stroke="#9a32cd" stroke-dasharray="5,2" d="M229.16,-115.72C267.1,-125.34 306.65,-141.59 335.5,-169 389.03,-219.86 401.89,-313.94 404.94,-351.7"/>
<polygon fill="#9a32cd" stroke="#9a32cd" points="230,-112.33 219.46,-113.42 228.38,-119.14 230,-112.33"/>
</a>
</g>
<text text-anchor="middle" x="285.62" y="-171.5" font-family="Helvetica,sans-Serif" font-size="10.00" fill="grey"> device_ctx</text>
</g>
<!-- Node11 -->
<g id="Node000011" class="node">
<title>Node11</title>
<g id="a_Node000011"><a xlink:href="classutil_1_1uniq__ptr.html" target="_top" xlink:title=" ">
<polygon fill="white" stroke="#bfbfbf" points="194.12,-56 23.62,-56 23.62,0 194.12,0 194.12,-56"/>
<text text-anchor="start" x="31.62" y="-42.5" font-family="Helvetica,sans-Serif" font-size="10.00">util::uniq_ptr&lt; T,</text>
<text text-anchor="start" x="31.62" y="-30.5" font-family="Helvetica,sans-Serif" font-size="10.00"> Destroy&lt; T *, void,</text>
<text text-anchor="start" x="31.62" y="-18.5" font-family="Helvetica,sans-Serif" font-size="10.00"> function &gt; &gt;&lt; ID3D11Texture2</text>
<text text-anchor="middle" x="108.88" y="-6.5" font-family="Helvetica,sans-Serif" font-size="10.00">D, Release&lt; ID3D11Texture2D &gt; &gt;</text>
</a>
</g>
</g>
<!-- Node11&#45;&gt;Node1 -->
<g id="edge10_Node000001_Node000011" class="edge">
<title>Node11&#45;&gt;Node1</title>
<g id="a_edge10_Node000001_Node000011"><a xlink:title=" ">
<path fill="none" stroke="#9a32cd" stroke-dasharray="5,2" d="M205.46,-38.66C250.58,-48.44 301.8,-67.16 335.5,-103 403.66,-175.47 407.43,-306.24 406.52,-351.81"/>
<polygon fill="#9a32cd" stroke="#9a32cd" points="206.41,-35.28 195.91,-36.72 205.02,-42.14 206.41,-35.28"/>
</a>
</g>
<text text-anchor="middle" x="285.62" y="-105.5" font-family="Helvetica,sans-Serif" font-size="10.00" fill="grey"> output_texture</text>
</g>
</g>
</svg>
