<?xml version="1.0" encoding="UTF-8" standalone="no"?>
<!DOCTYPE svg PUBLIC "-//W3C//DTD SVG 1.1//EN"
 "http://www.w3.org/Graphics/SVG/1.1/DTD/svg11.dtd">
<!-- Generated by graphviz version 12.2.1 (0)
 -->
<!-- Title: stream::control_server_t Pages: 1 -->
<svg width="378pt" height="188pt"
 viewBox="0.00 0.00 378.25 188.00" xmlns="http://www.w3.org/2000/svg" xmlns:xlink="http://www.w3.org/1999/xlink">
<g id="graph0" class="graph" transform="scale(1 1) rotate(0) translate(4 184)">
<title>stream::control_server_t</title>
<!-- Node1 -->
<g id="Node000001" class="node">
<title>Node1</title>
<g id="a_Node000001"><a xlink:title=" ">
<polygon fill="#999999" stroke="#666666" points="370.25,-106 248.5,-106 248.5,-86 370.25,-86 370.25,-106"/>
<text text-anchor="middle" x="309.38" y="-92.5" font-family="Helvetica,sans-Serif" font-size="10.00">stream::control_server_t</text>
</a>
</g>
</g>
<!-- Node2 -->
<g id="Node000002" class="node">
<title>Node2</title>
<g id="a_Node000002"><a xlink:href="classsync__util_1_1sync__t.html" target="_top" xlink:title=" ">
<polygon fill="white" stroke="#bfbfbf" points="118.75,-180 14.25,-180 14.25,-136 118.75,-136 118.75,-180"/>
<text text-anchor="start" x="22.25" y="-166.5" font-family="Helvetica,sans-Serif" font-size="10.00">sync_util::sync_t&lt;</text>
<text text-anchor="start" x="22.25" y="-154.5" font-family="Helvetica,sans-Serif" font-size="10.00"> std::vector&lt; stream</text>
<text text-anchor="middle" x="66.5" y="-142.5" font-family="Helvetica,sans-Serif" font-size="10.00">::session_t * &gt; &gt;</text>
</a>
</g>
</g>
<!-- Node2&#45;&gt;Node1 -->
<g id="edge1_Node000001_Node000002" class="edge">
<title>Node2&#45;&gt;Node1</title>
<g id="a_edge1_Node000001_Node000002"><a xlink:title=" ">
<path fill="none" stroke="#9a32cd" stroke-dasharray="5,2" d="M130.21,-141.86C173.69,-130.67 230.32,-116.09 267.94,-106.41"/>
<polygon fill="#9a32cd" stroke="#9a32cd" points="129.45,-138.44 120.64,-144.32 131.2,-145.22 129.45,-138.44"/>
</a>
</g>
<text text-anchor="middle" x="190.75" y="-138.68" font-family="Helvetica,sans-Serif" font-size="10.00" fill="grey"> _sessions</text>
</g>
<!-- Node3 -->
<g id="Node000003" class="node">
<title>Node3</title>
<g id="a_Node000003"><a xlink:href="classsync__util_1_1sync__t.html" target="_top" xlink:title=" ">
<polygon fill="white" stroke="#bfbfbf" points="133,-118 0,-118 0,-74 133,-74 133,-118"/>
<text text-anchor="start" x="8" y="-104.5" font-family="Helvetica,sans-Serif" font-size="10.00">sync_util::sync_t&lt;</text>
<text text-anchor="start" x="8" y="-92.5" font-family="Helvetica,sans-Serif" font-size="10.00"> std::map&lt; net::peer</text>
<text text-anchor="middle" x="66.5" y="-80.5" font-family="Helvetica,sans-Serif" font-size="10.00">_t, stream::session_t * &gt; &gt;</text>
</a>
</g>
</g>
<!-- Node3&#45;&gt;Node1 -->
<g id="edge2_Node000001_Node000003" class="edge">
<title>Node3&#45;&gt;Node1</title>
<g id="a_edge2_Node000001_Node000003"><a xlink:title=" ">
<path fill="none" stroke="#9a32cd" stroke-dasharray="5,2" d="M144.46,-96C177.96,-96 216.63,-96 248,-96"/>
<polygon fill="#9a32cd" stroke="#9a32cd" points="144.83,-92.5 134.83,-96 144.83,-99.5 144.83,-92.5"/>
</a>
</g>
<text text-anchor="middle" x="190.75" y="-98.5" font-family="Helvetica,sans-Serif" font-size="10.00" fill="grey"> _peer_to_session</text>
</g>
<!-- Node4 -->
<g id="Node000004" class="node">
<title>Node4</title>
<g id="a_Node000004"><a xlink:href="classutil_1_1uniq__ptr.html" target="_top" xlink:title=" ">
<polygon fill="white" stroke="#bfbfbf" points="130,-56 3,-56 3,0 130,0 130,-56"/>
<text text-anchor="start" x="11" y="-42.5" font-family="Helvetica,sans-Serif" font-size="10.00">util::uniq_ptr&lt; T,</text>
<text text-anchor="start" x="11" y="-30.5" font-family="Helvetica,sans-Serif" font-size="10.00"> Destroy&lt; T *, void,</text>
<text text-anchor="start" x="11" y="-18.5" font-family="Helvetica,sans-Serif" font-size="10.00"> function &gt; &gt;&lt; ENetHost,</text>
<text text-anchor="middle" x="66.5" y="-6.5" font-family="Helvetica,sans-Serif" font-size="10.00"> free_host &gt;</text>
</a>
</g>
</g>
<!-- Node4&#45;&gt;Node1 -->
<g id="edge3_Node000001_Node000004" class="edge">
<title>Node4&#45;&gt;Node1</title>
<g id="a_edge3_Node000001_Node000004"><a xlink:title=" ">
<path fill="none" stroke="#9a32cd" stroke-dasharray="5,2" d="M141.47,-48.88C184.46,-61.02 236.79,-75.79 271.25,-85.52"/>
<polygon fill="#9a32cd" stroke="#9a32cd" points="142.5,-45.54 131.93,-46.19 140.6,-52.27 142.5,-45.54"/>
</a>
</g>
<text text-anchor="middle" x="190.75" y="-76.5" font-family="Helvetica,sans-Serif" font-size="10.00" fill="grey"> _host</text>
</g>
</g>
</svg>
