<?xml version="1.0" encoding="UTF-8" standalone="no"?>
<!DOCTYPE svg PUBLIC "-//W3C//DTD SVG 1.1//EN"
 "http://www.w3.org/Graphics/SVG/1.1/DTD/svg11.dtd">
<!-- Generated by graphviz version 12.2.1 (0)
 -->
<!-- Title: platf::publish::deinit_t Pages: 1 -->
<svg width="261pt" height="96pt"
 viewBox="0.00 0.00 260.62 96.00" xmlns="http://www.w3.org/2000/svg" xmlns:xlink="http://www.w3.org/1999/xlink">
<g id="graph0" class="graph" transform="scale(1 1) rotate(0) translate(4 92)">
<title>platf::publish::deinit_t</title>
<!-- Node1 -->
<g id="Node000001" class="node">
<title>Node1</title>
<g id="a_Node000001"><a xlink:title=" ">
<polygon fill="#999999" stroke="#666666" points="109,-20 0,-20 0,0 109,0 109,-20"/>
<text text-anchor="middle" x="54.5" y="-6.5" font-family="Helvetica,sans-Serif" font-size="10.00">platf::publish::deinit_t</text>
</a>
</g>
</g>
<!-- Node2 -->
<g id="Node000002" class="node">
<title>Node2</title>
<g id="a_Node000002"><a xlink:href="classplatf_1_1deinit__t.html" target="_top" xlink:title=" ">
<polygon fill="white" stroke="#bfbfbf" points="90.62,-82 18.38,-82 18.38,-62 90.62,-62 90.62,-82"/>
<text text-anchor="middle" x="54.5" y="-68.5" font-family="Helvetica,sans-Serif" font-size="10.00">platf::deinit_t</text>
</a>
</g>
</g>
<!-- Node2&#45;&gt;Node1 -->
<g id="edge1_Node000001_Node000002" class="edge">
<title>Node2&#45;&gt;Node1</title>
<g id="a_edge1_Node000001_Node000002"><a xlink:title=" ">
<path fill="none" stroke="#63b8ff" d="M48.04,-50.25C47.37,-39.97 47.85,-28.09 49.49,-20.11"/>
<polygon fill="#63b8ff" stroke="#63b8ff" points="44.56,-50.62 49.25,-60.12 51.51,-49.77 44.56,-50.62"/>
</a>
</g>
</g>
<!-- Node2&#45;&gt;Node1 -->
<g id="edge3_Node000001_Node000002" class="edge">
<title>Node2&#45;&gt;Node1</title>
<g id="a_edge3_Node000001_Node000002"><a xlink:title=" ">
<path fill="none" stroke="#63b8ff" d="M60.96,-50.25C61.63,-39.97 61.15,-28.09 59.51,-20.11"/>
<polygon fill="#63b8ff" stroke="#63b8ff" points="57.49,-49.77 59.75,-60.12 64.44,-50.62 57.49,-49.77"/>
</a>
</g>
</g>
<!-- Node3 -->
<g id="Node000003" class="node">
<title>Node3</title>
<g id="a_Node000003"><a xlink:title=" ">
<polygon fill="white" stroke="#bfbfbf" points="252.62,-88 108.38,-88 108.38,-56 252.62,-56 252.62,-88"/>
<text text-anchor="start" x="116.38" y="-74.5" font-family="Helvetica,sans-Serif" font-size="10.00">std::unique_ptr&lt; DNSService</text>
<text text-anchor="middle" x="180.5" y="-62.5" font-family="Helvetica,sans-Serif" font-size="10.00">Ref, ServiceRefDeleter &gt;</text>
</a>
</g>
</g>
<!-- Node3&#45;&gt;Node1 -->
<g id="edge2_Node000001_Node000003" class="edge">
<title>Node3&#45;&gt;Node1</title>
<g id="a_edge2_Node000001_Node000003"><a xlink:title=" ">
<path fill="none" stroke="#8b1a1a" d="M137.82,-50.68C116.3,-40.43 91.23,-28.49 74.26,-20.41"/>
<polygon fill="#8b1a1a" stroke="#8b1a1a" points="136.15,-53.76 146.69,-54.9 139.16,-47.44 136.15,-53.76"/>
</a>
</g>
</g>
</g>
</svg>
