<?xml version="1.0" encoding="UTF-8" standalone="no"?>
<!DOCTYPE svg PUBLIC "-//W3C//DTD SVG 1.1//EN"
 "http://www.w3.org/Graphics/SVG/1.1/DTD/svg11.dtd">
<!-- Generated by graphviz version 12.2.1 (0)
 -->
<!-- Title: va::va_vram_t Pages: 1 -->
<svg width="865pt" height="355pt"
 viewBox="0.00 0.00 864.50 355.00" xmlns="http://www.w3.org/2000/svg" xmlns:xlink="http://www.w3.org/1999/xlink">
<g id="graph0" class="graph" transform="scale(1 1) rotate(0) translate(4 351)">
<title>va::va_vram_t</title>
<!-- Node1 -->
<g id="Node000001" class="node">
<title>Node1</title>
<g id="a_Node000001"><a xlink:title=" ">
<polygon fill="#999999" stroke="#666666" points="856.5,-205 778.25,-205 778.25,-185 856.5,-185 856.5,-205"/>
<text text-anchor="middle" x="817.38" y="-191.5" font-family="Helvetica,sans-Serif" font-size="10.00">va::va_vram_t</text>
</a>
</g>
</g>
<!-- Node2 -->
<g id="Node000002" class="node">
<title>Node2</title>
<g id="a_Node000002"><a xlink:href="classva_1_1va__t.html" target="_top" xlink:title=" ">
<polygon fill="white" stroke="#bfbfbf" points="741.25,-205 690,-205 690,-185 741.25,-185 741.25,-205"/>
<text text-anchor="middle" x="715.62" y="-191.5" font-family="Helvetica,sans-Serif" font-size="10.00">va::va_t</text>
</a>
</g>
</g>
<!-- Node2&#45;&gt;Node1 -->
<g id="edge1_Node000001_Node000002" class="edge">
<title>Node2&#45;&gt;Node1</title>
<g id="a_edge1_Node000001_Node000002"><a xlink:title=" ">
<path fill="none" stroke="#63b8ff" d="M752.92,-195C761.02,-195 769.63,-195 777.82,-195"/>
<polygon fill="#63b8ff" stroke="#63b8ff" points="753.05,-191.5 743.05,-195 753.05,-198.5 753.05,-191.5"/>
</a>
</g>
</g>
<!-- Node3 -->
<g id="Node000003" class="node">
<title>Node3</title>
<g id="a_Node000003"><a xlink:href="structplatf_1_1avcodec__encode__device__t.html" target="_top" xlink:title=" ">
<polygon fill="white" stroke="#bfbfbf" points="595.12,-347 480.88,-347 480.88,-315 595.12,-315 595.12,-347"/>
<text text-anchor="start" x="488.88" y="-333.5" font-family="Helvetica,sans-Serif" font-size="10.00">platf::avcodec_encode</text>
<text text-anchor="middle" x="538" y="-321.5" font-family="Helvetica,sans-Serif" font-size="10.00">_device_t</text>
</a>
</g>
</g>
<!-- Node3&#45;&gt;Node2 -->
<g id="edge2_Node000002_Node000003" class="edge">
<title>Node3&#45;&gt;Node2</title>
<g id="a_edge2_Node000002_Node000003"><a xlink:title=" ">
<path fill="none" stroke="#63b8ff" d="M605.5,-310.56C608.25,-309.13 610.94,-307.61 613.5,-306 657.21,-278.54 693.8,-227.16 708.14,-205.28"/>
<polygon fill="#63b8ff" stroke="#63b8ff" points="604.19,-307.31 596.62,-314.73 607.16,-313.65 604.19,-307.31"/>
</a>
</g>
</g>
<!-- Node4 -->
<g id="Node000004" class="node">
<title>Node4</title>
<g id="a_Node000004"><a xlink:href="structplatf_1_1encode__device__t.html" target="_top" xlink:title=" ">
<polygon fill="white" stroke="#bfbfbf" points="345.5,-341 231.25,-341 231.25,-321 345.5,-321 345.5,-341"/>
<text text-anchor="middle" x="288.38" y="-327.5" font-family="Helvetica,sans-Serif" font-size="10.00">platf::encode_device_t</text>
</a>
</g>
</g>
<!-- Node4&#45;&gt;Node3 -->
<g id="edge3_Node000003_Node000004" class="edge">
<title>Node4&#45;&gt;Node3</title>
<g id="a_edge3_Node000003_Node000004"><a xlink:title=" ">
<path fill="none" stroke="#63b8ff" d="M357.08,-331C395.89,-331 444.03,-331 480.74,-331"/>
<polygon fill="#63b8ff" stroke="#63b8ff" points="357.39,-327.5 347.39,-331 357.39,-334.5 357.39,-327.5"/>
</a>
</g>
</g>
<!-- Node5 -->
<g id="Node000005" class="node">
<title>Node5</title>
<g id="a_Node000005"><a xlink:href="structvideo_1_1sunshine__colorspace__t.html" target="_top" xlink:title=" ">
<polygon fill="white" stroke="#bfbfbf" points="145,-341 0,-341 0,-321 145,-321 145,-341"/>
<text text-anchor="middle" x="72.5" y="-327.5" font-family="Helvetica,sans-Serif" font-size="10.00">video::sunshine_colorspace_t</text>
</a>
</g>
</g>
<!-- Node5&#45;&gt;Node4 -->
<g id="edge4_Node000004_Node000005" class="edge">
<title>Node5&#45;&gt;Node4</title>
<g id="a_edge4_Node000004_Node000005"><a xlink:title=" ">
<path fill="none" stroke="#9a32cd" stroke-dasharray="5,2" d="M156.6,-331C181.5,-331 208.21,-331 230.96,-331"/>
<polygon fill="#9a32cd" stroke="#9a32cd" points="156.83,-327.5 146.83,-331 156.83,-334.5 156.83,-327.5"/>
</a>
</g>
<text text-anchor="middle" x="188.12" y="-333.5" font-family="Helvetica,sans-Serif" font-size="10.00" fill="grey"> colorspace</text>
</g>
<!-- Node6 -->
<g id="Node000006" class="node">
<title>Node6</title>
<g id="a_Node000006"><a xlink:href="classutil_1_1uniq__ptr.html" target="_top" xlink:title=" ">
<polygon fill="white" stroke="#bfbfbf" points="594,-297 482,-297 482,-241 594,-241 594,-297"/>
<text text-anchor="start" x="490" y="-283.5" font-family="Helvetica,sans-Serif" font-size="10.00">util::uniq_ptr&lt; T,</text>
<text text-anchor="start" x="490" y="-271.5" font-family="Helvetica,sans-Serif" font-size="10.00"> Destroy&lt; T *, void,</text>
<text text-anchor="start" x="490" y="-259.5" font-family="Helvetica,sans-Serif" font-size="10.00"> function &gt; &gt;&lt; device,</text>
<text text-anchor="middle" x="538" y="-247.5" font-family="Helvetica,sans-Serif" font-size="10.00"> &amp;device_destroy &gt;</text>
</a>
</g>
</g>
<!-- Node6&#45;&gt;Node2 -->
<g id="edge5_Node000002_Node000006" class="edge">
<title>Node6&#45;&gt;Node2</title>
<g id="a_edge5_Node000002_Node000006"><a xlink:title=" ">
<path fill="none" stroke="#9a32cd" stroke-dasharray="5,2" d="M604.48,-241.41C634.35,-228.82 667.93,-214.68 690.07,-205.35"/>
<polygon fill="#9a32cd" stroke="#9a32cd" points="603.34,-238.09 595.48,-245.2 606.06,-244.54 603.34,-238.09"/>
</a>
</g>
<text text-anchor="middle" x="651.75" y="-232.28" font-family="Helvetica,sans-Serif" font-size="10.00" fill="grey"> gbm</text>
</g>
<!-- Node7 -->
<g id="Node000007" class="node">
<title>Node7</title>
<g id="a_Node000007"><a xlink:href="classutil_1_1uniq__ptr.html" target="_top" xlink:title=" ">
<polygon fill="white" stroke="#bfbfbf" points="613.5,-223 462.5,-223 462.5,-167 613.5,-167 613.5,-223"/>
<text text-anchor="start" x="470.5" y="-209.5" font-family="Helvetica,sans-Serif" font-size="10.00">util::uniq_ptr&lt; T,</text>
<text text-anchor="start" x="470.5" y="-197.5" font-family="Helvetica,sans-Serif" font-size="10.00"> Destroy&lt; T *, void,</text>
<text text-anchor="start" x="470.5" y="-185.5" font-family="Helvetica,sans-Serif" font-size="10.00"> function &gt; &gt;&lt; void,</text>
<text text-anchor="middle" x="538" y="-173.5" font-family="Helvetica,sans-Serif" font-size="10.00"> EGLBoolean, &amp;eglTerminate &gt;</text>
</a>
</g>
</g>
<!-- Node7&#45;&gt;Node2 -->
<g id="edge6_Node000002_Node000007" class="edge">
<title>Node7&#45;&gt;Node2</title>
<g id="a_edge6_Node000002_Node000007"><a xlink:title=" ">
<path fill="none" stroke="#9a32cd" stroke-dasharray="5,2" d="M625.47,-195C648.92,-195 672.51,-195 689.52,-195"/>
<polygon fill="#9a32cd" stroke="#9a32cd" points="625.5,-191.5 615.5,-195 625.5,-198.5 625.5,-191.5"/>
</a>
</g>
<text text-anchor="middle" x="651.75" y="-197.5" font-family="Helvetica,sans-Serif" font-size="10.00" fill="grey"> display</text>
</g>
<!-- Node8 -->
<g id="Node000008" class="node">
<title>Node8</title>
<g id="a_Node000008"><a xlink:href="classutil_1_1uniq__ptr.html" target="_top" xlink:title=" ">
<polygon fill="white" stroke="#bfbfbf" points="599.62,-149 476.38,-149 476.38,-93 599.62,-93 599.62,-149"/>
<text text-anchor="start" x="484.38" y="-135.5" font-family="Helvetica,sans-Serif" font-size="10.00">util::uniq_ptr&lt; T,</text>
<text text-anchor="start" x="484.38" y="-123.5" font-family="Helvetica,sans-Serif" font-size="10.00"> Destroy&lt; T *, void,</text>
<text text-anchor="start" x="484.38" y="-111.5" font-family="Helvetica,sans-Serif" font-size="10.00"> function &gt; &gt;&lt; AVFrame,</text>
<text text-anchor="middle" x="538" y="-99.5" font-family="Helvetica,sans-Serif" font-size="10.00"> free_frame &gt;</text>
</a>
</g>
</g>
<!-- Node8&#45;&gt;Node2 -->
<g id="edge7_Node000002_Node000008" class="edge">
<title>Node8&#45;&gt;Node2</title>
<g id="a_edge7_Node000002_Node000008"><a xlink:title=" ">
<path fill="none" stroke="#9a32cd" stroke-dasharray="5,2" d="M610.23,-151.01C638.53,-162.94 669.22,-175.87 689.94,-184.6"/>
<polygon fill="#9a32cd" stroke="#9a32cd" points="611.9,-147.92 601.33,-147.26 609.18,-154.37 611.9,-147.92"/>
</a>
</g>
<text text-anchor="middle" x="651.75" y="-177.65" font-family="Helvetica,sans-Serif" font-size="10.00" fill="grey"> hwframe</text>
</g>
<!-- Node9 -->
<g id="Node000009" class="node">
<title>Node9</title>
<g id="a_Node000009"><a xlink:href="classegl_1_1sws__t.html" target="_top" xlink:title=" ">
<polygon fill="white" stroke="#bfbfbf" points="568.5,-75 507.5,-75 507.5,-55 568.5,-55 568.5,-75"/>
<text text-anchor="middle" x="538" y="-61.5" font-family="Helvetica,sans-Serif" font-size="10.00">egl::sws_t</text>
</a>
</g>
</g>
<!-- Node9&#45;&gt;Node2 -->
<g id="edge8_Node000002_Node000009" class="edge">
<title>Node9&#45;&gt;Node2</title>
<g id="a_edge8_Node000002_Node000009"><a xlink:title=" ">
<path fill="none" stroke="#9a32cd" stroke-dasharray="5,2" d="M579.81,-71.17C591.21,-74 603.27,-78.09 613.5,-84 658.42,-109.95 694.61,-162.63 708.5,-184.8"/>
<polygon fill="#9a32cd" stroke="#9a32cd" points="580.71,-67.78 570.2,-69.07 579.22,-74.62 580.71,-67.78"/>
</a>
</g>
<text text-anchor="middle" x="651.75" y="-137.03" font-family="Helvetica,sans-Serif" font-size="10.00" fill="grey"> sws</text>
</g>
<!-- Node10 -->
<g id="Node000010" class="node">
<title>Node10</title>
<g id="a_Node000010"><a xlink:href="classgl_1_1tex__t.html" target="_top" xlink:title=" ">
<polygon fill="white" stroke="#bfbfbf" points="314,-137 262.75,-137 262.75,-117 314,-117 314,-137"/>
<text text-anchor="middle" x="288.38" y="-123.5" font-family="Helvetica,sans-Serif" font-size="10.00">gl::tex_t</text>
</a>
</g>
</g>
<!-- Node10&#45;&gt;Node9 -->
<g id="edge9_Node000009_Node000010" class="edge">
<title>Node10&#45;&gt;Node9</title>
<g id="a_edge9_Node000009_Node000010"><a xlink:title=" ">
<path fill="none" stroke="#9a32cd" stroke-dasharray="5,2" d="M325.78,-130.3C358.93,-131.58 408.11,-129.06 444.5,-108 456.04,-101.32 451.41,-91.4 462.5,-84 475.71,-75.18 492.74,-70.46 507.18,-67.92"/>
<polygon fill="#9a32cd" stroke="#9a32cd" points="326.03,-126.81 315.86,-129.76 325.66,-133.8 326.03,-126.81"/>
</a>
</g>
<text text-anchor="middle" x="404" y="-132.22" font-family="Helvetica,sans-Serif" font-size="10.00" fill="grey"> tex</text>
</g>
<!-- Node11 -->
<g id="Node000011" class="node">
<title>Node11</title>
<g id="a_Node000011"><a xlink:href="classutil_1_1buffer__t.html" target="_top" xlink:title=" ">
<polygon fill="white" stroke="#bfbfbf" points="129.25,-118 15.75,-118 15.75,-98 129.25,-98 129.25,-118"/>
<text text-anchor="middle" x="72.5" y="-104.5" font-family="Helvetica,sans-Serif" font-size="10.00">util::buffer_t&lt; GLuint &gt;</text>
</a>
</g>
</g>
<!-- Node11&#45;&gt;Node10 -->
<g id="edge10_Node000010_Node000011" class="edge">
<title>Node11&#45;&gt;Node10</title>
<g id="a_edge10_Node000010_Node000011"><a xlink:title=" ">
<path fill="none" stroke="#63b8ff" d="M141.09,-114C182.44,-117.68 232.91,-122.16 262.46,-124.79"/>
<polygon fill="#63b8ff" stroke="#63b8ff" points="141.47,-110.52 131.2,-113.13 140.85,-117.5 141.47,-110.52"/>
</a>
</g>
</g>
<!-- Node12 -->
<g id="Node000012" class="node">
<title>Node12</title>
<g id="a_Node000012"><a xlink:href="classgl_1_1frame__buf__t.html" target="_top" xlink:title=" ">
<polygon fill="white" stroke="#bfbfbf" points="329,-98 247.75,-98 247.75,-78 329,-78 329,-98"/>
<text text-anchor="middle" x="288.38" y="-84.5" font-family="Helvetica,sans-Serif" font-size="10.00">gl::frame_buf_t</text>
</a>
</g>
</g>
<!-- Node11&#45;&gt;Node12 -->
<g id="edge12_Node000012_Node000011" class="edge">
<title>Node11&#45;&gt;Node12</title>
<g id="a_edge12_Node000012_Node000011"><a xlink:title=" ">
<path fill="none" stroke="#63b8ff" d="M140.81,-101.71C175.85,-98.43 217.5,-94.53 247.43,-91.74"/>
<polygon fill="#63b8ff" stroke="#63b8ff" points="140.83,-98.19 131.2,-102.6 141.48,-105.16 140.83,-98.19"/>
</a>
</g>
</g>
<!-- Node12&#45;&gt;Node9 -->
<g id="edge11_Node000009_Node000012" class="edge">
<title>Node12&#45;&gt;Node9</title>
<g id="a_edge11_Node000009_Node000012"><a xlink:title=" ">
<path fill="none" stroke="#9a32cd" stroke-dasharray="5,2" d="M340.71,-83.23C391,-78.56 465.9,-71.6 507.12,-67.78"/>
<polygon fill="#9a32cd" stroke="#9a32cd" points="340.58,-79.73 330.94,-84.14 341.22,-86.7 340.58,-79.73"/>
</a>
</g>
<text text-anchor="middle" x="404" y="-95.06" font-family="Helvetica,sans-Serif" font-size="10.00" fill="grey"> copy_framebuffer</text>
<text text-anchor="middle" x="404" y="-83.06" font-family="Helvetica,sans-Serif" font-size="10.00" fill="grey">cursor_framebuffer</text>
</g>
<!-- Node13 -->
<g id="Node000013" class="node">
<title>Node13</title>
<g id="a_Node000013"><a xlink:href="classgl_1_1program__t.html" target="_top" xlink:title=" ">
<polygon fill="white" stroke="#bfbfbf" points="324.88,-58 251.88,-58 251.88,-38 324.88,-38 324.88,-58"/>
<text text-anchor="middle" x="288.38" y="-44.5" font-family="Helvetica,sans-Serif" font-size="10.00">gl::program_t</text>
</a>
</g>
</g>
<!-- Node13&#45;&gt;Node9 -->
<g id="edge13_Node000009_Node000013" class="edge">
<title>Node13&#45;&gt;Node9</title>
<g id="a_edge13_Node000009_Node000013"><a xlink:title=" ">
<path fill="none" stroke="#9a32cd" stroke-dasharray="5,2" d="M336.46,-46.29C367.26,-45.67 408.34,-45.78 444.5,-49 465.6,-50.88 489.13,-54.98 507.17,-58.55"/>
<polygon fill="#9a32cd" stroke="#9a32cd" points="336.62,-42.79 326.7,-46.53 336.78,-49.79 336.62,-42.79"/>
</a>
</g>
<text text-anchor="middle" x="404" y="-51.5" font-family="Helvetica,sans-Serif" font-size="10.00" fill="grey"> program</text>
</g>
<!-- Node14 -->
<g id="Node000014" class="node">
<title>Node14</title>
<g id="a_Node000014"><a xlink:href="classgl_1_1buffer__t.html" target="_top" xlink:title=" ">
<polygon fill="white" stroke="#bfbfbf" points="319.25,-20 257.5,-20 257.5,0 319.25,0 319.25,-20"/>
<text text-anchor="middle" x="288.38" y="-6.5" font-family="Helvetica,sans-Serif" font-size="10.00">gl::buffer_t</text>
</a>
</g>
</g>
<!-- Node14&#45;&gt;Node9 -->
<g id="edge14_Node000009_Node000014" class="edge">
<title>Node14&#45;&gt;Node9</title>
<g id="a_edge14_Node000009_Node000014"><a xlink:title=" ">
<path fill="none" stroke="#9a32cd" stroke-dasharray="5,2" d="M330.92,-12.71C362.44,-15.4 406.66,-20.54 444.5,-30 468.82,-36.08 495.49,-46.61 513.91,-54.53"/>
<polygon fill="#9a32cd" stroke="#9a32cd" points="331.25,-9.22 321.01,-11.91 330.7,-16.2 331.25,-9.22"/>
</a>
</g>
<text text-anchor="middle" x="404" y="-32.5" font-family="Helvetica,sans-Serif" font-size="10.00" fill="grey"> color_matrix</text>
</g>
</g>
</svg>
