<?xml version="1.0" encoding="UTF-8" standalone="no"?>
<!DOCTYPE svg PUBLIC "-//W3C//DTD SVG 1.1//EN"
 "http://www.w3.org/Graphics/SVG/1.1/DTD/svg11.dtd">
<!-- Generated by graphviz version 12.2.1 (0)
 -->
<!-- Title: cuda::cuda_vram_t Pages: 1 -->
<svg width="799pt" height="114pt"
 viewBox="0.00 0.00 798.75 114.00" xmlns="http://www.w3.org/2000/svg" xmlns:xlink="http://www.w3.org/1999/xlink">
<g id="graph0" class="graph" transform="scale(1 1) rotate(0) translate(4 110)">
<title>cuda::cuda_vram_t</title>
<!-- Node1 -->
<g id="Node000001" class="node">
<title>Node1</title>
<g id="a_Node000001"><a xlink:title=" ">
<polygon fill="#999999" stroke="#666666" points="790.75,-51 691.5,-51 691.5,-31 790.75,-31 790.75,-51"/>
<text text-anchor="middle" x="741.12" y="-37.5" font-family="Helvetica,sans-Serif" font-size="10.00">cuda::cuda_vram_t</text>
</a>
</g>
</g>
<!-- Node2 -->
<g id="Node000002" class="node">
<title>Node2</title>
<g id="a_Node000002"><a xlink:href="classcuda_1_1cuda__t.html" target="_top" xlink:title=" ">
<polygon fill="white" stroke="#bfbfbf" points="654.5,-51 582.25,-51 582.25,-31 654.5,-31 654.5,-51"/>
<text text-anchor="middle" x="618.38" y="-37.5" font-family="Helvetica,sans-Serif" font-size="10.00">cuda::cuda_t</text>
</a>
</g>
</g>
<!-- Node2&#45;&gt;Node1 -->
<g id="edge1_Node000001_Node000002" class="edge">
<title>Node2&#45;&gt;Node1</title>
<g id="a_edge1_Node000001_Node000002"><a xlink:title=" ">
<path fill="none" stroke="#63b8ff" d="M666.29,-41C674.52,-41 683.1,-41 691.38,-41"/>
<polygon fill="#63b8ff" stroke="#63b8ff" points="666.46,-37.5 656.46,-41 666.46,-44.5 666.46,-37.5"/>
</a>
</g>
</g>
<!-- Node3 -->
<g id="Node000003" class="node">
<title>Node3</title>
<g id="a_Node000003"><a xlink:href="structplatf_1_1avcodec__encode__device__t.html" target="_top" xlink:title=" ">
<polygon fill="white" stroke="#bfbfbf" points="501.25,-106 387,-106 387,-74 501.25,-74 501.25,-106"/>
<text text-anchor="start" x="395" y="-92.5" font-family="Helvetica,sans-Serif" font-size="10.00">platf::avcodec_encode</text>
<text text-anchor="middle" x="444.12" y="-80.5" font-family="Helvetica,sans-Serif" font-size="10.00">_device_t</text>
</a>
</g>
</g>
<!-- Node3&#45;&gt;Node2 -->
<g id="edge2_Node000002_Node000003" class="edge">
<title>Node3&#45;&gt;Node2</title>
<g id="a_edge2_Node000002_Node000003"><a xlink:title=" ">
<path fill="none" stroke="#63b8ff" d="M512.28,-70.9C536.06,-64.13 561.86,-56.79 581.95,-51.08"/>
<polygon fill="#63b8ff" stroke="#63b8ff" points="511.64,-67.44 502.98,-73.54 513.56,-74.17 511.64,-67.44"/>
</a>
</g>
</g>
<!-- Node4 -->
<g id="Node000004" class="node">
<title>Node4</title>
<g id="a_Node000004"><a xlink:href="structplatf_1_1encode__device__t.html" target="_top" xlink:title=" ">
<polygon fill="white" stroke="#bfbfbf" points="345.5,-100 231.25,-100 231.25,-80 345.5,-80 345.5,-100"/>
<text text-anchor="middle" x="288.38" y="-86.5" font-family="Helvetica,sans-Serif" font-size="10.00">platf::encode_device_t</text>
</a>
</g>
</g>
<!-- Node4&#45;&gt;Node3 -->
<g id="edge3_Node000003_Node000004" class="edge">
<title>Node4&#45;&gt;Node3</title>
<g id="a_edge3_Node000003_Node000004"><a xlink:title=" ">
<path fill="none" stroke="#63b8ff" d="M357.21,-90C367.07,-90 377.14,-90 386.75,-90"/>
<polygon fill="#63b8ff" stroke="#63b8ff" points="357.27,-86.5 347.27,-90 357.27,-93.5 357.27,-86.5"/>
</a>
</g>
</g>
<!-- Node5 -->
<g id="Node000005" class="node">
<title>Node5</title>
<g id="a_Node000005"><a xlink:href="structvideo_1_1sunshine__colorspace__t.html" target="_top" xlink:title=" ">
<polygon fill="white" stroke="#bfbfbf" points="145,-100 0,-100 0,-80 145,-80 145,-100"/>
<text text-anchor="middle" x="72.5" y="-86.5" font-family="Helvetica,sans-Serif" font-size="10.00">video::sunshine_colorspace_t</text>
</a>
</g>
</g>
<!-- Node5&#45;&gt;Node4 -->
<g id="edge4_Node000004_Node000005" class="edge">
<title>Node5&#45;&gt;Node4</title>
<g id="a_edge4_Node000004_Node000005"><a xlink:title=" ">
<path fill="none" stroke="#9a32cd" stroke-dasharray="5,2" d="M156.6,-90C181.5,-90 208.21,-90 230.96,-90"/>
<polygon fill="#9a32cd" stroke="#9a32cd" points="156.83,-86.5 146.83,-90 156.83,-93.5 156.83,-86.5"/>
</a>
</g>
<text text-anchor="middle" x="188.12" y="-92.5" font-family="Helvetica,sans-Serif" font-size="10.00" fill="grey"> colorspace</text>
</g>
<!-- Node6 -->
<g id="Node000006" class="node">
<title>Node6</title>
<g id="a_Node000006"><a xlink:href="classutil_1_1uniq__ptr.html" target="_top" xlink:title=" ">
<polygon fill="white" stroke="#bfbfbf" points="505.75,-56 382.5,-56 382.5,0 505.75,0 505.75,-56"/>
<text text-anchor="start" x="390.5" y="-42.5" font-family="Helvetica,sans-Serif" font-size="10.00">util::uniq_ptr&lt; T,</text>
<text text-anchor="start" x="390.5" y="-30.5" font-family="Helvetica,sans-Serif" font-size="10.00"> Destroy&lt; T *, void,</text>
<text text-anchor="start" x="390.5" y="-18.5" font-family="Helvetica,sans-Serif" font-size="10.00"> function &gt; &gt;&lt; AVFrame,</text>
<text text-anchor="middle" x="444.12" y="-6.5" font-family="Helvetica,sans-Serif" font-size="10.00"> free_frame &gt;</text>
</a>
</g>
</g>
<!-- Node6&#45;&gt;Node2 -->
<g id="edge5_Node000002_Node000006" class="edge">
<title>Node6&#45;&gt;Node2</title>
<g id="a_edge5_Node000002_Node000006"><a xlink:title=" ">
<path fill="none" stroke="#9a32cd" stroke-dasharray="5,2" d="M517.07,-33.43C539.49,-35.12 563.23,-36.91 581.98,-38.33"/>
<polygon fill="#9a32cd" stroke="#9a32cd" points="517.6,-29.96 507.36,-32.7 517.07,-36.94 517.6,-29.96"/>
</a>
</g>
<text text-anchor="middle" x="544" y="-39.3" font-family="Helvetica,sans-Serif" font-size="10.00" fill="grey"> hwframe</text>
</g>
</g>
</svg>
