<?xml version="1.0" encoding="UTF-8" standalone="no"?>
<!DOCTYPE svg PUBLIC "-//W3C//DTD SVG 1.1//EN"
 "http://www.w3.org/Graphics/SVG/1.1/DTD/svg11.dtd">
<!-- Generated by graphviz version 12.2.1 (0)
 -->
<!-- Title: crypto::cipher::gcm_t Pages: 1 -->
<svg width="527pt" height="64pt"
 viewBox="0.00 0.00 527.25 64.00" xmlns="http://www.w3.org/2000/svg" xmlns:xlink="http://www.w3.org/1999/xlink">
<g id="graph0" class="graph" transform="scale(1 1) rotate(0) translate(4 60)">
<title>crypto::cipher::gcm_t</title>
<!-- Node1 -->
<g id="Node000001" class="node">
<title>Node1</title>
<g id="a_Node000001"><a xlink:title=" ">
<polygon fill="#999999" stroke="#666666" points="519.25,-38 411,-38 411,-18 519.25,-18 519.25,-38"/>
<text text-anchor="middle" x="465.12" y="-24.5" font-family="Helvetica,sans-Serif" font-size="10.00">crypto::cipher::gcm_t</text>
</a>
</g>
</g>
<!-- Node2 -->
<g id="Node000002" class="node">
<title>Node2</title>
<g id="a_Node000002"><a xlink:href="classcrypto_1_1cipher_1_1cipher__t.html" target="_top" xlink:title=" ">
<polygon fill="white" stroke="#bfbfbf" points="374,-38 258.25,-38 258.25,-18 374,-18 374,-38"/>
<text text-anchor="middle" x="316.12" y="-24.5" font-family="Helvetica,sans-Serif" font-size="10.00">crypto::cipher::cipher_t</text>
</a>
</g>
</g>
<!-- Node2&#45;&gt;Node1 -->
<g id="edge1_Node000001_Node000002" class="edge">
<title>Node2&#45;&gt;Node1</title>
<g id="a_edge1_Node000001_Node000002"><a xlink:title=" ">
<path fill="none" stroke="#63b8ff" d="M385.7,-28C394.07,-28 402.53,-28 410.63,-28"/>
<polygon fill="#63b8ff" stroke="#63b8ff" points="385.89,-24.5 375.89,-28 385.89,-31.5 385.89,-24.5"/>
</a>
</g>
</g>
<!-- Node3 -->
<g id="Node000003" class="node">
<title>Node3</title>
<g id="a_Node000003"><a xlink:href="classutil_1_1uniq__ptr.html" target="_top" xlink:title=" ">
<polygon fill="white" stroke="#bfbfbf" points="168.25,-56 0,-56 0,0 168.25,0 168.25,-56"/>
<text text-anchor="start" x="8" y="-42.5" font-family="Helvetica,sans-Serif" font-size="10.00">util::uniq_ptr&lt; T,</text>
<text text-anchor="start" x="8" y="-30.5" font-family="Helvetica,sans-Serif" font-size="10.00"> Destroy&lt; T *, void,</text>
<text text-anchor="start" x="8" y="-18.5" font-family="Helvetica,sans-Serif" font-size="10.00"> function &gt; &gt;&lt; EVP_CIPHER</text>
<text text-anchor="middle" x="84.12" y="-6.5" font-family="Helvetica,sans-Serif" font-size="10.00">_CTX, EVP_CIPHER_CTX_free &gt;</text>
</a>
</g>
</g>
<!-- Node3&#45;&gt;Node2 -->
<g id="edge2_Node000002_Node000003" class="edge">
<title>Node3&#45;&gt;Node2</title>
<g id="a_edge2_Node000002_Node000003"><a xlink:title=" ">
<path fill="none" stroke="#9a32cd" stroke-dasharray="5,2" d="M179.75,-28C206.28,-28 234.31,-28 257.93,-28"/>
<polygon fill="#9a32cd" stroke="#9a32cd" points="180,-24.5 170,-28 180,-31.5 180,-24.5"/>
</a>
</g>
<text text-anchor="middle" x="213.25" y="-42.5" font-family="Helvetica,sans-Serif" font-size="10.00" fill="grey"> decrypt_ctx</text>
<text text-anchor="middle" x="213.25" y="-30.5" font-family="Helvetica,sans-Serif" font-size="10.00" fill="grey">encrypt_ctx</text>
</g>
</g>
</svg>
