<?xml version="1.0" encoding="UTF-8" standalone="no"?>
<!DOCTYPE svg PUBLIC "-//W3C//DTD SVG 1.1//EN"
 "http://www.w3.org/Graphics/SVG/1.1/DTD/svg11.dtd">
<!-- Generated by graphviz version 12.2.1 (0)
 -->
<!-- Title: egl::img_descriptor_t Pages: 1 -->
<svg width="237pt" height="222pt"
 viewBox="0.00 0.00 236.50 222.00" xmlns="http://www.w3.org/2000/svg" xmlns:xlink="http://www.w3.org/1999/xlink">

<svg id="main" version="1.1" xmlns="http://www.w3.org/2000/svg" xmlns:xlink="http://www.w3.org/1999/xlink" xml:space="preserve">

<style type="text/css"><![CDATA[
.node, .edge {opacity: 0.7;}
.node.selected, .edge.selected {opacity: 1;}
.edge:hover path { stroke: red; }
.edge:hover polygon { stroke: red; fill: red; }
]]></style>
<script type="application/ecmascript" xlink:href="svg.min.js"/>
<svg id="graph" class="graph">
<g id="graph0" class="graph" transform="scale(1 1) rotate(0) translate(4 218)">
<title>egl::img_descriptor_t</title>
<!-- Node1 -->
<g id="Node000001" class="node">
<title>Node1</title>
<g id="a_Node000001"><a xlink:title=" ">
<polygon fill="#999999" stroke="#666666" points="162.25,-20 55.5,-20 55.5,0 162.25,0 162.25,-20"/>
<text text-anchor="middle" x="108.88" y="-6.5" font-family="Helvetica,sans-Serif" font-size="10.00">egl::img_descriptor_t</text>
</a>
</g>
</g>
<!-- Node2 -->
<g id="Node000002" class="node">
<title>Node2</title>
<g id="a_Node000002"><a xlink:href="classegl_1_1cursor__t.html" target="_top" xlink:title=" ">
<polygon fill="white" stroke="#bfbfbf" points="86.88,-88 16.88,-88 16.88,-68 86.88,-68 86.88,-88"/>
<text text-anchor="middle" x="51.88" y="-74.5" font-family="Helvetica,sans-Serif" font-size="10.00">egl::cursor_t</text>
</a>
</g>
</g>
<!-- Node2&#45;&gt;Node1 -->
<g id="edge1_Node000001_Node000002" class="edge">
<title>Node2&#45;&gt;Node1</title>
<g id="a_edge1_Node000001_Node000002"><a xlink:title=" ">
<path fill="none" stroke="#63b8ff" d="M67.52,-58.88C78.27,-46.44 92.09,-30.43 100.72,-20.44"/>
<polygon fill="#63b8ff" stroke="#63b8ff" points="64.92,-56.54 61.03,-66.4 70.22,-61.12 64.92,-56.54"/>
</a>
</g>
</g>
<!-- Node3 -->
<g id="Node000003" class="node">
<title>Node3</title>
<g id="a_Node000003"><a xlink:href="structplatf_1_1img__t.html" target="_top" xlink:title=" ">
<polygon fill="white" stroke="#bfbfbf" points="84.25,-145 19.5,-145 19.5,-125 84.25,-125 84.25,-145"/>
<text text-anchor="middle" x="51.88" y="-131.5" font-family="Helvetica,sans-Serif" font-size="10.00">platf::img_t</text>
</a>
</g>
</g>
<!-- Node3&#45;&gt;Node2 -->
<g id="edge2_Node000002_Node000003" class="edge">
<title>Node3&#45;&gt;Node2</title>
<g id="a_edge2_Node000002_Node000003"><a xlink:title=" ">
<path fill="none" stroke="#63b8ff" d="M51.88,-113.69C51.88,-104.97 51.88,-95.22 51.88,-88.28"/>
<polygon fill="#63b8ff" stroke="#63b8ff" points="48.38,-113.4 51.88,-123.4 55.38,-113.4 48.38,-113.4"/>
</a>
</g>
</g>
<!-- Node4 -->
<g id="Node000004" class="node">
<title>Node4</title>
<g id="a_Node000004"><a xlink:title=" ">
<polygon fill="white" stroke="#bfbfbf" points="103.75,-214 0,-214 0,-182 103.75,-182 103.75,-214"/>
<text text-anchor="start" x="8" y="-200.5" font-family="Helvetica,sans-Serif" font-size="10.00">std::enable_shared</text>
<text text-anchor="middle" x="51.88" y="-188.5" font-family="Helvetica,sans-Serif" font-size="10.00">_from_this&lt; img_t &gt;</text>
</a>
</g>
</g>
<!-- Node4&#45;&gt;Node3 -->
<g id="edge3_Node000003_Node000004" class="edge">
<title>Node4&#45;&gt;Node3</title>
<g id="a_edge3_Node000003_Node000004"><a xlink:title=" ">
<path fill="none" stroke="#63b8ff" d="M51.88,-170.36C51.88,-161.41 51.88,-152.01 51.88,-145.31"/>
<polygon fill="#63b8ff" stroke="#63b8ff" points="48.38,-170.09 51.88,-180.09 55.38,-170.09 48.38,-170.09"/>
</a>
</g>
</g>
<!-- Node5 -->
<g id="Node000005" class="node">
<title>Node5</title>
<g id="a_Node000005"><a xlink:href="structegl_1_1surface__descriptor__t.html" target="_top" xlink:title=" ">
<polygon fill="white" stroke="#bfbfbf" points="228.5,-88 105.25,-88 105.25,-68 228.5,-68 228.5,-88"/>
<text text-anchor="middle" x="166.88" y="-74.5" font-family="Helvetica,sans-Serif" font-size="10.00">egl::surface_descriptor_t</text>
</a>
</g>
</g>
<!-- Node5&#45;&gt;Node1 -->
<g id="edge4_Node000001_Node000005" class="edge">
<title>Node5&#45;&gt;Node1</title>
<g id="a_edge4_Node000001_Node000005"><a xlink:title=" ">
<path fill="none" stroke="#9a32cd" stroke-dasharray="5,2" d="M151.28,-59.25C140.3,-46.76 126.04,-30.53 117.17,-20.44"/>
<polygon fill="#9a32cd" stroke="#9a32cd" points="148.34,-61.21 157.57,-66.41 153.59,-56.58 148.34,-61.21"/>
</a>
</g>
<text text-anchor="middle" x="149.82" y="-40.5" font-family="Helvetica,sans-Serif" font-size="10.00" fill="grey"> sd</text>
</g>
</g>
</svg>
</svg>

<style type='text/css'>
<![CDATA[
[data-mouse-over-selected='false'] { opacity: 0.7; }
[data-mouse-over-selected='true']  { opacity: 1.0; }
]]>
</style>
<script type="application/ecmascript"><![CDATA[
document.addEventListener('DOMContentLoaded', (event) => {
  highlightEdges();
  highlightAdjacentNodes();
});
]]></script>
</svg>
