<?xml version="1.0" encoding="UTF-8" standalone="no"?>
<!DOCTYPE svg PUBLIC "-//W3C//DTD SVG 1.1//EN"
 "http://www.w3.org/Graphics/SVG/1.1/DTD/svg11.dtd">
<!-- Generated by graphviz version 12.2.1 (0)
 -->
<!-- Title: platf::kms::display_ram_t Pages: 1 -->
<svg width="857pt" height="220pt"
 viewBox="0.00 0.00 857.25 220.00" xmlns="http://www.w3.org/2000/svg" xmlns:xlink="http://www.w3.org/1999/xlink">
<g id="graph0" class="graph" transform="scale(1 1) rotate(0) translate(4 216)">
<title>platf::kms::display_ram_t</title>
<!-- Node1 -->
<g id="Node000001" class="node">
<title>Node1</title>
<g id="a_Node000001"><a xlink:title=" ">
<polygon fill="#999999" stroke="#666666" points="849.25,-118 753,-118 753,-86 849.25,-86 849.25,-118"/>
<text text-anchor="start" x="761" y="-104.5" font-family="Helvetica,sans-Serif" font-size="10.00">platf::kms::display</text>
<text text-anchor="middle" x="801.12" y="-92.5" font-family="Helvetica,sans-Serif" font-size="10.00">_ram_t</text>
</a>
</g>
</g>
<!-- Node2 -->
<g id="Node000002" class="node">
<title>Node2</title>
<g id="a_Node000002"><a xlink:href="classplatf_1_1kms_1_1display__t.html" target="_top" xlink:title=" ">
<polygon fill="white" stroke="#bfbfbf" points="660,-168 555.5,-168 555.5,-148 660,-148 660,-168"/>
<text text-anchor="middle" x="607.75" y="-154.5" font-family="Helvetica,sans-Serif" font-size="10.00">platf::kms::display_t</text>
</a>
</g>
</g>
<!-- Node2&#45;&gt;Node1 -->
<g id="edge1_Node000001_Node000002" class="edge">
<title>Node2&#45;&gt;Node1</title>
<g id="a_edge1_Node000001_Node000002"><a xlink:title=" ">
<path fill="none" stroke="#63b8ff" d="M662.36,-144.72C669.4,-142.86 676.51,-140.92 683.25,-139 706.17,-132.45 731.41,-124.55 752.54,-117.74"/>
<polygon fill="#63b8ff" stroke="#63b8ff" points="661.67,-141.28 652.88,-147.18 663.44,-148.05 661.67,-141.28"/>
</a>
</g>
</g>
<!-- Node3 -->
<g id="Node000003" class="node">
<title>Node3</title>
<g id="a_Node000003"><a xlink:href="classplatf_1_1display__t.html" target="_top" xlink:title=" ">
<polygon fill="white" stroke="#bfbfbf" points="413,-206 333.25,-206 333.25,-186 413,-186 413,-206"/>
<text text-anchor="middle" x="373.12" y="-192.5" font-family="Helvetica,sans-Serif" font-size="10.00">platf::display_t</text>
</a>
</g>
</g>
<!-- Node3&#45;&gt;Node2 -->
<g id="edge2_Node000002_Node000003" class="edge">
<title>Node3&#45;&gt;Node2</title>
<g id="a_edge2_Node000002_Node000003"><a xlink:title=" ">
<path fill="none" stroke="#63b8ff" d="M424.78,-188.24C451.42,-184.11 484.62,-178.89 514.25,-174 527.6,-171.8 542.01,-169.34 555.4,-167.03"/>
<polygon fill="#63b8ff" stroke="#63b8ff" points="424.25,-184.78 414.91,-189.77 425.32,-191.7 424.25,-184.78"/>
</a>
</g>
</g>
<!-- Node4 -->
<g id="Node000004" class="node">
<title>Node4</title>
<g id="a_Node000004"><a xlink:href="classlogging_1_1time__delta__periodic__logger.html" target="_top" xlink:title="A helper class for tracking and logging short time intervals across a period of time.">
<polygon fill="white" stroke="#666666" points="139.38,-212 41.62,-212 41.62,-180 139.38,-180 139.38,-212"/>
<text text-anchor="start" x="49.62" y="-198.5" font-family="Helvetica,sans-Serif" font-size="10.00">logging::time_delta</text>
<text text-anchor="middle" x="90.5" y="-186.5" font-family="Helvetica,sans-Serif" font-size="10.00">_periodic_logger</text>
</a>
</g>
</g>
<!-- Node4&#45;&gt;Node3 -->
<g id="edge3_Node000003_Node000004" class="edge">
<title>Node4&#45;&gt;Node3</title>
<g id="a_edge3_Node000003_Node000004"><a xlink:title=" ">
<path fill="none" stroke="#9a32cd" stroke-dasharray="5,2" d="M151.06,-196C205.97,-196 285.89,-196 333.09,-196"/>
<polygon fill="#9a32cd" stroke="#9a32cd" points="151.25,-192.5 141.25,-196 151.25,-199.5 151.25,-192.5"/>
</a>
</g>
<text text-anchor="middle" x="251.88" y="-198.5" font-family="Helvetica,sans-Serif" font-size="10.00" fill="grey"> sleep_overshoot_logger</text>
</g>
<!-- Node5 -->
<g id="Node000005" class="node">
<title>Node5</title>
<g id="a_Node000005"><a xlink:href="structplatf_1_1kms_1_1cursor__t.html" target="_top" xlink:title=" ">
<polygon fill="white" stroke="#bfbfbf" points="423.5,-168 322.75,-168 322.75,-148 423.5,-148 423.5,-168"/>
<text text-anchor="middle" x="373.12" y="-154.5" font-family="Helvetica,sans-Serif" font-size="10.00">platf::kms::cursor_t</text>
</a>
</g>
</g>
<!-- Node5&#45;&gt;Node2 -->
<g id="edge4_Node000002_Node000005" class="edge">
<title>Node5&#45;&gt;Node2</title>
<g id="a_edge4_Node000002_Node000005"><a xlink:title=" ">
<path fill="none" stroke="#9a32cd" stroke-dasharray="5,2" d="M435,-158C472.36,-158 519.69,-158 555.19,-158"/>
<polygon fill="#9a32cd" stroke="#9a32cd" points="435.26,-154.5 425.26,-158 435.26,-161.5 435.26,-154.5"/>
</a>
</g>
<text text-anchor="middle" x="477.88" y="-160.5" font-family="Helvetica,sans-Serif" font-size="10.00" fill="grey"> captured_cursor</text>
</g>
<!-- Node6 -->
<g id="Node000006" class="node">
<title>Node6</title>
<g id="a_Node000006"><a xlink:href="classplatf_1_1kms_1_1card__t.html" target="_top" xlink:title=" ">
<polygon fill="white" stroke="#bfbfbf" points="419.38,-130 326.88,-130 326.88,-110 419.38,-110 419.38,-130"/>
<text text-anchor="middle" x="373.12" y="-116.5" font-family="Helvetica,sans-Serif" font-size="10.00">platf::kms::card_t</text>
</a>
</g>
</g>
<!-- Node6&#45;&gt;Node2 -->
<g id="edge5_Node000002_Node000006" class="edge">
<title>Node6&#45;&gt;Node2</title>
<g id="a_edge5_Node000002_Node000006"><a xlink:title=" ">
<path fill="none" stroke="#9a32cd" stroke-dasharray="5,2" d="M430.93,-128.71C456.42,-132.68 486.86,-137.48 514.25,-142 527.6,-144.2 542.01,-146.66 555.4,-148.97"/>
<polygon fill="#9a32cd" stroke="#9a32cd" points="431.5,-125.26 421.09,-127.19 430.43,-132.18 431.5,-125.26"/>
</a>
</g>
<text text-anchor="middle" x="477.88" y="-144.5" font-family="Helvetica,sans-Serif" font-size="10.00" fill="grey"> card</text>
</g>
<!-- Node7 -->
<g id="Node000007" class="node">
<title>Node7</title>
<g id="a_Node000007"><a xlink:href="classutil_1_1uniq__ptr.html" target="_top" xlink:title=" ">
<polygon fill="white" stroke="#bfbfbf" points="181,-148 0,-148 0,-92 181,-92 181,-148"/>
<text text-anchor="start" x="8" y="-134.5" font-family="Helvetica,sans-Serif" font-size="10.00">util::uniq_ptr&lt; T,</text>
<text text-anchor="start" x="8" y="-122.5" font-family="Helvetica,sans-Serif" font-size="10.00"> Destroy&lt; T *, void,</text>
<text text-anchor="start" x="8" y="-110.5" font-family="Helvetica,sans-Serif" font-size="10.00"> function &gt; &gt;&lt; drmModePlane</text>
<text text-anchor="middle" x="90.5" y="-98.5" font-family="Helvetica,sans-Serif" font-size="10.00">Res, drmModeFreePlaneResources &gt;</text>
</a>
</g>
</g>
<!-- Node7&#45;&gt;Node6 -->
<g id="edge6_Node000006_Node000007" class="edge">
<title>Node7&#45;&gt;Node6</title>
<g id="a_edge6_Node000006_Node000007"><a xlink:title=" ">
<path fill="none" stroke="#9a32cd" stroke-dasharray="5,2" d="M192.95,-120C238.76,-120 290.56,-120 326.64,-120"/>
<polygon fill="#9a32cd" stroke="#9a32cd" points="192.96,-116.5 182.96,-120 192.96,-123.5 192.96,-116.5"/>
</a>
</g>
<text text-anchor="middle" x="251.88" y="-122.5" font-family="Helvetica,sans-Serif" font-size="10.00" fill="grey"> plane_res</text>
</g>
<!-- Node8 -->
<g id="Node000008" class="node">
<title>Node8</title>
<g id="a_Node000008"><a xlink:href="classutil_1_1uniq__ptr.html" target="_top" xlink:title=" ">
<polygon fill="white" stroke="#bfbfbf" points="663.75,-130 551.75,-130 551.75,-74 663.75,-74 663.75,-130"/>
<text text-anchor="start" x="559.75" y="-116.5" font-family="Helvetica,sans-Serif" font-size="10.00">util::uniq_ptr&lt; T,</text>
<text text-anchor="start" x="559.75" y="-104.5" font-family="Helvetica,sans-Serif" font-size="10.00"> Destroy&lt; T *, void,</text>
<text text-anchor="start" x="559.75" y="-92.5" font-family="Helvetica,sans-Serif" font-size="10.00"> function &gt; &gt;&lt; device,</text>
<text text-anchor="middle" x="607.75" y="-80.5" font-family="Helvetica,sans-Serif" font-size="10.00"> &amp;device_destroy &gt;</text>
</a>
</g>
</g>
<!-- Node8&#45;&gt;Node1 -->
<g id="edge7_Node000001_Node000008" class="edge">
<title>Node8&#45;&gt;Node1</title>
<g id="a_edge7_Node000001_Node000008"><a xlink:title=" ">
<path fill="none" stroke="#9a32cd" stroke-dasharray="5,2" d="M675.55,-102C700.97,-102 729.4,-102 752.68,-102"/>
<polygon fill="#9a32cd" stroke="#9a32cd" points="675.62,-98.5 665.62,-102 675.62,-105.5 675.62,-98.5"/>
</a>
</g>
<text text-anchor="middle" x="718.12" y="-104.5" font-family="Helvetica,sans-Serif" font-size="10.00" fill="grey"> gbm</text>
</g>
<!-- Node9 -->
<g id="Node000009" class="node">
<title>Node9</title>
<g id="a_Node000009"><a xlink:href="classutil_1_1uniq__ptr.html" target="_top" xlink:title=" ">
<polygon fill="white" stroke="#bfbfbf" points="683.25,-56 532.25,-56 532.25,0 683.25,0 683.25,-56"/>
<text text-anchor="start" x="540.25" y="-42.5" font-family="Helvetica,sans-Serif" font-size="10.00">util::uniq_ptr&lt; T,</text>
<text text-anchor="start" x="540.25" y="-30.5" font-family="Helvetica,sans-Serif" font-size="10.00"> Destroy&lt; T *, void,</text>
<text text-anchor="start" x="540.25" y="-18.5" font-family="Helvetica,sans-Serif" font-size="10.00"> function &gt; &gt;&lt; void,</text>
<text text-anchor="middle" x="607.75" y="-6.5" font-family="Helvetica,sans-Serif" font-size="10.00"> EGLBoolean, &amp;eglTerminate &gt;</text>
</a>
</g>
</g>
<!-- Node9&#45;&gt;Node1 -->
<g id="edge8_Node000001_Node000009" class="edge">
<title>Node9&#45;&gt;Node1</title>
<g id="a_edge8_Node000001_Node000009"><a xlink:title=" ">
<path fill="none" stroke="#9a32cd" stroke-dasharray="5,2" d="M692.76,-60.49C715.18,-69.16 738.47,-78.16 757.61,-85.56"/>
<polygon fill="#9a32cd" stroke="#9a32cd" points="694.19,-57.29 683.6,-56.94 691.67,-63.82 694.19,-57.29"/>
</a>
</g>
<text text-anchor="middle" x="718.12" y="-78.45" font-family="Helvetica,sans-Serif" font-size="10.00" fill="grey"> display</text>
</g>
</g>
</svg>
