<?xml version="1.0" encoding="UTF-8" standalone="no"?>
<!DOCTYPE svg PUBLIC "-//W3C//DTD SVG 1.1//EN"
 "http://www.w3.org/Graphics/SVG/1.1/DTD/svg11.dtd">
<!-- Generated by graphviz version 12.2.1 (0)
 -->
<!-- Title: wl::wlr_t Pages: 1 -->
<svg width="398pt" height="244pt"
 viewBox="0.00 0.00 397.88 244.00" xmlns="http://www.w3.org/2000/svg" xmlns:xlink="http://www.w3.org/1999/xlink">

<svg id="main" version="1.1" xmlns="http://www.w3.org/2000/svg" xmlns:xlink="http://www.w3.org/1999/xlink" xml:space="preserve">

<style type="text/css"><![CDATA[
.node, .edge {opacity: 0.7;}
.node.selected, .edge.selected {opacity: 1;}
.edge:hover path { stroke: red; }
.edge:hover polygon { stroke: red; fill: red; }
]]></style>
<script type="application/ecmascript" xlink:href="svg.min.js"/>
<svg id="graph" class="graph">
<g id="graph0" class="graph" transform="scale(1 1) rotate(0) translate(4 240)">
<title>wl::wlr_t</title>
<!-- Node1 -->
<g id="Node000001" class="node">
<title>Node1</title>
<g id="a_Node000001"><a xlink:title=" ">
<polygon fill="#999999" stroke="#666666" points="214.25,-20 161.5,-20 161.5,0 214.25,0 214.25,-20"/>
<text text-anchor="middle" x="187.88" y="-6.5" font-family="Helvetica,sans-Serif" font-size="10.00">wl::wlr_t</text>
</a>
</g>
</g>
<!-- Node2 -->
<g id="Node000002" class="node">
<title>Node2</title>
<g id="a_Node000002"><a xlink:href="classplatf_1_1display__t.html" target="_top" xlink:title=" ">
<polygon fill="white" stroke="#bfbfbf" points="88.75,-88 9,-88 9,-68 88.75,-68 88.75,-88"/>
<text text-anchor="middle" x="48.88" y="-74.5" font-family="Helvetica,sans-Serif" font-size="10.00">platf::display_t</text>
</a>
</g>
</g>
<!-- Node2&#45;&gt;Node1 -->
<g id="edge1_Node000001_Node000002" class="edge">
<title>Node2&#45;&gt;Node1</title>
<g id="a_edge1_Node000001_Node000002"><a xlink:title=" ">
<path fill="none" stroke="#63b8ff" d="M78.84,-62.77C105.81,-49.97 144.69,-31.51 168,-20.44"/>
<polygon fill="#63b8ff" stroke="#63b8ff" points="77.69,-59.44 70.16,-66.89 80.69,-65.77 77.69,-59.44"/>
</a>
</g>
</g>
<!-- Node3 -->
<g id="Node000003" class="node">
<title>Node3</title>
<g id="a_Node000003"><a xlink:href="classlogging_1_1time__delta__periodic__logger.html" target="_top" xlink:title="A helper class for tracking and logging short time intervals across a period of time.">
<polygon fill="white" stroke="#666666" points="97.75,-168 0,-168 0,-136 97.75,-136 97.75,-168"/>
<text text-anchor="start" x="8" y="-154.5" font-family="Helvetica,sans-Serif" font-size="10.00">logging::time_delta</text>
<text text-anchor="middle" x="48.88" y="-142.5" font-family="Helvetica,sans-Serif" font-size="10.00">_periodic_logger</text>
</a>
</g>
</g>
<!-- Node3&#45;&gt;Node2 -->
<g id="edge2_Node000002_Node000003" class="edge">
<title>Node3&#45;&gt;Node2</title>
<g id="a_edge2_Node000002_Node000003"><a xlink:title=" ">
<path fill="none" stroke="#9a32cd" stroke-dasharray="5,2" d="M48.88,-124.34C48.88,-111.7 48.88,-97.41 48.88,-88.31"/>
<polygon fill="#9a32cd" stroke="#9a32cd" points="45.38,-124.22 48.88,-134.22 52.38,-124.22 45.38,-124.22"/>
</a>
</g>
<text text-anchor="middle" x="101.75" y="-108.5" font-family="Helvetica,sans-Serif" font-size="10.00" fill="grey"> sleep_overshoot_logger</text>
</g>
<!-- Node4 -->
<g id="Node000004" class="node">
<title>Node4</title>
<g id="a_Node000004"><a xlink:href="classwl_1_1display__t.html" target="_top" xlink:title=" ">
<polygon fill="white" stroke="#bfbfbf" points="177.25,-88 106.5,-88 106.5,-68 177.25,-68 177.25,-88"/>
<text text-anchor="middle" x="141.88" y="-74.5" font-family="Helvetica,sans-Serif" font-size="10.00">wl::display_t</text>
</a>
</g>
</g>
<!-- Node4&#45;&gt;Node1 -->
<g id="edge3_Node000001_Node000004" class="edge">
<title>Node4&#45;&gt;Node1</title>
<g id="a_edge3_Node000001_Node000004"><a xlink:title=" ">
<path fill="none" stroke="#9a32cd" stroke-dasharray="5,2" d="M155.01,-58.15C163.61,-45.82 174.47,-30.23 181.3,-20.44"/>
<polygon fill="#9a32cd" stroke="#9a32cd" points="152.18,-56.1 149.33,-66.3 157.92,-60.1 152.18,-56.1"/>
</a>
</g>
<text text-anchor="middle" x="185.87" y="-40.5" font-family="Helvetica,sans-Serif" font-size="10.00" fill="grey"> display</text>
</g>
<!-- Node5 -->
<g id="Node000005" class="node">
<title>Node5</title>
<g id="a_Node000005"><a xlink:href="classwl_1_1interface__t.html" target="_top" xlink:title=" ">
<polygon fill="white" stroke="#bfbfbf" points="272.62,-88 195.12,-88 195.12,-68 272.62,-68 272.62,-88"/>
<text text-anchor="middle" x="233.88" y="-74.5" font-family="Helvetica,sans-Serif" font-size="10.00">wl::interface_t</text>
</a>
</g>
</g>
<!-- Node5&#45;&gt;Node1 -->
<g id="edge4_Node000001_Node000005" class="edge">
<title>Node5&#45;&gt;Node1</title>
<g id="a_edge4_Node000001_Node000005"><a xlink:title=" ">
<path fill="none" stroke="#9a32cd" stroke-dasharray="5,2" d="M221.05,-58.42C216.58,-51.95 211.51,-44.65 206.88,-38 202.81,-32.17 198.22,-25.66 194.58,-20.48"/>
<polygon fill="#9a32cd" stroke="#9a32cd" points="218.03,-60.2 226.6,-66.44 223.79,-56.23 218.03,-60.2"/>
</a>
</g>
<text text-anchor="middle" x="235.32" y="-40.5" font-family="Helvetica,sans-Serif" font-size="10.00" fill="grey"> interface</text>
</g>
<!-- Node6 -->
<g id="Node000006" class="node">
<title>Node6</title>
<g id="a_Node000006"><a xlink:href="classwl_1_1dmabuf__t.html" target="_top" xlink:title=" ">
<polygon fill="white" stroke="#bfbfbf" points="363,-88 290.75,-88 290.75,-68 363,-68 363,-88"/>
<text text-anchor="middle" x="326.88" y="-74.5" font-family="Helvetica,sans-Serif" font-size="10.00">wl::dmabuf_t</text>
</a>
</g>
</g>
<!-- Node6&#45;&gt;Node1 -->
<g id="edge5_Node000001_Node000006" class="edge">
<title>Node6&#45;&gt;Node1</title>
<g id="a_edge5_Node000001_Node000006"><a xlink:title=" ">
<path fill="none" stroke="#9a32cd" stroke-dasharray="5,2" d="M302.69,-61.59C290.18,-53.97 274.51,-44.94 259.88,-38 245.28,-31.08 228.4,-24.67 214.65,-19.83"/>
<polygon fill="#9a32cd" stroke="#9a32cd" points="300.73,-64.5 311.07,-66.79 304.42,-58.55 300.73,-64.5"/>
</a>
</g>
<text text-anchor="middle" x="300.17" y="-40.5" font-family="Helvetica,sans-Serif" font-size="10.00" fill="grey"> dmabuf</text>
</g>
<!-- Node7 -->
<g id="Node000007" class="node">
<title>Node7</title>
<g id="a_Node000007"><a xlink:href="classwl_1_1frame__t.html" target="_top" xlink:title=" ">
<polygon fill="white" stroke="#bfbfbf" points="359.25,-162 294.5,-162 294.5,-142 359.25,-142 359.25,-162"/>
<text text-anchor="middle" x="326.88" y="-148.5" font-family="Helvetica,sans-Serif" font-size="10.00">wl::frame_t</text>
</a>
</g>
</g>
<!-- Node7&#45;&gt;Node6 -->
<g id="edge6_Node000006_Node000007" class="edge">
<title>Node7&#45;&gt;Node6</title>
<g id="a_edge6_Node000006_Node000007"><a xlink:title=" ">
<path fill="none" stroke="#9a32cd" stroke-dasharray="5,2" d="M326.88,-130.18C326.88,-116.29 326.88,-98.71 326.88,-88.19"/>
<polygon fill="#9a32cd" stroke="#9a32cd" points="323.38,-130.07 326.88,-140.07 330.38,-130.07 323.38,-130.07"/>
</a>
</g>
<text text-anchor="middle" x="358.38" y="-108.5" font-family="Helvetica,sans-Serif" font-size="10.00" fill="grey"> current_frame</text>
</g>
<!-- Node8 -->
<g id="Node000008" class="node">
<title>Node8</title>
<g id="a_Node000008"><a xlink:href="structegl_1_1surface__descriptor__t.html" target="_top" xlink:title=" ">
<polygon fill="white" stroke="#bfbfbf" points="388.5,-236 265.25,-236 265.25,-216 388.5,-216 388.5,-236"/>
<text text-anchor="middle" x="326.88" y="-222.5" font-family="Helvetica,sans-Serif" font-size="10.00">egl::surface_descriptor_t</text>
</a>
</g>
</g>
<!-- Node8&#45;&gt;Node7 -->
<g id="edge7_Node000007_Node000008" class="edge">
<title>Node8&#45;&gt;Node7</title>
<g id="a_edge7_Node000007_Node000008"><a xlink:title=" ">
<path fill="none" stroke="#9a32cd" stroke-dasharray="5,2" d="M326.88,-204.18C326.88,-190.29 326.88,-172.71 326.88,-162.19"/>
<polygon fill="#9a32cd" stroke="#9a32cd" points="323.38,-204.07 326.88,-214.07 330.38,-204.07 323.38,-204.07"/>
</a>
</g>
<text text-anchor="middle" x="333.62" y="-188.5" font-family="Helvetica,sans-Serif" font-size="10.00" fill="grey"> sd</text>
</g>
</g>
</svg>
</svg>

<style type='text/css'>
<![CDATA[
[data-mouse-over-selected='false'] { opacity: 0.7; }
[data-mouse-over-selected='true']  { opacity: 1.0; }
]]>
</style>
<script type="application/ecmascript"><![CDATA[
document.addEventListener('DOMContentLoaded', (event) => {
  highlightEdges();
  highlightAdjacentNodes();
});
]]></script>
</svg>
