<?xml version="1.0" encoding="UTF-8" standalone="no"?>
<!DOCTYPE svg PUBLIC "-//W3C//DTD SVG 1.1//EN"
 "http://www.w3.org/Graphics/SVG/1.1/DTD/svg11.dtd">
<!-- Generated by graphviz version 12.2.1 (0)
 -->
<!-- Title: platf::macos_high_precision_timer Pages: 1 -->
<svg width="146pt" height="164pt"
 viewBox="0.00 0.00 145.50 164.00" xmlns="http://www.w3.org/2000/svg" xmlns:xlink="http://www.w3.org/1999/xlink">
<g id="graph0" class="graph" transform="scale(1 1) rotate(0) translate(4 160)">
<title>platf::macos_high_precision_timer</title>
<!-- Node1 -->
<g id="Node000001" class="node">
<title>Node1</title>
<g id="a_Node000001"><a xlink:title=" ">
<polygon fill="#999999" stroke="#666666" points="137.5,-32 0,-32 0,0 137.5,0 137.5,-32"/>
<text text-anchor="start" x="8" y="-18.5" font-family="Helvetica,sans-Serif" font-size="10.00">platf::macos_high_precision</text>
<text text-anchor="middle" x="68.75" y="-6.5" font-family="Helvetica,sans-Serif" font-size="10.00">_timer</text>
</a>
</g>
</g>
<!-- Node2 -->
<g id="Node000002" class="node">
<title>Node2</title>
<g id="a_Node000002"><a xlink:href="structplatf_1_1high__precision__timer.html" target="_top" xlink:title=" ">
<polygon fill="white" stroke="#bfbfbf" points="120.25,-100 17.25,-100 17.25,-68 120.25,-68 120.25,-100"/>
<text text-anchor="start" x="25.25" y="-86.5" font-family="Helvetica,sans-Serif" font-size="10.00">platf::high_precision</text>
<text text-anchor="middle" x="68.75" y="-74.5" font-family="Helvetica,sans-Serif" font-size="10.00">_timer</text>
</a>
</g>
</g>
<!-- Node2&#45;&gt;Node1 -->
<g id="edge1_Node000001_Node000002" class="edge">
<title>Node2&#45;&gt;Node1</title>
<g id="a_edge1_Node000001_Node000002"><a xlink:title=" ">
<path fill="none" stroke="#63b8ff" d="M68.75,-56.31C68.75,-48.12 68.75,-39.38 68.75,-32.22"/>
<polygon fill="#63b8ff" stroke="#63b8ff" points="65.25,-56.18 68.75,-66.18 72.25,-56.18 65.25,-56.18"/>
</a>
</g>
</g>
<!-- Node3 -->
<g id="Node000003" class="node">
<title>Node3</title>
<g id="a_Node000003"><a xlink:title=" ">
<polygon fill="white" stroke="#bfbfbf" points="119.12,-156 18.38,-156 18.38,-136 119.12,-136 119.12,-156"/>
<text text-anchor="middle" x="68.75" y="-142.5" font-family="Helvetica,sans-Serif" font-size="10.00">boost::noncopyable</text>
</a>
</g>
</g>
<!-- Node3&#45;&gt;Node2 -->
<g id="edge2_Node000002_Node000003" class="edge">
<title>Node3&#45;&gt;Node2</title>
<g id="a_edge2_Node000002_Node000003"><a xlink:title=" ">
<path fill="none" stroke="#8b1a1a" d="M68.75,-124.31C68.75,-116.37 68.75,-107.46 68.75,-100.14"/>
<polygon fill="#8b1a1a" stroke="#8b1a1a" points="65.25,-124.11 68.75,-134.11 72.25,-124.11 65.25,-124.11"/>
</a>
</g>
</g>
</g>
</svg>
