<?xml version="1.0" encoding="UTF-8" standalone="no"?>
<!DOCTYPE svg PUBLIC "-//W3C//DTD SVG 1.1//EN"
 "http://www.w3.org/Graphics/SVG/1.1/DTD/svg11.dtd">
<!-- Generated by graphviz version 12.2.1 (0)
 -->
<!-- Title: platf::dxgi::d3d_nvenc_encode_device_t Pages: 1 -->
<svg width="316pt" height="257pt"
 viewBox="0.00 0.00 316.24 257.00" xmlns="http://www.w3.org/2000/svg" xmlns:xlink="http://www.w3.org/1999/xlink">

<svg id="main" version="1.1" xmlns="http://www.w3.org/2000/svg" xmlns:xlink="http://www.w3.org/1999/xlink" xml:space="preserve">

<style type="text/css"><![CDATA[
.node, .edge {opacity: 0.7;}
.node.selected, .edge.selected {opacity: 1;}
.edge:hover path { stroke: red; }
.edge:hover polygon { stroke: red; fill: red; }
]]></style>
<script type="application/ecmascript" xlink:href="svg.min.js"/>
<svg id="graph" class="graph">
<g id="graph0" class="graph" transform="scale(1 1) rotate(0) translate(4 253)">
<title>platf::dxgi::d3d_nvenc_encode_device_t</title>
<!-- Node1 -->
<g id="Node000001" class="node">
<title>Node1</title>
<g id="a_Node000001"><a xlink:title=" ">
<polygon fill="#999999" stroke="#666666" points="198.5,-32 86.5,-32 86.5,0 198.5,0 198.5,-32"/>
<text text-anchor="start" x="94.5" y="-18.5" font-family="Helvetica,sans-Serif" font-size="10.00">platf::dxgi::d3d_nvenc</text>
<text text-anchor="middle" x="142.5" y="-6.5" font-family="Helvetica,sans-Serif" font-size="10.00">_encode_device_t</text>
</a>
</g>
</g>
<!-- Node2 -->
<g id="Node000002" class="node">
<title>Node2</title>
<g id="a_Node000002"><a xlink:href="structplatf_1_1nvenc__encode__device__t.html" target="_top" xlink:title=" ">
<polygon fill="white" stroke="#bfbfbf" points="194.38,-101 90.62,-101 90.62,-69 194.38,-69 194.38,-101"/>
<text text-anchor="start" x="98.62" y="-87.5" font-family="Helvetica,sans-Serif" font-size="10.00">platf::nvenc_encode</text>
<text text-anchor="middle" x="142.5" y="-75.5" font-family="Helvetica,sans-Serif" font-size="10.00">_device_t</text>
</a>
</g>
</g>
<!-- Node2&#45;&gt;Node1 -->
<g id="edge1_Node000001_Node000002" class="edge">
<title>Node2&#45;&gt;Node1</title>
<g id="a_edge1_Node000001_Node000002"><a xlink:title=" ">
<path fill="none" stroke="#63b8ff" d="M142.5,-57.35C142.5,-48.78 142.5,-39.59 142.5,-32.14"/>
<polygon fill="#63b8ff" stroke="#63b8ff" points="139,-57.28 142.5,-67.28 146,-57.28 139,-57.28"/>
</a>
</g>
</g>
<!-- Node3 -->
<g id="Node000003" class="node">
<title>Node3</title>
<g id="a_Node000003"><a xlink:href="structplatf_1_1encode__device__t.html" target="_top" xlink:title=" ">
<polygon fill="white" stroke="#bfbfbf" points="137.62,-169 23.38,-169 23.38,-149 137.62,-149 137.62,-169"/>
<text text-anchor="middle" x="80.5" y="-155.5" font-family="Helvetica,sans-Serif" font-size="10.00">platf::encode_device_t</text>
</a>
</g>
</g>
<!-- Node3&#45;&gt;Node2 -->
<g id="edge2_Node000002_Node000003" class="edge">
<title>Node3&#45;&gt;Node2</title>
<g id="a_edge2_Node000002_Node000003"><a xlink:title=" ">
<path fill="none" stroke="#63b8ff" d="M96.02,-139.97C106.23,-128.12 119.45,-112.77 129.18,-101.47"/>
<polygon fill="#63b8ff" stroke="#63b8ff" points="93.47,-137.58 89.59,-147.44 98.77,-142.15 93.47,-137.58"/>
</a>
</g>
</g>
<!-- Node4 -->
<g id="Node000004" class="node">
<title>Node4</title>
<g id="a_Node000004"><a xlink:href="structvideo_1_1sunshine__colorspace__t.html" target="_top" xlink:title=" ">
<polygon fill="white" stroke="#bfbfbf" points="145,-243 0,-243 0,-223 145,-223 145,-243"/>
<text text-anchor="middle" x="72.5" y="-229.5" font-family="Helvetica,sans-Serif" font-size="10.00">video::sunshine_colorspace_t</text>
</a>
</g>
</g>
<!-- Node4&#45;&gt;Node3 -->
<g id="edge3_Node000003_Node000004" class="edge">
<title>Node4&#45;&gt;Node3</title>
<g id="a_edge3_Node000003_Node000004"><a xlink:title=" ">
<path fill="none" stroke="#9a32cd" stroke-dasharray="5,2" d="M74.81,-211.18C76.36,-197.29 78.31,-179.71 79.48,-169.19"/>
<polygon fill="#9a32cd" stroke="#9a32cd" points="71.34,-210.76 73.71,-221.08 78.3,-211.53 71.34,-210.76"/>
</a>
</g>
<text text-anchor="middle" x="102.58" y="-189.5" font-family="Helvetica,sans-Serif" font-size="10.00" fill="grey"> colorspace</text>
</g>
<!-- Node5 -->
<g id="Node000005" class="node">
<title>Node5</title>
<g id="a_Node000005"><a xlink:href="classnvenc_1_1nvenc__base.html" target="_top" xlink:title="Abstract platform&#45;agnostic base of standalone NVENC encoder. Derived classes perform platform&#45;specifi...">
<polygon fill="white" stroke="#666666" points="271.88,-169 171.12,-169 171.12,-149 271.88,-149 271.88,-169"/>
<text text-anchor="middle" x="221.5" y="-155.5" font-family="Helvetica,sans-Serif" font-size="10.00">nvenc::nvenc_base</text>
</a>
</g>
</g>
<!-- Node5&#45;&gt;Node2 -->
<g id="edge4_Node000002_Node000005" class="edge">
<title>Node5&#45;&gt;Node2</title>
<g id="a_edge4_Node000002_Node000005"><a xlink:title=" ">
<path fill="none" stroke="#9a32cd" stroke-dasharray="5,2" d="M202.87,-141.02C189.72,-129.04 172.24,-113.11 159.47,-101.47"/>
<polygon fill="#9a32cd" stroke="#9a32cd" points="200.3,-143.42 210.05,-147.57 205.02,-138.24 200.3,-143.42"/>
</a>
</g>
<text text-anchor="middle" x="206.02" y="-121.5" font-family="Helvetica,sans-Serif" font-size="10.00" fill="grey"> nvenc</text>
</g>
<!-- Node6 -->
<g id="Node000006" class="node">
<title>Node6</title>
<g id="a_Node000006"><a xlink:href="classlogging_1_1min__max__avg__periodic__logger.html" target="_top" xlink:title=" ">
<polygon fill="white" stroke="#666666" points="296,-249 163,-249 163,-217 296,-217 296,-249"/>
<text text-anchor="start" x="171" y="-235.5" font-family="Helvetica,sans-Serif" font-size="10.00">logging::min_max_avg</text>
<text text-anchor="middle" x="229.5" y="-223.5" font-family="Helvetica,sans-Serif" font-size="10.00">_periodic_logger&lt; double &gt;</text>
</a>
</g>
</g>
<!-- Node6&#45;&gt;Node5 -->
<g id="edge5_Node000005_Node000006" class="edge">
<title>Node6&#45;&gt;Node5</title>
<g id="a_edge5_Node000005_Node000006"><a xlink:title=" ">
<path fill="none" stroke="#9a32cd" stroke-dasharray="5,2" d="M226.54,-205.34C225.13,-192.7 223.55,-178.41 222.53,-169.31"/>
<polygon fill="#9a32cd" stroke="#9a32cd" points="223.05,-205.67 227.64,-215.23 230.01,-204.9 223.05,-205.67"/>
</a>
</g>
<text text-anchor="middle" x="266.99" y="-189.5" font-family="Helvetica,sans-Serif" font-size="10.00" fill="grey"> frame_size_logger</text>
</g>
</g>
</svg>
</svg>

<style type='text/css'>
<![CDATA[
[data-mouse-over-selected='false'] { opacity: 0.7; }
[data-mouse-over-selected='true']  { opacity: 1.0; }
]]>
</style>
<script type="application/ecmascript"><![CDATA[
document.addEventListener('DOMContentLoaded', (event) => {
  highlightEdges();
  highlightAdjacentNodes();
});
]]></script>
</svg>
