<?xml version="1.0" encoding="UTF-8" standalone="no"?>
<!DOCTYPE svg PUBLIC "-//W3C//DTD SVG 1.1//EN"
 "http://www.w3.org/Graphics/SVG/1.1/DTD/svg11.dtd">
<!-- Generated by graphviz version 12.2.1 (0)
 -->
<!-- Title: platf::audio::mic_wasapi_t Pages: 1 -->
<svg width="599pt" height="486pt"
 viewBox="0.00 0.00 599.25 486.00" xmlns="http://www.w3.org/2000/svg" xmlns:xlink="http://www.w3.org/1999/xlink">
<g id="graph0" class="graph" transform="scale(1 1) rotate(0) translate(4 482)">
<title>platf::audio::mic_wasapi_t</title>
<!-- Node1 -->
<g id="Node000001" class="node">
<title>Node1</title>
<g id="a_Node000001"><a xlink:title=" ">
<polygon fill="#999999" stroke="#666666" points="591.25,-237 461.25,-237 461.25,-217 591.25,-217 591.25,-237"/>
<text text-anchor="middle" x="526.25" y="-223.5" font-family="Helvetica,sans-Serif" font-size="10.00">platf::audio::mic_wasapi_t</text>
</a>
</g>
</g>
<!-- Node2 -->
<g id="Node000002" class="node">
<title>Node2</title>
<g id="a_Node000002"><a xlink:href="classplatf_1_1mic__t.html" target="_top" xlink:title=" ">
<polygon fill="white" stroke="#bfbfbf" points="279,-478 214.25,-478 214.25,-458 279,-458 279,-478"/>
<text text-anchor="middle" x="246.62" y="-464.5" font-family="Helvetica,sans-Serif" font-size="10.00">platf::mic_t</text>
</a>
</g>
</g>
<!-- Node2&#45;&gt;Node1 -->
<g id="edge1_Node000001_Node000002" class="edge">
<title>Node2&#45;&gt;Node1</title>
<g id="a_edge1_Node000001_Node000002"><a xlink:title=" ">
<path fill="none" stroke="#63b8ff" d="M290.25,-463.7C307.92,-460.91 328.31,-456.37 345.75,-449 394.41,-428.42 408.19,-420.53 443.25,-381 484.45,-334.54 512.25,-263.74 521.69,-237.37"/>
<polygon fill="#63b8ff" stroke="#63b8ff" points="290,-460.2 280.59,-465.07 290.99,-467.13 290,-460.2"/>
</a>
</g>
</g>
<!-- Node3 -->
<g id="Node000003" class="node">
<title>Node3</title>
<g id="a_Node000003"><a xlink:href="classutil_1_1uniq__ptr.html" target="_top" xlink:title=" ">
<polygon fill="white" stroke="#bfbfbf" points="313.88,-440 179.38,-440 179.38,-384 313.88,-384 313.88,-440"/>
<text text-anchor="start" x="187.38" y="-426.5" font-family="Helvetica,sans-Serif" font-size="10.00">util::uniq_ptr&lt; T,</text>
<text text-anchor="start" x="187.38" y="-414.5" font-family="Helvetica,sans-Serif" font-size="10.00"> Destroy&lt; T *, ReturnType,</text>
<text text-anchor="start" x="187.38" y="-402.5" font-family="Helvetica,sans-Serif" font-size="10.00"> function &gt; &gt;&lt; void, BOOL,</text>
<text text-anchor="middle" x="246.62" y="-390.5" font-family="Helvetica,sans-Serif" font-size="10.00"> CloseHandle &gt;</text>
</a>
</g>
</g>
<!-- Node3&#45;&gt;Node1 -->
<g id="edge2_Node000001_Node000003" class="edge">
<title>Node3&#45;&gt;Node1</title>
<g id="a_edge2_Node000001_Node000003"><a xlink:title=" ">
<path fill="none" stroke="#9a32cd" stroke-dasharray="5,2" d="M324.79,-384.83C331.97,-381.73 339.06,-378.44 345.75,-375 392.08,-351.21 403.07,-343.14 443.25,-310 472,-286.28 501.78,-253.78 516.26,-237.38"/>
<polygon fill="#9a32cd" stroke="#9a32cd" points="323.51,-381.57 315.63,-388.65 326.21,-388.03 323.51,-381.57"/>
</a>
</g>
<text text-anchor="middle" x="403.5" y="-367.12" font-family="Helvetica,sans-Serif" font-size="10.00" fill="grey"> audio_event</text>
</g>
<!-- Node4 -->
<g id="Node000004" class="node">
<title>Node4</title>
<g id="a_Node000004"><a xlink:href="classutil_1_1uniq__ptr.html" target="_top" xlink:title=" ">
<polygon fill="white" stroke="#bfbfbf" points="338.62,-366 154.62,-366 154.62,-310 338.62,-310 338.62,-366"/>
<text text-anchor="start" x="162.62" y="-352.5" font-family="Helvetica,sans-Serif" font-size="10.00">util::uniq_ptr&lt; T,</text>
<text text-anchor="start" x="162.62" y="-340.5" font-family="Helvetica,sans-Serif" font-size="10.00"> Destroy&lt; T *, void,</text>
<text text-anchor="start" x="162.62" y="-328.5" font-family="Helvetica,sans-Serif" font-size="10.00"> function &gt; &gt;&lt; IMMDeviceEnumerator,</text>
<text text-anchor="middle" x="246.62" y="-316.5" font-family="Helvetica,sans-Serif" font-size="10.00"> Release&lt; IMMDeviceEnumerator &gt; &gt;</text>
</a>
</g>
</g>
<!-- Node4&#45;&gt;Node1 -->
<g id="edge3_Node000001_Node000004" class="edge">
<title>Node4&#45;&gt;Node1</title>
<g id="a_edge3_Node000001_Node000004"><a xlink:title=" ">
<path fill="none" stroke="#9a32cd" stroke-dasharray="5,2" d="M336.84,-305.61C370.39,-293.07 408.75,-278.31 443.25,-264 463.73,-255.5 486.72,-245.05 503.14,-237.42"/>
<polygon fill="#9a32cd" stroke="#9a32cd" points="335.7,-302.3 327.55,-309.07 338.14,-308.86 335.7,-302.3"/>
</a>
</g>
<text text-anchor="middle" x="403.5" y="-296.17" font-family="Helvetica,sans-Serif" font-size="10.00" fill="grey"> device_enum</text>
</g>
<!-- Node5 -->
<g id="Node000005" class="node">
<title>Node5</title>
<g id="a_Node000005"><a xlink:href="classutil_1_1uniq__ptr.html" target="_top" xlink:title=" ">
<polygon fill="white" stroke="#bfbfbf" points="313.5,-292 179.75,-292 179.75,-236 313.5,-236 313.5,-292"/>
<text text-anchor="start" x="187.75" y="-278.5" font-family="Helvetica,sans-Serif" font-size="10.00">util::uniq_ptr&lt; T,</text>
<text text-anchor="start" x="187.75" y="-266.5" font-family="Helvetica,sans-Serif" font-size="10.00"> Destroy&lt; T *, void,</text>
<text text-anchor="start" x="187.75" y="-254.5" font-family="Helvetica,sans-Serif" font-size="10.00"> function &gt; &gt;&lt; IMMDevice,</text>
<text text-anchor="middle" x="246.62" y="-242.5" font-family="Helvetica,sans-Serif" font-size="10.00"> Release&lt; IMMDevice &gt; &gt;</text>
</a>
</g>
</g>
<!-- Node5&#45;&gt;Node1 -->
<g id="edge4_Node000001_Node000005" class="edge">
<title>Node5&#45;&gt;Node1</title>
<g id="a_edge4_Node000001_Node000005"><a xlink:title=" ">
<path fill="none" stroke="#9a32cd" stroke-dasharray="5,2" d="M325.01,-253.69C367.86,-247.98 420.5,-240.96 461.05,-235.56"/>
<polygon fill="#9a32cd" stroke="#9a32cd" points="324.72,-250.19 315.27,-254.98 325.65,-257.13 324.72,-250.19"/>
</a>
</g>
<text text-anchor="middle" x="403.5" y="-250.22" font-family="Helvetica,sans-Serif" font-size="10.00" fill="grey"> device</text>
</g>
<!-- Node6 -->
<g id="Node000006" class="node">
<title>Node6</title>
<g id="a_Node000006"><a xlink:href="classutil_1_1uniq__ptr.html" target="_top" xlink:title=" ">
<polygon fill="white" stroke="#bfbfbf" points="315,-218 178.25,-218 178.25,-162 315,-162 315,-218"/>
<text text-anchor="start" x="186.25" y="-204.5" font-family="Helvetica,sans-Serif" font-size="10.00">util::uniq_ptr&lt; T,</text>
<text text-anchor="start" x="186.25" y="-192.5" font-family="Helvetica,sans-Serif" font-size="10.00"> Destroy&lt; T *, void,</text>
<text text-anchor="start" x="186.25" y="-180.5" font-family="Helvetica,sans-Serif" font-size="10.00"> function &gt; &gt;&lt; IAudioClient,</text>
<text text-anchor="middle" x="246.62" y="-168.5" font-family="Helvetica,sans-Serif" font-size="10.00"> Release&lt; IAudioClient &gt; &gt;</text>
</a>
</g>
</g>
<!-- Node6&#45;&gt;Node1 -->
<g id="edge5_Node000001_Node000006" class="edge">
<title>Node6&#45;&gt;Node1</title>
<g id="a_edge5_Node000001_Node000006"><a xlink:title=" ">
<path fill="none" stroke="#9a32cd" stroke-dasharray="5,2" d="M326.38,-200.5C369.04,-206.18 421.07,-213.12 461.21,-218.47"/>
<polygon fill="#9a32cd" stroke="#9a32cd" points="327.06,-197.06 316.68,-199.2 326.13,-203.99 327.06,-197.06"/>
</a>
</g>
<text text-anchor="middle" x="403.5" y="-218.57" font-family="Helvetica,sans-Serif" font-size="10.00" fill="grey"> audio_client</text>
</g>
<!-- Node7 -->
<g id="Node000007" class="node">
<title>Node7</title>
<g id="a_Node000007"><a xlink:href="classutil_1_1uniq__ptr.html" target="_top" xlink:title=" ">
<polygon fill="white" stroke="#bfbfbf" points="345.75,-144 147.5,-144 147.5,-88 345.75,-88 345.75,-144"/>
<text text-anchor="start" x="155.5" y="-130.5" font-family="Helvetica,sans-Serif" font-size="10.00">util::uniq_ptr&lt; T,</text>
<text text-anchor="start" x="155.5" y="-118.5" font-family="Helvetica,sans-Serif" font-size="10.00"> Destroy&lt; T *, void,</text>
<text text-anchor="start" x="155.5" y="-106.5" font-family="Helvetica,sans-Serif" font-size="10.00"> function &gt; &gt;&lt; IAudioCapture</text>
<text text-anchor="middle" x="246.62" y="-94.5" font-family="Helvetica,sans-Serif" font-size="10.00">Client, Release&lt; IAudioCaptureClient &gt; &gt;</text>
</a>
</g>
</g>
<!-- Node7&#45;&gt;Node1 -->
<g id="edge6_Node000001_Node000007" class="edge">
<title>Node7&#45;&gt;Node1</title>
<g id="a_edge6_Node000001_Node000007"><a xlink:title=" ">
<path fill="none" stroke="#9a32cd" stroke-dasharray="5,2" d="M336.84,-148.39C370.39,-160.93 408.75,-175.69 443.25,-190 463.73,-198.5 486.72,-208.95 503.14,-216.58"/>
<polygon fill="#9a32cd" stroke="#9a32cd" points="338.14,-145.14 327.55,-144.93 335.7,-151.7 338.14,-145.14"/>
</a>
</g>
<text text-anchor="middle" x="403.5" y="-192.5" font-family="Helvetica,sans-Serif" font-size="10.00" fill="grey"> audio_capture</text>
</g>
<!-- Node8 -->
<g id="Node000008" class="node">
<title>Node8</title>
<g id="a_Node000008"><a xlink:href="classplatf_1_1audio_1_1audio__notification__t.html" target="_top" xlink:title=" ">
<polygon fill="white" stroke="#bfbfbf" points="293.25,-70 200,-70 200,-38 293.25,-38 293.25,-70"/>
<text text-anchor="start" x="208" y="-56.5" font-family="Helvetica,sans-Serif" font-size="10.00">platf::audio::audio</text>
<text text-anchor="middle" x="246.62" y="-44.5" font-family="Helvetica,sans-Serif" font-size="10.00">_notification_t</text>
</a>
</g>
</g>
<!-- Node8&#45;&gt;Node1 -->
<g id="edge7_Node000001_Node000008" class="edge">
<title>Node8&#45;&gt;Node1</title>
<g id="a_edge7_Node000001_Node000008"><a xlink:title=" ">
<path fill="none" stroke="#9a32cd" stroke-dasharray="5,2" d="M304.52,-65.03C318.33,-68.64 332.82,-73.25 345.75,-79 422.13,-113 492.35,-188.78 516.43,-216.55"/>
<polygon fill="#9a32cd" stroke="#9a32cd" points="305.66,-61.7 295.11,-62.7 303.98,-68.5 305.66,-61.7"/>
</a>
</g>
<text text-anchor="middle" x="403.5" y="-143.83" font-family="Helvetica,sans-Serif" font-size="10.00" fill="grey"> endpt_notification</text>
</g>
<!-- Node9 -->
<g id="Node000009" class="node">
<title>Node9</title>
<g id="a_Node000009"><a xlink:title=" ">
<polygon fill="white" stroke="#bfbfbf" points="110.5,-64 0,-64 0,-44 110.5,-44 110.5,-64"/>
<text text-anchor="middle" x="55.25" y="-50.5" font-family="Helvetica,sans-Serif" font-size="10.00">IMMNotificationClient</text>
</a>
</g>
</g>
<!-- Node9&#45;&gt;Node8 -->
<g id="edge8_Node000008_Node000009" class="edge">
<title>Node9&#45;&gt;Node8</title>
<g id="a_edge8_Node000008_Node000009"><a xlink:title=" ">
<path fill="none" stroke="#63b8ff" d="M122.28,-54C147.87,-54 176.55,-54 199.8,-54"/>
<polygon fill="#63b8ff" stroke="#63b8ff" points="122.28,-50.5 112.28,-54 122.28,-57.5 122.28,-50.5"/>
</a>
</g>
</g>
<!-- Node10 -->
<g id="Node000010" class="node">
<title>Node10</title>
<g id="a_Node000010"><a xlink:href="classutil_1_1buffer__t.html" target="_top" xlink:title=" ">
<polygon fill="white" stroke="#bfbfbf" points="298.5,-20 194.75,-20 194.75,0 298.5,0 298.5,-20"/>
<text text-anchor="middle" x="246.62" y="-6.5" font-family="Helvetica,sans-Serif" font-size="10.00">util::buffer_t&lt; float &gt;</text>
</a>
</g>
</g>
<!-- Node10&#45;&gt;Node1 -->
<g id="edge9_Node000001_Node000010" class="edge">
<title>Node10&#45;&gt;Node1</title>
<g id="a_edge9_Node000001_Node000010"><a xlink:title=" ">
<path fill="none" stroke="#9a32cd" stroke-dasharray="5,2" d="M309.99,-16.5C352.35,-23.94 407.04,-39.88 443.25,-74 488.44,-116.57 514,-189.7 522.26,-216.64"/>
<polygon fill="#9a32cd" stroke="#9a32cd" points="310.6,-13.06 300.17,-14.91 309.48,-19.97 310.6,-13.06"/>
</a>
</g>
<text text-anchor="middle" x="403.5" y="-76.5" font-family="Helvetica,sans-Serif" font-size="10.00" fill="grey"> sample_buf</text>
</g>
</g>
</svg>
