<?xml version="1.0" encoding="UTF-8" standalone="no"?>
<!DOCTYPE svg PUBLIC "-//W3C//DTD SVG 1.1//EN"
 "http://www.w3.org/Graphics/SVG/1.1/DTD/svg11.dtd">
<!-- Generated by graphviz version 12.2.1 (0)
 -->
<!-- Title: platf::dxgi::display_ram_t Pages: 1 -->
<svg width="218pt" height="232pt"
 viewBox="0.00 0.00 217.50 232.00" xmlns="http://www.w3.org/2000/svg" xmlns:xlink="http://www.w3.org/1999/xlink">
<g id="graph0" class="graph" transform="scale(1 1) rotate(0) translate(4 228)">
<title>platf::dxgi::display_ram_t</title>
<!-- Node1 -->
<g id="Node000001" class="node">
<title>Node1</title>
<g id="a_Node000001"><a xlink:title=" ">
<polygon fill="#999999" stroke="#666666" points="152.5,-100 57,-100 57,-68 152.5,-68 152.5,-100"/>
<text text-anchor="start" x="65" y="-86.5" font-family="Helvetica,sans-Serif" font-size="10.00">platf::dxgi::display</text>
<text text-anchor="middle" x="104.75" y="-74.5" font-family="Helvetica,sans-Serif" font-size="10.00">_ram_t</text>
</a>
</g>
</g>
<!-- Node4 -->
<g id="Node000004" class="node">
<title>Node4</title>
<g id="a_Node000004"><a xlink:href="classplatf_1_1dxgi_1_1display__ddup__ram__t.html" target="_top" xlink:title=" ">
<polygon fill="white" stroke="#666666" points="95.5,-32 0,-32 0,0 95.5,0 95.5,-32"/>
<text text-anchor="start" x="8" y="-18.5" font-family="Helvetica,sans-Serif" font-size="10.00">platf::dxgi::display</text>
<text text-anchor="middle" x="47.75" y="-6.5" font-family="Helvetica,sans-Serif" font-size="10.00">_ddup_ram_t</text>
</a>
</g>
</g>
<!-- Node1&#45;&gt;Node4 -->
<g id="edge3_Node000001_Node000004" class="edge">
<title>Node1&#45;&gt;Node4</title>
<g id="a_edge3_Node000001_Node000004"><a xlink:title=" ">
<path fill="none" stroke="#63b8ff" d="M84.15,-59.15C76.4,-50.17 67.79,-40.21 60.9,-32.22"/>
<polygon fill="#63b8ff" stroke="#63b8ff" points="81.36,-61.27 90.54,-66.55 86.65,-56.69 81.36,-61.27"/>
</a>
</g>
</g>
<!-- Node5 -->
<g id="Node000005" class="node">
<title>Node5</title>
<g id="a_Node000005"><a xlink:href="classplatf_1_1dxgi_1_1display__wgc__ram__t.html" target="_top" xlink:title=" ">
<polygon fill="white" stroke="#666666" points="209.5,-32 114,-32 114,0 209.5,0 209.5,-32"/>
<text text-anchor="start" x="122" y="-18.5" font-family="Helvetica,sans-Serif" font-size="10.00">platf::dxgi::display</text>
<text text-anchor="middle" x="161.75" y="-6.5" font-family="Helvetica,sans-Serif" font-size="10.00">_wgc_ram_t</text>
</a>
</g>
</g>
<!-- Node1&#45;&gt;Node5 -->
<g id="edge4_Node000001_Node000005" class="edge">
<title>Node1&#45;&gt;Node5</title>
<g id="a_edge4_Node000001_Node000005"><a xlink:title=" ">
<path fill="none" stroke="#63b8ff" d="M125.35,-59.15C133.1,-50.17 141.71,-40.21 148.6,-32.22"/>
<polygon fill="#63b8ff" stroke="#63b8ff" points="122.85,-56.69 118.96,-66.55 128.14,-61.27 122.85,-56.69"/>
</a>
</g>
</g>
<!-- Node2 -->
<g id="Node000002" class="node">
<title>Node2</title>
<g id="a_Node000002"><a xlink:href="classplatf_1_1dxgi_1_1display__base__t.html" target="_top" xlink:title=" ">
<polygon fill="white" stroke="#bfbfbf" points="152.5,-168 57,-168 57,-136 152.5,-136 152.5,-168"/>
<text text-anchor="start" x="65" y="-154.5" font-family="Helvetica,sans-Serif" font-size="10.00">platf::dxgi::display</text>
<text text-anchor="middle" x="104.75" y="-142.5" font-family="Helvetica,sans-Serif" font-size="10.00">_base_t</text>
</a>
</g>
</g>
<!-- Node2&#45;&gt;Node1 -->
<g id="edge1_Node000001_Node000002" class="edge">
<title>Node2&#45;&gt;Node1</title>
<g id="a_edge1_Node000001_Node000002"><a xlink:title=" ">
<path fill="none" stroke="#63b8ff" d="M104.75,-124.31C104.75,-116.12 104.75,-107.38 104.75,-100.22"/>
<polygon fill="#63b8ff" stroke="#63b8ff" points="101.25,-124.18 104.75,-134.18 108.25,-124.18 101.25,-124.18"/>
</a>
</g>
</g>
<!-- Node3 -->
<g id="Node000003" class="node">
<title>Node3</title>
<g id="a_Node000003"><a xlink:href="classplatf_1_1display__t.html" target="_top" xlink:title=" ">
<polygon fill="white" stroke="#bfbfbf" points="144.62,-224 64.88,-224 64.88,-204 144.62,-204 144.62,-224"/>
<text text-anchor="middle" x="104.75" y="-210.5" font-family="Helvetica,sans-Serif" font-size="10.00">platf::display_t</text>
</a>
</g>
</g>
<!-- Node3&#45;&gt;Node2 -->
<g id="edge2_Node000002_Node000003" class="edge">
<title>Node3&#45;&gt;Node2</title>
<g id="a_edge2_Node000002_Node000003"><a xlink:title=" ">
<path fill="none" stroke="#63b8ff" d="M104.75,-192.31C104.75,-184.37 104.75,-175.46 104.75,-168.14"/>
<polygon fill="#63b8ff" stroke="#63b8ff" points="101.25,-192.11 104.75,-202.11 108.25,-192.11 101.25,-192.11"/>
</a>
</g>
</g>
</g>
</svg>
