<?xml version="1.0" encoding="UTF-8" standalone="no"?>
<!DOCTYPE svg PUBLIC "-//W3C//DTD SVG 1.1//EN"
 "http://www.w3.org/Graphics/SVG/1.1/DTD/svg11.dtd">
<!-- Generated by graphviz version 12.2.1 (0)
 -->
<!-- Title: wl::wlr_vram_t Pages: 1 -->
<svg width="398pt" height="301pt"
 viewBox="0.00 0.00 397.88 301.00" xmlns="http://www.w3.org/2000/svg" xmlns:xlink="http://www.w3.org/1999/xlink">
<g id="graph0" class="graph" transform="scale(1 1) rotate(0) translate(4 297)">
<title>wl::wlr_vram_t</title>
<!-- Node1 -->
<g id="Node000001" class="node">
<title>Node1</title>
<g id="a_Node000001"><a xlink:title=" ">
<polygon fill="#999999" stroke="#666666" points="227.75,-20 148,-20 148,0 227.75,0 227.75,-20"/>
<text text-anchor="middle" x="187.88" y="-6.5" font-family="Helvetica,sans-Serif" font-size="10.00">wl::wlr_vram_t</text>
</a>
</g>
</g>
<!-- Node2 -->
<g id="Node000002" class="node">
<title>Node2</title>
<g id="a_Node000002"><a xlink:href="classwl_1_1wlr__t.html" target="_top" xlink:title=" ">
<polygon fill="white" stroke="#bfbfbf" points="214.25,-77 161.5,-77 161.5,-57 214.25,-57 214.25,-77"/>
<text text-anchor="middle" x="187.88" y="-63.5" font-family="Helvetica,sans-Serif" font-size="10.00">wl::wlr_t</text>
</a>
</g>
</g>
<!-- Node2&#45;&gt;Node1 -->
<g id="edge1_Node000001_Node000002" class="edge">
<title>Node2&#45;&gt;Node1</title>
<g id="a_edge1_Node000001_Node000002"><a xlink:title=" ">
<path fill="none" stroke="#63b8ff" d="M187.88,-45.69C187.88,-36.97 187.88,-27.22 187.88,-20.28"/>
<polygon fill="#63b8ff" stroke="#63b8ff" points="184.38,-45.4 187.88,-55.4 191.38,-45.4 184.38,-45.4"/>
</a>
</g>
</g>
<!-- Node3 -->
<g id="Node000003" class="node">
<title>Node3</title>
<g id="a_Node000003"><a xlink:href="classplatf_1_1display__t.html" target="_top" xlink:title=" ">
<polygon fill="white" stroke="#bfbfbf" points="88.75,-145 9,-145 9,-125 88.75,-125 88.75,-145"/>
<text text-anchor="middle" x="48.88" y="-131.5" font-family="Helvetica,sans-Serif" font-size="10.00">platf::display_t</text>
</a>
</g>
</g>
<!-- Node3&#45;&gt;Node2 -->
<g id="edge2_Node000002_Node000003" class="edge">
<title>Node3&#45;&gt;Node2</title>
<g id="a_edge2_Node000002_Node000003"><a xlink:title=" ">
<path fill="none" stroke="#63b8ff" d="M78.84,-119.77C105.81,-106.97 144.69,-88.51 168,-77.44"/>
<polygon fill="#63b8ff" stroke="#63b8ff" points="77.69,-116.44 70.16,-123.89 80.69,-122.77 77.69,-116.44"/>
</a>
</g>
</g>
<!-- Node4 -->
<g id="Node000004" class="node">
<title>Node4</title>
<g id="a_Node000004"><a xlink:href="classlogging_1_1time__delta__periodic__logger.html" target="_top" xlink:title="A helper class for tracking and logging short time intervals across a period of time.">
<polygon fill="white" stroke="#666666" points="97.75,-225 0,-225 0,-193 97.75,-193 97.75,-225"/>
<text text-anchor="start" x="8" y="-211.5" font-family="Helvetica,sans-Serif" font-size="10.00">logging::time_delta</text>
<text text-anchor="middle" x="48.88" y="-199.5" font-family="Helvetica,sans-Serif" font-size="10.00">_periodic_logger</text>
</a>
</g>
</g>
<!-- Node4&#45;&gt;Node3 -->
<g id="edge3_Node000003_Node000004" class="edge">
<title>Node4&#45;&gt;Node3</title>
<g id="a_edge3_Node000003_Node000004"><a xlink:title=" ">
<path fill="none" stroke="#9a32cd" stroke-dasharray="5,2" d="M48.88,-181.34C48.88,-168.7 48.88,-154.41 48.88,-145.31"/>
<polygon fill="#9a32cd" stroke="#9a32cd" points="45.38,-181.22 48.88,-191.22 52.38,-181.22 45.38,-181.22"/>
</a>
</g>
<text text-anchor="middle" x="101.75" y="-165.5" font-family="Helvetica,sans-Serif" font-size="10.00" fill="grey"> sleep_overshoot_logger</text>
</g>
<!-- Node5 -->
<g id="Node000005" class="node">
<title>Node5</title>
<g id="a_Node000005"><a xlink:href="classwl_1_1display__t.html" target="_top" xlink:title=" ">
<polygon fill="white" stroke="#bfbfbf" points="177.25,-145 106.5,-145 106.5,-125 177.25,-125 177.25,-145"/>
<text text-anchor="middle" x="141.88" y="-131.5" font-family="Helvetica,sans-Serif" font-size="10.00">wl::display_t</text>
</a>
</g>
</g>
<!-- Node5&#45;&gt;Node2 -->
<g id="edge4_Node000002_Node000005" class="edge">
<title>Node5&#45;&gt;Node2</title>
<g id="a_edge4_Node000002_Node000005"><a xlink:title=" ">
<path fill="none" stroke="#9a32cd" stroke-dasharray="5,2" d="M155.01,-115.15C163.61,-102.82 174.47,-87.23 181.3,-77.44"/>
<polygon fill="#9a32cd" stroke="#9a32cd" points="152.18,-113.1 149.33,-123.3 157.92,-117.1 152.18,-113.1"/>
</a>
</g>
<text text-anchor="middle" x="185.87" y="-97.5" font-family="Helvetica,sans-Serif" font-size="10.00" fill="grey"> display</text>
</g>
<!-- Node6 -->
<g id="Node000006" class="node">
<title>Node6</title>
<g id="a_Node000006"><a xlink:href="classwl_1_1interface__t.html" target="_top" xlink:title=" ">
<polygon fill="white" stroke="#bfbfbf" points="272.62,-145 195.12,-145 195.12,-125 272.62,-125 272.62,-145"/>
<text text-anchor="middle" x="233.88" y="-131.5" font-family="Helvetica,sans-Serif" font-size="10.00">wl::interface_t</text>
</a>
</g>
</g>
<!-- Node6&#45;&gt;Node2 -->
<g id="edge5_Node000002_Node000006" class="edge">
<title>Node6&#45;&gt;Node2</title>
<g id="a_edge5_Node000002_Node000006"><a xlink:title=" ">
<path fill="none" stroke="#9a32cd" stroke-dasharray="5,2" d="M221.05,-115.42C216.58,-108.95 211.51,-101.65 206.88,-95 202.81,-89.17 198.22,-82.66 194.58,-77.48"/>
<polygon fill="#9a32cd" stroke="#9a32cd" points="218.03,-117.2 226.6,-123.44 223.79,-113.23 218.03,-117.2"/>
</a>
</g>
<text text-anchor="middle" x="235.32" y="-97.5" font-family="Helvetica,sans-Serif" font-size="10.00" fill="grey"> interface</text>
</g>
<!-- Node7 -->
<g id="Node000007" class="node">
<title>Node7</title>
<g id="a_Node000007"><a xlink:href="classwl_1_1dmabuf__t.html" target="_top" xlink:title=" ">
<polygon fill="white" stroke="#bfbfbf" points="363,-145 290.75,-145 290.75,-125 363,-125 363,-145"/>
<text text-anchor="middle" x="326.88" y="-131.5" font-family="Helvetica,sans-Serif" font-size="10.00">wl::dmabuf_t</text>
</a>
</g>
</g>
<!-- Node7&#45;&gt;Node2 -->
<g id="edge6_Node000002_Node000007" class="edge">
<title>Node7&#45;&gt;Node2</title>
<g id="a_edge6_Node000002_Node000007"><a xlink:title=" ">
<path fill="none" stroke="#9a32cd" stroke-dasharray="5,2" d="M302.69,-118.59C290.18,-110.97 274.51,-101.94 259.88,-95 245.28,-88.08 228.4,-81.67 214.65,-76.83"/>
<polygon fill="#9a32cd" stroke="#9a32cd" points="300.73,-121.5 311.07,-123.79 304.42,-115.55 300.73,-121.5"/>
</a>
</g>
<text text-anchor="middle" x="300.17" y="-97.5" font-family="Helvetica,sans-Serif" font-size="10.00" fill="grey"> dmabuf</text>
</g>
<!-- Node8 -->
<g id="Node000008" class="node">
<title>Node8</title>
<g id="a_Node000008"><a xlink:href="classwl_1_1frame__t.html" target="_top" xlink:title=" ">
<polygon fill="white" stroke="#bfbfbf" points="359.25,-219 294.5,-219 294.5,-199 359.25,-199 359.25,-219"/>
<text text-anchor="middle" x="326.88" y="-205.5" font-family="Helvetica,sans-Serif" font-size="10.00">wl::frame_t</text>
</a>
</g>
</g>
<!-- Node8&#45;&gt;Node7 -->
<g id="edge7_Node000007_Node000008" class="edge">
<title>Node8&#45;&gt;Node7</title>
<g id="a_edge7_Node000007_Node000008"><a xlink:title=" ">
<path fill="none" stroke="#9a32cd" stroke-dasharray="5,2" d="M326.88,-187.18C326.88,-173.29 326.88,-155.71 326.88,-145.19"/>
<polygon fill="#9a32cd" stroke="#9a32cd" points="323.38,-187.07 326.88,-197.07 330.38,-187.07 323.38,-187.07"/>
</a>
</g>
<text text-anchor="middle" x="358.38" y="-165.5" font-family="Helvetica,sans-Serif" font-size="10.00" fill="grey"> current_frame</text>
</g>
<!-- Node9 -->
<g id="Node000009" class="node">
<title>Node9</title>
<g id="a_Node000009"><a xlink:href="structegl_1_1surface__descriptor__t.html" target="_top" xlink:title=" ">
<polygon fill="white" stroke="#bfbfbf" points="388.5,-293 265.25,-293 265.25,-273 388.5,-273 388.5,-293"/>
<text text-anchor="middle" x="326.88" y="-279.5" font-family="Helvetica,sans-Serif" font-size="10.00">egl::surface_descriptor_t</text>
</a>
</g>
</g>
<!-- Node9&#45;&gt;Node8 -->
<g id="edge8_Node000008_Node000009" class="edge">
<title>Node9&#45;&gt;Node8</title>
<g id="a_edge8_Node000008_Node000009"><a xlink:title=" ">
<path fill="none" stroke="#9a32cd" stroke-dasharray="5,2" d="M326.88,-261.18C326.88,-247.29 326.88,-229.71 326.88,-219.19"/>
<polygon fill="#9a32cd" stroke="#9a32cd" points="323.38,-261.07 326.88,-271.07 330.38,-261.07 323.38,-261.07"/>
</a>
</g>
<text text-anchor="middle" x="333.62" y="-245.5" font-family="Helvetica,sans-Serif" font-size="10.00" fill="grey"> sd</text>
</g>
</g>
</svg>
