<?xml version="1.0" encoding="UTF-8" standalone="no"?>
<!DOCTYPE svg PUBLIC "-//W3C//DTD SVG 1.1//EN"
 "http://www.w3.org/Graphics/SVG/1.1/DTD/svg11.dtd">
<!-- Generated by graphviz version 12.2.1 (0)
 -->
<!-- Title: platf::display_t Pages: 1 -->
<svg width="500pt" height="354pt"
 viewBox="0.00 0.00 499.50 354.00" xmlns="http://www.w3.org/2000/svg" xmlns:xlink="http://www.w3.org/1999/xlink">
<g id="graph0" class="graph" transform="scale(1 1) rotate(0) translate(4 350)">
<title>platf::display_t</title>
<!-- Node1 -->
<g id="Node000001" class="node">
<title>Node1</title>
<g id="a_Node000001"><a xlink:title=" ">
<polygon fill="#999999" stroke="#666666" points="79.75,-187 0,-187 0,-167 79.75,-167 79.75,-187"/>
<text text-anchor="middle" x="39.88" y="-173.5" font-family="Helvetica,sans-Serif" font-size="10.00">platf::display_t</text>
</a>
</g>
</g>
<!-- Node2 -->
<g id="Node000002" class="node">
<title>Node2</title>
<g id="a_Node000002"><a xlink:href="classcuda_1_1nvfbc_1_1display__t.html" target="_top" xlink:title=" ">
<polygon fill="white" stroke="#bfbfbf" points="227.75,-291 115.75,-291 115.75,-271 227.75,-271 227.75,-291"/>
<text text-anchor="middle" x="171.75" y="-277.5" font-family="Helvetica,sans-Serif" font-size="10.00">cuda::nvfbc::display_t</text>
</a>
</g>
</g>
<!-- Node1&#45;&gt;Node2 -->
<g id="edge1_Node000001_Node000002" class="edge">
<title>Node1&#45;&gt;Node2</title>
<g id="a_edge1_Node000001_Node000002"><a xlink:title=" ">
<path fill="none" stroke="#63b8ff" d="M53.7,-196.73C67.08,-215.89 89.72,-244.55 115.75,-262 120.78,-265.38 126.48,-268.21 132.25,-270.58"/>
<polygon fill="#63b8ff" stroke="#63b8ff" points="56.77,-195.02 48.27,-188.7 50.97,-198.94 56.77,-195.02"/>
</a>
</g>
</g>
<!-- Node3 -->
<g id="Node000003" class="node">
<title>Node3</title>
<g id="a_Node000003"><a xlink:href="structplatf_1_1av__display__t.html" target="_top" xlink:title=" ">
<polygon fill="white" stroke="#bfbfbf" points="219.5,-253 124,-253 124,-233 219.5,-233 219.5,-253"/>
<text text-anchor="middle" x="171.75" y="-239.5" font-family="Helvetica,sans-Serif" font-size="10.00">platf::av_display_t</text>
</a>
</g>
</g>
<!-- Node1&#45;&gt;Node3 -->
<g id="edge2_Node000001_Node000003" class="edge">
<title>Node1&#45;&gt;Node3</title>
<g id="a_edge2_Node000001_Node000003"><a xlink:title=" ">
<path fill="none" stroke="#63b8ff" d="M64.36,-193.69C78.73,-203.4 97.75,-215.38 115.75,-224 122.31,-227.14 129.53,-230.02 136.52,-232.53"/>
<polygon fill="#63b8ff" stroke="#63b8ff" points="66.69,-191.04 56.47,-188.26 62.72,-196.81 66.69,-191.04"/>
</a>
</g>
</g>
<!-- Node4 -->
<g id="Node000004" class="node">
<title>Node4</title>
<g id="a_Node000004"><a xlink:href="classplatf_1_1dxgi_1_1display__base__t.html" target="_top" xlink:title=" ">
<polygon fill="white" stroke="#bfbfbf" points="219.5,-215 124,-215 124,-183 219.5,-183 219.5,-215"/>
<text text-anchor="start" x="132" y="-201.5" font-family="Helvetica,sans-Serif" font-size="10.00">platf::dxgi::display</text>
<text text-anchor="middle" x="171.75" y="-189.5" font-family="Helvetica,sans-Serif" font-size="10.00">_base_t</text>
</a>
</g>
</g>
<!-- Node1&#45;&gt;Node4 -->
<g id="edge3_Node000001_Node000004" class="edge">
<title>Node1&#45;&gt;Node4</title>
<g id="a_edge3_Node000001_Node000004"><a xlink:title=" ">
<path fill="none" stroke="#63b8ff" d="M91.47,-185.57C102.11,-187.37 113.29,-189.27 123.79,-191.04"/>
<polygon fill="#63b8ff" stroke="#63b8ff" points="92.13,-182.13 81.69,-183.91 90.96,-189.03 92.13,-182.13"/>
</a>
</g>
</g>
<!-- Node11 -->
<g id="Node000011" class="node">
<title>Node11</title>
<g id="a_Node000011"><a xlink:href="classplatf_1_1kms_1_1display__t.html" target="_top" xlink:title=" ">
<polygon fill="white" stroke="#bfbfbf" points="224,-165 119.5,-165 119.5,-145 224,-145 224,-165"/>
<text text-anchor="middle" x="171.75" y="-151.5" font-family="Helvetica,sans-Serif" font-size="10.00">platf::kms::display_t</text>
</a>
</g>
</g>
<!-- Node1&#45;&gt;Node11 -->
<g id="edge10_Node000001_Node000011" class="edge">
<title>Node1&#45;&gt;Node11</title>
<g id="a_edge10_Node000001_Node000011"><a xlink:title=" ">
<path fill="none" stroke="#63b8ff" d="M91.42,-168.44C100.5,-166.9 109.98,-165.29 119.08,-163.75"/>
<polygon fill="#63b8ff" stroke="#63b8ff" points="90.96,-164.97 81.69,-170.09 92.13,-171.87 90.96,-164.97"/>
</a>
</g>
</g>
<!-- Node14 -->
<g id="Node000014" class="node">
<title>Node14</title>
<g id="a_Node000014"><a xlink:href="structplatf_1_1x11__attr__t.html" target="_top" xlink:title=" ">
<polygon fill="white" stroke="#bfbfbf" points="213.5,-124 130,-124 130,-104 213.5,-104 213.5,-124"/>
<text text-anchor="middle" x="171.75" y="-110.5" font-family="Helvetica,sans-Serif" font-size="10.00">platf::x11_attr_t</text>
</a>
</g>
</g>
<!-- Node1&#45;&gt;Node14 -->
<g id="edge13_Node000001_Node000014" class="edge">
<title>Node1&#45;&gt;Node14</title>
<g id="a_edge13_Node000001_Node000014"><a xlink:title=" ">
<path fill="none" stroke="#63b8ff" d="M68.36,-160.91C82.34,-153 99.73,-143.56 115.75,-136 124.4,-131.92 134.02,-127.9 142.77,-124.44"/>
<polygon fill="#63b8ff" stroke="#63b8ff" points="66.66,-157.85 59.73,-165.86 70.14,-163.92 66.66,-157.85"/>
</a>
</g>
</g>
<!-- Node16 -->
<g id="Node000016" class="node">
<title>Node16</title>
<g id="a_Node000016"><a xlink:href="classwl_1_1wlr__t.html" target="_top" xlink:title=" ">
<polygon fill="white" stroke="#bfbfbf" points="198.12,-58 145.38,-58 145.38,-38 198.12,-38 198.12,-58"/>
<text text-anchor="middle" x="171.75" y="-44.5" font-family="Helvetica,sans-Serif" font-size="10.00">wl::wlr_t</text>
</a>
</g>
</g>
<!-- Node1&#45;&gt;Node16 -->
<g id="edge15_Node000001_Node000016" class="edge">
<title>Node1&#45;&gt;Node16</title>
<g id="a_edge15_Node000001_Node000016"><a xlink:title=" ">
<path fill="none" stroke="#63b8ff" d="M57.03,-158.01C71.78,-140.98 94.48,-115.59 115.75,-95 129.47,-81.72 146.29,-67.64 157.69,-58.39"/>
<polygon fill="#63b8ff" stroke="#63b8ff" points="54.56,-155.51 50.69,-165.37 59.87,-160.07 54.56,-155.51"/>
</a>
</g>
</g>
<!-- Node5 -->
<g id="Node000005" class="node">
<title>Node5</title>
<g id="a_Node000005"><a xlink:href="classplatf_1_1dxgi_1_1display__ram__t.html" target="_top" xlink:title=" ">
<polygon fill="white" stroke="#666666" points="359.62,-296 264.12,-296 264.12,-264 359.62,-264 359.62,-296"/>
<text text-anchor="start" x="272.12" y="-282.5" font-family="Helvetica,sans-Serif" font-size="10.00">platf::dxgi::display</text>
<text text-anchor="middle" x="311.88" y="-270.5" font-family="Helvetica,sans-Serif" font-size="10.00">_ram_t</text>
</a>
</g>
</g>
<!-- Node4&#45;&gt;Node5 -->
<g id="edge4_Node000004_Node000005" class="edge">
<title>Node4&#45;&gt;Node5</title>
<g id="a_edge4_Node000004_Node000005"><a xlink:title=" ">
<path fill="none" stroke="#63b8ff" d="M222.22,-220.65C224.11,-221.74 225.96,-222.86 227.75,-224 245.54,-235.37 246.32,-243.09 263.75,-255 268.11,-257.98 272.86,-260.87 277.62,-263.56"/>
<polygon fill="#63b8ff" stroke="#63b8ff" points="224.33,-217.8 213.86,-216.15 221.01,-223.97 224.33,-217.8"/>
</a>
</g>
</g>
<!-- Node8 -->
<g id="Node000008" class="node">
<title>Node8</title>
<g id="a_Node000008"><a xlink:href="classplatf_1_1dxgi_1_1display__vram__t.html" target="_top" xlink:title=" ">
<polygon fill="white" stroke="#666666" points="359.62,-246 264.12,-246 264.12,-214 359.62,-214 359.62,-246"/>
<text text-anchor="start" x="272.12" y="-232.5" font-family="Helvetica,sans-Serif" font-size="10.00">platf::dxgi::display</text>
<text text-anchor="middle" x="311.88" y="-220.5" font-family="Helvetica,sans-Serif" font-size="10.00">_vram_t</text>
</a>
</g>
</g>
<!-- Node4&#45;&gt;Node8 -->
<g id="edge7_Node000004_Node000008" class="edge">
<title>Node4&#45;&gt;Node8</title>
<g id="a_edge7_Node000004_Node000008"><a xlink:title=" ">
<path fill="none" stroke="#63b8ff" d="M231.13,-212.1C242.08,-214.56 253.39,-217.1 263.94,-219.47"/>
<polygon fill="#63b8ff" stroke="#63b8ff" points="231.9,-208.69 221.38,-209.91 230.37,-215.52 231.9,-208.69"/>
</a>
</g>
</g>
<!-- Node6 -->
<g id="Node000006" class="node">
<title>Node6</title>
<g id="a_Node000006"><a xlink:href="classplatf_1_1dxgi_1_1display__ddup__ram__t.html" target="_top" xlink:title=" ">
<polygon fill="white" stroke="#666666" points="491.5,-346 396,-346 396,-314 491.5,-314 491.5,-346"/>
<text text-anchor="start" x="404" y="-332.5" font-family="Helvetica,sans-Serif" font-size="10.00">platf::dxgi::display</text>
<text text-anchor="middle" x="443.75" y="-320.5" font-family="Helvetica,sans-Serif" font-size="10.00">_ddup_ram_t</text>
</a>
</g>
</g>
<!-- Node5&#45;&gt;Node6 -->
<g id="edge5_Node000005_Node000006" class="edge">
<title>Node5&#45;&gt;Node6</title>
<g id="a_edge5_Node000005_Node000006"><a xlink:title=" ">
<path fill="none" stroke="#63b8ff" d="M366.07,-300.48C377.41,-304.85 389.25,-309.4 400.13,-313.59"/>
<polygon fill="#63b8ff" stroke="#63b8ff" points="367.4,-297.24 356.81,-296.92 364.89,-303.77 367.4,-297.24"/>
</a>
</g>
</g>
<!-- Node7 -->
<g id="Node000007" class="node">
<title>Node7</title>
<g id="a_Node000007"><a xlink:href="classplatf_1_1dxgi_1_1display__wgc__ram__t.html" target="_top" xlink:title=" ">
<polygon fill="white" stroke="#666666" points="491.5,-296 396,-296 396,-264 491.5,-264 491.5,-296"/>
<text text-anchor="start" x="404" y="-282.5" font-family="Helvetica,sans-Serif" font-size="10.00">platf::dxgi::display</text>
<text text-anchor="middle" x="443.75" y="-270.5" font-family="Helvetica,sans-Serif" font-size="10.00">_wgc_ram_t</text>
</a>
</g>
</g>
<!-- Node5&#45;&gt;Node7 -->
<g id="edge6_Node000005_Node000007" class="edge">
<title>Node5&#45;&gt;Node7</title>
<g id="a_edge6_Node000005_Node000007"><a xlink:title=" ">
<path fill="none" stroke="#63b8ff" d="M371,-280C379.34,-280 387.84,-280 395.93,-280"/>
<polygon fill="#63b8ff" stroke="#63b8ff" points="371.28,-276.5 361.28,-280 371.28,-283.5 371.28,-276.5"/>
</a>
</g>
</g>
<!-- Node9 -->
<g id="Node000009" class="node">
<title>Node9</title>
<g id="a_Node000009"><a xlink:href="classplatf_1_1dxgi_1_1display__ddup__vram__t.html" target="_top" xlink:title=" ">
<polygon fill="white" stroke="#666666" points="491.5,-246 396,-246 396,-214 491.5,-214 491.5,-246"/>
<text text-anchor="start" x="404" y="-232.5" font-family="Helvetica,sans-Serif" font-size="10.00">platf::dxgi::display</text>
<text text-anchor="middle" x="443.75" y="-220.5" font-family="Helvetica,sans-Serif" font-size="10.00">_ddup_vram_t</text>
</a>
</g>
</g>
<!-- Node8&#45;&gt;Node9 -->
<g id="edge8_Node000008_Node000009" class="edge">
<title>Node8&#45;&gt;Node9</title>
<g id="a_edge8_Node000008_Node000009"><a xlink:title=" ">
<path fill="none" stroke="#63b8ff" d="M371,-230C379.34,-230 387.84,-230 395.93,-230"/>
<polygon fill="#63b8ff" stroke="#63b8ff" points="371.28,-226.5 361.28,-230 371.28,-233.5 371.28,-226.5"/>
</a>
</g>
</g>
<!-- Node10 -->
<g id="Node000010" class="node">
<title>Node10</title>
<g id="a_Node000010"><a xlink:href="classplatf_1_1dxgi_1_1display__wgc__vram__t.html" target="_top" xlink:title=" ">
<polygon fill="white" stroke="#666666" points="491.5,-196 396,-196 396,-164 491.5,-164 491.5,-196"/>
<text text-anchor="start" x="404" y="-182.5" font-family="Helvetica,sans-Serif" font-size="10.00">platf::dxgi::display</text>
<text text-anchor="middle" x="443.75" y="-170.5" font-family="Helvetica,sans-Serif" font-size="10.00">_wgc_vram_t</text>
</a>
</g>
</g>
<!-- Node8&#45;&gt;Node10 -->
<g id="edge9_Node000008_Node000010" class="edge">
<title>Node8&#45;&gt;Node10</title>
<g id="a_edge9_Node000008_Node000010"><a xlink:title=" ">
<path fill="none" stroke="#63b8ff" d="M366.07,-209.52C377.41,-205.15 389.25,-200.6 400.13,-196.41"/>
<polygon fill="#63b8ff" stroke="#63b8ff" points="364.89,-206.23 356.81,-213.08 367.4,-212.76 364.89,-206.23"/>
</a>
</g>
</g>
<!-- Node12 -->
<g id="Node000012" class="node">
<title>Node12</title>
<g id="a_Node000012"><a xlink:href="classplatf_1_1kms_1_1display__ram__t.html" target="_top" xlink:title=" ">
<polygon fill="white" stroke="#bfbfbf" points="360,-196 263.75,-196 263.75,-164 360,-164 360,-196"/>
<text text-anchor="start" x="271.75" y="-182.5" font-family="Helvetica,sans-Serif" font-size="10.00">platf::kms::display</text>
<text text-anchor="middle" x="311.88" y="-170.5" font-family="Helvetica,sans-Serif" font-size="10.00">_ram_t</text>
</a>
</g>
</g>
<!-- Node11&#45;&gt;Node12 -->
<g id="edge11_Node000011_Node000012" class="edge">
<title>Node11&#45;&gt;Node12</title>
<g id="a_edge11_Node000011_Node000012"><a xlink:title=" ">
<path fill="none" stroke="#63b8ff" d="M235.22,-166.31C244.72,-168.03 254.4,-169.78 263.51,-171.43"/>
<polygon fill="#63b8ff" stroke="#63b8ff" points="236.14,-162.92 225.67,-164.58 234.89,-169.8 236.14,-162.92"/>
</a>
</g>
</g>
<!-- Node13 -->
<g id="Node000013" class="node">
<title>Node13</title>
<g id="a_Node000013"><a xlink:href="classplatf_1_1kms_1_1display__vram__t.html" target="_top" xlink:title=" ">
<polygon fill="white" stroke="#bfbfbf" points="360,-146 263.75,-146 263.75,-114 360,-114 360,-146"/>
<text text-anchor="start" x="271.75" y="-132.5" font-family="Helvetica,sans-Serif" font-size="10.00">platf::kms::display</text>
<text text-anchor="middle" x="311.88" y="-120.5" font-family="Helvetica,sans-Serif" font-size="10.00">_vram_t</text>
</a>
</g>
</g>
<!-- Node11&#45;&gt;Node13 -->
<g id="edge12_Node000011_Node000013" class="edge">
<title>Node11&#45;&gt;Node13</title>
<g id="a_edge12_Node000011_Node000013"><a xlink:title=" ">
<path fill="none" stroke="#63b8ff" d="M235.22,-143.69C244.72,-141.97 254.4,-140.22 263.51,-138.57"/>
<polygon fill="#63b8ff" stroke="#63b8ff" points="234.89,-140.2 225.67,-145.42 236.14,-147.08 234.89,-140.2"/>
</a>
</g>
</g>
<!-- Node15 -->
<g id="Node000015" class="node">
<title>Node15</title>
<g id="a_Node000015"><a xlink:href="structplatf_1_1shm__attr__t.html" target="_top" xlink:title=" ">
<polygon fill="white" stroke="#bfbfbf" points="355.5,-96 268.25,-96 268.25,-76 355.5,-76 355.5,-96"/>
<text text-anchor="middle" x="311.88" y="-82.5" font-family="Helvetica,sans-Serif" font-size="10.00">platf::shm_attr_t</text>
</a>
</g>
</g>
<!-- Node14&#45;&gt;Node15 -->
<g id="edge14_Node000014_Node000015" class="edge">
<title>Node14&#45;&gt;Node15</title>
<g id="a_edge14_Node000014_Node000015"><a xlink:title=" ">
<path fill="none" stroke="#63b8ff" d="M224.9,-103.43C239.05,-100.56 254.22,-97.49 267.81,-94.73"/>
<polygon fill="#63b8ff" stroke="#63b8ff" points="224.41,-99.96 215.3,-105.37 225.8,-106.82 224.41,-99.96"/>
</a>
</g>
</g>
<!-- Node17 -->
<g id="Node000017" class="node">
<title>Node17</title>
<g id="a_Node000017"><a xlink:href="classwl_1_1wlr__ram__t.html" target="_top" xlink:title=" ">
<polygon fill="white" stroke="#bfbfbf" points="349.12,-58 274.62,-58 274.62,-38 349.12,-38 349.12,-58"/>
<text text-anchor="middle" x="311.88" y="-44.5" font-family="Helvetica,sans-Serif" font-size="10.00">wl::wlr_ram_t</text>
</a>
</g>
</g>
<!-- Node16&#45;&gt;Node17 -->
<g id="edge16_Node000016_Node000017" class="edge">
<title>Node16&#45;&gt;Node17</title>
<g id="a_edge16_Node000016_Node000017"><a xlink:title=" ">
<path fill="none" stroke="#63b8ff" d="M209.85,-48C229.78,-48 254.28,-48 274.16,-48"/>
<polygon fill="#63b8ff" stroke="#63b8ff" points="209.92,-44.5 199.92,-48 209.92,-51.5 209.92,-44.5"/>
</a>
</g>
</g>
<!-- Node18 -->
<g id="Node000018" class="node">
<title>Node18</title>
<g id="a_Node000018"><a xlink:href="classwl_1_1wlr__vram__t.html" target="_top" xlink:title=" ">
<polygon fill="white" stroke="#bfbfbf" points="351.75,-20 272,-20 272,0 351.75,0 351.75,-20"/>
<text text-anchor="middle" x="311.88" y="-6.5" font-family="Helvetica,sans-Serif" font-size="10.00">wl::wlr_vram_t</text>
</a>
</g>
</g>
<!-- Node16&#45;&gt;Node18 -->
<g id="edge17_Node000016_Node000018" class="edge">
<title>Node16&#45;&gt;Node18</title>
<g id="a_edge17_Node000016_Node000018"><a xlink:title=" ">
<path fill="none" stroke="#63b8ff" d="M209.35,-37.93C228.94,-32.54 253.04,-25.91 272.84,-20.46"/>
<polygon fill="#63b8ff" stroke="#63b8ff" points="208.58,-34.51 199.87,-40.54 210.44,-41.26 208.58,-34.51"/>
</a>
</g>
</g>
</g>
</svg>
