<?xml version="1.0" encoding="UTF-8" standalone="no"?>
<!DOCTYPE svg PUBLIC "-//W3C//DTD SVG 1.1//EN"
 "http://www.w3.org/Graphics/SVG/1.1/DTD/svg11.dtd">
<!-- Generated by graphviz version 12.2.1 (0)
 -->
<!-- Title: platf::dxgi::d3d_nvenc_encode_device_t Pages: 1 -->
<svg width="122pt" height="164pt"
 viewBox="0.00 0.00 122.25 164.00" xmlns="http://www.w3.org/2000/svg" xmlns:xlink="http://www.w3.org/1999/xlink">
<g id="graph0" class="graph" transform="scale(1 1) rotate(0) translate(4 160)">
<title>platf::dxgi::d3d_nvenc_encode_device_t</title>
<!-- Node1 -->
<g id="Node000001" class="node">
<title>Node1</title>
<g id="a_Node000001"><a xlink:title=" ">
<polygon fill="#999999" stroke="#666666" points="113.12,-32 1.12,-32 1.12,0 113.12,0 113.12,-32"/>
<text text-anchor="start" x="9.12" y="-18.5" font-family="Helvetica,sans-Serif" font-size="10.00">platf::dxgi::d3d_nvenc</text>
<text text-anchor="middle" x="57.12" y="-6.5" font-family="Helvetica,sans-Serif" font-size="10.00">_encode_device_t</text>
</a>
</g>
</g>
<!-- Node2 -->
<g id="Node000002" class="node">
<title>Node2</title>
<g id="a_Node000002"><a xlink:href="structplatf_1_1nvenc__encode__device__t.html" target="_top" xlink:title=" ">
<polygon fill="white" stroke="#bfbfbf" points="109,-100 5.25,-100 5.25,-68 109,-68 109,-100"/>
<text text-anchor="start" x="13.25" y="-86.5" font-family="Helvetica,sans-Serif" font-size="10.00">platf::nvenc_encode</text>
<text text-anchor="middle" x="57.12" y="-74.5" font-family="Helvetica,sans-Serif" font-size="10.00">_device_t</text>
</a>
</g>
</g>
<!-- Node2&#45;&gt;Node1 -->
<g id="edge1_Node000001_Node000002" class="edge">
<title>Node2&#45;&gt;Node1</title>
<g id="a_edge1_Node000001_Node000002"><a xlink:title=" ">
<path fill="none" stroke="#63b8ff" d="M57.12,-56.31C57.12,-48.12 57.12,-39.38 57.12,-32.22"/>
<polygon fill="#63b8ff" stroke="#63b8ff" points="53.63,-56.18 57.13,-66.18 60.63,-56.18 53.63,-56.18"/>
</a>
</g>
</g>
<!-- Node3 -->
<g id="Node000003" class="node">
<title>Node3</title>
<g id="a_Node000003"><a xlink:href="structplatf_1_1encode__device__t.html" target="_top" xlink:title=" ">
<polygon fill="white" stroke="#bfbfbf" points="114.25,-156 0,-156 0,-136 114.25,-136 114.25,-156"/>
<text text-anchor="middle" x="57.12" y="-142.5" font-family="Helvetica,sans-Serif" font-size="10.00">platf::encode_device_t</text>
</a>
</g>
</g>
<!-- Node3&#45;&gt;Node2 -->
<g id="edge2_Node000002_Node000003" class="edge">
<title>Node3&#45;&gt;Node2</title>
<g id="a_edge2_Node000002_Node000003"><a xlink:title=" ">
<path fill="none" stroke="#63b8ff" d="M57.12,-124.31C57.12,-116.37 57.12,-107.46 57.12,-100.14"/>
<polygon fill="#63b8ff" stroke="#63b8ff" points="53.63,-124.11 57.13,-134.11 60.63,-124.11 53.63,-124.11"/>
</a>
</g>
</g>
</g>
</svg>
