<?xml version="1.0" encoding="UTF-8" standalone="no"?>
<!DOCTYPE svg PUBLIC "-//W3C//DTD SVG 1.1//EN"
 "http://www.w3.org/Graphics/SVG/1.1/DTD/svg11.dtd">
<!-- Generated by graphviz version 12.2.1 (0)
 -->
<!-- Title: va::va_t Pages: 1 -->
<svg width="178pt" height="208pt"
 viewBox="0.00 0.00 177.62 208.00" xmlns="http://www.w3.org/2000/svg" xmlns:xlink="http://www.w3.org/1999/xlink">
<g id="graph0" class="graph" transform="scale(1 1) rotate(0) translate(4 204)">
<title>va::va_t</title>
<!-- Node1 -->
<g id="Node000001" class="node">
<title>Node1</title>
<g id="a_Node000001"><a xlink:title=" ">
<polygon fill="#999999" stroke="#666666" points="109.12,-76 57.88,-76 57.88,-56 109.12,-56 109.12,-76"/>
<text text-anchor="middle" x="83.5" y="-62.5" font-family="Helvetica,sans-Serif" font-size="10.00">va::va_t</text>
</a>
</g>
</g>
<!-- Node4 -->
<g id="Node000004" class="node">
<title>Node4</title>
<g id="a_Node000004"><a xlink:href="classva_1_1va__ram__t.html" target="_top" xlink:title=" ">
<polygon fill="white" stroke="#bfbfbf" points="73,-20 0,-20 0,0 73,0 73,-20"/>
<text text-anchor="middle" x="36.5" y="-6.5" font-family="Helvetica,sans-Serif" font-size="10.00">va::va_ram_t</text>
</a>
</g>
</g>
<!-- Node1&#45;&gt;Node4 -->
<g id="edge3_Node000001_Node000004" class="edge">
<title>Node1&#45;&gt;Node4</title>
<g id="a_edge3_Node000001_Node000004"><a xlink:title=" ">
<path fill="none" stroke="#63b8ff" d="M67.84,-47C60.05,-38.06 50.97,-27.62 44.59,-20.3"/>
<polygon fill="#63b8ff" stroke="#63b8ff" points="65.11,-49.21 74.32,-54.45 70.39,-44.61 65.11,-49.21"/>
</a>
</g>
</g>
<!-- Node5 -->
<g id="Node000005" class="node">
<title>Node5</title>
<g id="a_Node000005"><a xlink:href="classva_1_1va__vram__t.html" target="_top" xlink:title=" ">
<polygon fill="white" stroke="#bfbfbf" points="169.62,-20 91.38,-20 91.38,0 169.62,0 169.62,-20"/>
<text text-anchor="middle" x="130.5" y="-6.5" font-family="Helvetica,sans-Serif" font-size="10.00">va::va_vram_t</text>
</a>
</g>
</g>
<!-- Node1&#45;&gt;Node5 -->
<g id="edge4_Node000001_Node000005" class="edge">
<title>Node1&#45;&gt;Node5</title>
<g id="a_edge4_Node000001_Node000005"><a xlink:title=" ">
<path fill="none" stroke="#63b8ff" d="M99.16,-47C106.95,-38.06 116.03,-27.62 122.41,-20.3"/>
<polygon fill="#63b8ff" stroke="#63b8ff" points="96.61,-44.61 92.68,-54.45 101.89,-49.21 96.61,-44.61"/>
</a>
</g>
</g>
<!-- Node2 -->
<g id="Node000002" class="node">
<title>Node2</title>
<g id="a_Node000002"><a xlink:href="structplatf_1_1avcodec__encode__device__t.html" target="_top" xlink:title=" ">
<polygon fill="white" stroke="#bfbfbf" points="140.62,-144 26.38,-144 26.38,-112 140.62,-112 140.62,-144"/>
<text text-anchor="start" x="34.38" y="-130.5" font-family="Helvetica,sans-Serif" font-size="10.00">platf::avcodec_encode</text>
<text text-anchor="middle" x="83.5" y="-118.5" font-family="Helvetica,sans-Serif" font-size="10.00">_device_t</text>
</a>
</g>
</g>
<!-- Node2&#45;&gt;Node1 -->
<g id="edge1_Node000001_Node000002" class="edge">
<title>Node2&#45;&gt;Node1</title>
<g id="a_edge1_Node000001_Node000002"><a xlink:title=" ">
<path fill="none" stroke="#63b8ff" d="M83.5,-100.08C83.5,-91.6 83.5,-82.8 83.5,-76.41"/>
<polygon fill="#63b8ff" stroke="#63b8ff" points="80,-100.03 83.5,-110.03 87,-100.03 80,-100.03"/>
</a>
</g>
</g>
<!-- Node3 -->
<g id="Node000003" class="node">
<title>Node3</title>
<g id="a_Node000003"><a xlink:href="structplatf_1_1encode__device__t.html" target="_top" xlink:title=" ">
<polygon fill="white" stroke="#bfbfbf" points="140.62,-200 26.38,-200 26.38,-180 140.62,-180 140.62,-200"/>
<text text-anchor="middle" x="83.5" y="-186.5" font-family="Helvetica,sans-Serif" font-size="10.00">platf::encode_device_t</text>
</a>
</g>
</g>
<!-- Node3&#45;&gt;Node2 -->
<g id="edge2_Node000002_Node000003" class="edge">
<title>Node3&#45;&gt;Node2</title>
<g id="a_edge2_Node000002_Node000003"><a xlink:title=" ">
<path fill="none" stroke="#63b8ff" d="M83.5,-168.31C83.5,-160.37 83.5,-151.46 83.5,-144.14"/>
<polygon fill="#63b8ff" stroke="#63b8ff" points="80,-168.11 83.5,-178.11 87,-168.11 80,-168.11"/>
</a>
</g>
</g>
</g>
</svg>
