<?xml version="1.0" encoding="UTF-8" standalone="no"?>
<!DOCTYPE svg PUBLIC "-//W3C//DTD SVG 1.1//EN"
 "http://www.w3.org/Graphics/SVG/1.1/DTD/svg11.dtd">
<!-- Generated by graphviz version 12.2.1 (0)
 -->
<!-- Title: platf::dxgi::display_ram_t Pages: 1 -->
<svg width="887pt" height="404pt"
 viewBox="0.00 0.00 886.50 404.00" xmlns="http://www.w3.org/2000/svg" xmlns:xlink="http://www.w3.org/1999/xlink">
<g id="graph0" class="graph" transform="scale(1 1) rotate(0) translate(4 400)">
<title>platf::dxgi::display_ram_t</title>
<!-- Node1 -->
<g id="Node000001" class="node">
<title>Node1</title>
<g id="a_Node000001"><a xlink:title=" ">
<polygon fill="#999999" stroke="#666666" points="878.5,-180 783,-180 783,-148 878.5,-148 878.5,-180"/>
<text text-anchor="start" x="791" y="-166.5" font-family="Helvetica,sans-Serif" font-size="10.00">platf::dxgi::display</text>
<text text-anchor="middle" x="830.75" y="-154.5" font-family="Helvetica,sans-Serif" font-size="10.00">_ram_t</text>
</a>
</g>
</g>
<!-- Node2 -->
<g id="Node000002" class="node">
<title>Node2</title>
<g id="a_Node000002"><a xlink:href="classplatf_1_1dxgi_1_1display__base__t.html" target="_top" xlink:title=" ">
<polygon fill="white" stroke="#bfbfbf" points="676.5,-229 581,-229 581,-197 676.5,-197 676.5,-229"/>
<text text-anchor="start" x="589" y="-215.5" font-family="Helvetica,sans-Serif" font-size="10.00">platf::dxgi::display</text>
<text text-anchor="middle" x="628.75" y="-203.5" font-family="Helvetica,sans-Serif" font-size="10.00">_base_t</text>
</a>
</g>
</g>
<!-- Node2&#45;&gt;Node1 -->
<g id="edge1_Node000001_Node000002" class="edge">
<title>Node2&#45;&gt;Node1</title>
<g id="a_edge1_Node000001_Node000002"><a xlink:title=" ">
<path fill="none" stroke="#63b8ff" d="M687.69,-198.81C717.82,-191.42 754.18,-182.51 782.58,-175.56"/>
<polygon fill="#63b8ff" stroke="#63b8ff" points="687.24,-195.31 678.36,-201.09 688.91,-202.11 687.24,-195.31"/>
</a>
</g>
</g>
<!-- Node3 -->
<g id="Node000003" class="node">
<title>Node3</title>
<g id="a_Node000003"><a xlink:href="classplatf_1_1display__t.html" target="_top" xlink:title=" ">
<polygon fill="white" stroke="#bfbfbf" points="388.25,-390 308.5,-390 308.5,-370 388.25,-370 388.25,-390"/>
<text text-anchor="middle" x="348.38" y="-376.5" font-family="Helvetica,sans-Serif" font-size="10.00">platf::display_t</text>
</a>
</g>
</g>
<!-- Node3&#45;&gt;Node2 -->
<g id="edge2_Node000002_Node000003" class="edge">
<title>Node3&#45;&gt;Node2</title>
<g id="a_edge2_Node000002_Node000003"><a xlink:title=" ">
<path fill="none" stroke="#63b8ff" d="M399.91,-376.79C418.61,-374.15 439.55,-369.43 457.25,-361 525.9,-328.29 588.42,-260.16 614.67,-229.08"/>
<polygon fill="#63b8ff" stroke="#63b8ff" points="399.61,-373.3 390.11,-377.99 400.46,-380.25 399.61,-373.3"/>
</a>
</g>
</g>
<!-- Node4 -->
<g id="Node000004" class="node">
<title>Node4</title>
<g id="a_Node000004"><a xlink:href="classlogging_1_1time__delta__periodic__logger.html" target="_top" xlink:title="A helper class for tracking and logging short time intervals across a period of time.">
<polygon fill="white" stroke="#666666" points="97.75,-396 0,-396 0,-364 97.75,-364 97.75,-396"/>
<text text-anchor="start" x="8" y="-382.5" font-family="Helvetica,sans-Serif" font-size="10.00">logging::time_delta</text>
<text text-anchor="middle" x="48.88" y="-370.5" font-family="Helvetica,sans-Serif" font-size="10.00">_periodic_logger</text>
</a>
</g>
</g>
<!-- Node4&#45;&gt;Node3 -->
<g id="edge3_Node000003_Node000004" class="edge">
<title>Node4&#45;&gt;Node3</title>
<g id="a_edge3_Node000003_Node000004"><a xlink:title=" ">
<path fill="none" stroke="#9a32cd" stroke-dasharray="5,2" d="M109.42,-380C168.59,-380 257.62,-380 308.34,-380"/>
<polygon fill="#9a32cd" stroke="#9a32cd" points="109.52,-376.5 99.52,-380 109.52,-383.5 109.52,-376.5"/>
</a>
</g>
<text text-anchor="middle" x="168.62" y="-382.5" font-family="Helvetica,sans-Serif" font-size="10.00" fill="grey"> sleep_overshoot_logger</text>
</g>
<!-- Node5 -->
<g id="Node000005" class="node">
<title>Node5</title>
<g id="a_Node000005"><a xlink:href="classutil_1_1uniq__ptr.html" target="_top" xlink:title=" ">
<polygon fill="white" stroke="#bfbfbf" points="423.12,-352 273.62,-352 273.62,-296 423.12,-296 423.12,-352"/>
<text text-anchor="start" x="281.62" y="-338.5" font-family="Helvetica,sans-Serif" font-size="10.00">util::uniq_ptr&lt; T,</text>
<text text-anchor="start" x="281.62" y="-326.5" font-family="Helvetica,sans-Serif" font-size="10.00"> Destroy&lt; T *, void,</text>
<text text-anchor="start" x="281.62" y="-314.5" font-family="Helvetica,sans-Serif" font-size="10.00"> function &gt; &gt;&lt; IDXGIFactory1,</text>
<text text-anchor="middle" x="348.38" y="-302.5" font-family="Helvetica,sans-Serif" font-size="10.00"> Release&lt; IDXGIFactory1 &gt; &gt;</text>
</a>
</g>
</g>
<!-- Node5&#45;&gt;Node2 -->
<g id="edge4_Node000002_Node000005" class="edge">
<title>Node5&#45;&gt;Node2</title>
<g id="a_edge4_Node000002_Node000005"><a xlink:title=" ">
<path fill="none" stroke="#9a32cd" stroke-dasharray="5,2" d="M434.07,-295.66C441.94,-292.82 449.76,-289.9 457.25,-287 504.48,-268.68 557.91,-245 592.17,-229.42"/>
<polygon fill="#9a32cd" stroke="#9a32cd" points="433.02,-292.32 424.78,-298.98 435.37,-298.91 433.02,-292.32"/>
</a>
</g>
<text text-anchor="middle" x="500.38" y="-282.09" font-family="Helvetica,sans-Serif" font-size="10.00" fill="grey"> factory</text>
</g>
<!-- Node6 -->
<g id="Node000006" class="node">
<title>Node6</title>
<g id="a_Node000006"><a xlink:href="classutil_1_1uniq__ptr.html" target="_top" xlink:title=" ">
<polygon fill="white" stroke="#bfbfbf" points="423.5,-278 273.25,-278 273.25,-222 423.5,-222 423.5,-278"/>
<text text-anchor="start" x="281.25" y="-264.5" font-family="Helvetica,sans-Serif" font-size="10.00">util::uniq_ptr&lt; T,</text>
<text text-anchor="start" x="281.25" y="-252.5" font-family="Helvetica,sans-Serif" font-size="10.00"> Destroy&lt; T *, void,</text>
<text text-anchor="start" x="281.25" y="-240.5" font-family="Helvetica,sans-Serif" font-size="10.00"> function &gt; &gt;&lt; IDXGIAdapter1,</text>
<text text-anchor="middle" x="348.38" y="-228.5" font-family="Helvetica,sans-Serif" font-size="10.00"> Release&lt; IDXGIAdapter1 &gt; &gt;</text>
</a>
</g>
</g>
<!-- Node6&#45;&gt;Node2 -->
<g id="edge5_Node000002_Node000006" class="edge">
<title>Node6&#45;&gt;Node2</title>
<g id="a_edge5_Node000002_Node000006"><a xlink:title=" ">
<path fill="none" stroke="#9a32cd" stroke-dasharray="5,2" d="M435.27,-238.58C483.11,-232.22 540.84,-224.55 580.52,-219.28"/>
<polygon fill="#9a32cd" stroke="#9a32cd" points="434.93,-235.1 425.47,-239.89 435.85,-242.04 434.93,-235.1"/>
</a>
</g>
<text text-anchor="middle" x="500.38" y="-235.11" font-family="Helvetica,sans-Serif" font-size="10.00" fill="grey"> adapter</text>
</g>
<!-- Node7 -->
<g id="Node000007" class="node">
<title>Node7</title>
<g id="a_Node000007"><a xlink:href="classutil_1_1uniq__ptr.html" target="_top" xlink:title=" ">
<polygon fill="white" stroke="#bfbfbf" points="418.62,-204 278.12,-204 278.12,-148 418.62,-148 418.62,-204"/>
<text text-anchor="start" x="286.12" y="-190.5" font-family="Helvetica,sans-Serif" font-size="10.00">util::uniq_ptr&lt; T,</text>
<text text-anchor="start" x="286.12" y="-178.5" font-family="Helvetica,sans-Serif" font-size="10.00"> Destroy&lt; T *, void,</text>
<text text-anchor="start" x="286.12" y="-166.5" font-family="Helvetica,sans-Serif" font-size="10.00"> function &gt; &gt;&lt; IDXGIOutput,</text>
<text text-anchor="middle" x="348.38" y="-154.5" font-family="Helvetica,sans-Serif" font-size="10.00"> Release&lt; IDXGIOutput &gt; &gt;</text>
</a>
</g>
</g>
<!-- Node7&#45;&gt;Node2 -->
<g id="edge6_Node000002_Node000007" class="edge">
<title>Node7&#45;&gt;Node2</title>
<g id="a_edge6_Node000002_Node000007"><a xlink:title=" ">
<path fill="none" stroke="#9a32cd" stroke-dasharray="5,2" d="M430.11,-186.73C479.05,-193.24 539.77,-201.31 580.89,-206.77"/>
<polygon fill="#9a32cd" stroke="#9a32cd" points="430.78,-183.29 420.4,-185.44 429.85,-190.23 430.78,-183.29"/>
</a>
</g>
<text text-anchor="middle" x="500.38" y="-201.4" font-family="Helvetica,sans-Serif" font-size="10.00" fill="grey"> output</text>
</g>
<!-- Node8 -->
<g id="Node000008" class="node">
<title>Node8</title>
<g id="a_Node000008"><a xlink:href="classutil_1_1uniq__ptr.html" target="_top" xlink:title=" ">
<polygon fill="white" stroke="#bfbfbf" points="422,-130 274.75,-130 274.75,-74 422,-74 422,-130"/>
<text text-anchor="start" x="282.75" y="-116.5" font-family="Helvetica,sans-Serif" font-size="10.00">util::uniq_ptr&lt; T,</text>
<text text-anchor="start" x="282.75" y="-104.5" font-family="Helvetica,sans-Serif" font-size="10.00"> Destroy&lt; T *, void,</text>
<text text-anchor="start" x="282.75" y="-92.5" font-family="Helvetica,sans-Serif" font-size="10.00"> function &gt; &gt;&lt; ID3D11Device,</text>
<text text-anchor="middle" x="348.38" y="-80.5" font-family="Helvetica,sans-Serif" font-size="10.00"> Release&lt; ID3D11Device &gt; &gt;</text>
</a>
</g>
</g>
<!-- Node8&#45;&gt;Node2 -->
<g id="edge7_Node000002_Node000008" class="edge">
<title>Node8&#45;&gt;Node2</title>
<g id="a_edge7_Node000002_Node000008"><a xlink:title=" ">
<path fill="none" stroke="#9a32cd" stroke-dasharray="5,2" d="M432.85,-128.97C441.17,-132.15 449.43,-135.51 457.25,-139 488.96,-153.13 495.52,-159.5 525.5,-177 533.6,-181.73 534.93,-184.19 543.5,-188 555.21,-193.21 568.31,-197.69 580.62,-201.36"/>
<polygon fill="#9a32cd" stroke="#9a32cd" points="434.31,-125.78 423.72,-125.57 431.87,-132.34 434.31,-125.78"/>
</a>
</g>
<text text-anchor="middle" x="500.38" y="-179.5" font-family="Helvetica,sans-Serif" font-size="10.00" fill="grey"> device</text>
</g>
<!-- Node9 -->
<g id="Node000009" class="node">
<title>Node9</title>
<g id="a_Node000009"><a xlink:href="classutil_1_1uniq__ptr.html" target="_top" xlink:title=" ">
<polygon fill="white" stroke="#bfbfbf" points="457.25,-56 239.5,-56 239.5,0 457.25,0 457.25,-56"/>
<text text-anchor="start" x="247.5" y="-42.5" font-family="Helvetica,sans-Serif" font-size="10.00">util::uniq_ptr&lt; T,</text>
<text text-anchor="start" x="247.5" y="-30.5" font-family="Helvetica,sans-Serif" font-size="10.00"> Destroy&lt; T *, void,</text>
<text text-anchor="start" x="247.5" y="-18.5" font-family="Helvetica,sans-Serif" font-size="10.00"> function &gt; &gt;&lt; ID3D11Device</text>
<text text-anchor="middle" x="348.38" y="-6.5" font-family="Helvetica,sans-Serif" font-size="10.00">Context, Release&lt; ID3D11DeviceContext &gt; &gt;</text>
</a>
</g>
</g>
<!-- Node9&#45;&gt;Node2 -->
<g id="edge8_Node000002_Node000009" class="edge">
<title>Node9&#45;&gt;Node2</title>
<g id="a_edge8_Node000002_Node000009"><a xlink:title=" ">
<path fill="none" stroke="#9a32cd" stroke-dasharray="5,2" d="M451.55,-61.64C453.48,-62.73 455.39,-63.85 457.25,-65 493.41,-87.34 503.18,-95.82 525.5,-132 539.23,-154.25 524.81,-169.72 543.5,-188 553.54,-197.81 567.24,-203.8 580.68,-207.45"/>
<polygon fill="#9a32cd" stroke="#9a32cd" points="453.44,-58.68 442.95,-57.13 450.19,-64.88 453.44,-58.68"/>
</a>
</g>
<text text-anchor="middle" x="500.38" y="-134.5" font-family="Helvetica,sans-Serif" font-size="10.00" fill="grey"> device_ctx</text>
</g>
<!-- Node10 -->
<g id="Node000010" class="node">
<title>Node10</title>
<g id="a_Node000010"><a xlink:href="classutil_1_1uniq__ptr.html" target="_top" xlink:title=" ">
<polygon fill="white" stroke="#bfbfbf" points="714,-179 543.5,-179 543.5,-123 714,-123 714,-179"/>
<text text-anchor="start" x="551.5" y="-165.5" font-family="Helvetica,sans-Serif" font-size="10.00">util::uniq_ptr&lt; T,</text>
<text text-anchor="start" x="551.5" y="-153.5" font-family="Helvetica,sans-Serif" font-size="10.00"> Destroy&lt; T *, void,</text>
<text text-anchor="start" x="551.5" y="-141.5" font-family="Helvetica,sans-Serif" font-size="10.00"> function &gt; &gt;&lt; ID3D11Texture2</text>
<text text-anchor="middle" x="628.75" y="-129.5" font-family="Helvetica,sans-Serif" font-size="10.00">D, Release&lt; ID3D11Texture2D &gt; &gt;</text>
</a>
</g>
</g>
<!-- Node10&#45;&gt;Node1 -->
<g id="edge9_Node000001_Node000010" class="edge">
<title>Node10&#45;&gt;Node1</title>
<g id="a_edge9_Node000001_Node000010"><a xlink:title=" ">
<path fill="none" stroke="#9a32cd" stroke-dasharray="5,2" d="M725.56,-157.23C745.37,-158.52 765.39,-159.82 782.52,-160.93"/>
<polygon fill="#9a32cd" stroke="#9a32cd" points="725.99,-153.75 715.79,-156.59 725.54,-160.73 725.99,-153.75"/>
</a>
</g>
<text text-anchor="middle" x="748.5" y="-161.92" font-family="Helvetica,sans-Serif" font-size="10.00" fill="grey"> texture</text>
</g>
</g>
</svg>
