<?xml version="1.0" encoding="UTF-8" standalone="no"?>
<!DOCTYPE svg PUBLIC "-//W3C//DTD SVG 1.1//EN"
 "http://www.w3.org/Graphics/SVG/1.1/DTD/svg11.dtd">
<!-- Generated by graphviz version 12.2.1 (0)
 -->
<!-- Title: video::avcodec_software_encode_device_t Pages: 1 -->
<svg width="769pt" height="189pt"
 viewBox="0.00 0.00 769.00 189.00" xmlns="http://www.w3.org/2000/svg" xmlns:xlink="http://www.w3.org/1999/xlink">
<g id="graph0" class="graph" transform="scale(1 1) rotate(0) translate(4 185)">
<title>video::avcodec_software_encode_device_t</title>
<!-- Node1 -->
<g id="Node000001" class="node">
<title>Node1</title>
<g id="a_Node000001"><a xlink:title=" ">
<polygon fill="#999999" stroke="#666666" points="761,-118 636.25,-118 636.25,-86 761,-86 761,-118"/>
<text text-anchor="start" x="644.25" y="-104.5" font-family="Helvetica,sans-Serif" font-size="10.00">video::avcodec_software</text>
<text text-anchor="middle" x="698.62" y="-92.5" font-family="Helvetica,sans-Serif" font-size="10.00">_encode_device_t</text>
</a>
</g>
</g>
<!-- Node2 -->
<g id="Node000002" class="node">
<title>Node2</title>
<g id="a_Node000002"><a xlink:href="structplatf_1_1avcodec__encode__device__t.html" target="_top" xlink:title=" ">
<polygon fill="white" stroke="#bfbfbf" points="508.38,-181 394.12,-181 394.12,-149 508.38,-149 508.38,-181"/>
<text text-anchor="start" x="402.12" y="-167.5" font-family="Helvetica,sans-Serif" font-size="10.00">platf::avcodec_encode</text>
<text text-anchor="middle" x="451.25" y="-155.5" font-family="Helvetica,sans-Serif" font-size="10.00">_device_t</text>
</a>
</g>
</g>
<!-- Node2&#45;&gt;Node1 -->
<g id="edge1_Node000001_Node000002" class="edge">
<title>Node2&#45;&gt;Node1</title>
<g id="a_edge1_Node000001_Node000002"><a xlink:title=" ">
<path fill="none" stroke="#63b8ff" d="M519.96,-166.39C550.63,-165.23 586.95,-161.32 618.25,-151 639.94,-143.85 661.81,-129.71 677.09,-118.45"/>
<polygon fill="#63b8ff" stroke="#63b8ff" points="519.91,-162.89 510.01,-166.66 520.11,-169.88 519.91,-162.89"/>
</a>
</g>
</g>
<!-- Node3 -->
<g id="Node000003" class="node">
<title>Node3</title>
<g id="a_Node000003"><a xlink:href="structplatf_1_1encode__device__t.html" target="_top" xlink:title=" ">
<polygon fill="white" stroke="#bfbfbf" points="345.5,-175 231.25,-175 231.25,-155 345.5,-155 345.5,-175"/>
<text text-anchor="middle" x="288.38" y="-161.5" font-family="Helvetica,sans-Serif" font-size="10.00">platf::encode_device_t</text>
</a>
</g>
</g>
<!-- Node3&#45;&gt;Node2 -->
<g id="edge2_Node000002_Node000003" class="edge">
<title>Node3&#45;&gt;Node2</title>
<g id="a_edge2_Node000002_Node000003"><a xlink:title=" ">
<path fill="none" stroke="#63b8ff" d="M356.79,-165C369.08,-165 381.8,-165 393.74,-165"/>
<polygon fill="#63b8ff" stroke="#63b8ff" points="357.15,-161.5 347.15,-165 357.15,-168.5 357.15,-161.5"/>
</a>
</g>
</g>
<!-- Node4 -->
<g id="Node000004" class="node">
<title>Node4</title>
<g id="a_Node000004"><a xlink:href="structvideo_1_1sunshine__colorspace__t.html" target="_top" xlink:title=" ">
<polygon fill="white" stroke="#bfbfbf" points="145,-175 0,-175 0,-155 145,-155 145,-175"/>
<text text-anchor="middle" x="72.5" y="-161.5" font-family="Helvetica,sans-Serif" font-size="10.00">video::sunshine_colorspace_t</text>
</a>
</g>
</g>
<!-- Node4&#45;&gt;Node3 -->
<g id="edge3_Node000003_Node000004" class="edge">
<title>Node4&#45;&gt;Node3</title>
<g id="a_edge3_Node000003_Node000004"><a xlink:title=" ">
<path fill="none" stroke="#9a32cd" stroke-dasharray="5,2" d="M156.6,-165C181.5,-165 208.21,-165 230.96,-165"/>
<polygon fill="#9a32cd" stroke="#9a32cd" points="156.83,-161.5 146.83,-165 156.83,-168.5 156.83,-161.5"/>
</a>
</g>
<text text-anchor="middle" x="188.12" y="-167.5" font-family="Helvetica,sans-Serif" font-size="10.00" fill="grey"> colorspace</text>
</g>
<!-- Node5 -->
<g id="Node000005" class="node">
<title>Node5</title>
<g id="a_Node000005"><a xlink:href="classutil_1_1uniq__ptr.html" target="_top" xlink:title=" ">
<polygon fill="white" stroke="#bfbfbf" points="512.88,-130 389.62,-130 389.62,-74 512.88,-74 512.88,-130"/>
<text text-anchor="start" x="397.62" y="-116.5" font-family="Helvetica,sans-Serif" font-size="10.00">util::uniq_ptr&lt; T,</text>
<text text-anchor="start" x="397.62" y="-104.5" font-family="Helvetica,sans-Serif" font-size="10.00"> Destroy&lt; T *, void,</text>
<text text-anchor="start" x="397.62" y="-92.5" font-family="Helvetica,sans-Serif" font-size="10.00"> function &gt; &gt;&lt; AVFrame,</text>
<text text-anchor="middle" x="451.25" y="-80.5" font-family="Helvetica,sans-Serif" font-size="10.00"> free_frame &gt;</text>
</a>
</g>
</g>
<!-- Node5&#45;&gt;Node1 -->
<g id="edge4_Node000001_Node000005" class="edge">
<title>Node5&#45;&gt;Node1</title>
<g id="a_edge4_Node000001_Node000005"><a xlink:title=" ">
<path fill="none" stroke="#9a32cd" stroke-dasharray="5,2" d="M524.48,-102C559.94,-102 602.22,-102 636.12,-102"/>
<polygon fill="#9a32cd" stroke="#9a32cd" points="524.73,-98.5 514.73,-102 524.73,-105.5 524.73,-98.5"/>
</a>
</g>
<text text-anchor="middle" x="578.12" y="-140.5" font-family="Helvetica,sans-Serif" font-size="10.00" fill="grey"> hw_frame</text>
<text text-anchor="middle" x="578.12" y="-128.5" font-family="Helvetica,sans-Serif" font-size="10.00" fill="grey">sw_frame</text>
<text text-anchor="middle" x="578.12" y="-116.5" font-family="Helvetica,sans-Serif" font-size="10.00" fill="grey">sws_input_frame</text>
<text text-anchor="middle" x="578.12" y="-104.5" font-family="Helvetica,sans-Serif" font-size="10.00" fill="grey">sws_output_frame</text>
</g>
<!-- Node6 -->
<g id="Node000006" class="node">
<title>Node6</title>
<g id="a_Node000006"><a xlink:href="classutil_1_1uniq__ptr.html" target="_top" xlink:title=" ">
<polygon fill="white" stroke="#bfbfbf" points="520,-56 382.5,-56 382.5,0 520,0 520,-56"/>
<text text-anchor="start" x="390.5" y="-42.5" font-family="Helvetica,sans-Serif" font-size="10.00">util::uniq_ptr&lt; T,</text>
<text text-anchor="start" x="390.5" y="-30.5" font-family="Helvetica,sans-Serif" font-size="10.00"> Destroy&lt; T *, void,</text>
<text text-anchor="start" x="390.5" y="-18.5" font-family="Helvetica,sans-Serif" font-size="10.00"> function &gt; &gt;&lt; SwsContext,</text>
<text text-anchor="middle" x="451.25" y="-6.5" font-family="Helvetica,sans-Serif" font-size="10.00"> sws_freeContext &gt;</text>
</a>
</g>
</g>
<!-- Node6&#45;&gt;Node1 -->
<g id="edge5_Node000001_Node000006" class="edge">
<title>Node6&#45;&gt;Node1</title>
<g id="a_edge5_Node000001_Node000006"><a xlink:title=" ">
<path fill="none" stroke="#9a32cd" stroke-dasharray="5,2" d="M530.92,-51.72C567.5,-62.76 610.1,-75.6 643.08,-85.55"/>
<polygon fill="#9a32cd" stroke="#9a32cd" points="532.31,-48.49 521.72,-48.95 530.29,-55.19 532.31,-48.49"/>
</a>
</g>
<text text-anchor="middle" x="578.12" y="-78.45" font-family="Helvetica,sans-Serif" font-size="10.00" fill="grey"> sws</text>
</g>
</g>
</svg>
