<?xml version="1.0" encoding="UTF-8" standalone="no"?>
<!DOCTYPE svg PUBLIC "-//W3C//DTD SVG 1.1//EN"
 "http://www.w3.org/Graphics/SVG/1.1/DTD/svg11.dtd">
<!-- Generated by graphviz version 12.2.1 (0)
 -->
<!-- Title: platf::dxgi::display_ddup_vram_t Pages: 1 -->
<!--zoomable 765 -->

<svg id="main" version="1.1" xmlns="http://www.w3.org/2000/svg" xmlns:xlink="http://www.w3.org/1999/xlink" xml:space="preserve" onload="init(evt)">

<style type="text/css"><![CDATA[
.node, .edge {opacity: 0.7;}
.node.selected, .edge.selected {opacity: 1;}
.edge:hover path { stroke: red; }
.edge:hover polygon { stroke: red; fill: red; }
]]></style>

<defs>
  <circle id="rim" cx="0" cy="0" r="7"/>
  <circle id="rim2" cx="0" cy="0" r="3.5"/>
  <g id="zoomPlus">
    <use xlink:href="#rim" fill="#404040"><set attributeName="fill" to="#808080" begin="zoomplus.mouseover" end="zoomplus.mouseout"/></use>
    <path d="M-4,0h8M0,-4v8" fill="none" stroke="white" stroke-width="1.5" pointer-events="none"/>
  </g>
  <g id="zoomMin">
    <use xlink:href="#rim" fill="#404040"><set attributeName="fill" to="#808080" begin="zoomminus.mouseover" end="zoomminus.mouseout"/></use>
    <path d="M-4,0h8" fill="none" stroke="white" stroke-width="1.5" pointer-events="none"/>
  </g>
  <g id="arrowUp" transform="translate(30 24)">
    <use xlink:href="#rim"/>
    <path pointer-events="none" fill="none" stroke="white" stroke-width="1.5" d="M0,-3.0v7 M-2.5,-0.5L0,-3.0L2.5,-0.5"/>
  </g>
  <g id="arrowRight" transform="rotate(90) translate(36 -43)">
    <use xlink:href="#rim"/>
    <path pointer-events="none" fill="none" stroke="white" stroke-width="1.5" d="M0,-3.0v7 M-2.5,-0.5L0,-3.0L2.5,-0.5"/>
  </g>
  <g id="arrowDown" transform="rotate(180) translate(-30 -48)">
    <use xlink:href="#rim"/>
    <path pointer-events="none" fill="none" stroke="white" stroke-width="1.5" d="M0,-3.0v7 M-2.5,-0.5L0,-3.0L2.5,-0.5"/>
  </g>
  <g id="arrowLeft" transform="rotate(270) translate(-36 17)">
    <use xlink:href="#rim"/>
    <path pointer-events="none" fill="none" stroke="white" stroke-width="1.5" d="M0,-3.0v7 M-2.5,-0.5L0,-3.0L2.5,-0.5"/>
  </g>
  <g id="resetDef">
    <use xlink:href="#rim2" fill="#404040"><set attributeName="fill" to="#808080" begin="reset.mouseover" end="reset.mouseout"/></use>
  </g>
</defs>
<script type="application/ecmascript">
var viewWidth = 1229;
var viewHeight = 765;
var sectionId = 'dynsection-1';
</script>
<script type="application/ecmascript" xlink:href="svg.min.js"/>
<svg id="graph" class="graph">
<g id="viewport">
<title>platf::dxgi::display_ddup_vram_t</title>
<!-- Node1 -->
<g id="Node000001" class="node">
<title>Node1</title>
<g id="a_Node000001"><a xlink:title=" ">
<polygon fill="#999999" stroke="#666666" points="1220.75,-311 1125.25,-311 1125.25,-279 1220.75,-279 1220.75,-311"/>
<text text-anchor="start" x="1133.25" y="-297.5" font-family="Helvetica,sans-Serif" font-size="10.00">platf::dxgi::display</text>
<text text-anchor="middle" x="1173" y="-285.5" font-family="Helvetica,sans-Serif" font-size="10.00">_ddup_vram_t</text>
</a>
</g>
</g>
<!-- Node2 -->
<g id="Node000002" class="node">
<title>Node2</title>
<g id="a_Node000002"><a xlink:href="classplatf_1_1dxgi_1_1display__vram__t.html" target="_top" xlink:title=" ">
<polygon fill="white" stroke="#666666" points="967.38,-534 871.88,-534 871.88,-502 967.38,-502 967.38,-534"/>
<text text-anchor="start" x="879.88" y="-520.5" font-family="Helvetica,sans-Serif" font-size="10.00">platf::dxgi::display</text>
<text text-anchor="middle" x="919.62" y="-508.5" font-family="Helvetica,sans-Serif" font-size="10.00">_vram_t</text>
</a>
</g>
</g>
<!-- Node2&#45;&gt;Node1 -->
<g id="edge1_Node000001_Node000002" class="edge">
<title>Node2&#45;&gt;Node1</title>
<g id="a_edge1_Node000001_Node000002"><a xlink:title=" ">
<path fill="none" stroke="#63b8ff" d="M978.71,-510.17C1019.25,-501.95 1072.18,-485.32 1107.25,-452 1148.72,-412.6 1164.52,-342.76 1169.74,-311.23"/>
<polygon fill="#63b8ff" stroke="#63b8ff" points="978.28,-506.69 969.11,-511.99 979.59,-513.57 978.28,-506.69"/>
</a>
</g>
</g>
<!-- Node3 -->
<g id="Node000003" class="node">
<title>Node3</title>
<g id="a_Node000003"><a xlink:href="classplatf_1_1dxgi_1_1display__base__t.html" target="_top" xlink:title=" ">
<polygon fill="white" stroke="#bfbfbf" points="688.12,-590 592.62,-590 592.62,-558 688.12,-558 688.12,-590"/>
<text text-anchor="start" x="600.62" y="-576.5" font-family="Helvetica,sans-Serif" font-size="10.00">platf::dxgi::display</text>
<text text-anchor="middle" x="640.38" y="-564.5" font-family="Helvetica,sans-Serif" font-size="10.00">_base_t</text>
</a>
</g>
</g>
<!-- Node3&#45;&gt;Node2 -->
<g id="edge2_Node000002_Node000003" class="edge">
<title>Node3&#45;&gt;Node2</title>
<g id="a_edge2_Node000002_Node000003"><a xlink:title=" ">
<path fill="none" stroke="#63b8ff" d="M699.62,-562.24C750.82,-551.89 824.37,-537.04 871.83,-527.45"/>
<polygon fill="#63b8ff" stroke="#63b8ff" points="699,-558.79 689.89,-564.2 700.39,-565.65 699,-558.79"/>
</a>
</g>
</g>
<!-- Node4 -->
<g id="Node000004" class="node">
<title>Node4</title>
<g id="a_Node000004"><a xlink:href="classplatf_1_1display__t.html" target="_top" xlink:title=" ">
<polygon fill="white" stroke="#bfbfbf" points="388.25,-751 308.5,-751 308.5,-731 388.25,-731 388.25,-751"/>
<text text-anchor="middle" x="348.38" y="-737.5" font-family="Helvetica,sans-Serif" font-size="10.00">platf::display_t</text>
</a>
</g>
</g>
<!-- Node4&#45;&gt;Node3 -->
<g id="edge3_Node000003_Node000004" class="edge">
<title>Node4&#45;&gt;Node3</title>
<g id="a_edge3_Node000003_Node000004"><a xlink:title=" ">
<path fill="none" stroke="#63b8ff" d="M399.99,-737.45C418.62,-734.77 439.49,-730.11 457.25,-722 529.15,-689.17 596.67,-621.1 625.15,-590.06"/>
<polygon fill="#63b8ff" stroke="#63b8ff" points="399.72,-733.95 390.23,-738.68 400.59,-740.9 399.72,-733.95"/>
</a>
</g>
</g>
<!-- Node5 -->
<g id="Node000005" class="node">
<title>Node5</title>
<g id="a_Node000005"><a xlink:href="classlogging_1_1time__delta__periodic__logger.html" target="_top" xlink:title="A helper class for tracking and logging short time intervals across a period of time.">
<polygon fill="white" stroke="#666666" points="97.75,-757 0,-757 0,-725 97.75,-725 97.75,-757"/>
<text text-anchor="start" x="8" y="-743.5" font-family="Helvetica,sans-Serif" font-size="10.00">logging::time_delta</text>
<text text-anchor="middle" x="48.88" y="-731.5" font-family="Helvetica,sans-Serif" font-size="10.00">_periodic_logger</text>
</a>
</g>
</g>
<!-- Node5&#45;&gt;Node4 -->
<g id="edge4_Node000004_Node000005" class="edge">
<title>Node5&#45;&gt;Node4</title>
<g id="a_edge4_Node000004_Node000005"><a xlink:title=" ">
<path fill="none" stroke="#9a32cd" stroke-dasharray="5,2" d="M109.42,-741C168.59,-741 257.62,-741 308.34,-741"/>
<polygon fill="#9a32cd" stroke="#9a32cd" points="109.52,-737.5 99.52,-741 109.52,-744.5 109.52,-737.5"/>
</a>
</g>
<text text-anchor="middle" x="168.62" y="-743.5" font-family="Helvetica,sans-Serif" font-size="10.00" fill="grey"> sleep_overshoot_logger</text>
</g>
<!-- Node6 -->
<g id="Node000006" class="node">
<title>Node6</title>
<g id="a_Node000006"><a xlink:href="classutil_1_1uniq__ptr.html" target="_top" xlink:title=" ">
<polygon fill="white" stroke="#bfbfbf" points="423.12,-713 273.62,-713 273.62,-657 423.12,-657 423.12,-713"/>
<text text-anchor="start" x="281.62" y="-699.5" font-family="Helvetica,sans-Serif" font-size="10.00">util::uniq_ptr&lt; T,</text>
<text text-anchor="start" x="281.62" y="-687.5" font-family="Helvetica,sans-Serif" font-size="10.00"> Destroy&lt; T *, void,</text>
<text text-anchor="start" x="281.62" y="-675.5" font-family="Helvetica,sans-Serif" font-size="10.00"> function &gt; &gt;&lt; IDXGIFactory1,</text>
<text text-anchor="middle" x="348.38" y="-663.5" font-family="Helvetica,sans-Serif" font-size="10.00"> Release&lt; IDXGIFactory1 &gt; &gt;</text>
</a>
</g>
</g>
<!-- Node6&#45;&gt;Node3 -->
<g id="edge5_Node000003_Node000006" class="edge">
<title>Node6&#45;&gt;Node3</title>
<g id="a_edge5_Node000003_Node000006"><a xlink:title=" ">
<path fill="none" stroke="#9a32cd" stroke-dasharray="5,2" d="M434.2,-656.4C442.02,-653.62 449.79,-650.79 457.25,-648 507.27,-629.28 564.2,-605.79 600.89,-590.36"/>
<polygon fill="#9a32cd" stroke="#9a32cd" points="433.25,-653.03 424.98,-659.66 435.58,-659.63 433.25,-653.03"/>
</a>
</g>
<text text-anchor="middle" x="500.38" y="-642.93" font-family="Helvetica,sans-Serif" font-size="10.00" fill="grey"> factory</text>
</g>
<!-- Node7 -->
<g id="Node000007" class="node">
<title>Node7</title>
<g id="a_Node000007"><a xlink:href="classutil_1_1uniq__ptr.html" target="_top" xlink:title=" ">
<polygon fill="white" stroke="#bfbfbf" points="423.5,-639 273.25,-639 273.25,-583 423.5,-583 423.5,-639"/>
<text text-anchor="start" x="281.25" y="-625.5" font-family="Helvetica,sans-Serif" font-size="10.00">util::uniq_ptr&lt; T,</text>
<text text-anchor="start" x="281.25" y="-613.5" font-family="Helvetica,sans-Serif" font-size="10.00"> Destroy&lt; T *, void,</text>
<text text-anchor="start" x="281.25" y="-601.5" font-family="Helvetica,sans-Serif" font-size="10.00"> function &gt; &gt;&lt; IDXGIAdapter1,</text>
<text text-anchor="middle" x="348.38" y="-589.5" font-family="Helvetica,sans-Serif" font-size="10.00"> Release&lt; IDXGIAdapter1 &gt; &gt;</text>
</a>
</g>
</g>
<!-- Node7&#45;&gt;Node3 -->
<g id="edge6_Node000003_Node000007" class="edge">
<title>Node7&#45;&gt;Node3</title>
<g id="a_edge6_Node000003_Node000007"><a xlink:title=" ">
<path fill="none" stroke="#9a32cd" stroke-dasharray="5,2" d="M434.81,-600.1C486.34,-593.53 550,-585.4 592.5,-579.98"/>
<polygon fill="#9a32cd" stroke="#9a32cd" points="434.66,-596.59 425.18,-601.33 435.54,-603.53 434.66,-596.59"/>
</a>
</g>
<text text-anchor="middle" x="500.38" y="-597.22" font-family="Helvetica,sans-Serif" font-size="10.00" fill="grey"> adapter</text>
</g>
<!-- Node8 -->
<g id="Node000008" class="node">
<title>Node8</title>
<g id="a_Node000008"><a xlink:href="classutil_1_1uniq__ptr.html" target="_top" xlink:title=" ">
<polygon fill="white" stroke="#bfbfbf" points="418.62,-565 278.12,-565 278.12,-509 418.62,-509 418.62,-565"/>
<text text-anchor="start" x="286.12" y="-551.5" font-family="Helvetica,sans-Serif" font-size="10.00">util::uniq_ptr&lt; T,</text>
<text text-anchor="start" x="286.12" y="-539.5" font-family="Helvetica,sans-Serif" font-size="10.00"> Destroy&lt; T *, void,</text>
<text text-anchor="start" x="286.12" y="-527.5" font-family="Helvetica,sans-Serif" font-size="10.00"> function &gt; &gt;&lt; IDXGIOutput,</text>
<text text-anchor="middle" x="348.38" y="-515.5" font-family="Helvetica,sans-Serif" font-size="10.00"> Release&lt; IDXGIOutput &gt; &gt;</text>
</a>
</g>
</g>
<!-- Node8&#45;&gt;Node3 -->
<g id="edge7_Node000003_Node000008" class="edge">
<title>Node8&#45;&gt;Node3</title>
<g id="a_edge7_Node000003_Node000008"><a xlink:title=" ">
<path fill="none" stroke="#9a32cd" stroke-dasharray="5,2" d="M430.09,-547.3C482.28,-553.96 548.41,-562.39 592.22,-567.98"/>
<polygon fill="#9a32cd" stroke="#9a32cd" points="430.7,-543.85 420.34,-546.05 429.82,-550.79 430.7,-543.85"/>
</a>
</g>
<text text-anchor="middle" x="500.38" y="-561.31" font-family="Helvetica,sans-Serif" font-size="10.00" fill="grey"> output</text>
</g>
<!-- Node9 -->
<g id="Node000009" class="node">
<title>Node9</title>
<g id="a_Node000009"><a xlink:href="classutil_1_1uniq__ptr.html" target="_top" xlink:title=" ">
<polygon fill="white" stroke="#bfbfbf" points="422,-491 274.75,-491 274.75,-435 422,-435 422,-491"/>
<text text-anchor="start" x="282.75" y="-477.5" font-family="Helvetica,sans-Serif" font-size="10.00">util::uniq_ptr&lt; T,</text>
<text text-anchor="start" x="282.75" y="-465.5" font-family="Helvetica,sans-Serif" font-size="10.00"> Destroy&lt; T *, void,</text>
<text text-anchor="start" x="282.75" y="-453.5" font-family="Helvetica,sans-Serif" font-size="10.00"> function &gt; &gt;&lt; ID3D11Device,</text>
<text text-anchor="middle" x="348.38" y="-441.5" font-family="Helvetica,sans-Serif" font-size="10.00"> Release&lt; ID3D11Device &gt; &gt;</text>
</a>
</g>
</g>
<!-- Node9&#45;&gt;Node3 -->
<g id="edge8_Node000003_Node000009" class="edge">
<title>Node9&#45;&gt;Node3</title>
<g id="a_edge8_Node000003_Node000009"><a xlink:title=" ">
<path fill="none" stroke="#9a32cd" stroke-dasharray="5,2" d="M432.81,-490.06C441.14,-493.22 449.41,-496.56 457.25,-500 488.84,-513.87 495.95,-519.19 525.5,-537 533.73,-541.96 534.73,-545.07 543.5,-549 558.88,-555.9 576.54,-561.18 592.47,-565.07"/>
<polygon fill="#9a32cd" stroke="#9a32cd" points="434.27,-486.87 423.67,-486.67 431.83,-493.43 434.27,-486.87"/>
</a>
</g>
<text text-anchor="middle" x="500.38" y="-539.5" font-family="Helvetica,sans-Serif" font-size="10.00" fill="grey"> device</text>
</g>
<!-- Node10 -->
<g id="Node000010" class="node">
<title>Node10</title>
<g id="a_Node000010"><a xlink:href="classutil_1_1uniq__ptr.html" target="_top" xlink:title=" ">
<polygon fill="white" stroke="#bfbfbf" points="457.25,-417 239.5,-417 239.5,-361 457.25,-361 457.25,-417"/>
<text text-anchor="start" x="247.5" y="-403.5" font-family="Helvetica,sans-Serif" font-size="10.00">util::uniq_ptr&lt; T,</text>
<text text-anchor="start" x="247.5" y="-391.5" font-family="Helvetica,sans-Serif" font-size="10.00"> Destroy&lt; T *, void,</text>
<text text-anchor="start" x="247.5" y="-379.5" font-family="Helvetica,sans-Serif" font-size="10.00"> function &gt; &gt;&lt; ID3D11Device</text>
<text text-anchor="middle" x="348.38" y="-367.5" font-family="Helvetica,sans-Serif" font-size="10.00">Context, Release&lt; ID3D11DeviceContext &gt; &gt;</text>
</a>
</g>
</g>
<!-- Node10&#45;&gt;Node3 -->
<g id="edge9_Node000003_Node000010" class="edge">
<title>Node10&#45;&gt;Node3</title>
<g id="a_edge9_Node000003_Node000010"><a xlink:title=" ">
<path fill="none" stroke="#9a32cd" stroke-dasharray="5,2" d="M451.55,-422.64C453.48,-423.73 455.39,-424.85 457.25,-426 493.41,-448.34 503.18,-456.82 525.5,-493 539.23,-515.25 524.5,-531.04 543.5,-549 556.62,-561.41 575.11,-567.84 592.35,-571.12"/>
<polygon fill="#9a32cd" stroke="#9a32cd" points="453.44,-419.68 442.95,-418.13 450.19,-425.88 453.44,-419.68"/>
</a>
</g>
<text text-anchor="middle" x="500.38" y="-495.5" font-family="Helvetica,sans-Serif" font-size="10.00" fill="grey"> device_ctx</text>
</g>
<!-- Node11 -->
<g id="Node000011" class="node">
<title>Node11</title>
<g id="a_Node000011"><a xlink:title=" ">
<polygon fill="white" stroke="#bfbfbf" points="691.12,-540 589.62,-540 589.62,-496 691.12,-496 691.12,-540"/>
<text text-anchor="start" x="597.62" y="-526.5" font-family="Helvetica,sans-Serif" font-size="10.00">std::enable_shared</text>
<text text-anchor="start" x="597.62" y="-514.5" font-family="Helvetica,sans-Serif" font-size="10.00">_from_this&lt; display</text>
<text text-anchor="middle" x="640.38" y="-502.5" font-family="Helvetica,sans-Serif" font-size="10.00">_vram_t &gt;</text>
</a>
</g>
</g>
<!-- Node11&#45;&gt;Node2 -->
<g id="edge10_Node000002_Node000011" class="edge">
<title>Node11&#45;&gt;Node2</title>
<g id="a_edge10_Node000002_Node000011"><a xlink:title=" ">
<path fill="none" stroke="#63b8ff" d="M703.09,-518C754,-518 825.16,-518 871.56,-518"/>
<polygon fill="#63b8ff" stroke="#63b8ff" points="703.1,-514.5 693.1,-518 703.1,-521.5 703.1,-514.5"/>
</a>
</g>
</g>
<!-- Node12 -->
<g id="Node000012" class="node">
<title>Node12</title>
<g id="a_Node000012"><a xlink:href="classplatf_1_1dxgi_1_1duplication__t.html" target="_top" xlink:title=" ">
<polygon fill="white" stroke="#666666" points="979.38,-472 859.88,-472 859.88,-452 979.38,-452 979.38,-472"/>
<text text-anchor="middle" x="919.62" y="-458.5" font-family="Helvetica,sans-Serif" font-size="10.00">platf::dxgi::duplication_t</text>
</a>
</g>
</g>
<!-- Node12&#45;&gt;Node1 -->
<g id="edge11_Node000001_Node000012" class="edge">
<title>Node12&#45;&gt;Node1</title>
<g id="a_edge11_Node000001_Node000012"><a xlink:title=" ">
<path fill="none" stroke="#9a32cd" stroke-dasharray="5,2" d="M990.76,-452.1C1001.79,-449.66 1012.94,-446.67 1023.25,-443 1063.35,-428.72 1076.2,-426.11 1107.25,-397 1134.18,-371.75 1154.69,-333.01 1164.87,-311.26"/>
<polygon fill="#9a32cd" stroke="#9a32cd" points="990.39,-448.6 981.3,-454.05 991.8,-455.46 990.39,-448.6"/>
</a>
</g>
<text text-anchor="middle" x="1074.25" y="-438.7" font-family="Helvetica,sans-Serif" font-size="10.00" fill="grey"> dup</text>
</g>
<!-- Node13 -->
<g id="Node000013" class="node">
<title>Node13</title>
<g id="a_Node000013"><a xlink:href="classutil_1_1uniq__ptr.html" target="_top" xlink:title=" ">
<polygon fill="white" stroke="#bfbfbf" points="735,-478 545.75,-478 545.75,-422 735,-422 735,-478"/>
<text text-anchor="start" x="553.75" y="-464.5" font-family="Helvetica,sans-Serif" font-size="10.00">util::uniq_ptr&lt; T,</text>
<text text-anchor="start" x="553.75" y="-452.5" font-family="Helvetica,sans-Serif" font-size="10.00"> Destroy&lt; T *, void,</text>
<text text-anchor="start" x="553.75" y="-440.5" font-family="Helvetica,sans-Serif" font-size="10.00"> function &gt; &gt;&lt; IDXGIOutputDuplication,</text>
<text text-anchor="middle" x="640.38" y="-428.5" font-family="Helvetica,sans-Serif" font-size="10.00"> Release&lt; IDXGIOutputDuplication &gt; &gt;</text>
</a>
</g>
</g>
<!-- Node13&#45;&gt;Node12 -->
<g id="edge12_Node000012_Node000013" class="edge">
<title>Node13&#45;&gt;Node12</title>
<g id="a_edge12_Node000012_Node000013"><a xlink:title=" ">
<path fill="none" stroke="#9a32cd" stroke-dasharray="5,2" d="M746.46,-454.55C784.77,-456.21 826.7,-458.02 859.59,-459.45"/>
<polygon fill="#9a32cd" stroke="#9a32cd" points="746.89,-451.06 736.75,-454.13 746.59,-458.06 746.89,-451.06"/>
</a>
</g>
<text text-anchor="middle" x="776.62" y="-459.22" font-family="Helvetica,sans-Serif" font-size="10.00" fill="grey"> dup</text>
</g>
<!-- Node14 -->
<g id="Node000014" class="node">
<title>Node14</title>
<g id="a_Node000014"><a xlink:href="classutil_1_1uniq__ptr.html" target="_top" xlink:title=" ">
<polygon fill="white" stroke="#bfbfbf" points="1019.88,-434 819.38,-434 819.38,-378 1019.88,-378 1019.88,-434"/>
<text text-anchor="start" x="827.38" y="-420.5" font-family="Helvetica,sans-Serif" font-size="10.00">util::uniq_ptr&lt; T,</text>
<text text-anchor="start" x="827.38" y="-408.5" font-family="Helvetica,sans-Serif" font-size="10.00"> Destroy&lt; T *, void,</text>
<text text-anchor="start" x="827.38" y="-396.5" font-family="Helvetica,sans-Serif" font-size="10.00"> function &gt; &gt;&lt; ID3D11Sampler</text>
<text text-anchor="middle" x="919.62" y="-384.5" font-family="Helvetica,sans-Serif" font-size="10.00">State, Release&lt; ID3D11SamplerState &gt; &gt;</text>
</a>
</g>
</g>
<!-- Node14&#45;&gt;Node1 -->
<g id="edge13_Node000001_Node000014" class="edge">
<title>Node14&#45;&gt;Node1</title>
<g id="a_edge13_Node000001_Node000014"><a xlink:title=" ">
<path fill="none" stroke="#9a32cd" stroke-dasharray="5,2" d="M1030.95,-384.43C1056.91,-376.9 1083.82,-366.97 1107.25,-354 1127.21,-342.96 1146.01,-324.6 1158.16,-311.29"/>
<polygon fill="#9a32cd" stroke="#9a32cd" points="1030.04,-381.04 1021.35,-387.1 1031.92,-387.79 1030.04,-381.04"/>
</a>
</g>
<text text-anchor="middle" x="1074.25" y="-383.02" font-family="Helvetica,sans-Serif" font-size="10.00" fill="grey"> sampler_linear</text>
</g>
<!-- Node15 -->
<g id="Node000015" class="node">
<title>Node15</title>
<g id="a_Node000015"><a xlink:href="classutil_1_1uniq__ptr.html" target="_top" xlink:title=" ">
<polygon fill="white" stroke="#bfbfbf" points="1001.88,-360 837.38,-360 837.38,-304 1001.88,-304 1001.88,-360"/>
<text text-anchor="start" x="845.38" y="-346.5" font-family="Helvetica,sans-Serif" font-size="10.00">util::uniq_ptr&lt; T,</text>
<text text-anchor="start" x="845.38" y="-334.5" font-family="Helvetica,sans-Serif" font-size="10.00"> Destroy&lt; T *, void,</text>
<text text-anchor="start" x="845.38" y="-322.5" font-family="Helvetica,sans-Serif" font-size="10.00"> function &gt; &gt;&lt; ID3D11BlendState,</text>
<text text-anchor="middle" x="919.62" y="-310.5" font-family="Helvetica,sans-Serif" font-size="10.00"> Release&lt; ID3D11BlendState &gt; &gt;</text>
</a>
</g>
</g>
<!-- Node15&#45;&gt;Node1 -->
<g id="edge14_Node000001_Node000015" class="edge">
<title>Node15&#45;&gt;Node1</title>
<g id="a_edge14_Node000001_Node000015"><a xlink:title=" ">
<path fill="none" stroke="#9a32cd" stroke-dasharray="5,2" d="M1013.33,-318.35C1051.25,-312.77 1093.49,-306.56 1124.85,-301.94"/>
<polygon fill="#9a32cd" stroke="#9a32cd" points="1013.12,-314.85 1003.74,-319.77 1014.14,-321.77 1013.12,-314.85"/>
</a>
</g>
<text text-anchor="middle" x="1074.25" y="-340" font-family="Helvetica,sans-Serif" font-size="10.00" fill="grey"> blend_alpha</text>
<text text-anchor="middle" x="1074.25" y="-328" font-family="Helvetica,sans-Serif" font-size="10.00" fill="grey">blend_disable</text>
<text text-anchor="middle" x="1074.25" y="-316" font-family="Helvetica,sans-Serif" font-size="10.00" fill="grey">blend_invert</text>
</g>
<!-- Node16 -->
<g id="Node000016" class="node">
<title>Node16</title>
<g id="a_Node000016"><a xlink:href="classutil_1_1uniq__ptr.html" target="_top" xlink:title=" ">
<polygon fill="white" stroke="#bfbfbf" points="1004.12,-286 835.12,-286 835.12,-230 1004.12,-230 1004.12,-286"/>
<text text-anchor="start" x="843.12" y="-272.5" font-family="Helvetica,sans-Serif" font-size="10.00">util::uniq_ptr&lt; T,</text>
<text text-anchor="start" x="843.12" y="-260.5" font-family="Helvetica,sans-Serif" font-size="10.00"> Destroy&lt; T *, void,</text>
<text text-anchor="start" x="843.12" y="-248.5" font-family="Helvetica,sans-Serif" font-size="10.00"> function &gt; &gt;&lt; ID3D11PixelShader,</text>
<text text-anchor="middle" x="919.62" y="-236.5" font-family="Helvetica,sans-Serif" font-size="10.00"> Release&lt; ID3D11PixelShader &gt; &gt;</text>
</a>
</g>
</g>
<!-- Node16&#45;&gt;Node1 -->
<g id="edge15_Node000001_Node000016" class="edge">
<title>Node16&#45;&gt;Node1</title>
<g id="a_edge15_Node000001_Node000016"><a xlink:title=" ">
<path fill="none" stroke="#9a32cd" stroke-dasharray="5,2" d="M1015.29,-271.93C1052.73,-277.44 1094.09,-283.53 1124.91,-288.07"/>
<polygon fill="#9a32cd" stroke="#9a32cd" points="1016.23,-268.53 1005.83,-270.54 1015.21,-275.46 1016.23,-268.53"/>
</a>
</g>
<text text-anchor="middle" x="1074.25" y="-287.58" font-family="Helvetica,sans-Serif" font-size="10.00" fill="grey"> cursor_ps</text>
</g>
<!-- Node17 -->
<g id="Node000017" class="node">
<title>Node17</title>
<g id="a_Node000017"><a xlink:href="classutil_1_1uniq__ptr.html" target="_top" xlink:title=" ">
<polygon fill="white" stroke="#bfbfbf" points="1023.25,-212 816,-212 816,-156 1023.25,-156 1023.25,-212"/>
<text text-anchor="start" x="824" y="-198.5" font-family="Helvetica,sans-Serif" font-size="10.00">util::uniq_ptr&lt; T,</text>
<text text-anchor="start" x="824" y="-186.5" font-family="Helvetica,sans-Serif" font-size="10.00"> Destroy&lt; T *, void,</text>
<text text-anchor="start" x="824" y="-174.5" font-family="Helvetica,sans-Serif" font-size="10.00"> function &gt; &gt;&lt; ID3D11Vertex</text>
<text text-anchor="middle" x="919.62" y="-162.5" font-family="Helvetica,sans-Serif" font-size="10.00">Shader, Release&lt; ID3D11VertexShader &gt; &gt;</text>
</a>
</g>
</g>
<!-- Node17&#45;&gt;Node1 -->
<g id="edge16_Node000001_Node000017" class="edge">
<title>Node17&#45;&gt;Node1</title>
<g id="a_edge16_Node000001_Node000017"><a xlink:title=" ">
<path fill="none" stroke="#9a32cd" stroke-dasharray="5,2" d="M1012.36,-216.56C1016.05,-218.03 1019.69,-219.51 1023.25,-221 1061.41,-236.92 1070.27,-242.5 1107.25,-261 1118.49,-266.63 1130.72,-272.98 1141.49,-278.67"/>
<polygon fill="#9a32cd" stroke="#9a32cd" points="1013.86,-213.39 1003.27,-213 1011.3,-219.91 1013.86,-213.39"/>
</a>
</g>
<text text-anchor="middle" x="1074.25" y="-263.5" font-family="Helvetica,sans-Serif" font-size="10.00" fill="grey"> cursor_vs</text>
</g>
<!-- Node18 -->
<g id="Node000018" class="node">
<title>Node18</title>
<g id="a_Node000018"><a xlink:href="classplatf_1_1dxgi_1_1gpu__cursor__t.html" target="_top" xlink:title=" ">
<polygon fill="white" stroke="#bfbfbf" points="980.12,-78 859.12,-78 859.12,-58 980.12,-58 980.12,-78"/>
<text text-anchor="middle" x="919.62" y="-64.5" font-family="Helvetica,sans-Serif" font-size="10.00">platf::dxgi::gpu_cursor_t</text>
</a>
</g>
</g>
<!-- Node18&#45;&gt;Node1 -->
<g id="edge17_Node000001_Node000018" class="edge">
<title>Node18&#45;&gt;Node1</title>
<g id="a_edge17_Node000001_Node000018"><a xlink:title=" ">
<path fill="none" stroke="#9a32cd" stroke-dasharray="5,2" d="M971.23,-55.43C1012.2,-48.43 1069.17,-46.26 1107.25,-76 1140.06,-101.63 1162.61,-232.58 1169.66,-278.81"/>
<polygon fill="#9a32cd" stroke="#9a32cd" points="970.8,-51.95 961.61,-57.24 972.09,-58.83 970.8,-51.95"/>
</a>
</g>
<text text-anchor="middle" x="1074.25" y="-90.5" font-family="Helvetica,sans-Serif" font-size="10.00" fill="grey"> cursor_alpha</text>
<text text-anchor="middle" x="1074.25" y="-78.5" font-family="Helvetica,sans-Serif" font-size="10.00" fill="grey">cursor_xor</text>
</g>
<!-- Node19 -->
<g id="Node000019" class="node">
<title>Node19</title>
<g id="a_Node000019"><a xlink:href="classutil_1_1uniq__ptr.html" target="_top" xlink:title=" ">
<polygon fill="white" stroke="#bfbfbf" points="725.62,-142 555.12,-142 555.12,-86 725.62,-86 725.62,-142"/>
<text text-anchor="start" x="563.12" y="-128.5" font-family="Helvetica,sans-Serif" font-size="10.00">util::uniq_ptr&lt; T,</text>
<text text-anchor="start" x="563.12" y="-116.5" font-family="Helvetica,sans-Serif" font-size="10.00"> Destroy&lt; T *, void,</text>
<text text-anchor="start" x="563.12" y="-104.5" font-family="Helvetica,sans-Serif" font-size="10.00"> function &gt; &gt;&lt; ID3D11Texture2</text>
<text text-anchor="middle" x="640.38" y="-92.5" font-family="Helvetica,sans-Serif" font-size="10.00">D, Release&lt; ID3D11Texture2D &gt; &gt;</text>
</a>
</g>
</g>
<!-- Node19&#45;&gt;Node1 -->
<g id="edge20_Node000001_Node000019" class="edge">
<title>Node19&#45;&gt;Node1</title>
<g id="a_edge20_Node000001_Node000019"><a xlink:title=" ">
<path fill="none" stroke="#9a32cd" stroke-dasharray="5,2" d="M736.94,-107.56C833.26,-102.6 974.42,-99.97 1023.25,-123 1094.67,-156.68 1145.28,-242.71 1164.01,-278.74"/>
<polygon fill="#9a32cd" stroke="#9a32cd" points="737.03,-104.05 727.23,-108.07 737.41,-111.04 737.03,-104.05"/>
</a>
</g>
<text text-anchor="start" x="873.5" y="-137.5" font-family="Helvetica,sans-Serif" font-size="10.00" fill="grey"> old_surface_delayed</text>
<text text-anchor="middle" x="919.62" y="-125.5" font-family="Helvetica,sans-Serif" font-size="10.00" fill="grey">_destruction</text>
</g>
<!-- Node19&#45;&gt;Node18 -->
<g id="edge18_Node000018_Node000019" class="edge">
<title>Node19&#45;&gt;Node18</title>
<g id="a_edge18_Node000018_Node000019"><a xlink:title=" ">
<path fill="none" stroke="#9a32cd" stroke-dasharray="5,2" d="M737.11,-91.4C743.23,-90.18 749.32,-89.04 755.25,-88 789.31,-82.04 827.67,-77.25 858.66,-73.85"/>
<polygon fill="#9a32cd" stroke="#9a32cd" points="736.64,-87.92 727.54,-93.35 738.04,-94.78 736.64,-87.92"/>
</a>
</g>
<text text-anchor="middle" x="776.62" y="-90.5" font-family="Helvetica,sans-Serif" font-size="10.00" fill="grey"> texture</text>
</g>
<!-- Node20 -->
<g id="Node000020" class="node">
<title>Node20</title>
<g id="a_Node000020"><a xlink:href="classutil_1_1uniq__ptr.html" target="_top" xlink:title=" ">
<polygon fill="white" stroke="#bfbfbf" points="737.25,-68 543.5,-68 543.5,0 737.25,0 737.25,-68"/>
<text text-anchor="start" x="551.5" y="-54.5" font-family="Helvetica,sans-Serif" font-size="10.00">util::uniq_ptr&lt; T,</text>
<text text-anchor="start" x="551.5" y="-42.5" font-family="Helvetica,sans-Serif" font-size="10.00"> Destroy&lt; T *, void,</text>
<text text-anchor="start" x="551.5" y="-30.5" font-family="Helvetica,sans-Serif" font-size="10.00"> function &gt; &gt;&lt; ID3D11Shader</text>
<text text-anchor="start" x="551.5" y="-18.5" font-family="Helvetica,sans-Serif" font-size="10.00">ResourceView, Release&lt; ID3D11Shader</text>
<text text-anchor="middle" x="640.38" y="-6.5" font-family="Helvetica,sans-Serif" font-size="10.00">ResourceView &gt; &gt;</text>
</a>
</g>
</g>
<!-- Node20&#45;&gt;Node18 -->
<g id="edge19_Node000018_Node000020" class="edge">
<title>Node20&#45;&gt;Node18</title>
<g id="a_edge19_Node000018_Node000020"><a xlink:title=" ">
<path fill="none" stroke="#9a32cd" stroke-dasharray="5,2" d="M748.98,-38.98C765.43,-40.29 782.2,-41.93 798,-44 823.09,-47.28 850.8,-52.67 873.32,-57.51"/>
<polygon fill="#9a32cd" stroke="#9a32cd" points="749.4,-35.5 739.16,-38.24 748.87,-42.48 749.4,-35.5"/>
</a>
</g>
<text text-anchor="middle" x="776.62" y="-46.5" font-family="Helvetica,sans-Serif" font-size="10.00" fill="grey"> input_res</text>
</g>
</g>
</svg>

<g id="navigator" transform="translate(0 0)" fill="#404254">
  <rect fill="#f2f5e9" fill-opacity="0.5" stroke="#606060" stroke-width=".5" x="0" y="0" width="60" height="60"/>
  <use id="zoomplus" xlink:href="#zoomPlus" x="17" y="9" onmousedown="handleZoom(evt,'in')"/>
  <use id="zoomminus" xlink:href="#zoomMin" x="42" y="9" onmousedown="handleZoom(evt,'out')"/>
  <use id="reset" xlink:href="#resetDef" x="30" y="36" onmousedown="handleReset()"/>
   <use id="arrowup" xlink:href="#arrowUp" x="0" y="0" onmousedown="handlePan(0,-1)"/>
  <use id="arrowright" xlink:href="#arrowRight" x="0" y="0" onmousedown="handlePan(1,0)"/>
  <use id="arrowdown" xlink:href="#arrowDown" x="0" y="0" onmousedown="handlePan(0,1)"/>
  <use id="arrowleft" xlink:href="#arrowLeft" x="0" y="0" onmousedown="handlePan(-1,0)"/>
</g>
<svg viewBox="0 0 15 15" width="100%" height="30px" preserveAspectRatio="xMaxYMin meet">
 <g id="arrow_out" transform="scale(0.3 0.3)">
  <a xlink:href="classplatf_1_1dxgi_1_1display__ddup__vram__t__coll__graph_org.svg" target="_base">
   <rect id="button" ry="5" rx="5" y="6" x="6" height="38" width="38"
        fill="#f2f5e9" fill-opacity="0.5" stroke="#606060" stroke-width="1.0"/>
   <path id="arrow"
     d="M 11.500037,31.436501 C 11.940474,20.09759 22.043105,11.32322 32.158766,21.979434 L 37.068811,17.246167 C 37.068811,17.246167 37.088388,32 37.088388,32 L 22.160133,31.978069 C 22.160133,31.978069 26.997745,27.140456 26.997745,27.140456 C 18.528582,18.264221 13.291696,25.230495 11.500037,31.436501 z"
     style="fill:#404040;"/>
  </a>
 </g>
</svg>

<style type='text/css'>
<![CDATA[
[data-mouse-over-selected='false'] { opacity: 0.7; }
[data-mouse-over-selected='true']  { opacity: 1.0; }
]]>
</style>
<script type="application/ecmascript"><![CDATA[
document.addEventListener('DOMContentLoaded', (event) => {
  highlightEdges();
  highlightAdjacentNodes();
});
]]></script>
</svg>
