<?xml version="1.0" encoding="UTF-8" standalone="no"?>
<!DOCTYPE svg PUBLIC "-//W3C//DTD SVG 1.1//EN"
 "http://www.w3.org/Graphics/SVG/1.1/DTD/svg11.dtd">
<!-- Generated by graphviz version 12.2.1 (0)
 -->
<!-- Title: platf::dxgi::display_base_t Pages: 1 -->
<svg width="482pt" height="190pt"
 viewBox="0.00 0.00 482.25 190.00" xmlns="http://www.w3.org/2000/svg" xmlns:xlink="http://www.w3.org/1999/xlink">

<svg id="main" version="1.1" xmlns="http://www.w3.org/2000/svg" xmlns:xlink="http://www.w3.org/1999/xlink" xml:space="preserve">

<style type="text/css"><![CDATA[
.node, .edge {opacity: 0.7;}
.node.selected, .edge.selected {opacity: 1;}
.edge:hover path { stroke: red; }
.edge:hover polygon { stroke: red; fill: red; }
]]></style>
<script type="application/ecmascript" xlink:href="svg.min.js"/>
<svg id="graph" class="graph">
<g id="graph0" class="graph" transform="scale(1 1) rotate(0) translate(4 186)">
<title>platf::dxgi::display_base_t</title>
<!-- Node1 -->
<g id="Node000001" class="node">
<title>Node1</title>
<g id="a_Node000001"><a xlink:title=" ">
<polygon fill="#999999" stroke="#666666" points="211.25,-107 115.75,-107 115.75,-75 211.25,-75 211.25,-107"/>
<text text-anchor="start" x="123.75" y="-93.5" font-family="Helvetica,sans-Serif" font-size="10.00">platf::dxgi::display</text>
<text text-anchor="middle" x="163.5" y="-81.5" font-family="Helvetica,sans-Serif" font-size="10.00">_base_t</text>
</a>
</g>
</g>
<!-- Node3 -->
<g id="Node000003" class="node">
<title>Node3</title>
<g id="a_Node000003"><a xlink:href="classplatf_1_1dxgi_1_1display__ram__t.html" target="_top" xlink:title=" ">
<polygon fill="white" stroke="#666666" points="342.75,-132 247.25,-132 247.25,-100 342.75,-100 342.75,-132"/>
<text text-anchor="start" x="255.25" y="-118.5" font-family="Helvetica,sans-Serif" font-size="10.00">platf::dxgi::display</text>
<text text-anchor="middle" x="295" y="-106.5" font-family="Helvetica,sans-Serif" font-size="10.00">_ram_t</text>
</a>
</g>
</g>
<!-- Node1&#45;&gt;Node3 -->
<g id="edge2_Node000001_Node000003" class="edge">
<title>Node1&#45;&gt;Node3</title>
<g id="a_edge2_Node000001_Node000003"><a xlink:title=" ">
<path fill="none" stroke="#63b8ff" d="M222.65,-102.23C230.85,-103.81 239.19,-105.42 247.13,-106.95"/>
<polygon fill="#63b8ff" stroke="#63b8ff" points="223.59,-98.84 213.1,-100.38 222.26,-105.72 223.59,-98.84"/>
</a>
</g>
</g>
<!-- Node6 -->
<g id="Node000006" class="node">
<title>Node6</title>
<g id="a_Node000006"><a xlink:href="classplatf_1_1dxgi_1_1display__vram__t.html" target="_top" xlink:title=" ">
<polygon fill="white" stroke="#666666" points="342.75,-82 247.25,-82 247.25,-50 342.75,-50 342.75,-82"/>
<text text-anchor="start" x="255.25" y="-68.5" font-family="Helvetica,sans-Serif" font-size="10.00">platf::dxgi::display</text>
<text text-anchor="middle" x="295" y="-56.5" font-family="Helvetica,sans-Serif" font-size="10.00">_vram_t</text>
</a>
</g>
</g>
<!-- Node1&#45;&gt;Node6 -->
<g id="edge5_Node000001_Node000006" class="edge">
<title>Node1&#45;&gt;Node6</title>
<g id="a_edge5_Node000001_Node000006"><a xlink:title=" ">
<path fill="none" stroke="#63b8ff" d="M222.65,-79.77C230.85,-78.19 239.19,-76.58 247.13,-75.05"/>
<polygon fill="#63b8ff" stroke="#63b8ff" points="222.26,-76.28 213.1,-81.62 223.59,-83.16 222.26,-76.28"/>
</a>
</g>
</g>
<!-- Node2 -->
<g id="Node000002" class="node">
<title>Node2</title>
<g id="a_Node000002"><a xlink:href="classplatf_1_1display__t.html" target="_top" xlink:title=" ">
<polygon fill="white" stroke="#bfbfbf" points="79.75,-101 0,-101 0,-81 79.75,-81 79.75,-101"/>
<text text-anchor="middle" x="39.88" y="-87.5" font-family="Helvetica,sans-Serif" font-size="10.00">platf::display_t</text>
</a>
</g>
</g>
<!-- Node2&#45;&gt;Node1 -->
<g id="edge1_Node000001_Node000002" class="edge">
<title>Node2&#45;&gt;Node1</title>
<g id="a_edge1_Node000001_Node000002"><a xlink:title=" ">
<path fill="none" stroke="#63b8ff" d="M91.4,-91C99.33,-91 107.5,-91 115.34,-91"/>
<polygon fill="#63b8ff" stroke="#63b8ff" points="91.54,-87.5 81.54,-91 91.54,-94.5 91.54,-87.5"/>
</a>
</g>
</g>
<!-- Node4 -->
<g id="Node000004" class="node">
<title>Node4</title>
<g id="a_Node000004"><a xlink:href="classplatf_1_1dxgi_1_1display__ddup__ram__t.html" target="_top" xlink:title=" ">
<polygon fill="white" stroke="#666666" points="474.25,-182 378.75,-182 378.75,-150 474.25,-150 474.25,-182"/>
<text text-anchor="start" x="386.75" y="-168.5" font-family="Helvetica,sans-Serif" font-size="10.00">platf::dxgi::display</text>
<text text-anchor="middle" x="426.5" y="-156.5" font-family="Helvetica,sans-Serif" font-size="10.00">_ddup_ram_t</text>
</a>
</g>
</g>
<!-- Node3&#45;&gt;Node4 -->
<g id="edge3_Node000003_Node000004" class="edge">
<title>Node3&#45;&gt;Node4</title>
<g id="a_edge3_Node000003_Node000004"><a xlink:title=" ">
<path fill="none" stroke="#63b8ff" d="M349.05,-136.48C360.35,-140.85 372.15,-145.4 383,-149.59"/>
<polygon fill="#63b8ff" stroke="#63b8ff" points="350.4,-133.25 339.82,-132.92 347.88,-139.78 350.4,-133.25"/>
</a>
</g>
</g>
<!-- Node5 -->
<g id="Node000005" class="node">
<title>Node5</title>
<g id="a_Node000005"><a xlink:href="classplatf_1_1dxgi_1_1display__wgc__ram__t.html" target="_top" xlink:title=" ">
<polygon fill="white" stroke="#666666" points="474.25,-132 378.75,-132 378.75,-100 474.25,-100 474.25,-132"/>
<text text-anchor="start" x="386.75" y="-118.5" font-family="Helvetica,sans-Serif" font-size="10.00">platf::dxgi::display</text>
<text text-anchor="middle" x="426.5" y="-106.5" font-family="Helvetica,sans-Serif" font-size="10.00">_wgc_ram_t</text>
</a>
</g>
</g>
<!-- Node3&#45;&gt;Node5 -->
<g id="edge4_Node000003_Node000005" class="edge">
<title>Node3&#45;&gt;Node5</title>
<g id="a_edge4_Node000003_Node000005"><a xlink:title=" ">
<path fill="none" stroke="#63b8ff" d="M354.43,-116C362.54,-116 370.78,-116 378.63,-116"/>
<polygon fill="#63b8ff" stroke="#63b8ff" points="354.63,-112.5 344.63,-116 354.63,-119.5 354.63,-112.5"/>
</a>
</g>
</g>
<!-- Node7 -->
<g id="Node000007" class="node">
<title>Node7</title>
<g id="a_Node000007"><a xlink:href="classplatf_1_1dxgi_1_1display__ddup__vram__t.html" target="_top" xlink:title=" ">
<polygon fill="white" stroke="#666666" points="474.25,-82 378.75,-82 378.75,-50 474.25,-50 474.25,-82"/>
<text text-anchor="start" x="386.75" y="-68.5" font-family="Helvetica,sans-Serif" font-size="10.00">platf::dxgi::display</text>
<text text-anchor="middle" x="426.5" y="-56.5" font-family="Helvetica,sans-Serif" font-size="10.00">_ddup_vram_t</text>
</a>
</g>
</g>
<!-- Node6&#45;&gt;Node7 -->
<g id="edge6_Node000006_Node000007" class="edge">
<title>Node6&#45;&gt;Node7</title>
<g id="a_edge6_Node000006_Node000007"><a xlink:title=" ">
<path fill="none" stroke="#63b8ff" d="M354.43,-66C362.54,-66 370.78,-66 378.63,-66"/>
<polygon fill="#63b8ff" stroke="#63b8ff" points="354.63,-62.5 344.63,-66 354.63,-69.5 354.63,-62.5"/>
</a>
</g>
</g>
<!-- Node8 -->
<g id="Node000008" class="node">
<title>Node8</title>
<g id="a_Node000008"><a xlink:href="classplatf_1_1dxgi_1_1display__wgc__vram__t.html" target="_top" xlink:title=" ">
<polygon fill="white" stroke="#666666" points="474.25,-32 378.75,-32 378.75,0 474.25,0 474.25,-32"/>
<text text-anchor="start" x="386.75" y="-18.5" font-family="Helvetica,sans-Serif" font-size="10.00">platf::dxgi::display</text>
<text text-anchor="middle" x="426.5" y="-6.5" font-family="Helvetica,sans-Serif" font-size="10.00">_wgc_vram_t</text>
</a>
</g>
</g>
<!-- Node6&#45;&gt;Node8 -->
<g id="edge7_Node000006_Node000008" class="edge">
<title>Node6&#45;&gt;Node8</title>
<g id="a_edge7_Node000006_Node000008"><a xlink:title=" ">
<path fill="none" stroke="#63b8ff" d="M349.05,-45.52C360.35,-41.15 372.15,-36.6 383,-32.41"/>
<polygon fill="#63b8ff" stroke="#63b8ff" points="347.88,-42.22 339.82,-49.08 350.4,-48.75 347.88,-42.22"/>
</a>
</g>
</g>
</g>
</svg>
</svg>

<style type='text/css'>
<![CDATA[
[data-mouse-over-selected='false'] { opacity: 0.7; }
[data-mouse-over-selected='true']  { opacity: 1.0; }
]]>
</style>
<script type="application/ecmascript"><![CDATA[
document.addEventListener('DOMContentLoaded', (event) => {
  highlightEdges();
  highlightAdjacentNodes();
});
]]></script>
</svg>
