<?xml version="1.0" encoding="UTF-8" standalone="no"?>
<!DOCTYPE svg PUBLIC "-//W3C//DTD SVG 1.1//EN"
 "http://www.w3.org/Graphics/SVG/1.1/DTD/svg11.dtd">
<!-- Generated by graphviz version 12.2.1 (0)
 -->
<!-- Title: platf::qos_t Pages: 1 -->
<svg width="80pt" height="84pt"
 viewBox="0.00 0.00 80.25 84.00" xmlns="http://www.w3.org/2000/svg" xmlns:xlink="http://www.w3.org/1999/xlink">
<g id="graph0" class="graph" transform="scale(1 1) rotate(0) translate(4 80)">
<title>platf::qos_t</title>
<!-- Node1 -->
<g id="Node000001" class="node">
<title>Node1</title>
<g id="a_Node000001"><a xlink:title=" ">
<polygon fill="#999999" stroke="#666666" points="68.5,-20 3.75,-20 3.75,0 68.5,0 68.5,-20"/>
<text text-anchor="middle" x="36.12" y="-6.5" font-family="Helvetica,sans-Serif" font-size="10.00">platf::qos_t</text>
</a>
</g>
</g>
<!-- Node2 -->
<g id="Node000002" class="node">
<title>Node2</title>
<g id="a_Node000002"><a xlink:href="classplatf_1_1deinit__t.html" target="_top" xlink:title=" ">
<polygon fill="white" stroke="#bfbfbf" points="72.25,-76 0,-76 0,-56 72.25,-56 72.25,-76"/>
<text text-anchor="middle" x="36.12" y="-62.5" font-family="Helvetica,sans-Serif" font-size="10.00">platf::deinit_t</text>
</a>
</g>
</g>
<!-- Node2&#45;&gt;Node1 -->
<g id="edge1_Node000001_Node000002" class="edge">
<title>Node2&#45;&gt;Node1</title>
<g id="a_edge1_Node000001_Node000002"><a xlink:title=" ">
<path fill="none" stroke="#63b8ff" d="M22.97,-44.43C22.06,-36.11 22.95,-26.93 25.63,-20.3"/>
<polygon fill="#63b8ff" stroke="#63b8ff" points="19.55,-45.18 25.25,-54.12 26.37,-43.59 19.55,-45.18"/>
</a>
</g>
</g>
<!-- Node2&#45;&gt;Node1 -->
<g id="edge2_Node000001_Node000002" class="edge">
<title>Node2&#45;&gt;Node1</title>
<g id="a_edge2_Node000001_Node000002"><a xlink:title=" ">
<path fill="none" stroke="#63b8ff" d="M36.12,-44.13C36.12,-35.9 36.12,-26.85 36.12,-20.3"/>
<polygon fill="#63b8ff" stroke="#63b8ff" points="32.63,-44.08 36.13,-54.08 39.63,-44.08 32.63,-44.08"/>
</a>
</g>
</g>
<!-- Node2&#45;&gt;Node1 -->
<g id="edge3_Node000001_Node000002" class="edge">
<title>Node2&#45;&gt;Node1</title>
<g id="a_edge3_Node000001_Node000002"><a xlink:title=" ">
<path fill="none" stroke="#63b8ff" d="M49.28,-44.43C50.19,-36.11 49.3,-26.93 46.62,-20.3"/>
<polygon fill="#63b8ff" stroke="#63b8ff" points="45.88,-43.59 47,-54.12 52.7,-45.18 45.88,-43.59"/>
</a>
</g>
</g>
</g>
</svg>
