<?xml version="1.0" encoding="UTF-8" standalone="no"?>
<!DOCTYPE svg PUBLIC "-//W3C//DTD SVG 1.1//EN"
 "http://www.w3.org/Graphics/SVG/1.1/DTD/svg11.dtd">
<!-- Generated by graphviz version 12.2.1 (0)
 -->
<!-- Title: wl::wlr_t Pages: 1 -->
<svg width="180pt" height="140pt"
 viewBox="0.00 0.00 180.12 140.00" xmlns="http://www.w3.org/2000/svg" xmlns:xlink="http://www.w3.org/1999/xlink">
<g id="graph0" class="graph" transform="scale(1 1) rotate(0) translate(4 136)">
<title>wl::wlr_t</title>
<!-- Node1 -->
<g id="Node000001" class="node">
<title>Node1</title>
<g id="a_Node000001"><a xlink:title=" ">
<polygon fill="#999999" stroke="#666666" points="110.62,-76 57.88,-76 57.88,-56 110.62,-56 110.62,-76"/>
<text text-anchor="middle" x="84.25" y="-62.5" font-family="Helvetica,sans-Serif" font-size="10.00">wl::wlr_t</text>
</a>
</g>
</g>
<!-- Node3 -->
<g id="Node000003" class="node">
<title>Node3</title>
<g id="a_Node000003"><a xlink:href="classwl_1_1wlr__ram__t.html" target="_top" xlink:title=" ">
<polygon fill="white" stroke="#bfbfbf" points="74.5,-20 0,-20 0,0 74.5,0 74.5,-20"/>
<text text-anchor="middle" x="37.25" y="-6.5" font-family="Helvetica,sans-Serif" font-size="10.00">wl::wlr_ram_t</text>
</a>
</g>
</g>
<!-- Node1&#45;&gt;Node3 -->
<g id="edge2_Node000001_Node000003" class="edge">
<title>Node1&#45;&gt;Node3</title>
<g id="a_edge2_Node000001_Node000003"><a xlink:title=" ">
<path fill="none" stroke="#63b8ff" d="M68.59,-47C60.8,-38.06 51.72,-27.62 45.34,-20.3"/>
<polygon fill="#63b8ff" stroke="#63b8ff" points="65.86,-49.21 75.07,-54.45 71.14,-44.61 65.86,-49.21"/>
</a>
</g>
</g>
<!-- Node4 -->
<g id="Node000004" class="node">
<title>Node4</title>
<g id="a_Node000004"><a xlink:href="classwl_1_1wlr__vram__t.html" target="_top" xlink:title=" ">
<polygon fill="white" stroke="#bfbfbf" points="172.12,-20 92.38,-20 92.38,0 172.12,0 172.12,-20"/>
<text text-anchor="middle" x="132.25" y="-6.5" font-family="Helvetica,sans-Serif" font-size="10.00">wl::wlr_vram_t</text>
</a>
</g>
</g>
<!-- Node1&#45;&gt;Node4 -->
<g id="edge3_Node000001_Node000004" class="edge">
<title>Node1&#45;&gt;Node4</title>
<g id="a_edge3_Node000001_Node000004"><a xlink:title=" ">
<path fill="none" stroke="#63b8ff" d="M100.25,-47C108.2,-38.06 117.47,-27.62 123.98,-20.3"/>
<polygon fill="#63b8ff" stroke="#63b8ff" points="97.64,-44.66 93.62,-54.46 102.88,-49.31 97.64,-44.66"/>
</a>
</g>
</g>
<!-- Node2 -->
<g id="Node000002" class="node">
<title>Node2</title>
<g id="a_Node000002"><a xlink:href="classplatf_1_1display__t.html" target="_top" xlink:title=" ">
<polygon fill="white" stroke="#bfbfbf" points="124.12,-132 44.38,-132 44.38,-112 124.12,-112 124.12,-132"/>
<text text-anchor="middle" x="84.25" y="-118.5" font-family="Helvetica,sans-Serif" font-size="10.00">platf::display_t</text>
</a>
</g>
</g>
<!-- Node2&#45;&gt;Node1 -->
<g id="edge1_Node000001_Node000002" class="edge">
<title>Node2&#45;&gt;Node1</title>
<g id="a_edge1_Node000001_Node000002"><a xlink:title=" ">
<path fill="none" stroke="#63b8ff" d="M84.25,-100.13C84.25,-91.9 84.25,-82.85 84.25,-76.3"/>
<polygon fill="#63b8ff" stroke="#63b8ff" points="80.75,-100.08 84.25,-110.08 87.75,-100.08 80.75,-100.08"/>
</a>
</g>
</g>
</g>
</svg>
