<?xml version="1.0" encoding="UTF-8" standalone="no"?>
<!DOCTYPE svg PUBLIC "-//W3C//DTD SVG 1.1//EN"
 "http://www.w3.org/Graphics/SVG/1.1/DTD/svg11.dtd">
<!-- Generated by graphviz version 12.2.1 (0)
 -->
<!-- Title: cuda::gl_cuda_vram_t Pages: 1 -->
<!--zoomable 374 -->

<svg id="main" version="1.1" xmlns="http://www.w3.org/2000/svg" xmlns:xlink="http://www.w3.org/1999/xlink" xml:space="preserve" onload="init(evt)">

<style type="text/css"><![CDATA[
.node, .edge {opacity: 0.7;}
.node.selected, .edge.selected {opacity: 1;}
.edge:hover path { stroke: red; }
.edge:hover polygon { stroke: red; fill: red; }
]]></style>

<defs>
  <circle id="rim" cx="0" cy="0" r="7"/>
  <circle id="rim2" cx="0" cy="0" r="3.5"/>
  <g id="zoomPlus">
    <use xlink:href="#rim" fill="#404040"><set attributeName="fill" to="#808080" begin="zoomplus.mouseover" end="zoomplus.mouseout"/></use>
    <path d="M-4,0h8M0,-4v8" fill="none" stroke="white" stroke-width="1.5" pointer-events="none"/>
  </g>
  <g id="zoomMin">
    <use xlink:href="#rim" fill="#404040"><set attributeName="fill" to="#808080" begin="zoomminus.mouseover" end="zoomminus.mouseout"/></use>
    <path d="M-4,0h8" fill="none" stroke="white" stroke-width="1.5" pointer-events="none"/>
  </g>
  <g id="arrowUp" transform="translate(30 24)">
    <use xlink:href="#rim"/>
    <path pointer-events="none" fill="none" stroke="white" stroke-width="1.5" d="M0,-3.0v7 M-2.5,-0.5L0,-3.0L2.5,-0.5"/>
  </g>
  <g id="arrowRight" transform="rotate(90) translate(36 -43)">
    <use xlink:href="#rim"/>
    <path pointer-events="none" fill="none" stroke="white" stroke-width="1.5" d="M0,-3.0v7 M-2.5,-0.5L0,-3.0L2.5,-0.5"/>
  </g>
  <g id="arrowDown" transform="rotate(180) translate(-30 -48)">
    <use xlink:href="#rim"/>
    <path pointer-events="none" fill="none" stroke="white" stroke-width="1.5" d="M0,-3.0v7 M-2.5,-0.5L0,-3.0L2.5,-0.5"/>
  </g>
  <g id="arrowLeft" transform="rotate(270) translate(-36 17)">
    <use xlink:href="#rim"/>
    <path pointer-events="none" fill="none" stroke="white" stroke-width="1.5" d="M0,-3.0v7 M-2.5,-0.5L0,-3.0L2.5,-0.5"/>
  </g>
  <g id="resetDef">
    <use xlink:href="#rim2" fill="#404040"><set attributeName="fill" to="#808080" begin="reset.mouseover" end="reset.mouseout"/></use>
  </g>
</defs>
<script type="application/ecmascript">
var viewWidth = 833;
var viewHeight = 374;
var sectionId = 'dynsection-1';
</script>
<script type="application/ecmascript" xlink:href="svg.min.js"/>
<svg id="graph" class="graph">
<g id="viewport">
<title>cuda::gl_cuda_vram_t</title>
<!-- Node1 -->
<g id="Node000001" class="node">
<title>Node1</title>
<g id="a_Node000001"><a xlink:title=" ">
<polygon fill="#999999" stroke="#666666" points="825.25,-187 713.25,-187 713.25,-167 825.25,-167 825.25,-187"/>
<text text-anchor="middle" x="769.25" y="-173.5" font-family="Helvetica,sans-Serif" font-size="10.00">cuda::gl_cuda_vram_t</text>
</a>
</g>
</g>
<!-- Node2 -->
<g id="Node000002" class="node">
<title>Node2</title>
<g id="a_Node000002"><a xlink:href="structplatf_1_1avcodec__encode__device__t.html" target="_top" xlink:title=" ">
<polygon fill="white" stroke="#bfbfbf" points="606.75,-366 492.5,-366 492.5,-334 606.75,-334 606.75,-366"/>
<text text-anchor="start" x="500.5" y="-352.5" font-family="Helvetica,sans-Serif" font-size="10.00">platf::avcodec_encode</text>
<text text-anchor="middle" x="549.62" y="-340.5" font-family="Helvetica,sans-Serif" font-size="10.00">_device_t</text>
</a>
</g>
</g>
<!-- Node2&#45;&gt;Node1 -->
<g id="edge1_Node000001_Node000002" class="edge">
<title>Node2&#45;&gt;Node1</title>
<g id="a_edge1_Node000001_Node000002"><a xlink:title=" ">
<path fill="none" stroke="#63b8ff" d="M617.5,-334.72C624.24,-331.98 630.79,-328.77 636.75,-325 696.61,-287.18 745.28,-214.39 762.01,-187.4"/>
<polygon fill="#63b8ff" stroke="#63b8ff" points="616.41,-331.4 608.23,-338.13 618.83,-337.97 616.41,-331.4"/>
</a>
</g>
</g>
<!-- Node3 -->
<g id="Node000003" class="node">
<title>Node3</title>
<g id="a_Node000003"><a xlink:href="structplatf_1_1encode__device__t.html" target="_top" xlink:title=" ">
<polygon fill="white" stroke="#bfbfbf" points="345.5,-360 231.25,-360 231.25,-340 345.5,-340 345.5,-360"/>
<text text-anchor="middle" x="288.38" y="-346.5" font-family="Helvetica,sans-Serif" font-size="10.00">platf::encode_device_t</text>
</a>
</g>
</g>
<!-- Node3&#45;&gt;Node2 -->
<g id="edge2_Node000002_Node000003" class="edge">
<title>Node3&#45;&gt;Node2</title>
<g id="a_edge2_Node000002_Node000003"><a xlink:title=" ">
<path fill="none" stroke="#63b8ff" d="M357.2,-350C399.19,-350 452.49,-350 492.17,-350"/>
<polygon fill="#63b8ff" stroke="#63b8ff" points="357.46,-346.5 347.46,-350 357.46,-353.5 357.46,-346.5"/>
</a>
</g>
</g>
<!-- Node4 -->
<g id="Node000004" class="node">
<title>Node4</title>
<g id="a_Node000004"><a xlink:href="structvideo_1_1sunshine__colorspace__t.html" target="_top" xlink:title=" ">
<polygon fill="white" stroke="#bfbfbf" points="145,-360 0,-360 0,-340 145,-340 145,-360"/>
<text text-anchor="middle" x="72.5" y="-346.5" font-family="Helvetica,sans-Serif" font-size="10.00">video::sunshine_colorspace_t</text>
</a>
</g>
</g>
<!-- Node4&#45;&gt;Node3 -->
<g id="edge3_Node000003_Node000004" class="edge">
<title>Node4&#45;&gt;Node3</title>
<g id="a_edge3_Node000003_Node000004"><a xlink:title=" ">
<path fill="none" stroke="#9a32cd" stroke-dasharray="5,2" d="M156.6,-350C181.5,-350 208.21,-350 230.96,-350"/>
<polygon fill="#9a32cd" stroke="#9a32cd" points="156.83,-346.5 146.83,-350 156.83,-353.5 156.83,-346.5"/>
</a>
</g>
<text text-anchor="middle" x="188.12" y="-352.5" font-family="Helvetica,sans-Serif" font-size="10.00" fill="grey"> colorspace</text>
</g>
<!-- Node5 -->
<g id="Node000005" class="node">
<title>Node5</title>
<g id="a_Node000005"><a xlink:href="classutil_1_1uniq__ptr.html" target="_top" xlink:title=" ">
<polygon fill="white" stroke="#bfbfbf" points="605.62,-316 493.62,-316 493.62,-260 605.62,-260 605.62,-316"/>
<text text-anchor="start" x="501.62" y="-302.5" font-family="Helvetica,sans-Serif" font-size="10.00">util::uniq_ptr&lt; T,</text>
<text text-anchor="start" x="501.62" y="-290.5" font-family="Helvetica,sans-Serif" font-size="10.00"> Destroy&lt; T *, void,</text>
<text text-anchor="start" x="501.62" y="-278.5" font-family="Helvetica,sans-Serif" font-size="10.00"> function &gt; &gt;&lt; device,</text>
<text text-anchor="middle" x="549.62" y="-266.5" font-family="Helvetica,sans-Serif" font-size="10.00"> &amp;device_destroy &gt;</text>
</a>
</g>
</g>
<!-- Node5&#45;&gt;Node1 -->
<g id="edge4_Node000001_Node000005" class="edge">
<title>Node5&#45;&gt;Node1</title>
<g id="a_edge4_Node000001_Node000005"><a xlink:title=" ">
<path fill="none" stroke="#9a32cd" stroke-dasharray="5,2" d="M616,-260.79C623.06,-257.59 630.09,-254.3 636.75,-251 678.78,-230.22 726.33,-202.32 751.13,-187.42"/>
<polygon fill="#9a32cd" stroke="#9a32cd" points="614.79,-257.5 607.08,-264.76 617.64,-263.89 614.79,-257.5"/>
</a>
</g>
<text text-anchor="middle" x="675" y="-244.21" font-family="Helvetica,sans-Serif" font-size="10.00" fill="grey"> gbm</text>
</g>
<!-- Node6 -->
<g id="Node000006" class="node">
<title>Node6</title>
<g id="a_Node000006"><a xlink:href="classutil_1_1uniq__ptr.html" target="_top" xlink:title=" ">
<polygon fill="white" stroke="#bfbfbf" points="625.12,-242 474.12,-242 474.12,-186 625.12,-186 625.12,-242"/>
<text text-anchor="start" x="482.12" y="-228.5" font-family="Helvetica,sans-Serif" font-size="10.00">util::uniq_ptr&lt; T,</text>
<text text-anchor="start" x="482.12" y="-216.5" font-family="Helvetica,sans-Serif" font-size="10.00"> Destroy&lt; T *, void,</text>
<text text-anchor="start" x="482.12" y="-204.5" font-family="Helvetica,sans-Serif" font-size="10.00"> function &gt; &gt;&lt; void,</text>
<text text-anchor="middle" x="549.62" y="-192.5" font-family="Helvetica,sans-Serif" font-size="10.00"> EGLBoolean, &amp;eglTerminate &gt;</text>
</a>
</g>
</g>
<!-- Node6&#45;&gt;Node1 -->
<g id="edge5_Node000001_Node000006" class="edge">
<title>Node6&#45;&gt;Node1</title>
<g id="a_edge5_Node000001_Node000006"><a xlink:title=" ">
<path fill="none" stroke="#9a32cd" stroke-dasharray="5,2" d="M636.75,-199.36C662.36,-195 689.72,-190.35 712.81,-186.43"/>
<polygon fill="#9a32cd" stroke="#9a32cd" points="636.28,-195.89 627.01,-201.01 637.46,-202.79 636.28,-195.89"/>
</a>
</g>
<text text-anchor="middle" x="675" y="-198" font-family="Helvetica,sans-Serif" font-size="10.00" fill="grey"> display</text>
</g>
<!-- Node7 -->
<g id="Node000007" class="node">
<title>Node7</title>
<g id="a_Node000007"><a xlink:href="classutil_1_1uniq__ptr.html" target="_top" xlink:title=" ">
<polygon fill="white" stroke="#bfbfbf" points="611.25,-168 488,-168 488,-112 611.25,-112 611.25,-168"/>
<text text-anchor="start" x="496" y="-154.5" font-family="Helvetica,sans-Serif" font-size="10.00">util::uniq_ptr&lt; T,</text>
<text text-anchor="start" x="496" y="-142.5" font-family="Helvetica,sans-Serif" font-size="10.00"> Destroy&lt; T *, void,</text>
<text text-anchor="start" x="496" y="-130.5" font-family="Helvetica,sans-Serif" font-size="10.00"> function &gt; &gt;&lt; AVFrame,</text>
<text text-anchor="middle" x="549.62" y="-118.5" font-family="Helvetica,sans-Serif" font-size="10.00"> free_frame &gt;</text>
</a>
</g>
</g>
<!-- Node7&#45;&gt;Node1 -->
<g id="edge6_Node000001_Node000007" class="edge">
<title>Node7&#45;&gt;Node1</title>
<g id="a_edge6_Node000001_Node000007"><a xlink:title=" ">
<path fill="none" stroke="#9a32cd" stroke-dasharray="5,2" d="M622.59,-152.24C652,-157.24 685.49,-162.93 712.94,-167.6"/>
<polygon fill="#9a32cd" stroke="#9a32cd" points="623.47,-148.84 613.03,-150.61 622.3,-155.74 623.47,-148.84"/>
</a>
</g>
<text text-anchor="middle" x="675" y="-166.48" font-family="Helvetica,sans-Serif" font-size="10.00" fill="grey"> hwframe</text>
</g>
<!-- Node8 -->
<g id="Node000008" class="node">
<title>Node8</title>
<g id="a_Node000008"><a xlink:href="classegl_1_1sws__t.html" target="_top" xlink:title=" ">
<polygon fill="white" stroke="#bfbfbf" points="580.12,-94 519.12,-94 519.12,-74 580.12,-74 580.12,-94"/>
<text text-anchor="middle" x="549.62" y="-80.5" font-family="Helvetica,sans-Serif" font-size="10.00">egl::sws_t</text>
</a>
</g>
</g>
<!-- Node8&#45;&gt;Node1 -->
<g id="edge7_Node000001_Node000008" class="edge">
<title>Node8&#45;&gt;Node1</title>
<g id="a_edge7_Node000001_Node000008"><a xlink:title=" ">
<path fill="none" stroke="#9a32cd" stroke-dasharray="5,2" d="M591.57,-90.46C606.11,-93.43 622.42,-97.53 636.75,-103 681.53,-120.11 729.49,-150.57 753.19,-166.55"/>
<polygon fill="#9a32cd" stroke="#9a32cd" points="592.32,-87.04 581.84,-88.61 591.01,-93.92 592.32,-87.04"/>
</a>
</g>
<text text-anchor="middle" x="675" y="-132.04" font-family="Helvetica,sans-Serif" font-size="10.00" fill="grey"> sws</text>
</g>
<!-- Node9 -->
<g id="Node000009" class="node">
<title>Node9</title>
<g id="a_Node000009"><a xlink:href="classgl_1_1tex__t.html" target="_top" xlink:title=" ">
<polygon fill="white" stroke="#bfbfbf" points="314,-155 262.75,-155 262.75,-135 314,-135 314,-155"/>
<text text-anchor="middle" x="288.38" y="-141.5" font-family="Helvetica,sans-Serif" font-size="10.00">gl::tex_t</text>
</a>
</g>
</g>
<!-- Node9&#45;&gt;Node8 -->
<g id="edge8_Node000008_Node000009" class="edge">
<title>Node9&#45;&gt;Node8</title>
<g id="a_edge8_Node000008_Node000009"><a xlink:title=" ">
<path fill="none" stroke="#9a32cd" stroke-dasharray="5,2" d="M325.68,-148.12C358.76,-149.29 407.89,-146.68 444.5,-126 455.8,-119.61 451.52,-109.92 462.5,-103 479.34,-92.39 501.29,-87.66 518.81,-85.57"/>
<polygon fill="#9a32cd" stroke="#9a32cd" points="325.95,-144.63 315.79,-147.63 325.6,-151.62 325.95,-144.63"/>
</a>
</g>
<text text-anchor="middle" x="404" y="-149.95" font-family="Helvetica,sans-Serif" font-size="10.00" fill="grey"> tex</text>
</g>
<!-- Node10 -->
<g id="Node000010" class="node">
<title>Node10</title>
<g id="a_Node000010"><a xlink:href="classutil_1_1buffer__t.html" target="_top" xlink:title=" ">
<polygon fill="white" stroke="#bfbfbf" points="129.25,-136 15.75,-136 15.75,-116 129.25,-116 129.25,-136"/>
<text text-anchor="middle" x="72.5" y="-122.5" font-family="Helvetica,sans-Serif" font-size="10.00">util::buffer_t&lt; GLuint &gt;</text>
</a>
</g>
</g>
<!-- Node10&#45;&gt;Node9 -->
<g id="edge9_Node000009_Node000010" class="edge">
<title>Node10&#45;&gt;Node9</title>
<g id="a_edge9_Node000009_Node000010"><a xlink:title=" ">
<path fill="none" stroke="#63b8ff" d="M141.09,-132C182.44,-135.68 232.91,-140.16 262.46,-142.79"/>
<polygon fill="#63b8ff" stroke="#63b8ff" points="141.47,-128.52 131.2,-131.13 140.85,-135.5 141.47,-128.52"/>
</a>
</g>
</g>
<!-- Node11 -->
<g id="Node000011" class="node">
<title>Node11</title>
<g id="a_Node000011"><a xlink:href="classgl_1_1frame__buf__t.html" target="_top" xlink:title=" ">
<polygon fill="white" stroke="#bfbfbf" points="329,-116 247.75,-116 247.75,-96 329,-96 329,-116"/>
<text text-anchor="middle" x="288.38" y="-102.5" font-family="Helvetica,sans-Serif" font-size="10.00">gl::frame_buf_t</text>
</a>
</g>
</g>
<!-- Node10&#45;&gt;Node11 -->
<g id="edge11_Node000011_Node000010" class="edge">
<title>Node10&#45;&gt;Node11</title>
<g id="a_edge11_Node000011_Node000010"><a xlink:title=" ">
<path fill="none" stroke="#63b8ff" d="M140.81,-119.71C175.85,-116.43 217.5,-112.53 247.43,-109.74"/>
<polygon fill="#63b8ff" stroke="#63b8ff" points="140.83,-116.19 131.2,-120.6 141.48,-123.16 140.83,-116.19"/>
</a>
</g>
</g>
<!-- Node11&#45;&gt;Node8 -->
<g id="edge10_Node000008_Node000011" class="edge">
<title>Node11&#45;&gt;Node8</title>
<g id="a_edge10_Node000008_Node000011"><a xlink:title=" ">
<path fill="none" stroke="#9a32cd" stroke-dasharray="5,2" d="M340.54,-101.66C393.74,-97.14 475.21,-90.23 518.74,-86.54"/>
<polygon fill="#9a32cd" stroke="#9a32cd" points="340.49,-98.15 330.82,-102.48 341.08,-105.12 340.49,-98.15"/>
</a>
</g>
<text text-anchor="middle" x="404" y="-114" font-family="Helvetica,sans-Serif" font-size="10.00" fill="grey"> copy_framebuffer</text>
<text text-anchor="middle" x="404" y="-102" font-family="Helvetica,sans-Serif" font-size="10.00" fill="grey">cursor_framebuffer</text>
</g>
<!-- Node12 -->
<g id="Node000012" class="node">
<title>Node12</title>
<g id="a_Node000012"><a xlink:href="classgl_1_1program__t.html" target="_top" xlink:title=" ">
<polygon fill="white" stroke="#bfbfbf" points="324.88,-76 251.88,-76 251.88,-56 324.88,-56 324.88,-76"/>
<text text-anchor="middle" x="288.38" y="-62.5" font-family="Helvetica,sans-Serif" font-size="10.00">gl::program_t</text>
</a>
</g>
</g>
<!-- Node12&#45;&gt;Node8 -->
<g id="edge12_Node000008_Node000012" class="edge">
<title>Node12&#45;&gt;Node8</title>
<g id="a_edge12_Node000008_Node000012"><a xlink:title=" ">
<path fill="none" stroke="#9a32cd" stroke-dasharray="5,2" d="M336.45,-64.41C367.25,-63.83 408.33,-63.95 444.5,-67 469.69,-69.12 497.98,-73.9 518.71,-77.85"/>
<polygon fill="#9a32cd" stroke="#9a32cd" points="336.62,-60.9 326.7,-64.62 336.77,-67.9 336.62,-60.9"/>
</a>
</g>
<text text-anchor="middle" x="404" y="-69.5" font-family="Helvetica,sans-Serif" font-size="10.00" fill="grey"> program</text>
</g>
<!-- Node13 -->
<g id="Node000013" class="node">
<title>Node13</title>
<g id="a_Node000013"><a xlink:href="classgl_1_1buffer__t.html" target="_top" xlink:title=" ">
<polygon fill="white" stroke="#bfbfbf" points="319.25,-38 257.5,-38 257.5,-18 319.25,-18 319.25,-38"/>
<text text-anchor="middle" x="288.38" y="-24.5" font-family="Helvetica,sans-Serif" font-size="10.00">gl::buffer_t</text>
</a>
</g>
</g>
<!-- Node13&#45;&gt;Node8 -->
<g id="edge13_Node000008_Node000013" class="edge">
<title>Node13&#45;&gt;Node8</title>
<g id="a_edge13_Node000008_Node000013"><a xlink:title=" ">
<path fill="none" stroke="#9a32cd" stroke-dasharray="5,2" d="M330.8,-26.5C363.22,-26.9 408.66,-31.02 444.5,-48 454.44,-52.71 452.78,-59.85 462.5,-65 479.96,-74.24 501.69,-79 518.96,-81.44"/>
<polygon fill="#9a32cd" stroke="#9a32cd" points="331,-23 321,-26.5 331,-30 331,-23"/>
</a>
</g>
<text text-anchor="middle" x="404" y="-50.5" font-family="Helvetica,sans-Serif" font-size="10.00" fill="grey"> color_matrix</text>
</g>
<!-- Node14 -->
<g id="Node000014" class="node">
<title>Node14</title>
<g id="a_Node000014"><a xlink:href="classutil_1_1uniq__ptr.html" target="_top" xlink:title=" ">
<polygon fill="white" stroke="#bfbfbf" points="636.75,-56 462.5,-56 462.5,0 636.75,0 636.75,-56"/>
<text text-anchor="start" x="470.5" y="-42.5" font-family="Helvetica,sans-Serif" font-size="10.00">util::uniq_ptr&lt; T,</text>
<text text-anchor="start" x="470.5" y="-30.5" font-family="Helvetica,sans-Serif" font-size="10.00"> Destroy&lt; T *, void,</text>
<text text-anchor="start" x="470.5" y="-18.5" font-family="Helvetica,sans-Serif" font-size="10.00"> function &gt; &gt;&lt; CUgraphicsResource</text>
<text text-anchor="middle" x="549.62" y="-6.5" font-family="Helvetica,sans-Serif" font-size="10.00">_st, unregisterResource &gt;</text>
</a>
</g>
</g>
<!-- Node14&#45;&gt;Node1 -->
<g id="edge14_Node000001_Node000014" class="edge">
<title>Node14&#45;&gt;Node1</title>
<g id="a_edge14_Node000001_Node000014"><a xlink:title=" ">
<path fill="none" stroke="#9a32cd" stroke-dasharray="5,2" d="M647.63,-56.41C664.36,-63.63 680.94,-72.42 695.25,-83 727.14,-106.59 752.26,-147.67 762.82,-166.74"/>
<polygon fill="#9a32cd" stroke="#9a32cd" points="649.19,-53.27 638.61,-52.7 646.52,-59.74 649.19,-53.27"/>
</a>
</g>
<text text-anchor="middle" x="675" y="-97.5" font-family="Helvetica,sans-Serif" font-size="10.00" fill="grey"> uv_res</text>
<text text-anchor="middle" x="675" y="-85.5" font-family="Helvetica,sans-Serif" font-size="10.00" fill="grey">y_res</text>
</g>
</g>
</svg>

<g id="navigator" transform="translate(0 0)" fill="#404254">
  <rect fill="#f2f5e9" fill-opacity="0.5" stroke="#606060" stroke-width=".5" x="0" y="0" width="60" height="60"/>
  <use id="zoomplus" xlink:href="#zoomPlus" x="17" y="9" onmousedown="handleZoom(evt,'in')"/>
  <use id="zoomminus" xlink:href="#zoomMin" x="42" y="9" onmousedown="handleZoom(evt,'out')"/>
  <use id="reset" xlink:href="#resetDef" x="30" y="36" onmousedown="handleReset()"/>
   <use id="arrowup" xlink:href="#arrowUp" x="0" y="0" onmousedown="handlePan(0,-1)"/>
  <use id="arrowright" xlink:href="#arrowRight" x="0" y="0" onmousedown="handlePan(1,0)"/>
  <use id="arrowdown" xlink:href="#arrowDown" x="0" y="0" onmousedown="handlePan(0,1)"/>
  <use id="arrowleft" xlink:href="#arrowLeft" x="0" y="0" onmousedown="handlePan(-1,0)"/>
</g>
<svg viewBox="0 0 15 15" width="100%" height="30px" preserveAspectRatio="xMaxYMin meet">
 <g id="arrow_out" transform="scale(0.3 0.3)">
  <a xlink:href="classcuda_1_1gl__cuda__vram__t__coll__graph_org.svg" target="_base">
   <rect id="button" ry="5" rx="5" y="6" x="6" height="38" width="38"
        fill="#f2f5e9" fill-opacity="0.5" stroke="#606060" stroke-width="1.0"/>
   <path id="arrow"
     d="M 11.500037,31.436501 C 11.940474,20.09759 22.043105,11.32322 32.158766,21.979434 L 37.068811,17.246167 C 37.068811,17.246167 37.088388,32 37.088388,32 L 22.160133,31.978069 C 22.160133,31.978069 26.997745,27.140456 26.997745,27.140456 C 18.528582,18.264221 13.291696,25.230495 11.500037,31.436501 z"
     style="fill:#404040;"/>
  </a>
 </g>
</svg>

<style type='text/css'>
<![CDATA[
[data-mouse-over-selected='false'] { opacity: 0.7; }
[data-mouse-over-selected='true']  { opacity: 1.0; }
]]>
</style>
<script type="application/ecmascript"><![CDATA[
document.addEventListener('DOMContentLoaded', (event) => {
  highlightEdges();
  highlightAdjacentNodes();
});
]]></script>
</svg>
