<?xml version="1.0" encoding="UTF-8" standalone="no"?>
<!DOCTYPE svg PUBLIC "-//W3C//DTD SVG 1.1//EN"
 "http://www.w3.org/Graphics/SVG/1.1/DTD/svg11.dtd">
<!-- Generated by graphviz version 12.2.1 (0)
 -->
<!-- Title: platf::dxgi::display_base_t Pages: 1 -->
<svg width="647pt" height="404pt"
 viewBox="0.00 0.00 647.00 404.00" xmlns="http://www.w3.org/2000/svg" xmlns:xlink="http://www.w3.org/1999/xlink">
<g id="graph0" class="graph" transform="scale(1 1) rotate(0) translate(4 400)">
<title>platf::dxgi::display_base_t</title>
<!-- Node1 -->
<g id="Node000001" class="node">
<title>Node1</title>
<g id="a_Node000001"><a xlink:title=" ">
<polygon fill="#999999" stroke="#666666" points="639,-229 543.5,-229 543.5,-197 639,-197 639,-229"/>
<text text-anchor="start" x="551.5" y="-215.5" font-family="Helvetica,sans-Serif" font-size="10.00">platf::dxgi::display</text>
<text text-anchor="middle" x="591.25" y="-203.5" font-family="Helvetica,sans-Serif" font-size="10.00">_base_t</text>
</a>
</g>
</g>
<!-- Node2 -->
<g id="Node000002" class="node">
<title>Node2</title>
<g id="a_Node000002"><a xlink:href="classplatf_1_1display__t.html" target="_top" xlink:title=" ">
<polygon fill="white" stroke="#bfbfbf" points="388.25,-390 308.5,-390 308.5,-370 388.25,-370 388.25,-390"/>
<text text-anchor="middle" x="348.38" y="-376.5" font-family="Helvetica,sans-Serif" font-size="10.00">platf::display_t</text>
</a>
</g>
</g>
<!-- Node2&#45;&gt;Node1 -->
<g id="edge1_Node000001_Node000002" class="edge">
<title>Node2&#45;&gt;Node1</title>
<g id="a_edge1_Node000001_Node000002"><a xlink:title=" ">
<path fill="none" stroke="#63b8ff" d="M399.97,-377.39C418.76,-374.84 439.75,-370.01 457.25,-361 516.84,-330.34 562.49,-261.15 581.11,-229.44"/>
<polygon fill="#63b8ff" stroke="#63b8ff" points="399.64,-373.91 390.11,-378.54 400.44,-380.86 399.64,-373.91"/>
</a>
</g>
</g>
<!-- Node3 -->
<g id="Node000003" class="node">
<title>Node3</title>
<g id="a_Node000003"><a xlink:href="classlogging_1_1time__delta__periodic__logger.html" target="_top" xlink:title="A helper class for tracking and logging short time intervals across a period of time.">
<polygon fill="white" stroke="#666666" points="97.75,-396 0,-396 0,-364 97.75,-364 97.75,-396"/>
<text text-anchor="start" x="8" y="-382.5" font-family="Helvetica,sans-Serif" font-size="10.00">logging::time_delta</text>
<text text-anchor="middle" x="48.88" y="-370.5" font-family="Helvetica,sans-Serif" font-size="10.00">_periodic_logger</text>
</a>
</g>
</g>
<!-- Node3&#45;&gt;Node2 -->
<g id="edge2_Node000002_Node000003" class="edge">
<title>Node3&#45;&gt;Node2</title>
<g id="a_edge2_Node000002_Node000003"><a xlink:title=" ">
<path fill="none" stroke="#9a32cd" stroke-dasharray="5,2" d="M109.42,-380C168.59,-380 257.62,-380 308.34,-380"/>
<polygon fill="#9a32cd" stroke="#9a32cd" points="109.52,-376.5 99.52,-380 109.52,-383.5 109.52,-376.5"/>
</a>
</g>
<text text-anchor="middle" x="168.62" y="-382.5" font-family="Helvetica,sans-Serif" font-size="10.00" fill="grey"> sleep_overshoot_logger</text>
</g>
<!-- Node4 -->
<g id="Node000004" class="node">
<title>Node4</title>
<g id="a_Node000004"><a xlink:href="classutil_1_1uniq__ptr.html" target="_top" xlink:title=" ">
<polygon fill="white" stroke="#bfbfbf" points="423.12,-352 273.62,-352 273.62,-296 423.12,-296 423.12,-352"/>
<text text-anchor="start" x="281.62" y="-338.5" font-family="Helvetica,sans-Serif" font-size="10.00">util::uniq_ptr&lt; T,</text>
<text text-anchor="start" x="281.62" y="-326.5" font-family="Helvetica,sans-Serif" font-size="10.00"> Destroy&lt; T *, void,</text>
<text text-anchor="start" x="281.62" y="-314.5" font-family="Helvetica,sans-Serif" font-size="10.00"> function &gt; &gt;&lt; IDXGIFactory1,</text>
<text text-anchor="middle" x="348.38" y="-302.5" font-family="Helvetica,sans-Serif" font-size="10.00"> Release&lt; IDXGIFactory1 &gt; &gt;</text>
</a>
</g>
</g>
<!-- Node4&#45;&gt;Node1 -->
<g id="edge3_Node000001_Node000004" class="edge">
<title>Node4&#45;&gt;Node1</title>
<g id="a_edge3_Node000001_Node000004"><a xlink:title=" ">
<path fill="none" stroke="#9a32cd" stroke-dasharray="5,2" d="M434.2,-296.51C442.06,-293.48 449.85,-290.3 457.25,-287 495.63,-269.9 537.64,-245.5 563.97,-229.46"/>
<polygon fill="#9a32cd" stroke="#9a32cd" points="433.01,-293.22 424.87,-300.01 435.47,-299.77 433.01,-293.22"/>
</a>
</g>
<text text-anchor="middle" x="500.38" y="-280.74" font-family="Helvetica,sans-Serif" font-size="10.00" fill="grey"> factory</text>
</g>
<!-- Node5 -->
<g id="Node000005" class="node">
<title>Node5</title>
<g id="a_Node000005"><a xlink:href="classutil_1_1uniq__ptr.html" target="_top" xlink:title=" ">
<polygon fill="white" stroke="#bfbfbf" points="423.5,-278 273.25,-278 273.25,-222 423.5,-222 423.5,-278"/>
<text text-anchor="start" x="281.25" y="-264.5" font-family="Helvetica,sans-Serif" font-size="10.00">util::uniq_ptr&lt; T,</text>
<text text-anchor="start" x="281.25" y="-252.5" font-family="Helvetica,sans-Serif" font-size="10.00"> Destroy&lt; T *, void,</text>
<text text-anchor="start" x="281.25" y="-240.5" font-family="Helvetica,sans-Serif" font-size="10.00"> function &gt; &gt;&lt; IDXGIAdapter1,</text>
<text text-anchor="middle" x="348.38" y="-228.5" font-family="Helvetica,sans-Serif" font-size="10.00"> Release&lt; IDXGIAdapter1 &gt; &gt;</text>
</a>
</g>
</g>
<!-- Node5&#45;&gt;Node1 -->
<g id="edge4_Node000001_Node000005" class="edge">
<title>Node5&#45;&gt;Node1</title>
<g id="a_edge4_Node000001_Node000005"><a xlink:title=" ">
<path fill="none" stroke="#9a32cd" stroke-dasharray="5,2" d="M435.08,-236.84C471.51,-231.24 512.58,-224.93 543.31,-220.21"/>
<polygon fill="#9a32cd" stroke="#9a32cd" points="434.79,-233.34 425.44,-238.32 435.85,-240.26 434.79,-233.34"/>
</a>
</g>
<text text-anchor="middle" x="500.38" y="-232.89" font-family="Helvetica,sans-Serif" font-size="10.00" fill="grey"> adapter</text>
</g>
<!-- Node6 -->
<g id="Node000006" class="node">
<title>Node6</title>
<g id="a_Node000006"><a xlink:href="classutil_1_1uniq__ptr.html" target="_top" xlink:title=" ">
<polygon fill="white" stroke="#bfbfbf" points="418.62,-204 278.12,-204 278.12,-148 418.62,-148 418.62,-204"/>
<text text-anchor="start" x="286.12" y="-190.5" font-family="Helvetica,sans-Serif" font-size="10.00">util::uniq_ptr&lt; T,</text>
<text text-anchor="start" x="286.12" y="-178.5" font-family="Helvetica,sans-Serif" font-size="10.00"> Destroy&lt; T *, void,</text>
<text text-anchor="start" x="286.12" y="-166.5" font-family="Helvetica,sans-Serif" font-size="10.00"> function &gt; &gt;&lt; IDXGIOutput,</text>
<text text-anchor="middle" x="348.38" y="-154.5" font-family="Helvetica,sans-Serif" font-size="10.00"> Release&lt; IDXGIOutput &gt; &gt;</text>
</a>
</g>
</g>
<!-- Node6&#45;&gt;Node1 -->
<g id="edge5_Node000001_Node000006" class="edge">
<title>Node6&#45;&gt;Node1</title>
<g id="a_edge5_Node000001_Node000006"><a xlink:title=" ">
<path fill="none" stroke="#9a32cd" stroke-dasharray="5,2" d="M430,-188.38C467.61,-194.16 511.06,-200.84 543.22,-205.78"/>
<polygon fill="#9a32cd" stroke="#9a32cd" points="430.96,-184.99 420.54,-186.93 429.89,-191.91 430.96,-184.99"/>
</a>
</g>
<text text-anchor="middle" x="500.38" y="-204.57" font-family="Helvetica,sans-Serif" font-size="10.00" fill="grey"> output</text>
</g>
<!-- Node7 -->
<g id="Node000007" class="node">
<title>Node7</title>
<g id="a_Node000007"><a xlink:href="classutil_1_1uniq__ptr.html" target="_top" xlink:title=" ">
<polygon fill="white" stroke="#bfbfbf" points="422,-130 274.75,-130 274.75,-74 422,-74 422,-130"/>
<text text-anchor="start" x="282.75" y="-116.5" font-family="Helvetica,sans-Serif" font-size="10.00">util::uniq_ptr&lt; T,</text>
<text text-anchor="start" x="282.75" y="-104.5" font-family="Helvetica,sans-Serif" font-size="10.00"> Destroy&lt; T *, void,</text>
<text text-anchor="start" x="282.75" y="-92.5" font-family="Helvetica,sans-Serif" font-size="10.00"> function &gt; &gt;&lt; ID3D11Device,</text>
<text text-anchor="middle" x="348.38" y="-80.5" font-family="Helvetica,sans-Serif" font-size="10.00"> Release&lt; ID3D11Device &gt; &gt;</text>
</a>
</g>
</g>
<!-- Node7&#45;&gt;Node1 -->
<g id="edge6_Node000001_Node000007" class="edge">
<title>Node7&#45;&gt;Node1</title>
<g id="a_edge6_Node000001_Node000007"><a xlink:title=" ">
<path fill="none" stroke="#9a32cd" stroke-dasharray="5,2" d="M432.85,-128.97C441.17,-132.15 449.43,-135.52 457.25,-139 495.63,-156.1 537.64,-180.5 563.97,-196.54"/>
<polygon fill="#9a32cd" stroke="#9a32cd" points="434.31,-125.78 423.72,-125.57 431.87,-132.34 434.31,-125.78"/>
</a>
</g>
<text text-anchor="middle" x="500.38" y="-175.54" font-family="Helvetica,sans-Serif" font-size="10.00" fill="grey"> device</text>
</g>
<!-- Node8 -->
<g id="Node000008" class="node">
<title>Node8</title>
<g id="a_Node000008"><a xlink:href="classutil_1_1uniq__ptr.html" target="_top" xlink:title=" ">
<polygon fill="white" stroke="#bfbfbf" points="457.25,-56 239.5,-56 239.5,0 457.25,0 457.25,-56"/>
<text text-anchor="start" x="247.5" y="-42.5" font-family="Helvetica,sans-Serif" font-size="10.00">util::uniq_ptr&lt; T,</text>
<text text-anchor="start" x="247.5" y="-30.5" font-family="Helvetica,sans-Serif" font-size="10.00"> Destroy&lt; T *, void,</text>
<text text-anchor="start" x="247.5" y="-18.5" font-family="Helvetica,sans-Serif" font-size="10.00"> function &gt; &gt;&lt; ID3D11Device</text>
<text text-anchor="middle" x="348.38" y="-6.5" font-family="Helvetica,sans-Serif" font-size="10.00">Context, Release&lt; ID3D11DeviceContext &gt; &gt;</text>
</a>
</g>
</g>
<!-- Node8&#45;&gt;Node1 -->
<g id="edge7_Node000001_Node000008" class="edge">
<title>Node8&#45;&gt;Node1</title>
<g id="a_edge7_Node000001_Node000008"><a xlink:title=" ">
<path fill="none" stroke="#9a32cd" stroke-dasharray="5,2" d="M451.55,-61.64C453.48,-62.73 455.39,-63.85 457.25,-65 513.97,-100.04 560.76,-166.36 580.36,-196.89"/>
<polygon fill="#9a32cd" stroke="#9a32cd" points="453.44,-58.68 442.95,-57.13 450.19,-64.88 453.44,-58.68"/>
</a>
</g>
<text text-anchor="middle" x="500.38" y="-123.9" font-family="Helvetica,sans-Serif" font-size="10.00" fill="grey"> device_ctx</text>
</g>
</g>
</svg>
