<?xml version="1.0" encoding="UTF-8" standalone="no"?>
<!DOCTYPE svg PUBLIC "-//W3C//DTD SVG 1.1//EN"
 "http://www.w3.org/Graphics/SVG/1.1/DTD/svg11.dtd">
<!-- Generated by graphviz version 12.2.1 (0)
 -->
<!-- Title: va::va_vram_t Pages: 1 -->
<svg width="122pt" height="208pt"
 viewBox="0.00 0.00 122.25 208.00" xmlns="http://www.w3.org/2000/svg" xmlns:xlink="http://www.w3.org/1999/xlink">
<g id="graph0" class="graph" transform="scale(1 1) rotate(0) translate(4 204)">
<title>va::va_vram_t</title>
<!-- Node1 -->
<g id="Node000001" class="node">
<title>Node1</title>
<g id="a_Node000001"><a xlink:title=" ">
<polygon fill="#999999" stroke="#666666" points="96.25,-20 18,-20 18,0 96.25,0 96.25,-20"/>
<text text-anchor="middle" x="57.12" y="-6.5" font-family="Helvetica,sans-Serif" font-size="10.00">va::va_vram_t</text>
</a>
</g>
</g>
<!-- Node2 -->
<g id="Node000002" class="node">
<title>Node2</title>
<g id="a_Node000002"><a xlink:href="classva_1_1va__t.html" target="_top" xlink:title=" ">
<polygon fill="white" stroke="#bfbfbf" points="82.75,-76 31.5,-76 31.5,-56 82.75,-56 82.75,-76"/>
<text text-anchor="middle" x="57.12" y="-62.5" font-family="Helvetica,sans-Serif" font-size="10.00">va::va_t</text>
</a>
</g>
</g>
<!-- Node2&#45;&gt;Node1 -->
<g id="edge1_Node000001_Node000002" class="edge">
<title>Node2&#45;&gt;Node1</title>
<g id="a_edge1_Node000001_Node000002"><a xlink:title=" ">
<path fill="none" stroke="#63b8ff" d="M57.12,-44.13C57.12,-35.9 57.12,-26.85 57.12,-20.3"/>
<polygon fill="#63b8ff" stroke="#63b8ff" points="53.63,-44.08 57.13,-54.08 60.63,-44.08 53.63,-44.08"/>
</a>
</g>
</g>
<!-- Node3 -->
<g id="Node000003" class="node">
<title>Node3</title>
<g id="a_Node000003"><a xlink:href="structplatf_1_1avcodec__encode__device__t.html" target="_top" xlink:title=" ">
<polygon fill="white" stroke="#bfbfbf" points="114.25,-144 0,-144 0,-112 114.25,-112 114.25,-144"/>
<text text-anchor="start" x="8" y="-130.5" font-family="Helvetica,sans-Serif" font-size="10.00">platf::avcodec_encode</text>
<text text-anchor="middle" x="57.12" y="-118.5" font-family="Helvetica,sans-Serif" font-size="10.00">_device_t</text>
</a>
</g>
</g>
<!-- Node3&#45;&gt;Node2 -->
<g id="edge2_Node000002_Node000003" class="edge">
<title>Node3&#45;&gt;Node2</title>
<g id="a_edge2_Node000002_Node000003"><a xlink:title=" ">
<path fill="none" stroke="#63b8ff" d="M57.12,-100.08C57.12,-91.6 57.12,-82.8 57.12,-76.41"/>
<polygon fill="#63b8ff" stroke="#63b8ff" points="53.63,-100.03 57.13,-110.03 60.63,-100.03 53.63,-100.03"/>
</a>
</g>
</g>
<!-- Node4 -->
<g id="Node000004" class="node">
<title>Node4</title>
<g id="a_Node000004"><a xlink:href="structplatf_1_1encode__device__t.html" target="_top" xlink:title=" ">
<polygon fill="white" stroke="#bfbfbf" points="114.25,-200 0,-200 0,-180 114.25,-180 114.25,-200"/>
<text text-anchor="middle" x="57.12" y="-186.5" font-family="Helvetica,sans-Serif" font-size="10.00">platf::encode_device_t</text>
</a>
</g>
</g>
<!-- Node4&#45;&gt;Node3 -->
<g id="edge3_Node000003_Node000004" class="edge">
<title>Node4&#45;&gt;Node3</title>
<g id="a_edge3_Node000003_Node000004"><a xlink:title=" ">
<path fill="none" stroke="#63b8ff" d="M57.12,-168.31C57.12,-160.37 57.12,-151.46 57.12,-144.14"/>
<polygon fill="#63b8ff" stroke="#63b8ff" points="53.63,-168.11 57.13,-178.11 60.63,-168.11 53.63,-168.11"/>
</a>
</g>
</g>
</g>
</svg>
