<?xml version="1.0" encoding="UTF-8" standalone="no"?>
<!DOCTYPE svg PUBLIC "-//W3C//DTD SVG 1.1//EN"
 "http://www.w3.org/Graphics/SVG/1.1/DTD/svg11.dtd">
<!-- Generated by graphviz version 12.2.1 (0)
 -->
<!-- Title: wl::wlr_ram_t Pages: 1 -->
<svg width="890pt" height="165pt"
 viewBox="0.00 0.00 889.75 165.00" xmlns="http://www.w3.org/2000/svg" xmlns:xlink="http://www.w3.org/1999/xlink">
<g id="graph0" class="graph" transform="scale(1 1) rotate(0) translate(4 161)">
<title>wl::wlr_ram_t</title>
<!-- Node1 -->
<g id="Node000001" class="node">
<title>Node1</title>
<g id="a_Node000001"><a xlink:title=" ">
<polygon fill="#999999" stroke="#666666" points="881.75,-51 807.25,-51 807.25,-31 881.75,-31 881.75,-51"/>
<text text-anchor="middle" x="844.5" y="-37.5" font-family="Helvetica,sans-Serif" font-size="10.00">wl::wlr_ram_t</text>
</a>
</g>
</g>
<!-- Node2 -->
<g id="Node000002" class="node">
<title>Node2</title>
<g id="a_Node000002"><a xlink:href="classwl_1_1wlr__t.html" target="_top" xlink:title=" ">
<polygon fill="white" stroke="#bfbfbf" points="670.38,-94 617.62,-94 617.62,-74 670.38,-74 670.38,-94"/>
<text text-anchor="middle" x="644" y="-80.5" font-family="Helvetica,sans-Serif" font-size="10.00">wl::wlr_t</text>
</a>
</g>
</g>
<!-- Node2&#45;&gt;Node1 -->
<g id="edge1_Node000001_Node000002" class="edge">
<title>Node2&#45;&gt;Node1</title>
<g id="a_edge1_Node000001_Node000002"><a xlink:title=" ">
<path fill="none" stroke="#63b8ff" d="M681.71,-76.17C710.87,-69.94 752.68,-60.97 789.25,-53 795,-51.75 801.09,-50.41 807.03,-49.1"/>
<polygon fill="#63b8ff" stroke="#63b8ff" points="681.34,-72.68 672.29,-78.19 682.8,-79.52 681.34,-72.68"/>
</a>
</g>
</g>
<!-- Node3 -->
<g id="Node000003" class="node">
<title>Node3</title>
<g id="a_Node000003"><a xlink:href="classplatf_1_1display__t.html" target="_top" xlink:title=" ">
<polygon fill="white" stroke="#bfbfbf" points="492,-151 412.25,-151 412.25,-131 492,-131 492,-151"/>
<text text-anchor="middle" x="452.12" y="-137.5" font-family="Helvetica,sans-Serif" font-size="10.00">platf::display_t</text>
</a>
</g>
</g>
<!-- Node3&#45;&gt;Node2 -->
<g id="edge2_Node000002_Node000003" class="edge">
<title>Node3&#45;&gt;Node2</title>
<g id="a_edge2_Node000002_Node000003"><a xlink:title=" ">
<path fill="none" stroke="#63b8ff" d="M500.8,-127.54C516.64,-123 534.35,-117.85 550.5,-113 573.06,-106.22 598.61,-98.18 617.13,-92.29"/>
<polygon fill="#63b8ff" stroke="#63b8ff" points="500.29,-124.04 491.63,-130.15 502.21,-130.77 500.29,-124.04"/>
</a>
</g>
</g>
<!-- Node4 -->
<g id="Node000004" class="node">
<title>Node4</title>
<g id="a_Node000004"><a xlink:href="classlogging_1_1time__delta__periodic__logger.html" target="_top" xlink:title="A helper class for tracking and logging short time intervals across a period of time.">
<polygon fill="white" stroke="#666666" points="270.5,-157 172.75,-157 172.75,-125 270.5,-125 270.5,-157"/>
<text text-anchor="start" x="180.75" y="-143.5" font-family="Helvetica,sans-Serif" font-size="10.00">logging::time_delta</text>
<text text-anchor="middle" x="221.62" y="-131.5" font-family="Helvetica,sans-Serif" font-size="10.00">_periodic_logger</text>
</a>
</g>
</g>
<!-- Node4&#45;&gt;Node3 -->
<g id="edge3_Node000003_Node000004" class="edge">
<title>Node4&#45;&gt;Node3</title>
<g id="a_edge3_Node000003_Node000004"><a xlink:title=" ">
<path fill="none" stroke="#9a32cd" stroke-dasharray="5,2" d="M282.28,-141C323.26,-141 376.48,-141 412.11,-141"/>
<polygon fill="#9a32cd" stroke="#9a32cd" points="282.32,-137.5 272.32,-141 282.32,-144.5 282.32,-137.5"/>
</a>
</g>
<text text-anchor="middle" x="341.38" y="-143.5" font-family="Helvetica,sans-Serif" font-size="10.00" fill="grey"> sleep_overshoot_logger</text>
</g>
<!-- Node5 -->
<g id="Node000005" class="node">
<title>Node5</title>
<g id="a_Node000005"><a xlink:href="classwl_1_1display__t.html" target="_top" xlink:title=" ">
<polygon fill="white" stroke="#bfbfbf" points="487.5,-113 416.75,-113 416.75,-93 487.5,-93 487.5,-113"/>
<text text-anchor="middle" x="452.12" y="-99.5" font-family="Helvetica,sans-Serif" font-size="10.00">wl::display_t</text>
</a>
</g>
</g>
<!-- Node5&#45;&gt;Node2 -->
<g id="edge4_Node000002_Node000005" class="edge">
<title>Node5&#45;&gt;Node2</title>
<g id="a_edge4_Node000002_Node000005"><a xlink:title=" ">
<path fill="none" stroke="#9a32cd" stroke-dasharray="5,2" d="M498.98,-98.41C536.06,-94.7 586.92,-89.61 617.22,-86.58"/>
<polygon fill="#9a32cd" stroke="#9a32cd" points="499.06,-94.89 489.46,-99.36 499.76,-101.85 499.06,-94.89"/>
</a>
</g>
<text text-anchor="middle" x="530.25" y="-99.35" font-family="Helvetica,sans-Serif" font-size="10.00" fill="grey"> display</text>
</g>
<!-- Node6 -->
<g id="Node000006" class="node">
<title>Node6</title>
<g id="a_Node000006"><a xlink:href="classwl_1_1interface__t.html" target="_top" xlink:title=" ">
<polygon fill="white" stroke="#bfbfbf" points="490.88,-75 413.38,-75 413.38,-55 490.88,-55 490.88,-75"/>
<text text-anchor="middle" x="452.12" y="-61.5" font-family="Helvetica,sans-Serif" font-size="10.00">wl::interface_t</text>
</a>
</g>
</g>
<!-- Node6&#45;&gt;Node2 -->
<g id="edge5_Node000002_Node000006" class="edge">
<title>Node6&#45;&gt;Node2</title>
<g id="a_edge5_Node000002_Node000006"><a xlink:title=" ">
<path fill="none" stroke="#9a32cd" stroke-dasharray="5,2" d="M502.08,-69.9C538.87,-73.58 587.79,-78.48 617.26,-81.42"/>
<polygon fill="#9a32cd" stroke="#9a32cd" points="502.9,-66.46 492.6,-68.95 502.2,-73.43 502.9,-66.46"/>
</a>
</g>
<text text-anchor="middle" x="530.25" y="-77" font-family="Helvetica,sans-Serif" font-size="10.00" fill="grey"> interface</text>
</g>
<!-- Node7 -->
<g id="Node000007" class="node">
<title>Node7</title>
<g id="a_Node000007"><a xlink:href="classwl_1_1dmabuf__t.html" target="_top" xlink:title=" ">
<polygon fill="white" stroke="#bfbfbf" points="488.25,-37 416,-37 416,-17 488.25,-17 488.25,-37"/>
<text text-anchor="middle" x="452.12" y="-23.5" font-family="Helvetica,sans-Serif" font-size="10.00">wl::dmabuf_t</text>
</a>
</g>
</g>
<!-- Node7&#45;&gt;Node2 -->
<g id="edge6_Node000002_Node000007" class="edge">
<title>Node7&#45;&gt;Node2</title>
<g id="a_edge6_Node000002_Node000007"><a xlink:title=" ">
<path fill="none" stroke="#9a32cd" stroke-dasharray="5,2" d="M499.47,-38.01C515.87,-42.51 534.26,-48.26 550.5,-55 558.95,-58.51 560,-61.62 568.5,-65 584.25,-71.26 602.71,-75.99 617.31,-79.16"/>
<polygon fill="#9a32cd" stroke="#9a32cd" points="500.51,-34.67 489.95,-35.49 498.71,-41.44 500.51,-34.67"/>
</a>
</g>
<text text-anchor="middle" x="530.25" y="-57.5" font-family="Helvetica,sans-Serif" font-size="10.00" fill="grey"> dmabuf</text>
</g>
<!-- Node8 -->
<g id="Node000008" class="node">
<title>Node8</title>
<g id="a_Node000008"><a xlink:href="classwl_1_1frame__t.html" target="_top" xlink:title=" ">
<polygon fill="white" stroke="#bfbfbf" points="254,-37 189.25,-37 189.25,-17 254,-17 254,-37"/>
<text text-anchor="middle" x="221.62" y="-23.5" font-family="Helvetica,sans-Serif" font-size="10.00">wl::frame_t</text>
</a>
</g>
</g>
<!-- Node8&#45;&gt;Node7 -->
<g id="edge7_Node000007_Node000008" class="edge">
<title>Node8&#45;&gt;Node7</title>
<g id="a_edge7_Node000007_Node000008"><a xlink:title=" ">
<path fill="none" stroke="#9a32cd" stroke-dasharray="5,2" d="M265.74,-27C309.19,-27 375.46,-27 415.88,-27"/>
<polygon fill="#9a32cd" stroke="#9a32cd" points="265.91,-23.5 255.91,-27 265.91,-30.5 265.91,-23.5"/>
</a>
</g>
<text text-anchor="middle" x="341.38" y="-29.5" font-family="Helvetica,sans-Serif" font-size="10.00" fill="grey"> current_frame</text>
</g>
<!-- Node9 -->
<g id="Node000009" class="node">
<title>Node9</title>
<g id="a_Node000009"><a xlink:href="structegl_1_1surface__descriptor__t.html" target="_top" xlink:title=" ">
<polygon fill="white" stroke="#bfbfbf" points="123.25,-37 0,-37 0,-17 123.25,-17 123.25,-37"/>
<text text-anchor="middle" x="61.62" y="-23.5" font-family="Helvetica,sans-Serif" font-size="10.00">egl::surface_descriptor_t</text>
</a>
</g>
</g>
<!-- Node9&#45;&gt;Node8 -->
<g id="edge8_Node000008_Node000009" class="edge">
<title>Node9&#45;&gt;Node8</title>
<g id="a_edge8_Node000008_Node000009"><a xlink:title=" ">
<path fill="none" stroke="#9a32cd" stroke-dasharray="5,2" d="M135.05,-27C153.92,-27 173.31,-27 188.84,-27"/>
<polygon fill="#9a32cd" stroke="#9a32cd" points="135.23,-23.5 125.23,-27 135.23,-30.5 135.23,-23.5"/>
</a>
</g>
<text text-anchor="middle" x="148" y="-29.5" font-family="Helvetica,sans-Serif" font-size="10.00" fill="grey"> sd</text>
</g>
<!-- Node10 -->
<g id="Node000010" class="node">
<title>Node10</title>
<g id="a_Node000010"><a xlink:href="classutil_1_1uniq__ptr.html" target="_top" xlink:title=" ">
<polygon fill="white" stroke="#bfbfbf" points="719.5,-56 568.5,-56 568.5,0 719.5,0 719.5,-56"/>
<text text-anchor="start" x="576.5" y="-42.5" font-family="Helvetica,sans-Serif" font-size="10.00">util::uniq_ptr&lt; T,</text>
<text text-anchor="start" x="576.5" y="-30.5" font-family="Helvetica,sans-Serif" font-size="10.00"> Destroy&lt; T *, void,</text>
<text text-anchor="start" x="576.5" y="-18.5" font-family="Helvetica,sans-Serif" font-size="10.00"> function &gt; &gt;&lt; void,</text>
<text text-anchor="middle" x="644" y="-6.5" font-family="Helvetica,sans-Serif" font-size="10.00"> EGLBoolean, &amp;eglTerminate &gt;</text>
</a>
</g>
</g>
<!-- Node10&#45;&gt;Node1 -->
<g id="edge9_Node000001_Node000010" class="edge">
<title>Node10&#45;&gt;Node1</title>
<g id="a_edge9_Node000001_Node000010"><a xlink:title=" ">
<path fill="none" stroke="#9a32cd" stroke-dasharray="5,2" d="M731.05,-33.64C757.64,-35.38 785.51,-37.2 806.86,-38.6"/>
<polygon fill="#9a32cd" stroke="#9a32cd" points="731.48,-30.16 721.27,-33 731.02,-37.14 731.48,-30.16"/>
</a>
</g>
<text text-anchor="middle" x="763.38" y="-39.66" font-family="Helvetica,sans-Serif" font-size="10.00" fill="grey"> egl_display</text>
</g>
</g>
</svg>
