<?xml version="1.0" encoding="UTF-8" standalone="no"?>
<!DOCTYPE svg PUBLIC "-//W3C//DTD SVG 1.1//EN"
 "http://www.w3.org/Graphics/SVG/1.1/DTD/svg11.dtd">
<!-- Generated by graphviz version 12.2.1 (0)
 -->
<!-- Title: platf::deinit_t Pages: 1 -->
<svg width="225pt" height="318pt"
 viewBox="0.00 0.00 225.25 318.00" xmlns="http://www.w3.org/2000/svg" xmlns:xlink="http://www.w3.org/1999/xlink">
<g id="graph0" class="graph" transform="scale(1 1) rotate(0) translate(4 314)">
<title>platf::deinit_t</title>
<!-- Node1 -->
<g id="Node000001" class="node">
<title>Node1</title>
<g id="a_Node000001"><a xlink:title=" ">
<polygon fill="#999999" stroke="#666666" points="72.25,-162 0,-162 0,-142 72.25,-142 72.25,-162"/>
<text text-anchor="middle" x="36.12" y="-148.5" font-family="Helvetica,sans-Serif" font-size="10.00">platf::deinit_t</text>
</a>
</g>
</g>
<!-- Node2 -->
<g id="Node000002" class="node">
<title>Node2</title>
<g id="a_Node000002"><a xlink:href="classinput_1_1deinit__t.html" target="_top" xlink:title=" ">
<polygon fill="white" stroke="#bfbfbf" points="200,-310 125.5,-310 125.5,-290 200,-290 200,-310"/>
<text text-anchor="middle" x="162.75" y="-296.5" font-family="Helvetica,sans-Serif" font-size="10.00">input::deinit_t</text>
</a>
</g>
</g>
<!-- Node1&#45;&gt;Node2 -->
<g id="edge1_Node000001_Node000002" class="edge">
<title>Node1&#45;&gt;Node2</title>
<g id="a_edge1_Node000001_Node000002"><a xlink:title=" ">
<path fill="none" stroke="#63b8ff" d="M43.45,-173.02C53.01,-201.39 73.8,-251.74 108.25,-281 113.13,-285.15 118.99,-288.41 125,-290.98"/>
<polygon fill="#63b8ff" stroke="#63b8ff" points="46.87,-172.23 40.49,-163.78 40.2,-174.37 46.87,-172.23"/>
</a>
</g>
</g>
<!-- Node3 -->
<g id="Node000003" class="node">
<title>Node3</title>
<g id="a_Node000003"><a xlink:href="classplatf_1_1audio_1_1co__init__t.html" target="_top" xlink:title=" ">
<polygon fill="white" stroke="#bfbfbf" points="216.12,-272 109.38,-272 109.38,-252 216.12,-252 216.12,-272"/>
<text text-anchor="middle" x="162.75" y="-258.5" font-family="Helvetica,sans-Serif" font-size="10.00">platf::audio::co_init_t</text>
</a>
</g>
</g>
<!-- Node1&#45;&gt;Node3 -->
<g id="edge2_Node000001_Node000003" class="edge">
<title>Node1&#45;&gt;Node3</title>
<g id="a_edge2_Node000001_Node000003"><a xlink:title=" ">
<path fill="none" stroke="#63b8ff" d="M48.21,-172.15C60.44,-192.65 81.91,-224.02 108.25,-243 112.97,-246.4 118.35,-249.24 123.85,-251.6"/>
<polygon fill="#63b8ff" stroke="#63b8ff" points="51.32,-170.53 43.3,-163.6 45.25,-174.02 51.32,-170.53"/>
</a>
</g>
</g>
<!-- Node4 -->
<g id="Node000004" class="node">
<title>Node4</title>
<g id="a_Node000004"><a xlink:href="structplatf_1_1client__input__raw__t.html" target="_top" xlink:title=" ">
<polygon fill="white" stroke="#bfbfbf" points="207.88,-234 117.62,-234 117.62,-202 207.88,-202 207.88,-234"/>
<text text-anchor="start" x="125.62" y="-220.5" font-family="Helvetica,sans-Serif" font-size="10.00">platf::client_input</text>
<text text-anchor="middle" x="162.75" y="-208.5" font-family="Helvetica,sans-Serif" font-size="10.00">_raw_t</text>
</a>
</g>
</g>
<!-- Node1&#45;&gt;Node4 -->
<g id="edge3_Node000001_Node000004" class="edge">
<title>Node1&#45;&gt;Node4</title>
<g id="a_edge3_Node000001_Node000004"><a xlink:title=" ">
<path fill="none" stroke="#63b8ff" d="M78.19,-167.72C87.95,-173.06 98.4,-178.87 108.25,-184 119.53,-189.87 132.43,-195.92 142.74,-201.62"/>
<polygon fill="#63b8ff" stroke="#63b8ff" points="80.11,-164.78 69.65,-163.09 76.77,-170.94 80.11,-164.78"/>
</a>
</g>
</g>
<!-- Node1&#45;&gt;Node4 -->
<g id="edge4_Node000001_Node000004" class="edge">
<title>Node1&#45;&gt;Node4</title>
<g id="a_edge4_Node000001_Node000004"><a xlink:title=" ">
<path fill="none" stroke="#63b8ff" d="M53.54,-169.15C67.81,-179.56 89.14,-192.05 108.25,-202 111.16,-203.52 114.18,-205.04 117.23,-206.54"/>
<polygon fill="#63b8ff" stroke="#63b8ff" points="56.1,-166.71 46.08,-163.26 51.76,-172.2 56.1,-166.71"/>
</a>
</g>
</g>
<!-- Node5 -->
<g id="Node000005" class="node">
<title>Node5</title>
<g id="a_Node000005"><a xlink:href="classplatf_1_1publish_1_1deinit__t.html" target="_top" xlink:title=" ">
<polygon fill="white" stroke="#bfbfbf" points="217.25,-184 108.25,-184 108.25,-164 217.25,-164 217.25,-184"/>
<text text-anchor="middle" x="162.75" y="-170.5" font-family="Helvetica,sans-Serif" font-size="10.00">platf::publish::deinit_t</text>
</a>
</g>
</g>
<!-- Node1&#45;&gt;Node5 -->
<g id="edge5_Node000001_Node000005" class="edge">
<title>Node1&#45;&gt;Node5</title>
<g id="a_edge5_Node000001_Node000005"><a xlink:title=" ">
<path fill="none" stroke="#63b8ff" d="M83.5,-153.64C100.72,-156.23 119.67,-159.87 134.61,-163.52"/>
<polygon fill="#63b8ff" stroke="#63b8ff" points="84.39,-150.23 74,-152.3 83.42,-157.16 84.39,-150.23"/>
</a>
</g>
</g>
<!-- Node1&#45;&gt;Node5 -->
<g id="edge6_Node000001_Node000005" class="edge">
<title>Node1&#45;&gt;Node5</title>
<g id="a_edge6_Node000001_Node000005"><a xlink:title=" ">
<path fill="none" stroke="#63b8ff" d="M75.27,-165.01C85.56,-167.25 96.89,-169.39 107.87,-171.18"/>
<polygon fill="#63b8ff" stroke="#63b8ff" points="76.17,-161.63 65.64,-162.79 74.6,-168.45 76.17,-161.63"/>
</a>
</g>
</g>
<!-- Node6 -->
<g id="Node000006" class="node">
<title>Node6</title>
<g id="a_Node000006"><a xlink:href="classplatf_1_1publish_1_1mdns__registration__t.html" target="_top" xlink:title=" ">
<polygon fill="white" stroke="#bfbfbf" points="213.5,-146 112,-146 112,-114 213.5,-114 213.5,-146"/>
<text text-anchor="start" x="120" y="-132.5" font-family="Helvetica,sans-Serif" font-size="10.00">platf::publish::mdns</text>
<text text-anchor="middle" x="162.75" y="-120.5" font-family="Helvetica,sans-Serif" font-size="10.00">_registration_t</text>
</a>
</g>
</g>
<!-- Node1&#45;&gt;Node6 -->
<g id="edge7_Node000001_Node000006" class="edge">
<title>Node1&#45;&gt;Node6</title>
<g id="a_edge7_Node000001_Node000006"><a xlink:title=" ">
<path fill="none" stroke="#63b8ff" d="M83.79,-143.76C92.95,-142.14 102.6,-140.44 111.86,-138.81"/>
<polygon fill="#63b8ff" stroke="#63b8ff" points="83.23,-140.31 73.99,-145.49 84.45,-147.2 83.23,-140.31"/>
</a>
</g>
</g>
<!-- Node7 -->
<g id="Node000007" class="node">
<title>Node7</title>
<g id="a_Node000007"><a xlink:href="classplatf_1_1qos__t.html" target="_top" xlink:title=" ">
<polygon fill="white" stroke="#bfbfbf" points="195.12,-96 130.38,-96 130.38,-76 195.12,-76 195.12,-96"/>
<text text-anchor="middle" x="162.75" y="-82.5" font-family="Helvetica,sans-Serif" font-size="10.00">platf::qos_t</text>
</a>
</g>
</g>
<!-- Node1&#45;&gt;Node7 -->
<g id="edge8_Node000001_Node000007" class="edge">
<title>Node1&#45;&gt;Node7</title>
<g id="a_edge8_Node000001_Node000007"><a xlink:title=" ">
<path fill="none" stroke="#63b8ff" d="M46.71,-132.46C59.95,-116.56 84.89,-98.65 108.25,-87 115.13,-83.57 122.78,-80.46 130.1,-78.32"/>
<polygon fill="#63b8ff" stroke="#63b8ff" points="44.09,-130.09 41.22,-140.28 49.83,-134.1 44.09,-130.09"/>
</a>
</g>
</g>
<!-- Node1&#45;&gt;Node7 -->
<g id="edge9_Node000001_Node000007" class="edge">
<title>Node1&#45;&gt;Node7</title>
<g id="a_edge9_Node000001_Node000007"><a xlink:title=" ">
<path fill="none" stroke="#63b8ff" d="M59.73,-135.01C73.31,-125.34 91.2,-113.5 108.25,-105 115.13,-101.57 122.78,-98.46 130.1,-95.81"/>
<polygon fill="#63b8ff" stroke="#63b8ff" points="57.94,-131.99 51.91,-140.7 62.06,-137.65 57.94,-131.99"/>
</a>
</g>
</g>
<!-- Node1&#45;&gt;Node7 -->
<g id="edge10_Node000001_Node000007" class="edge">
<title>Node1&#45;&gt;Node7</title>
<g id="a_edge10_Node000001_Node000007"><a xlink:title=" ">
<path fill="none" stroke="#63b8ff" d="M82.29,-137.52C90.71,-132.5 99.59,-127.32 108.25,-123 125.89,-114.2 148.62,-107.55 157.72,-96.48"/>
<polygon fill="#63b8ff" stroke="#63b8ff" points="80.74,-134.37 73.96,-142.5 84.34,-140.37 80.74,-134.37"/>
</a>
</g>
</g>
<!-- Node8 -->
<g id="Node000008" class="node">
<title>Node8</title>
<g id="a_Node000008"><a xlink:href="classproc_1_1deinit__t.html" target="_top" xlink:title=" ">
<polygon fill="white" stroke="#bfbfbf" points="198.88,-58 126.62,-58 126.62,-38 198.88,-38 198.88,-58"/>
<text text-anchor="middle" x="162.75" y="-44.5" font-family="Helvetica,sans-Serif" font-size="10.00">proc::deinit_t</text>
</a>
</g>
</g>
<!-- Node1&#45;&gt;Node8 -->
<g id="edge11_Node000001_Node000008" class="edge">
<title>Node1&#45;&gt;Node8</title>
<g id="a_edge11_Node000001_Node000008"><a xlink:title=" ">
<path fill="none" stroke="#63b8ff" d="M49.29,-132.03C61.88,-112.89 83.19,-84.43 108.25,-67 113.67,-63.23 119.92,-60.13 126.19,-57.61"/>
<polygon fill="#63b8ff" stroke="#63b8ff" points="46.45,-129.97 44.04,-140.29 52.36,-133.73 46.45,-129.97"/>
</a>
</g>
</g>
<!-- Node9 -->
<g id="Node000009" class="node">
<title>Node9</title>
<g id="a_Node000009"><a xlink:href="classupnp_1_1deinit__t.html" target="_top" xlink:title=" ">
<polygon fill="white" stroke="#bfbfbf" points="200,-20 125.5,-20 125.5,0 200,0 200,-20"/>
<text text-anchor="middle" x="162.75" y="-6.5" font-family="Helvetica,sans-Serif" font-size="10.00">upnp::deinit_t</text>
</a>
</g>
</g>
<!-- Node1&#45;&gt;Node9 -->
<g id="edge12_Node000001_Node000009" class="edge">
<title>Node1&#45;&gt;Node9</title>
<g id="a_edge12_Node000001_Node000009"><a xlink:title=" ">
<path fill="none" stroke="#63b8ff" d="M44,-131.18C53.99,-104 75.05,-56.62 108.25,-29 113.18,-24.9 119.05,-21.66 125.07,-19.1"/>
<polygon fill="#63b8ff" stroke="#63b8ff" points="40.78,-129.77 40.78,-140.37 47.39,-132.09 40.78,-129.77"/>
</a>
</g>
</g>
</g>
</svg>
