<?xml version="1.0" encoding="UTF-8" standalone="no"?>
<!DOCTYPE svg PUBLIC "-//W3C//DTD SVG 1.1//EN"
 "http://www.w3.org/Graphics/SVG/1.1/DTD/svg11.dtd">
<!-- Generated by graphviz version 12.2.1 (0)
 -->
<!-- Title: egl::sws_t Pages: 1 -->
<svg width="335pt" height="165pt"
 viewBox="0.00 0.00 334.85 165.00" xmlns="http://www.w3.org/2000/svg" xmlns:xlink="http://www.w3.org/1999/xlink">
<g id="graph0" class="graph" transform="scale(1 1) rotate(0) translate(4 161)">
<title>egl::sws_t</title>
<!-- Node1 -->
<g id="Node000001" class="node">
<title>Node1</title>
<g id="a_Node000001"><a xlink:title=" ">
<polygon fill="#999999" stroke="#666666" points="187.12,-20 126.12,-20 126.12,0 187.12,0 187.12,-20"/>
<text text-anchor="middle" x="156.62" y="-6.5" font-family="Helvetica,sans-Serif" font-size="10.00">egl::sws_t</text>
</a>
</g>
</g>
<!-- Node2 -->
<g id="Node000002" class="node">
<title>Node2</title>
<g id="a_Node000002"><a xlink:href="classgl_1_1tex__t.html" target="_top" xlink:title=" ">
<polygon fill="white" stroke="#bfbfbf" points="51.25,-100 0,-100 0,-80 51.25,-80 51.25,-100"/>
<text text-anchor="middle" x="25.62" y="-86.5" font-family="Helvetica,sans-Serif" font-size="10.00">gl::tex_t</text>
</a>
</g>
</g>
<!-- Node2&#45;&gt;Node1 -->
<g id="edge1_Node000001_Node000002" class="edge">
<title>Node2&#45;&gt;Node1</title>
<g id="a_edge1_Node000001_Node000002"><a xlink:title=" ">
<path fill="none" stroke="#9a32cd" stroke-dasharray="5,2" d="M41.11,-71.56C51.53,-60.69 66.07,-47.09 81.12,-38 94.95,-29.65 111.75,-23.33 125.98,-18.9"/>
<polygon fill="#9a32cd" stroke="#9a32cd" points="38.66,-69.06 34.43,-78.78 43.79,-73.81 38.66,-69.06"/>
</a>
</g>
<text text-anchor="middle" x="89.38" y="-46.5" font-family="Helvetica,sans-Serif" font-size="10.00" fill="grey"> tex</text>
</g>
<!-- Node3 -->
<g id="Node000003" class="node">
<title>Node3</title>
<g id="a_Node000003"><a xlink:href="classutil_1_1buffer__t.html" target="_top" xlink:title=" ">
<polygon fill="white" stroke="#bfbfbf" points="123.38,-157 9.88,-157 9.88,-137 123.38,-137 123.38,-157"/>
<text text-anchor="middle" x="66.62" y="-143.5" font-family="Helvetica,sans-Serif" font-size="10.00">util::buffer_t&lt; GLuint &gt;</text>
</a>
</g>
</g>
<!-- Node3&#45;&gt;Node2 -->
<g id="edge2_Node000002_Node000003" class="edge">
<title>Node3&#45;&gt;Node2</title>
<g id="a_edge2_Node000002_Node000003"><a xlink:title=" ">
<path fill="none" stroke="#63b8ff" d="M53.04,-127.77C46.17,-118.56 38.13,-107.78 32.54,-100.28"/>
<polygon fill="#63b8ff" stroke="#63b8ff" points="50.17,-129.78 58.95,-135.7 55.78,-125.6 50.17,-129.78"/>
</a>
</g>
</g>
<!-- Node4 -->
<g id="Node000004" class="node">
<title>Node4</title>
<g id="a_Node000004"><a xlink:href="classgl_1_1frame__buf__t.html" target="_top" xlink:title=" ">
<polygon fill="white" stroke="#bfbfbf" points="150.25,-100 69,-100 69,-80 150.25,-80 150.25,-100"/>
<text text-anchor="middle" x="109.62" y="-86.5" font-family="Helvetica,sans-Serif" font-size="10.00">gl::frame_buf_t</text>
</a>
</g>
</g>
<!-- Node3&#45;&gt;Node4 -->
<g id="edge4_Node000004_Node000003" class="edge">
<title>Node3&#45;&gt;Node4</title>
<g id="a_edge4_Node000004_Node000003"><a xlink:title=" ">
<path fill="none" stroke="#63b8ff" d="M80.65,-128.06C87.9,-118.79 96.45,-107.86 102.37,-100.28"/>
<polygon fill="#63b8ff" stroke="#63b8ff" points="78.06,-125.69 74.66,-135.73 83.57,-130 78.06,-125.69"/>
</a>
</g>
</g>
<!-- Node4&#45;&gt;Node1 -->
<g id="edge3_Node000001_Node000004" class="edge">
<title>Node4&#45;&gt;Node1</title>
<g id="a_edge3_Node000001_Node000004"><a xlink:title=" ">
<path fill="none" stroke="#9a32cd" stroke-dasharray="5,2" d="M102.75,-68.7C100.66,-58.8 100.15,-47.09 105.62,-38 110.33,-30.19 118.13,-24.52 126.24,-20.46"/>
<polygon fill="#9a32cd" stroke="#9a32cd" points="99.33,-69.45 105.4,-78.14 106.07,-67.56 99.33,-69.45"/>
</a>
</g>
<text text-anchor="middle" x="146.12" y="-52.5" font-family="Helvetica,sans-Serif" font-size="10.00" fill="grey"> copy_framebuffer</text>
<text text-anchor="middle" x="146.12" y="-40.5" font-family="Helvetica,sans-Serif" font-size="10.00" fill="grey">cursor_framebuffer</text>
</g>
<!-- Node5 -->
<g id="Node000005" class="node">
<title>Node5</title>
<g id="a_Node000005"><a xlink:href="classgl_1_1program__t.html" target="_top" xlink:title=" ">
<polygon fill="white" stroke="#bfbfbf" points="245.12,-100 172.12,-100 172.12,-80 245.12,-80 245.12,-100"/>
<text text-anchor="middle" x="208.62" y="-86.5" font-family="Helvetica,sans-Serif" font-size="10.00">gl::program_t</text>
</a>
</g>
</g>
<!-- Node5&#45;&gt;Node1 -->
<g id="edge5_Node000001_Node000005" class="edge">
<title>Node5&#45;&gt;Node1</title>
<g id="a_edge5_Node000001_Node000005"><a xlink:title=" ">
<path fill="none" stroke="#9a32cd" stroke-dasharray="5,2" d="M202.26,-68.93C198.58,-59.08 193.34,-47.36 186.62,-38 181.88,-31.4 175.28,-25.23 169.48,-20.47"/>
<polygon fill="#9a32cd" stroke="#9a32cd" points="198.91,-69.98 205.47,-78.3 205.54,-67.7 198.91,-69.98"/>
</a>
</g>
<text text-anchor="middle" x="218.62" y="-46.5" font-family="Helvetica,sans-Serif" font-size="10.00" fill="grey"> program</text>
</g>
<!-- Node6 -->
<g id="Node000006" class="node">
<title>Node6</title>
<g id="a_Node000006"><a xlink:href="classgl_1_1buffer__t.html" target="_top" xlink:title=" ">
<polygon fill="white" stroke="#bfbfbf" points="324.5,-100 262.75,-100 262.75,-80 324.5,-80 324.5,-100"/>
<text text-anchor="middle" x="293.62" y="-86.5" font-family="Helvetica,sans-Serif" font-size="10.00">gl::buffer_t</text>
</a>
</g>
</g>
<!-- Node6&#45;&gt;Node1 -->
<g id="edge6_Node000001_Node000006" class="edge">
<title>Node6&#45;&gt;Node1</title>
<g id="a_edge6_Node000001_Node000006"><a xlink:title=" ">
<path fill="none" stroke="#9a32cd" stroke-dasharray="5,2" d="M279.13,-71.01C269.51,-60.1 256.04,-46.67 241.62,-38 225.04,-28.02 204.39,-21.35 187.59,-17.14"/>
<polygon fill="#9a32cd" stroke="#9a32cd" points="276.42,-73.22 285.55,-78.6 281.77,-68.7 276.42,-73.22"/>
</a>
</g>
<text text-anchor="middle" x="298.72" y="-46.5" font-family="Helvetica,sans-Serif" font-size="10.00" fill="grey"> color_matrix</text>
</g>
</g>
</svg>
