<?xml version="1.0" encoding="UTF-8" standalone="no"?>
<!DOCTYPE svg PUBLIC "-//W3C//DTD SVG 1.1//EN"
 "http://www.w3.org/Graphics/SVG/1.1/DTD/svg11.dtd">
<!-- Generated by graphviz version 12.2.1 (0)
 -->
<!-- Title: platf::kms::display_vram_t Pages: 1 -->
<svg width="778pt" height="128pt"
 viewBox="0.00 0.00 778.00 128.00" xmlns="http://www.w3.org/2000/svg" xmlns:xlink="http://www.w3.org/1999/xlink">
<g id="graph0" class="graph" transform="scale(1 1) rotate(0) translate(4 124)">
<title>platf::kms::display_vram_t</title>
<!-- Node1 -->
<g id="Node000001" class="node">
<title>Node1</title>
<g id="a_Node000001"><a xlink:title=" ">
<polygon fill="#999999" stroke="#666666" points="770,-82 673.75,-82 673.75,-50 770,-50 770,-82"/>
<text text-anchor="start" x="681.75" y="-68.5" font-family="Helvetica,sans-Serif" font-size="10.00">platf::kms::display</text>
<text text-anchor="middle" x="721.88" y="-56.5" font-family="Helvetica,sans-Serif" font-size="10.00">_vram_t</text>
</a>
</g>
</g>
<!-- Node2 -->
<g id="Node000002" class="node">
<title>Node2</title>
<g id="a_Node000002"><a xlink:href="classplatf_1_1kms_1_1display__t.html" target="_top" xlink:title=" ">
<polygon fill="white" stroke="#bfbfbf" points="636.75,-76 532.25,-76 532.25,-56 636.75,-56 636.75,-76"/>
<text text-anchor="middle" x="584.5" y="-62.5" font-family="Helvetica,sans-Serif" font-size="10.00">platf::kms::display_t</text>
</a>
</g>
</g>
<!-- Node2&#45;&gt;Node1 -->
<g id="edge1_Node000001_Node000002" class="edge">
<title>Node2&#45;&gt;Node1</title>
<g id="a_edge1_Node000001_Node000002"><a xlink:title=" ">
<path fill="none" stroke="#63b8ff" d="M648.43,-66C656.85,-66 665.37,-66 673.46,-66"/>
<polygon fill="#63b8ff" stroke="#63b8ff" points="648.58,-62.5 638.58,-66 648.58,-69.5 648.58,-62.5"/>
</a>
</g>
</g>
<!-- Node3 -->
<g id="Node000003" class="node">
<title>Node3</title>
<g id="a_Node000003"><a xlink:href="classplatf_1_1display__t.html" target="_top" xlink:title=" ">
<polygon fill="white" stroke="#bfbfbf" points="413,-114 333.25,-114 333.25,-94 413,-94 413,-114"/>
<text text-anchor="middle" x="373.12" y="-100.5" font-family="Helvetica,sans-Serif" font-size="10.00">platf::display_t</text>
</a>
</g>
</g>
<!-- Node3&#45;&gt;Node2 -->
<g id="edge2_Node000002_Node000003" class="edge">
<title>Node3&#45;&gt;Node2</title>
<g id="a_edge2_Node000002_Node000003"><a xlink:title=" ">
<path fill="none" stroke="#63b8ff" d="M424.25,-97.02C451.04,-93.06 484.53,-87.76 514.25,-82 522.73,-80.36 531.75,-78.42 540.38,-76.46"/>
<polygon fill="#63b8ff" stroke="#63b8ff" points="424.1,-93.5 414.71,-98.41 425.11,-100.43 424.1,-93.5"/>
</a>
</g>
</g>
<!-- Node4 -->
<g id="Node000004" class="node">
<title>Node4</title>
<g id="a_Node000004"><a xlink:href="classlogging_1_1time__delta__periodic__logger.html" target="_top" xlink:title="A helper class for tracking and logging short time intervals across a period of time.">
<polygon fill="white" stroke="#666666" points="139.38,-120 41.62,-120 41.62,-88 139.38,-88 139.38,-120"/>
<text text-anchor="start" x="49.62" y="-106.5" font-family="Helvetica,sans-Serif" font-size="10.00">logging::time_delta</text>
<text text-anchor="middle" x="90.5" y="-94.5" font-family="Helvetica,sans-Serif" font-size="10.00">_periodic_logger</text>
</a>
</g>
</g>
<!-- Node4&#45;&gt;Node3 -->
<g id="edge3_Node000003_Node000004" class="edge">
<title>Node4&#45;&gt;Node3</title>
<g id="a_edge3_Node000003_Node000004"><a xlink:title=" ">
<path fill="none" stroke="#9a32cd" stroke-dasharray="5,2" d="M151.06,-104C205.97,-104 285.89,-104 333.09,-104"/>
<polygon fill="#9a32cd" stroke="#9a32cd" points="151.25,-100.5 141.25,-104 151.25,-107.5 151.25,-100.5"/>
</a>
</g>
<text text-anchor="middle" x="251.88" y="-106.5" font-family="Helvetica,sans-Serif" font-size="10.00" fill="grey"> sleep_overshoot_logger</text>
</g>
<!-- Node5 -->
<g id="Node000005" class="node">
<title>Node5</title>
<g id="a_Node000005"><a xlink:href="structplatf_1_1kms_1_1cursor__t.html" target="_top" xlink:title=" ">
<polygon fill="white" stroke="#bfbfbf" points="423.5,-76 322.75,-76 322.75,-56 423.5,-56 423.5,-76"/>
<text text-anchor="middle" x="373.12" y="-62.5" font-family="Helvetica,sans-Serif" font-size="10.00">platf::kms::cursor_t</text>
</a>
</g>
</g>
<!-- Node5&#45;&gt;Node2 -->
<g id="edge4_Node000002_Node000005" class="edge">
<title>Node5&#45;&gt;Node2</title>
<g id="a_edge4_Node000002_Node000005"><a xlink:title=" ">
<path fill="none" stroke="#9a32cd" stroke-dasharray="5,2" d="M435.2,-66C465.93,-66 502.78,-66 532.05,-66"/>
<polygon fill="#9a32cd" stroke="#9a32cd" points="435.26,-62.5 425.26,-66 435.26,-69.5 435.26,-62.5"/>
</a>
</g>
<text text-anchor="middle" x="477.88" y="-68.5" font-family="Helvetica,sans-Serif" font-size="10.00" fill="grey"> captured_cursor</text>
</g>
<!-- Node6 -->
<g id="Node000006" class="node">
<title>Node6</title>
<g id="a_Node000006"><a xlink:href="classplatf_1_1kms_1_1card__t.html" target="_top" xlink:title=" ">
<polygon fill="white" stroke="#bfbfbf" points="419.38,-38 326.88,-38 326.88,-18 419.38,-18 419.38,-38"/>
<text text-anchor="middle" x="373.12" y="-24.5" font-family="Helvetica,sans-Serif" font-size="10.00">platf::kms::card_t</text>
</a>
</g>
</g>
<!-- Node6&#45;&gt;Node2 -->
<g id="edge5_Node000002_Node000006" class="edge">
<title>Node6&#45;&gt;Node2</title>
<g id="a_edge5_Node000002_Node000006"><a xlink:title=" ">
<path fill="none" stroke="#9a32cd" stroke-dasharray="5,2" d="M431.05,-36C456.57,-39.82 487,-44.72 514.25,-50 522.73,-51.64 531.75,-53.58 540.38,-55.54"/>
<polygon fill="#9a32cd" stroke="#9a32cd" points="431.61,-32.54 421.2,-34.54 430.58,-39.46 431.61,-32.54"/>
</a>
</g>
<text text-anchor="middle" x="477.88" y="-52.5" font-family="Helvetica,sans-Serif" font-size="10.00" fill="grey"> card</text>
</g>
<!-- Node7 -->
<g id="Node000007" class="node">
<title>Node7</title>
<g id="a_Node000007"><a xlink:href="classutil_1_1uniq__ptr.html" target="_top" xlink:title=" ">
<polygon fill="white" stroke="#bfbfbf" points="181,-56 0,-56 0,0 181,0 181,-56"/>
<text text-anchor="start" x="8" y="-42.5" font-family="Helvetica,sans-Serif" font-size="10.00">util::uniq_ptr&lt; T,</text>
<text text-anchor="start" x="8" y="-30.5" font-family="Helvetica,sans-Serif" font-size="10.00"> Destroy&lt; T *, void,</text>
<text text-anchor="start" x="8" y="-18.5" font-family="Helvetica,sans-Serif" font-size="10.00"> function &gt; &gt;&lt; drmModePlane</text>
<text text-anchor="middle" x="90.5" y="-6.5" font-family="Helvetica,sans-Serif" font-size="10.00">Res, drmModeFreePlaneResources &gt;</text>
</a>
</g>
</g>
<!-- Node7&#45;&gt;Node6 -->
<g id="edge6_Node000006_Node000007" class="edge">
<title>Node7&#45;&gt;Node6</title>
<g id="a_edge6_Node000006_Node000007"><a xlink:title=" ">
<path fill="none" stroke="#9a32cd" stroke-dasharray="5,2" d="M192.95,-28C238.76,-28 290.56,-28 326.64,-28"/>
<polygon fill="#9a32cd" stroke="#9a32cd" points="192.96,-24.5 182.96,-28 192.96,-31.5 192.96,-24.5"/>
</a>
</g>
<text text-anchor="middle" x="251.88" y="-30.5" font-family="Helvetica,sans-Serif" font-size="10.00" fill="grey"> plane_res</text>
</g>
</g>
</svg>
