<?xml version="1.0" encoding="UTF-8" standalone="no"?>
<!DOCTYPE svg PUBLIC "-//W3C//DTD SVG 1.1//EN"
 "http://www.w3.org/Graphics/SVG/1.1/DTD/svg11.dtd">
<!-- Generated by graphviz version 12.2.1 (0)
 -->
<!-- Title: src/config.h Pages: 1 -->
<svg width="529pt" height="84pt"
 viewBox="0.00 0.00 528.62 84.00" xmlns="http://www.w3.org/2000/svg" xmlns:xlink="http://www.w3.org/1999/xlink">
<g id="graph0" class="graph" transform="scale(1 1) rotate(0) translate(4 80)">
<title>src/config.h</title>
<!-- Node1 -->
<g id="Node000001" class="node">
<title>Node1</title>
<g id="a_Node000001"><a xlink:title="Declarations for the configuration of Sunshine.">
<polygon fill="#999999" stroke="#666666" points="243.5,-76 176.5,-76 176.5,-56 243.5,-56 243.5,-76"/>
<text text-anchor="middle" x="210" y="-62.5" font-family="Helvetica,sans-Serif" font-size="10.00">src/config.h</text>
</a>
</g>
</g>
<!-- Node2 -->
<g id="Node000002" class="node">
<title>Node2</title>
<g id="a_Node000002"><a xlink:title=" ">
<polygon fill="#e0e0e0" stroke="#999999" points="40,-20 0,-20 0,0 40,0 40,-20"/>
<text text-anchor="middle" x="20" y="-6.5" font-family="Helvetica,sans-Serif" font-size="10.00">bitset</text>
</a>
</g>
</g>
<!-- Node1&#45;&gt;Node2 -->
<g id="edge1_Node000001_Node000002" class="edge">
<title>Node1&#45;&gt;Node2</title>
<g id="a_edge1_Node000001_Node000002"><a xlink:title=" ">
<path fill="none" stroke="#63b8ff" d="M176.31,-55.88C145.91,-47.59 99.71,-34.83 51.01,-20.54"/>
<polygon fill="#63b8ff" stroke="#63b8ff" points="52.29,-17.26 41.71,-17.8 50.31,-23.98 52.29,-17.26"/>
</a>
</g>
</g>
<!-- Node3 -->
<g id="Node000003" class="node">
<title>Node3</title>
<g id="a_Node000003"><a xlink:title=" ">
<polygon fill="#e0e0e0" stroke="#999999" points="103.62,-20 58.38,-20 58.38,0 103.62,0 103.62,-20"/>
<text text-anchor="middle" x="81" y="-6.5" font-family="Helvetica,sans-Serif" font-size="10.00">chrono</text>
</a>
</g>
</g>
<!-- Node1&#45;&gt;Node3 -->
<g id="edge2_Node000001_Node000003" class="edge">
<title>Node1&#45;&gt;Node3</title>
<g id="a_edge2_Node000001_Node000003"><a xlink:title=" ">
<path fill="none" stroke="#63b8ff" d="M187.53,-55.59C167.21,-47.09 137.05,-34.46 113.99,-24.81"/>
<polygon fill="#63b8ff" stroke="#63b8ff" points="115.62,-21.7 105.04,-21.06 112.91,-28.15 115.62,-21.7"/>
</a>
</g>
</g>
<!-- Node4 -->
<g id="Node000004" class="node">
<title>Node4</title>
<g id="a_Node000004"><a xlink:title=" ">
<polygon fill="#e0e0e0" stroke="#999999" points="171.88,-20 122.12,-20 122.12,0 171.88,0 171.88,-20"/>
<text text-anchor="middle" x="147" y="-6.5" font-family="Helvetica,sans-Serif" font-size="10.00">optional</text>
</a>
</g>
</g>
<!-- Node1&#45;&gt;Node4 -->
<g id="edge3_Node000001_Node000004" class="edge">
<title>Node1&#45;&gt;Node4</title>
<g id="a_edge3_Node000001_Node000004"><a xlink:title=" ">
<path fill="none" stroke="#63b8ff" d="M199.03,-55.59C190.08,-47.93 177.23,-36.91 166.54,-27.75"/>
<polygon fill="#63b8ff" stroke="#63b8ff" points="168.87,-25.13 159,-21.28 164.31,-30.45 168.87,-25.13"/>
</a>
</g>
</g>
<!-- Node5 -->
<g id="Node000005" class="node">
<title>Node5</title>
<g id="a_Node000005"><a xlink:title=" ">
<polygon fill="#e0e0e0" stroke="#999999" points="230,-20 190,-20 190,0 230,0 230,-20"/>
<text text-anchor="middle" x="210" y="-6.5" font-family="Helvetica,sans-Serif" font-size="10.00">string</text>
</a>
</g>
</g>
<!-- Node1&#45;&gt;Node5 -->
<g id="edge4_Node000001_Node000005" class="edge">
<title>Node1&#45;&gt;Node5</title>
<g id="a_edge4_Node000001_Node000005"><a xlink:title=" ">
<path fill="none" stroke="#63b8ff" d="M210,-55.59C210,-49.01 210,-39.96 210,-31.73"/>
<polygon fill="#63b8ff" stroke="#63b8ff" points="213.5,-31.81 210,-21.81 206.5,-31.81 213.5,-31.81"/>
</a>
</g>
</g>
<!-- Node6 -->
<g id="Node000006" class="node">
<title>Node6</title>
<g id="a_Node000006"><a xlink:title=" ">
<polygon fill="#e0e0e0" stroke="#999999" points="330.38,-20 247.62,-20 247.62,0 330.38,0 330.38,-20"/>
<text text-anchor="middle" x="289" y="-6.5" font-family="Helvetica,sans-Serif" font-size="10.00">unordered_map</text>
</a>
</g>
</g>
<!-- Node1&#45;&gt;Node6 -->
<g id="edge5_Node000001_Node000006" class="edge">
<title>Node1&#45;&gt;Node6</title>
<g id="a_edge5_Node000001_Node000006"><a xlink:title=" ">
<path fill="none" stroke="#63b8ff" d="M223.76,-55.59C235.36,-47.67 252.2,-36.16 265.86,-26.82"/>
<polygon fill="#63b8ff" stroke="#63b8ff" points="267.6,-29.87 273.88,-21.33 263.65,-24.09 267.6,-29.87"/>
</a>
</g>
</g>
<!-- Node7 -->
<g id="Node000007" class="node">
<title>Node7</title>
<g id="a_Node000007"><a xlink:title=" ">
<polygon fill="#e0e0e0" stroke="#999999" points="391.5,-20 348.5,-20 348.5,0 391.5,0 391.5,-20"/>
<text text-anchor="middle" x="370" y="-6.5" font-family="Helvetica,sans-Serif" font-size="10.00">vector</text>
</a>
</g>
</g>
<!-- Node1&#45;&gt;Node7 -->
<g id="edge6_Node000001_Node000007" class="edge">
<title>Node1&#45;&gt;Node7</title>
<g id="a_edge6_Node000001_Node000007"><a xlink:title=" ">
<path fill="none" stroke="#63b8ff" d="M237.87,-55.59C265.53,-46.26 307.93,-31.95 337.2,-22.07"/>
<polygon fill="#63b8ff" stroke="#63b8ff" points="338.31,-25.39 346.66,-18.88 336.07,-18.76 338.31,-25.39"/>
</a>
</g>
</g>
<!-- Node8 -->
<g id="Node000008" class="node">
<title>Node8</title>
<g id="a_Node000008"><a xlink:href="nvenc__config_8h.html" target="_top" xlink:title="Declarations for NVENC encoder configuration.">
<polygon fill="white" stroke="#666666" points="520.62,-20 409.38,-20 409.38,0 520.62,0 520.62,-20"/>
<text text-anchor="middle" x="465" y="-6.5" font-family="Helvetica,sans-Serif" font-size="10.00">nvenc/nvenc_config.h</text>
</a>
</g>
</g>
<!-- Node1&#45;&gt;Node8 -->
<g id="edge7_Node000001_Node000008" class="edge">
<title>Node1&#45;&gt;Node8</title>
<g id="a_edge7_Node000001_Node000008"><a xlink:title=" ">
<path fill="none" stroke="#63b8ff" d="M243.86,-57.83C286.06,-48.89 358.74,-33.5 409.21,-22.81"/>
<polygon fill="#63b8ff" stroke="#63b8ff" points="409.72,-26.28 418.78,-20.79 408.27,-19.44 409.72,-26.28"/>
</a>
</g>
</g>
</g>
</svg>
