<?xml version="1.0" encoding="UTF-8" standalone="no"?>
<!DOCTYPE svg PUBLIC "-//W3C//DTD SVG 1.1//EN"
 "http://www.w3.org/Graphics/SVG/1.1/DTD/svg11.dtd">
<!-- Generated by graphviz version 12.2.1 (0)
 -->
<!-- Title: src/confighttp.h Pages: 1 -->
<svg width="791pt" height="196pt"
 viewBox="0.00 0.00 790.50 196.00" xmlns="http://www.w3.org/2000/svg" xmlns:xlink="http://www.w3.org/1999/xlink">
<g id="graph0" class="graph" transform="scale(1 1) rotate(0) translate(4 192)">
<title>src/confighttp.h</title>
<!-- Node1 -->
<g id="Node000001" class="node">
<title>Node1</title>
<g id="a_Node000001"><a xlink:title="Declarations for the Web UI Config HTTP server.">
<polygon fill="#999999" stroke="#666666" points="238.75,-188 155.25,-188 155.25,-168 238.75,-168 238.75,-188"/>
<text text-anchor="middle" x="197" y="-174.5" font-family="Helvetica,sans-Serif" font-size="10.00">src/confighttp.h</text>
</a>
</g>
</g>
<!-- Node2 -->
<g id="Node000002" class="node">
<title>Node2</title>
<g id="a_Node000002"><a xlink:title=" ">
<polygon fill="#e0e0e0" stroke="#999999" points="40,-20 0,-20 0,0 40,0 40,-20"/>
<text text-anchor="middle" x="20" y="-6.5" font-family="Helvetica,sans-Serif" font-size="10.00">string</text>
</a>
</g>
</g>
<!-- Node1&#45;&gt;Node2 -->
<g id="edge1_Node000001_Node000002" class="edge">
<title>Node1&#45;&gt;Node2</title>
<g id="a_edge1_Node000001_Node000002"><a xlink:title=" ">
<path fill="none" stroke="#63b8ff" d="M186.98,-167.6C158.26,-140.66 75.36,-62.92 38.29,-28.15"/>
<polygon fill="#63b8ff" stroke="#63b8ff" points="40.71,-25.62 31.02,-21.33 35.92,-30.73 40.71,-25.62"/>
</a>
</g>
</g>
<!-- Node3 -->
<g id="Node000003" class="node">
<title>Node3</title>
<g id="a_Node000003"><a xlink:href="thread__safe_8h.html" target="_top" xlink:title="Declarations for thread&#45;safe data structures.">
<polygon fill="white" stroke="#666666" points="558.62,-132 483.38,-132 483.38,-112 558.62,-112 558.62,-132"/>
<text text-anchor="middle" x="521" y="-118.5" font-family="Helvetica,sans-Serif" font-size="10.00">thread_safe.h</text>
</a>
</g>
</g>
<!-- Node1&#45;&gt;Node3 -->
<g id="edge2_Node000001_Node000003" class="edge">
<title>Node1&#45;&gt;Node3</title>
<g id="a_edge2_Node000001_Node000003"><a xlink:title=" ">
<path fill="none" stroke="#63b8ff" d="M239.03,-170C298.83,-160.03 408.25,-141.79 471.77,-131.2"/>
<polygon fill="#63b8ff" stroke="#63b8ff" points="472.3,-134.67 481.58,-129.57 471.14,-127.76 472.3,-134.67"/>
</a>
</g>
</g>
<!-- Node4 -->
<g id="Node000004" class="node">
<title>Node4</title>
<g id="a_Node000004"><a xlink:title=" ">
<polygon fill="#e0e0e0" stroke="#999999" points="479.88,-76 442.12,-76 442.12,-56 479.88,-56 479.88,-76"/>
<text text-anchor="middle" x="461" y="-62.5" font-family="Helvetica,sans-Serif" font-size="10.00">array</text>
</a>
</g>
</g>
<!-- Node3&#45;&gt;Node4 -->
<g id="edge3_Node000003_Node000004" class="edge">
<title>Node3&#45;&gt;Node4</title>
<g id="a_edge3_Node000003_Node000004"><a xlink:title=" ">
<path fill="none" stroke="#63b8ff" d="M510.55,-111.59C502.03,-103.93 489.79,-92.91 479.61,-83.75"/>
<polygon fill="#63b8ff" stroke="#63b8ff" points="482.23,-81.4 472.46,-77.31 477.55,-86.6 482.23,-81.4"/>
</a>
</g>
</g>
<!-- Node5 -->
<g id="Node000005" class="node">
<title>Node5</title>
<g id="a_Node000005"><a xlink:title=" ">
<polygon fill="#e0e0e0" stroke="#999999" points="543.62,-76 498.38,-76 498.38,-56 543.62,-56 543.62,-76"/>
<text text-anchor="middle" x="521" y="-62.5" font-family="Helvetica,sans-Serif" font-size="10.00">atomic</text>
</a>
</g>
</g>
<!-- Node3&#45;&gt;Node5 -->
<g id="edge4_Node000003_Node000005" class="edge">
<title>Node3&#45;&gt;Node5</title>
<g id="a_edge4_Node000003_Node000005"><a xlink:title=" ">
<path fill="none" stroke="#63b8ff" d="M521,-111.59C521,-105.01 521,-95.96 521,-87.73"/>
<polygon fill="#63b8ff" stroke="#63b8ff" points="524.5,-87.81 521,-77.81 517.5,-87.81 524.5,-87.81"/>
</a>
</g>
</g>
<!-- Node6 -->
<g id="Node000006" class="node">
<title>Node6</title>
<g id="a_Node000006"><a xlink:title=" ">
<polygon fill="#e0e0e0" stroke="#999999" points="152,-20 58,-20 58,0 152,0 152,-20"/>
<text text-anchor="middle" x="105" y="-6.5" font-family="Helvetica,sans-Serif" font-size="10.00">condition_variable</text>
</a>
</g>
</g>
<!-- Node3&#45;&gt;Node6 -->
<g id="edge5_Node000003_Node000006" class="edge">
<title>Node3&#45;&gt;Node6</title>
<g id="a_edge5_Node000003_Node000006"><a xlink:title=" ">
<path fill="none" stroke="#63b8ff" d="M485.17,-111.53C409.99,-91.65 235.8,-45.59 151.87,-23.39"/>
<polygon fill="#63b8ff" stroke="#63b8ff" points="152.92,-20.05 142.35,-20.88 151.13,-26.82 152.92,-20.05"/>
</a>
</g>
</g>
<!-- Node7 -->
<g id="Node000007" class="node">
<title>Node7</title>
<g id="a_Node000007"><a xlink:title=" ">
<polygon fill="#e0e0e0" stroke="#999999" points="620,-76 562,-76 562,-56 620,-56 620,-76"/>
<text text-anchor="middle" x="591" y="-62.5" font-family="Helvetica,sans-Serif" font-size="10.00">functional</text>
</a>
</g>
</g>
<!-- Node3&#45;&gt;Node7 -->
<g id="edge6_Node000003_Node000007" class="edge">
<title>Node3&#45;&gt;Node7</title>
<g id="a_edge6_Node000003_Node000007"><a xlink:title=" ">
<path fill="none" stroke="#63b8ff" d="M533.19,-111.59C543.33,-103.77 557.99,-92.46 570.01,-83.19"/>
<polygon fill="#63b8ff" stroke="#63b8ff" points="571.97,-86.1 577.75,-77.22 567.69,-80.56 571.97,-86.1"/>
</a>
</g>
</g>
<!-- Node8 -->
<g id="Node000008" class="node">
<title>Node8</title>
<g id="a_Node000008"><a xlink:title=" ">
<polygon fill="#e0e0e0" stroke="#999999" points="672.38,-76 637.62,-76 637.62,-56 672.38,-56 672.38,-76"/>
<text text-anchor="middle" x="655" y="-62.5" font-family="Helvetica,sans-Serif" font-size="10.00">map</text>
</a>
</g>
</g>
<!-- Node3&#45;&gt;Node8 -->
<g id="edge7_Node000003_Node000008" class="edge">
<title>Node3&#45;&gt;Node8</title>
<g id="a_edge7_Node000003_Node000008"><a xlink:title=" ">
<path fill="none" stroke="#63b8ff" d="M544.34,-111.59C567.36,-102.32 602.56,-88.13 627.05,-78.26"/>
<polygon fill="#63b8ff" stroke="#63b8ff" points="628.1,-81.61 636.07,-74.63 625.49,-75.12 628.1,-81.61"/>
</a>
</g>
</g>
<!-- Node9 -->
<g id="Node000009" class="node">
<title>Node9</title>
<g id="a_Node000009"><a xlink:title=" ">
<polygon fill="#e0e0e0" stroke="#999999" points="721.5,-20 678.5,-20 678.5,0 721.5,0 721.5,-20"/>
<text text-anchor="middle" x="700" y="-6.5" font-family="Helvetica,sans-Serif" font-size="10.00">mutex</text>
</a>
</g>
</g>
<!-- Node3&#45;&gt;Node9 -->
<g id="edge8_Node000003_Node000009" class="edge">
<title>Node3&#45;&gt;Node9</title>
<g id="a_edge8_Node000003_Node000009"><a xlink:title=" ">
<path fill="none" stroke="#63b8ff" d="M558.8,-120.39C594.91,-117.76 648.49,-108.17 681,-76 692.76,-64.36 697.33,-45.87 699.07,-31.58"/>
<polygon fill="#63b8ff" stroke="#63b8ff" points="702.53,-32.14 699.85,-21.89 695.55,-31.58 702.53,-32.14"/>
</a>
</g>
</g>
<!-- Node10 -->
<g id="Node000010" class="node">
<title>Node10</title>
<g id="a_Node000010"><a xlink:title=" ">
<polygon fill="#e0e0e0" stroke="#999999" points="782.5,-20 739.5,-20 739.5,0 782.5,0 782.5,-20"/>
<text text-anchor="middle" x="761" y="-6.5" font-family="Helvetica,sans-Serif" font-size="10.00">vector</text>
</a>
</g>
</g>
<!-- Node3&#45;&gt;Node10 -->
<g id="edge9_Node000003_Node000010" class="edge">
<title>Node3&#45;&gt;Node10</title>
<g id="a_edge9_Node000003_Node000010"><a xlink:title=" ">
<path fill="none" stroke="#63b8ff" d="M558.89,-117.89C597.07,-113.36 656.53,-102.37 701,-76 720.75,-64.29 737.89,-44.09 748.74,-29.31"/>
<polygon fill="#63b8ff" stroke="#63b8ff" points="751.45,-31.55 754.33,-21.35 745.72,-27.52 751.45,-31.55"/>
</a>
</g>
</g>
<!-- Node11 -->
<g id="Node000011" class="node">
<title>Node11</title>
<g id="a_Node000011"><a xlink:href="utility_8h.html" target="_top" xlink:title="Declarations for utility functions.">
<polygon fill="white" stroke="#666666" points="424.38,-76 377.62,-76 377.62,-56 424.38,-56 424.38,-76"/>
<text text-anchor="middle" x="401" y="-62.5" font-family="Helvetica,sans-Serif" font-size="10.00">utility.h</text>
</a>
</g>
</g>
<!-- Node3&#45;&gt;Node11 -->
<g id="edge10_Node000003_Node000011" class="edge">
<title>Node3&#45;&gt;Node11</title>
<g id="a_edge10_Node000003_Node000011"><a xlink:title=" ">
<path fill="none" stroke="#63b8ff" d="M500.1,-111.59C481.37,-103.17 453.64,-90.69 432.28,-81.07"/>
<polygon fill="#63b8ff" stroke="#63b8ff" points="434,-78.01 423.45,-77.1 431.13,-84.4 434,-78.01"/>
</a>
</g>
</g>
<!-- Node11&#45;&gt;Node2 -->
<g id="edge17_Node000011_Node000002" class="edge">
<title>Node11&#45;&gt;Node2</title>
<g id="a_edge17_Node000011_Node000002"><a xlink:title=" ">
<path fill="none" stroke="#63b8ff" d="M377.28,-63.4C321.82,-59.35 179.29,-47.21 51.6,-20.24"/>
<polygon fill="#63b8ff" stroke="#63b8ff" points="52.47,-16.84 41.96,-18.16 51,-23.68 52.47,-16.84"/>
</a>
</g>
</g>
<!-- Node11&#45;&gt;Node6 -->
<g id="edge12_Node000011_Node000006" class="edge">
<title>Node11&#45;&gt;Node6</title>
<g id="a_edge12_Node000011_Node000006"><a xlink:title=" ">
<path fill="none" stroke="#63b8ff" d="M377.28,-60.67C331.24,-52.27 228.58,-33.55 163.3,-21.64"/>
<polygon fill="#63b8ff" stroke="#63b8ff" points="164.32,-18.26 153.86,-19.91 163.06,-25.15 164.32,-18.26"/>
</a>
</g>
</g>
<!-- Node11&#45;&gt;Node9 -->
<g id="edge14_Node000011_Node000009" class="edge">
<title>Node11&#45;&gt;Node9</title>
<g id="a_edge14_Node000011_Node000009"><a xlink:title=" ">
<path fill="none" stroke="#63b8ff" d="M424.68,-57.99C427.47,-57.27 430.29,-56.58 433,-56 533.59,-34.3 563.99,-42.73 666.93,-20.43"/>
<polygon fill="#63b8ff" stroke="#63b8ff" points="667.66,-23.86 676.66,-18.27 666.14,-17.02 667.66,-23.86"/>
</a>
</g>
</g>
<!-- Node11&#45;&gt;Node10 -->
<g id="edge21_Node000011_Node000010" class="edge">
<title>Node11&#45;&gt;Node10</title>
<g id="a_edge21_Node000011_Node000010"><a xlink:title=" ">
<path fill="none" stroke="#63b8ff" d="M424.67,-57.91C427.46,-57.2 430.28,-56.54 433,-56 560.24,-30.58 598.34,-46.35 728,-20.32"/>
<polygon fill="#63b8ff" stroke="#63b8ff" points="728.58,-23.77 737.67,-18.33 727.17,-16.92 728.58,-23.77"/>
</a>
</g>
</g>
<!-- Node12 -->
<g id="Node000012" class="node">
<title>Node12</title>
<g id="a_Node000012"><a xlink:title=" ">
<polygon fill="#e0e0e0" stroke="#999999" points="225.88,-20 170.12,-20 170.12,0 225.88,0 225.88,-20"/>
<text text-anchor="middle" x="198" y="-6.5" font-family="Helvetica,sans-Serif" font-size="10.00">algorithm</text>
</a>
</g>
</g>
<!-- Node11&#45;&gt;Node12 -->
<g id="edge11_Node000011_Node000012" class="edge">
<title>Node11&#45;&gt;Node12</title>
<g id="a_edge11_Node000011_Node000012"><a xlink:title=" ">
<path fill="none" stroke="#63b8ff" d="M377.32,-58.7C342.9,-49.54 278.65,-32.45 237.14,-21.41"/>
<polygon fill="#63b8ff" stroke="#63b8ff" points="238.1,-18.05 227.54,-18.86 236.3,-24.81 238.1,-18.05"/>
</a>
</g>
</g>
<!-- Node13 -->
<g id="Node000013" class="node">
<title>Node13</title>
<g id="a_Node000013"><a xlink:title=" ">
<polygon fill="#e0e0e0" stroke="#999999" points="295.62,-20 244.38,-20 244.38,0 295.62,0 295.62,-20"/>
<text text-anchor="middle" x="270" y="-6.5" font-family="Helvetica,sans-Serif" font-size="10.00">memory</text>
</a>
</g>
</g>
<!-- Node11&#45;&gt;Node13 -->
<g id="edge13_Node000011_Node000013" class="edge">
<title>Node11&#45;&gt;Node13</title>
<g id="a_edge13_Node000011_Node000013"><a xlink:title=" ">
<path fill="none" stroke="#63b8ff" d="M378.18,-55.59C357.55,-47.09 326.92,-34.46 303.51,-24.81"/>
<polygon fill="#63b8ff" stroke="#63b8ff" points="304.98,-21.63 294.4,-21.06 302.31,-28.1 304.98,-21.63"/>
</a>
</g>
</g>
<!-- Node14 -->
<g id="Node000014" class="node">
<title>Node14</title>
<g id="a_Node000014"><a xlink:title=" ">
<polygon fill="#e0e0e0" stroke="#999999" points="363.88,-20 314.12,-20 314.12,0 363.88,0 363.88,-20"/>
<text text-anchor="middle" x="339" y="-6.5" font-family="Helvetica,sans-Serif" font-size="10.00">optional</text>
</a>
</g>
</g>
<!-- Node11&#45;&gt;Node14 -->
<g id="edge15_Node000011_Node000014" class="edge">
<title>Node11&#45;&gt;Node14</title>
<g id="a_edge15_Node000011_Node000014"><a xlink:title=" ">
<path fill="none" stroke="#63b8ff" d="M390.2,-55.59C381.4,-47.93 368.75,-36.91 358.23,-27.75"/>
<polygon fill="#63b8ff" stroke="#63b8ff" points="360.66,-25.22 350.82,-21.29 356.06,-30.5 360.66,-25.22"/>
</a>
</g>
</g>
<!-- Node15 -->
<g id="Node000015" class="node">
<title>Node15</title>
<g id="a_Node000015"><a xlink:title=" ">
<polygon fill="#e0e0e0" stroke="#999999" points="433.62,-20 382.38,-20 382.38,0 433.62,0 433.62,-20"/>
<text text-anchor="middle" x="408" y="-6.5" font-family="Helvetica,sans-Serif" font-size="10.00">ostream</text>
</a>
</g>
</g>
<!-- Node11&#45;&gt;Node15 -->
<g id="edge16_Node000011_Node000015" class="edge">
<title>Node11&#45;&gt;Node15</title>
<g id="a_edge16_Node000011_Node000015"><a xlink:title=" ">
<path fill="none" stroke="#63b8ff" d="M402.22,-55.59C403.08,-48.93 404.27,-39.75 405.35,-31.44"/>
<polygon fill="#63b8ff" stroke="#63b8ff" points="408.79,-32.17 406.6,-21.8 401.84,-31.27 408.79,-32.17"/>
</a>
</g>
</g>
<!-- Node16 -->
<g id="Node000016" class="node">
<title>Node16</title>
<g id="a_Node000016"><a xlink:title=" ">
<polygon fill="#e0e0e0" stroke="#999999" points="516.75,-20 451.25,-20 451.25,0 516.75,0 516.75,-20"/>
<text text-anchor="middle" x="484" y="-6.5" font-family="Helvetica,sans-Serif" font-size="10.00">string_view</text>
</a>
</g>
</g>
<!-- Node11&#45;&gt;Node16 -->
<g id="edge18_Node000011_Node000016" class="edge">
<title>Node11&#45;&gt;Node16</title>
<g id="a_edge18_Node000011_Node000016"><a xlink:title=" ">
<path fill="none" stroke="#63b8ff" d="M415.46,-55.59C427.76,-47.59 445.68,-35.93 460.11,-26.54"/>
<polygon fill="#63b8ff" stroke="#63b8ff" points="461.69,-29.69 468.16,-21.3 457.87,-23.82 461.69,-29.69"/>
</a>
</g>
</g>
<!-- Node17 -->
<g id="Node000017" class="node">
<title>Node17</title>
<g id="a_Node000017"><a xlink:title=" ">
<polygon fill="#e0e0e0" stroke="#999999" points="596.88,-20 535.12,-20 535.12,0 596.88,0 596.88,-20"/>
<text text-anchor="middle" x="566" y="-6.5" font-family="Helvetica,sans-Serif" font-size="10.00">type_traits</text>
</a>
</g>
</g>
<!-- Node11&#45;&gt;Node17 -->
<g id="edge19_Node000011_Node000017" class="edge">
<title>Node11&#45;&gt;Node17</title>
<g id="a_edge19_Node000011_Node000017"><a xlink:title=" ">
<path fill="none" stroke="#63b8ff" d="M424.64,-57.26C451.18,-48.58 494.69,-34.34 526.44,-23.95"/>
<polygon fill="#63b8ff" stroke="#63b8ff" points="527.27,-27.36 535.69,-20.92 525.1,-20.7 527.27,-27.36"/>
</a>
</g>
</g>
<!-- Node18 -->
<g id="Node000018" class="node">
<title>Node18</title>
<g id="a_Node000018"><a xlink:title=" ">
<polygon fill="#e0e0e0" stroke="#999999" points="660.62,-20 615.38,-20 615.38,0 660.62,0 660.62,-20"/>
<text text-anchor="middle" x="638" y="-6.5" font-family="Helvetica,sans-Serif" font-size="10.00">variant</text>
</a>
</g>
</g>
<!-- Node11&#45;&gt;Node18 -->
<g id="edge20_Node000011_Node000018" class="edge">
<title>Node11&#45;&gt;Node18</title>
<g id="a_edge20_Node000011_Node000018"><a xlink:title=" ">
<path fill="none" stroke="#63b8ff" d="M424.72,-58.13C427.5,-57.38 430.31,-56.66 433,-56 505.86,-38.19 527.76,-38.57 603.87,-20.37"/>
<polygon fill="#63b8ff" stroke="#63b8ff" points="604.61,-23.79 613.51,-18.04 602.96,-16.99 604.61,-23.79"/>
</a>
</g>
</g>
</g>
</svg>
