<?xml version="1.0" encoding="UTF-8" standalone="no"?>
<!DOCTYPE svg PUBLIC "-//W3C//DTD SVG 1.1//EN"
 "http://www.w3.org/Graphics/SVG/1.1/DTD/svg11.dtd">
<!-- Generated by graphviz version 12.2.1 (0)
 -->
<!-- Title: src/crypto.h Pages: 1 -->
<!--zoomable 208 -->

<svg id="main" version="1.1" xmlns="http://www.w3.org/2000/svg" xmlns:xlink="http://www.w3.org/1999/xlink" xml:space="preserve" onload="init(evt)">

<style type="text/css"><![CDATA[
.node, .edge {opacity: 0.7;}
.node.selected, .edge.selected {opacity: 1;}
.edge:hover path { stroke: red; }
.edge:hover polygon { stroke: red; fill: red; }
]]></style>

<defs>
  <circle id="rim" cx="0" cy="0" r="7"/>
  <circle id="rim2" cx="0" cy="0" r="3.5"/>
  <g id="zoomPlus">
    <use xlink:href="#rim" fill="#404040"><set attributeName="fill" to="#808080" begin="zoomplus.mouseover" end="zoomplus.mouseout"/></use>
    <path d="M-4,0h8M0,-4v8" fill="none" stroke="white" stroke-width="1.5" pointer-events="none"/>
  </g>
  <g id="zoomMin">
    <use xlink:href="#rim" fill="#404040"><set attributeName="fill" to="#808080" begin="zoomminus.mouseover" end="zoomminus.mouseout"/></use>
    <path d="M-4,0h8" fill="none" stroke="white" stroke-width="1.5" pointer-events="none"/>
  </g>
  <g id="arrowUp" transform="translate(30 24)">
    <use xlink:href="#rim"/>
    <path pointer-events="none" fill="none" stroke="white" stroke-width="1.5" d="M0,-3.0v7 M-2.5,-0.5L0,-3.0L2.5,-0.5"/>
  </g>
  <g id="arrowRight" transform="rotate(90) translate(36 -43)">
    <use xlink:href="#rim"/>
    <path pointer-events="none" fill="none" stroke="white" stroke-width="1.5" d="M0,-3.0v7 M-2.5,-0.5L0,-3.0L2.5,-0.5"/>
  </g>
  <g id="arrowDown" transform="rotate(180) translate(-30 -48)">
    <use xlink:href="#rim"/>
    <path pointer-events="none" fill="none" stroke="white" stroke-width="1.5" d="M0,-3.0v7 M-2.5,-0.5L0,-3.0L2.5,-0.5"/>
  </g>
  <g id="arrowLeft" transform="rotate(270) translate(-36 17)">
    <use xlink:href="#rim"/>
    <path pointer-events="none" fill="none" stroke="white" stroke-width="1.5" d="M0,-3.0v7 M-2.5,-0.5L0,-3.0L2.5,-0.5"/>
  </g>
  <g id="resetDef">
    <use xlink:href="#rim2" fill="#404040"><set attributeName="fill" to="#808080" begin="reset.mouseover" end="reset.mouseout"/></use>
  </g>
</defs>
<script type="application/ecmascript">
var viewWidth = 1170;
var viewHeight = 208;
var sectionId = 'dynsection-1';
</script>
<script type="application/ecmascript" xlink:href="svg.min.js"/>
<svg id="graph" class="graph">
<g id="viewport">
<title>src/crypto.h</title>
<!-- Node1 -->
<g id="Node000001" class="node">
<title>Node1</title>
<g id="a_Node000001"><a xlink:title="Declarations for cryptography functions.">
<polygon fill="#999999" stroke="#666666" points="864.88,-200 797.12,-200 797.12,-180 864.88,-180 864.88,-200"/>
<text text-anchor="middle" x="831" y="-186.5" font-family="Helvetica,sans-Serif" font-size="10.00">src/crypto.h</text>
</a>
</g>
</g>
<!-- Node2 -->
<g id="Node000002" class="node">
<title>Node2</title>
<g id="a_Node000002"><a xlink:href="confighttp_8cpp.html" target="_top" xlink:title="Definitions for the Web UI Config HTTP server.">
<polygon fill="white" stroke="#666666" points="94,-20 0,-20 0,0 94,0 94,-20"/>
<text text-anchor="middle" x="47" y="-6.5" font-family="Helvetica,sans-Serif" font-size="10.00">src/confighttp.cpp</text>
</a>
</g>
</g>
<!-- Node1&#45;&gt;Node2 -->
<g id="edge1_Node000001_Node000002" class="edge">
<title>Node1&#45;&gt;Node2</title>
<g id="a_edge1_Node000001_Node000002"><a xlink:title=" ">
<path fill="none" stroke="#63b8ff" d="M785.3,-186.69C624.59,-178.11 92.62,-145.51 45,-88 28.97,-68.64 37.56,-36.19 43.26,-20.31"/>
<polygon fill="#63b8ff" stroke="#63b8ff" points="784.97,-190.18 795.14,-187.21 785.34,-183.19 784.97,-190.18"/>
</a>
</g>
</g>
<!-- Node3 -->
<g id="Node000003" class="node">
<title>Node3</title>
<g id="a_Node000003"><a xlink:href="crypto_8cpp.html" target="_top" xlink:title="Definitions for cryptography functions.">
<polygon fill="white" stroke="#666666" points="427.12,-144 348.88,-144 348.88,-124 427.12,-124 427.12,-144"/>
<text text-anchor="middle" x="388" y="-130.5" font-family="Helvetica,sans-Serif" font-size="10.00">src/crypto.cpp</text>
</a>
</g>
</g>
<!-- Node1&#45;&gt;Node3 -->
<g id="edge2_Node000001_Node000003" class="edge">
<title>Node1&#45;&gt;Node3</title>
<g id="a_edge2_Node000001_Node000003"><a xlink:title=" ">
<path fill="none" stroke="#63b8ff" d="M785.67,-184.91C712.09,-178.02 562.17,-162.99 436,-144 433.23,-143.58 430.38,-143.12 427.51,-142.64"/>
<polygon fill="#63b8ff" stroke="#63b8ff" points="785.02,-188.36 795.31,-185.8 785.67,-181.39 785.02,-188.36"/>
</a>
</g>
</g>
<!-- Node4 -->
<g id="Node000004" class="node">
<title>Node4</title>
<g id="a_Node000004"><a xlink:href="httpcommon_8cpp.html" target="_top" xlink:title="Definitions for common HTTP.">
<polygon fill="white" stroke="#666666" points="967.62,-20 862.38,-20 862.38,0 967.62,0 967.62,-20"/>
<text text-anchor="middle" x="915" y="-6.5" font-family="Helvetica,sans-Serif" font-size="10.00">src/httpcommon.cpp</text>
</a>
</g>
</g>
<!-- Node1&#45;&gt;Node4 -->
<g id="edge3_Node000001_Node000004" class="edge">
<title>Node1&#45;&gt;Node4</title>
<g id="a_edge3_Node000001_Node000004"><a xlink:title=" ">
<path fill="none" stroke="#63b8ff" d="M876.57,-187.86C926.33,-184.96 1007.18,-175.32 1069,-144 1101.54,-127.52 1114.46,-121.45 1129,-88 1134.67,-74.96 1137.96,-67.04 1129,-56 1109.08,-31.46 1024.55,-19.81 967.88,-14.66"/>
<polygon fill="#63b8ff" stroke="#63b8ff" points="876.55,-184.36 866.74,-188.36 876.9,-191.35 876.55,-184.36"/>
</a>
</g>
</g>
<!-- Node5 -->
<g id="Node000005" class="node">
<title>Node5</title>
<g id="a_Node000005"><a xlink:href="nvhttp_8h.html" target="_top" xlink:title="Declarations for the nvhttp (GameStream) server.">
<polygon fill="white" stroke="#666666" points="512.88,-144 445.12,-144 445.12,-124 512.88,-124 512.88,-144"/>
<text text-anchor="middle" x="479" y="-130.5" font-family="Helvetica,sans-Serif" font-size="10.00">src/nvhttp.h</text>
</a>
</g>
</g>
<!-- Node1&#45;&gt;Node5 -->
<g id="edge4_Node000001_Node000005" class="edge">
<title>Node1&#45;&gt;Node5</title>
<g id="a_edge4_Node000001_Node000005"><a xlink:title=" ">
<path fill="none" stroke="#63b8ff" d="M785.64,-182.04C714.24,-171.09 577.22,-150.07 513.35,-140.27"/>
<polygon fill="#63b8ff" stroke="#63b8ff" points="785.02,-185.49 795.43,-183.54 786.08,-178.57 785.02,-185.49"/>
</a>
</g>
</g>
<!-- Node13 -->
<g id="Node000013" class="node">
<title>Node13</title>
<g id="a_Node000013"><a xlink:href="process_8cpp.html" target="_top" xlink:title="Definitions for the startup and shutdown of the apps started by a streaming Session.">
<polygon fill="white" stroke="#666666" points="1161.88,-20 1076.12,-20 1076.12,0 1161.88,0 1161.88,-20"/>
<text text-anchor="middle" x="1119" y="-6.5" font-family="Helvetica,sans-Serif" font-size="10.00">src/process.cpp</text>
</a>
</g>
</g>
<!-- Node1&#45;&gt;Node13 -->
<g id="edge14_Node000001_Node000013" class="edge">
<title>Node1&#45;&gt;Node13</title>
<g id="a_edge14_Node000001_Node000013"><a xlink:title=" ">
<path fill="none" stroke="#63b8ff" d="M876.53,-185.26C943.01,-179.16 1062.78,-165.53 1100,-144 1127.88,-127.87 1135.14,-118.32 1146,-88 1150.79,-74.61 1149.8,-69.71 1146,-56 1142.25,-42.48 1133.24,-28.94 1126.66,-20.3"/>
<polygon fill="#63b8ff" stroke="#63b8ff" points="876.32,-181.77 866.67,-186.14 876.94,-188.74 876.32,-181.77"/>
</a>
</g>
</g>
<!-- Node14 -->
<g id="Node000014" class="node">
<title>Node14</title>
<g id="a_Node000014"><a xlink:href="rtsp_8h.html" target="_top" xlink:title="Declarations for RTSP streaming.">
<polygon fill="white" stroke="#666666" points="859.62,-144 802.38,-144 802.38,-124 859.62,-124 859.62,-144"/>
<text text-anchor="middle" x="831" y="-130.5" font-family="Helvetica,sans-Serif" font-size="10.00">src/rtsp.h</text>
</a>
</g>
</g>
<!-- Node1&#45;&gt;Node14 -->
<g id="edge15_Node000001_Node000014" class="edge">
<title>Node1&#45;&gt;Node14</title>
<g id="a_edge15_Node000001_Node000014"><a xlink:title=" ">
<path fill="none" stroke="#63b8ff" d="M831,-168.13C831,-159.9 831,-150.85 831,-144.3"/>
<polygon fill="#63b8ff" stroke="#63b8ff" points="827.5,-168.08 831,-178.08 834.5,-168.08 827.5,-168.08"/>
</a>
</g>
</g>
<!-- Node20 -->
<g id="Node000020" class="node">
<title>Node20</title>
<g id="a_Node000020"><a xlink:href="stream_8h.html" target="_top" xlink:title="Declarations for the streaming protocols.">
<polygon fill="white" stroke="#666666" points="1060.38,-144 989.62,-144 989.62,-124 1060.38,-124 1060.38,-144"/>
<text text-anchor="middle" x="1025" y="-130.5" font-family="Helvetica,sans-Serif" font-size="10.00">src/stream.h</text>
</a>
</g>
</g>
<!-- Node1&#45;&gt;Node20 -->
<g id="edge30_Node000001_Node000020" class="edge">
<title>Node1&#45;&gt;Node20</title>
<g id="a_edge30_Node000001_Node000020"><a xlink:title=" ">
<path fill="none" stroke="#63b8ff" d="M875.69,-176.56C910.79,-166.79 958.92,-153.39 990.94,-144.48"/>
<polygon fill="#63b8ff" stroke="#63b8ff" points="874.95,-173.13 866.25,-179.19 876.82,-179.88 874.95,-173.13"/>
</a>
</g>
</g>
<!-- Node5&#45;&gt;Node2 -->
<g id="edge6_Node000005_Node000002" class="edge">
<title>Node5&#45;&gt;Node2</title>
<g id="a_edge6_Node000005_Node000002"><a xlink:title=" ">
<path fill="none" stroke="#63b8ff" d="M433.59,-124.05C336.94,-113.77 126.05,-139.92 66,-88 46.21,-70.89 45.33,-36.76 46.19,-20.3"/>
<polygon fill="#63b8ff" stroke="#63b8ff" points="432.93,-127.49 443.29,-125.3 433.82,-120.55 432.93,-127.49"/>
</a>
</g>
</g>
<!-- Node5&#45;&gt;Node4 -->
<g id="edge7_Node000005_Node000004" class="edge">
<title>Node5&#45;&gt;Node4</title>
<g id="a_edge7_Node000005_Node000004"><a xlink:title=" ">
<path fill="none" stroke="#63b8ff" d="M524.36,-131.68C575.58,-128.66 660.33,-118.92 726,-88 745.98,-78.59 744.57,-66.48 764,-56 795.66,-38.92 834.63,-27.51 865.06,-20.46"/>
<polygon fill="#63b8ff" stroke="#63b8ff" points="524.34,-128.18 514.54,-132.2 524.7,-135.17 524.34,-128.18"/>
</a>
</g>
</g>
<!-- Node6 -->
<g id="Node000006" class="node">
<title>Node6</title>
<g id="a_Node000006"><a xlink:href="config_8cpp.html" target="_top" xlink:title="Definitions for the configuration of Sunshine.">
<polygon fill="white" stroke="#666666" points="584.75,-82 507.25,-82 507.25,-62 584.75,-62 584.75,-82"/>
<text text-anchor="middle" x="546" y="-68.5" font-family="Helvetica,sans-Serif" font-size="10.00">src/config.cpp</text>
</a>
</g>
</g>
<!-- Node5&#45;&gt;Node6 -->
<g id="edge5_Node000005_Node000006" class="edge">
<title>Node5&#45;&gt;Node6</title>
<g id="a_edge5_Node000005_Node000006"><a xlink:title=" ">
<path fill="none" stroke="#63b8ff" d="M497.73,-116.22C510.07,-105.18 525.74,-91.14 535.82,-82.11"/>
<polygon fill="#63b8ff" stroke="#63b8ff" points="495.71,-113.34 490.6,-122.62 500.38,-118.55 495.71,-113.34"/>
</a>
</g>
</g>
<!-- Node7 -->
<g id="Node000007" class="node">
<title>Node7</title>
<g id="a_Node000007"><a xlink:href="main_8cpp.html" target="_top" xlink:title="Definitions for the main entry point for Sunshine.">
<polygon fill="white" stroke="#666666" points="611.12,-20 538.88,-20 538.88,0 611.12,0 611.12,-20"/>
<text text-anchor="middle" x="575" y="-6.5" font-family="Helvetica,sans-Serif" font-size="10.00">src/main.cpp</text>
</a>
</g>
</g>
<!-- Node5&#45;&gt;Node7 -->
<g id="edge8_Node000005_Node000007" class="edge">
<title>Node5&#45;&gt;Node7</title>
<g id="a_edge8_Node000005_Node000007"><a xlink:title=" ">
<path fill="none" stroke="#63b8ff" d="M479.72,-112.77C481.25,-96.08 485.65,-72.52 498,-56 510.52,-39.26 531.24,-27.66 548.04,-20.44"/>
<polygon fill="#63b8ff" stroke="#63b8ff" points="476.24,-112.27 479.12,-122.47 483.23,-112.7 476.24,-112.27"/>
</a>
</g>
</g>
<!-- Node8 -->
<g id="Node000008" class="node">
<title>Node8</title>
<g id="a_Node000008"><a xlink:href="nvhttp_8cpp.html" target="_top" xlink:title="Definitions for the nvhttp (GameStream) server.">
<polygon fill="white" stroke="#666666" points="521.12,-20 442.88,-20 442.88,0 521.12,0 521.12,-20"/>
<text text-anchor="middle" x="482" y="-6.5" font-family="Helvetica,sans-Serif" font-size="10.00">src/nvhttp.cpp</text>
</a>
</g>
</g>
<!-- Node5&#45;&gt;Node8 -->
<g id="edge9_Node000005_Node000008" class="edge">
<title>Node5&#45;&gt;Node8</title>
<g id="a_edge9_Node000005_Node000008"><a xlink:title=" ">
<path fill="none" stroke="#63b8ff" d="M433.69,-123.79C330.39,-107.43 172.85,-126.74 232,-56 258.38,-24.45 379.01,-14.99 442.56,-12.17"/>
<polygon fill="#63b8ff" stroke="#63b8ff" points="432.81,-127.19 443.26,-125.47 434.01,-120.3 432.81,-127.19"/>
</a>
</g>
</g>
<!-- Node9 -->
<g id="Node000009" class="node">
<title>Node9</title>
<g id="a_Node000009"><a xlink:href="linux_2publish_8cpp.html" target="_top" xlink:title="Definitions for publishing services on Linux.">
<polygon fill="white" stroke="#666666" points="332.5,-88 241.5,-88 241.5,-56 332.5,-56 332.5,-88"/>
<text text-anchor="start" x="249.5" y="-74.5" font-family="Helvetica,sans-Serif" font-size="10.00">src/platform/linux</text>
<text text-anchor="middle" x="287" y="-62.5" font-family="Helvetica,sans-Serif" font-size="10.00">/publish.cpp</text>
</a>
</g>
</g>
<!-- Node5&#45;&gt;Node9 -->
<g id="edge10_Node000005_Node000009" class="edge">
<title>Node5&#45;&gt;Node9</title>
<g id="a_edge10_Node000005_Node000009"><a xlink:title=" ">
<path fill="none" stroke="#63b8ff" d="M438.19,-120.25C407.32,-110.6 364.91,-97.35 332.87,-87.33"/>
<polygon fill="#63b8ff" stroke="#63b8ff" points="436.97,-123.53 447.56,-123.17 439.05,-116.85 436.97,-123.53"/>
</a>
</g>
</g>
<!-- Node10 -->
<g id="Node000010" class="node">
<title>Node10</title>
<g id="a_Node000010"><a xlink:href="macos_2publish_8cpp.html" target="_top" xlink:title="Definitions for publishing services on macOS.">
<polygon fill="white" stroke="#666666" points="451,-88 351,-88 351,-56 451,-56 451,-88"/>
<text text-anchor="start" x="359" y="-74.5" font-family="Helvetica,sans-Serif" font-size="10.00">src/platform/macos</text>
<text text-anchor="middle" x="401" y="-62.5" font-family="Helvetica,sans-Serif" font-size="10.00">/publish.cpp</text>
</a>
</g>
</g>
<!-- Node5&#45;&gt;Node10 -->
<g id="edge11_Node000005_Node000010" class="edge">
<title>Node5&#45;&gt;Node10</title>
<g id="a_edge11_Node000005_Node000010"><a xlink:title=" ">
<path fill="none" stroke="#63b8ff" d="M457.91,-116.78C446.42,-107.94 432.29,-97.07 420.99,-88.37"/>
<polygon fill="#63b8ff" stroke="#63b8ff" points="455.55,-119.38 465.61,-122.7 459.82,-113.83 455.55,-119.38"/>
</a>
</g>
</g>
<!-- Node11 -->
<g id="Node000011" class="node">
<title>Node11</title>
<g id="a_Node000011"><a xlink:href="windows_2publish_8cpp.html" target="_top" xlink:title="Definitions for Windows mDNS service registration.">
<polygon fill="white" stroke="#666666" points="184.5,-88 75.5,-88 75.5,-56 184.5,-56 184.5,-88"/>
<text text-anchor="start" x="83.5" y="-74.5" font-family="Helvetica,sans-Serif" font-size="10.00">src/platform/windows</text>
<text text-anchor="middle" x="130" y="-62.5" font-family="Helvetica,sans-Serif" font-size="10.00">/publish.cpp</text>
</a>
</g>
</g>
<!-- Node5&#45;&gt;Node11 -->
<g id="edge12_Node000005_Node000011" class="edge">
<title>Node5&#45;&gt;Node11</title>
<g id="a_edge12_Node000005_Node000011"><a xlink:title=" ">
<path fill="none" stroke="#63b8ff" d="M433.73,-123.68C329.25,-105.2 300.3,-106.68 199,-88 194.42,-87.15 189.68,-86.23 184.92,-85.27"/>
<polygon fill="#63b8ff" stroke="#63b8ff" points="432.82,-127.07 443.28,-125.39 434.05,-120.18 432.82,-127.07"/>
</a>
</g>
</g>
<!-- Node12 -->
<g id="Node000012" class="node">
<title>Node12</title>
<g id="a_Node000012"><a xlink:href="upnp_8cpp.html" target="_top" xlink:title="Definitions for UPnP port mapping.">
<polygon fill="white" stroke="#666666" points="1017.12,-82 944.88,-82 944.88,-62 1017.12,-62 1017.12,-82"/>
<text text-anchor="middle" x="981" y="-68.5" font-family="Helvetica,sans-Serif" font-size="10.00">src/upnp.cpp</text>
</a>
</g>
</g>
<!-- Node5&#45;&gt;Node12 -->
<g id="edge13_Node000005_Node000012" class="edge">
<title>Node5&#45;&gt;Node12</title>
<g id="a_edge13_Node000005_Node000012"><a xlink:title=" ">
<path fill="none" stroke="#63b8ff" d="M524.51,-129.19C601.59,-122.5 762.65,-107.47 898,-88 913.36,-85.79 930.23,-82.84 944.73,-80.14"/>
<polygon fill="#63b8ff" stroke="#63b8ff" points="524.49,-125.68 514.83,-130.03 525.09,-132.65 524.49,-125.68"/>
</a>
</g>
</g>
<!-- Node14&#45;&gt;Node4 -->
<g id="edge18_Node000014_Node000004" class="edge">
<title>Node14&#45;&gt;Node4</title>
<g id="a_edge18_Node000014_Node000004"><a xlink:title=" ">
<path fill="none" stroke="#63b8ff" d="M862.89,-118.31C875.61,-110.92 889.28,-100.79 898,-88 912.34,-66.96 914.82,-35.85 915.1,-20.4"/>
<polygon fill="#63b8ff" stroke="#63b8ff" points="861.47,-115.09 854.33,-122.92 864.79,-121.26 861.47,-115.09"/>
</a>
</g>
</g>
<!-- Node14&#45;&gt;Node6 -->
<g id="edge16_Node000014_Node000006" class="edge">
<title>Node14&#45;&gt;Node6</title>
<g id="a_edge16_Node000014_Node000006"><a xlink:title=" ">
<path fill="none" stroke="#63b8ff" d="M790.81,-126.26C744.38,-118.24 665.78,-103.9 599,-88 592.12,-86.36 584.78,-84.42 577.84,-82.48"/>
<polygon fill="#63b8ff" stroke="#63b8ff" points="789.96,-129.67 800.41,-127.91 791.14,-122.77 789.96,-129.67"/>
</a>
</g>
</g>
<!-- Node14&#45;&gt;Node8 -->
<g id="edge19_Node000014_Node000008" class="edge">
<title>Node14&#45;&gt;Node8</title>
<g id="a_edge19_Node000014_Node000008"><a xlink:title=" ">
<path fill="none" stroke="#63b8ff" d="M790.57,-129.53C748.97,-124.69 683.21,-113.45 632,-88 612.23,-78.18 612.93,-67.37 594,-56 568.13,-40.46 535.93,-28.16 512.7,-20.38"/>
<polygon fill="#63b8ff" stroke="#63b8ff" points="790.06,-133 800.38,-130.6 790.82,-126.04 790.06,-133"/>
</a>
</g>
</g>
<!-- Node14&#45;&gt;Node12 -->
<g id="edge29_Node000014_Node000012" class="edge">
<title>Node14&#45;&gt;Node12</title>
<g id="a_edge29_Node000014_Node000012"><a xlink:title=" ">
<path fill="none" stroke="#63b8ff" d="M865.06,-119.38C893.37,-108.05 932.91,-92.23 957.73,-82.31"/>
<polygon fill="#63b8ff" stroke="#63b8ff" points="863.83,-116.1 855.84,-123.06 866.43,-122.6 863.83,-116.1"/>
</a>
</g>
</g>
<!-- Node15 -->
<g id="Node000015" class="node">
<title>Node15</title>
<g id="a_Node000015"><a xlink:href="display__device_8cpp.html" target="_top" xlink:title="Definitions for display device handling.">
<polygon fill="white" stroke="#666666" points="888.88,-82 773.12,-82 773.12,-62 888.88,-62 888.88,-82"/>
<text text-anchor="middle" x="831" y="-68.5" font-family="Helvetica,sans-Serif" font-size="10.00">src/display_device.cpp</text>
</a>
</g>
</g>
<!-- Node14&#45;&gt;Node15 -->
<g id="edge17_Node000014_Node000015" class="edge">
<title>Node14&#45;&gt;Node15</title>
<g id="a_edge17_Node000014_Node000015"><a xlink:title=" ">
<path fill="none" stroke="#63b8ff" d="M831,-112.25C831,-101.97 831,-90.09 831,-82.11"/>
<polygon fill="#63b8ff" stroke="#63b8ff" points="827.5,-112.11 831,-122.11 834.5,-112.11 827.5,-112.11"/>
</a>
</g>
</g>
<!-- Node16 -->
<g id="Node000016" class="node">
<title>Node16</title>
<g id="a_Node000016"><a xlink:href="process_8h.html" target="_top" xlink:title="Declarations for the startup and shutdown of the apps started by a streaming Session.">
<polygon fill="white" stroke="#666666" points="716.62,-82 641.38,-82 641.38,-62 716.62,-62 716.62,-82"/>
<text text-anchor="middle" x="679" y="-68.5" font-family="Helvetica,sans-Serif" font-size="10.00">src/process.h</text>
</a>
</g>
</g>
<!-- Node14&#45;&gt;Node16 -->
<g id="edge20_Node000014_Node000016" class="edge">
<title>Node14&#45;&gt;Node16</title>
<g id="a_edge20_Node000014_Node000016"><a xlink:title=" ">
<path fill="none" stroke="#63b8ff" d="M796.9,-119.54C768.27,-108.24 728.11,-92.39 702.83,-82.41"/>
<polygon fill="#63b8ff" stroke="#63b8ff" points="795.26,-122.65 805.84,-123.07 797.83,-116.14 795.26,-122.65"/>
</a>
</g>
</g>
<!-- Node19 -->
<g id="Node000019" class="node">
<title>Node19</title>
<g id="a_Node000019"><a xlink:href="rtsp_8cpp.html" target="_top" xlink:title="Definitions for RTSP streaming.">
<polygon fill="white" stroke="#666666" points="1102.88,-82 1035.12,-82 1035.12,-62 1102.88,-62 1102.88,-82"/>
<text text-anchor="middle" x="1069" y="-68.5" font-family="Helvetica,sans-Serif" font-size="10.00">src/rtsp.cpp</text>
</a>
</g>
</g>
<!-- Node14&#45;&gt;Node19 -->
<g id="edge28_Node000014_Node000019" class="edge">
<title>Node14&#45;&gt;Node19</title>
<g id="a_edge28_Node000014_Node000019"><a xlink:title=" ">
<path fill="none" stroke="#63b8ff" d="M871.05,-125.09C910.7,-116.95 972.99,-103.31 1026,-88 1031.77,-86.33 1037.91,-84.33 1043.68,-82.35"/>
<polygon fill="#63b8ff" stroke="#63b8ff" points="870.58,-121.61 861.48,-127.04 871.98,-128.47 870.58,-121.61"/>
</a>
</g>
</g>
<!-- Node16&#45;&gt;Node2 -->
<g id="edge21_Node000016_Node000002" class="edge">
<title>Node16&#45;&gt;Node2</title>
<g id="a_edge21_Node000016_Node000002"><a xlink:title=" ">
<path fill="none" stroke="#63b8ff" d="M630.04,-61.56C618.27,-59.51 605.71,-57.51 594,-56 409.96,-32.24 189.37,-18.59 94.35,-13.42"/>
<polygon fill="#63b8ff" stroke="#63b8ff" points="629.08,-64.95 639.54,-63.26 630.31,-58.06 629.08,-64.95"/>
</a>
</g>
</g>
<!-- Node16&#45;&gt;Node4 -->
<g id="edge22_Node000016_Node000004" class="edge">
<title>Node16&#45;&gt;Node4</title>
<g id="a_edge22_Node000016_Node000004"><a xlink:title=" ">
<path fill="none" stroke="#63b8ff" d="M722.04,-58.44C725.07,-57.6 728.08,-56.78 731,-56 780.1,-42.92 836.95,-29.24 874.32,-20.44"/>
<polygon fill="#63b8ff" stroke="#63b8ff" points="721.25,-55.02 712.58,-61.1 723.15,-61.76 721.25,-55.02"/>
</a>
</g>
</g>
<!-- Node16&#45;&gt;Node7 -->
<g id="edge23_Node000016_Node000007" class="edge">
<title>Node16&#45;&gt;Node7</title>
<g id="a_edge23_Node000016_Node000007"><a xlink:title=" ">
<path fill="none" stroke="#63b8ff" d="M653,-56C633.59,-44.8 607.65,-29.84 591.14,-20.31"/>
<polygon fill="#63b8ff" stroke="#63b8ff" points="651.03,-58.9 661.44,-60.87 654.53,-52.84 651.03,-58.9"/>
</a>
</g>
</g>
<!-- Node16&#45;&gt;Node8 -->
<g id="edge24_Node000016_Node000008" class="edge">
<title>Node16&#45;&gt;Node8</title>
<g id="a_edge24_Node000016_Node000008"><a xlink:title=" ">
<path fill="none" stroke="#63b8ff" d="M637.23,-58.28C600.01,-46.94 546.37,-30.61 512.89,-20.41"/>
<polygon fill="#63b8ff" stroke="#63b8ff" points="636.18,-61.62 646.77,-61.18 638.22,-54.92 636.18,-61.62"/>
</a>
</g>
</g>
<!-- Node16&#45;&gt;Node13 -->
<g id="edge25_Node000016_Node000013" class="edge">
<title>Node16&#45;&gt;Node13</title>
<g id="a_edge25_Node000016_Node000013"><a xlink:title=" ">
<path fill="none" stroke="#63b8ff" d="M728.01,-61.93C739.78,-59.87 752.32,-57.77 764,-56 876.1,-39.01 1008.78,-23.38 1075.74,-15.8"/>
<polygon fill="#63b8ff" stroke="#63b8ff" points="727.74,-58.43 718.51,-63.62 728.96,-65.32 727.74,-58.43"/>
</a>
</g>
</g>
<!-- Node17 -->
<g id="Node000017" class="node">
<title>Node17</title>
<g id="a_Node000017"><a xlink:href="stream_8cpp.html" target="_top" xlink:title="Definitions for the streaming protocols.">
<polygon fill="white" stroke="#666666" points="840.62,-20 759.38,-20 759.38,0 840.62,0 840.62,-20"/>
<text text-anchor="middle" x="800" y="-6.5" font-family="Helvetica,sans-Serif" font-size="10.00">src/stream.cpp</text>
</a>
</g>
</g>
<!-- Node16&#45;&gt;Node17 -->
<g id="edge26_Node000016_Node000017" class="edge">
<title>Node16&#45;&gt;Node17</title>
<g id="a_edge26_Node000016_Node000017"><a xlink:title=" ">
<path fill="none" stroke="#63b8ff" d="M708,-56.62C730.72,-45.35 761.65,-30.01 781.23,-20.31"/>
<polygon fill="#63b8ff" stroke="#63b8ff" points="706.67,-53.37 699.26,-60.95 709.78,-59.65 706.67,-53.37"/>
</a>
</g>
</g>
<!-- Node18 -->
<g id="Node000018" class="node">
<title>Node18</title>
<g id="a_Node000018"><a xlink:href="system__tray_8cpp.html" target="_top" xlink:title="Definitions for the system tray icon and notification system.">
<polygon fill="white" stroke="#666666" points="733.25,-20 628.75,-20 628.75,0 733.25,0 733.25,-20"/>
<text text-anchor="middle" x="681" y="-6.5" font-family="Helvetica,sans-Serif" font-size="10.00">src/system_tray.cpp</text>
</a>
</g>
</g>
<!-- Node16&#45;&gt;Node18 -->
<g id="edge27_Node000016_Node000018" class="edge">
<title>Node16&#45;&gt;Node18</title>
<g id="a_edge27_Node000016_Node000018"><a xlink:title=" ">
<path fill="none" stroke="#63b8ff" d="M679.69,-50.25C680.03,-39.97 680.43,-28.09 680.7,-20.11"/>
<polygon fill="#63b8ff" stroke="#63b8ff" points="676.2,-50 679.36,-60.11 683.19,-50.23 676.2,-50"/>
</a>
</g>
</g>
<!-- Node20&#45;&gt;Node12 -->
<g id="edge33_Node000020_Node000012" class="edge">
<title>Node20&#45;&gt;Node12</title>
<g id="a_edge33_Node000020_Node000012"><a xlink:title=" ">
<path fill="none" stroke="#63b8ff" d="M1011.5,-114.6C1003.61,-103.83 993.98,-90.7 987.68,-82.11"/>
<polygon fill="#63b8ff" stroke="#63b8ff" points="1008.49,-116.41 1017.23,-122.4 1014.14,-112.27 1008.49,-116.41"/>
</a>
</g>
</g>
<!-- Node20&#45;&gt;Node17 -->
<g id="edge32_Node000020_Node000017" class="edge">
<title>Node20&#45;&gt;Node17</title>
<g id="a_edge32_Node000020_Node000017"><a xlink:title=" ">
<path fill="none" stroke="#63b8ff" d="M1070.78,-120.26C1086.67,-113.4 1102.79,-103.13 1112,-88 1119.39,-75.85 1121.34,-66.73 1112,-56 1073.84,-12.17 910.43,-28.87 853,-20 849.13,-19.4 845.1,-18.76 841.07,-18.1"/>
<polygon fill="#63b8ff" stroke="#63b8ff" points="1069.91,-116.84 1061.87,-123.74 1072.45,-123.36 1069.91,-116.84"/>
</a>
</g>
</g>
<!-- Node20&#45;&gt;Node19 -->
<g id="edge31_Node000020_Node000019" class="edge">
<title>Node20&#45;&gt;Node19</title>
<g id="a_edge31_Node000020_Node000019"><a xlink:title=" ">
<path fill="none" stroke="#63b8ff" d="M1038.5,-114.6C1046.39,-103.83 1056.02,-90.7 1062.32,-82.11"/>
<polygon fill="#63b8ff" stroke="#63b8ff" points="1035.86,-112.27 1032.77,-122.4 1041.51,-116.41 1035.86,-112.27"/>
</a>
</g>
</g>
</g>
</svg>

<g id="navigator" transform="translate(0 0)" fill="#404254">
  <rect fill="#f2f5e9" fill-opacity="0.5" stroke="#606060" stroke-width=".5" x="0" y="0" width="60" height="60"/>
  <use id="zoomplus" xlink:href="#zoomPlus" x="17" y="9" onmousedown="handleZoom(evt,'in')"/>
  <use id="zoomminus" xlink:href="#zoomMin" x="42" y="9" onmousedown="handleZoom(evt,'out')"/>
  <use id="reset" xlink:href="#resetDef" x="30" y="36" onmousedown="handleReset()"/>
   <use id="arrowup" xlink:href="#arrowUp" x="0" y="0" onmousedown="handlePan(0,-1)"/>
  <use id="arrowright" xlink:href="#arrowRight" x="0" y="0" onmousedown="handlePan(1,0)"/>
  <use id="arrowdown" xlink:href="#arrowDown" x="0" y="0" onmousedown="handlePan(0,1)"/>
  <use id="arrowleft" xlink:href="#arrowLeft" x="0" y="0" onmousedown="handlePan(-1,0)"/>
</g>
<svg viewBox="0 0 15 15" width="100%" height="30px" preserveAspectRatio="xMaxYMin meet">
 <g id="arrow_out" transform="scale(0.3 0.3)">
  <a xlink:href="crypto_8h__dep__incl_org.svg" target="_base">
   <rect id="button" ry="5" rx="5" y="6" x="6" height="38" width="38"
        fill="#f2f5e9" fill-opacity="0.5" stroke="#606060" stroke-width="1.0"/>
   <path id="arrow"
     d="M 11.500037,31.436501 C 11.940474,20.09759 22.043105,11.32322 32.158766,21.979434 L 37.068811,17.246167 C 37.068811,17.246167 37.088388,32 37.088388,32 L 22.160133,31.978069 C 22.160133,31.978069 26.997745,27.140456 26.997745,27.140456 C 18.528582,18.264221 13.291696,25.230495 11.500037,31.436501 z"
     style="fill:#404040;"/>
  </a>
 </g>
</svg>

<style type='text/css'>
<![CDATA[
[data-mouse-over-selected='false'] { opacity: 0.7; }
[data-mouse-over-selected='true']  { opacity: 1.0; }
]]>
</style>
<script type="application/ecmascript"><![CDATA[
document.addEventListener('DOMContentLoaded', (event) => {
  highlightEdges();
  highlightAdjacentNodes();
});
]]></script>
</svg>
