<?xml version="1.0" encoding="UTF-8" standalone="no"?>
<!DOCTYPE svg PUBLIC "-//W3C//DTD SVG 1.1//EN"
 "http://www.w3.org/Graphics/SVG/1.1/DTD/svg11.dtd">
<!-- Generated by graphviz version 12.2.1 (0)
 -->
<!-- Title: src/crypto.cpp Pages: 1 -->
<svg width="845pt" height="196pt"
 viewBox="0.00 0.00 845.38 196.00" xmlns="http://www.w3.org/2000/svg" xmlns:xlink="http://www.w3.org/1999/xlink">
<g id="graph0" class="graph" transform="scale(1 1) rotate(0) translate(4 192)">
<title>src/crypto.cpp</title>
<!-- Node1 -->
<g id="Node000001" class="node">
<title>Node1</title>
<g id="a_Node000001"><a xlink:title="Definitions for cryptography functions.">
<polygon fill="#999999" stroke="#666666" points="196,-188 117.75,-188 117.75,-168 196,-168 196,-188"/>
<text text-anchor="middle" x="156.88" y="-174.5" font-family="Helvetica,sans-Serif" font-size="10.00">src/crypto.cpp</text>
</a>
</g>
</g>
<!-- Node2 -->
<g id="Node000002" class="node">
<title>Node2</title>
<g id="a_Node000002"><a xlink:title=" ">
<polygon fill="#e0e0e0" stroke="#999999" points="101.75,-132 22,-132 22,-112 101.75,-112 101.75,-132"/>
<text text-anchor="middle" x="61.88" y="-118.5" font-family="Helvetica,sans-Serif" font-size="10.00">openssl/pem.h</text>
</a>
</g>
</g>
<!-- Node1&#45;&gt;Node2 -->
<g id="edge1_Node000001_Node000002" class="edge">
<title>Node1&#45;&gt;Node2</title>
<g id="a_edge1_Node000001_Node000002"><a xlink:title=" ">
<path fill="none" stroke="#63b8ff" d="M140.33,-167.59C125.98,-159.44 104.95,-147.48 88.27,-138"/>
<polygon fill="#63b8ff" stroke="#63b8ff" points="90.29,-135.13 79.87,-133.23 86.83,-141.21 90.29,-135.13"/>
</a>
</g>
</g>
<!-- Node3 -->
<g id="Node000003" class="node">
<title>Node3</title>
<g id="a_Node000003"><a xlink:title=" ">
<polygon fill="#e0e0e0" stroke="#999999" points="194.12,-132 119.62,-132 119.62,-112 194.12,-112 194.12,-132"/>
<text text-anchor="middle" x="156.88" y="-118.5" font-family="Helvetica,sans-Serif" font-size="10.00">openssl/rsa.h</text>
</a>
</g>
</g>
<!-- Node1&#45;&gt;Node3 -->
<g id="edge2_Node000001_Node000003" class="edge">
<title>Node1&#45;&gt;Node3</title>
<g id="a_edge2_Node000001_Node000003"><a xlink:title=" ">
<path fill="none" stroke="#63b8ff" d="M156.88,-167.59C156.88,-161.01 156.88,-151.96 156.88,-143.73"/>
<polygon fill="#63b8ff" stroke="#63b8ff" points="160.38,-143.81 156.88,-133.81 153.38,-143.81 160.38,-143.81"/>
</a>
</g>
</g>
<!-- Node4 -->
<g id="Node000004" class="node">
<title>Node4</title>
<g id="a_Node000004"><a xlink:href="crypto_8h.html" target="_top" xlink:title="Declarations for cryptography functions.">
<polygon fill="white" stroke="#666666" points="263.5,-132 212.25,-132 212.25,-112 263.5,-112 263.5,-132"/>
<text text-anchor="middle" x="237.88" y="-118.5" font-family="Helvetica,sans-Serif" font-size="10.00">crypto.h</text>
</a>
</g>
</g>
<!-- Node1&#45;&gt;Node4 -->
<g id="edge3_Node000001_Node000004" class="edge">
<title>Node1&#45;&gt;Node4</title>
<g id="a_edge3_Node000001_Node000004"><a xlink:title=" ">
<path fill="none" stroke="#63b8ff" d="M170.98,-167.59C182.87,-159.67 200.14,-148.16 214.15,-138.82"/>
<polygon fill="#63b8ff" stroke="#63b8ff" points="216.02,-141.78 222.4,-133.32 212.13,-135.95 216.02,-141.78"/>
</a>
</g>
</g>
<!-- Node5 -->
<g id="Node000005" class="node">
<title>Node5</title>
<g id="a_Node000005"><a xlink:title=" ">
<polygon fill="#e0e0e0" stroke="#999999" points="37.75,-76 0,-76 0,-56 37.75,-56 37.75,-76"/>
<text text-anchor="middle" x="18.88" y="-62.5" font-family="Helvetica,sans-Serif" font-size="10.00">array</text>
</a>
</g>
</g>
<!-- Node4&#45;&gt;Node5 -->
<g id="edge4_Node000004_Node000005" class="edge">
<title>Node4&#45;&gt;Node5</title>
<g id="a_edge4_Node000004_Node000005"><a xlink:title=" ">
<path fill="none" stroke="#63b8ff" d="M211.9,-114.24C208.86,-113.48 205.8,-112.71 202.88,-112 137.12,-95.96 117.38,-94.97 49.02,-76.41"/>
<polygon fill="#63b8ff" stroke="#63b8ff" points="50.12,-73.09 39.55,-73.81 48.27,-79.84 50.12,-73.09"/>
</a>
</g>
</g>
<!-- Node6 -->
<g id="Node000006" class="node">
<title>Node6</title>
<g id="a_Node000006"><a xlink:title=" ">
<polygon fill="#e0e0e0" stroke="#999999" points="132.25,-76 55.5,-76 55.5,-56 132.25,-56 132.25,-76"/>
<text text-anchor="middle" x="93.88" y="-62.5" font-family="Helvetica,sans-Serif" font-size="10.00">openssl/evp.h</text>
</a>
</g>
</g>
<!-- Node4&#45;&gt;Node6 -->
<g id="edge5_Node000004_Node000006" class="edge">
<title>Node4&#45;&gt;Node6</title>
<g id="a_edge5_Node000004_Node000006"><a xlink:title=" ">
<path fill="none" stroke="#63b8ff" d="M212.79,-111.59C189.81,-102.97 155.52,-90.12 129.66,-80.42"/>
<polygon fill="#63b8ff" stroke="#63b8ff" points="131.16,-77.25 120.57,-77.01 128.71,-83.8 131.16,-77.25"/>
</a>
</g>
</g>
<!-- Node7 -->
<g id="Node000007" class="node">
<title>Node7</title>
<g id="a_Node000007"><a xlink:title=" ">
<polygon fill="#e0e0e0" stroke="#999999" points="229.75,-76 150,-76 150,-56 229.75,-56 229.75,-76"/>
<text text-anchor="middle" x="189.88" y="-62.5" font-family="Helvetica,sans-Serif" font-size="10.00">openssl/rand.h</text>
</a>
</g>
</g>
<!-- Node4&#45;&gt;Node7 -->
<g id="edge6_Node000004_Node000007" class="edge">
<title>Node4&#45;&gt;Node7</title>
<g id="a_edge6_Node000004_Node000007"><a xlink:title=" ">
<path fill="none" stroke="#63b8ff" d="M229.51,-111.59C222.98,-104.24 213.69,-93.8 205.76,-84.87"/>
<polygon fill="#63b8ff" stroke="#63b8ff" points="208.41,-82.58 199.15,-77.43 203.17,-87.23 208.41,-82.58"/>
</a>
</g>
</g>
<!-- Node8 -->
<g id="Node000008" class="node">
<title>Node8</title>
<g id="a_Node000008"><a xlink:title=" ">
<polygon fill="#e0e0e0" stroke="#999999" points="324.25,-76 247.5,-76 247.5,-56 324.25,-56 324.25,-76"/>
<text text-anchor="middle" x="285.88" y="-62.5" font-family="Helvetica,sans-Serif" font-size="10.00">openssl/sha.h</text>
</a>
</g>
</g>
<!-- Node4&#45;&gt;Node8 -->
<g id="edge7_Node000004_Node000008" class="edge">
<title>Node4&#45;&gt;Node8</title>
<g id="a_edge7_Node000004_Node000008"><a xlink:title=" ">
<path fill="none" stroke="#63b8ff" d="M246.24,-111.59C252.77,-104.24 262.06,-93.8 269.99,-84.87"/>
<polygon fill="#63b8ff" stroke="#63b8ff" points="272.58,-87.23 276.6,-77.43 267.34,-82.58 272.58,-87.23"/>
</a>
</g>
</g>
<!-- Node9 -->
<g id="Node000009" class="node">
<title>Node9</title>
<g id="a_Node000009"><a xlink:title=" ">
<polygon fill="#e0e0e0" stroke="#999999" points="423.88,-76 341.88,-76 341.88,-56 423.88,-56 423.88,-76"/>
<text text-anchor="middle" x="382.88" y="-62.5" font-family="Helvetica,sans-Serif" font-size="10.00">openssl/x509.h</text>
</a>
</g>
</g>
<!-- Node4&#45;&gt;Node9 -->
<g id="edge8_Node000004_Node000009" class="edge">
<title>Node4&#45;&gt;Node9</title>
<g id="a_edge8_Node000004_Node000009"><a xlink:title=" ">
<path fill="none" stroke="#63b8ff" d="M263.13,-111.59C286.28,-102.97 320.8,-90.12 346.84,-80.42"/>
<polygon fill="#63b8ff" stroke="#63b8ff" points="347.85,-83.78 356,-77.01 345.41,-77.22 347.85,-83.78"/>
</a>
</g>
</g>
<!-- Node10 -->
<g id="Node000010" class="node">
<title>Node10</title>
<g id="a_Node000010"><a xlink:href="utility_8h.html" target="_top" xlink:title="Declarations for utility functions.">
<polygon fill="white" stroke="#666666" points="488.25,-76 441.5,-76 441.5,-56 488.25,-56 488.25,-76"/>
<text text-anchor="middle" x="464.88" y="-62.5" font-family="Helvetica,sans-Serif" font-size="10.00">utility.h</text>
</a>
</g>
</g>
<!-- Node4&#45;&gt;Node10 -->
<g id="edge9_Node000004_Node000010" class="edge">
<title>Node4&#45;&gt;Node10</title>
<g id="a_edge9_Node000004_Node000010"><a xlink:title=" ">
<path fill="none" stroke="#63b8ff" d="M263.83,-115.42C299.32,-107.7 365.2,-93.07 430.29,-76.58"/>
<polygon fill="#63b8ff" stroke="#63b8ff" points="430.85,-80.05 439.68,-74.18 429.12,-73.26 430.85,-80.05"/>
</a>
</g>
</g>
<!-- Node11 -->
<g id="Node000011" class="node">
<title>Node11</title>
<g id="a_Node000011"><a xlink:title=" ">
<polygon fill="#e0e0e0" stroke="#999999" points="110.75,-20 55,-20 55,0 110.75,0 110.75,-20"/>
<text text-anchor="middle" x="82.88" y="-6.5" font-family="Helvetica,sans-Serif" font-size="10.00">algorithm</text>
</a>
</g>
</g>
<!-- Node10&#45;&gt;Node11 -->
<g id="edge10_Node000010_Node000011" class="edge">
<title>Node10&#45;&gt;Node11</title>
<g id="a_edge10_Node000010_Node000011"><a xlink:title=" ">
<path fill="none" stroke="#63b8ff" d="M441.21,-57.89C438.42,-57.19 435.59,-56.53 432.88,-56 298.97,-29.64 259.71,-43.83 122.04,-20.17"/>
<polygon fill="#63b8ff" stroke="#63b8ff" points="123.03,-16.79 112.57,-18.5 121.81,-23.68 123.03,-16.79"/>
</a>
</g>
</g>
<!-- Node12 -->
<g id="Node000012" class="node">
<title>Node12</title>
<g id="a_Node000012"><a xlink:title=" ">
<polygon fill="#e0e0e0" stroke="#999999" points="222.88,-20 128.88,-20 128.88,0 222.88,0 222.88,-20"/>
<text text-anchor="middle" x="175.88" y="-6.5" font-family="Helvetica,sans-Serif" font-size="10.00">condition_variable</text>
</a>
</g>
</g>
<!-- Node10&#45;&gt;Node12 -->
<g id="edge11_Node000010_Node000012" class="edge">
<title>Node10&#45;&gt;Node12</title>
<g id="a_edge11_Node000010_Node000012"><a xlink:title=" ">
<path fill="none" stroke="#63b8ff" d="M441.18,-58.05C438.39,-57.32 435.58,-56.61 432.88,-56 396.05,-47.62 298.17,-31.07 234.39,-20.54"/>
<polygon fill="#63b8ff" stroke="#63b8ff" points="235.22,-17.13 224.79,-18.96 234.08,-24.04 235.22,-17.13"/>
</a>
</g>
</g>
<!-- Node13 -->
<g id="Node000013" class="node">
<title>Node13</title>
<g id="a_Node000013"><a xlink:title=" ">
<polygon fill="#e0e0e0" stroke="#999999" points="292.5,-20 241.25,-20 241.25,0 292.5,0 292.5,-20"/>
<text text-anchor="middle" x="266.88" y="-6.5" font-family="Helvetica,sans-Serif" font-size="10.00">memory</text>
</a>
</g>
</g>
<!-- Node10&#45;&gt;Node13 -->
<g id="edge12_Node000010_Node000013" class="edge">
<title>Node10&#45;&gt;Node13</title>
<g id="a_edge12_Node000010_Node000013"><a xlink:title=" ">
<path fill="none" stroke="#63b8ff" d="M441.12,-58.29C438.34,-57.51 435.55,-56.74 432.88,-56 388.4,-43.72 337.13,-29.87 303.48,-20.82"/>
<polygon fill="#63b8ff" stroke="#63b8ff" points="304.8,-17.55 294.24,-18.33 302.98,-24.31 304.8,-17.55"/>
</a>
</g>
</g>
<!-- Node14 -->
<g id="Node000014" class="node">
<title>Node14</title>
<g id="a_Node000014"><a xlink:title=" ">
<polygon fill="#e0e0e0" stroke="#999999" points="353.38,-20 310.38,-20 310.38,0 353.38,0 353.38,-20"/>
<text text-anchor="middle" x="331.88" y="-6.5" font-family="Helvetica,sans-Serif" font-size="10.00">mutex</text>
</a>
</g>
</g>
<!-- Node10&#45;&gt;Node14 -->
<g id="edge13_Node000010_Node000014" class="edge">
<title>Node10&#45;&gt;Node14</title>
<g id="a_edge13_Node000010_Node000014"><a xlink:title=" ">
<path fill="none" stroke="#63b8ff" d="M441.71,-55.59C420.15,-46.84 387.84,-33.72 363.83,-23.97"/>
<polygon fill="#63b8ff" stroke="#63b8ff" points="365.44,-20.85 354.86,-20.33 362.81,-27.34 365.44,-20.85"/>
</a>
</g>
</g>
<!-- Node15 -->
<g id="Node000015" class="node">
<title>Node15</title>
<g id="a_Node000015"><a xlink:title=" ">
<polygon fill="#e0e0e0" stroke="#999999" points="420.75,-20 371,-20 371,0 420.75,0 420.75,-20"/>
<text text-anchor="middle" x="395.88" y="-6.5" font-family="Helvetica,sans-Serif" font-size="10.00">optional</text>
</a>
</g>
</g>
<!-- Node10&#45;&gt;Node15 -->
<g id="edge14_Node000010_Node000015" class="edge">
<title>Node10&#45;&gt;Node15</title>
<g id="a_edge14_Node000010_Node000015"><a xlink:title=" ">
<path fill="none" stroke="#63b8ff" d="M452.86,-55.59C442.86,-47.77 428.41,-36.46 416.57,-27.19"/>
<polygon fill="#63b8ff" stroke="#63b8ff" points="418.98,-24.64 408.95,-21.23 414.67,-30.15 418.98,-24.64"/>
</a>
</g>
</g>
<!-- Node16 -->
<g id="Node000016" class="node">
<title>Node16</title>
<g id="a_Node000016"><a xlink:title=" ">
<polygon fill="#e0e0e0" stroke="#999999" points="490.5,-20 439.25,-20 439.25,0 490.5,0 490.5,-20"/>
<text text-anchor="middle" x="464.88" y="-6.5" font-family="Helvetica,sans-Serif" font-size="10.00">ostream</text>
</a>
</g>
</g>
<!-- Node10&#45;&gt;Node16 -->
<g id="edge15_Node000010_Node000016" class="edge">
<title>Node10&#45;&gt;Node16</title>
<g id="a_edge15_Node000010_Node000016"><a xlink:title=" ">
<path fill="none" stroke="#63b8ff" d="M464.88,-55.59C464.88,-49.01 464.88,-39.96 464.88,-31.73"/>
<polygon fill="#63b8ff" stroke="#63b8ff" points="468.38,-31.81 464.88,-21.81 461.38,-31.81 468.38,-31.81"/>
</a>
</g>
</g>
<!-- Node17 -->
<g id="Node000017" class="node">
<title>Node17</title>
<g id="a_Node000017"><a xlink:title=" ">
<polygon fill="#e0e0e0" stroke="#999999" points="548.88,-20 508.88,-20 508.88,0 548.88,0 548.88,-20"/>
<text text-anchor="middle" x="528.88" y="-6.5" font-family="Helvetica,sans-Serif" font-size="10.00">string</text>
</a>
</g>
</g>
<!-- Node10&#45;&gt;Node17 -->
<g id="edge16_Node000010_Node000017" class="edge">
<title>Node10&#45;&gt;Node17</title>
<g id="a_edge16_Node000010_Node000017"><a xlink:title=" ">
<path fill="none" stroke="#63b8ff" d="M476.02,-55.59C485.2,-47.85 498.43,-36.69 509.36,-27.47"/>
<polygon fill="#63b8ff" stroke="#63b8ff" points="511.31,-30.4 516.7,-21.27 506.8,-25.05 511.31,-30.4"/>
</a>
</g>
</g>
<!-- Node18 -->
<g id="Node000018" class="node">
<title>Node18</title>
<g id="a_Node000018"><a xlink:title=" ">
<polygon fill="#e0e0e0" stroke="#999999" points="632.62,-20 567.12,-20 567.12,0 632.62,0 632.62,-20"/>
<text text-anchor="middle" x="599.88" y="-6.5" font-family="Helvetica,sans-Serif" font-size="10.00">string_view</text>
</a>
</g>
</g>
<!-- Node10&#45;&gt;Node18 -->
<g id="edge17_Node000010_Node000018" class="edge">
<title>Node10&#45;&gt;Node18</title>
<g id="a_edge17_Node000010_Node000018"><a xlink:title=" ">
<path fill="none" stroke="#63b8ff" d="M488.39,-55.59C509.75,-47.05 541.51,-34.35 565.67,-24.68"/>
<polygon fill="#63b8ff" stroke="#63b8ff" points="566.79,-28.01 574.77,-21.04 564.19,-21.51 566.79,-28.01"/>
</a>
</g>
</g>
<!-- Node19 -->
<g id="Node000019" class="node">
<title>Node19</title>
<g id="a_Node000019"><a xlink:title=" ">
<polygon fill="#e0e0e0" stroke="#999999" points="712.75,-20 651,-20 651,0 712.75,0 712.75,-20"/>
<text text-anchor="middle" x="681.88" y="-6.5" font-family="Helvetica,sans-Serif" font-size="10.00">type_traits</text>
</a>
</g>
</g>
<!-- Node10&#45;&gt;Node19 -->
<g id="edge18_Node000010_Node000019" class="edge">
<title>Node10&#45;&gt;Node19</title>
<g id="a_edge18_Node000010_Node000019"><a xlink:title=" ">
<path fill="none" stroke="#63b8ff" d="M488.51,-59.12C524.76,-50.1 594.62,-32.71 639.7,-21.5"/>
<polygon fill="#63b8ff" stroke="#63b8ff" points="640.26,-24.96 649.12,-19.15 638.57,-18.17 640.26,-24.96"/>
</a>
</g>
</g>
<!-- Node20 -->
<g id="Node000020" class="node">
<title>Node20</title>
<g id="a_Node000020"><a xlink:title=" ">
<polygon fill="#e0e0e0" stroke="#999999" points="776.5,-20 731.25,-20 731.25,0 776.5,0 776.5,-20"/>
<text text-anchor="middle" x="753.88" y="-6.5" font-family="Helvetica,sans-Serif" font-size="10.00">variant</text>
</a>
</g>
</g>
<!-- Node10&#45;&gt;Node20 -->
<g id="edge19_Node000010_Node000020" class="edge">
<title>Node10&#45;&gt;Node20</title>
<g id="a_edge19_Node000010_Node000020"><a xlink:title=" ">
<path fill="none" stroke="#63b8ff" d="M488.42,-61.69C532.07,-55.38 628.69,-40.61 719.79,-20.28"/>
<polygon fill="#63b8ff" stroke="#63b8ff" points="720.42,-23.72 729.4,-18.1 718.87,-16.9 720.42,-23.72"/>
</a>
</g>
</g>
<!-- Node21 -->
<g id="Node000021" class="node">
<title>Node21</title>
<g id="a_Node000021"><a xlink:title=" ">
<polygon fill="#e0e0e0" stroke="#999999" points="837.38,-20 794.38,-20 794.38,0 837.38,0 837.38,-20"/>
<text text-anchor="middle" x="815.88" y="-6.5" font-family="Helvetica,sans-Serif" font-size="10.00">vector</text>
</a>
</g>
</g>
<!-- Node10&#45;&gt;Node21 -->
<g id="edge20_Node000010_Node000021" class="edge">
<title>Node10&#45;&gt;Node21</title>
<g id="a_edge20_Node000010_Node000021"><a xlink:title=" ">
<path fill="none" stroke="#63b8ff" d="M488.45,-62.93C540.18,-58.14 667.63,-44.91 782.91,-20.38"/>
<polygon fill="#63b8ff" stroke="#63b8ff" points="783.51,-23.84 792.54,-18.3 782.03,-16.99 783.51,-23.84"/>
</a>
</g>
</g>
</g>
</svg>
