<?xml version="1.0" encoding="UTF-8" standalone="no"?>
<!DOCTYPE svg PUBLIC "-//W3C//DTD SVG 1.1//EN"
 "http://www.w3.org/Graphics/SVG/1.1/DTD/svg11.dtd">
<!-- Generated by graphviz version 12.2.1 (0)
 -->
<!-- Title: src/platform/linux/cuda.h Pages: 1 -->
<svg width="426pt" height="108pt"
 viewBox="0.00 0.00 426.00 108.00" xmlns="http://www.w3.org/2000/svg" xmlns:xlink="http://www.w3.org/1999/xlink">
<g id="graph0" class="graph" transform="scale(1 1) rotate(0) translate(4 104)">
<title>src/platform/linux/cuda.h</title>
<!-- Node1 -->
<g id="Node000001" class="node">
<title>Node1</title>
<g id="a_Node000001"><a xlink:title="Definitions for CUDA implementation.">
<polygon fill="#999999" stroke="#666666" points="254,-100 163,-100 163,-68 254,-68 254,-100"/>
<text text-anchor="start" x="171" y="-86.5" font-family="Helvetica,sans-Serif" font-size="10.00">src/platform/linux</text>
<text text-anchor="middle" x="208.5" y="-74.5" font-family="Helvetica,sans-Serif" font-size="10.00">/cuda.h</text>
</a>
</g>
</g>
<!-- Node2 -->
<g id="Node000002" class="node">
<title>Node2</title>
<g id="a_Node000002"><a xlink:href="cuda_8cpp.html" target="_top" xlink:title="Definitions for CUDA encoding.">
<polygon fill="white" stroke="#666666" points="91,-32 0,-32 0,0 91,0 91,-32"/>
<text text-anchor="start" x="8" y="-18.5" font-family="Helvetica,sans-Serif" font-size="10.00">src/platform/linux</text>
<text text-anchor="middle" x="45.5" y="-6.5" font-family="Helvetica,sans-Serif" font-size="10.00">/cuda.cpp</text>
</a>
</g>
</g>
<!-- Node1&#45;&gt;Node2 -->
<g id="edge1_Node000001_Node000002" class="edge">
<title>Node1&#45;&gt;Node2</title>
<g id="a_edge1_Node000001_Node000002"><a xlink:title=" ">
<path fill="none" stroke="#63b8ff" d="M159.82,-63.29C135.49,-53.44 106.47,-41.69 83.76,-32.49"/>
<polygon fill="#63b8ff" stroke="#63b8ff" points="158.3,-66.45 168.88,-66.96 160.93,-59.96 158.3,-66.45"/>
</a>
</g>
</g>
<!-- Node3 -->
<g id="Node000003" class="node">
<title>Node3</title>
<g id="a_Node000003"><a xlink:href="kmsgrab_8cpp.html" target="_top" xlink:title="Definitions for KMS screen capture.">
<polygon fill="white" stroke="#666666" points="200,-32 109,-32 109,0 200,0 200,-32"/>
<text text-anchor="start" x="117" y="-18.5" font-family="Helvetica,sans-Serif" font-size="10.00">src/platform/linux</text>
<text text-anchor="middle" x="154.5" y="-6.5" font-family="Helvetica,sans-Serif" font-size="10.00">/kmsgrab.cpp</text>
</a>
</g>
</g>
<!-- Node1&#45;&gt;Node3 -->
<g id="edge2_Node000001_Node000003" class="edge">
<title>Node1&#45;&gt;Node3</title>
<g id="a_edge2_Node000001_Node000003"><a xlink:title=" ">
<path fill="none" stroke="#63b8ff" d="M188.76,-58.87C181.47,-49.96 173.42,-40.12 166.96,-32.22"/>
<polygon fill="#63b8ff" stroke="#63b8ff" points="185.98,-61 195.02,-66.52 191.39,-56.57 185.98,-61"/>
</a>
</g>
</g>
<!-- Node4 -->
<g id="Node000004" class="node">
<title>Node4</title>
<g id="a_Node000004"><a xlink:href="wlgrab_8cpp.html" target="_top" xlink:title="Definitions for wlgrab capture.">
<polygon fill="white" stroke="#666666" points="309,-32 218,-32 218,0 309,0 309,-32"/>
<text text-anchor="start" x="226" y="-18.5" font-family="Helvetica,sans-Serif" font-size="10.00">src/platform/linux</text>
<text text-anchor="middle" x="263.5" y="-6.5" font-family="Helvetica,sans-Serif" font-size="10.00">/wlgrab.cpp</text>
</a>
</g>
</g>
<!-- Node1&#45;&gt;Node4 -->
<g id="edge3_Node000001_Node000004" class="edge">
<title>Node1&#45;&gt;Node4</title>
<g id="a_edge3_Node000001_Node000004"><a xlink:title=" ">
<path fill="none" stroke="#63b8ff" d="M228.61,-58.87C236.03,-49.96 244.23,-40.12 250.81,-32.22"/>
<polygon fill="#63b8ff" stroke="#63b8ff" points="225.94,-56.61 222.23,-66.53 231.32,-61.09 225.94,-56.61"/>
</a>
</g>
</g>
<!-- Node5 -->
<g id="Node000005" class="node">
<title>Node5</title>
<g id="a_Node000005"><a xlink:href="x11grab_8cpp.html" target="_top" xlink:title="Definitions for x11 capture.">
<polygon fill="white" stroke="#666666" points="418,-32 327,-32 327,0 418,0 418,-32"/>
<text text-anchor="start" x="335" y="-18.5" font-family="Helvetica,sans-Serif" font-size="10.00">src/platform/linux</text>
<text text-anchor="middle" x="372.5" y="-6.5" font-family="Helvetica,sans-Serif" font-size="10.00">/x11grab.cpp</text>
</a>
</g>
</g>
<!-- Node1&#45;&gt;Node5 -->
<g id="edge4_Node000001_Node000005" class="edge">
<title>Node1&#45;&gt;Node5</title>
<g id="a_edge4_Node000001_Node000005"><a xlink:title=" ">
<path fill="none" stroke="#63b8ff" d="M257.47,-63.29C281.96,-53.44 311.15,-41.69 334.01,-32.49"/>
<polygon fill="#63b8ff" stroke="#63b8ff" points="256.33,-59.98 248.35,-66.96 258.94,-66.47 256.33,-59.98"/>
</a>
</g>
</g>
</g>
</svg>
