<?xml version="1.0" encoding="UTF-8" standalone="no"?>
<!DOCTYPE svg PUBLIC "-//W3C//DTD SVG 1.1//EN"
 "http://www.w3.org/Graphics/SVG/1.1/DTD/svg11.dtd">
<!-- Generated by graphviz version 12.2.1 (0)
 -->
<!-- Title: src/display_device.h Pages: 1 -->
<svg width="1086pt" height="96pt"
 viewBox="0.00 0.00 1086.25 96.00" xmlns="http://www.w3.org/2000/svg" xmlns:xlink="http://www.w3.org/1999/xlink">
<g id="graph0" class="graph" transform="scale(1 1) rotate(0) translate(4 92)">
<title>src/display_device.h</title>
<!-- Node1 -->
<g id="Node000001" class="node">
<title>Node1</title>
<g id="a_Node000001"><a xlink:title="Declarations for display device handling.">
<polygon fill="#999999" stroke="#666666" points="595.62,-88 490.38,-88 490.38,-68 595.62,-68 595.62,-88"/>
<text text-anchor="middle" x="543" y="-74.5" font-family="Helvetica,sans-Serif" font-size="10.00">src/display_device.h</text>
</a>
</g>
</g>
<!-- Node2 -->
<g id="Node000002" class="node">
<title>Node2</title>
<g id="a_Node000002"><a xlink:href="confighttp_8cpp.html" target="_top" xlink:title="Definitions for the Web UI Config HTTP server.">
<polygon fill="white" stroke="#666666" points="94,-26 0,-26 0,-6 94,-6 94,-26"/>
<text text-anchor="middle" x="47" y="-12.5" font-family="Helvetica,sans-Serif" font-size="10.00">src/confighttp.cpp</text>
</a>
</g>
</g>
<!-- Node1&#45;&gt;Node2 -->
<g id="edge1_Node000001_Node000002" class="edge">
<title>Node1&#45;&gt;Node2</title>
<g id="a_edge1_Node000001_Node000002"><a xlink:title=" ">
<path fill="none" stroke="#63b8ff" d="M478.71,-73.65C392.6,-68.43 235.31,-56.33 103,-32 95.08,-30.54 86.64,-28.53 78.78,-26.46"/>
<polygon fill="#63b8ff" stroke="#63b8ff" points="478.42,-77.14 488.61,-74.24 478.84,-70.15 478.42,-77.14"/>
</a>
</g>
</g>
<!-- Node3 -->
<g id="Node000003" class="node">
<title>Node3</title>
<g id="a_Node000003"><a xlink:href="display__device_8cpp.html" target="_top" xlink:title="Definitions for display device handling.">
<polygon fill="white" stroke="#666666" points="227.88,-26 112.12,-26 112.12,-6 227.88,-6 227.88,-26"/>
<text text-anchor="middle" x="170" y="-12.5" font-family="Helvetica,sans-Serif" font-size="10.00">src/display_device.cpp</text>
</a>
</g>
</g>
<!-- Node1&#45;&gt;Node3 -->
<g id="edge2_Node000001_Node000003" class="edge">
<title>Node1&#45;&gt;Node3</title>
<g id="a_edge2_Node000001_Node000003"><a xlink:title=" ">
<path fill="none" stroke="#63b8ff" d="M478.83,-68.97C416.76,-60.88 320.13,-47.4 237,-32 228.21,-30.37 218.82,-28.41 209.93,-26.45"/>
<polygon fill="#63b8ff" stroke="#63b8ff" points="478.14,-72.41 488.51,-70.23 479.04,-65.47 478.14,-72.41"/>
</a>
</g>
</g>
<!-- Node4 -->
<g id="Node000004" class="node">
<title>Node4</title>
<g id="a_Node000004"><a xlink:href="main_8cpp.html" target="_top" xlink:title="Definitions for the main entry point for Sunshine.">
<polygon fill="white" stroke="#666666" points="318.12,-26 245.88,-26 245.88,-6 318.12,-6 318.12,-26"/>
<text text-anchor="middle" x="282" y="-12.5" font-family="Helvetica,sans-Serif" font-size="10.00">src/main.cpp</text>
</a>
</g>
</g>
<!-- Node1&#45;&gt;Node4 -->
<g id="edge3_Node000001_Node000004" class="edge">
<title>Node1&#45;&gt;Node4</title>
<g id="a_edge3_Node000001_Node000004"><a xlink:title=" ">
<path fill="none" stroke="#63b8ff" d="M479,-65.69C435.77,-57.56 377.58,-45.65 327,-32 320.96,-30.37 314.54,-28.38 308.49,-26.4"/>
<polygon fill="#63b8ff" stroke="#63b8ff" points="478.26,-69.11 488.73,-67.5 479.54,-62.23 478.26,-69.11"/>
</a>
</g>
</g>
<!-- Node5 -->
<g id="Node000005" class="node">
<title>Node5</title>
<g id="a_Node000005"><a xlink:href="nvhttp_8cpp.html" target="_top" xlink:title="Definitions for the nvhttp (GameStream) server.">
<polygon fill="white" stroke="#666666" points="414.12,-26 335.88,-26 335.88,-6 414.12,-6 414.12,-26"/>
<text text-anchor="middle" x="375" y="-12.5" font-family="Helvetica,sans-Serif" font-size="10.00">src/nvhttp.cpp</text>
</a>
</g>
</g>
<!-- Node1&#45;&gt;Node5 -->
<g id="edge4_Node000001_Node000005" class="edge">
<title>Node1&#45;&gt;Node5</title>
<g id="a_edge4_Node000001_Node000005"><a xlink:title=" ">
<path fill="none" stroke="#63b8ff" d="M506.14,-63.84C474.45,-52.52 429.53,-36.47 401.34,-26.41"/>
<polygon fill="#63b8ff" stroke="#63b8ff" points="504.73,-67.05 515.32,-67.12 507.08,-60.46 504.73,-67.05"/>
</a>
</g>
</g>
<!-- Node6 -->
<g id="Node000006" class="node">
<title>Node6</title>
<g id="a_Node000006"><a xlink:href="platform_2macos_2input_8cpp.html" target="_top" xlink:title="Definitions for macOS input handling.">
<polygon fill="white" stroke="#666666" points="532,-32 432,-32 432,0 532,0 532,-32"/>
<text text-anchor="start" x="440" y="-18.5" font-family="Helvetica,sans-Serif" font-size="10.00">src/platform/macos</text>
<text text-anchor="middle" x="482" y="-6.5" font-family="Helvetica,sans-Serif" font-size="10.00">/input.cpp</text>
</a>
</g>
</g>
<!-- Node1&#45;&gt;Node6 -->
<g id="edge5_Node000001_Node000006" class="edge">
<title>Node1&#45;&gt;Node6</title>
<g id="a_edge5_Node000001_Node000006"><a xlink:title=" ">
<path fill="none" stroke="#63b8ff" d="M525.36,-59.65C516.51,-50.95 505.9,-40.51 497.39,-32.14"/>
<polygon fill="#63b8ff" stroke="#63b8ff" points="522.81,-62.05 532.39,-66.56 527.71,-57.06 522.81,-62.05"/>
</a>
</g>
</g>
<!-- Node7 -->
<g id="Node000007" class="node">
<title>Node7</title>
<g id="a_Node000007"><a xlink:href="display__base_8cpp.html" target="_top" xlink:title="Definitions for the Windows display base code.">
<polygon fill="white" stroke="#666666" points="659.5,-32 550.5,-32 550.5,0 659.5,0 659.5,-32"/>
<text text-anchor="start" x="558.5" y="-18.5" font-family="Helvetica,sans-Serif" font-size="10.00">src/platform/windows</text>
<text text-anchor="middle" x="605" y="-6.5" font-family="Helvetica,sans-Serif" font-size="10.00">/display_base.cpp</text>
</a>
</g>
</g>
<!-- Node1&#45;&gt;Node7 -->
<g id="edge6_Node000001_Node000007" class="edge">
<title>Node1&#45;&gt;Node7</title>
<g id="a_edge6_Node000001_Node000007"><a xlink:title=" ">
<path fill="none" stroke="#63b8ff" d="M560.93,-59.65C569.92,-50.95 580.71,-40.51 589.35,-32.14"/>
<polygon fill="#63b8ff" stroke="#63b8ff" points="558.53,-57.1 553.78,-66.57 563.4,-62.13 558.53,-57.1"/>
</a>
</g>
</g>
<!-- Node8 -->
<g id="Node000008" class="node">
<title>Node8</title>
<g id="a_Node000008"><a xlink:href="process_8cpp.html" target="_top" xlink:title="Definitions for the startup and shutdown of the apps started by a streaming Session.">
<polygon fill="white" stroke="#666666" points="762.88,-26 677.12,-26 677.12,-6 762.88,-6 762.88,-26"/>
<text text-anchor="middle" x="720" y="-12.5" font-family="Helvetica,sans-Serif" font-size="10.00">src/process.cpp</text>
</a>
</g>
</g>
<!-- Node1&#45;&gt;Node8 -->
<g id="edge7_Node000001_Node000008" class="edge">
<title>Node1&#45;&gt;Node8</title>
<g id="a_edge7_Node000001_Node000008"><a xlink:title=" ">
<path fill="none" stroke="#63b8ff" d="M581.4,-63.98C614.8,-52.66 662.42,-36.52 692.25,-26.41"/>
<polygon fill="#63b8ff" stroke="#63b8ff" points="580.44,-60.61 572.09,-67.14 582.68,-67.24 580.44,-60.61"/>
</a>
</g>
</g>
<!-- Node9 -->
<g id="Node000009" class="node">
<title>Node9</title>
<g id="a_Node000009"><a xlink:href="stream_8cpp.html" target="_top" xlink:title="Definitions for the streaming protocols.">
<polygon fill="white" stroke="#666666" points="862.62,-26 781.38,-26 781.38,-6 862.62,-6 862.62,-26"/>
<text text-anchor="middle" x="822" y="-12.5" font-family="Helvetica,sans-Serif" font-size="10.00">src/stream.cpp</text>
</a>
</g>
</g>
<!-- Node1&#45;&gt;Node9 -->
<g id="edge8_Node000001_Node000009" class="edge">
<title>Node1&#45;&gt;Node9</title>
<g id="a_edge8_Node000001_Node000009"><a xlink:title=" ">
<path fill="none" stroke="#63b8ff" d="M607.41,-66.08C653.5,-57.84 716.89,-45.65 772,-32 778.6,-30.37 785.62,-28.4 792.25,-26.44"/>
<polygon fill="#63b8ff" stroke="#63b8ff" points="606.8,-62.63 597.57,-67.82 608.02,-69.52 606.8,-62.63"/>
</a>
</g>
</g>
<!-- Node10 -->
<g id="Node000010" class="node">
<title>Node10</title>
<g id="a_Node000010"><a xlink:href="system__tray_8cpp.html" target="_top" xlink:title="Definitions for the system tray icon and notification system.">
<polygon fill="white" stroke="#666666" points="985.25,-26 880.75,-26 880.75,-6 985.25,-6 985.25,-26"/>
<text text-anchor="middle" x="933" y="-12.5" font-family="Helvetica,sans-Serif" font-size="10.00">src/system_tray.cpp</text>
</a>
</g>
</g>
<!-- Node1&#45;&gt;Node10 -->
<g id="edge9_Node000001_Node000010" class="edge">
<title>Node1&#45;&gt;Node10</title>
<g id="a_edge9_Node000001_Node000010"><a xlink:title=" ">
<path fill="none" stroke="#63b8ff" d="M607.12,-70.25C673.66,-62.78 780.59,-49.44 872,-32 880.25,-30.43 889.05,-28.44 897.33,-26.44"/>
<polygon fill="#63b8ff" stroke="#63b8ff" points="607.04,-66.74 597.49,-71.32 607.82,-73.7 607.04,-66.74"/>
</a>
</g>
</g>
<!-- Node11 -->
<g id="Node000011" class="node">
<title>Node11</title>
<g id="a_Node000011"><a xlink:href="video_8cpp.html" target="_top" xlink:title="Definitions for video.">
<polygon fill="white" stroke="#666666" points="1078.25,-26 1003.75,-26 1003.75,-6 1078.25,-6 1078.25,-26"/>
<text text-anchor="middle" x="1041" y="-12.5" font-family="Helvetica,sans-Serif" font-size="10.00">src/video.cpp</text>
</a>
</g>
</g>
<!-- Node1&#45;&gt;Node11 -->
<g id="edge10_Node000001_Node000011" class="edge">
<title>Node1&#45;&gt;Node11</title>
<g id="a_edge10_Node000001_Node000011"><a xlink:title=" ">
<path fill="none" stroke="#63b8ff" d="M607.37,-74.81C695.46,-70.86 858.13,-60.14 994,-32 1000.88,-30.58 1008.17,-28.53 1014.91,-26.4"/>
<polygon fill="#63b8ff" stroke="#63b8ff" points="607.32,-71.31 597.48,-75.24 607.62,-78.31 607.32,-71.31"/>
</a>
</g>
</g>
</g>
</svg>
