<?xml version="1.0" encoding="UTF-8" standalone="no"?>
<!DOCTYPE svg PUBLIC "-//W3C//DTD SVG 1.1//EN"
 "http://www.w3.org/Graphics/SVG/1.1/DTD/svg11.dtd">
<!-- Generated by graphviz version 12.2.1 (0)
 -->
<!-- Title: src/platform/windows/nvprefs/driver_settings.h Pages: 1 -->
<svg width="352pt" height="152pt"
 viewBox="0.00 0.00 352.25 152.00" xmlns="http://www.w3.org/2000/svg" xmlns:xlink="http://www.w3.org/1999/xlink">

<svg id="main" version="1.1" xmlns="http://www.w3.org/2000/svg" xmlns:xlink="http://www.w3.org/1999/xlink" xml:space="preserve">

<style type="text/css"><![CDATA[
.node, .edge {opacity: 0.7;}
.node.selected, .edge.selected {opacity: 1;}
.edge:hover path { stroke: red; }
.edge:hover polygon { stroke: red; fill: red; }
]]></style>
<script type="application/ecmascript" xlink:href="svg.min.js"/>
<svg id="graph" class="graph">
<g id="graph0" class="graph" transform="scale(1 1) rotate(0) translate(4 148)">
<title>src/platform/windows/nvprefs/driver_settings.h</title>
<!-- Node1 -->
<g id="Node000001" class="node">
<title>Node1</title>
<g id="a_Node000001"><a xlink:title="Declarations for nvidia driver settings.">
<polygon fill="#999999" stroke="#666666" points="185.88,-144 59.62,-144 59.62,-112 185.88,-112 185.88,-144"/>
<text text-anchor="start" x="67.62" y="-130.5" font-family="Helvetica,sans-Serif" font-size="10.00">src/platform/windows</text>
<text text-anchor="middle" x="122.75" y="-118.5" font-family="Helvetica,sans-Serif" font-size="10.00">/nvprefs/driver_settings.h</text>
</a>
</g>
</g>
<!-- Node2 -->
<g id="Node000002" class="node">
<title>Node2</title>
<g id="a_Node000002"><a xlink:title=" ">
<polygon fill="#e0e0e0" stroke="#999999" points="47.5,-76 0,-76 0,-56 47.5,-56 47.5,-76"/>
<text text-anchor="middle" x="23.75" y="-62.5" font-family="Helvetica,sans-Serif" font-size="10.00">nvapi.h</text>
</a>
</g>
</g>
<!-- Node1&#45;&gt;Node2 -->
<g id="edge1_Node000001_Node000002" class="edge">
<title>Node1&#45;&gt;Node2</title>
<g id="a_edge1_Node000001_Node000002"><a xlink:title=" ">
<path fill="none" stroke="#63b8ff" d="M97.26,-111.55C82.36,-102.52 63.64,-91.17 48.82,-82.19"/>
<polygon fill="#63b8ff" stroke="#63b8ff" points="50.93,-79.38 40.57,-77.19 47.31,-85.37 50.93,-79.38"/>
</a>
</g>
</g>
<!-- Node3 -->
<g id="Node000003" class="node">
<title>Node3</title>
<g id="a_Node000003"><a xlink:title=" ">
<polygon fill="#e0e0e0" stroke="#999999" points="179.5,-76 66,-76 66,-56 179.5,-56 179.5,-76"/>
<text text-anchor="middle" x="122.75" y="-62.5" font-family="Helvetica,sans-Serif" font-size="10.00">NvApiDriverSettings.h</text>
</a>
</g>
</g>
<!-- Node1&#45;&gt;Node3 -->
<g id="edge2_Node000001_Node000003" class="edge">
<title>Node1&#45;&gt;Node3</title>
<g id="a_edge2_Node000001_Node000003"><a xlink:title=" ">
<path fill="none" stroke="#63b8ff" d="M122.75,-111.55C122.75,-104.34 122.75,-95.66 122.75,-87.88"/>
<polygon fill="#63b8ff" stroke="#63b8ff" points="126.25,-87.92 122.75,-77.92 119.25,-87.92 126.25,-87.92"/>
</a>
</g>
</g>
<!-- Node4 -->
<g id="Node000004" class="node">
<title>Node4</title>
<g id="a_Node000004"><a xlink:href="undo__data_8h.html" target="_top" xlink:title="Declarations for undoing changes to nvidia preferences.">
<polygon fill="white" stroke="#666666" points="266.38,-76 197.12,-76 197.12,-56 266.38,-56 266.38,-76"/>
<text text-anchor="middle" x="231.75" y="-62.5" font-family="Helvetica,sans-Serif" font-size="10.00">undo_data.h</text>
</a>
</g>
</g>
<!-- Node1&#45;&gt;Node4 -->
<g id="edge3_Node000001_Node000004" class="edge">
<title>Node1&#45;&gt;Node4</title>
<g id="a_edge3_Node000001_Node000004"><a xlink:title=" ">
<path fill="none" stroke="#63b8ff" d="M150.82,-111.55C167.38,-102.43 188.23,-90.96 204.62,-81.93"/>
<polygon fill="#63b8ff" stroke="#63b8ff" points="206.26,-85.03 213.33,-77.14 202.88,-78.89 206.26,-85.03"/>
</a>
</g>
</g>
<!-- Node5 -->
<g id="Node000005" class="node">
<title>Node5</title>
<g id="a_Node000005"><a xlink:title=" ">
<polygon fill="#e0e0e0" stroke="#999999" points="156.38,-20 111.12,-20 111.12,0 156.38,0 156.38,-20"/>
<text text-anchor="middle" x="133.75" y="-6.5" font-family="Helvetica,sans-Serif" font-size="10.00">cstdint</text>
</a>
</g>
</g>
<!-- Node4&#45;&gt;Node5 -->
<g id="edge4_Node000004_Node000005" class="edge">
<title>Node4&#45;&gt;Node5</title>
<g id="a_edge4_Node000004_Node000005"><a xlink:title=" ">
<path fill="none" stroke="#63b8ff" d="M214.68,-55.59C199.87,-47.44 178.18,-35.48 160.98,-26"/>
<polygon fill="#63b8ff" stroke="#63b8ff" points="162.73,-22.97 152.28,-21.21 159.35,-29.1 162.73,-22.97"/>
</a>
</g>
</g>
<!-- Node6 -->
<g id="Node000006" class="node">
<title>Node6</title>
<g id="a_Node000006"><a xlink:title=" ">
<polygon fill="#e0e0e0" stroke="#999999" points="224.62,-20 174.88,-20 174.88,0 224.62,0 224.62,-20"/>
<text text-anchor="middle" x="199.75" y="-6.5" font-family="Helvetica,sans-Serif" font-size="10.00">optional</text>
</a>
</g>
</g>
<!-- Node4&#45;&gt;Node6 -->
<g id="edge5_Node000004_Node000006" class="edge">
<title>Node4&#45;&gt;Node6</title>
<g id="a_edge5_Node000004_Node000006"><a xlink:title=" ">
<path fill="none" stroke="#63b8ff" d="M226.18,-55.59C222,-48.55 216.15,-38.67 211.01,-30"/>
<polygon fill="#63b8ff" stroke="#63b8ff" points="214.14,-28.42 206.03,-21.6 208.12,-31.99 214.14,-28.42"/>
</a>
</g>
</g>
<!-- Node7 -->
<g id="Node000007" class="node">
<title>Node7</title>
<g id="a_Node000007"><a xlink:title=" ">
<polygon fill="#e0e0e0" stroke="#999999" points="282.75,-20 242.75,-20 242.75,0 282.75,0 282.75,-20"/>
<text text-anchor="middle" x="262.75" y="-6.5" font-family="Helvetica,sans-Serif" font-size="10.00">string</text>
</a>
</g>
</g>
<!-- Node4&#45;&gt;Node7 -->
<g id="edge6_Node000004_Node000007" class="edge">
<title>Node4&#45;&gt;Node7</title>
<g id="a_edge6_Node000004_Node000007"><a xlink:title=" ">
<path fill="none" stroke="#63b8ff" d="M237.15,-55.59C241.19,-48.55 246.87,-38.67 251.84,-30"/>
<polygon fill="#63b8ff" stroke="#63b8ff" points="254.72,-32.03 256.66,-21.61 248.64,-28.54 254.72,-32.03"/>
</a>
</g>
</g>
<!-- Node8 -->
<g id="Node000008" class="node">
<title>Node8</title>
<g id="a_Node000008"><a xlink:title=" ">
<polygon fill="#e0e0e0" stroke="#999999" points="344.25,-20 301.25,-20 301.25,0 344.25,0 344.25,-20"/>
<text text-anchor="middle" x="322.75" y="-6.5" font-family="Helvetica,sans-Serif" font-size="10.00">vector</text>
</a>
</g>
</g>
<!-- Node4&#45;&gt;Node8 -->
<g id="edge7_Node000004_Node000008" class="edge">
<title>Node4&#45;&gt;Node8</title>
<g id="a_edge7_Node000004_Node000008"><a xlink:title=" ">
<path fill="none" stroke="#63b8ff" d="M247.6,-55.59C261.22,-47.51 281.11,-35.71 297.01,-26.27"/>
<polygon fill="#63b8ff" stroke="#63b8ff" points="298.66,-29.37 305.47,-21.25 295.09,-23.35 298.66,-29.37"/>
</a>
</g>
</g>
</g>
</svg>
</svg>

<style type='text/css'>
<![CDATA[
[data-mouse-over-selected='false'] { opacity: 0.7; }
[data-mouse-over-selected='true']  { opacity: 1.0; }
]]>
</style>
<script type="application/ecmascript"><![CDATA[
document.addEventListener('DOMContentLoaded', (event) => {
  highlightEdges();
  highlightAdjacentNodes();
});
]]></script>
</svg>
