<?xml version="1.0" encoding="UTF-8" standalone="no"?>
<!DOCTYPE svg PUBLIC "-//W3C//DTD SVG 1.1//EN"
 "http://www.w3.org/Graphics/SVG/1.1/DTD/svg11.dtd">
<!-- Generated by graphviz version 12.2.1 (0)
 -->
<!-- Title: src/platform/windows/nvprefs/driver_settings.h Pages: 1 -->
<svg width="462pt" height="120pt"
 viewBox="0.00 0.00 462.38 120.00" xmlns="http://www.w3.org/2000/svg" xmlns:xlink="http://www.w3.org/1999/xlink">
<g id="graph0" class="graph" transform="scale(1 1) rotate(0) translate(4 116)">
<title>src/platform/windows/nvprefs/driver_settings.h</title>
<!-- Node1 -->
<g id="Node000001" class="node">
<title>Node1</title>
<g id="a_Node000001"><a xlink:title="Declarations for nvidia driver settings.">
<polygon fill="#999999" stroke="#666666" points="284.5,-112 158.25,-112 158.25,-80 284.5,-80 284.5,-112"/>
<text text-anchor="start" x="166.25" y="-98.5" font-family="Helvetica,sans-Serif" font-size="10.00">src/platform/windows</text>
<text text-anchor="middle" x="221.38" y="-86.5" font-family="Helvetica,sans-Serif" font-size="10.00">/nvprefs/driver_settings.h</text>
</a>
</g>
</g>
<!-- Node2 -->
<g id="Node000002" class="node">
<title>Node2</title>
<g id="a_Node000002"><a xlink:href="driver__settings_8cpp.html" target="_top" xlink:title="Definitions for nvidia driver settings.">
<polygon fill="white" stroke="#666666" points="136.75,-38 0,-38 0,-6 136.75,-6 136.75,-38"/>
<text text-anchor="start" x="8" y="-24.5" font-family="Helvetica,sans-Serif" font-size="10.00">src/platform/windows</text>
<text text-anchor="middle" x="68.38" y="-12.5" font-family="Helvetica,sans-Serif" font-size="10.00">/nvprefs/driver_settings.cpp</text>
</a>
</g>
</g>
<!-- Node1&#45;&gt;Node2 -->
<g id="edge1_Node000001_Node000002" class="edge">
<title>Node1&#45;&gt;Node2</title>
<g id="a_edge1_Node000001_Node000002"><a xlink:title=" ">
<path fill="none" stroke="#63b8ff" d="M178.44,-74.8C153.95,-63.27 123.72,-49.04 101.14,-38.42"/>
<polygon fill="#63b8ff" stroke="#63b8ff" points="176.64,-77.82 187.18,-78.91 179.63,-71.48 176.64,-77.82"/>
</a>
</g>
</g>
<!-- Node3 -->
<g id="Node000003" class="node">
<title>Node3</title>
<g id="a_Node000003"><a xlink:href="nvapi__opensource__wrapper_8cpp.html" target="_top" xlink:title="Definitions for the NVAPI wrapper.">
<polygon fill="white" stroke="#666666" points="287.88,-44 154.88,-44 154.88,0 287.88,0 287.88,-44"/>
<text text-anchor="start" x="162.88" y="-30.5" font-family="Helvetica,sans-Serif" font-size="10.00">src/platform/windows</text>
<text text-anchor="start" x="162.88" y="-18.5" font-family="Helvetica,sans-Serif" font-size="10.00">/nvprefs/nvapi_opensource</text>
<text text-anchor="middle" x="221.38" y="-6.5" font-family="Helvetica,sans-Serif" font-size="10.00">_wrapper.cpp</text>
</a>
</g>
</g>
<!-- Node1&#45;&gt;Node3 -->
<g id="edge2_Node000001_Node000003" class="edge">
<title>Node1&#45;&gt;Node3</title>
<g id="a_edge2_Node000001_Node000003"><a xlink:title=" ">
<path fill="none" stroke="#63b8ff" d="M221.38,-68.38C221.38,-60.43 221.38,-51.82 221.38,-44.26"/>
<polygon fill="#63b8ff" stroke="#63b8ff" points="217.88,-68.22 221.38,-78.22 224.88,-68.22 217.88,-68.22"/>
</a>
</g>
</g>
<!-- Node4 -->
<g id="Node000004" class="node">
<title>Node4</title>
<g id="a_Node000004"><a xlink:href="nvprefs__interface_8cpp.html" target="_top" xlink:title="Definitions for nvidia preferences interface.">
<polygon fill="white" stroke="#666666" points="454.38,-38 306.38,-38 306.38,-6 454.38,-6 454.38,-38"/>
<text text-anchor="start" x="314.38" y="-24.5" font-family="Helvetica,sans-Serif" font-size="10.00">src/platform/windows</text>
<text text-anchor="middle" x="380.38" y="-12.5" font-family="Helvetica,sans-Serif" font-size="10.00">/nvprefs/nvprefs_interface.cpp</text>
</a>
</g>
</g>
<!-- Node1&#45;&gt;Node4 -->
<g id="edge3_Node000001_Node000004" class="edge">
<title>Node1&#45;&gt;Node4</title>
<g id="a_edge3_Node000001_Node000004"><a xlink:title=" ">
<path fill="none" stroke="#63b8ff" d="M265.65,-74.95C291.17,-63.4 322.76,-49.09 346.32,-38.42"/>
<polygon fill="#63b8ff" stroke="#63b8ff" points="264.53,-71.62 256.86,-78.93 267.42,-77.99 264.53,-71.62"/>
</a>
</g>
</g>
</g>
</svg>
