<?xml version="1.0" encoding="UTF-8" standalone="no"?>
<!DOCTYPE svg PUBLIC "-//W3C//DTD SVG 1.1//EN"
 "http://www.w3.org/Graphics/SVG/1.1/DTD/svg11.dtd">
<!-- Generated by graphviz version 12.2.1 (0)
 -->
<!-- Title: src/entry_handler.h Pages: 1 -->
<!--zoomable 164 -->

<svg id="main" version="1.1" xmlns="http://www.w3.org/2000/svg" xmlns:xlink="http://www.w3.org/1999/xlink" xml:space="preserve" onload="init(evt)">

<style type="text/css"><![CDATA[
.node, .edge {opacity: 0.7;}
.node.selected, .edge.selected {opacity: 1;}
.edge:hover path { stroke: red; }
.edge:hover polygon { stroke: red; fill: red; }
]]></style>

<defs>
  <circle id="rim" cx="0" cy="0" r="7"/>
  <circle id="rim2" cx="0" cy="0" r="3.5"/>
  <g id="zoomPlus">
    <use xlink:href="#rim" fill="#404040"><set attributeName="fill" to="#808080" begin="zoomplus.mouseover" end="zoomplus.mouseout"/></use>
    <path d="M-4,0h8M0,-4v8" fill="none" stroke="white" stroke-width="1.5" pointer-events="none"/>
  </g>
  <g id="zoomMin">
    <use xlink:href="#rim" fill="#404040"><set attributeName="fill" to="#808080" begin="zoomminus.mouseover" end="zoomminus.mouseout"/></use>
    <path d="M-4,0h8" fill="none" stroke="white" stroke-width="1.5" pointer-events="none"/>
  </g>
  <g id="arrowUp" transform="translate(30 24)">
    <use xlink:href="#rim"/>
    <path pointer-events="none" fill="none" stroke="white" stroke-width="1.5" d="M0,-3.0v7 M-2.5,-0.5L0,-3.0L2.5,-0.5"/>
  </g>
  <g id="arrowRight" transform="rotate(90) translate(36 -43)">
    <use xlink:href="#rim"/>
    <path pointer-events="none" fill="none" stroke="white" stroke-width="1.5" d="M0,-3.0v7 M-2.5,-0.5L0,-3.0L2.5,-0.5"/>
  </g>
  <g id="arrowDown" transform="rotate(180) translate(-30 -48)">
    <use xlink:href="#rim"/>
    <path pointer-events="none" fill="none" stroke="white" stroke-width="1.5" d="M0,-3.0v7 M-2.5,-0.5L0,-3.0L2.5,-0.5"/>
  </g>
  <g id="arrowLeft" transform="rotate(270) translate(-36 17)">
    <use xlink:href="#rim"/>
    <path pointer-events="none" fill="none" stroke="white" stroke-width="1.5" d="M0,-3.0v7 M-2.5,-0.5L0,-3.0L2.5,-0.5"/>
  </g>
  <g id="resetDef">
    <use xlink:href="#rim2" fill="#404040"><set attributeName="fill" to="#808080" begin="reset.mouseover" end="reset.mouseout"/></use>
  </g>
</defs>
<script type="application/ecmascript">
var viewWidth = 1429;
var viewHeight = 164;
var sectionId = 'dynsection-1';
</script>
<script type="application/ecmascript" xlink:href="svg.min.js"/>
<svg id="graph" class="graph">
<g id="viewport">
<title>src/entry_handler.h</title>
<!-- Node1 -->
<g id="Node000001" class="node">
<title>Node1</title>
<g id="a_Node000001"><a xlink:title="Declarations for entry handling functions.">
<polygon fill="#999999" stroke="#666666" points="727.5,-156 628.25,-156 628.25,-136 727.5,-136 727.5,-156"/>
<text text-anchor="middle" x="677.88" y="-142.5" font-family="Helvetica,sans-Serif" font-size="10.00">src/entry_handler.h</text>
</a>
</g>
</g>
<!-- Node2 -->
<g id="Node000002" class="node">
<title>Node2</title>
<g id="a_Node000002"><a xlink:href="config_8cpp.html" target="_top" xlink:title="Definitions for the configuration of Sunshine.">
<polygon fill="white" stroke="#666666" points="515.62,-94 438.12,-94 438.12,-74 515.62,-74 515.62,-94"/>
<text text-anchor="middle" x="476.88" y="-80.5" font-family="Helvetica,sans-Serif" font-size="10.00">src/config.cpp</text>
</a>
</g>
</g>
<!-- Node1&#45;&gt;Node2 -->
<g id="edge1_Node000001_Node000002" class="edge">
<title>Node1&#45;&gt;Node2</title>
<g id="a_edge1_Node000001_Node000002"><a xlink:title=" ">
<path fill="none" stroke="#63b8ff" d="M635.75,-132.43C597.75,-121.08 542.7,-104.65 508.39,-94.41"/>
<polygon fill="#63b8ff" stroke="#63b8ff" points="634.44,-135.69 645.02,-135.19 636.44,-128.98 634.44,-135.69"/>
</a>
</g>
</g>
<!-- Node3 -->
<g id="Node000003" class="node">
<title>Node3</title>
<g id="a_Node000003"><a xlink:href="entry__handler_8cpp.html" target="_top" xlink:title="Definitions for entry handling functions.">
<polygon fill="white" stroke="#666666" points="109.75,-26 0,-26 0,-6 109.75,-6 109.75,-26"/>
<text text-anchor="middle" x="54.88" y="-12.5" font-family="Helvetica,sans-Serif" font-size="10.00">src/entry_handler.cpp</text>
</a>
</g>
</g>
<!-- Node1&#45;&gt;Node3 -->
<g id="edge2_Node000001_Node000003" class="edge">
<title>Node1&#45;&gt;Node3</title>
<g id="a_edge2_Node000001_Node000003"><a xlink:title=" ">
<path fill="none" stroke="#63b8ff" d="M630.29,-132.14C607.36,-124.73 580.09,-114.06 557.88,-100 540.61,-89.07 543.45,-76.5 524.88,-68 442.52,-30.31 208.3,-46.37 118.88,-32 109.86,-30.55 100.23,-28.54 91.25,-26.47"/>
<polygon fill="#63b8ff" stroke="#63b8ff" points="629.12,-135.44 639.71,-135.07 631.2,-128.76 629.12,-135.44"/>
</a>
</g>
</g>
<!-- Node4 -->
<g id="Node000004" class="node">
<title>Node4</title>
<g id="a_Node000004"><a xlink:href="globals_8h.html" target="_top" xlink:title="Declarations for globally accessible variables and functions.">
<polygon fill="white" stroke="#666666" points="681.62,-94 610.12,-94 610.12,-74 681.62,-74 681.62,-94"/>
<text text-anchor="middle" x="645.88" y="-80.5" font-family="Helvetica,sans-Serif" font-size="10.00">src/globals.h</text>
</a>
</g>
</g>
<!-- Node1&#45;&gt;Node4 -->
<g id="edge3_Node000001_Node000004" class="edge">
<title>Node1&#45;&gt;Node4</title>
<g id="a_edge3_Node000001_Node000004"><a xlink:title=" ">
<path fill="none" stroke="#63b8ff" d="M667.53,-125.6C661.89,-115.03 655.18,-102.44 650.74,-94.11"/>
<polygon fill="#63b8ff" stroke="#63b8ff" points="664.37,-127.11 672.16,-134.29 670.55,-123.82 664.37,-127.11"/>
</a>
</g>
</g>
<!-- Node9 -->
<g id="Node000009" class="node">
<title>Node9</title>
<g id="a_Node000009"><a xlink:href="main_8cpp.html" target="_top" xlink:title="Definitions for the main entry point for Sunshine.">
<polygon fill="white" stroke="#666666" points="200,-26 127.75,-26 127.75,-6 200,-6 200,-26"/>
<text text-anchor="middle" x="163.88" y="-12.5" font-family="Helvetica,sans-Serif" font-size="10.00">src/main.cpp</text>
</a>
</g>
</g>
<!-- Node1&#45;&gt;Node9 -->
<g id="edge18_Node000001_Node000009" class="edge">
<title>Node1&#45;&gt;Node9</title>
<g id="a_edge18_Node000001_Node000009"><a xlink:title=" ">
<path fill="none" stroke="#63b8ff" d="M650.75,-130.12C635.79,-121.68 617.03,-110.69 600.88,-100 581.01,-86.86 580.07,-76.64 557.88,-68 412.57,-11.43 361.31,-64.85 208.88,-32 202.27,-30.58 195.28,-28.53 188.83,-26.4"/>
<polygon fill="#63b8ff" stroke="#63b8ff" points="648.66,-132.96 659.09,-134.79 652.07,-126.85 648.66,-132.96"/>
</a>
</g>
</g>
<!-- Node13 -->
<g id="Node000013" class="node">
<title>Node13</title>
<g id="a_Node000013"><a xlink:href="windows_2misc_8cpp.html" target="_top" xlink:title="Miscellaneous definitions for Windows.">
<polygon fill="white" stroke="#666666" points="1421.38,-32 1312.38,-32 1312.38,0 1421.38,0 1421.38,-32"/>
<text text-anchor="start" x="1320.38" y="-18.5" font-family="Helvetica,sans-Serif" font-size="10.00">src/platform/windows</text>
<text text-anchor="middle" x="1366.88" y="-6.5" font-family="Helvetica,sans-Serif" font-size="10.00">/misc.cpp</text>
</a>
</g>
</g>
<!-- Node1&#45;&gt;Node13 -->
<g id="edge21_Node000001_Node000013" class="edge">
<title>Node1&#45;&gt;Node13</title>
<g id="a_edge21_Node000001_Node000013"><a xlink:title=" ">
<path fill="none" stroke="#63b8ff" d="M685.26,-125.15C693.24,-106.83 707.83,-80.61 729.88,-68 840.8,-4.53 1177.47,-50.87 1303.88,-32 1306.54,-31.6 1309.27,-31.15 1312.01,-30.65"/>
<polygon fill="#63b8ff" stroke="#63b8ff" points="682.12,-123.6 681.62,-134.18 688.61,-126.22 682.12,-123.6"/>
</a>
</g>
</g>
<!-- Node18 -->
<g id="Node000018" class="node">
<title>Node18</title>
<g id="a_Node000018"><a xlink:href="linux_2misc_8cpp.html" target="_top" xlink:title="Miscellaneous definitions for Linux.">
<polygon fill="white" stroke="#666666" points="829.38,-100 738.38,-100 738.38,-68 829.38,-68 829.38,-100"/>
<text text-anchor="start" x="746.38" y="-86.5" font-family="Helvetica,sans-Serif" font-size="10.00">src/platform/linux</text>
<text text-anchor="middle" x="783.88" y="-74.5" font-family="Helvetica,sans-Serif" font-size="10.00">/misc.cpp</text>
</a>
</g>
</g>
<!-- Node1&#45;&gt;Node18 -->
<g id="edge19_Node000001_Node000018" class="edge">
<title>Node1&#45;&gt;Node18</title>
<g id="a_edge19_Node000001_Node000018"><a xlink:title=" ">
<path fill="none" stroke="#63b8ff" d="M704.23,-130.08C720.22,-121.03 740.58,-109.51 756.72,-100.37"/>
<polygon fill="#63b8ff" stroke="#63b8ff" points="702.73,-126.91 695.75,-134.88 706.18,-133 702.73,-126.91"/>
</a>
</g>
</g>
<!-- Node19 -->
<g id="Node000019" class="node">
<title>Node19</title>
<g id="a_Node000019"><a xlink:href="misc_8mm.html" target="_top" xlink:title="Miscellaneous definitions for macOS platform.">
<polygon fill="white" stroke="#666666" points="947.88,-100 847.88,-100 847.88,-68 947.88,-68 947.88,-100"/>
<text text-anchor="start" x="855.88" y="-86.5" font-family="Helvetica,sans-Serif" font-size="10.00">src/platform/macos</text>
<text text-anchor="middle" x="897.88" y="-74.5" font-family="Helvetica,sans-Serif" font-size="10.00">/misc.mm</text>
</a>
</g>
</g>
<!-- Node1&#45;&gt;Node19 -->
<g id="edge20_Node000001_Node000019" class="edge">
<title>Node1&#45;&gt;Node19</title>
<g id="a_edge20_Node000001_Node000019"><a xlink:title=" ">
<path fill="none" stroke="#63b8ff" d="M722.98,-132.7C759.14,-122.84 809.88,-109 847.4,-98.77"/>
<polygon fill="#63b8ff" stroke="#63b8ff" points="722.44,-129.22 713.71,-135.23 724.28,-135.97 722.44,-129.22"/>
</a>
</g>
</g>
<!-- Node20 -->
<g id="Node000020" class="node">
<title>Node20</title>
<g id="a_Node000020"><a xlink:href="system__tray_8cpp.html" target="_top" xlink:title="Definitions for the system tray icon and notification system.">
<polygon fill="white" stroke="#666666" points="1070.12,-94 965.62,-94 965.62,-74 1070.12,-74 1070.12,-94"/>
<text text-anchor="middle" x="1017.88" y="-80.5" font-family="Helvetica,sans-Serif" font-size="10.00">src/system_tray.cpp</text>
</a>
</g>
</g>
<!-- Node1&#45;&gt;Node20 -->
<g id="edge22_Node000001_Node000020" class="edge">
<title>Node1&#45;&gt;Node20</title>
<g id="a_edge22_Node000001_Node000020"><a xlink:title=" ">
<path fill="none" stroke="#63b8ff" d="M739.27,-136.56C795.98,-128.42 882.43,-115.13 956.88,-100 964.89,-98.37 973.45,-96.41 981.53,-94.45"/>
<polygon fill="#63b8ff" stroke="#63b8ff" points="738.9,-133.08 729.49,-137.95 739.88,-140.01 738.9,-133.08"/>
</a>
</g>
</g>
<!-- Node4&#45;&gt;Node3 -->
<g id="edge6_Node000004_Node000003" class="edge">
<title>Node4&#45;&gt;Node3</title>
<g id="a_edge6_Node000004_Node000003"><a xlink:title=" ">
<path fill="none" stroke="#63b8ff" d="M598.78,-74.19C585.58,-71.94 571.19,-69.68 557.88,-68 363.64,-43.53 312.26,-62.42 118.88,-32 109.74,-30.56 99.98,-28.53 90.91,-26.43"/>
<polygon fill="#63b8ff" stroke="#63b8ff" points="598.07,-77.62 608.52,-75.9 599.28,-70.73 598.07,-77.62"/>
</a>
</g>
</g>
<!-- Node5 -->
<g id="Node000005" class="node">
<title>Node5</title>
<g id="a_Node000005"><a xlink:href="audio_8cpp.html" target="_top" xlink:title="Definitions for audio capture and encoding.">
<polygon fill="white" stroke="#666666" points="475.12,-26 400.62,-26 400.62,-6 475.12,-6 475.12,-26"/>
<text text-anchor="middle" x="437.88" y="-12.5" font-family="Helvetica,sans-Serif" font-size="10.00">src/audio.cpp</text>
</a>
</g>
</g>
<!-- Node4&#45;&gt;Node5 -->
<g id="edge4_Node000004_Node000005" class="edge">
<title>Node4&#45;&gt;Node5</title>
<g id="a_edge4_Node000004_Node000005"><a xlink:title=" ">
<path fill="none" stroke="#63b8ff" d="M604.43,-70.08C571.67,-59.84 524.82,-45.12 483.88,-32 478.28,-30.21 472.3,-28.27 466.57,-26.41"/>
<polygon fill="#63b8ff" stroke="#63b8ff" points="603.36,-73.41 613.95,-73.05 605.44,-66.73 603.36,-73.41"/>
</a>
</g>
</g>
<!-- Node6 -->
<g id="Node000006" class="node">
<title>Node6</title>
<g id="a_Node000006"><a xlink:href="confighttp_8cpp.html" target="_top" xlink:title="Definitions for the Web UI Config HTTP server.">
<polygon fill="white" stroke="#666666" points="586.88,-26 492.88,-26 492.88,-6 586.88,-6 586.88,-26"/>
<text text-anchor="middle" x="539.88" y="-12.5" font-family="Helvetica,sans-Serif" font-size="10.00">src/confighttp.cpp</text>
</a>
</g>
</g>
<!-- Node4&#45;&gt;Node6 -->
<g id="edge5_Node000004_Node000006" class="edge">
<title>Node4&#45;&gt;Node6</title>
<g id="a_edge5_Node000004_Node000006"><a xlink:title=" ">
<path fill="none" stroke="#63b8ff" d="M621.09,-67.57C600.63,-54.83 572.26,-37.16 555.03,-26.44"/>
<polygon fill="#63b8ff" stroke="#63b8ff" points="619.06,-70.43 629.4,-72.74 622.76,-64.49 619.06,-70.43"/>
</a>
</g>
</g>
<!-- Node7 -->
<g id="Node000007" class="node">
<title>Node7</title>
<g id="a_Node000007"><a xlink:href="globals_8cpp.html" target="_top" xlink:title="Definitions for globally accessible variables and functions.">
<polygon fill="white" stroke="#666666" points="686.88,-26 604.88,-26 604.88,-6 686.88,-6 686.88,-26"/>
<text text-anchor="middle" x="645.88" y="-12.5" font-family="Helvetica,sans-Serif" font-size="10.00">src/globals.cpp</text>
</a>
</g>
</g>
<!-- Node4&#45;&gt;Node7 -->
<g id="edge7_Node000004_Node000007" class="edge">
<title>Node4&#45;&gt;Node7</title>
<g id="a_edge7_Node000004_Node000007"><a xlink:title=" ">
<path fill="none" stroke="#63b8ff" d="M645.88,-62.28C645.88,-50.27 645.88,-35.74 645.88,-26.44"/>
<polygon fill="#63b8ff" stroke="#63b8ff" points="642.38,-62.03 645.88,-72.03 649.38,-62.03 642.38,-62.03"/>
</a>
</g>
</g>
<!-- Node8 -->
<g id="Node000008" class="node">
<title>Node8</title>
<g id="a_Node000008"><a xlink:href="input_8cpp.html" target="_top" xlink:title="Definitions for gamepad, keyboard, and mouse input handling.">
<polygon fill="white" stroke="#666666" points="777,-26 704.75,-26 704.75,-6 777,-6 777,-26"/>
<text text-anchor="middle" x="740.88" y="-12.5" font-family="Helvetica,sans-Serif" font-size="10.00">src/input.cpp</text>
</a>
</g>
</g>
<!-- Node4&#45;&gt;Node8 -->
<g id="edge8_Node000004_Node000008" class="edge">
<title>Node4&#45;&gt;Node8</title>
<g id="a_edge8_Node000004_Node000008"><a xlink:title=" ">
<path fill="none" stroke="#63b8ff" d="M668.85,-67.04C687.12,-54.35 712.06,-37.02 727.29,-26.44"/>
<polygon fill="#63b8ff" stroke="#63b8ff" points="666.94,-64.1 660.73,-72.68 670.94,-69.85 666.94,-64.1"/>
</a>
</g>
</g>
<!-- Node4&#45;&gt;Node9 -->
<g id="edge9_Node000004_Node000009" class="edge">
<title>Node4&#45;&gt;Node9</title>
<g id="a_edge9_Node000004_Node000009"><a xlink:title=" ">
<path fill="none" stroke="#63b8ff" d="M606.89,-70.5C603.19,-69.56 599.48,-68.7 595.88,-68 426.31,-35.02 377.92,-67.55 208.88,-32 202.27,-30.61 195.27,-28.57 188.82,-26.44"/>
<polygon fill="#63b8ff" stroke="#63b8ff" points="605.8,-73.83 616.37,-73.12 607.66,-67.08 605.8,-73.83"/>
</a>
</g>
</g>
<!-- Node10 -->
<g id="Node000010" class="node">
<title>Node10</title>
<g id="a_Node000010"><a xlink:href="nvhttp_8cpp.html" target="_top" xlink:title="Definitions for the nvhttp (GameStream) server.">
<polygon fill="white" stroke="#666666" points="873,-26 794.75,-26 794.75,-6 873,-6 873,-26"/>
<text text-anchor="middle" x="833.88" y="-12.5" font-family="Helvetica,sans-Serif" font-size="10.00">src/nvhttp.cpp</text>
</a>
</g>
</g>
<!-- Node4&#45;&gt;Node10 -->
<g id="edge10_Node000004_Node000010" class="edge">
<title>Node4&#45;&gt;Node10</title>
<g id="a_edge10_Node000004_Node000010"><a xlink:title=" ">
<path fill="none" stroke="#63b8ff" d="M683.53,-69.78C720.07,-56.95 774.62,-37.8 806.99,-26.44"/>
<polygon fill="#63b8ff" stroke="#63b8ff" points="682.51,-66.43 674.24,-73.04 684.83,-73.03 682.51,-66.43"/>
</a>
</g>
</g>
<!-- Node11 -->
<g id="Node000011" class="node">
<title>Node11</title>
<g id="a_Node000011"><a xlink:href="x11grab_8cpp.html" target="_top" xlink:title="Definitions for x11 capture.">
<polygon fill="white" stroke="#666666" points="982.38,-32 891.38,-32 891.38,0 982.38,0 982.38,-32"/>
<text text-anchor="start" x="899.38" y="-18.5" font-family="Helvetica,sans-Serif" font-size="10.00">src/platform/linux</text>
<text text-anchor="middle" x="936.88" y="-6.5" font-family="Helvetica,sans-Serif" font-size="10.00">/x11grab.cpp</text>
</a>
</g>
</g>
<!-- Node4&#45;&gt;Node11 -->
<g id="edge11_Node000004_Node000011" class="edge">
<title>Node4&#45;&gt;Node11</title>
<g id="a_edge11_Node000004_Node000011"><a xlink:title=" ">
<path fill="none" stroke="#63b8ff" d="M686.4,-70.47C689.59,-69.6 692.78,-68.76 695.88,-68 777.64,-47.88 799.87,-51.09 881.88,-32 884.86,-31.3 887.93,-30.56 891.02,-29.78"/>
<polygon fill="#63b8ff" stroke="#63b8ff" points="685.73,-67.02 677.07,-73.13 687.65,-73.75 685.73,-67.02"/>
</a>
</g>
</g>
<!-- Node12 -->
<g id="Node000012" class="node">
<title>Node12</title>
<g id="a_Node000012"><a xlink:href="platform_2windows_2input_8cpp.html" target="_top" xlink:title="Definitions for input handling on Windows.">
<polygon fill="white" stroke="#666666" points="1109.38,-32 1000.38,-32 1000.38,0 1109.38,0 1109.38,-32"/>
<text text-anchor="start" x="1008.38" y="-18.5" font-family="Helvetica,sans-Serif" font-size="10.00">src/platform/windows</text>
<text text-anchor="middle" x="1054.88" y="-6.5" font-family="Helvetica,sans-Serif" font-size="10.00">/input.cpp</text>
</a>
</g>
</g>
<!-- Node4&#45;&gt;Node12 -->
<g id="edge12_Node000004_Node000012" class="edge">
<title>Node4&#45;&gt;Node12</title>
<g id="a_edge12_Node000004_Node000012"><a xlink:title=" ">
<path fill="none" stroke="#63b8ff" d="M685.49,-70.45C688.98,-69.54 692.48,-68.71 695.88,-68 825.59,-40.86 861.43,-55.38 991.88,-32 994.53,-31.52 997.24,-31.01 999.98,-30.46"/>
<polygon fill="#63b8ff" stroke="#63b8ff" points="684.64,-67.05 675.94,-73.1 686.51,-73.8 684.64,-67.05"/>
</a>
</g>
</g>
<!-- Node4&#45;&gt;Node13 -->
<g id="edge13_Node000004_Node000013" class="edge">
<title>Node4&#45;&gt;Node13</title>
<g id="a_edge13_Node000004_Node000013"><a xlink:title=" ">
<path fill="none" stroke="#63b8ff" d="M684.2,-70.52C688.12,-69.55 692.06,-68.68 695.88,-68 962.42,-20.79 1036.08,-71.5 1303.88,-32 1306.54,-31.61 1309.27,-31.15 1312.01,-30.66"/>
<polygon fill="#63b8ff" stroke="#63b8ff" points="683.54,-67.08 674.83,-73.1 685.4,-73.83 683.54,-67.08"/>
</a>
</g>
</g>
<!-- Node14 -->
<g id="Node000014" class="node">
<title>Node14</title>
<g id="a_Node000014"><a xlink:href="rtsp_8cpp.html" target="_top" xlink:title="Definitions for RTSP streaming.">
<polygon fill="white" stroke="#666666" points="1194.75,-26 1127,-26 1127,-6 1194.75,-6 1194.75,-26"/>
<text text-anchor="middle" x="1160.88" y="-12.5" font-family="Helvetica,sans-Serif" font-size="10.00">src/rtsp.cpp</text>
</a>
</g>
</g>
<!-- Node4&#45;&gt;Node14 -->
<g id="edge14_Node000004_Node000014" class="edge">
<title>Node4&#45;&gt;Node14</title>
<g id="a_edge14_Node000004_Node000014"><a xlink:title=" ">
<path fill="none" stroke="#63b8ff" d="M684.71,-70.5C688.46,-69.55 692.22,-68.7 695.88,-68 881.22,-32.7 934.5,-72.06 1118.88,-32 1125.23,-30.62 1131.94,-28.53 1138.08,-26.34"/>
<polygon fill="#63b8ff" stroke="#63b8ff" points="683.82,-67.12 675.11,-73.15 685.68,-73.87 683.82,-67.12"/>
</a>
</g>
</g>
<!-- Node15 -->
<g id="Node000015" class="node">
<title>Node15</title>
<g id="a_Node000015"><a xlink:href="stream_8cpp.html" target="_top" xlink:title="Definitions for the streaming protocols.">
<polygon fill="white" stroke="#666666" points="1294.5,-26 1213.25,-26 1213.25,-6 1294.5,-6 1294.5,-26"/>
<text text-anchor="middle" x="1253.88" y="-12.5" font-family="Helvetica,sans-Serif" font-size="10.00">src/stream.cpp</text>
</a>
</g>
</g>
<!-- Node4&#45;&gt;Node15 -->
<g id="edge15_Node000004_Node000015" class="edge">
<title>Node4&#45;&gt;Node15</title>
<g id="a_edge15_Node000004_Node000015"><a xlink:title=" ">
<path fill="none" stroke="#63b8ff" d="M684.21,-70.57C688.12,-69.58 692.06,-68.7 695.88,-68 918.52,-27.23 981.23,-72.77 1203.88,-32 1211.27,-30.65 1219.13,-28.59 1226.37,-26.44"/>
<polygon fill="#63b8ff" stroke="#63b8ff" points="683.54,-67.12 674.84,-73.16 685.41,-73.87 683.54,-67.12"/>
</a>
</g>
</g>
<!-- Node16 -->
<g id="Node000016" class="node">
<title>Node16</title>
<g id="a_Node000016"><a xlink:href="upnp_8cpp.html" target="_top" xlink:title="Definitions for UPnP port mapping.">
<polygon fill="white" stroke="#666666" points="290,-26 217.75,-26 217.75,-6 290,-6 290,-26"/>
<text text-anchor="middle" x="253.88" y="-12.5" font-family="Helvetica,sans-Serif" font-size="10.00">src/upnp.cpp</text>
</a>
</g>
</g>
<!-- Node4&#45;&gt;Node16 -->
<g id="edge16_Node000004_Node000016" class="edge">
<title>Node4&#45;&gt;Node16</title>
<g id="a_edge16_Node000004_Node000016"><a xlink:title=" ">
<path fill="none" stroke="#63b8ff" d="M606.26,-70.44C602.77,-69.54 599.27,-68.71 595.88,-68 465.72,-40.8 428.6,-61.17 298.88,-32 292.45,-30.55 285.64,-28.55 279.32,-26.47"/>
<polygon fill="#63b8ff" stroke="#63b8ff" points="605.24,-73.79 615.81,-73.1 607.11,-67.05 605.24,-73.79"/>
</a>
</g>
</g>
<!-- Node17 -->
<g id="Node000017" class="node">
<title>Node17</title>
<g id="a_Node000017"><a xlink:href="video_8cpp.html" target="_top" xlink:title="Definitions for video.">
<polygon fill="white" stroke="#666666" points="382.12,-26 307.62,-26 307.62,-6 382.12,-6 382.12,-26"/>
<text text-anchor="middle" x="344.88" y="-12.5" font-family="Helvetica,sans-Serif" font-size="10.00">src/video.cpp</text>
</a>
</g>
</g>
<!-- Node4&#45;&gt;Node17 -->
<g id="edge17_Node000004_Node000017" class="edge">
<title>Node4&#45;&gt;Node17</title>
<g id="a_edge17_Node000004_Node000017"><a xlink:title=" ">
<path fill="none" stroke="#63b8ff" d="M605.49,-70.45C602.25,-69.57 599.02,-68.75 595.88,-68 506.3,-46.74 481.26,-54.05 391.88,-32 385.39,-30.4 378.49,-28.38 372.04,-26.35"/>
<polygon fill="#63b8ff" stroke="#63b8ff" points="604.39,-73.77 614.96,-73.13 606.29,-67.04 604.39,-73.77"/>
</a>
</g>
</g>
</g>
</svg>

<g id="navigator" transform="translate(0 0)" fill="#404254">
  <rect fill="#f2f5e9" fill-opacity="0.5" stroke="#606060" stroke-width=".5" x="0" y="0" width="60" height="60"/>
  <use id="zoomplus" xlink:href="#zoomPlus" x="17" y="9" onmousedown="handleZoom(evt,'in')"/>
  <use id="zoomminus" xlink:href="#zoomMin" x="42" y="9" onmousedown="handleZoom(evt,'out')"/>
  <use id="reset" xlink:href="#resetDef" x="30" y="36" onmousedown="handleReset()"/>
   <use id="arrowup" xlink:href="#arrowUp" x="0" y="0" onmousedown="handlePan(0,-1)"/>
  <use id="arrowright" xlink:href="#arrowRight" x="0" y="0" onmousedown="handlePan(1,0)"/>
  <use id="arrowdown" xlink:href="#arrowDown" x="0" y="0" onmousedown="handlePan(0,1)"/>
  <use id="arrowleft" xlink:href="#arrowLeft" x="0" y="0" onmousedown="handlePan(-1,0)"/>
</g>
<svg viewBox="0 0 15 15" width="100%" height="30px" preserveAspectRatio="xMaxYMin meet">
 <g id="arrow_out" transform="scale(0.3 0.3)">
  <a xlink:href="entry__handler_8h__dep__incl_org.svg" target="_base">
   <rect id="button" ry="5" rx="5" y="6" x="6" height="38" width="38"
        fill="#f2f5e9" fill-opacity="0.5" stroke="#606060" stroke-width="1.0"/>
   <path id="arrow"
     d="M 11.500037,31.436501 C 11.940474,20.09759 22.043105,11.32322 32.158766,21.979434 L 37.068811,17.246167 C 37.068811,17.246167 37.088388,32 37.088388,32 L 22.160133,31.978069 C 22.160133,31.978069 26.997745,27.140456 26.997745,27.140456 C 18.528582,18.264221 13.291696,25.230495 11.500037,31.436501 z"
     style="fill:#404040;"/>
  </a>
 </g>
</svg>

<style type='text/css'>
<![CDATA[
[data-mouse-over-selected='false'] { opacity: 0.7; }
[data-mouse-over-selected='true']  { opacity: 1.0; }
]]>
</style>
<script type="application/ecmascript"><![CDATA[
document.addEventListener('DOMContentLoaded', (event) => {
  highlightEdges();
  highlightAdjacentNodes();
});
]]></script>
</svg>
