<?xml version="1.0" encoding="UTF-8" standalone="no"?>
<!DOCTYPE svg PUBLIC "-//W3C//DTD SVG 1.1//EN"
 "http://www.w3.org/Graphics/SVG/1.1/DTD/svg11.dtd">
<!-- Generated by graphviz version 12.2.1 (0)
 -->
<!-- Title: src/entry_handler.h Pages: 1 -->
<svg width="954pt" height="252pt"
 viewBox="0.00 0.00 953.75 252.00" xmlns="http://www.w3.org/2000/svg" xmlns:xlink="http://www.w3.org/1999/xlink">
<g id="graph0" class="graph" transform="scale(1 1) rotate(0) translate(4 248)">
<title>src/entry_handler.h</title>
<!-- Node1 -->
<g id="Node000001" class="node">
<title>Node1</title>
<g id="a_Node000001"><a xlink:title="Declarations for entry handling functions.">
<polygon fill="#999999" stroke="#666666" points="564.38,-244 465.12,-244 465.12,-224 564.38,-224 564.38,-244"/>
<text text-anchor="middle" x="514.75" y="-230.5" font-family="Helvetica,sans-Serif" font-size="10.00">src/entry_handler.h</text>
</a>
</g>
</g>
<!-- Node2 -->
<g id="Node000002" class="node">
<title>Node2</title>
<g id="a_Node000002"><a xlink:title=" ">
<polygon fill="#e0e0e0" stroke="#999999" points="704.38,-76 659.12,-76 659.12,-56 704.38,-56 704.38,-76"/>
<text text-anchor="middle" x="681.75" y="-62.5" font-family="Helvetica,sans-Serif" font-size="10.00">atomic</text>
</a>
</g>
</g>
<!-- Node1&#45;&gt;Node2 -->
<g id="edge1_Node000001_Node000002" class="edge">
<title>Node1&#45;&gt;Node2</title>
<g id="a_edge1_Node000001_Node000002"><a xlink:title=" ">
<path fill="none" stroke="#63b8ff" d="M524.21,-223.6C551.3,-196.66 629.52,-118.92 664.49,-84.15"/>
<polygon fill="#63b8ff" stroke="#63b8ff" points="666.7,-86.9 671.32,-77.36 661.76,-81.93 666.7,-86.9"/>
</a>
</g>
</g>
<!-- Node3 -->
<g id="Node000003" class="node">
<title>Node3</title>
<g id="a_Node000003"><a xlink:title=" ">
<polygon fill="#e0e0e0" stroke="#999999" points="199.5,-20 134,-20 134,0 199.5,0 199.5,-20"/>
<text text-anchor="middle" x="166.75" y="-6.5" font-family="Helvetica,sans-Serif" font-size="10.00">string_view</text>
</a>
</g>
</g>
<!-- Node1&#45;&gt;Node3 -->
<g id="edge2_Node000001_Node000003" class="edge">
<title>Node1&#45;&gt;Node3</title>
<g id="a_edge2_Node000001_Node000003"><a xlink:title=" ">
<path fill="none" stroke="#63b8ff" d="M464.68,-225.43C388.49,-211.04 244.88,-172.12 174.75,-76 165.51,-63.34 163.9,-45.48 164.39,-31.68"/>
<polygon fill="#63b8ff" stroke="#63b8ff" points="167.86,-32.16 165.14,-21.92 160.88,-31.62 167.86,-32.16"/>
</a>
</g>
</g>
<!-- Node4 -->
<g id="Node000004" class="node">
<title>Node4</title>
<g id="a_Node000004"><a xlink:href="thread__pool_8h.html" target="_top" xlink:title="Declarations for the thread pool system.">
<polygon fill="white" stroke="#666666" points="520,-188 445.5,-188 445.5,-168 520,-168 520,-188"/>
<text text-anchor="middle" x="482.75" y="-174.5" font-family="Helvetica,sans-Serif" font-size="10.00">thread_pool.h</text>
</a>
</g>
</g>
<!-- Node1&#45;&gt;Node4 -->
<g id="edge3_Node000001_Node000004" class="edge">
<title>Node1&#45;&gt;Node4</title>
<g id="a_edge3_Node000001_Node000004"><a xlink:title=" ">
<path fill="none" stroke="#63b8ff" d="M509.18,-223.59C505,-216.55 499.15,-206.67 494.01,-198"/>
<polygon fill="#63b8ff" stroke="#63b8ff" points="497.14,-196.42 489.03,-189.6 491.12,-199.99 497.14,-196.42"/>
</a>
</g>
</g>
<!-- Node24 -->
<g id="Node000024" class="node">
<title>Node24</title>
<g id="a_Node000024"><a xlink:href="thread__safe_8h.html" target="_top" xlink:title="Declarations for thread&#45;safe data structures.">
<polygon fill="white" stroke="#666666" points="770.38,-132 695.12,-132 695.12,-112 770.38,-112 770.38,-132"/>
<text text-anchor="middle" x="732.75" y="-118.5" font-family="Helvetica,sans-Serif" font-size="10.00">thread_safe.h</text>
</a>
</g>
</g>
<!-- Node1&#45;&gt;Node24 -->
<g id="edge29_Node000001_Node000024" class="edge">
<title>Node1&#45;&gt;Node24</title>
<g id="a_edge29_Node000001_Node000024"><a xlink:title=" ">
<path fill="none" stroke="#63b8ff" d="M534.19,-223.64C552.85,-214.62 581.81,-200.53 606.75,-188 640.62,-170.98 679.34,-150.92 704.81,-137.63"/>
<polygon fill="#63b8ff" stroke="#63b8ff" points="706.28,-140.81 713.53,-133.08 703.04,-134.61 706.28,-140.81"/>
</a>
</g>
</g>
<!-- Node5 -->
<g id="Node000005" class="node">
<title>Node5</title>
<g id="a_Node000005"><a xlink:title=" ">
<polygon fill="#e0e0e0" stroke="#999999" points="504.25,-132 461.25,-132 461.25,-112 504.25,-112 504.25,-132"/>
<text text-anchor="middle" x="482.75" y="-118.5" font-family="Helvetica,sans-Serif" font-size="10.00">thread</text>
</a>
</g>
</g>
<!-- Node4&#45;&gt;Node5 -->
<g id="edge4_Node000004_Node000005" class="edge">
<title>Node4&#45;&gt;Node5</title>
<g id="a_edge4_Node000004_Node000005"><a xlink:title=" ">
<path fill="none" stroke="#63b8ff" d="M482.75,-167.59C482.75,-161.01 482.75,-151.96 482.75,-143.73"/>
<polygon fill="#63b8ff" stroke="#63b8ff" points="486.25,-143.81 482.75,-133.81 479.25,-143.81 486.25,-143.81"/>
</a>
</g>
</g>
<!-- Node6 -->
<g id="Node000006" class="node">
<title>Node6</title>
<g id="a_Node000006"><a xlink:href="task__pool_8h.html" target="_top" xlink:title="Declarations for the task pool system.">
<polygon fill="white" stroke="#666666" points="420.88,-132 354.62,-132 354.62,-112 420.88,-112 420.88,-132"/>
<text text-anchor="middle" x="387.75" y="-118.5" font-family="Helvetica,sans-Serif" font-size="10.00">task_pool.h</text>
</a>
</g>
</g>
<!-- Node4&#45;&gt;Node6 -->
<g id="edge5_Node000004_Node000006" class="edge">
<title>Node4&#45;&gt;Node6</title>
<g id="a_edge5_Node000004_Node000006"><a xlink:title=" ">
<path fill="none" stroke="#63b8ff" d="M466.2,-167.59C451.85,-159.44 430.82,-147.48 414.15,-138"/>
<polygon fill="#63b8ff" stroke="#63b8ff" points="416.17,-135.13 405.74,-133.23 412.71,-141.21 416.17,-135.13"/>
</a>
</g>
</g>
<!-- Node7 -->
<g id="Node000007" class="node">
<title>Node7</title>
<g id="a_Node000007"><a xlink:title=" ">
<polygon fill="#e0e0e0" stroke="#999999" points="229.38,-76 184.12,-76 184.12,-56 229.38,-56 229.38,-76"/>
<text text-anchor="middle" x="206.75" y="-62.5" font-family="Helvetica,sans-Serif" font-size="10.00">chrono</text>
</a>
</g>
</g>
<!-- Node6&#45;&gt;Node7 -->
<g id="edge6_Node000006_Node000007" class="edge">
<title>Node6&#45;&gt;Node7</title>
<g id="a_edge6_Node000006_Node000007"><a xlink:title=" ">
<path fill="none" stroke="#63b8ff" d="M356.22,-111.59C323.88,-101.94 273.73,-86.98 240.57,-77.09"/>
<polygon fill="#63b8ff" stroke="#63b8ff" points="241.64,-73.76 231.06,-74.25 239.64,-80.47 241.64,-73.76"/>
</a>
</g>
</g>
<!-- Node8 -->
<g id="Node000008" class="node">
<title>Node8</title>
<g id="a_Node000008"><a xlink:title=" ">
<polygon fill="#e0e0e0" stroke="#999999" points="289.88,-76 247.62,-76 247.62,-56 289.88,-56 289.88,-76"/>
<text text-anchor="middle" x="268.75" y="-62.5" font-family="Helvetica,sans-Serif" font-size="10.00">deque</text>
</a>
</g>
</g>
<!-- Node6&#45;&gt;Node8 -->
<g id="edge7_Node000006_Node000008" class="edge">
<title>Node6&#45;&gt;Node8</title>
<g id="a_edge7_Node000006_Node000008"><a xlink:title=" ">
<path fill="none" stroke="#63b8ff" d="M367.02,-111.59C348.54,-103.21 321.21,-90.8 300.06,-81.21"/>
<polygon fill="#63b8ff" stroke="#63b8ff" points="301.57,-78.05 291.02,-77.1 298.68,-84.42 301.57,-78.05"/>
</a>
</g>
</g>
<!-- Node9 -->
<g id="Node000009" class="node">
<title>Node9</title>
<g id="a_Node000009"><a xlink:title=" ">
<polygon fill="#e0e0e0" stroke="#999999" points="640.75,-76 582.75,-76 582.75,-56 640.75,-56 640.75,-76"/>
<text text-anchor="middle" x="611.75" y="-62.5" font-family="Helvetica,sans-Serif" font-size="10.00">functional</text>
</a>
</g>
</g>
<!-- Node6&#45;&gt;Node9 -->
<g id="edge8_Node000006_Node000009" class="edge">
<title>Node6&#45;&gt;Node9</title>
<g id="a_edge8_Node000006_Node000009"><a xlink:title=" ">
<path fill="none" stroke="#63b8ff" d="M421.29,-112.92C461.31,-103.27 528.2,-87.14 571.12,-76.8"/>
<polygon fill="#63b8ff" stroke="#63b8ff" points="571.91,-80.21 580.81,-74.46 570.27,-73.4 571.91,-80.21"/>
</a>
</g>
</g>
<!-- Node10 -->
<g id="Node000010" class="node">
<title>Node10</title>
<g id="a_Node000010"><a xlink:title=" ">
<polygon fill="#e0e0e0" stroke="#999999" points="349.12,-76 308.38,-76 308.38,-56 349.12,-56 349.12,-76"/>
<text text-anchor="middle" x="328.75" y="-62.5" font-family="Helvetica,sans-Serif" font-size="10.00">future</text>
</a>
</g>
</g>
<!-- Node6&#45;&gt;Node10 -->
<g id="edge9_Node000006_Node000010" class="edge">
<title>Node6&#45;&gt;Node10</title>
<g id="a_edge9_Node000006_Node000010"><a xlink:title=" ">
<path fill="none" stroke="#63b8ff" d="M377.47,-111.59C369.18,-104.01 357.3,-93.13 347.35,-84.02"/>
<polygon fill="#63b8ff" stroke="#63b8ff" points="349.77,-81.49 340.03,-77.32 345.04,-86.65 349.77,-81.49"/>
</a>
</g>
</g>
<!-- Node11 -->
<g id="Node000011" class="node">
<title>Node11</title>
<g id="a_Node000011"><a xlink:title=" ">
<polygon fill="#e0e0e0" stroke="#999999" points="754.25,-20 711.25,-20 711.25,0 754.25,0 754.25,-20"/>
<text text-anchor="middle" x="732.75" y="-6.5" font-family="Helvetica,sans-Serif" font-size="10.00">mutex</text>
</a>
</g>
</g>
<!-- Node6&#45;&gt;Node11 -->
<g id="edge10_Node000006_Node000011" class="edge">
<title>Node6&#45;&gt;Node11</title>
<g id="a_edge10_Node000006_Node000011"><a xlink:title=" ">
<path fill="none" stroke="#63b8ff" d="M411.49,-111.66C433.86,-102.78 468.25,-88.88 497.75,-76 517.06,-67.56 520.79,-62.77 540.75,-56 607.32,-33.42 629.32,-38.08 700.05,-20.53"/>
<polygon fill="#63b8ff" stroke="#63b8ff" points="700.56,-24.01 709.38,-18.15 698.83,-17.23 700.56,-24.01"/>
</a>
</g>
</g>
<!-- Node12 -->
<g id="Node000012" class="node">
<title>Node12</title>
<g id="a_Node000012"><a xlink:title=" ">
<polygon fill="#e0e0e0" stroke="#999999" points="278.62,-20 228.88,-20 228.88,0 278.62,0 278.62,-20"/>
<text text-anchor="middle" x="253.75" y="-6.5" font-family="Helvetica,sans-Serif" font-size="10.00">optional</text>
</a>
</g>
</g>
<!-- Node6&#45;&gt;Node12 -->
<g id="edge11_Node000006_Node000012" class="edge">
<title>Node6&#45;&gt;Node12</title>
<g id="a_edge11_Node000006_Node000012"><a xlink:title=" ">
<path fill="none" stroke="#63b8ff" d="M385.74,-111.81C382.27,-97.99 373.94,-71.8 357.75,-56 347.53,-46.02 315.42,-32.88 289.56,-23.38"/>
<polygon fill="#63b8ff" stroke="#63b8ff" points="290.96,-20.16 280.37,-20.06 288.59,-26.74 290.96,-20.16"/>
</a>
</g>
</g>
<!-- Node13 -->
<g id="Node000013" class="node">
<title>Node13</title>
<g id="a_Node000013"><a xlink:title=" ">
<polygon fill="#e0e0e0" stroke="#999999" points="358.62,-20 296.88,-20 296.88,0 358.62,0 358.62,-20"/>
<text text-anchor="middle" x="327.75" y="-6.5" font-family="Helvetica,sans-Serif" font-size="10.00">type_traits</text>
</a>
</g>
</g>
<!-- Node6&#45;&gt;Node13 -->
<g id="edge12_Node000006_Node000013" class="edge">
<title>Node6&#45;&gt;Node13</title>
<g id="a_edge12_Node000006_Node000013"><a xlink:title=" ">
<path fill="none" stroke="#63b8ff" d="M390.98,-111.55C394.91,-98.32 399.95,-73.88 390.75,-56 384.12,-43.11 371.9,-33.1 359.97,-25.83"/>
<polygon fill="#63b8ff" stroke="#63b8ff" points="361.92,-22.9 351.48,-21.09 358.51,-29.02 361.92,-22.9"/>
</a>
</g>
</g>
<!-- Node14 -->
<g id="Node000014" class="node">
<title>Node14</title>
<g id="a_Node000014"><a xlink:title=" ">
<polygon fill="#e0e0e0" stroke="#999999" points="96.38,-20 57.12,-20 57.12,0 96.38,0 96.38,-20"/>
<text text-anchor="middle" x="76.75" y="-6.5" font-family="Helvetica,sans-Serif" font-size="10.00">utility</text>
</a>
</g>
</g>
<!-- Node6&#45;&gt;Node14 -->
<g id="edge13_Node000006_Node000014" class="edge">
<title>Node6&#45;&gt;Node14</title>
<g id="a_edge13_Node000006_Node000014"><a xlink:title=" ">
<path fill="none" stroke="#63b8ff" d="M354.49,-117.89C311.57,-113.01 235.23,-101.35 174.75,-76 145.41,-63.7 115.47,-42.29 96.54,-27.42"/>
<polygon fill="#63b8ff" stroke="#63b8ff" points="98.87,-24.8 88.89,-21.27 94.49,-30.26 98.87,-24.8"/>
</a>
</g>
</g>
<!-- Node15 -->
<g id="Node000015" class="node">
<title>Node15</title>
<g id="a_Node000015"><a xlink:title=" ">
<polygon fill="#e0e0e0" stroke="#999999" points="815.25,-20 772.25,-20 772.25,0 815.25,0 815.25,-20"/>
<text text-anchor="middle" x="793.75" y="-6.5" font-family="Helvetica,sans-Serif" font-size="10.00">vector</text>
</a>
</g>
</g>
<!-- Node6&#45;&gt;Node15 -->
<g id="edge14_Node000006_Node000015" class="edge">
<title>Node6&#45;&gt;Node15</title>
<g id="a_edge14_Node000006_Node000015"><a xlink:title=" ">
<path fill="none" stroke="#63b8ff" d="M421.36,-112.14C451.08,-103.95 495.38,-90.81 532.75,-76 551.6,-68.53 554.51,-62.39 573.75,-56 651.89,-30.06 678.06,-39.48 760.67,-20.52"/>
<polygon fill="#63b8ff" stroke="#63b8ff" points="761.48,-23.92 770.39,-18.2 759.86,-17.11 761.48,-23.92"/>
</a>
</g>
</g>
<!-- Node16 -->
<g id="Node000016" class="node">
<title>Node16</title>
<g id="a_Node000016"><a xlink:href="move__by__copy_8h.html" target="_top" xlink:title="Declarations for the MoveByCopy utility class.">
<polygon fill="white" stroke="#666666" points="89.5,-76 0,-76 0,-56 89.5,-56 89.5,-76"/>
<text text-anchor="middle" x="44.75" y="-62.5" font-family="Helvetica,sans-Serif" font-size="10.00">move_by_copy.h</text>
</a>
</g>
</g>
<!-- Node6&#45;&gt;Node16 -->
<g id="edge15_Node000006_Node000016" class="edge">
<title>Node6&#45;&gt;Node16</title>
<g id="a_edge15_Node000006_Node000016"><a xlink:title=" ">
<path fill="none" stroke="#63b8ff" d="M354.24,-115.72C295.43,-106.47 173.09,-87.21 101.09,-75.87"/>
<polygon fill="#63b8ff" stroke="#63b8ff" points="101.9,-72.45 91.48,-74.36 100.82,-79.37 101.9,-72.45"/>
</a>
</g>
</g>
<!-- Node17 -->
<g id="Node000017" class="node">
<title>Node17</title>
<g id="a_Node000017"><a xlink:href="utility_8h.html" target="_top" xlink:title="Declarations for utility functions.">
<polygon fill="white" stroke="#666666" points="489.12,-76 442.38,-76 442.38,-56 489.12,-56 489.12,-76"/>
<text text-anchor="middle" x="465.75" y="-62.5" font-family="Helvetica,sans-Serif" font-size="10.00">utility.h</text>
</a>
</g>
</g>
<!-- Node6&#45;&gt;Node17 -->
<g id="edge17_Node000006_Node000017" class="edge">
<title>Node6&#45;&gt;Node17</title>
<g id="a_edge17_Node000006_Node000017"><a xlink:title=" ">
<path fill="none" stroke="#63b8ff" d="M401.34,-111.59C412.79,-103.67 429.41,-92.16 442.91,-82.82"/>
<polygon fill="#63b8ff" stroke="#63b8ff" points="444.58,-85.91 450.81,-77.34 440.6,-80.16 444.58,-85.91"/>
</a>
</g>
</g>
<!-- Node16&#45;&gt;Node14 -->
<g id="edge16_Node000016_Node000014" class="edge">
<title>Node16&#45;&gt;Node14</title>
<g id="a_edge16_Node000016_Node000014"><a xlink:title=" ">
<path fill="none" stroke="#63b8ff" d="M50.32,-55.59C54.5,-48.55 60.35,-38.67 65.49,-30"/>
<polygon fill="#63b8ff" stroke="#63b8ff" points="68.38,-31.99 70.47,-21.6 62.36,-28.42 68.38,-31.99"/>
</a>
</g>
</g>
<!-- Node17&#45;&gt;Node3 -->
<g id="edge25_Node000017_Node000003" class="edge">
<title>Node17&#45;&gt;Node3</title>
<g id="a_edge25_Node000017_Node000003"><a xlink:title=" ">
<path fill="none" stroke="#63b8ff" d="M442.04,-60.72C392,-51.68 274.96,-30.54 210.78,-18.95"/>
<polygon fill="#63b8ff" stroke="#63b8ff" points="211.77,-15.57 201.31,-17.24 210.53,-22.46 211.77,-15.57"/>
</a>
</g>
</g>
<!-- Node17&#45;&gt;Node11 -->
<g id="edge21_Node000017_Node000011" class="edge">
<title>Node17&#45;&gt;Node11</title>
<g id="a_edge21_Node000017_Node000011"><a xlink:title=" ">
<path fill="none" stroke="#63b8ff" d="M489.59,-58.98C493.95,-57.94 498.48,-56.9 502.75,-56 587.58,-38.07 612.9,-40.75 699.68,-20.53"/>
<polygon fill="#63b8ff" stroke="#63b8ff" points="700.48,-23.94 709.4,-18.22 698.86,-17.13 700.48,-23.94"/>
</a>
</g>
</g>
<!-- Node17&#45;&gt;Node12 -->
<g id="edge22_Node000017_Node000012" class="edge">
<title>Node17&#45;&gt;Node12</title>
<g id="a_edge22_Node000017_Node000012"><a xlink:title=" ">
<path fill="none" stroke="#63b8ff" d="M442.12,-59.11C409.94,-51.08 350.25,-36.11 289.87,-20.53"/>
<polygon fill="#63b8ff" stroke="#63b8ff" points="291.02,-17.21 280.46,-18.09 289.26,-23.99 291.02,-17.21"/>
</a>
</g>
</g>
<!-- Node17&#45;&gt;Node13 -->
<g id="edge26_Node000017_Node000013" class="edge">
<title>Node17&#45;&gt;Node13</title>
<g id="a_edge26_Node000017_Node000013"><a xlink:title=" ">
<path fill="none" stroke="#63b8ff" d="M442.03,-55.72C420.01,-47.1 386.98,-34.18 362.08,-24.43"/>
<polygon fill="#63b8ff" stroke="#63b8ff" points="363.62,-21.28 353.03,-20.89 361.07,-27.8 363.62,-21.28"/>
</a>
</g>
</g>
<!-- Node17&#45;&gt;Node15 -->
<g id="edge28_Node000017_Node000015" class="edge">
<title>Node17&#45;&gt;Node15</title>
<g id="a_edge28_Node000017_Node000015"><a xlink:title=" ">
<path fill="none" stroke="#63b8ff" d="M489.39,-61.87C546.8,-54.21 693.26,-34.24 760.64,-20.38"/>
<polygon fill="#63b8ff" stroke="#63b8ff" points="761.37,-23.8 770.41,-18.27 759.9,-16.96 761.37,-23.8"/>
</a>
</g>
</g>
<!-- Node18 -->
<g id="Node000018" class="node">
<title>Node18</title>
<g id="a_Node000018"><a xlink:title=" ">
<polygon fill="#e0e0e0" stroke="#999999" points="554.62,-20 498.88,-20 498.88,0 554.62,0 554.62,-20"/>
<text text-anchor="middle" x="526.75" y="-6.5" font-family="Helvetica,sans-Serif" font-size="10.00">algorithm</text>
</a>
</g>
</g>
<!-- Node17&#45;&gt;Node18 -->
<g id="edge18_Node000017_Node000018" class="edge">
<title>Node17&#45;&gt;Node18</title>
<g id="a_edge18_Node000017_Node000018"><a xlink:title=" ">
<path fill="none" stroke="#63b8ff" d="M476.38,-55.59C485.03,-47.93 497.48,-36.91 507.83,-27.75"/>
<polygon fill="#63b8ff" stroke="#63b8ff" points="509.95,-30.55 515.11,-21.3 505.31,-25.31 509.95,-30.55"/>
</a>
</g>
</g>
<!-- Node19 -->
<g id="Node000019" class="node">
<title>Node19</title>
<g id="a_Node000019"><a xlink:title=" ">
<polygon fill="#e0e0e0" stroke="#999999" points="945.75,-20 851.75,-20 851.75,0 945.75,0 945.75,-20"/>
<text text-anchor="middle" x="898.75" y="-6.5" font-family="Helvetica,sans-Serif" font-size="10.00">condition_variable</text>
</a>
</g>
</g>
<!-- Node17&#45;&gt;Node19 -->
<g id="edge19_Node000017_Node000019" class="edge">
<title>Node17&#45;&gt;Node19</title>
<g id="a_edge19_Node000017_Node000019"><a xlink:title=" ">
<path fill="none" stroke="#63b8ff" d="M489.34,-62.06C555.39,-53.82 743.66,-30.34 840.16,-18.31"/>
<polygon fill="#63b8ff" stroke="#63b8ff" points="840.47,-21.8 849.96,-17.08 839.6,-14.85 840.47,-21.8"/>
</a>
</g>
</g>
<!-- Node20 -->
<g id="Node000020" class="node">
<title>Node20</title>
<g id="a_Node000020"><a xlink:title=" ">
<polygon fill="#e0e0e0" stroke="#999999" points="624.38,-20 573.12,-20 573.12,0 624.38,0 624.38,-20"/>
<text text-anchor="middle" x="598.75" y="-6.5" font-family="Helvetica,sans-Serif" font-size="10.00">memory</text>
</a>
</g>
</g>
<!-- Node17&#45;&gt;Node20 -->
<g id="edge20_Node000017_Node000020" class="edge">
<title>Node17&#45;&gt;Node20</title>
<g id="a_edge20_Node000017_Node000020"><a xlink:title=" ">
<path fill="none" stroke="#63b8ff" d="M488.92,-55.59C509.96,-47.05 541.25,-34.35 565.05,-24.68"/>
<polygon fill="#63b8ff" stroke="#63b8ff" points="566.05,-28.05 574,-21.05 563.42,-21.57 566.05,-28.05"/>
</a>
</g>
</g>
<!-- Node21 -->
<g id="Node000021" class="node">
<title>Node21</title>
<g id="a_Node000021"><a xlink:title=" ">
<polygon fill="#e0e0e0" stroke="#999999" points="693.38,-20 642.12,-20 642.12,0 693.38,0 693.38,-20"/>
<text text-anchor="middle" x="667.75" y="-6.5" font-family="Helvetica,sans-Serif" font-size="10.00">ostream</text>
</a>
</g>
</g>
<!-- Node17&#45;&gt;Node21 -->
<g id="edge23_Node000017_Node000021" class="edge">
<title>Node17&#45;&gt;Node21</title>
<g id="a_edge23_Node000017_Node000021"><a xlink:title=" ">
<path fill="none" stroke="#63b8ff" d="M489.32,-58.7C524.13,-49.39 589.63,-31.88 630.85,-20.86"/>
<polygon fill="#63b8ff" stroke="#63b8ff" points="631.57,-24.29 640.33,-18.33 629.76,-17.53 631.57,-24.29"/>
</a>
</g>
</g>
<!-- Node22 -->
<g id="Node000022" class="node">
<title>Node22</title>
<g id="a_Node000022"><a xlink:title=" ">
<polygon fill="#e0e0e0" stroke="#999999" points="416.75,-20 376.75,-20 376.75,0 416.75,0 416.75,-20"/>
<text text-anchor="middle" x="396.75" y="-6.5" font-family="Helvetica,sans-Serif" font-size="10.00">string</text>
</a>
</g>
</g>
<!-- Node17&#45;&gt;Node22 -->
<g id="edge24_Node000017_Node000022" class="edge">
<title>Node17&#45;&gt;Node22</title>
<g id="a_edge24_Node000017_Node000022"><a xlink:title=" ">
<path fill="none" stroke="#63b8ff" d="M453.73,-55.59C443.74,-47.77 429.29,-36.46 417.44,-27.19"/>
<polygon fill="#63b8ff" stroke="#63b8ff" points="419.86,-24.64 409.82,-21.23 415.54,-30.15 419.86,-24.64"/>
</a>
</g>
</g>
<!-- Node23 -->
<g id="Node000023" class="node">
<title>Node23</title>
<g id="a_Node000023"><a xlink:title=" ">
<polygon fill="#e0e0e0" stroke="#999999" points="480.38,-20 435.12,-20 435.12,0 480.38,0 480.38,-20"/>
<text text-anchor="middle" x="457.75" y="-6.5" font-family="Helvetica,sans-Serif" font-size="10.00">variant</text>
</a>
</g>
</g>
<!-- Node17&#45;&gt;Node23 -->
<g id="edge27_Node000017_Node000023" class="edge">
<title>Node17&#45;&gt;Node23</title>
<g id="a_edge27_Node000017_Node000023"><a xlink:title=" ">
<path fill="none" stroke="#63b8ff" d="M464.36,-55.59C463.37,-48.93 462.01,-39.75 460.78,-31.44"/>
<polygon fill="#63b8ff" stroke="#63b8ff" points="464.28,-31.17 459.35,-21.8 457.35,-32.2 464.28,-31.17"/>
</a>
</g>
</g>
<!-- Node24&#45;&gt;Node2 -->
<g id="edge31_Node000024_Node000002" class="edge">
<title>Node24&#45;&gt;Node2</title>
<g id="a_edge31_Node000024_Node000002"><a xlink:title=" ">
<path fill="none" stroke="#63b8ff" d="M723.87,-111.59C716.85,-104.16 706.85,-93.58 698.36,-84.58"/>
<polygon fill="#63b8ff" stroke="#63b8ff" points="700.98,-82.27 691.57,-77.4 695.89,-87.07 700.98,-82.27"/>
</a>
</g>
</g>
<!-- Node24&#45;&gt;Node9 -->
<g id="edge33_Node000024_Node000009" class="edge">
<title>Node24&#45;&gt;Node9</title>
<g id="a_edge33_Node000024_Node000009"><a xlink:title=" ">
<path fill="none" stroke="#63b8ff" d="M711.67,-111.59C692.79,-103.17 664.83,-90.69 643.29,-81.07"/>
<polygon fill="#63b8ff" stroke="#63b8ff" points="644.93,-77.98 634.37,-77.1 642.08,-84.37 644.93,-77.98"/>
</a>
</g>
</g>
<!-- Node24&#45;&gt;Node11 -->
<g id="edge35_Node000024_Node000011" class="edge">
<title>Node24&#45;&gt;Node11</title>
<g id="a_edge35_Node000024_Node000011"><a xlink:title=" ">
<path fill="none" stroke="#63b8ff" d="M732.75,-111.62C732.75,-94.01 732.75,-55.59 732.75,-31.65"/>
<polygon fill="#63b8ff" stroke="#63b8ff" points="736.25,-31.87 732.75,-21.87 729.25,-31.87 736.25,-31.87"/>
</a>
</g>
</g>
<!-- Node24&#45;&gt;Node15 -->
<g id="edge36_Node000024_Node000015" class="edge">
<title>Node24&#45;&gt;Node15</title>
<g id="a_edge36_Node000024_Node000015"><a xlink:title=" ">
<path fill="none" stroke="#63b8ff" d="M770.82,-118.83C800.45,-114.9 839.77,-104.27 859.75,-76 873.65,-56.32 848.68,-37.41 825.57,-25.11"/>
<polygon fill="#63b8ff" stroke="#63b8ff" points="827.42,-22.13 816.91,-20.78 824.29,-28.39 827.42,-22.13"/>
</a>
</g>
</g>
<!-- Node24&#45;&gt;Node17 -->
<g id="edge37_Node000024_Node000017" class="edge">
<title>Node24&#45;&gt;Node17</title>
<g id="a_edge37_Node000024_Node000017"><a xlink:title=" ">
<path fill="none" stroke="#63b8ff" d="M694.78,-113.32C642.93,-102.83 550.71,-84.18 500.56,-74.04"/>
<polygon fill="#63b8ff" stroke="#63b8ff" points="501.34,-70.63 490.84,-72.07 499.95,-77.49 501.34,-70.63"/>
</a>
</g>
</g>
<!-- Node24&#45;&gt;Node19 -->
<g id="edge32_Node000024_Node000019" class="edge">
<title>Node24&#45;&gt;Node19</title>
<g id="a_edge32_Node000024_Node000019"><a xlink:title=" ">
<path fill="none" stroke="#63b8ff" d="M770.6,-118.32C802.51,-114.12 847.38,-103.39 875.75,-76 887.87,-64.3 893.62,-45.81 896.33,-31.54"/>
<polygon fill="#63b8ff" stroke="#63b8ff" points="899.76,-32.27 897.8,-21.86 892.84,-31.22 899.76,-32.27"/>
</a>
</g>
</g>
<!-- Node25 -->
<g id="Node000025" class="node">
<title>Node25</title>
<g id="a_Node000025"><a xlink:title=" ">
<polygon fill="#e0e0e0" stroke="#999999" points="798.62,-76 760.88,-76 760.88,-56 798.62,-56 798.62,-76"/>
<text text-anchor="middle" x="779.75" y="-62.5" font-family="Helvetica,sans-Serif" font-size="10.00">array</text>
</a>
</g>
</g>
<!-- Node24&#45;&gt;Node25 -->
<g id="edge30_Node000024_Node000025" class="edge">
<title>Node24&#45;&gt;Node25</title>
<g id="a_edge30_Node000024_Node000025"><a xlink:title=" ">
<path fill="none" stroke="#63b8ff" d="M740.94,-111.59C747.34,-104.24 756.43,-93.8 764.2,-84.87"/>
<polygon fill="#63b8ff" stroke="#63b8ff" points="766.74,-87.28 770.66,-77.44 761.46,-82.69 766.74,-87.28"/>
</a>
</g>
</g>
<!-- Node26 -->
<g id="Node000026" class="node">
<title>Node26</title>
<g id="a_Node000026"><a xlink:title=" ">
<polygon fill="#e0e0e0" stroke="#999999" points="851.12,-76 816.38,-76 816.38,-56 851.12,-56 851.12,-76"/>
<text text-anchor="middle" x="833.75" y="-62.5" font-family="Helvetica,sans-Serif" font-size="10.00">map</text>
</a>
</g>
</g>
<!-- Node24&#45;&gt;Node26 -->
<g id="edge34_Node000024_Node000026" class="edge">
<title>Node24&#45;&gt;Node26</title>
<g id="a_edge34_Node000024_Node000026"><a xlink:title=" ">
<path fill="none" stroke="#63b8ff" d="M750.34,-111.59C765.67,-103.4 788.17,-91.37 805.94,-81.87"/>
<polygon fill="#63b8ff" stroke="#63b8ff" points="807.52,-84.99 814.69,-77.19 804.22,-78.82 807.52,-84.99"/>
</a>
</g>
</g>
</g>
</svg>
