<?xml version="1.0" encoding="UTF-8" standalone="no"?>
<!DOCTYPE svg PUBLIC "-//W3C//DTD SVG 1.1//EN"
 "http://www.w3.org/Graphics/SVG/1.1/DTD/svg11.dtd">
<!-- Generated by graphviz version 12.2.1 (0)
 -->
<!-- Title: src/file_handler.h Pages: 1 -->
<svg width="645pt" height="96pt"
 viewBox="0.00 0.00 645.25 96.00" xmlns="http://www.w3.org/2000/svg" xmlns:xlink="http://www.w3.org/1999/xlink">
<g id="graph0" class="graph" transform="scale(1 1) rotate(0) translate(4 92)">
<title>src/file_handler.h</title>
<!-- Node1 -->
<g id="Node000001" class="node">
<title>Node1</title>
<g id="a_Node000001"><a xlink:title="Declarations for file handling functions.">
<polygon fill="#999999" stroke="#666666" points="362.88,-88 272.62,-88 272.62,-68 362.88,-68 362.88,-88"/>
<text text-anchor="middle" x="317.75" y="-74.5" font-family="Helvetica,sans-Serif" font-size="10.00">src/file_handler.h</text>
</a>
</g>
</g>
<!-- Node2 -->
<g id="Node000002" class="node">
<title>Node2</title>
<g id="a_Node000002"><a xlink:href="config_8cpp.html" target="_top" xlink:title="Definitions for the configuration of Sunshine.">
<polygon fill="white" stroke="#666666" points="77.5,-26 0,-26 0,-6 77.5,-6 77.5,-26"/>
<text text-anchor="middle" x="38.75" y="-12.5" font-family="Helvetica,sans-Serif" font-size="10.00">src/config.cpp</text>
</a>
</g>
</g>
<!-- Node1&#45;&gt;Node2 -->
<g id="edge1_Node000001_Node000002" class="edge">
<title>Node1&#45;&gt;Node2</title>
<g id="a_edge1_Node000001_Node000002"><a xlink:title=" ">
<path fill="none" stroke="#63b8ff" d="M261.1,-67.77C214.1,-59.67 145.67,-46.9 86.75,-32 80.4,-30.39 73.65,-28.44 67.28,-26.48"/>
<polygon fill="#63b8ff" stroke="#63b8ff" points="260.34,-71.18 270.78,-69.42 261.51,-64.28 260.34,-71.18"/>
</a>
</g>
</g>
<!-- Node3 -->
<g id="Node000003" class="node">
<title>Node3</title>
<g id="a_Node000003"><a xlink:href="confighttp_8cpp.html" target="_top" xlink:title="Definitions for the Web UI Config HTTP server.">
<polygon fill="white" stroke="#666666" points="189.75,-26 95.75,-26 95.75,-6 189.75,-6 189.75,-26"/>
<text text-anchor="middle" x="142.75" y="-12.5" font-family="Helvetica,sans-Serif" font-size="10.00">src/confighttp.cpp</text>
</a>
</g>
</g>
<!-- Node1&#45;&gt;Node3 -->
<g id="edge2_Node000001_Node000003" class="edge">
<title>Node1&#45;&gt;Node3</title>
<g id="a_edge2_Node000001_Node000003"><a xlink:title=" ">
<path fill="none" stroke="#63b8ff" d="M279.79,-63.98C246.76,-52.66 199.68,-36.52 170.19,-26.41"/>
<polygon fill="#63b8ff" stroke="#63b8ff" points="278.38,-67.2 288.97,-67.13 280.65,-60.58 278.38,-67.2"/>
</a>
</g>
</g>
<!-- Node4 -->
<g id="Node000004" class="node">
<title>Node4</title>
<g id="a_Node000004"><a xlink:href="file__handler_8cpp.html" target="_top" xlink:title="Definitions for file handling functions.">
<polygon fill="white" stroke="#666666" points="308.12,-26 207.38,-26 207.38,-6 308.12,-6 308.12,-26"/>
<text text-anchor="middle" x="257.75" y="-12.5" font-family="Helvetica,sans-Serif" font-size="10.00">src/file_handler.cpp</text>
</a>
</g>
</g>
<!-- Node1&#45;&gt;Node4 -->
<g id="edge3_Node000001_Node000004" class="edge">
<title>Node1&#45;&gt;Node4</title>
<g id="a_edge3_Node000001_Node000004"><a xlink:title=" ">
<path fill="none" stroke="#63b8ff" d="M300.33,-59.58C289.38,-48.63 275.72,-34.97 266.86,-26.11"/>
<polygon fill="#63b8ff" stroke="#63b8ff" points="297.76,-61.96 307.3,-66.55 302.71,-57.01 297.76,-61.96"/>
</a>
</g>
</g>
<!-- Node5 -->
<g id="Node000005" class="node">
<title>Node5</title>
<g id="a_Node000005"><a xlink:href="httpcommon_8cpp.html" target="_top" xlink:title="Definitions for common HTTP.">
<polygon fill="white" stroke="#666666" points="431.38,-26 326.12,-26 326.12,-6 431.38,-6 431.38,-26"/>
<text text-anchor="middle" x="378.75" y="-12.5" font-family="Helvetica,sans-Serif" font-size="10.00">src/httpcommon.cpp</text>
</a>
</g>
</g>
<!-- Node1&#45;&gt;Node5 -->
<g id="edge4_Node000001_Node000005" class="edge">
<title>Node1&#45;&gt;Node5</title>
<g id="a_edge4_Node000001_Node000005"><a xlink:title=" ">
<path fill="none" stroke="#63b8ff" d="M335.46,-59.58C346.59,-48.63 360.49,-34.97 369.49,-26.11"/>
<polygon fill="#63b8ff" stroke="#63b8ff" points="333.04,-57.06 328.36,-66.56 337.94,-62.05 333.04,-57.06"/>
</a>
</g>
</g>
<!-- Node6 -->
<g id="Node000006" class="node">
<title>Node6</title>
<g id="a_Node000006"><a xlink:href="nvhttp_8cpp.html" target="_top" xlink:title="Definitions for the nvhttp (GameStream) server.">
<polygon fill="white" stroke="#666666" points="527.88,-26 449.62,-26 449.62,-6 527.88,-6 527.88,-26"/>
<text text-anchor="middle" x="488.75" y="-12.5" font-family="Helvetica,sans-Serif" font-size="10.00">src/nvhttp.cpp</text>
</a>
</g>
</g>
<!-- Node1&#45;&gt;Node6 -->
<g id="edge5_Node000001_Node000006" class="edge">
<title>Node1&#45;&gt;Node6</title>
<g id="a_edge5_Node000001_Node000006"><a xlink:title=" ">
<path fill="none" stroke="#63b8ff" d="M355.27,-63.84C387.52,-52.52 433.25,-36.47 461.94,-26.41"/>
<polygon fill="#63b8ff" stroke="#63b8ff" points="354.17,-60.51 345.9,-67.12 356.49,-67.12 354.17,-60.51"/>
</a>
</g>
</g>
<!-- Node7 -->
<g id="Node000007" class="node">
<title>Node7</title>
<g id="a_Node000007"><a xlink:href="graphics_8cpp.html" target="_top" xlink:title="Definitions for graphics related functions.">
<polygon fill="white" stroke="#666666" points="637.25,-32 546.25,-32 546.25,0 637.25,0 637.25,-32"/>
<text text-anchor="start" x="554.25" y="-18.5" font-family="Helvetica,sans-Serif" font-size="10.00">src/platform/linux</text>
<text text-anchor="middle" x="591.75" y="-6.5" font-family="Helvetica,sans-Serif" font-size="10.00">/graphics.cpp</text>
</a>
</g>
</g>
<!-- Node1&#45;&gt;Node7 -->
<g id="edge6_Node000001_Node000007" class="edge">
<title>Node1&#45;&gt;Node7</title>
<g id="a_edge6_Node000001_Node000007"><a xlink:title=" ">
<path fill="none" stroke="#63b8ff" d="M374.37,-66.39C418.72,-57.84 481.88,-45.11 536.75,-32 539.73,-31.29 542.8,-30.53 545.89,-29.74"/>
<polygon fill="#63b8ff" stroke="#63b8ff" points="373.88,-62.92 364.72,-68.24 375.2,-69.8 373.88,-62.92"/>
</a>
</g>
</g>
</g>
</svg>
