<?xml version="1.0" encoding="UTF-8" standalone="no"?>
<!DOCTYPE svg PUBLIC "-//W3C//DTD SVG 1.1//EN"
 "http://www.w3.org/Graphics/SVG/1.1/DTD/svg11.dtd">
<!-- Generated by graphviz version 12.2.1 (0)
 -->
<!-- Title: src/globals.h Pages: 1 -->
<!--zoomable 96 -->

<svg id="main" version="1.1" xmlns="http://www.w3.org/2000/svg" xmlns:xlink="http://www.w3.org/1999/xlink" xml:space="preserve" onload="init(evt)">

<style type="text/css"><![CDATA[
.node, .edge {opacity: 0.7;}
.node.selected, .edge.selected {opacity: 1;}
.edge:hover path { stroke: red; }
.edge:hover polygon { stroke: red; fill: red; }
]]></style>

<defs>
  <circle id="rim" cx="0" cy="0" r="7"/>
  <circle id="rim2" cx="0" cy="0" r="3.5"/>
  <g id="zoomPlus">
    <use xlink:href="#rim" fill="#404040"><set attributeName="fill" to="#808080" begin="zoomplus.mouseover" end="zoomplus.mouseout"/></use>
    <path d="M-4,0h8M0,-4v8" fill="none" stroke="white" stroke-width="1.5" pointer-events="none"/>
  </g>
  <g id="zoomMin">
    <use xlink:href="#rim" fill="#404040"><set attributeName="fill" to="#808080" begin="zoomminus.mouseover" end="zoomminus.mouseout"/></use>
    <path d="M-4,0h8" fill="none" stroke="white" stroke-width="1.5" pointer-events="none"/>
  </g>
  <g id="arrowUp" transform="translate(30 24)">
    <use xlink:href="#rim"/>
    <path pointer-events="none" fill="none" stroke="white" stroke-width="1.5" d="M0,-3.0v7 M-2.5,-0.5L0,-3.0L2.5,-0.5"/>
  </g>
  <g id="arrowRight" transform="rotate(90) translate(36 -43)">
    <use xlink:href="#rim"/>
    <path pointer-events="none" fill="none" stroke="white" stroke-width="1.5" d="M0,-3.0v7 M-2.5,-0.5L0,-3.0L2.5,-0.5"/>
  </g>
  <g id="arrowDown" transform="rotate(180) translate(-30 -48)">
    <use xlink:href="#rim"/>
    <path pointer-events="none" fill="none" stroke="white" stroke-width="1.5" d="M0,-3.0v7 M-2.5,-0.5L0,-3.0L2.5,-0.5"/>
  </g>
  <g id="arrowLeft" transform="rotate(270) translate(-36 17)">
    <use xlink:href="#rim"/>
    <path pointer-events="none" fill="none" stroke="white" stroke-width="1.5" d="M0,-3.0v7 M-2.5,-0.5L0,-3.0L2.5,-0.5"/>
  </g>
  <g id="resetDef">
    <use xlink:href="#rim2" fill="#404040"><set attributeName="fill" to="#808080" begin="reset.mouseover" end="reset.mouseout"/></use>
  </g>
</defs>
<script type="application/ecmascript">
var viewWidth = 1430;
var viewHeight = 96;
var sectionId = 'dynsection-1';
</script>
<script type="application/ecmascript" xlink:href="svg.min.js"/>
<svg id="graph" class="graph">
<g id="viewport">
<title>src/globals.h</title>
<!-- Node1 -->
<g id="Node000001" class="node">
<title>Node1</title>
<g id="a_Node000001"><a xlink:title="Declarations for globally accessible variables and functions.">
<polygon fill="#999999" stroke="#666666" points="738,-88 666.5,-88 666.5,-68 738,-68 738,-88"/>
<text text-anchor="middle" x="702.25" y="-74.5" font-family="Helvetica,sans-Serif" font-size="10.00">src/globals.h</text>
</a>
</g>
</g>
<!-- Node2 -->
<g id="Node000002" class="node">
<title>Node2</title>
<g id="a_Node000002"><a xlink:href="audio_8cpp.html" target="_top" xlink:title="Definitions for audio capture and encoding.">
<polygon fill="white" stroke="#666666" points="74.5,-26 0,-26 0,-6 74.5,-6 74.5,-26"/>
<text text-anchor="middle" x="37.25" y="-12.5" font-family="Helvetica,sans-Serif" font-size="10.00">src/audio.cpp</text>
</a>
</g>
</g>
<!-- Node1&#45;&gt;Node2 -->
<g id="edge1_Node000001_Node000002" class="edge">
<title>Node1&#45;&gt;Node2</title>
<g id="a_edge1_Node000001_Node000002"><a xlink:title=" ">
<path fill="none" stroke="#63b8ff" d="M654.89,-77.45C550.56,-77.58 293.48,-73.28 83.25,-32 76.33,-30.64 68.99,-28.56 62.27,-26.37"/>
<polygon fill="#63b8ff" stroke="#63b8ff" points="654.76,-80.95 664.75,-77.42 654.74,-73.95 654.76,-80.95"/>
</a>
</g>
</g>
<!-- Node3 -->
<g id="Node000003" class="node">
<title>Node3</title>
<g id="a_Node000003"><a xlink:href="confighttp_8cpp.html" target="_top" xlink:title="Definitions for the Web UI Config HTTP server.">
<polygon fill="white" stroke="#666666" points="186.25,-26 92.25,-26 92.25,-6 186.25,-6 186.25,-26"/>
<text text-anchor="middle" x="139.25" y="-12.5" font-family="Helvetica,sans-Serif" font-size="10.00">src/confighttp.cpp</text>
</a>
</g>
</g>
<!-- Node1&#45;&gt;Node3 -->
<g id="edge2_Node000001_Node000003" class="edge">
<title>Node1&#45;&gt;Node3</title>
<g id="a_edge2_Node000001_Node000003"><a xlink:title=" ">
<path fill="none" stroke="#63b8ff" d="M654.53,-75.52C564.23,-72.11 362.43,-61.58 195.25,-32 187.22,-30.58 178.67,-28.56 170.72,-26.45"/>
<polygon fill="#63b8ff" stroke="#63b8ff" points="654.37,-79.01 664.49,-75.88 654.63,-72.02 654.37,-79.01"/>
</a>
</g>
</g>
<!-- Node4 -->
<g id="Node000004" class="node">
<title>Node4</title>
<g id="a_Node000004"><a xlink:href="entry__handler_8cpp.html" target="_top" xlink:title="Definitions for entry handling functions.">
<polygon fill="white" stroke="#666666" points="314.12,-26 204.38,-26 204.38,-6 314.12,-6 314.12,-26"/>
<text text-anchor="middle" x="259.25" y="-12.5" font-family="Helvetica,sans-Serif" font-size="10.00">src/entry_handler.cpp</text>
</a>
</g>
</g>
<!-- Node1&#45;&gt;Node4 -->
<g id="edge3_Node000001_Node000004" class="edge">
<title>Node1&#45;&gt;Node4</title>
<g id="a_edge3_Node000001_Node000004"><a xlink:title=" ">
<path fill="none" stroke="#63b8ff" d="M654.9,-73.1C582.91,-66.77 441.78,-52.86 323.25,-32 314.48,-30.46 305.12,-28.46 296.33,-26.43"/>
<polygon fill="#63b8ff" stroke="#63b8ff" points="654.49,-76.57 664.75,-73.95 655.09,-69.6 654.49,-76.57"/>
</a>
</g>
</g>
<!-- Node5 -->
<g id="Node000005" class="node">
<title>Node5</title>
<g id="a_Node000005"><a xlink:href="globals_8cpp.html" target="_top" xlink:title="Definitions for globally accessible variables and functions.">
<polygon fill="white" stroke="#666666" points="414.25,-26 332.25,-26 332.25,-6 414.25,-6 414.25,-26"/>
<text text-anchor="middle" x="373.25" y="-12.5" font-family="Helvetica,sans-Serif" font-size="10.00">src/globals.cpp</text>
</a>
</g>
</g>
<!-- Node1&#45;&gt;Node5 -->
<g id="edge4_Node000001_Node000005" class="edge">
<title>Node1&#45;&gt;Node5</title>
<g id="a_edge4_Node000001_Node000005"><a xlink:title=" ">
<path fill="none" stroke="#63b8ff" d="M655,-71.31C599.22,-64.14 503.83,-50.5 423.25,-32 416.45,-30.44 409.22,-28.46 402.43,-26.45"/>
<polygon fill="#63b8ff" stroke="#63b8ff" points="654.42,-74.76 664.78,-72.55 655.3,-67.82 654.42,-74.76"/>
</a>
</g>
</g>
<!-- Node6 -->
<g id="Node000006" class="node">
<title>Node6</title>
<g id="a_Node000006"><a xlink:href="input_8cpp.html" target="_top" xlink:title="Definitions for gamepad, keyboard, and mouse input handling.">
<polygon fill="white" stroke="#666666" points="504.38,-26 432.12,-26 432.12,-6 504.38,-6 504.38,-26"/>
<text text-anchor="middle" x="468.25" y="-12.5" font-family="Helvetica,sans-Serif" font-size="10.00">src/input.cpp</text>
</a>
</g>
</g>
<!-- Node1&#45;&gt;Node6 -->
<g id="edge5_Node000001_Node000006" class="edge">
<title>Node1&#45;&gt;Node6</title>
<g id="a_edge5_Node000001_Node000006"><a xlink:title=" ">
<path fill="none" stroke="#63b8ff" d="M655.27,-67.02C616.85,-58.57 561.22,-45.68 513.25,-32 507.39,-30.33 501.16,-28.37 495.26,-26.43"/>
<polygon fill="#63b8ff" stroke="#63b8ff" points="654.13,-70.35 664.65,-69.07 655.62,-63.52 654.13,-70.35"/>
</a>
</g>
</g>
<!-- Node7 -->
<g id="Node000007" class="node">
<title>Node7</title>
<g id="a_Node000007"><a xlink:href="main_8cpp.html" target="_top" xlink:title="Definitions for the main entry point for Sunshine.">
<polygon fill="white" stroke="#666666" points="594.38,-26 522.12,-26 522.12,-6 594.38,-6 594.38,-26"/>
<text text-anchor="middle" x="558.25" y="-12.5" font-family="Helvetica,sans-Serif" font-size="10.00">src/main.cpp</text>
</a>
</g>
</g>
<!-- Node1&#45;&gt;Node7 -->
<g id="edge6_Node000001_Node000007" class="edge">
<title>Node1&#45;&gt;Node7</title>
<g id="a_edge6_Node000001_Node000007"><a xlink:title=" ">
<path fill="none" stroke="#63b8ff" d="M669.19,-63.23C642.04,-51.91 604.31,-36.19 580.59,-26.31"/>
<polygon fill="#63b8ff" stroke="#63b8ff" points="667.78,-66.43 678.35,-67.04 670.47,-59.97 667.78,-66.43"/>
</a>
</g>
</g>
<!-- Node8 -->
<g id="Node000008" class="node">
<title>Node8</title>
<g id="a_Node000008"><a xlink:href="nvhttp_8cpp.html" target="_top" xlink:title="Definitions for the nvhttp (GameStream) server.">
<polygon fill="white" stroke="#666666" points="690.38,-26 612.12,-26 612.12,-6 690.38,-6 690.38,-26"/>
<text text-anchor="middle" x="651.25" y="-12.5" font-family="Helvetica,sans-Serif" font-size="10.00">src/nvhttp.cpp</text>
</a>
</g>
</g>
<!-- Node1&#45;&gt;Node8 -->
<g id="edge7_Node000001_Node000008" class="edge">
<title>Node1&#45;&gt;Node8</title>
<g id="a_edge7_Node000001_Node000008"><a xlink:title=" ">
<path fill="none" stroke="#63b8ff" d="M686.89,-58.92C677.68,-48.1 666.37,-34.79 659,-26.11"/>
<polygon fill="#63b8ff" stroke="#63b8ff" points="684.16,-61.12 693.3,-66.47 689.49,-56.59 684.16,-61.12"/>
</a>
</g>
</g>
<!-- Node9 -->
<g id="Node000009" class="node">
<title>Node9</title>
<g id="a_Node000009"><a xlink:href="x11grab_8cpp.html" target="_top" xlink:title="Definitions for x11 capture.">
<polygon fill="white" stroke="#666666" points="799.75,-32 708.75,-32 708.75,0 799.75,0 799.75,-32"/>
<text text-anchor="start" x="716.75" y="-18.5" font-family="Helvetica,sans-Serif" font-size="10.00">src/platform/linux</text>
<text text-anchor="middle" x="754.25" y="-6.5" font-family="Helvetica,sans-Serif" font-size="10.00">/x11grab.cpp</text>
</a>
</g>
</g>
<!-- Node1&#45;&gt;Node9 -->
<g id="edge8_Node000001_Node000009" class="edge">
<title>Node1&#45;&gt;Node9</title>
<g id="a_edge8_Node000001_Node000009"><a xlink:title=" ">
<path fill="none" stroke="#63b8ff" d="M717.76,-59.1C725.21,-50.51 734.02,-40.34 741.13,-32.14"/>
<polygon fill="#63b8ff" stroke="#63b8ff" points="715.27,-56.63 711.37,-66.48 720.56,-61.22 715.27,-56.63"/>
</a>
</g>
</g>
<!-- Node10 -->
<g id="Node000010" class="node">
<title>Node10</title>
<g id="a_Node000010"><a xlink:href="platform_2windows_2input_8cpp.html" target="_top" xlink:title="Definitions for input handling on Windows.">
<polygon fill="white" stroke="#666666" points="926.75,-32 817.75,-32 817.75,0 926.75,0 926.75,-32"/>
<text text-anchor="start" x="825.75" y="-18.5" font-family="Helvetica,sans-Serif" font-size="10.00">src/platform/windows</text>
<text text-anchor="middle" x="872.25" y="-6.5" font-family="Helvetica,sans-Serif" font-size="10.00">/input.cpp</text>
</a>
</g>
</g>
<!-- Node1&#45;&gt;Node10 -->
<g id="edge9_Node000001_Node000010" class="edge">
<title>Node1&#45;&gt;Node10</title>
<g id="a_edge9_Node000001_Node000010"><a xlink:title=" ">
<path fill="none" stroke="#63b8ff" d="M739.44,-63.87C765.63,-54.63 800.79,-42.22 828.36,-32.49"/>
<polygon fill="#63b8ff" stroke="#63b8ff" points="738.5,-60.49 730.24,-67.12 740.83,-67.09 738.5,-60.49"/>
</a>
</g>
</g>
<!-- Node11 -->
<g id="Node000011" class="node">
<title>Node11</title>
<g id="a_Node000011"><a xlink:href="windows_2misc_8cpp.html" target="_top" xlink:title="Miscellaneous definitions for Windows.">
<polygon fill="white" stroke="#666666" points="1053.75,-32 944.75,-32 944.75,0 1053.75,0 1053.75,-32"/>
<text text-anchor="start" x="952.75" y="-18.5" font-family="Helvetica,sans-Serif" font-size="10.00">src/platform/windows</text>
<text text-anchor="middle" x="999.25" y="-6.5" font-family="Helvetica,sans-Serif" font-size="10.00">/misc.cpp</text>
</a>
</g>
</g>
<!-- Node1&#45;&gt;Node11 -->
<g id="edge10_Node000001_Node000011" class="edge">
<title>Node1&#45;&gt;Node11</title>
<g id="a_edge10_Node000001_Node000011"><a xlink:title=" ">
<path fill="none" stroke="#63b8ff" d="M749.56,-68.53C796.91,-59.9 871.8,-45.86 936.25,-32 938.89,-31.43 941.59,-30.84 944.31,-30.23"/>
<polygon fill="#63b8ff" stroke="#63b8ff" points="749.13,-65.05 739.92,-70.28 750.38,-71.94 749.13,-65.05"/>
</a>
</g>
</g>
<!-- Node12 -->
<g id="Node000012" class="node">
<title>Node12</title>
<g id="a_Node000012"><a xlink:href="rtsp_8cpp.html" target="_top" xlink:title="Definitions for RTSP streaming.">
<polygon fill="white" stroke="#666666" points="1139.12,-26 1071.38,-26 1071.38,-6 1139.12,-6 1139.12,-26"/>
<text text-anchor="middle" x="1105.25" y="-12.5" font-family="Helvetica,sans-Serif" font-size="10.00">src/rtsp.cpp</text>
</a>
</g>
</g>
<!-- Node1&#45;&gt;Node12 -->
<g id="edge11_Node000001_Node000012" class="edge">
<title>Node1&#45;&gt;Node12</title>
<g id="a_edge11_Node000001_Node000012"><a xlink:title=" ">
<path fill="none" stroke="#63b8ff" d="M749.74,-74.4C819.34,-69.85 952.74,-58.28 1063.25,-32 1069.28,-30.57 1075.64,-28.56 1081.54,-26.49"/>
<polygon fill="#63b8ff" stroke="#63b8ff" points="749.59,-70.9 739.83,-75.03 750.04,-77.89 749.59,-70.9"/>
</a>
</g>
</g>
<!-- Node13 -->
<g id="Node000013" class="node">
<title>Node13</title>
<g id="a_Node000013"><a xlink:href="stream_8cpp.html" target="_top" xlink:title="Definitions for the streaming protocols.">
<polygon fill="white" stroke="#666666" points="1238.88,-26 1157.62,-26 1157.62,-6 1238.88,-6 1238.88,-26"/>
<text text-anchor="middle" x="1198.25" y="-12.5" font-family="Helvetica,sans-Serif" font-size="10.00">src/stream.cpp</text>
</a>
</g>
</g>
<!-- Node1&#45;&gt;Node13 -->
<g id="edge12_Node000001_Node000013" class="edge">
<title>Node1&#45;&gt;Node13</title>
<g id="a_edge12_Node000001_Node000013"><a xlink:title=" ">
<path fill="none" stroke="#63b8ff" d="M749.87,-75.18C831.91,-71.38 1004.92,-60.46 1148.25,-32 1155.45,-30.57 1163.1,-28.54 1170.19,-26.44"/>
<polygon fill="#63b8ff" stroke="#63b8ff" points="749.78,-71.68 739.95,-75.62 750.1,-78.67 749.78,-71.68"/>
</a>
</g>
</g>
<!-- Node14 -->
<g id="Node000014" class="node">
<title>Node14</title>
<g id="a_Node000014"><a xlink:href="upnp_8cpp.html" target="_top" xlink:title="Definitions for UPnP port mapping.">
<polygon fill="white" stroke="#666666" points="1329.38,-26 1257.12,-26 1257.12,-6 1329.38,-6 1329.38,-26"/>
<text text-anchor="middle" x="1293.25" y="-12.5" font-family="Helvetica,sans-Serif" font-size="10.00">src/upnp.cpp</text>
</a>
</g>
</g>
<!-- Node1&#45;&gt;Node14 -->
<g id="edge13_Node000001_Node000014" class="edge">
<title>Node1&#45;&gt;Node14</title>
<g id="a_edge13_Node000001_Node000014"><a xlink:title=" ">
<path fill="none" stroke="#63b8ff" d="M749.72,-76.89C845.15,-75.83 1066.67,-69.18 1248.25,-32 1254.87,-30.65 1261.86,-28.62 1268.31,-26.49"/>
<polygon fill="#63b8ff" stroke="#63b8ff" points="749.93,-73.39 739.96,-76.98 749.99,-80.39 749.93,-73.39"/>
</a>
</g>
</g>
<!-- Node15 -->
<g id="Node000015" class="node">
<title>Node15</title>
<g id="a_Node000015"><a xlink:href="video_8cpp.html" target="_top" xlink:title="Definitions for video.">
<polygon fill="white" stroke="#666666" points="1421.5,-26 1347,-26 1347,-6 1421.5,-6 1421.5,-26"/>
<text text-anchor="middle" x="1384.25" y="-12.5" font-family="Helvetica,sans-Serif" font-size="10.00">src/video.cpp</text>
</a>
</g>
</g>
<!-- Node1&#45;&gt;Node15 -->
<g id="edge14_Node000001_Node000015" class="edge">
<title>Node1&#45;&gt;Node15</title>
<g id="a_edge14_Node000001_Node000015"><a xlink:title=" ">
<path fill="none" stroke="#63b8ff" d="M749.42,-77.58C855.64,-78.03 1121.23,-74.4 1338.25,-32 1345.18,-30.65 1352.51,-28.57 1359.24,-26.38"/>
<polygon fill="#63b8ff" stroke="#63b8ff" points="749.7,-74.08 739.68,-77.52 749.65,-81.08 749.7,-74.08"/>
</a>
</g>
</g>
</g>
</svg>

<g id="navigator" transform="translate(0 0)" fill="#404254">
  <rect fill="#f2f5e9" fill-opacity="0.5" stroke="#606060" stroke-width=".5" x="0" y="0" width="60" height="60"/>
  <use id="zoomplus" xlink:href="#zoomPlus" x="17" y="9" onmousedown="handleZoom(evt,'in')"/>
  <use id="zoomminus" xlink:href="#zoomMin" x="42" y="9" onmousedown="handleZoom(evt,'out')"/>
  <use id="reset" xlink:href="#resetDef" x="30" y="36" onmousedown="handleReset()"/>
   <use id="arrowup" xlink:href="#arrowUp" x="0" y="0" onmousedown="handlePan(0,-1)"/>
  <use id="arrowright" xlink:href="#arrowRight" x="0" y="0" onmousedown="handlePan(1,0)"/>
  <use id="arrowdown" xlink:href="#arrowDown" x="0" y="0" onmousedown="handlePan(0,1)"/>
  <use id="arrowleft" xlink:href="#arrowLeft" x="0" y="0" onmousedown="handlePan(-1,0)"/>
</g>
<svg viewBox="0 0 15 15" width="100%" height="30px" preserveAspectRatio="xMaxYMin meet">
 <g id="arrow_out" transform="scale(0.3 0.3)">
  <a xlink:href="globals_8h__dep__incl_org.svg" target="_base">
   <rect id="button" ry="5" rx="5" y="6" x="6" height="38" width="38"
        fill="#f2f5e9" fill-opacity="0.5" stroke="#606060" stroke-width="1.0"/>
   <path id="arrow"
     d="M 11.500037,31.436501 C 11.940474,20.09759 22.043105,11.32322 32.158766,21.979434 L 37.068811,17.246167 C 37.068811,17.246167 37.088388,32 37.088388,32 L 22.160133,31.978069 C 22.160133,31.978069 26.997745,27.140456 26.997745,27.140456 C 18.528582,18.264221 13.291696,25.230495 11.500037,31.436501 z"
     style="fill:#404040;"/>
  </a>
 </g>
</svg>

<style type='text/css'>
<![CDATA[
[data-mouse-over-selected='false'] { opacity: 0.7; }
[data-mouse-over-selected='true']  { opacity: 1.0; }
]]>
</style>
<script type="application/ecmascript"><![CDATA[
document.addEventListener('DOMContentLoaded', (event) => {
  highlightEdges();
  highlightAdjacentNodes();
});
]]></script>
</svg>
