<?xml version="1.0" encoding="UTF-8" standalone="no"?>
<!DOCTYPE svg PUBLIC "-//W3C//DTD SVG 1.1//EN"
 "http://www.w3.org/Graphics/SVG/1.1/DTD/svg11.dtd">
<!-- Generated by graphviz version 12.2.1 (0)
 -->
<!-- Title: src/globals.h Pages: 1 -->
<!--zoomable 320 -->

<svg id="main" version="1.1" xmlns="http://www.w3.org/2000/svg" xmlns:xlink="http://www.w3.org/1999/xlink" xml:space="preserve" onload="init(evt)">

<style type="text/css"><![CDATA[
.node, .edge {opacity: 0.7;}
.node.selected, .edge.selected {opacity: 1;}
.edge:hover path { stroke: red; }
.edge:hover polygon { stroke: red; fill: red; }
]]></style>

<defs>
  <circle id="rim" cx="0" cy="0" r="7"/>
  <circle id="rim2" cx="0" cy="0" r="3.5"/>
  <g id="zoomPlus">
    <use xlink:href="#rim" fill="#404040"><set attributeName="fill" to="#808080" begin="zoomplus.mouseover" end="zoomplus.mouseout"/></use>
    <path d="M-4,0h8M0,-4v8" fill="none" stroke="white" stroke-width="1.5" pointer-events="none"/>
  </g>
  <g id="zoomMin">
    <use xlink:href="#rim" fill="#404040"><set attributeName="fill" to="#808080" begin="zoomminus.mouseover" end="zoomminus.mouseout"/></use>
    <path d="M-4,0h8" fill="none" stroke="white" stroke-width="1.5" pointer-events="none"/>
  </g>
  <g id="arrowUp" transform="translate(30 24)">
    <use xlink:href="#rim"/>
    <path pointer-events="none" fill="none" stroke="white" stroke-width="1.5" d="M0,-3.0v7 M-2.5,-0.5L0,-3.0L2.5,-0.5"/>
  </g>
  <g id="arrowRight" transform="rotate(90) translate(36 -43)">
    <use xlink:href="#rim"/>
    <path pointer-events="none" fill="none" stroke="white" stroke-width="1.5" d="M0,-3.0v7 M-2.5,-0.5L0,-3.0L2.5,-0.5"/>
  </g>
  <g id="arrowDown" transform="rotate(180) translate(-30 -48)">
    <use xlink:href="#rim"/>
    <path pointer-events="none" fill="none" stroke="white" stroke-width="1.5" d="M0,-3.0v7 M-2.5,-0.5L0,-3.0L2.5,-0.5"/>
  </g>
  <g id="arrowLeft" transform="rotate(270) translate(-36 17)">
    <use xlink:href="#rim"/>
    <path pointer-events="none" fill="none" stroke="white" stroke-width="1.5" d="M0,-3.0v7 M-2.5,-0.5L0,-3.0L2.5,-0.5"/>
  </g>
  <g id="resetDef">
    <use xlink:href="#rim2" fill="#404040"><set attributeName="fill" to="#808080" begin="reset.mouseover" end="reset.mouseout"/></use>
  </g>
</defs>
<script type="application/ecmascript">
var viewWidth = 972;
var viewHeight = 320;
var sectionId = 'dynsection-0';
</script>
<script type="application/ecmascript" xlink:href="svg.min.js"/>
<svg id="graph" class="graph">
<g id="viewport">
<title>src/globals.h</title>
<!-- Node1 -->
<g id="Node000001" class="node">
<title>Node1</title>
<g id="a_Node000001"><a xlink:title="Declarations for globally accessible variables and functions.">
<polygon fill="#999999" stroke="#666666" points="446.5,-312 375,-312 375,-292 446.5,-292 446.5,-312"/>
<text text-anchor="middle" x="410.75" y="-298.5" font-family="Helvetica,sans-Serif" font-size="10.00">src/globals.h</text>
</a>
</g>
</g>
<!-- Node2 -->
<g id="Node000002" class="node">
<title>Node2</title>
<g id="a_Node000002"><a xlink:href="entry__handler_8h.html" target="_top" xlink:title="Declarations for entry handling functions.">
<polygon fill="white" stroke="#666666" points="275.12,-256 192.38,-256 192.38,-236 275.12,-236 275.12,-256"/>
<text text-anchor="middle" x="233.75" y="-242.5" font-family="Helvetica,sans-Serif" font-size="10.00">entry_handler.h</text>
</a>
</g>
</g>
<!-- Node1&#45;&gt;Node2 -->
<g id="edge1_Node000001_Node000002" class="edge">
<title>Node1&#45;&gt;Node2</title>
<g id="a_edge1_Node000001_Node000002"><a xlink:title=" ">
<path fill="none" stroke="#63b8ff" d="M379.92,-291.59C351.04,-282.78 307.64,-269.54 275.63,-259.78"/>
<polygon fill="#63b8ff" stroke="#63b8ff" points="276.86,-256.49 266.27,-256.92 274.81,-263.19 276.86,-256.49"/>
</a>
</g>
</g>
<!-- Node5 -->
<g id="Node000005" class="node">
<title>Node5</title>
<g id="a_Node000005"><a xlink:href="thread__pool_8h.html" target="_top" xlink:title="Declarations for the thread pool system.">
<polygon fill="white" stroke="#666666" points="448,-194 373.5,-194 373.5,-174 448,-174 448,-194"/>
<text text-anchor="middle" x="410.75" y="-180.5" font-family="Helvetica,sans-Serif" font-size="10.00">thread_pool.h</text>
</a>
</g>
</g>
<!-- Node1&#45;&gt;Node5 -->
<g id="edge39_Node000001_Node000005" class="edge">
<title>Node1&#45;&gt;Node5</title>
<g id="a_edge39_Node000001_Node000005"><a xlink:title=" ">
<path fill="none" stroke="#63b8ff" d="M410.75,-291.51C410.75,-272.81 410.75,-230.82 410.75,-205.51"/>
<polygon fill="#63b8ff" stroke="#63b8ff" points="414.25,-205.81 410.75,-195.81 407.25,-205.81 414.25,-205.81"/>
</a>
</g>
</g>
<!-- Node28 -->
<g id="Node000028" class="node">
<title>Node28</title>
<g id="a_Node000028"><a xlink:href="nvprefs__interface_8h.html" target="_top" xlink:title="Declarations for nvidia preferences interface.">
<polygon fill="white" stroke="#666666" points="793.62,-200 665.88,-200 665.88,-168 793.62,-168 793.62,-200"/>
<text text-anchor="start" x="673.88" y="-186.5" font-family="Helvetica,sans-Serif" font-size="10.00">platform/windows/nvprefs</text>
<text text-anchor="middle" x="729.75" y="-174.5" font-family="Helvetica,sans-Serif" font-size="10.00">/nvprefs_interface.h</text>
</a>
</g>
</g>
<!-- Node1&#45;&gt;Node28 -->
<g id="edge40_Node000001_Node000028" class="edge">
<title>Node1&#45;&gt;Node28</title>
<g id="a_edge40_Node000001_Node000028"><a xlink:title=" ">
<path fill="none" stroke="#63b8ff" d="M436.86,-291.51C489.12,-272.5 607.5,-229.46 676.7,-204.29"/>
<polygon fill="#63b8ff" stroke="#63b8ff" points="677.74,-207.64 685.94,-200.93 675.35,-201.06 677.74,-207.64"/>
</a>
</g>
</g>
<!-- Node3 -->
<g id="Node000003" class="node">
<title>Node3</title>
<g id="a_Node000003"><a xlink:title=" ">
<polygon fill="#e0e0e0" stroke="#999999" points="82.38,-76 37.12,-76 37.12,-56 82.38,-56 82.38,-76"/>
<text text-anchor="middle" x="59.75" y="-62.5" font-family="Helvetica,sans-Serif" font-size="10.00">atomic</text>
</a>
</g>
</g>
<!-- Node2&#45;&gt;Node3 -->
<g id="edge2_Node000002_Node000003" class="edge">
<title>Node2&#45;&gt;Node3</title>
<g id="a_edge2_Node000002_Node000003"><a xlink:title=" ">
<path fill="none" stroke="#63b8ff" d="M224.88,-235.93C197.31,-207.73 112.79,-121.26 76.54,-84.18"/>
<polygon fill="#63b8ff" stroke="#63b8ff" points="79.36,-82.05 69.87,-77.35 74.35,-86.95 79.36,-82.05"/>
</a>
</g>
</g>
<!-- Node4 -->
<g id="Node000004" class="node">
<title>Node4</title>
<g id="a_Node000004"><a xlink:title=" ">
<polygon fill="#e0e0e0" stroke="#999999" points="65.5,-20 0,-20 0,0 65.5,0 65.5,-20"/>
<text text-anchor="middle" x="32.75" y="-6.5" font-family="Helvetica,sans-Serif" font-size="10.00">string_view</text>
</a>
</g>
</g>
<!-- Node2&#45;&gt;Node4 -->
<g id="edge3_Node000002_Node000004" class="edge">
<title>Node2&#45;&gt;Node4</title>
<g id="a_edge3_Node000002_Node000004"><a xlink:title=" ">
<path fill="none" stroke="#63b8ff" d="M211.68,-235.56C166.27,-214.69 63.62,-159.78 27.75,-76 21.68,-61.82 23.49,-44.32 26.51,-31.05"/>
<polygon fill="#63b8ff" stroke="#63b8ff" points="29.8,-32.3 29.04,-21.73 23.04,-30.46 29.8,-32.3"/>
</a>
</g>
</g>
<!-- Node2&#45;&gt;Node5 -->
<g id="edge4_Node000002_Node000005" class="edge">
<title>Node2&#45;&gt;Node5</title>
<g id="a_edge4_Node000002_Node000005"><a xlink:title=" ">
<path fill="none" stroke="#63b8ff" d="M261.41,-235.62C291.19,-225.53 338.81,-209.39 372.25,-198.05"/>
<polygon fill="#63b8ff" stroke="#63b8ff" points="373.22,-201.42 381.56,-194.89 370.97,-194.79 373.22,-201.42"/>
</a>
</g>
</g>
<!-- Node25 -->
<g id="Node000025" class="node">
<title>Node25</title>
<g id="a_Node000025"><a xlink:href="thread__safe_8h.html" target="_top" xlink:title="Declarations for thread&#45;safe data structures.">
<polygon fill="white" stroke="#666666" points="271.38,-132 196.12,-132 196.12,-112 271.38,-112 271.38,-132"/>
<text text-anchor="middle" x="233.75" y="-118.5" font-family="Helvetica,sans-Serif" font-size="10.00">thread_safe.h</text>
</a>
</g>
</g>
<!-- Node2&#45;&gt;Node25 -->
<g id="edge30_Node000002_Node000025" class="edge">
<title>Node2&#45;&gt;Node25</title>
<g id="a_edge30_Node000002_Node000025"><a xlink:title=" ">
<path fill="none" stroke="#63b8ff" d="M233.75,-235.83C233.75,-216.4 233.75,-170.67 233.75,-143.77"/>
<polygon fill="#63b8ff" stroke="#63b8ff" points="237.25,-143.79 233.75,-133.79 230.25,-143.79 237.25,-143.79"/>
</a>
</g>
</g>
<!-- Node6 -->
<g id="Node000006" class="node">
<title>Node6</title>
<g id="a_Node000006"><a xlink:title=" ">
<polygon fill="#e0e0e0" stroke="#999999" points="432.25,-132 389.25,-132 389.25,-112 432.25,-112 432.25,-132"/>
<text text-anchor="middle" x="410.75" y="-118.5" font-family="Helvetica,sans-Serif" font-size="10.00">thread</text>
</a>
</g>
</g>
<!-- Node5&#45;&gt;Node6 -->
<g id="edge5_Node000005_Node000006" class="edge">
<title>Node5&#45;&gt;Node6</title>
<g id="a_edge5_Node000005_Node000006"><a xlink:title=" ">
<path fill="none" stroke="#63b8ff" d="M410.75,-173.62C410.75,-165.56 410.75,-153.65 410.75,-143.41"/>
<polygon fill="#63b8ff" stroke="#63b8ff" points="414.25,-143.63 410.75,-133.63 407.25,-143.63 414.25,-143.63"/>
</a>
</g>
</g>
<!-- Node7 -->
<g id="Node000007" class="node">
<title>Node7</title>
<g id="a_Node000007"><a xlink:href="task__pool_8h.html" target="_top" xlink:title="Declarations for the task pool system.">
<polygon fill="white" stroke="#666666" points="638.88,-132 572.62,-132 572.62,-112 638.88,-112 638.88,-132"/>
<text text-anchor="middle" x="605.75" y="-118.5" font-family="Helvetica,sans-Serif" font-size="10.00">task_pool.h</text>
</a>
</g>
</g>
<!-- Node5&#45;&gt;Node7 -->
<g id="edge6_Node000005_Node000007" class="edge">
<title>Node5&#45;&gt;Node7</title>
<g id="a_edge6_Node000005_Node000007"><a xlink:title=" ">
<path fill="none" stroke="#63b8ff" d="M441.22,-173.62C474.32,-163.44 527.4,-147.11 564.29,-135.76"/>
<polygon fill="#63b8ff" stroke="#63b8ff" points="565.2,-139.14 573.73,-132.85 563.14,-132.45 565.2,-139.14"/>
</a>
</g>
</g>
<!-- Node8 -->
<g id="Node000008" class="node">
<title>Node8</title>
<g id="a_Node000008"><a xlink:title=" ">
<polygon fill="#e0e0e0" stroke="#999999" points="779.38,-76 734.12,-76 734.12,-56 779.38,-56 779.38,-76"/>
<text text-anchor="middle" x="756.75" y="-62.5" font-family="Helvetica,sans-Serif" font-size="10.00">chrono</text>
</a>
</g>
</g>
<!-- Node7&#45;&gt;Node8 -->
<g id="edge7_Node000007_Node000008" class="edge">
<title>Node7&#45;&gt;Node8</title>
<g id="a_edge7_Node000007_Node000008"><a xlink:title=" ">
<path fill="none" stroke="#63b8ff" d="M632.05,-111.59C657.3,-102.56 695.56,-88.88 723.03,-79.06"/>
<polygon fill="#63b8ff" stroke="#63b8ff" points="724.05,-82.41 732.29,-75.75 721.69,-75.82 724.05,-82.41"/>
</a>
</g>
</g>
<!-- Node9 -->
<g id="Node000009" class="node">
<title>Node9</title>
<g id="a_Node000009"><a xlink:title=" ">
<polygon fill="#e0e0e0" stroke="#999999" points="542.88,-76 500.62,-76 500.62,-56 542.88,-56 542.88,-76"/>
<text text-anchor="middle" x="521.75" y="-62.5" font-family="Helvetica,sans-Serif" font-size="10.00">deque</text>
</a>
</g>
</g>
<!-- Node7&#45;&gt;Node9 -->
<g id="edge8_Node000007_Node000009" class="edge">
<title>Node7&#45;&gt;Node9</title>
<g id="a_edge8_Node000007_Node000009"><a xlink:title=" ">
<path fill="none" stroke="#63b8ff" d="M591.12,-111.59C578.67,-103.59 560.53,-91.93 545.93,-82.54"/>
<polygon fill="#63b8ff" stroke="#63b8ff" points="548.07,-79.76 537.77,-77.3 544.29,-85.65 548.07,-79.76"/>
</a>
</g>
</g>
<!-- Node10 -->
<g id="Node000010" class="node">
<title>Node10</title>
<g id="a_Node000010"><a xlink:title=" ">
<polygon fill="#e0e0e0" stroke="#999999" points="342.75,-76 284.75,-76 284.75,-56 342.75,-56 342.75,-76"/>
<text text-anchor="middle" x="313.75" y="-62.5" font-family="Helvetica,sans-Serif" font-size="10.00">functional</text>
</a>
</g>
</g>
<!-- Node7&#45;&gt;Node10 -->
<g id="edge9_Node000007_Node000010" class="edge">
<title>Node7&#45;&gt;Node10</title>
<g id="a_edge9_Node000007_Node000010"><a xlink:title=" ">
<path fill="none" stroke="#63b8ff" d="M572.27,-115.25C524.41,-106.96 433.71,-91.01 356.75,-76 355.77,-75.81 354.77,-75.61 353.77,-75.41"/>
<polygon fill="#63b8ff" stroke="#63b8ff" points="354.85,-72.06 344.36,-73.51 353.46,-78.92 354.85,-72.06"/>
</a>
</g>
</g>
<!-- Node11 -->
<g id="Node000011" class="node">
<title>Node11</title>
<g id="a_Node000011"><a xlink:title=" ">
<polygon fill="#e0e0e0" stroke="#999999" points="602.12,-76 561.38,-76 561.38,-56 602.12,-56 602.12,-76"/>
<text text-anchor="middle" x="581.75" y="-62.5" font-family="Helvetica,sans-Serif" font-size="10.00">future</text>
</a>
</g>
</g>
<!-- Node7&#45;&gt;Node11 -->
<g id="edge10_Node000007_Node000011" class="edge">
<title>Node7&#45;&gt;Node11</title>
<g id="a_edge10_Node000007_Node000011"><a xlink:title=" ">
<path fill="none" stroke="#63b8ff" d="M601.57,-111.59C598.51,-104.7 594.24,-95.1 590.45,-86.57"/>
<polygon fill="#63b8ff" stroke="#63b8ff" points="593.76,-85.4 586.5,-77.68 587.36,-88.24 593.76,-85.4"/>
</a>
</g>
</g>
<!-- Node12 -->
<g id="Node000012" class="node">
<title>Node12</title>
<g id="a_Node000012"><a xlink:title=" ">
<polygon fill="#e0e0e0" stroke="#999999" points="263.25,-20 220.25,-20 220.25,0 263.25,0 263.25,-20"/>
<text text-anchor="middle" x="241.75" y="-6.5" font-family="Helvetica,sans-Serif" font-size="10.00">mutex</text>
</a>
</g>
</g>
<!-- Node7&#45;&gt;Node12 -->
<g id="edge11_Node000007_Node000012" class="edge">
<title>Node7&#45;&gt;Node12</title>
<g id="a_edge11_Node000007_Node000012"><a xlink:title=" ">
<path fill="none" stroke="#63b8ff" d="M572.4,-116.99C529.28,-111.15 452.29,-98.47 389.75,-76 371.79,-69.55 369.05,-64.07 351.75,-56 325.99,-43.99 296.11,-31.88 274,-23.25"/>
<polygon fill="#63b8ff" stroke="#63b8ff" points="275.51,-20.08 264.93,-19.74 272.99,-26.61 275.51,-20.08"/>
</a>
</g>
</g>
<!-- Node13 -->
<g id="Node000013" class="node">
<title>Node13</title>
<g id="a_Node000013"><a xlink:title=" ">
<polygon fill="#e0e0e0" stroke="#999999" points="656.62,-20 606.88,-20 606.88,0 656.62,0 656.62,-20"/>
<text text-anchor="middle" x="631.75" y="-6.5" font-family="Helvetica,sans-Serif" font-size="10.00">optional</text>
</a>
</g>
</g>
<!-- Node7&#45;&gt;Node13 -->
<g id="edge12_Node000007_Node000013" class="edge">
<title>Node7&#45;&gt;Node13</title>
<g id="a_edge12_Node000007_Node000013"><a xlink:title=" ">
<path fill="none" stroke="#63b8ff" d="M617.19,-111.65C626.34,-103.38 638.48,-90.4 643.75,-76 649.12,-61.31 645.37,-43.84 640.69,-30.71"/>
<polygon fill="#63b8ff" stroke="#63b8ff" points="643.95,-29.43 636.94,-21.48 637.46,-32.07 643.95,-29.43"/>
</a>
</g>
</g>
<!-- Node14 -->
<g id="Node000014" class="node">
<title>Node14</title>
<g id="a_Node000014"><a xlink:title=" ">
<polygon fill="#e0e0e0" stroke="#999999" points="736.62,-20 674.88,-20 674.88,0 736.62,0 736.62,-20"/>
<text text-anchor="middle" x="705.75" y="-6.5" font-family="Helvetica,sans-Serif" font-size="10.00">type_traits</text>
</a>
</g>
</g>
<!-- Node7&#45;&gt;Node14 -->
<g id="edge13_Node000007_Node000014" class="edge">
<title>Node7&#45;&gt;Node14</title>
<g id="a_edge13_Node000007_Node000014"><a xlink:title=" ">
<path fill="none" stroke="#63b8ff" d="M618.28,-111.76C629.51,-103.16 646.13,-89.65 658.75,-76 672.03,-61.64 684.89,-43.47 693.79,-30"/>
<polygon fill="#63b8ff" stroke="#63b8ff" points="696.7,-31.93 699.19,-21.63 690.82,-28.13 696.7,-31.93"/>
</a>
</g>
</g>
<!-- Node15 -->
<g id="Node000015" class="node">
<title>Node15</title>
<g id="a_Node000015"><a xlink:title=" ">
<polygon fill="#e0e0e0" stroke="#999999" points="878.38,-20 839.12,-20 839.12,0 878.38,0 878.38,-20"/>
<text text-anchor="middle" x="858.75" y="-6.5" font-family="Helvetica,sans-Serif" font-size="10.00">utility</text>
</a>
</g>
</g>
<!-- Node7&#45;&gt;Node15 -->
<g id="edge14_Node000007_Node000015" class="edge">
<title>Node7&#45;&gt;Node15</title>
<g id="a_edge14_Node000007_Node000015"><a xlink:title=" ">
<path fill="none" stroke="#63b8ff" d="M639.29,-117.87C677.44,-113.19 740.66,-101.94 788.75,-76 810.78,-64.11 831.17,-43.65 844.19,-28.85"/>
<polygon fill="#63b8ff" stroke="#63b8ff" points="846.84,-31.14 850.65,-21.25 841.51,-26.6 846.84,-31.14"/>
</a>
</g>
</g>
<!-- Node16 -->
<g id="Node000016" class="node">
<title>Node16</title>
<g id="a_Node000016"><a xlink:title=" ">
<polygon fill="#e0e0e0" stroke="#999999" points="589.25,-20 546.25,-20 546.25,0 589.25,0 589.25,-20"/>
<text text-anchor="middle" x="567.75" y="-6.5" font-family="Helvetica,sans-Serif" font-size="10.00">vector</text>
</a>
</g>
</g>
<!-- Node7&#45;&gt;Node16 -->
<g id="edge15_Node000007_Node000016" class="edge">
<title>Node7&#45;&gt;Node16</title>
<g id="a_edge15_Node000007_Node000016"><a xlink:title=" ">
<path fill="none" stroke="#63b8ff" d="M608.95,-111.78C612.9,-98.82 618.25,-74.7 610.75,-56 606.38,-45.1 597.97,-35.34 589.74,-27.72"/>
<polygon fill="#63b8ff" stroke="#63b8ff" points="592.11,-25.15 582.23,-21.33 587.57,-30.47 592.11,-25.15"/>
</a>
</g>
</g>
<!-- Node17 -->
<g id="Node000017" class="node">
<title>Node17</title>
<g id="a_Node000017"><a xlink:href="move__by__copy_8h.html" target="_top" xlink:title="Declarations for the MoveByCopy utility class.">
<polygon fill="white" stroke="#666666" points="963.5,-76 874,-76 874,-56 963.5,-56 963.5,-76"/>
<text text-anchor="middle" x="918.75" y="-62.5" font-family="Helvetica,sans-Serif" font-size="10.00">move_by_copy.h</text>
</a>
</g>
</g>
<!-- Node7&#45;&gt;Node17 -->
<g id="edge16_Node000007_Node000017" class="edge">
<title>Node7&#45;&gt;Node17</title>
<g id="a_edge16_Node000007_Node000017"><a xlink:title=" ">
<path fill="none" stroke="#63b8ff" d="M639.25,-115.22C692.58,-106.02 797.41,-87.93 862.43,-76.72"/>
<polygon fill="#63b8ff" stroke="#63b8ff" points="862.94,-80.18 872.2,-75.03 861.75,-73.28 862.94,-80.18"/>
</a>
</g>
</g>
<!-- Node18 -->
<g id="Node000018" class="node">
<title>Node18</title>
<g id="a_Node000018"><a xlink:href="utility_8h.html" target="_top" xlink:title="Declarations for utility functions.">
<polygon fill="white" stroke="#666666" points="445.12,-76 398.38,-76 398.38,-56 445.12,-56 445.12,-76"/>
<text text-anchor="middle" x="421.75" y="-62.5" font-family="Helvetica,sans-Serif" font-size="10.00">utility.h</text>
</a>
</g>
</g>
<!-- Node7&#45;&gt;Node18 -->
<g id="edge18_Node000007_Node000018" class="edge">
<title>Node7&#45;&gt;Node18</title>
<g id="a_edge18_Node000007_Node000018"><a xlink:title=" ">
<path fill="none" stroke="#63b8ff" d="M573.7,-111.59C540.86,-101.96 489.97,-87.02 456.26,-77.13"/>
<polygon fill="#63b8ff" stroke="#63b8ff" points="457.57,-73.87 446.99,-74.41 455.6,-80.58 457.57,-73.87"/>
</a>
</g>
</g>
<!-- Node17&#45;&gt;Node15 -->
<g id="edge17_Node000017_Node000015" class="edge">
<title>Node17&#45;&gt;Node15</title>
<g id="a_edge17_Node000017_Node000015"><a xlink:title=" ">
<path fill="none" stroke="#63b8ff" d="M908.3,-55.59C899.78,-47.93 887.54,-36.91 877.36,-27.75"/>
<polygon fill="#63b8ff" stroke="#63b8ff" points="879.98,-25.4 870.21,-21.31 875.3,-30.6 879.98,-25.4"/>
</a>
</g>
</g>
<!-- Node18&#45;&gt;Node4 -->
<g id="edge26_Node000018_Node000004" class="edge">
<title>Node18&#45;&gt;Node4</title>
<g id="a_edge26_Node000018_Node000004"><a xlink:title=" ">
<path fill="none" stroke="#63b8ff" d="M397.96,-61.95C329.01,-53.08 131.03,-27.6 77.04,-19.76"/>
<polygon fill="#63b8ff" stroke="#63b8ff" points="77.77,-16.33 67.35,-18.27 76.71,-23.24 77.77,-16.33"/>
</a>
</g>
</g>
<!-- Node18&#45;&gt;Node12 -->
<g id="edge22_Node000018_Node000012" class="edge">
<title>Node18&#45;&gt;Node12</title>
<g id="a_edge22_Node000018_Node000012"><a xlink:title=" ">
<path fill="none" stroke="#63b8ff" d="M398.22,-57.94C366.57,-48.45 310.16,-31.52 274.42,-20.8"/>
<polygon fill="#63b8ff" stroke="#63b8ff" points="275.63,-17.51 265.05,-17.99 273.62,-24.21 275.63,-17.51"/>
</a>
</g>
</g>
<!-- Node18&#45;&gt;Node13 -->
<g id="edge23_Node000018_Node000013" class="edge">
<title>Node18&#45;&gt;Node13</title>
<g id="a_edge23_Node000018_Node000013"><a xlink:title=" ">
<path fill="none" stroke="#63b8ff" d="M445.55,-59.09C477.57,-51.11 536.57,-36.29 595.53,-20.82"/>
<polygon fill="#63b8ff" stroke="#63b8ff" points="596.29,-24.24 605.07,-18.31 594.51,-17.47 596.29,-24.24"/>
</a>
</g>
</g>
<!-- Node18&#45;&gt;Node14 -->
<g id="edge27_Node000018_Node000014" class="edge">
<title>Node18&#45;&gt;Node14</title>
<g id="a_edge27_Node000018_Node000014"><a xlink:title=" ">
<path fill="none" stroke="#63b8ff" d="M445.36,-60.96C487.2,-53.73 577.35,-37.87 663.71,-20.35"/>
<polygon fill="#63b8ff" stroke="#63b8ff" points="664.19,-23.83 673.28,-18.4 662.79,-16.97 664.19,-23.83"/>
</a>
</g>
</g>
<!-- Node18&#45;&gt;Node16 -->
<g id="edge29_Node000018_Node000016" class="edge">
<title>Node18&#45;&gt;Node16</title>
<g id="a_edge29_Node000018_Node000016"><a xlink:title=" ">
<path fill="none" stroke="#63b8ff" d="M445.53,-56.2C469.96,-47.17 508.16,-33.04 535.34,-22.99"/>
<polygon fill="#63b8ff" stroke="#63b8ff" points="536.3,-26.36 544.47,-19.61 533.87,-19.8 536.3,-26.36"/>
</a>
</g>
</g>
<!-- Node19 -->
<g id="Node000019" class="node">
<title>Node19</title>
<g id="a_Node000019"><a xlink:title=" ">
<polygon fill="#e0e0e0" stroke="#999999" points="528.62,-20 472.88,-20 472.88,0 528.62,0 528.62,-20"/>
<text text-anchor="middle" x="500.75" y="-6.5" font-family="Helvetica,sans-Serif" font-size="10.00">algorithm</text>
</a>
</g>
</g>
<!-- Node18&#45;&gt;Node19 -->
<g id="edge19_Node000018_Node000019" class="edge">
<title>Node18&#45;&gt;Node19</title>
<g id="a_edge19_Node000018_Node000019"><a xlink:title=" ">
<path fill="none" stroke="#63b8ff" d="M435.51,-55.59C447.11,-47.67 463.95,-36.16 477.61,-26.82"/>
<polygon fill="#63b8ff" stroke="#63b8ff" points="479.35,-29.87 485.63,-21.33 475.4,-24.09 479.35,-29.87"/>
</a>
</g>
</g>
<!-- Node20 -->
<g id="Node000020" class="node">
<title>Node20</title>
<g id="a_Node000020"><a xlink:title=" ">
<polygon fill="#e0e0e0" stroke="#999999" points="179.75,-20 85.75,-20 85.75,0 179.75,0 179.75,-20"/>
<text text-anchor="middle" x="132.75" y="-6.5" font-family="Helvetica,sans-Serif" font-size="10.00">condition_variable</text>
</a>
</g>
</g>
<!-- Node18&#45;&gt;Node20 -->
<g id="edge20_Node000018_Node000020" class="edge">
<title>Node18&#45;&gt;Node20</title>
<g id="a_edge20_Node000018_Node000020"><a xlink:title=" ">
<path fill="none" stroke="#63b8ff" d="M398.1,-60.58C353.27,-52.2 254.74,-33.79 191.18,-21.92"/>
<polygon fill="#63b8ff" stroke="#63b8ff" points="192.09,-18.53 181.61,-20.13 190.8,-25.41 192.09,-18.53"/>
</a>
</g>
</g>
<!-- Node21 -->
<g id="Node000021" class="node">
<title>Node21</title>
<g id="a_Node000021"><a xlink:title=" ">
<polygon fill="#e0e0e0" stroke="#999999" points="820.38,-20 769.12,-20 769.12,0 820.38,0 820.38,-20"/>
<text text-anchor="middle" x="794.75" y="-6.5" font-family="Helvetica,sans-Serif" font-size="10.00">memory</text>
</a>
</g>
</g>
<!-- Node18&#45;&gt;Node21 -->
<g id="edge21_Node000018_Node000021" class="edge">
<title>Node18&#45;&gt;Node21</title>
<g id="a_edge21_Node000018_Node000021"><a xlink:title=" ">
<path fill="none" stroke="#63b8ff" d="M445.5,-61.84C509.99,-53.23 687.44,-29.4 745.75,-20 749.62,-19.38 753.67,-18.69 757.69,-17.98"/>
<polygon fill="#63b8ff" stroke="#63b8ff" points="758.14,-21.46 767.36,-16.24 756.9,-14.57 758.14,-21.46"/>
</a>
</g>
</g>
<!-- Node22 -->
<g id="Node000022" class="node">
<title>Node22</title>
<g id="a_Node000022"><a xlink:title=" ">
<polygon fill="#e0e0e0" stroke="#999999" points="332.38,-20 281.12,-20 281.12,0 332.38,0 332.38,-20"/>
<text text-anchor="middle" x="306.75" y="-6.5" font-family="Helvetica,sans-Serif" font-size="10.00">ostream</text>
</a>
</g>
</g>
<!-- Node18&#45;&gt;Node22 -->
<g id="edge24_Node000018_Node000022" class="edge">
<title>Node18&#45;&gt;Node22</title>
<g id="a_edge24_Node000018_Node000022"><a xlink:title=" ">
<path fill="none" stroke="#63b8ff" d="M401.72,-55.59C383.94,-47.24 357.68,-34.92 337.29,-25.34"/>
<polygon fill="#63b8ff" stroke="#63b8ff" points="338.85,-22.21 328.31,-21.12 335.87,-28.54 338.85,-22.21"/>
</a>
</g>
</g>
<!-- Node23 -->
<g id="Node000023" class="node">
<title>Node23</title>
<g id="a_Node000023"><a xlink:title=" ">
<polygon fill="#e0e0e0" stroke="#999999" points="390.75,-20 350.75,-20 350.75,0 390.75,0 390.75,-20"/>
<text text-anchor="middle" x="370.75" y="-6.5" font-family="Helvetica,sans-Serif" font-size="10.00">string</text>
</a>
</g>
</g>
<!-- Node18&#45;&gt;Node23 -->
<g id="edge25_Node000018_Node000023" class="edge">
<title>Node18&#45;&gt;Node23</title>
<g id="a_edge25_Node000018_Node000023"><a xlink:title=" ">
<path fill="none" stroke="#63b8ff" d="M412.87,-55.59C405.85,-48.16 395.85,-37.58 387.36,-28.58"/>
<polygon fill="#63b8ff" stroke="#63b8ff" points="389.98,-26.27 380.57,-21.4 384.89,-31.07 389.98,-26.27"/>
</a>
</g>
</g>
<!-- Node24 -->
<g id="Node000024" class="node">
<title>Node24</title>
<g id="a_Node000024"><a xlink:title=" ">
<polygon fill="#e0e0e0" stroke="#999999" points="454.38,-20 409.12,-20 409.12,0 454.38,0 454.38,-20"/>
<text text-anchor="middle" x="431.75" y="-6.5" font-family="Helvetica,sans-Serif" font-size="10.00">variant</text>
</a>
</g>
</g>
<!-- Node18&#45;&gt;Node24 -->
<g id="edge28_Node000018_Node000024" class="edge">
<title>Node18&#45;&gt;Node24</title>
<g id="a_edge28_Node000018_Node000024"><a xlink:title=" ">
<path fill="none" stroke="#63b8ff" d="M423.49,-55.59C424.73,-48.93 426.43,-39.75 427.96,-31.44"/>
<polygon fill="#63b8ff" stroke="#63b8ff" points="431.37,-32.26 429.75,-21.79 424.49,-30.98 431.37,-32.26"/>
</a>
</g>
</g>
<!-- Node25&#45;&gt;Node3 -->
<g id="edge32_Node000025_Node000003" class="edge">
<title>Node25&#45;&gt;Node3</title>
<g id="a_edge32_Node000025_Node000003"><a xlink:title=" ">
<path fill="none" stroke="#63b8ff" d="M203.44,-111.59C172.83,-102.09 125.63,-87.45 93.76,-77.56"/>
<polygon fill="#63b8ff" stroke="#63b8ff" points="94.81,-74.21 84.22,-74.59 92.73,-80.9 94.81,-74.21"/>
</a>
</g>
</g>
<!-- Node25&#45;&gt;Node10 -->
<g id="edge34_Node000025_Node000010" class="edge">
<title>Node25&#45;&gt;Node10</title>
<g id="a_edge34_Node000025_Node000010"><a xlink:title=" ">
<path fill="none" stroke="#63b8ff" d="M247.68,-111.59C259.43,-103.67 276.48,-92.16 290.32,-82.82"/>
<polygon fill="#63b8ff" stroke="#63b8ff" points="292.12,-85.82 298.45,-77.33 288.21,-80.02 292.12,-85.82"/>
</a>
</g>
</g>
<!-- Node25&#45;&gt;Node12 -->
<g id="edge36_Node000025_Node000012" class="edge">
<title>Node25&#45;&gt;Node12</title>
<g id="a_edge36_Node000025_Node000012"><a xlink:title=" ">
<path fill="none" stroke="#63b8ff" d="M234.65,-111.7C235.51,-102.6 236.82,-88.36 237.75,-76 238.87,-61.12 239.9,-44.3 240.63,-31.5"/>
<polygon fill="#63b8ff" stroke="#63b8ff" points="244.11,-31.95 241.17,-21.77 237.12,-31.56 244.11,-31.95"/>
</a>
</g>
</g>
<!-- Node25&#45;&gt;Node16 -->
<g id="edge37_Node000025_Node000016" class="edge">
<title>Node25&#45;&gt;Node16</title>
<g id="a_edge37_Node000025_Node000016"><a xlink:title=" ">
<path fill="none" stroke="#63b8ff" d="M271.74,-116.93C316.41,-111.31 392.27,-99.14 453.75,-76 462.95,-72.54 511.51,-44.23 542.21,-26.13"/>
<polygon fill="#63b8ff" stroke="#63b8ff" points="543.72,-29.3 550.55,-21.2 540.16,-23.28 543.72,-29.3"/>
</a>
</g>
</g>
<!-- Node25&#45;&gt;Node18 -->
<g id="edge38_Node000025_Node000018" class="edge">
<title>Node25&#45;&gt;Node18</title>
<g id="a_edge38_Node000025_Node000018"><a xlink:title=" ">
<path fill="none" stroke="#63b8ff" d="M266.5,-111.59C300.24,-101.9 352.63,-86.85 387.07,-76.96"/>
<polygon fill="#63b8ff" stroke="#63b8ff" points="387.91,-80.36 396.55,-74.24 385.97,-73.63 387.91,-80.36"/>
</a>
</g>
</g>
<!-- Node25&#45;&gt;Node20 -->
<g id="edge33_Node000025_Node000020" class="edge">
<title>Node25&#45;&gt;Node20</title>
<g id="a_edge33_Node000025_Node000020"><a xlink:title=" ">
<path fill="none" stroke="#63b8ff" d="M195.78,-115.22C172.46,-109.5 144.33,-98.2 129.75,-76 121.12,-62.86 122.76,-44.78 126.06,-31.03"/>
<polygon fill="#63b8ff" stroke="#63b8ff" points="129.33,-32.32 128.74,-21.75 122.6,-30.38 129.33,-32.32"/>
</a>
</g>
</g>
<!-- Node26 -->
<g id="Node000026" class="node">
<title>Node26</title>
<g id="a_Node000026"><a xlink:title=" ">
<polygon fill="#e0e0e0" stroke="#999999" points="176.62,-76 138.88,-76 138.88,-56 176.62,-56 176.62,-76"/>
<text text-anchor="middle" x="157.75" y="-62.5" font-family="Helvetica,sans-Serif" font-size="10.00">array</text>
</a>
</g>
</g>
<!-- Node25&#45;&gt;Node26 -->
<g id="edge31_Node000025_Node000026" class="edge">
<title>Node25&#45;&gt;Node26</title>
<g id="a_edge31_Node000025_Node000026"><a xlink:title=" ">
<path fill="none" stroke="#63b8ff" d="M220.51,-111.59C209.46,-103.74 193.47,-92.38 180.39,-83.09"/>
<polygon fill="#63b8ff" stroke="#63b8ff" points="182.5,-80.3 172.33,-77.36 178.45,-86 182.5,-80.3"/>
</a>
</g>
</g>
<!-- Node27 -->
<g id="Node000027" class="node">
<title>Node27</title>
<g id="a_Node000027"><a xlink:title=" ">
<polygon fill="#e0e0e0" stroke="#999999" points="229.12,-76 194.38,-76 194.38,-56 229.12,-56 229.12,-76"/>
<text text-anchor="middle" x="211.75" y="-62.5" font-family="Helvetica,sans-Serif" font-size="10.00">map</text>
</a>
</g>
</g>
<!-- Node25&#45;&gt;Node27 -->
<g id="edge35_Node000025_Node000027" class="edge">
<title>Node25&#45;&gt;Node27</title>
<g id="a_edge35_Node000025_Node000027"><a xlink:title=" ">
<path fill="none" stroke="#63b8ff" d="M229.92,-111.59C227.14,-104.78 223.29,-95.32 219.84,-86.86"/>
<polygon fill="#63b8ff" stroke="#63b8ff" points="223.12,-85.64 216.11,-77.7 216.64,-88.28 223.12,-85.64"/>
</a>
</g>
</g>
<!-- Node28&#45;&gt;Node21 -->
<g id="edge41_Node000028_Node000021" class="edge">
<title>Node28&#45;&gt;Node21</title>
<g id="a_edge41_Node000028_Node000021"><a xlink:title=" ">
<path fill="none" stroke="#63b8ff" d="M740.94,-167.61C754.82,-147.61 777.98,-111.08 788.75,-76 793.14,-61.7 794.6,-44.87 794.98,-31.91"/>
<polygon fill="#63b8ff" stroke="#63b8ff" points="798.48,-32.03 795.06,-22 791.48,-31.97 798.48,-32.03"/>
</a>
</g>
</g>
</g>
</svg>

<g id="navigator" transform="translate(0 0)" fill="#404254">
  <rect fill="#f2f5e9" fill-opacity="0.5" stroke="#606060" stroke-width=".5" x="0" y="0" width="60" height="60"/>
  <use id="zoomplus" xlink:href="#zoomPlus" x="17" y="9" onmousedown="handleZoom(evt,'in')"/>
  <use id="zoomminus" xlink:href="#zoomMin" x="42" y="9" onmousedown="handleZoom(evt,'out')"/>
  <use id="reset" xlink:href="#resetDef" x="30" y="36" onmousedown="handleReset()"/>
   <use id="arrowup" xlink:href="#arrowUp" x="0" y="0" onmousedown="handlePan(0,-1)"/>
  <use id="arrowright" xlink:href="#arrowRight" x="0" y="0" onmousedown="handlePan(1,0)"/>
  <use id="arrowdown" xlink:href="#arrowDown" x="0" y="0" onmousedown="handlePan(0,1)"/>
  <use id="arrowleft" xlink:href="#arrowLeft" x="0" y="0" onmousedown="handlePan(-1,0)"/>
</g>
<svg viewBox="0 0 15 15" width="100%" height="30px" preserveAspectRatio="xMaxYMin meet">
 <g id="arrow_out" transform="scale(0.3 0.3)">
  <a xlink:href="globals_8h__incl_org.svg" target="_base">
   <rect id="button" ry="5" rx="5" y="6" x="6" height="38" width="38"
        fill="#f2f5e9" fill-opacity="0.5" stroke="#606060" stroke-width="1.0"/>
   <path id="arrow"
     d="M 11.500037,31.436501 C 11.940474,20.09759 22.043105,11.32322 32.158766,21.979434 L 37.068811,17.246167 C 37.068811,17.246167 37.088388,32 37.088388,32 L 22.160133,31.978069 C 22.160133,31.978069 26.997745,27.140456 26.997745,27.140456 C 18.528582,18.264221 13.291696,25.230495 11.500037,31.436501 z"
     style="fill:#404040;"/>
  </a>
 </g>
</svg>

<style type='text/css'>
<![CDATA[
[data-mouse-over-selected='false'] { opacity: 0.7; }
[data-mouse-over-selected='true']  { opacity: 1.0; }
]]>
</style>
<script type="application/ecmascript"><![CDATA[
document.addEventListener('DOMContentLoaded', (event) => {
  highlightEdges();
  highlightAdjacentNodes();
});
]]></script>
</svg>
