<?xml version="1.0" encoding="UTF-8" standalone="no"?>
<!DOCTYPE svg PUBLIC "-//W3C//DTD SVG 1.1//EN"
 "http://www.w3.org/Graphics/SVG/1.1/DTD/svg11.dtd">
<!-- Generated by graphviz version 12.2.1 (0)
 -->
<!-- Title: src/platform/linux/graphics.h Pages: 1 -->
<!--zoomable 176 -->

<svg id="main" version="1.1" xmlns="http://www.w3.org/2000/svg" xmlns:xlink="http://www.w3.org/1999/xlink" xml:space="preserve" onload="init(evt)">

<style type="text/css"><![CDATA[
.node, .edge {opacity: 0.7;}
.node.selected, .edge.selected {opacity: 1;}
.edge:hover path { stroke: red; }
.edge:hover polygon { stroke: red; fill: red; }
]]></style>

<defs>
  <circle id="rim" cx="0" cy="0" r="7"/>
  <circle id="rim2" cx="0" cy="0" r="3.5"/>
  <g id="zoomPlus">
    <use xlink:href="#rim" fill="#404040"><set attributeName="fill" to="#808080" begin="zoomplus.mouseover" end="zoomplus.mouseout"/></use>
    <path d="M-4,0h8M0,-4v8" fill="none" stroke="white" stroke-width="1.5" pointer-events="none"/>
  </g>
  <g id="zoomMin">
    <use xlink:href="#rim" fill="#404040"><set attributeName="fill" to="#808080" begin="zoomminus.mouseover" end="zoomminus.mouseout"/></use>
    <path d="M-4,0h8" fill="none" stroke="white" stroke-width="1.5" pointer-events="none"/>
  </g>
  <g id="arrowUp" transform="translate(30 24)">
    <use xlink:href="#rim"/>
    <path pointer-events="none" fill="none" stroke="white" stroke-width="1.5" d="M0,-3.0v7 M-2.5,-0.5L0,-3.0L2.5,-0.5"/>
  </g>
  <g id="arrowRight" transform="rotate(90) translate(36 -43)">
    <use xlink:href="#rim"/>
    <path pointer-events="none" fill="none" stroke="white" stroke-width="1.5" d="M0,-3.0v7 M-2.5,-0.5L0,-3.0L2.5,-0.5"/>
  </g>
  <g id="arrowDown" transform="rotate(180) translate(-30 -48)">
    <use xlink:href="#rim"/>
    <path pointer-events="none" fill="none" stroke="white" stroke-width="1.5" d="M0,-3.0v7 M-2.5,-0.5L0,-3.0L2.5,-0.5"/>
  </g>
  <g id="arrowLeft" transform="rotate(270) translate(-36 17)">
    <use xlink:href="#rim"/>
    <path pointer-events="none" fill="none" stroke="white" stroke-width="1.5" d="M0,-3.0v7 M-2.5,-0.5L0,-3.0L2.5,-0.5"/>
  </g>
  <g id="resetDef">
    <use xlink:href="#rim2" fill="#404040"><set attributeName="fill" to="#808080" begin="reset.mouseover" end="reset.mouseout"/></use>
  </g>
</defs>
<script type="application/ecmascript">
var viewWidth = 757;
var viewHeight = 176;
var sectionId = 'dynsection-1';
</script>
<script type="application/ecmascript" xlink:href="svg.min.js"/>
<svg id="graph" class="graph">
<g id="viewport">
<title>src/platform/linux/graphics.h</title>
<!-- Node1 -->
<g id="Node000001" class="node">
<title>Node1</title>
<g id="a_Node000001"><a xlink:title="Declarations for graphics related functions.">
<polygon fill="#999999" stroke="#666666" points="385,-168 294,-168 294,-136 385,-136 385,-168"/>
<text text-anchor="start" x="302" y="-154.5" font-family="Helvetica,sans-Serif" font-size="10.00">src/platform/linux</text>
<text text-anchor="middle" x="339.5" y="-142.5" font-family="Helvetica,sans-Serif" font-size="10.00">/graphics.h</text>
</a>
</g>
</g>
<!-- Node2 -->
<g id="Node000002" class="node">
<title>Node2</title>
<g id="a_Node000002"><a xlink:href="cuda_8cpp.html" target="_top" xlink:title="Definitions for CUDA encoding.">
<polygon fill="white" stroke="#666666" points="91,-32 0,-32 0,0 91,0 91,-32"/>
<text text-anchor="start" x="8" y="-18.5" font-family="Helvetica,sans-Serif" font-size="10.00">src/platform/linux</text>
<text text-anchor="middle" x="45.5" y="-6.5" font-family="Helvetica,sans-Serif" font-size="10.00">/cuda.cpp</text>
</a>
</g>
</g>
<!-- Node1&#45;&gt;Node2 -->
<g id="edge1_Node000001_Node000002" class="edge">
<title>Node1&#45;&gt;Node2</title>
<g id="a_edge1_Node000001_Node000002"><a xlink:title=" ">
<path fill="none" stroke="#63b8ff" d="M282.37,-141.13C244.73,-133.24 195.08,-120.1 154.5,-100 118.05,-81.95 81.66,-50.98 61.52,-32.4"/>
<polygon fill="#63b8ff" stroke="#63b8ff" points="281.67,-144.56 292.16,-143.12 283.06,-137.7 281.67,-144.56"/>
</a>
</g>
</g>
<!-- Node3 -->
<g id="Node000003" class="node">
<title>Node3</title>
<g id="a_Node000003"><a xlink:href="graphics_8cpp.html" target="_top" xlink:title="Definitions for graphics related functions.">
<polygon fill="white" stroke="#666666" points="422,-100 331,-100 331,-68 422,-68 422,-100"/>
<text text-anchor="start" x="339" y="-86.5" font-family="Helvetica,sans-Serif" font-size="10.00">src/platform/linux</text>
<text text-anchor="middle" x="376.5" y="-74.5" font-family="Helvetica,sans-Serif" font-size="10.00">/graphics.cpp</text>
</a>
</g>
</g>
<!-- Node1&#45;&gt;Node3 -->
<g id="edge2_Node000001_Node000003" class="edge">
<title>Node1&#45;&gt;Node3</title>
<g id="a_edge2_Node000001_Node000003"><a xlink:title=" ">
<path fill="none" stroke="#63b8ff" d="M353.66,-125.74C358.48,-117.14 363.72,-107.79 367.96,-100.22"/>
<polygon fill="#63b8ff" stroke="#63b8ff" points="350.66,-123.94 348.82,-134.37 356.76,-127.36 350.66,-123.94"/>
</a>
</g>
</g>
<!-- Node4 -->
<g id="Node000004" class="node">
<title>Node4</title>
<g id="a_Node000004"><a xlink:href="kmsgrab_8cpp.html" target="_top" xlink:title="Definitions for KMS screen capture.">
<polygon fill="white" stroke="#666666" points="200,-32 109,-32 109,0 200,0 200,-32"/>
<text text-anchor="start" x="117" y="-18.5" font-family="Helvetica,sans-Serif" font-size="10.00">src/platform/linux</text>
<text text-anchor="middle" x="154.5" y="-6.5" font-family="Helvetica,sans-Serif" font-size="10.00">/kmsgrab.cpp</text>
</a>
</g>
</g>
<!-- Node1&#45;&gt;Node4 -->
<g id="edge3_Node000001_Node000004" class="edge">
<title>Node1&#45;&gt;Node4</title>
<g id="a_edge3_Node000001_Node000004"><a xlink:title=" ">
<path fill="none" stroke="#63b8ff" d="M282.25,-147.36C246.51,-142.06 202.18,-129.49 174.5,-100 157.15,-81.52 154.06,-50.69 153.91,-32.26"/>
<polygon fill="#63b8ff" stroke="#63b8ff" points="281.65,-150.81 292.02,-148.64 282.56,-143.87 281.65,-150.81"/>
</a>
</g>
</g>
<!-- Node5 -->
<g id="Node000005" class="node">
<title>Node5</title>
<g id="a_Node000005"><a xlink:href="linux_2misc_8cpp.html" target="_top" xlink:title="Miscellaneous definitions for Linux.">
<polygon fill="white" stroke="#666666" points="531,-100 440,-100 440,-68 531,-68 531,-100"/>
<text text-anchor="start" x="448" y="-86.5" font-family="Helvetica,sans-Serif" font-size="10.00">src/platform/linux</text>
<text text-anchor="middle" x="485.5" y="-74.5" font-family="Helvetica,sans-Serif" font-size="10.00">/misc.cpp</text>
</a>
</g>
</g>
<!-- Node1&#45;&gt;Node5 -->
<g id="edge4_Node000001_Node000005" class="edge">
<title>Node1&#45;&gt;Node5</title>
<g id="a_edge4_Node000001_Node000005"><a xlink:title=" ">
<path fill="none" stroke="#63b8ff" d="M383.98,-130.89C405.59,-121.12 431.16,-109.56 451.23,-100.49"/>
<polygon fill="#63b8ff" stroke="#63b8ff" points="382.78,-127.59 375.11,-134.9 385.66,-133.97 382.78,-127.59"/>
</a>
</g>
</g>
<!-- Node6 -->
<g id="Node000006" class="node">
<title>Node6</title>
<g id="a_Node000006"><a xlink:href="vaapi_8cpp.html" target="_top" xlink:title="Definitions for VA&#45;API hardware accelerated capture.">
<polygon fill="white" stroke="#666666" points="640,-100 549,-100 549,-68 640,-68 640,-100"/>
<text text-anchor="start" x="557" y="-86.5" font-family="Helvetica,sans-Serif" font-size="10.00">src/platform/linux</text>
<text text-anchor="middle" x="594.5" y="-74.5" font-family="Helvetica,sans-Serif" font-size="10.00">/vaapi.cpp</text>
</a>
</g>
</g>
<!-- Node1&#45;&gt;Node6 -->
<g id="edge5_Node000001_Node000006" class="edge">
<title>Node1&#45;&gt;Node6</title>
<g id="a_edge5_Node000001_Node000006"><a xlink:title=" ">
<path fill="none" stroke="#63b8ff" d="M396.43,-136.92C436.72,-126.86 492,-112.89 540.5,-100 543.13,-99.3 545.84,-98.57 548.56,-97.84"/>
<polygon fill="#63b8ff" stroke="#63b8ff" points="395.8,-133.47 386.95,-139.28 397.5,-140.26 395.8,-133.47"/>
</a>
</g>
</g>
<!-- Node7 -->
<g id="Node000007" class="node">
<title>Node7</title>
<g id="a_Node000007"><a xlink:href="wayland_8cpp.html" target="_top" xlink:title="Definitions for Wayland capture.">
<polygon fill="white" stroke="#666666" points="418,-32 327,-32 327,0 418,0 418,-32"/>
<text text-anchor="start" x="335" y="-18.5" font-family="Helvetica,sans-Serif" font-size="10.00">src/platform/linux</text>
<text text-anchor="middle" x="372.5" y="-6.5" font-family="Helvetica,sans-Serif" font-size="10.00">/wayland.cpp</text>
</a>
</g>
</g>
<!-- Node1&#45;&gt;Node7 -->
<g id="edge6_Node000001_Node000007" class="edge">
<title>Node1&#45;&gt;Node7</title>
<g id="a_edge6_Node000001_Node000007"><a xlink:title=" ">
<path fill="none" stroke="#63b8ff" d="M326.72,-125.35C320.16,-108.57 314.97,-86.43 322.5,-68 328.31,-53.77 340.23,-41.36 350.97,-32.34"/>
<polygon fill="#63b8ff" stroke="#63b8ff" points="323.32,-126.33 330.5,-134.12 329.75,-123.55 323.32,-126.33"/>
</a>
</g>
</g>
<!-- Node8 -->
<g id="Node000008" class="node">
<title>Node8</title>
<g id="a_Node000008"><a xlink:href="wayland_8h.html" target="_top" xlink:title="Declarations for Wayland capture.">
<polygon fill="white" stroke="#666666" points="274,-100 183,-100 183,-68 274,-68 274,-100"/>
<text text-anchor="start" x="191" y="-86.5" font-family="Helvetica,sans-Serif" font-size="10.00">src/platform/linux</text>
<text text-anchor="middle" x="228.5" y="-74.5" font-family="Helvetica,sans-Serif" font-size="10.00">/wayland.h</text>
</a>
</g>
</g>
<!-- Node1&#45;&gt;Node8 -->
<g id="edge7_Node000001_Node000008" class="edge">
<title>Node1&#45;&gt;Node8</title>
<g id="a_edge7_Node000001_Node000008"><a xlink:title=" ">
<path fill="none" stroke="#63b8ff" d="M303.84,-129.8C287.75,-120.23 269.08,-109.13 254.36,-100.38"/>
<polygon fill="#63b8ff" stroke="#63b8ff" points="301.79,-132.65 312.17,-134.75 305.37,-126.63 301.79,-132.65"/>
</a>
</g>
</g>
<!-- Node10 -->
<g id="Node000010" class="node">
<title>Node10</title>
<g id="a_Node000010"><a xlink:href="x11grab_8cpp.html" target="_top" xlink:title="Definitions for x11 capture.">
<polygon fill="white" stroke="#666666" points="749,-100 658,-100 658,-68 749,-68 749,-100"/>
<text text-anchor="start" x="666" y="-86.5" font-family="Helvetica,sans-Serif" font-size="10.00">src/platform/linux</text>
<text text-anchor="middle" x="703.5" y="-74.5" font-family="Helvetica,sans-Serif" font-size="10.00">/x11grab.cpp</text>
</a>
</g>
</g>
<!-- Node1&#45;&gt;Node10 -->
<g id="edge12_Node000001_Node000010" class="edge">
<title>Node1&#45;&gt;Node10</title>
<g id="a_edge12_Node000001_Node000010"><a xlink:title=" ">
<path fill="none" stroke="#63b8ff" d="M396.67,-143.48C459.15,-134.82 562,-119.29 649.5,-100 652.16,-99.41 654.89,-98.78 657.63,-98.11"/>
<polygon fill="#63b8ff" stroke="#63b8ff" points="396.42,-139.98 386.99,-144.81 397.37,-146.92 396.42,-139.98"/>
</a>
</g>
</g>
<!-- Node8&#45;&gt;Node2 -->
<g id="edge8_Node000008_Node000002" class="edge">
<title>Node8&#45;&gt;Node2</title>
<g id="a_edge8_Node000008_Node000002"><a xlink:title=" ">
<path fill="none" stroke="#63b8ff" d="M174.95,-63.69C147.41,-53.76 114.3,-41.81 88.45,-32.49"/>
<polygon fill="#63b8ff" stroke="#63b8ff" points="173.58,-66.91 184.17,-67.01 175.95,-60.33 173.58,-66.91"/>
</a>
</g>
</g>
<!-- Node8&#45;&gt;Node4 -->
<g id="edge9_Node000008_Node000004" class="edge">
<title>Node8&#45;&gt;Node4</title>
<g id="a_edge9_Node000008_Node000004"><a xlink:title=" ">
<path fill="none" stroke="#63b8ff" d="M202.76,-60.05C192.53,-50.92 181.03,-40.67 171.83,-32.45"/>
<polygon fill="#63b8ff" stroke="#63b8ff" points="200.41,-62.64 210.21,-66.68 205.07,-57.42 200.41,-62.64"/>
</a>
</g>
</g>
<!-- Node8&#45;&gt;Node7 -->
<g id="edge10_Node000008_Node000007" class="edge">
<title>Node8&#45;&gt;Node7</title>
<g id="a_edge10_Node000008_Node000007"><a xlink:title=" ">
<path fill="none" stroke="#63b8ff" d="M272.7,-62.74C294.04,-52.96 319.22,-41.42 338.95,-32.38"/>
<polygon fill="#63b8ff" stroke="#63b8ff" points="271.27,-59.55 263.64,-66.9 274.19,-65.91 271.27,-59.55"/>
</a>
</g>
</g>
<!-- Node9 -->
<g id="Node000009" class="node">
<title>Node9</title>
<g id="a_Node000009"><a xlink:href="wlgrab_8cpp.html" target="_top" xlink:title="Definitions for wlgrab capture.">
<polygon fill="white" stroke="#666666" points="309,-32 218,-32 218,0 309,0 309,-32"/>
<text text-anchor="start" x="226" y="-18.5" font-family="Helvetica,sans-Serif" font-size="10.00">src/platform/linux</text>
<text text-anchor="middle" x="263.5" y="-6.5" font-family="Helvetica,sans-Serif" font-size="10.00">/wlgrab.cpp</text>
</a>
</g>
</g>
<!-- Node8&#45;&gt;Node9 -->
<g id="edge11_Node000008_Node000009" class="edge">
<title>Node8&#45;&gt;Node9</title>
<g id="a_edge11_Node000008_Node000009"><a xlink:title=" ">
<path fill="none" stroke="#63b8ff" d="M241.9,-57.74C246.46,-49.14 251.41,-39.79 255.43,-32.22"/>
<polygon fill="#63b8ff" stroke="#63b8ff" points="238.92,-55.88 237.33,-66.36 245.1,-59.16 238.92,-55.88"/>
</a>
</g>
</g>
</g>
</svg>

<g id="navigator" transform="translate(0 0)" fill="#404254">
  <rect fill="#f2f5e9" fill-opacity="0.5" stroke="#606060" stroke-width=".5" x="0" y="0" width="60" height="60"/>
  <use id="zoomplus" xlink:href="#zoomPlus" x="17" y="9" onmousedown="handleZoom(evt,'in')"/>
  <use id="zoomminus" xlink:href="#zoomMin" x="42" y="9" onmousedown="handleZoom(evt,'out')"/>
  <use id="reset" xlink:href="#resetDef" x="30" y="36" onmousedown="handleReset()"/>
   <use id="arrowup" xlink:href="#arrowUp" x="0" y="0" onmousedown="handlePan(0,-1)"/>
  <use id="arrowright" xlink:href="#arrowRight" x="0" y="0" onmousedown="handlePan(1,0)"/>
  <use id="arrowdown" xlink:href="#arrowDown" x="0" y="0" onmousedown="handlePan(0,1)"/>
  <use id="arrowleft" xlink:href="#arrowLeft" x="0" y="0" onmousedown="handlePan(-1,0)"/>
</g>
<svg viewBox="0 0 15 15" width="100%" height="30px" preserveAspectRatio="xMaxYMin meet">
 <g id="arrow_out" transform="scale(0.3 0.3)">
  <a xlink:href="graphics_8h__dep__incl_org.svg" target="_base">
   <rect id="button" ry="5" rx="5" y="6" x="6" height="38" width="38"
        fill="#f2f5e9" fill-opacity="0.5" stroke="#606060" stroke-width="1.0"/>
   <path id="arrow"
     d="M 11.500037,31.436501 C 11.940474,20.09759 22.043105,11.32322 32.158766,21.979434 L 37.068811,17.246167 C 37.068811,17.246167 37.088388,32 37.088388,32 L 22.160133,31.978069 C 22.160133,31.978069 26.997745,27.140456 26.997745,27.140456 C 18.528582,18.264221 13.291696,25.230495 11.500037,31.436501 z"
     style="fill:#404040;"/>
  </a>
 </g>
</svg>

<style type='text/css'>
<![CDATA[
[data-mouse-over-selected='false'] { opacity: 0.7; }
[data-mouse-over-selected='true']  { opacity: 1.0; }
]]>
</style>
<script type="application/ecmascript"><![CDATA[
document.addEventListener('DOMContentLoaded', (event) => {
  highlightEdges();
  highlightAdjacentNodes();
});
]]></script>
</svg>
