<?xml version="1.0" encoding="UTF-8" standalone="no"?>
<!DOCTYPE svg PUBLIC "-//W3C//DTD SVG 1.1//EN"
 "http://www.w3.org/Graphics/SVG/1.1/DTD/svg11.dtd">
<!-- Generated by graphviz version 12.2.1 (0)
 -->
<!-- Title: src/platform/linux/graphics.h Pages: 1 -->
<svg width="1556pt" height="276pt"
 viewBox="0.00 0.00 1556.00 276.00" xmlns="http://www.w3.org/2000/svg" xmlns:xlink="http://www.w3.org/1999/xlink">
<g id="graph0" class="graph" transform="scale(1 1) rotate(0) translate(4 272)">
<title>src/platform/linux/graphics.h</title>
<!-- Node1 -->
<g id="Node000001" class="node">
<title>Node1</title>
<g id="a_Node000001"><a xlink:title="Declarations for graphics related functions.">
<polygon fill="#999999" stroke="#666666" points="757.25,-268 666.25,-268 666.25,-236 757.25,-236 757.25,-268"/>
<text text-anchor="start" x="674.25" y="-254.5" font-family="Helvetica,sans-Serif" font-size="10.00">src/platform/linux</text>
<text text-anchor="middle" x="711.75" y="-242.5" font-family="Helvetica,sans-Serif" font-size="10.00">/graphics.h</text>
</a>
</g>
</g>
<!-- Node2 -->
<g id="Node000002" class="node">
<title>Node2</title>
<g id="a_Node000002"><a xlink:title=" ">
<polygon fill="#e0e0e0" stroke="#999999" points="277.62,-20 227.88,-20 227.88,0 277.62,0 277.62,-20"/>
<text text-anchor="middle" x="252.75" y="-6.5" font-family="Helvetica,sans-Serif" font-size="10.00">optional</text>
</a>
</g>
</g>
<!-- Node1&#45;&gt;Node2 -->
<g id="edge1_Node000001_Node000002" class="edge">
<title>Node1&#45;&gt;Node2</title>
<g id="a_edge1_Node000001_Node000002"><a xlink:title=" ">
<path fill="none" stroke="#63b8ff" d="M665.91,-250.48C595.64,-248.38 457.94,-239.11 348.75,-200 249.22,-164.35 197.47,-168.21 145.75,-76 141.4,-68.25 140.83,-63.4 145.75,-56 154.06,-43.5 188.93,-30.31 216.64,-21.46"/>
<polygon fill="#63b8ff" stroke="#63b8ff" points="217.63,-24.82 226.15,-18.52 215.56,-18.13 217.63,-24.82"/>
</a>
</g>
</g>
<!-- Node3 -->
<g id="Node000003" class="node">
<title>Node3</title>
<g id="a_Node000003"><a xlink:title=" ">
<polygon fill="#e0e0e0" stroke="#999999" points="65.5,-20 0,-20 0,0 65.5,0 65.5,-20"/>
<text text-anchor="middle" x="32.75" y="-6.5" font-family="Helvetica,sans-Serif" font-size="10.00">string_view</text>
</a>
</g>
</g>
<!-- Node1&#45;&gt;Node3 -->
<g id="edge2_Node000001_Node000003" class="edge">
<title>Node1&#45;&gt;Node3</title>
<g id="a_edge2_Node000001_Node000003"><a xlink:title=" ">
<path fill="none" stroke="#63b8ff" d="M665.93,-250.31C586.71,-248.07 419.67,-238.7 284.75,-200 228.56,-183.88 213.57,-177.61 165.75,-144 117,-109.74 70.17,-56.74 47.29,-29.13"/>
<polygon fill="#63b8ff" stroke="#63b8ff" points="50.23,-27.19 41.19,-21.66 44.81,-31.62 50.23,-27.19"/>
</a>
</g>
</g>
<!-- Node4 -->
<g id="Node000004" class="node">
<title>Node4</title>
<g id="a_Node000004"><a xlink:title=" ">
<polygon fill="#e0e0e0" stroke="#999999" points="1100.75,-200 1042.75,-200 1042.75,-180 1100.75,-180 1100.75,-200"/>
<text text-anchor="middle" x="1071.75" y="-186.5" font-family="Helvetica,sans-Serif" font-size="10.00">glad/egl.h</text>
</a>
</g>
</g>
<!-- Node1&#45;&gt;Node4 -->
<g id="edge3_Node000001_Node000004" class="edge">
<title>Node1&#45;&gt;Node4</title>
<g id="a_edge3_Node000001_Node000004"><a xlink:title=" ">
<path fill="none" stroke="#63b8ff" d="M757.54,-244.32C819.27,-235.16 932.55,-217.8 1028.75,-200 1029.73,-199.82 1030.73,-199.63 1031.74,-199.44"/>
<polygon fill="#63b8ff" stroke="#63b8ff" points="1032.03,-202.95 1041.16,-197.58 1030.67,-196.08 1032.03,-202.95"/>
</a>
</g>
</g>
<!-- Node5 -->
<g id="Node000005" class="node">
<title>Node5</title>
<g id="a_Node000005"><a xlink:title=" ">
<polygon fill="#e0e0e0" stroke="#999999" points="1171.12,-200 1118.38,-200 1118.38,-180 1171.12,-180 1171.12,-200"/>
<text text-anchor="middle" x="1144.75" y="-186.5" font-family="Helvetica,sans-Serif" font-size="10.00">glad/gl.h</text>
</a>
</g>
</g>
<!-- Node1&#45;&gt;Node5 -->
<g id="edge4_Node000001_Node000005" class="edge">
<title>Node1&#45;&gt;Node5</title>
<g id="a_edge4_Node000001_Node000005"><a xlink:title=" ">
<path fill="none" stroke="#63b8ff" d="M757.71,-246.98C830.07,-240.25 975.14,-225.11 1106.99,-200.34"/>
<polygon fill="#63b8ff" stroke="#63b8ff" points="1107.42,-203.82 1116.59,-198.51 1106.11,-196.94 1107.42,-203.82"/>
</a>
</g>
</g>
<!-- Node6 -->
<g id="Node000006" class="node">
<title>Node6</title>
<g id="a_Node000006"><a xlink:href="linux_2misc_8h.html" target="_top" xlink:title="Miscellaneous declarations for Linux.">
<polygon fill="white" stroke="#666666" points="335.38,-138 290.12,-138 290.12,-118 335.38,-118 335.38,-138"/>
<text text-anchor="middle" x="312.75" y="-124.5" font-family="Helvetica,sans-Serif" font-size="10.00">misc.h</text>
</a>
</g>
</g>
<!-- Node1&#45;&gt;Node6 -->
<g id="edge5_Node000001_Node000006" class="edge">
<title>Node1&#45;&gt;Node6</title>
<g id="a_edge5_Node000001_Node000006"><a xlink:title=" ">
<path fill="none" stroke="#63b8ff" d="M665.98,-237.01C584.76,-212.17 417.29,-160.97 346.03,-139.18"/>
<polygon fill="#63b8ff" stroke="#63b8ff" points="347.48,-135.96 336.89,-136.38 345.43,-142.65 347.48,-135.96"/>
</a>
</g>
</g>
<!-- Node9 -->
<g id="Node000009" class="node">
<title>Node9</title>
<g id="a_Node000009"><a xlink:href="utility_8h.html" target="_top" xlink:title="Declarations for utility functions.">
<polygon fill="white" stroke="#666666" points="286.38,-76 223.12,-76 223.12,-56 286.38,-56 286.38,-76"/>
<text text-anchor="middle" x="254.75" y="-62.5" font-family="Helvetica,sans-Serif" font-size="10.00">src/utility.h</text>
</a>
</g>
</g>
<!-- Node1&#45;&gt;Node9 -->
<g id="edge58_Node000001_Node000009" class="edge">
<title>Node1&#45;&gt;Node9</title>
<g id="a_edge58_Node000001_Node000009"><a xlink:title=" ">
<path fill="none" stroke="#63b8ff" d="M665.83,-245.33C566.61,-232.19 336.61,-196.72 280.75,-144 265.22,-129.34 258.97,-105.1 256.45,-87.73"/>
<polygon fill="#63b8ff" stroke="#63b8ff" points="259.93,-87.36 255.34,-77.8 252.97,-88.13 259.93,-87.36"/>
</a>
</g>
</g>
<!-- Node18 -->
<g id="Node000018" class="node">
<title>Node18</title>
<g id="a_Node000018"><a xlink:href="logging_8h.html" target="_top" xlink:title="Declarations for logging related functions.">
<polygon fill="white" stroke="#666666" points="747.5,-138 676,-138 676,-118 747.5,-118 747.5,-138"/>
<text text-anchor="middle" x="711.75" y="-124.5" font-family="Helvetica,sans-Serif" font-size="10.00">src/logging.h</text>
</a>
</g>
</g>
<!-- Node1&#45;&gt;Node18 -->
<g id="edge20_Node000001_Node000018" class="edge">
<title>Node1&#45;&gt;Node18</title>
<g id="a_edge20_Node000001_Node000018"><a xlink:title=" ">
<path fill="none" stroke="#63b8ff" d="M711.75,-235.55C711.75,-213.81 711.75,-174.14 711.75,-149.82"/>
<polygon fill="#63b8ff" stroke="#63b8ff" points="715.25,-149.9 711.75,-139.9 708.25,-149.9 715.25,-149.9"/>
</a>
</g>
</g>
<!-- Node30 -->
<g id="Node000030" class="node">
<title>Node30</title>
<g id="a_Node000030"><a xlink:href="common_8h.html" target="_top" xlink:title="Declarations for common platform specific utilities.">
<polygon fill="white" stroke="#666666" points="987,-200 870.5,-200 870.5,-180 987,-180 987,-200"/>
<text text-anchor="middle" x="928.75" y="-186.5" font-family="Helvetica,sans-Serif" font-size="10.00">src/platform/common.h</text>
</a>
</g>
</g>
<!-- Node1&#45;&gt;Node30 -->
<g id="edge36_Node000001_Node000030" class="edge">
<title>Node1&#45;&gt;Node30</title>
<g id="a_edge36_Node000001_Node000030"><a xlink:title=" ">
<path fill="none" stroke="#63b8ff" d="M757.5,-238.35C794.58,-228.1 846.55,-213.73 883.49,-203.51"/>
<polygon fill="#63b8ff" stroke="#63b8ff" points="884.27,-206.93 892.98,-200.89 882.41,-200.18 884.27,-206.93"/>
</a>
</g>
</g>
<!-- Node37 -->
<g id="Node000037" class="node">
<title>Node37</title>
<g id="a_Node000037"><a xlink:href="video__colorspace_8h.html" target="_top" xlink:title="Declarations for colorspace functions.">
<polygon fill="white" stroke="#666666" points="1548,-138 1431.5,-138 1431.5,-118 1548,-118 1548,-138"/>
<text text-anchor="middle" x="1489.75" y="-124.5" font-family="Helvetica,sans-Serif" font-size="10.00">src/video_colorspace.h</text>
</a>
</g>
</g>
<!-- Node1&#45;&gt;Node37 -->
<g id="edge59_Node000001_Node000037" class="edge">
<title>Node1&#45;&gt;Node37</title>
<g id="a_edge59_Node000001_Node000037"><a xlink:title=" ">
<path fill="none" stroke="#63b8ff" d="M757.59,-247.13C814.66,-241.32 914.5,-227.93 995.75,-200 1013.8,-193.8 1015.46,-185.44 1033.75,-180 1198.06,-131.15 1248.25,-169.52 1417.75,-144 1424.14,-143.04 1430.82,-141.87 1437.42,-140.62"/>
<polygon fill="#63b8ff" stroke="#63b8ff" points="1437.78,-144.11 1446.91,-138.74 1436.42,-137.25 1437.78,-144.11"/>
</a>
</g>
</g>
<!-- Node7 -->
<g id="Node000007" class="node">
<title>Node7</title>
<g id="a_Node000007"><a xlink:title=" ">
<polygon fill="#e0e0e0" stroke="#999999" points="205,-76 154.5,-76 154.5,-56 205,-56 205,-76"/>
<text text-anchor="middle" x="179.75" y="-62.5" font-family="Helvetica,sans-Serif" font-size="10.00">unistd.h</text>
</a>
</g>
</g>
<!-- Node6&#45;&gt;Node7 -->
<g id="edge6_Node000006_Node000007" class="edge">
<title>Node6&#45;&gt;Node7</title>
<g id="a_edge6_Node000006_Node000007"><a xlink:title=" ">
<path fill="none" stroke="#63b8ff" d="M291.97,-117.62C270.2,-107.81 235.77,-92.27 210.79,-81"/>
<polygon fill="#63b8ff" stroke="#63b8ff" points="212.32,-77.85 201.76,-76.93 209.44,-84.23 212.32,-77.85"/>
</a>
</g>
</g>
<!-- Node8 -->
<g id="Node000008" class="node">
<title>Node8</title>
<g id="a_Node000008"><a xlink:title=" ">
<polygon fill="#e0e0e0" stroke="#999999" points="664.25,-20 621.25,-20 621.25,0 664.25,0 664.25,-20"/>
<text text-anchor="middle" x="642.75" y="-6.5" font-family="Helvetica,sans-Serif" font-size="10.00">vector</text>
</a>
</g>
</g>
<!-- Node6&#45;&gt;Node8 -->
<g id="edge7_Node000006_Node000008" class="edge">
<title>Node6&#45;&gt;Node8</title>
<g id="a_edge7_Node000006_Node000008"><a xlink:title=" ">
<path fill="none" stroke="#63b8ff" d="M312.52,-117.95C312.66,-102.62 315.36,-71.68 333.75,-56 378.84,-17.56 534.5,-31.19 609.89,-19.78"/>
<polygon fill="#63b8ff" stroke="#63b8ff" points="610.13,-23.29 619.35,-18.08 608.89,-16.4 610.13,-23.29"/>
</a>
</g>
</g>
<!-- Node6&#45;&gt;Node9 -->
<g id="edge8_Node000006_Node000009" class="edge">
<title>Node6&#45;&gt;Node9</title>
<g id="a_edge8_Node000006_Node000009"><a xlink:title=" ">
<path fill="none" stroke="#63b8ff" d="M303.69,-117.62C295.04,-108.68 281.81,-94.99 271.28,-84.1"/>
<polygon fill="#63b8ff" stroke="#63b8ff" points="274.08,-81.96 264.61,-77.2 269.04,-86.82 274.08,-81.96"/>
</a>
</g>
</g>
<!-- Node9&#45;&gt;Node2 -->
<g id="edge13_Node000009_Node000002" class="edge">
<title>Node9&#45;&gt;Node2</title>
<g id="a_edge13_Node000009_Node000002"><a xlink:title=" ">
<path fill="none" stroke="#63b8ff" d="M254.4,-55.59C254.16,-49.01 253.82,-39.96 253.52,-31.73"/>
<polygon fill="#63b8ff" stroke="#63b8ff" points="257.02,-31.67 253.15,-21.81 250.02,-31.93 257.02,-31.67"/>
</a>
</g>
</g>
<!-- Node9&#45;&gt;Node3 -->
<g id="edge16_Node000009_Node000003" class="edge">
<title>Node9&#45;&gt;Node3</title>
<g id="a_edge16_Node000009_Node000003"><a xlink:title=" ">
<path fill="none" stroke="#63b8ff" d="M222.94,-57.26C184.64,-47.95 120.1,-32.25 76.96,-21.75"/>
<polygon fill="#63b8ff" stroke="#63b8ff" points="77.96,-18.4 67.42,-19.43 76.31,-25.2 77.96,-18.4"/>
</a>
</g>
</g>
<!-- Node9&#45;&gt;Node8 -->
<g id="edge19_Node000009_Node000008" class="edge">
<title>Node9&#45;&gt;Node8</title>
<g id="a_edge19_Node000009_Node000008"><a xlink:title=" ">
<path fill="none" stroke="#63b8ff" d="M286.86,-58.39C291.51,-57.52 296.25,-56.7 300.75,-56 434.62,-35.19 473.32,-46.84 609.56,-20.11"/>
<polygon fill="#63b8ff" stroke="#63b8ff" points="610.24,-23.54 619.36,-18.15 608.87,-16.68 610.24,-23.54"/>
</a>
</g>
</g>
<!-- Node10 -->
<g id="Node000010" class="node">
<title>Node10</title>
<g id="a_Node000010"><a xlink:title=" ">
<polygon fill="#e0e0e0" stroke="#999999" points="351.62,-20 295.88,-20 295.88,0 351.62,0 351.62,-20"/>
<text text-anchor="middle" x="323.75" y="-6.5" font-family="Helvetica,sans-Serif" font-size="10.00">algorithm</text>
</a>
</g>
</g>
<!-- Node9&#45;&gt;Node10 -->
<g id="edge9_Node000009_Node000010" class="edge">
<title>Node9&#45;&gt;Node10</title>
<g id="a_edge9_Node000009_Node000010"><a xlink:title=" ">
<path fill="none" stroke="#63b8ff" d="M266.77,-55.59C276.76,-47.77 291.21,-36.46 303.06,-27.19"/>
<polygon fill="#63b8ff" stroke="#63b8ff" points="304.96,-30.15 310.68,-21.23 300.64,-24.64 304.96,-30.15"/>
</a>
</g>
</g>
<!-- Node11 -->
<g id="Node000011" class="node">
<title>Node11</title>
<g id="a_Node000011"><a xlink:title=" ">
<polygon fill="#e0e0e0" stroke="#999999" points="602.75,-20 508.75,-20 508.75,0 602.75,0 602.75,-20"/>
<text text-anchor="middle" x="555.75" y="-6.5" font-family="Helvetica,sans-Serif" font-size="10.00">condition_variable</text>
</a>
</g>
</g>
<!-- Node9&#45;&gt;Node11 -->
<g id="edge10_Node000009_Node000011" class="edge">
<title>Node9&#45;&gt;Node11</title>
<g id="a_edge10_Node000009_Node000011"><a xlink:title=" ">
<path fill="none" stroke="#63b8ff" d="M286.41,-58.73C291.21,-57.8 296.11,-56.86 300.75,-56 368.14,-43.46 445.71,-29.9 497.43,-20.98"/>
<polygon fill="#63b8ff" stroke="#63b8ff" points="497.95,-24.44 507.21,-19.29 496.76,-17.54 497.95,-24.44"/>
</a>
</g>
</g>
<!-- Node12 -->
<g id="Node000012" class="node">
<title>Node12</title>
<g id="a_Node000012"><a xlink:title=" ">
<polygon fill="#e0e0e0" stroke="#999999" points="421.38,-20 370.12,-20 370.12,0 421.38,0 421.38,-20"/>
<text text-anchor="middle" x="395.75" y="-6.5" font-family="Helvetica,sans-Serif" font-size="10.00">memory</text>
</a>
</g>
</g>
<!-- Node9&#45;&gt;Node12 -->
<g id="edge11_Node000009_Node000012" class="edge">
<title>Node9&#45;&gt;Node12</title>
<g id="a_edge11_Node000009_Node000012"><a xlink:title=" ">
<path fill="none" stroke="#63b8ff" d="M279.31,-55.59C301.72,-47.01 335.09,-34.23 360.37,-24.55"/>
<polygon fill="#63b8ff" stroke="#63b8ff" points="361.5,-27.87 369.58,-21.02 358.99,-21.33 361.5,-27.87"/>
</a>
</g>
</g>
<!-- Node13 -->
<g id="Node000013" class="node">
<title>Node13</title>
<g id="a_Node000013"><a xlink:title=" ">
<polygon fill="#e0e0e0" stroke="#999999" points="889.25,-20 846.25,-20 846.25,0 889.25,0 889.25,-20"/>
<text text-anchor="middle" x="867.75" y="-6.5" font-family="Helvetica,sans-Serif" font-size="10.00">mutex</text>
</a>
</g>
</g>
<!-- Node9&#45;&gt;Node13 -->
<g id="edge12_Node000009_Node000013" class="edge">
<title>Node9&#45;&gt;Node13</title>
<g id="a_edge12_Node000009_Node000013"><a xlink:title=" ">
<path fill="none" stroke="#63b8ff" d="M286.62,-61.06C301.01,-59.36 318.22,-57.44 333.75,-56 553.65,-35.63 614.84,-59.69 834.66,-20.21"/>
<polygon fill="#63b8ff" stroke="#63b8ff" points="835.23,-23.66 844.44,-18.42 833.98,-16.77 835.23,-23.66"/>
</a>
</g>
</g>
<!-- Node14 -->
<g id="Node000014" class="node">
<title>Node14</title>
<g id="a_Node000014"><a xlink:title=" ">
<polygon fill="#e0e0e0" stroke="#999999" points="490.38,-20 439.12,-20 439.12,0 490.38,0 490.38,-20"/>
<text text-anchor="middle" x="464.75" y="-6.5" font-family="Helvetica,sans-Serif" font-size="10.00">ostream</text>
</a>
</g>
</g>
<!-- Node9&#45;&gt;Node14 -->
<g id="edge14_Node000009_Node000014" class="edge">
<title>Node9&#45;&gt;Node14</title>
<g id="a_edge14_Node000009_Node000014"><a xlink:title=" ">
<path fill="none" stroke="#63b8ff" d="M286.57,-56.95C319.63,-48.57 373.16,-34.94 427.82,-20.75"/>
<polygon fill="#63b8ff" stroke="#63b8ff" points="428.51,-24.19 437.3,-18.28 426.74,-17.41 428.51,-24.19"/>
</a>
</g>
</g>
<!-- Node15 -->
<g id="Node000015" class="node">
<title>Node15</title>
<g id="a_Node000015"><a xlink:title=" ">
<polygon fill="#e0e0e0" stroke="#999999" points="1190.75,-20 1150.75,-20 1150.75,0 1190.75,0 1190.75,-20"/>
<text text-anchor="middle" x="1170.75" y="-6.5" font-family="Helvetica,sans-Serif" font-size="10.00">string</text>
</a>
</g>
</g>
<!-- Node9&#45;&gt;Node15 -->
<g id="edge15_Node000009_Node000015" class="edge">
<title>Node9&#45;&gt;Node15</title>
<g id="a_edge15_Node000009_Node000015"><a xlink:title=" ">
<path fill="none" stroke="#63b8ff" d="M286.61,-60.86C300.99,-59.13 318.2,-57.23 333.75,-56 688.33,-27.94 785.6,-80.65 1138.98,-20.02"/>
<polygon fill="#63b8ff" stroke="#63b8ff" points="1139.57,-23.47 1148.82,-18.31 1138.37,-16.58 1139.57,-23.47"/>
</a>
</g>
</g>
<!-- Node16 -->
<g id="Node000016" class="node">
<title>Node16</title>
<g id="a_Node000016"><a xlink:title=" ">
<polygon fill="#e0e0e0" stroke="#999999" points="145.62,-20 83.88,-20 83.88,0 145.62,0 145.62,-20"/>
<text text-anchor="middle" x="114.75" y="-6.5" font-family="Helvetica,sans-Serif" font-size="10.00">type_traits</text>
</a>
</g>
</g>
<!-- Node9&#45;&gt;Node16 -->
<g id="edge17_Node000009_Node000016" class="edge">
<title>Node9&#45;&gt;Node16</title>
<g id="a_edge17_Node000009_Node000016"><a xlink:title=" ">
<path fill="none" stroke="#63b8ff" d="M230.36,-55.59C208.12,-47.01 174.98,-34.23 149.88,-24.55"/>
<polygon fill="#63b8ff" stroke="#63b8ff" points="151.33,-21.36 140.74,-21.02 148.81,-27.89 151.33,-21.36"/>
</a>
</g>
</g>
<!-- Node17 -->
<g id="Node000017" class="node">
<title>Node17</title>
<g id="a_Node000017"><a xlink:title=" ">
<polygon fill="#e0e0e0" stroke="#999999" points="209.38,-20 164.12,-20 164.12,0 209.38,0 209.38,-20"/>
<text text-anchor="middle" x="186.75" y="-6.5" font-family="Helvetica,sans-Serif" font-size="10.00">variant</text>
</a>
</g>
</g>
<!-- Node9&#45;&gt;Node17 -->
<g id="edge18_Node000009_Node000017" class="edge">
<title>Node9&#45;&gt;Node17</title>
<g id="a_edge18_Node000009_Node000017"><a xlink:title=" ">
<path fill="none" stroke="#63b8ff" d="M242.91,-55.59C233.06,-47.77 218.82,-36.46 207.14,-27.19"/>
<polygon fill="#63b8ff" stroke="#63b8ff" points="209.65,-24.72 199.64,-21.24 205.3,-30.2 209.65,-24.72"/>
</a>
</g>
</g>
<!-- Node19 -->
<g id="Node000019" class="node">
<title>Node19</title>
<g id="a_Node000019"><a xlink:title=" ">
<polygon fill="#e0e0e0" stroke="#999999" points="576.25,-76 461.25,-76 461.25,-56 576.25,-56 576.25,-76"/>
<text text-anchor="middle" x="518.75" y="-62.5" font-family="Helvetica,sans-Serif" font-size="10.00">boost/log/common.hpp</text>
</a>
</g>
</g>
<!-- Node18&#45;&gt;Node19 -->
<g id="edge21_Node000018_Node000019" class="edge">
<title>Node18&#45;&gt;Node19</title>
<g id="a_edge21_Node000018_Node000019"><a xlink:title=" ">
<path fill="none" stroke="#63b8ff" d="M681.59,-117.62C648.83,-107.44 596.29,-91.11 559.79,-79.76"/>
<polygon fill="#63b8ff" stroke="#63b8ff" points="561.05,-76.48 550.46,-76.86 558.97,-83.17 561.05,-76.48"/>
</a>
</g>
</g>
<!-- Node20 -->
<g id="Node000020" class="node">
<title>Node20</title>
<g id="a_Node000020"><a xlink:title=" ">
<polygon fill="#e0e0e0" stroke="#999999" points="443.12,-76 342.38,-76 342.38,-56 443.12,-56 443.12,-76"/>
<text text-anchor="middle" x="392.75" y="-62.5" font-family="Helvetica,sans-Serif" font-size="10.00">boost/log/sinks.hpp</text>
</a>
</g>
</g>
<!-- Node18&#45;&gt;Node20 -->
<g id="edge22_Node000018_Node000020" class="edge">
<title>Node18&#45;&gt;Node20</title>
<g id="a_edge22_Node000018_Node000020"><a xlink:title=" ">
<path fill="none" stroke="#63b8ff" d="M675.78,-120.23C622.02,-110.12 520.03,-90.94 454.28,-78.57"/>
<polygon fill="#63b8ff" stroke="#63b8ff" points="455.21,-75.19 444.74,-76.78 453.92,-82.07 455.21,-75.19"/>
</a>
</g>
</g>
<!-- Node21 -->
<g id="Node000021" class="node">
<title>Node21</title>
<g id="a_Node000021"><a xlink:href="config_8h.html" target="_top" xlink:title="Declarations for the configuration of Sunshine.">
<polygon fill="white" stroke="#666666" points="1145,-76 1094.5,-76 1094.5,-56 1145,-56 1145,-76"/>
<text text-anchor="middle" x="1119.75" y="-62.5" font-family="Helvetica,sans-Serif" font-size="10.00">config.h</text>
</a>
</g>
</g>
<!-- Node18&#45;&gt;Node21 -->
<g id="edge23_Node000018_Node000021" class="edge">
<title>Node18&#45;&gt;Node21</title>
<g id="a_edge23_Node000018_Node000021"><a xlink:title=" ">
<path fill="none" stroke="#63b8ff" d="M747.68,-120.63C763.61,-117.87 782.6,-114.67 799.75,-112 902.18,-96.07 1023.45,-79.69 1083,-71.81"/>
<polygon fill="#63b8ff" stroke="#63b8ff" points="1083.45,-75.28 1092.91,-70.51 1082.54,-68.34 1083.45,-75.28"/>
</a>
</g>
</g>
<!-- Node26 -->
<g id="Node000026" class="node">
<title>Node26</title>
<g id="a_Node000026"><a xlink:href="stat__trackers_8h.html" target="_top" xlink:title="Declarations for streaming statistic tracking.">
<polygon fill="white" stroke="#666666" points="752.38,-76 671.12,-76 671.12,-56 752.38,-56 752.38,-76"/>
<text text-anchor="middle" x="711.75" y="-62.5" font-family="Helvetica,sans-Serif" font-size="10.00">stat_trackers.h</text>
</a>
</g>
</g>
<!-- Node18&#45;&gt;Node26 -->
<g id="edge31_Node000018_Node000026" class="edge">
<title>Node18&#45;&gt;Node26</title>
<g id="a_edge31_Node000018_Node000026"><a xlink:title=" ">
<path fill="none" stroke="#63b8ff" d="M711.75,-117.62C711.75,-109.56 711.75,-97.65 711.75,-87.41"/>
<polygon fill="#63b8ff" stroke="#63b8ff" points="715.25,-87.63 711.75,-77.63 708.25,-87.63 715.25,-87.63"/>
</a>
</g>
</g>
<!-- Node21&#45;&gt;Node2 -->
<g id="edge26_Node000021_Node000002" class="edge">
<title>Node21&#45;&gt;Node2</title>
<g id="a_edge26_Node000021_Node000002"><a xlink:title=" ">
<path fill="none" stroke="#63b8ff" d="M1094.14,-61.31C1080.41,-59.46 1063.19,-57.33 1047.75,-56 714.02,-27.29 623.33,-70.66 288.86,-19.97"/>
<polygon fill="#63b8ff" stroke="#63b8ff" points="289.79,-16.57 279.37,-18.51 288.73,-23.49 289.79,-16.57"/>
</a>
</g>
</g>
<!-- Node21&#45;&gt;Node8 -->
<g id="edge29_Node000021_Node000008" class="edge">
<title>Node21&#45;&gt;Node8</title>
<g id="a_edge29_Node000021_Node000008"><a xlink:title=" ">
<path fill="none" stroke="#63b8ff" d="M1094.11,-61.61C1080.37,-59.85 1063.15,-57.7 1047.75,-56 884.91,-38.01 839.01,-51.6 675.52,-20.22"/>
<polygon fill="#63b8ff" stroke="#63b8ff" points="676.55,-16.86 666.07,-18.38 675.21,-23.73 676.55,-16.86"/>
</a>
</g>
</g>
<!-- Node21&#45;&gt;Node15 -->
<g id="edge27_Node000021_Node000015" class="edge">
<title>Node21&#45;&gt;Node15</title>
<g id="a_edge27_Node000021_Node000015"><a xlink:title=" ">
<path fill="none" stroke="#63b8ff" d="M1128.63,-55.59C1135.65,-48.16 1145.65,-37.58 1154.14,-28.58"/>
<polygon fill="#63b8ff" stroke="#63b8ff" points="1156.61,-31.07 1160.93,-21.4 1151.52,-26.27 1156.61,-31.07"/>
</a>
</g>
</g>
<!-- Node22 -->
<g id="Node000022" class="node">
<title>Node22</title>
<g id="a_Node000022"><a xlink:title=" ">
<polygon fill="#e0e0e0" stroke="#999999" points="1383.75,-20 1343.75,-20 1343.75,0 1383.75,0 1383.75,-20"/>
<text text-anchor="middle" x="1363.75" y="-6.5" font-family="Helvetica,sans-Serif" font-size="10.00">bitset</text>
</a>
</g>
</g>
<!-- Node21&#45;&gt;Node22 -->
<g id="edge24_Node000021_Node000022" class="edge">
<title>Node21&#45;&gt;Node22</title>
<g id="a_edge24_Node000021_Node000022"><a xlink:title=" ">
<path fill="none" stroke="#63b8ff" d="M1145.38,-59.92C1185.02,-51.97 1263.57,-35.84 1329.75,-20 1330.57,-19.8 1331.41,-19.6 1332.25,-19.39"/>
<polygon fill="#63b8ff" stroke="#63b8ff" points="1333,-22.82 1341.83,-16.96 1331.27,-16.03 1333,-22.82"/>
</a>
</g>
</g>
<!-- Node23 -->
<g id="Node000023" class="node">
<title>Node23</title>
<g id="a_Node000023"><a xlink:title=" ">
<polygon fill="#e0e0e0" stroke="#999999" points="1032.38,-20 987.12,-20 987.12,0 1032.38,0 1032.38,-20"/>
<text text-anchor="middle" x="1009.75" y="-6.5" font-family="Helvetica,sans-Serif" font-size="10.00">chrono</text>
</a>
</g>
</g>
<!-- Node21&#45;&gt;Node23 -->
<g id="edge25_Node000021_Node000023" class="edge">
<title>Node21&#45;&gt;Node23</title>
<g id="a_edge25_Node000021_Node000023"><a xlink:title=" ">
<path fill="none" stroke="#63b8ff" d="M1100.59,-55.59C1083.66,-47.28 1058.7,-35.03 1039.23,-25.47"/>
<polygon fill="#63b8ff" stroke="#63b8ff" points="1040.94,-22.41 1030.42,-21.15 1037.85,-28.7 1040.94,-22.41"/>
</a>
</g>
</g>
<!-- Node24 -->
<g id="Node000024" class="node">
<title>Node24</title>
<g id="a_Node000024"><a xlink:title=" ">
<polygon fill="#e0e0e0" stroke="#999999" points="1133.12,-20 1050.38,-20 1050.38,0 1133.12,0 1133.12,-20"/>
<text text-anchor="middle" x="1091.75" y="-6.5" font-family="Helvetica,sans-Serif" font-size="10.00">unordered_map</text>
</a>
</g>
</g>
<!-- Node21&#45;&gt;Node24 -->
<g id="edge28_Node000021_Node000024" class="edge">
<title>Node21&#45;&gt;Node24</title>
<g id="a_edge28_Node000021_Node000024"><a xlink:title=" ">
<path fill="none" stroke="#63b8ff" d="M1114.87,-55.59C1111.26,-48.63 1106.21,-38.89 1101.75,-30.29"/>
<polygon fill="#63b8ff" stroke="#63b8ff" points="1104.98,-28.91 1097.27,-21.64 1098.76,-32.13 1104.98,-28.91"/>
</a>
</g>
</g>
<!-- Node25 -->
<g id="Node000025" class="node">
<title>Node25</title>
<g id="a_Node000025"><a xlink:href="nvenc__config_8h.html" target="_top" xlink:title="Declarations for NVENC encoder configuration.">
<polygon fill="white" stroke="#666666" points="1320.38,-20 1209.12,-20 1209.12,0 1320.38,0 1320.38,-20"/>
<text text-anchor="middle" x="1264.75" y="-6.5" font-family="Helvetica,sans-Serif" font-size="10.00">nvenc/nvenc_config.h</text>
</a>
</g>
</g>
<!-- Node21&#45;&gt;Node25 -->
<g id="edge30_Node000021_Node000025" class="edge">
<title>Node21&#45;&gt;Node25</title>
<g id="a_edge30_Node000021_Node000025"><a xlink:title=" ">
<path fill="none" stroke="#63b8ff" d="M1145.01,-55.59C1168.15,-46.97 1202.67,-34.12 1228.71,-24.42"/>
<polygon fill="#63b8ff" stroke="#63b8ff" points="1229.73,-27.78 1237.88,-21.01 1227.28,-21.22 1229.73,-27.78"/>
</a>
</g>
</g>
<!-- Node26&#45;&gt;Node23 -->
<g id="edge32_Node000026_Node000023" class="edge">
<title>Node26&#45;&gt;Node23</title>
<g id="a_edge32_Node000026_Node000023"><a xlink:title=" ">
<path fill="none" stroke="#63b8ff" d="M752.57,-59.47C802.81,-52.37 890.9,-38.94 975.63,-20.27"/>
<polygon fill="#63b8ff" stroke="#63b8ff" points="976.28,-23.71 985.28,-18.11 974.75,-16.88 976.28,-23.71"/>
</a>
</g>
</g>
<!-- Node27 -->
<g id="Node000027" class="node">
<title>Node27</title>
<g id="a_Node000027"><a xlink:title=" ">
<polygon fill="#e0e0e0" stroke="#999999" points="968.75,-20 910.75,-20 910.75,0 968.75,0 968.75,-20"/>
<text text-anchor="middle" x="939.75" y="-6.5" font-family="Helvetica,sans-Serif" font-size="10.00">functional</text>
</a>
</g>
</g>
<!-- Node26&#45;&gt;Node27 -->
<g id="edge33_Node000026_Node000027" class="edge">
<title>Node26&#45;&gt;Node27</title>
<g id="a_edge33_Node000026_Node000027"><a xlink:title=" ">
<path fill="none" stroke="#63b8ff" d="M751.73,-55.53C793.17,-45.72 857.6,-30.46 899.24,-20.59"/>
<polygon fill="#63b8ff" stroke="#63b8ff" points="899.95,-24.02 908.87,-18.31 898.33,-17.21 899.95,-24.02"/>
</a>
</g>
</g>
<!-- Node28 -->
<g id="Node000028" class="node">
<title>Node28</title>
<g id="a_Node000028"><a xlink:title=" ">
<polygon fill="#e0e0e0" stroke="#999999" points="721.38,-20 682.12,-20 682.12,0 721.38,0 721.38,-20"/>
<text text-anchor="middle" x="701.75" y="-6.5" font-family="Helvetica,sans-Serif" font-size="10.00">limits</text>
</a>
</g>
</g>
<!-- Node26&#45;&gt;Node28 -->
<g id="edge34_Node000026_Node000028" class="edge">
<title>Node26&#45;&gt;Node28</title>
<g id="a_edge34_Node000026_Node000028"><a xlink:title=" ">
<path fill="none" stroke="#63b8ff" d="M710.01,-55.59C708.77,-48.93 707.07,-39.75 705.54,-31.44"/>
<polygon fill="#63b8ff" stroke="#63b8ff" points="709.01,-30.98 703.75,-21.79 702.13,-32.26 709.01,-30.98"/>
</a>
</g>
</g>
<!-- Node29 -->
<g id="Node000029" class="node">
<title>Node29</title>
<g id="a_Node000029"><a xlink:title=" ">
<polygon fill="#e0e0e0" stroke="#999999" points="828.5,-20 739,-20 739,0 828.5,0 828.5,-20"/>
<text text-anchor="middle" x="783.75" y="-6.5" font-family="Helvetica,sans-Serif" font-size="10.00">boost/format.hpp</text>
</a>
</g>
</g>
<!-- Node26&#45;&gt;Node29 -->
<g id="edge35_Node000026_Node000029" class="edge">
<title>Node26&#45;&gt;Node29</title>
<g id="a_edge35_Node000026_Node000029"><a xlink:title=" ">
<path fill="none" stroke="#63b8ff" d="M724.29,-55.59C734.72,-47.77 749.8,-36.46 762.16,-27.19"/>
<polygon fill="#63b8ff" stroke="#63b8ff" points="764.24,-30.01 770.14,-21.21 760.04,-24.41 764.24,-30.01"/>
</a>
</g>
</g>
<!-- Node30&#45;&gt;Node9 -->
<g id="edge54_Node000030_Node000009" class="edge">
<title>Node30&#45;&gt;Node9</title>
<g id="a_edge54_Node000030_Node000009"><a xlink:title=" ">
<path fill="none" stroke="#63b8ff" d="M872.23,-179.54C819.14,-170.59 737.5,-156.69 666.75,-144 532.14,-119.86 373.11,-89.66 298.08,-75.31"/>
<polygon fill="#63b8ff" stroke="#63b8ff" points="298.74,-71.88 288.26,-73.43 297.42,-78.75 298.74,-71.88"/>
</a>
</g>
</g>
<!-- Node30&#45;&gt;Node13 -->
<g id="edge40_Node000030_Node000013" class="edge">
<title>Node30&#45;&gt;Node13</title>
<g id="a_edge40_Node000030_Node000013"><a xlink:title=" ">
<path fill="none" stroke="#63b8ff" d="M870.17,-183.62C844.15,-177.97 815.82,-166.63 799.75,-144 777.1,-112.11 781.24,-90.45 799.75,-56 807.49,-41.59 822.1,-31.02 835.8,-23.76"/>
<polygon fill="#63b8ff" stroke="#63b8ff" points="837.12,-27.01 844.6,-19.5 834.07,-20.71 837.12,-27.01"/>
</a>
</g>
</g>
<!-- Node30&#45;&gt;Node15 -->
<g id="edge41_Node000030_Node000015" class="edge">
<title>Node30&#45;&gt;Node15</title>
<g id="a_edge41_Node000030_Node000015"><a xlink:title=" ">
<path fill="none" stroke="#63b8ff" d="M987.43,-180.54C988.88,-180.35 990.32,-180.17 991.75,-180 1031.1,-175.2 1320.17,-173.41 1346.75,-144 1356.29,-133.45 1353.88,-124.31 1346.75,-112 1330.57,-84.06 1247.32,-44.35 1201.35,-24.05"/>
<polygon fill="#63b8ff" stroke="#63b8ff" points="1203.02,-20.96 1192.45,-20.16 1200.22,-27.37 1203.02,-20.96"/>
</a>
</g>
</g>
<!-- Node30&#45;&gt;Node18 -->
<g id="edge44_Node000030_Node000018" class="edge">
<title>Node30&#45;&gt;Node18</title>
<g id="a_edge44_Node000030_Node000018"><a xlink:title=" ">
<path fill="none" stroke="#63b8ff" d="M894.84,-179.62C857.69,-169.35 797.92,-152.82 756.83,-141.47"/>
<polygon fill="#63b8ff" stroke="#63b8ff" points="757.81,-138.1 747.23,-138.81 755.94,-144.85 757.81,-138.1"/>
</a>
</g>
</g>
<!-- Node30&#45;&gt;Node21 -->
<g id="edge43_Node000030_Node000021" class="edge">
<title>Node30&#45;&gt;Node21</title>
<g id="a_edge43_Node000030_Node000021"><a xlink:title=" ">
<path fill="none" stroke="#63b8ff" d="M933.32,-179.74C941.72,-163.67 961.11,-130.53 986.75,-112 1002.42,-100.68 1049.7,-86.12 1083.43,-76.67"/>
<polygon fill="#63b8ff" stroke="#63b8ff" points="1084.11,-80.12 1092.82,-74.08 1082.25,-73.37 1084.11,-80.12"/>
</a>
</g>
</g>
<!-- Node30&#45;&gt;Node22 -->
<g id="edge37_Node000030_Node000022" class="edge">
<title>Node30&#45;&gt;Node22</title>
<g id="a_edge37_Node000030_Node000022"><a xlink:title=" ">
<path fill="none" stroke="#63b8ff" d="M987.43,-180.54C988.88,-180.35 990.32,-180.17 991.75,-180 1070.46,-170.39 1289.96,-199.33 1346.75,-144 1376.8,-114.72 1372.96,-60.74 1368.06,-31.35"/>
<polygon fill="#63b8ff" stroke="#63b8ff" points="1371.57,-31.07 1366.27,-21.9 1364.69,-32.37 1371.57,-31.07"/>
</a>
</g>
</g>
<!-- Node30&#45;&gt;Node27 -->
<g id="edge39_Node000030_Node000027" class="edge">
<title>Node30&#45;&gt;Node27</title>
<g id="a_edge39_Node000030_Node000027"><a xlink:title=" ">
<path fill="none" stroke="#63b8ff" d="M928.97,-179.65C929.84,-163.71 933.85,-131.17 951.75,-112 982.85,-78.69 1021.79,-113.45 1047.75,-76 1052.81,-68.69 1052.68,-63.4 1047.75,-56 1039.73,-43.97 1007.22,-31.4 979.95,-22.61"/>
<polygon fill="#63b8ff" stroke="#63b8ff" points="981.08,-19.3 970.49,-19.66 978.99,-25.98 981.08,-19.3"/>
</a>
</g>
</g>
<!-- Node31 -->
<g id="Node000031" class="node">
<title>Node31</title>
<g id="a_Node000031"><a xlink:title=" ">
<polygon fill="#e0e0e0" stroke="#999999" points="1056.25,-138 995.25,-138 995.25,-118 1056.25,-118 1056.25,-138"/>
<text text-anchor="middle" x="1025.75" y="-124.5" font-family="Helvetica,sans-Serif" font-size="10.00">filesystem</text>
</a>
</g>
</g>
<!-- Node30&#45;&gt;Node31 -->
<g id="edge38_Node000030_Node000031" class="edge">
<title>Node30&#45;&gt;Node31</title>
<g id="a_edge38_Node000030_Node000031"><a xlink:title=" ">
<path fill="none" stroke="#63b8ff" d="M943.91,-179.62C959.21,-170.16 983.1,-155.38 1001.13,-144.23"/>
<polygon fill="#63b8ff" stroke="#63b8ff" points="1002.75,-147.34 1009.41,-139.11 999.07,-141.39 1002.75,-147.34"/>
</a>
</g>
</g>
<!-- Node32 -->
<g id="Node000032" class="node">
<title>Node32</title>
<g id="a_Node000032"><a xlink:title=" ">
<polygon fill="#e0e0e0" stroke="#999999" points="1212.88,-138 1074.62,-138 1074.62,-118 1212.88,-118 1212.88,-138"/>
<text text-anchor="middle" x="1143.75" y="-124.5" font-family="Helvetica,sans-Serif" font-size="10.00">boost/core/noncopyable.hpp</text>
</a>
</g>
</g>
<!-- Node30&#45;&gt;Node32 -->
<g id="edge42_Node000030_Node000032" class="edge">
<title>Node30&#45;&gt;Node32</title>
<g id="a_edge42_Node000030_Node000032"><a xlink:title=" ">
<path fill="none" stroke="#63b8ff" d="M962.34,-179.62C999.16,-169.35 1058.38,-152.82 1099.08,-141.47"/>
<polygon fill="#63b8ff" stroke="#63b8ff" points="1099.89,-144.87 1108.58,-138.81 1098.01,-138.13 1099.89,-144.87"/>
</a>
</g>
</g>
<!-- Node33 -->
<g id="Node000033" class="node">
<title>Node33</title>
<g id="a_Node000033"><a xlink:href="thread__safe_8h.html" target="_top" xlink:title="Declarations for thread&#45;safe data structures.">
<polygon fill="white" stroke="#666666" points="900.62,-138 808.88,-138 808.88,-118 900.62,-118 900.62,-138"/>
<text text-anchor="middle" x="854.75" y="-124.5" font-family="Helvetica,sans-Serif" font-size="10.00">src/thread_safe.h</text>
</a>
</g>
</g>
<!-- Node30&#45;&gt;Node33 -->
<g id="edge45_Node000030_Node000033" class="edge">
<title>Node30&#45;&gt;Node33</title>
<g id="a_edge45_Node000030_Node000033"><a xlink:title=" ">
<path fill="none" stroke="#63b8ff" d="M917.19,-179.62C905.83,-170.41 888.26,-156.17 874.65,-145.14"/>
<polygon fill="#63b8ff" stroke="#63b8ff" points="877.14,-142.65 867.16,-139.07 872.73,-148.08 877.14,-142.65"/>
</a>
</g>
</g>
<!-- Node30&#45;&gt;Node37 -->
<g id="edge55_Node000030_Node000037" class="edge">
<title>Node30&#45;&gt;Node37</title>
<g id="a_edge55_Node000030_Node000037"><a xlink:title=" ">
<path fill="none" stroke="#63b8ff" d="M987.28,-181.49C991.83,-180.97 996.37,-180.46 1000.75,-180 1185.74,-160.46 1233.7,-171.02 1417.75,-144 1424.14,-143.06 1430.82,-141.91 1437.43,-140.66"/>
<polygon fill="#63b8ff" stroke="#63b8ff" points="1437.78,-144.16 1446.92,-138.79 1436.43,-137.29 1437.78,-144.16"/>
</a>
</g>
</g>
<!-- Node39 -->
<g id="Node000039" class="node">
<title>Node39</title>
<g id="a_Node000039"><a xlink:title=" ">
<polygon fill="#e0e0e0" stroke="#999999" points="1338.12,-144 1231.38,-144 1231.38,-112 1338.12,-112 1338.12,-144"/>
<text text-anchor="start" x="1239.38" y="-130.5" font-family="Helvetica,sans-Serif" font-size="10.00">moonlight&#45;common&#45;c</text>
<text text-anchor="middle" x="1284.75" y="-118.5" font-family="Helvetica,sans-Serif" font-size="10.00">/src/Limelight.h</text>
</a>
</g>
</g>
<!-- Node30&#45;&gt;Node39 -->
<g id="edge57_Node000030_Node000039" class="edge">
<title>Node30&#45;&gt;Node39</title>
<g id="a_edge57_Node000030_Node000039"><a xlink:title=" ">
<path fill="none" stroke="#63b8ff" d="M987.36,-181.43C1044.25,-173.76 1133.26,-160.91 1220.07,-144.23"/>
<polygon fill="#63b8ff" stroke="#63b8ff" points="1220.56,-147.7 1229.71,-142.35 1219.23,-140.82 1220.56,-147.7"/>
</a>
</g>
</g>
<!-- Node33&#45;&gt;Node8 -->
<g id="edge52_Node000033_Node000008" class="edge">
<title>Node33&#45;&gt;Node8</title>
<g id="a_edge52_Node000033_Node000008"><a xlink:title=" ">
<path fill="none" stroke="#63b8ff" d="M808.5,-120.12C758.29,-111.74 682.48,-96.19 661.75,-76 649.9,-64.45 645.33,-45.95 643.63,-31.63"/>
<polygon fill="#63b8ff" stroke="#63b8ff" points="647.14,-31.62 642.87,-21.92 640.16,-32.16 647.14,-31.62"/>
</a>
</g>
</g>
<!-- Node33&#45;&gt;Node9 -->
<g id="edge53_Node000033_Node000009" class="edge">
<title>Node33&#45;&gt;Node9</title>
<g id="a_edge53_Node000033_Node000009"><a xlink:title=" ">
<path fill="none" stroke="#63b8ff" d="M808.47,-119.27C792.16,-116.71 773.67,-114.01 756.75,-112 569.39,-89.71 521.5,-94.68 333.75,-76 322.11,-74.84 309.52,-73.46 297.88,-72.14"/>
<polygon fill="#63b8ff" stroke="#63b8ff" points="298.47,-68.68 288.14,-71.02 297.67,-75.64 298.47,-68.68"/>
</a>
</g>
</g>
<!-- Node33&#45;&gt;Node11 -->
<g id="edge48_Node000033_Node000011" class="edge">
<title>Node33&#45;&gt;Node11</title>
<g id="a_edge48_Node000033_Node000011"><a xlink:title=" ">
<path fill="none" stroke="#63b8ff" d="M808.63,-120.98C765.11,-114.1 698.82,-100.5 645.75,-76 618.88,-63.6 591.86,-42.69 574.54,-27.94"/>
<polygon fill="#63b8ff" stroke="#63b8ff" points="576.96,-25.4 567.12,-21.46 572.36,-30.67 576.96,-25.4"/>
</a>
</g>
</g>
<!-- Node33&#45;&gt;Node13 -->
<g id="edge51_Node000033_Node000013" class="edge">
<title>Node33&#45;&gt;Node13</title>
<g id="a_edge51_Node000033_Node000013"><a xlink:title=" ">
<path fill="none" stroke="#63b8ff" d="M872.95,-117.66C887.55,-109.04 906.98,-94.76 915.75,-76 924.29,-57.73 908.1,-39.48 892.26,-26.99"/>
<polygon fill="#63b8ff" stroke="#63b8ff" points="894.52,-24.31 884.38,-21.23 890.39,-29.96 894.52,-24.31"/>
</a>
</g>
</g>
<!-- Node33&#45;&gt;Node27 -->
<g id="edge49_Node000033_Node000027" class="edge">
<title>Node33&#45;&gt;Node27</title>
<g id="a_edge49_Node000033_Node000027"><a xlink:title=" ">
<path fill="none" stroke="#63b8ff" d="M878.34,-117.57C895.78,-109.3 918.54,-95.54 930.75,-76 938.99,-62.82 941,-45.23 941.09,-31.68"/>
<polygon fill="#63b8ff" stroke="#63b8ff" points="944.58,-31.58 940.76,-21.7 937.59,-31.81 944.58,-31.58"/>
</a>
</g>
</g>
<!-- Node34 -->
<g id="Node000034" class="node">
<title>Node34</title>
<g id="a_Node000034"><a xlink:title=" ">
<polygon fill="#e0e0e0" stroke="#999999" points="1038.62,-76 1000.88,-76 1000.88,-56 1038.62,-56 1038.62,-76"/>
<text text-anchor="middle" x="1019.75" y="-62.5" font-family="Helvetica,sans-Serif" font-size="10.00">array</text>
</a>
</g>
</g>
<!-- Node33&#45;&gt;Node34 -->
<g id="edge46_Node000033_Node000034" class="edge">
<title>Node33&#45;&gt;Node34</title>
<g id="a_edge46_Node000033_Node000034"><a xlink:title=" ">
<path fill="none" stroke="#63b8ff" d="M880.53,-117.62C910.24,-106.82 958.96,-89.11 990.18,-77.75"/>
<polygon fill="#63b8ff" stroke="#63b8ff" points="991.2,-81.11 999.4,-74.4 988.81,-74.53 991.2,-81.11"/>
</a>
</g>
</g>
<!-- Node35 -->
<g id="Node000035" class="node">
<title>Node35</title>
<g id="a_Node000035"><a xlink:title=" ">
<polygon fill="#e0e0e0" stroke="#999999" points="854.38,-76 809.12,-76 809.12,-56 854.38,-56 854.38,-76"/>
<text text-anchor="middle" x="831.75" y="-62.5" font-family="Helvetica,sans-Serif" font-size="10.00">atomic</text>
</a>
</g>
</g>
<!-- Node33&#45;&gt;Node35 -->
<g id="edge47_Node000033_Node000035" class="edge">
<title>Node33&#45;&gt;Node35</title>
<g id="a_edge47_Node000033_Node000035"><a xlink:title=" ">
<path fill="none" stroke="#63b8ff" d="M851.16,-117.62C848,-109.39 843.3,-97.13 839.32,-86.74"/>
<polygon fill="#63b8ff" stroke="#63b8ff" points="842.63,-85.61 835.78,-77.53 836.1,-88.12 842.63,-85.61"/>
</a>
</g>
</g>
<!-- Node36 -->
<g id="Node000036" class="node">
<title>Node36</title>
<g id="a_Node000036"><a xlink:title=" ">
<polygon fill="#e0e0e0" stroke="#999999" points="907.12,-76 872.38,-76 872.38,-56 907.12,-56 907.12,-76"/>
<text text-anchor="middle" x="889.75" y="-62.5" font-family="Helvetica,sans-Serif" font-size="10.00">map</text>
</a>
</g>
</g>
<!-- Node33&#45;&gt;Node36 -->
<g id="edge50_Node000033_Node000036" class="edge">
<title>Node33&#45;&gt;Node36</title>
<g id="a_edge50_Node000033_Node000036"><a xlink:title=" ">
<path fill="none" stroke="#63b8ff" d="M860.22,-117.62C865.18,-109.12 872.64,-96.33 878.82,-85.74"/>
<polygon fill="#63b8ff" stroke="#63b8ff" points="881.66,-87.82 883.67,-77.42 875.61,-84.29 881.66,-87.82"/>
</a>
</g>
</g>
<!-- Node38 -->
<g id="Node000038" class="node">
<title>Node38</title>
<g id="a_Node000038"><a xlink:title=" ">
<polygon fill="#e0e0e0" stroke="#999999" points="1533.38,-76 1446.12,-76 1446.12,-56 1533.38,-56 1533.38,-76"/>
<text text-anchor="middle" x="1489.75" y="-62.5" font-family="Helvetica,sans-Serif" font-size="10.00">libavutil/pixfmt.h</text>
</a>
</g>
</g>
<!-- Node37&#45;&gt;Node38 -->
<g id="edge56_Node000037_Node000038" class="edge">
<title>Node37&#45;&gt;Node38</title>
<g id="a_edge56_Node000037_Node000038"><a xlink:title=" ">
<path fill="none" stroke="#63b8ff" d="M1489.75,-117.62C1489.75,-109.56 1489.75,-97.65 1489.75,-87.41"/>
<polygon fill="#63b8ff" stroke="#63b8ff" points="1493.25,-87.63 1489.75,-77.63 1486.25,-87.63 1493.25,-87.63"/>
</a>
</g>
</g>
</g>
</svg>
