<?xml version="1.0" encoding="UTF-8" standalone="no"?>
<!DOCTYPE svg PUBLIC "-//W3C//DTD SVG 1.1//EN"
 "http://www.w3.org/Graphics/SVG/1.1/DTD/svg11.dtd">
<!-- Generated by graphviz version 12.2.1 (0)
 -->
<!-- Title: src/httpcommon.h Pages: 1 -->
<svg width="818pt" height="196pt"
 viewBox="0.00 0.00 817.88 196.00" xmlns="http://www.w3.org/2000/svg" xmlns:xlink="http://www.w3.org/1999/xlink">
<g id="graph0" class="graph" transform="scale(1 1) rotate(0) translate(4 192)">
<title>src/httpcommon.h</title>
<!-- Node1 -->
<g id="Node000001" class="node">
<title>Node1</title>
<g id="a_Node000001"><a xlink:title="Declarations for common HTTP.">
<polygon fill="#999999" stroke="#666666" points="342.25,-188 247.5,-188 247.5,-168 342.25,-168 342.25,-188"/>
<text text-anchor="middle" x="294.88" y="-174.5" font-family="Helvetica,sans-Serif" font-size="10.00">src/httpcommon.h</text>
</a>
</g>
</g>
<!-- Node2 -->
<g id="Node000002" class="node">
<title>Node2</title>
<g id="a_Node000002"><a xlink:title=" ">
<polygon fill="#e0e0e0" stroke="#999999" points="247.25,-132 188.5,-132 188.5,-112 247.25,-112 247.25,-132"/>
<text text-anchor="middle" x="217.88" y="-118.5" font-family="Helvetica,sans-Serif" font-size="10.00">curl/curl.h</text>
</a>
</g>
</g>
<!-- Node1&#45;&gt;Node2 -->
<g id="edge1_Node000001_Node000002" class="edge">
<title>Node1&#45;&gt;Node2</title>
<g id="a_edge1_Node000001_Node000002"><a xlink:title=" ">
<path fill="none" stroke="#63b8ff" d="M281.46,-167.59C270.27,-159.74 254.06,-148.38 240.82,-139.09"/>
<polygon fill="#63b8ff" stroke="#63b8ff" points="242.83,-136.22 232.63,-133.35 238.81,-141.96 242.83,-136.22"/>
</a>
</g>
</g>
<!-- Node3 -->
<g id="Node000003" class="node">
<title>Node3</title>
<g id="a_Node000003"><a xlink:href="network_8h.html" target="_top" xlink:title="Declarations for networking related functions.">
<polygon fill="white" stroke="#666666" points="324.25,-132 265.5,-132 265.5,-112 324.25,-112 324.25,-132"/>
<text text-anchor="middle" x="294.88" y="-118.5" font-family="Helvetica,sans-Serif" font-size="10.00">network.h</text>
</a>
</g>
</g>
<!-- Node1&#45;&gt;Node3 -->
<g id="edge2_Node000001_Node000003" class="edge">
<title>Node1&#45;&gt;Node3</title>
<g id="a_edge2_Node000001_Node000003"><a xlink:title=" ">
<path fill="none" stroke="#63b8ff" d="M294.88,-167.59C294.88,-161.01 294.88,-151.96 294.88,-143.73"/>
<polygon fill="#63b8ff" stroke="#63b8ff" points="298.38,-143.81 294.88,-133.81 291.38,-143.81 298.38,-143.81"/>
</a>
</g>
</g>
<!-- Node20 -->
<g id="Node000020" class="node">
<title>Node20</title>
<g id="a_Node000020"><a xlink:href="thread__safe_8h.html" target="_top" xlink:title="Declarations for thread&#45;safe data structures.">
<polygon fill="white" stroke="#666666" points="587.5,-132 512.25,-132 512.25,-112 587.5,-112 587.5,-132"/>
<text text-anchor="middle" x="549.88" y="-118.5" font-family="Helvetica,sans-Serif" font-size="10.00">thread_safe.h</text>
</a>
</g>
</g>
<!-- Node1&#45;&gt;Node20 -->
<g id="edge19_Node000001_Node000020" class="edge">
<title>Node1&#45;&gt;Node20</title>
<g id="a_edge19_Node000001_Node000020"><a xlink:title=" ">
<path fill="none" stroke="#63b8ff" d="M339.58,-167.53C384.71,-157.98 454.22,-143.26 500.84,-133.38"/>
<polygon fill="#63b8ff" stroke="#63b8ff" points="501.34,-136.86 510.4,-131.36 499.89,-130.01 501.34,-136.86"/>
</a>
</g>
</g>
<!-- Node4 -->
<g id="Node000004" class="node">
<title>Node4</title>
<g id="a_Node000004"><a xlink:title=" ">
<polygon fill="#e0e0e0" stroke="#999999" points="134.38,-76 97.38,-76 97.38,-56 134.38,-56 134.38,-76"/>
<text text-anchor="middle" x="115.88" y="-62.5" font-family="Helvetica,sans-Serif" font-size="10.00">tuple</text>
</a>
</g>
</g>
<!-- Node3&#45;&gt;Node4 -->
<g id="edge3_Node000003_Node000004" class="edge">
<title>Node3&#45;&gt;Node4</title>
<g id="a_edge3_Node000003_Node000004"><a xlink:title=" ">
<path fill="none" stroke="#63b8ff" d="M265.08,-112.5C236.58,-104.31 192.16,-91.34 145.63,-76.8"/>
<polygon fill="#63b8ff" stroke="#63b8ff" points="146.76,-73.49 136.18,-73.83 144.67,-80.17 146.76,-73.49"/>
</a>
</g>
</g>
<!-- Node5 -->
<g id="Node000005" class="node">
<title>Node5</title>
<g id="a_Node000005"><a xlink:title=" ">
<polygon fill="#e0e0e0" stroke="#999999" points="191.5,-76 152.25,-76 152.25,-56 191.5,-56 191.5,-76"/>
<text text-anchor="middle" x="171.88" y="-62.5" font-family="Helvetica,sans-Serif" font-size="10.00">utility</text>
</a>
</g>
</g>
<!-- Node3&#45;&gt;Node5 -->
<g id="edge4_Node000003_Node000005" class="edge">
<title>Node3&#45;&gt;Node5</title>
<g id="a_edge4_Node000003_Node000005"><a xlink:title=" ">
<path fill="none" stroke="#63b8ff" d="M273.45,-111.59C253.78,-102.96 224.43,-90.07 202.33,-80.37"/>
<polygon fill="#63b8ff" stroke="#63b8ff" points="203.78,-77.19 193.22,-76.37 200.97,-83.6 203.78,-77.19"/>
</a>
</g>
</g>
<!-- Node6 -->
<g id="Node000006" class="node">
<title>Node6</title>
<g id="a_Node000006"><a xlink:title=" ">
<polygon fill="#e0e0e0" stroke="#999999" points="289.75,-76 210,-76 210,-56 289.75,-56 289.75,-76"/>
<text text-anchor="middle" x="249.88" y="-62.5" font-family="Helvetica,sans-Serif" font-size="10.00">boost/asio.hpp</text>
</a>
</g>
</g>
<!-- Node3&#45;&gt;Node6 -->
<g id="edge5_Node000003_Node000006" class="edge">
<title>Node3&#45;&gt;Node6</title>
<g id="a_edge5_Node000003_Node000006"><a xlink:title=" ">
<path fill="none" stroke="#63b8ff" d="M287.04,-111.59C280.91,-104.24 272.2,-93.8 264.76,-84.87"/>
<polygon fill="#63b8ff" stroke="#63b8ff" points="267.68,-82.9 258.59,-77.46 262.31,-87.38 267.68,-82.9"/>
</a>
</g>
</g>
<!-- Node7 -->
<g id="Node000007" class="node">
<title>Node7</title>
<g id="a_Node000007"><a xlink:title=" ">
<polygon fill="#e0e0e0" stroke="#999999" points="372.25,-76 307.5,-76 307.5,-56 372.25,-56 372.25,-76"/>
<text text-anchor="middle" x="339.88" y="-62.5" font-family="Helvetica,sans-Serif" font-size="10.00">enet/enet.h</text>
</a>
</g>
</g>
<!-- Node3&#45;&gt;Node7 -->
<g id="edge6_Node000003_Node000007" class="edge">
<title>Node3&#45;&gt;Node7</title>
<g id="a_edge6_Node000003_Node000007"><a xlink:title=" ">
<path fill="none" stroke="#63b8ff" d="M302.71,-111.59C308.84,-104.24 317.55,-93.8 324.99,-84.87"/>
<polygon fill="#63b8ff" stroke="#63b8ff" points="327.44,-87.38 331.16,-77.46 322.07,-82.9 327.44,-87.38"/>
</a>
</g>
</g>
<!-- Node8 -->
<g id="Node000008" class="node">
<title>Node8</title>
<g id="a_Node000008"><a xlink:href="utility_8h.html" target="_top" xlink:title="Declarations for utility functions.">
<polygon fill="white" stroke="#666666" points="437.25,-76 390.5,-76 390.5,-56 437.25,-56 437.25,-76"/>
<text text-anchor="middle" x="413.88" y="-62.5" font-family="Helvetica,sans-Serif" font-size="10.00">utility.h</text>
</a>
</g>
</g>
<!-- Node3&#45;&gt;Node8 -->
<g id="edge7_Node000003_Node000008" class="edge">
<title>Node3&#45;&gt;Node8</title>
<g id="a_edge7_Node000003_Node000008"><a xlink:title=" ">
<path fill="none" stroke="#63b8ff" d="M315.6,-111.59C334.09,-103.21 361.42,-90.8 382.57,-81.21"/>
<polygon fill="#63b8ff" stroke="#63b8ff" points="383.95,-84.42 391.61,-77.1 381.05,-78.05 383.95,-84.42"/>
</a>
</g>
</g>
<!-- Node9 -->
<g id="Node000009" class="node">
<title>Node9</title>
<g id="a_Node000009"><a xlink:title=" ">
<polygon fill="#e0e0e0" stroke="#999999" points="199.75,-20 144,-20 144,0 199.75,0 199.75,-20"/>
<text text-anchor="middle" x="171.88" y="-6.5" font-family="Helvetica,sans-Serif" font-size="10.00">algorithm</text>
</a>
</g>
</g>
<!-- Node8&#45;&gt;Node9 -->
<g id="edge8_Node000008_Node000009" class="edge">
<title>Node8&#45;&gt;Node9</title>
<g id="a_edge8_Node000008_Node000009"><a xlink:title=" ">
<path fill="none" stroke="#63b8ff" d="M390.13,-58.34C387.02,-57.52 383.88,-56.72 380.88,-56 308.36,-38.54 286.95,-37.31 211.2,-20.46"/>
<polygon fill="#63b8ff" stroke="#63b8ff" points="212.14,-17.08 201.61,-18.31 210.6,-23.91 212.14,-17.08"/>
</a>
</g>
</g>
<!-- Node10 -->
<g id="Node000010" class="node">
<title>Node10</title>
<g id="a_Node000010"><a xlink:title=" ">
<polygon fill="#e0e0e0" stroke="#999999" points="809.88,-20 715.88,-20 715.88,0 809.88,0 809.88,-20"/>
<text text-anchor="middle" x="762.88" y="-6.5" font-family="Helvetica,sans-Serif" font-size="10.00">condition_variable</text>
</a>
</g>
</g>
<!-- Node8&#45;&gt;Node10 -->
<g id="edge9_Node000008_Node000010" class="edge">
<title>Node8&#45;&gt;Node10</title>
<g id="a_edge9_Node000008_Node000010"><a xlink:title=" ">
<path fill="none" stroke="#63b8ff" d="M437.59,-61.33C491.84,-52.94 626.31,-32.13 704.32,-20.06"/>
<polygon fill="#63b8ff" stroke="#63b8ff" points="704.56,-23.56 713.91,-18.58 703.49,-16.65 704.56,-23.56"/>
</a>
</g>
</g>
<!-- Node11 -->
<g id="Node000011" class="node">
<title>Node11</title>
<g id="a_Node000011"><a xlink:title=" ">
<polygon fill="#e0e0e0" stroke="#999999" points="269.5,-20 218.25,-20 218.25,0 269.5,0 269.5,-20"/>
<text text-anchor="middle" x="243.88" y="-6.5" font-family="Helvetica,sans-Serif" font-size="10.00">memory</text>
</a>
</g>
</g>
<!-- Node8&#45;&gt;Node11 -->
<g id="edge10_Node000008_Node000011" class="edge">
<title>Node8&#45;&gt;Node11</title>
<g id="a_edge10_Node000008_Node000011"><a xlink:title=" ">
<path fill="none" stroke="#63b8ff" d="M390.24,-57.49C361.79,-48.46 313.72,-33.19 280.47,-22.63"/>
<polygon fill="#63b8ff" stroke="#63b8ff" points="281.85,-19.39 271.26,-19.7 279.73,-26.06 281.85,-19.39"/>
</a>
</g>
</g>
<!-- Node12 -->
<g id="Node000012" class="node">
<title>Node12</title>
<g id="a_Node000012"><a xlink:title=" ">
<polygon fill="#e0e0e0" stroke="#999999" points="610.38,-20 567.38,-20 567.38,0 610.38,0 610.38,-20"/>
<text text-anchor="middle" x="588.88" y="-6.5" font-family="Helvetica,sans-Serif" font-size="10.00">mutex</text>
</a>
</g>
</g>
<!-- Node8&#45;&gt;Node12 -->
<g id="edge11_Node000008_Node000012" class="edge">
<title>Node8&#45;&gt;Node12</title>
<g id="a_edge11_Node000008_Node000012"><a xlink:title=" ">
<path fill="none" stroke="#63b8ff" d="M437.48,-57.72C468.07,-48.28 521.58,-31.76 556.1,-21.11"/>
<polygon fill="#63b8ff" stroke="#63b8ff" points="557.05,-24.48 565.58,-18.19 554.99,-17.79 557.05,-24.48"/>
</a>
</g>
</g>
<!-- Node13 -->
<g id="Node000013" class="node">
<title>Node13</title>
<g id="a_Node000013"><a xlink:title=" ">
<polygon fill="#e0e0e0" stroke="#999999" points="337.75,-20 288,-20 288,0 337.75,0 337.75,-20"/>
<text text-anchor="middle" x="312.88" y="-6.5" font-family="Helvetica,sans-Serif" font-size="10.00">optional</text>
</a>
</g>
</g>
<!-- Node8&#45;&gt;Node13 -->
<g id="edge12_Node000008_Node000013" class="edge">
<title>Node8&#45;&gt;Node13</title>
<g id="a_edge12_Node000008_Node000013"><a xlink:title=" ">
<path fill="none" stroke="#63b8ff" d="M396.28,-55.59C380.95,-47.4 358.46,-35.37 340.69,-25.87"/>
<polygon fill="#63b8ff" stroke="#63b8ff" points="342.41,-22.82 331.94,-21.19 339.11,-28.99 342.41,-22.82"/>
</a>
</g>
</g>
<!-- Node14 -->
<g id="Node000014" class="node">
<title>Node14</title>
<g id="a_Node000014"><a xlink:title=" ">
<polygon fill="#e0e0e0" stroke="#999999" points="407.5,-20 356.25,-20 356.25,0 407.5,0 407.5,-20"/>
<text text-anchor="middle" x="381.88" y="-6.5" font-family="Helvetica,sans-Serif" font-size="10.00">ostream</text>
</a>
</g>
</g>
<!-- Node8&#45;&gt;Node14 -->
<g id="edge13_Node000008_Node000014" class="edge">
<title>Node8&#45;&gt;Node14</title>
<g id="a_edge13_Node000008_Node000014"><a xlink:title=" ">
<path fill="none" stroke="#63b8ff" d="M408.3,-55.59C404.13,-48.55 398.27,-38.67 393.13,-30"/>
<polygon fill="#63b8ff" stroke="#63b8ff" points="396.27,-28.42 388.16,-21.6 390.24,-31.99 396.27,-28.42"/>
</a>
</g>
</g>
<!-- Node15 -->
<g id="Node000015" class="node">
<title>Node15</title>
<g id="a_Node000015"><a xlink:title=" ">
<polygon fill="#e0e0e0" stroke="#999999" points="465.88,-20 425.88,-20 425.88,0 465.88,0 465.88,-20"/>
<text text-anchor="middle" x="445.88" y="-6.5" font-family="Helvetica,sans-Serif" font-size="10.00">string</text>
</a>
</g>
</g>
<!-- Node8&#45;&gt;Node15 -->
<g id="edge14_Node000008_Node000015" class="edge">
<title>Node8&#45;&gt;Node15</title>
<g id="a_edge14_Node000008_Node000015"><a xlink:title=" ">
<path fill="none" stroke="#63b8ff" d="M419.45,-55.59C423.62,-48.55 429.48,-38.67 434.62,-30"/>
<polygon fill="#63b8ff" stroke="#63b8ff" points="437.51,-31.99 439.59,-21.6 431.48,-28.42 437.51,-31.99"/>
</a>
</g>
</g>
<!-- Node16 -->
<g id="Node000016" class="node">
<title>Node16</title>
<g id="a_Node000016"><a xlink:title=" ">
<polygon fill="#e0e0e0" stroke="#999999" points="549.62,-20 484.12,-20 484.12,0 549.62,0 549.62,-20"/>
<text text-anchor="middle" x="516.88" y="-6.5" font-family="Helvetica,sans-Serif" font-size="10.00">string_view</text>
</a>
</g>
</g>
<!-- Node8&#45;&gt;Node16 -->
<g id="edge15_Node000008_Node000016" class="edge">
<title>Node8&#45;&gt;Node16</title>
<g id="a_edge15_Node000008_Node000016"><a xlink:title=" ">
<path fill="none" stroke="#63b8ff" d="M431.82,-55.59C447.52,-47.36 470.61,-35.26 488.76,-25.74"/>
<polygon fill="#63b8ff" stroke="#63b8ff" points="490.22,-28.93 497.45,-21.18 486.97,-22.73 490.22,-28.93"/>
</a>
</g>
</g>
<!-- Node17 -->
<g id="Node000017" class="node">
<title>Node17</title>
<g id="a_Node000017"><a xlink:title=" ">
<polygon fill="#e0e0e0" stroke="#999999" points="61.75,-20 0,-20 0,0 61.75,0 61.75,-20"/>
<text text-anchor="middle" x="30.88" y="-6.5" font-family="Helvetica,sans-Serif" font-size="10.00">type_traits</text>
</a>
</g>
</g>
<!-- Node8&#45;&gt;Node17 -->
<g id="edge16_Node000008_Node000017" class="edge">
<title>Node8&#45;&gt;Node17</title>
<g id="a_edge16_Node000008_Node000017"><a xlink:title=" ">
<path fill="none" stroke="#63b8ff" d="M390.18,-58.08C387.07,-57.31 383.91,-56.59 380.88,-56 248.28,-30.37 209.64,-42.57 73.13,-20.2"/>
<polygon fill="#63b8ff" stroke="#63b8ff" points="73.75,-16.75 63.31,-18.55 72.6,-23.66 73.75,-16.75"/>
</a>
</g>
</g>
<!-- Node18 -->
<g id="Node000018" class="node">
<title>Node18</title>
<g id="a_Node000018"><a xlink:title=" ">
<polygon fill="#e0e0e0" stroke="#999999" points="125.5,-20 80.25,-20 80.25,0 125.5,0 125.5,-20"/>
<text text-anchor="middle" x="102.88" y="-6.5" font-family="Helvetica,sans-Serif" font-size="10.00">variant</text>
</a>
</g>
</g>
<!-- Node8&#45;&gt;Node18 -->
<g id="edge17_Node000008_Node000018" class="edge">
<title>Node8&#45;&gt;Node18</title>
<g id="a_edge17_Node000008_Node000018"><a xlink:title=" ">
<path fill="none" stroke="#63b8ff" d="M390.17,-58.17C387.05,-57.38 383.9,-56.63 380.88,-56 276.19,-34.15 244.95,-42.42 136.91,-20.17"/>
<polygon fill="#63b8ff" stroke="#63b8ff" points="137.85,-16.79 127.34,-18.16 136.4,-23.64 137.85,-16.79"/>
</a>
</g>
</g>
<!-- Node19 -->
<g id="Node000019" class="node">
<title>Node19</title>
<g id="a_Node000019"><a xlink:title=" ">
<polygon fill="#e0e0e0" stroke="#999999" points="671.38,-20 628.38,-20 628.38,0 671.38,0 671.38,-20"/>
<text text-anchor="middle" x="649.88" y="-6.5" font-family="Helvetica,sans-Serif" font-size="10.00">vector</text>
</a>
</g>
</g>
<!-- Node8&#45;&gt;Node19 -->
<g id="edge18_Node000008_Node000019" class="edge">
<title>Node8&#45;&gt;Node19</title>
<g id="a_edge18_Node000008_Node000019"><a xlink:title=" ">
<path fill="none" stroke="#63b8ff" d="M437.49,-60.45C474.05,-53.28 546.75,-38.51 617.16,-20.57"/>
<polygon fill="#63b8ff" stroke="#63b8ff" points="617.7,-24.04 626.51,-18.16 615.95,-17.26 617.7,-24.04"/>
</a>
</g>
</g>
<!-- Node20&#45;&gt;Node8 -->
<g id="edge27_Node000020_Node000008" class="edge">
<title>Node20&#45;&gt;Node8</title>
<g id="a_edge27_Node000020_Node000008"><a xlink:title=" ">
<path fill="none" stroke="#63b8ff" d="M526.19,-111.59C504.67,-103.05 472.67,-90.35 448.33,-80.68"/>
<polygon fill="#63b8ff" stroke="#63b8ff" points="449.74,-77.48 439.16,-77.04 447.16,-83.98 449.74,-77.48"/>
</a>
</g>
</g>
<!-- Node20&#45;&gt;Node10 -->
<g id="edge22_Node000020_Node000010" class="edge">
<title>Node20&#45;&gt;Node10</title>
<g id="a_edge22_Node000020_Node000010"><a xlink:title=" ">
<path fill="none" stroke="#63b8ff" d="M587.84,-118.85C644.59,-114.76 747.32,-103.64 769.88,-76 780.08,-63.5 776.79,-44.83 771.85,-30.71"/>
<polygon fill="#63b8ff" stroke="#63b8ff" points="775.13,-29.5 768.13,-21.54 768.65,-32.13 775.13,-29.5"/>
</a>
</g>
</g>
<!-- Node20&#45;&gt;Node12 -->
<g id="edge25_Node000020_Node000012" class="edge">
<title>Node20&#45;&gt;Node12</title>
<g id="a_edge25_Node000020_Node000012"><a xlink:title=" ">
<path fill="none" stroke="#63b8ff" d="M529.41,-111.61C506.55,-99.76 474.51,-78.22 488.88,-56 496.7,-43.9 530.23,-30.38 556.34,-21.34"/>
<polygon fill="#63b8ff" stroke="#63b8ff" points="557.18,-24.75 565.54,-18.25 554.95,-18.12 557.18,-24.75"/>
</a>
</g>
</g>
<!-- Node20&#45;&gt;Node19 -->
<g id="edge26_Node000020_Node000019" class="edge">
<title>Node20&#45;&gt;Node19</title>
<g id="a_edge26_Node000020_Node000019"><a xlink:title=" ">
<path fill="none" stroke="#63b8ff" d="M540.14,-111.54C527.71,-98.3 509.23,-73.85 521.88,-56 524.77,-51.92 580.21,-33.43 617.17,-21.46"/>
<polygon fill="#63b8ff" stroke="#63b8ff" points="618.09,-24.84 626.53,-18.44 615.94,-18.18 618.09,-24.84"/>
</a>
</g>
</g>
<!-- Node21 -->
<g id="Node000021" class="node">
<title>Node21</title>
<g id="a_Node000021"><a xlink:title=" ">
<polygon fill="#e0e0e0" stroke="#999999" points="568.75,-76 531,-76 531,-56 568.75,-56 568.75,-76"/>
<text text-anchor="middle" x="549.88" y="-62.5" font-family="Helvetica,sans-Serif" font-size="10.00">array</text>
</a>
</g>
</g>
<!-- Node20&#45;&gt;Node21 -->
<g id="edge20_Node000020_Node000021" class="edge">
<title>Node20&#45;&gt;Node21</title>
<g id="a_edge20_Node000020_Node000021"><a xlink:title=" ">
<path fill="none" stroke="#63b8ff" d="M549.88,-111.59C549.88,-105.01 549.88,-95.96 549.88,-87.73"/>
<polygon fill="#63b8ff" stroke="#63b8ff" points="553.38,-87.81 549.88,-77.81 546.38,-87.81 553.38,-87.81"/>
</a>
</g>
</g>
<!-- Node22 -->
<g id="Node000022" class="node">
<title>Node22</title>
<g id="a_Node000022"><a xlink:title=" ">
<polygon fill="#e0e0e0" stroke="#999999" points="632.5,-76 587.25,-76 587.25,-56 632.5,-56 632.5,-76"/>
<text text-anchor="middle" x="609.88" y="-62.5" font-family="Helvetica,sans-Serif" font-size="10.00">atomic</text>
</a>
</g>
</g>
<!-- Node20&#45;&gt;Node22 -->
<g id="edge21_Node000020_Node000022" class="edge">
<title>Node20&#45;&gt;Node22</title>
<g id="a_edge21_Node000020_Node000022"><a xlink:title=" ">
<path fill="none" stroke="#63b8ff" d="M560.33,-111.59C568.84,-103.93 581.09,-92.91 591.27,-83.75"/>
<polygon fill="#63b8ff" stroke="#63b8ff" points="593.33,-86.6 598.42,-77.31 588.64,-81.4 593.33,-86.6"/>
</a>
</g>
</g>
<!-- Node23 -->
<g id="Node000023" class="node">
<title>Node23</title>
<g id="a_Node000023"><a xlink:title=" ">
<polygon fill="#e0e0e0" stroke="#999999" points="708.88,-76 650.88,-76 650.88,-56 708.88,-56 708.88,-76"/>
<text text-anchor="middle" x="679.88" y="-62.5" font-family="Helvetica,sans-Serif" font-size="10.00">functional</text>
</a>
</g>
</g>
<!-- Node20&#45;&gt;Node23 -->
<g id="edge23_Node000020_Node000023" class="edge">
<title>Node20&#45;&gt;Node23</title>
<g id="a_edge23_Node000020_Node000023"><a xlink:title=" ">
<path fill="none" stroke="#63b8ff" d="M572.52,-111.59C592.99,-103.09 623.39,-90.46 646.62,-80.81"/>
<polygon fill="#63b8ff" stroke="#63b8ff" points="647.76,-84.13 655.66,-77.06 645.08,-77.66 647.76,-84.13"/>
</a>
</g>
</g>
<!-- Node24 -->
<g id="Node000024" class="node">
<title>Node24</title>
<g id="a_Node000024"><a xlink:title=" ">
<polygon fill="#e0e0e0" stroke="#999999" points="761.25,-76 726.5,-76 726.5,-56 761.25,-56 761.25,-76"/>
<text text-anchor="middle" x="743.88" y="-62.5" font-family="Helvetica,sans-Serif" font-size="10.00">map</text>
</a>
</g>
</g>
<!-- Node20&#45;&gt;Node24 -->
<g id="edge24_Node000020_Node000024" class="edge">
<title>Node20&#45;&gt;Node24</title>
<g id="a_edge24_Node000020_Node000024"><a xlink:title=" ">
<path fill="none" stroke="#63b8ff" d="M587.79,-111.67C619.65,-103.65 666.59,-91.4 715.29,-76.65"/>
<polygon fill="#63b8ff" stroke="#63b8ff" points="716.04,-80.08 724.58,-73.81 713.99,-73.39 716.04,-80.08"/>
</a>
</g>
</g>
</g>
</svg>
