<?xml version="1.0" encoding="UTF-8" standalone="no"?>
<!DOCTYPE svg PUBLIC "-//W3C//DTD SVG 1.1//EN"
 "http://www.w3.org/Graphics/SVG/1.1/DTD/svg11.dtd">
<!-- Generated by graphviz version 12.2.1 (0)
 -->
<!-- Title: src/httpcommon.h Pages: 1 -->
<svg width="540pt" height="84pt"
 viewBox="0.00 0.00 540.12 84.00" xmlns="http://www.w3.org/2000/svg" xmlns:xlink="http://www.w3.org/1999/xlink">
<g id="graph0" class="graph" transform="scale(1 1) rotate(0) translate(4 80)">
<title>src/httpcommon.h</title>
<!-- Node1 -->
<g id="Node000001" class="node">
<title>Node1</title>
<g id="a_Node000001"><a xlink:title="Declarations for common HTTP.">
<polygon fill="#999999" stroke="#666666" points="340.38,-76 245.62,-76 245.62,-56 340.38,-56 340.38,-76"/>
<text text-anchor="middle" x="293" y="-62.5" font-family="Helvetica,sans-Serif" font-size="10.00">src/httpcommon.h</text>
</a>
</g>
</g>
<!-- Node2 -->
<g id="Node000002" class="node">
<title>Node2</title>
<g id="a_Node000002"><a xlink:href="confighttp_8cpp.html" target="_top" xlink:title="Definitions for the Web UI Config HTTP server.">
<polygon fill="white" stroke="#666666" points="94,-20 0,-20 0,0 94,0 94,-20"/>
<text text-anchor="middle" x="47" y="-6.5" font-family="Helvetica,sans-Serif" font-size="10.00">src/confighttp.cpp</text>
</a>
</g>
</g>
<!-- Node1&#45;&gt;Node2 -->
<g id="edge1_Node000001_Node000002" class="edge">
<title>Node1&#45;&gt;Node2</title>
<g id="a_edge1_Node000001_Node000002"><a xlink:title=" ">
<path fill="none" stroke="#63b8ff" d="M238.91,-53.13C194.17,-43.31 131.48,-29.54 90.08,-20.46"/>
<polygon fill="#63b8ff" stroke="#63b8ff" points="237.87,-56.48 248.39,-55.21 239.37,-49.64 237.87,-56.48"/>
</a>
</g>
</g>
<!-- Node3 -->
<g id="Node000003" class="node">
<title>Node3</title>
<g id="a_Node000003"><a xlink:href="entry__handler_8cpp.html" target="_top" xlink:title="Definitions for entry handling functions.">
<polygon fill="white" stroke="#666666" points="221.88,-20 112.12,-20 112.12,0 221.88,0 221.88,-20"/>
<text text-anchor="middle" x="167" y="-6.5" font-family="Helvetica,sans-Serif" font-size="10.00">src/entry_handler.cpp</text>
</a>
</g>
</g>
<!-- Node1&#45;&gt;Node3 -->
<g id="edge2_Node000001_Node000003" class="edge">
<title>Node1&#45;&gt;Node3</title>
<g id="a_edge2_Node000001_Node000003"><a xlink:title=" ">
<path fill="none" stroke="#63b8ff" d="M260.66,-51.14C238.22,-41.52 208.93,-28.97 189.12,-20.48"/>
<polygon fill="#63b8ff" stroke="#63b8ff" points="259.09,-54.28 269.66,-55 261.85,-47.84 259.09,-54.28"/>
</a>
</g>
</g>
<!-- Node4 -->
<g id="Node000004" class="node">
<title>Node4</title>
<g id="a_Node000004"><a xlink:href="httpcommon_8cpp.html" target="_top" xlink:title="Definitions for common HTTP.">
<polygon fill="white" stroke="#666666" points="345.62,-20 240.38,-20 240.38,0 345.62,0 345.62,-20"/>
<text text-anchor="middle" x="293" y="-6.5" font-family="Helvetica,sans-Serif" font-size="10.00">src/httpcommon.cpp</text>
</a>
</g>
</g>
<!-- Node1&#45;&gt;Node4 -->
<g id="edge3_Node000001_Node000004" class="edge">
<title>Node1&#45;&gt;Node4</title>
<g id="a_edge3_Node000001_Node000004"><a xlink:title=" ">
<path fill="none" stroke="#63b8ff" d="M293,-44.13C293,-35.9 293,-26.85 293,-20.3"/>
<polygon fill="#63b8ff" stroke="#63b8ff" points="289.5,-44.08 293,-54.08 296.5,-44.08 289.5,-44.08"/>
</a>
</g>
</g>
<!-- Node5 -->
<g id="Node000005" class="node">
<title>Node5</title>
<g id="a_Node000005"><a xlink:href="main_8cpp.html" target="_top" xlink:title="Definitions for the main entry point for Sunshine.">
<polygon fill="white" stroke="#666666" points="436.12,-20 363.88,-20 363.88,0 436.12,0 436.12,-20"/>
<text text-anchor="middle" x="400" y="-6.5" font-family="Helvetica,sans-Serif" font-size="10.00">src/main.cpp</text>
</a>
</g>
</g>
<!-- Node1&#45;&gt;Node5 -->
<g id="edge4_Node000001_Node000005" class="edge">
<title>Node1&#45;&gt;Node5</title>
<g id="a_edge4_Node000001_Node000005"><a xlink:title=" ">
<path fill="none" stroke="#63b8ff" d="M321.77,-50.48C340.64,-40.96 364.78,-28.78 381.22,-20.48"/>
<polygon fill="#63b8ff" stroke="#63b8ff" points="320.34,-47.28 312.99,-54.91 323.49,-53.53 320.34,-47.28"/>
</a>
</g>
</g>
<!-- Node6 -->
<g id="Node000006" class="node">
<title>Node6</title>
<g id="a_Node000006"><a xlink:href="nvhttp_8cpp.html" target="_top" xlink:title="Definitions for the nvhttp (GameStream) server.">
<polygon fill="white" stroke="#666666" points="532.12,-20 453.88,-20 453.88,0 532.12,0 532.12,-20"/>
<text text-anchor="middle" x="493" y="-6.5" font-family="Helvetica,sans-Serif" font-size="10.00">src/nvhttp.cpp</text>
</a>
</g>
</g>
<!-- Node1&#45;&gt;Node6 -->
<g id="edge5_Node000001_Node000006" class="edge">
<title>Node1&#45;&gt;Node6</title>
<g id="a_edge5_Node000001_Node000006"><a xlink:title=" ">
<path fill="none" stroke="#63b8ff" d="M338.61,-52.69C374.83,-42.91 424.73,-29.43 457.89,-20.48"/>
<polygon fill="#63b8ff" stroke="#63b8ff" points="338.04,-49.21 329.3,-55.2 339.87,-55.97 338.04,-49.21"/>
</a>
</g>
</g>
</g>
</svg>
