<?xml version="1.0" encoding="UTF-8" standalone="no"?>
<!DOCTYPE svg PUBLIC "-//W3C//DTD SVG 1.1//EN"
 "http://www.w3.org/Graphics/SVG/1.1/DTD/svg11.dtd">
<!-- Generated by graphviz version 12.2.1 (0)
 -->
<!-- Title: Graphical Class Hierarchy Pages: 1 -->
<svg width="239pt" height="104pt"
 viewBox="0.00 0.00 238.75 104.00" xmlns="http://www.w3.org/2000/svg" xmlns:xlink="http://www.w3.org/1999/xlink">
<g id="graph0" class="graph" transform="scale(1 1) rotate(0) translate(4 100)">
<title>Graphical Class Hierarchy</title>
<!-- Node0 -->
<g id="Node000000" class="node">
<title>Node0</title>
<g id="a_Node000000"><a xlink:href="classplatf_1_1mic__t.html" target="_top" xlink:title=" ">
<polygon fill="white" stroke="#666666" points="64.75,-58 0,-58 0,-38 64.75,-38 64.75,-58"/>
<text text-anchor="middle" x="32.38" y="-44.5" font-family="Helvetica,sans-Serif" font-size="10.00">platf::mic_t</text>
</a>
</g>
</g>
<!-- Node1 -->
<g id="Node000001" class="node">
<title>Node1</title>
<g id="a_Node000001"><a xlink:href="classplatf_1_1audio_1_1mic__wasapi__t.html" target="_top" xlink:title=" ">
<polygon fill="white" stroke="#666666" points="230.75,-96 100.75,-96 100.75,-76 230.75,-76 230.75,-96"/>
<text text-anchor="middle" x="165.75" y="-82.5" font-family="Helvetica,sans-Serif" font-size="10.00">platf::audio::mic_wasapi_t</text>
</a>
</g>
</g>
<!-- Node0&#45;&gt;Node1 -->
<g id="edge74_Node000000_Node000001" class="edge">
<title>Node0&#45;&gt;Node1</title>
<g id="a_edge74_Node000000_Node000001"><a xlink:title=" ">
<path fill="none" stroke="#63b8ff" d="M75.95,-60.31C92.94,-65.23 112.3,-70.83 128.6,-75.54"/>
<polygon fill="#63b8ff" stroke="#63b8ff" points="77.21,-57.04 66.63,-57.62 75.26,-63.76 77.21,-57.04"/>
</a>
</g>
</g>
<!-- Node2 -->
<g id="Node000002" class="node">
<title>Node2</title>
<g id="a_Node000002"><a xlink:href="structplatf_1_1av__mic__t.html" target="_top" xlink:title=" ">
<polygon fill="white" stroke="#666666" points="206,-58 125.5,-58 125.5,-38 206,-38 206,-58"/>
<text text-anchor="middle" x="165.75" y="-44.5" font-family="Helvetica,sans-Serif" font-size="10.00">platf::av_mic_t</text>
</a>
</g>
</g>
<!-- Node0&#45;&gt;Node2 -->
<g id="edge75_Node000000_Node000002" class="edge">
<title>Node0&#45;&gt;Node2</title>
<g id="a_edge75_Node000000_Node000002"><a xlink:title=" ">
<path fill="none" stroke="#63b8ff" d="M76.24,-48C92.02,-48 109.79,-48 125.25,-48"/>
<polygon fill="#63b8ff" stroke="#63b8ff" points="76.69,-44.5 66.69,-48 76.69,-51.5 76.69,-44.5"/>
</a>
</g>
</g>
<!-- Node3 -->
<g id="Node000003" class="node">
<title>Node3</title>
<g id="a_Node000003"><a xlink:href="structplatf_1_1mic__attr__t.html" target="_top" xlink:title=" ">
<polygon fill="white" stroke="#666666" points="207.88,-20 123.62,-20 123.62,0 207.88,0 207.88,-20"/>
<text text-anchor="middle" x="165.75" y="-6.5" font-family="Helvetica,sans-Serif" font-size="10.00">platf::mic_attr_t</text>
</a>
</g>
</g>
<!-- Node0&#45;&gt;Node3 -->
<g id="edge76_Node000000_Node000003" class="edge">
<title>Node0&#45;&gt;Node3</title>
<g id="a_edge76_Node000000_Node000003"><a xlink:title=" ">
<path fill="none" stroke="#63b8ff" d="M75.95,-35.69C92.94,-30.77 112.3,-25.17 128.6,-20.46"/>
<polygon fill="#63b8ff" stroke="#63b8ff" points="75.26,-32.24 66.63,-38.38 77.21,-38.96 75.26,-32.24"/>
</a>
</g>
</g>
</g>
</svg>
