<?xml version="1.0" encoding="UTF-8" standalone="no"?>
<!DOCTYPE svg PUBLIC "-//W3C//DTD SVG 1.1//EN"
 "http://www.w3.org/Graphics/SVG/1.1/DTD/svg11.dtd">
<!-- Generated by graphviz version 12.2.1 (0)
 -->
<!-- Title: Graphical Class Hierarchy Pages: 1 -->
<svg width="675pt" height="704pt"
 viewBox="0.00 0.00 675.25 704.00" xmlns="http://www.w3.org/2000/svg" xmlns:xlink="http://www.w3.org/1999/xlink">
<g id="graph0" class="graph" transform="scale(1 1) rotate(0) translate(4 700)">
<title>Graphical Class Hierarchy</title>
<!-- Node0 -->
<g id="Node000000" class="node">
<title>Node0</title>
<g id="a_Node000000"><a xlink:href="classplatf_1_1display__t.html" target="_top" xlink:title=" ">
<polygon fill="white" stroke="#666666" points="79.75,-573 0,-573 0,-553 79.75,-553 79.75,-573"/>
<text text-anchor="middle" x="39.88" y="-559.5" font-family="Helvetica,sans-Serif" font-size="10.00">platf::display_t</text>
</a>
</g>
</g>
<!-- Node1 -->
<g id="Node000001" class="node">
<title>Node1</title>
<g id="a_Node000001"><a xlink:href="classcuda_1_1nvfbc_1_1display__t.html" target="_top" xlink:title=" ">
<polygon fill="white" stroke="#666666" points="227.75,-630 115.75,-630 115.75,-610 227.75,-610 227.75,-630"/>
<text text-anchor="middle" x="171.75" y="-616.5" font-family="Helvetica,sans-Serif" font-size="10.00">cuda::nvfbc::display_t</text>
</a>
</g>
</g>
<!-- Node0&#45;&gt;Node1 -->
<g id="edge30_Node000000_Node000001" class="edge">
<title>Node0&#45;&gt;Node1</title>
<g id="a_edge30_Node000000_Node000001"><a xlink:title=" ">
<path fill="none" stroke="#63b8ff" d="M69.47,-578.68C83.25,-585.93 100.14,-594.38 115.75,-601 122.91,-604.04 130.74,-606.97 138.19,-609.58"/>
<polygon fill="#63b8ff" stroke="#63b8ff" points="71.42,-575.75 60.95,-574.13 68.12,-581.92 71.42,-575.75"/>
</a>
</g>
</g>
<!-- Node2 -->
<g id="Node000002" class="node">
<title>Node2</title>
<g id="a_Node000002"><a xlink:href="structplatf_1_1av__display__t.html" target="_top" xlink:title=" ">
<polygon fill="white" stroke="#666666" points="219.5,-592 124,-592 124,-572 219.5,-572 219.5,-592"/>
<text text-anchor="middle" x="171.75" y="-578.5" font-family="Helvetica,sans-Serif" font-size="10.00">platf::av_display_t</text>
</a>
</g>
</g>
<!-- Node0&#45;&gt;Node2 -->
<g id="edge31_Node000000_Node000002" class="edge">
<title>Node0&#45;&gt;Node2</title>
<g id="a_edge31_Node000000_Node000002"><a xlink:title=" ">
<path fill="none" stroke="#63b8ff" d="M91.47,-570.4C102.11,-571.96 113.29,-573.59 123.79,-575.13"/>
<polygon fill="#63b8ff" stroke="#63b8ff" points="92.09,-566.96 81.69,-568.97 91.08,-573.88 92.09,-566.96"/>
</a>
</g>
</g>
<!-- Node3 -->
<g id="Node000003" class="node">
<title>Node3</title>
<g id="a_Node000003"><a xlink:href="classplatf_1_1dxgi_1_1display__base__t.html" target="_top" xlink:title=" ">
<polygon fill="white" stroke="#666666" points="219.5,-474 124,-474 124,-442 219.5,-442 219.5,-474"/>
<text text-anchor="start" x="132" y="-460.5" font-family="Helvetica,sans-Serif" font-size="10.00">platf::dxgi::display</text>
<text text-anchor="middle" x="171.75" y="-448.5" font-family="Helvetica,sans-Serif" font-size="10.00">_base_t</text>
</a>
</g>
</g>
<!-- Node0&#45;&gt;Node3 -->
<g id="edge32_Node000000_Node000003" class="edge">
<title>Node0&#45;&gt;Node3</title>
<g id="a_edge32_Node000000_Node000003"><a xlink:title=" ">
<path fill="none" stroke="#63b8ff" d="M55.5,-543.92C69.51,-526.6 91.99,-501.21 115.75,-484 120.54,-480.53 125.87,-477.33 131.26,-474.46"/>
<polygon fill="#63b8ff" stroke="#63b8ff" points="53.02,-541.41 49.57,-551.42 58.52,-545.75 53.02,-541.41"/>
</a>
</g>
</g>
<!-- Node24 -->
<g id="Node000024" class="node">
<title>Node24</title>
<g id="a_Node000024"><a xlink:href="classplatf_1_1kms_1_1display__t.html" target="_top" xlink:title=" ">
<polygon fill="white" stroke="#666666" points="224,-554 119.5,-554 119.5,-534 224,-534 224,-554"/>
<text text-anchor="middle" x="171.75" y="-540.5" font-family="Helvetica,sans-Serif" font-size="10.00">platf::kms::display_t</text>
</a>
</g>
</g>
<!-- Node0&#45;&gt;Node24 -->
<g id="edge39_Node000000_Node000024" class="edge">
<title>Node0&#45;&gt;Node24</title>
<g id="a_edge39_Node000000_Node000024"><a xlink:title=" ">
<path fill="none" stroke="#63b8ff" d="M91.42,-555.6C100.5,-554.28 109.98,-552.89 119.08,-551.56"/>
<polygon fill="#63b8ff" stroke="#63b8ff" points="91.08,-552.12 81.69,-557.03 92.09,-559.04 91.08,-552.12"/>
</a>
</g>
</g>
<!-- Node27 -->
<g id="Node000027" class="node">
<title>Node27</title>
<g id="a_Node000027"><a xlink:href="structplatf_1_1x11__attr__t.html" target="_top" xlink:title=" ">
<polygon fill="white" stroke="#666666" points="213.5,-513 130,-513 130,-493 213.5,-493 213.5,-513"/>
<text text-anchor="middle" x="171.75" y="-499.5" font-family="Helvetica,sans-Serif" font-size="10.00">platf::x11_attr_t</text>
</a>
</g>
</g>
<!-- Node0&#45;&gt;Node27 -->
<g id="edge42_Node000000_Node000027" class="edge">
<title>Node0&#45;&gt;Node27</title>
<g id="a_edge42_Node000000_Node000027"><a xlink:title=" ">
<path fill="none" stroke="#63b8ff" d="M70.19,-547.36C83.89,-540.25 100.51,-531.9 115.75,-525 124.56,-521.01 134.31,-516.99 143.13,-513.49"/>
<polygon fill="#63b8ff" stroke="#63b8ff" points="68.92,-544.07 61.69,-551.81 72.17,-550.27 68.92,-544.07"/>
</a>
</g>
</g>
<!-- Node29 -->
<g id="Node000029" class="node">
<title>Node29</title>
<g id="a_Node000029"><a xlink:href="classwl_1_1wlr__t.html" target="_top" xlink:title=" ">
<polygon fill="white" stroke="#666666" points="198.12,-668 145.38,-668 145.38,-648 198.12,-648 198.12,-668"/>
<text text-anchor="middle" x="171.75" y="-654.5" font-family="Helvetica,sans-Serif" font-size="10.00">wl::wlr_t</text>
</a>
</g>
</g>
<!-- Node0&#45;&gt;Node29 -->
<g id="edge44_Node000000_Node000029" class="edge">
<title>Node0&#45;&gt;Node29</title>
<g id="a_edge44_Node000000_Node000029"><a xlink:title=" ">
<path fill="none" stroke="#63b8ff" d="M55.24,-581.92C69.07,-598.97 91.43,-623.66 115.75,-639 124.64,-644.61 135.38,-648.79 145,-651.79"/>
<polygon fill="#63b8ff" stroke="#63b8ff" points="58.35,-580.21 49.41,-574.53 52.85,-584.55 58.35,-580.21"/>
</a>
</g>
</g>
<!-- Node4 -->
<g id="Node000004" class="node">
<title>Node4</title>
<g id="a_Node000004"><a xlink:href="classplatf_1_1dxgi_1_1display__ram__t.html" target="_top" xlink:title=" ">
<polygon fill="white" stroke="#666666" points="367.12,-474 271.62,-474 271.62,-442 367.12,-442 367.12,-474"/>
<text text-anchor="start" x="279.62" y="-460.5" font-family="Helvetica,sans-Serif" font-size="10.00">platf::dxgi::display</text>
<text text-anchor="middle" x="319.38" y="-448.5" font-family="Helvetica,sans-Serif" font-size="10.00">_ram_t</text>
</a>
</g>
</g>
<!-- Node3&#45;&gt;Node4 -->
<g id="edge33_Node000003_Node000004" class="edge">
<title>Node3&#45;&gt;Node4</title>
<g id="a_edge33_Node000003_Node000004"><a xlink:title=" ">
<path fill="none" stroke="#63b8ff" d="M230.74,-458C244.21,-458 258.4,-458 271.34,-458"/>
<polygon fill="#63b8ff" stroke="#63b8ff" points="231.14,-454.5 221.14,-458 231.14,-461.5 231.14,-454.5"/>
</a>
</g>
</g>
<!-- Node7 -->
<g id="Node000007" class="node">
<title>Node7</title>
<g id="a_Node000007"><a xlink:href="classplatf_1_1dxgi_1_1display__vram__t.html" target="_top" xlink:title=" ">
<polygon fill="white" stroke="#666666" points="367.12,-399 271.62,-399 271.62,-367 367.12,-367 367.12,-399"/>
<text text-anchor="start" x="279.62" y="-385.5" font-family="Helvetica,sans-Serif" font-size="10.00">platf::dxgi::display</text>
<text text-anchor="middle" x="319.38" y="-373.5" font-family="Helvetica,sans-Serif" font-size="10.00">_vram_t</text>
</a>
</g>
</g>
<!-- Node3&#45;&gt;Node7 -->
<g id="edge36_Node000003_Node000007" class="edge">
<title>Node3&#45;&gt;Node7</title>
<g id="a_edge36_Node000003_Node000007"><a xlink:title=" ">
<path fill="none" stroke="#63b8ff" d="M214.81,-436.34C237.66,-424.57 265.45,-410.26 286.49,-399.42"/>
<polygon fill="#63b8ff" stroke="#63b8ff" points="213.34,-433.16 206.05,-440.85 216.55,-439.38 213.34,-433.16"/>
</a>
</g>
</g>
<!-- Node5 -->
<g id="Node000005" class="node">
<title>Node5</title>
<g id="a_Node000005"><a xlink:href="classplatf_1_1dxgi_1_1display__ddup__ram__t.html" target="_top" xlink:title=" ">
<polygon fill="white" stroke="#666666" points="515.5,-474 420,-474 420,-442 515.5,-442 515.5,-474"/>
<text text-anchor="start" x="428" y="-460.5" font-family="Helvetica,sans-Serif" font-size="10.00">platf::dxgi::display</text>
<text text-anchor="middle" x="467.75" y="-448.5" font-family="Helvetica,sans-Serif" font-size="10.00">_ddup_ram_t</text>
</a>
</g>
</g>
<!-- Node4&#45;&gt;Node5 -->
<g id="edge34_Node000004_Node000005" class="edge">
<title>Node4&#45;&gt;Node5</title>
<g id="a_edge34_Node000004_Node000005"><a xlink:title=" ">
<path fill="none" stroke="#63b8ff" d="M378.72,-458C392.34,-458 406.67,-458 419.72,-458"/>
<polygon fill="#63b8ff" stroke="#63b8ff" points="379.01,-454.5 369.01,-458 379.01,-461.5 379.01,-454.5"/>
</a>
</g>
</g>
<!-- Node6 -->
<g id="Node000006" class="node">
<title>Node6</title>
<g id="a_Node000006"><a xlink:href="classplatf_1_1dxgi_1_1display__wgc__ram__t.html" target="_top" xlink:title=" ">
<polygon fill="white" stroke="#666666" points="515.5,-524 420,-524 420,-492 515.5,-492 515.5,-524"/>
<text text-anchor="start" x="428" y="-510.5" font-family="Helvetica,sans-Serif" font-size="10.00">platf::dxgi::display</text>
<text text-anchor="middle" x="467.75" y="-498.5" font-family="Helvetica,sans-Serif" font-size="10.00">_wgc_ram_t</text>
</a>
</g>
</g>
<!-- Node4&#45;&gt;Node6 -->
<g id="edge35_Node000004_Node000006" class="edge">
<title>Node4&#45;&gt;Node6</title>
<g id="a_edge35_Node000004_Node000006"><a xlink:title=" ">
<path fill="none" stroke="#63b8ff" d="M378.31,-477.79C392.05,-482.48 406.54,-487.43 419.72,-491.93"/>
<polygon fill="#63b8ff" stroke="#63b8ff" points="379.52,-474.51 368.93,-474.58 377.26,-481.13 379.52,-474.51"/>
</a>
</g>
</g>
<!-- Node8 -->
<g id="Node000008" class="node">
<title>Node8</title>
<g id="a_Node000008"><a xlink:href="classplatf_1_1dxgi_1_1display__ddup__vram__t.html" target="_top" xlink:title=" ">
<polygon fill="white" stroke="#666666" points="515.5,-374 420,-374 420,-342 515.5,-342 515.5,-374"/>
<text text-anchor="start" x="428" y="-360.5" font-family="Helvetica,sans-Serif" font-size="10.00">platf::dxgi::display</text>
<text text-anchor="middle" x="467.75" y="-348.5" font-family="Helvetica,sans-Serif" font-size="10.00">_ddup_vram_t</text>
</a>
</g>
</g>
<!-- Node7&#45;&gt;Node8 -->
<g id="edge37_Node000007_Node000008" class="edge">
<title>Node7&#45;&gt;Node8</title>
<g id="a_edge37_Node000007_Node000008"><a xlink:title=" ">
<path fill="none" stroke="#63b8ff" d="M378.72,-373.04C392.34,-370.71 406.67,-368.26 419.72,-366.03"/>
<polygon fill="#63b8ff" stroke="#63b8ff" points="378.25,-369.56 368.99,-374.7 379.43,-376.46 378.25,-369.56"/>
</a>
</g>
</g>
<!-- Node9 -->
<g id="Node000009" class="node">
<title>Node9</title>
<g id="a_Node000009"><a xlink:href="classplatf_1_1dxgi_1_1display__wgc__vram__t.html" target="_top" xlink:title=" ">
<polygon fill="white" stroke="#666666" points="515.5,-424 420,-424 420,-392 515.5,-392 515.5,-424"/>
<text text-anchor="start" x="428" y="-410.5" font-family="Helvetica,sans-Serif" font-size="10.00">platf::dxgi::display</text>
<text text-anchor="middle" x="467.75" y="-398.5" font-family="Helvetica,sans-Serif" font-size="10.00">_wgc_vram_t</text>
</a>
</g>
</g>
<!-- Node7&#45;&gt;Node9 -->
<g id="edge38_Node000007_Node000009" class="edge">
<title>Node7&#45;&gt;Node9</title>
<g id="a_edge38_Node000007_Node000009"><a xlink:title=" ">
<path fill="none" stroke="#63b8ff" d="M378.72,-392.96C392.34,-395.29 406.67,-397.74 419.72,-399.97"/>
<polygon fill="#63b8ff" stroke="#63b8ff" points="379.43,-389.54 368.99,-391.3 378.25,-396.44 379.43,-389.54"/>
</a>
</g>
</g>
<!-- Node25 -->
<g id="Node000025" class="node">
<title>Node25</title>
<g id="a_Node000025"><a xlink:href="classplatf_1_1kms_1_1display__ram__t.html" target="_top" xlink:title=" ">
<polygon fill="white" stroke="#666666" points="367.5,-612 271.25,-612 271.25,-580 367.5,-580 367.5,-612"/>
<text text-anchor="start" x="279.25" y="-598.5" font-family="Helvetica,sans-Serif" font-size="10.00">platf::kms::display</text>
<text text-anchor="middle" x="319.38" y="-586.5" font-family="Helvetica,sans-Serif" font-size="10.00">_ram_t</text>
</a>
</g>
</g>
<!-- Node24&#45;&gt;Node25 -->
<g id="edge40_Node000024_Node000025" class="edge">
<title>Node24&#45;&gt;Node25</title>
<g id="a_edge40_Node000024_Node000025"><a xlink:title=" ">
<path fill="none" stroke="#63b8ff" d="M214.01,-558.17C218.65,-559.79 223.3,-561.42 227.75,-563 242.74,-568.32 259.09,-574.23 273.72,-579.57"/>
<polygon fill="#63b8ff" stroke="#63b8ff" points="215.35,-554.93 204.76,-554.96 213.06,-561.54 215.35,-554.93"/>
</a>
</g>
</g>
<!-- Node26 -->
<g id="Node000026" class="node">
<title>Node26</title>
<g id="a_Node000026"><a xlink:href="classplatf_1_1kms_1_1display__vram__t.html" target="_top" xlink:title=" ">
<polygon fill="white" stroke="#666666" points="367.5,-562 271.25,-562 271.25,-530 367.5,-530 367.5,-562"/>
<text text-anchor="start" x="279.25" y="-548.5" font-family="Helvetica,sans-Serif" font-size="10.00">platf::kms::display</text>
<text text-anchor="middle" x="319.38" y="-536.5" font-family="Helvetica,sans-Serif" font-size="10.00">_vram_t</text>
</a>
</g>
</g>
<!-- Node24&#45;&gt;Node26 -->
<g id="edge41_Node000024_Node000026" class="edge">
<title>Node24&#45;&gt;Node26</title>
<g id="a_edge41_Node000024_Node000026"><a xlink:title=" ">
<path fill="none" stroke="#63b8ff" d="M235.36,-544.86C247.27,-545.02 259.56,-545.19 270.9,-545.35"/>
<polygon fill="#63b8ff" stroke="#63b8ff" points="235.65,-541.36 225.61,-544.73 235.56,-548.36 235.65,-541.36"/>
</a>
</g>
</g>
<!-- Node28 -->
<g id="Node000028" class="node">
<title>Node28</title>
<g id="a_Node000028"><a xlink:href="structplatf_1_1shm__attr__t.html" target="_top" xlink:title=" ">
<polygon fill="white" stroke="#666666" points="363,-512 275.75,-512 275.75,-492 363,-492 363,-512"/>
<text text-anchor="middle" x="319.38" y="-498.5" font-family="Helvetica,sans-Serif" font-size="10.00">platf::shm_attr_t</text>
</a>
</g>
</g>
<!-- Node27&#45;&gt;Node28 -->
<g id="edge43_Node000027_Node000028" class="edge">
<title>Node27&#45;&gt;Node28</title>
<g id="a_edge43_Node000027_Node000028"><a xlink:title=" ">
<path fill="none" stroke="#63b8ff" d="M224.88,-502.64C241.46,-502.53 259.6,-502.4 275.45,-502.29"/>
<polygon fill="#63b8ff" stroke="#63b8ff" points="225.19,-499.14 215.22,-502.71 225.24,-506.14 225.19,-499.14"/>
</a>
</g>
</g>
<!-- Node30 -->
<g id="Node000030" class="node">
<title>Node30</title>
<g id="a_Node000030"><a xlink:href="classwl_1_1wlr__ram__t.html" target="_top" xlink:title=" ">
<polygon fill="white" stroke="#666666" points="356.62,-696 282.12,-696 282.12,-676 356.62,-676 356.62,-696"/>
<text text-anchor="middle" x="319.38" y="-682.5" font-family="Helvetica,sans-Serif" font-size="10.00">wl::wlr_ram_t</text>
</a>
</g>
</g>
<!-- Node29&#45;&gt;Node30 -->
<g id="edge45_Node000029_Node000030" class="edge">
<title>Node29&#45;&gt;Node30</title>
<g id="a_edge45_Node000029_Node000030"><a xlink:title=" ">
<path fill="none" stroke="#63b8ff" d="M209.71,-665.11C231.79,-669.35 259.72,-674.72 281.73,-678.95"/>
<polygon fill="#63b8ff" stroke="#63b8ff" points="210.42,-661.68 199.94,-663.23 209.1,-668.55 210.42,-661.68"/>
</a>
</g>
</g>
<!-- Node31 -->
<g id="Node000031" class="node">
<title>Node31</title>
<g id="a_Node000031"><a xlink:href="classwl_1_1wlr__vram__t.html" target="_top" xlink:title=" ">
<polygon fill="white" stroke="#666666" points="359.25,-658 279.5,-658 279.5,-638 359.25,-638 359.25,-658"/>
<text text-anchor="middle" x="319.38" y="-644.5" font-family="Helvetica,sans-Serif" font-size="10.00">wl::wlr_vram_t</text>
</a>
</g>
</g>
<!-- Node29&#45;&gt;Node31 -->
<g id="edge46_Node000029_Node000031" class="edge">
<title>Node29&#45;&gt;Node31</title>
<g id="a_edge46_Node000029_Node000031"><a xlink:title=" ">
<path fill="none" stroke="#63b8ff" d="M209.93,-655.45C231.14,-653.99 257.7,-652.17 279.23,-650.69"/>
<polygon fill="#63b8ff" stroke="#63b8ff" points="209.7,-651.95 199.96,-656.13 210.18,-658.94 209.7,-651.95"/>
</a>
</g>
</g>
<!-- Node10 -->
<g id="Node000010" class="node">
<title>Node10</title>
<g id="a_Node000010"><a xlink:title=" ">
<polygon fill="#e0e0e0" stroke="#999999" points="221,-216 122.5,-216 122.5,-184 221,-184 221,-216"/>
<text text-anchor="start" x="130.5" y="-202.5" font-family="Helvetica,sans-Serif" font-size="10.00">std::enable_shared</text>
<text text-anchor="middle" x="171.75" y="-190.5" font-family="Helvetica,sans-Serif" font-size="10.00">_from_this</text>
</a>
</g>
</g>
<!-- Node10&#45;&gt;Node7 -->
<g id="edge47_Node000010_Node000007" class="edge">
<title>Node10&#45;&gt;Node7</title>
<g id="a_edge47_Node000010_Node000007"><a xlink:title=" ">
<path fill="none" stroke="#63b8ff" d="M192.77,-225.16C223.06,-263.23 279.71,-334.41 305.27,-366.53"/>
<polygon fill="#63b8ff" stroke="#63b8ff" points="195.58,-223.07 186.62,-217.42 190.1,-227.43 195.58,-223.07"/>
</a>
</g>
</g>
<!-- Node11 -->
<g id="Node000011" class="node">
<title>Node11</title>
<g id="a_Node000011"><a xlink:href="structplatf_1_1img__t.html" target="_top" xlink:title=" ">
<polygon fill="white" stroke="#666666" points="351.75,-191 287,-191 287,-171 351.75,-171 351.75,-191"/>
<text text-anchor="middle" x="319.38" y="-177.5" font-family="Helvetica,sans-Serif" font-size="10.00">platf::img_t</text>
</a>
</g>
</g>
<!-- Node10&#45;&gt;Node11 -->
<g id="edge48_Node000010_Node000011" class="edge">
<title>Node10&#45;&gt;Node11</title>
<g id="a_edge48_Node000010_Node000011"><a xlink:title=" ">
<path fill="none" stroke="#63b8ff" d="M232.57,-192.19C251.08,-189.78 270.75,-187.21 286.58,-185.15"/>
<polygon fill="#63b8ff" stroke="#63b8ff" points="232.2,-188.71 222.74,-193.48 233.11,-195.65 232.2,-188.71"/>
</a>
</g>
</g>
<!-- Node22 -->
<g id="Node000022" class="node">
<title>Node22</title>
<g id="a_Node000022"><a xlink:href="classrtsp__stream_1_1socket__t.html" target="_top" xlink:title=" ">
<polygon fill="white" stroke="#666666" points="375,-153 263.75,-153 263.75,-133 375,-133 375,-153"/>
<text text-anchor="middle" x="319.38" y="-139.5" font-family="Helvetica,sans-Serif" font-size="10.00">rtsp_stream::socket_t</text>
</a>
</g>
</g>
<!-- Node10&#45;&gt;Node22 -->
<g id="edge59_Node000010_Node000022" class="edge">
<title>Node10&#45;&gt;Node22</title>
<g id="a_edge59_Node000010_Node000022"><a xlink:title=" ">
<path fill="none" stroke="#63b8ff" d="M220.86,-179.27C234.64,-173.5 249.73,-167.36 263.75,-162 271.35,-159.1 279.6,-156.13 287.35,-153.43"/>
<polygon fill="#63b8ff" stroke="#63b8ff" points="219.87,-175.89 212.01,-182.99 222.59,-182.34 219.87,-175.89"/>
</a>
</g>
</g>
<!-- Node23 -->
<g id="Node000023" class="node">
<title>Node23</title>
<g id="a_Node000023"><a xlink:href="classsafe_1_1mail__raw__t.html" target="_top" xlink:title=" ">
<polygon fill="white" stroke="#666666" points="363.38,-229 275.38,-229 275.38,-209 363.38,-209 363.38,-229"/>
<text text-anchor="middle" x="319.38" y="-215.5" font-family="Helvetica,sans-Serif" font-size="10.00">safe::mail_raw_t</text>
</a>
</g>
</g>
<!-- Node10&#45;&gt;Node23 -->
<g id="edge60_Node000010_Node000023" class="edge">
<title>Node10&#45;&gt;Node23</title>
<g id="a_edge60_Node000010_Node000023"><a xlink:title=" ">
<path fill="none" stroke="#63b8ff" d="M232.47,-207.79C246.71,-209.65 261.65,-211.6 274.99,-213.34"/>
<polygon fill="#63b8ff" stroke="#63b8ff" points="233.11,-204.35 222.74,-206.52 232.2,-211.29 233.11,-204.35"/>
</a>
</g>
</g>
<!-- Node12 -->
<g id="Node000012" class="node">
<title>Node12</title>
<g id="a_Node000012"><a xlink:href="classcuda_1_1img__t.html" target="_top" xlink:title=" ">
<polygon fill="white" stroke="#666666" points="501.25,-172 434.25,-172 434.25,-152 501.25,-152 501.25,-172"/>
<text text-anchor="middle" x="467.75" y="-158.5" font-family="Helvetica,sans-Serif" font-size="10.00">cuda::img_t</text>
</a>
</g>
</g>
<!-- Node11&#45;&gt;Node12 -->
<g id="edge49_Node000011_Node000012" class="edge">
<title>Node11&#45;&gt;Node12</title>
<g id="a_edge49_Node000011_Node000012"><a xlink:title=" ">
<path fill="none" stroke="#63b8ff" d="M363.42,-175.41C385.9,-172.49 412.98,-168.98 433.78,-166.28"/>
<polygon fill="#63b8ff" stroke="#63b8ff" points="363.1,-171.92 353.64,-176.68 364,-178.87 363.1,-171.92"/>
</a>
</g>
</g>
<!-- Node13 -->
<g id="Node000013" class="node">
<title>Node13</title>
<g id="a_Node000013"><a xlink:href="classegl_1_1cursor__t.html" target="_top" xlink:title=" ">
<polygon fill="white" stroke="#666666" points="502.75,-134 432.75,-134 432.75,-114 502.75,-114 502.75,-134"/>
<text text-anchor="middle" x="467.75" y="-120.5" font-family="Helvetica,sans-Serif" font-size="10.00">egl::cursor_t</text>
</a>
</g>
</g>
<!-- Node11&#45;&gt;Node13 -->
<g id="edge50_Node000011_Node000013" class="edge">
<title>Node11&#45;&gt;Node13</title>
<g id="a_edge50_Node000011_Node000013"><a xlink:title=" ">
<path fill="none" stroke="#63b8ff" d="M362.97,-166.89C367.07,-165.32 371.14,-163.68 375,-162 391.59,-154.79 394.39,-150.16 411,-143 418.14,-139.92 425.95,-137 433.41,-134.41"/>
<polygon fill="#63b8ff" stroke="#63b8ff" points="361.78,-163.6 353.59,-170.33 364.19,-170.17 361.78,-163.6"/>
</a>
</g>
</g>
<!-- Node15 -->
<g id="Node000015" class="node">
<title>Node15</title>
<g id="a_Node000015"><a xlink:href="structplatf_1_1av__img__t.html" target="_top" xlink:title=" ">
<polygon fill="white" stroke="#666666" points="508,-96 427.5,-96 427.5,-76 508,-76 508,-96"/>
<text text-anchor="middle" x="467.75" y="-82.5" font-family="Helvetica,sans-Serif" font-size="10.00">platf::av_img_t</text>
</a>
</g>
</g>
<!-- Node11&#45;&gt;Node15 -->
<g id="edge52_Node000011_Node000015" class="edge">
<title>Node11&#45;&gt;Node15</title>
<g id="a_edge52_Node000011_Node000015"><a xlink:title=" ">
<path fill="none" stroke="#63b8ff" d="M362.54,-169.66C366.98,-167.52 371.24,-164.99 375,-162 398.46,-143.37 387.48,-123.56 411,-105 415.82,-101.2 421.44,-98.14 427.22,-95.68"/>
<polygon fill="#63b8ff" stroke="#63b8ff" points="361.31,-166.39 353.39,-173.42 363.97,-172.86 361.31,-166.39"/>
</a>
</g>
</g>
<!-- Node16 -->
<g id="Node000016" class="node">
<title>Node16</title>
<g id="a_Node000016"><a xlink:href="structplatf_1_1dxgi_1_1img__d3d__t.html" target="_top" xlink:title=" ">
<polygon fill="white" stroke="#666666" points="522.62,-58 412.88,-58 412.88,-38 522.62,-38 522.62,-58"/>
<text text-anchor="middle" x="467.75" y="-44.5" font-family="Helvetica,sans-Serif" font-size="10.00">platf::dxgi::img_d3d_t</text>
</a>
</g>
</g>
<!-- Node11&#45;&gt;Node16 -->
<g id="edge53_Node000011_Node000016" class="edge">
<title>Node11&#45;&gt;Node16</title>
<g id="a_edge53_Node000011_Node000016"><a xlink:title=" ">
<path fill="none" stroke="#63b8ff" d="M362.49,-170.73C367.07,-168.39 371.38,-165.52 375,-162 407.36,-130.51 378.54,-98.38 411,-67 414.53,-63.59 418.69,-60.79 423.13,-58.49"/>
<polygon fill="#63b8ff" stroke="#63b8ff" points="361.44,-167.38 353.57,-174.47 364.15,-173.83 361.44,-167.38"/>
</a>
</g>
</g>
<!-- Node17 -->
<g id="Node000017" class="node">
<title>Node17</title>
<g id="a_Node000017"><a xlink:href="structplatf_1_1dxgi_1_1img__t.html" target="_top" xlink:title=" ">
<polygon fill="white" stroke="#666666" points="512.12,-20 423.38,-20 423.38,0 512.12,0 512.12,-20"/>
<text text-anchor="middle" x="467.75" y="-6.5" font-family="Helvetica,sans-Serif" font-size="10.00">platf::dxgi::img_t</text>
</a>
</g>
</g>
<!-- Node11&#45;&gt;Node17 -->
<g id="edge54_Node000011_Node000017" class="edge">
<title>Node11&#45;&gt;Node17</title>
<g id="a_edge54_Node000011_Node000017"><a xlink:title=" ">
<path fill="none" stroke="#63b8ff" d="M362.52,-171.23C367.16,-168.81 371.48,-165.78 375,-162 416.75,-117.2 369.11,-73.67 411,-29 414.43,-25.35 418.59,-22.39 423.07,-20.01"/>
<polygon fill="#63b8ff" stroke="#63b8ff" points="361.27,-167.96 353.4,-175.05 363.98,-174.42 361.27,-167.96"/>
</a>
</g>
</g>
<!-- Node18 -->
<g id="Node000018" class="node">
<title>Node18</title>
<g id="a_Node000018"><a xlink:href="structplatf_1_1kms_1_1kms__img__t.html" target="_top" xlink:title=" ">
<polygon fill="white" stroke="#666666" points="524.5,-324 411,-324 411,-304 524.5,-304 524.5,-324"/>
<text text-anchor="middle" x="467.75" y="-310.5" font-family="Helvetica,sans-Serif" font-size="10.00">platf::kms::kms_img_t</text>
</a>
</g>
</g>
<!-- Node11&#45;&gt;Node18 -->
<g id="edge55_Node000011_Node000018" class="edge">
<title>Node11&#45;&gt;Node18</title>
<g id="a_edge55_Node000011_Node000018"><a xlink:title=" ">
<path fill="none" stroke="#63b8ff" d="M362.49,-191.27C367.07,-193.61 371.38,-196.48 375,-200 407.36,-231.49 378.54,-263.62 411,-295 414.53,-298.41 418.69,-301.21 423.13,-303.51"/>
<polygon fill="#63b8ff" stroke="#63b8ff" points="364.15,-188.17 353.57,-187.53 361.44,-194.62 364.15,-188.17"/>
</a>
</g>
</g>
<!-- Node19 -->
<g id="Node000019" class="node">
<title>Node19</title>
<g id="a_Node000019"><a xlink:href="structplatf_1_1shm__img__t.html" target="_top" xlink:title=" ">
<polygon fill="white" stroke="#666666" points="512.12,-286 423.38,-286 423.38,-266 512.12,-266 512.12,-286"/>
<text text-anchor="middle" x="467.75" y="-272.5" font-family="Helvetica,sans-Serif" font-size="10.00">platf::shm_img_t</text>
</a>
</g>
</g>
<!-- Node11&#45;&gt;Node19 -->
<g id="edge56_Node000011_Node000019" class="edge">
<title>Node11&#45;&gt;Node19</title>
<g id="a_edge56_Node000011_Node000019"><a xlink:title=" ">
<path fill="none" stroke="#63b8ff" d="M362.54,-192.34C366.98,-194.48 371.24,-197.01 375,-200 398.46,-218.63 387.48,-238.44 411,-257 415.34,-260.42 420.32,-263.24 425.49,-265.57"/>
<polygon fill="#63b8ff" stroke="#63b8ff" points="363.97,-189.14 353.39,-188.58 361.31,-195.61 363.97,-189.14"/>
</a>
</g>
</g>
<!-- Node20 -->
<g id="Node000020" class="node">
<title>Node20</title>
<g id="a_Node000020"><a xlink:href="structplatf_1_1x11__img__t.html" target="_top" xlink:title=" ">
<polygon fill="white" stroke="#666666" points="510.25,-248 425.25,-248 425.25,-228 510.25,-228 510.25,-248"/>
<text text-anchor="middle" x="467.75" y="-234.5" font-family="Helvetica,sans-Serif" font-size="10.00">platf::x11_img_t</text>
</a>
</g>
</g>
<!-- Node11&#45;&gt;Node20 -->
<g id="edge57_Node000011_Node000020" class="edge">
<title>Node11&#45;&gt;Node20</title>
<g id="a_edge57_Node000011_Node000020"><a xlink:title=" ">
<path fill="none" stroke="#63b8ff" d="M362.97,-195.11C367.07,-196.68 371.14,-198.32 375,-200 391.59,-207.21 394.39,-211.84 411,-219 418.14,-222.08 425.95,-225 433.41,-227.59"/>
<polygon fill="#63b8ff" stroke="#63b8ff" points="364.19,-191.83 353.59,-191.67 361.78,-198.4 364.19,-191.83"/>
</a>
</g>
</g>
<!-- Node21 -->
<g id="Node000021" class="node">
<title>Node21</title>
<g id="a_Node000021"><a xlink:href="structwl_1_1img__t.html" target="_top" xlink:title=" ">
<polygon fill="white" stroke="#666666" points="495.62,-210 439.88,-210 439.88,-190 495.62,-190 495.62,-210"/>
<text text-anchor="middle" x="467.75" y="-196.5" font-family="Helvetica,sans-Serif" font-size="10.00">wl::img_t</text>
</a>
</g>
</g>
<!-- Node11&#45;&gt;Node21 -->
<g id="edge58_Node000011_Node000021" class="edge">
<title>Node11&#45;&gt;Node21</title>
<g id="a_edge58_Node000011_Node000021"><a xlink:title=" ">
<path fill="none" stroke="#63b8ff" d="M363.36,-186.58C387.97,-189.77 418.1,-193.69 439.48,-196.46"/>
<polygon fill="#63b8ff" stroke="#63b8ff" points="364,-183.13 353.64,-185.32 363.1,-190.08 364,-183.13"/>
</a>
</g>
</g>
<!-- Node14 -->
<g id="Node000014" class="node">
<title>Node14</title>
<g id="a_Node000014"><a xlink:href="classegl_1_1img__descriptor__t.html" target="_top" xlink:title=" ">
<polygon fill="white" stroke="#666666" points="667.25,-134 560.5,-134 560.5,-114 667.25,-114 667.25,-134"/>
<text text-anchor="middle" x="613.88" y="-120.5" font-family="Helvetica,sans-Serif" font-size="10.00">egl::img_descriptor_t</text>
</a>
</g>
</g>
<!-- Node13&#45;&gt;Node14 -->
<g id="edge51_Node000013_Node000014" class="edge">
<title>Node13&#45;&gt;Node14</title>
<g id="a_edge51_Node000013_Node000014"><a xlink:title=" ">
<path fill="none" stroke="#63b8ff" d="M514.18,-124C528.76,-124 545.02,-124 560.08,-124"/>
<polygon fill="#63b8ff" stroke="#63b8ff" points="514.42,-120.5 504.42,-124 514.42,-127.5 514.42,-120.5"/>
</a>
</g>
</g>
</g>
</svg>
