<?xml version="1.0" encoding="UTF-8" standalone="no"?>
<!DOCTYPE svg PUBLIC "-//W3C//DTD SVG 1.1//EN"
 "http://www.w3.org/Graphics/SVG/1.1/DTD/svg11.dtd">
<!-- Generated by graphviz version 12.2.1 (0)
 -->
<!-- Title: Graphical Class Hierarchy Pages: 1 -->
<svg width="268pt" height="104pt"
 viewBox="0.00 0.00 268.00 104.00" xmlns="http://www.w3.org/2000/svg" xmlns:xlink="http://www.w3.org/1999/xlink">
<g id="graph0" class="graph" transform="scale(1 1) rotate(0) translate(4 100)">
<title>Graphical Class Hierarchy</title>
<!-- Node0 -->
<g id="Node000000" class="node">
<title>Node0</title>
<g id="a_Node000000"><a xlink:href="classcrypto_1_1cipher_1_1cipher__t.html" target="_top" xlink:title=" ">
<polygon fill="white" stroke="#666666" points="115.75,-58 0,-58 0,-38 115.75,-38 115.75,-58"/>
<text text-anchor="middle" x="57.88" y="-44.5" font-family="Helvetica,sans-Serif" font-size="10.00">crypto::cipher::cipher_t</text>
</a>
</g>
</g>
<!-- Node1 -->
<g id="Node000001" class="node">
<title>Node1</title>
<g id="a_Node000001"><a xlink:href="classcrypto_1_1cipher_1_1cbc__t.html" target="_top" xlink:title=" ">
<polygon fill="white" stroke="#666666" points="258.5,-96 153.25,-96 153.25,-76 258.5,-76 258.5,-96"/>
<text text-anchor="middle" x="205.88" y="-82.5" font-family="Helvetica,sans-Serif" font-size="10.00">crypto::cipher::cbc_t</text>
</a>
</g>
</g>
<!-- Node0&#45;&gt;Node1 -->
<g id="edge10_Node000000_Node000001" class="edge">
<title>Node0&#45;&gt;Node1</title>
<g id="a_edge10_Node000000_Node000001"><a xlink:title=" ">
<path fill="none" stroke="#63b8ff" d="M110.28,-61.38C128.14,-66.03 147.9,-71.17 164.72,-75.55"/>
<polygon fill="#63b8ff" stroke="#63b8ff" points="111.18,-58 100.62,-58.87 109.42,-64.77 111.18,-58"/>
</a>
</g>
</g>
<!-- Node2 -->
<g id="Node000002" class="node">
<title>Node2</title>
<g id="a_Node000002"><a xlink:href="classcrypto_1_1cipher_1_1ecb__t.html" target="_top" xlink:title=" ">
<polygon fill="white" stroke="#666666" points="258.5,-58 153.25,-58 153.25,-38 258.5,-38 258.5,-58"/>
<text text-anchor="middle" x="205.88" y="-44.5" font-family="Helvetica,sans-Serif" font-size="10.00">crypto::cipher::ecb_t</text>
</a>
</g>
</g>
<!-- Node0&#45;&gt;Node2 -->
<g id="edge11_Node000000_Node000002" class="edge">
<title>Node0&#45;&gt;Node2</title>
<g id="a_edge11_Node000000_Node000002"><a xlink:title=" ">
<path fill="none" stroke="#63b8ff" d="M127.39,-48C136,-48 144.69,-48 152.98,-48"/>
<polygon fill="#63b8ff" stroke="#63b8ff" points="127.67,-44.5 117.67,-48 127.67,-51.5 127.67,-44.5"/>
</a>
</g>
</g>
<!-- Node3 -->
<g id="Node000003" class="node">
<title>Node3</title>
<g id="a_Node000003"><a xlink:href="classcrypto_1_1cipher_1_1gcm__t.html" target="_top" xlink:title=" ">
<polygon fill="white" stroke="#666666" points="260,-20 151.75,-20 151.75,0 260,0 260,-20"/>
<text text-anchor="middle" x="205.88" y="-6.5" font-family="Helvetica,sans-Serif" font-size="10.00">crypto::cipher::gcm_t</text>
</a>
</g>
</g>
<!-- Node0&#45;&gt;Node3 -->
<g id="edge12_Node000000_Node000003" class="edge">
<title>Node0&#45;&gt;Node3</title>
<g id="a_edge12_Node000000_Node000003"><a xlink:title=" ">
<path fill="none" stroke="#63b8ff" d="M110.28,-34.62C128.14,-29.97 147.9,-24.83 164.72,-20.45"/>
<polygon fill="#63b8ff" stroke="#63b8ff" points="109.42,-31.23 100.62,-37.13 111.18,-38 109.42,-31.23"/>
</a>
</g>
</g>
</g>
</svg>
