<?xml version="1.0" encoding="UTF-8" standalone="no"?>
<!DOCTYPE svg PUBLIC "-//W3C//DTD SVG 1.1//EN"
 "http://www.w3.org/Graphics/SVG/1.1/DTD/svg11.dtd">
<!-- Generated by graphviz version 12.2.1 (0)
 -->
<!-- Title: Graphical Class Hierarchy Pages: 1 -->
<svg width="285pt" height="66pt"
 viewBox="0.00 0.00 285.25 66.00" xmlns="http://www.w3.org/2000/svg" xmlns:xlink="http://www.w3.org/1999/xlink">
<g id="graph0" class="graph" transform="scale(1 1) rotate(0) translate(4 62)">
<title>Graphical Class Hierarchy</title>
<!-- Node0 -->
<g id="Node000000" class="node">
<title>Node0</title>
<g id="a_Node000000"><a xlink:href="structvideo_1_1packet__raw__t.html" target="_top" xlink:title=" ">
<polygon fill="white" stroke="#666666" points="103.75,-39 0,-39 0,-19 103.75,-19 103.75,-39"/>
<text text-anchor="middle" x="51.88" y="-25.5" font-family="Helvetica,sans-Serif" font-size="10.00">video::packet_raw_t</text>
</a>
</g>
</g>
<!-- Node1 -->
<g id="Node000001" class="node">
<title>Node1</title>
<g id="a_Node000001"><a xlink:href="structvideo_1_1packet__raw__avcodec.html" target="_top" xlink:title=" ">
<polygon fill="white" stroke="#666666" points="277.25,-58 139.75,-58 139.75,-38 277.25,-38 277.25,-58"/>
<text text-anchor="middle" x="208.5" y="-44.5" font-family="Helvetica,sans-Serif" font-size="10.00">video::packet_raw_avcodec</text>
</a>
</g>
</g>
<!-- Node0&#45;&gt;Node1 -->
<g id="edge98_Node000000_Node000001" class="edge">
<title>Node0&#45;&gt;Node1</title>
<g id="a_edge98_Node000000_Node000001"><a xlink:title=" ">
<path fill="none" stroke="#63b8ff" d="M115.34,-36.68C123.26,-37.65 131.39,-38.65 139.39,-39.63"/>
<polygon fill="#63b8ff" stroke="#63b8ff" points="115.79,-33.2 105.44,-35.46 114.93,-40.15 115.79,-33.2"/>
</a>
</g>
</g>
<!-- Node2 -->
<g id="Node000002" class="node">
<title>Node2</title>
<g id="a_Node000002"><a xlink:href="structvideo_1_1packet__raw__generic.html" target="_top" xlink:title=" ">
<polygon fill="white" stroke="#666666" points="274.62,-20 142.38,-20 142.38,0 274.62,0 274.62,-20"/>
<text text-anchor="middle" x="208.5" y="-6.5" font-family="Helvetica,sans-Serif" font-size="10.00">video::packet_raw_generic</text>
</a>
</g>
</g>
<!-- Node0&#45;&gt;Node2 -->
<g id="edge99_Node000000_Node000002" class="edge">
<title>Node0&#45;&gt;Node2</title>
<g id="a_edge99_Node000000_Node000002"><a xlink:title=" ">
<path fill="none" stroke="#63b8ff" d="M115.26,-21.33C124.03,-20.26 133.06,-19.15 141.88,-18.06"/>
<polygon fill="#63b8ff" stroke="#63b8ff" points="114.93,-17.85 105.44,-22.54 115.79,-24.8 114.93,-17.85"/>
</a>
</g>
</g>
</g>
</svg>
