<?xml version="1.0" encoding="UTF-8" standalone="no"?>
<!DOCTYPE svg PUBLIC "-//W3C//DTD SVG 1.1//EN"
 "http://www.w3.org/Graphics/SVG/1.1/DTD/svg11.dtd">
<!-- Generated by graphviz version 12.2.1 (0)
 -->
<!-- Title: Graphical Class Hierarchy Pages: 1 -->
<svg width="391pt" height="90pt"
 viewBox="0.00 0.00 391.25 90.00" xmlns="http://www.w3.org/2000/svg" xmlns:xlink="http://www.w3.org/1999/xlink">
<g id="graph0" class="graph" transform="scale(1 1) rotate(0) translate(4 86)">
<title>Graphical Class Hierarchy</title>
<!-- Node0 -->
<g id="Node000000" class="node">
<title>Node0</title>
<g id="a_Node000000"><a xlink:href="classnvenc_1_1nvenc__base.html" target="_top" xlink:title="Abstract platform&#45;agnostic base of standalone NVENC encoder. Derived classes perform platform&#45;specifi...">
<polygon fill="white" stroke="#666666" points="100.75,-51 0,-51 0,-31 100.75,-31 100.75,-51"/>
<text text-anchor="middle" x="50.38" y="-37.5" font-family="Helvetica,sans-Serif" font-size="10.00">nvenc::nvenc_base</text>
</a>
</g>
</g>
<!-- Node1 -->
<g id="Node000001" class="node">
<title>Node1</title>
<g id="a_Node000001"><a xlink:href="classnvenc_1_1nvenc__d3d11.html" target="_top" xlink:title="Abstract Direct3D11 NVENC encoder. Encapsulates common code used by native and interop implementation...">
<polygon fill="white" stroke="#666666" points="242,-51 136.75,-51 136.75,-31 242,-31 242,-51"/>
<text text-anchor="middle" x="189.38" y="-37.5" font-family="Helvetica,sans-Serif" font-size="10.00">nvenc::nvenc_d3d11</text>
</a>
</g>
</g>
<!-- Node0&#45;&gt;Node1 -->
<g id="edge15_Node000000_Node000001" class="edge">
<title>Node0&#45;&gt;Node1</title>
<g id="a_edge15_Node000000_Node000001"><a xlink:title=" ">
<path fill="none" stroke="#63b8ff" d="M112.71,-41C120.65,-41 128.72,-41 136.49,-41"/>
<polygon fill="#63b8ff" stroke="#63b8ff" points="112.74,-37.5 102.74,-41 112.74,-44.5 112.74,-37.5"/>
</a>
</g>
</g>
<!-- Node2 -->
<g id="Node000002" class="node">
<title>Node2</title>
<g id="a_Node000002"><a xlink:href="classnvenc_1_1nvenc__d3d11__native.html" target="_top" xlink:title="Native Direct3D11 NVENC encoder.">
<polygon fill="white" stroke="#666666" points="383.25,-82 278,-82 278,-50 383.25,-50 383.25,-82"/>
<text text-anchor="start" x="286" y="-68.5" font-family="Helvetica,sans-Serif" font-size="10.00">nvenc::nvenc_d3d11</text>
<text text-anchor="middle" x="330.62" y="-56.5" font-family="Helvetica,sans-Serif" font-size="10.00">_native</text>
</a>
</g>
</g>
<!-- Node1&#45;&gt;Node2 -->
<g id="edge16_Node000001_Node000002" class="edge">
<title>Node1&#45;&gt;Node2</title>
<g id="a_edge16_Node000001_Node000002"><a xlink:title=" ">
<path fill="none" stroke="#63b8ff" d="M253.54,-52.34C261.64,-53.79 269.85,-55.27 277.73,-56.68"/>
<polygon fill="#63b8ff" stroke="#63b8ff" points="254.18,-48.9 243.72,-50.58 252.94,-55.79 254.18,-48.9"/>
</a>
</g>
</g>
<!-- Node3 -->
<g id="Node000003" class="node">
<title>Node3</title>
<g id="a_Node000003"><a xlink:href="classnvenc_1_1nvenc__d3d11__on__cuda.html" target="_top" xlink:title="Interop Direct3D11 on CUDA NVENC encoder. Input surface is Direct3D11, encoding is performed by CUDA.">
<polygon fill="white" stroke="#666666" points="383.25,-32 278,-32 278,0 383.25,0 383.25,-32"/>
<text text-anchor="start" x="286" y="-18.5" font-family="Helvetica,sans-Serif" font-size="10.00">nvenc::nvenc_d3d11</text>
<text text-anchor="middle" x="330.62" y="-6.5" font-family="Helvetica,sans-Serif" font-size="10.00">_on_cuda</text>
</a>
</g>
</g>
<!-- Node1&#45;&gt;Node3 -->
<g id="edge17_Node000001_Node000003" class="edge">
<title>Node1&#45;&gt;Node3</title>
<g id="a_edge17_Node000001_Node000003"><a xlink:title=" ">
<path fill="none" stroke="#63b8ff" d="M253.54,-29.66C261.64,-28.21 269.85,-26.73 277.73,-25.32"/>
<polygon fill="#63b8ff" stroke="#63b8ff" points="252.94,-26.21 243.72,-31.42 254.18,-33.1 252.94,-26.21"/>
</a>
</g>
</g>
</g>
</svg>
