<?xml version="1.0" encoding="UTF-8" standalone="no"?>
<!DOCTYPE svg PUBLIC "-//W3C//DTD SVG 1.1//EN"
 "http://www.w3.org/Graphics/SVG/1.1/DTD/svg11.dtd">
<!-- Generated by graphviz version 12.2.1 (0)
 -->
<!-- Title: Graphical Class Hierarchy Pages: 1 -->
<svg width="249pt" height="128pt"
 viewBox="0.00 0.00 249.25 128.00" xmlns="http://www.w3.org/2000/svg" xmlns:xlink="http://www.w3.org/1999/xlink">
<g id="graph0" class="graph" transform="scale(1 1) rotate(0) translate(4 124)">
<title>Graphical Class Hierarchy</title>
<!-- Node0 -->
<g id="Node000000" class="node">
<title>Node0</title>
<g id="a_Node000000"><a xlink:href="classplatf_1_1audio__control__t.html" target="_top" xlink:title=" ">
<polygon fill="white" stroke="#666666" points="106.75,-64 0,-64 0,-44 106.75,-44 106.75,-64"/>
<text text-anchor="middle" x="53.38" y="-50.5" font-family="Helvetica,sans-Serif" font-size="10.00">platf::audio_control_t</text>
</a>
</g>
</g>
<!-- Node1 -->
<g id="Node000001" class="node">
<title>Node1</title>
<g id="a_Node000001"><a xlink:href="classplatf_1_1audio_1_1audio__control__t.html" target="_top" xlink:title=" ">
<polygon fill="white" stroke="#666666" points="238.62,-120 145.38,-120 145.38,-88 238.62,-88 238.62,-120"/>
<text text-anchor="start" x="153.38" y="-106.5" font-family="Helvetica,sans-Serif" font-size="10.00">platf::audio::audio</text>
<text text-anchor="middle" x="192" y="-94.5" font-family="Helvetica,sans-Serif" font-size="10.00">_control_t</text>
</a>
</g>
</g>
<!-- Node0&#45;&gt;Node1 -->
<g id="edge18_Node000000_Node000001" class="edge">
<title>Node0&#45;&gt;Node1</title>
<g id="a_edge18_Node000000_Node000001"><a xlink:title=" ">
<path fill="none" stroke="#63b8ff" d="M93.82,-68.44C110.13,-74.41 129.14,-81.36 145.99,-87.53"/>
<polygon fill="#63b8ff" stroke="#63b8ff" points="95.03,-65.15 84.44,-65 92.63,-71.73 95.03,-65.15"/>
</a>
</g>
</g>
<!-- Node2 -->
<g id="Node000002" class="node">
<title>Node2</title>
<g id="a_Node000002"><a xlink:href="structplatf_1_1macos__audio__control__t.html" target="_top" xlink:title=" ">
<polygon fill="white" stroke="#666666" points="241.25,-70 142.75,-70 142.75,-38 241.25,-38 241.25,-70"/>
<text text-anchor="start" x="150.75" y="-56.5" font-family="Helvetica,sans-Serif" font-size="10.00">platf::macos_audio</text>
<text text-anchor="middle" x="192" y="-44.5" font-family="Helvetica,sans-Serif" font-size="10.00">_control_t</text>
</a>
</g>
</g>
<!-- Node0&#45;&gt;Node2 -->
<g id="edge19_Node000000_Node000002" class="edge">
<title>Node0&#45;&gt;Node2</title>
<g id="a_edge19_Node000000_Node000002"><a xlink:title=" ">
<path fill="none" stroke="#63b8ff" d="M118.46,-54C126.49,-54 134.6,-54 142.34,-54"/>
<polygon fill="#63b8ff" stroke="#63b8ff" points="118.71,-50.5 108.71,-54 118.71,-57.5 118.71,-50.5"/>
</a>
</g>
</g>
<!-- Node3 -->
<g id="Node000003" class="node">
<title>Node3</title>
<g id="a_Node000003"><a xlink:href="classplatf_1_1pa_1_1server__t.html" target="_top" xlink:title=" ">
<polygon fill="white" stroke="#666666" points="238.25,-20 145.75,-20 145.75,0 238.25,0 238.25,-20"/>
<text text-anchor="middle" x="192" y="-6.5" font-family="Helvetica,sans-Serif" font-size="10.00">platf::pa::server_t</text>
</a>
</g>
</g>
<!-- Node0&#45;&gt;Node3 -->
<g id="edge20_Node000000_Node000003" class="edge">
<title>Node0&#45;&gt;Node3</title>
<g id="a_edge20_Node000000_Node000003"><a xlink:title=" ">
<path fill="none" stroke="#63b8ff" d="M97.69,-40.05C117.51,-33.67 140.6,-26.23 158.85,-20.35"/>
<polygon fill="#63b8ff" stroke="#63b8ff" points="96.64,-36.71 88.19,-43.11 98.79,-43.37 96.64,-36.71"/>
</a>
</g>
</g>
</g>
</svg>
