<?xml version="1.0" encoding="UTF-8" standalone="no"?>
<!DOCTYPE svg PUBLIC "-//W3C//DTD SVG 1.1//EN"
 "http://www.w3.org/Graphics/SVG/1.1/DTD/svg11.dtd">
<!-- Generated by graphviz version 12.2.1 (0)
 -->
<!-- Title: Graphical Class Hierarchy Pages: 1 -->
<svg width="421pt" height="140pt"
 viewBox="0.00 0.00 421.25 140.00" xmlns="http://www.w3.org/2000/svg" xmlns:xlink="http://www.w3.org/1999/xlink">
<g id="graph0" class="graph" transform="scale(1 1) rotate(0) translate(4 136)">
<title>Graphical Class Hierarchy</title>
<!-- Node0 -->
<g id="Node000000" class="node">
<title>Node0</title>
<g id="a_Node000000"><a xlink:title=" ">
<polygon fill="#e0e0e0" stroke="#999999" points="100.75,-76 0,-76 0,-56 100.75,-56 100.75,-76"/>
<text text-anchor="middle" x="50.38" y="-62.5" font-family="Helvetica,sans-Serif" font-size="10.00">boost::noncopyable</text>
</a>
</g>
</g>
<!-- Node1 -->
<g id="Node000001" class="node">
<title>Node1</title>
<g id="a_Node000001"><a xlink:href="structplatf_1_1high__precision__timer.html" target="_top" xlink:title=" ">
<polygon fill="white" stroke="#666666" points="239.75,-82 136.75,-82 136.75,-50 239.75,-50 239.75,-82"/>
<text text-anchor="start" x="144.75" y="-68.5" font-family="Helvetica,sans-Serif" font-size="10.00">platf::high_precision</text>
<text text-anchor="middle" x="188.25" y="-56.5" font-family="Helvetica,sans-Serif" font-size="10.00">_timer</text>
</a>
</g>
</g>
<!-- Node0&#45;&gt;Node1 -->
<g id="edge5_Node000000_Node000001" class="edge">
<title>Node0&#45;&gt;Node1</title>
<g id="a_edge5_Node000000_Node000001"><a xlink:title=" ">
<path fill="none" stroke="#8b1a1a" d="M112.44,-66C120.49,-66 128.67,-66 136.52,-66"/>
<polygon fill="#8b1a1a" stroke="#8b1a1a" points="112.71,-62.5 102.71,-66 112.71,-69.5 112.71,-62.5"/>
</a>
</g>
</g>
<!-- Node2 -->
<g id="Node000002" class="node">
<title>Node2</title>
<g id="a_Node000002"><a xlink:href="classplatf_1_1linux__high__precision__timer.html" target="_top" xlink:title=" ">
<polygon fill="white" stroke="#666666" points="408.75,-132 280.25,-132 280.25,-100 408.75,-100 408.75,-132"/>
<text text-anchor="start" x="288.25" y="-118.5" font-family="Helvetica,sans-Serif" font-size="10.00">platf::linux_high_precision</text>
<text text-anchor="middle" x="344.5" y="-106.5" font-family="Helvetica,sans-Serif" font-size="10.00">_timer</text>
</a>
</g>
</g>
<!-- Node1&#45;&gt;Node2 -->
<g id="edge6_Node000001_Node000002" class="edge">
<title>Node1&#45;&gt;Node2</title>
<g id="a_edge6_Node000001_Node000002"><a xlink:title=" ">
<path fill="none" stroke="#63b8ff" d="M250.3,-85.79C264.32,-90.33 279.08,-95.12 292.62,-99.51"/>
<polygon fill="#63b8ff" stroke="#63b8ff" points="251.79,-82.59 241.2,-82.84 249.63,-89.25 251.79,-82.59"/>
</a>
</g>
</g>
<!-- Node3 -->
<g id="Node000003" class="node">
<title>Node3</title>
<g id="a_Node000003"><a xlink:href="classplatf_1_1macos__high__precision__timer.html" target="_top" xlink:title=" ">
<polygon fill="white" stroke="#666666" points="413.25,-82 275.75,-82 275.75,-50 413.25,-50 413.25,-82"/>
<text text-anchor="start" x="283.75" y="-68.5" font-family="Helvetica,sans-Serif" font-size="10.00">platf::macos_high_precision</text>
<text text-anchor="middle" x="344.5" y="-56.5" font-family="Helvetica,sans-Serif" font-size="10.00">_timer</text>
</a>
</g>
</g>
<!-- Node1&#45;&gt;Node3 -->
<g id="edge7_Node000001_Node000003" class="edge">
<title>Node1&#45;&gt;Node3</title>
<g id="a_edge7_Node000001_Node000003"><a xlink:title=" ">
<path fill="none" stroke="#63b8ff" d="M251.47,-66C259.31,-66 267.36,-66 275.28,-66"/>
<polygon fill="#63b8ff" stroke="#63b8ff" points="251.7,-62.5 241.7,-66 251.7,-69.5 251.7,-62.5"/>
</a>
</g>
</g>
<!-- Node4 -->
<g id="Node000004" class="node">
<title>Node4</title>
<g id="a_Node000004"><a xlink:href="classplatf_1_1win32__high__precision__timer.html" target="_top" xlink:title=" ">
<polygon fill="white" stroke="#666666" points="411.38,-32 277.62,-32 277.62,0 411.38,0 411.38,-32"/>
<text text-anchor="start" x="285.62" y="-18.5" font-family="Helvetica,sans-Serif" font-size="10.00">platf::win32_high_precision</text>
<text text-anchor="middle" x="344.5" y="-6.5" font-family="Helvetica,sans-Serif" font-size="10.00">_timer</text>
</a>
</g>
</g>
<!-- Node1&#45;&gt;Node4 -->
<g id="edge8_Node000001_Node000004" class="edge">
<title>Node1&#45;&gt;Node4</title>
<g id="a_edge8_Node000001_Node000004"><a xlink:title=" ">
<path fill="none" stroke="#63b8ff" d="M250.3,-46.21C264.32,-41.67 279.08,-36.88 292.62,-32.49"/>
<polygon fill="#63b8ff" stroke="#63b8ff" points="249.63,-42.75 241.2,-49.16 251.79,-49.41 249.63,-42.75"/>
</a>
</g>
</g>
</g>
</svg>
