<?xml version="1.0" encoding="UTF-8" standalone="no"?>
<!DOCTYPE svg PUBLIC "-//W3C//DTD SVG 1.1//EN"
 "http://www.w3.org/Graphics/SVG/1.1/DTD/svg11.dtd">
<!-- Generated by graphviz version 12.2.1 (0)
 -->
<!-- Title: Graphical Class Hierarchy Pages: 1 -->
<svg width="239pt" height="66pt"
 viewBox="0.00 0.00 238.75 66.00" xmlns="http://www.w3.org/2000/svg" xmlns:xlink="http://www.w3.org/1999/xlink">
<g id="graph0" class="graph" transform="scale(1 1) rotate(0) translate(4 62)">
<title>Graphical Class Hierarchy</title>
<!-- Node0 -->
<g id="Node000000" class="node">
<title>Node0</title>
<g id="a_Node000000"><a xlink:href="classutil_1_1buffer__t.html" target="_top" xlink:title=" ">
<polygon fill="white" stroke="#666666" points="113.5,-39 0,-39 0,-19 113.5,-19 113.5,-39"/>
<text text-anchor="middle" x="56.75" y="-25.5" font-family="Helvetica,sans-Serif" font-size="10.00">util::buffer_t&lt; GLuint &gt;</text>
</a>
</g>
</g>
<!-- Node1 -->
<g id="Node000001" class="node">
<title>Node1</title>
<g id="a_Node000001"><a xlink:href="classgl_1_1frame__buf__t.html" target="_top" xlink:title=" ">
<polygon fill="white" stroke="#666666" points="230.75,-58 149.5,-58 149.5,-38 230.75,-38 230.75,-58"/>
<text text-anchor="middle" x="190.12" y="-44.5" font-family="Helvetica,sans-Serif" font-size="10.00">gl::frame_buf_t</text>
</a>
</g>
</g>
<!-- Node0&#45;&gt;Node1 -->
<g id="edge91_Node000000_Node000001" class="edge">
<title>Node0&#45;&gt;Node1</title>
<g id="a_edge91_Node000000_Node000001"><a xlink:title=" ">
<path fill="none" stroke="#63b8ff" d="M125.04,-38.73C133.26,-39.92 141.46,-41.11 149.1,-42.21"/>
<polygon fill="#63b8ff" stroke="#63b8ff" points="125.74,-35.3 115.34,-37.33 124.74,-42.22 125.74,-35.3"/>
</a>
</g>
</g>
<!-- Node2 -->
<g id="Node000002" class="node">
<title>Node2</title>
<g id="a_Node000002"><a xlink:href="classgl_1_1tex__t.html" target="_top" xlink:title=" ">
<polygon fill="white" stroke="#666666" points="215.75,-20 164.5,-20 164.5,0 215.75,0 215.75,-20"/>
<text text-anchor="middle" x="190.12" y="-6.5" font-family="Helvetica,sans-Serif" font-size="10.00">gl::tex_t</text>
</a>
</g>
</g>
<!-- Node0&#45;&gt;Node2 -->
<g id="edge92_Node000000_Node000002" class="edge">
<title>Node0&#45;&gt;Node2</title>
<g id="a_edge92_Node000000_Node000002"><a xlink:title=" ">
<path fill="none" stroke="#63b8ff" d="M125.04,-19.27C139.04,-17.24 152.94,-15.23 164.2,-13.6"/>
<polygon fill="#63b8ff" stroke="#63b8ff" points="124.74,-15.78 115.34,-20.67 125.74,-22.7 124.74,-15.78"/>
</a>
</g>
</g>
</g>
</svg>
