<?xml version="1.0" encoding="UTF-8" standalone="no"?>
<!DOCTYPE svg PUBLIC "-//W3C//DTD SVG 1.1//EN"
 "http://www.w3.org/Graphics/SVG/1.1/DTD/svg11.dtd">
<!-- Generated by graphviz version 12.2.1 (0)
 -->
<!-- Title: Graphical Class Hierarchy Pages: 1 -->
<svg width="282pt" height="138pt"
 viewBox="0.00 0.00 281.50 138.00" xmlns="http://www.w3.org/2000/svg" xmlns:xlink="http://www.w3.org/1999/xlink">
<g id="graph0" class="graph" transform="scale(1 1) rotate(0) translate(4 134)">
<title>Graphical Class Hierarchy</title>
<!-- Node0 -->
<g id="Node000000" class="node">
<title>Node0</title>
<g id="a_Node000000"><a xlink:title=" ">
<polygon fill="#e0e0e0" stroke="#999999" points="64.75,-57 0,-57 0,-37 64.75,-37 64.75,-57"/>
<text text-anchor="middle" x="32.38" y="-43.5" font-family="Helvetica,sans-Serif" font-size="10.00">std::variant</text>
</a>
</g>
</g>
<!-- Node1 -->
<g id="Node000001" class="node">
<title>Node1</title>
<g id="a_Node000001"><a xlink:href="classutil_1_1Either.html" target="_top" xlink:title=" ">
<polygon fill="white" stroke="#666666" points="273.5,-130 100.75,-130 100.75,-38 273.5,-38 273.5,-130"/>
<text text-anchor="start" x="108.75" y="-116.5" font-family="Helvetica,sans-Serif" font-size="10.00">util::Either&lt; std::</text>
<text text-anchor="start" x="108.75" y="-104.5" font-family="Helvetica,sans-Serif" font-size="10.00">shared_ptr&lt; typename</text>
<text text-anchor="start" x="108.75" y="-92.5" font-family="Helvetica,sans-Serif" font-size="10.00"> SimpleWeb::ServerBase</text>
<text text-anchor="start" x="108.75" y="-80.5" font-family="Helvetica,sans-Serif" font-size="10.00">&lt; SimpleWeb::HTTP &gt;::Response</text>
<text text-anchor="start" x="108.75" y="-68.5" font-family="Helvetica,sans-Serif" font-size="10.00"> &gt;, std::shared_ptr&lt; typename</text>
<text text-anchor="start" x="108.75" y="-56.5" font-family="Helvetica,sans-Serif" font-size="10.00"> SimpleWeb::ServerBase&lt; nvhttp</text>
<text text-anchor="middle" x="187.12" y="-44.5" font-family="Helvetica,sans-Serif" font-size="10.00">::SunshineHTTPS &gt;::Response &gt; &gt;</text>
</a>
</g>
</g>
<!-- Node0&#45;&gt;Node1 -->
<g id="edge85_Node000000_Node000001" class="edge">
<title>Node0&#45;&gt;Node1</title>
<g id="a_edge85_Node000000_Node000001"><a xlink:title=" ">
<path fill="none" stroke="#63b8ff" d="M76.13,-57.36C83.76,-59.21 91.96,-61.19 100.3,-63.21"/>
<polygon fill="#63b8ff" stroke="#63b8ff" points="77.04,-53.98 66.5,-55.02 75.39,-60.78 77.04,-53.98"/>
</a>
</g>
</g>
<!-- Node2 -->
<g id="Node000002" class="node">
<title>Node2</title>
<g id="a_Node000002"><a xlink:href="classutil_1_1Either.html" target="_top" xlink:title=" ">
<polygon fill="white" stroke="#666666" points="235.62,-20 138.62,-20 138.62,0 235.62,0 235.62,-20"/>
<text text-anchor="middle" x="187.12" y="-6.5" font-family="Helvetica,sans-Serif" font-size="10.00">util::Either&lt; X, Y &gt;</text>
</a>
</g>
</g>
<!-- Node0&#45;&gt;Node2 -->
<g id="edge86_Node000000_Node000002" class="edge">
<title>Node0&#45;&gt;Node2</title>
<g id="a_edge86_Node000000_Node000002"><a xlink:title=" ">
<path fill="none" stroke="#63b8ff" d="M76.05,-35.31C84.24,-33.15 92.75,-30.96 100.75,-29 112.84,-26.04 125.95,-23.03 138.18,-20.3"/>
<polygon fill="#63b8ff" stroke="#63b8ff" points="75.4,-31.86 66.64,-37.82 77.2,-38.62 75.4,-31.86"/>
</a>
</g>
</g>
</g>
</svg>
