<?xml version="1.0" encoding="UTF-8" standalone="no"?>
<!DOCTYPE svg PUBLIC "-//W3C//DTD SVG 1.1//EN"
 "http://www.w3.org/Graphics/SVG/1.1/DTD/svg11.dtd">
<!-- Generated by graphviz version 12.2.1 (0)
 -->
<!-- Title: Graphical Class Hierarchy Pages: 1 -->
<svg width="242pt" height="128pt"
 viewBox="0.00 0.00 241.75 128.00" xmlns="http://www.w3.org/2000/svg" xmlns:xlink="http://www.w3.org/1999/xlink">
<g id="graph0" class="graph" transform="scale(1 1) rotate(0) translate(4 124)">
<title>Graphical Class Hierarchy</title>
<!-- Node0 -->
<g id="Node000000" class="node">
<title>Node0</title>
<g id="a_Node000000"><a xlink:title=" ">
<polygon fill="#e0e0e0" stroke="#999999" points="144.25,-120 0,-120 0,-88 144.25,-88 144.25,-120"/>
<text text-anchor="start" x="8" y="-106.5" font-family="Helvetica,sans-Serif" font-size="10.00">&lt;AVCaptureAudioDataOutput</text>
<text text-anchor="middle" x="72.12" y="-94.5" font-family="Helvetica,sans-Serif" font-size="10.00">SampleBufferDelegate&gt;</text>
</a>
</g>
</g>
<!-- Node1 -->
<g id="Node000001" class="node">
<title>Node1</title>
<g id="a_Node000001"><a xlink:href="interfaceAVAudio.html" target="_top" xlink:title=" ">
<polygon fill="white" stroke="#666666" points="233.38,-90 180.62,-90 180.62,-70 233.38,-70 233.38,-90"/>
<text text-anchor="middle" x="207" y="-76.5" font-family="Helvetica,sans-Serif" font-size="10.00">AVAudio</text>
</a>
</g>
</g>
<!-- Node0&#45;&gt;Node1 -->
<g id="edge1_Node000000_Node000001" class="edge">
<title>Node0&#45;&gt;Node1</title>
<g id="a_edge1_Node000000_Node000001"><a xlink:title=" ">
<path fill="none" stroke="#63b8ff" d="M155.88,-89.05C164.64,-87.47 173,-85.96 180.29,-84.64"/>
<polygon fill="#63b8ff" stroke="#63b8ff" points="155.33,-85.6 146.11,-90.82 156.57,-92.48 155.33,-85.6"/>
</a>
</g>
</g>
<!-- Node4 -->
<g id="Node000004" class="node">
<title>Node4</title>
<g id="a_Node000004"><a xlink:title=" ">
<polygon fill="#e0e0e0" stroke="#999999" points="144.25,-32 0,-32 0,0 144.25,0 144.25,-32"/>
<text text-anchor="start" x="8" y="-18.5" font-family="Helvetica,sans-Serif" font-size="10.00">&lt;AVCaptureVideoDataOutput</text>
<text text-anchor="middle" x="72.12" y="-6.5" font-family="Helvetica,sans-Serif" font-size="10.00">SampleBufferDelegate&gt;</text>
</a>
</g>
</g>
<!-- Node3 -->
<g id="Node000003" class="node">
<title>Node3</title>
<g id="a_Node000003"><a xlink:href="interfaceAVVideo.html" target="_top" xlink:title=" ">
<polygon fill="white" stroke="#666666" points="233.75,-49 180.25,-49 180.25,-29 233.75,-29 233.75,-49"/>
<text text-anchor="middle" x="207" y="-35.5" font-family="Helvetica,sans-Serif" font-size="10.00">AVVideo</text>
</a>
</g>
</g>
<!-- Node4&#45;&gt;Node3 -->
<g id="edge2_Node000004_Node000003" class="edge">
<title>Node4&#45;&gt;Node3</title>
<g id="a_edge2_Node000004_Node000003"><a xlink:title=" ">
<path fill="none" stroke="#63b8ff" d="M155.78,-30.31C164.46,-31.81 172.74,-33.24 179.99,-34.5"/>
<polygon fill="#63b8ff" stroke="#63b8ff" points="156.56,-26.89 146.11,-28.63 155.37,-33.79 156.56,-26.89"/>
</a>
</g>
</g>
<!-- Node2 -->
<g id="Node000002" class="node">
<title>Node2</title>
<g id="a_Node000002"><a xlink:title=" ">
<polygon fill="#e0e0e0" stroke="#999999" points="101.5,-70 42.75,-70 42.75,-50 101.5,-50 101.5,-70"/>
<text text-anchor="middle" x="72.12" y="-56.5" font-family="Helvetica,sans-Serif" font-size="10.00">NSObject</text>
</a>
</g>
</g>
<!-- Node2&#45;&gt;Node1 -->
<g id="edge3_Node000002_Node000001" class="edge">
<title>Node2&#45;&gt;Node1</title>
<g id="a_edge3_Node000002_Node000001"><a xlink:title=" ">
<path fill="none" stroke="#63b8ff" d="M113.21,-66.03C135.01,-69.31 161.34,-73.28 180.37,-76.14"/>
<polygon fill="#63b8ff" stroke="#63b8ff" points="113.86,-62.59 103.45,-64.56 112.82,-69.51 113.86,-62.59"/>
</a>
</g>
</g>
<!-- Node2&#45;&gt;Node3 -->
<g id="edge4_Node000002_Node000003" class="edge">
<title>Node2&#45;&gt;Node3</title>
<g id="a_edge4_Node000002_Node000003"><a xlink:title=" ">
<path fill="none" stroke="#63b8ff" d="M113.13,-53.68C134.78,-50.26 160.91,-46.13 179.93,-43.12"/>
<polygon fill="#63b8ff" stroke="#63b8ff" points="112.78,-50.19 103.45,-55.21 113.88,-57.1 112.78,-50.19"/>
</a>
</g>
</g>
</g>
</svg>
