<?xml version="1.0" encoding="UTF-8" standalone="no"?>
<!DOCTYPE svg PUBLIC "-//W3C//DTD SVG 1.1//EN"
 "http://www.w3.org/Graphics/SVG/1.1/DTD/svg11.dtd">
<!-- Generated by graphviz version 12.2.1 (0)
 -->
<!-- Title: Graphical Class Hierarchy Pages: 1 -->
<svg width="287pt" height="90pt"
 viewBox="0.00 0.00 286.75 90.00" xmlns="http://www.w3.org/2000/svg" xmlns:xlink="http://www.w3.org/1999/xlink">
<g id="graph0" class="graph" transform="scale(1 1) rotate(0) translate(4 86)">
<title>Graphical Class Hierarchy</title>
<!-- Node0 -->
<g id="Node000000" class="node">
<title>Node0</title>
<g id="a_Node000000"><a xlink:href="structvideo_1_1encode__session__t.html" target="_top" xlink:title=" ">
<polygon fill="white" stroke="#666666" points="124,-51 0,-51 0,-31 124,-31 124,-51"/>
<text text-anchor="middle" x="62" y="-37.5" font-family="Helvetica,sans-Serif" font-size="10.00">video::encode_session_t</text>
</a>
</g>
</g>
<!-- Node1 -->
<g id="Node000001" class="node">
<title>Node1</title>
<g id="a_Node000001"><a xlink:href="classvideo_1_1avcodec__encode__session__t.html" target="_top" xlink:title=" ">
<polygon fill="white" stroke="#666666" points="278.75,-82 160,-82 160,-50 278.75,-50 278.75,-82"/>
<text text-anchor="start" x="168" y="-68.5" font-family="Helvetica,sans-Serif" font-size="10.00">video::avcodec_encode</text>
<text text-anchor="middle" x="219.38" y="-56.5" font-family="Helvetica,sans-Serif" font-size="10.00">_session_t</text>
</a>
</g>
</g>
<!-- Node0&#45;&gt;Node1 -->
<g id="edge94_Node000000_Node000001" class="edge">
<title>Node0&#45;&gt;Node1</title>
<g id="a_edge94_Node000000_Node000001"><a xlink:title=" ">
<path fill="none" stroke="#63b8ff" d="M135.7,-52.7C143.74,-53.99 151.85,-55.3 159.69,-56.56"/>
<polygon fill="#63b8ff" stroke="#63b8ff" points="136.33,-49.25 125.9,-51.12 135.22,-56.17 136.33,-49.25"/>
</a>
</g>
</g>
<!-- Node2 -->
<g id="Node000002" class="node">
<title>Node2</title>
<g id="a_Node000002"><a xlink:href="classvideo_1_1nvenc__encode__session__t.html" target="_top" xlink:title=" ">
<polygon fill="white" stroke="#666666" points="273.5,-32 165.25,-32 165.25,0 273.5,0 273.5,-32"/>
<text text-anchor="start" x="173.25" y="-18.5" font-family="Helvetica,sans-Serif" font-size="10.00">video::nvenc_encode</text>
<text text-anchor="middle" x="219.38" y="-6.5" font-family="Helvetica,sans-Serif" font-size="10.00">_session_t</text>
</a>
</g>
</g>
<!-- Node0&#45;&gt;Node2 -->
<g id="edge95_Node000000_Node000002" class="edge">
<title>Node0&#45;&gt;Node2</title>
<g id="a_edge95_Node000000_Node000002"><a xlink:title=" ">
<path fill="none" stroke="#63b8ff" d="M135.52,-29.33C145.43,-27.74 155.46,-26.12 164.95,-24.6"/>
<polygon fill="#63b8ff" stroke="#63b8ff" points="135.22,-25.83 125.9,-30.88 136.33,-32.75 135.22,-25.83"/>
</a>
</g>
</g>
</g>
</svg>
