<?xml version="1.0" encoding="UTF-8" standalone="no"?>
<!DOCTYPE svg PUBLIC "-//W3C//DTD SVG 1.1//EN"
 "http://www.w3.org/Graphics/SVG/1.1/DTD/svg11.dtd">
<!-- Generated by graphviz version 12.2.1 (0)
 -->
<!-- Title: Graphical Class Hierarchy Pages: 1 -->
<svg width="234pt" height="318pt"
 viewBox="0.00 0.00 233.50 318.00" xmlns="http://www.w3.org/2000/svg" xmlns:xlink="http://www.w3.org/1999/xlink">
<g id="graph0" class="graph" transform="scale(1 1) rotate(0) translate(4 314)">
<title>Graphical Class Hierarchy</title>
<!-- Node0 -->
<g id="Node000000" class="node">
<title>Node0</title>
<g id="a_Node000000"><a xlink:href="classplatf_1_1deinit__t.html" target="_top" xlink:title=" ">
<polygon fill="white" stroke="#666666" points="76.38,-165 4.12,-165 4.12,-145 76.38,-145 76.38,-165"/>
<text text-anchor="middle" x="40.25" y="-151.5" font-family="Helvetica,sans-Serif" font-size="10.00">platf::deinit_t</text>
</a>
</g>
</g>
<!-- Node1 -->
<g id="Node000001" class="node">
<title>Node1</title>
<g id="a_Node000001"><a xlink:href="classinput_1_1deinit__t.html" target="_top" xlink:title=" ">
<polygon fill="white" stroke="#666666" points="208.25,-272 133.75,-272 133.75,-252 208.25,-252 208.25,-272"/>
<text text-anchor="middle" x="171" y="-258.5" font-family="Helvetica,sans-Serif" font-size="10.00">input::deinit_t</text>
</a>
</g>
</g>
<!-- Node0&#45;&gt;Node1 -->
<g id="edge21_Node000000_Node000001" class="edge">
<title>Node0&#45;&gt;Node1</title>
<g id="a_edge21_Node000000_Node000001"><a xlink:title=" ">
<path fill="none" stroke="#63b8ff" d="M53.62,-174.77C66.93,-194.57 89.82,-224.66 116.5,-243 121.62,-246.52 127.46,-249.46 133.35,-251.88"/>
<polygon fill="#63b8ff" stroke="#63b8ff" points="56.61,-172.96 48.23,-166.49 50.75,-176.78 56.61,-172.96"/>
</a>
</g>
</g>
<!-- Node2 -->
<g id="Node000002" class="node">
<title>Node2</title>
<g id="a_Node000002"><a xlink:href="classplatf_1_1audio_1_1co__init__t.html" target="_top" xlink:title=" ">
<polygon fill="white" stroke="#666666" points="224.38,-234 117.62,-234 117.62,-214 224.38,-214 224.38,-234"/>
<text text-anchor="middle" x="171" y="-220.5" font-family="Helvetica,sans-Serif" font-size="10.00">platf::audio::co_init_t</text>
</a>
</g>
</g>
<!-- Node0&#45;&gt;Node2 -->
<g id="edge22_Node000000_Node000002" class="edge">
<title>Node0&#45;&gt;Node2</title>
<g id="a_edge22_Node000000_Node000002"><a xlink:title=" ">
<path fill="none" stroke="#63b8ff" d="M63.93,-172.2C78.43,-182.65 97.92,-195.71 116.5,-205 122.85,-208.18 129.86,-211.07 136.65,-213.58"/>
<polygon fill="#63b8ff" stroke="#63b8ff" points="66.12,-169.47 55.99,-166.37 61.98,-175.11 66.12,-169.47"/>
</a>
</g>
</g>
<!-- Node3 -->
<g id="Node000003" class="node">
<title>Node3</title>
<g id="a_Node000003"><a xlink:href="structplatf_1_1client__input__raw__t.html" target="_top" xlink:title=" ">
<polygon fill="white" stroke="#666666" points="216.12,-196 125.88,-196 125.88,-164 216.12,-164 216.12,-196"/>
<text text-anchor="start" x="133.88" y="-182.5" font-family="Helvetica,sans-Serif" font-size="10.00">platf::client_input</text>
<text text-anchor="middle" x="171" y="-170.5" font-family="Helvetica,sans-Serif" font-size="10.00">_raw_t</text>
</a>
</g>
</g>
<!-- Node0&#45;&gt;Node3 -->
<g id="edge23_Node000000_Node000003" class="edge">
<title>Node0&#45;&gt;Node3</title>
<g id="a_edge23_Node000000_Node000003"><a xlink:title=" ">
<path fill="none" stroke="#63b8ff" d="M87.72,-164.02C100,-166.41 113.22,-168.97 125.39,-171.34"/>
<polygon fill="#63b8ff" stroke="#63b8ff" points="88.74,-160.66 78.26,-162.19 87.41,-167.53 88.74,-160.66"/>
</a>
</g>
</g>
<!-- Node4 -->
<g id="Node000004" class="node">
<title>Node4</title>
<g id="a_Node000004"><a xlink:href="classplatf_1_1publish_1_1deinit__t.html" target="_top" xlink:title=" ">
<polygon fill="white" stroke="#666666" points="225.5,-310 116.5,-310 116.5,-290 225.5,-290 225.5,-310"/>
<text text-anchor="middle" x="171" y="-296.5" font-family="Helvetica,sans-Serif" font-size="10.00">platf::publish::deinit_t</text>
</a>
</g>
</g>
<!-- Node0&#45;&gt;Node4 -->
<g id="edge24_Node000000_Node000004" class="edge">
<title>Node0&#45;&gt;Node4</title>
<g id="a_edge24_Node000000_Node000004"><a xlink:title=" ">
<path fill="none" stroke="#63b8ff" d="M48.57,-175.95C59.29,-203.74 81.85,-252.59 116.5,-281 120.69,-284.44 125.55,-287.27 130.6,-289.61"/>
<polygon fill="#63b8ff" stroke="#63b8ff" points="51.96,-175.04 45.22,-166.87 45.39,-177.47 51.96,-175.04"/>
</a>
</g>
</g>
<!-- Node6 -->
<g id="Node000006" class="node">
<title>Node6</title>
<g id="a_Node000006"><a xlink:href="classplatf_1_1publish_1_1mdns__registration__t.html" target="_top" xlink:title=" ">
<polygon fill="white" stroke="#666666" points="221.75,-146 120.25,-146 120.25,-114 221.75,-114 221.75,-146"/>
<text text-anchor="start" x="128.25" y="-132.5" font-family="Helvetica,sans-Serif" font-size="10.00">platf::publish::mdns</text>
<text text-anchor="middle" x="171" y="-120.5" font-family="Helvetica,sans-Serif" font-size="10.00">_registration_t</text>
</a>
</g>
</g>
<!-- Node0&#45;&gt;Node6 -->
<g id="edge25_Node000000_Node000006" class="edge">
<title>Node0&#45;&gt;Node6</title>
<g id="a_edge25_Node000000_Node000006"><a xlink:title=" ">
<path fill="none" stroke="#63b8ff" d="M87.83,-145.95C98.33,-143.92 109.51,-141.74 120.14,-139.68"/>
<polygon fill="#63b8ff" stroke="#63b8ff" points="87.41,-142.47 78.26,-147.81 88.74,-149.34 87.41,-142.47"/>
</a>
</g>
</g>
<!-- Node7 -->
<g id="Node000007" class="node">
<title>Node7</title>
<g id="a_Node000007"><a xlink:href="classplatf_1_1qos__t.html" target="_top" xlink:title=" ">
<polygon fill="white" stroke="#666666" points="203.38,-96 138.62,-96 138.62,-76 203.38,-76 203.38,-96"/>
<text text-anchor="middle" x="171" y="-82.5" font-family="Helvetica,sans-Serif" font-size="10.00">platf::qos_t</text>
</a>
</g>
</g>
<!-- Node0&#45;&gt;Node7 -->
<g id="edge26_Node000000_Node000007" class="edge">
<title>Node0&#45;&gt;Node7</title>
<g id="a_edge26_Node000000_Node000007"><a xlink:title=" ">
<path fill="none" stroke="#63b8ff" d="M63.93,-137.8C78.43,-127.35 97.92,-114.29 116.5,-105 123.38,-101.56 131.03,-98.45 138.35,-95.79"/>
<polygon fill="#63b8ff" stroke="#63b8ff" points="61.98,-134.89 55.99,-143.63 66.12,-140.53 61.98,-134.89"/>
</a>
</g>
</g>
<!-- Node8 -->
<g id="Node000008" class="node">
<title>Node8</title>
<g id="a_Node000008"><a xlink:href="classproc_1_1deinit__t.html" target="_top" xlink:title=" ">
<polygon fill="white" stroke="#666666" points="207.12,-58 134.88,-58 134.88,-38 207.12,-38 207.12,-58"/>
<text text-anchor="middle" x="171" y="-44.5" font-family="Helvetica,sans-Serif" font-size="10.00">proc::deinit_t</text>
</a>
</g>
</g>
<!-- Node0&#45;&gt;Node8 -->
<g id="edge27_Node000000_Node000008" class="edge">
<title>Node0&#45;&gt;Node8</title>
<g id="a_edge27_Node000000_Node000008"><a xlink:title=" ">
<path fill="none" stroke="#63b8ff" d="M53.62,-135.23C66.93,-115.43 89.82,-85.34 116.5,-67 121.94,-63.26 128.2,-60.17 134.47,-57.66"/>
<polygon fill="#63b8ff" stroke="#63b8ff" points="50.75,-133.22 48.23,-143.51 56.61,-137.04 50.75,-133.22"/>
</a>
</g>
</g>
<!-- Node9 -->
<g id="Node000009" class="node">
<title>Node9</title>
<g id="a_Node000009"><a xlink:href="classupnp_1_1deinit__t.html" target="_top" xlink:title=" ">
<polygon fill="white" stroke="#666666" points="208.25,-20 133.75,-20 133.75,0 208.25,0 208.25,-20"/>
<text text-anchor="middle" x="171" y="-6.5" font-family="Helvetica,sans-Serif" font-size="10.00">upnp::deinit_t</text>
</a>
</g>
</g>
<!-- Node0&#45;&gt;Node9 -->
<g id="edge28_Node000000_Node000009" class="edge">
<title>Node0&#45;&gt;Node9</title>
<g id="a_edge28_Node000000_Node000009"><a xlink:title=" ">
<path fill="none" stroke="#63b8ff" d="M48.57,-134.05C59.29,-106.26 81.85,-57.41 116.5,-29 121.45,-24.94 127.34,-21.71 133.37,-19.16"/>
<polygon fill="#63b8ff" stroke="#63b8ff" points="45.39,-132.53 45.22,-143.13 51.96,-134.96 45.39,-132.53"/>
</a>
</g>
</g>
<!-- Node5 -->
<g id="Node000005" class="node">
<title>Node5</title>
<g id="a_Node000005"><a xlink:title=" ">
<polygon fill="#e0e0e0" stroke="#999999" points="80.5,-310 0,-310 0,-290 80.5,-290 80.5,-310"/>
<text text-anchor="middle" x="40.25" y="-296.5" font-family="Helvetica,sans-Serif" font-size="10.00">std::unique_ptr</text>
</a>
</g>
</g>
<!-- Node5&#45;&gt;Node4 -->
<g id="edge29_Node000005_Node000004" class="edge">
<title>Node5&#45;&gt;Node4</title>
<g id="a_edge29_Node000005_Node000004"><a xlink:title=" ">
<path fill="none" stroke="#8b1a1a" d="M92.43,-300C100.18,-300 108.2,-300 116.01,-300"/>
<polygon fill="#8b1a1a" stroke="#8b1a1a" points="92.44,-296.5 82.44,-300 92.44,-303.5 92.44,-296.5"/>
</a>
</g>
</g>
</g>
</svg>
