<?xml version="1.0" encoding="UTF-8" standalone="no"?>
<!DOCTYPE svg PUBLIC "-//W3C//DTD SVG 1.1//EN"
 "http://www.w3.org/Graphics/SVG/1.1/DTD/svg11.dtd">
<!-- Generated by graphviz version 12.2.1 (0)
 -->
<!-- Title: Graphical Class Hierarchy Pages: 1 -->
<svg width="223pt" height="90pt"
 viewBox="0.00 0.00 223.00 90.00" xmlns="http://www.w3.org/2000/svg" xmlns:xlink="http://www.w3.org/1999/xlink">
<g id="graph0" class="graph" transform="scale(1 1) rotate(0) translate(4 86)">
<title>Graphical Class Hierarchy</title>
<!-- Node0 -->
<g id="Node000000" class="node">
<title>Node0</title>
<g id="a_Node000000"><a xlink:title=" ">
<polygon fill="#e0e0e0" stroke="#999999" points="80.5,-32 0,-32 0,-12 80.5,-12 80.5,-32"/>
<text text-anchor="middle" x="40.25" y="-18.5" font-family="Helvetica,sans-Serif" font-size="10.00">std::false_type</text>
</a>
</g>
</g>
<!-- Node1 -->
<g id="Node000001" class="node">
<title>Node1</title>
<g id="a_Node000001"><a xlink:href="structutil_1_1____instantiation__of_3_01X_00_01X_3_01Y_8_8_8_01_4_01_4.html" target="_top" xlink:title=" ">
<polygon fill="white" stroke="#666666" points="215,-82 116.5,-82 116.5,-50 215,-50 215,-82"/>
<text text-anchor="start" x="124.5" y="-68.5" font-family="Helvetica,sans-Serif" font-size="10.00">util::__instantiation</text>
<text text-anchor="middle" x="165.75" y="-56.5" font-family="Helvetica,sans-Serif" font-size="10.00">_of&lt; X, X&lt; Y... &gt; &gt;</text>
</a>
</g>
</g>
<!-- Node0&#45;&gt;Node1 -->
<g id="edge82_Node000000_Node000001" class="edge">
<title>Node0&#45;&gt;Node1</title>
<g id="a_edge82_Node000000_Node000001"><a xlink:title=" ">
<path fill="none" stroke="#63b8ff" d="M81.13,-36.21C93.14,-40.49 106.42,-45.22 118.79,-49.63"/>
<polygon fill="#63b8ff" stroke="#63b8ff" points="82.54,-32.99 71.94,-32.94 80.19,-39.59 82.54,-32.99"/>
</a>
</g>
</g>
<!-- Node3 -->
<g id="Node000003" class="node">
<title>Node3</title>
<g id="a_Node000003"><a xlink:href="structutil_1_1____instantiation__of.html" target="_top" xlink:title=" ">
<polygon fill="white" stroke="#666666" points="214.62,-32 116.88,-32 116.88,0 214.62,0 214.62,-32"/>
<text text-anchor="start" x="124.88" y="-18.5" font-family="Helvetica,sans-Serif" font-size="10.00">util::__instantiation</text>
<text text-anchor="middle" x="165.75" y="-6.5" font-family="Helvetica,sans-Serif" font-size="10.00">_of&lt; X, Y &gt;</text>
</a>
</g>
</g>
<!-- Node0&#45;&gt;Node3 -->
<g id="edge83_Node000000_Node000003" class="edge">
<title>Node0&#45;&gt;Node3</title>
<g id="a_edge83_Node000000_Node000003"><a xlink:title=" ">
<path fill="none" stroke="#63b8ff" d="M91.96,-19.54C100.11,-19.14 108.53,-18.73 116.62,-18.34"/>
<polygon fill="#63b8ff" stroke="#63b8ff" points="92,-16.03 82.18,-20.01 92.34,-23.02 92,-16.03"/>
</a>
</g>
</g>
<!-- Node2 -->
<g id="Node000002" class="node">
<title>Node2</title>
<g id="a_Node000002"><a xlink:title=" ">
<polygon fill="#e0e0e0" stroke="#999999" points="78.25,-76 2.25,-76 2.25,-56 78.25,-56 78.25,-76"/>
<text text-anchor="middle" x="40.25" y="-62.5" font-family="Helvetica,sans-Serif" font-size="10.00">std::true_type</text>
</a>
</g>
</g>
<!-- Node2&#45;&gt;Node1 -->
<g id="edge84_Node000002_Node000001" class="edge">
<title>Node2&#45;&gt;Node1</title>
<g id="a_edge84_Node000002_Node000001"><a xlink:title=" ">
<path fill="none" stroke="#63b8ff" d="M90.04,-66C98.6,-66 107.51,-66 116.07,-66"/>
<polygon fill="#63b8ff" stroke="#63b8ff" points="90.15,-62.5 80.15,-66 90.15,-69.5 90.15,-62.5"/>
</a>
</g>
</g>
</g>
</svg>
