<?xml version="1.0" encoding="UTF-8" standalone="no"?>
<!DOCTYPE svg PUBLIC "-//W3C//DTD SVG 1.1//EN"
 "http://www.w3.org/Graphics/SVG/1.1/DTD/svg11.dtd">
<!-- Generated by graphviz version 12.2.1 (0)
 -->
<!-- Title: Graphical Class Hierarchy Pages: 1 -->
<svg width="285pt" height="90pt"
 viewBox="0.00 0.00 284.50 90.00" xmlns="http://www.w3.org/2000/svg" xmlns:xlink="http://www.w3.org/1999/xlink">
<g id="graph0" class="graph" transform="scale(1 1) rotate(0) translate(4 86)">
<title>Graphical Class Hierarchy</title>
<!-- Node0 -->
<g id="Node000000" class="node">
<title>Node0</title>
<g id="a_Node000000"><a xlink:href="structvideo_1_1encoder__platform__formats__t.html" target="_top" xlink:title=" ">
<polygon fill="white" stroke="#666666" points="120.25,-57 0,-57 0,-25 120.25,-25 120.25,-57"/>
<text text-anchor="start" x="8" y="-43.5" font-family="Helvetica,sans-Serif" font-size="10.00">video::encoder_platform</text>
<text text-anchor="middle" x="60.12" y="-31.5" font-family="Helvetica,sans-Serif" font-size="10.00">_formats_t</text>
</a>
</g>
</g>
<!-- Node1 -->
<g id="Node000001" class="node">
<title>Node1</title>
<g id="a_Node000001"><a xlink:href="structvideo_1_1encoder__platform__formats__avcodec.html" target="_top" xlink:title=" ">
<polygon fill="white" stroke="#666666" points="276.5,-82 156.25,-82 156.25,-50 276.5,-50 276.5,-82"/>
<text text-anchor="start" x="164.25" y="-68.5" font-family="Helvetica,sans-Serif" font-size="10.00">video::encoder_platform</text>
<text text-anchor="middle" x="216.38" y="-56.5" font-family="Helvetica,sans-Serif" font-size="10.00">_formats_avcodec</text>
</a>
</g>
</g>
<!-- Node0&#45;&gt;Node1 -->
<g id="edge96_Node000000_Node000001" class="edge">
<title>Node0&#45;&gt;Node1</title>
<g id="a_edge96_Node000000_Node000001"><a xlink:title=" ">
<path fill="none" stroke="#63b8ff" d="M131.65,-52.43C139.73,-53.74 147.91,-55.07 155.83,-56.35"/>
<polygon fill="#63b8ff" stroke="#63b8ff" points="132.25,-48.98 121.81,-50.84 131.13,-55.89 132.25,-48.98"/>
</a>
</g>
</g>
<!-- Node2 -->
<g id="Node000002" class="node">
<title>Node2</title>
<g id="a_Node000002"><a xlink:href="structvideo_1_1encoder__platform__formats__nvenc.html" target="_top" xlink:title=" ">
<polygon fill="white" stroke="#666666" points="276.5,-32 156.25,-32 156.25,0 276.5,0 276.5,-32"/>
<text text-anchor="start" x="164.25" y="-18.5" font-family="Helvetica,sans-Serif" font-size="10.00">video::encoder_platform</text>
<text text-anchor="middle" x="216.38" y="-6.5" font-family="Helvetica,sans-Serif" font-size="10.00">_formats_nvenc</text>
</a>
</g>
</g>
<!-- Node0&#45;&gt;Node2 -->
<g id="edge97_Node000000_Node000002" class="edge">
<title>Node0&#45;&gt;Node2</title>
<g id="a_edge97_Node000000_Node000002"><a xlink:title=" ">
<path fill="none" stroke="#63b8ff" d="M131.65,-29.57C139.73,-28.26 147.91,-26.93 155.83,-25.65"/>
<polygon fill="#63b8ff" stroke="#63b8ff" points="131.13,-26.11 121.81,-31.16 132.25,-33.02 131.13,-26.11"/>
</a>
</g>
</g>
</g>
</svg>
