<?xml version="1.0" encoding="UTF-8" standalone="no"?>
<!DOCTYPE svg PUBLIC "-//W3C//DTD SVG 1.1//EN"
 "http://www.w3.org/Graphics/SVG/1.1/DTD/svg11.dtd">
<!-- Generated by graphviz version 12.2.1 (0)
 -->
<!-- Title: src/platform/linux/input/inputtino_keyboard.h Pages: 1 -->
<!--zoomable 332 -->

<svg id="main" version="1.1" xmlns="http://www.w3.org/2000/svg" xmlns:xlink="http://www.w3.org/1999/xlink" xml:space="preserve" onload="init(evt)">

<style type="text/css"><![CDATA[
.node, .edge {opacity: 0.7;}
.node.selected, .edge.selected {opacity: 1;}
.edge:hover path { stroke: red; }
.edge:hover polygon { stroke: red; fill: red; }
]]></style>

<defs>
  <circle id="rim" cx="0" cy="0" r="7"/>
  <circle id="rim2" cx="0" cy="0" r="3.5"/>
  <g id="zoomPlus">
    <use xlink:href="#rim" fill="#404040"><set attributeName="fill" to="#808080" begin="zoomplus.mouseover" end="zoomplus.mouseout"/></use>
    <path d="M-4,0h8M0,-4v8" fill="none" stroke="white" stroke-width="1.5" pointer-events="none"/>
  </g>
  <g id="zoomMin">
    <use xlink:href="#rim" fill="#404040"><set attributeName="fill" to="#808080" begin="zoomminus.mouseover" end="zoomminus.mouseout"/></use>
    <path d="M-4,0h8" fill="none" stroke="white" stroke-width="1.5" pointer-events="none"/>
  </g>
  <g id="arrowUp" transform="translate(30 24)">
    <use xlink:href="#rim"/>
    <path pointer-events="none" fill="none" stroke="white" stroke-width="1.5" d="M0,-3.0v7 M-2.5,-0.5L0,-3.0L2.5,-0.5"/>
  </g>
  <g id="arrowRight" transform="rotate(90) translate(36 -43)">
    <use xlink:href="#rim"/>
    <path pointer-events="none" fill="none" stroke="white" stroke-width="1.5" d="M0,-3.0v7 M-2.5,-0.5L0,-3.0L2.5,-0.5"/>
  </g>
  <g id="arrowDown" transform="rotate(180) translate(-30 -48)">
    <use xlink:href="#rim"/>
    <path pointer-events="none" fill="none" stroke="white" stroke-width="1.5" d="M0,-3.0v7 M-2.5,-0.5L0,-3.0L2.5,-0.5"/>
  </g>
  <g id="arrowLeft" transform="rotate(270) translate(-36 17)">
    <use xlink:href="#rim"/>
    <path pointer-events="none" fill="none" stroke="white" stroke-width="1.5" d="M0,-3.0v7 M-2.5,-0.5L0,-3.0L2.5,-0.5"/>
  </g>
  <g id="resetDef">
    <use xlink:href="#rim2" fill="#404040"><set attributeName="fill" to="#808080" begin="reset.mouseover" end="reset.mouseout"/></use>
  </g>
</defs>
<script type="application/ecmascript">
var viewWidth = 1510;
var viewHeight = 332;
var sectionId = 'dynsection-0';
</script>
<script type="application/ecmascript" xlink:href="svg.min.js"/>
<svg id="graph" class="graph">
<g id="viewport">
<title>src/platform/linux/input/inputtino_keyboard.h</title>
<!-- Node1 -->
<g id="Node000001" class="node">
<title>Node1</title>
<g id="a_Node000001"><a xlink:title="Declarations for inputtino keyboard input handling.">
<polygon fill="#999999" stroke="#666666" points="264.12,-324 131.12,-324 131.12,-292 264.12,-292 264.12,-324"/>
<text text-anchor="start" x="139.12" y="-310.5" font-family="Helvetica,sans-Serif" font-size="10.00">src/platform/linux</text>
<text text-anchor="middle" x="197.62" y="-298.5" font-family="Helvetica,sans-Serif" font-size="10.00">/input/inputtino_keyboard.h</text>
</a>
</g>
</g>
<!-- Node2 -->
<g id="Node000002" class="node">
<title>Node2</title>
<g id="a_Node000002"><a xlink:title=" ">
<polygon fill="#e0e0e0" stroke="#999999" points="104.25,-200 17,-200 17,-180 104.25,-180 104.25,-200"/>
<text text-anchor="middle" x="60.62" y="-186.5" font-family="Helvetica,sans-Serif" font-size="10.00">boost/locale.hpp</text>
</a>
</g>
</g>
<!-- Node1&#45;&gt;Node2 -->
<g id="edge1_Node000001_Node000002" class="edge">
<title>Node1&#45;&gt;Node2</title>
<g id="a_edge1_Node000001_Node000002"><a xlink:title=" ">
<path fill="none" stroke="#63b8ff" d="M179.43,-291.6C153.65,-269.76 106.67,-229.99 80.17,-207.55"/>
<polygon fill="#63b8ff" stroke="#63b8ff" points="82.77,-205.16 72.87,-201.37 78.24,-210.5 82.77,-205.16"/>
</a>
</g>
</g>
<!-- Node3 -->
<g id="Node000003" class="node">
<title>Node3</title>
<g id="a_Node000003"><a xlink:title=" ">
<polygon fill="#e0e0e0" stroke="#999999" points="217.38,-200 121.88,-200 121.88,-180 217.38,-180 217.38,-200"/>
<text text-anchor="middle" x="169.62" y="-186.5" font-family="Helvetica,sans-Serif" font-size="10.00">inputtino/input.hpp</text>
</a>
</g>
</g>
<!-- Node1&#45;&gt;Node3 -->
<g id="edge2_Node000001_Node000003" class="edge">
<title>Node1&#45;&gt;Node3</title>
<g id="a_edge2_Node000001_Node000003"><a xlink:title=" ">
<path fill="none" stroke="#63b8ff" d="M193.96,-291.84C189.01,-271.32 180.16,-234.63 174.6,-211.62"/>
<polygon fill="#63b8ff" stroke="#63b8ff" points="178.01,-210.81 172.26,-201.91 171.2,-212.45 178.01,-210.81"/>
</a>
</g>
</g>
<!-- Node4 -->
<g id="Node000004" class="node">
<title>Node4</title>
<g id="a_Node000004"><a xlink:title=" ">
<polygon fill="#e0e0e0" stroke="#999999" points="333.88,-200 235.38,-200 235.38,-180 333.88,-180 333.88,-200"/>
<text text-anchor="middle" x="284.62" y="-186.5" font-family="Helvetica,sans-Serif" font-size="10.00">libevdev/libevdev.h</text>
</a>
</g>
</g>
<!-- Node1&#45;&gt;Node4 -->
<g id="edge3_Node000001_Node000004" class="edge">
<title>Node1&#45;&gt;Node4</title>
<g id="a_edge3_Node000001_Node000004"><a xlink:title=" ">
<path fill="none" stroke="#63b8ff" d="M209,-291.84C224.89,-270.65 253.69,-232.24 270.8,-209.43"/>
<polygon fill="#63b8ff" stroke="#63b8ff" points="273.44,-211.75 276.64,-201.65 267.84,-207.55 273.44,-211.75"/>
</a>
</g>
</g>
<!-- Node5 -->
<g id="Node000005" class="node">
<title>Node5</title>
<g id="a_Node000005"><a xlink:href="inputtino__common_8h.html" target="_top" xlink:title="Declarations for inputtino common input handling.">
<polygon fill="white" stroke="#666666" points="403.5,-256 299.75,-256 299.75,-236 403.5,-236 403.5,-256"/>
<text text-anchor="middle" x="351.62" y="-242.5" font-family="Helvetica,sans-Serif" font-size="10.00">inputtino_common.h</text>
</a>
</g>
</g>
<!-- Node1&#45;&gt;Node5 -->
<g id="edge4_Node000001_Node000005" class="edge">
<title>Node1&#45;&gt;Node5</title>
<g id="a_edge4_Node000001_Node000005"><a xlink:title=" ">
<path fill="none" stroke="#63b8ff" d="M237.28,-291.55C261.9,-281.96 293.24,-269.75 316.88,-260.54"/>
<polygon fill="#63b8ff" stroke="#63b8ff" points="318.02,-263.85 326.07,-256.96 315.48,-257.33 318.02,-263.85"/>
</a>
</g>
</g>
<!-- Node5&#45;&gt;Node2 -->
<g id="edge5_Node000005_Node000002" class="edge">
<title>Node5&#45;&gt;Node2</title>
<g id="a_edge5_Node000005_Node000002"><a xlink:title=" ">
<path fill="none" stroke="#63b8ff" d="M300.6,-235.53C248.82,-225.92 168.91,-211.09 115.71,-201.22"/>
<polygon fill="#63b8ff" stroke="#63b8ff" points="116.41,-197.79 105.94,-199.41 115.13,-204.67 116.41,-197.79"/>
</a>
</g>
</g>
<!-- Node5&#45;&gt;Node3 -->
<g id="edge6_Node000005_Node000003" class="edge">
<title>Node5&#45;&gt;Node3</title>
<g id="a_edge6_Node000005_Node000003"><a xlink:title=" ">
<path fill="none" stroke="#63b8ff" d="M319.92,-235.59C290.09,-226.74 245.21,-213.43 212.25,-203.65"/>
<polygon fill="#63b8ff" stroke="#63b8ff" points="213.61,-200.4 203.03,-200.91 211.62,-207.11 213.61,-200.4"/>
</a>
</g>
</g>
<!-- Node5&#45;&gt;Node4 -->
<g id="edge7_Node000005_Node000004" class="edge">
<title>Node5&#45;&gt;Node4</title>
<g id="a_edge7_Node000005_Node000004"><a xlink:title=" ">
<path fill="none" stroke="#63b8ff" d="M339.95,-235.59C330.35,-227.85 316.5,-216.69 305.06,-207.47"/>
<polygon fill="#63b8ff" stroke="#63b8ff" points="307.32,-204.8 297.34,-201.25 302.93,-210.25 307.32,-204.8"/>
</a>
</g>
</g>
<!-- Node6 -->
<g id="Node000006" class="node">
<title>Node6</title>
<g id="a_Node000006"><a xlink:href="config_8h.html" target="_top" xlink:title="Declarations for the configuration of Sunshine.">
<polygon fill="white" stroke="#666666" points="471.12,-76 404.12,-76 404.12,-56 471.12,-56 471.12,-76"/>
<text text-anchor="middle" x="437.62" y="-62.5" font-family="Helvetica,sans-Serif" font-size="10.00">src/config.h</text>
</a>
</g>
</g>
<!-- Node5&#45;&gt;Node6 -->
<g id="edge8_Node000005_Node000006" class="edge">
<title>Node5&#45;&gt;Node6</title>
<g id="a_edge8_Node000005_Node000006"><a xlink:title=" ">
<path fill="none" stroke="#63b8ff" d="M356.01,-235.93C369.35,-208.32 409.66,-124.88 428.16,-86.59"/>
<polygon fill="#63b8ff" stroke="#63b8ff" points="431.29,-88.16 432.49,-77.63 424.99,-85.11 431.29,-88.16"/>
</a>
</g>
</g>
<!-- Node14 -->
<g id="Node000014" class="node">
<title>Node14</title>
<g id="a_Node000014"><a xlink:href="logging_8h.html" target="_top" xlink:title="Declarations for logging related functions.">
<polygon fill="white" stroke="#666666" points="371.38,-138 299.88,-138 299.88,-118 371.38,-118 371.38,-138"/>
<text text-anchor="middle" x="335.62" y="-124.5" font-family="Helvetica,sans-Serif" font-size="10.00">src/logging.h</text>
</a>
</g>
</g>
<!-- Node5&#45;&gt;Node14 -->
<g id="edge16_Node000005_Node000014" class="edge">
<title>Node5&#45;&gt;Node14</title>
<g id="a_edge16_Node000005_Node000014"><a xlink:title=" ">
<path fill="none" stroke="#63b8ff" d="M350.32,-235.51C347.74,-216.81 341.95,-174.82 338.45,-149.51"/>
<polygon fill="#63b8ff" stroke="#63b8ff" points="341.95,-149.23 337.11,-139.8 335.01,-150.18 341.95,-149.23"/>
</a>
</g>
</g>
<!-- Node21 -->
<g id="Node000021" class="node">
<title>Node21</title>
<g id="a_Node000021"><a xlink:href="common_8h.html" target="_top" xlink:title="Declarations for common platform specific utilities.">
<polygon fill="white" stroke="#666666" points="765.88,-200 649.38,-200 649.38,-180 765.88,-180 765.88,-200"/>
<text text-anchor="middle" x="707.62" y="-186.5" font-family="Helvetica,sans-Serif" font-size="10.00">src/platform/common.h</text>
</a>
</g>
</g>
<!-- Node5&#45;&gt;Node21 -->
<g id="edge25_Node000005_Node000021" class="edge">
<title>Node5&#45;&gt;Node21</title>
<g id="a_edge25_Node000005_Node000021"><a xlink:title=" ">
<path fill="none" stroke="#63b8ff" d="M403.77,-237.09C465.7,-227.7 569.23,-211.99 637.97,-201.56"/>
<polygon fill="#63b8ff" stroke="#63b8ff" points="638.26,-205.06 647.62,-200.1 637.21,-198.14 638.26,-205.06"/>
</a>
</g>
</g>
<!-- Node30 -->
<g id="Node000030" class="node">
<title>Node30</title>
<g id="a_Node000030"><a xlink:href="utility_8h.html" target="_top" xlink:title="Declarations for utility functions.">
<polygon fill="white" stroke="#666666" points="1207,-76 1160.25,-76 1160.25,-56 1207,-56 1207,-76"/>
<text text-anchor="middle" x="1183.62" y="-62.5" font-family="Helvetica,sans-Serif" font-size="10.00">utility.h</text>
</a>
</g>
</g>
<!-- Node5&#45;&gt;Node30 -->
<g id="edge58_Node000005_Node000030" class="edge">
<title>Node5&#45;&gt;Node30</title>
<g id="a_edge58_Node000005_Node000030"><a xlink:title=" ">
<path fill="none" stroke="#63b8ff" d="M403.88,-243.22C589.45,-236.37 1208.79,-208.79 1266.62,-144 1276.1,-133.39 1273.9,-124.22 1266.62,-112 1256.07,-94.27 1235.83,-83.1 1217.98,-76.32"/>
<polygon fill="#63b8ff" stroke="#63b8ff" points="1219.31,-73.07 1208.71,-73.14 1217.03,-79.7 1219.31,-73.07"/>
</a>
</g>
</g>
<!-- Node7 -->
<g id="Node000007" class="node">
<title>Node7</title>
<g id="a_Node000007"><a xlink:title=" ">
<polygon fill="#e0e0e0" stroke="#999999" points="543.62,-20 503.62,-20 503.62,0 543.62,0 543.62,-20"/>
<text text-anchor="middle" x="523.62" y="-6.5" font-family="Helvetica,sans-Serif" font-size="10.00">bitset</text>
</a>
</g>
</g>
<!-- Node6&#45;&gt;Node7 -->
<g id="edge9_Node000006_Node000007" class="edge">
<title>Node6&#45;&gt;Node7</title>
<g id="a_edge9_Node000006_Node000007"><a xlink:title=" ">
<path fill="none" stroke="#63b8ff" d="M452.61,-55.59C465.35,-47.59 483.92,-35.93 498.87,-26.54"/>
<polygon fill="#63b8ff" stroke="#63b8ff" points="500.64,-29.57 507.25,-21.28 496.92,-23.64 500.64,-29.57"/>
</a>
</g>
</g>
<!-- Node8 -->
<g id="Node000008" class="node">
<title>Node8</title>
<g id="a_Node000008"><a xlink:title=" ">
<polygon fill="#e0e0e0" stroke="#999999" points="240.25,-20 195,-20 195,0 240.25,0 240.25,-20"/>
<text text-anchor="middle" x="217.62" y="-6.5" font-family="Helvetica,sans-Serif" font-size="10.00">chrono</text>
</a>
</g>
</g>
<!-- Node6&#45;&gt;Node8 -->
<g id="edge10_Node000006_Node000008" class="edge">
<title>Node6&#45;&gt;Node8</title>
<g id="a_edge10_Node000006_Node000008"><a xlink:title=" ">
<path fill="none" stroke="#63b8ff" d="M403.73,-56.68C362.4,-46.53 292.93,-29.49 251.57,-19.33"/>
<polygon fill="#63b8ff" stroke="#63b8ff" points="252.47,-15.95 241.92,-16.96 250.8,-22.75 252.47,-15.95"/>
</a>
</g>
</g>
<!-- Node9 -->
<g id="Node000009" class="node">
<title>Node9</title>
<g id="a_Node000009"><a xlink:title=" ">
<polygon fill="#e0e0e0" stroke="#999999" points="859.5,-20 809.75,-20 809.75,0 859.5,0 859.5,-20"/>
<text text-anchor="middle" x="834.62" y="-6.5" font-family="Helvetica,sans-Serif" font-size="10.00">optional</text>
</a>
</g>
</g>
<!-- Node6&#45;&gt;Node9 -->
<g id="edge11_Node000006_Node000009" class="edge">
<title>Node6&#45;&gt;Node9</title>
<g id="a_edge11_Node000006_Node000009"><a xlink:title=" ">
<path fill="none" stroke="#63b8ff" d="M471.3,-60.55C531.55,-52.58 661.8,-35.24 771.62,-20 780.2,-18.81 789.43,-17.5 798.11,-16.27"/>
<polygon fill="#63b8ff" stroke="#63b8ff" points="798.59,-19.73 807.99,-14.85 797.6,-12.8 798.59,-19.73"/>
</a>
</g>
</g>
<!-- Node10 -->
<g id="Node000010" class="node">
<title>Node10</title>
<g id="a_Node000010"><a xlink:title=" ">
<polygon fill="#e0e0e0" stroke="#999999" points="693.62,-20 653.62,-20 653.62,0 693.62,0 693.62,-20"/>
<text text-anchor="middle" x="673.62" y="-6.5" font-family="Helvetica,sans-Serif" font-size="10.00">string</text>
</a>
</g>
</g>
<!-- Node6&#45;&gt;Node10 -->
<g id="edge12_Node000006_Node000010" class="edge">
<title>Node6&#45;&gt;Node10</title>
<g id="a_edge12_Node000006_Node000010"><a xlink:title=" ">
<path fill="none" stroke="#63b8ff" d="M471.54,-58.57C510.55,-50.96 576.71,-37.44 642.44,-20.4"/>
<polygon fill="#63b8ff" stroke="#63b8ff" points="643.16,-23.83 651.94,-17.9 641.38,-17.06 643.16,-23.83"/>
</a>
</g>
</g>
<!-- Node11 -->
<g id="Node000011" class="node">
<title>Node11</title>
<g id="a_Node000011"><a xlink:title=" ">
<polygon fill="#e0e0e0" stroke="#999999" points="356,-20 273.25,-20 273.25,0 356,0 356,-20"/>
<text text-anchor="middle" x="314.62" y="-6.5" font-family="Helvetica,sans-Serif" font-size="10.00">unordered_map</text>
</a>
</g>
</g>
<!-- Node6&#45;&gt;Node11 -->
<g id="edge13_Node000006_Node000011" class="edge">
<title>Node6&#45;&gt;Node11</title>
<g id="a_edge13_Node000006_Node000011"><a xlink:title=" ">
<path fill="none" stroke="#63b8ff" d="M416.2,-55.59C397,-47.17 368.58,-34.69 346.68,-25.07"/>
<polygon fill="#63b8ff" stroke="#63b8ff" points="348.17,-21.9 337.6,-21.09 345.35,-28.31 348.17,-21.9"/>
</a>
</g>
</g>
<!-- Node12 -->
<g id="Node000012" class="node">
<title>Node12</title>
<g id="a_Node000012"><a xlink:title=" ">
<polygon fill="#e0e0e0" stroke="#999999" points="762.12,-20 719.12,-20 719.12,0 762.12,0 762.12,-20"/>
<text text-anchor="middle" x="740.62" y="-6.5" font-family="Helvetica,sans-Serif" font-size="10.00">vector</text>
</a>
</g>
</g>
<!-- Node6&#45;&gt;Node12 -->
<g id="edge14_Node000006_Node000012" class="edge">
<title>Node6&#45;&gt;Node12</title>
<g id="a_edge14_Node000006_Node000012"><a xlink:title=" ">
<path fill="none" stroke="#63b8ff" d="M471.22,-60C521.65,-52.35 619.85,-36.81 702.62,-20 704.37,-19.65 706.16,-19.27 707.96,-18.88"/>
<polygon fill="#63b8ff" stroke="#63b8ff" points="708.52,-22.34 717.5,-16.72 706.97,-15.51 708.52,-22.34"/>
</a>
</g>
</g>
<!-- Node13 -->
<g id="Node000013" class="node">
<title>Node13</title>
<g id="a_Node000013"><a xlink:href="nvenc__config_8h.html" target="_top" xlink:title="Declarations for NVENC encoder configuration.">
<polygon fill="white" stroke="#666666" points="485.25,-20 374,-20 374,0 485.25,0 485.25,-20"/>
<text text-anchor="middle" x="429.62" y="-6.5" font-family="Helvetica,sans-Serif" font-size="10.00">nvenc/nvenc_config.h</text>
</a>
</g>
</g>
<!-- Node6&#45;&gt;Node13 -->
<g id="edge15_Node000006_Node000013" class="edge">
<title>Node6&#45;&gt;Node13</title>
<g id="a_edge15_Node000006_Node000013"><a xlink:title=" ">
<path fill="none" stroke="#63b8ff" d="M436.23,-55.59C435.24,-48.93 433.88,-39.75 432.65,-31.44"/>
<polygon fill="#63b8ff" stroke="#63b8ff" points="436.15,-31.17 431.22,-21.8 429.23,-32.2 436.15,-31.17"/>
</a>
</g>
</g>
<!-- Node14&#45;&gt;Node6 -->
<g id="edge19_Node000014_Node000006" class="edge">
<title>Node14&#45;&gt;Node6</title>
<g id="a_edge19_Node000014_Node000006"><a xlink:title=" ">
<path fill="none" stroke="#63b8ff" d="M351.56,-117.62C367.73,-108.11 393.01,-93.24 412,-82.08"/>
<polygon fill="#63b8ff" stroke="#63b8ff" points="413.65,-85.16 420.49,-77.08 410.1,-79.13 413.65,-85.16"/>
</a>
</g>
</g>
<!-- Node15 -->
<g id="Node000015" class="node">
<title>Node15</title>
<g id="a_Node000015"><a xlink:title=" ">
<polygon fill="#e0e0e0" stroke="#999999" points="267.12,-76 152.12,-76 152.12,-56 267.12,-56 267.12,-76"/>
<text text-anchor="middle" x="209.62" y="-62.5" font-family="Helvetica,sans-Serif" font-size="10.00">boost/log/common.hpp</text>
</a>
</g>
</g>
<!-- Node14&#45;&gt;Node15 -->
<g id="edge17_Node000014_Node000015" class="edge">
<title>Node14&#45;&gt;Node15</title>
<g id="a_edge17_Node000014_Node000015"><a xlink:title=" ">
<path fill="none" stroke="#63b8ff" d="M315.94,-117.62C295.41,-107.85 262.99,-92.41 239.35,-81.15"/>
<polygon fill="#63b8ff" stroke="#63b8ff" points="241.07,-78.1 230.54,-76.96 238.06,-84.42 241.07,-78.1"/>
</a>
</g>
</g>
<!-- Node16 -->
<g id="Node000016" class="node">
<title>Node16</title>
<g id="a_Node000016"><a xlink:title=" ">
<polygon fill="#e0e0e0" stroke="#999999" points="386,-76 285.25,-76 285.25,-56 386,-56 386,-76"/>
<text text-anchor="middle" x="335.62" y="-62.5" font-family="Helvetica,sans-Serif" font-size="10.00">boost/log/sinks.hpp</text>
</a>
</g>
</g>
<!-- Node14&#45;&gt;Node16 -->
<g id="edge18_Node000014_Node000016" class="edge">
<title>Node14&#45;&gt;Node16</title>
<g id="a_edge18_Node000014_Node000016"><a xlink:title=" ">
<path fill="none" stroke="#63b8ff" d="M335.62,-117.62C335.62,-109.56 335.62,-97.65 335.62,-87.41"/>
<polygon fill="#63b8ff" stroke="#63b8ff" points="339.13,-87.63 335.63,-77.63 332.13,-87.63 339.13,-87.63"/>
</a>
</g>
</g>
<!-- Node17 -->
<g id="Node000017" class="node">
<title>Node17</title>
<g id="a_Node000017"><a xlink:href="stat__trackers_8h.html" target="_top" xlink:title="Declarations for streaming statistic tracking.">
<polygon fill="white" stroke="#666666" points="134.25,-76 53,-76 53,-56 134.25,-56 134.25,-76"/>
<text text-anchor="middle" x="93.62" y="-62.5" font-family="Helvetica,sans-Serif" font-size="10.00">stat_trackers.h</text>
</a>
</g>
</g>
<!-- Node14&#45;&gt;Node17 -->
<g id="edge20_Node000014_Node000017" class="edge">
<title>Node14&#45;&gt;Node17</title>
<g id="a_edge20_Node000014_Node000017"><a xlink:title=" ">
<path fill="none" stroke="#63b8ff" d="M299.4,-118.02C257.74,-107.69 189.13,-90.68 142.71,-79.17"/>
<polygon fill="#63b8ff" stroke="#63b8ff" points="143.72,-75.81 133.17,-76.8 142.03,-82.61 143.72,-75.81"/>
</a>
</g>
</g>
<!-- Node17&#45;&gt;Node8 -->
<g id="edge21_Node000017_Node000008" class="edge">
<title>Node17&#45;&gt;Node8</title>
<g id="a_edge21_Node000017_Node000008"><a xlink:title=" ">
<path fill="none" stroke="#63b8ff" d="M115.22,-55.59C134.58,-47.17 163.23,-34.69 185.31,-25.07"/>
<polygon fill="#63b8ff" stroke="#63b8ff" points="186.7,-28.29 194.47,-21.08 183.9,-21.87 186.7,-28.29"/>
</a>
</g>
</g>
<!-- Node18 -->
<g id="Node000018" class="node">
<title>Node18</title>
<g id="a_Node000018"><a xlink:title=" ">
<polygon fill="#e0e0e0" stroke="#999999" points="635.62,-20 577.62,-20 577.62,0 635.62,0 635.62,-20"/>
<text text-anchor="middle" x="606.62" y="-6.5" font-family="Helvetica,sans-Serif" font-size="10.00">functional</text>
</a>
</g>
</g>
<!-- Node17&#45;&gt;Node18 -->
<g id="edge22_Node000017_Node000018" class="edge">
<title>Node17&#45;&gt;Node18</title>
<g id="a_edge22_Node000017_Node000018"><a xlink:title=" ">
<path fill="none" stroke="#63b8ff" d="M134.49,-57.2C137.24,-56.76 139.97,-56.36 142.62,-56 323.89,-31.45 371.16,-43.05 552.62,-20 557.01,-19.44 561.58,-18.79 566.13,-18.1"/>
<polygon fill="#63b8ff" stroke="#63b8ff" points="566.44,-21.59 575.76,-16.56 565.34,-14.68 566.44,-21.59"/>
</a>
</g>
</g>
<!-- Node19 -->
<g id="Node000019" class="node">
<title>Node19</title>
<g id="a_Node000019"><a xlink:title=" ">
<polygon fill="#e0e0e0" stroke="#999999" points="39.25,-20 0,-20 0,0 39.25,0 39.25,-20"/>
<text text-anchor="middle" x="19.62" y="-6.5" font-family="Helvetica,sans-Serif" font-size="10.00">limits</text>
</a>
</g>
</g>
<!-- Node17&#45;&gt;Node19 -->
<g id="edge23_Node000017_Node000019" class="edge">
<title>Node17&#45;&gt;Node19</title>
<g id="a_edge23_Node000017_Node000019"><a xlink:title=" ">
<path fill="none" stroke="#63b8ff" d="M80.74,-55.59C69.91,-47.7 54.21,-36.24 41.44,-26.92"/>
<polygon fill="#63b8ff" stroke="#63b8ff" points="43.73,-24.26 33.59,-21.19 39.6,-29.91 43.73,-24.26"/>
</a>
</g>
</g>
<!-- Node20 -->
<g id="Node000020" class="node">
<title>Node20</title>
<g id="a_Node000020"><a xlink:title=" ">
<polygon fill="#e0e0e0" stroke="#999999" points="146.38,-20 56.88,-20 56.88,0 146.38,0 146.38,-20"/>
<text text-anchor="middle" x="101.62" y="-6.5" font-family="Helvetica,sans-Serif" font-size="10.00">boost/format.hpp</text>
</a>
</g>
</g>
<!-- Node17&#45;&gt;Node20 -->
<g id="edge24_Node000017_Node000020" class="edge">
<title>Node17&#45;&gt;Node20</title>
<g id="a_edge24_Node000017_Node000020"><a xlink:title=" ">
<path fill="none" stroke="#63b8ff" d="M95.02,-55.59C96.01,-48.93 97.37,-39.75 98.6,-31.44"/>
<polygon fill="#63b8ff" stroke="#63b8ff" points="102.02,-32.2 100.03,-21.8 95.1,-31.17 102.02,-32.2"/>
</a>
</g>
</g>
<!-- Node21&#45;&gt;Node6 -->
<g id="edge32_Node000021_Node000006" class="edge">
<title>Node21&#45;&gt;Node6</title>
<g id="a_edge32_Node000021_Node000006"><a xlink:title=" ">
<path fill="none" stroke="#63b8ff" d="M648.94,-185.18C585.18,-179.86 488.77,-168.04 461.62,-144 445.68,-129.88 440.21,-105.36 438.4,-87.78"/>
<polygon fill="#63b8ff" stroke="#63b8ff" points="441.9,-87.71 437.73,-77.97 434.92,-88.18 441.9,-87.71"/>
</a>
</g>
</g>
<!-- Node21&#45;&gt;Node7 -->
<g id="edge26_Node000021_Node000007" class="edge">
<title>Node21&#45;&gt;Node7</title>
<g id="a_edge26_Node000021_Node000007"><a xlink:title=" ">
<path fill="none" stroke="#63b8ff" d="M649.05,-184.75C592.85,-179.3 513.76,-167.6 494.62,-144 467.57,-110.63 493.56,-57.59 510.9,-29.64"/>
<polygon fill="#63b8ff" stroke="#63b8ff" points="513.66,-31.81 516.17,-21.52 507.79,-28 513.66,-31.81"/>
</a>
</g>
</g>
<!-- Node21&#45;&gt;Node10 -->
<g id="edge30_Node000021_Node000010" class="edge">
<title>Node21&#45;&gt;Node10</title>
<g id="a_edge30_Node000021_Node000010"><a xlink:title=" ">
<path fill="none" stroke="#63b8ff" d="M705.89,-179.93C700.65,-152.5 684.89,-69.96 677.51,-31.34"/>
<polygon fill="#63b8ff" stroke="#63b8ff" points="680.99,-30.92 675.68,-21.75 674.12,-32.23 680.99,-30.92"/>
</a>
</g>
</g>
<!-- Node21&#45;&gt;Node14 -->
<g id="edge33_Node000021_Node000014" class="edge">
<title>Node21&#45;&gt;Node14</title>
<g id="a_edge33_Node000021_Node000014"><a xlink:title=" ">
<path fill="none" stroke="#63b8ff" d="M649.12,-179.93C591.68,-170.99 501.58,-156.82 423.62,-144 410.38,-141.82 396.02,-139.4 382.82,-137.15"/>
<polygon fill="#63b8ff" stroke="#63b8ff" points="383.51,-133.72 373.07,-135.48 382.33,-140.62 383.51,-133.72"/>
</a>
</g>
</g>
<!-- Node21&#45;&gt;Node18 -->
<g id="edge28_Node000021_Node000018" class="edge">
<title>Node21&#45;&gt;Node18</title>
<g id="a_edge28_Node000021_Node000018"><a xlink:title=" ">
<path fill="none" stroke="#63b8ff" d="M702.48,-179.93C686.75,-152.2 639.06,-68.16 617.46,-30.1"/>
<polygon fill="#63b8ff" stroke="#63b8ff" points="620.61,-28.55 612.63,-21.58 614.52,-32.01 620.61,-28.55"/>
</a>
</g>
</g>
<!-- Node22 -->
<g id="Node000022" class="node">
<title>Node22</title>
<g id="a_Node000022"><a xlink:title=" ">
<polygon fill="#e0e0e0" stroke="#999999" points="1257.12,-138 1196.12,-138 1196.12,-118 1257.12,-118 1257.12,-138"/>
<text text-anchor="middle" x="1226.62" y="-124.5" font-family="Helvetica,sans-Serif" font-size="10.00">filesystem</text>
</a>
</g>
</g>
<!-- Node21&#45;&gt;Node22 -->
<g id="edge27_Node000021_Node000022" class="edge">
<title>Node21&#45;&gt;Node22</title>
<g id="a_edge27_Node000021_Node000022"><a xlink:title=" ">
<path fill="none" stroke="#63b8ff" d="M766.28,-187.7C856.47,-184.75 1034.23,-175.14 1181.62,-144 1184.62,-143.37 1187.69,-142.6 1190.76,-141.76"/>
<polygon fill="#63b8ff" stroke="#63b8ff" points="1191.68,-145.14 1200.23,-138.88 1189.64,-138.44 1191.68,-145.14"/>
</a>
</g>
</g>
<!-- Node23 -->
<g id="Node000023" class="node">
<title>Node23</title>
<g id="a_Node000023"><a xlink:title=" ">
<polygon fill="#e0e0e0" stroke="#999999" points="950.12,-20 907.12,-20 907.12,0 950.12,0 950.12,-20"/>
<text text-anchor="middle" x="928.62" y="-6.5" font-family="Helvetica,sans-Serif" font-size="10.00">mutex</text>
</a>
</g>
</g>
<!-- Node21&#45;&gt;Node23 -->
<g id="edge29_Node000021_Node000023" class="edge">
<title>Node21&#45;&gt;Node23</title>
<g id="a_edge29_Node000021_Node000023"><a xlink:title=" ">
<path fill="none" stroke="#63b8ff" d="M766.15,-187C833,-183.34 936.31,-173.02 960.62,-144 988.35,-110.91 960.57,-57.75 942.13,-29.71"/>
<polygon fill="#63b8ff" stroke="#63b8ff" points="945.06,-27.8 936.51,-21.54 939.29,-31.76 945.06,-27.8"/>
</a>
</g>
</g>
<!-- Node24 -->
<g id="Node000024" class="node">
<title>Node24</title>
<g id="a_Node000024"><a xlink:title=" ">
<polygon fill="#e0e0e0" stroke="#999999" points="641.75,-138 503.5,-138 503.5,-118 641.75,-118 641.75,-138"/>
<text text-anchor="middle" x="572.62" y="-124.5" font-family="Helvetica,sans-Serif" font-size="10.00">boost/core/noncopyable.hpp</text>
</a>
</g>
</g>
<!-- Node21&#45;&gt;Node24 -->
<g id="edge31_Node000021_Node000024" class="edge">
<title>Node21&#45;&gt;Node24</title>
<g id="a_edge31_Node000021_Node000024"><a xlink:title=" ">
<path fill="none" stroke="#63b8ff" d="M686.53,-179.62C664.34,-169.76 629.18,-154.13 603.79,-142.85"/>
<polygon fill="#63b8ff" stroke="#63b8ff" points="605.51,-139.79 594.95,-138.92 602.67,-146.18 605.51,-139.79"/>
</a>
</g>
</g>
<!-- Node25 -->
<g id="Node000025" class="node">
<title>Node25</title>
<g id="a_Node000025"><a xlink:href="thread__safe_8h.html" target="_top" xlink:title="Declarations for thread&#45;safe data structures.">
<polygon fill="white" stroke="#666666" points="951.5,-138 859.75,-138 859.75,-118 951.5,-118 951.5,-138"/>
<text text-anchor="middle" x="905.62" y="-124.5" font-family="Helvetica,sans-Serif" font-size="10.00">src/thread_safe.h</text>
</a>
</g>
</g>
<!-- Node21&#45;&gt;Node25 -->
<g id="edge34_Node000021_Node000025" class="edge">
<title>Node21&#45;&gt;Node25</title>
<g id="a_edge34_Node000021_Node000025"><a xlink:title=" ">
<path fill="none" stroke="#63b8ff" d="M738.56,-179.62C772.32,-169.4 826.54,-152.97 864.01,-141.61"/>
<polygon fill="#63b8ff" stroke="#63b8ff" points="864.57,-145.1 873.13,-138.85 862.54,-138.4 864.57,-145.1"/>
</a>
</g>
</g>
<!-- Node21&#45;&gt;Node30 -->
<g id="edge54_Node000021_Node000030" class="edge">
<title>Node21&#45;&gt;Node30</title>
<g id="a_edge54_Node000021_Node000030"><a xlink:title=" ">
<path fill="none" stroke="#63b8ff" d="M766.05,-186.26C878.84,-180.5 1118.19,-165.86 1148.62,-144 1167.04,-130.77 1175.97,-105.5 1180.16,-87.52"/>
<polygon fill="#63b8ff" stroke="#63b8ff" points="1183.55,-88.44 1182.07,-77.95 1176.68,-87.08 1183.55,-88.44"/>
</a>
</g>
</g>
<!-- Node37 -->
<g id="Node000037" class="node">
<title>Node37</title>
<g id="a_Node000037"><a xlink:href="video__colorspace_8h.html" target="_top" xlink:title="Declarations for colorspace functions.">
<polygon fill="white" stroke="#666666" points="1139.88,-138 1023.38,-138 1023.38,-118 1139.88,-118 1139.88,-138"/>
<text text-anchor="middle" x="1081.62" y="-124.5" font-family="Helvetica,sans-Serif" font-size="10.00">src/video_colorspace.h</text>
</a>
</g>
</g>
<!-- Node21&#45;&gt;Node37 -->
<g id="edge55_Node000021_Node000037" class="edge">
<title>Node21&#45;&gt;Node37</title>
<g id="a_edge55_Node000021_Node000037"><a xlink:title=" ">
<path fill="none" stroke="#63b8ff" d="M766.25,-181.28C827.21,-173.02 925.35,-159.05 1009.62,-144 1015.29,-142.99 1021.2,-141.87 1027.08,-140.71"/>
<polygon fill="#63b8ff" stroke="#63b8ff" points="1027.7,-144.15 1036.82,-138.75 1026.32,-137.29 1027.7,-144.15"/>
</a>
</g>
</g>
<!-- Node39 -->
<g id="Node000039" class="node">
<title>Node39</title>
<g id="a_Node000039"><a xlink:title=" ">
<polygon fill="#e0e0e0" stroke="#999999" points="842,-144 735.25,-144 735.25,-112 842,-112 842,-144"/>
<text text-anchor="start" x="743.25" y="-130.5" font-family="Helvetica,sans-Serif" font-size="10.00">moonlight&#45;common&#45;c</text>
<text text-anchor="middle" x="788.62" y="-118.5" font-family="Helvetica,sans-Serif" font-size="10.00">/src/Limelight.h</text>
</a>
</g>
</g>
<!-- Node21&#45;&gt;Node39 -->
<g id="edge57_Node000021_Node000039" class="edge">
<title>Node21&#45;&gt;Node39</title>
<g id="a_edge57_Node000021_Node000039"><a xlink:title=" ">
<path fill="none" stroke="#63b8ff" d="M720.28,-179.62C730.62,-171.97 745.65,-160.83 758.99,-150.95"/>
<polygon fill="#63b8ff" stroke="#63b8ff" points="760.7,-154.04 766.65,-145.27 756.54,-148.41 760.7,-154.04"/>
</a>
</g>
</g>
<!-- Node25&#45;&gt;Node12 -->
<g id="edge41_Node000025_Node000012" class="edge">
<title>Node25&#45;&gt;Node12</title>
<g id="a_edge41_Node000025_Node000012"><a xlink:title=" ">
<path fill="none" stroke="#63b8ff" d="M873.8,-117.58C833.34,-105.34 767.74,-84.54 759.62,-76 748.23,-64 743.62,-45.54 741.78,-31.36"/>
<polygon fill="#63b8ff" stroke="#63b8ff" points="745.3,-31.42 740.91,-21.77 738.33,-32.05 745.3,-31.42"/>
</a>
</g>
</g>
<!-- Node25&#45;&gt;Node18 -->
<g id="edge38_Node000025_Node000018" class="edge">
<title>Node25&#45;&gt;Node18</title>
<g id="a_edge38_Node000025_Node000018"><a xlink:title=" ">
<path fill="none" stroke="#63b8ff" d="M871.24,-117.55C838.33,-108.17 787.48,-92.8 744.62,-76 705.66,-60.73 662.22,-39.55 634.67,-25.57"/>
<polygon fill="#63b8ff" stroke="#63b8ff" points="636.43,-22.54 625.94,-21.1 633.25,-28.77 636.43,-22.54"/>
</a>
</g>
</g>
<!-- Node25&#45;&gt;Node23 -->
<g id="edge40_Node000025_Node000023" class="edge">
<title>Node25&#45;&gt;Node23</title>
<g id="a_edge40_Node000025_Node000023"><a xlink:title=" ">
<path fill="none" stroke="#63b8ff" d="M912.05,-117.75C918.45,-107.92 927.86,-91.65 931.62,-76 935.11,-61.5 934.2,-44.67 932.51,-31.77"/>
<polygon fill="#63b8ff" stroke="#63b8ff" points="935.96,-31.22 930.92,-21.91 929.05,-32.33 935.96,-31.22"/>
</a>
</g>
</g>
<!-- Node26 -->
<g id="Node000026" class="node">
<title>Node26</title>
<g id="a_Node000026"><a xlink:title=" ">
<polygon fill="#e0e0e0" stroke="#999999" points="806.5,-76 768.75,-76 768.75,-56 806.5,-56 806.5,-76"/>
<text text-anchor="middle" x="787.62" y="-62.5" font-family="Helvetica,sans-Serif" font-size="10.00">array</text>
</a>
</g>
</g>
<!-- Node25&#45;&gt;Node26 -->
<g id="edge35_Node000025_Node000026" class="edge">
<title>Node25&#45;&gt;Node26</title>
<g id="a_edge35_Node000025_Node000026"><a xlink:title=" ">
<path fill="none" stroke="#63b8ff" d="M887.19,-117.62C868.14,-107.94 838.15,-92.69 816.06,-81.46"/>
<polygon fill="#63b8ff" stroke="#63b8ff" points="817.78,-78.41 807.28,-77 814.61,-84.65 817.78,-78.41"/>
</a>
</g>
</g>
<!-- Node27 -->
<g id="Node000027" class="node">
<title>Node27</title>
<g id="a_Node000027"><a xlink:title=" ">
<polygon fill="#e0e0e0" stroke="#999999" points="870.25,-76 825,-76 825,-56 870.25,-56 870.25,-76"/>
<text text-anchor="middle" x="847.62" y="-62.5" font-family="Helvetica,sans-Serif" font-size="10.00">atomic</text>
</a>
</g>
</g>
<!-- Node25&#45;&gt;Node27 -->
<g id="edge36_Node000025_Node000027" class="edge">
<title>Node25&#45;&gt;Node27</title>
<g id="a_edge36_Node000025_Node000027"><a xlink:title=" ">
<path fill="none" stroke="#63b8ff" d="M896.56,-117.62C887.91,-108.68 874.68,-94.99 864.16,-84.1"/>
<polygon fill="#63b8ff" stroke="#63b8ff" points="866.95,-81.96 857.49,-77.2 861.92,-86.82 866.95,-81.96"/>
</a>
</g>
</g>
<!-- Node28 -->
<g id="Node000028" class="node">
<title>Node28</title>
<g id="a_Node000028"><a xlink:title=" ">
<polygon fill="#e0e0e0" stroke="#999999" points="1062.62,-20 968.62,-20 968.62,0 1062.62,0 1062.62,-20"/>
<text text-anchor="middle" x="1015.62" y="-6.5" font-family="Helvetica,sans-Serif" font-size="10.00">condition_variable</text>
</a>
</g>
</g>
<!-- Node25&#45;&gt;Node28 -->
<g id="edge37_Node000025_Node000028" class="edge">
<title>Node25&#45;&gt;Node28</title>
<g id="a_edge37_Node000025_Node000028"><a xlink:title=" ">
<path fill="none" stroke="#63b8ff" d="M914.63,-117.51C933.09,-98.04 975.48,-53.33 999.05,-28.48"/>
<polygon fill="#63b8ff" stroke="#63b8ff" points="1001.42,-31.06 1005.76,-21.4 996.34,-26.25 1001.42,-31.06"/>
</a>
</g>
</g>
<!-- Node29 -->
<g id="Node000029" class="node">
<title>Node29</title>
<g id="a_Node000029"><a xlink:title=" ">
<polygon fill="#e0e0e0" stroke="#999999" points="923,-76 888.25,-76 888.25,-56 923,-56 923,-76"/>
<text text-anchor="middle" x="905.62" y="-62.5" font-family="Helvetica,sans-Serif" font-size="10.00">map</text>
</a>
</g>
</g>
<!-- Node25&#45;&gt;Node29 -->
<g id="edge39_Node000025_Node000029" class="edge">
<title>Node25&#45;&gt;Node29</title>
<g id="a_edge39_Node000025_Node000029"><a xlink:title=" ">
<path fill="none" stroke="#63b8ff" d="M905.62,-117.62C905.62,-109.56 905.62,-97.65 905.62,-87.41"/>
<polygon fill="#63b8ff" stroke="#63b8ff" points="909.13,-87.63 905.63,-77.63 902.13,-87.63 909.13,-87.63"/>
</a>
</g>
</g>
<!-- Node25&#45;&gt;Node30 -->
<g id="edge42_Node000025_Node000030" class="edge">
<title>Node25&#45;&gt;Node30</title>
<g id="a_edge42_Node000025_Node000030"><a xlink:title=" ">
<path fill="none" stroke="#63b8ff" d="M951.63,-118.46C998.89,-109.46 1074.81,-94.4 1148.98,-76.53"/>
<polygon fill="#63b8ff" stroke="#63b8ff" points="1149.55,-79.99 1158.44,-74.23 1147.89,-73.19 1149.55,-79.99"/>
</a>
</g>
</g>
<!-- Node30&#45;&gt;Node9 -->
<g id="edge47_Node000030_Node000009" class="edge">
<title>Node30&#45;&gt;Node9</title>
<g id="a_edge47_Node000030_Node000009"><a xlink:title=" ">
<path fill="none" stroke="#63b8ff" d="M1159.95,-57.96C1157.15,-57.24 1154.34,-56.57 1151.62,-56 1148.2,-55.28 954.07,-27.86 871.33,-16.18"/>
<polygon fill="#63b8ff" stroke="#63b8ff" points="871.86,-12.72 861.47,-14.79 870.88,-19.65 871.86,-12.72"/>
</a>
</g>
</g>
<!-- Node30&#45;&gt;Node10 -->
<g id="edge49_Node000030_Node000010" class="edge">
<title>Node30&#45;&gt;Node10</title>
<g id="a_edge49_Node000030_Node000010"><a xlink:title=" ">
<path fill="none" stroke="#63b8ff" d="M1159.98,-57.8C1157.18,-57.11 1154.35,-56.49 1151.62,-56 958.07,-21.22 904.76,-51.34 710.62,-20 708.74,-19.7 706.81,-19.35 704.87,-18.96"/>
<polygon fill="#63b8ff" stroke="#63b8ff" points="705.86,-15.6 695.34,-16.86 704.35,-22.43 705.86,-15.6"/>
</a>
</g>
</g>
<!-- Node30&#45;&gt;Node12 -->
<g id="edge53_Node000030_Node000012" class="edge">
<title>Node30&#45;&gt;Node12</title>
<g id="a_edge53_Node000030_Node000012"><a xlink:title=" ">
<path fill="none" stroke="#63b8ff" d="M1159.97,-57.86C1157.17,-57.16 1154.35,-56.52 1151.62,-56 997.58,-26.66 956.21,-39.64 800.62,-20 791.93,-18.9 782.55,-17.57 773.85,-16.27"/>
<polygon fill="#63b8ff" stroke="#63b8ff" points="774.44,-12.82 764.03,-14.77 773.39,-19.74 774.44,-12.82"/>
</a>
</g>
</g>
<!-- Node30&#45;&gt;Node23 -->
<g id="edge46_Node000030_Node000023" class="edge">
<title>Node30&#45;&gt;Node23</title>
<g id="a_edge46_Node000030_Node000023"><a xlink:title=" ">
<path fill="none" stroke="#63b8ff" d="M1159.92,-58.08C1157.13,-57.34 1154.32,-56.63 1151.62,-56 1070.55,-37.04 1046.07,-39.85 961.73,-20.29"/>
<polygon fill="#63b8ff" stroke="#63b8ff" points="962.58,-16.9 952.04,-18.01 960.97,-23.71 962.58,-16.9"/>
</a>
</g>
</g>
<!-- Node30&#45;&gt;Node28 -->
<g id="edge44_Node000030_Node000028" class="edge">
<title>Node30&#45;&gt;Node28</title>
<g id="a_edge44_Node000030_Node000028"><a xlink:title=" ">
<path fill="none" stroke="#63b8ff" d="M1159.91,-57.38C1132.97,-48.72 1088.54,-34.44 1056.09,-24.01"/>
<polygon fill="#63b8ff" stroke="#63b8ff" points="1057.19,-20.68 1046.6,-20.96 1055.05,-27.35 1057.19,-20.68"/>
</a>
</g>
</g>
<!-- Node31 -->
<g id="Node000031" class="node">
<title>Node31</title>
<g id="a_Node000031"><a xlink:title=" ">
<polygon fill="#e0e0e0" stroke="#999999" points="1280.5,-20 1224.75,-20 1224.75,0 1280.5,0 1280.5,-20"/>
<text text-anchor="middle" x="1252.62" y="-6.5" font-family="Helvetica,sans-Serif" font-size="10.00">algorithm</text>
</a>
</g>
</g>
<!-- Node30&#45;&gt;Node31 -->
<g id="edge43_Node000030_Node000031" class="edge">
<title>Node30&#45;&gt;Node31</title>
<g id="a_edge43_Node000030_Node000031"><a xlink:title=" ">
<path fill="none" stroke="#63b8ff" d="M1195.64,-55.59C1205.64,-47.77 1220.09,-36.46 1231.93,-27.19"/>
<polygon fill="#63b8ff" stroke="#63b8ff" points="1233.83,-30.15 1239.55,-21.23 1229.52,-24.64 1233.83,-30.15"/>
</a>
</g>
</g>
<!-- Node32 -->
<g id="Node000032" class="node">
<title>Node32</title>
<g id="a_Node000032"><a xlink:title=" ">
<polygon fill="#e0e0e0" stroke="#999999" points="1350.25,-20 1299,-20 1299,0 1350.25,0 1350.25,-20"/>
<text text-anchor="middle" x="1324.62" y="-6.5" font-family="Helvetica,sans-Serif" font-size="10.00">memory</text>
</a>
</g>
</g>
<!-- Node30&#45;&gt;Node32 -->
<g id="edge45_Node000030_Node000032" class="edge">
<title>Node30&#45;&gt;Node32</title>
<g id="a_edge45_Node000030_Node000032"><a xlink:title=" ">
<path fill="none" stroke="#63b8ff" d="M1207.23,-55.96C1229.73,-47.34 1263.89,-34.26 1289.57,-24.43"/>
<polygon fill="#63b8ff" stroke="#63b8ff" points="1290.5,-27.82 1298.59,-20.97 1288,-21.28 1290.5,-27.82"/>
</a>
</g>
</g>
<!-- Node33 -->
<g id="Node000033" class="node">
<title>Node33</title>
<g id="a_Node000033"><a xlink:title=" ">
<polygon fill="#e0e0e0" stroke="#999999" points="1419.25,-20 1368,-20 1368,0 1419.25,0 1419.25,-20"/>
<text text-anchor="middle" x="1393.62" y="-6.5" font-family="Helvetica,sans-Serif" font-size="10.00">ostream</text>
</a>
</g>
</g>
<!-- Node30&#45;&gt;Node33 -->
<g id="edge48_Node000030_Node000033" class="edge">
<title>Node30&#45;&gt;Node33</title>
<g id="a_edge48_Node000030_Node000033"><a xlink:title=" ">
<path fill="none" stroke="#63b8ff" d="M1207.27,-59.02C1239.09,-50.96 1297.74,-36.06 1356.65,-20.76"/>
<polygon fill="#63b8ff" stroke="#63b8ff" points="1357.38,-24.19 1366.18,-18.28 1355.62,-17.41 1357.38,-24.19"/>
</a>
</g>
</g>
<!-- Node34 -->
<g id="Node000034" class="node">
<title>Node34</title>
<g id="a_Node000034"><a xlink:title=" ">
<polygon fill="#e0e0e0" stroke="#999999" points="1502.38,-20 1436.88,-20 1436.88,0 1502.38,0 1502.38,-20"/>
<text text-anchor="middle" x="1469.62" y="-6.5" font-family="Helvetica,sans-Serif" font-size="10.00">string_view</text>
</a>
</g>
</g>
<!-- Node30&#45;&gt;Node34 -->
<g id="edge50_Node000030_Node000034" class="edge">
<title>Node30&#45;&gt;Node34</title>
<g id="a_edge50_Node000030_Node000034"><a xlink:title=" ">
<path fill="none" stroke="#63b8ff" d="M1207.33,-60.93C1249.29,-53.65 1339.64,-37.73 1425.3,-20.62"/>
<polygon fill="#63b8ff" stroke="#63b8ff" points="1425.93,-24.07 1435.04,-18.67 1424.55,-17.2 1425.93,-24.07"/>
</a>
</g>
</g>
<!-- Node35 -->
<g id="Node000035" class="node">
<title>Node35</title>
<g id="a_Node000035"><a xlink:title=" ">
<polygon fill="#e0e0e0" stroke="#999999" points="1142.5,-20 1080.75,-20 1080.75,0 1142.5,0 1142.5,-20"/>
<text text-anchor="middle" x="1111.62" y="-6.5" font-family="Helvetica,sans-Serif" font-size="10.00">type_traits</text>
</a>
</g>
</g>
<!-- Node30&#45;&gt;Node35 -->
<g id="edge51_Node000030_Node000035" class="edge">
<title>Node30&#45;&gt;Node35</title>
<g id="a_edge51_Node000030_Node000035"><a xlink:title=" ">
<path fill="none" stroke="#63b8ff" d="M1171.08,-55.59C1160.66,-47.77 1145.58,-36.46 1133.21,-27.19"/>
<polygon fill="#63b8ff" stroke="#63b8ff" points="1135.33,-24.41 1125.23,-21.21 1131.13,-30.01 1135.33,-24.41"/>
</a>
</g>
</g>
<!-- Node36 -->
<g id="Node000036" class="node">
<title>Node36</title>
<g id="a_Node000036"><a xlink:title=" ">
<polygon fill="#e0e0e0" stroke="#999999" points="1206.25,-20 1161,-20 1161,0 1206.25,0 1206.25,-20"/>
<text text-anchor="middle" x="1183.62" y="-6.5" font-family="Helvetica,sans-Serif" font-size="10.00">variant</text>
</a>
</g>
</g>
<!-- Node30&#45;&gt;Node36 -->
<g id="edge52_Node000030_Node000036" class="edge">
<title>Node30&#45;&gt;Node36</title>
<g id="a_edge52_Node000030_Node000036"><a xlink:title=" ">
<path fill="none" stroke="#63b8ff" d="M1183.62,-55.59C1183.62,-49.01 1183.62,-39.96 1183.62,-31.73"/>
<polygon fill="#63b8ff" stroke="#63b8ff" points="1187.13,-31.81 1183.63,-21.81 1180.13,-31.81 1187.13,-31.81"/>
</a>
</g>
</g>
<!-- Node38 -->
<g id="Node000038" class="node">
<title>Node38</title>
<g id="a_Node000038"><a xlink:title=" ">
<polygon fill="#e0e0e0" stroke="#999999" points="1142.25,-76 1055,-76 1055,-56 1142.25,-56 1142.25,-76"/>
<text text-anchor="middle" x="1098.62" y="-62.5" font-family="Helvetica,sans-Serif" font-size="10.00">libavutil/pixfmt.h</text>
</a>
</g>
</g>
<!-- Node37&#45;&gt;Node38 -->
<g id="edge56_Node000037_Node000038" class="edge">
<title>Node37&#45;&gt;Node38</title>
<g id="a_edge56_Node000037_Node000038"><a xlink:title=" ">
<path fill="none" stroke="#63b8ff" d="M1084.28,-117.62C1086.59,-109.48 1090.01,-97.39 1092.94,-87.07"/>
<polygon fill="#63b8ff" stroke="#63b8ff" points="1096.27,-88.14 1095.63,-77.57 1089.54,-86.24 1096.27,-88.14"/>
</a>
</g>
</g>
</g>
</svg>

<g id="navigator" transform="translate(0 0)" fill="#404254">
  <rect fill="#f2f5e9" fill-opacity="0.5" stroke="#606060" stroke-width=".5" x="0" y="0" width="60" height="60"/>
  <use id="zoomplus" xlink:href="#zoomPlus" x="17" y="9" onmousedown="handleZoom(evt,'in')"/>
  <use id="zoomminus" xlink:href="#zoomMin" x="42" y="9" onmousedown="handleZoom(evt,'out')"/>
  <use id="reset" xlink:href="#resetDef" x="30" y="36" onmousedown="handleReset()"/>
   <use id="arrowup" xlink:href="#arrowUp" x="0" y="0" onmousedown="handlePan(0,-1)"/>
  <use id="arrowright" xlink:href="#arrowRight" x="0" y="0" onmousedown="handlePan(1,0)"/>
  <use id="arrowdown" xlink:href="#arrowDown" x="0" y="0" onmousedown="handlePan(0,1)"/>
  <use id="arrowleft" xlink:href="#arrowLeft" x="0" y="0" onmousedown="handlePan(-1,0)"/>
</g>
<svg viewBox="0 0 15 15" width="100%" height="30px" preserveAspectRatio="xMaxYMin meet">
 <g id="arrow_out" transform="scale(0.3 0.3)">
  <a xlink:href="inputtino__keyboard_8h__incl_org.svg" target="_base">
   <rect id="button" ry="5" rx="5" y="6" x="6" height="38" width="38"
        fill="#f2f5e9" fill-opacity="0.5" stroke="#606060" stroke-width="1.0"/>
   <path id="arrow"
     d="M 11.500037,31.436501 C 11.940474,20.09759 22.043105,11.32322 32.158766,21.979434 L 37.068811,17.246167 C 37.068811,17.246167 37.088388,32 37.088388,32 L 22.160133,31.978069 C 22.160133,31.978069 26.997745,27.140456 26.997745,27.140456 C 18.528582,18.264221 13.291696,25.230495 11.500037,31.436501 z"
     style="fill:#404040;"/>
  </a>
 </g>
</svg>

<style type='text/css'>
<![CDATA[
[data-mouse-over-selected='false'] { opacity: 0.7; }
[data-mouse-over-selected='true']  { opacity: 1.0; }
]]>
</style>
<script type="application/ecmascript"><![CDATA[
document.addEventListener('DOMContentLoaded', (event) => {
  highlightEdges();
  highlightAdjacentNodes();
});
]]></script>
</svg>
