<?xml version="1.0" encoding="UTF-8" standalone="no"?>
<!DOCTYPE svg PUBLIC "-//W3C//DTD SVG 1.1//EN"
 "http://www.w3.org/Graphics/SVG/1.1/DTD/svg11.dtd">
<!-- Generated by graphviz version 12.2.1 (0)
 -->
<!-- Title: src/platform/linux/input/inputtino_touch.h Pages: 1 -->
<!--zoomable 332 -->

<svg id="main" version="1.1" xmlns="http://www.w3.org/2000/svg" xmlns:xlink="http://www.w3.org/1999/xlink" xml:space="preserve" onload="init(evt)">

<style type="text/css"><![CDATA[
.node, .edge {opacity: 0.7;}
.node.selected, .edge.selected {opacity: 1;}
.edge:hover path { stroke: red; }
.edge:hover polygon { stroke: red; fill: red; }
]]></style>

<defs>
  <circle id="rim" cx="0" cy="0" r="7"/>
  <circle id="rim2" cx="0" cy="0" r="3.5"/>
  <g id="zoomPlus">
    <use xlink:href="#rim" fill="#404040"><set attributeName="fill" to="#808080" begin="zoomplus.mouseover" end="zoomplus.mouseout"/></use>
    <path d="M-4,0h8M0,-4v8" fill="none" stroke="white" stroke-width="1.5" pointer-events="none"/>
  </g>
  <g id="zoomMin">
    <use xlink:href="#rim" fill="#404040"><set attributeName="fill" to="#808080" begin="zoomminus.mouseover" end="zoomminus.mouseout"/></use>
    <path d="M-4,0h8" fill="none" stroke="white" stroke-width="1.5" pointer-events="none"/>
  </g>
  <g id="arrowUp" transform="translate(30 24)">
    <use xlink:href="#rim"/>
    <path pointer-events="none" fill="none" stroke="white" stroke-width="1.5" d="M0,-3.0v7 M-2.5,-0.5L0,-3.0L2.5,-0.5"/>
  </g>
  <g id="arrowRight" transform="rotate(90) translate(36 -43)">
    <use xlink:href="#rim"/>
    <path pointer-events="none" fill="none" stroke="white" stroke-width="1.5" d="M0,-3.0v7 M-2.5,-0.5L0,-3.0L2.5,-0.5"/>
  </g>
  <g id="arrowDown" transform="rotate(180) translate(-30 -48)">
    <use xlink:href="#rim"/>
    <path pointer-events="none" fill="none" stroke="white" stroke-width="1.5" d="M0,-3.0v7 M-2.5,-0.5L0,-3.0L2.5,-0.5"/>
  </g>
  <g id="arrowLeft" transform="rotate(270) translate(-36 17)">
    <use xlink:href="#rim"/>
    <path pointer-events="none" fill="none" stroke="white" stroke-width="1.5" d="M0,-3.0v7 M-2.5,-0.5L0,-3.0L2.5,-0.5"/>
  </g>
  <g id="resetDef">
    <use xlink:href="#rim2" fill="#404040"><set attributeName="fill" to="#808080" begin="reset.mouseover" end="reset.mouseout"/></use>
  </g>
</defs>
<script type="application/ecmascript">
var viewWidth = 1436;
var viewHeight = 332;
var sectionId = 'dynsection-0';
</script>
<script type="application/ecmascript" xlink:href="svg.min.js"/>
<svg id="graph" class="graph">
<g id="viewport">
<title>src/platform/linux/input/inputtino_touch.h</title>
<!-- Node1 -->
<g id="Node000001" class="node">
<title>Node1</title>
<g id="a_Node000001"><a xlink:title="Declarations for inputtino touch input handling.">
<polygon fill="#999999" stroke="#666666" points="323.25,-324 206,-324 206,-292 323.25,-292 323.25,-324"/>
<text text-anchor="start" x="214" y="-310.5" font-family="Helvetica,sans-Serif" font-size="10.00">src/platform/linux</text>
<text text-anchor="middle" x="264.62" y="-298.5" font-family="Helvetica,sans-Serif" font-size="10.00">/input/inputtino_touch.h</text>
</a>
</g>
</g>
<!-- Node2 -->
<g id="Node000002" class="node">
<title>Node2</title>
<g id="a_Node000002"><a xlink:title=" ">
<polygon fill="#e0e0e0" stroke="#999999" points="87.25,-200 0,-200 0,-180 87.25,-180 87.25,-200"/>
<text text-anchor="middle" x="43.62" y="-186.5" font-family="Helvetica,sans-Serif" font-size="10.00">boost/locale.hpp</text>
</a>
</g>
</g>
<!-- Node1&#45;&gt;Node2 -->
<g id="edge1_Node000001_Node000002" class="edge">
<title>Node1&#45;&gt;Node2</title>
<g id="a_edge1_Node000001_Node000002"><a xlink:title=" ">
<path fill="none" stroke="#63b8ff" d="M235.28,-291.6C192.51,-269.15 113.58,-227.72 71.6,-205.68"/>
<polygon fill="#63b8ff" stroke="#63b8ff" points="73.34,-202.64 62.86,-201.1 70.09,-208.84 73.34,-202.64"/>
</a>
</g>
</g>
<!-- Node3 -->
<g id="Node000003" class="node">
<title>Node3</title>
<g id="a_Node000003"><a xlink:title=" ">
<polygon fill="#e0e0e0" stroke="#999999" points="200.38,-200 104.88,-200 104.88,-180 200.38,-180 200.38,-200"/>
<text text-anchor="middle" x="152.62" y="-186.5" font-family="Helvetica,sans-Serif" font-size="10.00">inputtino/input.hpp</text>
</a>
</g>
</g>
<!-- Node1&#45;&gt;Node3 -->
<g id="edge2_Node000001_Node000003" class="edge">
<title>Node1&#45;&gt;Node3</title>
<g id="a_edge2_Node000001_Node000003"><a xlink:title=" ">
<path fill="none" stroke="#63b8ff" d="M249.98,-291.84C229.25,-270.37 191.44,-231.2 169.54,-208.52"/>
<polygon fill="#63b8ff" stroke="#63b8ff" points="172.25,-206.29 162.79,-201.53 167.22,-211.15 172.25,-206.29"/>
</a>
</g>
</g>
<!-- Node4 -->
<g id="Node000004" class="node">
<title>Node4</title>
<g id="a_Node000004"><a xlink:title=" ">
<polygon fill="#e0e0e0" stroke="#999999" points="316.88,-200 218.38,-200 218.38,-180 316.88,-180 316.88,-200"/>
<text text-anchor="middle" x="267.62" y="-186.5" font-family="Helvetica,sans-Serif" font-size="10.00">libevdev/libevdev.h</text>
</a>
</g>
</g>
<!-- Node1&#45;&gt;Node4 -->
<g id="edge3_Node000001_Node000004" class="edge">
<title>Node1&#45;&gt;Node4</title>
<g id="a_edge3_Node000001_Node000004"><a xlink:title=" ">
<path fill="none" stroke="#63b8ff" d="M265.02,-291.84C265.55,-271.41 266.49,-234.97 267.08,-211.95"/>
<polygon fill="#63b8ff" stroke="#63b8ff" points="270.58,-212.04 267.34,-201.95 263.58,-211.86 270.58,-212.04"/>
</a>
</g>
</g>
<!-- Node5 -->
<g id="Node000005" class="node">
<title>Node5</title>
<g id="a_Node000005"><a xlink:href="inputtino__common_8h.html" target="_top" xlink:title="Declarations for inputtino common input handling.">
<polygon fill="white" stroke="#666666" points="396.5,-256 292.75,-256 292.75,-236 396.5,-236 396.5,-256"/>
<text text-anchor="middle" x="344.62" y="-242.5" font-family="Helvetica,sans-Serif" font-size="10.00">inputtino_common.h</text>
</a>
</g>
</g>
<!-- Node1&#45;&gt;Node5 -->
<g id="edge4_Node000001_Node000005" class="edge">
<title>Node1&#45;&gt;Node5</title>
<g id="a_edge4_Node000001_Node000005"><a xlink:title=" ">
<path fill="none" stroke="#63b8ff" d="M285.23,-291.55C296.8,-282.87 311.23,-272.04 322.97,-263.24"/>
<polygon fill="#63b8ff" stroke="#63b8ff" points="324.97,-266.12 330.87,-257.32 320.77,-260.52 324.97,-266.12"/>
</a>
</g>
</g>
<!-- Node21 -->
<g id="Node000021" class="node">
<title>Node21</title>
<g id="a_Node000021"><a xlink:href="common_8h.html" target="_top" xlink:title="Declarations for common platform specific utilities.">
<polygon fill="white" stroke="#666666" points="751.88,-200 635.38,-200 635.38,-180 751.88,-180 751.88,-200"/>
<text text-anchor="middle" x="693.62" y="-186.5" font-family="Helvetica,sans-Serif" font-size="10.00">src/platform/common.h</text>
</a>
</g>
</g>
<!-- Node1&#45;&gt;Node21 -->
<g id="edge59_Node000001_Node000021" class="edge">
<title>Node1&#45;&gt;Node21</title>
<g id="a_edge59_Node000001_Node000021"><a xlink:title=" ">
<path fill="none" stroke="#63b8ff" d="M321.59,-291.6C407.51,-268.36 568.58,-224.81 647.57,-203.45"/>
<polygon fill="#63b8ff" stroke="#63b8ff" points="648.41,-206.85 657.15,-200.86 646.58,-200.1 648.41,-206.85"/>
</a>
</g>
</g>
<!-- Node5&#45;&gt;Node2 -->
<g id="edge5_Node000005_Node000002" class="edge">
<title>Node5&#45;&gt;Node2</title>
<g id="a_edge5_Node000005_Node000002"><a xlink:title=" ">
<path fill="none" stroke="#63b8ff" d="M292.54,-235.66C238.5,-225.96 154.32,-210.86 99.07,-200.95"/>
<polygon fill="#63b8ff" stroke="#63b8ff" points="99.69,-197.5 89.23,-199.18 98.46,-204.39 99.69,-197.5"/>
</a>
</g>
</g>
<!-- Node5&#45;&gt;Node3 -->
<g id="edge6_Node000005_Node000003" class="edge">
<title>Node5&#45;&gt;Node3</title>
<g id="a_edge6_Node000005_Node000003"><a xlink:title=" ">
<path fill="none" stroke="#63b8ff" d="M311.18,-235.59C279.58,-226.71 231.95,-213.31 197.14,-203.52"/>
<polygon fill="#63b8ff" stroke="#63b8ff" points="198.36,-200.23 187.79,-200.89 196.47,-206.97 198.36,-200.23"/>
</a>
</g>
</g>
<!-- Node5&#45;&gt;Node4 -->
<g id="edge7_Node000005_Node000004" class="edge">
<title>Node5&#45;&gt;Node4</title>
<g id="a_edge7_Node000005_Node000004"><a xlink:title=" ">
<path fill="none" stroke="#63b8ff" d="M331.21,-235.59C320.02,-227.74 303.81,-216.38 290.57,-207.09"/>
<polygon fill="#63b8ff" stroke="#63b8ff" points="292.58,-204.22 282.38,-201.35 288.56,-209.96 292.58,-204.22"/>
</a>
</g>
</g>
<!-- Node6 -->
<g id="Node000006" class="node">
<title>Node6</title>
<g id="a_Node000006"><a xlink:href="config_8h.html" target="_top" xlink:title="Declarations for the configuration of Sunshine.">
<polygon fill="white" stroke="#666666" points="560.12,-76 493.12,-76 493.12,-56 560.12,-56 560.12,-76"/>
<text text-anchor="middle" x="526.62" y="-62.5" font-family="Helvetica,sans-Serif" font-size="10.00">src/config.h</text>
</a>
</g>
</g>
<!-- Node5&#45;&gt;Node6 -->
<g id="edge8_Node000005_Node000006" class="edge">
<title>Node5&#45;&gt;Node6</title>
<g id="a_edge8_Node000005_Node000006"><a xlink:title=" ">
<path fill="none" stroke="#63b8ff" d="M352.18,-235.78C370.73,-213.42 420.39,-154.96 467.62,-112 478.98,-101.68 492.54,-91.22 503.79,-82.98"/>
<polygon fill="#63b8ff" stroke="#63b8ff" points="505.67,-85.94 511.75,-77.27 501.59,-80.26 505.67,-85.94"/>
</a>
</g>
</g>
<!-- Node14 -->
<g id="Node000014" class="node">
<title>Node14</title>
<g id="a_Node000014"><a xlink:href="logging_8h.html" target="_top" xlink:title="Declarations for logging related functions.">
<polygon fill="white" stroke="#666666" points="354.38,-138 282.88,-138 282.88,-118 354.38,-118 354.38,-138"/>
<text text-anchor="middle" x="318.62" y="-124.5" font-family="Helvetica,sans-Serif" font-size="10.00">src/logging.h</text>
</a>
</g>
</g>
<!-- Node5&#45;&gt;Node14 -->
<g id="edge16_Node000005_Node000014" class="edge">
<title>Node5&#45;&gt;Node14</title>
<g id="a_edge16_Node000005_Node000014"><a xlink:title=" ">
<path fill="none" stroke="#63b8ff" d="M342.5,-235.51C338.31,-216.81 328.9,-174.82 323.22,-149.51"/>
<polygon fill="#63b8ff" stroke="#63b8ff" points="326.64,-148.77 321.04,-139.78 319.81,-150.3 326.64,-148.77"/>
</a>
</g>
</g>
<!-- Node5&#45;&gt;Node21 -->
<g id="edge25_Node000005_Node000021" class="edge">
<title>Node5&#45;&gt;Node21</title>
<g id="a_edge25_Node000005_Node000021"><a xlink:title=" ">
<path fill="none" stroke="#63b8ff" d="M396.87,-236.92C457.18,-227.58 556.64,-212.2 623.61,-201.83"/>
<polygon fill="#63b8ff" stroke="#63b8ff" points="624.05,-205.31 633.39,-200.32 622.97,-198.39 624.05,-205.31"/>
</a>
</g>
</g>
<!-- Node30 -->
<g id="Node000030" class="node">
<title>Node30</title>
<g id="a_Node000030"><a xlink:href="utility_8h.html" target="_top" xlink:title="Declarations for utility functions.">
<polygon fill="white" stroke="#666666" points="1065,-76 1018.25,-76 1018.25,-56 1065,-56 1065,-76"/>
<text text-anchor="middle" x="1041.62" y="-62.5" font-family="Helvetica,sans-Serif" font-size="10.00">utility.h</text>
</a>
</g>
</g>
<!-- Node5&#45;&gt;Node30 -->
<g id="edge58_Node000005_Node000030" class="edge">
<title>Node5&#45;&gt;Node30</title>
<g id="a_edge58_Node000005_Node000030"><a xlink:title=" ">
<path fill="none" stroke="#63b8ff" d="M396.79,-241.48C552.26,-230.44 1004.3,-194.24 1045.62,-144 1058.61,-128.21 1054.68,-103.85 1049.39,-86.77"/>
<polygon fill="#63b8ff" stroke="#63b8ff" points="1052.83,-86 1046.21,-77.73 1046.23,-88.32 1052.83,-86"/>
</a>
</g>
</g>
<!-- Node7 -->
<g id="Node000007" class="node">
<title>Node7</title>
<g id="a_Node000007"><a xlink:title=" ">
<polygon fill="#e0e0e0" stroke="#999999" points="627.62,-20 587.62,-20 587.62,0 627.62,0 627.62,-20"/>
<text text-anchor="middle" x="607.62" y="-6.5" font-family="Helvetica,sans-Serif" font-size="10.00">bitset</text>
</a>
</g>
</g>
<!-- Node6&#45;&gt;Node7 -->
<g id="edge9_Node000006_Node000007" class="edge">
<title>Node6&#45;&gt;Node7</title>
<g id="a_edge9_Node000006_Node000007"><a xlink:title=" ">
<path fill="none" stroke="#63b8ff" d="M540.73,-55.59C552.62,-47.67 569.89,-36.16 583.9,-26.82"/>
<polygon fill="#63b8ff" stroke="#63b8ff" points="585.77,-29.78 592.15,-21.32 581.88,-23.95 585.77,-29.78"/>
</a>
</g>
</g>
<!-- Node8 -->
<g id="Node000008" class="node">
<title>Node8</title>
<g id="a_Node000008"><a xlink:title=" ">
<polygon fill="#e0e0e0" stroke="#999999" points="340.25,-20 295,-20 295,0 340.25,0 340.25,-20"/>
<text text-anchor="middle" x="317.62" y="-6.5" font-family="Helvetica,sans-Serif" font-size="10.00">chrono</text>
</a>
</g>
</g>
<!-- Node6&#45;&gt;Node8 -->
<g id="edge10_Node000006_Node000008" class="edge">
<title>Node6&#45;&gt;Node8</title>
<g id="a_edge10_Node000006_Node000008"><a xlink:title=" ">
<path fill="none" stroke="#63b8ff" d="M492.74,-56.81C459.1,-48.59 405.81,-35.36 351.49,-20.72"/>
<polygon fill="#63b8ff" stroke="#63b8ff" points="352.65,-17.41 342.08,-18.17 350.82,-24.16 352.65,-17.41"/>
</a>
</g>
</g>
<!-- Node9 -->
<g id="Node000009" class="node">
<title>Node9</title>
<g id="a_Node000009"><a xlink:title=" ">
<polygon fill="#e0e0e0" stroke="#999999" points="815.5,-20 765.75,-20 765.75,0 815.5,0 815.5,-20"/>
<text text-anchor="middle" x="790.62" y="-6.5" font-family="Helvetica,sans-Serif" font-size="10.00">optional</text>
</a>
</g>
</g>
<!-- Node6&#45;&gt;Node9 -->
<g id="edge11_Node000006_Node000009" class="edge">
<title>Node6&#45;&gt;Node9</title>
<g id="a_edge11_Node000006_Node000009"><a xlink:title=" ">
<path fill="none" stroke="#63b8ff" d="M560.29,-59.13C603.13,-51.5 679.63,-37.36 754.4,-20.39"/>
<polygon fill="#63b8ff" stroke="#63b8ff" points="754.98,-23.85 763.94,-18.21 753.42,-17.03 754.98,-23.85"/>
</a>
</g>
</g>
<!-- Node10 -->
<g id="Node000010" class="node">
<title>Node10</title>
<g id="a_Node000010"><a xlink:title=" ">
<polygon fill="#e0e0e0" stroke="#999999" points="747.62,-20 707.62,-20 707.62,0 747.62,0 747.62,-20"/>
<text text-anchor="middle" x="727.62" y="-6.5" font-family="Helvetica,sans-Serif" font-size="10.00">string</text>
</a>
</g>
</g>
<!-- Node6&#45;&gt;Node10 -->
<g id="edge12_Node000006_Node000010" class="edge">
<title>Node6&#45;&gt;Node10</title>
<g id="a_edge12_Node000006_Node000010"><a xlink:title=" ">
<path fill="none" stroke="#63b8ff" d="M560.36,-56.65C592.89,-48.5 643.75,-35.47 696.46,-20.53"/>
<polygon fill="#63b8ff" stroke="#63b8ff" points="697.27,-23.94 705.92,-17.83 695.35,-17.21 697.27,-23.94"/>
</a>
</g>
</g>
<!-- Node11 -->
<g id="Node000011" class="node">
<title>Node11</title>
<g id="a_Node000011"><a xlink:title=" ">
<polygon fill="#e0e0e0" stroke="#999999" points="570,-20 487.25,-20 487.25,0 570,0 570,-20"/>
<text text-anchor="middle" x="528.62" y="-6.5" font-family="Helvetica,sans-Serif" font-size="10.00">unordered_map</text>
</a>
</g>
</g>
<!-- Node6&#45;&gt;Node11 -->
<g id="edge13_Node000006_Node000011" class="edge">
<title>Node6&#45;&gt;Node11</title>
<g id="a_edge13_Node000006_Node000011"><a xlink:title=" ">
<path fill="none" stroke="#63b8ff" d="M526.97,-55.59C527.22,-49.01 527.55,-39.96 527.86,-31.73"/>
<polygon fill="#63b8ff" stroke="#63b8ff" points="531.35,-31.93 528.22,-21.81 524.36,-31.67 531.35,-31.93"/>
</a>
</g>
</g>
<!-- Node12 -->
<g id="Node000012" class="node">
<title>Node12</title>
<g id="a_Node000012"><a xlink:title=" ">
<polygon fill="#e0e0e0" stroke="#999999" points="689.12,-20 646.12,-20 646.12,0 689.12,0 689.12,-20"/>
<text text-anchor="middle" x="667.62" y="-6.5" font-family="Helvetica,sans-Serif" font-size="10.00">vector</text>
</a>
</g>
</g>
<!-- Node6&#45;&gt;Node12 -->
<g id="edge14_Node000006_Node000012" class="edge">
<title>Node6&#45;&gt;Node12</title>
<g id="a_edge14_Node000006_Node000012"><a xlink:title=" ">
<path fill="none" stroke="#63b8ff" d="M551.19,-55.59C574.42,-46.7 609.43,-33.29 635,-23.49"/>
<polygon fill="#63b8ff" stroke="#63b8ff" points="636.16,-26.8 644.25,-19.95 633.66,-20.26 636.16,-26.8"/>
</a>
</g>
</g>
<!-- Node13 -->
<g id="Node000013" class="node">
<title>Node13</title>
<g id="a_Node000013"><a xlink:href="nvenc__config_8h.html" target="_top" xlink:title="Declarations for NVENC encoder configuration.">
<polygon fill="white" stroke="#666666" points="469.25,-20 358,-20 358,0 469.25,0 469.25,-20"/>
<text text-anchor="middle" x="413.62" y="-6.5" font-family="Helvetica,sans-Serif" font-size="10.00">nvenc/nvenc_config.h</text>
</a>
</g>
</g>
<!-- Node6&#45;&gt;Node13 -->
<g id="edge15_Node000006_Node000013" class="edge">
<title>Node6&#45;&gt;Node13</title>
<g id="a_edge15_Node000006_Node000013"><a xlink:title=" ">
<path fill="none" stroke="#63b8ff" d="M506.94,-55.59C489.47,-47.24 463.67,-34.92 443.63,-25.34"/>
<polygon fill="#63b8ff" stroke="#63b8ff" points="445.36,-22.29 434.83,-21.13 442.34,-28.6 445.36,-22.29"/>
</a>
</g>
</g>
<!-- Node14&#45;&gt;Node6 -->
<g id="edge19_Node000014_Node000006" class="edge">
<title>Node14&#45;&gt;Node6</title>
<g id="a_edge19_Node000014_Node000006"><a xlink:title=" ">
<path fill="none" stroke="#63b8ff" d="M349.81,-117.57C356.04,-115.71 362.54,-113.78 368.62,-112 406.95,-100.79 450.61,-88.39 482.3,-79.44"/>
<polygon fill="#63b8ff" stroke="#63b8ff" points="482.86,-82.92 491.53,-76.84 480.96,-76.19 482.86,-82.92"/>
</a>
</g>
</g>
<!-- Node15 -->
<g id="Node000015" class="node">
<title>Node15</title>
<g id="a_Node000015"><a xlink:title=" ">
<polygon fill="#e0e0e0" stroke="#999999" points="274.12,-76 159.12,-76 159.12,-56 274.12,-56 274.12,-76"/>
<text text-anchor="middle" x="216.62" y="-62.5" font-family="Helvetica,sans-Serif" font-size="10.00">boost/log/common.hpp</text>
</a>
</g>
</g>
<!-- Node14&#45;&gt;Node15 -->
<g id="edge17_Node000014_Node000015" class="edge">
<title>Node14&#45;&gt;Node15</title>
<g id="a_edge17_Node000014_Node000015"><a xlink:title=" ">
<path fill="none" stroke="#63b8ff" d="M302.69,-117.62C286.52,-108.11 261.24,-93.24 242.25,-82.08"/>
<polygon fill="#63b8ff" stroke="#63b8ff" points="244.15,-79.13 233.76,-77.08 240.6,-85.16 244.15,-79.13"/>
</a>
</g>
</g>
<!-- Node16 -->
<g id="Node000016" class="node">
<title>Node16</title>
<g id="a_Node000016"><a xlink:title=" ">
<polygon fill="#e0e0e0" stroke="#999999" points="393,-76 292.25,-76 292.25,-56 393,-56 393,-76"/>
<text text-anchor="middle" x="342.62" y="-62.5" font-family="Helvetica,sans-Serif" font-size="10.00">boost/log/sinks.hpp</text>
</a>
</g>
</g>
<!-- Node14&#45;&gt;Node16 -->
<g id="edge18_Node000014_Node000016" class="edge">
<title>Node14&#45;&gt;Node16</title>
<g id="a_edge18_Node000014_Node000016"><a xlink:title=" ">
<path fill="none" stroke="#63b8ff" d="M322.38,-117.62C325.67,-109.39 330.57,-97.13 334.73,-86.74"/>
<polygon fill="#63b8ff" stroke="#63b8ff" points="337.95,-88.1 338.42,-77.52 331.45,-85.5 337.95,-88.1"/>
</a>
</g>
</g>
<!-- Node17 -->
<g id="Node000017" class="node">
<title>Node17</title>
<g id="a_Node000017"><a xlink:href="stat__trackers_8h.html" target="_top" xlink:title="Declarations for streaming statistic tracking.">
<polygon fill="white" stroke="#666666" points="141.25,-76 60,-76 60,-56 141.25,-56 141.25,-76"/>
<text text-anchor="middle" x="100.62" y="-62.5" font-family="Helvetica,sans-Serif" font-size="10.00">stat_trackers.h</text>
</a>
</g>
</g>
<!-- Node14&#45;&gt;Node17 -->
<g id="edge20_Node000014_Node000017" class="edge">
<title>Node14&#45;&gt;Node17</title>
<g id="a_edge20_Node000014_Node000017"><a xlink:title=" ">
<path fill="none" stroke="#63b8ff" d="M284.56,-117.62C247.16,-107.33 186.93,-90.75 145.65,-79.39"/>
<polygon fill="#63b8ff" stroke="#63b8ff" points="146.84,-76.09 136.27,-76.81 144.98,-82.84 146.84,-76.09"/>
</a>
</g>
</g>
<!-- Node17&#45;&gt;Node8 -->
<g id="edge21_Node000017_Node000008" class="edge">
<title>Node17&#45;&gt;Node8</title>
<g id="a_edge21_Node000017_Node000008"><a xlink:title=" ">
<path fill="none" stroke="#63b8ff" d="M141.15,-55.58C176.35,-47.3 228.97,-34.69 283.63,-20.46"/>
<polygon fill="#63b8ff" stroke="#63b8ff" points="284.33,-23.89 293.12,-17.97 282.55,-17.12 284.33,-23.89"/>
</a>
</g>
</g>
<!-- Node18 -->
<g id="Node000018" class="node">
<title>Node18</title>
<g id="a_Node000018"><a xlink:title=" ">
<polygon fill="#e0e0e0" stroke="#999999" points="276.62,-20 218.62,-20 218.62,0 276.62,0 276.62,-20"/>
<text text-anchor="middle" x="247.62" y="-6.5" font-family="Helvetica,sans-Serif" font-size="10.00">functional</text>
</a>
</g>
</g>
<!-- Node17&#45;&gt;Node18 -->
<g id="edge22_Node000017_Node000018" class="edge">
<title>Node17&#45;&gt;Node18</title>
<g id="a_edge22_Node000017_Node000018"><a xlink:title=" ">
<path fill="none" stroke="#63b8ff" d="M126.23,-55.59C149.69,-46.97 184.69,-34.12 211.09,-24.42"/>
<polygon fill="#63b8ff" stroke="#63b8ff" points="212.22,-27.73 220.4,-21 209.81,-21.16 212.22,-27.73"/>
</a>
</g>
</g>
<!-- Node19 -->
<g id="Node000019" class="node">
<title>Node19</title>
<g id="a_Node000019"><a xlink:title=" ">
<polygon fill="#e0e0e0" stroke="#999999" points="65.25,-20 26,-20 26,0 65.25,0 65.25,-20"/>
<text text-anchor="middle" x="45.62" y="-6.5" font-family="Helvetica,sans-Serif" font-size="10.00">limits</text>
</a>
</g>
</g>
<!-- Node17&#45;&gt;Node19 -->
<g id="edge23_Node000017_Node000019" class="edge">
<title>Node17&#45;&gt;Node19</title>
<g id="a_edge23_Node000017_Node000019"><a xlink:title=" ">
<path fill="none" stroke="#63b8ff" d="M91.04,-55.59C83.39,-48.08 72.47,-37.35 63.25,-28.3"/>
<polygon fill="#63b8ff" stroke="#63b8ff" points="65.76,-25.87 56.18,-21.36 60.86,-30.86 65.76,-25.87"/>
</a>
</g>
</g>
<!-- Node20 -->
<g id="Node000020" class="node">
<title>Node20</title>
<g id="a_Node000020"><a xlink:title=" ">
<polygon fill="#e0e0e0" stroke="#999999" points="172.38,-20 82.88,-20 82.88,0 172.38,0 172.38,-20"/>
<text text-anchor="middle" x="127.62" y="-6.5" font-family="Helvetica,sans-Serif" font-size="10.00">boost/format.hpp</text>
</a>
</g>
</g>
<!-- Node17&#45;&gt;Node20 -->
<g id="edge24_Node000017_Node000020" class="edge">
<title>Node17&#45;&gt;Node20</title>
<g id="a_edge24_Node000017_Node000020"><a xlink:title=" ">
<path fill="none" stroke="#63b8ff" d="M105.33,-55.59C108.77,-48.7 113.57,-39.1 117.84,-30.57"/>
<polygon fill="#63b8ff" stroke="#63b8ff" points="120.96,-32.16 122.3,-21.65 114.7,-29.03 120.96,-32.16"/>
</a>
</g>
</g>
<!-- Node21&#45;&gt;Node6 -->
<g id="edge32_Node000021_Node000006" class="edge">
<title>Node21&#45;&gt;Node6</title>
<g id="a_edge32_Node000021_Node000006"><a xlink:title=" ">
<path fill="none" stroke="#63b8ff" d="M635.03,-184.94C578,-179.63 497.14,-168 477.62,-144 468.65,-132.97 471.9,-125.02 477.62,-112 482.71,-100.42 492.41,-90.51 501.85,-82.97"/>
<polygon fill="#63b8ff" stroke="#63b8ff" points="503.81,-85.87 509.8,-77.13 499.66,-80.23 503.81,-85.87"/>
</a>
</g>
</g>
<!-- Node21&#45;&gt;Node7 -->
<g id="edge26_Node000021_Node000007" class="edge">
<title>Node21&#45;&gt;Node7</title>
<g id="a_edge26_Node000021_Node000007"><a xlink:title=" ">
<path fill="none" stroke="#63b8ff" d="M689.06,-179.7C684.6,-170.61 677.62,-156.36 671.62,-144 652.13,-103.81 629.51,-56.69 617.06,-30.71"/>
<polygon fill="#63b8ff" stroke="#63b8ff" points="620.24,-29.23 612.76,-21.73 613.92,-32.26 620.24,-29.23"/>
</a>
</g>
</g>
<!-- Node21&#45;&gt;Node10 -->
<g id="edge30_Node000021_Node000010" class="edge">
<title>Node21&#45;&gt;Node10</title>
<g id="a_edge30_Node000021_Node000010"><a xlink:title=" ">
<path fill="none" stroke="#63b8ff" d="M752.19,-184.68C808.11,-179.19 886.62,-167.46 905.62,-144 923.45,-121.99 884.95,-56.3 884.62,-56 843.57,-18.28 816.5,-34.6 758.65,-20.29"/>
<polygon fill="#63b8ff" stroke="#63b8ff" points="759.91,-17.01 749.35,-17.76 758.08,-23.76 759.91,-17.01"/>
</a>
</g>
</g>
<!-- Node21&#45;&gt;Node14 -->
<g id="edge33_Node000021_Node000014" class="edge">
<title>Node21&#45;&gt;Node14</title>
<g id="a_edge33_Node000021_Node000014"><a xlink:title=" ">
<path fill="none" stroke="#63b8ff" d="M635.05,-180.05C577.02,-171.13 485.64,-156.93 406.62,-144 393.38,-141.83 379.02,-139.41 365.82,-137.16"/>
<polygon fill="#63b8ff" stroke="#63b8ff" points="366.51,-133.73 356.06,-135.49 365.33,-140.63 366.51,-133.73"/>
</a>
</g>
</g>
<!-- Node21&#45;&gt;Node18 -->
<g id="edge28_Node000021_Node000018" class="edge">
<title>Node21&#45;&gt;Node18</title>
<g id="a_edge28_Node000021_Node000018"><a xlink:title=" ">
<path fill="none" stroke="#63b8ff" d="M635.11,-188.66C586.81,-185.86 518.24,-175.87 467.62,-144 426.25,-117.95 441.81,-83.84 401.62,-56 392.13,-49.43 330.34,-32.49 287.97,-21.37"/>
<polygon fill="#63b8ff" stroke="#63b8ff" points="288.89,-18 278.33,-18.86 287.12,-24.77 288.89,-18"/>
</a>
</g>
</g>
<!-- Node22 -->
<g id="Node000022" class="node">
<title>Node22</title>
<g id="a_Node000022"><a xlink:title=" ">
<polygon fill="#e0e0e0" stroke="#999999" points="1014.12,-138 953.12,-138 953.12,-118 1014.12,-118 1014.12,-138"/>
<text text-anchor="middle" x="983.62" y="-124.5" font-family="Helvetica,sans-Serif" font-size="10.00">filesystem</text>
</a>
</g>
</g>
<!-- Node21&#45;&gt;Node22 -->
<g id="edge27_Node000021_Node000022" class="edge">
<title>Node21&#45;&gt;Node22</title>
<g id="a_edge27_Node000021_Node000022"><a xlink:title=" ">
<path fill="none" stroke="#63b8ff" d="M752.04,-180.63C801.99,-172.91 875.59,-160.21 938.62,-144 941.35,-143.3 944.14,-142.52 946.94,-141.69"/>
<polygon fill="#63b8ff" stroke="#63b8ff" points="947.69,-145.13 956.19,-138.8 945.6,-138.45 947.69,-145.13"/>
</a>
</g>
</g>
<!-- Node23 -->
<g id="Node000023" class="node">
<title>Node23</title>
<g id="a_Node000023"><a xlink:title=" ">
<polygon fill="#e0e0e0" stroke="#999999" points="1428.12,-20 1385.12,-20 1385.12,0 1428.12,0 1428.12,-20"/>
<text text-anchor="middle" x="1406.62" y="-6.5" font-family="Helvetica,sans-Serif" font-size="10.00">mutex</text>
</a>
</g>
</g>
<!-- Node21&#45;&gt;Node23 -->
<g id="edge29_Node000021_Node000023" class="edge">
<title>Node21&#45;&gt;Node23</title>
<g id="a_edge29_Node000021_Node000023"><a xlink:title=" ">
<path fill="none" stroke="#63b8ff" d="M752.22,-188.27C873.32,-186.09 1147.1,-177.49 1233.62,-144 1300.22,-118.22 1362.54,-58.3 1390.78,-28.49"/>
<polygon fill="#63b8ff" stroke="#63b8ff" points="1393.13,-31.09 1397.38,-21.38 1388.01,-26.32 1393.13,-31.09"/>
</a>
</g>
</g>
<!-- Node24 -->
<g id="Node000024" class="node">
<title>Node24</title>
<g id="a_Node000024"><a xlink:title=" ">
<polygon fill="#e0e0e0" stroke="#999999" points="624.75,-138 486.5,-138 486.5,-118 624.75,-118 624.75,-138"/>
<text text-anchor="middle" x="555.62" y="-124.5" font-family="Helvetica,sans-Serif" font-size="10.00">boost/core/noncopyable.hpp</text>
</a>
</g>
</g>
<!-- Node21&#45;&gt;Node24 -->
<g id="edge31_Node000021_Node000024" class="edge">
<title>Node21&#45;&gt;Node24</title>
<g id="a_edge31_Node000021_Node000024"><a xlink:title=" ">
<path fill="none" stroke="#63b8ff" d="M672.06,-179.62C649.38,-169.76 613.43,-154.13 587.48,-142.85"/>
<polygon fill="#63b8ff" stroke="#63b8ff" points="588.99,-139.69 578.42,-138.91 586.2,-146.11 588.99,-139.69"/>
</a>
</g>
</g>
<!-- Node25 -->
<g id="Node000025" class="node">
<title>Node25</title>
<g id="a_Node000025"><a xlink:href="thread__safe_8h.html" target="_top" xlink:title="Declarations for thread&#45;safe data structures.">
<polygon fill="white" stroke="#666666" points="896.5,-138 804.75,-138 804.75,-118 896.5,-118 896.5,-138"/>
<text text-anchor="middle" x="850.62" y="-124.5" font-family="Helvetica,sans-Serif" font-size="10.00">src/thread_safe.h</text>
</a>
</g>
</g>
<!-- Node21&#45;&gt;Node25 -->
<g id="edge34_Node000021_Node000025" class="edge">
<title>Node21&#45;&gt;Node25</title>
<g id="a_edge34_Node000021_Node000025"><a xlink:title=" ">
<path fill="none" stroke="#63b8ff" d="M718.16,-179.62C744.23,-169.66 785.71,-153.81 815.3,-142.5"/>
<polygon fill="#63b8ff" stroke="#63b8ff" points="816.5,-145.79 824.59,-138.95 814,-139.25 816.5,-145.79"/>
</a>
</g>
</g>
<!-- Node21&#45;&gt;Node30 -->
<g id="edge54_Node000021_Node000030" class="edge">
<title>Node21&#45;&gt;Node30</title>
<g id="a_edge54_Node000021_Node000030"><a xlink:title=" ">
<path fill="none" stroke="#63b8ff" d="M752.04,-188.74C835.98,-187.13 984.92,-179.22 1023.62,-144 1039.07,-129.95 1042.51,-105.42 1042.77,-87.82"/>
<polygon fill="#63b8ff" stroke="#63b8ff" points="1046.27,-87.91 1042.55,-77.99 1039.27,-88.06 1046.27,-87.91"/>
</a>
</g>
</g>
<!-- Node37 -->
<g id="Node000037" class="node">
<title>Node37</title>
<g id="a_Node000037"><a xlink:href="video__colorspace_8h.html" target="_top" xlink:title="Declarations for colorspace functions.">
<polygon fill="white" stroke="#666666" points="1224.88,-138 1108.38,-138 1108.38,-118 1224.88,-118 1224.88,-138"/>
<text text-anchor="middle" x="1166.62" y="-124.5" font-family="Helvetica,sans-Serif" font-size="10.00">src/video_colorspace.h</text>
</a>
</g>
</g>
<!-- Node21&#45;&gt;Node37 -->
<g id="edge55_Node000021_Node000037" class="edge">
<title>Node21&#45;&gt;Node37</title>
<g id="a_edge55_Node000021_Node000037"><a xlink:title=" ">
<path fill="none" stroke="#63b8ff" d="M752.12,-181.97C823.89,-173.3 949.26,-157.97 1056.62,-144 1069.69,-142.3 1083.62,-140.44 1097.02,-138.62"/>
<polygon fill="#63b8ff" stroke="#63b8ff" points="1097.19,-142.13 1106.63,-137.32 1096.25,-135.2 1097.19,-142.13"/>
</a>
</g>
</g>
<!-- Node39 -->
<g id="Node000039" class="node">
<title>Node39</title>
<g id="a_Node000039"><a xlink:title=" ">
<polygon fill="#e0e0e0" stroke="#999999" points="787,-144 680.25,-144 680.25,-112 787,-112 787,-144"/>
<text text-anchor="start" x="688.25" y="-130.5" font-family="Helvetica,sans-Serif" font-size="10.00">moonlight&#45;common&#45;c</text>
<text text-anchor="middle" x="733.62" y="-118.5" font-family="Helvetica,sans-Serif" font-size="10.00">/src/Limelight.h</text>
</a>
</g>
</g>
<!-- Node21&#45;&gt;Node39 -->
<g id="edge57_Node000021_Node000039" class="edge">
<title>Node21&#45;&gt;Node39</title>
<g id="a_edge57_Node000021_Node000039"><a xlink:title=" ">
<path fill="none" stroke="#63b8ff" d="M699.88,-179.62C704.52,-172.65 711.09,-162.8 717.2,-153.64"/>
<polygon fill="#63b8ff" stroke="#63b8ff" points="720.06,-155.66 722.69,-145.4 714.23,-151.78 720.06,-155.66"/>
</a>
</g>
</g>
<!-- Node25&#45;&gt;Node12 -->
<g id="edge41_Node000025_Node000012" class="edge">
<title>Node25&#45;&gt;Node12</title>
<g id="a_edge41_Node000025_Node000012"><a xlink:title=" ">
<path fill="none" stroke="#63b8ff" d="M857.38,-117.61C867.1,-102.88 882.3,-74.13 867.62,-56 821.48,1.01 777.26,-35.11 700.62,-20.07"/>
<polygon fill="#63b8ff" stroke="#63b8ff" points="701.59,-16.7 691.06,-17.92 700.05,-23.53 701.59,-16.7"/>
</a>
</g>
</g>
<!-- Node25&#45;&gt;Node18 -->
<g id="edge38_Node000025_Node000018" class="edge">
<title>Node25&#45;&gt;Node18</title>
<g id="a_edge38_Node000025_Node000018"><a xlink:title=" ">
<path fill="none" stroke="#63b8ff" d="M819.12,-117.53C811.48,-115.48 803.3,-113.48 795.62,-112 659,-85.62 619.52,-110.14 484.62,-76 461.42,-70.13 457.43,-63.26 434.62,-56 427.58,-53.76 340.87,-33.1 288.04,-20.57"/>
<polygon fill="#63b8ff" stroke="#63b8ff" points="289.01,-17.2 278.47,-18.3 287.39,-24.01 289.01,-17.2"/>
</a>
</g>
</g>
<!-- Node25&#45;&gt;Node23 -->
<g id="edge40_Node000025_Node000023" class="edge">
<title>Node25&#45;&gt;Node23</title>
<g id="a_edge40_Node000025_Node000023"><a xlink:title=" ">
<path fill="none" stroke="#63b8ff" d="M896.81,-119.76C942.56,-111.82 1014.18,-97.31 1073.62,-76 1092.34,-69.29 1094.64,-61.87 1113.62,-56 1222.93,-22.21 1259.14,-43.63 1373.8,-20.3"/>
<polygon fill="#63b8ff" stroke="#63b8ff" points="1374.23,-23.79 1383.29,-18.3 1372.78,-16.94 1374.23,-23.79"/>
</a>
</g>
</g>
<!-- Node26 -->
<g id="Node000026" class="node">
<title>Node26</title>
<g id="a_Node000026"><a xlink:title=" ">
<polygon fill="#e0e0e0" stroke="#999999" points="742.5,-76 704.75,-76 704.75,-56 742.5,-56 742.5,-76"/>
<text text-anchor="middle" x="723.62" y="-62.5" font-family="Helvetica,sans-Serif" font-size="10.00">array</text>
</a>
</g>
</g>
<!-- Node25&#45;&gt;Node26 -->
<g id="edge35_Node000025_Node000026" class="edge">
<title>Node25&#45;&gt;Node26</title>
<g id="a_edge35_Node000025_Node000026"><a xlink:title=" ">
<path fill="none" stroke="#63b8ff" d="M830.78,-117.62C809.97,-107.79 777.03,-92.23 753.17,-80.96"/>
<polygon fill="#63b8ff" stroke="#63b8ff" points="754.82,-77.87 744.28,-76.76 751.83,-84.2 754.82,-77.87"/>
</a>
</g>
</g>
<!-- Node27 -->
<g id="Node000027" class="node">
<title>Node27</title>
<g id="a_Node000027"><a xlink:title=" ">
<polygon fill="#e0e0e0" stroke="#999999" points="806.25,-76 761,-76 761,-56 806.25,-56 806.25,-76"/>
<text text-anchor="middle" x="783.62" y="-62.5" font-family="Helvetica,sans-Serif" font-size="10.00">atomic</text>
</a>
</g>
</g>
<!-- Node25&#45;&gt;Node27 -->
<g id="edge36_Node000025_Node000027" class="edge">
<title>Node25&#45;&gt;Node27</title>
<g id="a_edge36_Node000025_Node000027"><a xlink:title=" ">
<path fill="none" stroke="#63b8ff" d="M840.16,-117.62C830.07,-108.59 814.58,-94.72 802.36,-83.78"/>
<polygon fill="#63b8ff" stroke="#63b8ff" points="804.71,-81.19 794.93,-77.12 800.04,-86.4 804.71,-81.19"/>
</a>
</g>
</g>
<!-- Node28 -->
<g id="Node000028" class="node">
<title>Node28</title>
<g id="a_Node000028"><a xlink:title=" ">
<polygon fill="#e0e0e0" stroke="#999999" points="927.62,-20 833.62,-20 833.62,0 927.62,0 927.62,-20"/>
<text text-anchor="middle" x="880.62" y="-6.5" font-family="Helvetica,sans-Serif" font-size="10.00">condition_variable</text>
</a>
</g>
</g>
<!-- Node25&#45;&gt;Node28 -->
<g id="edge37_Node000025_Node000028" class="edge">
<title>Node25&#45;&gt;Node28</title>
<g id="a_edge37_Node000025_Node000028"><a xlink:title=" ">
<path fill="none" stroke="#63b8ff" d="M864.67,-117.58C876.78,-108.54 893.4,-93.68 900.62,-76 906.76,-60.97 900.54,-43.33 893.46,-30.23"/>
<polygon fill="#63b8ff" stroke="#63b8ff" points="896.5,-28.5 888.35,-21.74 890.51,-32.11 896.5,-28.5"/>
</a>
</g>
</g>
<!-- Node29 -->
<g id="Node000029" class="node">
<title>Node29</title>
<g id="a_Node000029"><a xlink:title=" ">
<polygon fill="#e0e0e0" stroke="#999999" points="859,-76 824.25,-76 824.25,-56 859,-56 859,-76"/>
<text text-anchor="middle" x="841.62" y="-62.5" font-family="Helvetica,sans-Serif" font-size="10.00">map</text>
</a>
</g>
</g>
<!-- Node25&#45;&gt;Node29 -->
<g id="edge39_Node000025_Node000029" class="edge">
<title>Node25&#45;&gt;Node29</title>
<g id="a_edge39_Node000025_Node000029"><a xlink:title=" ">
<path fill="none" stroke="#63b8ff" d="M849.22,-117.62C848.01,-109.56 846.22,-97.65 844.69,-87.41"/>
<polygon fill="#63b8ff" stroke="#63b8ff" points="848.16,-86.98 843.22,-77.61 841.24,-88.02 848.16,-86.98"/>
</a>
</g>
</g>
<!-- Node25&#45;&gt;Node30 -->
<g id="edge42_Node000025_Node000030" class="edge">
<title>Node25&#45;&gt;Node30</title>
<g id="a_edge42_Node000025_Node000030"><a xlink:title=" ">
<path fill="none" stroke="#63b8ff" d="M880.47,-117.62C914.74,-106.86 970.88,-89.22 1007.03,-77.87"/>
<polygon fill="#63b8ff" stroke="#63b8ff" points="1008.08,-81.21 1016.57,-74.87 1005.98,-74.53 1008.08,-81.21"/>
</a>
</g>
</g>
<!-- Node30&#45;&gt;Node9 -->
<g id="edge47_Node000030_Node000009" class="edge">
<title>Node30&#45;&gt;Node9</title>
<g id="a_edge47_Node000030_Node000009"><a xlink:title=" ">
<path fill="none" stroke="#63b8ff" d="M1017.77,-60.49C979.59,-53.19 902.17,-37.99 826.92,-20.44"/>
<polygon fill="#63b8ff" stroke="#63b8ff" points="827.85,-17.06 817.31,-18.18 826.24,-23.88 827.85,-17.06"/>
</a>
</g>
</g>
<!-- Node30&#45;&gt;Node10 -->
<g id="edge49_Node000030_Node000010" class="edge">
<title>Node30&#45;&gt;Node10</title>
<g id="a_edge49_Node000030_Node000010"><a xlink:title=" ">
<path fill="none" stroke="#63b8ff" d="M1017.76,-62.41C970.24,-57.01 860.34,-43.28 759.14,-20.31"/>
<polygon fill="#63b8ff" stroke="#63b8ff" points="760.13,-16.94 749.59,-18.1 758.55,-23.76 760.13,-16.94"/>
</a>
</g>
</g>
<!-- Node30&#45;&gt;Node12 -->
<g id="edge53_Node000030_Node000012" class="edge">
<title>Node30&#45;&gt;Node12</title>
<g id="a_edge53_Node000030_Node000012"><a xlink:title=" ">
<path fill="none" stroke="#63b8ff" d="M1018.13,-63.16C963.86,-58.64 825.5,-45.64 700.44,-20.08"/>
<polygon fill="#63b8ff" stroke="#63b8ff" points="701.52,-16.73 691.02,-18.12 700.1,-23.58 701.52,-16.73"/>
</a>
</g>
</g>
<!-- Node30&#45;&gt;Node23 -->
<g id="edge46_Node000030_Node000023" class="edge">
<title>Node30&#45;&gt;Node23</title>
<g id="a_edge46_Node000030_Node000023"><a xlink:title=" ">
<path fill="none" stroke="#63b8ff" d="M1065.47,-59.08C1070.46,-57.96 1075.7,-56.87 1080.62,-56 1207.58,-33.7 1244.88,-46.4 1373.7,-20.32"/>
<polygon fill="#63b8ff" stroke="#63b8ff" points="1374.22,-23.78 1383.3,-18.33 1372.8,-16.93 1374.22,-23.78"/>
</a>
</g>
</g>
<!-- Node30&#45;&gt;Node28 -->
<g id="edge44_Node000030_Node000028" class="edge">
<title>Node30&#45;&gt;Node28</title>
<g id="a_edge44_Node000030_Node000028"><a xlink:title=" ">
<path fill="none" stroke="#63b8ff" d="M1017.87,-57.03C992,-48.36 950.24,-34.35 919.57,-24.06"/>
<polygon fill="#63b8ff" stroke="#63b8ff" points="920.85,-20.8 910.25,-20.94 918.62,-27.44 920.85,-20.8"/>
</a>
</g>
</g>
<!-- Node31 -->
<g id="Node000031" class="node">
<title>Node31</title>
<g id="a_Node000031"><a xlink:title=" ">
<polygon fill="#e0e0e0" stroke="#999999" points="1367.5,-20 1311.75,-20 1311.75,0 1367.5,0 1367.5,-20"/>
<text text-anchor="middle" x="1339.62" y="-6.5" font-family="Helvetica,sans-Serif" font-size="10.00">algorithm</text>
</a>
</g>
</g>
<!-- Node30&#45;&gt;Node31 -->
<g id="edge43_Node000030_Node000031" class="edge">
<title>Node30&#45;&gt;Node31</title>
<g id="a_edge43_Node000030_Node000031"><a xlink:title=" ">
<path fill="none" stroke="#63b8ff" d="M1065.5,-59.23C1070.48,-58.1 1075.72,-56.96 1080.62,-56 1175.17,-37.45 1202.69,-39.63 1300.13,-20.37"/>
<polygon fill="#63b8ff" stroke="#63b8ff" points="1300.79,-23.8 1309.91,-18.4 1299.42,-16.94 1300.79,-23.8"/>
</a>
</g>
</g>
<!-- Node32 -->
<g id="Node000032" class="node">
<title>Node32</title>
<g id="a_Node000032"><a xlink:title=" ">
<polygon fill="#e0e0e0" stroke="#999999" points="997.25,-20 946,-20 946,0 997.25,0 997.25,-20"/>
<text text-anchor="middle" x="971.62" y="-6.5" font-family="Helvetica,sans-Serif" font-size="10.00">memory</text>
</a>
</g>
</g>
<!-- Node30&#45;&gt;Node32 -->
<g id="edge45_Node000030_Node000032" class="edge">
<title>Node30&#45;&gt;Node32</title>
<g id="a_edge45_Node000030_Node000032"><a xlink:title=" ">
<path fill="none" stroke="#63b8ff" d="M1029.43,-55.59C1019.29,-47.77 1004.63,-36.46 992.61,-27.19"/>
<polygon fill="#63b8ff" stroke="#63b8ff" points="994.93,-24.56 984.88,-21.22 990.66,-30.1 994.93,-24.56"/>
</a>
</g>
</g>
<!-- Node33 -->
<g id="Node000033" class="node">
<title>Node33</title>
<g id="a_Node000033"><a xlink:title=" ">
<polygon fill="#e0e0e0" stroke="#999999" points="1066.25,-20 1015,-20 1015,0 1066.25,0 1066.25,-20"/>
<text text-anchor="middle" x="1040.62" y="-6.5" font-family="Helvetica,sans-Serif" font-size="10.00">ostream</text>
</a>
</g>
</g>
<!-- Node30&#45;&gt;Node33 -->
<g id="edge48_Node000030_Node000033" class="edge">
<title>Node30&#45;&gt;Node33</title>
<g id="a_edge48_Node000030_Node000033"><a xlink:title=" ">
<path fill="none" stroke="#63b8ff" d="M1041.45,-55.59C1041.33,-49.01 1041.16,-39.96 1041.01,-31.73"/>
<polygon fill="#63b8ff" stroke="#63b8ff" points="1044.51,-31.75 1040.83,-21.81 1037.51,-31.87 1044.51,-31.75"/>
</a>
</g>
</g>
<!-- Node34 -->
<g id="Node000034" class="node">
<title>Node34</title>
<g id="a_Node000034"><a xlink:title=" ">
<polygon fill="#e0e0e0" stroke="#999999" points="1149.38,-20 1083.88,-20 1083.88,0 1149.38,0 1149.38,-20"/>
<text text-anchor="middle" x="1116.62" y="-6.5" font-family="Helvetica,sans-Serif" font-size="10.00">string_view</text>
</a>
</g>
</g>
<!-- Node30&#45;&gt;Node34 -->
<g id="edge50_Node000030_Node000034" class="edge">
<title>Node30&#45;&gt;Node34</title>
<g id="a_edge50_Node000030_Node000034"><a xlink:title=" ">
<path fill="none" stroke="#63b8ff" d="M1054.69,-55.59C1065.59,-47.74 1081.38,-36.38 1094.28,-27.09"/>
<polygon fill="#63b8ff" stroke="#63b8ff" points="1096.16,-30.05 1102.23,-21.36 1092.07,-24.37 1096.16,-30.05"/>
</a>
</g>
</g>
<!-- Node35 -->
<g id="Node000035" class="node">
<title>Node35</title>
<g id="a_Node000035"><a xlink:title=" ">
<polygon fill="#e0e0e0" stroke="#999999" points="1229.5,-20 1167.75,-20 1167.75,0 1229.5,0 1229.5,-20"/>
<text text-anchor="middle" x="1198.62" y="-6.5" font-family="Helvetica,sans-Serif" font-size="10.00">type_traits</text>
</a>
</g>
</g>
<!-- Node30&#45;&gt;Node35 -->
<g id="edge51_Node000030_Node000035" class="edge">
<title>Node30&#45;&gt;Node35</title>
<g id="a_edge51_Node000030_Node000035"><a xlink:title=" ">
<path fill="none" stroke="#63b8ff" d="M1065.47,-56.8C1090.65,-48.14 1130.72,-34.36 1160.33,-24.17"/>
<polygon fill="#63b8ff" stroke="#63b8ff" points="1161.36,-27.52 1169.68,-20.95 1159.09,-20.9 1161.36,-27.52"/>
</a>
</g>
</g>
<!-- Node36 -->
<g id="Node000036" class="node">
<title>Node36</title>
<g id="a_Node000036"><a xlink:title=" ">
<polygon fill="#e0e0e0" stroke="#999999" points="1293.25,-20 1248,-20 1248,0 1293.25,0 1293.25,-20"/>
<text text-anchor="middle" x="1270.62" y="-6.5" font-family="Helvetica,sans-Serif" font-size="10.00">variant</text>
</a>
</g>
</g>
<!-- Node30&#45;&gt;Node36 -->
<g id="edge52_Node000030_Node000036" class="edge">
<title>Node30&#45;&gt;Node36</title>
<g id="a_edge52_Node000030_Node000036"><a xlink:title=" ">
<path fill="none" stroke="#63b8ff" d="M1065.13,-59.56C1070.24,-58.39 1075.61,-57.15 1080.62,-56 1147.4,-40.69 1166.94,-38 1236.47,-20.45"/>
<polygon fill="#63b8ff" stroke="#63b8ff" points="1237.29,-23.85 1246.12,-18 1235.57,-17.07 1237.29,-23.85"/>
</a>
</g>
</g>
<!-- Node38 -->
<g id="Node000038" class="node">
<title>Node38</title>
<g id="a_Node000038"><a xlink:title=" ">
<polygon fill="#e0e0e0" stroke="#999999" points="1210.25,-76 1123,-76 1123,-56 1210.25,-56 1210.25,-76"/>
<text text-anchor="middle" x="1166.62" y="-62.5" font-family="Helvetica,sans-Serif" font-size="10.00">libavutil/pixfmt.h</text>
</a>
</g>
</g>
<!-- Node37&#45;&gt;Node38 -->
<g id="edge56_Node000037_Node000038" class="edge">
<title>Node37&#45;&gt;Node38</title>
<g id="a_edge56_Node000037_Node000038"><a xlink:title=" ">
<path fill="none" stroke="#63b8ff" d="M1166.62,-117.62C1166.62,-109.56 1166.62,-97.65 1166.62,-87.41"/>
<polygon fill="#63b8ff" stroke="#63b8ff" points="1170.13,-87.63 1166.63,-77.63 1163.13,-87.63 1170.13,-87.63"/>
</a>
</g>
</g>
</g>
</svg>

<g id="navigator" transform="translate(0 0)" fill="#404254">
  <rect fill="#f2f5e9" fill-opacity="0.5" stroke="#606060" stroke-width=".5" x="0" y="0" width="60" height="60"/>
  <use id="zoomplus" xlink:href="#zoomPlus" x="17" y="9" onmousedown="handleZoom(evt,'in')"/>
  <use id="zoomminus" xlink:href="#zoomMin" x="42" y="9" onmousedown="handleZoom(evt,'out')"/>
  <use id="reset" xlink:href="#resetDef" x="30" y="36" onmousedown="handleReset()"/>
   <use id="arrowup" xlink:href="#arrowUp" x="0" y="0" onmousedown="handlePan(0,-1)"/>
  <use id="arrowright" xlink:href="#arrowRight" x="0" y="0" onmousedown="handlePan(1,0)"/>
  <use id="arrowdown" xlink:href="#arrowDown" x="0" y="0" onmousedown="handlePan(0,1)"/>
  <use id="arrowleft" xlink:href="#arrowLeft" x="0" y="0" onmousedown="handlePan(-1,0)"/>
</g>
<svg viewBox="0 0 15 15" width="100%" height="30px" preserveAspectRatio="xMaxYMin meet">
 <g id="arrow_out" transform="scale(0.3 0.3)">
  <a xlink:href="inputtino__touch_8h__incl_org.svg" target="_base">
   <rect id="button" ry="5" rx="5" y="6" x="6" height="38" width="38"
        fill="#f2f5e9" fill-opacity="0.5" stroke="#606060" stroke-width="1.0"/>
   <path id="arrow"
     d="M 11.500037,31.436501 C 11.940474,20.09759 22.043105,11.32322 32.158766,21.979434 L 37.068811,17.246167 C 37.068811,17.246167 37.088388,32 37.088388,32 L 22.160133,31.978069 C 22.160133,31.978069 26.997745,27.140456 26.997745,27.140456 C 18.528582,18.264221 13.291696,25.230495 11.500037,31.436501 z"
     style="fill:#404040;"/>
  </a>
 </g>
</svg>

<style type='text/css'>
<![CDATA[
[data-mouse-over-selected='false'] { opacity: 0.7; }
[data-mouse-over-selected='true']  { opacity: 1.0; }
]]>
</style>
<script type="application/ecmascript"><![CDATA[
document.addEventListener('DOMContentLoaded', (event) => {
  highlightEdges();
  highlightAdjacentNodes();
});
]]></script>
</svg>
