<?xml version="1.0" encoding="UTF-8" standalone="no"?>
<!DOCTYPE svg PUBLIC "-//W3C//DTD SVG 1.1//EN"
 "http://www.w3.org/Graphics/SVG/1.1/DTD/svg11.dtd">
<!-- Generated by graphviz version 12.2.1 (0)
 -->
<!-- Title: src/platform/linux/input/inputtino_keyboard.cpp Pages: 1 -->
<svg width="1618pt" height="388pt"
 viewBox="0.00 0.00 1618.00 388.00" xmlns="http://www.w3.org/2000/svg" xmlns:xlink="http://www.w3.org/1999/xlink">
<g id="graph0" class="graph" transform="scale(1 1) rotate(0) translate(4 384)">
<title>src/platform/linux/input/inputtino_keyboard.cpp</title>
<!-- Node1 -->
<g id="Node000001" class="node">
<title>Node1</title>
<g id="a_Node000001"><a xlink:title="Definitions for inputtino keyboard input handling.">
<polygon fill="#999999" stroke="#666666" points="705.12,-380 561.62,-380 561.62,-348 705.12,-348 705.12,-380"/>
<text text-anchor="start" x="569.62" y="-366.5" font-family="Helvetica,sans-Serif" font-size="10.00">src/platform/linux</text>
<text text-anchor="middle" x="633.38" y="-354.5" font-family="Helvetica,sans-Serif" font-size="10.00">/input/inputtino_keyboard.cpp</text>
</a>
</g>
</g>
<!-- Node2 -->
<g id="Node000002" class="node">
<title>Node2</title>
<g id="a_Node000002"><a xlink:title=" ">
<polygon fill="#e0e0e0" stroke="#999999" points="392,-200 304.75,-200 304.75,-180 392,-180 392,-200"/>
<text text-anchor="middle" x="348.38" y="-186.5" font-family="Helvetica,sans-Serif" font-size="10.00">boost/locale.hpp</text>
</a>
</g>
</g>
<!-- Node1&#45;&gt;Node2 -->
<g id="edge1_Node000001_Node000002" class="edge">
<title>Node1&#45;&gt;Node2</title>
<g id="a_edge1_Node000001_Node000002"><a xlink:title=" ">
<path fill="none" stroke="#63b8ff" d="M561.39,-347.9C532.43,-339.9 499.54,-328.28 472.38,-312 425.93,-284.16 383.5,-235.65 362.39,-209.3"/>
<polygon fill="#63b8ff" stroke="#63b8ff" points="365.25,-207.27 356.32,-201.57 359.74,-211.59 365.25,-207.27"/>
</a>
</g>
</g>
<!-- Node3 -->
<g id="Node000003" class="node">
<title>Node3</title>
<g id="a_Node000003"><a xlink:title=" ">
<polygon fill="#e0e0e0" stroke="#999999" points="505.12,-200 409.62,-200 409.62,-180 505.12,-180 505.12,-200"/>
<text text-anchor="middle" x="457.38" y="-186.5" font-family="Helvetica,sans-Serif" font-size="10.00">inputtino/input.hpp</text>
</a>
</g>
</g>
<!-- Node1&#45;&gt;Node3 -->
<g id="edge2_Node000001_Node000003" class="edge">
<title>Node1&#45;&gt;Node3</title>
<g id="a_edge2_Node000001_Node000003"><a xlink:title=" ">
<path fill="none" stroke="#63b8ff" d="M561.34,-351.57C535.84,-344.18 508.92,-332.01 490.38,-312 464.56,-284.13 458.6,-238.06 457.43,-211.53"/>
<polygon fill="#63b8ff" stroke="#63b8ff" points="460.93,-211.67 457.2,-201.76 453.93,-211.83 460.93,-211.67"/>
</a>
</g>
</g>
<!-- Node4 -->
<g id="Node000004" class="node">
<title>Node4</title>
<g id="a_Node000004"><a xlink:title=" ">
<polygon fill="#e0e0e0" stroke="#999999" points="869.62,-200 771.12,-200 771.12,-180 869.62,-180 869.62,-200"/>
<text text-anchor="middle" x="820.38" y="-186.5" font-family="Helvetica,sans-Serif" font-size="10.00">libevdev/libevdev.h</text>
</a>
</g>
</g>
<!-- Node1&#45;&gt;Node4 -->
<g id="edge3_Node000001_Node000004" class="edge">
<title>Node1&#45;&gt;Node4</title>
<g id="a_edge3_Node000001_Node000004"><a xlink:title=" ">
<path fill="none" stroke="#63b8ff" d="M649.97,-347.74C684.91,-315.6 765.82,-241.18 802.14,-207.77"/>
<polygon fill="#63b8ff" stroke="#63b8ff" points="804.26,-210.58 809.25,-201.23 799.52,-205.43 804.26,-210.58"/>
</a>
</g>
</g>
<!-- Node5 -->
<g id="Node000005" class="node">
<title>Node5</title>
<g id="a_Node000005"><a xlink:href="inputtino__common_8h.html" target="_top" xlink:title="Declarations for inputtino common input handling.">
<polygon fill="white" stroke="#666666" points="623.25,-256 519.5,-256 519.5,-236 623.25,-236 623.25,-256"/>
<text text-anchor="middle" x="571.38" y="-242.5" font-family="Helvetica,sans-Serif" font-size="10.00">inputtino_common.h</text>
</a>
</g>
</g>
<!-- Node1&#45;&gt;Node5 -->
<g id="edge4_Node000001_Node000005" class="edge">
<title>Node1&#45;&gt;Node5</title>
<g id="a_edge4_Node000001_Node000005"><a xlink:title=" ">
<path fill="none" stroke="#63b8ff" d="M631.54,-347.76C629.24,-332.79 624.32,-309.69 614.38,-292 608.54,-281.62 599.77,-271.85 591.66,-264.07"/>
<polygon fill="#63b8ff" stroke="#63b8ff" points="594.18,-261.63 584.42,-257.51 589.48,-266.82 594.18,-261.63"/>
</a>
</g>
</g>
<!-- Node6 -->
<g id="Node000006" class="node">
<title>Node6</title>
<g id="a_Node000006"><a xlink:href="config_8h.html" target="_top" xlink:title="Declarations for the configuration of Sunshine.">
<polygon fill="white" stroke="#666666" points="670.88,-76 603.88,-76 603.88,-56 670.88,-56 670.88,-76"/>
<text text-anchor="middle" x="637.38" y="-62.5" font-family="Helvetica,sans-Serif" font-size="10.00">src/config.h</text>
</a>
</g>
</g>
<!-- Node1&#45;&gt;Node6 -->
<g id="edge64_Node000001_Node000006" class="edge">
<title>Node1&#45;&gt;Node6</title>
<g id="a_edge64_Node000001_Node000006"><a xlink:title=" ">
<path fill="none" stroke="#63b8ff" d="M695.46,-347.55C776.8,-323.53 906.07,-270.35 878.38,-180 867.68,-145.11 862.46,-132.65 832.38,-112 787.47,-81.18 724.44,-71.23 682.32,-68.15"/>
<polygon fill="#63b8ff" stroke="#63b8ff" points="682.74,-64.67 672.54,-67.55 682.3,-71.66 682.74,-64.67"/>
</a>
</g>
</g>
<!-- Node14 -->
<g id="Node000014" class="node">
<title>Node14</title>
<g id="a_Node000014"><a xlink:href="logging_8h.html" target="_top" xlink:title="Declarations for logging related functions.">
<polygon fill="white" stroke="#666666" points="312.12,-138 240.62,-138 240.62,-118 312.12,-118 312.12,-138"/>
<text text-anchor="middle" x="276.38" y="-124.5" font-family="Helvetica,sans-Serif" font-size="10.00">src/logging.h</text>
</a>
</g>
</g>
<!-- Node1&#45;&gt;Node14 -->
<g id="edge65_Node000001_Node000014" class="edge">
<title>Node1&#45;&gt;Node14</title>
<g id="a_edge65_Node000001_Node000014"><a xlink:title=" ">
<path fill="none" stroke="#63b8ff" d="M561.27,-351.08C523.91,-343.15 478.3,-330.7 440.38,-312 367.34,-275.99 340.5,-267.79 295.38,-200 285.21,-184.73 280.47,-164.22 278.27,-149.17"/>
<polygon fill="#63b8ff" stroke="#63b8ff" points="281.78,-149.07 277.13,-139.55 274.83,-149.9 281.78,-149.07"/>
</a>
</g>
</g>
<!-- Node21 -->
<g id="Node000021" class="node">
<title>Node21</title>
<g id="a_Node000021"><a xlink:href="common_8h.html" target="_top" xlink:title="Declarations for common platform specific utilities.">
<polygon fill="white" stroke="#666666" points="715.62,-200 599.12,-200 599.12,-180 715.62,-180 715.62,-200"/>
<text text-anchor="middle" x="657.38" y="-186.5" font-family="Helvetica,sans-Serif" font-size="10.00">src/platform/common.h</text>
</a>
</g>
</g>
<!-- Node1&#45;&gt;Node21 -->
<g id="edge66_Node000001_Node000021" class="edge">
<title>Node1&#45;&gt;Node21</title>
<g id="a_edge66_Node000001_Node000021"><a xlink:title=" ">
<path fill="none" stroke="#63b8ff" d="M635.5,-347.74C639.84,-316.69 649.68,-246.18 654.54,-211.31"/>
<polygon fill="#63b8ff" stroke="#63b8ff" points="657.97,-212.1 655.88,-201.71 651.03,-211.13 657.97,-212.1"/>
</a>
</g>
</g>
<!-- Node30 -->
<g id="Node000030" class="node">
<title>Node30</title>
<g id="a_Node000030"><a xlink:href="utility_8h.html" target="_top" xlink:title="Declarations for utility functions.">
<polygon fill="white" stroke="#666666" points="1267.75,-76 1221,-76 1221,-56 1267.75,-56 1267.75,-76"/>
<text text-anchor="middle" x="1244.38" y="-62.5" font-family="Helvetica,sans-Serif" font-size="10.00">utility.h</text>
</a>
</g>
</g>
<!-- Node1&#45;&gt;Node30 -->
<g id="edge67_Node000001_Node000030" class="edge">
<title>Node1&#45;&gt;Node30</title>
<g id="a_edge67_Node000001_Node000030"><a xlink:title=" ">
<path fill="none" stroke="#63b8ff" d="M705.5,-358.08C879.38,-345.26 1307.38,-307.55 1307.38,-247 1307.38,-247 1307.38,-247 1307.38,-189 1307.38,-148.12 1279.1,-107.26 1260.44,-84.74"/>
<polygon fill="#63b8ff" stroke="#63b8ff" points="1263.3,-82.7 1254.12,-77.41 1258,-87.27 1263.3,-82.7"/>
</a>
</g>
</g>
<!-- Node40 -->
<g id="Node000040" class="node">
<title>Node40</title>
<g id="a_Node000040"><a xlink:href="inputtino__keyboard_8h.html" target="_top" xlink:title="Declarations for inputtino keyboard input handling.">
<polygon fill="white" stroke="#666666" points="605.38,-312 499.38,-312 499.38,-292 605.38,-292 605.38,-312"/>
<text text-anchor="middle" x="552.38" y="-298.5" font-family="Helvetica,sans-Serif" font-size="10.00">inputtino_keyboard.h</text>
</a>
</g>
</g>
<!-- Node1&#45;&gt;Node40 -->
<g id="edge59_Node000001_Node000040" class="edge">
<title>Node1&#45;&gt;Node40</title>
<g id="a_edge59_Node000001_Node000040"><a xlink:title=" ">
<path fill="none" stroke="#63b8ff" d="M612.52,-347.55C600.8,-338.87 586.18,-328.04 574.3,-319.24"/>
<polygon fill="#63b8ff" stroke="#63b8ff" points="576.41,-316.45 566.29,-313.31 572.24,-322.07 576.41,-316.45"/>
</a>
</g>
</g>
<!-- Node5&#45;&gt;Node2 -->
<g id="edge5_Node000005_Node000002" class="edge">
<title>Node5&#45;&gt;Node2</title>
<g id="a_edge5_Node000005_Node000002"><a xlink:title=" ">
<path fill="none" stroke="#63b8ff" d="M532.28,-235.53C495.05,-226.52 438.87,-212.91 398.4,-203.11"/>
<polygon fill="#63b8ff" stroke="#63b8ff" points="399.44,-199.77 388.9,-200.81 397.8,-206.57 399.44,-199.77"/>
</a>
</g>
</g>
<!-- Node5&#45;&gt;Node3 -->
<g id="edge6_Node000005_Node000003" class="edge">
<title>Node5&#45;&gt;Node3</title>
<g id="a_edge6_Node000005_Node000003"><a xlink:title=" ">
<path fill="none" stroke="#63b8ff" d="M551.52,-235.59C533.89,-227.24 507.87,-214.92 487.65,-205.34"/>
<polygon fill="#63b8ff" stroke="#63b8ff" points="489.29,-202.25 478.76,-201.13 486.29,-208.57 489.29,-202.25"/>
</a>
</g>
</g>
<!-- Node5&#45;&gt;Node4 -->
<g id="edge7_Node000005_Node000004" class="edge">
<title>Node5&#45;&gt;Node4</title>
<g id="a_edge7_Node000005_Node000004"><a xlink:title=" ">
<path fill="none" stroke="#63b8ff" d="M615.03,-235.53C656.95,-226.44 720.41,-212.68 765.67,-202.86"/>
<polygon fill="#63b8ff" stroke="#63b8ff" points="766.26,-206.32 775.29,-200.78 764.77,-199.48 766.26,-206.32"/>
</a>
</g>
</g>
<!-- Node5&#45;&gt;Node6 -->
<g id="edge8_Node000005_Node000006" class="edge">
<title>Node5&#45;&gt;Node6</title>
<g id="a_edge8_Node000005_Node000006"><a xlink:title=" ">
<path fill="none" stroke="#63b8ff" d="M573.76,-235.64C577.09,-222.92 583.49,-199.51 590.38,-180 602.12,-146.71 618.42,-109.04 628.41,-86.69"/>
<polygon fill="#63b8ff" stroke="#63b8ff" points="631.58,-88.17 632.5,-77.62 625.2,-85.3 631.58,-88.17"/>
</a>
</g>
</g>
<!-- Node5&#45;&gt;Node14 -->
<g id="edge16_Node000005_Node000014" class="edge">
<title>Node5&#45;&gt;Node14</title>
<g id="a_edge16_Node000005_Node000014"><a xlink:title=" ">
<path fill="none" stroke="#63b8ff" d="M566.04,-235.79C557.22,-221.45 538.19,-193.98 514.38,-180 513.34,-179.39 392.71,-153.71 323.61,-139.03"/>
<polygon fill="#63b8ff" stroke="#63b8ff" points="324.57,-135.65 314.06,-137 323.12,-142.5 324.57,-135.65"/>
</a>
</g>
</g>
<!-- Node5&#45;&gt;Node21 -->
<g id="edge25_Node000005_Node000021" class="edge">
<title>Node5&#45;&gt;Node21</title>
<g id="a_edge25_Node000005_Node000021"><a xlink:title=" ">
<path fill="none" stroke="#63b8ff" d="M586.36,-235.59C599.1,-227.59 617.67,-215.93 632.62,-206.54"/>
<polygon fill="#63b8ff" stroke="#63b8ff" points="634.39,-209.57 641,-201.28 630.67,-203.64 634.39,-209.57"/>
</a>
</g>
</g>
<!-- Node5&#45;&gt;Node30 -->
<g id="edge58_Node000005_Node000030" class="edge">
<title>Node5&#45;&gt;Node30</title>
<g id="a_edge58_Node000005_Node000030"><a xlink:title=" ">
<path fill="none" stroke="#63b8ff" d="M611.42,-235.55C642.72,-227.61 687.04,-215.14 724.38,-200 742.06,-192.83 744.04,-185.28 762.38,-180 863.25,-150.95 1156.75,-215.75 1233.38,-144 1248.37,-129.96 1249.43,-105.43 1247.82,-87.82"/>
<polygon fill="#63b8ff" stroke="#63b8ff" points="1251.3,-87.44 1246.53,-77.98 1244.36,-88.35 1251.3,-87.44"/>
</a>
</g>
</g>
<!-- Node7 -->
<g id="Node000007" class="node">
<title>Node7</title>
<g id="a_Node000007"><a xlink:title=" ">
<polygon fill="#e0e0e0" stroke="#999999" points="563.38,-20 523.38,-20 523.38,0 563.38,0 563.38,-20"/>
<text text-anchor="middle" x="543.38" y="-6.5" font-family="Helvetica,sans-Serif" font-size="10.00">bitset</text>
</a>
</g>
</g>
<!-- Node6&#45;&gt;Node7 -->
<g id="edge9_Node000006_Node000007" class="edge">
<title>Node6&#45;&gt;Node7</title>
<g id="a_edge9_Node000006_Node000007"><a xlink:title=" ">
<path fill="none" stroke="#63b8ff" d="M621,-55.59C606.8,-47.44 585.99,-35.48 569.49,-26"/>
<polygon fill="#63b8ff" stroke="#63b8ff" points="571.6,-23.18 561.19,-21.23 568.12,-29.25 571.6,-23.18"/>
</a>
</g>
</g>
<!-- Node8 -->
<g id="Node000008" class="node">
<title>Node8</title>
<g id="a_Node000008"><a xlink:title=" ">
<polygon fill="#e0e0e0" stroke="#999999" points="480,-20 434.75,-20 434.75,0 480,0 480,-20"/>
<text text-anchor="middle" x="457.38" y="-6.5" font-family="Helvetica,sans-Serif" font-size="10.00">chrono</text>
</a>
</g>
</g>
<!-- Node6&#45;&gt;Node8 -->
<g id="edge10_Node000006_Node000008" class="edge">
<title>Node6&#45;&gt;Node8</title>
<g id="a_edge10_Node000006_Node000008"><a xlink:title=" ">
<path fill="none" stroke="#63b8ff" d="M606.02,-55.59C573.95,-45.97 524.27,-31.07 491.29,-21.17"/>
<polygon fill="#63b8ff" stroke="#63b8ff" points="492.41,-17.86 481.83,-18.34 490.4,-24.56 492.41,-17.86"/>
</a>
</g>
</g>
<!-- Node9 -->
<g id="Node000009" class="node">
<title>Node9</title>
<g id="a_Node000009"><a xlink:title=" ">
<polygon fill="#e0e0e0" stroke="#999999" points="996.25,-20 946.5,-20 946.5,0 996.25,0 996.25,-20"/>
<text text-anchor="middle" x="971.38" y="-6.5" font-family="Helvetica,sans-Serif" font-size="10.00">optional</text>
</a>
</g>
</g>
<!-- Node6&#45;&gt;Node9 -->
<g id="edge11_Node000006_Node000009" class="edge">
<title>Node6&#45;&gt;Node9</title>
<g id="a_edge11_Node000006_Node000009"><a xlink:title=" ">
<path fill="none" stroke="#63b8ff" d="M671.01,-61.28C724.92,-55.05 834.17,-41.25 935.22,-20.48"/>
<polygon fill="#63b8ff" stroke="#63b8ff" points="935.67,-23.97 944.74,-18.5 934.24,-17.11 935.67,-23.97"/>
</a>
</g>
</g>
<!-- Node10 -->
<g id="Node000010" class="node">
<title>Node10</title>
<g id="a_Node000010"><a xlink:title=" ">
<polygon fill="#e0e0e0" stroke="#999999" points="867.38,-20 827.38,-20 827.38,0 867.38,0 867.38,-20"/>
<text text-anchor="middle" x="847.38" y="-6.5" font-family="Helvetica,sans-Serif" font-size="10.00">string</text>
</a>
</g>
</g>
<!-- Node6&#45;&gt;Node10 -->
<g id="edge12_Node000006_Node000010" class="edge">
<title>Node6&#45;&gt;Node10</title>
<g id="a_edge12_Node000006_Node000010"><a xlink:title=" ">
<path fill="none" stroke="#63b8ff" d="M671.12,-56.32C711.04,-46.06 777,-29.1 815.91,-19.09"/>
<polygon fill="#63b8ff" stroke="#63b8ff" points="816.78,-22.48 825.59,-16.6 815.03,-15.7 816.78,-22.48"/>
</a>
</g>
</g>
<!-- Node11 -->
<g id="Node000011" class="node">
<title>Node11</title>
<g id="a_Node000011"><a xlink:title=" ">
<polygon fill="#e0e0e0" stroke="#999999" points="793.75,-20 711,-20 711,0 793.75,0 793.75,-20"/>
<text text-anchor="middle" x="752.38" y="-6.5" font-family="Helvetica,sans-Serif" font-size="10.00">unordered_map</text>
</a>
</g>
</g>
<!-- Node6&#45;&gt;Node11 -->
<g id="edge13_Node000006_Node000011" class="edge">
<title>Node6&#45;&gt;Node11</title>
<g id="a_edge13_Node000006_Node000011"><a xlink:title=" ">
<path fill="none" stroke="#63b8ff" d="M657.41,-55.59C675.19,-47.24 701.44,-34.92 721.84,-25.34"/>
<polygon fill="#63b8ff" stroke="#63b8ff" points="723.25,-28.54 730.82,-21.12 720.28,-22.21 723.25,-28.54"/>
</a>
</g>
</g>
<!-- Node12 -->
<g id="Node000012" class="node">
<title>Node12</title>
<g id="a_Node000012"><a xlink:title=" ">
<polygon fill="#e0e0e0" stroke="#999999" points="928.88,-20 885.88,-20 885.88,0 928.88,0 928.88,-20"/>
<text text-anchor="middle" x="907.38" y="-6.5" font-family="Helvetica,sans-Serif" font-size="10.00">vector</text>
</a>
</g>
</g>
<!-- Node6&#45;&gt;Node12 -->
<g id="edge14_Node000006_Node000012" class="edge">
<title>Node6&#45;&gt;Node12</title>
<g id="a_edge14_Node000006_Node000012"><a xlink:title=" ">
<path fill="none" stroke="#63b8ff" d="M671.24,-59.68C715.66,-52.48 796.23,-38.62 874.42,-20.27"/>
<polygon fill="#63b8ff" stroke="#63b8ff" points="875.04,-23.72 883.96,-18.01 873.42,-16.91 875.04,-23.72"/>
</a>
</g>
</g>
<!-- Node13 -->
<g id="Node000013" class="node">
<title>Node13</title>
<g id="a_Node000013"><a xlink:href="nvenc__config_8h.html" target="_top" xlink:title="Declarations for NVENC encoder configuration.">
<polygon fill="white" stroke="#666666" points="693,-20 581.75,-20 581.75,0 693,0 693,-20"/>
<text text-anchor="middle" x="637.38" y="-6.5" font-family="Helvetica,sans-Serif" font-size="10.00">nvenc/nvenc_config.h</text>
</a>
</g>
</g>
<!-- Node6&#45;&gt;Node13 -->
<g id="edge15_Node000006_Node000013" class="edge">
<title>Node6&#45;&gt;Node13</title>
<g id="a_edge15_Node000006_Node000013"><a xlink:title=" ">
<path fill="none" stroke="#63b8ff" d="M637.38,-55.59C637.38,-49.01 637.38,-39.96 637.38,-31.73"/>
<polygon fill="#63b8ff" stroke="#63b8ff" points="640.88,-31.81 637.38,-21.81 633.88,-31.81 640.88,-31.81"/>
</a>
</g>
</g>
<!-- Node14&#45;&gt;Node6 -->
<g id="edge19_Node000014_Node000006" class="edge">
<title>Node14&#45;&gt;Node6</title>
<g id="a_edge19_Node000014_Node000006"><a xlink:title=" ">
<path fill="none" stroke="#63b8ff" d="M312.31,-121.03C378.58,-110.01 519.9,-86.52 592.41,-74.47"/>
<polygon fill="#63b8ff" stroke="#63b8ff" points="592.65,-77.98 601.94,-72.89 591.5,-71.08 592.65,-77.98"/>
</a>
</g>
</g>
<!-- Node15 -->
<g id="Node000015" class="node">
<title>Node15</title>
<g id="a_Node000015"><a xlink:title=" ">
<polygon fill="#e0e0e0" stroke="#999999" points="332.88,-76 217.88,-76 217.88,-56 332.88,-56 332.88,-76"/>
<text text-anchor="middle" x="275.38" y="-62.5" font-family="Helvetica,sans-Serif" font-size="10.00">boost/log/common.hpp</text>
</a>
</g>
</g>
<!-- Node14&#45;&gt;Node15 -->
<g id="edge17_Node000014_Node000015" class="edge">
<title>Node14&#45;&gt;Node15</title>
<g id="a_edge17_Node000014_Node000015"><a xlink:title=" ">
<path fill="none" stroke="#63b8ff" d="M276.22,-117.62C276.08,-109.56 275.89,-97.65 275.72,-87.41"/>
<polygon fill="#63b8ff" stroke="#63b8ff" points="279.22,-87.57 275.55,-77.63 272.22,-87.68 279.22,-87.57"/>
</a>
</g>
</g>
<!-- Node16 -->
<g id="Node000016" class="node">
<title>Node16</title>
<g id="a_Node000016"><a xlink:title=" ">
<polygon fill="#e0e0e0" stroke="#999999" points="100.75,-76 0,-76 0,-56 100.75,-56 100.75,-76"/>
<text text-anchor="middle" x="50.38" y="-62.5" font-family="Helvetica,sans-Serif" font-size="10.00">boost/log/sinks.hpp</text>
</a>
</g>
</g>
<!-- Node14&#45;&gt;Node16 -->
<g id="edge18_Node000014_Node000016" class="edge">
<title>Node14&#45;&gt;Node16</title>
<g id="a_edge18_Node000014_Node000016"><a xlink:title=" ">
<path fill="none" stroke="#63b8ff" d="M240.81,-117.56C202.02,-107.26 139.75,-90.73 97.05,-79.39"/>
<polygon fill="#63b8ff" stroke="#63b8ff" points="98.13,-76.06 87.56,-76.87 96.33,-82.82 98.13,-76.06"/>
</a>
</g>
</g>
<!-- Node17 -->
<g id="Node000017" class="node">
<title>Node17</title>
<g id="a_Node000017"><a xlink:href="stat__trackers_8h.html" target="_top" xlink:title="Declarations for streaming statistic tracking.">
<polygon fill="white" stroke="#666666" points="200,-76 118.75,-76 118.75,-56 200,-56 200,-76"/>
<text text-anchor="middle" x="159.38" y="-62.5" font-family="Helvetica,sans-Serif" font-size="10.00">stat_trackers.h</text>
</a>
</g>
</g>
<!-- Node14&#45;&gt;Node17 -->
<g id="edge20_Node000014_Node000017" class="edge">
<title>Node14&#45;&gt;Node17</title>
<g id="a_edge20_Node000014_Node000017"><a xlink:title=" ">
<path fill="none" stroke="#63b8ff" d="M258.09,-117.62C239.2,-107.94 209.47,-92.69 187.57,-81.46"/>
<polygon fill="#63b8ff" stroke="#63b8ff" points="189.37,-78.45 178.87,-77 186.18,-84.68 189.37,-78.45"/>
</a>
</g>
</g>
<!-- Node17&#45;&gt;Node8 -->
<g id="edge21_Node000017_Node000008" class="edge">
<title>Node17&#45;&gt;Node8</title>
<g id="a_edge21_Node000017_Node000008"><a xlink:title=" ">
<path fill="none" stroke="#63b8ff" d="M200.28,-57.48C203.02,-56.98 205.74,-56.48 208.38,-56 285.07,-42.03 375.09,-25.8 423.1,-17.16"/>
<polygon fill="#63b8ff" stroke="#63b8ff" points="423.66,-20.62 432.88,-15.4 422.42,-13.73 423.66,-20.62"/>
</a>
</g>
</g>
<!-- Node18 -->
<g id="Node000018" class="node">
<title>Node18</title>
<g id="a_Node000018"><a xlink:title=" ">
<polygon fill="#e0e0e0" stroke="#999999" points="390.38,-20 332.38,-20 332.38,0 390.38,0 390.38,-20"/>
<text text-anchor="middle" x="361.38" y="-6.5" font-family="Helvetica,sans-Serif" font-size="10.00">functional</text>
</a>
</g>
</g>
<!-- Node17&#45;&gt;Node18 -->
<g id="edge22_Node000017_Node000018" class="edge">
<title>Node17&#45;&gt;Node18</title>
<g id="a_edge22_Node000017_Node000018"><a xlink:title=" ">
<path fill="none" stroke="#63b8ff" d="M194.56,-55.59C229.9,-46.15 284.29,-31.61 321.28,-21.72"/>
<polygon fill="#63b8ff" stroke="#63b8ff" points="321.94,-25.17 330.7,-19.2 320.13,-18.4 321.94,-25.17"/>
</a>
</g>
</g>
<!-- Node19 -->
<g id="Node000019" class="node">
<title>Node19</title>
<g id="a_Node000019"><a xlink:title=" ">
<polygon fill="#e0e0e0" stroke="#999999" points="138,-20 98.75,-20 98.75,0 138,0 138,-20"/>
<text text-anchor="middle" x="118.38" y="-6.5" font-family="Helvetica,sans-Serif" font-size="10.00">limits</text>
</a>
</g>
</g>
<!-- Node17&#45;&gt;Node19 -->
<g id="edge23_Node000017_Node000019" class="edge">
<title>Node17&#45;&gt;Node19</title>
<g id="a_edge23_Node000017_Node000019"><a xlink:title=" ">
<path fill="none" stroke="#63b8ff" d="M152.23,-55.59C146.77,-48.39 139.05,-38.23 132.37,-29.43"/>
<polygon fill="#63b8ff" stroke="#63b8ff" points="135.18,-27.35 126.35,-21.5 129.61,-31.58 135.18,-27.35"/>
</a>
</g>
</g>
<!-- Node20 -->
<g id="Node000020" class="node">
<title>Node20</title>
<g id="a_Node000020"><a xlink:title=" ">
<polygon fill="#e0e0e0" stroke="#999999" points="245.12,-20 155.62,-20 155.62,0 245.12,0 245.12,-20"/>
<text text-anchor="middle" x="200.38" y="-6.5" font-family="Helvetica,sans-Serif" font-size="10.00">boost/format.hpp</text>
</a>
</g>
</g>
<!-- Node17&#45;&gt;Node20 -->
<g id="edge24_Node000017_Node000020" class="edge">
<title>Node17&#45;&gt;Node20</title>
<g id="a_edge24_Node000017_Node000020"><a xlink:title=" ">
<path fill="none" stroke="#63b8ff" d="M166.52,-55.59C171.98,-48.39 179.7,-38.23 186.38,-29.43"/>
<polygon fill="#63b8ff" stroke="#63b8ff" points="189.14,-31.58 192.4,-21.5 183.57,-27.35 189.14,-31.58"/>
</a>
</g>
</g>
<!-- Node21&#45;&gt;Node6 -->
<g id="edge32_Node000021_Node000006" class="edge">
<title>Node21&#45;&gt;Node6</title>
<g id="a_edge32_Node000021_Node000006"><a xlink:title=" ">
<path fill="none" stroke="#63b8ff" d="M649.16,-179.8C642.09,-171.23 632.42,-157.73 628.38,-144 622.8,-125.07 626.57,-102.56 630.8,-86.79"/>
<polygon fill="#63b8ff" stroke="#63b8ff" points="634.02,-88.24 633.54,-77.66 627.31,-86.23 634.02,-88.24"/>
</a>
</g>
</g>
<!-- Node21&#45;&gt;Node7 -->
<g id="edge26_Node000021_Node000007" class="edge">
<title>Node21&#45;&gt;Node7</title>
<g id="a_edge26_Node000021_Node000007"><a xlink:title=" ">
<path fill="none" stroke="#63b8ff" d="M649.24,-179.65C641.65,-170.76 630.22,-156.86 621.38,-144 594.56,-105.02 567.59,-56.47 553.46,-30.14"/>
<polygon fill="#63b8ff" stroke="#63b8ff" points="556.73,-28.83 548.94,-21.65 550.55,-32.12 556.73,-28.83"/>
</a>
</g>
</g>
<!-- Node21&#45;&gt;Node10 -->
<g id="edge30_Node000021_Node000010" class="edge">
<title>Node21&#45;&gt;Node10</title>
<g id="a_edge30_Node000021_Node000010"><a xlink:title=" ">
<path fill="none" stroke="#63b8ff" d="M715.95,-181.16C760.65,-173.9 817.09,-161.58 832.38,-144 859.6,-112.69 856.14,-60.34 851.56,-31.55"/>
<polygon fill="#63b8ff" stroke="#63b8ff" points="855.05,-31.16 849.82,-21.94 848.16,-32.41 855.05,-31.16"/>
</a>
</g>
</g>
<!-- Node21&#45;&gt;Node14 -->
<g id="edge33_Node000021_Node000014" class="edge">
<title>Node21&#45;&gt;Node14</title>
<g id="a_edge33_Node000021_Node000014"><a xlink:title=" ">
<path fill="none" stroke="#63b8ff" d="M598.63,-181.61C536.15,-173.49 434.51,-159.51 347.38,-144 339.62,-142.62 331.42,-141.02 323.45,-139.39"/>
<polygon fill="#63b8ff" stroke="#63b8ff" points="324.39,-136.01 313.89,-137.39 322.96,-142.86 324.39,-136.01"/>
</a>
</g>
</g>
<!-- Node21&#45;&gt;Node18 -->
<g id="edge28_Node000021_Node000018" class="edge">
<title>Node21&#45;&gt;Node18</title>
<g id="a_edge28_Node000021_Node000018"><a xlink:title=" ">
<path fill="none" stroke="#63b8ff" d="M598.83,-183.19C522.11,-175.01 395.47,-159.39 380.38,-144 351.06,-114.12 353.51,-60.78 357.59,-31.55"/>
<polygon fill="#63b8ff" stroke="#63b8ff" points="361.03,-32.24 359.17,-21.81 354.12,-31.12 361.03,-32.24"/>
</a>
</g>
</g>
<!-- Node22 -->
<g id="Node000022" class="node">
<title>Node22</title>
<g id="a_Node000022"><a xlink:title=" ">
<polygon fill="#e0e0e0" stroke="#999999" points="822.88,-138 761.88,-138 761.88,-118 822.88,-118 822.88,-138"/>
<text text-anchor="middle" x="792.38" y="-124.5" font-family="Helvetica,sans-Serif" font-size="10.00">filesystem</text>
</a>
</g>
</g>
<!-- Node21&#45;&gt;Node22 -->
<g id="edge27_Node000021_Node000022" class="edge">
<title>Node21&#45;&gt;Node22</title>
<g id="a_edge27_Node000021_Node000022"><a xlink:title=" ">
<path fill="none" stroke="#63b8ff" d="M678.47,-179.62C700.66,-169.76 735.82,-154.13 761.21,-142.85"/>
<polygon fill="#63b8ff" stroke="#63b8ff" points="762.33,-146.18 770.05,-138.92 759.49,-139.79 762.33,-146.18"/>
</a>
</g>
</g>
<!-- Node23 -->
<g id="Node000023" class="node">
<title>Node23</title>
<g id="a_Node000023"><a xlink:title=" ">
<polygon fill="#e0e0e0" stroke="#999999" points="1169.88,-20 1126.88,-20 1126.88,0 1169.88,0 1169.88,-20"/>
<text text-anchor="middle" x="1148.38" y="-6.5" font-family="Helvetica,sans-Serif" font-size="10.00">mutex</text>
</a>
</g>
</g>
<!-- Node21&#45;&gt;Node23 -->
<g id="edge29_Node000021_Node000023" class="edge">
<title>Node21&#45;&gt;Node23</title>
<g id="a_edge29_Node000021_Node000023"><a xlink:title=" ">
<path fill="none" stroke="#63b8ff" d="M715.9,-181.47C720.46,-180.95 724.99,-180.45 729.38,-180 778.72,-174.92 1140.74,-180.46 1174.38,-144 1203.51,-112.41 1177.83,-58.19 1160.73,-29.71"/>
<polygon fill="#63b8ff" stroke="#63b8ff" points="1163.81,-28.05 1155.53,-21.44 1157.89,-31.77 1163.81,-28.05"/>
</a>
</g>
</g>
<!-- Node24 -->
<g id="Node000024" class="node">
<title>Node24</title>
<g id="a_Node000024"><a xlink:title=" ">
<polygon fill="#e0e0e0" stroke="#999999" points="1165.5,-138 1027.25,-138 1027.25,-118 1165.5,-118 1165.5,-138"/>
<text text-anchor="middle" x="1096.38" y="-124.5" font-family="Helvetica,sans-Serif" font-size="10.00">boost/core/noncopyable.hpp</text>
</a>
</g>
</g>
<!-- Node21&#45;&gt;Node24 -->
<g id="edge31_Node000021_Node000024" class="edge">
<title>Node21&#45;&gt;Node24</title>
<g id="a_edge31_Node000021_Node000024"><a xlink:title=" ">
<path fill="none" stroke="#63b8ff" d="M715.92,-181.68C720.48,-181.11 725,-180.55 729.38,-180 857.82,-163.97 890.53,-164.23 1018.38,-144 1024.92,-142.96 1031.75,-141.79 1038.54,-140.56"/>
<polygon fill="#63b8ff" stroke="#63b8ff" points="1039.17,-144.01 1048.37,-138.74 1037.9,-137.12 1039.17,-144.01"/>
</a>
</g>
</g>
<!-- Node25 -->
<g id="Node000025" class="node">
<title>Node25</title>
<g id="a_Node000025"><a xlink:href="thread__safe_8h.html" target="_top" xlink:title="Declarations for thread&#45;safe data structures.">
<polygon fill="white" stroke="#666666" points="1009.25,-138 917.5,-138 917.5,-118 1009.25,-118 1009.25,-138"/>
<text text-anchor="middle" x="963.38" y="-124.5" font-family="Helvetica,sans-Serif" font-size="10.00">src/thread_safe.h</text>
</a>
</g>
</g>
<!-- Node21&#45;&gt;Node25 -->
<g id="edge34_Node000021_Node000025" class="edge">
<title>Node21&#45;&gt;Node25</title>
<g id="a_edge34_Node000021_Node000025"><a xlink:title=" ">
<path fill="none" stroke="#63b8ff" d="M714.74,-179.58C764.73,-171.11 839.08,-157.9 903.38,-144 907.44,-143.12 911.66,-142.16 915.88,-141.17"/>
<polygon fill="#63b8ff" stroke="#63b8ff" points="916.6,-144.6 925.5,-138.85 914.96,-137.79 916.6,-144.6"/>
</a>
</g>
</g>
<!-- Node21&#45;&gt;Node30 -->
<g id="edge54_Node000021_Node000030" class="edge">
<title>Node21&#45;&gt;Node30</title>
<g id="a_edge54_Node000021_Node000030"><a xlink:title=" ">
<path fill="none" stroke="#63b8ff" d="M715.9,-181.44C720.45,-180.93 724.99,-180.44 729.38,-180 782.37,-174.7 1163.39,-174.03 1207.38,-144 1226.38,-131.02 1235.94,-105.48 1240.52,-87.38"/>
<polygon fill="#63b8ff" stroke="#63b8ff" points="1243.91,-88.28 1242.63,-77.76 1237.07,-86.78 1243.91,-88.28"/>
</a>
</g>
</g>
<!-- Node37 -->
<g id="Node000037" class="node">
<title>Node37</title>
<g id="a_Node000037"><a xlink:href="video__colorspace_8h.html" target="_top" xlink:title="Declarations for colorspace functions.">
<polygon fill="white" stroke="#666666" points="505.62,-138 389.12,-138 389.12,-118 505.62,-118 505.62,-138"/>
<text text-anchor="middle" x="447.38" y="-124.5" font-family="Helvetica,sans-Serif" font-size="10.00">src/video_colorspace.h</text>
</a>
</g>
</g>
<!-- Node21&#45;&gt;Node37 -->
<g id="edge55_Node000021_Node000037" class="edge">
<title>Node21&#45;&gt;Node37</title>
<g id="a_edge55_Node000021_Node000037"><a xlink:title=" ">
<path fill="none" stroke="#63b8ff" d="M624.56,-179.62C588.68,-169.37 531.01,-152.9 491.26,-141.54"/>
<polygon fill="#63b8ff" stroke="#63b8ff" points="492.34,-138.21 481.76,-138.82 490.41,-144.94 492.34,-138.21"/>
</a>
</g>
</g>
<!-- Node39 -->
<g id="Node000039" class="node">
<title>Node39</title>
<g id="a_Node000039"><a xlink:title=" ">
<polygon fill="#e0e0e0" stroke="#999999" points="743.75,-144 637,-144 637,-112 743.75,-112 743.75,-144"/>
<text text-anchor="start" x="645" y="-130.5" font-family="Helvetica,sans-Serif" font-size="10.00">moonlight&#45;common&#45;c</text>
<text text-anchor="middle" x="690.38" y="-118.5" font-family="Helvetica,sans-Serif" font-size="10.00">/src/Limelight.h</text>
</a>
</g>
</g>
<!-- Node21&#45;&gt;Node39 -->
<g id="edge57_Node000021_Node000039" class="edge">
<title>Node21&#45;&gt;Node39</title>
<g id="a_edge57_Node000021_Node000039"><a xlink:title=" ">
<path fill="none" stroke="#63b8ff" d="M662.53,-179.62C666.28,-172.8 671.55,-163.22 676.5,-154.23"/>
<polygon fill="#63b8ff" stroke="#63b8ff" points="679.57,-155.92 681.32,-145.47 673.43,-152.54 679.57,-155.92"/>
</a>
</g>
</g>
<!-- Node25&#45;&gt;Node12 -->
<g id="edge41_Node000025_Node000012" class="edge">
<title>Node25&#45;&gt;Node12</title>
<g id="a_edge41_Node000025_Node000012"><a xlink:title=" ">
<path fill="none" stroke="#63b8ff" d="M955.23,-117.86C946.92,-108.11 934.18,-91.91 926.38,-76 919.39,-61.76 914.49,-44.48 911.42,-31.32"/>
<polygon fill="#63b8ff" stroke="#63b8ff" points="914.87,-30.71 909.34,-21.67 908.03,-32.19 914.87,-30.71"/>
</a>
</g>
</g>
<!-- Node25&#45;&gt;Node18 -->
<g id="edge38_Node000025_Node000018" class="edge">
<title>Node25&#45;&gt;Node18</title>
<g id="a_edge38_Node000025_Node000018"><a xlink:title=" ">
<path fill="none" stroke="#63b8ff" d="M917.24,-121.39C832.69,-110.97 656.01,-88.56 595.38,-76 526.34,-61.69 447.66,-38.35 401.38,-23.87"/>
<polygon fill="#63b8ff" stroke="#63b8ff" points="402.65,-20.6 392.06,-20.94 400.55,-27.28 402.65,-20.6"/>
</a>
</g>
</g>
<!-- Node25&#45;&gt;Node23 -->
<g id="edge40_Node000025_Node000023" class="edge">
<title>Node25&#45;&gt;Node23</title>
<g id="a_edge40_Node000025_Node000023"><a xlink:title=" ">
<path fill="none" stroke="#63b8ff" d="M996.97,-117.57C1046.6,-103.58 1133.98,-78.66 1136.38,-76 1147.19,-64 1149.74,-45.54 1149.84,-31.36"/>
<polygon fill="#63b8ff" stroke="#63b8ff" points="1153.35,-31.65 1149.5,-21.78 1146.36,-31.89 1153.35,-31.65"/>
</a>
</g>
</g>
<!-- Node26 -->
<g id="Node000026" class="node">
<title>Node26</title>
<g id="a_Node000026"><a xlink:title=" ">
<polygon fill="#e0e0e0" stroke="#999999" points="1127.25,-76 1089.5,-76 1089.5,-56 1127.25,-56 1127.25,-76"/>
<text text-anchor="middle" x="1108.38" y="-62.5" font-family="Helvetica,sans-Serif" font-size="10.00">array</text>
</a>
</g>
</g>
<!-- Node25&#45;&gt;Node26 -->
<g id="edge35_Node000025_Node000026" class="edge">
<title>Node25&#45;&gt;Node26</title>
<g id="a_edge35_Node000025_Node000026"><a xlink:title=" ">
<path fill="none" stroke="#63b8ff" d="M986.03,-117.62C1010.95,-107.31 1051.11,-90.7 1078.57,-79.33"/>
<polygon fill="#63b8ff" stroke="#63b8ff" points="1079.82,-82.6 1087.72,-75.55 1077.14,-76.14 1079.82,-82.6"/>
</a>
</g>
</g>
<!-- Node27 -->
<g id="Node000027" class="node">
<title>Node27</title>
<g id="a_Node000027"><a xlink:title=" ">
<polygon fill="#e0e0e0" stroke="#999999" points="981,-76 935.75,-76 935.75,-56 981,-56 981,-76"/>
<text text-anchor="middle" x="958.38" y="-62.5" font-family="Helvetica,sans-Serif" font-size="10.00">atomic</text>
</a>
</g>
</g>
<!-- Node25&#45;&gt;Node27 -->
<g id="edge36_Node000025_Node000027" class="edge">
<title>Node25&#45;&gt;Node27</title>
<g id="a_edge36_Node000025_Node000027"><a xlink:title=" ">
<path fill="none" stroke="#63b8ff" d="M962.59,-117.62C961.92,-109.56 960.93,-97.65 960.08,-87.41"/>
<polygon fill="#63b8ff" stroke="#63b8ff" points="963.58,-87.3 959.26,-77.62 956.6,-87.88 963.58,-87.3"/>
</a>
</g>
</g>
<!-- Node28 -->
<g id="Node000028" class="node">
<title>Node28</title>
<g id="a_Node000028"><a xlink:title=" ">
<polygon fill="#e0e0e0" stroke="#999999" points="1108.38,-20 1014.38,-20 1014.38,0 1108.38,0 1108.38,-20"/>
<text text-anchor="middle" x="1061.38" y="-6.5" font-family="Helvetica,sans-Serif" font-size="10.00">condition_variable</text>
</a>
</g>
</g>
<!-- Node25&#45;&gt;Node28 -->
<g id="edge37_Node000025_Node000028" class="edge">
<title>Node25&#45;&gt;Node28</title>
<g id="a_edge37_Node000025_Node000028"><a xlink:title=" ">
<path fill="none" stroke="#63b8ff" d="M986.34,-117.6C1004.11,-109.2 1028.03,-95.23 1042.38,-76 1052.06,-63.01 1056.83,-45.17 1059.16,-31.47"/>
<polygon fill="#63b8ff" stroke="#63b8ff" points="1062.59,-32.18 1060.49,-21.8 1055.66,-31.23 1062.59,-32.18"/>
</a>
</g>
</g>
<!-- Node29 -->
<g id="Node000029" class="node">
<title>Node29</title>
<g id="a_Node000029"><a xlink:title=" ">
<polygon fill="#e0e0e0" stroke="#999999" points="1033.75,-76 999,-76 999,-56 1033.75,-56 1033.75,-76"/>
<text text-anchor="middle" x="1016.38" y="-62.5" font-family="Helvetica,sans-Serif" font-size="10.00">map</text>
</a>
</g>
</g>
<!-- Node25&#45;&gt;Node29 -->
<g id="edge39_Node000025_Node000029" class="edge">
<title>Node25&#45;&gt;Node29</title>
<g id="a_edge39_Node000025_Node000029"><a xlink:title=" ">
<path fill="none" stroke="#63b8ff" d="M971.66,-117.62C979.48,-108.77 991.41,-95.26 1000.98,-84.43"/>
<polygon fill="#63b8ff" stroke="#63b8ff" points="1003.33,-87.06 1007.32,-77.25 998.08,-82.42 1003.33,-87.06"/>
</a>
</g>
</g>
<!-- Node25&#45;&gt;Node30 -->
<g id="edge42_Node000025_Node000030" class="edge">
<title>Node25&#45;&gt;Node30</title>
<g id="a_edge42_Node000025_Node000030"><a xlink:title=" ">
<path fill="none" stroke="#63b8ff" d="M996.73,-117.5C1003.85,-115.59 1011.34,-113.66 1018.38,-112 1085.58,-96.17 1164.88,-81.23 1209.43,-73.18"/>
<polygon fill="#63b8ff" stroke="#63b8ff" points="1209.79,-76.67 1219.01,-71.45 1208.55,-69.78 1209.79,-76.67"/>
</a>
</g>
</g>
<!-- Node30&#45;&gt;Node9 -->
<g id="edge47_Node000030_Node000009" class="edge">
<title>Node30&#45;&gt;Node9</title>
<g id="a_edge47_Node000030_Node000009"><a xlink:title=" ">
<path fill="none" stroke="#63b8ff" d="M1220.51,-61.1C1179.18,-54.21 1091.4,-39.04 1007.57,-20.36"/>
<polygon fill="#63b8ff" stroke="#63b8ff" points="1008.58,-17 998.05,-18.22 1007.04,-23.83 1008.58,-17"/>
</a>
</g>
</g>
<!-- Node30&#45;&gt;Node10 -->
<g id="edge49_Node000030_Node000010" class="edge">
<title>Node30&#45;&gt;Node10</title>
<g id="a_edge49_Node000030_Node000010"><a xlink:title=" ">
<path fill="none" stroke="#63b8ff" d="M1220.98,-62.66C1154.12,-55.88 962.15,-35.85 878.63,-19.81"/>
<polygon fill="#63b8ff" stroke="#63b8ff" points="879.57,-16.43 869.07,-17.87 878.18,-23.29 879.57,-16.43"/>
</a>
</g>
</g>
<!-- Node30&#45;&gt;Node12 -->
<g id="edge53_Node000030_Node000012" class="edge">
<title>Node30&#45;&gt;Node12</title>
<g id="a_edge53_Node000030_Node000012"><a xlink:title=" ">
<path fill="none" stroke="#63b8ff" d="M1220.67,-62.72C1170.51,-57.64 1049.87,-44.09 940.15,-20.36"/>
<polygon fill="#63b8ff" stroke="#63b8ff" points="941.23,-17.02 930.71,-18.28 939.72,-23.85 941.23,-17.02"/>
</a>
</g>
</g>
<!-- Node30&#45;&gt;Node23 -->
<g id="edge46_Node000030_Node000023" class="edge">
<title>Node30&#45;&gt;Node23</title>
<g id="a_edge46_Node000030_Node000023"><a xlink:title=" ">
<path fill="none" stroke="#63b8ff" d="M1227.65,-55.59C1213.15,-47.44 1191.9,-35.48 1175.05,-26"/>
<polygon fill="#63b8ff" stroke="#63b8ff" points="1176.98,-23.07 1166.55,-21.22 1173.55,-29.17 1176.98,-23.07"/>
</a>
</g>
</g>
<!-- Node30&#45;&gt;Node28 -->
<g id="edge44_Node000030_Node000028" class="edge">
<title>Node30&#45;&gt;Node28</title>
<g id="a_edge44_Node000030_Node000028"><a xlink:title=" ">
<path fill="none" stroke="#63b8ff" d="M1220.83,-58.05C1191.43,-49.38 1140.6,-34.38 1104.23,-23.65"/>
<polygon fill="#63b8ff" stroke="#63b8ff" points="1105.48,-20.37 1094.9,-20.89 1103.5,-27.08 1105.48,-20.37"/>
</a>
</g>
</g>
<!-- Node31 -->
<g id="Node000031" class="node">
<title>Node31</title>
<g id="a_Node000031"><a xlink:title=" ">
<polygon fill="#e0e0e0" stroke="#999999" points="1471.25,-20 1415.5,-20 1415.5,0 1471.25,0 1471.25,-20"/>
<text text-anchor="middle" x="1443.38" y="-6.5" font-family="Helvetica,sans-Serif" font-size="10.00">algorithm</text>
</a>
</g>
</g>
<!-- Node30&#45;&gt;Node31 -->
<g id="edge43_Node000030_Node000031" class="edge">
<title>Node30&#45;&gt;Node31</title>
<g id="a_edge43_Node000030_Node000031"><a xlink:title=" ">
<path fill="none" stroke="#63b8ff" d="M1267.98,-58.59C1301.6,-49.47 1363.68,-32.63 1404.24,-21.62"/>
<polygon fill="#63b8ff" stroke="#63b8ff" points="1405.13,-25.01 1413.86,-19.01 1403.29,-18.25 1405.13,-25.01"/>
</a>
</g>
</g>
<!-- Node32 -->
<g id="Node000032" class="node">
<title>Node32</title>
<g id="a_Node000032"><a xlink:title=" ">
<polygon fill="#e0e0e0" stroke="#999999" points="1541,-20 1489.75,-20 1489.75,0 1541,0 1541,-20"/>
<text text-anchor="middle" x="1515.38" y="-6.5" font-family="Helvetica,sans-Serif" font-size="10.00">memory</text>
</a>
</g>
</g>
<!-- Node30&#45;&gt;Node32 -->
<g id="edge45_Node000030_Node000032" class="edge">
<title>Node30&#45;&gt;Node32</title>
<g id="a_edge45_Node000030_Node000032"><a xlink:title=" ">
<path fill="none" stroke="#63b8ff" d="M1267.92,-61.02C1308.67,-54.02 1395.18,-38.69 1478.26,-20.36"/>
<polygon fill="#63b8ff" stroke="#63b8ff" points="1478.95,-23.79 1487.95,-18.2 1477.43,-16.96 1478.95,-23.79"/>
</a>
</g>
</g>
<!-- Node33 -->
<g id="Node000033" class="node">
<title>Node33</title>
<g id="a_Node000033"><a xlink:title=" ">
<polygon fill="#e0e0e0" stroke="#999999" points="1610,-20 1558.75,-20 1558.75,0 1610,0 1610,-20"/>
<text text-anchor="middle" x="1584.38" y="-6.5" font-family="Helvetica,sans-Serif" font-size="10.00">ostream</text>
</a>
</g>
</g>
<!-- Node30&#45;&gt;Node33 -->
<g id="edge48_Node000030_Node000033" class="edge">
<title>Node30&#45;&gt;Node33</title>
<g id="a_edge48_Node000030_Node000033"><a xlink:title=" ">
<path fill="none" stroke="#63b8ff" d="M1267.95,-62.45C1317.78,-56.87 1437.65,-42.43 1547.21,-20.47"/>
<polygon fill="#63b8ff" stroke="#63b8ff" points="1547.87,-23.91 1556.97,-18.48 1546.48,-17.05 1547.87,-23.91"/>
</a>
</g>
</g>
<!-- Node34 -->
<g id="Node000034" class="node">
<title>Node34</title>
<g id="a_Node000034"><a xlink:title=" ">
<polygon fill="#e0e0e0" stroke="#999999" points="1253.12,-20 1187.62,-20 1187.62,0 1253.12,0 1253.12,-20"/>
<text text-anchor="middle" x="1220.38" y="-6.5" font-family="Helvetica,sans-Serif" font-size="10.00">string_view</text>
</a>
</g>
</g>
<!-- Node30&#45;&gt;Node34 -->
<g id="edge50_Node000030_Node000034" class="edge">
<title>Node30&#45;&gt;Node34</title>
<g id="a_edge50_Node000030_Node000034"><a xlink:title=" ">
<path fill="none" stroke="#63b8ff" d="M1240.19,-55.59C1237.13,-48.7 1232.86,-39.1 1229.07,-30.57"/>
<polygon fill="#63b8ff" stroke="#63b8ff" points="1232.38,-29.4 1225.12,-21.68 1225.99,-32.24 1232.38,-29.4"/>
</a>
</g>
</g>
<!-- Node35 -->
<g id="Node000035" class="node">
<title>Node35</title>
<g id="a_Node000035"><a xlink:title=" ">
<polygon fill="#e0e0e0" stroke="#999999" points="1333.25,-20 1271.5,-20 1271.5,0 1333.25,0 1333.25,-20"/>
<text text-anchor="middle" x="1302.38" y="-6.5" font-family="Helvetica,sans-Serif" font-size="10.00">type_traits</text>
</a>
</g>
</g>
<!-- Node30&#45;&gt;Node35 -->
<g id="edge51_Node000030_Node000035" class="edge">
<title>Node30&#45;&gt;Node35</title>
<g id="a_edge51_Node000030_Node000035"><a xlink:title=" ">
<path fill="none" stroke="#63b8ff" d="M1254.48,-55.59C1262.63,-48.01 1274.31,-37.13 1284.09,-28.02"/>
<polygon fill="#63b8ff" stroke="#63b8ff" points="1286.35,-30.71 1291.28,-21.33 1281.58,-25.58 1286.35,-30.71"/>
</a>
</g>
</g>
<!-- Node36 -->
<g id="Node000036" class="node">
<title>Node36</title>
<g id="a_Node000036"><a xlink:title=" ">
<polygon fill="#e0e0e0" stroke="#999999" points="1397,-20 1351.75,-20 1351.75,0 1397,0 1397,-20"/>
<text text-anchor="middle" x="1374.38" y="-6.5" font-family="Helvetica,sans-Serif" font-size="10.00">variant</text>
</a>
</g>
</g>
<!-- Node30&#45;&gt;Node36 -->
<g id="edge52_Node000030_Node000036" class="edge">
<title>Node30&#45;&gt;Node36</title>
<g id="a_edge52_Node000030_Node000036"><a xlink:title=" ">
<path fill="none" stroke="#63b8ff" d="M1267.02,-55.59C1287.49,-47.09 1317.89,-34.46 1341.12,-24.81"/>
<polygon fill="#63b8ff" stroke="#63b8ff" points="1342.26,-28.13 1350.16,-21.06 1339.58,-21.66 1342.26,-28.13"/>
</a>
</g>
</g>
<!-- Node38 -->
<g id="Node000038" class="node">
<title>Node38</title>
<g id="a_Node000038"><a xlink:title=" ">
<polygon fill="#e0e0e0" stroke="#999999" points="477,-76 389.75,-76 389.75,-56 477,-56 477,-76"/>
<text text-anchor="middle" x="433.38" y="-62.5" font-family="Helvetica,sans-Serif" font-size="10.00">libavutil/pixfmt.h</text>
</a>
</g>
</g>
<!-- Node37&#45;&gt;Node38 -->
<g id="edge56_Node000037_Node000038" class="edge">
<title>Node37&#45;&gt;Node38</title>
<g id="a_edge56_Node000037_Node000038"><a xlink:title=" ">
<path fill="none" stroke="#63b8ff" d="M445.19,-117.62C443.29,-109.48 440.47,-97.39 438.06,-87.07"/>
<polygon fill="#63b8ff" stroke="#63b8ff" points="441.53,-86.53 435.85,-77.59 434.71,-88.12 441.53,-86.53"/>
</a>
</g>
</g>
<!-- Node40&#45;&gt;Node2 -->
<g id="edge60_Node000040_Node000002" class="edge">
<title>Node40&#45;&gt;Node2</title>
<g id="a_edge60_Node000040_Node000002"><a xlink:title=" ">
<path fill="none" stroke="#63b8ff" d="M534.98,-291.62C499.45,-272.46 418.31,-228.71 375.68,-205.72"/>
<polygon fill="#63b8ff" stroke="#63b8ff" points="377.52,-202.74 367.06,-201.07 374.2,-208.9 377.52,-202.74"/>
</a>
</g>
</g>
<!-- Node40&#45;&gt;Node3 -->
<g id="edge61_Node000040_Node000003" class="edge">
<title>Node40&#45;&gt;Node3</title>
<g id="a_edge61_Node000040_Node000003"><a xlink:title=" ">
<path fill="none" stroke="#63b8ff" d="M543.17,-291.52C534.53,-282.52 521.34,-268.56 510.38,-256 496.95,-240.61 482.33,-222.58 471.85,-209.41"/>
<polygon fill="#63b8ff" stroke="#63b8ff" points="474.62,-207.28 465.67,-201.61 469.13,-211.62 474.62,-207.28"/>
</a>
</g>
</g>
<!-- Node40&#45;&gt;Node4 -->
<g id="edge62_Node000040_Node000004" class="edge">
<title>Node40&#45;&gt;Node4</title>
<g id="a_edge62_Node000040_Node000004"><a xlink:title=" ">
<path fill="none" stroke="#63b8ff" d="M575.22,-291.62C622.59,-272.18 731.68,-227.4 786.96,-204.71"/>
<polygon fill="#63b8ff" stroke="#63b8ff" points="788.26,-207.96 796.18,-200.93 785.6,-201.49 788.26,-207.96"/>
</a>
</g>
</g>
<!-- Node40&#45;&gt;Node5 -->
<g id="edge63_Node000040_Node000005" class="edge">
<title>Node40&#45;&gt;Node5</title>
<g id="a_edge63_Node000040_Node000005"><a xlink:title=" ">
<path fill="none" stroke="#63b8ff" d="M555.68,-291.59C558.05,-284.86 561.34,-275.53 564.28,-267.15"/>
<polygon fill="#63b8ff" stroke="#63b8ff" points="567.58,-268.32 567.6,-257.73 560.98,-266 567.58,-268.32"/>
</a>
</g>
</g>
</g>
</svg>
