<?xml version="1.0" encoding="UTF-8" standalone="no"?>
<!DOCTYPE svg PUBLIC "-//W3C//DTD SVG 1.1//EN"
 "http://www.w3.org/Graphics/SVG/1.1/DTD/svg11.dtd">
<!-- Generated by graphviz version 12.2.1 (0)
 -->
<!-- Title: src/platform/linux/input/inputtino_pen.h Pages: 1 -->
<svg width="244pt" height="108pt"
 viewBox="0.00 0.00 244.00 108.00" xmlns="http://www.w3.org/2000/svg" xmlns:xlink="http://www.w3.org/1999/xlink">
<g id="graph0" class="graph" transform="scale(1 1) rotate(0) translate(4 104)">
<title>src/platform/linux/input/inputtino_pen.h</title>
<!-- Node1 -->
<g id="Node000001" class="node">
<title>Node1</title>
<g id="a_Node000001"><a xlink:title="Declarations for inputtino pen input handling.">
<polygon fill="#999999" stroke="#666666" points="166.75,-100 57.75,-100 57.75,-68 166.75,-68 166.75,-100"/>
<text text-anchor="start" x="65.75" y="-86.5" font-family="Helvetica,sans-Serif" font-size="10.00">src/platform/linux</text>
<text text-anchor="middle" x="112.25" y="-74.5" font-family="Helvetica,sans-Serif" font-size="10.00">/input/inputtino_pen.h</text>
</a>
</g>
</g>
<!-- Node2 -->
<g id="Node000002" class="node">
<title>Node2</title>
<g id="a_Node000002"><a xlink:href="inputtino_8cpp.html" target="_top" xlink:title="Definitions for the inputtino Linux input handling.">
<polygon fill="white" stroke="#666666" points="98.5,-32 0,-32 0,0 98.5,0 98.5,-32"/>
<text text-anchor="start" x="8" y="-18.5" font-family="Helvetica,sans-Serif" font-size="10.00">src/platform/linux</text>
<text text-anchor="middle" x="49.25" y="-6.5" font-family="Helvetica,sans-Serif" font-size="10.00">/input/inputtino.cpp</text>
</a>
</g>
</g>
<!-- Node1&#45;&gt;Node2 -->
<g id="edge1_Node000001_Node000002" class="edge">
<title>Node1&#45;&gt;Node2</title>
<g id="a_edge1_Node000001_Node000002"><a xlink:title=" ">
<path fill="none" stroke="#63b8ff" d="M89.75,-59.43C81.11,-50.38 71.48,-40.29 63.78,-32.22"/>
<polygon fill="#63b8ff" stroke="#63b8ff" points="87.16,-61.78 96.59,-66.6 92.22,-56.95 87.16,-61.78"/>
</a>
</g>
</g>
<!-- Node3 -->
<g id="Node000003" class="node">
<title>Node3</title>
<g id="a_Node000003"><a xlink:href="inputtino__pen_8cpp.html" target="_top" xlink:title="Definitions for inputtino pen input handling.">
<polygon fill="white" stroke="#666666" points="236,-32 116.5,-32 116.5,0 236,0 236,-32"/>
<text text-anchor="start" x="124.5" y="-18.5" font-family="Helvetica,sans-Serif" font-size="10.00">src/platform/linux</text>
<text text-anchor="middle" x="176.25" y="-6.5" font-family="Helvetica,sans-Serif" font-size="10.00">/input/inputtino_pen.cpp</text>
</a>
</g>
</g>
<!-- Node1&#45;&gt;Node3 -->
<g id="edge2_Node000001_Node000003" class="edge">
<title>Node1&#45;&gt;Node3</title>
<g id="a_edge2_Node000001_Node000003"><a xlink:title=" ">
<path fill="none" stroke="#63b8ff" d="M135.11,-59.43C143.88,-50.38 153.66,-40.29 161.49,-32.22"/>
<polygon fill="#63b8ff" stroke="#63b8ff" points="132.6,-56.99 128.15,-66.61 137.62,-61.86 132.6,-56.99"/>
</a>
</g>
</g>
</g>
</svg>
