<?xml version="1.0" encoding="UTF-8" standalone="no"?>
<!DOCTYPE svg PUBLIC "-//W3C//DTD SVG 1.1//EN"
 "http://www.w3.org/Graphics/SVG/1.1/DTD/svg11.dtd">
<!-- Generated by graphviz version 12.2.1 (0)
 -->
<!-- Title: src/input.h Pages: 1 -->
<!--zoomable 264 -->

<svg id="main" version="1.1" xmlns="http://www.w3.org/2000/svg" xmlns:xlink="http://www.w3.org/1999/xlink" xml:space="preserve" onload="init(evt)">

<style type="text/css"><![CDATA[
.node, .edge {opacity: 0.7;}
.node.selected, .edge.selected {opacity: 1;}
.edge:hover path { stroke: red; }
.edge:hover polygon { stroke: red; fill: red; }
]]></style>

<defs>
  <circle id="rim" cx="0" cy="0" r="7"/>
  <circle id="rim2" cx="0" cy="0" r="3.5"/>
  <g id="zoomPlus">
    <use xlink:href="#rim" fill="#404040"><set attributeName="fill" to="#808080" begin="zoomplus.mouseover" end="zoomplus.mouseout"/></use>
    <path d="M-4,0h8M0,-4v8" fill="none" stroke="white" stroke-width="1.5" pointer-events="none"/>
  </g>
  <g id="zoomMin">
    <use xlink:href="#rim" fill="#404040"><set attributeName="fill" to="#808080" begin="zoomminus.mouseover" end="zoomminus.mouseout"/></use>
    <path d="M-4,0h8" fill="none" stroke="white" stroke-width="1.5" pointer-events="none"/>
  </g>
  <g id="arrowUp" transform="translate(30 24)">
    <use xlink:href="#rim"/>
    <path pointer-events="none" fill="none" stroke="white" stroke-width="1.5" d="M0,-3.0v7 M-2.5,-0.5L0,-3.0L2.5,-0.5"/>
  </g>
  <g id="arrowRight" transform="rotate(90) translate(36 -43)">
    <use xlink:href="#rim"/>
    <path pointer-events="none" fill="none" stroke="white" stroke-width="1.5" d="M0,-3.0v7 M-2.5,-0.5L0,-3.0L2.5,-0.5"/>
  </g>
  <g id="arrowDown" transform="rotate(180) translate(-30 -48)">
    <use xlink:href="#rim"/>
    <path pointer-events="none" fill="none" stroke="white" stroke-width="1.5" d="M0,-3.0v7 M-2.5,-0.5L0,-3.0L2.5,-0.5"/>
  </g>
  <g id="arrowLeft" transform="rotate(270) translate(-36 17)">
    <use xlink:href="#rim"/>
    <path pointer-events="none" fill="none" stroke="white" stroke-width="1.5" d="M0,-3.0v7 M-2.5,-0.5L0,-3.0L2.5,-0.5"/>
  </g>
  <g id="resetDef">
    <use xlink:href="#rim2" fill="#404040"><set attributeName="fill" to="#808080" begin="reset.mouseover" end="reset.mouseout"/></use>
  </g>
</defs>
<script type="application/ecmascript">
var viewWidth = 1471;
var viewHeight = 264;
var sectionId = 'dynsection-0';
</script>
<script type="application/ecmascript" xlink:href="svg.min.js"/>
<svg id="graph" class="graph">
<g id="viewport">
<title>src/input.h</title>
<!-- Node1 -->
<g id="Node000001" class="node">
<title>Node1</title>
<g id="a_Node000001"><a xlink:title="Declarations for gamepad, keyboard, and mouse input handling.">
<polygon fill="#999999" stroke="#666666" points="879.88,-256 818.12,-256 818.12,-236 879.88,-236 879.88,-256"/>
<text text-anchor="middle" x="849" y="-242.5" font-family="Helvetica,sans-Serif" font-size="10.00">src/input.h</text>
</a>
</g>
</g>
<!-- Node2 -->
<g id="Node000002" class="node">
<title>Node2</title>
<g id="a_Node000002"><a xlink:title=" ">
<polygon fill="#e0e0e0" stroke="#999999" points="1373,-20 1315,-20 1315,0 1373,0 1373,-20"/>
<text text-anchor="middle" x="1344" y="-6.5" font-family="Helvetica,sans-Serif" font-size="10.00">functional</text>
</a>
</g>
</g>
<!-- Node1&#45;&gt;Node2 -->
<g id="edge1_Node000001_Node000002" class="edge">
<title>Node1&#45;&gt;Node2</title>
<g id="a_edge1_Node000001_Node000002"><a xlink:title=" ">
<path fill="none" stroke="#63b8ff" d="M880.28,-244.87C993.95,-243.69 1382.46,-233.11 1458,-144 1472.29,-127.15 1447.66,-60.38 1444,-56 1428.78,-37.8 1404.69,-26.66 1383.96,-20.01"/>
<polygon fill="#63b8ff" stroke="#63b8ff" points="1385.22,-16.73 1374.64,-17.28 1383.25,-23.45 1385.22,-16.73"/>
</a>
</g>
</g>
<!-- Node3 -->
<g id="Node000003" class="node">
<title>Node3</title>
<g id="a_Node000003"><a xlink:href="common_8h.html" target="_top" xlink:title="Declarations for common platform specific utilities.">
<polygon fill="white" stroke="#666666" points="899,-200 799,-200 799,-180 899,-180 899,-200"/>
<text text-anchor="middle" x="849" y="-186.5" font-family="Helvetica,sans-Serif" font-size="10.00">platform/common.h</text>
</a>
</g>
</g>
<!-- Node1&#45;&gt;Node3 -->
<g id="edge2_Node000001_Node000003" class="edge">
<title>Node1&#45;&gt;Node3</title>
<g id="a_edge2_Node000001_Node000003"><a xlink:title=" ">
<path fill="none" stroke="#63b8ff" d="M849,-235.59C849,-229.01 849,-219.96 849,-211.73"/>
<polygon fill="#63b8ff" stroke="#63b8ff" points="852.5,-211.81 849,-201.81 845.5,-211.81 852.5,-211.81"/>
</a>
</g>
</g>
<!-- Node21 -->
<g id="Node000021" class="node">
<title>Node21</title>
<g id="a_Node000021"><a xlink:href="thread__safe_8h.html" target="_top" xlink:title="Declarations for thread&#45;safe data structures.">
<polygon fill="white" stroke="#666666" points="453.88,-138 362.12,-138 362.12,-118 453.88,-118 453.88,-138"/>
<text text-anchor="middle" x="408" y="-124.5" font-family="Helvetica,sans-Serif" font-size="10.00">src/thread_safe.h</text>
</a>
</g>
</g>
<!-- Node1&#45;&gt;Node21 -->
<g id="edge50_Node000001_Node000021" class="edge">
<title>Node1&#45;&gt;Node21</title>
<g id="a_edge50_Node000001_Node000021"><a xlink:title=" ">
<path fill="none" stroke="#63b8ff" d="M817.64,-236.75C741.31,-216.67 545.5,-165.17 455.07,-141.38"/>
<polygon fill="#63b8ff" stroke="#63b8ff" points="456.09,-138.03 445.53,-138.87 454.31,-144.8 456.09,-138.03"/>
</a>
</g>
</g>
<!-- Node3&#45;&gt;Node2 -->
<g id="edge5_Node000003_Node000002" class="edge">
<title>Node3&#45;&gt;Node2</title>
<g id="a_edge5_Node000003_Node000002"><a xlink:title=" ">
<path fill="none" stroke="#63b8ff" d="M899.38,-186.65C1007.67,-181.2 1255.33,-166.42 1286,-144 1322.84,-117.08 1336.58,-61.67 1341.47,-31.57"/>
<polygon fill="#63b8ff" stroke="#63b8ff" points="1344.91,-32.26 1342.85,-21.87 1337.98,-31.28 1344.91,-32.26"/>
</a>
</g>
</g>
<!-- Node4 -->
<g id="Node000004" class="node">
<title>Node4</title>
<g id="a_Node000004"><a xlink:title=" ">
<polygon fill="#e0e0e0" stroke="#999999" points="1069,-20 1029,-20 1029,0 1069,0 1069,-20"/>
<text text-anchor="middle" x="1049" y="-6.5" font-family="Helvetica,sans-Serif" font-size="10.00">bitset</text>
</a>
</g>
</g>
<!-- Node3&#45;&gt;Node4 -->
<g id="edge3_Node000003_Node000004" class="edge">
<title>Node3&#45;&gt;Node4</title>
<g id="a_edge3_Node000003_Node000004"><a xlink:title=" ">
<path fill="none" stroke="#63b8ff" d="M844.53,-179.74C838.06,-165.01 827.72,-135.53 836,-112 846.6,-81.88 854.18,-73.33 881,-56 931.67,-23.26 955.9,-35.85 1017.65,-20.4"/>
<polygon fill="#63b8ff" stroke="#63b8ff" points="1018.54,-23.78 1027.29,-17.81 1016.73,-17.02 1018.54,-23.78"/>
</a>
</g>
</g>
<!-- Node5 -->
<g id="Node000005" class="node">
<title>Node5</title>
<g id="a_Node000005"><a xlink:title=" ">
<polygon fill="#e0e0e0" stroke="#999999" points="995.5,-138 934.5,-138 934.5,-118 995.5,-118 995.5,-138"/>
<text text-anchor="middle" x="965" y="-124.5" font-family="Helvetica,sans-Serif" font-size="10.00">filesystem</text>
</a>
</g>
</g>
<!-- Node3&#45;&gt;Node5 -->
<g id="edge4_Node000003_Node000005" class="edge">
<title>Node3&#45;&gt;Node5</title>
<g id="a_edge4_Node000003_Node000005"><a xlink:title=" ">
<path fill="none" stroke="#63b8ff" d="M867.12,-179.62C885.85,-169.94 915.33,-154.69 937.05,-143.46"/>
<polygon fill="#63b8ff" stroke="#63b8ff" points="938.38,-146.71 945.66,-139 935.17,-140.49 938.38,-146.71"/>
</a>
</g>
</g>
<!-- Node6 -->
<g id="Node000006" class="node">
<title>Node6</title>
<g id="a_Node000006"><a xlink:title=" ">
<polygon fill="#e0e0e0" stroke="#999999" points="155.5,-20 112.5,-20 112.5,0 155.5,0 155.5,-20"/>
<text text-anchor="middle" x="134" y="-6.5" font-family="Helvetica,sans-Serif" font-size="10.00">mutex</text>
</a>
</g>
</g>
<!-- Node3&#45;&gt;Node6 -->
<g id="edge6_Node000003_Node000006" class="edge">
<title>Node3&#45;&gt;Node6</title>
<g id="a_edge6_Node000003_Node000006"><a xlink:title=" ">
<path fill="none" stroke="#63b8ff" d="M798.85,-184.46C750.13,-178.89 674.69,-167.18 613,-144 594.91,-137.2 481.31,-62.17 463,-56 339.63,-14.41 297.34,-45.52 167.04,-20.29"/>
<polygon fill="#63b8ff" stroke="#63b8ff" points="167.82,-16.88 157.33,-18.33 166.44,-23.74 167.82,-16.88"/>
</a>
</g>
</g>
<!-- Node7 -->
<g id="Node000007" class="node">
<title>Node7</title>
<g id="a_Node000007"><a xlink:title=" ">
<polygon fill="#e0e0e0" stroke="#999999" points="781,-20 741,-20 741,0 781,0 781,-20"/>
<text text-anchor="middle" x="761" y="-6.5" font-family="Helvetica,sans-Serif" font-size="10.00">string</text>
</a>
</g>
</g>
<!-- Node3&#45;&gt;Node7 -->
<g id="edge7_Node000003_Node000007" class="edge">
<title>Node3&#45;&gt;Node7</title>
<g id="a_edge7_Node000003_Node000007"><a xlink:title=" ">
<path fill="none" stroke="#63b8ff" d="M828.86,-179.54C797.54,-163.48 738.72,-127.53 719,-76 712.22,-58.3 725.67,-40.36 739.11,-27.83"/>
<polygon fill="#63b8ff" stroke="#63b8ff" points="741.28,-30.59 746.58,-21.42 736.72,-25.28 741.28,-30.59"/>
</a>
</g>
</g>
<!-- Node8 -->
<g id="Node000008" class="node">
<title>Node8</title>
<g id="a_Node000008"><a xlink:title=" ">
<polygon fill="#e0e0e0" stroke="#999999" points="1152.12,-138 1013.88,-138 1013.88,-118 1152.12,-118 1152.12,-138"/>
<text text-anchor="middle" x="1083" y="-124.5" font-family="Helvetica,sans-Serif" font-size="10.00">boost/core/noncopyable.hpp</text>
</a>
</g>
</g>
<!-- Node3&#45;&gt;Node8 -->
<g id="edge8_Node000003_Node000008" class="edge">
<title>Node3&#45;&gt;Node8</title>
<g id="a_edge8_Node000003_Node000008"><a xlink:title=" ">
<path fill="none" stroke="#63b8ff" d="M885.82,-179.56C926.08,-169.24 990.73,-152.66 1034.95,-141.32"/>
<polygon fill="#63b8ff" stroke="#63b8ff" points="1035.73,-144.74 1044.54,-138.86 1033.99,-137.95 1035.73,-144.74"/>
</a>
</g>
</g>
<!-- Node9 -->
<g id="Node000009" class="node">
<title>Node9</title>
<g id="a_Node000009"><a xlink:href="config_8h.html" target="_top" xlink:title="Declarations for the configuration of Sunshine.">
<polygon fill="white" stroke="#666666" points="794.5,-76 727.5,-76 727.5,-56 794.5,-56 794.5,-76"/>
<text text-anchor="middle" x="761" y="-62.5" font-family="Helvetica,sans-Serif" font-size="10.00">src/config.h</text>
</a>
</g>
</g>
<!-- Node3&#45;&gt;Node9 -->
<g id="edge9_Node000003_Node000009" class="edge">
<title>Node3&#45;&gt;Node9</title>
<g id="a_edge9_Node000003_Node000009"><a xlink:title=" ">
<path fill="none" stroke="#63b8ff" d="M837.86,-179.79C827.92,-171.22 813.38,-157.72 803,-144 789.25,-125.83 777.22,-102.58 769.6,-86.41"/>
<polygon fill="#63b8ff" stroke="#63b8ff" points="772.84,-85.08 765.5,-77.43 766.47,-87.98 772.84,-85.08"/>
</a>
</g>
</g>
<!-- Node15 -->
<g id="Node000015" class="node">
<title>Node15</title>
<g id="a_Node000015"><a xlink:href="logging_8h.html" target="_top" xlink:title="Declarations for logging related functions.">
<polygon fill="white" stroke="#666666" points="916.75,-138 845.25,-138 845.25,-118 916.75,-118 916.75,-138"/>
<text text-anchor="middle" x="881" y="-124.5" font-family="Helvetica,sans-Serif" font-size="10.00">src/logging.h</text>
</a>
</g>
</g>
<!-- Node3&#45;&gt;Node15 -->
<g id="edge17_Node000003_Node000015" class="edge">
<title>Node3&#45;&gt;Node15</title>
<g id="a_edge17_Node000003_Node000015"><a xlink:title=" ">
<path fill="none" stroke="#63b8ff" d="M854,-179.62C858.49,-171.21 865.21,-158.6 870.83,-148.07"/>
<polygon fill="#63b8ff" stroke="#63b8ff" points="873.81,-149.92 875.43,-139.45 867.63,-146.62 873.81,-149.92"/>
</a>
</g>
</g>
<!-- Node3&#45;&gt;Node21 -->
<g id="edge26_Node000003_Node000021" class="edge">
<title>Node3&#45;&gt;Node21</title>
<g id="a_edge26_Node000003_Node000021"><a xlink:title=" ">
<path fill="none" stroke="#63b8ff" d="M798.77,-185.12C725.6,-179.01 585.6,-165.55 468,-144 463.37,-143.15 458.56,-142.15 453.77,-141.08"/>
<polygon fill="#63b8ff" stroke="#63b8ff" points="454.75,-137.71 444.21,-138.83 453.14,-144.53 454.75,-137.71"/>
</a>
</g>
</g>
<!-- Node26 -->
<g id="Node000026" class="node">
<title>Node26</title>
<g id="a_Node000026"><a xlink:href="utility_8h.html" target="_top" xlink:title="Declarations for utility functions.">
<polygon fill="white" stroke="#666666" points="556.38,-76 509.62,-76 509.62,-56 556.38,-56 556.38,-76"/>
<text text-anchor="middle" x="533" y="-62.5" font-family="Helvetica,sans-Serif" font-size="10.00">utility.h</text>
</a>
</g>
</g>
<!-- Node3&#45;&gt;Node26 -->
<g id="edge46_Node000003_Node000026" class="edge">
<title>Node3&#45;&gt;Node26</title>
<g id="a_edge46_Node000003_Node000026"><a xlink:title=" ">
<path fill="none" stroke="#63b8ff" d="M805.42,-179.57C771.92,-171.72 724.8,-159.36 685,-144 639.04,-126.26 588.55,-99.01 558.87,-82.14"/>
<polygon fill="#63b8ff" stroke="#63b8ff" points="560.65,-79.12 550.24,-77.18 557.17,-85.19 560.65,-79.12"/>
</a>
</g>
</g>
<!-- Node33 -->
<g id="Node000033" class="node">
<title>Node33</title>
<g id="a_Node000033"><a xlink:href="video__colorspace_8h.html" target="_top" xlink:title="Declarations for colorspace functions.">
<polygon fill="white" stroke="#666666" points="1449.25,-138 1332.75,-138 1332.75,-118 1449.25,-118 1449.25,-138"/>
<text text-anchor="middle" x="1391" y="-124.5" font-family="Helvetica,sans-Serif" font-size="10.00">src/video_colorspace.h</text>
</a>
</g>
</g>
<!-- Node3&#45;&gt;Node33 -->
<g id="edge47_Node000003_Node000033" class="edge">
<title>Node3&#45;&gt;Node33</title>
<g id="a_edge47_Node000003_Node000033"><a xlink:title=" ">
<path fill="none" stroke="#63b8ff" d="M899.3,-186.01C985.55,-180.47 1167.04,-167.03 1319,-144 1325.39,-143.03 1332.07,-141.86 1338.67,-140.6"/>
<polygon fill="#63b8ff" stroke="#63b8ff" points="1339.03,-144.1 1348.16,-138.72 1337.67,-137.23 1339.03,-144.1"/>
</a>
</g>
</g>
<!-- Node35 -->
<g id="Node000035" class="node">
<title>Node35</title>
<g id="a_Node000035"><a xlink:title=" ">
<polygon fill="#e0e0e0" stroke="#999999" points="1277.38,-144 1170.62,-144 1170.62,-112 1277.38,-112 1277.38,-144"/>
<text text-anchor="start" x="1178.62" y="-130.5" font-family="Helvetica,sans-Serif" font-size="10.00">moonlight&#45;common&#45;c</text>
<text text-anchor="middle" x="1224" y="-118.5" font-family="Helvetica,sans-Serif" font-size="10.00">/src/Limelight.h</text>
</a>
</g>
</g>
<!-- Node3&#45;&gt;Node35 -->
<g id="edge49_Node000003_Node000035" class="edge">
<title>Node3&#45;&gt;Node35</title>
<g id="a_edge49_Node000003_Node000035"><a xlink:title=" ">
<path fill="none" stroke="#63b8ff" d="M899.49,-183.15C959.08,-175.92 1061.39,-162.53 1159.17,-144.23"/>
<polygon fill="#63b8ff" stroke="#63b8ff" points="1159.79,-147.68 1168.97,-142.38 1158.49,-140.8 1159.79,-147.68"/>
</a>
</g>
</g>
<!-- Node9&#45;&gt;Node4 -->
<g id="edge10_Node000009_Node000004" class="edge">
<title>Node9&#45;&gt;Node4</title>
<g id="a_edge10_Node000009_Node000004"><a xlink:title=" ">
<path fill="none" stroke="#63b8ff" d="M794.82,-58.59C799.58,-57.71 804.41,-56.82 809,-56 899.17,-39.86 925.54,-41.96 1017.84,-20.26"/>
<polygon fill="#63b8ff" stroke="#63b8ff" points="1018.43,-23.71 1027.34,-17.99 1016.8,-16.91 1018.43,-23.71"/>
</a>
</g>
</g>
<!-- Node9&#45;&gt;Node7 -->
<g id="edge13_Node000009_Node000007" class="edge">
<title>Node9&#45;&gt;Node7</title>
<g id="a_edge13_Node000009_Node000007"><a xlink:title=" ">
<path fill="none" stroke="#63b8ff" d="M761,-55.59C761,-49.01 761,-39.96 761,-31.73"/>
<polygon fill="#63b8ff" stroke="#63b8ff" points="764.5,-31.81 761,-21.81 757.5,-31.81 764.5,-31.81"/>
</a>
</g>
</g>
<!-- Node10 -->
<g id="Node000010" class="node">
<title>Node10</title>
<g id="a_Node000010"><a xlink:title=" ">
<polygon fill="#e0e0e0" stroke="#999999" points="1132.62,-20 1087.38,-20 1087.38,0 1132.62,0 1132.62,-20"/>
<text text-anchor="middle" x="1110" y="-6.5" font-family="Helvetica,sans-Serif" font-size="10.00">chrono</text>
</a>
</g>
</g>
<!-- Node9&#45;&gt;Node10 -->
<g id="edge11_Node000009_Node000010" class="edge">
<title>Node9&#45;&gt;Node10</title>
<g id="a_edge11_Node000009_Node000010"><a xlink:title=" ">
<path fill="none" stroke="#63b8ff" d="M794.57,-61.72C850.78,-55.91 967.64,-42.47 1075.9,-20.19"/>
<polygon fill="#63b8ff" stroke="#63b8ff" points="1076.47,-23.64 1085.54,-18.17 1075.03,-16.79 1076.47,-23.64"/>
</a>
</g>
</g>
<!-- Node11 -->
<g id="Node000011" class="node">
<title>Node11</title>
<g id="a_Node000011"><a xlink:title=" ">
<polygon fill="#e0e0e0" stroke="#999999" points="722.88,-20 673.12,-20 673.12,0 722.88,0 722.88,-20"/>
<text text-anchor="middle" x="698" y="-6.5" font-family="Helvetica,sans-Serif" font-size="10.00">optional</text>
</a>
</g>
</g>
<!-- Node9&#45;&gt;Node11 -->
<g id="edge12_Node000009_Node000011" class="edge">
<title>Node9&#45;&gt;Node11</title>
<g id="a_edge12_Node000009_Node000011"><a xlink:title=" ">
<path fill="none" stroke="#63b8ff" d="M750.03,-55.59C741.08,-47.93 728.23,-36.91 717.54,-27.75"/>
<polygon fill="#63b8ff" stroke="#63b8ff" points="719.87,-25.13 710,-21.28 715.31,-30.45 719.87,-25.13"/>
</a>
</g>
</g>
<!-- Node12 -->
<g id="Node000012" class="node">
<title>Node12</title>
<g id="a_Node000012"><a xlink:title=" ">
<polygon fill="#e0e0e0" stroke="#999999" points="881.38,-20 798.62,-20 798.62,0 881.38,0 881.38,-20"/>
<text text-anchor="middle" x="840" y="-6.5" font-family="Helvetica,sans-Serif" font-size="10.00">unordered_map</text>
</a>
</g>
</g>
<!-- Node9&#45;&gt;Node12 -->
<g id="edge14_Node000009_Node000012" class="edge">
<title>Node9&#45;&gt;Node12</title>
<g id="a_edge14_Node000009_Node000012"><a xlink:title=" ">
<path fill="none" stroke="#63b8ff" d="M774.76,-55.59C786.36,-47.67 803.2,-36.16 816.86,-26.82"/>
<polygon fill="#63b8ff" stroke="#63b8ff" points="818.6,-29.87 824.88,-21.33 814.65,-24.09 818.6,-29.87"/>
</a>
</g>
</g>
<!-- Node13 -->
<g id="Node000013" class="node">
<title>Node13</title>
<g id="a_Node000013"><a xlink:title=" ">
<polygon fill="#e0e0e0" stroke="#999999" points="655.5,-20 612.5,-20 612.5,0 655.5,0 655.5,-20"/>
<text text-anchor="middle" x="634" y="-6.5" font-family="Helvetica,sans-Serif" font-size="10.00">vector</text>
</a>
</g>
</g>
<!-- Node9&#45;&gt;Node13 -->
<g id="edge15_Node000009_Node000013" class="edge">
<title>Node9&#45;&gt;Node13</title>
<g id="a_edge15_Node000009_Node000013"><a xlink:title=" ">
<path fill="none" stroke="#63b8ff" d="M738.88,-55.59C718.85,-47.08 689.08,-34.42 666.38,-24.77"/>
<polygon fill="#63b8ff" stroke="#63b8ff" points="667.83,-21.58 657.26,-20.89 665.09,-28.02 667.83,-21.58"/>
</a>
</g>
</g>
<!-- Node14 -->
<g id="Node000014" class="node">
<title>Node14</title>
<g id="a_Node000014"><a xlink:href="nvenc__config_8h.html" target="_top" xlink:title="Declarations for NVENC encoder configuration.">
<polygon fill="white" stroke="#666666" points="1010.62,-20 899.38,-20 899.38,0 1010.62,0 1010.62,-20"/>
<text text-anchor="middle" x="955" y="-6.5" font-family="Helvetica,sans-Serif" font-size="10.00">nvenc/nvenc_config.h</text>
</a>
</g>
</g>
<!-- Node9&#45;&gt;Node14 -->
<g id="edge16_Node000009_Node000014" class="edge">
<title>Node9&#45;&gt;Node14</title>
<g id="a_edge16_Node000009_Node000014"><a xlink:title=" ">
<path fill="none" stroke="#63b8ff" d="M794.79,-55.59C826.73,-46.71 874.85,-33.31 910.02,-23.52"/>
<polygon fill="#63b8ff" stroke="#63b8ff" points="910.79,-26.94 919.49,-20.89 908.91,-20.2 910.79,-26.94"/>
</a>
</g>
</g>
<!-- Node15&#45;&gt;Node9 -->
<g id="edge20_Node000015_Node000009" class="edge">
<title>Node15&#45;&gt;Node9</title>
<g id="a_edge20_Node000015_Node000009"><a xlink:title=" ">
<path fill="none" stroke="#63b8ff" d="M862.25,-117.62C842.79,-107.89 812.1,-92.55 789.61,-81.31"/>
<polygon fill="#63b8ff" stroke="#63b8ff" points="791.48,-78.33 780.97,-76.99 788.35,-84.59 791.48,-78.33"/>
</a>
</g>
</g>
<!-- Node16 -->
<g id="Node000016" class="node">
<title>Node16</title>
<g id="a_Node000016"><a xlink:title=" ">
<polygon fill="#e0e0e0" stroke="#999999" points="1004.5,-76 889.5,-76 889.5,-56 1004.5,-56 1004.5,-76"/>
<text text-anchor="middle" x="947" y="-62.5" font-family="Helvetica,sans-Serif" font-size="10.00">boost/log/common.hpp</text>
</a>
</g>
</g>
<!-- Node15&#45;&gt;Node16 -->
<g id="edge18_Node000015_Node000016" class="edge">
<title>Node15&#45;&gt;Node16</title>
<g id="a_edge18_Node000015_Node000016"><a xlink:title=" ">
<path fill="none" stroke="#63b8ff" d="M891.31,-117.62C901.25,-108.59 916.51,-94.72 928.54,-83.78"/>
<polygon fill="#63b8ff" stroke="#63b8ff" points="930.81,-86.45 935.86,-77.13 926.1,-81.27 930.81,-86.45"/>
</a>
</g>
</g>
<!-- Node17 -->
<g id="Node000017" class="node">
<title>Node17</title>
<g id="a_Node000017"><a xlink:title=" ">
<polygon fill="#e0e0e0" stroke="#999999" points="1123.38,-76 1022.62,-76 1022.62,-56 1123.38,-56 1123.38,-76"/>
<text text-anchor="middle" x="1073" y="-62.5" font-family="Helvetica,sans-Serif" font-size="10.00">boost/log/sinks.hpp</text>
</a>
</g>
</g>
<!-- Node15&#45;&gt;Node17 -->
<g id="edge19_Node000015_Node000017" class="edge">
<title>Node15&#45;&gt;Node17</title>
<g id="a_edge19_Node000015_Node000017"><a xlink:title=" ">
<path fill="none" stroke="#63b8ff" d="M909.05,-117.53C914.66,-115.67 920.51,-113.76 926,-112 961.17,-100.76 1001.25,-88.53 1030.67,-79.66"/>
<polygon fill="#63b8ff" stroke="#63b8ff" points="1031.37,-83.1 1039.94,-76.87 1029.35,-76.4 1031.37,-83.1"/>
</a>
</g>
</g>
<!-- Node18 -->
<g id="Node000018" class="node">
<title>Node18</title>
<g id="a_Node000018"><a xlink:href="stat__trackers_8h.html" target="_top" xlink:title="Declarations for streaming statistic tracking.">
<polygon fill="white" stroke="#666666" points="1222.62,-76 1141.38,-76 1141.38,-56 1222.62,-56 1222.62,-76"/>
<text text-anchor="middle" x="1182" y="-62.5" font-family="Helvetica,sans-Serif" font-size="10.00">stat_trackers.h</text>
</a>
</g>
</g>
<!-- Node15&#45;&gt;Node18 -->
<g id="edge21_Node000015_Node000018" class="edge">
<title>Node15&#45;&gt;Node18</title>
<g id="a_edge21_Node000015_Node000018"><a xlink:title=" ">
<path fill="none" stroke="#63b8ff" d="M906.98,-117.61C913.16,-115.58 919.77,-113.57 926,-112 1012.68,-90.11 1038.53,-92.04 1129.9,-76.34"/>
<polygon fill="#63b8ff" stroke="#63b8ff" points="1130.33,-79.81 1139.58,-74.64 1129.13,-72.92 1130.33,-79.81"/>
</a>
</g>
</g>
<!-- Node18&#45;&gt;Node2 -->
<g id="edge23_Node000018_Node000002" class="edge">
<title>Node18&#45;&gt;Node2</title>
<g id="a_edge23_Node000018_Node000002"><a xlink:title=" ">
<path fill="none" stroke="#63b8ff" d="M1210.22,-55.59C1236.42,-46.86 1275.68,-33.77 1304.9,-24.03"/>
<polygon fill="#63b8ff" stroke="#63b8ff" points="1305.75,-27.44 1314.13,-20.96 1303.53,-20.8 1305.75,-27.44"/>
</a>
</g>
</g>
<!-- Node18&#45;&gt;Node10 -->
<g id="edge22_Node000018_Node000010" class="edge">
<title>Node18&#45;&gt;Node10</title>
<g id="a_edge22_Node000018_Node000010"><a xlink:title=" ">
<path fill="none" stroke="#63b8ff" d="M1169.46,-55.59C1159.03,-47.77 1143.95,-36.46 1131.59,-27.19"/>
<polygon fill="#63b8ff" stroke="#63b8ff" points="1133.71,-24.41 1123.61,-21.21 1129.51,-30.01 1133.71,-24.41"/>
</a>
</g>
</g>
<!-- Node19 -->
<g id="Node000019" class="node">
<title>Node19</title>
<g id="a_Node000019"><a xlink:title=" ">
<polygon fill="#e0e0e0" stroke="#999999" points="1189.62,-20 1150.38,-20 1150.38,0 1189.62,0 1189.62,-20"/>
<text text-anchor="middle" x="1170" y="-6.5" font-family="Helvetica,sans-Serif" font-size="10.00">limits</text>
</a>
</g>
</g>
<!-- Node18&#45;&gt;Node19 -->
<g id="edge24_Node000018_Node000019" class="edge">
<title>Node18&#45;&gt;Node19</title>
<g id="a_edge24_Node000018_Node000019"><a xlink:title=" ">
<path fill="none" stroke="#63b8ff" d="M1179.91,-55.59C1178.43,-48.93 1176.39,-39.75 1174.54,-31.44"/>
<polygon fill="#63b8ff" stroke="#63b8ff" points="1177.98,-30.78 1172.39,-21.78 1171.15,-32.3 1177.98,-30.78"/>
</a>
</g>
</g>
<!-- Node20 -->
<g id="Node000020" class="node">
<title>Node20</title>
<g id="a_Node000020"><a xlink:title=" ">
<polygon fill="#e0e0e0" stroke="#999999" points="1296.75,-20 1207.25,-20 1207.25,0 1296.75,0 1296.75,-20"/>
<text text-anchor="middle" x="1252" y="-6.5" font-family="Helvetica,sans-Serif" font-size="10.00">boost/format.hpp</text>
</a>
</g>
</g>
<!-- Node18&#45;&gt;Node20 -->
<g id="edge25_Node000018_Node000020" class="edge">
<title>Node18&#45;&gt;Node20</title>
<g id="a_edge25_Node000018_Node000020"><a xlink:title=" ">
<path fill="none" stroke="#63b8ff" d="M1194.19,-55.59C1204.33,-47.77 1218.99,-36.46 1231.01,-27.19"/>
<polygon fill="#63b8ff" stroke="#63b8ff" points="1232.97,-30.1 1238.75,-21.22 1228.69,-24.56 1232.97,-30.1"/>
</a>
</g>
</g>
<!-- Node21&#45;&gt;Node2 -->
<g id="edge30_Node000021_Node000002" class="edge">
<title>Node21&#45;&gt;Node2</title>
<g id="a_edge30_Node000021_Node000002"><a xlink:title=" ">
<path fill="none" stroke="#63b8ff" d="M454.33,-122.94C528.58,-116.02 678.61,-100.26 804,-76 838.71,-69.28 846.15,-61.96 881,-56 1064.21,-24.68 1116.77,-48.94 1303.32,-20.19"/>
<polygon fill="#63b8ff" stroke="#63b8ff" points="1303.8,-23.66 1313.13,-18.65 1302.71,-16.74 1303.8,-23.66"/>
</a>
</g>
</g>
<!-- Node21&#45;&gt;Node6 -->
<g id="edge32_Node000021_Node000006" class="edge">
<title>Node21&#45;&gt;Node6</title>
<g id="a_edge32_Node000021_Node000006"><a xlink:title=" ">
<path fill="none" stroke="#63b8ff" d="M397.36,-117.73C379.48,-102.62 341.77,-72.72 305,-56 249.34,-30.69 228.6,-36.52 167.03,-20.67"/>
<polygon fill="#63b8ff" stroke="#63b8ff" points="167.95,-17.29 157.39,-18.08 166.14,-24.05 167.95,-17.29"/>
</a>
</g>
</g>
<!-- Node21&#45;&gt;Node13 -->
<g id="edge33_Node000021_Node000013" class="edge">
<title>Node21&#45;&gt;Node13</title>
<g id="a_edge33_Node000021_Node000013"><a xlink:title=" ">
<path fill="none" stroke="#63b8ff" d="M454.23,-117.67C486.76,-109.79 530.48,-96.45 565,-76 586.14,-63.48 606.09,-43.45 619.05,-28.94"/>
<polygon fill="#63b8ff" stroke="#63b8ff" points="621.61,-31.32 625.51,-21.47 616.32,-26.74 621.61,-31.32"/>
</a>
</g>
</g>
<!-- Node22 -->
<g id="Node000022" class="node">
<title>Node22</title>
<g id="a_Node000022"><a xlink:title=" ">
<polygon fill="#e0e0e0" stroke="#999999" points="389.88,-76 352.12,-76 352.12,-56 389.88,-56 389.88,-76"/>
<text text-anchor="middle" x="371" y="-62.5" font-family="Helvetica,sans-Serif" font-size="10.00">array</text>
</a>
</g>
</g>
<!-- Node21&#45;&gt;Node22 -->
<g id="edge27_Node000021_Node000022" class="edge">
<title>Node21&#45;&gt;Node22</title>
<g id="a_edge27_Node000021_Node000022"><a xlink:title=" ">
<path fill="none" stroke="#63b8ff" d="M402.22,-117.62C396.97,-109.12 389.09,-96.33 382.55,-85.74"/>
<polygon fill="#63b8ff" stroke="#63b8ff" points="385.64,-84.08 377.41,-77.4 379.68,-87.75 385.64,-84.08"/>
</a>
</g>
</g>
<!-- Node23 -->
<g id="Node000023" class="node">
<title>Node23</title>
<g id="a_Node000023"><a xlink:title=" ">
<polygon fill="#e0e0e0" stroke="#999999" points="453.62,-76 408.38,-76 408.38,-56 453.62,-56 453.62,-76"/>
<text text-anchor="middle" x="431" y="-62.5" font-family="Helvetica,sans-Serif" font-size="10.00">atomic</text>
</a>
</g>
</g>
<!-- Node21&#45;&gt;Node23 -->
<g id="edge28_Node000021_Node000023" class="edge">
<title>Node21&#45;&gt;Node23</title>
<g id="a_edge28_Node000021_Node000023"><a xlink:title=" ">
<path fill="none" stroke="#63b8ff" d="M411.59,-117.62C414.75,-109.39 419.45,-97.13 423.43,-86.74"/>
<polygon fill="#63b8ff" stroke="#63b8ff" points="426.65,-88.12 426.97,-77.53 420.12,-85.61 426.65,-88.12"/>
</a>
</g>
</g>
<!-- Node24 -->
<g id="Node000024" class="node">
<title>Node24</title>
<g id="a_Node000024"><a xlink:title=" ">
<polygon fill="#e0e0e0" stroke="#999999" points="94,-20 0,-20 0,0 94,0 94,-20"/>
<text text-anchor="middle" x="47" y="-6.5" font-family="Helvetica,sans-Serif" font-size="10.00">condition_variable</text>
</a>
</g>
</g>
<!-- Node21&#45;&gt;Node24 -->
<g id="edge29_Node000021_Node000024" class="edge">
<title>Node21&#45;&gt;Node24</title>
<g id="a_edge29_Node000021_Node000024"><a xlink:title=" ">
<path fill="none" stroke="#63b8ff" d="M378.46,-117.51C313.91,-96.77 160.23,-47.38 87.05,-23.87"/>
<polygon fill="#63b8ff" stroke="#63b8ff" points="88.48,-20.65 77.89,-20.92 86.33,-27.32 88.48,-20.65"/>
</a>
</g>
</g>
<!-- Node25 -->
<g id="Node000025" class="node">
<title>Node25</title>
<g id="a_Node000025"><a xlink:title=" ">
<polygon fill="#e0e0e0" stroke="#999999" points="296.38,-76 261.62,-76 261.62,-56 296.38,-56 296.38,-76"/>
<text text-anchor="middle" x="279" y="-62.5" font-family="Helvetica,sans-Serif" font-size="10.00">map</text>
</a>
</g>
</g>
<!-- Node21&#45;&gt;Node25 -->
<g id="edge31_Node000021_Node000025" class="edge">
<title>Node21&#45;&gt;Node25</title>
<g id="a_edge31_Node000021_Node000025"><a xlink:title=" ">
<path fill="none" stroke="#63b8ff" d="M387.84,-117.62C366.09,-107.51 331.29,-91.32 306.92,-79.98"/>
<polygon fill="#63b8ff" stroke="#63b8ff" points="308.45,-76.84 297.9,-75.79 305.5,-83.18 308.45,-76.84"/>
</a>
</g>
</g>
<!-- Node21&#45;&gt;Node26 -->
<g id="edge34_Node000021_Node000026" class="edge">
<title>Node21&#45;&gt;Node26</title>
<g id="a_edge34_Node000021_Node000026"><a xlink:title=" ">
<path fill="none" stroke="#63b8ff" d="M427.53,-117.62C447.9,-107.85 480.06,-92.41 503.51,-81.15"/>
<polygon fill="#63b8ff" stroke="#63b8ff" points="504.74,-84.45 512.24,-76.96 501.71,-78.14 504.74,-84.45"/>
</a>
</g>
</g>
<!-- Node26&#45;&gt;Node6 -->
<g id="edge38_Node000026_Node000006" class="edge">
<title>Node26&#45;&gt;Node6</title>
<g id="a_edge38_Node000026_Node000006"><a xlink:title=" ">
<path fill="none" stroke="#63b8ff" d="M509.21,-58.73C504.84,-57.72 500.3,-56.75 496,-56 353.37,-31.03 311.5,-48.54 166.89,-20.27"/>
<polygon fill="#63b8ff" stroke="#63b8ff" points="167.81,-16.88 157.32,-18.35 166.44,-23.75 167.81,-16.88"/>
</a>
</g>
</g>
<!-- Node26&#45;&gt;Node7 -->
<g id="edge41_Node000026_Node000007" class="edge">
<title>Node26&#45;&gt;Node7</title>
<g id="a_edge41_Node000026_Node000007"><a xlink:title=" ">
<path fill="none" stroke="#63b8ff" d="M556.73,-60.26C592.29,-53.03 661.69,-38.4 729.85,-20.41"/>
<polygon fill="#63b8ff" stroke="#63b8ff" points="730.56,-23.85 739.32,-17.89 728.75,-17.09 730.56,-23.85"/>
</a>
</g>
</g>
<!-- Node26&#45;&gt;Node11 -->
<g id="edge39_Node000026_Node000011" class="edge">
<title>Node26&#45;&gt;Node11</title>
<g id="a_edge39_Node000026_Node000011"><a xlink:title=" ">
<path fill="none" stroke="#63b8ff" d="M556.64,-57.26C584.22,-48.24 630.11,-33.22 662.1,-22.75"/>
<polygon fill="#63b8ff" stroke="#63b8ff" points="662.93,-26.16 671.34,-19.72 660.75,-19.51 662.93,-26.16"/>
</a>
</g>
</g>
<!-- Node26&#45;&gt;Node13 -->
<g id="edge45_Node000026_Node000013" class="edge">
<title>Node26&#45;&gt;Node13</title>
<g id="a_edge45_Node000026_Node000013"><a xlink:title=" ">
<path fill="none" stroke="#63b8ff" d="M550.59,-55.59C565.92,-47.4 588.42,-35.37 606.19,-25.87"/>
<polygon fill="#63b8ff" stroke="#63b8ff" points="607.77,-28.99 614.94,-21.19 604.47,-22.82 607.77,-28.99"/>
</a>
</g>
</g>
<!-- Node26&#45;&gt;Node24 -->
<g id="edge36_Node000026_Node000024" class="edge">
<title>Node26&#45;&gt;Node24</title>
<g id="a_edge36_Node000026_Node000024"><a xlink:title=" ">
<path fill="none" stroke="#63b8ff" d="M509.37,-61.79C495.81,-60 478.46,-57.77 463,-56 306.83,-38.16 264.34,-40.64 105.47,-20.25"/>
<polygon fill="#63b8ff" stroke="#63b8ff" points="106.2,-16.82 95.83,-19 105.3,-23.76 106.2,-16.82"/>
</a>
</g>
</g>
<!-- Node27 -->
<g id="Node000027" class="node">
<title>Node27</title>
<g id="a_Node000027"><a xlink:title=" ">
<polygon fill="#e0e0e0" stroke="#999999" points="594.88,-20 539.12,-20 539.12,0 594.88,0 594.88,-20"/>
<text text-anchor="middle" x="567" y="-6.5" font-family="Helvetica,sans-Serif" font-size="10.00">algorithm</text>
</a>
</g>
</g>
<!-- Node26&#45;&gt;Node27 -->
<g id="edge35_Node000026_Node000027" class="edge">
<title>Node26&#45;&gt;Node27</title>
<g id="a_edge35_Node000026_Node000027"><a xlink:title=" ">
<path fill="none" stroke="#63b8ff" d="M538.92,-55.59C543.36,-48.55 549.58,-38.67 555.04,-30"/>
<polygon fill="#63b8ff" stroke="#63b8ff" points="557.97,-31.91 560.34,-21.58 552.05,-28.18 557.97,-31.91"/>
</a>
</g>
</g>
<!-- Node28 -->
<g id="Node000028" class="node">
<title>Node28</title>
<g id="a_Node000028"><a xlink:title=" ">
<polygon fill="#e0e0e0" stroke="#999999" points="224.62,-20 173.38,-20 173.38,0 224.62,0 224.62,-20"/>
<text text-anchor="middle" x="199" y="-6.5" font-family="Helvetica,sans-Serif" font-size="10.00">memory</text>
</a>
</g>
</g>
<!-- Node26&#45;&gt;Node28 -->
<g id="edge37_Node000026_Node000028" class="edge">
<title>Node26&#45;&gt;Node28</title>
<g id="a_edge37_Node000026_Node000028"><a xlink:title=" ">
<path fill="none" stroke="#63b8ff" d="M509.19,-58.83C504.82,-57.8 500.29,-56.81 496,-56 383.59,-34.69 350.67,-42.62 235.9,-20.38"/>
<polygon fill="#63b8ff" stroke="#63b8ff" points="236.89,-17.01 226.4,-18.5 235.53,-23.88 236.89,-17.01"/>
</a>
</g>
</g>
<!-- Node29 -->
<g id="Node000029" class="node">
<title>Node29</title>
<g id="a_Node000029"><a xlink:title=" ">
<polygon fill="#e0e0e0" stroke="#999999" points="293.62,-20 242.38,-20 242.38,0 293.62,0 293.62,-20"/>
<text text-anchor="middle" x="268" y="-6.5" font-family="Helvetica,sans-Serif" font-size="10.00">ostream</text>
</a>
</g>
</g>
<!-- Node26&#45;&gt;Node29 -->
<g id="edge40_Node000026_Node000029" class="edge">
<title>Node26&#45;&gt;Node29</title>
<g id="a_edge40_Node000026_Node000029"><a xlink:title=" ">
<path fill="none" stroke="#63b8ff" d="M509.16,-59C504.79,-57.95 500.27,-56.91 496,-56 413.77,-38.38 389.53,-39.14 305.11,-20.57"/>
<polygon fill="#63b8ff" stroke="#63b8ff" points="305.94,-17.17 295.42,-18.41 304.42,-24 305.94,-17.17"/>
</a>
</g>
</g>
<!-- Node30 -->
<g id="Node000030" class="node">
<title>Node30</title>
<g id="a_Node000030"><a xlink:title=" ">
<polygon fill="#e0e0e0" stroke="#999999" points="376.75,-20 311.25,-20 311.25,0 376.75,0 376.75,-20"/>
<text text-anchor="middle" x="344" y="-6.5" font-family="Helvetica,sans-Serif" font-size="10.00">string_view</text>
</a>
</g>
</g>
<!-- Node26&#45;&gt;Node30 -->
<g id="edge42_Node000026_Node000030" class="edge">
<title>Node26&#45;&gt;Node30</title>
<g id="a_edge42_Node000026_Node000030"><a xlink:title=" ">
<path fill="none" stroke="#63b8ff" d="M509.45,-58.27C479.09,-49.6 425.73,-34.35 387.82,-23.52"/>
<polygon fill="#63b8ff" stroke="#63b8ff" points="389.12,-20.25 378.54,-20.87 387.19,-26.98 389.12,-20.25"/>
</a>
</g>
</g>
<!-- Node31 -->
<g id="Node000031" class="node">
<title>Node31</title>
<g id="a_Node000031"><a xlink:title=" ">
<polygon fill="#e0e0e0" stroke="#999999" points="456.88,-20 395.12,-20 395.12,0 456.88,0 456.88,-20"/>
<text text-anchor="middle" x="426" y="-6.5" font-family="Helvetica,sans-Serif" font-size="10.00">type_traits</text>
</a>
</g>
</g>
<!-- Node26&#45;&gt;Node31 -->
<g id="edge43_Node000026_Node000031" class="edge">
<title>Node26&#45;&gt;Node31</title>
<g id="a_edge43_Node000026_Node000031"><a xlink:title=" ">
<path fill="none" stroke="#63b8ff" d="M514.36,-55.59C497.97,-47.32 473.84,-35.14 454.94,-25.6"/>
<polygon fill="#63b8ff" stroke="#63b8ff" points="456.64,-22.54 446.13,-21.16 453.49,-28.79 456.64,-22.54"/>
</a>
</g>
</g>
<!-- Node32 -->
<g id="Node000032" class="node">
<title>Node32</title>
<g id="a_Node000032"><a xlink:title=" ">
<polygon fill="#e0e0e0" stroke="#999999" points="520.62,-20 475.38,-20 475.38,0 520.62,0 520.62,-20"/>
<text text-anchor="middle" x="498" y="-6.5" font-family="Helvetica,sans-Serif" font-size="10.00">variant</text>
</a>
</g>
</g>
<!-- Node26&#45;&gt;Node32 -->
<g id="edge44_Node000026_Node000032" class="edge">
<title>Node26&#45;&gt;Node32</title>
<g id="a_edge44_Node000026_Node000032"><a xlink:title=" ">
<path fill="none" stroke="#63b8ff" d="M526.9,-55.59C522.29,-48.47 515.79,-38.45 510.13,-29.72"/>
<polygon fill="#63b8ff" stroke="#63b8ff" points="513.23,-28.06 504.85,-21.57 507.35,-31.86 513.23,-28.06"/>
</a>
</g>
</g>
<!-- Node34 -->
<g id="Node000034" class="node">
<title>Node34</title>
<g id="a_Node000034"><a xlink:title=" ">
<polygon fill="#e0e0e0" stroke="#999999" points="1434.62,-76 1347.38,-76 1347.38,-56 1434.62,-56 1434.62,-76"/>
<text text-anchor="middle" x="1391" y="-62.5" font-family="Helvetica,sans-Serif" font-size="10.00">libavutil/pixfmt.h</text>
</a>
</g>
</g>
<!-- Node33&#45;&gt;Node34 -->
<g id="edge48_Node000033_Node000034" class="edge">
<title>Node33&#45;&gt;Node34</title>
<g id="a_edge48_Node000033_Node000034"><a xlink:title=" ">
<path fill="none" stroke="#63b8ff" d="M1391,-117.62C1391,-109.56 1391,-97.65 1391,-87.41"/>
<polygon fill="#63b8ff" stroke="#63b8ff" points="1394.5,-87.63 1391,-77.63 1387.5,-87.63 1394.5,-87.63"/>
</a>
</g>
</g>
</g>
</svg>

<g id="navigator" transform="translate(0 0)" fill="#404254">
  <rect fill="#f2f5e9" fill-opacity="0.5" stroke="#606060" stroke-width=".5" x="0" y="0" width="60" height="60"/>
  <use id="zoomplus" xlink:href="#zoomPlus" x="17" y="9" onmousedown="handleZoom(evt,'in')"/>
  <use id="zoomminus" xlink:href="#zoomMin" x="42" y="9" onmousedown="handleZoom(evt,'out')"/>
  <use id="reset" xlink:href="#resetDef" x="30" y="36" onmousedown="handleReset()"/>
   <use id="arrowup" xlink:href="#arrowUp" x="0" y="0" onmousedown="handlePan(0,-1)"/>
  <use id="arrowright" xlink:href="#arrowRight" x="0" y="0" onmousedown="handlePan(1,0)"/>
  <use id="arrowdown" xlink:href="#arrowDown" x="0" y="0" onmousedown="handlePan(0,1)"/>
  <use id="arrowleft" xlink:href="#arrowLeft" x="0" y="0" onmousedown="handlePan(-1,0)"/>
</g>
<svg viewBox="0 0 15 15" width="100%" height="30px" preserveAspectRatio="xMaxYMin meet">
 <g id="arrow_out" transform="scale(0.3 0.3)">
  <a xlink:href="input_8h__incl_org.svg" target="_base">
   <rect id="button" ry="5" rx="5" y="6" x="6" height="38" width="38"
        fill="#f2f5e9" fill-opacity="0.5" stroke="#606060" stroke-width="1.0"/>
   <path id="arrow"
     d="M 11.500037,31.436501 C 11.940474,20.09759 22.043105,11.32322 32.158766,21.979434 L 37.068811,17.246167 C 37.068811,17.246167 37.088388,32 37.088388,32 L 22.160133,31.978069 C 22.160133,31.978069 26.997745,27.140456 26.997745,27.140456 C 18.528582,18.264221 13.291696,25.230495 11.500037,31.436501 z"
     style="fill:#404040;"/>
  </a>
 </g>
</svg>

<style type='text/css'>
<![CDATA[
[data-mouse-over-selected='false'] { opacity: 0.7; }
[data-mouse-over-selected='true']  { opacity: 1.0; }
]]>
</style>
<script type="application/ecmascript"><![CDATA[
document.addEventListener('DOMContentLoaded', (event) => {
  highlightEdges();
  highlightAdjacentNodes();
});
]]></script>
</svg>
