<?xml version="1.0" encoding="UTF-8" standalone="no"?>
<!DOCTYPE svg PUBLIC "-//W3C//DTD SVG 1.1//EN"
 "http://www.w3.org/Graphics/SVG/1.1/DTD/svg11.dtd">
<!-- Generated by graphviz version 12.2.1 (0)
 -->
<!-- Title: src/platform/linux/input/inputtino_common.h Pages: 1 -->
<svg width="1007pt" height="176pt"
 viewBox="0.00 0.00 1006.62 176.00" xmlns="http://www.w3.org/2000/svg" xmlns:xlink="http://www.w3.org/1999/xlink">
<g id="graph0" class="graph" transform="scale(1 1) rotate(0) translate(4 172)">
<title>src/platform/linux/input/inputtino_common.h</title>
<!-- Node1 -->
<g id="Node000001" class="node">
<title>Node1</title>
<g id="a_Node000001"><a xlink:title="Declarations for inputtino common input handling.">
<polygon fill="#999999" stroke="#666666" points="579.12,-168 448.38,-168 448.38,-136 579.12,-136 579.12,-168"/>
<text text-anchor="start" x="456.38" y="-154.5" font-family="Helvetica,sans-Serif" font-size="10.00">src/platform/linux</text>
<text text-anchor="middle" x="513.75" y="-142.5" font-family="Helvetica,sans-Serif" font-size="10.00">/input/inputtino_common.h</text>
</a>
</g>
</g>
<!-- Node2 -->
<g id="Node000002" class="node">
<title>Node2</title>
<g id="a_Node000002"><a xlink:href="inputtino_8cpp.html" target="_top" xlink:title="Definitions for the inputtino Linux input handling.">
<polygon fill="white" stroke="#666666" points="480,-32 381.5,-32 381.5,0 480,0 480,-32"/>
<text text-anchor="start" x="389.5" y="-18.5" font-family="Helvetica,sans-Serif" font-size="10.00">src/platform/linux</text>
<text text-anchor="middle" x="430.75" y="-6.5" font-family="Helvetica,sans-Serif" font-size="10.00">/input/inputtino.cpp</text>
</a>
</g>
</g>
<!-- Node1&#45;&gt;Node2 -->
<g id="edge1_Node000001_Node000002" class="edge">
<title>Node1&#45;&gt;Node2</title>
<g id="a_edge1_Node000001_Node000002"><a xlink:title=" ">
<path fill="none" stroke="#63b8ff" d="M473.32,-129.61C462.07,-121.75 450.97,-111.83 443.75,-100 430.98,-79.09 429.37,-49.88 429.78,-32.27"/>
<polygon fill="#63b8ff" stroke="#63b8ff" points="471.16,-132.38 481.45,-134.89 474.97,-126.51 471.16,-132.38"/>
</a>
</g>
</g>
<!-- Node3 -->
<g id="Node000003" class="node">
<title>Node3</title>
<g id="a_Node000003"><a xlink:href="inputtino__gamepad_8cpp.html" target="_top" xlink:title="Definitions for inputtino gamepad input handling.">
<polygon fill="white" stroke="#666666" points="143.5,-32 0,-32 0,0 143.5,0 143.5,-32"/>
<text text-anchor="start" x="8" y="-18.5" font-family="Helvetica,sans-Serif" font-size="10.00">src/platform/linux</text>
<text text-anchor="middle" x="71.75" y="-6.5" font-family="Helvetica,sans-Serif" font-size="10.00">/input/inputtino_gamepad.cpp</text>
</a>
</g>
</g>
<!-- Node1&#45;&gt;Node3 -->
<g id="edge2_Node000001_Node000003" class="edge">
<title>Node1&#45;&gt;Node3</title>
<g id="a_edge2_Node000001_Node000003"><a xlink:title=" ">
<path fill="none" stroke="#63b8ff" d="M436.84,-146.54C321.61,-139.15 114.89,-122.88 89.75,-100 71,-82.93 69.32,-51.33 70.23,-32.43"/>
<polygon fill="#63b8ff" stroke="#63b8ff" points="436.33,-150.02 446.53,-147.15 436.77,-143.03 436.33,-150.02"/>
</a>
</g>
</g>
<!-- Node4 -->
<g id="Node000004" class="node">
<title>Node4</title>
<g id="a_Node000004"><a xlink:href="inputtino__gamepad_8h.html" target="_top" xlink:title="Declarations for inputtino gamepad input handling.">
<polygon fill="white" stroke="#666666" points="245.25,-100 112.25,-100 112.25,-68 245.25,-68 245.25,-100"/>
<text text-anchor="start" x="120.25" y="-86.5" font-family="Helvetica,sans-Serif" font-size="10.00">src/platform/linux</text>
<text text-anchor="middle" x="178.75" y="-74.5" font-family="Helvetica,sans-Serif" font-size="10.00">/input/inputtino_gamepad.h</text>
</a>
</g>
</g>
<!-- Node1&#45;&gt;Node4 -->
<g id="edge3_Node000001_Node000004" class="edge">
<title>Node1&#45;&gt;Node4</title>
<g id="a_edge3_Node000001_Node000004"><a xlink:title=" ">
<path fill="none" stroke="#63b8ff" d="M436.97,-135.89C385.43,-125.75 316.01,-112.08 254.75,-100 251.72,-99.4 248.61,-98.79 245.48,-98.17"/>
<polygon fill="#63b8ff" stroke="#63b8ff" points="436.04,-139.28 446.53,-137.77 437.4,-132.41 436.04,-139.28"/>
</a>
</g>
</g>
<!-- Node5 -->
<g id="Node000005" class="node">
<title>Node5</title>
<g id="a_Node000005"><a xlink:href="inputtino__keyboard_8cpp.html" target="_top" xlink:title="Definitions for inputtino keyboard input handling.">
<polygon fill="white" stroke="#666666" points="344.5,-32 201,-32 201,0 344.5,0 344.5,-32"/>
<text text-anchor="start" x="209" y="-18.5" font-family="Helvetica,sans-Serif" font-size="10.00">src/platform/linux</text>
<text text-anchor="middle" x="272.75" y="-6.5" font-family="Helvetica,sans-Serif" font-size="10.00">/input/inputtino_keyboard.cpp</text>
</a>
</g>
</g>
<!-- Node1&#45;&gt;Node5 -->
<g id="edge6_Node000001_Node000005" class="edge">
<title>Node1&#45;&gt;Node5</title>
<g id="a_edge6_Node000001_Node000005"><a xlink:title=" ">
<path fill="none" stroke="#63b8ff" d="M436.91,-146.88C324.06,-140.03 124.47,-124.58 102.75,-100 68.66,-61.42 140.05,-38.97 200.53,-27.36"/>
<polygon fill="#63b8ff" stroke="#63b8ff" points="436.51,-150.36 446.7,-147.46 436.93,-143.37 436.51,-150.36"/>
</a>
</g>
</g>
<!-- Node6 -->
<g id="Node000006" class="node">
<title>Node6</title>
<g id="a_Node000006"><a xlink:href="inputtino__keyboard_8h.html" target="_top" xlink:title="Declarations for inputtino keyboard input handling.">
<polygon fill="white" stroke="#666666" points="396.25,-100 263.25,-100 263.25,-68 396.25,-68 396.25,-100"/>
<text text-anchor="start" x="271.25" y="-86.5" font-family="Helvetica,sans-Serif" font-size="10.00">src/platform/linux</text>
<text text-anchor="middle" x="329.75" y="-74.5" font-family="Helvetica,sans-Serif" font-size="10.00">/input/inputtino_keyboard.h</text>
</a>
</g>
</g>
<!-- Node1&#45;&gt;Node6 -->
<g id="edge7_Node000001_Node000006" class="edge">
<title>Node1&#45;&gt;Node6</title>
<g id="a_edge7_Node000001_Node000006"><a xlink:title=" ">
<path fill="none" stroke="#63b8ff" d="M459.91,-131.69C432.22,-121.76 398.92,-109.81 372.94,-100.49"/>
<polygon fill="#63b8ff" stroke="#63b8ff" points="458.59,-134.93 469.19,-135.01 460.95,-128.34 458.59,-134.93"/>
</a>
</g>
</g>
<!-- Node7 -->
<g id="Node000007" class="node">
<title>Node7</title>
<g id="a_Node000007"><a xlink:href="inputtino__mouse_8cpp.html" target="_top" xlink:title="Definitions for inputtino mouse input handling.">
<polygon fill="white" stroke="#666666" points="679.25,-32 546.25,-32 546.25,0 679.25,0 679.25,-32"/>
<text text-anchor="start" x="554.25" y="-18.5" font-family="Helvetica,sans-Serif" font-size="10.00">src/platform/linux</text>
<text text-anchor="middle" x="612.75" y="-6.5" font-family="Helvetica,sans-Serif" font-size="10.00">/input/inputtino_mouse.cpp</text>
</a>
</g>
</g>
<!-- Node1&#45;&gt;Node7 -->
<g id="edge10_Node000001_Node000007" class="edge">
<title>Node1&#45;&gt;Node7</title>
<g id="a_edge10_Node000001_Node000007"><a xlink:title=" ">
<path fill="none" stroke="#63b8ff" d="M590.58,-150.36C678.46,-147.81 814.4,-137.68 846.75,-100 856.01,-89.21 855.67,-79.08 846.75,-68 836.17,-54.87 745.01,-37.89 679.65,-27.23"/>
<polygon fill="#63b8ff" stroke="#63b8ff" points="590.73,-146.86 580.82,-150.62 590.91,-153.85 590.73,-146.86"/>
</a>
</g>
</g>
<!-- Node8 -->
<g id="Node000008" class="node">
<title>Node8</title>
<g id="a_Node000008"><a xlink:href="inputtino__mouse_8h.html" target="_top" xlink:title="Declarations for inputtino mouse input handling.">
<polygon fill="white" stroke="#666666" points="575,-100 452.5,-100 452.5,-68 575,-68 575,-100"/>
<text text-anchor="start" x="460.5" y="-86.5" font-family="Helvetica,sans-Serif" font-size="10.00">src/platform/linux</text>
<text text-anchor="middle" x="513.75" y="-74.5" font-family="Helvetica,sans-Serif" font-size="10.00">/input/inputtino_mouse.h</text>
</a>
</g>
</g>
<!-- Node1&#45;&gt;Node8 -->
<g id="edge11_Node000001_Node000008" class="edge">
<title>Node1&#45;&gt;Node8</title>
<g id="a_edge11_Node000001_Node000008"><a xlink:title=" ">
<path fill="none" stroke="#63b8ff" d="M513.75,-124.31C513.75,-116.12 513.75,-107.38 513.75,-100.22"/>
<polygon fill="#63b8ff" stroke="#63b8ff" points="510.25,-124.18 513.75,-134.18 517.25,-124.18 510.25,-124.18"/>
</a>
</g>
</g>
<!-- Node9 -->
<g id="Node000009" class="node">
<title>Node9</title>
<g id="a_Node000009"><a xlink:href="inputtino__pen_8cpp.html" target="_top" xlink:title="Definitions for inputtino pen input handling.">
<polygon fill="white" stroke="#666666" points="840.5,-32 721,-32 721,0 840.5,0 840.5,-32"/>
<text text-anchor="start" x="729" y="-18.5" font-family="Helvetica,sans-Serif" font-size="10.00">src/platform/linux</text>
<text text-anchor="middle" x="780.75" y="-6.5" font-family="Helvetica,sans-Serif" font-size="10.00">/input/inputtino_pen.cpp</text>
</a>
</g>
</g>
<!-- Node1&#45;&gt;Node9 -->
<g id="edge14_Node000001_Node000009" class="edge">
<title>Node1&#45;&gt;Node9</title>
<g id="a_edge14_Node000001_Node000009"><a xlink:title=" ">
<path fill="none" stroke="#63b8ff" d="M590.79,-151.03C682.96,-149.24 829.19,-139.96 863.75,-100 873.05,-89.24 870.69,-80.41 863.75,-68 854.83,-52.06 838.67,-40.49 822.96,-32.44"/>
<polygon fill="#63b8ff" stroke="#63b8ff" points="591.01,-147.53 581.07,-151.2 591.13,-154.53 591.01,-147.53"/>
</a>
</g>
</g>
<!-- Node10 -->
<g id="Node000010" class="node">
<title>Node10</title>
<g id="a_Node000010"><a xlink:href="inputtino__pen_8h.html" target="_top" xlink:title="Declarations for inputtino pen input handling.">
<polygon fill="white" stroke="#666666" points="702.25,-100 593.25,-100 593.25,-68 702.25,-68 702.25,-100"/>
<text text-anchor="start" x="601.25" y="-86.5" font-family="Helvetica,sans-Serif" font-size="10.00">src/platform/linux</text>
<text text-anchor="middle" x="647.75" y="-74.5" font-family="Helvetica,sans-Serif" font-size="10.00">/input/inputtino_pen.h</text>
</a>
</g>
</g>
<!-- Node1&#45;&gt;Node10 -->
<g id="edge15_Node000001_Node000010" class="edge">
<title>Node1&#45;&gt;Node10</title>
<g id="a_edge15_Node000001_Node000010"><a xlink:title=" ">
<path fill="none" stroke="#63b8ff" d="M555.43,-130.47C575.16,-120.75 598.34,-109.34 616.53,-100.38"/>
<polygon fill="#63b8ff" stroke="#63b8ff" points="553.95,-127.3 546.52,-134.86 557.04,-133.58 553.95,-127.3"/>
</a>
</g>
</g>
<!-- Node11 -->
<g id="Node000011" class="node">
<title>Node11</title>
<g id="a_Node000011"><a xlink:href="inputtino__touch_8cpp.html" target="_top" xlink:title="Definitions for inputtino touch input handling.">
<polygon fill="white" stroke="#666666" points="998.62,-32 870.88,-32 870.88,0 998.62,0 998.62,-32"/>
<text text-anchor="start" x="878.88" y="-18.5" font-family="Helvetica,sans-Serif" font-size="10.00">src/platform/linux</text>
<text text-anchor="middle" x="934.75" y="-6.5" font-family="Helvetica,sans-Serif" font-size="10.00">/input/inputtino_touch.cpp</text>
</a>
</g>
</g>
<!-- Node1&#45;&gt;Node11 -->
<g id="edge18_Node000001_Node000011" class="edge">
<title>Node1&#45;&gt;Node11</title>
<g id="a_edge18_Node000001_Node000011"><a xlink:title=" ">
<path fill="none" stroke="#63b8ff" d="M590.77,-147.74C683.89,-142.54 833.97,-129.72 880.75,-100 905.85,-84.05 921.69,-51.75 929.32,-32.49"/>
<polygon fill="#63b8ff" stroke="#63b8ff" points="590.73,-144.24 580.94,-148.27 591.11,-151.23 590.73,-144.24"/>
</a>
</g>
</g>
<!-- Node12 -->
<g id="Node000012" class="node">
<title>Node12</title>
<g id="a_Node000012"><a xlink:href="inputtino__touch_8h.html" target="_top" xlink:title="Declarations for inputtino touch input handling.">
<polygon fill="white" stroke="#666666" points="837.38,-100 720.12,-100 720.12,-68 837.38,-68 837.38,-100"/>
<text text-anchor="start" x="728.12" y="-86.5" font-family="Helvetica,sans-Serif" font-size="10.00">src/platform/linux</text>
<text text-anchor="middle" x="778.75" y="-74.5" font-family="Helvetica,sans-Serif" font-size="10.00">/input/inputtino_touch.h</text>
</a>
</g>
</g>
<!-- Node1&#45;&gt;Node12 -->
<g id="edge19_Node000001_Node000012" class="edge">
<title>Node1&#45;&gt;Node12</title>
<g id="a_edge19_Node000001_Node000012"><a xlink:title=" ">
<path fill="none" stroke="#63b8ff" d="M586.84,-132.8C628.69,-122.37 680.5,-109.47 719.74,-99.7"/>
<polygon fill="#63b8ff" stroke="#63b8ff" points="586.21,-129.35 577.35,-135.16 587.9,-136.14 586.21,-129.35"/>
</a>
</g>
</g>
<!-- Node4&#45;&gt;Node2 -->
<g id="edge4_Node000004_Node000002" class="edge">
<title>Node4&#45;&gt;Node2</title>
<g id="a_edge4_Node000004_Node000002"><a xlink:title=" ">
<path fill="none" stroke="#63b8ff" d="M248.86,-64.64C290.99,-53.6 343.58,-39.83 381.36,-29.93"/>
<polygon fill="#63b8ff" stroke="#63b8ff" points="248.08,-61.22 239.3,-67.14 249.86,-67.99 248.08,-61.22"/>
</a>
</g>
</g>
<!-- Node4&#45;&gt;Node3 -->
<g id="edge5_Node000004_Node000003" class="edge">
<title>Node4&#45;&gt;Node3</title>
<g id="a_edge5_Node000004_Node000003"><a xlink:title=" ">
<path fill="none" stroke="#63b8ff" d="M143.94,-61.53C128.52,-52.02 110.74,-41.05 96.68,-32.38"/>
<polygon fill="#63b8ff" stroke="#63b8ff" points="142.03,-64.46 152.38,-66.73 145.7,-58.5 142.03,-64.46"/>
</a>
</g>
</g>
<!-- Node6&#45;&gt;Node2 -->
<g id="edge8_Node000006_Node000002" class="edge">
<title>Node6&#45;&gt;Node2</title>
<g id="a_edge8_Node000006_Node000002"><a xlink:title=" ">
<path fill="none" stroke="#63b8ff" d="M363.03,-61.25C377.48,-51.81 394.07,-40.97 407.22,-32.38"/>
<polygon fill="#63b8ff" stroke="#63b8ff" points="361.15,-58.3 354.7,-66.7 364.98,-64.16 361.15,-58.3"/>
</a>
</g>
</g>
<!-- Node6&#45;&gt;Node5 -->
<g id="edge9_Node000006_Node000005" class="edge">
<title>Node6&#45;&gt;Node5</title>
<g id="a_edge9_Node000006_Node000005"><a xlink:title=" ">
<path fill="none" stroke="#63b8ff" d="M309.15,-59.15C301.4,-50.17 292.79,-40.21 285.9,-32.22"/>
<polygon fill="#63b8ff" stroke="#63b8ff" points="306.36,-61.27 315.54,-66.55 311.65,-56.69 306.36,-61.27"/>
</a>
</g>
</g>
<!-- Node8&#45;&gt;Node2 -->
<g id="edge12_Node000008_Node000002" class="edge">
<title>Node8&#45;&gt;Node2</title>
<g id="a_edge12_Node000008_Node000002"><a xlink:title=" ">
<path fill="none" stroke="#63b8ff" d="M485.58,-60.6C473.93,-51.34 460.72,-40.83 450.18,-32.45"/>
<polygon fill="#63b8ff" stroke="#63b8ff" points="483.31,-63.27 493.31,-66.75 487.67,-57.79 483.31,-63.27"/>
</a>
</g>
</g>
<!-- Node8&#45;&gt;Node7 -->
<g id="edge13_Node000008_Node000007" class="edge">
<title>Node8&#45;&gt;Node7</title>
<g id="a_edge13_Node000008_Node000007"><a xlink:title=" ">
<path fill="none" stroke="#63b8ff" d="M546.37,-61.25C560.54,-51.81 576.8,-40.97 589.68,-32.38"/>
<polygon fill="#63b8ff" stroke="#63b8ff" points="544.6,-58.23 538.22,-66.69 548.48,-64.05 544.6,-58.23"/>
</a>
</g>
</g>
<!-- Node10&#45;&gt;Node2 -->
<g id="edge16_Node000010_Node000002" class="edge">
<title>Node10&#45;&gt;Node2</title>
<g id="a_edge16_Node000010_Node000002"><a xlink:title=" ">
<path fill="none" stroke="#63b8ff" d="M586.26,-64.3C552.68,-54.09 511.66,-41.61 480.19,-32.04"/>
<polygon fill="#63b8ff" stroke="#63b8ff" points="584.84,-67.52 595.43,-67.09 586.88,-60.83 584.84,-67.52"/>
</a>
</g>
</g>
<!-- Node10&#45;&gt;Node9 -->
<g id="edge17_Node000010_Node000009" class="edge">
<title>Node10&#45;&gt;Node9</title>
<g id="a_edge17_Node000010_Node000009"><a xlink:title=" ">
<path fill="none" stroke="#63b8ff" d="M689.12,-62.47C708.7,-52.75 731.71,-41.34 749.76,-32.38"/>
<polygon fill="#63b8ff" stroke="#63b8ff" points="687.69,-59.27 680.29,-66.85 690.8,-65.54 687.69,-59.27"/>
</a>
</g>
</g>
<!-- Node12&#45;&gt;Node2 -->
<g id="edge20_Node000012_Node000002" class="edge">
<title>Node12&#45;&gt;Node2</title>
<g id="a_edge20_Node000012_Node000002"><a xlink:title=" ">
<path fill="none" stroke="#63b8ff" d="M708.72,-67.43C623.1,-50.25 534.23,-34.61 480.36,-25.37"/>
<polygon fill="#63b8ff" stroke="#63b8ff" points="707.97,-70.85 718.47,-69.39 709.36,-63.99 707.97,-70.85"/>
</a>
</g>
</g>
<!-- Node12&#45;&gt;Node11 -->
<g id="edge21_Node000012_Node000011" class="edge">
<title>Node12&#45;&gt;Node11</title>
<g id="a_edge21_Node000012_Node000011"><a xlink:title=" ">
<path fill="none" stroke="#63b8ff" d="M825.65,-63.16C848.87,-53.33 876.49,-41.65 898.13,-32.49"/>
<polygon fill="#63b8ff" stroke="#63b8ff" points="824.56,-59.82 816.72,-66.94 827.29,-66.26 824.56,-59.82"/>
</a>
</g>
</g>
</g>
</svg>
