<?xml version="1.0" encoding="UTF-8" standalone="no"?>
<!DOCTYPE svg PUBLIC "-//W3C//DTD SVG 1.1//EN"
 "http://www.w3.org/Graphics/SVG/1.1/DTD/svg11.dtd">
<!-- Generated by graphviz version 12.2.1 (0)
 -->
<!-- Title: src/platform/linux/input/inputtino_common.h Pages: 1 -->
<svg width="1425pt" height="276pt"
 viewBox="0.00 0.00 1425.12 276.00" xmlns="http://www.w3.org/2000/svg" xmlns:xlink="http://www.w3.org/1999/xlink">
<g id="graph0" class="graph" transform="scale(1 1) rotate(0) translate(4 272)">
<title>src/platform/linux/input/inputtino_common.h</title>
<!-- Node1 -->
<g id="Node000001" class="node">
<title>Node1</title>
<g id="a_Node000001"><a xlink:title="Declarations for inputtino common input handling.">
<polygon fill="#999999" stroke="#666666" points="429.88,-268 299.12,-268 299.12,-236 429.88,-236 429.88,-268"/>
<text text-anchor="start" x="307.12" y="-254.5" font-family="Helvetica,sans-Serif" font-size="10.00">src/platform/linux</text>
<text text-anchor="middle" x="364.5" y="-242.5" font-family="Helvetica,sans-Serif" font-size="10.00">/input/inputtino_common.h</text>
</a>
</g>
</g>
<!-- Node2 -->
<g id="Node000002" class="node">
<title>Node2</title>
<g id="a_Node000002"><a xlink:title=" ">
<polygon fill="#e0e0e0" stroke="#999999" points="107.12,-200 19.88,-200 19.88,-180 107.12,-180 107.12,-200"/>
<text text-anchor="middle" x="63.5" y="-186.5" font-family="Helvetica,sans-Serif" font-size="10.00">boost/locale.hpp</text>
</a>
</g>
</g>
<!-- Node1&#45;&gt;Node2 -->
<g id="edge1_Node000001_Node000002" class="edge">
<title>Node1&#45;&gt;Node2</title>
<g id="a_edge1_Node000001_Node000002"><a xlink:title=" ">
<path fill="none" stroke="#63b8ff" d="M298.82,-237.91C244.78,-227.14 169.09,-212.05 118.28,-201.92"/>
<polygon fill="#63b8ff" stroke="#63b8ff" points="119.17,-198.53 108.68,-200.01 117.8,-205.39 119.17,-198.53"/>
</a>
</g>
</g>
<!-- Node3 -->
<g id="Node000003" class="node">
<title>Node3</title>
<g id="a_Node000003"><a xlink:title=" ">
<polygon fill="#e0e0e0" stroke="#999999" points="220.25,-200 124.75,-200 124.75,-180 220.25,-180 220.25,-200"/>
<text text-anchor="middle" x="172.5" y="-186.5" font-family="Helvetica,sans-Serif" font-size="10.00">inputtino/input.hpp</text>
</a>
</g>
</g>
<!-- Node1&#45;&gt;Node3 -->
<g id="edge2_Node000001_Node000003" class="edge">
<title>Node1&#45;&gt;Node3</title>
<g id="a_edge2_Node000001_Node000003"><a xlink:title=" ">
<path fill="none" stroke="#63b8ff" d="M315.06,-235.55C283.63,-225.73 243.41,-213.16 213.72,-203.88"/>
<polygon fill="#63b8ff" stroke="#63b8ff" points="214.92,-200.59 204.33,-200.95 212.83,-207.27 214.92,-200.59"/>
</a>
</g>
</g>
<!-- Node4 -->
<g id="Node000004" class="node">
<title>Node4</title>
<g id="a_Node000004"><a xlink:title=" ">
<polygon fill="#e0e0e0" stroke="#999999" points="336.75,-200 238.25,-200 238.25,-180 336.75,-180 336.75,-200"/>
<text text-anchor="middle" x="287.5" y="-186.5" font-family="Helvetica,sans-Serif" font-size="10.00">libevdev/libevdev.h</text>
</a>
</g>
</g>
<!-- Node1&#45;&gt;Node4 -->
<g id="edge3_Node000001_Node000004" class="edge">
<title>Node1&#45;&gt;Node4</title>
<g id="a_edge3_Node000001_Node000004"><a xlink:title=" ">
<path fill="none" stroke="#63b8ff" d="M344.67,-235.55C333.53,-226.87 319.64,-216.04 308.34,-207.24"/>
<polygon fill="#63b8ff" stroke="#63b8ff" points="310.81,-204.72 300.77,-201.34 306.5,-210.25 310.81,-204.72"/>
</a>
</g>
</g>
<!-- Node5 -->
<g id="Node000005" class="node">
<title>Node5</title>
<g id="a_Node000005"><a xlink:href="config_8h.html" target="_top" xlink:title="Declarations for the configuration of Sunshine.">
<polygon fill="white" stroke="#666666" points="495,-76 428,-76 428,-56 495,-56 495,-76"/>
<text text-anchor="middle" x="461.5" y="-62.5" font-family="Helvetica,sans-Serif" font-size="10.00">src/config.h</text>
</a>
</g>
</g>
<!-- Node1&#45;&gt;Node5 -->
<g id="edge4_Node000001_Node000005" class="edge">
<title>Node1&#45;&gt;Node5</title>
<g id="a_edge4_Node000001_Node000005"><a xlink:title=" ">
<path fill="none" stroke="#63b8ff" d="M368.93,-235.59C376.97,-209.06 395.54,-153.6 421.5,-112 427.69,-102.08 436.11,-92.23 443.63,-84.29"/>
<polygon fill="#63b8ff" stroke="#63b8ff" points="445.98,-86.89 450.51,-77.31 441,-81.98 445.98,-86.89"/>
</a>
</g>
</g>
<!-- Node13 -->
<g id="Node000013" class="node">
<title>Node13</title>
<g id="a_Node000013"><a xlink:href="logging_8h.html" target="_top" xlink:title="Declarations for logging related functions.">
<polygon fill="white" stroke="#666666" points="331.25,-138 259.75,-138 259.75,-118 331.25,-118 331.25,-138"/>
<text text-anchor="middle" x="295.5" y="-124.5" font-family="Helvetica,sans-Serif" font-size="10.00">src/logging.h</text>
</a>
</g>
</g>
<!-- Node1&#45;&gt;Node13 -->
<g id="edge12_Node000001_Node000013" class="edge">
<title>Node1&#45;&gt;Node13</title>
<g id="a_edge12_Node000001_Node000013"><a xlink:title=" ">
<path fill="none" stroke="#63b8ff" d="M362.71,-235.73C360.45,-220.74 355.55,-197.62 345.5,-180 337.99,-166.84 326.26,-154.62 316.04,-145.45"/>
<polygon fill="#63b8ff" stroke="#63b8ff" points="318.63,-143.05 308.75,-139.2 314.07,-148.37 318.63,-143.05"/>
</a>
</g>
</g>
<!-- Node20 -->
<g id="Node000020" class="node">
<title>Node20</title>
<g id="a_Node000020"><a xlink:href="common_8h.html" target="_top" xlink:title="Declarations for common platform specific utilities.">
<polygon fill="white" stroke="#666666" points="735.75,-200 619.25,-200 619.25,-180 735.75,-180 735.75,-200"/>
<text text-anchor="middle" x="677.5" y="-186.5" font-family="Helvetica,sans-Serif" font-size="10.00">src/platform/common.h</text>
</a>
</g>
</g>
<!-- Node1&#45;&gt;Node20 -->
<g id="edge21_Node000001_Node000020" class="edge">
<title>Node1&#45;&gt;Node20</title>
<g id="a_edge21_Node000001_Node000020"><a xlink:title=" ">
<path fill="none" stroke="#63b8ff" d="M430.12,-238.42C485.34,-227.84 563.68,-212.82 617.32,-202.54"/>
<polygon fill="#63b8ff" stroke="#63b8ff" points="617.72,-206.02 626.88,-200.7 616.4,-199.15 617.72,-206.02"/>
</a>
</g>
</g>
<!-- Node29 -->
<g id="Node000029" class="node">
<title>Node29</title>
<g id="a_Node000029"><a xlink:href="utility_8h.html" target="_top" xlink:title="Declarations for utility functions.">
<polygon fill="white" stroke="#666666" points="1105.88,-76 1059.12,-76 1059.12,-56 1105.88,-56 1105.88,-76"/>
<text text-anchor="middle" x="1082.5" y="-62.5" font-family="Helvetica,sans-Serif" font-size="10.00">utility.h</text>
</a>
</g>
</g>
<!-- Node1&#45;&gt;Node29 -->
<g id="edge54_Node000001_Node000029" class="edge">
<title>Node1&#45;&gt;Node29</title>
<g id="a_edge54_Node000001_Node000029"><a xlink:title=" ">
<path fill="none" stroke="#63b8ff" d="M430.21,-247.46C617.86,-236.67 1145.97,-201.44 1196.5,-144 1205.89,-133.32 1204.5,-123.76 1196.5,-112 1178.88,-86.1 1143.83,-75.11 1117.22,-70.44"/>
<polygon fill="#63b8ff" stroke="#63b8ff" points="1117.95,-67.01 1107.54,-68.98 1116.9,-73.93 1117.95,-67.01"/>
</a>
</g>
</g>
<!-- Node6 -->
<g id="Node000006" class="node">
<title>Node6</title>
<g id="a_Node000006"><a xlink:title=" ">
<polygon fill="#e0e0e0" stroke="#999999" points="615.5,-20 575.5,-20 575.5,0 615.5,0 615.5,-20"/>
<text text-anchor="middle" x="595.5" y="-6.5" font-family="Helvetica,sans-Serif" font-size="10.00">bitset</text>
</a>
</g>
</g>
<!-- Node5&#45;&gt;Node6 -->
<g id="edge5_Node000005_Node000006" class="edge">
<title>Node5&#45;&gt;Node6</title>
<g id="a_edge5_Node000005_Node000006"><a xlink:title=" ">
<path fill="none" stroke="#63b8ff" d="M484.84,-55.59C506.95,-46.68 540.29,-33.25 564.6,-23.45"/>
<polygon fill="#63b8ff" stroke="#63b8ff" points="565.69,-26.79 573.65,-19.8 563.07,-20.3 565.69,-26.79"/>
</a>
</g>
</g>
<!-- Node7 -->
<g id="Node000007" class="node">
<title>Node7</title>
<g id="a_Node000007"><a xlink:title=" ">
<polygon fill="#e0e0e0" stroke="#999999" points="328.12,-20 282.88,-20 282.88,0 328.12,0 328.12,-20"/>
<text text-anchor="middle" x="305.5" y="-6.5" font-family="Helvetica,sans-Serif" font-size="10.00">chrono</text>
</a>
</g>
</g>
<!-- Node5&#45;&gt;Node7 -->
<g id="edge6_Node000005_Node000007" class="edge">
<title>Node5&#45;&gt;Node7</title>
<g id="a_edge6_Node000005_Node000007"><a xlink:title=" ">
<path fill="none" stroke="#63b8ff" d="M434.33,-55.59C407.82,-46.42 367.43,-32.44 338.96,-22.58"/>
<polygon fill="#63b8ff" stroke="#63b8ff" points="340.33,-19.35 329.74,-19.39 338.04,-25.97 340.33,-19.35"/>
</a>
</g>
</g>
<!-- Node8 -->
<g id="Node000008" class="node">
<title>Node8</title>
<g id="a_Node000008"><a xlink:title=" ">
<polygon fill="#e0e0e0" stroke="#999999" points="803.38,-20 753.62,-20 753.62,0 803.38,0 803.38,-20"/>
<text text-anchor="middle" x="778.5" y="-6.5" font-family="Helvetica,sans-Serif" font-size="10.00">optional</text>
</a>
</g>
</g>
<!-- Node5&#45;&gt;Node8 -->
<g id="edge7_Node000005_Node000008" class="edge">
<title>Node5&#45;&gt;Node8</title>
<g id="a_edge7_Node000005_Node000008"><a xlink:title=" ">
<path fill="none" stroke="#63b8ff" d="M495.25,-60.76C546.48,-54.07 647.13,-40 742.07,-20.33"/>
<polygon fill="#63b8ff" stroke="#63b8ff" points="742.77,-23.76 751.84,-18.28 741.33,-16.91 742.77,-23.76"/>
</a>
</g>
</g>
<!-- Node9 -->
<g id="Node000009" class="node">
<title>Node9</title>
<g id="a_Node000009"><a xlink:title=" ">
<polygon fill="#e0e0e0" stroke="#999999" points="735.5,-20 695.5,-20 695.5,0 735.5,0 735.5,-20"/>
<text text-anchor="middle" x="715.5" y="-6.5" font-family="Helvetica,sans-Serif" font-size="10.00">string</text>
</a>
</g>
</g>
<!-- Node5&#45;&gt;Node9 -->
<g id="edge8_Node000005_Node000009" class="edge">
<title>Node5&#45;&gt;Node9</title>
<g id="a_edge8_Node000005_Node000009"><a xlink:title=" ">
<path fill="none" stroke="#63b8ff" d="M495.29,-59.37C537.36,-52.11 611.62,-38.51 684.14,-20.39"/>
<polygon fill="#63b8ff" stroke="#63b8ff" points="684.99,-23.78 693.83,-17.94 683.27,-17 684.99,-23.78"/>
</a>
</g>
</g>
<!-- Node10 -->
<g id="Node000010" class="node">
<title>Node10</title>
<g id="a_Node000010"><a xlink:title=" ">
<polygon fill="#e0e0e0" stroke="#999999" points="557.88,-20 475.12,-20 475.12,0 557.88,0 557.88,-20"/>
<text text-anchor="middle" x="516.5" y="-6.5" font-family="Helvetica,sans-Serif" font-size="10.00">unordered_map</text>
</a>
</g>
</g>
<!-- Node5&#45;&gt;Node10 -->
<g id="edge9_Node000005_Node000010" class="edge">
<title>Node5&#45;&gt;Node10</title>
<g id="a_edge9_Node000005_Node000010"><a xlink:title=" ">
<path fill="none" stroke="#63b8ff" d="M471.08,-55.59C478.73,-48.08 489.66,-37.35 498.88,-28.3"/>
<polygon fill="#63b8ff" stroke="#63b8ff" points="501.27,-30.86 505.95,-21.36 496.36,-25.87 501.27,-30.86"/>
</a>
</g>
</g>
<!-- Node11 -->
<g id="Node000011" class="node">
<title>Node11</title>
<g id="a_Node000011"><a xlink:title=" ">
<polygon fill="#e0e0e0" stroke="#999999" points="677,-20 634,-20 634,0 677,0 677,-20"/>
<text text-anchor="middle" x="655.5" y="-6.5" font-family="Helvetica,sans-Serif" font-size="10.00">vector</text>
</a>
</g>
</g>
<!-- Node5&#45;&gt;Node11 -->
<g id="edge10_Node000005_Node000011" class="edge">
<title>Node5&#45;&gt;Node11</title>
<g id="a_edge10_Node000005_Node000011"><a xlink:title=" ">
<path fill="none" stroke="#63b8ff" d="M495.25,-55.82C525.99,-47.43 572.9,-34.55 622.8,-20.45"/>
<polygon fill="#63b8ff" stroke="#63b8ff" points="623.71,-23.83 632.37,-17.74 621.8,-17.1 623.71,-23.83"/>
</a>
</g>
</g>
<!-- Node12 -->
<g id="Node000012" class="node">
<title>Node12</title>
<g id="a_Node000012"><a xlink:href="nvenc__config_8h.html" target="_top" xlink:title="Declarations for NVENC encoder configuration.">
<polygon fill="white" stroke="#666666" points="457.12,-20 345.88,-20 345.88,0 457.12,0 457.12,-20"/>
<text text-anchor="middle" x="401.5" y="-6.5" font-family="Helvetica,sans-Serif" font-size="10.00">nvenc/nvenc_config.h</text>
</a>
</g>
</g>
<!-- Node5&#45;&gt;Node12 -->
<g id="edge11_Node000005_Node000012" class="edge">
<title>Node5&#45;&gt;Node12</title>
<g id="a_edge11_Node000005_Node000012"><a xlink:title=" ">
<path fill="none" stroke="#63b8ff" d="M451.05,-55.59C442.53,-47.93 430.29,-36.91 420.11,-27.75"/>
<polygon fill="#63b8ff" stroke="#63b8ff" points="422.73,-25.4 412.96,-21.31 418.05,-30.6 422.73,-25.4"/>
</a>
</g>
</g>
<!-- Node13&#45;&gt;Node5 -->
<g id="edge15_Node000013_Node000005" class="edge">
<title>Node13&#45;&gt;Node5</title>
<g id="a_edge15_Node000013_Node000005"><a xlink:title=" ">
<path fill="none" stroke="#63b8ff" d="M321.44,-117.62C349.25,-107.57 393.64,-91.53 424.98,-80.2"/>
<polygon fill="#63b8ff" stroke="#63b8ff" points="425.83,-83.61 434.05,-76.92 423.45,-77.03 425.83,-83.61"/>
</a>
</g>
</g>
<!-- Node14 -->
<g id="Node000014" class="node">
<title>Node14</title>
<g id="a_Node000014"><a xlink:title=" ">
<polygon fill="#e0e0e0" stroke="#999999" points="115,-76 0,-76 0,-56 115,-56 115,-76"/>
<text text-anchor="middle" x="57.5" y="-62.5" font-family="Helvetica,sans-Serif" font-size="10.00">boost/log/common.hpp</text>
</a>
</g>
</g>
<!-- Node13&#45;&gt;Node14 -->
<g id="edge13_Node000013_Node000014" class="edge">
<title>Node13&#45;&gt;Node14</title>
<g id="a_edge13_Node000013_Node000014"><a xlink:title=" ">
<path fill="none" stroke="#63b8ff" d="M259.35,-117.89C218.47,-107.58 151.7,-90.75 106.24,-79.29"/>
<polygon fill="#63b8ff" stroke="#63b8ff" points="107.19,-75.92 96.64,-76.87 105.48,-82.7 107.19,-75.92"/>
</a>
</g>
</g>
<!-- Node15 -->
<g id="Node000015" class="node">
<title>Node15</title>
<g id="a_Node000015"><a xlink:title=" ">
<polygon fill="#e0e0e0" stroke="#999999" points="233.88,-76 133.12,-76 133.12,-56 233.88,-56 233.88,-76"/>
<text text-anchor="middle" x="183.5" y="-62.5" font-family="Helvetica,sans-Serif" font-size="10.00">boost/log/sinks.hpp</text>
</a>
</g>
</g>
<!-- Node13&#45;&gt;Node15 -->
<g id="edge14_Node000013_Node000015" class="edge">
<title>Node13&#45;&gt;Node15</title>
<g id="a_edge14_Node000013_Node000015"><a xlink:title=" ">
<path fill="none" stroke="#63b8ff" d="M278,-117.62C260,-107.98 231.71,-92.83 210.78,-81.61"/>
<polygon fill="#63b8ff" stroke="#63b8ff" points="212.68,-78.66 202.21,-77.02 209.37,-84.83 212.68,-78.66"/>
</a>
</g>
</g>
<!-- Node16 -->
<g id="Node000016" class="node">
<title>Node16</title>
<g id="a_Node000016"><a xlink:href="stat__trackers_8h.html" target="_top" xlink:title="Declarations for streaming statistic tracking.">
<polygon fill="white" stroke="#666666" points="333.12,-76 251.88,-76 251.88,-56 333.12,-56 333.12,-76"/>
<text text-anchor="middle" x="292.5" y="-62.5" font-family="Helvetica,sans-Serif" font-size="10.00">stat_trackers.h</text>
</a>
</g>
</g>
<!-- Node13&#45;&gt;Node16 -->
<g id="edge16_Node000013_Node000016" class="edge">
<title>Node13&#45;&gt;Node16</title>
<g id="a_edge16_Node000013_Node000016"><a xlink:title=" ">
<path fill="none" stroke="#63b8ff" d="M295.03,-117.62C294.63,-109.56 294.03,-97.65 293.52,-87.41"/>
<polygon fill="#63b8ff" stroke="#63b8ff" points="297.03,-87.44 293.03,-77.62 290.04,-87.79 297.03,-87.44"/>
</a>
</g>
</g>
<!-- Node16&#45;&gt;Node7 -->
<g id="edge17_Node000016_Node000007" class="edge">
<title>Node16&#45;&gt;Node7</title>
<g id="a_edge17_Node000016_Node000007"><a xlink:title=" ">
<path fill="none" stroke="#63b8ff" d="M294.76,-55.59C296.37,-48.93 298.58,-39.75 300.58,-31.44"/>
<polygon fill="#63b8ff" stroke="#63b8ff" points="303.97,-32.31 302.91,-21.77 297.16,-30.67 303.97,-32.31"/>
</a>
</g>
</g>
<!-- Node17 -->
<g id="Node000017" class="node">
<title>Node17</title>
<g id="a_Node000017"><a xlink:title=" ">
<polygon fill="#e0e0e0" stroke="#999999" points="264.5,-20 206.5,-20 206.5,0 264.5,0 264.5,-20"/>
<text text-anchor="middle" x="235.5" y="-6.5" font-family="Helvetica,sans-Serif" font-size="10.00">functional</text>
</a>
</g>
</g>
<!-- Node16&#45;&gt;Node17 -->
<g id="edge18_Node000016_Node000017" class="edge">
<title>Node16&#45;&gt;Node17</title>
<g id="a_edge18_Node000016_Node000017"><a xlink:title=" ">
<path fill="none" stroke="#63b8ff" d="M282.57,-55.59C274.56,-48.01 263.08,-37.13 253.47,-28.02"/>
<polygon fill="#63b8ff" stroke="#63b8ff" points="256.08,-25.68 246.41,-21.34 251.27,-30.76 256.08,-25.68"/>
</a>
</g>
</g>
<!-- Node18 -->
<g id="Node000018" class="node">
<title>Node18</title>
<g id="a_Node000018"><a xlink:title=" ">
<polygon fill="#e0e0e0" stroke="#999999" points="81.12,-20 41.88,-20 41.88,0 81.12,0 81.12,-20"/>
<text text-anchor="middle" x="61.5" y="-6.5" font-family="Helvetica,sans-Serif" font-size="10.00">limits</text>
</a>
</g>
</g>
<!-- Node16&#45;&gt;Node18 -->
<g id="edge19_Node000016_Node000018" class="edge">
<title>Node16&#45;&gt;Node18</title>
<g id="a_edge19_Node000016_Node000018"><a xlink:title=" ">
<path fill="none" stroke="#63b8ff" d="M251.4,-57.06C212.53,-49.29 152.37,-36.6 92.41,-20.63"/>
<polygon fill="#63b8ff" stroke="#63b8ff" points="93.65,-17.33 83.08,-18.11 91.83,-24.09 93.65,-17.33"/>
</a>
</g>
</g>
<!-- Node19 -->
<g id="Node000019" class="node">
<title>Node19</title>
<g id="a_Node000019"><a xlink:title=" ">
<polygon fill="#e0e0e0" stroke="#999999" points="188.25,-20 98.75,-20 98.75,0 188.25,0 188.25,-20"/>
<text text-anchor="middle" x="143.5" y="-6.5" font-family="Helvetica,sans-Serif" font-size="10.00">boost/format.hpp</text>
</a>
</g>
</g>
<!-- Node16&#45;&gt;Node19 -->
<g id="edge20_Node000016_Node000019" class="edge">
<title>Node16&#45;&gt;Node19</title>
<g id="a_edge20_Node000016_Node000019"><a xlink:title=" ">
<path fill="none" stroke="#63b8ff" d="M266.55,-55.59C242.66,-46.94 206.97,-34 180.17,-24.29"/>
<polygon fill="#63b8ff" stroke="#63b8ff" points="181.67,-21.11 171.08,-21 179.29,-27.69 181.67,-21.11"/>
</a>
</g>
</g>
<!-- Node20&#45;&gt;Node5 -->
<g id="edge28_Node000020_Node000005" class="edge">
<title>Node20&#45;&gt;Node5</title>
<g id="a_edge28_Node000020_Node000005"><a xlink:title=" ">
<path fill="none" stroke="#63b8ff" d="M656.45,-179.61C638.06,-171.11 610.88,-157.84 588.5,-144 568.24,-131.47 565.61,-124.77 545.5,-112 527.97,-100.87 507.44,-89.84 491.06,-81.48"/>
<polygon fill="#63b8ff" stroke="#63b8ff" points="492.83,-78.45 482.33,-77.08 489.69,-84.71 492.83,-78.45"/>
</a>
</g>
</g>
<!-- Node20&#45;&gt;Node6 -->
<g id="edge22_Node000020_Node000006" class="edge">
<title>Node20&#45;&gt;Node6</title>
<g id="a_edge22_Node000020_Node000006"><a xlink:title=" ">
<path fill="none" stroke="#63b8ff" d="M665.86,-179.7C633.71,-153.98 545.85,-83.25 542.5,-76 533.73,-57.04 551.43,-38.92 568.69,-26.65"/>
<polygon fill="#63b8ff" stroke="#63b8ff" points="570.37,-29.73 576.79,-21.31 566.52,-23.89 570.37,-29.73"/>
</a>
</g>
</g>
<!-- Node20&#45;&gt;Node9 -->
<g id="edge26_Node000020_Node000009" class="edge">
<title>Node20&#45;&gt;Node9</title>
<g id="a_edge26_Node000020_Node000009"><a xlink:title=" ">
<path fill="none" stroke="#63b8ff" d="M693.72,-179.53C706.06,-171.54 722.55,-159.01 732.5,-144 749.91,-117.75 748.01,-107.18 752.5,-76 753.77,-67.2 755.5,-64.37 752.5,-56 748.82,-45.73 741.68,-36.13 734.64,-28.46"/>
<polygon fill="#63b8ff" stroke="#63b8ff" points="737.24,-26.11 727.71,-21.48 732.28,-31.04 737.24,-26.11"/>
</a>
</g>
</g>
<!-- Node20&#45;&gt;Node13 -->
<g id="edge29_Node000020_Node000013" class="edge">
<title>Node20&#45;&gt;Node13</title>
<g id="a_edge29_Node000020_Node000013"><a xlink:title=" ">
<path fill="none" stroke="#63b8ff" d="M618.94,-183.61C552.62,-176.91 441.55,-163.87 347.5,-144 343.91,-143.24 340.21,-142.37 336.52,-141.43"/>
<polygon fill="#63b8ff" stroke="#63b8ff" points="337.59,-138.09 327.02,-138.87 335.76,-144.85 337.59,-138.09"/>
</a>
</g>
</g>
<!-- Node20&#45;&gt;Node17 -->
<g id="edge24_Node000020_Node000017" class="edge">
<title>Node20&#45;&gt;Node17</title>
<g id="a_edge24_Node000020_Node000017"><a xlink:title=" ">
<path fill="none" stroke="#63b8ff" d="M619.01,-189.4C564.65,-187.4 483.05,-178.16 421.5,-144 375.54,-118.5 385.32,-86.48 342.5,-56 322.32,-41.63 296.85,-30.69 275.83,-23.19"/>
<polygon fill="#63b8ff" stroke="#63b8ff" points="277.01,-19.9 266.41,-19.98 274.74,-26.52 277.01,-19.9"/>
</a>
</g>
</g>
<!-- Node21 -->
<g id="Node000021" class="node">
<title>Node21</title>
<g id="a_Node000021"><a xlink:title=" ">
<polygon fill="#e0e0e0" stroke="#999999" points="842,-138 781,-138 781,-118 842,-118 842,-138"/>
<text text-anchor="middle" x="811.5" y="-124.5" font-family="Helvetica,sans-Serif" font-size="10.00">filesystem</text>
</a>
</g>
</g>
<!-- Node20&#45;&gt;Node21 -->
<g id="edge23_Node000020_Node000021" class="edge">
<title>Node20&#45;&gt;Node21</title>
<g id="a_edge23_Node000020_Node000021"><a xlink:title=" ">
<path fill="none" stroke="#63b8ff" d="M698.44,-179.62C720.37,-169.81 755.06,-154.27 780.23,-143"/>
<polygon fill="#63b8ff" stroke="#63b8ff" points="781.63,-146.21 789.33,-138.93 778.77,-139.82 781.63,-146.21"/>
</a>
</g>
</g>
<!-- Node22 -->
<g id="Node000022" class="node">
<title>Node22</title>
<g id="a_Node000022"><a xlink:title=" ">
<polygon fill="#e0e0e0" stroke="#999999" points="977,-20 934,-20 934,0 977,0 977,-20"/>
<text text-anchor="middle" x="955.5" y="-6.5" font-family="Helvetica,sans-Serif" font-size="10.00">mutex</text>
</a>
</g>
</g>
<!-- Node20&#45;&gt;Node22 -->
<g id="edge25_Node000020_Node000022" class="edge">
<title>Node20&#45;&gt;Node22</title>
<g id="a_edge25_Node000020_Node000022"><a xlink:title=" ">
<path fill="none" stroke="#63b8ff" d="M735.96,-185.06C772.23,-180.07 818.11,-168.91 851.5,-144 888.1,-116.7 875.26,-91.07 904.5,-56 913.21,-45.55 924.41,-35.4 934.09,-27.38"/>
<polygon fill="#63b8ff" stroke="#63b8ff" points="935.98,-30.35 941.6,-21.37 931.61,-24.89 935.98,-30.35"/>
</a>
</g>
</g>
<!-- Node23 -->
<g id="Node000023" class="node">
<title>Node23</title>
<g id="a_Node000023"><a xlink:title=" ">
<polygon fill="#e0e0e0" stroke="#999999" points="1170.62,-138 1032.38,-138 1032.38,-118 1170.62,-118 1170.62,-138"/>
<text text-anchor="middle" x="1101.5" y="-124.5" font-family="Helvetica,sans-Serif" font-size="10.00">boost/core/noncopyable.hpp</text>
</a>
</g>
</g>
<!-- Node20&#45;&gt;Node23 -->
<g id="edge27_Node000020_Node000023" class="edge">
<title>Node20&#45;&gt;Node23</title>
<g id="a_edge27_Node000020_Node000023"><a xlink:title=" ">
<path fill="none" stroke="#63b8ff" d="M736.12,-182.47C805.07,-174.55 922.88,-160.2 1023.5,-144 1030.04,-142.95 1036.87,-141.76 1043.66,-140.53"/>
<polygon fill="#63b8ff" stroke="#63b8ff" points="1044.29,-143.97 1053.49,-138.7 1043.02,-137.09 1044.29,-143.97"/>
</a>
</g>
</g>
<!-- Node24 -->
<g id="Node000024" class="node">
<title>Node24</title>
<g id="a_Node000024"><a xlink:href="thread__safe_8h.html" target="_top" xlink:title="Declarations for thread&#45;safe data structures.">
<polygon fill="white" stroke="#666666" points="723.38,-138 631.62,-138 631.62,-118 723.38,-118 723.38,-138"/>
<text text-anchor="middle" x="677.5" y="-124.5" font-family="Helvetica,sans-Serif" font-size="10.00">src/thread_safe.h</text>
</a>
</g>
</g>
<!-- Node20&#45;&gt;Node24 -->
<g id="edge30_Node000020_Node000024" class="edge">
<title>Node20&#45;&gt;Node24</title>
<g id="a_edge30_Node000020_Node000024"><a xlink:title=" ">
<path fill="none" stroke="#63b8ff" d="M677.5,-179.62C677.5,-171.56 677.5,-159.65 677.5,-149.41"/>
<polygon fill="#63b8ff" stroke="#63b8ff" points="681,-149.63 677.5,-139.63 674,-149.63 681,-149.63"/>
</a>
</g>
</g>
<!-- Node20&#45;&gt;Node29 -->
<g id="edge50_Node000020_Node000029" class="edge">
<title>Node20&#45;&gt;Node29</title>
<g id="a_edge50_Node000020_Node000029"><a xlink:title=" ">
<path fill="none" stroke="#63b8ff" d="M736.23,-188.09C862.36,-185.52 1150.09,-176.17 1179.5,-144 1189.1,-133.5 1187.15,-123.99 1179.5,-112 1165.8,-90.55 1138.96,-79.17 1116.97,-73.22"/>
<polygon fill="#63b8ff" stroke="#63b8ff" points="1118.03,-69.88 1107.49,-70.94 1116.39,-76.68 1118.03,-69.88"/>
</a>
</g>
</g>
<!-- Node36 -->
<g id="Node000036" class="node">
<title>Node36</title>
<g id="a_Node000036"><a xlink:href="video__colorspace_8h.html" target="_top" xlink:title="Declarations for colorspace functions.">
<polygon fill="white" stroke="#666666" points="1014.75,-138 898.25,-138 898.25,-118 1014.75,-118 1014.75,-138"/>
<text text-anchor="middle" x="956.5" y="-124.5" font-family="Helvetica,sans-Serif" font-size="10.00">src/video_colorspace.h</text>
</a>
</g>
</g>
<!-- Node20&#45;&gt;Node36 -->
<g id="edge51_Node000020_Node000036" class="edge">
<title>Node20&#45;&gt;Node36</title>
<g id="a_edge51_Node000020_Node000036"><a xlink:title=" ">
<path fill="none" stroke="#63b8ff" d="M721.4,-179.56C770.01,-169.11 848.46,-152.24 901.22,-140.89"/>
<polygon fill="#63b8ff" stroke="#63b8ff" points="901.87,-144.33 910.92,-138.8 900.4,-137.48 901.87,-144.33"/>
</a>
</g>
</g>
<!-- Node38 -->
<g id="Node000038" class="node">
<title>Node38</title>
<g id="a_Node000038"><a xlink:title=" ">
<polygon fill="#e0e0e0" stroke="#999999" points="536.88,-144 430.12,-144 430.12,-112 536.88,-112 536.88,-144"/>
<text text-anchor="start" x="438.12" y="-130.5" font-family="Helvetica,sans-Serif" font-size="10.00">moonlight&#45;common&#45;c</text>
<text text-anchor="middle" x="483.5" y="-118.5" font-family="Helvetica,sans-Serif" font-size="10.00">/src/Limelight.h</text>
</a>
</g>
</g>
<!-- Node20&#45;&gt;Node38 -->
<g id="edge53_Node000020_Node000038" class="edge">
<title>Node20&#45;&gt;Node38</title>
<g id="a_edge53_Node000020_Node000038"><a xlink:title=" ">
<path fill="none" stroke="#63b8ff" d="M647.19,-179.62C619.78,-171.15 578.61,-158.42 544.42,-147.84"/>
<polygon fill="#63b8ff" stroke="#63b8ff" points="545.62,-144.55 535.03,-144.94 543.55,-151.24 545.62,-144.55"/>
</a>
</g>
</g>
<!-- Node24&#45;&gt;Node11 -->
<g id="edge37_Node000024_Node000011" class="edge">
<title>Node24&#45;&gt;Node11</title>
<g id="a_edge37_Node000024_Node000011"><a xlink:title=" ">
<path fill="none" stroke="#63b8ff" d="M675.7,-117.51C672.15,-98.81 664.19,-56.82 659.39,-31.51"/>
<polygon fill="#63b8ff" stroke="#63b8ff" points="662.85,-30.96 657.55,-21.79 655.97,-32.26 662.85,-30.96"/>
</a>
</g>
</g>
<!-- Node24&#45;&gt;Node17 -->
<g id="edge34_Node000024_Node000017" class="edge">
<title>Node24&#45;&gt;Node17</title>
<g id="a_edge34_Node000024_Node000017"><a xlink:title=" ">
<path fill="none" stroke="#63b8ff" d="M631.49,-121.19C579.24,-113.83 491.88,-99.26 419.5,-76 399.05,-69.43 395.54,-63.74 375.5,-56 342.43,-43.22 304.04,-31.06 275.84,-22.61"/>
<polygon fill="#63b8ff" stroke="#63b8ff" points="276.83,-19.26 266.25,-19.77 274.84,-25.97 276.83,-19.26"/>
</a>
</g>
</g>
<!-- Node24&#45;&gt;Node22 -->
<g id="edge36_Node000024_Node000022" class="edge">
<title>Node24&#45;&gt;Node22</title>
<g id="a_edge36_Node000024_Node000022"><a xlink:title=" ">
<path fill="none" stroke="#63b8ff" d="M700.25,-117.51C749.49,-96.96 866.07,-48.32 923.04,-24.55"/>
<polygon fill="#63b8ff" stroke="#63b8ff" points="924.32,-27.8 932.2,-20.72 921.62,-21.34 924.32,-27.8"/>
</a>
</g>
</g>
<!-- Node25 -->
<g id="Node000025" class="node">
<title>Node25</title>
<g id="a_Node000025"><a xlink:title=" ">
<polygon fill="#e0e0e0" stroke="#999999" points="641.38,-76 603.62,-76 603.62,-56 641.38,-56 641.38,-76"/>
<text text-anchor="middle" x="622.5" y="-62.5" font-family="Helvetica,sans-Serif" font-size="10.00">array</text>
</a>
</g>
</g>
<!-- Node24&#45;&gt;Node25 -->
<g id="edge31_Node000024_Node000025" class="edge">
<title>Node24&#45;&gt;Node25</title>
<g id="a_edge31_Node000024_Node000025"><a xlink:title=" ">
<path fill="none" stroke="#63b8ff" d="M668.91,-117.62C660.79,-108.77 648.41,-95.26 638.47,-84.43"/>
<polygon fill="#63b8ff" stroke="#63b8ff" points="641.21,-82.23 631.88,-77.23 636.05,-86.97 641.21,-82.23"/>
</a>
</g>
</g>
<!-- Node26 -->
<g id="Node000026" class="node">
<title>Node26</title>
<g id="a_Node000026"><a xlink:title=" ">
<polygon fill="#e0e0e0" stroke="#999999" points="743.12,-76 697.88,-76 697.88,-56 743.12,-56 743.12,-76"/>
<text text-anchor="middle" x="720.5" y="-62.5" font-family="Helvetica,sans-Serif" font-size="10.00">atomic</text>
</a>
</g>
</g>
<!-- Node24&#45;&gt;Node26 -->
<g id="edge32_Node000024_Node000026" class="edge">
<title>Node24&#45;&gt;Node26</title>
<g id="a_edge32_Node000024_Node000026"><a xlink:title=" ">
<path fill="none" stroke="#63b8ff" d="M684.22,-117.62C690.38,-109.03 699.67,-96.07 707.31,-85.41"/>
<polygon fill="#63b8ff" stroke="#63b8ff" points="710.11,-87.51 713.09,-77.34 704.42,-83.43 710.11,-87.51"/>
</a>
</g>
</g>
<!-- Node27 -->
<g id="Node000027" class="node">
<title>Node27</title>
<g id="a_Node000027"><a xlink:title=" ">
<polygon fill="#e0e0e0" stroke="#999999" points="915.5,-20 821.5,-20 821.5,0 915.5,0 915.5,-20"/>
<text text-anchor="middle" x="868.5" y="-6.5" font-family="Helvetica,sans-Serif" font-size="10.00">condition_variable</text>
</a>
</g>
</g>
<!-- Node24&#45;&gt;Node27 -->
<g id="edge33_Node000024_Node000027" class="edge">
<title>Node24&#45;&gt;Node27</title>
<g id="a_edge33_Node000024_Node000027"><a xlink:title=" ">
<path fill="none" stroke="#63b8ff" d="M693.13,-117.51C726.09,-97.49 802.97,-50.8 843.1,-26.42"/>
<polygon fill="#63b8ff" stroke="#63b8ff" points="844.9,-29.43 851.63,-21.25 841.26,-23.45 844.9,-29.43"/>
</a>
</g>
</g>
<!-- Node28 -->
<g id="Node000028" class="node">
<title>Node28</title>
<g id="a_Node000028"><a xlink:title=" ">
<polygon fill="#e0e0e0" stroke="#999999" points="585.88,-76 551.12,-76 551.12,-56 585.88,-56 585.88,-76"/>
<text text-anchor="middle" x="568.5" y="-62.5" font-family="Helvetica,sans-Serif" font-size="10.00">map</text>
</a>
</g>
</g>
<!-- Node24&#45;&gt;Node28 -->
<g id="edge35_Node000024_Node000028" class="edge">
<title>Node24&#45;&gt;Node28</title>
<g id="a_edge35_Node000024_Node000028"><a xlink:title=" ">
<path fill="none" stroke="#63b8ff" d="M660.47,-117.62C643.03,-108.03 615.67,-92.97 595.32,-81.77"/>
<polygon fill="#63b8ff" stroke="#63b8ff" points="597.19,-78.8 586.74,-77.04 593.81,-84.93 597.19,-78.8"/>
</a>
</g>
</g>
<!-- Node24&#45;&gt;Node29 -->
<g id="edge38_Node000024_Node000029" class="edge">
<title>Node24&#45;&gt;Node29</title>
<g id="a_edge38_Node000024_Node000029"><a xlink:title=" ">
<path fill="none" stroke="#63b8ff" d="M723.87,-119.56C739.33,-117.11 756.65,-114.4 772.5,-112 872.15,-96.9 989.97,-80.08 1047.44,-71.94"/>
<polygon fill="#63b8ff" stroke="#63b8ff" points="1047.85,-75.42 1057.26,-70.56 1046.87,-68.49 1047.85,-75.42"/>
</a>
</g>
</g>
<!-- Node29&#45;&gt;Node8 -->
<g id="edge43_Node000029_Node000008" class="edge">
<title>Node29&#45;&gt;Node8</title>
<g id="a_edge43_Node000029_Node000008"><a xlink:title=" ">
<path fill="none" stroke="#63b8ff" d="M1058.88,-61.82C1013.52,-55.56 910.86,-40.61 814.76,-20.32"/>
<polygon fill="#63b8ff" stroke="#63b8ff" points="815.68,-16.93 805.17,-18.26 814.21,-23.78 815.68,-16.93"/>
</a>
</g>
</g>
<!-- Node29&#45;&gt;Node9 -->
<g id="edge45_Node000029_Node000009" class="edge">
<title>Node29&#45;&gt;Node9</title>
<g id="a_edge45_Node000029_Node000009"><a xlink:title=" ">
<path fill="none" stroke="#63b8ff" d="M1058.66,-61.94C990.88,-53.22 799,-28.44 747.03,-19.86"/>
<polygon fill="#63b8ff" stroke="#63b8ff" points="747.94,-16.47 737.47,-18.1 746.67,-23.35 747.94,-16.47"/>
</a>
</g>
</g>
<!-- Node29&#45;&gt;Node11 -->
<g id="edge49_Node000029_Node000011" class="edge">
<title>Node29&#45;&gt;Node11</title>
<g id="a_edge49_Node000029_Node000011"><a xlink:title=" ">
<path fill="none" stroke="#63b8ff" d="M1058.84,-61.96C1044.79,-60.18 1026.64,-57.91 1010.5,-56 870.13,-39.43 830.51,-47.86 688.27,-20.02"/>
<polygon fill="#63b8ff" stroke="#63b8ff" points="689.37,-16.67 678.88,-18.16 688.01,-23.54 689.37,-16.67"/>
</a>
</g>
</g>
<!-- Node29&#45;&gt;Node22 -->
<g id="edge42_Node000029_Node000022" class="edge">
<title>Node29&#45;&gt;Node22</title>
<g id="a_edge42_Node000029_Node000022"><a xlink:title=" ">
<path fill="none" stroke="#63b8ff" d="M1060.38,-55.59C1040.35,-47.08 1010.58,-34.42 987.88,-24.77"/>
<polygon fill="#63b8ff" stroke="#63b8ff" points="989.33,-21.58 978.76,-20.89 986.59,-28.02 989.33,-21.58"/>
</a>
</g>
</g>
<!-- Node29&#45;&gt;Node27 -->
<g id="edge40_Node000029_Node000027" class="edge">
<title>Node29&#45;&gt;Node27</title>
<g id="a_edge40_Node000029_Node000027"><a xlink:title=" ">
<path fill="none" stroke="#63b8ff" d="M1058.78,-59.01C1024.74,-50.43 961.28,-34.41 917.05,-23.25"/>
<polygon fill="#63b8ff" stroke="#63b8ff" points="917.99,-19.88 907.43,-20.82 916.27,-26.67 917.99,-19.88"/>
</a>
</g>
</g>
<!-- Node30 -->
<g id="Node000030" class="node">
<title>Node30</title>
<g id="a_Node000030"><a xlink:title=" ">
<polygon fill="#e0e0e0" stroke="#999999" points="1278.38,-20 1222.62,-20 1222.62,0 1278.38,0 1278.38,-20"/>
<text text-anchor="middle" x="1250.5" y="-6.5" font-family="Helvetica,sans-Serif" font-size="10.00">algorithm</text>
</a>
</g>
</g>
<!-- Node29&#45;&gt;Node30 -->
<g id="edge39_Node000029_Node000030" class="edge">
<title>Node29&#45;&gt;Node30</title>
<g id="a_edge39_Node000029_Node000030"><a xlink:title=" ">
<path fill="none" stroke="#63b8ff" d="M1106.21,-57.38C1133.48,-48.61 1178.66,-34.09 1211.2,-23.63"/>
<polygon fill="#63b8ff" stroke="#63b8ff" points="1212.25,-26.97 1220.7,-20.58 1210.1,-20.31 1212.25,-26.97"/>
</a>
</g>
</g>
<!-- Node31 -->
<g id="Node000031" class="node">
<title>Node31</title>
<g id="a_Node000031"><a xlink:title=" ">
<polygon fill="#e0e0e0" stroke="#999999" points="1348.12,-20 1296.88,-20 1296.88,0 1348.12,0 1348.12,-20"/>
<text text-anchor="middle" x="1322.5" y="-6.5" font-family="Helvetica,sans-Serif" font-size="10.00">memory</text>
</a>
</g>
</g>
<!-- Node29&#45;&gt;Node31 -->
<g id="edge41_Node000029_Node000031" class="edge">
<title>Node29&#45;&gt;Node31</title>
<g id="a_edge41_Node000029_Node000031"><a xlink:title=" ">
<path fill="none" stroke="#63b8ff" d="M1106.24,-60.08C1142.62,-52.47 1214.62,-37.17 1285.61,-20.38"/>
<polygon fill="#63b8ff" stroke="#63b8ff" points="1286.14,-23.86 1295.06,-18.14 1284.52,-17.05 1286.14,-23.86"/>
</a>
</g>
</g>
<!-- Node32 -->
<g id="Node000032" class="node">
<title>Node32</title>
<g id="a_Node000032"><a xlink:title=" ">
<polygon fill="#e0e0e0" stroke="#999999" points="1417.12,-20 1365.88,-20 1365.88,0 1417.12,0 1417.12,-20"/>
<text text-anchor="middle" x="1391.5" y="-6.5" font-family="Helvetica,sans-Serif" font-size="10.00">ostream</text>
</a>
</g>
</g>
<!-- Node29&#45;&gt;Node32 -->
<g id="edge44_Node000029_Node000032" class="edge">
<title>Node29&#45;&gt;Node32</title>
<g id="a_edge44_Node000029_Node000032"><a xlink:title=" ">
<path fill="none" stroke="#63b8ff" d="M1106.19,-61.91C1152.2,-55.74 1257.07,-40.87 1354.36,-20.52"/>
<polygon fill="#63b8ff" stroke="#63b8ff" points="1355.04,-23.95 1364.09,-18.45 1353.58,-17.1 1355.04,-23.95"/>
</a>
</g>
</g>
<!-- Node33 -->
<g id="Node000033" class="node">
<title>Node33</title>
<g id="a_Node000033"><a xlink:title=" ">
<polygon fill="#e0e0e0" stroke="#999999" points="1060.25,-20 994.75,-20 994.75,0 1060.25,0 1060.25,-20"/>
<text text-anchor="middle" x="1027.5" y="-6.5" font-family="Helvetica,sans-Serif" font-size="10.00">string_view</text>
</a>
</g>
</g>
<!-- Node29&#45;&gt;Node33 -->
<g id="edge46_Node000029_Node000033" class="edge">
<title>Node29&#45;&gt;Node33</title>
<g id="a_edge46_Node000029_Node000033"><a xlink:title=" ">
<path fill="none" stroke="#63b8ff" d="M1072.92,-55.59C1065.27,-48.08 1054.34,-37.35 1045.12,-28.3"/>
<polygon fill="#63b8ff" stroke="#63b8ff" points="1047.64,-25.87 1038.05,-21.36 1042.73,-30.86 1047.64,-25.87"/>
</a>
</g>
</g>
<!-- Node34 -->
<g id="Node000034" class="node">
<title>Node34</title>
<g id="a_Node000034"><a xlink:title=" ">
<polygon fill="#e0e0e0" stroke="#999999" points="1140.38,-20 1078.62,-20 1078.62,0 1140.38,0 1140.38,-20"/>
<text text-anchor="middle" x="1109.5" y="-6.5" font-family="Helvetica,sans-Serif" font-size="10.00">type_traits</text>
</a>
</g>
</g>
<!-- Node29&#45;&gt;Node34 -->
<g id="edge47_Node000029_Node000034" class="edge">
<title>Node29&#45;&gt;Node34</title>
<g id="a_edge47_Node000029_Node000034"><a xlink:title=" ">
<path fill="none" stroke="#63b8ff" d="M1087.2,-55.59C1090.65,-48.7 1095.45,-39.1 1099.71,-30.57"/>
<polygon fill="#63b8ff" stroke="#63b8ff" points="1102.83,-32.16 1104.17,-21.65 1096.57,-29.03 1102.83,-32.16"/>
</a>
</g>
</g>
<!-- Node35 -->
<g id="Node000035" class="node">
<title>Node35</title>
<g id="a_Node000035"><a xlink:title=" ">
<polygon fill="#e0e0e0" stroke="#999999" points="1204.12,-20 1158.88,-20 1158.88,0 1204.12,0 1204.12,-20"/>
<text text-anchor="middle" x="1181.5" y="-6.5" font-family="Helvetica,sans-Serif" font-size="10.00">variant</text>
</a>
</g>
</g>
<!-- Node29&#45;&gt;Node35 -->
<g id="edge48_Node000029_Node000035" class="edge">
<title>Node29&#45;&gt;Node35</title>
<g id="a_edge48_Node000029_Node000035"><a xlink:title=" ">
<path fill="none" stroke="#63b8ff" d="M1099.74,-55.59C1114.84,-47.36 1137.03,-35.26 1154.48,-25.74"/>
<polygon fill="#63b8ff" stroke="#63b8ff" points="1155.69,-29.07 1162.79,-21.2 1152.34,-22.92 1155.69,-29.07"/>
</a>
</g>
</g>
<!-- Node37 -->
<g id="Node000037" class="node">
<title>Node37</title>
<g id="a_Node000037"><a xlink:title=" ">
<polygon fill="#e0e0e0" stroke="#999999" points="1001.12,-76 913.88,-76 913.88,-56 1001.12,-56 1001.12,-76"/>
<text text-anchor="middle" x="957.5" y="-62.5" font-family="Helvetica,sans-Serif" font-size="10.00">libavutil/pixfmt.h</text>
</a>
</g>
</g>
<!-- Node36&#45;&gt;Node37 -->
<g id="edge52_Node000036_Node000037" class="edge">
<title>Node36&#45;&gt;Node37</title>
<g id="a_edge52_Node000036_Node000037"><a xlink:title=" ">
<path fill="none" stroke="#63b8ff" d="M956.66,-117.62C956.79,-109.56 956.99,-97.65 957.16,-87.41"/>
<polygon fill="#63b8ff" stroke="#63b8ff" points="960.66,-87.68 957.32,-77.63 953.66,-87.57 960.66,-87.68"/>
</a>
</g>
</g>
</g>
</svg>
