<?xml version="1.0" encoding="UTF-8" standalone="no"?>
<!DOCTYPE svg PUBLIC "-//W3C//DTD SVG 1.1//EN"
 "http://www.w3.org/Graphics/SVG/1.1/DTD/svg11.dtd">
<!-- Generated by graphviz version 12.2.1 (0)
 -->
<!-- Title: src/input.h Pages: 1 -->
<svg width="2116pt" height="368pt"
 viewBox="0.00 0.00 2115.75 368.00" xmlns="http://www.w3.org/2000/svg" xmlns:xlink="http://www.w3.org/1999/xlink">
<g id="graph0" class="graph" transform="scale(1 1) rotate(0) translate(4 364)">
<title>src/input.h</title>
<!-- Node1 -->
<g id="Node000001" class="node">
<title>Node1</title>
<g id="a_Node000001"><a xlink:title="Declarations for gamepad, keyboard, and mouse input handling.">
<polygon fill="#999999" stroke="#666666" points="685,-360 623.25,-360 623.25,-340 685,-340 685,-360"/>
<text text-anchor="middle" x="654.12" y="-346.5" font-family="Helvetica,sans-Serif" font-size="10.00">src/input.h</text>
</a>
</g>
</g>
<!-- Node2 -->
<g id="Node000002" class="node">
<title>Node2</title>
<g id="a_Node000002"><a xlink:href="input_8cpp.html" target="_top" xlink:title="Definitions for gamepad, keyboard, and mouse input handling.">
<polygon fill="white" stroke="#666666" points="72.25,-298 0,-298 0,-278 72.25,-278 72.25,-298"/>
<text text-anchor="middle" x="36.12" y="-284.5" font-family="Helvetica,sans-Serif" font-size="10.00">src/input.cpp</text>
</a>
</g>
</g>
<!-- Node1&#45;&gt;Node2 -->
<g id="edge1_Node000001_Node000002" class="edge">
<title>Node1&#45;&gt;Node2</title>
<g id="a_edge1_Node000001_Node000002"><a xlink:title=" ">
<path fill="none" stroke="#63b8ff" d="M611.52,-349.17C515.73,-348.8 276.43,-343.6 81.12,-304 74.35,-302.63 67.17,-300.54 60.59,-298.35"/>
<polygon fill="#63b8ff" stroke="#63b8ff" points="611.49,-352.67 621.5,-349.19 611.51,-345.67 611.49,-352.67"/>
</a>
</g>
</g>
<!-- Node3 -->
<g id="Node000003" class="node">
<title>Node3</title>
<g id="a_Node000003"><a xlink:href="platform_2macos_2input_8cpp.html" target="_top" xlink:title="Definitions for macOS input handling.">
<polygon fill="white" stroke="#666666" points="190.12,-304 90.12,-304 90.12,-272 190.12,-272 190.12,-304"/>
<text text-anchor="start" x="98.12" y="-290.5" font-family="Helvetica,sans-Serif" font-size="10.00">src/platform/macos</text>
<text text-anchor="middle" x="140.12" y="-278.5" font-family="Helvetica,sans-Serif" font-size="10.00">/input.cpp</text>
</a>
</g>
</g>
<!-- Node1&#45;&gt;Node3 -->
<g id="edge2_Node000001_Node000003" class="edge">
<title>Node1&#45;&gt;Node3</title>
<g id="a_edge2_Node000001_Node000003"><a xlink:title=" ">
<path fill="none" stroke="#63b8ff" d="M611.76,-346.61C531.7,-341.7 352.87,-328.76 204.12,-304 199.62,-303.25 194.96,-302.37 190.31,-301.41"/>
<polygon fill="#63b8ff" stroke="#63b8ff" points="611.14,-350.08 621.33,-347.19 611.56,-343.1 611.14,-350.08"/>
</a>
</g>
</g>
<!-- Node4 -->
<g id="Node000004" class="node">
<title>Node4</title>
<g id="a_Node000004"><a xlink:href="rtsp_8cpp.html" target="_top" xlink:title="Definitions for RTSP streaming.">
<polygon fill="white" stroke="#666666" points="1918,-162 1850.25,-162 1850.25,-142 1918,-142 1918,-162"/>
<text text-anchor="middle" x="1884.12" y="-148.5" font-family="Helvetica,sans-Serif" font-size="10.00">src/rtsp.cpp</text>
</a>
</g>
</g>
<!-- Node1&#45;&gt;Node4 -->
<g id="edge3_Node000001_Node000004" class="edge">
<title>Node1&#45;&gt;Node4</title>
<g id="a_edge3_Node000001_Node000004"><a xlink:title=" ">
<path fill="none" stroke="#63b8ff" d="M696.64,-348.46C905.4,-345.35 1815.32,-326.67 1898.12,-236 1916.95,-215.39 1899.89,-179.33 1890.01,-162.35"/>
<polygon fill="#63b8ff" stroke="#63b8ff" points="696.74,-344.95 686.8,-348.6 696.84,-351.95 696.74,-344.95"/>
</a>
</g>
</g>
<!-- Node5 -->
<g id="Node000005" class="node">
<title>Node5</title>
<g id="a_Node000005"><a xlink:href="stream_8cpp.html" target="_top" xlink:title="Definitions for the streaming protocols.">
<polygon fill="white" stroke="#666666" points="2107.75,-162 2026.5,-162 2026.5,-142 2107.75,-142 2107.75,-162"/>
<text text-anchor="middle" x="2067.12" y="-148.5" font-family="Helvetica,sans-Serif" font-size="10.00">src/stream.cpp</text>
</a>
</g>
</g>
<!-- Node1&#45;&gt;Node5 -->
<g id="edge4_Node000001_Node000005" class="edge">
<title>Node1&#45;&gt;Node5</title>
<g id="a_edge4_Node000001_Node000005"><a xlink:title=" ">
<path fill="none" stroke="#63b8ff" d="M696.61,-348.21C868.94,-344.85 1516.21,-330.69 1719.12,-304 1856.82,-285.89 1914.07,-320.72 2024.12,-236 2048.82,-216.99 2060.66,-179.81 2065.04,-162.4"/>
<polygon fill="#63b8ff" stroke="#63b8ff" points="696.71,-344.71 686.78,-348.4 696.85,-351.71 696.71,-344.71"/>
</a>
</g>
</g>
<!-- Node6 -->
<g id="Node000006" class="node">
<title>Node6</title>
<g id="a_Node000006"><a xlink:href="video_8cpp.html" target="_top" xlink:title="Definitions for video.">
<polygon fill="white" stroke="#666666" points="948.38,-162 873.88,-162 873.88,-142 948.38,-142 948.38,-162"/>
<text text-anchor="middle" x="911.12" y="-148.5" font-family="Helvetica,sans-Serif" font-size="10.00">src/video.cpp</text>
</a>
</g>
</g>
<!-- Node1&#45;&gt;Node6 -->
<g id="edge5_Node000001_Node000006" class="edge">
<title>Node1&#45;&gt;Node6</title>
<g id="a_edge5_Node000001_Node000006"><a xlink:title=" ">
<path fill="none" stroke="#63b8ff" d="M611.34,-347.13C492.74,-340.52 174.99,-312.48 275.12,-204 315.84,-159.89 743.54,-153.91 873.73,-153.12"/>
<polygon fill="#63b8ff" stroke="#63b8ff" points="611.14,-350.62 621.31,-347.65 611.51,-343.63 611.14,-350.62"/>
</a>
</g>
</g>
<!-- Node7 -->
<g id="Node000007" class="node">
<title>Node7</title>
<g id="a_Node000007"><a xlink:href="video_8h.html" target="_top" xlink:title="Declarations for video.">
<polygon fill="white" stroke="#666666" points="1122.12,-298 1058.12,-298 1058.12,-278 1122.12,-278 1122.12,-298"/>
<text text-anchor="middle" x="1090.12" y="-284.5" font-family="Helvetica,sans-Serif" font-size="10.00">src/video.h</text>
</a>
</g>
</g>
<!-- Node1&#45;&gt;Node7 -->
<g id="edge6_Node000001_Node000007" class="edge">
<title>Node1&#45;&gt;Node7</title>
<g id="a_edge6_Node000001_Node000007"><a xlink:title=" ">
<path fill="none" stroke="#63b8ff" d="M696.77,-343.13C783.86,-331.15 980.42,-304.1 1057.88,-293.44"/>
<polygon fill="#63b8ff" stroke="#63b8ff" points="696.41,-339.65 686.98,-344.48 697.36,-346.58 696.41,-339.65"/>
</a>
</g>
</g>
<!-- Node7&#45;&gt;Node4 -->
<g id="edge35_Node000007_Node000004" class="edge">
<title>Node7&#45;&gt;Node4</title>
<g id="a_edge35_Node000007_Node000004"><a xlink:title=" ">
<path fill="none" stroke="#63b8ff" d="M1133.86,-287.02C1262.51,-286.54 1637.67,-281.19 1750.12,-236 1770.93,-227.64 1770.49,-216.47 1789.12,-204 1813.7,-187.55 1844.13,-171.98 1863.82,-162.47"/>
<polygon fill="#63b8ff" stroke="#63b8ff" points="1134.05,-283.52 1124.06,-287.04 1134.07,-290.52 1134.05,-283.52"/>
</a>
</g>
</g>
<!-- Node7&#45;&gt;Node6 -->
<g id="edge40_Node000007_Node000006" class="edge">
<title>Node7&#45;&gt;Node6</title>
<g id="a_edge40_Node000007_Node000006"><a xlink:title=" ">
<path fill="none" stroke="#63b8ff" d="M1046.6,-284.66C1010.33,-280.35 959.96,-268.43 930.12,-236 911.01,-215.22 909.84,-179.24 910.48,-162.32"/>
<polygon fill="#63b8ff" stroke="#63b8ff" points="1046.02,-288.12 1056.33,-285.66 1046.74,-281.16 1046.02,-288.12"/>
</a>
</g>
</g>
<!-- Node8 -->
<g id="Node000008" class="node">
<title>Node8</title>
<g id="a_Node000008"><a xlink:href="main_8cpp.html" target="_top" xlink:title="Definitions for the main entry point for Sunshine.">
<polygon fill="white" stroke="#666666" points="1011.25,-230 939,-230 939,-210 1011.25,-210 1011.25,-230"/>
<text text-anchor="middle" x="975.12" y="-216.5" font-family="Helvetica,sans-Serif" font-size="10.00">src/main.cpp</text>
</a>
</g>
</g>
<!-- Node7&#45;&gt;Node8 -->
<g id="edge7_Node000007_Node000008" class="edge">
<title>Node7&#45;&gt;Node8</title>
<g id="a_edge7_Node000007_Node000008"><a xlink:title=" ">
<path fill="none" stroke="#63b8ff" d="M1063.84,-271.91C1041.6,-259.15 1010.43,-241.26 991.57,-230.44"/>
<polygon fill="#63b8ff" stroke="#63b8ff" points="1061.92,-274.85 1072.34,-276.79 1065.4,-268.78 1061.92,-274.85"/>
</a>
</g>
</g>
<!-- Node9 -->
<g id="Node000009" class="node">
<title>Node9</title>
<g id="a_Node000009"><a xlink:href="nvenc__base_8h.html" target="_top" xlink:title="Declarations for abstract platform&#45;agnostic base of standalone NVENC encoder.">
<polygon fill="white" stroke="#666666" points="1151.38,-230 1028.88,-230 1028.88,-210 1151.38,-210 1151.38,-230"/>
<text text-anchor="middle" x="1090.12" y="-216.5" font-family="Helvetica,sans-Serif" font-size="10.00">src/nvenc/nvenc_base.h</text>
</a>
</g>
</g>
<!-- Node7&#45;&gt;Node9 -->
<g id="edge8_Node000007_Node000009" class="edge">
<title>Node7&#45;&gt;Node9</title>
<g id="a_edge8_Node000007_Node000009"><a xlink:title=" ">
<path fill="none" stroke="#63b8ff" d="M1090.12,-266.28C1090.12,-254.27 1090.12,-239.74 1090.12,-230.44"/>
<polygon fill="#63b8ff" stroke="#63b8ff" points="1086.63,-266.03 1090.13,-276.03 1093.63,-266.03 1086.63,-266.03"/>
</a>
</g>
</g>
<!-- Node15 -->
<g id="Node000015" class="node">
<title>Node15</title>
<g id="a_Node000015"><a xlink:href="display__vram_8cpp.html" target="_top" xlink:title="Definitions for handling video ram.">
<polygon fill="white" stroke="#666666" points="906.62,-32 797.62,-32 797.62,0 906.62,0 906.62,-32"/>
<text text-anchor="start" x="805.62" y="-18.5" font-family="Helvetica,sans-Serif" font-size="10.00">src/platform/windows</text>
<text text-anchor="middle" x="852.12" y="-6.5" font-family="Helvetica,sans-Serif" font-size="10.00">/display_vram.cpp</text>
</a>
</g>
</g>
<!-- Node7&#45;&gt;Node15 -->
<g id="edge34_Node000007_Node000015" class="edge">
<title>Node7&#45;&gt;Node15</title>
<g id="a_edge34_Node000007_Node000015"><a xlink:title=" ">
<path fill="none" stroke="#63b8ff" d="M1046.73,-285.91C881.79,-281.58 301.76,-264.35 275.12,-236 118.32,-69.07 625.63,-28.22 797.35,-19.29"/>
<polygon fill="#63b8ff" stroke="#63b8ff" points="1046.27,-289.4 1056.36,-286.16 1046.46,-282.4 1046.27,-289.4"/>
</a>
</g>
</g>
<!-- Node18 -->
<g id="Node000018" class="node">
<title>Node18</title>
<g id="a_Node000018"><a xlink:href="nvhttp_8cpp.html" target="_top" xlink:title="Definitions for the nvhttp (GameStream) server.">
<polygon fill="white" stroke="#666666" points="1247.25,-230 1169,-230 1169,-210 1247.25,-210 1247.25,-230"/>
<text text-anchor="middle" x="1208.12" y="-216.5" font-family="Helvetica,sans-Serif" font-size="10.00">src/nvhttp.cpp</text>
</a>
</g>
</g>
<!-- Node7&#45;&gt;Node18 -->
<g id="edge19_Node000007_Node000018" class="edge">
<title>Node7&#45;&gt;Node18</title>
<g id="a_edge19_Node000007_Node000018"><a xlink:title=" ">
<path fill="none" stroke="#63b8ff" d="M1116.79,-272.09C1139.62,-259.32 1171.81,-241.31 1191.25,-230.44"/>
<polygon fill="#63b8ff" stroke="#63b8ff" points="1115.37,-268.87 1108.35,-276.8 1118.79,-274.98 1115.37,-268.87"/>
</a>
</g>
</g>
<!-- Node19 -->
<g id="Node000019" class="node">
<title>Node19</title>
<g id="a_Node000019"><a xlink:href="cuda_8cpp.html" target="_top" xlink:title="Definitions for CUDA encoding.">
<polygon fill="white" stroke="#666666" points="1504.62,-236 1413.62,-236 1413.62,-204 1504.62,-204 1504.62,-236"/>
<text text-anchor="start" x="1421.62" y="-222.5" font-family="Helvetica,sans-Serif" font-size="10.00">src/platform/linux</text>
<text text-anchor="middle" x="1459.12" y="-210.5" font-family="Helvetica,sans-Serif" font-size="10.00">/cuda.cpp</text>
</a>
</g>
</g>
<!-- Node7&#45;&gt;Node19 -->
<g id="edge20_Node000007_Node000019" class="edge">
<title>Node7&#45;&gt;Node19</title>
<g id="a_edge20_Node000007_Node000019"><a xlink:title=" ">
<path fill="none" stroke="#63b8ff" d="M1133.61,-280.96C1193.6,-272.38 1305.04,-255.49 1399.12,-236 1403.75,-235.04 1408.56,-233.97 1413.35,-232.85"/>
<polygon fill="#63b8ff" stroke="#63b8ff" points="1133.22,-277.48 1123.81,-282.36 1134.2,-284.41 1133.22,-277.48"/>
</a>
</g>
</g>
<!-- Node20 -->
<g id="Node000020" class="node">
<title>Node20</title>
<g id="a_Node000020"><a xlink:href="graphics_8cpp.html" target="_top" xlink:title="Definitions for graphics related functions.">
<polygon fill="white" stroke="#666666" points="1356.62,-236 1265.62,-236 1265.62,-204 1356.62,-204 1356.62,-236"/>
<text text-anchor="start" x="1273.62" y="-222.5" font-family="Helvetica,sans-Serif" font-size="10.00">src/platform/linux</text>
<text text-anchor="middle" x="1311.12" y="-210.5" font-family="Helvetica,sans-Serif" font-size="10.00">/graphics.cpp</text>
</a>
</g>
</g>
<!-- Node7&#45;&gt;Node20 -->
<g id="edge21_Node000007_Node000020" class="edge">
<title>Node7&#45;&gt;Node20</title>
<g id="a_edge21_Node000007_Node000020"><a xlink:title=" ">
<path fill="none" stroke="#63b8ff" d="M1132.5,-274.34C1170.54,-262.98 1226.24,-246.35 1265.3,-234.68"/>
<polygon fill="#63b8ff" stroke="#63b8ff" points="1131.82,-270.9 1123.24,-277.11 1133.82,-277.6 1131.82,-270.9"/>
</a>
</g>
</g>
<!-- Node21 -->
<g id="Node000021" class="node">
<title>Node21</title>
<g id="a_Node000021"><a xlink:href="kmsgrab_8cpp.html" target="_top" xlink:title="Definitions for KMS screen capture.">
<polygon fill="white" stroke="#666666" points="1740.62,-236 1649.62,-236 1649.62,-204 1740.62,-204 1740.62,-236"/>
<text text-anchor="start" x="1657.62" y="-222.5" font-family="Helvetica,sans-Serif" font-size="10.00">src/platform/linux</text>
<text text-anchor="middle" x="1695.12" y="-210.5" font-family="Helvetica,sans-Serif" font-size="10.00">/kmsgrab.cpp</text>
</a>
</g>
</g>
<!-- Node7&#45;&gt;Node21 -->
<g id="edge22_Node000007_Node000021" class="edge">
<title>Node7&#45;&gt;Node21</title>
<g id="a_edge22_Node000007_Node000021"><a xlink:title=" ">
<path fill="none" stroke="#63b8ff" d="M1133.55,-285.54C1226.94,-281.83 1453.49,-269.84 1640.12,-236 1643.14,-235.45 1646.24,-234.82 1649.35,-234.12"/>
<polygon fill="#63b8ff" stroke="#63b8ff" points="1133.69,-282.03 1123.83,-285.91 1133.96,-289.02 1133.69,-282.03"/>
</a>
</g>
</g>
<!-- Node22 -->
<g id="Node000022" class="node">
<title>Node22</title>
<g id="a_Node000022"><a xlink:href="vaapi_8cpp.html" target="_top" xlink:title="Definitions for VA&#45;API hardware accelerated capture.">
<polygon fill="white" stroke="#666666" points="1888.62,-236 1797.62,-236 1797.62,-204 1888.62,-204 1888.62,-236"/>
<text text-anchor="start" x="1805.62" y="-222.5" font-family="Helvetica,sans-Serif" font-size="10.00">src/platform/linux</text>
<text text-anchor="middle" x="1843.12" y="-210.5" font-family="Helvetica,sans-Serif" font-size="10.00">/vaapi.cpp</text>
</a>
</g>
</g>
<!-- Node7&#45;&gt;Node22 -->
<g id="edge23_Node000007_Node000022" class="edge">
<title>Node7&#45;&gt;Node22</title>
<g id="a_edge23_Node000007_Node000022"><a xlink:title=" ">
<path fill="none" stroke="#63b8ff" d="M1133.72,-286.38C1243.46,-284.26 1539.77,-275.08 1783.12,-236 1787.79,-235.25 1792.62,-234.32 1797.43,-233.28"/>
<polygon fill="#63b8ff" stroke="#63b8ff" points="1133.92,-282.88 1123.99,-286.56 1134.05,-289.88 1133.92,-282.88"/>
</a>
</g>
</g>
<!-- Node23 -->
<g id="Node000023" class="node">
<title>Node23</title>
<g id="a_Node000023"><a xlink:href="wlgrab_8cpp.html" target="_top" xlink:title="Definitions for wlgrab capture.">
<polygon fill="white" stroke="#666666" points="375.62,-236 284.62,-236 284.62,-204 375.62,-204 375.62,-236"/>
<text text-anchor="start" x="292.62" y="-222.5" font-family="Helvetica,sans-Serif" font-size="10.00">src/platform/linux</text>
<text text-anchor="middle" x="330.12" y="-210.5" font-family="Helvetica,sans-Serif" font-size="10.00">/wlgrab.cpp</text>
</a>
</g>
</g>
<!-- Node7&#45;&gt;Node23 -->
<g id="edge24_Node000007_Node000023" class="edge">
<title>Node7&#45;&gt;Node23</title>
<g id="a_edge24_Node000007_Node000023"><a xlink:title=" ">
<path fill="none" stroke="#63b8ff" d="M1046.44,-286.85C935.12,-285.82 632.09,-278.96 384.12,-236 381.44,-235.53 378.7,-234.99 375.94,-234.39"/>
<polygon fill="#63b8ff" stroke="#63b8ff" points="1046.29,-290.35 1056.32,-286.93 1046.35,-283.35 1046.29,-290.35"/>
</a>
</g>
</g>
<!-- Node24 -->
<g id="Node000024" class="node">
<title>Node24</title>
<g id="a_Node000024"><a xlink:href="x11grab_8cpp.html" target="_top" xlink:title="Definitions for x11 capture.">
<polygon fill="white" stroke="#666666" points="484.62,-236 393.62,-236 393.62,-204 484.62,-204 484.62,-236"/>
<text text-anchor="start" x="401.62" y="-222.5" font-family="Helvetica,sans-Serif" font-size="10.00">src/platform/linux</text>
<text text-anchor="middle" x="439.12" y="-210.5" font-family="Helvetica,sans-Serif" font-size="10.00">/x11grab.cpp</text>
</a>
</g>
</g>
<!-- Node7&#45;&gt;Node24 -->
<g id="edge25_Node000007_Node000024" class="edge">
<title>Node7&#45;&gt;Node24</title>
<g id="a_edge25_Node000007_Node000024"><a xlink:title=" ">
<path fill="none" stroke="#63b8ff" d="M1046.57,-285.97C947.65,-283.03 698.74,-272.35 494.12,-236 491.1,-235.46 488.01,-234.84 484.9,-234.15"/>
<polygon fill="#63b8ff" stroke="#63b8ff" points="1046.27,-289.46 1056.37,-286.24 1046.47,-282.46 1046.27,-289.46"/>
</a>
</g>
</g>
<!-- Node25 -->
<g id="Node000025" class="node">
<title>Node25</title>
<g id="a_Node000025"><a xlink:href="display_8mm.html" target="_top" xlink:title="Definitions for display capture on macOS.">
<polygon fill="white" stroke="#666666" points="603.12,-236 503.12,-236 503.12,-204 603.12,-204 603.12,-236"/>
<text text-anchor="start" x="511.12" y="-222.5" font-family="Helvetica,sans-Serif" font-size="10.00">src/platform/macos</text>
<text text-anchor="middle" x="553.12" y="-210.5" font-family="Helvetica,sans-Serif" font-size="10.00">/display.mm</text>
</a>
</g>
</g>
<!-- Node7&#45;&gt;Node25 -->
<g id="edge26_Node000007_Node000025" class="edge">
<title>Node7&#45;&gt;Node25</title>
<g id="a_edge26_Node000007_Node000025"><a xlink:title=" ">
<path fill="none" stroke="#63b8ff" d="M1046.29,-284.42C961.77,-278.99 770.64,-264.46 612.12,-236 609.32,-235.5 606.44,-234.93 603.55,-234.32"/>
<polygon fill="#63b8ff" stroke="#63b8ff" points="1046.02,-287.91 1056.22,-285.05 1046.46,-280.93 1046.02,-287.91"/>
</a>
</g>
</g>
<!-- Node26 -->
<g id="Node000026" class="node">
<title>Node26</title>
<g id="a_Node000026"><a xlink:href="nv12__zero__device_8cpp.html" target="_top" xlink:title="Definitions for NV12 zero copy device on macOS.">
<polygon fill="white" stroke="#666666" points="737.38,-236 620.88,-236 620.88,-204 737.38,-204 737.38,-236"/>
<text text-anchor="start" x="628.88" y="-222.5" font-family="Helvetica,sans-Serif" font-size="10.00">src/platform/macos</text>
<text text-anchor="middle" x="679.12" y="-210.5" font-family="Helvetica,sans-Serif" font-size="10.00">/nv12_zero_device.cpp</text>
</a>
</g>
</g>
<!-- Node7&#45;&gt;Node26 -->
<g id="edge27_Node000007_Node000026" class="edge">
<title>Node7&#45;&gt;Node26</title>
<g id="a_edge27_Node000007_Node000026"><a xlink:title=" ">
<path fill="none" stroke="#63b8ff" d="M1046.65,-281.59C981.22,-273.22 853.64,-255.98 746.12,-236 743.31,-235.48 740.44,-234.92 737.54,-234.34"/>
<polygon fill="#63b8ff" stroke="#63b8ff" points="1045.88,-285.02 1056.24,-282.81 1046.76,-278.08 1045.88,-285.02"/>
</a>
</g>
</g>
<!-- Node27 -->
<g id="Node000027" class="node">
<title>Node27</title>
<g id="a_Node000027"><a xlink:href="display_8h.html" target="_top" xlink:title="Declarations for the Windows display backend.">
<polygon fill="white" stroke="#666666" points="1631.62,-236 1522.62,-236 1522.62,-204 1631.62,-204 1631.62,-236"/>
<text text-anchor="start" x="1530.62" y="-222.5" font-family="Helvetica,sans-Serif" font-size="10.00">src/platform/windows</text>
<text text-anchor="middle" x="1577.12" y="-210.5" font-family="Helvetica,sans-Serif" font-size="10.00">/display.h</text>
</a>
</g>
</g>
<!-- Node7&#45;&gt;Node27 -->
<g id="edge28_Node000007_Node000027" class="edge">
<title>Node7&#45;&gt;Node27</title>
<g id="a_edge28_Node000007_Node000027"><a xlink:title=" ">
<path fill="none" stroke="#63b8ff" d="M1133.54,-283.36C1210.43,-276.55 1375.43,-260.36 1513.12,-236 1516.16,-235.46 1519.27,-234.87 1522.39,-234.25"/>
<polygon fill="#63b8ff" stroke="#63b8ff" points="1133.57,-279.84 1123.92,-284.2 1134.18,-286.81 1133.57,-279.84"/>
</a>
</g>
</g>
<!-- Node28 -->
<g id="Node000028" class="node">
<title>Node28</title>
<g id="a_Node000028"><a xlink:href="display__base_8cpp.html" target="_top" xlink:title="Definitions for the Windows display base code.">
<polygon fill="white" stroke="#666666" points="1419.62,-168 1310.62,-168 1310.62,-136 1419.62,-136 1419.62,-168"/>
<text text-anchor="start" x="1318.62" y="-154.5" font-family="Helvetica,sans-Serif" font-size="10.00">src/platform/windows</text>
<text text-anchor="middle" x="1365.12" y="-142.5" font-family="Helvetica,sans-Serif" font-size="10.00">/display_base.cpp</text>
</a>
</g>
</g>
<!-- Node7&#45;&gt;Node28 -->
<g id="edge33_Node000007_Node000028" class="edge">
<title>Node7&#45;&gt;Node28</title>
<g id="a_edge33_Node000007_Node000028"><a xlink:title=" ">
<path fill="none" stroke="#63b8ff" d="M1133.67,-285.46C1203.63,-281.96 1336.19,-270.79 1365.12,-236 1380.79,-217.17 1375.65,-186.74 1370.43,-168.43"/>
<polygon fill="#63b8ff" stroke="#63b8ff" points="1133.93,-281.94 1124.1,-285.9 1134.25,-288.93 1133.93,-281.94"/>
</a>
</g>
</g>
<!-- Node31 -->
<g id="Node000031" class="node">
<title>Node31</title>
<g id="a_Node000031"><a xlink:href="stream_8h.html" target="_top" xlink:title="Declarations for the streaming protocols.">
<polygon fill="white" stroke="#666666" points="2015.5,-230 1944.75,-230 1944.75,-210 2015.5,-210 2015.5,-230"/>
<text text-anchor="middle" x="1980.12" y="-216.5" font-family="Helvetica,sans-Serif" font-size="10.00">src/stream.h</text>
</a>
</g>
</g>
<!-- Node7&#45;&gt;Node31 -->
<g id="edge36_Node000007_Node000031" class="edge">
<title>Node7&#45;&gt;Node31</title>
<g id="a_edge36_Node000007_Node000031"><a xlink:title=" ">
<path fill="none" stroke="#63b8ff" d="M1133.96,-286.05C1255.66,-283.02 1607.84,-271.59 1898.12,-236 1913.35,-234.13 1930.03,-231.24 1944.34,-228.49"/>
<polygon fill="#63b8ff" stroke="#63b8ff" points="1134.01,-282.55 1124.09,-286.29 1134.18,-289.54 1134.01,-282.55"/>
</a>
</g>
</g>
<!-- Node33 -->
<g id="Node000033" class="node">
<title>Node33</title>
<g id="a_Node000033"><a xlink:href="video__colorspace_8cpp.html" target="_top" xlink:title="Definitions for colorspace functions.">
<polygon fill="white" stroke="#666666" points="882.62,-230 755.62,-230 755.62,-210 882.62,-210 882.62,-230"/>
<text text-anchor="middle" x="819.12" y="-216.5" font-family="Helvetica,sans-Serif" font-size="10.00">src/video_colorspace.cpp</text>
</a>
</g>
</g>
<!-- Node7&#45;&gt;Node33 -->
<g id="edge41_Node000007_Node000033" class="edge">
<title>Node7&#45;&gt;Node33</title>
<g id="a_edge41_Node000007_Node000033"><a xlink:title=" ">
<path fill="none" stroke="#63b8ff" d="M1046.8,-276.45C994.6,-263.73 907.68,-242.57 857.69,-230.39"/>
<polygon fill="#63b8ff" stroke="#63b8ff" points="1045.69,-279.78 1056.23,-278.75 1047.35,-272.98 1045.69,-279.78"/>
</a>
</g>
</g>
<!-- Node9&#45;&gt;Node6 -->
<g id="edge18_Node000009_Node000006" class="edge">
<title>Node9&#45;&gt;Node6</title>
<g id="a_edge18_Node000009_Node000006"><a xlink:title=" ">
<path fill="none" stroke="#63b8ff" d="M1053.82,-205.61C1019.03,-192.79 967.41,-173.75 936.72,-162.44"/>
<polygon fill="#63b8ff" stroke="#63b8ff" points="1052.47,-208.84 1063.06,-209.02 1054.89,-202.28 1052.47,-208.84"/>
</a>
</g>
</g>
<!-- Node10 -->
<g id="Node000010" class="node">
<title>Node10</title>
<g id="a_Node000010"><a xlink:href="nvenc__base_8cpp.html" target="_top" xlink:title="Definitions for abstract platform&#45;agnostic base of standalone NVENC encoder.">
<polygon fill="white" stroke="#666666" points="1127.62,-162 994.62,-162 994.62,-142 1127.62,-142 1127.62,-162"/>
<text text-anchor="middle" x="1061.12" y="-148.5" font-family="Helvetica,sans-Serif" font-size="10.00">src/nvenc/nvenc_base.cpp</text>
</a>
</g>
</g>
<!-- Node9&#45;&gt;Node10 -->
<g id="edge9_Node000009_Node000010" class="edge">
<title>Node9&#45;&gt;Node10</title>
<g id="a_edge9_Node000009_Node000010"><a xlink:title=" ">
<path fill="none" stroke="#63b8ff" d="M1081.35,-199.03C1076.01,-186.89 1069.45,-171.94 1065.27,-162.44"/>
<polygon fill="#63b8ff" stroke="#63b8ff" points="1078.13,-200.41 1085.36,-208.16 1084.54,-197.59 1078.13,-200.41"/>
</a>
</g>
</g>
<!-- Node11 -->
<g id="Node000011" class="node">
<title>Node11</title>
<g id="a_Node000011"><a xlink:href="nvenc__d3d11_8h.html" target="_top" xlink:title="Declarations for abstract Direct3D11 NVENC encoder.">
<polygon fill="white" stroke="#666666" points="1272.62,-162 1145.62,-162 1145.62,-142 1272.62,-142 1272.62,-162"/>
<text text-anchor="middle" x="1209.12" y="-148.5" font-family="Helvetica,sans-Serif" font-size="10.00">src/nvenc/nvenc_d3d11.h</text>
</a>
</g>
</g>
<!-- Node9&#45;&gt;Node11 -->
<g id="edge10_Node000009_Node000011" class="edge">
<title>Node9&#45;&gt;Node11</title>
<g id="a_edge10_Node000009_Node000011"><a xlink:title=" ">
<path fill="none" stroke="#63b8ff" d="M1117.01,-204.09C1140.04,-191.32 1172.5,-173.31 1192.11,-162.44"/>
<polygon fill="#63b8ff" stroke="#63b8ff" points="1115.55,-200.9 1108.5,-208.81 1118.94,-207.02 1115.55,-200.9"/>
</a>
</g>
</g>
<!-- Node12 -->
<g id="Node000012" class="node">
<title>Node12</title>
<g id="a_Node000012"><a xlink:href="nvenc__d3d11_8cpp.html" target="_top" xlink:title="Definitions for abstract Direct3D11 NVENC encoder.">
<polygon fill="white" stroke="#666666" points="1277.88,-94 1140.38,-94 1140.38,-74 1277.88,-74 1277.88,-94"/>
<text text-anchor="middle" x="1209.12" y="-80.5" font-family="Helvetica,sans-Serif" font-size="10.00">src/nvenc/nvenc_d3d11.cpp</text>
</a>
</g>
</g>
<!-- Node11&#45;&gt;Node12 -->
<g id="edge11_Node000011_Node000012" class="edge">
<title>Node11&#45;&gt;Node12</title>
<g id="a_edge11_Node000011_Node000012"><a xlink:title=" ">
<path fill="none" stroke="#63b8ff" d="M1209.12,-130.28C1209.12,-118.27 1209.12,-103.74 1209.12,-94.44"/>
<polygon fill="#63b8ff" stroke="#63b8ff" points="1205.63,-130.03 1209.13,-140.03 1212.63,-130.03 1205.63,-130.03"/>
</a>
</g>
</g>
<!-- Node13 -->
<g id="Node000013" class="node">
<title>Node13</title>
<g id="a_Node000013"><a xlink:href="nvenc__d3d11__native_8h.html" target="_top" xlink:title="Declarations for native Direct3D11 NVENC encoder.">
<polygon fill="white" stroke="#666666" points="228.5,-100 109.75,-100 109.75,-68 228.5,-68 228.5,-100"/>
<text text-anchor="start" x="117.75" y="-86.5" font-family="Helvetica,sans-Serif" font-size="10.00">src/nvenc/nvenc_d3d11</text>
<text text-anchor="middle" x="169.12" y="-74.5" font-family="Helvetica,sans-Serif" font-size="10.00">_native.h</text>
</a>
</g>
</g>
<!-- Node11&#45;&gt;Node13 -->
<g id="edge12_Node000011_Node000013" class="edge">
<title>Node11&#45;&gt;Node13</title>
<g id="a_edge12_Node000011_Node000013"><a xlink:title=" ">
<path fill="none" stroke="#63b8ff" d="M1157.11,-139.32C1150.09,-138.04 1142.95,-136.88 1136.12,-136 794.71,-92.17 380.85,-85.83 228.82,-85.04"/>
<polygon fill="#63b8ff" stroke="#63b8ff" points="1156.41,-142.75 1166.89,-141.22 1157.74,-135.88 1156.41,-142.75"/>
</a>
</g>
</g>
<!-- Node16 -->
<g id="Node000016" class="node">
<title>Node16</title>
<g id="a_Node000016"><a xlink:href="nvenc__d3d11__on__cuda_8h.html" target="_top" xlink:title="Declarations for CUDA NVENC encoder with Direct3D11 input surfaces.">
<polygon fill="white" stroke="#666666" points="1594.5,-100 1475.75,-100 1475.75,-68 1594.5,-68 1594.5,-100"/>
<text text-anchor="start" x="1483.75" y="-86.5" font-family="Helvetica,sans-Serif" font-size="10.00">src/nvenc/nvenc_d3d11</text>
<text text-anchor="middle" x="1535.12" y="-74.5" font-family="Helvetica,sans-Serif" font-size="10.00">_on_cuda.h</text>
</a>
</g>
</g>
<!-- Node11&#45;&gt;Node16 -->
<g id="edge15_Node000011_Node000016" class="edge">
<title>Node11&#45;&gt;Node16</title>
<g id="a_edge15_Node000011_Node000016"><a xlink:title=" ">
<path fill="none" stroke="#63b8ff" d="M1266.77,-139.33C1325.48,-127.44 1416.09,-109.1 1475.5,-97.07"/>
<polygon fill="#63b8ff" stroke="#63b8ff" points="1266.42,-135.83 1257.32,-141.24 1267.81,-142.69 1266.42,-135.83"/>
</a>
</g>
</g>
<!-- Node14 -->
<g id="Node000014" class="node">
<title>Node14</title>
<g id="a_Node000014"><a xlink:href="nvenc__d3d11__native_8cpp.html" target="_top" xlink:title="Definitions for native Direct3D11 NVENC encoder.">
<polygon fill="white" stroke="#666666" points="228.5,-32 109.75,-32 109.75,0 228.5,0 228.5,-32"/>
<text text-anchor="start" x="117.75" y="-18.5" font-family="Helvetica,sans-Serif" font-size="10.00">src/nvenc/nvenc_d3d11</text>
<text text-anchor="middle" x="169.12" y="-6.5" font-family="Helvetica,sans-Serif" font-size="10.00">_native.cpp</text>
</a>
</g>
</g>
<!-- Node13&#45;&gt;Node14 -->
<g id="edge13_Node000013_Node000014" class="edge">
<title>Node13&#45;&gt;Node14</title>
<g id="a_edge13_Node000013_Node000014"><a xlink:title=" ">
<path fill="none" stroke="#63b8ff" d="M169.12,-56.31C169.12,-48.12 169.12,-39.38 169.12,-32.22"/>
<polygon fill="#63b8ff" stroke="#63b8ff" points="165.63,-56.18 169.13,-66.18 172.63,-56.18 165.63,-56.18"/>
</a>
</g>
</g>
<!-- Node13&#45;&gt;Node15 -->
<g id="edge14_Node000013_Node000015" class="edge">
<title>Node13&#45;&gt;Node15</title>
<g id="a_edge14_Node000013_Node000015"><a xlink:title=" ">
<path fill="none" stroke="#63b8ff" d="M240.07,-68.3C240.76,-68.2 241.44,-68.1 242.12,-68 445.66,-38.69 690.02,-24.55 797.2,-19.39"/>
<polygon fill="#63b8ff" stroke="#63b8ff" points="239.58,-64.83 230.27,-69.9 240.71,-71.74 239.58,-64.83"/>
</a>
</g>
</g>
<!-- Node16&#45;&gt;Node15 -->
<g id="edge17_Node000016_Node000015" class="edge">
<title>Node16&#45;&gt;Node15</title>
<g id="a_edge17_Node000016_Node000015"><a xlink:title=" ">
<path fill="none" stroke="#63b8ff" d="M1464.18,-68.3C1463.49,-68.2 1462.81,-68.1 1462.12,-68 1258.59,-38.69 1014.23,-24.55 907.05,-19.39"/>
<polygon fill="#63b8ff" stroke="#63b8ff" points="1463.54,-71.74 1473.98,-69.9 1464.67,-64.83 1463.54,-71.74"/>
</a>
</g>
</g>
<!-- Node17 -->
<g id="Node000017" class="node">
<title>Node17</title>
<g id="a_Node000017"><a xlink:href="nvenc__d3d11__on__cuda_8cpp.html" target="_top" xlink:title="Definitions for CUDA NVENC encoder with Direct3D11 input surfaces.">
<polygon fill="white" stroke="#666666" points="1594.5,-32 1475.75,-32 1475.75,0 1594.5,0 1594.5,-32"/>
<text text-anchor="start" x="1483.75" y="-18.5" font-family="Helvetica,sans-Serif" font-size="10.00">src/nvenc/nvenc_d3d11</text>
<text text-anchor="middle" x="1535.12" y="-6.5" font-family="Helvetica,sans-Serif" font-size="10.00">_on_cuda.cpp</text>
</a>
</g>
</g>
<!-- Node16&#45;&gt;Node17 -->
<g id="edge16_Node000016_Node000017" class="edge">
<title>Node16&#45;&gt;Node17</title>
<g id="a_edge16_Node000016_Node000017"><a xlink:title=" ">
<path fill="none" stroke="#63b8ff" d="M1535.12,-56.31C1535.12,-48.12 1535.12,-39.38 1535.12,-32.22"/>
<polygon fill="#63b8ff" stroke="#63b8ff" points="1531.63,-56.18 1535.13,-66.18 1538.63,-56.18 1531.63,-56.18"/>
</a>
</g>
</g>
<!-- Node27&#45;&gt;Node15 -->
<g id="edge31_Node000027_Node000015" class="edge">
<title>Node27&#45;&gt;Node15</title>
<g id="a_edge31_Node000027_Node000015"><a xlink:title=" ">
<path fill="none" stroke="#63b8ff" d="M1540.86,-198.01C1510.89,-180.86 1467.08,-156.22 1428.12,-136 1366.38,-103.95 1353.93,-87.43 1287.12,-68 1154.24,-29.35 990.44,-19.88 906.84,-17.63"/>
<polygon fill="#63b8ff" stroke="#63b8ff" points="1538.74,-200.83 1549.15,-202.77 1542.22,-194.76 1538.74,-200.83"/>
</a>
</g>
</g>
<!-- Node27&#45;&gt;Node28 -->
<g id="edge29_Node000027_Node000028" class="edge">
<title>Node27&#45;&gt;Node28</title>
<g id="a_edge29_Node000027_Node000028"><a xlink:title=" ">
<path fill="none" stroke="#63b8ff" d="M1516.78,-200.21C1484.55,-190.18 1445.35,-177.98 1414.89,-168.49"/>
<polygon fill="#63b8ff" stroke="#63b8ff" points="1515.39,-203.45 1525.98,-203.08 1517.47,-196.76 1515.39,-203.45"/>
</a>
</g>
</g>
<!-- Node29 -->
<g id="Node000029" class="node">
<title>Node29</title>
<g id="a_Node000029"><a xlink:href="display__ram_8cpp.html" target="_top" xlink:title="Definitions for handling ram.">
<polygon fill="white" stroke="#666666" points="1608.62,-168 1499.62,-168 1499.62,-136 1608.62,-136 1608.62,-168"/>
<text text-anchor="start" x="1507.62" y="-154.5" font-family="Helvetica,sans-Serif" font-size="10.00">src/platform/windows</text>
<text text-anchor="middle" x="1554.12" y="-142.5" font-family="Helvetica,sans-Serif" font-size="10.00">/display_ram.cpp</text>
</a>
</g>
</g>
<!-- Node27&#45;&gt;Node29 -->
<g id="edge30_Node000027_Node000029" class="edge">
<title>Node27&#45;&gt;Node29</title>
<g id="a_edge30_Node000027_Node000029"><a xlink:title=" ">
<path fill="none" stroke="#63b8ff" d="M1568.02,-192.89C1565.11,-184.52 1561.98,-175.54 1559.43,-168.22"/>
<polygon fill="#63b8ff" stroke="#63b8ff" points="1564.7,-193.97 1571.29,-202.26 1571.31,-191.67 1564.7,-193.97"/>
</a>
</g>
</g>
<!-- Node30 -->
<g id="Node000030" class="node">
<title>Node30</title>
<g id="a_Node000030"><a xlink:href="display__wgc_8cpp.html" target="_top" xlink:title="Definitions for WinRT Windows.Graphics.Capture API.">
<polygon fill="white" stroke="#666666" points="1735.62,-168 1626.62,-168 1626.62,-136 1735.62,-136 1735.62,-168"/>
<text text-anchor="start" x="1634.62" y="-154.5" font-family="Helvetica,sans-Serif" font-size="10.00">src/platform/windows</text>
<text text-anchor="middle" x="1681.12" y="-142.5" font-family="Helvetica,sans-Serif" font-size="10.00">/display_wgc.cpp</text>
</a>
</g>
</g>
<!-- Node27&#45;&gt;Node30 -->
<g id="edge32_Node000027_Node000030" class="edge">
<title>Node27&#45;&gt;Node30</title>
<g id="a_edge32_Node000027_Node000030"><a xlink:title=" ">
<path fill="none" stroke="#63b8ff" d="M1610.96,-197.53C1625.94,-188.02 1643.23,-177.05 1656.89,-168.38"/>
<polygon fill="#63b8ff" stroke="#63b8ff" points="1609.35,-194.4 1602.79,-202.71 1613.11,-200.31 1609.35,-194.4"/>
</a>
</g>
</g>
<!-- Node31&#45;&gt;Node4 -->
<g id="edge37_Node000031_Node000004" class="edge">
<title>Node31&#45;&gt;Node4</title>
<g id="a_edge37_Node000031_Node000004"><a xlink:title=" ">
<path fill="none" stroke="#63b8ff" d="M1956.91,-203.04C1938.45,-190.35 1913.24,-173.02 1897.85,-162.44"/>
<polygon fill="#63b8ff" stroke="#63b8ff" points="1954.9,-205.91 1965.12,-208.69 1958.87,-200.14 1954.9,-205.91"/>
</a>
</g>
</g>
<!-- Node31&#45;&gt;Node5 -->
<g id="edge38_Node000031_Node000005" class="edge">
<title>Node31&#45;&gt;Node5</title>
<g id="a_edge38_Node000031_Node000005"><a xlink:title=" ">
<path fill="none" stroke="#63b8ff" d="M2001.63,-202.69C2018.32,-190.03 2040.87,-172.92 2054.68,-162.44"/>
<polygon fill="#63b8ff" stroke="#63b8ff" points="1999.65,-199.8 1993.8,-208.63 2003.88,-205.37 1999.65,-199.8"/>
</a>
</g>
</g>
<!-- Node32 -->
<g id="Node000032" class="node">
<title>Node32</title>
<g id="a_Node000032"><a xlink:href="upnp_8cpp.html" target="_top" xlink:title="Definitions for UPnP port mapping.">
<polygon fill="white" stroke="#666666" points="2008.25,-162 1936,-162 1936,-142 2008.25,-142 2008.25,-162"/>
<text text-anchor="middle" x="1972.12" y="-148.5" font-family="Helvetica,sans-Serif" font-size="10.00">src/upnp.cpp</text>
</a>
</g>
</g>
<!-- Node31&#45;&gt;Node32 -->
<g id="edge39_Node000031_Node000032" class="edge">
<title>Node31&#45;&gt;Node32</title>
<g id="a_edge39_Node000031_Node000032"><a xlink:title=" ">
<path fill="none" stroke="#63b8ff" d="M1977.61,-198.28C1976.16,-186.27 1974.4,-171.74 1973.27,-162.44"/>
<polygon fill="#63b8ff" stroke="#63b8ff" points="1974.12,-198.54 1978.8,-208.04 1981.07,-197.69 1974.12,-198.54"/>
</a>
</g>
</g>
</g>
</svg>
