<?xml version="1.0" encoding="UTF-8" standalone="no"?>
<!DOCTYPE svg PUBLIC "-//W3C//DTD SVG 1.1//EN"
 "http://www.w3.org/Graphics/SVG/1.1/DTD/svg11.dtd">
<!-- Generated by graphviz version 12.2.1 (0)
 -->
<!-- Title: src/platform/linux/input/inputtino_gamepad.h Pages: 1 -->
<svg width="268pt" height="108pt"
 viewBox="0.00 0.00 268.00 108.00" xmlns="http://www.w3.org/2000/svg" xmlns:xlink="http://www.w3.org/1999/xlink">
<g id="graph0" class="graph" transform="scale(1 1) rotate(0) translate(4 104)">
<title>src/platform/linux/input/inputtino_gamepad.h</title>
<!-- Node1 -->
<g id="Node000001" class="node">
<title>Node1</title>
<g id="a_Node000001"><a xlink:title="Declarations for inputtino gamepad input handling.">
<polygon fill="#999999" stroke="#666666" points="184.75,-100 51.75,-100 51.75,-68 184.75,-68 184.75,-100"/>
<text text-anchor="start" x="59.75" y="-86.5" font-family="Helvetica,sans-Serif" font-size="10.00">src/platform/linux</text>
<text text-anchor="middle" x="118.25" y="-74.5" font-family="Helvetica,sans-Serif" font-size="10.00">/input/inputtino_gamepad.h</text>
</a>
</g>
</g>
<!-- Node2 -->
<g id="Node000002" class="node">
<title>Node2</title>
<g id="a_Node000002"><a xlink:href="inputtino_8cpp.html" target="_top" xlink:title="Definitions for the inputtino Linux input handling.">
<polygon fill="white" stroke="#666666" points="98.5,-32 0,-32 0,0 98.5,0 98.5,-32"/>
<text text-anchor="start" x="8" y="-18.5" font-family="Helvetica,sans-Serif" font-size="10.00">src/platform/linux</text>
<text text-anchor="middle" x="49.25" y="-6.5" font-family="Helvetica,sans-Serif" font-size="10.00">/input/inputtino.cpp</text>
</a>
</g>
</g>
<!-- Node1&#45;&gt;Node2 -->
<g id="edge1_Node000001_Node000002" class="edge">
<title>Node1&#45;&gt;Node2</title>
<g id="a_edge1_Node000001_Node000002"><a xlink:title=" ">
<path fill="none" stroke="#63b8ff" d="M94.19,-59.99C84.58,-50.79 73.77,-40.46 65.17,-32.22"/>
<polygon fill="#63b8ff" stroke="#63b8ff" points="91.51,-62.26 101.15,-66.65 96.35,-57.2 91.51,-62.26"/>
</a>
</g>
</g>
<!-- Node3 -->
<g id="Node000003" class="node">
<title>Node3</title>
<g id="a_Node000003"><a xlink:href="inputtino__gamepad_8cpp.html" target="_top" xlink:title="Definitions for inputtino gamepad input handling.">
<polygon fill="white" stroke="#666666" points="260,-32 116.5,-32 116.5,0 260,0 260,-32"/>
<text text-anchor="start" x="124.5" y="-18.5" font-family="Helvetica,sans-Serif" font-size="10.00">src/platform/linux</text>
<text text-anchor="middle" x="188.25" y="-6.5" font-family="Helvetica,sans-Serif" font-size="10.00">/input/inputtino_gamepad.cpp</text>
</a>
</g>
</g>
<!-- Node1&#45;&gt;Node3 -->
<g id="edge2_Node000001_Node000003" class="edge">
<title>Node1&#45;&gt;Node3</title>
<g id="a_edge2_Node000001_Node000003"><a xlink:title=" ">
<path fill="none" stroke="#63b8ff" d="M142.66,-59.99C152.41,-50.79 163.37,-40.46 172.1,-32.22"/>
<polygon fill="#63b8ff" stroke="#63b8ff" points="140.46,-57.25 135.59,-66.65 145.26,-62.34 140.46,-57.25"/>
</a>
</g>
</g>
</g>
</svg>
