<?xml version="1.0" encoding="UTF-8" standalone="no"?>
<!DOCTYPE svg PUBLIC "-//W3C//DTD SVG 1.1//EN"
 "http://www.w3.org/Graphics/SVG/1.1/DTD/svg11.dtd">
<!-- Generated by graphviz version 12.2.1 (0)
 -->
<!-- Title: src/platform/linux/input/inputtino_mouse.cpp Pages: 1 -->
<!--zoomable 388 -->

<svg id="main" version="1.1" xmlns="http://www.w3.org/2000/svg" xmlns:xlink="http://www.w3.org/1999/xlink" xml:space="preserve" onload="init(evt)">

<style type="text/css"><![CDATA[
.node, .edge {opacity: 0.7;}
.node.selected, .edge.selected {opacity: 1;}
.edge:hover path { stroke: red; }
.edge:hover polygon { stroke: red; fill: red; }
]]></style>

<defs>
  <circle id="rim" cx="0" cy="0" r="7"/>
  <circle id="rim2" cx="0" cy="0" r="3.5"/>
  <g id="zoomPlus">
    <use xlink:href="#rim" fill="#404040"><set attributeName="fill" to="#808080" begin="zoomplus.mouseover" end="zoomplus.mouseout"/></use>
    <path d="M-4,0h8M0,-4v8" fill="none" stroke="white" stroke-width="1.5" pointer-events="none"/>
  </g>
  <g id="zoomMin">
    <use xlink:href="#rim" fill="#404040"><set attributeName="fill" to="#808080" begin="zoomminus.mouseover" end="zoomminus.mouseout"/></use>
    <path d="M-4,0h8" fill="none" stroke="white" stroke-width="1.5" pointer-events="none"/>
  </g>
  <g id="arrowUp" transform="translate(30 24)">
    <use xlink:href="#rim"/>
    <path pointer-events="none" fill="none" stroke="white" stroke-width="1.5" d="M0,-3.0v7 M-2.5,-0.5L0,-3.0L2.5,-0.5"/>
  </g>
  <g id="arrowRight" transform="rotate(90) translate(36 -43)">
    <use xlink:href="#rim"/>
    <path pointer-events="none" fill="none" stroke="white" stroke-width="1.5" d="M0,-3.0v7 M-2.5,-0.5L0,-3.0L2.5,-0.5"/>
  </g>
  <g id="arrowDown" transform="rotate(180) translate(-30 -48)">
    <use xlink:href="#rim"/>
    <path pointer-events="none" fill="none" stroke="white" stroke-width="1.5" d="M0,-3.0v7 M-2.5,-0.5L0,-3.0L2.5,-0.5"/>
  </g>
  <g id="arrowLeft" transform="rotate(270) translate(-36 17)">
    <use xlink:href="#rim"/>
    <path pointer-events="none" fill="none" stroke="white" stroke-width="1.5" d="M0,-3.0v7 M-2.5,-0.5L0,-3.0L2.5,-0.5"/>
  </g>
  <g id="resetDef">
    <use xlink:href="#rim2" fill="#404040"><set attributeName="fill" to="#808080" begin="reset.mouseover" end="reset.mouseout"/></use>
  </g>
</defs>
<script type="application/ecmascript">
var viewWidth = 1622;
var viewHeight = 388;
var sectionId = 'dynsection-0';
</script>
<script type="application/ecmascript" xlink:href="svg.min.js"/>
<svg id="graph" class="graph">
<g id="viewport">
<title>src/platform/linux/input/inputtino_mouse.cpp</title>
<!-- Node1 -->
<g id="Node000001" class="node">
<title>Node1</title>
<g id="a_Node000001"><a xlink:title="Definitions for inputtino mouse input handling.">
<polygon fill="#999999" stroke="#666666" points="1208.38,-380 1075.38,-380 1075.38,-348 1208.38,-348 1208.38,-380"/>
<text text-anchor="start" x="1083.38" y="-366.5" font-family="Helvetica,sans-Serif" font-size="10.00">src/platform/linux</text>
<text text-anchor="middle" x="1141.88" y="-354.5" font-family="Helvetica,sans-Serif" font-size="10.00">/input/inputtino_mouse.cpp</text>
</a>
</g>
</g>
<!-- Node2 -->
<g id="Node000002" class="node">
<title>Node2</title>
<g id="a_Node000002"><a xlink:title=" ">
<polygon fill="#e0e0e0" stroke="#999999" points="668.5,-200 581.25,-200 581.25,-180 668.5,-180 668.5,-200"/>
<text text-anchor="middle" x="624.88" y="-186.5" font-family="Helvetica,sans-Serif" font-size="10.00">boost/locale.hpp</text>
</a>
</g>
</g>
<!-- Node1&#45;&gt;Node2 -->
<g id="edge1_Node000001_Node000002" class="edge">
<title>Node1&#45;&gt;Node2</title>
<g id="a_edge1_Node000001_Node000002"><a xlink:title=" ">
<path fill="none" stroke="#63b8ff" d="M1092.78,-347.61C1061.09,-337.6 1018.99,-324.2 981.88,-312 865.22,-273.64 727.77,-226.51 662.69,-204.07"/>
<polygon fill="#63b8ff" stroke="#63b8ff" points="664.16,-200.88 653.57,-200.92 661.88,-207.49 664.16,-200.88"/>
</a>
</g>
</g>
<!-- Node3 -->
<g id="Node000003" class="node">
<title>Node3</title>
<g id="a_Node000003"><a xlink:title=" ">
<polygon fill="#e0e0e0" stroke="#999999" points="1227.62,-200 1132.12,-200 1132.12,-180 1227.62,-180 1227.62,-200"/>
<text text-anchor="middle" x="1179.88" y="-186.5" font-family="Helvetica,sans-Serif" font-size="10.00">inputtino/input.hpp</text>
</a>
</g>
</g>
<!-- Node1&#45;&gt;Node3 -->
<g id="edge2_Node000001_Node000003" class="edge">
<title>Node1&#45;&gt;Node3</title>
<g id="a_edge2_Node000001_Node000003"><a xlink:title=" ">
<path fill="none" stroke="#63b8ff" d="M1145.25,-347.74C1152.11,-316.69 1167.68,-246.18 1175.39,-211.31"/>
<polygon fill="#63b8ff" stroke="#63b8ff" points="1178.77,-212.21 1177.51,-201.69 1171.94,-210.7 1178.77,-212.21"/>
</a>
</g>
</g>
<!-- Node4 -->
<g id="Node000004" class="node">
<title>Node4</title>
<g id="a_Node000004"><a xlink:title=" ">
<polygon fill="#e0e0e0" stroke="#999999" points="1344.12,-200 1245.62,-200 1245.62,-180 1344.12,-180 1344.12,-200"/>
<text text-anchor="middle" x="1294.88" y="-186.5" font-family="Helvetica,sans-Serif" font-size="10.00">libevdev/libevdev.h</text>
</a>
</g>
</g>
<!-- Node1&#45;&gt;Node4 -->
<g id="edge3_Node000001_Node000004" class="edge">
<title>Node1&#45;&gt;Node4</title>
<g id="a_edge3_Node000001_Node000004"><a xlink:title=" ">
<path fill="none" stroke="#63b8ff" d="M1155.45,-347.74C1183.8,-315.87 1249.12,-242.44 1279.19,-208.63"/>
<polygon fill="#63b8ff" stroke="#63b8ff" points="1281.65,-211.14 1285.68,-201.34 1276.42,-206.49 1281.65,-211.14"/>
</a>
</g>
</g>
<!-- Node5 -->
<g id="Node000005" class="node">
<title>Node5</title>
<g id="a_Node000005"><a xlink:href="inputtino__common_8h.html" target="_top" xlink:title="Declarations for inputtino common input handling.">
<polygon fill="white" stroke="#666666" points="1117.75,-256 1014,-256 1014,-236 1117.75,-236 1117.75,-256"/>
<text text-anchor="middle" x="1065.88" y="-242.5" font-family="Helvetica,sans-Serif" font-size="10.00">inputtino_common.h</text>
</a>
</g>
</g>
<!-- Node1&#45;&gt;Node5 -->
<g id="edge4_Node000001_Node000005" class="edge">
<title>Node1&#45;&gt;Node5</title>
<g id="a_edge4_Node000001_Node000005"><a xlink:title=" ">
<path fill="none" stroke="#63b8ff" d="M1140.6,-347.73C1138.71,-332.53 1134.1,-309.06 1122.88,-292 1115.18,-280.31 1103.44,-270.29 1092.61,-262.7"/>
<polygon fill="#63b8ff" stroke="#63b8ff" points="1094.61,-259.83 1084.33,-257.26 1090.77,-265.68 1094.61,-259.83"/>
</a>
</g>
</g>
<!-- Node6 -->
<g id="Node000006" class="node">
<title>Node6</title>
<g id="a_Node000006"><a xlink:href="config_8h.html" target="_top" xlink:title="Declarations for the configuration of Sunshine.">
<polygon fill="white" stroke="#666666" points="1185.38,-76 1118.38,-76 1118.38,-56 1185.38,-56 1185.38,-76"/>
<text text-anchor="middle" x="1151.88" y="-62.5" font-family="Helvetica,sans-Serif" font-size="10.00">src/config.h</text>
</a>
</g>
</g>
<!-- Node1&#45;&gt;Node6 -->
<g id="edge65_Node000001_Node000006" class="edge">
<title>Node1&#45;&gt;Node6</title>
<g id="a_edge65_Node000001_Node000006"><a xlink:title=" ">
<path fill="none" stroke="#63b8ff" d="M1208.87,-358.17C1278.64,-349.06 1377.88,-322.79 1377.88,-247 1377.88,-247 1377.88,-247 1377.88,-189 1377.88,-107.61 1262.97,-80.26 1197.02,-71.27"/>
<polygon fill="#63b8ff" stroke="#63b8ff" points="1197.57,-67.81 1187.21,-70.03 1196.69,-74.75 1197.57,-67.81"/>
</a>
</g>
</g>
<!-- Node14 -->
<g id="Node000014" class="node">
<title>Node14</title>
<g id="a_Node000014"><a xlink:href="logging_8h.html" target="_top" xlink:title="Declarations for logging related functions.">
<polygon fill="white" stroke="#666666" points="1477.62,-138 1406.12,-138 1406.12,-118 1477.62,-118 1477.62,-138"/>
<text text-anchor="middle" x="1441.88" y="-124.5" font-family="Helvetica,sans-Serif" font-size="10.00">src/logging.h</text>
</a>
</g>
</g>
<!-- Node1&#45;&gt;Node14 -->
<g id="edge66_Node000001_Node000014" class="edge">
<title>Node1&#45;&gt;Node14</title>
<g id="a_edge66_Node000001_Node000014"><a xlink:title=" ">
<path fill="none" stroke="#63b8ff" d="M1208.85,-357.21C1273.68,-350.26 1365.85,-336.38 1391.88,-312 1438.09,-268.71 1443.09,-187.22 1442.71,-149.33"/>
<polygon fill="#63b8ff" stroke="#63b8ff" points="1446.23,-149.69 1442.47,-139.78 1439.23,-149.87 1446.23,-149.69"/>
</a>
</g>
</g>
<!-- Node21 -->
<g id="Node000021" class="node">
<title>Node21</title>
<g id="a_Node000021"><a xlink:href="common_8h.html" target="_top" xlink:title="Declarations for common platform specific utilities.">
<polygon fill="white" stroke="#666666" points="968.12,-200 851.62,-200 851.62,-180 968.12,-180 968.12,-200"/>
<text text-anchor="middle" x="909.88" y="-186.5" font-family="Helvetica,sans-Serif" font-size="10.00">src/platform/common.h</text>
</a>
</g>
</g>
<!-- Node1&#45;&gt;Node21 -->
<g id="edge67_Node000001_Node000021" class="edge">
<title>Node1&#45;&gt;Node21</title>
<g id="a_edge67_Node000001_Node000021"><a xlink:title=" ">
<path fill="none" stroke="#63b8ff" d="M1082.62,-347.59C1058.33,-339.48 1030.83,-327.86 1008.88,-312 969.62,-283.64 936.99,-236.04 920.83,-209.79"/>
<polygon fill="#63b8ff" stroke="#63b8ff" points="924.03,-208.33 915.88,-201.56 918.03,-211.94 924.03,-208.33"/>
</a>
</g>
</g>
<!-- Node30 -->
<g id="Node000030" class="node">
<title>Node30</title>
<g id="a_Node000030"><a xlink:href="utility_8h.html" target="_top" xlink:title="Declarations for utility functions.">
<polygon fill="white" stroke="#666666" points="336.25,-76 289.5,-76 289.5,-56 336.25,-56 336.25,-76"/>
<text text-anchor="middle" x="312.88" y="-62.5" font-family="Helvetica,sans-Serif" font-size="10.00">utility.h</text>
</a>
</g>
</g>
<!-- Node1&#45;&gt;Node30 -->
<g id="edge68_Node000001_Node000030" class="edge">
<title>Node1&#45;&gt;Node30</title>
<g id="a_edge68_Node000001_Node000030"><a xlink:title=" ">
<path fill="none" stroke="#63b8ff" d="M1074.96,-359.96C887.18,-350.55 368.88,-318.12 368.88,-247 368.88,-247 368.88,-247 368.88,-189 368.88,-149.21 343.97,-108.23 327.37,-85.34"/>
<polygon fill="#63b8ff" stroke="#63b8ff" points="330.39,-83.53 321.57,-77.64 324.79,-87.74 330.39,-83.53"/>
</a>
</g>
</g>
<!-- Node40 -->
<g id="Node000040" class="node">
<title>Node40</title>
<g id="a_Node000040"><a xlink:href="inputtino__mouse_8h.html" target="_top" xlink:title="Declarations for inputtino mouse input handling.">
<polygon fill="white" stroke="#666666" points="1113.62,-312 1018.12,-312 1018.12,-292 1113.62,-292 1113.62,-312"/>
<text text-anchor="middle" x="1065.88" y="-298.5" font-family="Helvetica,sans-Serif" font-size="10.00">inputtino_mouse.h</text>
</a>
</g>
</g>
<!-- Node1&#45;&gt;Node40 -->
<g id="edge59_Node000001_Node000040" class="edge">
<title>Node1&#45;&gt;Node40</title>
<g id="a_edge59_Node000001_Node000040"><a xlink:title=" ">
<path fill="none" stroke="#63b8ff" d="M1122.3,-347.55C1111.42,-338.95 1097.87,-328.26 1086.78,-319.5"/>
<polygon fill="#63b8ff" stroke="#63b8ff" points="1089,-316.8 1078.98,-313.35 1084.66,-322.29 1089,-316.8"/>
</a>
</g>
</g>
<!-- Node5&#45;&gt;Node2 -->
<g id="edge5_Node000005_Node000002" class="edge">
<title>Node5&#45;&gt;Node2</title>
<g id="a_edge5_Node000005_Node000002"><a xlink:title=" ">
<path fill="none" stroke="#63b8ff" d="M1013.76,-239.49C940,-231.56 800.96,-216.09 682.88,-200 681.88,-199.86 680.88,-199.73 679.87,-199.59"/>
<polygon fill="#63b8ff" stroke="#63b8ff" points="680.76,-196.18 670.37,-198.22 679.77,-203.11 680.76,-196.18"/>
</a>
</g>
</g>
<!-- Node5&#45;&gt;Node3 -->
<g id="edge6_Node000005_Node000003" class="edge">
<title>Node5&#45;&gt;Node3</title>
<g id="a_edge6_Node000005_Node000003"><a xlink:title=" ">
<path fill="none" stroke="#63b8ff" d="M1085.73,-235.59C1103.36,-227.24 1129.38,-214.92 1149.6,-205.34"/>
<polygon fill="#63b8ff" stroke="#63b8ff" points="1150.96,-208.57 1158.49,-201.13 1147.96,-202.25 1150.96,-208.57"/>
</a>
</g>
</g>
<!-- Node5&#45;&gt;Node4 -->
<g id="edge7_Node000005_Node000004" class="edge">
<title>Node5&#45;&gt;Node4</title>
<g id="a_edge7_Node000005_Node000004"><a xlink:title=" ">
<path fill="none" stroke="#63b8ff" d="M1106.03,-235.53C1144.33,-226.5 1202.2,-212.85 1243.77,-203.05"/>
<polygon fill="#63b8ff" stroke="#63b8ff" points="1244.37,-206.51 1253.3,-200.8 1242.76,-199.69 1244.37,-206.51"/>
</a>
</g>
</g>
<!-- Node5&#45;&gt;Node6 -->
<g id="edge8_Node000005_Node000006" class="edge">
<title>Node5&#45;&gt;Node6</title>
<g id="a_edge8_Node000005_Node000006"><a xlink:title=" ">
<path fill="none" stroke="#63b8ff" d="M1067.21,-235.79C1069.81,-221.45 1076.95,-193.98 1094.88,-180 1167.81,-123.1 1240.39,-214.84 1299.88,-144 1332.48,-105.17 1251.3,-83.44 1196.69,-73.58"/>
<polygon fill="#63b8ff" stroke="#63b8ff" points="1197.44,-70.16 1186.99,-71.91 1196.25,-77.06 1197.44,-70.16"/>
</a>
</g>
</g>
<!-- Node5&#45;&gt;Node14 -->
<g id="edge16_Node000005_Node000014" class="edge">
<title>Node5&#45;&gt;Node14</title>
<g id="a_edge16_Node000005_Node000014"><a xlink:title=" ">
<path fill="none" stroke="#63b8ff" d="M1071.12,-235.63C1079.82,-221.06 1098.68,-193.31 1122.88,-180 1213.92,-129.94 1251.32,-160.73 1353.88,-144 1367.13,-141.84 1381.48,-139.42 1394.68,-137.17"/>
<polygon fill="#63b8ff" stroke="#63b8ff" points="1395.17,-140.64 1404.44,-135.5 1393.99,-133.74 1395.17,-140.64"/>
</a>
</g>
</g>
<!-- Node5&#45;&gt;Node21 -->
<g id="edge25_Node000005_Node000021" class="edge">
<title>Node5&#45;&gt;Node21</title>
<g id="a_edge25_Node000005_Node000021"><a xlink:title=" ">
<path fill="none" stroke="#63b8ff" d="M1038.7,-235.59C1013.58,-226.9 975.99,-213.89 947.9,-204.16"/>
<polygon fill="#63b8ff" stroke="#63b8ff" points="949.29,-200.94 938.69,-200.97 947,-207.55 949.29,-200.94"/>
</a>
</g>
</g>
<!-- Node5&#45;&gt;Node30 -->
<g id="edge58_Node000005_Node000030" class="edge">
<title>Node5&#45;&gt;Node30</title>
<g id="a_edge58_Node000005_Node000030"><a xlink:title=" ">
<path fill="none" stroke="#63b8ff" d="M1013.64,-236.23C871.91,-212.42 489.77,-148.05 476.88,-144 425.92,-127.99 370.41,-99.34 338.8,-81.87"/>
<polygon fill="#63b8ff" stroke="#63b8ff" points="340.8,-78.97 330.36,-77.14 337.38,-85.08 340.8,-78.97"/>
</a>
</g>
</g>
<!-- Node7 -->
<g id="Node000007" class="node">
<title>Node7</title>
<g id="a_Node000007"><a xlink:title=" ">
<polygon fill="#e0e0e0" stroke="#999999" points="960.88,-20 920.88,-20 920.88,0 960.88,0 960.88,-20"/>
<text text-anchor="middle" x="940.88" y="-6.5" font-family="Helvetica,sans-Serif" font-size="10.00">bitset</text>
</a>
</g>
</g>
<!-- Node6&#45;&gt;Node7 -->
<g id="edge9_Node000006_Node000007" class="edge">
<title>Node6&#45;&gt;Node7</title>
<g id="a_edge9_Node000006_Node000007"><a xlink:title=" ">
<path fill="none" stroke="#63b8ff" d="M1117.94,-56.92C1083.8,-48.7 1029.41,-35.37 971.95,-19.92"/>
<polygon fill="#63b8ff" stroke="#63b8ff" points="973.22,-16.64 962.65,-17.41 971.39,-23.4 973.22,-16.64"/>
</a>
</g>
</g>
<!-- Node8 -->
<g id="Node000008" class="node">
<title>Node8</title>
<g id="a_Node000008"><a xlink:title=" ">
<polygon fill="#e0e0e0" stroke="#999999" points="1256.5,-20 1211.25,-20 1211.25,0 1256.5,0 1256.5,-20"/>
<text text-anchor="middle" x="1233.88" y="-6.5" font-family="Helvetica,sans-Serif" font-size="10.00">chrono</text>
</a>
</g>
</g>
<!-- Node6&#45;&gt;Node8 -->
<g id="edge10_Node000006_Node000008" class="edge">
<title>Node6&#45;&gt;Node8</title>
<g id="a_edge10_Node000006_Node000008"><a xlink:title=" ">
<path fill="none" stroke="#63b8ff" d="M1166.16,-55.59C1178.31,-47.59 1196.01,-35.93 1210.27,-26.54"/>
<polygon fill="#63b8ff" stroke="#63b8ff" points="1211.79,-29.73 1218.22,-21.31 1207.94,-23.89 1211.79,-29.73"/>
</a>
</g>
</g>
<!-- Node9 -->
<g id="Node000009" class="node">
<title>Node9</title>
<g id="a_Node000009"><a xlink:title=" ">
<polygon fill="#e0e0e0" stroke="#999999" points="662.75,-20 613,-20 613,0 662.75,0 662.75,-20"/>
<text text-anchor="middle" x="637.88" y="-6.5" font-family="Helvetica,sans-Serif" font-size="10.00">optional</text>
</a>
</g>
</g>
<!-- Node6&#45;&gt;Node9 -->
<g id="edge11_Node000006_Node000009" class="edge">
<title>Node6&#45;&gt;Node9</title>
<g id="a_edge11_Node000006_Node000009"><a xlink:title=" ">
<path fill="none" stroke="#63b8ff" d="M1118.07,-63.85C1040.86,-60.79 845.58,-50.63 674.25,-20.36"/>
<polygon fill="#63b8ff" stroke="#63b8ff" points="674.95,-16.93 664.49,-18.6 673.71,-23.82 674.95,-16.93"/>
</a>
</g>
</g>
<!-- Node10 -->
<g id="Node000010" class="node">
<title>Node10</title>
<g id="a_Node000010"><a xlink:title=" ">
<polygon fill="#e0e0e0" stroke="#999999" points="781.88,-20 741.88,-20 741.88,0 781.88,0 781.88,-20"/>
<text text-anchor="middle" x="761.88" y="-6.5" font-family="Helvetica,sans-Serif" font-size="10.00">string</text>
</a>
</g>
</g>
<!-- Node6&#45;&gt;Node10 -->
<g id="edge12_Node000006_Node000010" class="edge">
<title>Node6&#45;&gt;Node10</title>
<g id="a_edge12_Node000006_Node000010"><a xlink:title=" ">
<path fill="none" stroke="#63b8ff" d="M1117.95,-60.3C1043.16,-49.95 865.07,-25.29 792.98,-15.31"/>
<polygon fill="#63b8ff" stroke="#63b8ff" points="793.84,-11.89 783.46,-13.99 792.88,-18.83 793.84,-11.89"/>
</a>
</g>
</g>
<!-- Node11 -->
<g id="Node000011" class="node">
<title>Node11</title>
<g id="a_Node000011"><a xlink:title=" ">
<polygon fill="#e0e0e0" stroke="#999999" points="1193.25,-20 1110.5,-20 1110.5,0 1193.25,0 1193.25,-20"/>
<text text-anchor="middle" x="1151.88" y="-6.5" font-family="Helvetica,sans-Serif" font-size="10.00">unordered_map</text>
</a>
</g>
</g>
<!-- Node6&#45;&gt;Node11 -->
<g id="edge13_Node000006_Node000011" class="edge">
<title>Node6&#45;&gt;Node11</title>
<g id="a_edge13_Node000006_Node000011"><a xlink:title=" ">
<path fill="none" stroke="#63b8ff" d="M1151.88,-55.59C1151.88,-49.01 1151.88,-39.96 1151.88,-31.73"/>
<polygon fill="#63b8ff" stroke="#63b8ff" points="1155.38,-31.81 1151.88,-21.81 1148.38,-31.81 1155.38,-31.81"/>
</a>
</g>
</g>
<!-- Node12 -->
<g id="Node000012" class="node">
<title>Node12</title>
<g id="a_Node000012"><a xlink:title=" ">
<polygon fill="#e0e0e0" stroke="#999999" points="723.38,-20 680.38,-20 680.38,0 723.38,0 723.38,-20"/>
<text text-anchor="middle" x="701.88" y="-6.5" font-family="Helvetica,sans-Serif" font-size="10.00">vector</text>
</a>
</g>
</g>
<!-- Node6&#45;&gt;Node12 -->
<g id="edge14_Node000006_Node000012" class="edge">
<title>Node6&#45;&gt;Node12</title>
<g id="a_edge14_Node000006_Node000012"><a xlink:title=" ">
<path fill="none" stroke="#63b8ff" d="M1117.9,-63.38C1047.93,-59.6 882.61,-48.46 734.83,-20.04"/>
<polygon fill="#63b8ff" stroke="#63b8ff" points="735.74,-16.65 725.26,-18.16 734.4,-23.52 735.74,-16.65"/>
</a>
</g>
</g>
<!-- Node13 -->
<g id="Node000013" class="node">
<title>Node13</title>
<g id="a_Node000013"><a xlink:href="nvenc__config_8h.html" target="_top" xlink:title="Declarations for NVENC encoder configuration.">
<polygon fill="white" stroke="#666666" points="1092.5,-20 981.25,-20 981.25,0 1092.5,0 1092.5,-20"/>
<text text-anchor="middle" x="1036.88" y="-6.5" font-family="Helvetica,sans-Serif" font-size="10.00">nvenc/nvenc_config.h</text>
</a>
</g>
</g>
<!-- Node6&#45;&gt;Node13 -->
<g id="edge15_Node000006_Node000013" class="edge">
<title>Node6&#45;&gt;Node13</title>
<g id="a_edge15_Node000006_Node000013"><a xlink:title=" ">
<path fill="none" stroke="#63b8ff" d="M1131.84,-55.59C1114.06,-47.24 1087.81,-34.92 1067.41,-25.34"/>
<polygon fill="#63b8ff" stroke="#63b8ff" points="1068.97,-22.21 1058.43,-21.12 1066,-28.54 1068.97,-22.21"/>
</a>
</g>
</g>
<!-- Node14&#45;&gt;Node6 -->
<g id="edge19_Node000014_Node000006" class="edge">
<title>Node14&#45;&gt;Node6</title>
<g id="a_edge19_Node000014_Node000006"><a xlink:title=" ">
<path fill="none" stroke="#63b8ff" d="M1412.14,-117.52C1405.51,-115.56 1398.48,-113.61 1391.88,-112 1324.52,-95.63 1245.29,-81.81 1196.84,-73.97"/>
<polygon fill="#63b8ff" stroke="#63b8ff" points="1197.43,-70.52 1187,-72.39 1196.32,-77.43 1197.43,-70.52"/>
</a>
</g>
</g>
<!-- Node15 -->
<g id="Node000015" class="node">
<title>Node15</title>
<g id="a_Node000015"><a xlink:title=" ">
<polygon fill="#e0e0e0" stroke="#999999" points="1495.38,-76 1380.38,-76 1380.38,-56 1495.38,-56 1495.38,-76"/>
<text text-anchor="middle" x="1437.88" y="-62.5" font-family="Helvetica,sans-Serif" font-size="10.00">boost/log/common.hpp</text>
</a>
</g>
</g>
<!-- Node14&#45;&gt;Node15 -->
<g id="edge17_Node000014_Node000015" class="edge">
<title>Node14&#45;&gt;Node15</title>
<g id="a_edge17_Node000014_Node000015"><a xlink:title=" ">
<path fill="none" stroke="#63b8ff" d="M1441.25,-117.62C1440.71,-109.56 1439.92,-97.65 1439.24,-87.41"/>
<polygon fill="#63b8ff" stroke="#63b8ff" points="1442.74,-87.37 1438.58,-77.62 1435.76,-87.83 1442.74,-87.37"/>
</a>
</g>
</g>
<!-- Node16 -->
<g id="Node000016" class="node">
<title>Node16</title>
<g id="a_Node000016"><a xlink:title=" ">
<polygon fill="#e0e0e0" stroke="#999999" points="1614.25,-76 1513.5,-76 1513.5,-56 1614.25,-56 1614.25,-76"/>
<text text-anchor="middle" x="1563.88" y="-62.5" font-family="Helvetica,sans-Serif" font-size="10.00">boost/log/sinks.hpp</text>
</a>
</g>
</g>
<!-- Node14&#45;&gt;Node16 -->
<g id="edge18_Node000014_Node000016" class="edge">
<title>Node14&#45;&gt;Node16</title>
<g id="a_edge18_Node000014_Node000016"><a xlink:title=" ">
<path fill="none" stroke="#63b8ff" d="M1460.94,-117.62C1480.72,-107.89 1511.92,-92.55 1534.79,-81.31"/>
<polygon fill="#63b8ff" stroke="#63b8ff" points="1536.16,-84.53 1543.59,-76.98 1533.07,-78.25 1536.16,-84.53"/>
</a>
</g>
</g>
<!-- Node17 -->
<g id="Node000017" class="node">
<title>Node17</title>
<g id="a_Node000017"><a xlink:href="stat__trackers_8h.html" target="_top" xlink:title="Declarations for streaming statistic tracking.">
<polygon fill="white" stroke="#666666" points="1359.5,-76 1278.25,-76 1278.25,-56 1359.5,-56 1359.5,-76"/>
<text text-anchor="middle" x="1318.88" y="-62.5" font-family="Helvetica,sans-Serif" font-size="10.00">stat_trackers.h</text>
</a>
</g>
</g>
<!-- Node14&#45;&gt;Node17 -->
<g id="edge20_Node000014_Node000017" class="edge">
<title>Node14&#45;&gt;Node17</title>
<g id="a_edge20_Node000014_Node000017"><a xlink:title=" ">
<path fill="none" stroke="#63b8ff" d="M1422.66,-117.62C1402.71,-107.89 1371.26,-92.55 1348.2,-81.31"/>
<polygon fill="#63b8ff" stroke="#63b8ff" points="1349.84,-78.21 1339.32,-76.97 1346.77,-84.5 1349.84,-78.21"/>
</a>
</g>
</g>
<!-- Node17&#45;&gt;Node8 -->
<g id="edge21_Node000017_Node000008" class="edge">
<title>Node17&#45;&gt;Node8</title>
<g id="a_edge21_Node000017_Node000008"><a xlink:title=" ">
<path fill="none" stroke="#63b8ff" d="M1304.07,-55.59C1291.47,-47.59 1273.12,-35.93 1258.34,-26.54"/>
<polygon fill="#63b8ff" stroke="#63b8ff" points="1260.39,-23.7 1250.07,-21.29 1256.64,-29.61 1260.39,-23.7"/>
</a>
</g>
</g>
<!-- Node18 -->
<g id="Node000018" class="node">
<title>Node18</title>
<g id="a_Node000018"><a xlink:title=" ">
<polygon fill="#e0e0e0" stroke="#999999" points="898.88,-20 840.88,-20 840.88,0 898.88,0 898.88,-20"/>
<text text-anchor="middle" x="869.88" y="-6.5" font-family="Helvetica,sans-Serif" font-size="10.00">functional</text>
</a>
</g>
</g>
<!-- Node17&#45;&gt;Node18 -->
<g id="edge22_Node000017_Node000018" class="edge">
<title>Node17&#45;&gt;Node18</title>
<g id="a_edge22_Node000017_Node000018"><a xlink:title=" ">
<path fill="none" stroke="#63b8ff" d="M1277.96,-61.85C1204.4,-55.89 1045.03,-41.57 911.88,-20 911.36,-19.92 910.84,-19.83 910.32,-19.74"/>
<polygon fill="#63b8ff" stroke="#63b8ff" points="911.14,-16.34 900.66,-17.95 909.86,-23.22 911.14,-16.34"/>
</a>
</g>
</g>
<!-- Node19 -->
<g id="Node000019" class="node">
<title>Node19</title>
<g id="a_Node000019"><a xlink:title=" ">
<polygon fill="#e0e0e0" stroke="#999999" points="1420.5,-20 1381.25,-20 1381.25,0 1420.5,0 1420.5,-20"/>
<text text-anchor="middle" x="1400.88" y="-6.5" font-family="Helvetica,sans-Serif" font-size="10.00">limits</text>
</a>
</g>
</g>
<!-- Node17&#45;&gt;Node19 -->
<g id="edge23_Node000017_Node000019" class="edge">
<title>Node17&#45;&gt;Node19</title>
<g id="a_edge23_Node000017_Node000019"><a xlink:title=" ">
<path fill="none" stroke="#63b8ff" d="M1333.16,-55.59C1345.31,-47.59 1363.01,-35.93 1377.27,-26.54"/>
<polygon fill="#63b8ff" stroke="#63b8ff" points="1378.79,-29.73 1385.22,-21.31 1374.94,-23.89 1378.79,-29.73"/>
</a>
</g>
</g>
<!-- Node20 -->
<g id="Node000020" class="node">
<title>Node20</title>
<g id="a_Node000020"><a xlink:title=" ">
<polygon fill="#e0e0e0" stroke="#999999" points="1363.62,-20 1274.12,-20 1274.12,0 1363.62,0 1363.62,-20"/>
<text text-anchor="middle" x="1318.88" y="-6.5" font-family="Helvetica,sans-Serif" font-size="10.00">boost/format.hpp</text>
</a>
</g>
</g>
<!-- Node17&#45;&gt;Node20 -->
<g id="edge24_Node000017_Node000020" class="edge">
<title>Node17&#45;&gt;Node20</title>
<g id="a_edge24_Node000017_Node000020"><a xlink:title=" ">
<path fill="none" stroke="#63b8ff" d="M1318.88,-55.59C1318.88,-49.01 1318.88,-39.96 1318.88,-31.73"/>
<polygon fill="#63b8ff" stroke="#63b8ff" points="1322.38,-31.81 1318.88,-21.81 1315.38,-31.81 1322.38,-31.81"/>
</a>
</g>
</g>
<!-- Node21&#45;&gt;Node6 -->
<g id="edge32_Node000021_Node000006" class="edge">
<title>Node21&#45;&gt;Node6</title>
<g id="a_edge32_Node000021_Node000006"><a xlink:title=" ">
<path fill="none" stroke="#63b8ff" d="M968.61,-183.95C1071.06,-174.87 1272.57,-155.62 1282.88,-144 1292.31,-133.36 1291.14,-123.58 1282.88,-112 1263.51,-84.87 1226.71,-73.93 1197.04,-69.6"/>
<polygon fill="#63b8ff" stroke="#63b8ff" points="1197.51,-66.13 1187.16,-68.38 1196.66,-73.08 1197.51,-66.13"/>
</a>
</g>
</g>
<!-- Node21&#45;&gt;Node7 -->
<g id="edge26_Node000021_Node000007" class="edge">
<title>Node21&#45;&gt;Node7</title>
<g id="a_edge26_Node000021_Node000007"><a xlink:title=" ">
<path fill="none" stroke="#63b8ff" d="M911.45,-179.51C913.87,-164.97 918.66,-136.31 922.88,-112 927.69,-84.23 933.43,-52.2 937.11,-31.78"/>
<polygon fill="#63b8ff" stroke="#63b8ff" points="940.56,-32.42 938.89,-21.95 933.67,-31.17 940.56,-32.42"/>
</a>
</g>
</g>
<!-- Node21&#45;&gt;Node10 -->
<g id="edge30_Node000021_Node000010" class="edge">
<title>Node21&#45;&gt;Node10</title>
<g id="a_edge30_Node000021_Node000010"><a xlink:title=" ">
<path fill="none" stroke="#63b8ff" d="M851.19,-183.66C799.25,-177.58 729.08,-165.56 711.88,-144 683.79,-108.82 721.15,-56.21 744.93,-28.9"/>
<polygon fill="#63b8ff" stroke="#63b8ff" points="747.52,-31.25 751.62,-21.49 742.32,-26.56 747.52,-31.25"/>
</a>
</g>
</g>
<!-- Node21&#45;&gt;Node14 -->
<g id="edge33_Node000021_Node000014" class="edge">
<title>Node21&#45;&gt;Node14</title>
<g id="a_edge33_Node000021_Node000014"><a xlink:title=" ">
<path fill="none" stroke="#63b8ff" d="M968.39,-182.67C1047.3,-174.09 1192.23,-158.21 1315.88,-144 1341.92,-141.01 1370.99,-137.55 1394.63,-134.72"/>
<polygon fill="#63b8ff" stroke="#63b8ff" points="1394.75,-138.23 1404.26,-133.56 1393.92,-131.28 1394.75,-138.23"/>
</a>
</g>
</g>
<!-- Node21&#45;&gt;Node18 -->
<g id="edge28_Node000021_Node000018" class="edge">
<title>Node21&#45;&gt;Node18</title>
<g id="a_edge28_Node000021_Node000018"><a xlink:title=" ">
<path fill="none" stroke="#63b8ff" d="M907.84,-179.93C901.67,-152.5 883.12,-69.96 874.45,-31.34"/>
<polygon fill="#63b8ff" stroke="#63b8ff" points="877.9,-30.73 872.29,-21.74 871.07,-32.27 877.9,-30.73"/>
</a>
</g>
</g>
<!-- Node22 -->
<g id="Node000022" class="node">
<title>Node22</title>
<g id="a_Node000022"><a xlink:title=" ">
<polygon fill="#e0e0e0" stroke="#999999" points="992.38,-138 931.38,-138 931.38,-118 992.38,-118 992.38,-138"/>
<text text-anchor="middle" x="961.88" y="-124.5" font-family="Helvetica,sans-Serif" font-size="10.00">filesystem</text>
</a>
</g>
</g>
<!-- Node21&#45;&gt;Node22 -->
<g id="edge27_Node000021_Node000022" class="edge">
<title>Node21&#45;&gt;Node22</title>
<g id="a_edge27_Node000021_Node000022"><a xlink:title=" ">
<path fill="none" stroke="#63b8ff" d="M918,-179.62C925.6,-170.86 937.15,-157.53 946.49,-146.75"/>
<polygon fill="#63b8ff" stroke="#63b8ff" points="949.08,-149.11 952.99,-139.26 943.79,-144.52 949.08,-149.11"/>
</a>
</g>
</g>
<!-- Node23 -->
<g id="Node000023" class="node">
<title>Node23</title>
<g id="a_Node000023"><a xlink:title=" ">
<polygon fill="#e0e0e0" stroke="#999999" points="595.38,-20 552.38,-20 552.38,0 595.38,0 595.38,-20"/>
<text text-anchor="middle" x="573.88" y="-6.5" font-family="Helvetica,sans-Serif" font-size="10.00">mutex</text>
</a>
</g>
</g>
<!-- Node21&#45;&gt;Node23 -->
<g id="edge29_Node000021_Node000023" class="edge">
<title>Node21&#45;&gt;Node23</title>
<g id="a_edge29_Node000021_Node000023"><a xlink:title=" ">
<path fill="none" stroke="#63b8ff" d="M851.19,-186.06C806.64,-181.66 745.2,-170.77 697.88,-144 647.22,-115.35 605.21,-58.99 585.67,-29.69"/>
<polygon fill="#63b8ff" stroke="#63b8ff" points="588.72,-27.96 580.34,-21.49 582.86,-31.78 588.72,-27.96"/>
</a>
</g>
</g>
<!-- Node24 -->
<g id="Node000024" class="node">
<title>Node24</title>
<g id="a_Node000024"><a xlink:title=" ">
<polygon fill="#e0e0e0" stroke="#999999" points="1149,-138 1010.75,-138 1010.75,-118 1149,-118 1149,-138"/>
<text text-anchor="middle" x="1079.88" y="-124.5" font-family="Helvetica,sans-Serif" font-size="10.00">boost/core/noncopyable.hpp</text>
</a>
</g>
</g>
<!-- Node21&#45;&gt;Node24 -->
<g id="edge31_Node000021_Node000024" class="edge">
<title>Node21&#45;&gt;Node24</title>
<g id="a_edge31_Node000021_Node000024"><a xlink:title=" ">
<path fill="none" stroke="#63b8ff" d="M936.44,-179.62C964.92,-169.57 1010.38,-153.53 1042.47,-142.2"/>
<polygon fill="#63b8ff" stroke="#63b8ff" points="1043.53,-145.54 1051.79,-138.91 1041.2,-138.94 1043.53,-145.54"/>
</a>
</g>
</g>
<!-- Node25 -->
<g id="Node000025" class="node">
<title>Node25</title>
<g id="a_Node000025"><a xlink:href="thread__safe_8h.html" target="_top" xlink:title="Declarations for thread&#45;safe data structures.">
<polygon fill="white" stroke="#666666" points="620.75,-138 529,-138 529,-118 620.75,-118 620.75,-138"/>
<text text-anchor="middle" x="574.88" y="-124.5" font-family="Helvetica,sans-Serif" font-size="10.00">src/thread_safe.h</text>
</a>
</g>
</g>
<!-- Node21&#45;&gt;Node25 -->
<g id="edge34_Node000021_Node000025" class="edge">
<title>Node21&#45;&gt;Node25</title>
<g id="a_edge34_Node000021_Node000025"><a xlink:title=" ">
<path fill="none" stroke="#63b8ff" d="M851.37,-180.75C795.73,-172.58 709.79,-159.13 635.88,-144 631.49,-143.1 626.95,-142.11 622.41,-141.07"/>
<polygon fill="#63b8ff" stroke="#63b8ff" points="623.23,-137.67 612.69,-138.78 621.62,-144.48 623.23,-137.67"/>
</a>
</g>
</g>
<!-- Node21&#45;&gt;Node30 -->
<g id="edge54_Node000021_Node000030" class="edge">
<title>Node21&#45;&gt;Node30</title>
<g id="a_edge54_Node000021_Node000030"><a xlink:title=" ">
<path fill="none" stroke="#63b8ff" d="M851.18,-185.96C757.5,-180.49 578.72,-167.32 519.88,-144 497.73,-135.22 498.29,-122.44 476.88,-112 434.86,-91.51 382.08,-79.15 347.93,-72.7"/>
<polygon fill="#63b8ff" stroke="#63b8ff" points="348.62,-69.27 338.16,-70.94 347.38,-76.16 348.62,-69.27"/>
</a>
</g>
</g>
<!-- Node37 -->
<g id="Node000037" class="node">
<title>Node37</title>
<g id="a_Node000037"><a xlink:href="video__colorspace_8h.html" target="_top" xlink:title="Declarations for colorspace functions.">
<polygon fill="white" stroke="#666666" points="837.12,-138 720.62,-138 720.62,-118 837.12,-118 837.12,-138"/>
<text text-anchor="middle" x="778.88" y="-124.5" font-family="Helvetica,sans-Serif" font-size="10.00">src/video_colorspace.h</text>
</a>
</g>
</g>
<!-- Node21&#45;&gt;Node37 -->
<g id="edge55_Node000021_Node000037" class="edge">
<title>Node21&#45;&gt;Node37</title>
<g id="a_edge55_Node000021_Node000037"><a xlink:title=" ">
<path fill="none" stroke="#63b8ff" d="M889.41,-179.62C867.97,-169.81 834.06,-154.27 809.44,-143"/>
<polygon fill="#63b8ff" stroke="#63b8ff" points="811.13,-139.92 800.58,-138.94 808.21,-146.29 811.13,-139.92"/>
</a>
</g>
</g>
<!-- Node39 -->
<g id="Node000039" class="node">
<title>Node39</title>
<g id="a_Node000039"><a xlink:title=" ">
<polygon fill="#e0e0e0" stroke="#999999" points="1274.25,-144 1167.5,-144 1167.5,-112 1274.25,-112 1274.25,-144"/>
<text text-anchor="start" x="1175.5" y="-130.5" font-family="Helvetica,sans-Serif" font-size="10.00">moonlight&#45;common&#45;c</text>
<text text-anchor="middle" x="1220.88" y="-118.5" font-family="Helvetica,sans-Serif" font-size="10.00">/src/Limelight.h</text>
</a>
</g>
</g>
<!-- Node21&#45;&gt;Node39 -->
<g id="edge57_Node000021_Node000039" class="edge">
<title>Node21&#45;&gt;Node39</title>
<g id="a_edge57_Node000021_Node000039"><a xlink:title=" ">
<path fill="none" stroke="#63b8ff" d="M967.18,-179.51C1015.09,-171.37 1085.49,-158.93 1156.38,-144.24"/>
<polygon fill="#63b8ff" stroke="#63b8ff" points="1156.75,-147.74 1165.82,-142.27 1155.32,-140.89 1156.75,-147.74"/>
</a>
</g>
</g>
<!-- Node25&#45;&gt;Node12 -->
<g id="edge41_Node000025_Node000012" class="edge">
<title>Node25&#45;&gt;Node12</title>
<g id="a_edge41_Node000025_Node000012"><a xlink:title=" ">
<path fill="none" stroke="#63b8ff" d="M585.27,-117.51C606.77,-97.87 656.39,-52.55 683.45,-27.83"/>
<polygon fill="#63b8ff" stroke="#63b8ff" points="685.55,-30.65 690.58,-21.32 680.83,-25.48 685.55,-30.65"/>
</a>
</g>
</g>
<!-- Node25&#45;&gt;Node18 -->
<g id="edge38_Node000025_Node000018" class="edge">
<title>Node25&#45;&gt;Node18</title>
<g id="a_edge38_Node000025_Node000018"><a xlink:title=" ">
<path fill="none" stroke="#63b8ff" d="M596.47,-117.57C628.62,-103.63 691.06,-76.91 744.88,-56 773.77,-44.77 806.78,-32.93 831.62,-24.21"/>
<polygon fill="#63b8ff" stroke="#63b8ff" points="832.7,-27.54 840.99,-20.94 830.39,-20.93 832.7,-27.54"/>
</a>
</g>
</g>
<!-- Node25&#45;&gt;Node23 -->
<g id="edge40_Node000025_Node000023" class="edge">
<title>Node25&#45;&gt;Node23</title>
<g id="a_edge40_Node000025_Node000023"><a xlink:title=" ">
<path fill="none" stroke="#63b8ff" d="M574.79,-117.51C574.63,-98.81 574.27,-56.82 574.05,-31.51"/>
<polygon fill="#63b8ff" stroke="#63b8ff" points="577.55,-31.78 573.97,-21.81 570.55,-31.84 577.55,-31.78"/>
</a>
</g>
</g>
<!-- Node26 -->
<g id="Node000026" class="node">
<title>Node26</title>
<g id="a_Node000026"><a xlink:title=" ">
<polygon fill="#e0e0e0" stroke="#999999" points="481.75,-76 444,-76 444,-56 481.75,-56 481.75,-76"/>
<text text-anchor="middle" x="462.88" y="-62.5" font-family="Helvetica,sans-Serif" font-size="10.00">array</text>
</a>
</g>
</g>
<!-- Node25&#45;&gt;Node26 -->
<g id="edge35_Node000025_Node000026" class="edge">
<title>Node25&#45;&gt;Node26</title>
<g id="a_edge35_Node000025_Node000026"><a xlink:title=" ">
<path fill="none" stroke="#63b8ff" d="M557.38,-117.62C539.38,-107.98 511.09,-92.83 490.15,-81.61"/>
<polygon fill="#63b8ff" stroke="#63b8ff" points="492.05,-78.66 481.59,-77.02 488.75,-84.83 492.05,-78.66"/>
</a>
</g>
</g>
<!-- Node27 -->
<g id="Node000027" class="node">
<title>Node27</title>
<g id="a_Node000027"><a xlink:title=" ">
<polygon fill="#e0e0e0" stroke="#999999" points="545.5,-76 500.25,-76 500.25,-56 545.5,-56 545.5,-76"/>
<text text-anchor="middle" x="522.88" y="-62.5" font-family="Helvetica,sans-Serif" font-size="10.00">atomic</text>
</a>
</g>
</g>
<!-- Node25&#45;&gt;Node27 -->
<g id="edge36_Node000025_Node000027" class="edge">
<title>Node25&#45;&gt;Node27</title>
<g id="a_edge36_Node000025_Node000027"><a xlink:title=" ">
<path fill="none" stroke="#63b8ff" d="M566.75,-117.62C559.15,-108.86 547.6,-95.53 538.26,-84.75"/>
<polygon fill="#63b8ff" stroke="#63b8ff" points="540.96,-82.52 531.76,-77.26 535.67,-87.11 540.96,-82.52"/>
</a>
</g>
</g>
<!-- Node28 -->
<g id="Node000028" class="node">
<title>Node28</title>
<g id="a_Node000028"><a xlink:title=" ">
<polygon fill="#e0e0e0" stroke="#999999" points="533.88,-20 439.88,-20 439.88,0 533.88,0 533.88,-20"/>
<text text-anchor="middle" x="486.88" y="-6.5" font-family="Helvetica,sans-Serif" font-size="10.00">condition_variable</text>
</a>
</g>
</g>
<!-- Node25&#45;&gt;Node28 -->
<g id="edge37_Node000025_Node000028" class="edge">
<title>Node25&#45;&gt;Node28</title>
<g id="a_edge37_Node000025_Node000028"><a xlink:title=" ">
<path fill="none" stroke="#63b8ff" d="M537.08,-117.57C481.83,-103.71 385.27,-79.12 382.88,-76 364.31,-51.86 398.95,-34.41 433.14,-23.7"/>
<polygon fill="#63b8ff" stroke="#63b8ff" points="434.1,-27.07 442.7,-20.89 432.12,-20.35 434.1,-27.07"/>
</a>
</g>
</g>
<!-- Node29 -->
<g id="Node000029" class="node">
<title>Node29</title>
<g id="a_Node000029"><a xlink:title=" ">
<polygon fill="#e0e0e0" stroke="#999999" points="426.25,-76 391.5,-76 391.5,-56 426.25,-56 426.25,-76"/>
<text text-anchor="middle" x="408.88" y="-62.5" font-family="Helvetica,sans-Serif" font-size="10.00">map</text>
</a>
</g>
</g>
<!-- Node25&#45;&gt;Node29 -->
<g id="edge39_Node000025_Node000029" class="edge">
<title>Node25&#45;&gt;Node29</title>
<g id="a_edge39_Node000025_Node000029"><a xlink:title=" ">
<path fill="none" stroke="#63b8ff" d="M548.94,-117.62C518.56,-106.65 468.43,-88.53 437.1,-77.2"/>
<polygon fill="#63b8ff" stroke="#63b8ff" points="438.5,-73.99 427.91,-73.88 436.12,-80.57 438.5,-73.99"/>
</a>
</g>
</g>
<!-- Node25&#45;&gt;Node30 -->
<g id="edge42_Node000025_Node000030" class="edge">
<title>Node25&#45;&gt;Node30</title>
<g id="a_edge42_Node000025_Node000030"><a xlink:title=" ">
<path fill="none" stroke="#63b8ff" d="M537.79,-117.54C530.22,-115.66 522.3,-113.74 514.88,-112 441.79,-94.9 423.01,-92.87 349.88,-76 349.21,-75.85 348.54,-75.69 347.86,-75.53"/>
<polygon fill="#63b8ff" stroke="#63b8ff" points="348.75,-72.15 338.21,-73.24 347.13,-78.96 348.75,-72.15"/>
</a>
</g>
</g>
<!-- Node30&#45;&gt;Node9 -->
<g id="edge47_Node000030_Node000009" class="edge">
<title>Node30&#45;&gt;Node9</title>
<g id="a_edge47_Node000030_Node000009"><a xlink:title=" ">
<path fill="none" stroke="#63b8ff" d="M336.38,-61.69C392.69,-53.72 535.05,-33.25 601.57,-20.24"/>
<polygon fill="#63b8ff" stroke="#63b8ff" points="602.11,-23.7 611.21,-18.28 600.71,-16.84 602.11,-23.7"/>
</a>
</g>
</g>
<!-- Node30&#45;&gt;Node10 -->
<g id="edge49_Node000030_Node000010" class="edge">
<title>Node30&#45;&gt;Node10</title>
<g id="a_edge49_Node000030_Node000010"><a xlink:title=" ">
<path fill="none" stroke="#63b8ff" d="M336.51,-61.81C350.07,-60.02 367.42,-57.79 382.88,-56 534.14,-38.48 576.97,-49.97 730.43,-19.87"/>
<polygon fill="#63b8ff" stroke="#63b8ff" points="731.07,-23.31 740.19,-17.92 729.7,-16.44 731.07,-23.31"/>
</a>
</g>
</g>
<!-- Node30&#45;&gt;Node12 -->
<g id="edge53_Node000030_Node000012" class="edge">
<title>Node30&#45;&gt;Node12</title>
<g id="a_edge53_Node000030_Node000012"><a xlink:title=" ">
<path fill="none" stroke="#63b8ff" d="M336.53,-61.94C350.09,-60.18 367.44,-57.95 382.88,-56 507.65,-40.21 543.22,-46.32 668.81,-20.37"/>
<polygon fill="#63b8ff" stroke="#63b8ff" points="669.48,-23.8 678.55,-18.33 668.04,-16.95 669.48,-23.8"/>
</a>
</g>
</g>
<!-- Node30&#45;&gt;Node23 -->
<g id="edge46_Node000030_Node000023" class="edge">
<title>Node30&#45;&gt;Node23</title>
<g id="a_edge46_Node000030_Node000023"><a xlink:title=" ">
<path fill="none" stroke="#63b8ff" d="M336.53,-61.09C376.59,-54.32 460.52,-39.47 541.1,-20.25"/>
<polygon fill="#63b8ff" stroke="#63b8ff" points="541.55,-23.74 550.45,-17.99 539.91,-16.94 541.55,-23.74"/>
</a>
</g>
</g>
<!-- Node30&#45;&gt;Node28 -->
<g id="edge44_Node000030_Node000028" class="edge">
<title>Node30&#45;&gt;Node28</title>
<g id="a_edge44_Node000030_Node000028"><a xlink:title=" ">
<path fill="none" stroke="#63b8ff" d="M336.7,-57.6C364.63,-48.94 411.41,-34.42 445.35,-23.89"/>
<polygon fill="#63b8ff" stroke="#63b8ff" points="446.36,-27.24 454.87,-20.93 444.28,-20.55 446.36,-27.24"/>
</a>
</g>
</g>
<!-- Node31 -->
<g id="Node000031" class="node">
<title>Node31</title>
<g id="a_Node000031"><a xlink:title=" ">
<polygon fill="#e0e0e0" stroke="#999999" points="199.75,-20 144,-20 144,0 199.75,0 199.75,-20"/>
<text text-anchor="middle" x="171.88" y="-6.5" font-family="Helvetica,sans-Serif" font-size="10.00">algorithm</text>
</a>
</g>
</g>
<!-- Node30&#45;&gt;Node31 -->
<g id="edge43_Node000030_Node000031" class="edge">
<title>Node30&#45;&gt;Node31</title>
<g id="a_edge43_Node000030_Node000031"><a xlink:title=" ">
<path fill="none" stroke="#63b8ff" d="M289.27,-55.96C266.77,-47.34 232.61,-34.26 206.93,-24.43"/>
<polygon fill="#63b8ff" stroke="#63b8ff" points="208.5,-21.28 197.91,-20.97 206,-27.82 208.5,-21.28"/>
</a>
</g>
</g>
<!-- Node32 -->
<g id="Node000032" class="node">
<title>Node32</title>
<g id="a_Node000032"><a xlink:title=" ">
<polygon fill="#e0e0e0" stroke="#999999" points="269.5,-20 218.25,-20 218.25,0 269.5,0 269.5,-20"/>
<text text-anchor="middle" x="243.88" y="-6.5" font-family="Helvetica,sans-Serif" font-size="10.00">memory</text>
</a>
</g>
</g>
<!-- Node30&#45;&gt;Node32 -->
<g id="edge45_Node000030_Node000032" class="edge">
<title>Node30&#45;&gt;Node32</title>
<g id="a_edge45_Node000030_Node000032"><a xlink:title=" ">
<path fill="none" stroke="#63b8ff" d="M300.86,-55.59C290.86,-47.77 276.41,-36.46 264.57,-27.19"/>
<polygon fill="#63b8ff" stroke="#63b8ff" points="266.98,-24.64 256.95,-21.23 262.67,-30.15 266.98,-24.64"/>
</a>
</g>
</g>
<!-- Node33 -->
<g id="Node000033" class="node">
<title>Node33</title>
<g id="a_Node000033"><a xlink:title=" ">
<polygon fill="#e0e0e0" stroke="#999999" points="338.5,-20 287.25,-20 287.25,0 338.5,0 338.5,-20"/>
<text text-anchor="middle" x="312.88" y="-6.5" font-family="Helvetica,sans-Serif" font-size="10.00">ostream</text>
</a>
</g>
</g>
<!-- Node30&#45;&gt;Node33 -->
<g id="edge48_Node000030_Node000033" class="edge">
<title>Node30&#45;&gt;Node33</title>
<g id="a_edge48_Node000030_Node000033"><a xlink:title=" ">
<path fill="none" stroke="#63b8ff" d="M312.88,-55.59C312.88,-49.01 312.88,-39.96 312.88,-31.73"/>
<polygon fill="#63b8ff" stroke="#63b8ff" points="316.38,-31.81 312.88,-21.81 309.38,-31.81 316.38,-31.81"/>
</a>
</g>
</g>
<!-- Node34 -->
<g id="Node000034" class="node">
<title>Node34</title>
<g id="a_Node000034"><a xlink:title=" ">
<polygon fill="#e0e0e0" stroke="#999999" points="421.62,-20 356.12,-20 356.12,0 421.62,0 421.62,-20"/>
<text text-anchor="middle" x="388.88" y="-6.5" font-family="Helvetica,sans-Serif" font-size="10.00">string_view</text>
</a>
</g>
</g>
<!-- Node30&#45;&gt;Node34 -->
<g id="edge50_Node000030_Node000034" class="edge">
<title>Node30&#45;&gt;Node34</title>
<g id="a_edge50_Node000030_Node000034"><a xlink:title=" ">
<path fill="none" stroke="#63b8ff" d="M326.11,-55.59C337.16,-47.74 353.16,-36.38 366.23,-27.09"/>
<polygon fill="#63b8ff" stroke="#63b8ff" points="368.18,-30 374.3,-21.36 364.12,-24.3 368.18,-30"/>
</a>
</g>
</g>
<!-- Node35 -->
<g id="Node000035" class="node">
<title>Node35</title>
<g id="a_Node000035"><a xlink:title=" ">
<polygon fill="#e0e0e0" stroke="#999999" points="61.75,-20 0,-20 0,0 61.75,0 61.75,-20"/>
<text text-anchor="middle" x="30.88" y="-6.5" font-family="Helvetica,sans-Serif" font-size="10.00">type_traits</text>
</a>
</g>
</g>
<!-- Node30&#45;&gt;Node35 -->
<g id="edge51_Node000030_Node000035" class="edge">
<title>Node30&#45;&gt;Node35</title>
<g id="a_edge51_Node000030_Node000035"><a xlink:title=" ">
<path fill="none" stroke="#63b8ff" d="M289.12,-60.89C247.51,-53.62 158.51,-37.78 73.07,-20.39"/>
<polygon fill="#63b8ff" stroke="#63b8ff" points="73.84,-16.97 63.34,-18.4 72.44,-23.83 73.84,-16.97"/>
</a>
</g>
</g>
<!-- Node36 -->
<g id="Node000036" class="node">
<title>Node36</title>
<g id="a_Node000036"><a xlink:title=" ">
<polygon fill="#e0e0e0" stroke="#999999" points="125.5,-20 80.25,-20 80.25,0 125.5,0 125.5,-20"/>
<text text-anchor="middle" x="102.88" y="-6.5" font-family="Helvetica,sans-Serif" font-size="10.00">variant</text>
</a>
</g>
</g>
<!-- Node30&#45;&gt;Node36 -->
<g id="edge52_Node000030_Node000036" class="edge">
<title>Node30&#45;&gt;Node36</title>
<g id="a_edge52_Node000030_Node000036"><a xlink:title=" ">
<path fill="none" stroke="#63b8ff" d="M289.21,-59.23C257,-51.33 197.27,-36.52 136.82,-20.47"/>
<polygon fill="#63b8ff" stroke="#63b8ff" points="137.95,-17.15 127.39,-17.95 136.15,-23.91 137.95,-17.15"/>
</a>
</g>
</g>
<!-- Node38 -->
<g id="Node000038" class="node">
<title>Node38</title>
<g id="a_Node000038"><a xlink:title=" ">
<polygon fill="#e0e0e0" stroke="#999999" points="841.5,-76 754.25,-76 754.25,-56 841.5,-56 841.5,-76"/>
<text text-anchor="middle" x="797.88" y="-62.5" font-family="Helvetica,sans-Serif" font-size="10.00">libavutil/pixfmt.h</text>
</a>
</g>
</g>
<!-- Node37&#45;&gt;Node38 -->
<g id="edge56_Node000037_Node000038" class="edge">
<title>Node37&#45;&gt;Node38</title>
<g id="a_edge56_Node000037_Node000038"><a xlink:title=" ">
<path fill="none" stroke="#63b8ff" d="M781.84,-117.62C784.42,-109.48 788.25,-97.39 791.52,-87.07"/>
<polygon fill="#63b8ff" stroke="#63b8ff" points="794.85,-88.15 794.53,-77.56 788.18,-86.03 794.85,-88.15"/>
</a>
</g>
</g>
<!-- Node40&#45;&gt;Node2 -->
<g id="edge60_Node000040_Node000002" class="edge">
<title>Node40&#45;&gt;Node2</title>
<g id="a_edge60_Node000040_Node000002"><a xlink:title=" ">
<path fill="none" stroke="#63b8ff" d="M1033,-291.6C986.87,-278.53 900.26,-254.39 825.88,-236 776.8,-223.87 720.62,-211.41 680.16,-202.69"/>
<polygon fill="#63b8ff" stroke="#63b8ff" points="680.91,-199.27 670.4,-200.59 679.44,-206.11 680.91,-199.27"/>
</a>
</g>
</g>
<!-- Node40&#45;&gt;Node3 -->
<g id="edge61_Node000040_Node000003" class="edge">
<title>Node40&#45;&gt;Node3</title>
<g id="a_edge61_Node000040_Node000003"><a xlink:title=" ">
<path fill="none" stroke="#63b8ff" d="M1080.73,-291.59C1093.6,-283.07 1112.39,-269.8 1126.88,-256 1141.83,-241.75 1156.48,-223.34 1166.58,-209.75"/>
<polygon fill="#63b8ff" stroke="#63b8ff" points="1169.4,-211.82 1172.45,-201.67 1163.74,-207.7 1169.4,-211.82"/>
</a>
</g>
</g>
<!-- Node40&#45;&gt;Node4 -->
<g id="edge62_Node000040_Node000004" class="edge">
<title>Node40&#45;&gt;Node4</title>
<g id="a_edge62_Node000040_Node000004"><a xlink:title=" ">
<path fill="none" stroke="#63b8ff" d="M1085.4,-291.62C1125.54,-272.34 1217.53,-228.15 1265.13,-205.29"/>
<polygon fill="#63b8ff" stroke="#63b8ff" points="1266.54,-208.49 1274.04,-201.01 1263.51,-202.19 1266.54,-208.49"/>
</a>
</g>
</g>
<!-- Node40&#45;&gt;Node5 -->
<g id="edge63_Node000040_Node000005" class="edge">
<title>Node40&#45;&gt;Node5</title>
<g id="a_edge63_Node000040_Node000005"><a xlink:title=" ">
<path fill="none" stroke="#63b8ff" d="M1065.88,-291.59C1065.88,-285.01 1065.88,-275.96 1065.88,-267.73"/>
<polygon fill="#63b8ff" stroke="#63b8ff" points="1069.38,-267.81 1065.88,-257.81 1062.38,-267.81 1069.38,-267.81"/>
</a>
</g>
</g>
<!-- Node40&#45;&gt;Node21 -->
<g id="edge64_Node000040_Node000021" class="edge">
<title>Node40&#45;&gt;Node21</title>
<g id="a_edge64_Node000040_Node000021"><a xlink:title=" ">
<path fill="none" stroke="#63b8ff" d="M1052.57,-291.62C1025.86,-272.79 965.44,-230.18 932.44,-206.91"/>
<polygon fill="#63b8ff" stroke="#63b8ff" points="934.57,-204.13 924.38,-201.23 930.53,-209.85 934.57,-204.13"/>
</a>
</g>
</g>
</g>
</svg>

<g id="navigator" transform="translate(0 0)" fill="#404254">
  <rect fill="#f2f5e9" fill-opacity="0.5" stroke="#606060" stroke-width=".5" x="0" y="0" width="60" height="60"/>
  <use id="zoomplus" xlink:href="#zoomPlus" x="17" y="9" onmousedown="handleZoom(evt,'in')"/>
  <use id="zoomminus" xlink:href="#zoomMin" x="42" y="9" onmousedown="handleZoom(evt,'out')"/>
  <use id="reset" xlink:href="#resetDef" x="30" y="36" onmousedown="handleReset()"/>
   <use id="arrowup" xlink:href="#arrowUp" x="0" y="0" onmousedown="handlePan(0,-1)"/>
  <use id="arrowright" xlink:href="#arrowRight" x="0" y="0" onmousedown="handlePan(1,0)"/>
  <use id="arrowdown" xlink:href="#arrowDown" x="0" y="0" onmousedown="handlePan(0,1)"/>
  <use id="arrowleft" xlink:href="#arrowLeft" x="0" y="0" onmousedown="handlePan(-1,0)"/>
</g>
<svg viewBox="0 0 15 15" width="100%" height="30px" preserveAspectRatio="xMaxYMin meet">
 <g id="arrow_out" transform="scale(0.3 0.3)">
  <a xlink:href="inputtino__mouse_8cpp__incl_org.svg" target="_base">
   <rect id="button" ry="5" rx="5" y="6" x="6" height="38" width="38"
        fill="#f2f5e9" fill-opacity="0.5" stroke="#606060" stroke-width="1.0"/>
   <path id="arrow"
     d="M 11.500037,31.436501 C 11.940474,20.09759 22.043105,11.32322 32.158766,21.979434 L 37.068811,17.246167 C 37.068811,17.246167 37.088388,32 37.088388,32 L 22.160133,31.978069 C 22.160133,31.978069 26.997745,27.140456 26.997745,27.140456 C 18.528582,18.264221 13.291696,25.230495 11.500037,31.436501 z"
     style="fill:#404040;"/>
  </a>
 </g>
</svg>

<style type='text/css'>
<![CDATA[
[data-mouse-over-selected='false'] { opacity: 0.7; }
[data-mouse-over-selected='true']  { opacity: 1.0; }
]]>
</style>
<script type="application/ecmascript"><![CDATA[
document.addEventListener('DOMContentLoaded', (event) => {
  highlightEdges();
  highlightAdjacentNodes();
});
]]></script>
</svg>
