<?xml version="1.0" encoding="UTF-8" standalone="no"?>
<!DOCTYPE svg PUBLIC "-//W3C//DTD SVG 1.1//EN"
 "http://www.w3.org/Graphics/SVG/1.1/DTD/svg11.dtd">
<!-- Generated by graphviz version 12.2.1 (0)
 -->
<!-- Title: src/platform/linux/misc.h Pages: 1 -->
<svg width="790pt" height="152pt"
 viewBox="0.00 0.00 790.12 152.00" xmlns="http://www.w3.org/2000/svg" xmlns:xlink="http://www.w3.org/1999/xlink">
<g id="graph0" class="graph" transform="scale(1 1) rotate(0) translate(4 148)">
<title>src/platform/linux/misc.h</title>
<!-- Node1 -->
<g id="Node000001" class="node">
<title>Node1</title>
<g id="a_Node000001"><a xlink:title="Miscellaneous declarations for Linux.">
<polygon fill="#999999" stroke="#666666" points="227,-144 136,-144 136,-112 227,-112 227,-144"/>
<text text-anchor="start" x="144" y="-130.5" font-family="Helvetica,sans-Serif" font-size="10.00">src/platform/linux</text>
<text text-anchor="middle" x="181.5" y="-118.5" font-family="Helvetica,sans-Serif" font-size="10.00">/misc.h</text>
</a>
</g>
</g>
<!-- Node2 -->
<g id="Node000002" class="node">
<title>Node2</title>
<g id="a_Node000002"><a xlink:title=" ">
<polygon fill="#e0e0e0" stroke="#999999" points="153.75,-76 103.25,-76 103.25,-56 153.75,-56 153.75,-76"/>
<text text-anchor="middle" x="128.5" y="-62.5" font-family="Helvetica,sans-Serif" font-size="10.00">unistd.h</text>
</a>
</g>
</g>
<!-- Node1&#45;&gt;Node2 -->
<g id="edge1_Node000001_Node000002" class="edge">
<title>Node1&#45;&gt;Node2</title>
<g id="a_edge1_Node000001_Node000002"><a xlink:title=" ">
<path fill="none" stroke="#63b8ff" d="M167.85,-111.55C160.64,-103.39 151.76,-93.33 144.26,-84.84"/>
<polygon fill="#63b8ff" stroke="#63b8ff" points="147.06,-82.72 137.81,-77.54 141.81,-87.35 147.06,-82.72"/>
</a>
</g>
</g>
<!-- Node3 -->
<g id="Node000003" class="node">
<title>Node3</title>
<g id="a_Node000003"><a xlink:title=" ">
<polygon fill="#e0e0e0" stroke="#999999" points="43,-20 0,-20 0,0 43,0 43,-20"/>
<text text-anchor="middle" x="21.5" y="-6.5" font-family="Helvetica,sans-Serif" font-size="10.00">vector</text>
</a>
</g>
</g>
<!-- Node1&#45;&gt;Node3 -->
<g id="edge2_Node000001_Node000003" class="edge">
<title>Node1&#45;&gt;Node3</title>
<g id="a_edge2_Node000001_Node000003"><a xlink:title=" ">
<path fill="none" stroke="#63b8ff" d="M181.48,-111.66C180.63,-95.72 176.85,-71.05 162.5,-56 160.56,-53.97 95.35,-33.67 54.3,-21.04"/>
<polygon fill="#63b8ff" stroke="#63b8ff" points="55.47,-17.74 44.88,-18.15 53.42,-24.43 55.47,-17.74"/>
</a>
</g>
</g>
<!-- Node4 -->
<g id="Node000004" class="node">
<title>Node4</title>
<g id="a_Node000004"><a xlink:href="utility_8h.html" target="_top" xlink:title="Declarations for utility functions.">
<polygon fill="white" stroke="#666666" points="401.12,-76 337.88,-76 337.88,-56 401.12,-56 401.12,-76"/>
<text text-anchor="middle" x="369.5" y="-62.5" font-family="Helvetica,sans-Serif" font-size="10.00">src/utility.h</text>
</a>
</g>
</g>
<!-- Node1&#45;&gt;Node4 -->
<g id="edge3_Node000001_Node000004" class="edge">
<title>Node1&#45;&gt;Node4</title>
<g id="a_edge3_Node000001_Node000004"><a xlink:title=" ">
<path fill="none" stroke="#63b8ff" d="M227.49,-112.32C258.53,-102.42 299.11,-89.46 328.94,-79.94"/>
<polygon fill="#63b8ff" stroke="#63b8ff" points="329.9,-83.31 338.36,-76.94 327.77,-76.64 329.9,-83.31"/>
</a>
</g>
</g>
<!-- Node4&#45;&gt;Node3 -->
<g id="edge14_Node000004_Node000003" class="edge">
<title>Node4&#45;&gt;Node3</title>
<g id="a_edge14_Node000004_Node000003"><a xlink:title=" ">
<path fill="none" stroke="#63b8ff" d="M337.62,-62.1C281.94,-56.68 163.21,-43.61 54.52,-20.4"/>
<polygon fill="#63b8ff" stroke="#63b8ff" points="55.35,-17 44.83,-18.29 53.86,-23.84 55.35,-17"/>
</a>
</g>
</g>
<!-- Node5 -->
<g id="Node000005" class="node">
<title>Node5</title>
<g id="a_Node000005"><a xlink:title=" ">
<polygon fill="#e0e0e0" stroke="#999999" points="116.38,-20 60.62,-20 60.62,0 116.38,0 116.38,-20"/>
<text text-anchor="middle" x="88.5" y="-6.5" font-family="Helvetica,sans-Serif" font-size="10.00">algorithm</text>
</a>
</g>
</g>
<!-- Node4&#45;&gt;Node5 -->
<g id="edge4_Node000004_Node000005" class="edge">
<title>Node4&#45;&gt;Node5</title>
<g id="a_edge4_Node000004_Node000005"><a xlink:title=" ">
<path fill="none" stroke="#63b8ff" d="M337.41,-59.67C292.66,-52.12 208.73,-37.48 127.64,-20.36"/>
<polygon fill="#63b8ff" stroke="#63b8ff" points="128.73,-17.02 118.22,-18.36 127.28,-23.86 128.73,-17.02"/>
</a>
</g>
</g>
<!-- Node6 -->
<g id="Node000006" class="node">
<title>Node6</title>
<g id="a_Node000006"><a xlink:title=" ">
<polygon fill="#e0e0e0" stroke="#999999" points="228.5,-20 134.5,-20 134.5,0 228.5,0 228.5,-20"/>
<text text-anchor="middle" x="181.5" y="-6.5" font-family="Helvetica,sans-Serif" font-size="10.00">condition_variable</text>
</a>
</g>
</g>
<!-- Node4&#45;&gt;Node6 -->
<g id="edge5_Node000004_Node000006" class="edge">
<title>Node4&#45;&gt;Node6</title>
<g id="a_edge5_Node000004_Node000006"><a xlink:title=" ">
<path fill="none" stroke="#63b8ff" d="M337.61,-55.84C306.7,-46.96 259.57,-33.42 225.18,-23.55"/>
<polygon fill="#63b8ff" stroke="#63b8ff" points="226.53,-20.29 215.95,-20.9 224.6,-27.02 226.53,-20.29"/>
</a>
</g>
</g>
<!-- Node7 -->
<g id="Node000007" class="node">
<title>Node7</title>
<g id="a_Node000007"><a xlink:title=" ">
<polygon fill="#e0e0e0" stroke="#999999" points="298.12,-20 246.88,-20 246.88,0 298.12,0 298.12,-20"/>
<text text-anchor="middle" x="272.5" y="-6.5" font-family="Helvetica,sans-Serif" font-size="10.00">memory</text>
</a>
</g>
</g>
<!-- Node4&#45;&gt;Node7 -->
<g id="edge6_Node000004_Node000007" class="edge">
<title>Node4&#45;&gt;Node7</title>
<g id="a_edge6_Node000004_Node000007"><a xlink:title=" ">
<path fill="none" stroke="#63b8ff" d="M352.6,-55.59C337.95,-47.44 316.48,-35.48 299.45,-26"/>
<polygon fill="#63b8ff" stroke="#63b8ff" points="301.29,-23.02 290.85,-21.22 297.89,-29.14 301.29,-23.02"/>
</a>
</g>
</g>
<!-- Node8 -->
<g id="Node000008" class="node">
<title>Node8</title>
<g id="a_Node000008"><a xlink:title=" ">
<polygon fill="#e0e0e0" stroke="#999999" points="359,-20 316,-20 316,0 359,0 359,-20"/>
<text text-anchor="middle" x="337.5" y="-6.5" font-family="Helvetica,sans-Serif" font-size="10.00">mutex</text>
</a>
</g>
</g>
<!-- Node4&#45;&gt;Node8 -->
<g id="edge7_Node000004_Node000008" class="edge">
<title>Node4&#45;&gt;Node8</title>
<g id="a_edge7_Node000004_Node000008"><a xlink:title=" ">
<path fill="none" stroke="#63b8ff" d="M363.93,-55.59C359.75,-48.55 353.9,-38.67 348.76,-30"/>
<polygon fill="#63b8ff" stroke="#63b8ff" points="351.89,-28.42 343.78,-21.6 345.87,-31.99 351.89,-28.42"/>
</a>
</g>
</g>
<!-- Node9 -->
<g id="Node000009" class="node">
<title>Node9</title>
<g id="a_Node000009"><a xlink:title=" ">
<polygon fill="#e0e0e0" stroke="#999999" points="426.38,-20 376.62,-20 376.62,0 426.38,0 426.38,-20"/>
<text text-anchor="middle" x="401.5" y="-6.5" font-family="Helvetica,sans-Serif" font-size="10.00">optional</text>
</a>
</g>
</g>
<!-- Node4&#45;&gt;Node9 -->
<g id="edge8_Node000004_Node000009" class="edge">
<title>Node4&#45;&gt;Node9</title>
<g id="a_edge8_Node000004_Node000009"><a xlink:title=" ">
<path fill="none" stroke="#63b8ff" d="M375.07,-55.59C379.25,-48.55 385.1,-38.67 390.24,-30"/>
<polygon fill="#63b8ff" stroke="#63b8ff" points="393.13,-31.99 395.22,-21.6 387.11,-28.42 393.13,-31.99"/>
</a>
</g>
</g>
<!-- Node10 -->
<g id="Node000010" class="node">
<title>Node10</title>
<g id="a_Node000010"><a xlink:title=" ">
<polygon fill="#e0e0e0" stroke="#999999" points="496.12,-20 444.88,-20 444.88,0 496.12,0 496.12,-20"/>
<text text-anchor="middle" x="470.5" y="-6.5" font-family="Helvetica,sans-Serif" font-size="10.00">ostream</text>
</a>
</g>
</g>
<!-- Node4&#45;&gt;Node10 -->
<g id="edge9_Node000004_Node000010" class="edge">
<title>Node4&#45;&gt;Node10</title>
<g id="a_edge9_Node000004_Node000010"><a xlink:title=" ">
<path fill="none" stroke="#63b8ff" d="M387.09,-55.59C402.42,-47.4 424.92,-35.37 442.69,-25.87"/>
<polygon fill="#63b8ff" stroke="#63b8ff" points="444.27,-28.99 451.44,-21.19 440.97,-22.82 444.27,-28.99"/>
</a>
</g>
</g>
<!-- Node11 -->
<g id="Node000011" class="node">
<title>Node11</title>
<g id="a_Node000011"><a xlink:title=" ">
<polygon fill="#e0e0e0" stroke="#999999" points="554.5,-20 514.5,-20 514.5,0 554.5,0 554.5,-20"/>
<text text-anchor="middle" x="534.5" y="-6.5" font-family="Helvetica,sans-Serif" font-size="10.00">string</text>
</a>
</g>
</g>
<!-- Node4&#45;&gt;Node11 -->
<g id="edge10_Node000004_Node000011" class="edge">
<title>Node4&#45;&gt;Node11</title>
<g id="a_edge10_Node000004_Node000011"><a xlink:title=" ">
<path fill="none" stroke="#63b8ff" d="M398.24,-55.59C427.71,-45.95 473.4,-31 503.63,-21.1"/>
<polygon fill="#63b8ff" stroke="#63b8ff" points="504.54,-24.49 512.95,-18.05 502.36,-17.84 504.54,-24.49"/>
</a>
</g>
</g>
<!-- Node12 -->
<g id="Node000012" class="node">
<title>Node12</title>
<g id="a_Node000012"><a xlink:title=" ">
<polygon fill="#e0e0e0" stroke="#999999" points="638.25,-20 572.75,-20 572.75,0 638.25,0 638.25,-20"/>
<text text-anchor="middle" x="605.5" y="-6.5" font-family="Helvetica,sans-Serif" font-size="10.00">string_view</text>
</a>
</g>
</g>
<!-- Node4&#45;&gt;Node12 -->
<g id="edge11_Node000004_Node000012" class="edge">
<title>Node4&#45;&gt;Node12</title>
<g id="a_edge11_Node000004_Node000012"><a xlink:title=" ">
<path fill="none" stroke="#63b8ff" d="M401.33,-57.72C442.59,-48.28 514.76,-31.76 561.32,-21.11"/>
<polygon fill="#63b8ff" stroke="#63b8ff" points="561.84,-24.58 570.8,-18.94 560.27,-17.76 561.84,-24.58"/>
</a>
</g>
</g>
<!-- Node13 -->
<g id="Node000013" class="node">
<title>Node13</title>
<g id="a_Node000013"><a xlink:title=" ">
<polygon fill="#e0e0e0" stroke="#999999" points="718.38,-20 656.62,-20 656.62,0 718.38,0 718.38,-20"/>
<text text-anchor="middle" x="687.5" y="-6.5" font-family="Helvetica,sans-Serif" font-size="10.00">type_traits</text>
</a>
</g>
</g>
<!-- Node4&#45;&gt;Node13 -->
<g id="edge12_Node000004_Node000013" class="edge">
<title>Node4&#45;&gt;Node13</title>
<g id="a_edge12_Node000004_Node000013"><a xlink:title=" ">
<path fill="none" stroke="#63b8ff" d="M401.3,-60.5C451.09,-53.3 550.72,-38.36 645.32,-20.32"/>
<polygon fill="#63b8ff" stroke="#63b8ff" points="645.89,-23.78 655.04,-18.45 644.56,-16.9 645.89,-23.78"/>
</a>
</g>
</g>
<!-- Node14 -->
<g id="Node000014" class="node">
<title>Node14</title>
<g id="a_Node000014"><a xlink:title=" ">
<polygon fill="#e0e0e0" stroke="#999999" points="782.12,-20 736.88,-20 736.88,0 782.12,0 782.12,-20"/>
<text text-anchor="middle" x="759.5" y="-6.5" font-family="Helvetica,sans-Serif" font-size="10.00">variant</text>
</a>
</g>
</g>
<!-- Node4&#45;&gt;Node14 -->
<g id="edge13_Node000004_Node000014" class="edge">
<title>Node4&#45;&gt;Node14</title>
<g id="a_edge13_Node000004_Node000014"><a xlink:title=" ">
<path fill="none" stroke="#63b8ff" d="M401.36,-62.6C462.43,-57.66 600.29,-44.85 725.6,-20.1"/>
<polygon fill="#63b8ff" stroke="#63b8ff" points="725.93,-23.6 735.04,-18.2 724.55,-16.74 725.93,-23.6"/>
</a>
</g>
</g>
</g>
</svg>
