<?xml version="1.0" encoding="UTF-8" standalone="no"?>
<!DOCTYPE svg PUBLIC "-//W3C//DTD SVG 1.1//EN"
 "http://www.w3.org/Graphics/SVG/1.1/DTD/svg11.dtd">
<!-- Generated by graphviz version 12.2.1 (0)
 -->
<!-- Title: src/platform/linux/misc.h Pages: 1 -->
<svg width="750pt" height="244pt"
 viewBox="0.00 0.00 750.00 244.00" xmlns="http://www.w3.org/2000/svg" xmlns:xlink="http://www.w3.org/1999/xlink">
<g id="graph0" class="graph" transform="scale(1 1) rotate(0) translate(4 240)">
<title>src/platform/linux/misc.h</title>
<!-- Node1 -->
<g id="Node000001" class="node">
<title>Node1</title>
<g id="a_Node000001"><a xlink:title="Miscellaneous declarations for Linux.">
<polygon fill="#999999" stroke="#666666" points="540,-236 449,-236 449,-204 540,-204 540,-236"/>
<text text-anchor="start" x="457" y="-222.5" font-family="Helvetica,sans-Serif" font-size="10.00">src/platform/linux</text>
<text text-anchor="middle" x="494.5" y="-210.5" font-family="Helvetica,sans-Serif" font-size="10.00">/misc.h</text>
</a>
</g>
</g>
<!-- Node2 -->
<g id="Node000002" class="node">
<title>Node2</title>
<g id="a_Node000002"><a xlink:href="graphics_8h.html" target="_top" xlink:title="Declarations for graphics related functions.">
<polygon fill="white" stroke="#666666" points="385,-168 294,-168 294,-136 385,-136 385,-168"/>
<text text-anchor="start" x="302" y="-154.5" font-family="Helvetica,sans-Serif" font-size="10.00">src/platform/linux</text>
<text text-anchor="middle" x="339.5" y="-142.5" font-family="Helvetica,sans-Serif" font-size="10.00">/graphics.h</text>
</a>
</g>
</g>
<!-- Node1&#45;&gt;Node2 -->
<g id="edge1_Node000001_Node000002" class="edge">
<title>Node1&#45;&gt;Node2</title>
<g id="a_edge1_Node000001_Node000002"><a xlink:title=" ">
<path fill="none" stroke="#63b8ff" d="M447.59,-199.03C424.58,-189.23 397.29,-177.61 375.88,-168.49"/>
<polygon fill="#63b8ff" stroke="#63b8ff" points="446.19,-202.24 456.77,-202.93 448.94,-195.79 446.19,-202.24"/>
</a>
</g>
</g>
<!-- Node6 -->
<g id="Node000006" class="node">
<title>Node6</title>
<g id="a_Node000006"><a xlink:href="linux_2misc_8cpp.html" target="_top" xlink:title="Miscellaneous definitions for Linux.">
<polygon fill="white" stroke="#666666" points="568,-100 477,-100 477,-68 568,-68 568,-100"/>
<text text-anchor="start" x="485" y="-86.5" font-family="Helvetica,sans-Serif" font-size="10.00">src/platform/linux</text>
<text text-anchor="middle" x="522.5" y="-74.5" font-family="Helvetica,sans-Serif" font-size="10.00">/misc.cpp</text>
</a>
</g>
</g>
<!-- Node1&#45;&gt;Node6 -->
<g id="edge14_Node000001_Node000006" class="edge">
<title>Node1&#45;&gt;Node6</title>
<g id="a_edge14_Node000001_Node000006"><a xlink:title=" ">
<path fill="none" stroke="#63b8ff" d="M493.67,-192.27C493.76,-175.82 494.95,-154.43 499.5,-136 502.62,-123.36 508.77,-109.98 513.93,-100.1"/>
<polygon fill="#63b8ff" stroke="#63b8ff" points="490.17,-192.28 493.77,-202.25 497.17,-192.21 490.17,-192.28"/>
</a>
</g>
</g>
<!-- Node7 -->
<g id="Node000007" class="node">
<title>Node7</title>
<g id="a_Node000007"><a xlink:href="vaapi_8cpp.html" target="_top" xlink:title="Definitions for VA&#45;API hardware accelerated capture.">
<polygon fill="white" stroke="#666666" points="459,-100 368,-100 368,-68 459,-68 459,-100"/>
<text text-anchor="start" x="376" y="-86.5" font-family="Helvetica,sans-Serif" font-size="10.00">src/platform/linux</text>
<text text-anchor="middle" x="413.5" y="-74.5" font-family="Helvetica,sans-Serif" font-size="10.00">/vaapi.cpp</text>
</a>
</g>
</g>
<!-- Node1&#45;&gt;Node7 -->
<g id="edge16_Node000001_Node000007" class="edge">
<title>Node1&#45;&gt;Node7</title>
<g id="a_edge16_Node000001_Node000007"><a xlink:title=" ">
<path fill="none" stroke="#63b8ff" d="M479.34,-193.92C462.68,-166.37 436.47,-123.01 422.68,-100.19"/>
<polygon fill="#63b8ff" stroke="#63b8ff" points="476.26,-195.59 484.43,-202.33 482.25,-191.96 476.26,-195.59"/>
</a>
</g>
</g>
<!-- Node11 -->
<g id="Node000011" class="node">
<title>Node11</title>
<g id="a_Node000011"><a xlink:href="x11grab_8cpp.html" target="_top" xlink:title="Definitions for x11 capture.">
<polygon fill="white" stroke="#666666" points="677,-100 586,-100 586,-68 677,-68 677,-100"/>
<text text-anchor="start" x="594" y="-86.5" font-family="Helvetica,sans-Serif" font-size="10.00">src/platform/linux</text>
<text text-anchor="middle" x="631.5" y="-74.5" font-family="Helvetica,sans-Serif" font-size="10.00">/x11grab.cpp</text>
</a>
</g>
</g>
<!-- Node1&#45;&gt;Node11 -->
<g id="edge22_Node000001_Node000011" class="edge">
<title>Node1&#45;&gt;Node11</title>
<g id="a_edge22_Node000001_Node000011"><a xlink:title=" ">
<path fill="none" stroke="#63b8ff" d="M501.83,-193.01C507.93,-175.21 518.12,-152.01 533.5,-136 548.51,-120.37 569.36,-108.6 587.98,-100.33"/>
<polygon fill="#63b8ff" stroke="#63b8ff" points="498.55,-191.77 498.86,-202.36 505.22,-193.89 498.55,-191.77"/>
</a>
</g>
</g>
<!-- Node12 -->
<g id="Node000012" class="node">
<title>Node12</title>
<g id="a_Node000012"><a xlink:href="linux_2publish_8cpp.html" target="_top" xlink:title="Definitions for publishing services on Linux.">
<polygon fill="white" stroke="#666666" points="633,-168 542,-168 542,-136 633,-136 633,-168"/>
<text text-anchor="start" x="550" y="-154.5" font-family="Helvetica,sans-Serif" font-size="10.00">src/platform/linux</text>
<text text-anchor="middle" x="587.5" y="-142.5" font-family="Helvetica,sans-Serif" font-size="10.00">/publish.cpp</text>
</a>
</g>
</g>
<!-- Node1&#45;&gt;Node12 -->
<g id="edge15_Node000001_Node000012" class="edge">
<title>Node1&#45;&gt;Node12</title>
<g id="a_edge15_Node000001_Node000012"><a xlink:title=" ">
<path fill="none" stroke="#63b8ff" d="M525.29,-197.15C538.53,-187.75 553.69,-177 565.72,-168.45"/>
<polygon fill="#63b8ff" stroke="#63b8ff" points="523.43,-194.17 517.3,-202.82 527.48,-199.88 523.43,-194.17"/>
</a>
</g>
</g>
<!-- Node13 -->
<g id="Node000013" class="node">
<title>Node13</title>
<g id="a_Node000013"><a xlink:href="vaapi_8h.html" target="_top" xlink:title="Declarations for VA&#45;API hardware accelerated capture.">
<polygon fill="white" stroke="#666666" points="742,-168 651,-168 651,-136 742,-136 742,-168"/>
<text text-anchor="start" x="659" y="-154.5" font-family="Helvetica,sans-Serif" font-size="10.00">src/platform/linux</text>
<text text-anchor="middle" x="696.5" y="-142.5" font-family="Helvetica,sans-Serif" font-size="10.00">/vaapi.h</text>
</a>
</g>
</g>
<!-- Node1&#45;&gt;Node13 -->
<g id="edge17_Node000001_Node000013" class="edge">
<title>Node1&#45;&gt;Node13</title>
<g id="a_edge17_Node000001_Node000013"><a xlink:title=" ">
<path fill="none" stroke="#63b8ff" d="M551.15,-200.49C582.64,-190.2 621.31,-177.57 650.84,-167.92"/>
<polygon fill="#63b8ff" stroke="#63b8ff" points="550.19,-197.12 541.78,-203.55 552.37,-203.77 550.19,-197.12"/>
</a>
</g>
</g>
<!-- Node3 -->
<g id="Node000003" class="node">
<title>Node3</title>
<g id="a_Node000003"><a xlink:href="cuda_8cpp.html" target="_top" xlink:title="Definitions for CUDA encoding.">
<polygon fill="white" stroke="#666666" points="201,-32 110,-32 110,0 201,0 201,-32"/>
<text text-anchor="start" x="118" y="-18.5" font-family="Helvetica,sans-Serif" font-size="10.00">src/platform/linux</text>
<text text-anchor="middle" x="155.5" y="-6.5" font-family="Helvetica,sans-Serif" font-size="10.00">/cuda.cpp</text>
</a>
</g>
</g>
<!-- Node2&#45;&gt;Node3 -->
<g id="edge2_Node000002_Node000003" class="edge">
<title>Node2&#45;&gt;Node3</title>
<g id="a_edge2_Node000002_Node000003"><a xlink:title=" ">
<path fill="none" stroke="#63b8ff" d="M282.16,-146.83C219.12,-140.91 123.79,-127.57 101.5,-100 83.56,-77.81 111.59,-49.5 133.52,-32.33"/>
<polygon fill="#63b8ff" stroke="#63b8ff" points="281.75,-150.31 292.02,-147.71 282.37,-143.33 281.75,-150.31"/>
</a>
</g>
</g>
<!-- Node4 -->
<g id="Node000004" class="node">
<title>Node4</title>
<g id="a_Node000004"><a xlink:href="graphics_8cpp.html" target="_top" xlink:title="Definitions for graphics related functions.">
<polygon fill="white" stroke="#666666" points="311,-100 220,-100 220,-68 311,-68 311,-100"/>
<text text-anchor="start" x="228" y="-86.5" font-family="Helvetica,sans-Serif" font-size="10.00">src/platform/linux</text>
<text text-anchor="middle" x="265.5" y="-74.5" font-family="Helvetica,sans-Serif" font-size="10.00">/graphics.cpp</text>
</a>
</g>
</g>
<!-- Node2&#45;&gt;Node4 -->
<g id="edge3_Node000002_Node000004" class="edge">
<title>Node2&#45;&gt;Node4</title>
<g id="a_edge3_Node000002_Node000004"><a xlink:title=" ">
<path fill="none" stroke="#63b8ff" d="M313.76,-128.05C303.53,-118.92 292.03,-108.67 282.83,-100.45"/>
<polygon fill="#63b8ff" stroke="#63b8ff" points="311.41,-130.64 321.21,-134.68 316.07,-125.42 311.41,-130.64"/>
</a>
</g>
</g>
<!-- Node5 -->
<g id="Node000005" class="node">
<title>Node5</title>
<g id="a_Node000005"><a xlink:href="kmsgrab_8cpp.html" target="_top" xlink:title="Definitions for KMS screen capture.">
<polygon fill="white" stroke="#666666" points="385,-32 294,-32 294,0 385,0 385,-32"/>
<text text-anchor="start" x="302" y="-18.5" font-family="Helvetica,sans-Serif" font-size="10.00">src/platform/linux</text>
<text text-anchor="middle" x="339.5" y="-6.5" font-family="Helvetica,sans-Serif" font-size="10.00">/kmsgrab.cpp</text>
</a>
</g>
</g>
<!-- Node2&#45;&gt;Node5 -->
<g id="edge4_Node000002_Node000005" class="edge">
<title>Node2&#45;&gt;Node5</title>
<g id="a_edge4_Node000002_Node000005"><a xlink:title=" ">
<path fill="none" stroke="#63b8ff" d="M339.5,-124.45C339.5,-96.84 339.5,-54.6 339.5,-32.19"/>
<polygon fill="#63b8ff" stroke="#63b8ff" points="336,-124.11 339.5,-134.11 343,-124.11 336,-124.11"/>
</a>
</g>
</g>
<!-- Node2&#45;&gt;Node6 -->
<g id="edge5_Node000002_Node000006" class="edge">
<title>Node2&#45;&gt;Node6</title>
<g id="a_edge5_Node000002_Node000006"><a xlink:title=" ">
<path fill="none" stroke="#63b8ff" d="M393.05,-131.69C420.59,-121.76 453.7,-109.81 479.55,-100.49"/>
<polygon fill="#63b8ff" stroke="#63b8ff" points="392.05,-128.33 383.83,-135.01 394.42,-134.91 392.05,-128.33"/>
</a>
</g>
</g>
<!-- Node2&#45;&gt;Node7 -->
<g id="edge6_Node000002_Node000007" class="edge">
<title>Node2&#45;&gt;Node7</title>
<g id="a_edge6_Node000002_Node000007"><a xlink:title=" ">
<path fill="none" stroke="#63b8ff" d="M365.24,-128.05C375.47,-118.92 386.97,-108.67 396.17,-100.45"/>
<polygon fill="#63b8ff" stroke="#63b8ff" points="362.93,-125.42 357.79,-134.68 367.59,-130.64 362.93,-125.42"/>
</a>
</g>
</g>
<!-- Node8 -->
<g id="Node000008" class="node">
<title>Node8</title>
<g id="a_Node000008"><a xlink:href="wayland_8cpp.html" target="_top" xlink:title="Definitions for Wayland capture.">
<polygon fill="white" stroke="#666666" points="91,-32 0,-32 0,0 91,0 91,-32"/>
<text text-anchor="start" x="8" y="-18.5" font-family="Helvetica,sans-Serif" font-size="10.00">src/platform/linux</text>
<text text-anchor="middle" x="45.5" y="-6.5" font-family="Helvetica,sans-Serif" font-size="10.00">/wayland.cpp</text>
</a>
</g>
</g>
<!-- Node2&#45;&gt;Node8 -->
<g id="edge7_Node000002_Node000008" class="edge">
<title>Node2&#45;&gt;Node8</title>
<g id="a_edge7_Node000002_Node000008"><a xlink:title=" ">
<path fill="none" stroke="#63b8ff" d="M282.45,-144.84C218.94,-137.02 121.28,-121.89 91.5,-100 68.53,-83.12 55.6,-51.15 49.63,-32.19"/>
<polygon fill="#63b8ff" stroke="#63b8ff" points="281.66,-148.27 292,-145.98 282.49,-141.32 281.66,-148.27"/>
</a>
</g>
</g>
<!-- Node9 -->
<g id="Node000009" class="node">
<title>Node9</title>
<g id="a_Node000009"><a xlink:href="wayland_8h.html" target="_top" xlink:title="Declarations for Wayland capture.">
<polygon fill="white" stroke="#666666" points="202,-100 111,-100 111,-68 202,-68 202,-100"/>
<text text-anchor="start" x="119" y="-86.5" font-family="Helvetica,sans-Serif" font-size="10.00">src/platform/linux</text>
<text text-anchor="middle" x="156.5" y="-74.5" font-family="Helvetica,sans-Serif" font-size="10.00">/wayland.h</text>
</a>
</g>
</g>
<!-- Node2&#45;&gt;Node9 -->
<g id="edge8_Node000002_Node000009" class="edge">
<title>Node2&#45;&gt;Node9</title>
<g id="a_edge8_Node000002_Node000009"><a xlink:title=" ">
<path fill="none" stroke="#63b8ff" d="M285.95,-131.69C258.41,-121.76 225.3,-109.81 199.45,-100.49"/>
<polygon fill="#63b8ff" stroke="#63b8ff" points="284.58,-134.91 295.17,-135.01 286.95,-128.33 284.58,-134.91"/>
</a>
</g>
</g>
<!-- Node2&#45;&gt;Node11 -->
<g id="edge13_Node000002_Node000011" class="edge">
<title>Node2&#45;&gt;Node11</title>
<g id="a_edge13_Node000002_Node000011"><a xlink:title=" ">
<path fill="none" stroke="#63b8ff" d="M396.49,-139.79C444.84,-130.03 515.96,-115.13 577.5,-100 580.15,-99.35 582.86,-98.66 585.59,-97.95"/>
<polygon fill="#63b8ff" stroke="#63b8ff" points="395.91,-136.33 386.8,-141.73 397.29,-143.2 395.91,-136.33"/>
</a>
</g>
</g>
<!-- Node9&#45;&gt;Node3 -->
<g id="edge9_Node000009_Node000003" class="edge">
<title>Node9&#45;&gt;Node3</title>
<g id="a_edge9_Node000009_Node000003"><a xlink:title=" ">
<path fill="none" stroke="#63b8ff" d="M156.1,-56.31C155.97,-48.12 155.84,-39.38 155.73,-32.22"/>
<polygon fill="#63b8ff" stroke="#63b8ff" points="152.59,-56.23 156.25,-66.18 159.59,-56.13 152.59,-56.23"/>
</a>
</g>
</g>
<!-- Node9&#45;&gt;Node5 -->
<g id="edge10_Node000009_Node000005" class="edge">
<title>Node9&#45;&gt;Node5</title>
<g id="a_edge10_Node000009_Node000005"><a xlink:title=" ">
<path fill="none" stroke="#63b8ff" d="M210.05,-63.69C237.59,-53.76 270.7,-41.81 296.55,-32.49"/>
<polygon fill="#63b8ff" stroke="#63b8ff" points="209.05,-60.33 200.83,-67.01 211.42,-66.91 209.05,-60.33"/>
</a>
</g>
</g>
<!-- Node9&#45;&gt;Node8 -->
<g id="edge11_Node000009_Node000008" class="edge">
<title>Node9&#45;&gt;Node8</title>
<g id="a_edge11_Node000009_Node000008"><a xlink:title=" ">
<path fill="none" stroke="#63b8ff" d="M120.84,-61.8C104.75,-52.23 86.08,-41.13 71.36,-32.38"/>
<polygon fill="#63b8ff" stroke="#63b8ff" points="118.79,-64.65 129.17,-66.75 122.37,-58.63 118.79,-64.65"/>
</a>
</g>
</g>
<!-- Node10 -->
<g id="Node000010" class="node">
<title>Node10</title>
<g id="a_Node000010"><a xlink:href="wlgrab_8cpp.html" target="_top" xlink:title="Definitions for wlgrab capture.">
<polygon fill="white" stroke="#666666" points="641,-32 550,-32 550,0 641,0 641,-32"/>
<text text-anchor="start" x="558" y="-18.5" font-family="Helvetica,sans-Serif" font-size="10.00">src/platform/linux</text>
<text text-anchor="middle" x="595.5" y="-6.5" font-family="Helvetica,sans-Serif" font-size="10.00">/wlgrab.cpp</text>
</a>
</g>
</g>
<!-- Node9&#45;&gt;Node10 -->
<g id="edge12_Node000009_Node000010" class="edge">
<title>Node9&#45;&gt;Node10</title>
<g id="a_edge12_Node000009_Node000010"><a xlink:title=" ">
<path fill="none" stroke="#63b8ff" d="M213.38,-67.57C339.89,-42.39 479.03,-27.59 549.52,-21"/>
<polygon fill="#63b8ff" stroke="#63b8ff" points="212.94,-64.08 203.83,-69.5 214.33,-70.95 212.94,-64.08"/>
</a>
</g>
</g>
<!-- Node13&#45;&gt;Node5 -->
<g id="edge18_Node000013_Node000005" class="edge">
<title>Node13&#45;&gt;Node5</title>
<g id="a_edge18_Node000013_Node000005"><a xlink:title=" ">
<path fill="none" stroke="#63b8ff" d="M700.95,-124.13C702.33,-105.88 700.64,-82.51 686.5,-68 665.76,-46.71 474.8,-28.23 385.34,-20.66"/>
<polygon fill="#63b8ff" stroke="#63b8ff" points="697.48,-123.67 699.82,-134 704.43,-124.46 697.48,-123.67"/>
</a>
</g>
</g>
<!-- Node13&#45;&gt;Node6 -->
<g id="edge19_Node000013_Node000006" class="edge">
<title>Node13&#45;&gt;Node6</title>
<g id="a_edge19_Node000013_Node000006"><a xlink:title=" ">
<path fill="none" stroke="#63b8ff" d="M645.24,-131.56C619.12,-121.65 587.8,-109.77 563.34,-100.49"/>
<polygon fill="#63b8ff" stroke="#63b8ff" points="643.7,-134.72 654.29,-134.99 646.18,-128.17 643.7,-134.72"/>
</a>
</g>
</g>
<!-- Node13&#45;&gt;Node10 -->
<g id="edge20_Node000013_Node000010" class="edge">
<title>Node13&#45;&gt;Node10</title>
<g id="a_edge20_Node000013_Node000010"><a xlink:title=" ">
<path fill="none" stroke="#63b8ff" d="M713.47,-126.19C723.13,-108.73 731.19,-85.45 719.5,-68 702.14,-42.09 668.98,-29.33 641.31,-23.05"/>
<polygon fill="#63b8ff" stroke="#63b8ff" points="710.68,-124.05 708.52,-134.42 716.68,-127.66 710.68,-124.05"/>
</a>
</g>
</g>
<!-- Node13&#45;&gt;Node11 -->
<g id="edge21_Node000013_Node000011" class="edge">
<title>Node13&#45;&gt;Node11</title>
<g id="a_edge21_Node000013_Node000011"><a xlink:title=" ">
<path fill="none" stroke="#63b8ff" d="M673.56,-127.71C664.58,-118.59 654.52,-108.37 646.49,-100.22"/>
<polygon fill="#63b8ff" stroke="#63b8ff" points="670.85,-129.95 680.36,-134.61 675.84,-125.03 670.85,-129.95"/>
</a>
</g>
</g>
</g>
</svg>
