<?xml version="1.0" encoding="UTF-8" standalone="no"?>
<!DOCTYPE svg PUBLIC "-//W3C//DTD SVG 1.1//EN"
 "http://www.w3.org/Graphics/SVG/1.1/DTD/svg11.dtd">
<!-- Generated by graphviz version 12.2.1 (0)
 -->
<!-- Title: src/logging.cpp Pages: 1 -->
<svg width="1182pt" height="208pt"
 viewBox="0.00 0.00 1182.00 208.00" xmlns="http://www.w3.org/2000/svg" xmlns:xlink="http://www.w3.org/1999/xlink">
<g id="graph0" class="graph" transform="scale(1 1) rotate(0) translate(4 204)">
<title>src/logging.cpp</title>
<!-- Node1 -->
<g id="Node000001" class="node">
<title>Node1</title>
<g id="a_Node000001"><a xlink:title="Definitions for logging related functions.">
<polygon fill="#999999" stroke="#666666" points="520.5,-200 438.5,-200 438.5,-180 520.5,-180 520.5,-200"/>
<text text-anchor="middle" x="479.5" y="-186.5" font-family="Helvetica,sans-Serif" font-size="10.00">src/logging.cpp</text>
</a>
</g>
</g>
<!-- Node2 -->
<g id="Node000002" class="node">
<title>Node2</title>
<g id="a_Node000002"><a xlink:title=" ">
<polygon fill="#e0e0e0" stroke="#999999" points="49,-138 0,-138 0,-118 49,-118 49,-138"/>
<text text-anchor="middle" x="24.5" y="-124.5" font-family="Helvetica,sans-Serif" font-size="10.00">fstream</text>
</a>
</g>
</g>
<!-- Node1&#45;&gt;Node2 -->
<g id="edge1_Node000001_Node000002" class="edge">
<title>Node1&#45;&gt;Node2</title>
<g id="a_edge1_Node000001_Node000002"><a xlink:title=" ">
<path fill="none" stroke="#63b8ff" d="M438.26,-188.94C361.79,-187.88 193.44,-181.1 57.5,-144 56.1,-143.62 54.68,-143.18 53.27,-142.71"/>
<polygon fill="#63b8ff" stroke="#63b8ff" points="54.61,-139.47 44.02,-139.04 52.03,-145.98 54.61,-139.47"/>
</a>
</g>
</g>
<!-- Node3 -->
<g id="Node000003" class="node">
<title>Node3</title>
<g id="a_Node000003"><a xlink:title=" ">
<polygon fill="#e0e0e0" stroke="#999999" points="116.38,-138 66.62,-138 66.62,-118 116.38,-118 116.38,-138"/>
<text text-anchor="middle" x="91.5" y="-124.5" font-family="Helvetica,sans-Serif" font-size="10.00">iomanip</text>
</a>
</g>
</g>
<!-- Node1&#45;&gt;Node3 -->
<g id="edge2_Node000001_Node000003" class="edge">
<title>Node1&#45;&gt;Node3</title>
<g id="a_edge2_Node000001_Node000003"><a xlink:title=" ">
<path fill="none" stroke="#63b8ff" d="M438.13,-187.6C371.26,-184.49 235.78,-174.64 125.5,-144 123.91,-143.56 122.29,-143.05 120.68,-142.5"/>
<polygon fill="#63b8ff" stroke="#63b8ff" points="122.2,-139.34 111.61,-138.96 119.65,-145.86 122.2,-139.34"/>
</a>
</g>
</g>
<!-- Node4 -->
<g id="Node000004" class="node">
<title>Node4</title>
<g id="a_Node000004"><a xlink:title=" ">
<polygon fill="#e0e0e0" stroke="#999999" points="188.25,-138 134.75,-138 134.75,-118 188.25,-118 188.25,-138"/>
<text text-anchor="middle" x="161.5" y="-124.5" font-family="Helvetica,sans-Serif" font-size="10.00">iostream</text>
</a>
</g>
</g>
<!-- Node1&#45;&gt;Node4 -->
<g id="edge3_Node000001_Node000004" class="edge">
<title>Node1&#45;&gt;Node4</title>
<g id="a_edge3_Node000001_Node000004"><a xlink:title=" ">
<path fill="none" stroke="#63b8ff" d="M438.21,-185.5C382.67,-180.09 281.2,-167.75 197.5,-144 195.71,-143.49 193.89,-142.92 192.06,-142.3"/>
<polygon fill="#63b8ff" stroke="#63b8ff" points="193.77,-139.21 183.18,-138.96 191.3,-145.76 193.77,-139.21"/>
</a>
</g>
</g>
<!-- Node5 -->
<g id="Node000005" class="node">
<title>Node5</title>
<g id="a_Node000005"><a xlink:title=" ">
<polygon fill="#e0e0e0" stroke="#999999" points="339,-138 206,-138 206,-118 339,-118 339,-138"/>
<text text-anchor="middle" x="272.5" y="-124.5" font-family="Helvetica,sans-Serif" font-size="10.00">boost/core/null_deleter.hpp</text>
</a>
</g>
</g>
<!-- Node1&#45;&gt;Node5 -->
<g id="edge4_Node000001_Node000005" class="edge">
<title>Node1&#45;&gt;Node5</title>
<g id="a_edge4_Node000001_Node000005"><a xlink:title=" ">
<path fill="none" stroke="#63b8ff" d="M447.16,-179.62C411.87,-169.4 355.18,-152.97 316.01,-141.61"/>
<polygon fill="#63b8ff" stroke="#63b8ff" points="316.99,-138.25 306.41,-138.83 315.04,-144.98 316.99,-138.25"/>
</a>
</g>
</g>
<!-- Node6 -->
<g id="Node000006" class="node">
<title>Node6</title>
<g id="a_Node000006"><a xlink:title=" ">
<polygon fill="#e0e0e0" stroke="#999999" points="219.25,-20 129.75,-20 129.75,0 219.25,0 219.25,-20"/>
<text text-anchor="middle" x="174.5" y="-6.5" font-family="Helvetica,sans-Serif" font-size="10.00">boost/format.hpp</text>
</a>
</g>
</g>
<!-- Node1&#45;&gt;Node6 -->
<g id="edge5_Node000001_Node000006" class="edge">
<title>Node1&#45;&gt;Node6</title>
<g id="a_edge5_Node000001_Node000006"><a xlink:title=" ">
<path fill="none" stroke="#63b8ff" d="M456.78,-179.66C437.67,-171.39 409.94,-158.42 387.5,-144 368.64,-131.88 366.92,-124.78 348.5,-112 299.34,-77.9 238.07,-44.22 202.91,-25.66"/>
<polygon fill="#63b8ff" stroke="#63b8ff" points="204.69,-22.64 194.21,-21.1 201.44,-28.84 204.69,-22.64"/>
</a>
</g>
</g>
<!-- Node7 -->
<g id="Node000007" class="node">
<title>Node7</title>
<g id="a_Node000007"><a xlink:title=" ">
<polygon fill="#e0e0e0" stroke="#999999" points="645.12,-144 545.88,-144 545.88,-112 645.12,-112 645.12,-144"/>
<text text-anchor="start" x="553.88" y="-130.5" font-family="Helvetica,sans-Serif" font-size="10.00">boost/log/attributes</text>
<text text-anchor="middle" x="595.5" y="-118.5" font-family="Helvetica,sans-Serif" font-size="10.00">/clock.hpp</text>
</a>
</g>
</g>
<!-- Node1&#45;&gt;Node7 -->
<g id="edge6_Node000001_Node000007" class="edge">
<title>Node1&#45;&gt;Node7</title>
<g id="a_edge6_Node000001_Node000007"><a xlink:title=" ">
<path fill="none" stroke="#63b8ff" d="M497.62,-179.62C513.14,-171.6 536.04,-159.75 555.79,-149.54"/>
<polygon fill="#63b8ff" stroke="#63b8ff" points="557.16,-152.77 564.43,-145.07 553.94,-146.55 557.16,-152.77"/>
</a>
</g>
</g>
<!-- Node8 -->
<g id="Node000008" class="node">
<title>Node8</title>
<g id="a_Node000008"><a xlink:title=" ">
<polygon fill="#e0e0e0" stroke="#999999" points="624,-76 509,-76 509,-56 624,-56 624,-76"/>
<text text-anchor="middle" x="566.5" y="-62.5" font-family="Helvetica,sans-Serif" font-size="10.00">boost/log/common.hpp</text>
</a>
</g>
</g>
<!-- Node1&#45;&gt;Node8 -->
<g id="edge7_Node000001_Node000008" class="edge">
<title>Node1&#45;&gt;Node8</title>
<g id="a_edge7_Node000001_Node000008"><a xlink:title=" ">
<path fill="none" stroke="#63b8ff" d="M480.48,-179.61C482.48,-164.19 488.23,-133.1 503.5,-112 512.3,-99.83 525.42,-89.72 537.41,-82.18"/>
<polygon fill="#63b8ff" stroke="#63b8ff" points="538.96,-85.33 545.79,-77.23 535.4,-79.3 538.96,-85.33"/>
</a>
</g>
</g>
<!-- Node9 -->
<g id="Node000009" class="node">
<title>Node9</title>
<g id="a_Node000009"><a xlink:title=" ">
<polygon fill="#e0e0e0" stroke="#999999" points="793.5,-138 663.5,-138 663.5,-118 793.5,-118 793.5,-138"/>
<text text-anchor="middle" x="728.5" y="-124.5" font-family="Helvetica,sans-Serif" font-size="10.00">boost/log/expressions.hpp</text>
</a>
</g>
</g>
<!-- Node1&#45;&gt;Node9 -->
<g id="edge8_Node000001_Node000009" class="edge">
<title>Node1&#45;&gt;Node9</title>
<g id="a_edge8_Node000001_Node000009"><a xlink:title=" ">
<path fill="none" stroke="#63b8ff" d="M518.68,-179.56C561.7,-169.19 630.9,-152.52 677.97,-141.18"/>
<polygon fill="#63b8ff" stroke="#63b8ff" points="678.76,-144.58 687.67,-138.84 677.12,-137.78 678.76,-144.58"/>
</a>
</g>
</g>
<!-- Node10 -->
<g id="Node000010" class="node">
<title>Node10</title>
<g id="a_Node000010"><a xlink:title=" ">
<polygon fill="#e0e0e0" stroke="#999999" points="742.88,-76 642.12,-76 642.12,-56 742.88,-56 742.88,-76"/>
<text text-anchor="middle" x="692.5" y="-62.5" font-family="Helvetica,sans-Serif" font-size="10.00">boost/log/sinks.hpp</text>
</a>
</g>
</g>
<!-- Node1&#45;&gt;Node10 -->
<g id="edge9_Node000001_Node000010" class="edge">
<title>Node1&#45;&gt;Node10</title>
<g id="a_edge9_Node000001_Node000010"><a xlink:title=" ">
<path fill="none" stroke="#63b8ff" d="M483.86,-179.62C491.92,-163.36 510.68,-129.94 536.5,-112 552.93,-100.58 599.13,-87.99 637.01,-79.03"/>
<polygon fill="#63b8ff" stroke="#63b8ff" points="637.53,-82.51 646.48,-76.83 635.94,-75.69 637.53,-82.51"/>
</a>
</g>
</g>
<!-- Node11 -->
<g id="Node000011" class="node">
<title>Node11</title>
<g id="a_Node000011"><a xlink:title=" ">
<polygon fill="#e0e0e0" stroke="#999999" points="941.88,-144 811.12,-144 811.12,-112 941.88,-112 941.88,-144"/>
<text text-anchor="start" x="819.12" y="-130.5" font-family="Helvetica,sans-Serif" font-size="10.00">boost/log/sources/severity</text>
<text text-anchor="middle" x="876.5" y="-118.5" font-family="Helvetica,sans-Serif" font-size="10.00">_logger.hpp</text>
</a>
</g>
</g>
<!-- Node1&#45;&gt;Node11 -->
<g id="edge10_Node000001_Node000011" class="edge">
<title>Node1&#45;&gt;Node11</title>
<g id="a_edge10_Node000001_Node000011"><a xlink:title=" ">
<path fill="none" stroke="#63b8ff" d="M520.93,-184.06C580.4,-176.78 693.68,-162.25 799.56,-144.44"/>
<polygon fill="#63b8ff" stroke="#63b8ff" points="800.01,-147.92 809.28,-142.8 798.83,-141.02 800.01,-147.92"/>
</a>
</g>
</g>
<!-- Node12 -->
<g id="Node000012" class="node">
<title>Node12</title>
<g id="a_Node000012"><a xlink:title=" ">
<polygon fill="#e0e0e0" stroke="#999999" points="1082.75,-138 960.25,-138 960.25,-118 1082.75,-118 1082.75,-138"/>
<text text-anchor="middle" x="1021.5" y="-124.5" font-family="Helvetica,sans-Serif" font-size="10.00">display_device/logging.h</text>
</a>
</g>
</g>
<!-- Node1&#45;&gt;Node12 -->
<g id="edge11_Node000001_Node000012" class="edge">
<title>Node1&#45;&gt;Node12</title>
<g id="a_edge11_Node000001_Node000012"><a xlink:title=" ">
<path fill="none" stroke="#63b8ff" d="M520.96,-186.62C603.22,-181.54 792.77,-168.12 950.5,-144 956.8,-143.04 963.39,-141.87 969.9,-140.61"/>
<polygon fill="#63b8ff" stroke="#63b8ff" points="970.12,-144.14 979.24,-138.74 968.74,-137.27 970.12,-144.14"/>
</a>
</g>
</g>
<!-- Node13 -->
<g id="Node000013" class="node">
<title>Node13</title>
<g id="a_Node000013"><a xlink:href="logging_8h.html" target="_top" xlink:title="Declarations for logging related functions.">
<polygon fill="white" stroke="#666666" points="451,-138 396,-138 396,-118 451,-118 451,-138"/>
<text text-anchor="middle" x="423.5" y="-124.5" font-family="Helvetica,sans-Serif" font-size="10.00">logging.h</text>
</a>
</g>
</g>
<!-- Node1&#45;&gt;Node13 -->
<g id="edge12_Node000001_Node000013" class="edge">
<title>Node1&#45;&gt;Node13</title>
<g id="a_edge12_Node000001_Node000013"><a xlink:title=" ">
<path fill="none" stroke="#63b8ff" d="M470.75,-179.62C462.48,-170.77 449.88,-157.26 439.76,-146.43"/>
<polygon fill="#63b8ff" stroke="#63b8ff" points="442.42,-144.14 433.04,-139.22 437.3,-148.92 442.42,-144.14"/>
</a>
</g>
</g>
<!-- Node25 -->
<g id="Node000025" class="node">
<title>Node25</title>
<g id="a_Node000025"><a xlink:title=" ">
<polygon fill="#e0e0e0" stroke="#999999" points="1174,-138 1101,-138 1101,-118 1174,-118 1174,-138"/>
<text text-anchor="middle" x="1137.5" y="-124.5" font-family="Helvetica,sans-Serif" font-size="10.00">libavutil/log.h</text>
</a>
</g>
</g>
<!-- Node1&#45;&gt;Node25 -->
<g id="edge28_Node000001_Node000025" class="edge">
<title>Node1&#45;&gt;Node25</title>
<g id="a_edge28_Node000001_Node000025"><a xlink:title=" ">
<path fill="none" stroke="#63b8ff" d="M520.78,-189.38C620.09,-189.57 879.82,-185.66 1091.5,-144 1094.85,-143.34 1098.3,-142.51 1101.73,-141.58"/>
<polygon fill="#63b8ff" stroke="#63b8ff" points="1102.45,-145.02 1111.03,-138.8 1100.45,-138.31 1102.45,-145.02"/>
</a>
</g>
</g>
<!-- Node13&#45;&gt;Node8 -->
<g id="edge13_Node000013_Node000008" class="edge">
<title>Node13&#45;&gt;Node8</title>
<g id="a_edge13_Node000013_Node000008"><a xlink:title=" ">
<path fill="none" stroke="#63b8ff" d="M445.84,-117.62C469.46,-107.72 506.93,-91.99 533.85,-80.7"/>
<polygon fill="#63b8ff" stroke="#63b8ff" points="535.05,-83.99 542.92,-76.89 532.34,-77.54 535.05,-83.99"/>
</a>
</g>
</g>
<!-- Node13&#45;&gt;Node10 -->
<g id="edge14_Node000013_Node000010" class="edge">
<title>Node13&#45;&gt;Node10</title>
<g id="a_edge14_Node000013_Node000010"><a xlink:title=" ">
<path fill="none" stroke="#63b8ff" d="M451.27,-120.8C495.35,-110.97 582.12,-91.62 638.68,-79"/>
<polygon fill="#63b8ff" stroke="#63b8ff" points="639.44,-82.42 648.44,-76.83 637.92,-75.59 639.44,-82.42"/>
</a>
</g>
</g>
<!-- Node14 -->
<g id="Node000014" class="node">
<title>Node14</title>
<g id="a_Node000014"><a xlink:href="config_8h.html" target="_top" xlink:title="Declarations for the configuration of Sunshine.">
<polygon fill="white" stroke="#666666" points="490.75,-76 440.25,-76 440.25,-56 490.75,-56 490.75,-76"/>
<text text-anchor="middle" x="465.5" y="-62.5" font-family="Helvetica,sans-Serif" font-size="10.00">config.h</text>
</a>
</g>
</g>
<!-- Node13&#45;&gt;Node14 -->
<g id="edge15_Node000013_Node000014" class="edge">
<title>Node13&#45;&gt;Node14</title>
<g id="a_edge15_Node000013_Node000014"><a xlink:title=" ">
<path fill="none" stroke="#63b8ff" d="M430.06,-117.62C436.08,-109.03 445.15,-96.07 452.61,-85.41"/>
<polygon fill="#63b8ff" stroke="#63b8ff" points="455.39,-87.55 458.25,-77.35 449.65,-83.54 455.39,-87.55"/>
</a>
</g>
</g>
<!-- Node22 -->
<g id="Node000022" class="node">
<title>Node22</title>
<g id="a_Node000022"><a xlink:href="stat__trackers_8h.html" target="_top" xlink:title="Declarations for streaming statistic tracking.">
<polygon fill="white" stroke="#666666" points="422.12,-76 340.88,-76 340.88,-56 422.12,-56 422.12,-76"/>
<text text-anchor="middle" x="381.5" y="-62.5" font-family="Helvetica,sans-Serif" font-size="10.00">stat_trackers.h</text>
</a>
</g>
</g>
<!-- Node13&#45;&gt;Node22 -->
<g id="edge23_Node000013_Node000022" class="edge">
<title>Node13&#45;&gt;Node22</title>
<g id="a_edge23_Node000013_Node000022"><a xlink:title=" ">
<path fill="none" stroke="#63b8ff" d="M416.94,-117.62C410.92,-109.03 401.85,-96.07 394.39,-85.41"/>
<polygon fill="#63b8ff" stroke="#63b8ff" points="397.35,-83.54 388.75,-77.35 391.61,-87.55 397.35,-83.54"/>
</a>
</g>
</g>
<!-- Node15 -->
<g id="Node000015" class="node">
<title>Node15</title>
<g id="a_Node000015"><a xlink:title=" ">
<polygon fill="#e0e0e0" stroke="#999999" points="823.5,-20 783.5,-20 783.5,0 823.5,0 823.5,-20"/>
<text text-anchor="middle" x="803.5" y="-6.5" font-family="Helvetica,sans-Serif" font-size="10.00">bitset</text>
</a>
</g>
</g>
<!-- Node14&#45;&gt;Node15 -->
<g id="edge16_Node000014_Node000015" class="edge">
<title>Node14&#45;&gt;Node15</title>
<g id="a_edge16_Node000014_Node000015"><a xlink:title=" ">
<path fill="none" stroke="#63b8ff" d="M491.03,-58.05C494.21,-57.3 497.42,-56.6 500.5,-56 617.55,-33.35 652.49,-45.53 771.97,-20.22"/>
<polygon fill="#63b8ff" stroke="#63b8ff" points="772.51,-23.69 781.54,-18.15 771.03,-16.85 772.51,-23.69"/>
</a>
</g>
</g>
<!-- Node16 -->
<g id="Node000016" class="node">
<title>Node16</title>
<g id="a_Node000016"><a xlink:title=" ">
<polygon fill="#e0e0e0" stroke="#999999" points="416.12,-20 370.88,-20 370.88,0 416.12,0 416.12,-20"/>
<text text-anchor="middle" x="393.5" y="-6.5" font-family="Helvetica,sans-Serif" font-size="10.00">chrono</text>
</a>
</g>
</g>
<!-- Node14&#45;&gt;Node16 -->
<g id="edge17_Node000014_Node000016" class="edge">
<title>Node14&#45;&gt;Node16</title>
<g id="a_edge17_Node000014_Node000016"><a xlink:title=" ">
<path fill="none" stroke="#63b8ff" d="M452.96,-55.59C442.53,-47.77 427.45,-36.46 415.09,-27.19"/>
<polygon fill="#63b8ff" stroke="#63b8ff" points="417.21,-24.41 407.11,-21.21 413.01,-30.01 417.21,-24.41"/>
</a>
</g>
</g>
<!-- Node17 -->
<g id="Node000017" class="node">
<title>Node17</title>
<g id="a_Node000017"><a xlink:title=" ">
<polygon fill="#e0e0e0" stroke="#999999" points="891.38,-20 841.62,-20 841.62,0 891.38,0 891.38,-20"/>
<text text-anchor="middle" x="866.5" y="-6.5" font-family="Helvetica,sans-Serif" font-size="10.00">optional</text>
</a>
</g>
</g>
<!-- Node14&#45;&gt;Node17 -->
<g id="edge18_Node000014_Node000017" class="edge">
<title>Node14&#45;&gt;Node17</title>
<g id="a_edge18_Node000014_Node000017"><a xlink:title=" ">
<path fill="none" stroke="#63b8ff" d="M491.02,-57.99C494.2,-57.25 497.41,-56.56 500.5,-56 642.96,-30.1 684.55,-46.23 830.21,-20.15"/>
<polygon fill="#63b8ff" stroke="#63b8ff" points="830.65,-23.63 839.86,-18.38 829.39,-16.74 830.65,-23.63"/>
</a>
</g>
</g>
<!-- Node18 -->
<g id="Node000018" class="node">
<title>Node18</title>
<g id="a_Node000018"><a xlink:title=" ">
<polygon fill="#e0e0e0" stroke="#999999" points="474.5,-20 434.5,-20 434.5,0 474.5,0 474.5,-20"/>
<text text-anchor="middle" x="454.5" y="-6.5" font-family="Helvetica,sans-Serif" font-size="10.00">string</text>
</a>
</g>
</g>
<!-- Node14&#45;&gt;Node18 -->
<g id="edge19_Node000014_Node000018" class="edge">
<title>Node14&#45;&gt;Node18</title>
<g id="a_edge19_Node000014_Node000018"><a xlink:title=" ">
<path fill="none" stroke="#63b8ff" d="M463.58,-55.59C462.23,-48.93 460.36,-39.75 458.66,-31.44"/>
<polygon fill="#63b8ff" stroke="#63b8ff" points="462.12,-30.88 456.7,-21.78 455.26,-32.28 462.12,-30.88"/>
</a>
</g>
</g>
<!-- Node19 -->
<g id="Node000019" class="node">
<title>Node19</title>
<g id="a_Node000019"><a xlink:title=" ">
<polygon fill="#e0e0e0" stroke="#999999" points="574.88,-20 492.12,-20 492.12,0 574.88,0 574.88,-20"/>
<text text-anchor="middle" x="533.5" y="-6.5" font-family="Helvetica,sans-Serif" font-size="10.00">unordered_map</text>
</a>
</g>
</g>
<!-- Node14&#45;&gt;Node19 -->
<g id="edge20_Node000014_Node000019" class="edge">
<title>Node14&#45;&gt;Node19</title>
<g id="a_edge20_Node000014_Node000019"><a xlink:title=" ">
<path fill="none" stroke="#63b8ff" d="M477.34,-55.59C487.19,-47.77 501.43,-36.46 513.11,-27.19"/>
<polygon fill="#63b8ff" stroke="#63b8ff" points="514.95,-30.2 520.61,-21.24 510.6,-24.72 514.95,-30.2"/>
</a>
</g>
</g>
<!-- Node20 -->
<g id="Node000020" class="node">
<title>Node20</title>
<g id="a_Node000020"><a xlink:title=" ">
<polygon fill="#e0e0e0" stroke="#999999" points="636,-20 593,-20 593,0 636,0 636,-20"/>
<text text-anchor="middle" x="614.5" y="-6.5" font-family="Helvetica,sans-Serif" font-size="10.00">vector</text>
</a>
</g>
</g>
<!-- Node14&#45;&gt;Node20 -->
<g id="edge21_Node000014_Node000020" class="edge">
<title>Node14&#45;&gt;Node20</title>
<g id="a_edge21_Node000014_Node000020"><a xlink:title=" ">
<path fill="none" stroke="#63b8ff" d="M491.11,-55.72C516.27,-46.6 554.74,-32.66 582.03,-22.77"/>
<polygon fill="#63b8ff" stroke="#63b8ff" points="582.98,-26.15 591.19,-19.45 580.59,-19.57 582.98,-26.15"/>
</a>
</g>
</g>
<!-- Node21 -->
<g id="Node000021" class="node">
<title>Node21</title>
<g id="a_Node000021"><a xlink:href="nvenc__config_8h.html" target="_top" xlink:title="Declarations for NVENC encoder configuration.">
<polygon fill="white" stroke="#666666" points="765.12,-20 653.88,-20 653.88,0 765.12,0 765.12,-20"/>
<text text-anchor="middle" x="709.5" y="-6.5" font-family="Helvetica,sans-Serif" font-size="10.00">nvenc/nvenc_config.h</text>
</a>
</g>
</g>
<!-- Node14&#45;&gt;Node21 -->
<g id="edge22_Node000014_Node000021" class="edge">
<title>Node14&#45;&gt;Node21</title>
<g id="a_edge22_Node000014_Node000021"><a xlink:title=" ">
<path fill="none" stroke="#63b8ff" d="M491.09,-58.3C494.25,-57.5 497.45,-56.72 500.5,-56 551.46,-43.97 609.72,-31.53 651.76,-22.79"/>
<polygon fill="#63b8ff" stroke="#63b8ff" points="652.33,-26.25 661.41,-20.79 650.91,-19.39 652.33,-26.25"/>
</a>
</g>
</g>
<!-- Node22&#45;&gt;Node6 -->
<g id="edge27_Node000022_Node000006" class="edge">
<title>Node22&#45;&gt;Node6</title>
<g id="a_edge27_Node000022_Node000006"><a xlink:title=" ">
<path fill="none" stroke="#63b8ff" d="M345.44,-55.59C311.07,-46.63 259.13,-33.08 221.52,-23.27"/>
<polygon fill="#63b8ff" stroke="#63b8ff" points="222.86,-20 212.3,-20.86 221.1,-26.77 222.86,-20"/>
</a>
</g>
</g>
<!-- Node22&#45;&gt;Node16 -->
<g id="edge24_Node000022_Node000016" class="edge">
<title>Node22&#45;&gt;Node16</title>
<g id="a_edge24_Node000022_Node000016"><a xlink:title=" ">
<path fill="none" stroke="#63b8ff" d="M383.59,-55.59C385.07,-48.93 387.11,-39.75 388.96,-31.44"/>
<polygon fill="#63b8ff" stroke="#63b8ff" points="392.35,-32.3 391.11,-21.78 385.52,-30.78 392.35,-32.3"/>
</a>
</g>
</g>
<!-- Node23 -->
<g id="Node000023" class="node">
<title>Node23</title>
<g id="a_Node000023"><a xlink:title=" ">
<polygon fill="#e0e0e0" stroke="#999999" points="295.5,-20 237.5,-20 237.5,0 295.5,0 295.5,-20"/>
<text text-anchor="middle" x="266.5" y="-6.5" font-family="Helvetica,sans-Serif" font-size="10.00">functional</text>
</a>
</g>
</g>
<!-- Node22&#45;&gt;Node23 -->
<g id="edge25_Node000022_Node000023" class="edge">
<title>Node22&#45;&gt;Node23</title>
<g id="a_edge25_Node000022_Node000023"><a xlink:title=" ">
<path fill="none" stroke="#63b8ff" d="M361.47,-55.59C343.69,-47.24 317.43,-34.92 297.04,-25.34"/>
<polygon fill="#63b8ff" stroke="#63b8ff" points="298.6,-22.21 288.06,-21.12 295.62,-28.54 298.6,-22.21"/>
</a>
</g>
</g>
<!-- Node24 -->
<g id="Node000024" class="node">
<title>Node24</title>
<g id="a_Node000024"><a xlink:title=" ">
<polygon fill="#e0e0e0" stroke="#999999" points="353.12,-20 313.88,-20 313.88,0 353.12,0 353.12,-20"/>
<text text-anchor="middle" x="333.5" y="-6.5" font-family="Helvetica,sans-Serif" font-size="10.00">limits</text>
</a>
</g>
</g>
<!-- Node22&#45;&gt;Node24 -->
<g id="edge26_Node000022_Node000024" class="edge">
<title>Node22&#45;&gt;Node24</title>
<g id="a_edge26_Node000022_Node000024"><a xlink:title=" ">
<path fill="none" stroke="#63b8ff" d="M373.14,-55.59C366.6,-48.24 357.32,-37.8 349.38,-28.87"/>
<polygon fill="#63b8ff" stroke="#63b8ff" points="352.03,-26.58 342.77,-21.43 346.8,-31.23 352.03,-26.58"/>
</a>
</g>
</g>
</g>
</svg>
