<?xml version="1.0" encoding="UTF-8" standalone="no"?>
<!DOCTYPE svg PUBLIC "-//W3C//DTD SVG 1.1//EN"
 "http://www.w3.org/Graphics/SVG/1.1/DTD/svg11.dtd">
<!-- Generated by graphviz version 12.2.1 (0)
 -->
<!-- Title: src/logging.h Pages: 1 -->
<svg width="781pt" height="140pt"
 viewBox="0.00 0.00 781.25 140.00" xmlns="http://www.w3.org/2000/svg" xmlns:xlink="http://www.w3.org/1999/xlink">
<g id="graph0" class="graph" transform="scale(1 1) rotate(0) translate(4 136)">
<title>src/logging.h</title>
<!-- Node1 -->
<g id="Node000001" class="node">
<title>Node1</title>
<g id="a_Node000001"><a xlink:title="Declarations for logging related functions.">
<polygon fill="#999999" stroke="#666666" points="266.25,-132 194.75,-132 194.75,-112 266.25,-112 266.25,-132"/>
<text text-anchor="middle" x="230.5" y="-118.5" font-family="Helvetica,sans-Serif" font-size="10.00">src/logging.h</text>
</a>
</g>
</g>
<!-- Node2 -->
<g id="Node000002" class="node">
<title>Node2</title>
<g id="a_Node000002"><a xlink:title=" ">
<polygon fill="#e0e0e0" stroke="#999999" points="115,-76 0,-76 0,-56 115,-56 115,-76"/>
<text text-anchor="middle" x="57.5" y="-62.5" font-family="Helvetica,sans-Serif" font-size="10.00">boost/log/common.hpp</text>
</a>
</g>
</g>
<!-- Node1&#45;&gt;Node2 -->
<g id="edge1_Node000001_Node000002" class="edge">
<title>Node1&#45;&gt;Node2</title>
<g id="a_edge1_Node000001_Node000002"><a xlink:title=" ">
<path fill="none" stroke="#63b8ff" d="M200.37,-111.59C172.26,-102.82 130.09,-89.66 98.84,-79.9"/>
<polygon fill="#63b8ff" stroke="#63b8ff" points="99.9,-76.57 89.31,-76.93 97.82,-83.25 99.9,-76.57"/>
</a>
</g>
</g>
<!-- Node3 -->
<g id="Node000003" class="node">
<title>Node3</title>
<g id="a_Node000003"><a xlink:title=" ">
<polygon fill="#e0e0e0" stroke="#999999" points="233.88,-76 133.12,-76 133.12,-56 233.88,-56 233.88,-76"/>
<text text-anchor="middle" x="183.5" y="-62.5" font-family="Helvetica,sans-Serif" font-size="10.00">boost/log/sinks.hpp</text>
</a>
</g>
</g>
<!-- Node1&#45;&gt;Node3 -->
<g id="edge2_Node000001_Node000003" class="edge">
<title>Node1&#45;&gt;Node3</title>
<g id="a_edge2_Node000001_Node000003"><a xlink:title=" ">
<path fill="none" stroke="#63b8ff" d="M222.31,-111.59C215.91,-104.24 206.82,-93.8 199.05,-84.87"/>
<polygon fill="#63b8ff" stroke="#63b8ff" points="201.79,-82.69 192.59,-77.44 196.51,-87.28 201.79,-82.69"/>
</a>
</g>
</g>
<!-- Node4 -->
<g id="Node000004" class="node">
<title>Node4</title>
<g id="a_Node000004"><a xlink:href="config_8h.html" target="_top" xlink:title="Declarations for the configuration of Sunshine.">
<polygon fill="white" stroke="#666666" points="302.75,-76 252.25,-76 252.25,-56 302.75,-56 302.75,-76"/>
<text text-anchor="middle" x="277.5" y="-62.5" font-family="Helvetica,sans-Serif" font-size="10.00">config.h</text>
</a>
</g>
</g>
<!-- Node1&#45;&gt;Node4 -->
<g id="edge3_Node000001_Node000004" class="edge">
<title>Node1&#45;&gt;Node4</title>
<g id="a_edge3_Node000001_Node000004"><a xlink:title=" ">
<path fill="none" stroke="#63b8ff" d="M238.69,-111.59C245.09,-104.24 254.18,-93.8 261.95,-84.87"/>
<polygon fill="#63b8ff" stroke="#63b8ff" points="264.49,-87.28 268.41,-77.44 259.21,-82.69 264.49,-87.28"/>
</a>
</g>
</g>
<!-- Node12 -->
<g id="Node000012" class="node">
<title>Node12</title>
<g id="a_Node000012"><a xlink:href="stat__trackers_8h.html" target="_top" xlink:title="Declarations for streaming statistic tracking.">
<polygon fill="white" stroke="#666666" points="620.12,-76 538.88,-76 538.88,-56 620.12,-56 620.12,-76"/>
<text text-anchor="middle" x="579.5" y="-62.5" font-family="Helvetica,sans-Serif" font-size="10.00">stat_trackers.h</text>
</a>
</g>
</g>
<!-- Node1&#45;&gt;Node12 -->
<g id="edge11_Node000001_Node000012" class="edge">
<title>Node1&#45;&gt;Node12</title>
<g id="a_edge11_Node000001_Node000012"><a xlink:title=" ">
<path fill="none" stroke="#63b8ff" d="M266.53,-115.42C328.61,-105.82 455.93,-86.12 527.57,-75.03"/>
<polygon fill="#63b8ff" stroke="#63b8ff" points="527.73,-78.55 537.08,-73.56 526.66,-71.63 527.73,-78.55"/>
</a>
</g>
</g>
<!-- Node5 -->
<g id="Node000005" class="node">
<title>Node5</title>
<g id="a_Node000005"><a xlink:title=" ">
<polygon fill="#e0e0e0" stroke="#999999" points="52.5,-20 12.5,-20 12.5,0 52.5,0 52.5,-20"/>
<text text-anchor="middle" x="32.5" y="-6.5" font-family="Helvetica,sans-Serif" font-size="10.00">bitset</text>
</a>
</g>
</g>
<!-- Node4&#45;&gt;Node5 -->
<g id="edge4_Node000004_Node000005" class="edge">
<title>Node4&#45;&gt;Node5</title>
<g id="a_edge4_Node000004_Node000005"><a xlink:title=" ">
<path fill="none" stroke="#63b8ff" d="M251.93,-58.25C248.76,-57.46 245.56,-56.7 242.5,-56 165.97,-38.56 142.96,-40.01 63.73,-20.35"/>
<polygon fill="#63b8ff" stroke="#63b8ff" points="64.72,-16.99 54.17,-17.94 63.01,-23.78 64.72,-16.99"/>
</a>
</g>
</g>
<!-- Node6 -->
<g id="Node000006" class="node">
<title>Node6</title>
<g id="a_Node000006"><a xlink:title=" ">
<polygon fill="#e0e0e0" stroke="#999999" points="532.12,-20 486.88,-20 486.88,0 532.12,0 532.12,-20"/>
<text text-anchor="middle" x="509.5" y="-6.5" font-family="Helvetica,sans-Serif" font-size="10.00">chrono</text>
</a>
</g>
</g>
<!-- Node4&#45;&gt;Node6 -->
<g id="edge5_Node000004_Node000006" class="edge">
<title>Node4&#45;&gt;Node6</title>
<g id="a_edge5_Node000004_Node000006"><a xlink:title=" ">
<path fill="none" stroke="#63b8ff" d="M303.01,-59.82C339.34,-52.33 408.33,-37.69 475.72,-20.61"/>
<polygon fill="#63b8ff" stroke="#63b8ff" points="476.23,-24.09 485.05,-18.22 474.5,-17.31 476.23,-24.09"/>
</a>
</g>
</g>
<!-- Node7 -->
<g id="Node000007" class="node">
<title>Node7</title>
<g id="a_Node000007"><a xlink:title=" ">
<polygon fill="#e0e0e0" stroke="#999999" points="120.38,-20 70.62,-20 70.62,0 120.38,0 120.38,-20"/>
<text text-anchor="middle" x="95.5" y="-6.5" font-family="Helvetica,sans-Serif" font-size="10.00">optional</text>
</a>
</g>
</g>
<!-- Node4&#45;&gt;Node7 -->
<g id="edge6_Node000004_Node000007" class="edge">
<title>Node4&#45;&gt;Node7</title>
<g id="a_edge6_Node000004_Node000007"><a xlink:title=" ">
<path fill="none" stroke="#63b8ff" d="M251.81,-57.38C220.42,-48.06 167.12,-32.25 131.62,-21.72"/>
<polygon fill="#63b8ff" stroke="#63b8ff" points="132.8,-18.42 122.22,-18.93 130.81,-25.13 132.8,-18.42"/>
</a>
</g>
</g>
<!-- Node8 -->
<g id="Node000008" class="node">
<title>Node8</title>
<g id="a_Node000008"><a xlink:title=" ">
<polygon fill="#e0e0e0" stroke="#999999" points="178.5,-20 138.5,-20 138.5,0 178.5,0 178.5,-20"/>
<text text-anchor="middle" x="158.5" y="-6.5" font-family="Helvetica,sans-Serif" font-size="10.00">string</text>
</a>
</g>
</g>
<!-- Node4&#45;&gt;Node8 -->
<g id="edge7_Node000004_Node000008" class="edge">
<title>Node4&#45;&gt;Node8</title>
<g id="a_edge7_Node000004_Node000008"><a xlink:title=" ">
<path fill="none" stroke="#63b8ff" d="M256.77,-55.59C238.17,-47.15 210.62,-34.65 189.42,-25.03"/>
<polygon fill="#63b8ff" stroke="#63b8ff" points="190.92,-21.87 180.37,-20.92 188.03,-28.24 190.92,-21.87"/>
</a>
</g>
</g>
<!-- Node9 -->
<g id="Node000009" class="node">
<title>Node9</title>
<g id="a_Node000009"><a xlink:title=" ">
<polygon fill="#e0e0e0" stroke="#999999" points="278.88,-20 196.12,-20 196.12,0 278.88,0 278.88,-20"/>
<text text-anchor="middle" x="237.5" y="-6.5" font-family="Helvetica,sans-Serif" font-size="10.00">unordered_map</text>
</a>
</g>
</g>
<!-- Node4&#45;&gt;Node9 -->
<g id="edge8_Node000004_Node000009" class="edge">
<title>Node4&#45;&gt;Node9</title>
<g id="a_edge8_Node000004_Node000009"><a xlink:title=" ">
<path fill="none" stroke="#63b8ff" d="M270.53,-55.59C265.2,-48.39 257.67,-38.23 251.15,-29.43"/>
<polygon fill="#63b8ff" stroke="#63b8ff" points="254.05,-27.47 245.29,-21.51 248.43,-31.63 254.05,-27.47"/>
</a>
</g>
</g>
<!-- Node10 -->
<g id="Node000010" class="node">
<title>Node10</title>
<g id="a_Node000010"><a xlink:title=" ">
<polygon fill="#e0e0e0" stroke="#999999" points="340,-20 297,-20 297,0 340,0 340,-20"/>
<text text-anchor="middle" x="318.5" y="-6.5" font-family="Helvetica,sans-Serif" font-size="10.00">vector</text>
</a>
</g>
</g>
<!-- Node4&#45;&gt;Node10 -->
<g id="edge9_Node000004_Node000010" class="edge">
<title>Node4&#45;&gt;Node10</title>
<g id="a_edge9_Node000004_Node000010"><a xlink:title=" ">
<path fill="none" stroke="#63b8ff" d="M284.64,-55.59C290.11,-48.39 297.82,-38.23 304.51,-29.43"/>
<polygon fill="#63b8ff" stroke="#63b8ff" points="307.27,-31.58 310.52,-21.5 301.69,-27.35 307.27,-31.58"/>
</a>
</g>
</g>
<!-- Node11 -->
<g id="Node000011" class="node">
<title>Node11</title>
<g id="a_Node000011"><a xlink:href="nvenc__config_8h.html" target="_top" xlink:title="Declarations for NVENC encoder configuration.">
<polygon fill="white" stroke="#666666" points="469.12,-20 357.88,-20 357.88,0 469.12,0 469.12,-20"/>
<text text-anchor="middle" x="413.5" y="-6.5" font-family="Helvetica,sans-Serif" font-size="10.00">nvenc/nvenc_config.h</text>
</a>
</g>
</g>
<!-- Node4&#45;&gt;Node11 -->
<g id="edge10_Node000004_Node000011" class="edge">
<title>Node4&#45;&gt;Node11</title>
<g id="a_edge10_Node000004_Node000011"><a xlink:title=" ">
<path fill="none" stroke="#63b8ff" d="M301.19,-55.59C322.7,-47.05 354.7,-34.35 379.04,-24.68"/>
<polygon fill="#63b8ff" stroke="#63b8ff" points="380.22,-27.98 388.22,-21.04 377.63,-21.48 380.22,-27.98"/>
</a>
</g>
</g>
<!-- Node12&#45;&gt;Node6 -->
<g id="edge12_Node000012_Node000006" class="edge">
<title>Node12&#45;&gt;Node6</title>
<g id="a_edge12_Node000012_Node000006"><a xlink:title=" ">
<path fill="none" stroke="#63b8ff" d="M567.31,-55.59C557.17,-47.77 542.51,-36.46 530.49,-27.19"/>
<polygon fill="#63b8ff" stroke="#63b8ff" points="532.81,-24.56 522.75,-21.22 528.53,-30.1 532.81,-24.56"/>
</a>
</g>
</g>
<!-- Node13 -->
<g id="Node000013" class="node">
<title>Node13</title>
<g id="a_Node000013"><a xlink:title=" ">
<polygon fill="#e0e0e0" stroke="#999999" points="608.5,-20 550.5,-20 550.5,0 608.5,0 608.5,-20"/>
<text text-anchor="middle" x="579.5" y="-6.5" font-family="Helvetica,sans-Serif" font-size="10.00">functional</text>
</a>
</g>
</g>
<!-- Node12&#45;&gt;Node13 -->
<g id="edge13_Node000012_Node000013" class="edge">
<title>Node12&#45;&gt;Node13</title>
<g id="a_edge13_Node000012_Node000013"><a xlink:title=" ">
<path fill="none" stroke="#63b8ff" d="M579.5,-55.59C579.5,-49.01 579.5,-39.96 579.5,-31.73"/>
<polygon fill="#63b8ff" stroke="#63b8ff" points="583,-31.81 579.5,-21.81 576,-31.81 583,-31.81"/>
</a>
</g>
</g>
<!-- Node14 -->
<g id="Node000014" class="node">
<title>Node14</title>
<g id="a_Node000014"><a xlink:title=" ">
<polygon fill="#e0e0e0" stroke="#999999" points="666.12,-20 626.88,-20 626.88,0 666.12,0 666.12,-20"/>
<text text-anchor="middle" x="646.5" y="-6.5" font-family="Helvetica,sans-Serif" font-size="10.00">limits</text>
</a>
</g>
</g>
<!-- Node12&#45;&gt;Node14 -->
<g id="edge14_Node000012_Node000014" class="edge">
<title>Node12&#45;&gt;Node14</title>
<g id="a_edge14_Node000012_Node000014"><a xlink:title=" ">
<path fill="none" stroke="#63b8ff" d="M591.17,-55.59C600.78,-47.85 614.63,-36.69 626.07,-27.47"/>
<polygon fill="#63b8ff" stroke="#63b8ff" points="628.2,-30.25 633.78,-21.25 623.8,-24.8 628.2,-30.25"/>
</a>
</g>
</g>
<!-- Node15 -->
<g id="Node000015" class="node">
<title>Node15</title>
<g id="a_Node000015"><a xlink:title=" ">
<polygon fill="#e0e0e0" stroke="#999999" points="773.25,-20 683.75,-20 683.75,0 773.25,0 773.25,-20"/>
<text text-anchor="middle" x="728.5" y="-6.5" font-family="Helvetica,sans-Serif" font-size="10.00">boost/format.hpp</text>
</a>
</g>
</g>
<!-- Node12&#45;&gt;Node15 -->
<g id="edge15_Node000012_Node000015" class="edge">
<title>Node12&#45;&gt;Node15</title>
<g id="a_edge15_Node000012_Node000015"><a xlink:title=" ">
<path fill="none" stroke="#63b8ff" d="M605.45,-55.59C629.34,-46.94 665.03,-34 691.83,-24.29"/>
<polygon fill="#63b8ff" stroke="#63b8ff" points="692.71,-27.69 700.92,-21 690.33,-21.11 692.71,-27.69"/>
</a>
</g>
</g>
</g>
</svg>
