<?xml version="1.0" encoding="UTF-8" standalone="no"?>
<!DOCTYPE svg PUBLIC "-//W3C//DTD SVG 1.1//EN"
 "http://www.w3.org/Graphics/SVG/1.1/DTD/svg11.dtd">
<!-- Generated by graphviz version 12.2.1 (0)
 -->
<!-- Title: src/platform/macos/misc.h Pages: 1 -->
<svg width="216pt" height="96pt"
 viewBox="0.00 0.00 216.12 96.00" xmlns="http://www.w3.org/2000/svg" xmlns:xlink="http://www.w3.org/1999/xlink">
<g id="graph0" class="graph" transform="scale(1 1) rotate(0) translate(4 92)">
<title>src/platform/macos/misc.h</title>
<!-- Node1 -->
<g id="Node000001" class="node">
<title>Node1</title>
<g id="a_Node000001"><a xlink:title="Miscellaneous declarations for macOS platform.">
<polygon fill="#999999" stroke="#666666" points="127.5,-88 27.5,-88 27.5,-56 127.5,-56 127.5,-88"/>
<text text-anchor="start" x="35.5" y="-74.5" font-family="Helvetica,sans-Serif" font-size="10.00">src/platform/macos</text>
<text text-anchor="middle" x="77.5" y="-62.5" font-family="Helvetica,sans-Serif" font-size="10.00">/misc.h</text>
</a>
</g>
</g>
<!-- Node2 -->
<g id="Node000002" class="node">
<title>Node2</title>
<g id="a_Node000002"><a xlink:title=" ">
<polygon fill="#e0e0e0" stroke="#999999" points="43,-20 0,-20 0,0 43,0 43,-20"/>
<text text-anchor="middle" x="21.5" y="-6.5" font-family="Helvetica,sans-Serif" font-size="10.00">vector</text>
</a>
</g>
</g>
<!-- Node1&#45;&gt;Node2 -->
<g id="edge1_Node000001_Node000002" class="edge">
<title>Node1&#45;&gt;Node2</title>
<g id="a_edge1_Node000001_Node000002"><a xlink:title=" ">
<path fill="none" stroke="#63b8ff" d="M63.08,-55.55C55.38,-47.3 45.88,-37.12 37.9,-28.57"/>
<polygon fill="#63b8ff" stroke="#63b8ff" points="40.7,-26.44 31.31,-21.51 35.58,-31.21 40.7,-26.44"/>
</a>
</g>
</g>
<!-- Node3 -->
<g id="Node000003" class="node">
<title>Node3</title>
<g id="a_Node000003"><a xlink:title=" ">
<polygon fill="#e0e0e0" stroke="#999999" points="208.12,-20 60.88,-20 60.88,0 208.12,0 208.12,-20"/>
<text text-anchor="middle" x="134.5" y="-6.5" font-family="Helvetica,sans-Serif" font-size="10.00">CoreGraphics/CoreGraphics.h</text>
</a>
</g>
</g>
<!-- Node1&#45;&gt;Node3 -->
<g id="edge2_Node000001_Node000003" class="edge">
<title>Node1&#45;&gt;Node3</title>
<g id="a_edge2_Node000001_Node000003"><a xlink:title=" ">
<path fill="none" stroke="#63b8ff" d="M92.18,-55.55C100.01,-47.3 109.69,-37.12 117.81,-28.57"/>
<polygon fill="#63b8ff" stroke="#63b8ff" points="120.17,-31.17 124.52,-21.51 115.09,-26.34 120.17,-31.17"/>
</a>
</g>
</g>
</g>
</svg>
