<?xml version="1.0" encoding="UTF-8" standalone="no"?>
<!DOCTYPE svg PUBLIC "-//W3C//DTD SVG 1.1//EN"
 "http://www.w3.org/Graphics/SVG/1.1/DTD/svg11.dtd">
<!-- Generated by graphviz version 12.2.1 (0)
 -->
<!-- Title: src/platform/macos/publish.cpp Pages: 1 -->
<svg width="1964pt" height="276pt"
 viewBox="0.00 0.00 1964.38 276.00" xmlns="http://www.w3.org/2000/svg" xmlns:xlink="http://www.w3.org/1999/xlink">
<g id="graph0" class="graph" transform="scale(1 1) rotate(0) translate(4 272)">
<title>src/platform/macos/publish.cpp</title>
<!-- Node1 -->
<g id="Node000001" class="node">
<title>Node1</title>
<g id="a_Node000001"><a xlink:title="Definitions for publishing services on macOS.">
<polygon fill="#999999" stroke="#666666" points="843.5,-268 743.5,-268 743.5,-236 843.5,-236 843.5,-268"/>
<text text-anchor="start" x="751.5" y="-254.5" font-family="Helvetica,sans-Serif" font-size="10.00">src/platform/macos</text>
<text text-anchor="middle" x="793.5" y="-242.5" font-family="Helvetica,sans-Serif" font-size="10.00">/publish.cpp</text>
</a>
</g>
</g>
<!-- Node2 -->
<g id="Node000002" class="node">
<title>Node2</title>
<g id="a_Node000002"><a xlink:title=" ">
<polygon fill="#e0e0e0" stroke="#999999" points="649,-200 606,-200 606,-180 649,-180 649,-200"/>
<text text-anchor="middle" x="627.5" y="-186.5" font-family="Helvetica,sans-Serif" font-size="10.00">thread</text>
</a>
</g>
</g>
<!-- Node1&#45;&gt;Node2 -->
<g id="edge1_Node000001_Node000002" class="edge">
<title>Node1&#45;&gt;Node2</title>
<g id="a_edge1_Node000001_Node000002"><a xlink:title=" ">
<path fill="none" stroke="#63b8ff" d="M750.75,-235.55C722.47,-225.33 685.95,-212.13 660.03,-202.76"/>
<polygon fill="#63b8ff" stroke="#63b8ff" points="661.3,-199.49 650.7,-199.39 658.92,-206.08 661.3,-199.49"/>
</a>
</g>
</g>
<!-- Node3 -->
<g id="Node000003" class="node">
<title>Node3</title>
<g id="a_Node000003"><a xlink:title=" ">
<polygon fill="#e0e0e0" stroke="#999999" points="722.38,-200 666.62,-200 666.62,-180 722.38,-180 722.38,-200"/>
<text text-anchor="middle" x="694.5" y="-186.5" font-family="Helvetica,sans-Serif" font-size="10.00">dns_sd.h</text>
</a>
</g>
</g>
<!-- Node1&#45;&gt;Node3 -->
<g id="edge2_Node000001_Node000003" class="edge">
<title>Node1&#45;&gt;Node3</title>
<g id="a_edge2_Node000001_Node000003"><a xlink:title=" ">
<path fill="none" stroke="#63b8ff" d="M768.01,-235.55C753.11,-226.52 734.39,-215.17 719.57,-206.19"/>
<polygon fill="#63b8ff" stroke="#63b8ff" points="721.68,-203.38 711.32,-201.19 718.06,-209.37 721.68,-203.38"/>
</a>
</g>
</g>
<!-- Node4 -->
<g id="Node000004" class="node">
<title>Node4</title>
<g id="a_Node000004"><a xlink:href="logging_8h.html" target="_top" xlink:title="Declarations for logging related functions.">
<polygon fill="white" stroke="#666666" points="318.25,-138 246.75,-138 246.75,-118 318.25,-118 318.25,-138"/>
<text text-anchor="middle" x="282.5" y="-124.5" font-family="Helvetica,sans-Serif" font-size="10.00">src/logging.h</text>
</a>
</g>
</g>
<!-- Node1&#45;&gt;Node4 -->
<g id="edge3_Node000001_Node000004" class="edge">
<title>Node1&#45;&gt;Node4</title>
<g id="a_edge3_Node000001_Node000004"><a xlink:title=" ">
<path fill="none" stroke="#63b8ff" d="M785.06,-235.72C774.81,-218.84 755.85,-192.41 731.5,-180 652.19,-139.56 419.91,-160.88 332.5,-144 328.9,-143.3 325.18,-142.45 321.48,-141.51"/>
<polygon fill="#63b8ff" stroke="#63b8ff" points="322.58,-138.18 312.01,-138.9 320.71,-144.93 322.58,-138.18"/>
</a>
</g>
</g>
<!-- Node19 -->
<g id="Node000019" class="node">
<title>Node19</title>
<g id="a_Node000019"><a xlink:href="network_8h.html" target="_top" xlink:title="Declarations for networking related functions.">
<polygon fill="white" stroke="#666666" points="1785.12,-200 1709.88,-200 1709.88,-180 1785.12,-180 1785.12,-200"/>
<text text-anchor="middle" x="1747.5" y="-186.5" font-family="Helvetica,sans-Serif" font-size="10.00">src/network.h</text>
</a>
</g>
</g>
<!-- Node1&#45;&gt;Node19 -->
<g id="edge19_Node000001_Node000019" class="edge">
<title>Node1&#45;&gt;Node19</title>
<g id="a_edge19_Node000001_Node000019"><a xlink:title=" ">
<path fill="none" stroke="#63b8ff" d="M843.78,-247.84C1009.1,-237.44 1534.57,-204.39 1698.3,-194.09"/>
<polygon fill="#63b8ff" stroke="#63b8ff" points="1698.18,-197.61 1707.94,-193.49 1697.74,-190.62 1698.18,-197.61"/>
</a>
</g>
</g>
<!-- Node33 -->
<g id="Node000033" class="node">
<title>Node33</title>
<g id="a_Node000033"><a xlink:href="nvhttp_8h.html" target="_top" xlink:title="Declarations for the nvhttp (GameStream) server.">
<polygon fill="white" stroke="#666666" points="1290.38,-200 1222.62,-200 1222.62,-180 1290.38,-180 1290.38,-200"/>
<text text-anchor="middle" x="1256.5" y="-186.5" font-family="Helvetica,sans-Serif" font-size="10.00">src/nvhttp.h</text>
</a>
</g>
</g>
<!-- Node1&#45;&gt;Node33 -->
<g id="edge36_Node000001_Node000033" class="edge">
<title>Node1&#45;&gt;Node33</title>
<g id="a_edge36_Node000001_Node000033"><a xlink:title=" ">
<path fill="none" stroke="#63b8ff" d="M843.93,-244.46C934.68,-232.7 1124.13,-208.15 1211.09,-196.88"/>
<polygon fill="#63b8ff" stroke="#63b8ff" points="1211.44,-200.37 1220.91,-195.61 1210.54,-193.43 1211.44,-200.37"/>
</a>
</g>
</g>
<!-- Node46 -->
<g id="Node000046" class="node">
<title>Node46</title>
<g id="a_Node000046"><a xlink:href="common_8h.html" target="_top" xlink:title="Declarations for common platform specific utilities.">
<polygon fill="white" stroke="#666666" points="894.75,-200 778.25,-200 778.25,-180 894.75,-180 894.75,-200"/>
<text text-anchor="middle" x="836.5" y="-186.5" font-family="Helvetica,sans-Serif" font-size="10.00">src/platform/common.h</text>
</a>
</g>
</g>
<!-- Node1&#45;&gt;Node46 -->
<g id="edge57_Node000001_Node000046" class="edge">
<title>Node1&#45;&gt;Node46</title>
<g id="a_edge57_Node000001_Node000046"><a xlink:title=" ">
<path fill="none" stroke="#63b8ff" d="M804.57,-235.55C810.23,-227.65 817.17,-217.97 823.13,-209.66"/>
<polygon fill="#63b8ff" stroke="#63b8ff" points="825.9,-211.81 828.88,-201.64 820.21,-207.73 825.9,-211.81"/>
</a>
</g>
</g>
<!-- Node5 -->
<g id="Node000005" class="node">
<title>Node5</title>
<g id="a_Node000005"><a xlink:title=" ">
<polygon fill="#e0e0e0" stroke="#999999" points="115,-76 0,-76 0,-56 115,-56 115,-76"/>
<text text-anchor="middle" x="57.5" y="-62.5" font-family="Helvetica,sans-Serif" font-size="10.00">boost/log/common.hpp</text>
</a>
</g>
</g>
<!-- Node4&#45;&gt;Node5 -->
<g id="edge4_Node000004_Node000005" class="edge">
<title>Node4&#45;&gt;Node5</title>
<g id="a_edge4_Node000004_Node000005"><a xlink:title=" ">
<path fill="none" stroke="#63b8ff" d="M247.34,-117.62C208.65,-107.31 146.31,-90.68 103.7,-79.32"/>
<polygon fill="#63b8ff" stroke="#63b8ff" points="104.81,-75.99 94.24,-76.8 103,-82.76 104.81,-75.99"/>
</a>
</g>
</g>
<!-- Node6 -->
<g id="Node000006" class="node">
<title>Node6</title>
<g id="a_Node000006"><a xlink:title=" ">
<polygon fill="#e0e0e0" stroke="#999999" points="332.88,-76 232.12,-76 232.12,-56 332.88,-56 332.88,-76"/>
<text text-anchor="middle" x="282.5" y="-62.5" font-family="Helvetica,sans-Serif" font-size="10.00">boost/log/sinks.hpp</text>
</a>
</g>
</g>
<!-- Node4&#45;&gt;Node6 -->
<g id="edge5_Node000004_Node000006" class="edge">
<title>Node4&#45;&gt;Node6</title>
<g id="a_edge5_Node000004_Node000006"><a xlink:title=" ">
<path fill="none" stroke="#63b8ff" d="M282.5,-117.62C282.5,-109.56 282.5,-97.65 282.5,-87.41"/>
<polygon fill="#63b8ff" stroke="#63b8ff" points="286,-87.63 282.5,-77.63 279,-87.63 286,-87.63"/>
</a>
</g>
</g>
<!-- Node7 -->
<g id="Node000007" class="node">
<title>Node7</title>
<g id="a_Node000007"><a xlink:href="config_8h.html" target="_top" xlink:title="Declarations for the configuration of Sunshine.">
<polygon fill="white" stroke="#666666" points="727.75,-76 677.25,-76 677.25,-56 727.75,-56 727.75,-76"/>
<text text-anchor="middle" x="702.5" y="-62.5" font-family="Helvetica,sans-Serif" font-size="10.00">config.h</text>
</a>
</g>
</g>
<!-- Node4&#45;&gt;Node7 -->
<g id="edge6_Node000004_Node000007" class="edge">
<title>Node4&#45;&gt;Node7</title>
<g id="a_edge6_Node000004_Node000007"><a xlink:title=" ">
<path fill="none" stroke="#63b8ff" d="M318.42,-120.59C334.35,-117.82 353.34,-114.62 370.5,-112 477.5,-95.63 604.37,-79.28 665.69,-71.57"/>
<polygon fill="#63b8ff" stroke="#63b8ff" points="666.06,-75.05 675.55,-70.34 665.19,-68.11 666.06,-75.05"/>
</a>
</g>
</g>
<!-- Node15 -->
<g id="Node000015" class="node">
<title>Node15</title>
<g id="a_Node000015"><a xlink:href="stat__trackers_8h.html" target="_top" xlink:title="Declarations for streaming statistic tracking.">
<polygon fill="white" stroke="#666666" points="214.12,-76 132.88,-76 132.88,-56 214.12,-56 214.12,-76"/>
<text text-anchor="middle" x="173.5" y="-62.5" font-family="Helvetica,sans-Serif" font-size="10.00">stat_trackers.h</text>
</a>
</g>
</g>
<!-- Node4&#45;&gt;Node15 -->
<g id="edge14_Node000004_Node000015" class="edge">
<title>Node4&#45;&gt;Node15</title>
<g id="a_edge14_Node000004_Node000015"><a xlink:title=" ">
<path fill="none" stroke="#63b8ff" d="M265.47,-117.62C248.03,-108.03 220.67,-92.97 200.32,-81.77"/>
<polygon fill="#63b8ff" stroke="#63b8ff" points="202.19,-78.8 191.74,-77.04 198.81,-84.93 202.19,-78.8"/>
</a>
</g>
</g>
<!-- Node8 -->
<g id="Node000008" class="node">
<title>Node8</title>
<g id="a_Node000008"><a xlink:title=" ">
<polygon fill="#e0e0e0" stroke="#999999" points="865.5,-20 825.5,-20 825.5,0 865.5,0 865.5,-20"/>
<text text-anchor="middle" x="845.5" y="-6.5" font-family="Helvetica,sans-Serif" font-size="10.00">bitset</text>
</a>
</g>
</g>
<!-- Node7&#45;&gt;Node8 -->
<g id="edge7_Node000007_Node000008" class="edge">
<title>Node7&#45;&gt;Node8</title>
<g id="a_edge7_Node000007_Node000008"><a xlink:title=" ">
<path fill="none" stroke="#63b8ff" d="M727.41,-55.59C751.63,-46.45 788.5,-32.52 814.59,-22.67"/>
<polygon fill="#63b8ff" stroke="#63b8ff" points="815.51,-26.07 823.62,-19.26 813.03,-19.52 815.51,-26.07"/>
</a>
</g>
</g>
<!-- Node9 -->
<g id="Node000009" class="node">
<title>Node9</title>
<g id="a_Node000009"><a xlink:title=" ">
<polygon fill="#e0e0e0" stroke="#999999" points="472.12,-20 426.88,-20 426.88,0 472.12,0 472.12,-20"/>
<text text-anchor="middle" x="449.5" y="-6.5" font-family="Helvetica,sans-Serif" font-size="10.00">chrono</text>
</a>
</g>
</g>
<!-- Node7&#45;&gt;Node9 -->
<g id="edge8_Node000007_Node000009" class="edge">
<title>Node7&#45;&gt;Node9</title>
<g id="a_edge8_Node000007_Node000009"><a xlink:title=" ">
<path fill="none" stroke="#63b8ff" d="M676.85,-59.53C630.93,-49.72 534.7,-29.18 483.4,-18.24"/>
<polygon fill="#63b8ff" stroke="#63b8ff" points="484.26,-14.84 473.75,-16.18 482.8,-21.69 484.26,-14.84"/>
</a>
</g>
</g>
<!-- Node10 -->
<g id="Node000010" class="node">
<title>Node10</title>
<g id="a_Node000010"><a xlink:title=" ">
<polygon fill="#e0e0e0" stroke="#999999" points="945.38,-20 895.62,-20 895.62,0 945.38,0 945.38,-20"/>
<text text-anchor="middle" x="920.5" y="-6.5" font-family="Helvetica,sans-Serif" font-size="10.00">optional</text>
</a>
</g>
</g>
<!-- Node7&#45;&gt;Node10 -->
<g id="edge9_Node000007_Node000010" class="edge">
<title>Node7&#45;&gt;Node10</title>
<g id="a_edge9_Node000007_Node000010"><a xlink:title=" ">
<path fill="none" stroke="#63b8ff" d="M728.11,-58.17C730.94,-57.43 733.78,-56.69 736.5,-56 787.76,-42.95 847.25,-28.53 884.39,-19.62"/>
<polygon fill="#63b8ff" stroke="#63b8ff" points="884.78,-23.12 893.69,-17.39 883.15,-16.32 884.78,-23.12"/>
</a>
</g>
</g>
<!-- Node11 -->
<g id="Node000011" class="node">
<title>Node11</title>
<g id="a_Node000011"><a xlink:title=" ">
<polygon fill="#e0e0e0" stroke="#999999" points="1009.5,-20 969.5,-20 969.5,0 1009.5,0 1009.5,-20"/>
<text text-anchor="middle" x="989.5" y="-6.5" font-family="Helvetica,sans-Serif" font-size="10.00">string</text>
</a>
</g>
</g>
<!-- Node7&#45;&gt;Node11 -->
<g id="edge10_Node000007_Node000011" class="edge">
<title>Node7&#45;&gt;Node11</title>
<g id="a_edge10_Node000007_Node000011"><a xlink:title=" ">
<path fill="none" stroke="#63b8ff" d="M728.06,-57.96C730.9,-57.26 733.75,-56.59 736.5,-56 832.52,-35.41 858.41,-40.25 954.5,-20 955.7,-19.75 956.92,-19.48 958.14,-19.21"/>
<polygon fill="#63b8ff" stroke="#63b8ff" points="958.84,-22.64 967.74,-16.89 957.2,-15.83 958.84,-22.64"/>
</a>
</g>
</g>
<!-- Node12 -->
<g id="Node000012" class="node">
<title>Node12</title>
<g id="a_Node000012"><a xlink:title=" ">
<polygon fill="#e0e0e0" stroke="#999999" points="783.88,-20 701.12,-20 701.12,0 783.88,0 783.88,-20"/>
<text text-anchor="middle" x="742.5" y="-6.5" font-family="Helvetica,sans-Serif" font-size="10.00">unordered_map</text>
</a>
</g>
</g>
<!-- Node7&#45;&gt;Node12 -->
<g id="edge11_Node000007_Node000012" class="edge">
<title>Node7&#45;&gt;Node12</title>
<g id="a_edge11_Node000007_Node000012"><a xlink:title=" ">
<path fill="none" stroke="#63b8ff" d="M709.47,-55.59C714.8,-48.39 722.33,-38.23 728.85,-29.43"/>
<polygon fill="#63b8ff" stroke="#63b8ff" points="731.57,-31.63 734.71,-21.51 725.95,-27.47 731.57,-31.63"/>
</a>
</g>
</g>
<!-- Node13 -->
<g id="Node000013" class="node">
<title>Node13</title>
<g id="a_Node000013"><a xlink:title=" ">
<polygon fill="#e0e0e0" stroke="#999999" points="1074,-20 1031,-20 1031,0 1074,0 1074,-20"/>
<text text-anchor="middle" x="1052.5" y="-6.5" font-family="Helvetica,sans-Serif" font-size="10.00">vector</text>
</a>
</g>
</g>
<!-- Node7&#45;&gt;Node13 -->
<g id="edge12_Node000007_Node000013" class="edge">
<title>Node7&#45;&gt;Node13</title>
<g id="a_edge12_Node000007_Node000013"><a xlink:title=" ">
<path fill="none" stroke="#63b8ff" d="M728.04,-57.85C730.88,-57.17 733.74,-56.54 736.5,-56 860.51,-31.78 894.49,-44.22 1018.5,-20 1018.87,-19.93 1019.24,-19.85 1019.62,-19.78"/>
<polygon fill="#63b8ff" stroke="#63b8ff" points="1020.22,-23.23 1029.18,-17.58 1018.65,-16.41 1020.22,-23.23"/>
</a>
</g>
</g>
<!-- Node14 -->
<g id="Node000014" class="node">
<title>Node14</title>
<g id="a_Node000014"><a xlink:href="nvenc__config_8h.html" target="_top" xlink:title="Declarations for NVENC encoder configuration.">
<polygon fill="white" stroke="#666666" points="683.12,-20 571.88,-20 571.88,0 683.12,0 683.12,-20"/>
<text text-anchor="middle" x="627.5" y="-6.5" font-family="Helvetica,sans-Serif" font-size="10.00">nvenc/nvenc_config.h</text>
</a>
</g>
</g>
<!-- Node7&#45;&gt;Node14 -->
<g id="edge13_Node000007_Node000014" class="edge">
<title>Node7&#45;&gt;Node14</title>
<g id="a_edge13_Node000007_Node000014"><a xlink:title=" ">
<path fill="none" stroke="#63b8ff" d="M689.44,-55.59C678.53,-47.74 662.75,-36.38 649.84,-27.09"/>
<polygon fill="#63b8ff" stroke="#63b8ff" points="652.05,-24.37 641.89,-21.36 647.96,-30.05 652.05,-24.37"/>
</a>
</g>
</g>
<!-- Node15&#45;&gt;Node9 -->
<g id="edge15_Node000015_Node000009" class="edge">
<title>Node15&#45;&gt;Node9</title>
<g id="a_edge15_Node000015_Node000009"><a xlink:title=" ">
<path fill="none" stroke="#63b8ff" d="M214.52,-56.97C269.13,-46.29 364.72,-27.59 415.51,-17.65"/>
<polygon fill="#63b8ff" stroke="#63b8ff" points="415.9,-21.14 425.04,-15.79 414.56,-14.27 415.9,-21.14"/>
</a>
</g>
</g>
<!-- Node16 -->
<g id="Node000016" class="node">
<title>Node16</title>
<g id="a_Node000016"><a xlink:title=" ">
<polygon fill="#e0e0e0" stroke="#999999" points="389.5,-20 331.5,-20 331.5,0 389.5,0 389.5,-20"/>
<text text-anchor="middle" x="360.5" y="-6.5" font-family="Helvetica,sans-Serif" font-size="10.00">functional</text>
</a>
</g>
</g>
<!-- Node15&#45;&gt;Node16 -->
<g id="edge16_Node000015_Node000016" class="edge">
<title>Node15&#45;&gt;Node16</title>
<g id="a_edge16_Node000015_Node000016"><a xlink:title=" ">
<path fill="none" stroke="#63b8ff" d="M206.07,-55.59C237.76,-46.44 285.97,-32.52 320.08,-22.67"/>
<polygon fill="#63b8ff" stroke="#63b8ff" points="320.98,-26.06 329.61,-19.92 319.04,-19.33 320.98,-26.06"/>
</a>
</g>
</g>
<!-- Node17 -->
<g id="Node000017" class="node">
<title>Node17</title>
<g id="a_Node000017"><a xlink:title=" ">
<polygon fill="#e0e0e0" stroke="#999999" points="234.12,-20 194.88,-20 194.88,0 234.12,0 234.12,-20"/>
<text text-anchor="middle" x="214.5" y="-6.5" font-family="Helvetica,sans-Serif" font-size="10.00">limits</text>
</a>
</g>
</g>
<!-- Node15&#45;&gt;Node17 -->
<g id="edge17_Node000015_Node000017" class="edge">
<title>Node15&#45;&gt;Node17</title>
<g id="a_edge17_Node000015_Node000017"><a xlink:title=" ">
<path fill="none" stroke="#63b8ff" d="M180.64,-55.59C186.11,-48.39 193.82,-38.23 200.51,-29.43"/>
<polygon fill="#63b8ff" stroke="#63b8ff" points="203.27,-31.58 206.52,-21.5 197.69,-27.35 203.27,-31.58"/>
</a>
</g>
</g>
<!-- Node18 -->
<g id="Node000018" class="node">
<title>Node18</title>
<g id="a_Node000018"><a xlink:title=" ">
<polygon fill="#e0e0e0" stroke="#999999" points="177.25,-20 87.75,-20 87.75,0 177.25,0 177.25,-20"/>
<text text-anchor="middle" x="132.5" y="-6.5" font-family="Helvetica,sans-Serif" font-size="10.00">boost/format.hpp</text>
</a>
</g>
</g>
<!-- Node15&#45;&gt;Node18 -->
<g id="edge18_Node000015_Node000018" class="edge">
<title>Node15&#45;&gt;Node18</title>
<g id="a_edge18_Node000015_Node000018"><a xlink:title=" ">
<path fill="none" stroke="#63b8ff" d="M166.36,-55.59C160.89,-48.39 153.18,-38.23 146.49,-29.43"/>
<polygon fill="#63b8ff" stroke="#63b8ff" points="149.31,-27.35 140.48,-21.5 143.73,-31.58 149.31,-27.35"/>
</a>
</g>
</g>
<!-- Node20 -->
<g id="Node000020" class="node">
<title>Node20</title>
<g id="a_Node000020"><a xlink:title=" ">
<polygon fill="#e0e0e0" stroke="#999999" points="1801,-138 1764,-138 1764,-118 1801,-118 1801,-138"/>
<text text-anchor="middle" x="1782.5" y="-124.5" font-family="Helvetica,sans-Serif" font-size="10.00">tuple</text>
</a>
</g>
</g>
<!-- Node19&#45;&gt;Node20 -->
<g id="edge20_Node000019_Node000020" class="edge">
<title>Node19&#45;&gt;Node20</title>
<g id="a_edge20_Node000019_Node000020"><a xlink:title=" ">
<path fill="none" stroke="#63b8ff" d="M1752.97,-179.62C1757.93,-171.12 1765.39,-158.33 1771.57,-147.74"/>
<polygon fill="#63b8ff" stroke="#63b8ff" points="1774.41,-149.82 1776.42,-139.42 1768.36,-146.29 1774.41,-149.82"/>
</a>
</g>
</g>
<!-- Node21 -->
<g id="Node000021" class="node">
<title>Node21</title>
<g id="a_Node000021"><a xlink:title=" ">
<polygon fill="#e0e0e0" stroke="#999999" points="1858.12,-138 1818.88,-138 1818.88,-118 1858.12,-118 1858.12,-138"/>
<text text-anchor="middle" x="1838.5" y="-124.5" font-family="Helvetica,sans-Serif" font-size="10.00">utility</text>
</a>
</g>
</g>
<!-- Node19&#45;&gt;Node21 -->
<g id="edge21_Node000019_Node000021" class="edge">
<title>Node19&#45;&gt;Node21</title>
<g id="a_edge21_Node000019_Node000021"><a xlink:title=" ">
<path fill="none" stroke="#63b8ff" d="M1761.72,-179.62C1776.01,-170.2 1798.28,-155.52 1815.16,-144.39"/>
<polygon fill="#63b8ff" stroke="#63b8ff" points="1816.7,-147.57 1823.12,-139.14 1812.84,-141.72 1816.7,-147.57"/>
</a>
</g>
</g>
<!-- Node22 -->
<g id="Node000022" class="node">
<title>Node22</title>
<g id="a_Node000022"><a xlink:title=" ">
<polygon fill="#e0e0e0" stroke="#999999" points="1956.38,-138 1876.62,-138 1876.62,-118 1956.38,-118 1956.38,-138"/>
<text text-anchor="middle" x="1916.5" y="-124.5" font-family="Helvetica,sans-Serif" font-size="10.00">boost/asio.hpp</text>
</a>
</g>
</g>
<!-- Node19&#45;&gt;Node22 -->
<g id="edge22_Node000019_Node000022" class="edge">
<title>Node19&#45;&gt;Node22</title>
<g id="a_edge22_Node000019_Node000022"><a xlink:title=" ">
<path fill="none" stroke="#63b8ff" d="M1773.91,-179.62C1802.22,-169.57 1847.41,-153.53 1879.32,-142.2"/>
<polygon fill="#63b8ff" stroke="#63b8ff" points="1880.32,-145.56 1888.57,-138.91 1877.98,-138.96 1880.32,-145.56"/>
</a>
</g>
</g>
<!-- Node23 -->
<g id="Node000023" class="node">
<title>Node23</title>
<g id="a_Node000023"><a xlink:title=" ">
<polygon fill="#e0e0e0" stroke="#999999" points="1745.88,-138 1681.12,-138 1681.12,-118 1745.88,-118 1745.88,-138"/>
<text text-anchor="middle" x="1713.5" y="-124.5" font-family="Helvetica,sans-Serif" font-size="10.00">enet/enet.h</text>
</a>
</g>
</g>
<!-- Node19&#45;&gt;Node23 -->
<g id="edge23_Node000019_Node000023" class="edge">
<title>Node19&#45;&gt;Node23</title>
<g id="a_edge23_Node000019_Node000023"><a xlink:title=" ">
<path fill="none" stroke="#63b8ff" d="M1742.19,-179.62C1737.42,-171.21 1730.27,-158.6 1724.31,-148.07"/>
<polygon fill="#63b8ff" stroke="#63b8ff" points="1727.39,-146.4 1719.41,-139.43 1721.3,-149.86 1727.39,-146.4"/>
</a>
</g>
</g>
<!-- Node24 -->
<g id="Node000024" class="node">
<title>Node24</title>
<g id="a_Node000024"><a xlink:href="utility_8h.html" target="_top" xlink:title="Declarations for utility functions.">
<polygon fill="white" stroke="#666666" points="1335.88,-76 1289.12,-76 1289.12,-56 1335.88,-56 1335.88,-76"/>
<text text-anchor="middle" x="1312.5" y="-62.5" font-family="Helvetica,sans-Serif" font-size="10.00">utility.h</text>
</a>
</g>
</g>
<!-- Node19&#45;&gt;Node24 -->
<g id="edge24_Node000019_Node000024" class="edge">
<title>Node19&#45;&gt;Node24</title>
<g id="a_edge24_Node000019_Node000024"><a xlink:title=" ">
<path fill="none" stroke="#63b8ff" d="M1709.51,-181.58C1679.26,-174.67 1636.5,-162.59 1602.5,-144 1583.13,-133.41 1584.49,-121.37 1564.5,-112 1526.4,-94.14 1406.77,-78.08 1347.08,-70.93"/>
<polygon fill="#63b8ff" stroke="#63b8ff" points="1347.83,-67.49 1337.49,-69.8 1347.01,-74.44 1347.83,-67.49"/>
</a>
</g>
</g>
<!-- Node24&#45;&gt;Node10 -->
<g id="edge29_Node000024_Node000010" class="edge">
<title>Node24&#45;&gt;Node10</title>
<g id="a_edge29_Node000024_Node000010"><a xlink:title=" ">
<path fill="none" stroke="#63b8ff" d="M1288.9,-62.76C1232.1,-57.2 1083.37,-41.63 960.5,-20 959.31,-19.79 958.1,-19.57 956.88,-19.34"/>
<polygon fill="#63b8ff" stroke="#63b8ff" points="957.8,-15.95 947.3,-17.38 956.4,-22.81 957.8,-15.95"/>
</a>
</g>
</g>
<!-- Node24&#45;&gt;Node11 -->
<g id="edge31_Node000024_Node000011" class="edge">
<title>Node24&#45;&gt;Node11</title>
<g id="a_edge31_Node000024_Node000011"><a xlink:title=" ">
<path fill="none" stroke="#63b8ff" d="M1288.65,-62.22C1238.88,-56.22 1120.41,-40.88 1022.5,-20 1021.85,-19.86 1021.19,-19.72 1020.52,-19.57"/>
<polygon fill="#63b8ff" stroke="#63b8ff" points="1021.67,-16.25 1011.13,-17.25 1019.99,-23.04 1021.67,-16.25"/>
</a>
</g>
</g>
<!-- Node24&#45;&gt;Node13 -->
<g id="edge35_Node000024_Node000013" class="edge">
<title>Node24&#45;&gt;Node13</title>
<g id="a_edge35_Node000024_Node000013"><a xlink:title=" ">
<path fill="none" stroke="#63b8ff" d="M1288.94,-61.08C1249.06,-54.29 1165.5,-39.43 1085.24,-20.24"/>
<polygon fill="#63b8ff" stroke="#63b8ff" points="1086.46,-16.94 1075.92,-17.99 1084.82,-23.74 1086.46,-16.94"/>
</a>
</g>
</g>
<!-- Node25 -->
<g id="Node000025" class="node">
<title>Node25</title>
<g id="a_Node000025"><a xlink:title=" ">
<polygon fill="#e0e0e0" stroke="#999999" points="1321.38,-20 1265.62,-20 1265.62,0 1321.38,0 1321.38,-20"/>
<text text-anchor="middle" x="1293.5" y="-6.5" font-family="Helvetica,sans-Serif" font-size="10.00">algorithm</text>
</a>
</g>
</g>
<!-- Node24&#45;&gt;Node25 -->
<g id="edge25_Node000024_Node000025" class="edge">
<title>Node24&#45;&gt;Node25</title>
<g id="a_edge25_Node000024_Node000025"><a xlink:title=" ">
<path fill="none" stroke="#63b8ff" d="M1309.19,-55.59C1306.82,-48.86 1303.54,-39.53 1300.59,-31.15"/>
<polygon fill="#63b8ff" stroke="#63b8ff" points="1303.89,-30 1297.27,-21.73 1297.29,-32.32 1303.89,-30"/>
</a>
</g>
</g>
<!-- Node26 -->
<g id="Node000026" class="node">
<title>Node26</title>
<g id="a_Node000026"><a xlink:title=" ">
<polygon fill="#e0e0e0" stroke="#999999" points="1247.5,-20 1153.5,-20 1153.5,0 1247.5,0 1247.5,-20"/>
<text text-anchor="middle" x="1200.5" y="-6.5" font-family="Helvetica,sans-Serif" font-size="10.00">condition_variable</text>
</a>
</g>
</g>
<!-- Node24&#45;&gt;Node26 -->
<g id="edge26_Node000024_Node000026" class="edge">
<title>Node24&#45;&gt;Node26</title>
<g id="a_edge26_Node000024_Node000026"><a xlink:title=" ">
<path fill="none" stroke="#63b8ff" d="M1292.99,-55.59C1275.75,-47.28 1250.34,-35.03 1230.51,-25.47"/>
<polygon fill="#63b8ff" stroke="#63b8ff" points="1232.05,-22.33 1221.52,-21.14 1229.01,-28.63 1232.05,-22.33"/>
</a>
</g>
</g>
<!-- Node27 -->
<g id="Node000027" class="node">
<title>Node27</title>
<g id="a_Node000027"><a xlink:title=" ">
<polygon fill="#e0e0e0" stroke="#999999" points="1391.12,-20 1339.88,-20 1339.88,0 1391.12,0 1391.12,-20"/>
<text text-anchor="middle" x="1365.5" y="-6.5" font-family="Helvetica,sans-Serif" font-size="10.00">memory</text>
</a>
</g>
</g>
<!-- Node24&#45;&gt;Node27 -->
<g id="edge27_Node000024_Node000027" class="edge">
<title>Node24&#45;&gt;Node27</title>
<g id="a_edge27_Node000024_Node000027"><a xlink:title=" ">
<path fill="none" stroke="#63b8ff" d="M1321.73,-55.59C1329.1,-48.08 1339.63,-37.35 1348.52,-28.3"/>
<polygon fill="#63b8ff" stroke="#63b8ff" points="1350.81,-30.97 1355.31,-21.38 1345.81,-26.06 1350.81,-30.97"/>
</a>
</g>
</g>
<!-- Node28 -->
<g id="Node000028" class="node">
<title>Node28</title>
<g id="a_Node000028"><a xlink:title=" ">
<polygon fill="#e0e0e0" stroke="#999999" points="1135,-20 1092,-20 1092,0 1135,0 1135,-20"/>
<text text-anchor="middle" x="1113.5" y="-6.5" font-family="Helvetica,sans-Serif" font-size="10.00">mutex</text>
</a>
</g>
</g>
<!-- Node24&#45;&gt;Node28 -->
<g id="edge28_Node000024_Node000028" class="edge">
<title>Node24&#45;&gt;Node28</title>
<g id="a_edge28_Node000024_Node000028"><a xlink:title=" ">
<path fill="none" stroke="#63b8ff" d="M1288.81,-58.82C1258.21,-50.8 1203.05,-36.23 1146.45,-20.5"/>
<polygon fill="#63b8ff" stroke="#63b8ff" points="1147.53,-17.17 1136.96,-17.85 1145.65,-23.91 1147.53,-17.17"/>
</a>
</g>
</g>
<!-- Node29 -->
<g id="Node000029" class="node">
<title>Node29</title>
<g id="a_Node000029"><a xlink:title=" ">
<polygon fill="#e0e0e0" stroke="#999999" points="1460.12,-20 1408.88,-20 1408.88,0 1460.12,0 1460.12,-20"/>
<text text-anchor="middle" x="1434.5" y="-6.5" font-family="Helvetica,sans-Serif" font-size="10.00">ostream</text>
</a>
</g>
</g>
<!-- Node24&#45;&gt;Node29 -->
<g id="edge30_Node000024_Node000029" class="edge">
<title>Node24&#45;&gt;Node29</title>
<g id="a_edge30_Node000024_Node000029"><a xlink:title=" ">
<path fill="none" stroke="#63b8ff" d="M1333.75,-55.59C1352.79,-47.17 1380.98,-34.69 1402.7,-25.07"/>
<polygon fill="#63b8ff" stroke="#63b8ff" points="1403.97,-28.34 1411.7,-21.09 1401.14,-21.94 1403.97,-28.34"/>
</a>
</g>
</g>
<!-- Node30 -->
<g id="Node000030" class="node">
<title>Node30</title>
<g id="a_Node000030"><a xlink:title=" ">
<polygon fill="#e0e0e0" stroke="#999999" points="1543.25,-20 1477.75,-20 1477.75,0 1543.25,0 1543.25,-20"/>
<text text-anchor="middle" x="1510.5" y="-6.5" font-family="Helvetica,sans-Serif" font-size="10.00">string_view</text>
</a>
</g>
</g>
<!-- Node24&#45;&gt;Node30 -->
<g id="edge32_Node000024_Node000030" class="edge">
<title>Node24&#45;&gt;Node30</title>
<g id="a_edge32_Node000024_Node000030"><a xlink:title=" ">
<path fill="none" stroke="#63b8ff" d="M1335.99,-58.59C1368.11,-49.83 1426.33,-33.96 1466.64,-22.96"/>
<polygon fill="#63b8ff" stroke="#63b8ff" points="1467.31,-26.41 1476.04,-20.4 1465.47,-19.65 1467.31,-26.41"/>
</a>
</g>
</g>
<!-- Node31 -->
<g id="Node000031" class="node">
<title>Node31</title>
<g id="a_Node000031"><a xlink:title=" ">
<polygon fill="#e0e0e0" stroke="#999999" points="1623.38,-20 1561.62,-20 1561.62,0 1623.38,0 1623.38,-20"/>
<text text-anchor="middle" x="1592.5" y="-6.5" font-family="Helvetica,sans-Serif" font-size="10.00">type_traits</text>
</a>
</g>
</g>
<!-- Node24&#45;&gt;Node31 -->
<g id="edge33_Node000024_Node000031" class="edge">
<title>Node24&#45;&gt;Node31</title>
<g id="a_edge33_Node000024_Node000031"><a xlink:title=" ">
<path fill="none" stroke="#63b8ff" d="M1336.06,-60.87C1377.32,-53.58 1465.58,-37.72 1550.39,-20.38"/>
<polygon fill="#63b8ff" stroke="#63b8ff" points="1550.94,-23.83 1560.03,-18.39 1549.53,-16.98 1550.94,-23.83"/>
</a>
</g>
</g>
<!-- Node32 -->
<g id="Node000032" class="node">
<title>Node32</title>
<g id="a_Node000032"><a xlink:title=" ">
<polygon fill="#e0e0e0" stroke="#999999" points="1687.12,-20 1641.88,-20 1641.88,0 1687.12,0 1687.12,-20"/>
<text text-anchor="middle" x="1664.5" y="-6.5" font-family="Helvetica,sans-Serif" font-size="10.00">variant</text>
</a>
</g>
</g>
<!-- Node24&#45;&gt;Node32 -->
<g id="edge34_Node000024_Node000032" class="edge">
<title>Node24&#45;&gt;Node32</title>
<g id="a_edge34_Node000024_Node000032"><a xlink:title=" ">
<path fill="none" stroke="#63b8ff" d="M1336.01,-62.11C1396.6,-54.6 1557.86,-34.21 1630.63,-20.07"/>
<polygon fill="#63b8ff" stroke="#63b8ff" points="1630.93,-23.58 1640.04,-18.16 1629.54,-16.72 1630.93,-23.58"/>
</a>
</g>
</g>
<!-- Node33&#45;&gt;Node11 -->
<g id="edge37_Node000033_Node000011" class="edge">
<title>Node33&#45;&gt;Node11</title>
<g id="a_edge37_Node000033_Node000011"><a xlink:title=" ">
<path fill="none" stroke="#63b8ff" d="M1222.17,-185.23C1170.65,-178.98 1076.59,-165.01 1050.5,-144 1014.84,-115.28 999.15,-61.07 992.99,-31.5"/>
<polygon fill="#63b8ff" stroke="#63b8ff" points="996.49,-31.14 991.19,-21.97 989.61,-32.45 996.49,-31.14"/>
</a>
</g>
</g>
<!-- Node34 -->
<g id="Node000034" class="node">
<title>Node34</title>
<g id="a_Node000034"><a xlink:title=" ">
<polygon fill="#e0e0e0" stroke="#999999" points="1439.5,-144 1339.5,-144 1339.5,-112 1439.5,-112 1439.5,-144"/>
<text text-anchor="start" x="1347.5" y="-130.5" font-family="Helvetica,sans-Serif" font-size="10.00">boost/property_tree</text>
<text text-anchor="middle" x="1389.5" y="-118.5" font-family="Helvetica,sans-Serif" font-size="10.00">/ptree.hpp</text>
</a>
</g>
</g>
<!-- Node33&#45;&gt;Node34 -->
<g id="edge38_Node000033_Node000034" class="edge">
<title>Node33&#45;&gt;Node34</title>
<g id="a_edge38_Node000033_Node000034"><a xlink:title=" ">
<path fill="none" stroke="#63b8ff" d="M1277.28,-179.62C1295.34,-171.48 1322.11,-159.4 1344.98,-149.09"/>
<polygon fill="#63b8ff" stroke="#63b8ff" points="1346.11,-152.42 1353.78,-145.11 1343.23,-146.03 1346.11,-152.42"/>
</a>
</g>
</g>
<!-- Node35 -->
<g id="Node000035" class="node">
<title>Node35</title>
<g id="a_Node000035"><a xlink:title=" ">
<polygon fill="#e0e0e0" stroke="#999999" points="1555.38,-138 1457.62,-138 1457.62,-118 1555.38,-118 1555.38,-138"/>
<text text-anchor="middle" x="1506.5" y="-124.5" font-family="Helvetica,sans-Serif" font-size="10.00">nlohmann/json.hpp</text>
</a>
</g>
</g>
<!-- Node33&#45;&gt;Node35 -->
<g id="edge39_Node000033_Node000035" class="edge">
<title>Node33&#45;&gt;Node35</title>
<g id="a_edge39_Node000033_Node000035"><a xlink:title=" ">
<path fill="none" stroke="#63b8ff" d="M1290.55,-181.27C1328.97,-172.48 1393.32,-157.6 1448.5,-144 1452.03,-143.13 1455.69,-142.22 1459.36,-141.29"/>
<polygon fill="#63b8ff" stroke="#63b8ff" points="1460.04,-144.73 1468.87,-138.86 1458.31,-137.94 1460.04,-144.73"/>
</a>
</g>
</g>
<!-- Node36 -->
<g id="Node000036" class="node">
<title>Node36</title>
<g id="a_Node000036"><a xlink:title=" ">
<polygon fill="#e0e0e0" stroke="#999999" points="1321.5,-144 1191.5,-144 1191.5,-112 1321.5,-112 1321.5,-144"/>
<text text-anchor="start" x="1199.5" y="-130.5" font-family="Helvetica,sans-Serif" font-size="10.00">Simple&#45;Web&#45;Server/server</text>
<text text-anchor="middle" x="1256.5" y="-118.5" font-family="Helvetica,sans-Serif" font-size="10.00">_https.hpp</text>
</a>
</g>
</g>
<!-- Node33&#45;&gt;Node36 -->
<g id="edge40_Node000033_Node000036" class="edge">
<title>Node33&#45;&gt;Node36</title>
<g id="a_edge40_Node000033_Node000036"><a xlink:title=" ">
<path fill="none" stroke="#63b8ff" d="M1256.5,-179.62C1256.5,-173.1 1256.5,-164.05 1256.5,-155.4"/>
<polygon fill="#63b8ff" stroke="#63b8ff" points="1260,-155.65 1256.5,-145.65 1253,-155.65 1260,-155.65"/>
</a>
</g>
</g>
<!-- Node37 -->
<g id="Node000037" class="node">
<title>Node37</title>
<g id="a_Node000037"><a xlink:href="crypto_8h.html" target="_top" xlink:title="Declarations for cryptography functions.">
<polygon fill="white" stroke="#666666" points="1663.12,-138 1611.88,-138 1611.88,-118 1663.12,-118 1663.12,-138"/>
<text text-anchor="middle" x="1637.5" y="-124.5" font-family="Helvetica,sans-Serif" font-size="10.00">crypto.h</text>
</a>
</g>
</g>
<!-- Node33&#45;&gt;Node37 -->
<g id="edge41_Node000033_Node000037" class="edge">
<title>Node33&#45;&gt;Node37</title>
<g id="a_edge41_Node000033_Node000037"><a xlink:title=" ">
<path fill="none" stroke="#63b8ff" d="M1290.79,-184.65C1347.77,-177.26 1465.5,-161.39 1564.5,-144 1576.26,-141.94 1589.02,-139.41 1600.54,-137.03"/>
<polygon fill="#63b8ff" stroke="#63b8ff" points="1601.01,-140.5 1610.07,-135.02 1599.57,-133.65 1601.01,-140.5"/>
</a>
</g>
</g>
<!-- Node43 -->
<g id="Node000043" class="node">
<title>Node43</title>
<g id="a_Node000043"><a xlink:href="thread__safe_8h.html" target="_top" xlink:title="Declarations for thread&#45;safe data structures.">
<polygon fill="white" stroke="#666666" points="1135.12,-138 1059.88,-138 1059.88,-118 1135.12,-118 1135.12,-138"/>
<text text-anchor="middle" x="1097.5" y="-124.5" font-family="Helvetica,sans-Serif" font-size="10.00">thread_safe.h</text>
</a>
</g>
</g>
<!-- Node33&#45;&gt;Node43 -->
<g id="edge48_Node000033_Node000043" class="edge">
<title>Node33&#45;&gt;Node43</title>
<g id="a_edge48_Node000033_Node000043"><a xlink:title=" ">
<path fill="none" stroke="#63b8ff" d="M1231.66,-179.62C1205.13,-169.62 1162.87,-153.67 1132.88,-142.35"/>
<polygon fill="#63b8ff" stroke="#63b8ff" points="1134.44,-139.2 1123.85,-138.94 1131.97,-145.75 1134.44,-139.2"/>
</a>
</g>
</g>
<!-- Node37&#45;&gt;Node24 -->
<g id="edge47_Node000037_Node000024" class="edge">
<title>Node37&#45;&gt;Node24</title>
<g id="a_edge47_Node000037_Node000024"><a xlink:title=" ">
<path fill="none" stroke="#63b8ff" d="M1614.91,-117.62C1609.3,-115.54 1603.24,-113.51 1597.5,-112 1550.76,-99.68 1412.52,-80.36 1347.3,-71.6"/>
<polygon fill="#63b8ff" stroke="#63b8ff" points="1347.89,-68.15 1337.52,-70.29 1346.96,-75.08 1347.89,-68.15"/>
</a>
</g>
</g>
<!-- Node38 -->
<g id="Node000038" class="node">
<title>Node38</title>
<g id="a_Node000038"><a xlink:title=" ">
<polygon fill="#e0e0e0" stroke="#999999" points="1437.38,-76 1399.62,-76 1399.62,-56 1437.38,-56 1437.38,-76"/>
<text text-anchor="middle" x="1418.5" y="-62.5" font-family="Helvetica,sans-Serif" font-size="10.00">array</text>
</a>
</g>
</g>
<!-- Node37&#45;&gt;Node38 -->
<g id="edge42_Node000037_Node000038" class="edge">
<title>Node37&#45;&gt;Node38</title>
<g id="a_edge42_Node000037_Node000038"><a xlink:title=" ">
<path fill="none" stroke="#63b8ff" d="M1613.54,-117.51C1608.29,-115.58 1602.74,-113.64 1597.5,-112 1545.97,-95.92 1484.75,-81.52 1448.9,-73.55"/>
<polygon fill="#63b8ff" stroke="#63b8ff" points="1449.77,-70.15 1439.25,-71.42 1448.26,-76.99 1449.77,-70.15"/>
</a>
</g>
</g>
<!-- Node39 -->
<g id="Node000039" class="node">
<title>Node39</title>
<g id="a_Node000039"><a xlink:title=" ">
<polygon fill="#e0e0e0" stroke="#999999" points="1846.88,-76 1770.12,-76 1770.12,-56 1846.88,-56 1846.88,-76"/>
<text text-anchor="middle" x="1808.5" y="-62.5" font-family="Helvetica,sans-Serif" font-size="10.00">openssl/evp.h</text>
</a>
</g>
</g>
<!-- Node37&#45;&gt;Node39 -->
<g id="edge43_Node000037_Node000039" class="edge">
<title>Node37&#45;&gt;Node39</title>
<g id="a_edge43_Node000037_Node000039"><a xlink:title=" ">
<path fill="none" stroke="#63b8ff" d="M1658.85,-117.51C1663.33,-115.61 1668.05,-113.69 1672.5,-112 1703.77,-100.15 1739.72,-88.33 1766.8,-79.78"/>
<polygon fill="#63b8ff" stroke="#63b8ff" points="1767.51,-83.23 1776,-76.9 1765.42,-76.55 1767.51,-83.23"/>
</a>
</g>
</g>
<!-- Node40 -->
<g id="Node000040" class="node">
<title>Node40</title>
<g id="a_Node000040"><a xlink:title=" ">
<polygon fill="#e0e0e0" stroke="#999999" points="1558.38,-76 1478.62,-76 1478.62,-56 1558.38,-56 1558.38,-76"/>
<text text-anchor="middle" x="1518.5" y="-62.5" font-family="Helvetica,sans-Serif" font-size="10.00">openssl/rand.h</text>
</a>
</g>
</g>
<!-- Node37&#45;&gt;Node40 -->
<g id="edge44_Node000037_Node000040" class="edge">
<title>Node37&#45;&gt;Node40</title>
<g id="a_edge44_Node000037_Node000040"><a xlink:title=" ">
<path fill="none" stroke="#63b8ff" d="M1618.91,-117.62C1599.69,-107.94 1569.45,-92.69 1547.18,-81.46"/>
<polygon fill="#63b8ff" stroke="#63b8ff" points="1548.82,-78.37 1538.31,-76.99 1545.67,-84.62 1548.82,-78.37"/>
</a>
</g>
</g>
<!-- Node41 -->
<g id="Node000041" class="node">
<title>Node41</title>
<g id="a_Node000041"><a xlink:title=" ">
<polygon fill="#e0e0e0" stroke="#999999" points="1652.88,-76 1576.12,-76 1576.12,-56 1652.88,-56 1652.88,-76"/>
<text text-anchor="middle" x="1614.5" y="-62.5" font-family="Helvetica,sans-Serif" font-size="10.00">openssl/sha.h</text>
</a>
</g>
</g>
<!-- Node37&#45;&gt;Node41 -->
<g id="edge45_Node000037_Node000041" class="edge">
<title>Node37&#45;&gt;Node41</title>
<g id="a_edge45_Node000037_Node000041"><a xlink:title=" ">
<path fill="none" stroke="#63b8ff" d="M1633.91,-117.62C1630.75,-109.39 1626.05,-97.13 1622.07,-86.74"/>
<polygon fill="#63b8ff" stroke="#63b8ff" points="1625.38,-85.61 1618.53,-77.53 1618.85,-88.12 1625.38,-85.61"/>
</a>
</g>
</g>
<!-- Node42 -->
<g id="Node000042" class="node">
<title>Node42</title>
<g id="a_Node000042"><a xlink:title=" ">
<polygon fill="#e0e0e0" stroke="#999999" points="1752.5,-76 1670.5,-76 1670.5,-56 1752.5,-56 1752.5,-76"/>
<text text-anchor="middle" x="1711.5" y="-62.5" font-family="Helvetica,sans-Serif" font-size="10.00">openssl/x509.h</text>
</a>
</g>
</g>
<!-- Node37&#45;&gt;Node42 -->
<g id="edge46_Node000037_Node000042" class="edge">
<title>Node37&#45;&gt;Node42</title>
<g id="a_edge46_Node000037_Node000042"><a xlink:title=" ">
<path fill="none" stroke="#63b8ff" d="M1649.06,-117.62C1660.42,-108.41 1677.99,-94.17 1691.6,-83.14"/>
<polygon fill="#63b8ff" stroke="#63b8ff" points="1693.52,-86.08 1699.09,-77.07 1689.11,-80.65 1693.52,-86.08"/>
</a>
</g>
</g>
<!-- Node43&#45;&gt;Node13 -->
<g id="edge55_Node000043_Node000013" class="edge">
<title>Node43&#45;&gt;Node13</title>
<g id="a_edge55_Node000043_Node000013"><a xlink:title=" ">
<path fill="none" stroke="#63b8ff" d="M1100.81,-117.78C1105.26,-103.76 1111.65,-76.54 1102.5,-56 1097.37,-44.48 1087.67,-34.67 1078.17,-27.18"/>
<polygon fill="#63b8ff" stroke="#63b8ff" points="1080.29,-24.39 1070.13,-21.37 1076.19,-30.07 1080.29,-24.39"/>
</a>
</g>
</g>
<!-- Node43&#45;&gt;Node16 -->
<g id="edge52_Node000043_Node000016" class="edge">
<title>Node43&#45;&gt;Node16</title>
<g id="a_edge52_Node000043_Node000016"><a xlink:title=" ">
<path fill="none" stroke="#63b8ff" d="M1059.46,-123.63C984.41,-116.74 812.07,-99.64 668.5,-76 571.69,-60.06 459.19,-34.51 400.61,-20.67"/>
<polygon fill="#63b8ff" stroke="#63b8ff" points="401.65,-17.32 391.11,-18.41 400.03,-24.13 401.65,-17.32"/>
</a>
</g>
</g>
<!-- Node43&#45;&gt;Node24 -->
<g id="edge56_Node000043_Node000024" class="edge">
<title>Node43&#45;&gt;Node24</title>
<g id="a_edge56_Node000043_Node000024"><a xlink:title=" ">
<path fill="none" stroke="#63b8ff" d="M1130.22,-117.5C1136.61,-115.66 1143.26,-113.76 1149.5,-112 1193.73,-99.52 1244.82,-85.47 1277.84,-76.45"/>
<polygon fill="#63b8ff" stroke="#63b8ff" points="1278.54,-79.88 1287.26,-73.87 1276.69,-73.13 1278.54,-79.88"/>
</a>
</g>
</g>
<!-- Node43&#45;&gt;Node26 -->
<g id="edge51_Node000043_Node000026" class="edge">
<title>Node43&#45;&gt;Node26</title>
<g id="a_edge51_Node000043_Node000026"><a xlink:title=" ">
<path fill="none" stroke="#63b8ff" d="M1131.47,-117.54C1164.18,-107.66 1210.16,-91.47 1220.5,-76 1229.91,-61.92 1222.49,-43.21 1214.16,-29.48"/>
<polygon fill="#63b8ff" stroke="#63b8ff" points="1217.19,-27.72 1208.71,-21.37 1211.38,-31.62 1217.19,-27.72"/>
</a>
</g>
</g>
<!-- Node43&#45;&gt;Node28 -->
<g id="edge54_Node000043_Node000028" class="edge">
<title>Node43&#45;&gt;Node28</title>
<g id="a_edge54_Node000043_Node000028"><a xlink:title=" ">
<path fill="none" stroke="#63b8ff" d="M1125.54,-117.5C1154.11,-107.19 1195.49,-90.27 1204.5,-76 1209.24,-68.48 1209.19,-63.55 1204.5,-56 1197.72,-45.08 1169.11,-31.99 1145.76,-22.75"/>
<polygon fill="#63b8ff" stroke="#63b8ff" points="1147.17,-19.54 1136.58,-19.22 1144.65,-26.08 1147.17,-19.54"/>
</a>
</g>
</g>
<!-- Node43&#45;&gt;Node38 -->
<g id="edge49_Node000043_Node000038" class="edge">
<title>Node43&#45;&gt;Node38</title>
<g id="a_edge49_Node000043_Node000038"><a xlink:title=" ">
<path fill="none" stroke="#63b8ff" d="M1135.58,-119.88C1200.06,-107.83 1329.44,-83.65 1388.21,-72.66"/>
<polygon fill="#63b8ff" stroke="#63b8ff" points="1388.63,-76.14 1397.82,-70.87 1387.34,-69.26 1388.63,-76.14"/>
</a>
</g>
</g>
<!-- Node44 -->
<g id="Node000044" class="node">
<title>Node44</title>
<g id="a_Node000044"><a xlink:title=" ">
<polygon fill="#e0e0e0" stroke="#999999" points="1195.12,-76 1149.88,-76 1149.88,-56 1195.12,-56 1195.12,-76"/>
<text text-anchor="middle" x="1172.5" y="-62.5" font-family="Helvetica,sans-Serif" font-size="10.00">atomic</text>
</a>
</g>
</g>
<!-- Node43&#45;&gt;Node44 -->
<g id="edge50_Node000043_Node000044" class="edge">
<title>Node43&#45;&gt;Node44</title>
<g id="a_edge50_Node000043_Node000044"><a xlink:title=" ">
<path fill="none" stroke="#63b8ff" d="M1109.22,-117.62C1120.73,-108.41 1138.53,-94.17 1152.33,-83.14"/>
<polygon fill="#63b8ff" stroke="#63b8ff" points="1154.3,-86.04 1159.93,-77.06 1149.93,-80.57 1154.3,-86.04"/>
</a>
</g>
</g>
<!-- Node45 -->
<g id="Node000045" class="node">
<title>Node45</title>
<g id="a_Node000045"><a xlink:title=" ">
<polygon fill="#e0e0e0" stroke="#999999" points="1093.88,-76 1059.12,-76 1059.12,-56 1093.88,-56 1093.88,-76"/>
<text text-anchor="middle" x="1076.5" y="-62.5" font-family="Helvetica,sans-Serif" font-size="10.00">map</text>
</a>
</g>
</g>
<!-- Node43&#45;&gt;Node45 -->
<g id="edge53_Node000043_Node000045" class="edge">
<title>Node43&#45;&gt;Node45</title>
<g id="a_edge53_Node000043_Node000045"><a xlink:title=" ">
<path fill="none" stroke="#63b8ff" d="M1094.22,-117.62C1091.34,-109.39 1087.04,-97.13 1083.41,-86.74"/>
<polygon fill="#63b8ff" stroke="#63b8ff" points="1086.8,-85.82 1080.19,-77.54 1080.19,-88.14 1086.8,-85.82"/>
</a>
</g>
</g>
<!-- Node46&#45;&gt;Node4 -->
<g id="edge65_Node000046_Node000004" class="edge">
<title>Node46&#45;&gt;Node4</title>
<g id="a_edge65_Node000046_Node000004"><a xlink:title=" ">
<path fill="none" stroke="#63b8ff" d="M777.97,-181.48C773.42,-180.96 768.89,-180.46 764.5,-180 572.87,-160.05 521.8,-179.88 332.5,-144 328.85,-143.31 325.09,-142.45 321.34,-141.5"/>
<polygon fill="#63b8ff" stroke="#63b8ff" points="322.31,-138.14 311.74,-138.85 320.44,-144.89 322.31,-138.14"/>
</a>
</g>
</g>
<!-- Node46&#45;&gt;Node7 -->
<g id="edge64_Node000046_Node000007" class="edge">
<title>Node46&#45;&gt;Node7</title>
<g id="a_edge64_Node000046_Node000007"><a xlink:title=" ">
<path fill="none" stroke="#63b8ff" d="M777.97,-181.56C773.41,-181.02 768.88,-180.49 764.5,-180 724.55,-175.51 431.47,-173.81 404.5,-144 394.96,-133.45 395.22,-122.78 404.5,-112 437.79,-73.3 593.48,-67.45 665.62,-66.86"/>
<polygon fill="#63b8ff" stroke="#63b8ff" points="665.36,-70.36 675.35,-66.81 665.33,-63.36 665.36,-70.36"/>
</a>
</g>
</g>
<!-- Node46&#45;&gt;Node8 -->
<g id="edge58_Node000046_Node000008" class="edge">
<title>Node46&#45;&gt;Node8</title>
<g id="a_edge58_Node000046_Node000008"><a xlink:title=" ">
<path fill="none" stroke="#63b8ff" d="M858.56,-179.55C872.8,-172.15 890.16,-160.35 898.5,-144 918.81,-104.16 884.4,-54.63 862.15,-28.71"/>
<polygon fill="#63b8ff" stroke="#63b8ff" points="864.9,-26.54 855.63,-21.41 859.68,-31.2 864.9,-26.54"/>
</a>
</g>
</g>
<!-- Node46&#45;&gt;Node11 -->
<g id="edge62_Node000046_Node000011" class="edge">
<title>Node46&#45;&gt;Node11</title>
<g id="a_edge62_Node000046_Node000011"><a xlink:title=" ">
<path fill="none" stroke="#63b8ff" d="M860.16,-179.65C877.15,-172.03 899.73,-159.93 915.5,-144 948.68,-110.48 971.57,-59.04 982.38,-30.97"/>
<polygon fill="#63b8ff" stroke="#63b8ff" points="985.55,-32.5 985.75,-21.91 978.99,-30.07 985.55,-32.5"/>
</a>
</g>
</g>
<!-- Node46&#45;&gt;Node16 -->
<g id="edge60_Node000046_Node000016" class="edge">
<title>Node46&#45;&gt;Node16</title>
<g id="a_edge60_Node000046_Node000016"><a xlink:title=" ">
<path fill="none" stroke="#63b8ff" d="M777.84,-182.22C770.98,-181.46 764.09,-180.7 757.5,-180 676.67,-171.4 454.98,-197.17 393.5,-144 361.05,-115.94 357.94,-61.42 358.94,-31.64"/>
<polygon fill="#63b8ff" stroke="#63b8ff" points="362.43,-31.9 359.49,-21.72 355.44,-31.52 362.43,-31.9"/>
</a>
</g>
</g>
<!-- Node46&#45;&gt;Node24 -->
<g id="edge67_Node000046_Node000024" class="edge">
<title>Node46&#45;&gt;Node24</title>
<g id="a_edge67_Node000046_Node000024"><a xlink:title=" ">
<path fill="none" stroke="#63b8ff" d="M895.23,-184.28C971.81,-177.46 1101.13,-163.5 1144.5,-144 1164.64,-134.95 1163.3,-122.91 1182.5,-112 1212.85,-94.76 1250.9,-82.54 1277.98,-75.23"/>
<polygon fill="#63b8ff" stroke="#63b8ff" points="1278.6,-78.68 1287.4,-72.77 1276.84,-71.91 1278.6,-78.68"/>
</a>
</g>
</g>
<!-- Node46&#45;&gt;Node28 -->
<g id="edge61_Node000046_Node000028" class="edge">
<title>Node46&#45;&gt;Node28</title>
<g id="a_edge61_Node000046_Node000028"><a xlink:title=" ">
<path fill="none" stroke="#63b8ff" d="M863.81,-179.65C885.61,-171.65 916.52,-159.04 941.5,-144 994.84,-111.88 1000.92,-93.67 1050.5,-56 1063.54,-46.09 1078.45,-35.42 1090.48,-26.95"/>
<polygon fill="#63b8ff" stroke="#63b8ff" points="1092.38,-29.89 1098.57,-21.3 1088.37,-24.16 1092.38,-29.89"/>
</a>
</g>
</g>
<!-- Node46&#45;&gt;Node43 -->
<g id="edge66_Node000046_Node000043" class="edge">
<title>Node46&#45;&gt;Node43</title>
<g id="a_edge66_Node000046_Node000043"><a xlink:title=" ">
<path fill="none" stroke="#63b8ff" d="M877.57,-179.56C923.92,-168.9 999.26,-151.58 1048.61,-140.24"/>
<polygon fill="#63b8ff" stroke="#63b8ff" points="1049.2,-143.69 1058.16,-138.04 1047.63,-136.87 1049.2,-143.69"/>
</a>
</g>
</g>
<!-- Node47 -->
<g id="Node000047" class="node">
<title>Node47</title>
<g id="a_Node000047"><a xlink:title=" ">
<polygon fill="#e0e0e0" stroke="#999999" points="474,-138 413,-138 413,-118 474,-118 474,-138"/>
<text text-anchor="middle" x="443.5" y="-124.5" font-family="Helvetica,sans-Serif" font-size="10.00">filesystem</text>
</a>
</g>
</g>
<!-- Node46&#45;&gt;Node47 -->
<g id="edge59_Node000046_Node000047" class="edge">
<title>Node46&#45;&gt;Node47</title>
<g id="a_edge59_Node000046_Node000047"><a xlink:title=" ">
<path fill="none" stroke="#63b8ff" d="M778.13,-181.65C678.77,-169.11 487.05,-144.88 483.5,-144 481.34,-143.47 479.14,-142.85 476.93,-142.18"/>
<polygon fill="#63b8ff" stroke="#63b8ff" points="478.08,-138.87 467.49,-138.98 475.84,-145.51 478.08,-138.87"/>
</a>
</g>
</g>
<!-- Node48 -->
<g id="Node000048" class="node">
<title>Node48</title>
<g id="a_Node000048"><a xlink:title=" ">
<polygon fill="#e0e0e0" stroke="#999999" points="630.62,-138 492.38,-138 492.38,-118 630.62,-118 630.62,-138"/>
<text text-anchor="middle" x="561.5" y="-124.5" font-family="Helvetica,sans-Serif" font-size="10.00">boost/core/noncopyable.hpp</text>
</a>
</g>
</g>
<!-- Node46&#45;&gt;Node48 -->
<g id="edge63_Node000046_Node000048" class="edge">
<title>Node46&#45;&gt;Node48</title>
<g id="a_edge63_Node000046_Node000048"><a xlink:title=" ">
<path fill="none" stroke="#63b8ff" d="M793.23,-179.56C745.32,-169.11 667.99,-152.24 615.99,-140.89"/>
<polygon fill="#63b8ff" stroke="#63b8ff" points="616.97,-137.52 606.45,-138.81 615.48,-144.36 616.97,-137.52"/>
</a>
</g>
</g>
<!-- Node49 -->
<g id="Node000049" class="node">
<title>Node49</title>
<g id="a_Node000049"><a xlink:href="video__colorspace_8h.html" target="_top" xlink:title="Declarations for colorspace functions.">
<polygon fill="white" stroke="#666666" points="764.75,-138 648.25,-138 648.25,-118 764.75,-118 764.75,-138"/>
<text text-anchor="middle" x="706.5" y="-124.5" font-family="Helvetica,sans-Serif" font-size="10.00">src/video_colorspace.h</text>
</a>
</g>
</g>
<!-- Node46&#45;&gt;Node49 -->
<g id="edge68_Node000046_Node000049" class="edge">
<title>Node46&#45;&gt;Node49</title>
<g id="a_edge68_Node000046_Node000049"><a xlink:title=" ">
<path fill="none" stroke="#63b8ff" d="M816.19,-179.62C794.91,-169.81 761.26,-154.27 736.84,-143"/>
<polygon fill="#63b8ff" stroke="#63b8ff" points="738.59,-139.96 728.04,-138.94 735.66,-146.31 738.59,-139.96"/>
</a>
</g>
</g>
<!-- Node51 -->
<g id="Node000051" class="node">
<title>Node51</title>
<g id="a_Node000051"><a xlink:title=" ">
<polygon fill="#e0e0e0" stroke="#999999" points="889.88,-144 783.12,-144 783.12,-112 889.88,-112 889.88,-144"/>
<text text-anchor="start" x="791.12" y="-130.5" font-family="Helvetica,sans-Serif" font-size="10.00">moonlight&#45;common&#45;c</text>
<text text-anchor="middle" x="836.5" y="-118.5" font-family="Helvetica,sans-Serif" font-size="10.00">/src/Limelight.h</text>
</a>
</g>
</g>
<!-- Node46&#45;&gt;Node51 -->
<g id="edge70_Node000046_Node000051" class="edge">
<title>Node46&#45;&gt;Node51</title>
<g id="a_edge70_Node000046_Node000051"><a xlink:title=" ">
<path fill="none" stroke="#63b8ff" d="M836.5,-179.62C836.5,-173.1 836.5,-164.05 836.5,-155.4"/>
<polygon fill="#63b8ff" stroke="#63b8ff" points="840,-155.65 836.5,-145.65 833,-155.65 840,-155.65"/>
</a>
</g>
</g>
<!-- Node50 -->
<g id="Node000050" class="node">
<title>Node50</title>
<g id="a_Node000050"><a xlink:title=" ">
<polygon fill="#e0e0e0" stroke="#999999" points="833.12,-76 745.88,-76 745.88,-56 833.12,-56 833.12,-76"/>
<text text-anchor="middle" x="789.5" y="-62.5" font-family="Helvetica,sans-Serif" font-size="10.00">libavutil/pixfmt.h</text>
</a>
</g>
</g>
<!-- Node49&#45;&gt;Node50 -->
<g id="edge69_Node000049_Node000050" class="edge">
<title>Node49&#45;&gt;Node50</title>
<g id="a_edge69_Node000049_Node000050"><a xlink:title=" ">
<path fill="none" stroke="#63b8ff" d="M719.47,-117.62C732.26,-108.38 752.06,-94.07 767.35,-83.01"/>
<polygon fill="#63b8ff" stroke="#63b8ff" points="769.34,-85.89 775.4,-77.2 765.24,-80.22 769.34,-85.89"/>
</a>
</g>
</g>
</g>
</svg>
