<?xml version="1.0" encoding="UTF-8" standalone="no"?>
<!DOCTYPE svg PUBLIC "-//W3C//DTD SVG 1.1//EN"
 "http://www.w3.org/Graphics/SVG/1.1/DTD/svg11.dtd">
<!-- Generated by graphviz version 12.2.1 (0)
 -->
<!-- Title: src/platform/macos/microphone.mm Pages: 1 -->
<svg width="1552pt" height="288pt"
 viewBox="0.00 0.00 1551.75 288.00" xmlns="http://www.w3.org/2000/svg" xmlns:xlink="http://www.w3.org/1999/xlink">
<g id="graph0" class="graph" transform="scale(1 1) rotate(0) translate(4 284)">
<title>src/platform/macos/microphone.mm</title>
<!-- Node1 -->
<g id="Node000001" class="node">
<title>Node1</title>
<g id="a_Node000001"><a xlink:title="Definitions for microphone capture on macOS.">
<polygon fill="#999999" stroke="#666666" points="604.38,-280 504.38,-280 504.38,-248 604.38,-248 604.38,-280"/>
<text text-anchor="start" x="512.38" y="-266.5" font-family="Helvetica,sans-Serif" font-size="10.00">src/platform/macos</text>
<text text-anchor="middle" x="554.38" y="-254.5" font-family="Helvetica,sans-Serif" font-size="10.00">/microphone.mm</text>
</a>
</g>
</g>
<!-- Node2 -->
<g id="Node000002" class="node">
<title>Node2</title>
<g id="a_Node000002"><a xlink:href="config_8h.html" target="_top" xlink:title="Declarations for the configuration of Sunshine.">
<polygon fill="white" stroke="#666666" points="494.88,-76 427.88,-76 427.88,-56 494.88,-56 494.88,-76"/>
<text text-anchor="middle" x="461.38" y="-62.5" font-family="Helvetica,sans-Serif" font-size="10.00">src/config.h</text>
</a>
</g>
</g>
<!-- Node1&#45;&gt;Node2 -->
<g id="edge1_Node000001_Node000002" class="edge">
<title>Node1&#45;&gt;Node2</title>
<g id="a_edge1_Node000001_Node000002"><a xlink:title=" ">
<path fill="none" stroke="#63b8ff" d="M535.87,-247.6C512.58,-226.88 473.75,-187.55 458.38,-144 451.91,-125.68 453.74,-103.38 456.54,-87.5"/>
<polygon fill="#63b8ff" stroke="#63b8ff" points="459.94,-88.32 458.54,-77.82 453.09,-86.9 459.94,-88.32"/>
</a>
</g>
</g>
<!-- Node10 -->
<g id="Node000010" class="node">
<title>Node10</title>
<g id="a_Node000010"><a xlink:href="logging_8h.html" target="_top" xlink:title="Declarations for logging related functions.">
<polygon fill="white" stroke="#666666" points="331.12,-138 259.62,-138 259.62,-118 331.12,-118 331.12,-138"/>
<text text-anchor="middle" x="295.38" y="-124.5" font-family="Helvetica,sans-Serif" font-size="10.00">src/logging.h</text>
</a>
</g>
</g>
<!-- Node1&#45;&gt;Node10 -->
<g id="edge9_Node000001_Node000010" class="edge">
<title>Node1&#45;&gt;Node10</title>
<g id="a_edge9_Node000001_Node000010"><a xlink:title=" ">
<path fill="none" stroke="#63b8ff" d="M504.12,-249.91C474.7,-241.23 437.36,-228.41 406.38,-212 371.34,-193.45 335.42,-164.39 314.27,-146.04"/>
<polygon fill="#63b8ff" stroke="#63b8ff" points="316.6,-143.43 306.78,-139.44 311.97,-148.68 316.6,-143.43"/>
</a>
</g>
</g>
<!-- Node17 -->
<g id="Node000017" class="node">
<title>Node17</title>
<g id="a_Node000017"><a xlink:href="common_8h.html" target="_top" xlink:title="Declarations for common platform specific utilities.">
<polygon fill="white" stroke="#666666" points="747.62,-206 631.12,-206 631.12,-186 747.62,-186 747.62,-206"/>
<text text-anchor="middle" x="689.38" y="-192.5" font-family="Helvetica,sans-Serif" font-size="10.00">src/platform/common.h</text>
</a>
</g>
</g>
<!-- Node1&#45;&gt;Node17 -->
<g id="edge18_Node000001_Node000017" class="edge">
<title>Node1&#45;&gt;Node17</title>
<g id="a_edge18_Node000001_Node000017"><a xlink:title=" ">
<path fill="none" stroke="#63b8ff" d="M586.03,-247.53C608.29,-236.64 637.89,-222.17 659.71,-211.5"/>
<polygon fill="#63b8ff" stroke="#63b8ff" points="661.22,-214.66 668.67,-207.12 658.14,-208.37 661.22,-214.66"/>
</a>
</g>
</g>
<!-- Node36 -->
<g id="Node000036" class="node">
<title>Node36</title>
<g id="a_Node000036"><a xlink:href="av__audio_8h.html" target="_top" xlink:title="Declarations for audio capture on macOS.">
<polygon fill="white" stroke="#666666" points="1359.38,-212 1259.38,-212 1259.38,-180 1359.38,-180 1359.38,-212"/>
<text text-anchor="start" x="1267.38" y="-198.5" font-family="Helvetica,sans-Serif" font-size="10.00">src/platform/macos</text>
<text text-anchor="middle" x="1309.38" y="-186.5" font-family="Helvetica,sans-Serif" font-size="10.00">/av_audio.h</text>
</a>
</g>
</g>
<!-- Node1&#45;&gt;Node36 -->
<g id="edge51_Node000001_Node000036" class="edge">
<title>Node1&#45;&gt;Node36</title>
<g id="a_edge51_Node000001_Node000036"><a xlink:title=" ">
<path fill="none" stroke="#63b8ff" d="M604.79,-258.59C738.61,-246.89 1102.44,-215.09 1247.99,-202.37"/>
<polygon fill="#63b8ff" stroke="#63b8ff" points="1248.16,-205.86 1257.82,-201.51 1247.55,-198.89 1248.16,-205.86"/>
</a>
</g>
</g>
<!-- Node3 -->
<g id="Node000003" class="node">
<title>Node3</title>
<g id="a_Node000003"><a xlink:title=" ">
<polygon fill="#e0e0e0" stroke="#999999" points="614.38,-20 574.38,-20 574.38,0 614.38,0 614.38,-20"/>
<text text-anchor="middle" x="594.38" y="-6.5" font-family="Helvetica,sans-Serif" font-size="10.00">bitset</text>
</a>
</g>
</g>
<!-- Node2&#45;&gt;Node3 -->
<g id="edge2_Node000002_Node000003" class="edge">
<title>Node2&#45;&gt;Node3</title>
<g id="a_edge2_Node000002_Node000003"><a xlink:title=" ">
<path fill="none" stroke="#63b8ff" d="M484.54,-55.59C506.49,-46.68 539.58,-33.25 563.7,-23.45"/>
<polygon fill="#63b8ff" stroke="#63b8ff" points="564.73,-26.81 572.68,-19.81 562.1,-20.33 564.73,-26.81"/>
</a>
</g>
</g>
<!-- Node4 -->
<g id="Node000004" class="node">
<title>Node4</title>
<g id="a_Node000004"><a xlink:title=" ">
<polygon fill="#e0e0e0" stroke="#999999" points="327,-20 281.75,-20 281.75,0 327,0 327,-20"/>
<text text-anchor="middle" x="304.38" y="-6.5" font-family="Helvetica,sans-Serif" font-size="10.00">chrono</text>
</a>
</g>
</g>
<!-- Node2&#45;&gt;Node4 -->
<g id="edge3_Node000002_Node000004" class="edge">
<title>Node2&#45;&gt;Node4</title>
<g id="a_edge3_Node000002_Node000004"><a xlink:title=" ">
<path fill="none" stroke="#63b8ff" d="M434.03,-55.59C407.35,-46.42 366.7,-32.44 338.05,-22.58"/>
<polygon fill="#63b8ff" stroke="#63b8ff" points="339.36,-19.33 328.76,-19.39 337.08,-25.95 339.36,-19.33"/>
</a>
</g>
</g>
<!-- Node5 -->
<g id="Node000005" class="node">
<title>Node5</title>
<g id="a_Node000005"><a xlink:title=" ">
<polygon fill="#e0e0e0" stroke="#999999" points="682.25,-20 632.5,-20 632.5,0 682.25,0 682.25,-20"/>
<text text-anchor="middle" x="657.38" y="-6.5" font-family="Helvetica,sans-Serif" font-size="10.00">optional</text>
</a>
</g>
</g>
<!-- Node2&#45;&gt;Node5 -->
<g id="edge4_Node000002_Node000005" class="edge">
<title>Node2&#45;&gt;Node5</title>
<g id="a_edge4_Node000002_Node000005"><a xlink:title=" ">
<path fill="none" stroke="#63b8ff" d="M495.07,-55.72C530.23,-46.03 585.16,-30.9 621.21,-20.96"/>
<polygon fill="#63b8ff" stroke="#63b8ff" points="622.04,-24.37 630.75,-18.34 620.18,-17.62 622.04,-24.37"/>
</a>
</g>
</g>
<!-- Node6 -->
<g id="Node000006" class="node">
<title>Node6</title>
<g id="a_Node000006"><a xlink:title=" ">
<polygon fill="#e0e0e0" stroke="#999999" points="740.38,-20 700.38,-20 700.38,0 740.38,0 740.38,-20"/>
<text text-anchor="middle" x="720.38" y="-6.5" font-family="Helvetica,sans-Serif" font-size="10.00">string</text>
</a>
</g>
</g>
<!-- Node2&#45;&gt;Node6 -->
<g id="edge5_Node000002_Node000006" class="edge">
<title>Node2&#45;&gt;Node6</title>
<g id="a_edge5_Node000002_Node000006"><a xlink:title=" ">
<path fill="none" stroke="#63b8ff" d="M495.29,-57.67C498.02,-57.1 500.74,-56.53 503.38,-56 583.25,-39.8 606.88,-40.54 689.03,-20.36"/>
<polygon fill="#63b8ff" stroke="#63b8ff" points="689.85,-23.76 698.71,-17.95 688.16,-16.97 689.85,-23.76"/>
</a>
</g>
</g>
<!-- Node7 -->
<g id="Node000007" class="node">
<title>Node7</title>
<g id="a_Node000007"><a xlink:title=" ">
<polygon fill="#e0e0e0" stroke="#999999" points="556.75,-20 474,-20 474,0 556.75,0 556.75,-20"/>
<text text-anchor="middle" x="515.38" y="-6.5" font-family="Helvetica,sans-Serif" font-size="10.00">unordered_map</text>
</a>
</g>
</g>
<!-- Node2&#45;&gt;Node7 -->
<g id="edge6_Node000002_Node000007" class="edge">
<title>Node2&#45;&gt;Node7</title>
<g id="a_edge6_Node000002_Node000007"><a xlink:title=" ">
<path fill="none" stroke="#63b8ff" d="M470.78,-55.59C478.29,-48.08 489.02,-37.35 498.07,-28.3"/>
<polygon fill="#63b8ff" stroke="#63b8ff" points="500.41,-30.91 505.01,-21.37 495.46,-25.96 500.41,-30.91"/>
</a>
</g>
</g>
<!-- Node8 -->
<g id="Node000008" class="node">
<title>Node8</title>
<g id="a_Node000008"><a xlink:title=" ">
<polygon fill="#e0e0e0" stroke="#999999" points="801.88,-20 758.88,-20 758.88,0 801.88,0 801.88,-20"/>
<text text-anchor="middle" x="780.38" y="-6.5" font-family="Helvetica,sans-Serif" font-size="10.00">vector</text>
</a>
</g>
</g>
<!-- Node2&#45;&gt;Node8 -->
<g id="edge7_Node000002_Node000008" class="edge">
<title>Node2&#45;&gt;Node8</title>
<g id="a_edge7_Node000002_Node000008"><a xlink:title=" ">
<path fill="none" stroke="#63b8ff" d="M495.26,-57.54C498,-57 500.73,-56.48 503.38,-56 608.62,-37.04 639.43,-43.03 747.41,-20.15"/>
<polygon fill="#63b8ff" stroke="#63b8ff" points="747.94,-23.62 756.98,-18.09 746.46,-16.77 747.94,-23.62"/>
</a>
</g>
</g>
<!-- Node9 -->
<g id="Node000009" class="node">
<title>Node9</title>
<g id="a_Node000009"><a xlink:href="nvenc__config_8h.html" target="_top" xlink:title="Declarations for NVENC encoder configuration.">
<polygon fill="white" stroke="#666666" points="456,-20 344.75,-20 344.75,0 456,0 456,-20"/>
<text text-anchor="middle" x="400.38" y="-6.5" font-family="Helvetica,sans-Serif" font-size="10.00">nvenc/nvenc_config.h</text>
</a>
</g>
</g>
<!-- Node2&#45;&gt;Node9 -->
<g id="edge8_Node000002_Node000009" class="edge">
<title>Node2&#45;&gt;Node9</title>
<g id="a_edge8_Node000002_Node000009"><a xlink:title=" ">
<path fill="none" stroke="#63b8ff" d="M450.75,-55.59C442.09,-47.93 429.64,-36.91 419.29,-27.75"/>
<polygon fill="#63b8ff" stroke="#63b8ff" points="421.82,-25.31 412.01,-21.3 417.18,-30.55 421.82,-25.31"/>
</a>
</g>
</g>
<!-- Node10&#45;&gt;Node2 -->
<g id="edge12_Node000010_Node000002" class="edge">
<title>Node10&#45;&gt;Node2</title>
<g id="a_edge12_Node000010_Node000002"><a xlink:title=" ">
<path fill="none" stroke="#63b8ff" d="M321.31,-117.62C349.13,-107.57 393.51,-91.53 424.85,-80.2"/>
<polygon fill="#63b8ff" stroke="#63b8ff" points="425.71,-83.61 433.92,-76.92 423.33,-77.03 425.71,-83.61"/>
</a>
</g>
</g>
<!-- Node11 -->
<g id="Node000011" class="node">
<title>Node11</title>
<g id="a_Node000011"><a xlink:title=" ">
<polygon fill="#e0e0e0" stroke="#999999" points="233.88,-76 118.88,-76 118.88,-56 233.88,-56 233.88,-76"/>
<text text-anchor="middle" x="176.38" y="-62.5" font-family="Helvetica,sans-Serif" font-size="10.00">boost/log/common.hpp</text>
</a>
</g>
</g>
<!-- Node10&#45;&gt;Node11 -->
<g id="edge10_Node000010_Node000011" class="edge">
<title>Node10&#45;&gt;Node11</title>
<g id="a_edge10_Node000010_Node000011"><a xlink:title=" ">
<path fill="none" stroke="#63b8ff" d="M276.78,-117.62C257.57,-107.94 227.33,-92.69 205.05,-81.46"/>
<polygon fill="#63b8ff" stroke="#63b8ff" points="206.69,-78.37 196.19,-76.99 203.54,-84.62 206.69,-78.37"/>
</a>
</g>
</g>
<!-- Node12 -->
<g id="Node000012" class="node">
<title>Node12</title>
<g id="a_Node000012"><a xlink:title=" ">
<polygon fill="#e0e0e0" stroke="#999999" points="100.75,-76 0,-76 0,-56 100.75,-56 100.75,-76"/>
<text text-anchor="middle" x="50.38" y="-62.5" font-family="Helvetica,sans-Serif" font-size="10.00">boost/log/sinks.hpp</text>
</a>
</g>
</g>
<!-- Node10&#45;&gt;Node12 -->
<g id="edge11_Node000010_Node000012" class="edge">
<title>Node10&#45;&gt;Node12</title>
<g id="a_edge11_Node000010_Node000012"><a xlink:title=" ">
<path fill="none" stroke="#63b8ff" d="M259.22,-118.15C217.08,-107.83 147.19,-90.71 99.99,-79.15"/>
<polygon fill="#63b8ff" stroke="#63b8ff" points="101.12,-75.82 90.57,-76.84 99.45,-82.62 101.12,-75.82"/>
</a>
</g>
</g>
<!-- Node13 -->
<g id="Node000013" class="node">
<title>Node13</title>
<g id="a_Node000013"><a xlink:href="stat__trackers_8h.html" target="_top" xlink:title="Declarations for streaming statistic tracking.">
<polygon fill="white" stroke="#666666" points="333,-76 251.75,-76 251.75,-56 333,-56 333,-76"/>
<text text-anchor="middle" x="292.38" y="-62.5" font-family="Helvetica,sans-Serif" font-size="10.00">stat_trackers.h</text>
</a>
</g>
</g>
<!-- Node10&#45;&gt;Node13 -->
<g id="edge13_Node000010_Node000013" class="edge">
<title>Node10&#45;&gt;Node13</title>
<g id="a_edge13_Node000010_Node000013"><a xlink:title=" ">
<path fill="none" stroke="#63b8ff" d="M294.91,-117.62C294.5,-109.56 293.91,-97.65 293.4,-87.41"/>
<polygon fill="#63b8ff" stroke="#63b8ff" points="296.9,-87.44 292.91,-77.62 289.91,-87.79 296.9,-87.44"/>
</a>
</g>
</g>
<!-- Node13&#45;&gt;Node4 -->
<g id="edge14_Node000013_Node000004" class="edge">
<title>Node13&#45;&gt;Node4</title>
<g id="a_edge14_Node000013_Node000004"><a xlink:title=" ">
<path fill="none" stroke="#63b8ff" d="M294.47,-55.59C295.95,-48.93 297.99,-39.75 299.83,-31.44"/>
<polygon fill="#63b8ff" stroke="#63b8ff" points="303.23,-32.3 301.98,-21.78 296.39,-30.78 303.23,-32.3"/>
</a>
</g>
</g>
<!-- Node14 -->
<g id="Node000014" class="node">
<title>Node14</title>
<g id="a_Node000014"><a xlink:title=" ">
<polygon fill="#e0e0e0" stroke="#999999" points="263.38,-20 205.38,-20 205.38,0 263.38,0 263.38,-20"/>
<text text-anchor="middle" x="234.38" y="-6.5" font-family="Helvetica,sans-Serif" font-size="10.00">functional</text>
</a>
</g>
</g>
<!-- Node13&#45;&gt;Node14 -->
<g id="edge15_Node000013_Node000014" class="edge">
<title>Node13&#45;&gt;Node14</title>
<g id="a_edge15_Node000013_Node000014"><a xlink:title=" ">
<path fill="none" stroke="#63b8ff" d="M282.27,-55.59C274.12,-48.01 262.44,-37.13 252.66,-28.02"/>
<polygon fill="#63b8ff" stroke="#63b8ff" points="255.17,-25.58 245.47,-21.33 250.4,-30.71 255.17,-25.58"/>
</a>
</g>
</g>
<!-- Node15 -->
<g id="Node000015" class="node">
<title>Node15</title>
<g id="a_Node000015"><a xlink:title=" ">
<polygon fill="#e0e0e0" stroke="#999999" points="80,-20 40.75,-20 40.75,0 80,0 80,-20"/>
<text text-anchor="middle" x="60.38" y="-6.5" font-family="Helvetica,sans-Serif" font-size="10.00">limits</text>
</a>
</g>
</g>
<!-- Node13&#45;&gt;Node15 -->
<g id="edge16_Node000013_Node000015" class="edge">
<title>Node13&#45;&gt;Node15</title>
<g id="a_edge16_Node000013_Node000015"><a xlink:title=" ">
<path fill="none" stroke="#63b8ff" d="M251.46,-57.15C212.42,-49.4 151.76,-36.69 91.37,-20.64"/>
<polygon fill="#63b8ff" stroke="#63b8ff" points="92.52,-17.33 81.96,-18.11 90.7,-24.09 92.52,-17.33"/>
</a>
</g>
</g>
<!-- Node16 -->
<g id="Node000016" class="node">
<title>Node16</title>
<g id="a_Node000016"><a xlink:title=" ">
<polygon fill="#e0e0e0" stroke="#999999" points="187.12,-20 97.62,-20 97.62,0 187.12,0 187.12,-20"/>
<text text-anchor="middle" x="142.38" y="-6.5" font-family="Helvetica,sans-Serif" font-size="10.00">boost/format.hpp</text>
</a>
</g>
</g>
<!-- Node13&#45;&gt;Node16 -->
<g id="edge17_Node000013_Node000016" class="edge">
<title>Node13&#45;&gt;Node16</title>
<g id="a_edge17_Node000013_Node000016"><a xlink:title=" ">
<path fill="none" stroke="#63b8ff" d="M266.25,-55.59C242.2,-46.94 206.27,-34 179.29,-24.29"/>
<polygon fill="#63b8ff" stroke="#63b8ff" points="180.73,-21.09 170.13,-20.99 178.35,-27.67 180.73,-21.09"/>
</a>
</g>
</g>
<!-- Node17&#45;&gt;Node2 -->
<g id="edge25_Node000017_Node000002" class="edge">
<title>Node17&#45;&gt;Node2</title>
<g id="a_edge25_Node000017_Node000002"><a xlink:title=" ">
<path fill="none" stroke="#63b8ff" d="M630.67,-187.96C575.51,-180.14 498.39,-165.68 477.38,-144 462.99,-129.16 460.02,-104.96 460,-87.64"/>
<polygon fill="#63b8ff" stroke="#63b8ff" points="463.49,-87.88 460.35,-77.77 456.5,-87.64 463.49,-87.88"/>
</a>
</g>
</g>
<!-- Node17&#45;&gt;Node3 -->
<g id="edge19_Node000017_Node000003" class="edge">
<title>Node17&#45;&gt;Node3</title>
<g id="a_edge19_Node000017_Node000003"><a xlink:title=" ">
<path fill="none" stroke="#63b8ff" d="M680.87,-185.79C672.14,-175.98 658.57,-159.74 649.38,-144 627.3,-106.2 609.68,-57.86 600.76,-31.1"/>
<polygon fill="#63b8ff" stroke="#63b8ff" points="604.18,-30.3 597.76,-21.88 597.53,-32.47 604.18,-30.3"/>
</a>
</g>
</g>
<!-- Node17&#45;&gt;Node6 -->
<g id="edge23_Node000017_Node000006" class="edge">
<title>Node17&#45;&gt;Node6</title>
<g id="a_edge23_Node000017_Node000006"><a xlink:title=" ">
<path fill="none" stroke="#63b8ff" d="M699.66,-185.63C709.2,-176.2 722.73,-160.68 728.38,-144 741.31,-105.79 732.91,-57.92 726.24,-31.29"/>
<polygon fill="#63b8ff" stroke="#63b8ff" points="729.67,-30.55 723.69,-21.81 722.91,-32.38 729.67,-30.55"/>
</a>
</g>
</g>
<!-- Node17&#45;&gt;Node10 -->
<g id="edge26_Node000017_Node000010" class="edge">
<title>Node17&#45;&gt;Node10</title>
<g id="a_edge26_Node000017_Node000010"><a xlink:title=" ">
<path fill="none" stroke="#63b8ff" d="M630.85,-188.67C562.41,-180.72 445.92,-165.46 347.38,-144 343.84,-143.23 340.19,-142.35 336.55,-141.42"/>
<polygon fill="#63b8ff" stroke="#63b8ff" points="337.75,-138.12 327.18,-138.88 335.92,-144.87 337.75,-138.12"/>
</a>
</g>
</g>
<!-- Node17&#45;&gt;Node14 -->
<g id="edge21_Node000017_Node000014" class="edge">
<title>Node17&#45;&gt;Node14</title>
<g id="a_edge21_Node000017_Node000014"><a xlink:title=" ">
<path fill="none" stroke="#63b8ff" d="M630.67,-189.12C582.6,-182.66 513.73,-169.6 458.38,-144 399.64,-116.84 398.47,-88.26 342.38,-56 320.33,-43.32 294.02,-32.29 272.89,-24.31"/>
<polygon fill="#63b8ff" stroke="#63b8ff" points="274.38,-21.13 263.78,-20.95 271.95,-27.7 274.38,-21.13"/>
</a>
</g>
</g>
<!-- Node18 -->
<g id="Node000018" class="node">
<title>Node18</title>
<g id="a_Node000018"><a xlink:title=" ">
<polygon fill="#e0e0e0" stroke="#999999" points="719.88,-138 658.88,-138 658.88,-118 719.88,-118 719.88,-138"/>
<text text-anchor="middle" x="689.38" y="-124.5" font-family="Helvetica,sans-Serif" font-size="10.00">filesystem</text>
</a>
</g>
</g>
<!-- Node17&#45;&gt;Node18 -->
<g id="edge20_Node000017_Node000018" class="edge">
<title>Node17&#45;&gt;Node18</title>
<g id="a_edge20_Node000017_Node000018"><a xlink:title=" ">
<path fill="none" stroke="#63b8ff" d="M689.38,-185.54C689.38,-176.23 689.38,-161.7 689.38,-149.7"/>
<polygon fill="#63b8ff" stroke="#63b8ff" points="692.88,-149.95 689.38,-139.95 685.88,-149.95 692.88,-149.95"/>
</a>
</g>
</g>
<!-- Node19 -->
<g id="Node000019" class="node">
<title>Node19</title>
<g id="a_Node000019"><a xlink:title=" ">
<polygon fill="#e0e0e0" stroke="#999999" points="1301.88,-20 1258.88,-20 1258.88,0 1301.88,0 1301.88,-20"/>
<text text-anchor="middle" x="1280.38" y="-6.5" font-family="Helvetica,sans-Serif" font-size="10.00">mutex</text>
</a>
</g>
</g>
<!-- Node17&#45;&gt;Node19 -->
<g id="edge22_Node000017_Node000019" class="edge">
<title>Node17&#45;&gt;Node19</title>
<g id="a_edge22_Node000017_Node000019"><a xlink:title=" ">
<path fill="none" stroke="#63b8ff" d="M748.11,-188.83C800.8,-182 879.57,-168.55 944.38,-144 970.82,-133.98 973.75,-123.96 999.38,-112 1065.74,-81.01 1085.44,-80.76 1154.38,-56 1186.18,-44.58 1222.52,-31.6 1247.98,-22.53"/>
<polygon fill="#63b8ff" stroke="#63b8ff" points="1248.84,-25.94 1257.09,-19.29 1246.49,-19.35 1248.84,-25.94"/>
</a>
</g>
</g>
<!-- Node20 -->
<g id="Node000020" class="node">
<title>Node20</title>
<g id="a_Node000020"><a xlink:title=" ">
<polygon fill="#e0e0e0" stroke="#999999" points="914.5,-138 776.25,-138 776.25,-118 914.5,-118 914.5,-138"/>
<text text-anchor="middle" x="845.38" y="-124.5" font-family="Helvetica,sans-Serif" font-size="10.00">boost/core/noncopyable.hpp</text>
</a>
</g>
</g>
<!-- Node17&#45;&gt;Node20 -->
<g id="edge24_Node000017_Node000020" class="edge">
<title>Node17&#45;&gt;Node20</title>
<g id="a_edge24_Node000017_Node000020"><a xlink:title=" ">
<path fill="none" stroke="#63b8ff" d="M711.73,-185.54C738.14,-174.37 782.31,-155.68 812.6,-142.87"/>
<polygon fill="#63b8ff" stroke="#63b8ff" points="813.83,-146.15 821.67,-139.03 811.1,-139.7 813.83,-146.15"/>
</a>
</g>
</g>
<!-- Node21 -->
<g id="Node000021" class="node">
<title>Node21</title>
<g id="a_Node000021"><a xlink:href="thread__safe_8h.html" target="_top" xlink:title="Declarations for thread&#45;safe data structures.">
<polygon fill="white" stroke="#666666" points="1224.25,-138 1132.5,-138 1132.5,-118 1224.25,-118 1224.25,-138"/>
<text text-anchor="middle" x="1178.38" y="-124.5" font-family="Helvetica,sans-Serif" font-size="10.00">src/thread_safe.h</text>
</a>
</g>
</g>
<!-- Node17&#45;&gt;Node21 -->
<g id="edge27_Node000017_Node000021" class="edge">
<title>Node17&#45;&gt;Node21</title>
<g id="a_edge27_Node000017_Node000021"><a xlink:title=" ">
<path fill="none" stroke="#63b8ff" d="M748.07,-190.9C831.88,-184.41 990.43,-169.79 1123.38,-144 1127.45,-143.21 1131.67,-142.27 1135.88,-141.26"/>
<polygon fill="#63b8ff" stroke="#63b8ff" points="1136.57,-144.7 1145.4,-138.83 1134.84,-137.92 1136.57,-144.7"/>
</a>
</g>
</g>
<!-- Node26 -->
<g id="Node000026" class="node">
<title>Node26</title>
<g id="a_Node000026"><a xlink:href="utility_8h.html" target="_top" xlink:title="Declarations for utility functions.">
<polygon fill="white" stroke="#666666" points="958.75,-76 912,-76 912,-56 958.75,-56 958.75,-76"/>
<text text-anchor="middle" x="935.38" y="-62.5" font-family="Helvetica,sans-Serif" font-size="10.00">utility.h</text>
</a>
</g>
</g>
<!-- Node17&#45;&gt;Node26 -->
<g id="edge47_Node000017_Node000026" class="edge">
<title>Node17&#45;&gt;Node26</title>
<g id="a_edge47_Node000017_Node000026"><a xlink:title=" ">
<path fill="none" stroke="#63b8ff" d="M747.86,-189.75C809.17,-182.98 899.82,-169.01 923.38,-144 937.34,-129.17 939.03,-105.16 938.05,-87.88"/>
<polygon fill="#63b8ff" stroke="#63b8ff" points="941.54,-87.63 937.12,-78 934.57,-88.28 941.54,-87.63"/>
</a>
</g>
</g>
<!-- Node33 -->
<g id="Node000033" class="node">
<title>Node33</title>
<g id="a_Node000033"><a xlink:href="video__colorspace_8h.html" target="_top" xlink:title="Declarations for colorspace functions.">
<polygon fill="white" stroke="#666666" points="602.62,-138 486.12,-138 486.12,-118 602.62,-118 602.62,-138"/>
<text text-anchor="middle" x="544.38" y="-124.5" font-family="Helvetica,sans-Serif" font-size="10.00">src/video_colorspace.h</text>
</a>
</g>
</g>
<!-- Node17&#45;&gt;Node33 -->
<g id="edge48_Node000017_Node000033" class="edge">
<title>Node17&#45;&gt;Node33</title>
<g id="a_edge48_Node000017_Node000033"><a xlink:title=" ">
<path fill="none" stroke="#63b8ff" d="M668.6,-185.54C644.27,-174.47 603.71,-156.01 575.59,-143.21"/>
<polygon fill="#63b8ff" stroke="#63b8ff" points="577.04,-140.02 566.49,-139.07 574.14,-146.39 577.04,-140.02"/>
</a>
</g>
</g>
<!-- Node35 -->
<g id="Node000035" class="node">
<title>Node35</title>
<g id="a_Node000035"><a xlink:title=" ">
<polygon fill="#e0e0e0" stroke="#999999" points="1114.75,-144 1008,-144 1008,-112 1114.75,-112 1114.75,-144"/>
<text text-anchor="start" x="1016" y="-130.5" font-family="Helvetica,sans-Serif" font-size="10.00">moonlight&#45;common&#45;c</text>
<text text-anchor="middle" x="1061.38" y="-118.5" font-family="Helvetica,sans-Serif" font-size="10.00">/src/Limelight.h</text>
</a>
</g>
</g>
<!-- Node17&#45;&gt;Node35 -->
<g id="edge50_Node000017_Node000035" class="edge">
<title>Node17&#45;&gt;Node35</title>
<g id="a_edge50_Node000017_Node000035"><a xlink:title=" ">
<path fill="none" stroke="#63b8ff" d="M748.02,-186.17C809.55,-176.67 909.02,-160.68 994.38,-144 995.05,-143.87 995.73,-143.73 996.41,-143.6"/>
<polygon fill="#63b8ff" stroke="#63b8ff" points="997.09,-147.03 1006.19,-141.6 995.69,-140.17 997.09,-147.03"/>
</a>
</g>
</g>
<!-- Node21&#45;&gt;Node8 -->
<g id="edge34_Node000021_Node000008" class="edge">
<title>Node21&#45;&gt;Node8</title>
<g id="a_edge34_Node000021_Node000008"><a xlink:title=" ">
<path fill="none" stroke="#63b8ff" d="M1145.94,-117.55C1138.56,-115.57 1130.73,-113.6 1123.38,-112 1026.56,-90.94 997.29,-107.56 903.38,-76 866.88,-63.74 828.14,-41.54 804.11,-26.54"/>
<polygon fill="#63b8ff" stroke="#63b8ff" points="806.05,-23.63 795.73,-21.22 802.3,-29.54 806.05,-23.63"/>
</a>
</g>
</g>
<!-- Node21&#45;&gt;Node14 -->
<g id="edge31_Node000021_Node000014" class="edge">
<title>Node21&#45;&gt;Node14</title>
<g id="a_edge31_Node000021_Node000014"><a xlink:title=" ">
<path fill="none" stroke="#63b8ff" d="M1148.37,-117.56C1140.33,-115.38 1131.58,-113.31 1123.38,-112 813.57,-62.44 722.88,-151.55 418.38,-76 397.92,-70.92 395.01,-63.66 375.38,-56 341.88,-42.93 302.88,-30.7 274.39,-22.3"/>
<polygon fill="#63b8ff" stroke="#63b8ff" points="275.68,-19.03 265.1,-19.59 273.72,-25.75 275.68,-19.03"/>
</a>
</g>
</g>
<!-- Node21&#45;&gt;Node19 -->
<g id="edge33_Node000021_Node000019" class="edge">
<title>Node21&#45;&gt;Node19</title>
<g id="a_edge33_Node000021_Node000019"><a xlink:title=" ">
<path fill="none" stroke="#63b8ff" d="M1172.58,-117.84C1164.26,-103.41 1151.31,-75.07 1164.38,-56 1169.36,-48.73 1215.16,-32.43 1247.69,-21.58"/>
<polygon fill="#63b8ff" stroke="#63b8ff" points="1248.72,-24.92 1257.12,-18.46 1246.53,-18.27 1248.72,-24.92"/>
</a>
</g>
</g>
<!-- Node22 -->
<g id="Node000022" class="node">
<title>Node22</title>
<g id="a_Node000022"><a xlink:title=" ">
<polygon fill="#e0e0e0" stroke="#999999" points="1244.25,-76 1206.5,-76 1206.5,-56 1244.25,-56 1244.25,-76"/>
<text text-anchor="middle" x="1225.38" y="-62.5" font-family="Helvetica,sans-Serif" font-size="10.00">array</text>
</a>
</g>
</g>
<!-- Node21&#45;&gt;Node22 -->
<g id="edge28_Node000021_Node000022" class="edge">
<title>Node21&#45;&gt;Node22</title>
<g id="a_edge28_Node000021_Node000022"><a xlink:title=" ">
<path fill="none" stroke="#63b8ff" d="M1185.72,-117.62C1192.52,-108.94 1202.82,-95.8 1211.21,-85.08"/>
<polygon fill="#63b8ff" stroke="#63b8ff" points="1213.89,-87.33 1217.3,-77.3 1208.38,-83.02 1213.89,-87.33"/>
</a>
</g>
</g>
<!-- Node23 -->
<g id="Node000023" class="node">
<title>Node23</title>
<g id="a_Node000023"><a xlink:title=" ">
<polygon fill="#e0e0e0" stroke="#999999" points="1308,-76 1262.75,-76 1262.75,-56 1308,-56 1308,-76"/>
<text text-anchor="middle" x="1285.38" y="-62.5" font-family="Helvetica,sans-Serif" font-size="10.00">atomic</text>
</a>
</g>
</g>
<!-- Node21&#45;&gt;Node23 -->
<g id="edge29_Node000021_Node000023" class="edge">
<title>Node21&#45;&gt;Node23</title>
<g id="a_edge29_Node000021_Node000023"><a xlink:title=" ">
<path fill="none" stroke="#63b8ff" d="M1195.09,-117.62C1212.13,-108.07 1238.82,-93.11 1258.77,-81.92"/>
<polygon fill="#63b8ff" stroke="#63b8ff" points="1260.44,-84.99 1267.45,-77.05 1257.02,-78.89 1260.44,-84.99"/>
</a>
</g>
</g>
<!-- Node24 -->
<g id="Node000024" class="node">
<title>Node24</title>
<g id="a_Node000024"><a xlink:title=" ">
<polygon fill="#e0e0e0" stroke="#999999" points="1414.38,-20 1320.38,-20 1320.38,0 1414.38,0 1414.38,-20"/>
<text text-anchor="middle" x="1367.38" y="-6.5" font-family="Helvetica,sans-Serif" font-size="10.00">condition_variable</text>
</a>
</g>
</g>
<!-- Node21&#45;&gt;Node24 -->
<g id="edge30_Node000021_Node000024" class="edge">
<title>Node21&#45;&gt;Node24</title>
<g id="a_edge30_Node000021_Node000024"><a xlink:title=" ">
<path fill="none" stroke="#63b8ff" d="M1178.09,-117.74C1178.15,-102.65 1180.57,-72.76 1197.38,-56 1205.66,-47.73 1265.03,-33.22 1311.3,-22.92"/>
<polygon fill="#63b8ff" stroke="#63b8ff" points="1311.95,-26.36 1320.96,-20.78 1310.44,-19.52 1311.95,-26.36"/>
</a>
</g>
</g>
<!-- Node25 -->
<g id="Node000025" class="node">
<title>Node25</title>
<g id="a_Node000025"><a xlink:title=" ">
<polygon fill="#e0e0e0" stroke="#999999" points="1360.75,-76 1326,-76 1326,-56 1360.75,-56 1360.75,-76"/>
<text text-anchor="middle" x="1343.38" y="-62.5" font-family="Helvetica,sans-Serif" font-size="10.00">map</text>
</a>
</g>
</g>
<!-- Node21&#45;&gt;Node25 -->
<g id="edge32_Node000021_Node000025" class="edge">
<title>Node21&#45;&gt;Node25</title>
<g id="a_edge32_Node000021_Node000025"><a xlink:title=" ">
<path fill="none" stroke="#63b8ff" d="M1204.16,-117.62C1234.35,-106.65 1284.18,-88.53 1315.32,-77.2"/>
<polygon fill="#63b8ff" stroke="#63b8ff" points="1316.25,-80.59 1324.45,-73.88 1313.86,-74.01 1316.25,-80.59"/>
</a>
</g>
</g>
<!-- Node21&#45;&gt;Node26 -->
<g id="edge35_Node000021_Node000026" class="edge">
<title>Node21&#45;&gt;Node26</title>
<g id="a_edge35_Node000021_Node000026"><a xlink:title=" ">
<path fill="none" stroke="#63b8ff" d="M1144.39,-117.55C1137.44,-115.67 1130.18,-113.74 1123.38,-112 1070.04,-98.35 1007.87,-83.72 970.08,-74.96"/>
<polygon fill="#63b8ff" stroke="#63b8ff" points="971.18,-71.63 960.65,-72.79 969.61,-78.45 971.18,-71.63"/>
</a>
</g>
</g>
<!-- Node26&#45;&gt;Node5 -->
<g id="edge40_Node000026_Node000005" class="edge">
<title>Node26&#45;&gt;Node5</title>
<g id="a_edge40_Node000026_Node000005"><a xlink:title=" ">
<path fill="none" stroke="#63b8ff" d="M911.7,-61.25C869.76,-54.48 779.47,-39.31 693.57,-20.35"/>
<polygon fill="#63b8ff" stroke="#63b8ff" points="694.57,-16.99 684.05,-18.23 693.05,-23.82 694.57,-16.99"/>
</a>
</g>
</g>
<!-- Node26&#45;&gt;Node6 -->
<g id="edge42_Node000026_Node000006" class="edge">
<title>Node26&#45;&gt;Node6</title>
<g id="a_edge42_Node000026_Node000006"><a xlink:title=" ">
<path fill="none" stroke="#63b8ff" d="M911.76,-59.79C878.26,-52.3 814.79,-37.7 751.57,-20.47"/>
<polygon fill="#63b8ff" stroke="#63b8ff" points="752.64,-17.14 742.07,-17.86 750.78,-23.89 752.64,-17.14"/>
</a>
</g>
</g>
<!-- Node26&#45;&gt;Node8 -->
<g id="edge46_Node000026_Node000008" class="edge">
<title>Node26&#45;&gt;Node8</title>
<g id="a_edge46_Node000026_Node000008"><a xlink:title=" ">
<path fill="none" stroke="#63b8ff" d="M911.83,-56.8C885.4,-47.59 842.34,-32.59 812.75,-22.28"/>
<polygon fill="#63b8ff" stroke="#63b8ff" points="814.16,-19.06 803.56,-19.08 811.85,-25.67 814.16,-19.06"/>
</a>
</g>
</g>
<!-- Node26&#45;&gt;Node19 -->
<g id="edge39_Node000026_Node000019" class="edge">
<title>Node26&#45;&gt;Node19</title>
<g id="a_edge39_Node000026_Node000019"><a xlink:title=" ">
<path fill="none" stroke="#63b8ff" d="M959.18,-58.8C963.55,-57.78 968.09,-56.8 972.38,-56 1091.28,-33.91 1126.48,-45.27 1247.34,-20.36"/>
<polygon fill="#63b8ff" stroke="#63b8ff" points="1247.98,-23.8 1257.05,-18.31 1246.54,-16.95 1247.98,-23.8"/>
</a>
</g>
</g>
<!-- Node26&#45;&gt;Node24 -->
<g id="edge37_Node000026_Node000024" class="edge">
<title>Node26&#45;&gt;Node24</title>
<g id="a_edge37_Node000026_Node000024"><a xlink:title=" ">
<path fill="none" stroke="#63b8ff" d="M959.17,-62.49C1017.09,-56.3 1170.19,-39.53 1308.81,-20.31"/>
<polygon fill="#63b8ff" stroke="#63b8ff" points="1309.12,-23.8 1318.54,-18.95 1308.15,-16.87 1309.12,-23.8"/>
</a>
</g>
</g>
<!-- Node27 -->
<g id="Node000027" class="node">
<title>Node27</title>
<g id="a_Node000027"><a xlink:title=" ">
<polygon fill="#e0e0e0" stroke="#999999" points="1019.25,-20 963.5,-20 963.5,0 1019.25,0 1019.25,-20"/>
<text text-anchor="middle" x="991.38" y="-6.5" font-family="Helvetica,sans-Serif" font-size="10.00">algorithm</text>
</a>
</g>
</g>
<!-- Node26&#45;&gt;Node27 -->
<g id="edge36_Node000026_Node000027" class="edge">
<title>Node26&#45;&gt;Node27</title>
<g id="a_edge36_Node000026_Node000027"><a xlink:title=" ">
<path fill="none" stroke="#63b8ff" d="M945.13,-55.59C953,-48.01 964.27,-37.13 973.72,-28.02"/>
<polygon fill="#63b8ff" stroke="#63b8ff" points="975.87,-30.81 980.64,-21.35 971.01,-25.77 975.87,-30.81"/>
</a>
</g>
</g>
<!-- Node28 -->
<g id="Node000028" class="node">
<title>Node28</title>
<g id="a_Node000028"><a xlink:title=" ">
<polygon fill="#e0e0e0" stroke="#999999" points="1089,-20 1037.75,-20 1037.75,0 1089,0 1089,-20"/>
<text text-anchor="middle" x="1063.38" y="-6.5" font-family="Helvetica,sans-Serif" font-size="10.00">memory</text>
</a>
</g>
</g>
<!-- Node26&#45;&gt;Node28 -->
<g id="edge38_Node000026_Node000028" class="edge">
<title>Node26&#45;&gt;Node28</title>
<g id="a_edge38_Node000026_Node000028"><a xlink:title=" ">
<path fill="none" stroke="#63b8ff" d="M957.67,-55.59C977.74,-47.13 1007.49,-34.58 1030.33,-24.94"/>
<polygon fill="#63b8ff" stroke="#63b8ff" points="1031.66,-28.18 1039.51,-21.07 1028.94,-21.73 1031.66,-28.18"/>
</a>
</g>
</g>
<!-- Node29 -->
<g id="Node000029" class="node">
<title>Node29</title>
<g id="a_Node000029"><a xlink:title=" ">
<polygon fill="#e0e0e0" stroke="#999999" points="1158,-20 1106.75,-20 1106.75,0 1158,0 1158,-20"/>
<text text-anchor="middle" x="1132.38" y="-6.5" font-family="Helvetica,sans-Serif" font-size="10.00">ostream</text>
</a>
</g>
</g>
<!-- Node26&#45;&gt;Node29 -->
<g id="edge41_Node000026_Node000029" class="edge">
<title>Node26&#45;&gt;Node29</title>
<g id="a_edge41_Node000026_Node000029"><a xlink:title=" ">
<path fill="none" stroke="#63b8ff" d="M959.14,-58.49C993.02,-49.2 1055.53,-32.07 1095.47,-21.12"/>
<polygon fill="#63b8ff" stroke="#63b8ff" points="1096.16,-24.56 1104.88,-18.54 1094.31,-17.81 1096.16,-24.56"/>
</a>
</g>
</g>
<!-- Node30 -->
<g id="Node000030" class="node">
<title>Node30</title>
<g id="a_Node000030"><a xlink:title=" ">
<polygon fill="#e0e0e0" stroke="#999999" points="1241.12,-20 1175.62,-20 1175.62,0 1241.12,0 1241.12,-20"/>
<text text-anchor="middle" x="1208.38" y="-6.5" font-family="Helvetica,sans-Serif" font-size="10.00">string_view</text>
</a>
</g>
</g>
<!-- Node26&#45;&gt;Node30 -->
<g id="edge43_Node000026_Node000030" class="edge">
<title>Node26&#45;&gt;Node30</title>
<g id="a_edge43_Node000026_Node000030"><a xlink:title=" ">
<path fill="none" stroke="#63b8ff" d="M959.21,-58.99C963.58,-57.95 968.11,-56.91 972.38,-56 1055.02,-38.33 1079.04,-37.49 1164.03,-20.62"/>
<polygon fill="#63b8ff" stroke="#63b8ff" points="1164.68,-24.06 1173.79,-18.66 1163.3,-17.2 1164.68,-24.06"/>
</a>
</g>
</g>
<!-- Node31 -->
<g id="Node000031" class="node">
<title>Node31</title>
<g id="a_Node000031"><a xlink:title=" ">
<polygon fill="#e0e0e0" stroke="#999999" points="881.25,-20 819.5,-20 819.5,0 881.25,0 881.25,-20"/>
<text text-anchor="middle" x="850.38" y="-6.5" font-family="Helvetica,sans-Serif" font-size="10.00">type_traits</text>
</a>
</g>
</g>
<!-- Node26&#45;&gt;Node31 -->
<g id="edge44_Node000026_Node000031" class="edge">
<title>Node26&#45;&gt;Node31</title>
<g id="a_edge44_Node000026_Node000031"><a xlink:title=" ">
<path fill="none" stroke="#63b8ff" d="M920.57,-55.59C907.97,-47.59 889.62,-35.93 874.84,-26.54"/>
<polygon fill="#63b8ff" stroke="#63b8ff" points="876.89,-23.7 866.57,-21.29 873.14,-29.61 876.89,-23.7"/>
</a>
</g>
</g>
<!-- Node32 -->
<g id="Node000032" class="node">
<title>Node32</title>
<g id="a_Node000032"><a xlink:title=" ">
<polygon fill="#e0e0e0" stroke="#999999" points="945,-20 899.75,-20 899.75,0 945,0 945,-20"/>
<text text-anchor="middle" x="922.38" y="-6.5" font-family="Helvetica,sans-Serif" font-size="10.00">variant</text>
</a>
</g>
</g>
<!-- Node26&#45;&gt;Node32 -->
<g id="edge45_Node000026_Node000032" class="edge">
<title>Node26&#45;&gt;Node32</title>
<g id="a_edge45_Node000026_Node000032"><a xlink:title=" ">
<path fill="none" stroke="#63b8ff" d="M933.11,-55.59C931.51,-48.93 929.3,-39.75 927.3,-31.44"/>
<polygon fill="#63b8ff" stroke="#63b8ff" points="930.71,-30.67 924.97,-21.77 923.91,-32.31 930.71,-30.67"/>
</a>
</g>
</g>
<!-- Node34 -->
<g id="Node000034" class="node">
<title>Node34</title>
<g id="a_Node000034"><a xlink:title=" ">
<polygon fill="#e0e0e0" stroke="#999999" points="600,-76 512.75,-76 512.75,-56 600,-56 600,-76"/>
<text text-anchor="middle" x="556.38" y="-62.5" font-family="Helvetica,sans-Serif" font-size="10.00">libavutil/pixfmt.h</text>
</a>
</g>
</g>
<!-- Node33&#45;&gt;Node34 -->
<g id="edge49_Node000033_Node000034" class="edge">
<title>Node33&#45;&gt;Node34</title>
<g id="a_edge49_Node000033_Node000034"><a xlink:title=" ">
<path fill="none" stroke="#63b8ff" d="M546.25,-117.62C547.88,-109.48 550.3,-97.39 552.36,-87.07"/>
<polygon fill="#63b8ff" stroke="#63b8ff" points="555.73,-88.09 554.26,-77.6 548.86,-86.72 555.73,-88.09"/>
</a>
</g>
</g>
<!-- Node37 -->
<g id="Node000037" class="node">
<title>Node37</title>
<g id="a_Node000037"><a xlink:title=" ">
<polygon fill="#e0e0e0" stroke="#999999" points="1543.75,-138 1395,-138 1395,-118 1543.75,-118 1543.75,-138"/>
<text text-anchor="middle" x="1469.38" y="-124.5" font-family="Helvetica,sans-Serif" font-size="10.00">AVFoundation/AVFoundation.h</text>
</a>
</g>
</g>
<!-- Node36&#45;&gt;Node37 -->
<g id="edge52_Node000036_Node000037" class="edge">
<title>Node36&#45;&gt;Node37</title>
<g id="a_edge52_Node000036_Node000037"><a xlink:title=" ">
<path fill="none" stroke="#63b8ff" d="M1346.89,-179.53C1373.88,-168.39 1409.97,-153.51 1435.97,-142.78"/>
<polygon fill="#63b8ff" stroke="#63b8ff" points="1437.13,-146.09 1445.04,-139.04 1434.46,-139.62 1437.13,-146.09"/>
</a>
</g>
</g>
<!-- Node38 -->
<g id="Node000038" class="node">
<title>Node38</title>
<g id="a_Node000038"><a xlink:title=" ">
<polygon fill="#e0e0e0" stroke="#999999" points="1376.62,-144 1242.12,-144 1242.12,-112 1376.62,-112 1376.62,-144"/>
<text text-anchor="start" x="1250.12" y="-130.5" font-family="Helvetica,sans-Serif" font-size="10.00">third&#45;party/TPCircularBuffer</text>
<text text-anchor="middle" x="1309.38" y="-118.5" font-family="Helvetica,sans-Serif" font-size="10.00">/TPCircularBuffer.h</text>
</a>
</g>
</g>
<!-- Node36&#45;&gt;Node38 -->
<g id="edge53_Node000036_Node000038" class="edge">
<title>Node36&#45;&gt;Node38</title>
<g id="a_edge53_Node000036_Node000038"><a xlink:title=" ">
<path fill="none" stroke="#63b8ff" d="M1309.38,-179.69C1309.38,-172.53 1309.38,-163.79 1309.38,-155.59"/>
<polygon fill="#63b8ff" stroke="#63b8ff" points="1312.88,-155.74 1309.38,-145.74 1305.88,-155.74 1312.88,-155.74"/>
</a>
</g>
</g>
</g>
</svg>
