<?xml version="1.0" encoding="UTF-8" standalone="no"?>
<!DOCTYPE svg PUBLIC "-//W3C//DTD SVG 1.1//EN"
 "http://www.w3.org/Graphics/SVG/1.1/DTD/svg11.dtd">
<!-- Generated by graphviz version 12.2.1 (0)
 -->
<!-- Title: src/move_by_copy.h Pages: 1 -->
<!--zoomable 332 -->

<svg id="main" version="1.1" xmlns="http://www.w3.org/2000/svg" xmlns:xlink="http://www.w3.org/1999/xlink" xml:space="preserve" onload="init(evt)">

<style type="text/css"><![CDATA[
.node, .edge {opacity: 0.7;}
.node.selected, .edge.selected {opacity: 1;}
.edge:hover path { stroke: red; }
.edge:hover polygon { stroke: red; fill: red; }
]]></style>

<defs>
  <circle id="rim" cx="0" cy="0" r="7"/>
  <circle id="rim2" cx="0" cy="0" r="3.5"/>
  <g id="zoomPlus">
    <use xlink:href="#rim" fill="#404040"><set attributeName="fill" to="#808080" begin="zoomplus.mouseover" end="zoomplus.mouseout"/></use>
    <path d="M-4,0h8M0,-4v8" fill="none" stroke="white" stroke-width="1.5" pointer-events="none"/>
  </g>
  <g id="zoomMin">
    <use xlink:href="#rim" fill="#404040"><set attributeName="fill" to="#808080" begin="zoomminus.mouseover" end="zoomminus.mouseout"/></use>
    <path d="M-4,0h8" fill="none" stroke="white" stroke-width="1.5" pointer-events="none"/>
  </g>
  <g id="arrowUp" transform="translate(30 24)">
    <use xlink:href="#rim"/>
    <path pointer-events="none" fill="none" stroke="white" stroke-width="1.5" d="M0,-3.0v7 M-2.5,-0.5L0,-3.0L2.5,-0.5"/>
  </g>
  <g id="arrowRight" transform="rotate(90) translate(36 -43)">
    <use xlink:href="#rim"/>
    <path pointer-events="none" fill="none" stroke="white" stroke-width="1.5" d="M0,-3.0v7 M-2.5,-0.5L0,-3.0L2.5,-0.5"/>
  </g>
  <g id="arrowDown" transform="rotate(180) translate(-30 -48)">
    <use xlink:href="#rim"/>
    <path pointer-events="none" fill="none" stroke="white" stroke-width="1.5" d="M0,-3.0v7 M-2.5,-0.5L0,-3.0L2.5,-0.5"/>
  </g>
  <g id="arrowLeft" transform="rotate(270) translate(-36 17)">
    <use xlink:href="#rim"/>
    <path pointer-events="none" fill="none" stroke="white" stroke-width="1.5" d="M0,-3.0v7 M-2.5,-0.5L0,-3.0L2.5,-0.5"/>
  </g>
  <g id="resetDef">
    <use xlink:href="#rim2" fill="#404040"><set attributeName="fill" to="#808080" begin="reset.mouseover" end="reset.mouseout"/></use>
  </g>
</defs>
<script type="application/ecmascript">
var viewWidth = 1431;
var viewHeight = 332;
var sectionId = 'dynsection-1';
</script>
<script type="application/ecmascript" xlink:href="svg.min.js"/>
<svg id="graph" class="graph">
<g id="viewport">
<title>src/move_by_copy.h</title>
<!-- Node1 -->
<g id="Node000001" class="node">
<title>Node1</title>
<g id="a_Node000001"><a xlink:title="Declarations for the MoveByCopy utility class.">
<polygon fill="#999999" stroke="#666666" points="430.5,-324 324.5,-324 324.5,-304 430.5,-304 430.5,-324"/>
<text text-anchor="middle" x="377.5" y="-310.5" font-family="Helvetica,sans-Serif" font-size="10.00">src/move_by_copy.h</text>
</a>
</g>
</g>
<!-- Node2 -->
<g id="Node000002" class="node">
<title>Node2</title>
<g id="a_Node000002"><a xlink:href="task__pool_8h.html" target="_top" xlink:title="Declarations for the task pool system.">
<polygon fill="white" stroke="#666666" points="418.88,-268 336.12,-268 336.12,-248 418.88,-248 418.88,-268"/>
<text text-anchor="middle" x="377.5" y="-254.5" font-family="Helvetica,sans-Serif" font-size="10.00">src/task_pool.h</text>
</a>
</g>
</g>
<!-- Node1&#45;&gt;Node2 -->
<g id="edge1_Node000001_Node000002" class="edge">
<title>Node1&#45;&gt;Node2</title>
<g id="a_edge1_Node000001_Node000002"><a xlink:title=" ">
<path fill="none" stroke="#63b8ff" d="M377.5,-292.13C377.5,-283.9 377.5,-274.85 377.5,-268.3"/>
<polygon fill="#63b8ff" stroke="#63b8ff" points="374,-292.08 377.5,-302.08 381,-292.08 374,-292.08"/>
</a>
</g>
</g>
<!-- Node3 -->
<g id="Node000003" class="node">
<title>Node3</title>
<g id="a_Node000003"><a xlink:href="x11grab_8cpp.html" target="_top" xlink:title="Definitions for x11 capture.">
<polygon fill="white" stroke="#666666" points="91,-32 0,-32 0,0 91,0 91,-32"/>
<text text-anchor="start" x="8" y="-18.5" font-family="Helvetica,sans-Serif" font-size="10.00">src/platform/linux</text>
<text text-anchor="middle" x="45.5" y="-6.5" font-family="Helvetica,sans-Serif" font-size="10.00">/x11grab.cpp</text>
</a>
</g>
</g>
<!-- Node2&#45;&gt;Node3 -->
<g id="edge2_Node000002_Node000003" class="edge">
<title>Node2&#45;&gt;Node3</title>
<g id="a_edge2_Node000002_Node000003"><a xlink:title=" ">
<path fill="none" stroke="#63b8ff" d="M355.41,-241.03C294.83,-197.24 126.67,-75.68 66.91,-32.48"/>
<polygon fill="#63b8ff" stroke="#63b8ff" points="353.1,-243.68 363.26,-246.71 357.2,-238.01 353.1,-243.68"/>
</a>
</g>
</g>
<!-- Node4 -->
<g id="Node000004" class="node">
<title>Node4</title>
<g id="a_Node000004"><a xlink:href="thread__pool_8h.html" target="_top" xlink:title="Declarations for the thread pool system.">
<polygon fill="white" stroke="#666666" points="474,-212 383,-212 383,-192 474,-192 474,-212"/>
<text text-anchor="middle" x="428.5" y="-198.5" font-family="Helvetica,sans-Serif" font-size="10.00">src/thread_pool.h</text>
</a>
</g>
</g>
<!-- Node2&#45;&gt;Node4 -->
<g id="edge3_Node000002_Node000004" class="edge">
<title>Node2&#45;&gt;Node4</title>
<g id="a_edge3_Node000002_Node000004"><a xlink:title=" ">
<path fill="none" stroke="#63b8ff" d="M394.23,-239.29C402.74,-230.28 412.73,-219.7 419.72,-212.3"/>
<polygon fill="#63b8ff" stroke="#63b8ff" points="391.74,-236.82 387.42,-246.49 396.83,-241.63 391.74,-236.82"/>
</a>
</g>
</g>
<!-- Node5 -->
<g id="Node000005" class="node">
<title>Node5</title>
<g id="a_Node000005"><a xlink:href="entry__handler_8h.html" target="_top" xlink:title="Declarations for entry handling functions.">
<polygon fill="white" stroke="#666666" points="1175.12,-156 1075.88,-156 1075.88,-136 1175.12,-136 1175.12,-156"/>
<text text-anchor="middle" x="1125.5" y="-142.5" font-family="Helvetica,sans-Serif" font-size="10.00">src/entry_handler.h</text>
</a>
</g>
</g>
<!-- Node4&#45;&gt;Node5 -->
<g id="edge4_Node000004_Node000005" class="edge">
<title>Node4&#45;&gt;Node5</title>
<g id="a_edge4_Node000004_Node000005"><a xlink:title=" ">
<path fill="none" stroke="#63b8ff" d="M485.37,-196.59C618.61,-186.27 949.2,-160.66 1075.43,-150.88"/>
<polygon fill="#63b8ff" stroke="#63b8ff" points="485.44,-193.08 475.74,-197.34 485.98,-200.06 485.44,-193.08"/>
</a>
</g>
</g>
<!-- Node8 -->
<g id="Node000008" class="node">
<title>Node8</title>
<g id="a_Node000008"><a xlink:href="globals_8h.html" target="_top" xlink:title="Declarations for globally accessible variables and functions.">
<polygon fill="white" stroke="#666666" points="712.25,-94 640.75,-94 640.75,-74 712.25,-74 712.25,-94"/>
<text text-anchor="middle" x="676.5" y="-80.5" font-family="Helvetica,sans-Serif" font-size="10.00">src/globals.h</text>
</a>
</g>
</g>
<!-- Node4&#45;&gt;Node8 -->
<g id="edge27_Node000004_Node000008" class="edge">
<title>Node4&#45;&gt;Node8</title>
<g id="a_edge27_Node000004_Node000008"><a xlink:title=" ">
<path fill="none" stroke="#63b8ff" d="M458.94,-186.76C510.3,-162.74 612.81,-114.79 656.27,-94.46"/>
<polygon fill="#63b8ff" stroke="#63b8ff" points="457.74,-183.46 450.17,-190.87 460.71,-189.8 457.74,-183.46"/>
</a>
</g>
</g>
<!-- Node12 -->
<g id="Node000012" class="node">
<title>Node12</title>
<g id="a_Node000012"><a xlink:href="input_8cpp.html" target="_top" xlink:title="Definitions for gamepad, keyboard, and mouse input handling.">
<polygon fill="white" stroke="#666666" points="181.62,-26 109.38,-26 109.38,-6 181.62,-6 181.62,-26"/>
<text text-anchor="middle" x="145.5" y="-12.5" font-family="Helvetica,sans-Serif" font-size="10.00">src/input.cpp</text>
</a>
</g>
</g>
<!-- Node4&#45;&gt;Node12 -->
<g id="edge28_Node000004_Node000012" class="edge">
<title>Node4&#45;&gt;Node12</title>
<g id="a_edge28_Node000004_Node000012"><a xlink:title=" ">
<path fill="none" stroke="#63b8ff" d="M423.07,-180.85C414.01,-151.29 392.9,-96.57 354.5,-68 294.63,-23.46 262.44,-51.83 190.5,-32 184.47,-30.34 178.05,-28.34 172.01,-26.35"/>
<polygon fill="#63b8ff" stroke="#63b8ff" points="419.68,-181.74 425.81,-190.38 426.41,-179.8 419.68,-181.74"/>
</a>
</g>
</g>
<!-- Node6 -->
<g id="Node000006" class="node">
<title>Node6</title>
<g id="a_Node000006"><a xlink:href="config_8cpp.html" target="_top" xlink:title="Definitions for the configuration of Sunshine.">
<polygon fill="white" stroke="#666666" points="1231.25,-94 1153.75,-94 1153.75,-74 1231.25,-74 1231.25,-94"/>
<text text-anchor="middle" x="1192.5" y="-80.5" font-family="Helvetica,sans-Serif" font-size="10.00">src/config.cpp</text>
</a>
</g>
</g>
<!-- Node5&#45;&gt;Node6 -->
<g id="edge5_Node000005_Node000006" class="edge">
<title>Node5&#45;&gt;Node6</title>
<g id="a_edge5_Node000005_Node000006"><a xlink:title=" ">
<path fill="none" stroke="#63b8ff" d="M1144.23,-128.22C1156.57,-117.18 1172.24,-103.14 1182.32,-94.11"/>
<polygon fill="#63b8ff" stroke="#63b8ff" points="1142.21,-125.34 1137.1,-134.62 1146.88,-130.55 1142.21,-125.34"/>
</a>
</g>
</g>
<!-- Node7 -->
<g id="Node000007" class="node">
<title>Node7</title>
<g id="a_Node000007"><a xlink:href="entry__handler_8cpp.html" target="_top" xlink:title="Definitions for entry handling functions.">
<polygon fill="white" stroke="#666666" points="1205.38,-26 1095.62,-26 1095.62,-6 1205.38,-6 1205.38,-26"/>
<text text-anchor="middle" x="1150.5" y="-12.5" font-family="Helvetica,sans-Serif" font-size="10.00">src/entry_handler.cpp</text>
</a>
</g>
</g>
<!-- Node5&#45;&gt;Node7 -->
<g id="edge6_Node000005_Node000007" class="edge">
<title>Node5&#45;&gt;Node7</title>
<g id="a_edge6_Node000005_Node000007"><a xlink:title=" ">
<path fill="none" stroke="#63b8ff" d="M1129.49,-124.57C1134.98,-96.49 1144.62,-47.09 1148.65,-26.47"/>
<polygon fill="#63b8ff" stroke="#63b8ff" points="1126.07,-123.82 1127.59,-134.31 1132.94,-125.17 1126.07,-123.82"/>
</a>
</g>
</g>
<!-- Node5&#45;&gt;Node8 -->
<g id="edge7_Node000005_Node000008" class="edge">
<title>Node5&#45;&gt;Node8</title>
<g id="a_edge7_Node000005_Node000008"><a xlink:title=" ">
<path fill="none" stroke="#63b8ff" d="M1064.6,-136.86C969.69,-124.18 789.46,-100.1 712.64,-89.83"/>
<polygon fill="#63b8ff" stroke="#63b8ff" points="1063.86,-140.29 1074.23,-138.15 1064.79,-133.36 1063.86,-140.29"/>
</a>
</g>
</g>
<!-- Node13 -->
<g id="Node000013" class="node">
<title>Node13</title>
<g id="a_Node000013"><a xlink:href="main_8cpp.html" target="_top" xlink:title="Definitions for the main entry point for Sunshine.">
<polygon fill="white" stroke="#666666" points="1295.62,-26 1223.38,-26 1223.38,-6 1295.62,-6 1295.62,-26"/>
<text text-anchor="middle" x="1259.5" y="-12.5" font-family="Helvetica,sans-Serif" font-size="10.00">src/main.cpp</text>
</a>
</g>
</g>
<!-- Node5&#45;&gt;Node13 -->
<g id="edge22_Node000005_Node000013" class="edge">
<title>Node5&#45;&gt;Node13</title>
<g id="a_edge22_Node000005_Node000013"><a xlink:title=" ">
<path fill="none" stroke="#63b8ff" d="M1186.49,-133.15C1206.25,-126.48 1226.62,-116.1 1240.5,-100 1258.84,-78.73 1260.42,-43.31 1260.02,-26.46"/>
<polygon fill="#63b8ff" stroke="#63b8ff" points="1185.59,-129.76 1177.06,-136.05 1187.65,-136.46 1185.59,-129.76"/>
</a>
</g>
</g>
<!-- Node16 -->
<g id="Node000016" class="node">
<title>Node16</title>
<g id="a_Node000016"><a xlink:href="windows_2misc_8cpp.html" target="_top" xlink:title="Miscellaneous definitions for Windows.">
<polygon fill="white" stroke="#666666" points="1423,-32 1314,-32 1314,0 1423,0 1423,-32"/>
<text text-anchor="start" x="1322" y="-18.5" font-family="Helvetica,sans-Serif" font-size="10.00">src/platform/windows</text>
<text text-anchor="middle" x="1368.5" y="-6.5" font-family="Helvetica,sans-Serif" font-size="10.00">/misc.cpp</text>
</a>
</g>
</g>
<!-- Node5&#45;&gt;Node16 -->
<g id="edge25_Node000005_Node000016" class="edge">
<title>Node5&#45;&gt;Node16</title>
<g id="a_edge25_Node000005_Node000016"><a xlink:title=" ">
<path fill="none" stroke="#63b8ff" d="M1177.49,-132.52C1203.85,-125.07 1235.84,-114.25 1262.5,-100 1297.54,-81.27 1332.79,-50.82 1352.51,-32.47"/>
<polygon fill="#63b8ff" stroke="#63b8ff" points="1176.75,-129.1 1168.03,-135.11 1178.6,-135.85 1176.75,-129.1"/>
</a>
</g>
</g>
<!-- Node21 -->
<g id="Node000021" class="node">
<title>Node21</title>
<g id="a_Node000021"><a xlink:href="linux_2misc_8cpp.html" target="_top" xlink:title="Miscellaneous definitions for Linux.">
<polygon fill="white" stroke="#666666" points="1417,-100 1326,-100 1326,-68 1417,-68 1417,-100"/>
<text text-anchor="start" x="1334" y="-86.5" font-family="Helvetica,sans-Serif" font-size="10.00">src/platform/linux</text>
<text text-anchor="middle" x="1371.5" y="-74.5" font-family="Helvetica,sans-Serif" font-size="10.00">/misc.cpp</text>
</a>
</g>
</g>
<!-- Node5&#45;&gt;Node21 -->
<g id="edge23_Node000005_Node000021" class="edge">
<title>Node5&#45;&gt;Node21</title>
<g id="a_edge23_Node000005_Node000021"><a xlink:title=" ">
<path fill="none" stroke="#63b8ff" d="M1176.19,-132.85C1213.6,-123.85 1265.74,-111.25 1311.5,-100 1316.09,-98.87 1320.87,-97.69 1325.65,-96.5"/>
<polygon fill="#63b8ff" stroke="#63b8ff" points="1175.45,-129.42 1166.54,-135.16 1177.08,-136.23 1175.45,-129.42"/>
</a>
</g>
</g>
<!-- Node22 -->
<g id="Node000022" class="node">
<title>Node22</title>
<g id="a_Node000022"><a xlink:href="misc_8mm.html" target="_top" xlink:title="Miscellaneous definitions for macOS platform.">
<polygon fill="white" stroke="#666666" points="975.5,-100 875.5,-100 875.5,-68 975.5,-68 975.5,-100"/>
<text text-anchor="start" x="883.5" y="-86.5" font-family="Helvetica,sans-Serif" font-size="10.00">src/platform/macos</text>
<text text-anchor="middle" x="925.5" y="-74.5" font-family="Helvetica,sans-Serif" font-size="10.00">/misc.mm</text>
</a>
</g>
</g>
<!-- Node5&#45;&gt;Node22 -->
<g id="edge24_Node000005_Node000022" class="edge">
<title>Node5&#45;&gt;Node22</title>
<g id="a_edge24_Node000005_Node000022"><a xlink:title=" ">
<path fill="none" stroke="#63b8ff" d="M1083.27,-132.33C1051.94,-122.93 1009.1,-110.08 975.97,-100.14"/>
<polygon fill="#63b8ff" stroke="#63b8ff" points="1082.22,-135.67 1092.8,-135.19 1084.23,-128.96 1082.22,-135.67"/>
</a>
</g>
</g>
<!-- Node23 -->
<g id="Node000023" class="node">
<title>Node23</title>
<g id="a_Node000023"><a xlink:href="system__tray_8cpp.html" target="_top" xlink:title="Definitions for the system tray icon and notification system.">
<polygon fill="white" stroke="#666666" points="1097.75,-94 993.25,-94 993.25,-74 1097.75,-74 1097.75,-94"/>
<text text-anchor="middle" x="1045.5" y="-80.5" font-family="Helvetica,sans-Serif" font-size="10.00">src/system_tray.cpp</text>
</a>
</g>
</g>
<!-- Node5&#45;&gt;Node23 -->
<g id="edge26_Node000005_Node000023" class="edge">
<title>Node5&#45;&gt;Node23</title>
<g id="a_edge26_Node000005_Node000023"><a xlink:title=" ">
<path fill="none" stroke="#63b8ff" d="M1104.04,-128.91C1089.29,-117.84 1070.21,-103.53 1057.91,-94.31"/>
<polygon fill="#63b8ff" stroke="#63b8ff" points="1101.69,-131.52 1111.79,-134.72 1105.89,-125.92 1101.69,-131.52"/>
</a>
</g>
</g>
<!-- Node8&#45;&gt;Node3 -->
<g id="edge15_Node000008_Node000003" class="edge">
<title>Node8&#45;&gt;Node3</title>
<g id="a_edge15_Node000008_Node000003"><a xlink:title=" ">
<path fill="none" stroke="#63b8ff" d="M629.1,-81.65C530.16,-78.22 294.69,-66.79 100.5,-32 97.48,-31.46 94.38,-30.83 91.28,-30.14"/>
<polygon fill="#63b8ff" stroke="#63b8ff" points="628.86,-85.15 638.97,-81.98 629.09,-78.15 628.86,-85.15"/>
</a>
</g>
</g>
<!-- Node8&#45;&gt;Node7 -->
<g id="edge10_Node000008_Node000007" class="edge">
<title>Node8&#45;&gt;Node7</title>
<g id="a_edge10_Node000008_Node000007"><a xlink:title=" ">
<path fill="none" stroke="#63b8ff" d="M723.77,-78.77C800.32,-71.55 956.04,-55.33 1086.5,-32 1095.15,-30.45 1104.39,-28.48 1113.07,-26.48"/>
<polygon fill="#63b8ff" stroke="#63b8ff" points="723.75,-75.26 714.12,-79.67 724.4,-82.23 723.75,-75.26"/>
</a>
</g>
</g>
<!-- Node9 -->
<g id="Node000009" class="node">
<title>Node9</title>
<g id="a_Node000009"><a xlink:href="audio_8cpp.html" target="_top" xlink:title="Definitions for audio capture and encoding.">
<polygon fill="white" stroke="#666666" points="456.75,-26 382.25,-26 382.25,-6 456.75,-6 456.75,-26"/>
<text text-anchor="middle" x="419.5" y="-12.5" font-family="Helvetica,sans-Serif" font-size="10.00">src/audio.cpp</text>
</a>
</g>
</g>
<!-- Node8&#45;&gt;Node9 -->
<g id="edge8_Node000008_Node000009" class="edge">
<title>Node8&#45;&gt;Node9</title>
<g id="a_edge8_Node000008_Node000009"><a xlink:title=" ">
<path fill="none" stroke="#63b8ff" d="M629.2,-72.68C586.26,-63.05 521.3,-47.81 465.5,-32 459.52,-30.3 453.15,-28.34 447.12,-26.39"/>
<polygon fill="#63b8ff" stroke="#63b8ff" points="628.44,-76.09 638.96,-74.85 629.96,-69.26 628.44,-76.09"/>
</a>
</g>
</g>
<!-- Node10 -->
<g id="Node000010" class="node">
<title>Node10</title>
<g id="a_Node000010"><a xlink:href="confighttp_8cpp.html" target="_top" xlink:title="Definitions for the Web UI Config HTTP server.">
<polygon fill="white" stroke="#666666" points="568.5,-26 474.5,-26 474.5,-6 568.5,-6 568.5,-26"/>
<text text-anchor="middle" x="521.5" y="-12.5" font-family="Helvetica,sans-Serif" font-size="10.00">src/confighttp.cpp</text>
</a>
</g>
</g>
<!-- Node8&#45;&gt;Node10 -->
<g id="edge9_Node000008_Node000010" class="edge">
<title>Node8&#45;&gt;Node10</title>
<g id="a_edge9_Node000008_Node000010"><a xlink:title=" ">
<path fill="none" stroke="#63b8ff" d="M643.88,-69.11C613.78,-56.29 569.89,-37.61 543.67,-26.44"/>
<polygon fill="#63b8ff" stroke="#63b8ff" points="642.33,-72.25 652.9,-72.95 645.07,-65.81 642.33,-72.25"/>
</a>
</g>
</g>
<!-- Node11 -->
<g id="Node000011" class="node">
<title>Node11</title>
<g id="a_Node000011"><a xlink:href="globals_8cpp.html" target="_top" xlink:title="Definitions for globally accessible variables and functions.">
<polygon fill="white" stroke="#666666" points="668.5,-26 586.5,-26 586.5,-6 668.5,-6 668.5,-26"/>
<text text-anchor="middle" x="627.5" y="-12.5" font-family="Helvetica,sans-Serif" font-size="10.00">src/globals.cpp</text>
</a>
</g>
</g>
<!-- Node8&#45;&gt;Node11 -->
<g id="edge11_Node000008_Node000011" class="edge">
<title>Node8&#45;&gt;Node11</title>
<g id="a_edge11_Node000008_Node000011"><a xlink:title=" ">
<path fill="none" stroke="#63b8ff" d="M662.78,-64.52C653.58,-52.13 641.85,-36.33 634.51,-26.44"/>
<polygon fill="#63b8ff" stroke="#63b8ff" points="659.81,-66.39 668.58,-72.33 665.43,-62.21 659.81,-66.39"/>
</a>
</g>
</g>
<!-- Node8&#45;&gt;Node12 -->
<g id="edge12_Node000008_Node000012" class="edge">
<title>Node8&#45;&gt;Node12</title>
<g id="a_edge12_Node000008_Node000012"><a xlink:title=" ">
<path fill="none" stroke="#63b8ff" d="M629.01,-81.43C541.4,-77.79 348.85,-66.27 190.5,-32 183.9,-30.57 176.91,-28.52 170.46,-26.39"/>
<polygon fill="#63b8ff" stroke="#63b8ff" points="628.77,-84.93 638.9,-81.83 629.04,-77.93 628.77,-84.93"/>
</a>
</g>
</g>
<!-- Node8&#45;&gt;Node13 -->
<g id="edge13_Node000008_Node000013" class="edge">
<title>Node8&#45;&gt;Node13</title>
<g id="a_edge13_Node000008_Node000013"><a xlink:title=" ">
<path fill="none" stroke="#63b8ff" d="M723.6,-79.15C845.85,-69.08 1167.09,-42.01 1214.5,-32 1221.11,-30.6 1228.1,-28.56 1234.55,-26.44"/>
<polygon fill="#63b8ff" stroke="#63b8ff" points="723.59,-75.64 713.91,-79.95 724.17,-82.62 723.59,-75.64"/>
</a>
</g>
</g>
<!-- Node14 -->
<g id="Node000014" class="node">
<title>Node14</title>
<g id="a_Node000014"><a xlink:href="nvhttp_8cpp.html" target="_top" xlink:title="Definitions for the nvhttp (GameStream) server.">
<polygon fill="white" stroke="#666666" points="764.62,-26 686.38,-26 686.38,-6 764.62,-6 764.62,-26"/>
<text text-anchor="middle" x="725.5" y="-12.5" font-family="Helvetica,sans-Serif" font-size="10.00">src/nvhttp.cpp</text>
</a>
</g>
</g>
<!-- Node8&#45;&gt;Node14 -->
<g id="edge14_Node000008_Node000014" class="edge">
<title>Node8&#45;&gt;Node14</title>
<g id="a_edge14_Node000008_Node000014"><a xlink:title=" ">
<path fill="none" stroke="#63b8ff" d="M690.22,-64.52C699.42,-52.13 711.15,-36.33 718.49,-26.44"/>
<polygon fill="#63b8ff" stroke="#63b8ff" points="687.57,-62.21 684.42,-72.33 693.19,-66.39 687.57,-62.21"/>
</a>
</g>
</g>
<!-- Node15 -->
<g id="Node000015" class="node">
<title>Node15</title>
<g id="a_Node000015"><a xlink:href="platform_2windows_2input_8cpp.html" target="_top" xlink:title="Definitions for input handling on Windows.">
<polygon fill="white" stroke="#666666" points="892,-32 783,-32 783,0 892,0 892,-32"/>
<text text-anchor="start" x="791" y="-18.5" font-family="Helvetica,sans-Serif" font-size="10.00">src/platform/windows</text>
<text text-anchor="middle" x="837.5" y="-6.5" font-family="Helvetica,sans-Serif" font-size="10.00">/input.cpp</text>
</a>
</g>
</g>
<!-- Node8&#45;&gt;Node15 -->
<g id="edge16_Node000008_Node000015" class="edge">
<title>Node8&#45;&gt;Node15</title>
<g id="a_edge16_Node000008_Node000015"><a xlink:title=" ">
<path fill="none" stroke="#63b8ff" d="M710.12,-69.22C736.32,-58.48 772.69,-43.57 799.87,-32.43"/>
<polygon fill="#63b8ff" stroke="#63b8ff" points="708.89,-65.94 700.97,-72.97 711.55,-72.42 708.89,-65.94"/>
</a>
</g>
</g>
<!-- Node8&#45;&gt;Node16 -->
<g id="edge17_Node000008_Node000016" class="edge">
<title>Node8&#45;&gt;Node16</title>
<g id="a_edge17_Node000008_Node000016"><a xlink:title=" ">
<path fill="none" stroke="#63b8ff" d="M723.93,-79.24C867.78,-67.84 1290.16,-34.25 1304.5,-32 1307.54,-31.52 1310.66,-30.98 1313.79,-30.39"/>
<polygon fill="#63b8ff" stroke="#63b8ff" points="723.68,-75.75 713.99,-80.03 724.23,-82.73 723.68,-75.75"/>
</a>
</g>
</g>
<!-- Node17 -->
<g id="Node000017" class="node">
<title>Node17</title>
<g id="a_Node000017"><a xlink:href="rtsp_8cpp.html" target="_top" xlink:title="Definitions for RTSP streaming.">
<polygon fill="white" stroke="#666666" points="977.38,-26 909.62,-26 909.62,-6 977.38,-6 977.38,-26"/>
<text text-anchor="middle" x="943.5" y="-12.5" font-family="Helvetica,sans-Serif" font-size="10.00">src/rtsp.cpp</text>
</a>
</g>
</g>
<!-- Node8&#45;&gt;Node17 -->
<g id="edge18_Node000008_Node000017" class="edge">
<title>Node8&#45;&gt;Node17</title>
<g id="a_edge18_Node000008_Node000017"><a xlink:title=" ">
<path fill="none" stroke="#63b8ff" d="M723.77,-74.01C769.59,-64.89 840.87,-49.63 901.5,-32 907.15,-30.36 913.15,-28.37 918.79,-26.38"/>
<polygon fill="#63b8ff" stroke="#63b8ff" points="723.31,-70.53 714.18,-75.9 724.66,-77.4 723.31,-70.53"/>
</a>
</g>
</g>
<!-- Node18 -->
<g id="Node000018" class="node">
<title>Node18</title>
<g id="a_Node000018"><a xlink:href="stream_8cpp.html" target="_top" xlink:title="Definitions for the streaming protocols.">
<polygon fill="white" stroke="#666666" points="1077.12,-26 995.88,-26 995.88,-6 1077.12,-6 1077.12,-26"/>
<text text-anchor="middle" x="1036.5" y="-12.5" font-family="Helvetica,sans-Serif" font-size="10.00">src/stream.cpp</text>
</a>
</g>
</g>
<!-- Node8&#45;&gt;Node18 -->
<g id="edge19_Node000008_Node000018" class="edge">
<title>Node8&#45;&gt;Node18</title>
<g id="a_edge19_Node000008_Node000018"><a xlink:title=" ">
<path fill="none" stroke="#63b8ff" d="M723.79,-77.14C784.9,-69.14 894.39,-53.3 986.5,-32 993.3,-30.43 1000.53,-28.44 1007.32,-26.44"/>
<polygon fill="#63b8ff" stroke="#63b8ff" points="723.56,-73.64 714.09,-78.4 724.46,-80.59 723.56,-73.64"/>
</a>
</g>
</g>
<!-- Node19 -->
<g id="Node000019" class="node">
<title>Node19</title>
<g id="a_Node000019"><a xlink:href="upnp_8cpp.html" target="_top" xlink:title="Definitions for UPnP port mapping.">
<polygon fill="white" stroke="#666666" points="271.62,-26 199.38,-26 199.38,-6 271.62,-6 271.62,-26"/>
<text text-anchor="middle" x="235.5" y="-12.5" font-family="Helvetica,sans-Serif" font-size="10.00">src/upnp.cpp</text>
</a>
</g>
</g>
<!-- Node8&#45;&gt;Node19 -->
<g id="edge20_Node000008_Node000019" class="edge">
<title>Node8&#45;&gt;Node19</title>
<g id="a_edge20_Node000008_Node000019"><a xlink:title=" ">
<path fill="none" stroke="#63b8ff" d="M628.96,-79.87C554.09,-74.26 404.45,-60.36 280.5,-32 274.08,-30.53 267.28,-28.51 260.96,-26.44"/>
<polygon fill="#63b8ff" stroke="#63b8ff" points="628.59,-83.35 638.81,-80.58 629.09,-76.37 628.59,-83.35"/>
</a>
</g>
</g>
<!-- Node20 -->
<g id="Node000020" class="node">
<title>Node20</title>
<g id="a_Node000020"><a xlink:href="video_8cpp.html" target="_top" xlink:title="Definitions for video.">
<polygon fill="white" stroke="#666666" points="363.75,-26 289.25,-26 289.25,-6 363.75,-6 363.75,-26"/>
<text text-anchor="middle" x="326.5" y="-12.5" font-family="Helvetica,sans-Serif" font-size="10.00">src/video.cpp</text>
</a>
</g>
</g>
<!-- Node8&#45;&gt;Node20 -->
<g id="edge21_Node000008_Node000020" class="edge">
<title>Node8&#45;&gt;Node20</title>
<g id="a_edge21_Node000008_Node000020"><a xlink:title=" ">
<path fill="none" stroke="#63b8ff" d="M629.36,-77.18C569.41,-69.3 462.93,-53.68 373.5,-32 367.01,-30.43 360.11,-28.42 353.65,-26.39"/>
<polygon fill="#63b8ff" stroke="#63b8ff" points="628.85,-80.64 639.21,-78.46 629.75,-73.7 628.85,-80.64"/>
</a>
</g>
</g>
</g>
</svg>

<g id="navigator" transform="translate(0 0)" fill="#404254">
  <rect fill="#f2f5e9" fill-opacity="0.5" stroke="#606060" stroke-width=".5" x="0" y="0" width="60" height="60"/>
  <use id="zoomplus" xlink:href="#zoomPlus" x="17" y="9" onmousedown="handleZoom(evt,'in')"/>
  <use id="zoomminus" xlink:href="#zoomMin" x="42" y="9" onmousedown="handleZoom(evt,'out')"/>
  <use id="reset" xlink:href="#resetDef" x="30" y="36" onmousedown="handleReset()"/>
   <use id="arrowup" xlink:href="#arrowUp" x="0" y="0" onmousedown="handlePan(0,-1)"/>
  <use id="arrowright" xlink:href="#arrowRight" x="0" y="0" onmousedown="handlePan(1,0)"/>
  <use id="arrowdown" xlink:href="#arrowDown" x="0" y="0" onmousedown="handlePan(0,1)"/>
  <use id="arrowleft" xlink:href="#arrowLeft" x="0" y="0" onmousedown="handlePan(-1,0)"/>
</g>
<svg viewBox="0 0 15 15" width="100%" height="30px" preserveAspectRatio="xMaxYMin meet">
 <g id="arrow_out" transform="scale(0.3 0.3)">
  <a xlink:href="move__by__copy_8h__dep__incl_org.svg" target="_base">
   <rect id="button" ry="5" rx="5" y="6" x="6" height="38" width="38"
        fill="#f2f5e9" fill-opacity="0.5" stroke="#606060" stroke-width="1.0"/>
   <path id="arrow"
     d="M 11.500037,31.436501 C 11.940474,20.09759 22.043105,11.32322 32.158766,21.979434 L 37.068811,17.246167 C 37.068811,17.246167 37.088388,32 37.088388,32 L 22.160133,31.978069 C 22.160133,31.978069 26.997745,27.140456 26.997745,27.140456 C 18.528582,18.264221 13.291696,25.230495 11.500037,31.436501 z"
     style="fill:#404040;"/>
  </a>
 </g>
</svg>

<style type='text/css'>
<![CDATA[
[data-mouse-over-selected='false'] { opacity: 0.7; }
[data-mouse-over-selected='true']  { opacity: 1.0; }
]]>
</style>
<script type="application/ecmascript"><![CDATA[
document.addEventListener('DOMContentLoaded', (event) => {
  highlightEdges();
  highlightAdjacentNodes();
});
]]></script>
</svg>
