<?xml version="1.0" encoding="UTF-8" standalone="no"?>
<!DOCTYPE svg PUBLIC "-//W3C//DTD SVG 1.1//EN"
 "http://www.w3.org/Graphics/SVG/1.1/DTD/svg11.dtd">
<!-- Generated by graphviz version 12.2.1 (0)
 -->
<!-- Title: src/network.cpp Pages: 1 -->
<!--zoomable 196 -->

<svg id="main" version="1.1" xmlns="http://www.w3.org/2000/svg" xmlns:xlink="http://www.w3.org/1999/xlink" xml:space="preserve" onload="init(evt)">

<style type="text/css"><![CDATA[
.node, .edge {opacity: 0.7;}
.node.selected, .edge.selected {opacity: 1;}
.edge:hover path { stroke: red; }
.edge:hover polygon { stroke: red; fill: red; }
]]></style>

<defs>
  <circle id="rim" cx="0" cy="0" r="7"/>
  <circle id="rim2" cx="0" cy="0" r="3.5"/>
  <g id="zoomPlus">
    <use xlink:href="#rim" fill="#404040"><set attributeName="fill" to="#808080" begin="zoomplus.mouseover" end="zoomplus.mouseout"/></use>
    <path d="M-4,0h8M0,-4v8" fill="none" stroke="white" stroke-width="1.5" pointer-events="none"/>
  </g>
  <g id="zoomMin">
    <use xlink:href="#rim" fill="#404040"><set attributeName="fill" to="#808080" begin="zoomminus.mouseover" end="zoomminus.mouseout"/></use>
    <path d="M-4,0h8" fill="none" stroke="white" stroke-width="1.5" pointer-events="none"/>
  </g>
  <g id="arrowUp" transform="translate(30 24)">
    <use xlink:href="#rim"/>
    <path pointer-events="none" fill="none" stroke="white" stroke-width="1.5" d="M0,-3.0v7 M-2.5,-0.5L0,-3.0L2.5,-0.5"/>
  </g>
  <g id="arrowRight" transform="rotate(90) translate(36 -43)">
    <use xlink:href="#rim"/>
    <path pointer-events="none" fill="none" stroke="white" stroke-width="1.5" d="M0,-3.0v7 M-2.5,-0.5L0,-3.0L2.5,-0.5"/>
  </g>
  <g id="arrowDown" transform="rotate(180) translate(-30 -48)">
    <use xlink:href="#rim"/>
    <path pointer-events="none" fill="none" stroke="white" stroke-width="1.5" d="M0,-3.0v7 M-2.5,-0.5L0,-3.0L2.5,-0.5"/>
  </g>
  <g id="arrowLeft" transform="rotate(270) translate(-36 17)">
    <use xlink:href="#rim"/>
    <path pointer-events="none" fill="none" stroke="white" stroke-width="1.5" d="M0,-3.0v7 M-2.5,-0.5L0,-3.0L2.5,-0.5"/>
  </g>
  <g id="resetDef">
    <use xlink:href="#rim2" fill="#404040"><set attributeName="fill" to="#808080" begin="reset.mouseover" end="reset.mouseout"/></use>
  </g>
</defs>
<script type="application/ecmascript">
var viewWidth = 1383;
var viewHeight = 196;
var sectionId = 'dynsection-0';
</script>
<script type="application/ecmascript" xlink:href="svg.min.js"/>
<svg id="graph" class="graph">
<g id="viewport">
<title>src/network.cpp</title>
<!-- Node1 -->
<g id="Node000001" class="node">
<title>Node1</title>
<g id="a_Node000001"><a xlink:title="Definitions for networking related functions.">
<polygon fill="#999999" stroke="#666666" points="902.25,-188 816.5,-188 816.5,-168 902.25,-168 902.25,-188"/>
<text text-anchor="middle" x="859.38" y="-174.5" font-family="Helvetica,sans-Serif" font-size="10.00">src/network.cpp</text>
</a>
</g>
</g>
<!-- Node2 -->
<g id="Node000002" class="node">
<title>Node2</title>
<g id="a_Node000002"><a xlink:title=" ">
<polygon fill="#e0e0e0" stroke="#999999" points="836.25,-20 780.5,-20 780.5,0 836.25,0 836.25,-20"/>
<text text-anchor="middle" x="808.38" y="-6.5" font-family="Helvetica,sans-Serif" font-size="10.00">algorithm</text>
</a>
</g>
</g>
<!-- Node1&#45;&gt;Node2 -->
<g id="edge1_Node000001_Node000002" class="edge">
<title>Node1&#45;&gt;Node2</title>
<g id="a_edge1_Node000001_Node000002"><a xlink:title=" ">
<path fill="none" stroke="#63b8ff" d="M856.49,-167.6C848.42,-141.35 825.53,-66.84 814.48,-30.89"/>
<polygon fill="#63b8ff" stroke="#63b8ff" points="817.96,-30.28 811.68,-21.74 811.27,-32.33 817.96,-30.28"/>
</a>
</g>
</g>
<!-- Node3 -->
<g id="Node000003" class="node">
<title>Node3</title>
<g id="a_Node000003"><a xlink:title=" ">
<polygon fill="#e0e0e0" stroke="#999999" points="1065,-132 1013.75,-132 1013.75,-112 1065,-112 1065,-132"/>
<text text-anchor="middle" x="1039.38" y="-118.5" font-family="Helvetica,sans-Serif" font-size="10.00">sstream</text>
</a>
</g>
</g>
<!-- Node1&#45;&gt;Node3 -->
<g id="edge2_Node000001_Node000003" class="edge">
<title>Node1&#45;&gt;Node3</title>
<g id="a_edge2_Node000001_Node000003"><a xlink:title=" ">
<path fill="none" stroke="#63b8ff" d="M890.73,-167.59C921.81,-158.27 969.43,-143.98 1002.36,-134.11"/>
<polygon fill="#63b8ff" stroke="#63b8ff" points="1003.32,-137.47 1011.89,-131.25 1001.31,-130.77 1003.32,-137.47"/>
</a>
</g>
</g>
<!-- Node4 -->
<g id="Node000004" class="node">
<title>Node4</title>
<g id="a_Node000004"><a xlink:href="config_8h.html" target="_top" xlink:title="Declarations for the configuration of Sunshine.">
<polygon fill="white" stroke="#666666" points="454.62,-76 404.12,-76 404.12,-56 454.62,-56 454.62,-76"/>
<text text-anchor="middle" x="429.38" y="-62.5" font-family="Helvetica,sans-Serif" font-size="10.00">config.h</text>
</a>
</g>
</g>
<!-- Node1&#45;&gt;Node4 -->
<g id="edge3_Node000001_Node000004" class="edge">
<title>Node1&#45;&gt;Node4</title>
<g id="a_edge3_Node000001_Node000004"><a xlink:title=" ">
<path fill="none" stroke="#63b8ff" d="M816.26,-172.4C763.5,-166.14 671.75,-153.22 595.38,-132 546.75,-118.49 492.72,-95.82 459.9,-81.14"/>
<polygon fill="#63b8ff" stroke="#63b8ff" points="461.55,-78.04 451,-77.11 458.67,-84.42 461.55,-78.04"/>
</a>
</g>
</g>
<!-- Node12 -->
<g id="Node000012" class="node">
<title>Node12</title>
<g id="a_Node000012"><a xlink:href="logging_8h.html" target="_top" xlink:title="Declarations for logging related functions.">
<polygon fill="white" stroke="#666666" points="659.88,-132 604.88,-132 604.88,-112 659.88,-112 659.88,-132"/>
<text text-anchor="middle" x="632.38" y="-118.5" font-family="Helvetica,sans-Serif" font-size="10.00">logging.h</text>
</a>
</g>
</g>
<!-- Node1&#45;&gt;Node12 -->
<g id="edge11_Node000001_Node000012" class="edge">
<title>Node1&#45;&gt;Node12</title>
<g id="a_edge11_Node000001_Node000012"><a xlink:title=" ">
<path fill="none" stroke="#63b8ff" d="M819.57,-167.53C777.85,-157.61 712.71,-142.11 671.31,-132.26"/>
<polygon fill="#63b8ff" stroke="#63b8ff" points="672.32,-128.9 661.78,-129.99 670.7,-135.71 672.32,-128.9"/>
</a>
</g>
</g>
<!-- Node19 -->
<g id="Node000019" class="node">
<title>Node19</title>
<g id="a_Node000019"><a xlink:href="network_8h.html" target="_top" xlink:title="Declarations for networking related functions.">
<polygon fill="white" stroke="#666666" points="995.75,-132 937,-132 937,-112 995.75,-112 995.75,-132"/>
<text text-anchor="middle" x="966.38" y="-118.5" font-family="Helvetica,sans-Serif" font-size="10.00">network.h</text>
</a>
</g>
</g>
<!-- Node1&#45;&gt;Node19 -->
<g id="edge20_Node000001_Node000019" class="edge">
<title>Node1&#45;&gt;Node19</title>
<g id="a_edge20_Node000001_Node000019"><a xlink:title=" ">
<path fill="none" stroke="#63b8ff" d="M878.01,-167.59C894.41,-159.32 918.53,-147.14 937.44,-137.6"/>
<polygon fill="#63b8ff" stroke="#63b8ff" points="938.89,-140.79 946.24,-133.16 935.74,-134.54 938.89,-140.79"/>
</a>
</g>
</g>
<!-- Node24 -->
<g id="Node000024" class="node">
<title>Node24</title>
<g id="a_Node000024"><a xlink:href="utility_8h.html" target="_top" xlink:title="Declarations for utility functions.">
<polygon fill="white" stroke="#666666" points="908.75,-76 862,-76 862,-56 908.75,-56 908.75,-76"/>
<text text-anchor="middle" x="885.38" y="-62.5" font-family="Helvetica,sans-Serif" font-size="10.00">utility.h</text>
</a>
</g>
</g>
<!-- Node1&#45;&gt;Node24 -->
<g id="edge37_Node000001_Node000024" class="edge">
<title>Node1&#45;&gt;Node24</title>
<g id="a_edge37_Node000001_Node000024"><a xlink:title=" ">
<path fill="none" stroke="#63b8ff" d="M861.59,-167.62C865.77,-149.92 874.92,-111.24 880.57,-87.32"/>
<polygon fill="#63b8ff" stroke="#63b8ff" points="883.92,-88.36 882.82,-77.83 877.11,-86.75 883.92,-88.36"/>
</a>
</g>
</g>
<!-- Node5 -->
<g id="Node000005" class="node">
<title>Node5</title>
<g id="a_Node000005"><a xlink:title=" ">
<polygon fill="#e0e0e0" stroke="#999999" points="270.38,-20 230.38,-20 230.38,0 270.38,0 270.38,-20"/>
<text text-anchor="middle" x="250.38" y="-6.5" font-family="Helvetica,sans-Serif" font-size="10.00">bitset</text>
</a>
</g>
</g>
<!-- Node4&#45;&gt;Node5 -->
<g id="edge4_Node000004_Node000005" class="edge">
<title>Node4&#45;&gt;Node5</title>
<g id="a_edge4_Node000004_Node000005"><a xlink:title=" ">
<path fill="none" stroke="#63b8ff" d="M403.87,-57.43C376.05,-49.15 329.93,-35.38 281.37,-20.59"/>
<polygon fill="#63b8ff" stroke="#63b8ff" points="282.68,-17.33 272.1,-17.76 280.64,-24.03 282.68,-17.33"/>
</a>
</g>
</g>
<!-- Node6 -->
<g id="Node000006" class="node">
<title>Node6</title>
<g id="a_Node000006"><a xlink:title=" ">
<polygon fill="#e0e0e0" stroke="#999999" points="334,-20 288.75,-20 288.75,0 334,0 334,-20"/>
<text text-anchor="middle" x="311.38" y="-6.5" font-family="Helvetica,sans-Serif" font-size="10.00">chrono</text>
</a>
</g>
</g>
<!-- Node4&#45;&gt;Node6 -->
<g id="edge5_Node000004_Node000006" class="edge">
<title>Node4&#45;&gt;Node6</title>
<g id="a_edge5_Node000004_Node000006"><a xlink:title=" ">
<path fill="none" stroke="#63b8ff" d="M408.82,-55.59C390.49,-47.21 363.39,-34.8 342.42,-25.21"/>
<polygon fill="#63b8ff" stroke="#63b8ff" points="344.02,-22.09 333.47,-21.11 341.1,-28.45 344.02,-22.09"/>
</a>
</g>
</g>
<!-- Node7 -->
<g id="Node000007" class="node">
<title>Node7</title>
<g id="a_Node000007"><a xlink:title=" ">
<polygon fill="#e0e0e0" stroke="#999999" points="567.25,-20 517.5,-20 517.5,0 567.25,0 567.25,-20"/>
<text text-anchor="middle" x="542.38" y="-6.5" font-family="Helvetica,sans-Serif" font-size="10.00">optional</text>
</a>
</g>
</g>
<!-- Node4&#45;&gt;Node7 -->
<g id="edge6_Node000004_Node000007" class="edge">
<title>Node4&#45;&gt;Node7</title>
<g id="a_edge6_Node000004_Node000007"><a xlink:title=" ">
<path fill="none" stroke="#63b8ff" d="M449.06,-55.59C466.53,-47.24 492.33,-34.92 512.37,-25.34"/>
<polygon fill="#63b8ff" stroke="#63b8ff" points="513.66,-28.6 521.17,-21.13 510.64,-22.29 513.66,-28.6"/>
</a>
</g>
</g>
<!-- Node8 -->
<g id="Node000008" class="node">
<title>Node8</title>
<g id="a_Node000008"><a xlink:title=" ">
<polygon fill="#e0e0e0" stroke="#999999" points="499.38,-20 459.38,-20 459.38,0 499.38,0 499.38,-20"/>
<text text-anchor="middle" x="479.38" y="-6.5" font-family="Helvetica,sans-Serif" font-size="10.00">string</text>
</a>
</g>
</g>
<!-- Node4&#45;&gt;Node8 -->
<g id="edge7_Node000004_Node000008" class="edge">
<title>Node4&#45;&gt;Node8</title>
<g id="a_edge7_Node000004_Node000008"><a xlink:title=" ">
<path fill="none" stroke="#63b8ff" d="M438.08,-55.59C444.97,-48.16 454.77,-37.58 463.09,-28.58"/>
<polygon fill="#63b8ff" stroke="#63b8ff" points="465.51,-31.12 469.74,-21.41 460.37,-26.37 465.51,-31.12"/>
</a>
</g>
</g>
<!-- Node9 -->
<g id="Node000009" class="node">
<title>Node9</title>
<g id="a_Node000009"><a xlink:title=" ">
<polygon fill="#e0e0e0" stroke="#999999" points="82.75,-20 0,-20 0,0 82.75,0 82.75,-20"/>
<text text-anchor="middle" x="41.38" y="-6.5" font-family="Helvetica,sans-Serif" font-size="10.00">unordered_map</text>
</a>
</g>
</g>
<!-- Node4&#45;&gt;Node9 -->
<g id="edge8_Node000004_Node000009" class="edge">
<title>Node4&#45;&gt;Node9</title>
<g id="a_edge8_Node000004_Node000009"><a xlink:title=" ">
<path fill="none" stroke="#63b8ff" d="M403.88,-62.01C349.15,-55.51 216.14,-39.24 94.45,-20.43"/>
<polygon fill="#63b8ff" stroke="#63b8ff" points="95.01,-16.97 84.59,-18.89 93.93,-23.89 95.01,-16.97"/>
</a>
</g>
</g>
<!-- Node10 -->
<g id="Node000010" class="node">
<title>Node10</title>
<g id="a_Node000010"><a xlink:title=" ">
<polygon fill="#e0e0e0" stroke="#999999" points="627.88,-20 584.88,-20 584.88,0 627.88,0 627.88,-20"/>
<text text-anchor="middle" x="606.38" y="-6.5" font-family="Helvetica,sans-Serif" font-size="10.00">vector</text>
</a>
</g>
</g>
<!-- Node4&#45;&gt;Node10 -->
<g id="edge9_Node000004_Node000010" class="edge">
<title>Node4&#45;&gt;Node10</title>
<g id="a_edge9_Node000004_Node000010"><a xlink:title=" ">
<path fill="none" stroke="#63b8ff" d="M455.11,-57.15C486.47,-47.58 539.48,-31.41 573.69,-20.97"/>
<polygon fill="#63b8ff" stroke="#63b8ff" points="574.52,-24.38 583.07,-18.11 572.48,-17.68 574.52,-24.38"/>
</a>
</g>
</g>
<!-- Node11 -->
<g id="Node000011" class="node">
<title>Node11</title>
<g id="a_Node000011"><a xlink:href="nvenc__config_8h.html" target="_top" xlink:title="Declarations for NVENC encoder configuration.">
<polygon fill="white" stroke="#666666" points="212,-20 100.75,-20 100.75,0 212,0 212,-20"/>
<text text-anchor="middle" x="156.38" y="-6.5" font-family="Helvetica,sans-Serif" font-size="10.00">nvenc/nvenc_config.h</text>
</a>
</g>
</g>
<!-- Node4&#45;&gt;Node11 -->
<g id="edge10_Node000004_Node000011" class="edge">
<title>Node4&#45;&gt;Node11</title>
<g id="a_edge10_Node000004_Node000011"><a xlink:title=" ">
<path fill="none" stroke="#63b8ff" d="M403.69,-59.92C360.86,-51.45 273.77,-34.22 215.23,-22.64"/>
<polygon fill="#63b8ff" stroke="#63b8ff" points="216.26,-19.28 205.77,-20.77 214.9,-26.15 216.26,-19.28"/>
</a>
</g>
</g>
<!-- Node12&#45;&gt;Node4 -->
<g id="edge14_Node000012_Node000004" class="edge">
<title>Node12&#45;&gt;Node4</title>
<g id="a_edge14_Node000012_Node000004"><a xlink:title=" ">
<path fill="none" stroke="#63b8ff" d="M604.57,-113.6C568.6,-104.04 505.83,-87.34 466,-76.74"/>
<polygon fill="#63b8ff" stroke="#63b8ff" points="466.95,-73.37 456.38,-74.18 465.15,-80.14 466.95,-73.37"/>
</a>
</g>
</g>
<!-- Node13 -->
<g id="Node000013" class="node">
<title>Node13</title>
<g id="a_Node000013"><a xlink:title=" ">
<polygon fill="#e0e0e0" stroke="#999999" points="805.88,-76 690.88,-76 690.88,-56 805.88,-56 805.88,-76"/>
<text text-anchor="middle" x="748.38" y="-62.5" font-family="Helvetica,sans-Serif" font-size="10.00">boost/log/common.hpp</text>
</a>
</g>
</g>
<!-- Node12&#45;&gt;Node13 -->
<g id="edge12_Node000012_Node000013" class="edge">
<title>Node12&#45;&gt;Node13</title>
<g id="a_edge12_Node000012_Node000013"><a xlink:title=" ">
<path fill="none" stroke="#63b8ff" d="M652.58,-111.59C670.6,-103.21 697.24,-90.8 717.86,-81.21"/>
<polygon fill="#63b8ff" stroke="#63b8ff" points="719.05,-84.51 726.64,-77.12 716.1,-78.17 719.05,-84.51"/>
</a>
</g>
</g>
<!-- Node14 -->
<g id="Node000014" class="node">
<title>Node14</title>
<g id="a_Node000014"><a xlink:title=" ">
<polygon fill="#e0e0e0" stroke="#999999" points="573.75,-76 473,-76 473,-56 573.75,-56 573.75,-76"/>
<text text-anchor="middle" x="523.38" y="-62.5" font-family="Helvetica,sans-Serif" font-size="10.00">boost/log/sinks.hpp</text>
</a>
</g>
</g>
<!-- Node12&#45;&gt;Node14 -->
<g id="edge13_Node000012_Node000014" class="edge">
<title>Node12&#45;&gt;Node14</title>
<g id="a_edge13_Node000012_Node000014"><a xlink:title=" ">
<path fill="none" stroke="#63b8ff" d="M613.39,-111.59C596.61,-103.28 571.88,-91.03 552.59,-81.47"/>
<polygon fill="#63b8ff" stroke="#63b8ff" points="554.38,-78.45 543.87,-77.15 551.27,-84.73 554.38,-78.45"/>
</a>
</g>
</g>
<!-- Node15 -->
<g id="Node000015" class="node">
<title>Node15</title>
<g id="a_Node000015"><a xlink:href="stat__trackers_8h.html" target="_top" xlink:title="Declarations for streaming statistic tracking.">
<polygon fill="white" stroke="#666666" points="673,-76 591.75,-76 591.75,-56 673,-56 673,-76"/>
<text text-anchor="middle" x="632.38" y="-62.5" font-family="Helvetica,sans-Serif" font-size="10.00">stat_trackers.h</text>
</a>
</g>
</g>
<!-- Node12&#45;&gt;Node15 -->
<g id="edge15_Node000012_Node000015" class="edge">
<title>Node12&#45;&gt;Node15</title>
<g id="a_edge15_Node000012_Node000015"><a xlink:title=" ">
<path fill="none" stroke="#63b8ff" d="M632.38,-111.59C632.38,-105.01 632.38,-95.96 632.38,-87.73"/>
<polygon fill="#63b8ff" stroke="#63b8ff" points="635.88,-87.81 632.38,-77.81 628.88,-87.81 635.88,-87.81"/>
</a>
</g>
</g>
<!-- Node15&#45;&gt;Node6 -->
<g id="edge16_Node000015_Node000006" class="edge">
<title>Node15&#45;&gt;Node6</title>
<g id="a_edge16_Node000015_Node000006"><a xlink:title=" ">
<path fill="none" stroke="#63b8ff" d="M591.46,-57.54C588.39,-57.01 585.33,-56.49 582.38,-56 479.49,-39.03 449.7,-42.8 345.33,-20.43"/>
<polygon fill="#63b8ff" stroke="#63b8ff" points="346.3,-17.06 335.79,-18.35 344.82,-23.9 346.3,-17.06"/>
</a>
</g>
</g>
<!-- Node16 -->
<g id="Node000016" class="node">
<title>Node16</title>
<g id="a_Node000016"><a xlink:title=" ">
<polygon fill="#e0e0e0" stroke="#999999" points="704.38,-20 646.38,-20 646.38,0 704.38,0 704.38,-20"/>
<text text-anchor="middle" x="675.38" y="-6.5" font-family="Helvetica,sans-Serif" font-size="10.00">functional</text>
</a>
</g>
</g>
<!-- Node15&#45;&gt;Node16 -->
<g id="edge17_Node000015_Node000016" class="edge">
<title>Node15&#45;&gt;Node16</title>
<g id="a_edge17_Node000015_Node000016"><a xlink:title=" ">
<path fill="none" stroke="#63b8ff" d="M639.87,-55.59C645.66,-48.32 653.86,-38.02 660.92,-29.15"/>
<polygon fill="#63b8ff" stroke="#63b8ff" points="663.54,-31.49 667.03,-21.48 658.06,-27.12 663.54,-31.49"/>
</a>
</g>
</g>
<!-- Node17 -->
<g id="Node000017" class="node">
<title>Node17</title>
<g id="a_Node000017"><a xlink:title=" ">
<polygon fill="#e0e0e0" stroke="#999999" points="762,-20 722.75,-20 722.75,0 762,0 762,-20"/>
<text text-anchor="middle" x="742.38" y="-6.5" font-family="Helvetica,sans-Serif" font-size="10.00">limits</text>
</a>
</g>
</g>
<!-- Node15&#45;&gt;Node17 -->
<g id="edge18_Node000015_Node000017" class="edge">
<title>Node15&#45;&gt;Node17</title>
<g id="a_edge18_Node000015_Node000017"><a xlink:title=" ">
<path fill="none" stroke="#63b8ff" d="M651.54,-55.59C668.47,-47.28 693.42,-35.03 712.9,-25.47"/>
<polygon fill="#63b8ff" stroke="#63b8ff" points="714.27,-28.7 721.71,-21.15 711.19,-22.41 714.27,-28.7"/>
</a>
</g>
</g>
<!-- Node18 -->
<g id="Node000018" class="node">
<title>Node18</title>
<g id="a_Node000018"><a xlink:title=" ">
<polygon fill="#e0e0e0" stroke="#999999" points="441.12,-20 351.62,-20 351.62,0 441.12,0 441.12,-20"/>
<text text-anchor="middle" x="396.38" y="-6.5" font-family="Helvetica,sans-Serif" font-size="10.00">boost/format.hpp</text>
</a>
</g>
</g>
<!-- Node15&#45;&gt;Node18 -->
<g id="edge19_Node000015_Node000018" class="edge">
<title>Node15&#45;&gt;Node18</title>
<g id="a_edge19_Node000015_Node000018"><a xlink:title=" ">
<path fill="none" stroke="#63b8ff" d="M591.27,-55.59C551.75,-46.55 491.84,-32.84 448.89,-23.02"/>
<polygon fill="#63b8ff" stroke="#63b8ff" points="449.81,-19.64 439.28,-20.82 448.25,-26.46 449.81,-19.64"/>
</a>
</g>
</g>
<!-- Node20 -->
<g id="Node000020" class="node">
<title>Node20</title>
<g id="a_Node000020"><a xlink:title=" ">
<polygon fill="#e0e0e0" stroke="#999999" points="1143.88,-76 1106.88,-76 1106.88,-56 1143.88,-56 1143.88,-76"/>
<text text-anchor="middle" x="1125.38" y="-62.5" font-family="Helvetica,sans-Serif" font-size="10.00">tuple</text>
</a>
</g>
</g>
<!-- Node19&#45;&gt;Node20 -->
<g id="edge21_Node000019_Node000020" class="edge">
<title>Node19&#45;&gt;Node20</title>
<g id="a_edge21_Node000019_Node000020"><a xlink:title=" ">
<path fill="none" stroke="#63b8ff" d="M994.07,-111.59C1022.5,-101.94 1066.6,-86.96 1095.73,-77.07"/>
<polygon fill="#63b8ff" stroke="#63b8ff" points="1096.69,-80.44 1105.03,-73.91 1094.43,-73.81 1096.69,-80.44"/>
</a>
</g>
</g>
<!-- Node21 -->
<g id="Node000021" class="node">
<title>Node21</title>
<g id="a_Node000021"><a xlink:title=" ">
<polygon fill="#e0e0e0" stroke="#999999" points="1201,-76 1161.75,-76 1161.75,-56 1201,-56 1201,-76"/>
<text text-anchor="middle" x="1181.38" y="-62.5" font-family="Helvetica,sans-Serif" font-size="10.00">utility</text>
</a>
</g>
</g>
<!-- Node19&#45;&gt;Node21 -->
<g id="edge22_Node000019_Node000021" class="edge">
<title>Node19&#45;&gt;Node21</title>
<g id="a_edge22_Node000019_Node000021"><a xlink:title=" ">
<path fill="none" stroke="#63b8ff" d="M996.13,-113.9C1040,-103.43 1119.64,-84.38 1150.75,-76.44"/>
<polygon fill="#63b8ff" stroke="#63b8ff" points="1151.31,-79.91 1160.08,-73.96 1149.52,-73.14 1151.31,-79.91"/>
</a>
</g>
</g>
<!-- Node22 -->
<g id="Node000022" class="node">
<title>Node22</title>
<g id="a_Node000022"><a xlink:title=" ">
<polygon fill="#e0e0e0" stroke="#999999" points="1006.25,-76 926.5,-76 926.5,-56 1006.25,-56 1006.25,-76"/>
<text text-anchor="middle" x="966.38" y="-62.5" font-family="Helvetica,sans-Serif" font-size="10.00">boost/asio.hpp</text>
</a>
</g>
</g>
<!-- Node19&#45;&gt;Node22 -->
<g id="edge23_Node000019_Node000022" class="edge">
<title>Node19&#45;&gt;Node22</title>
<g id="a_edge23_Node000019_Node000022"><a xlink:title=" ">
<path fill="none" stroke="#63b8ff" d="M966.38,-111.59C966.38,-105.01 966.38,-95.96 966.38,-87.73"/>
<polygon fill="#63b8ff" stroke="#63b8ff" points="969.88,-87.81 966.38,-77.81 962.88,-87.81 969.88,-87.81"/>
</a>
</g>
</g>
<!-- Node23 -->
<g id="Node000023" class="node">
<title>Node23</title>
<g id="a_Node000023"><a xlink:title=" ">
<polygon fill="#e0e0e0" stroke="#999999" points="1088.75,-76 1024,-76 1024,-56 1088.75,-56 1088.75,-76"/>
<text text-anchor="middle" x="1056.38" y="-62.5" font-family="Helvetica,sans-Serif" font-size="10.00">enet/enet.h</text>
</a>
</g>
</g>
<!-- Node19&#45;&gt;Node23 -->
<g id="edge24_Node000019_Node000023" class="edge">
<title>Node19&#45;&gt;Node23</title>
<g id="a_edge24_Node000019_Node000023"><a xlink:title=" ">
<path fill="none" stroke="#63b8ff" d="M982.05,-111.59C995.52,-103.51 1015.19,-91.71 1030.92,-82.27"/>
<polygon fill="#63b8ff" stroke="#63b8ff" points="1032.5,-85.4 1039.28,-77.26 1028.9,-79.4 1032.5,-85.4"/>
</a>
</g>
</g>
<!-- Node19&#45;&gt;Node24 -->
<g id="edge25_Node000019_Node000024" class="edge">
<title>Node19&#45;&gt;Node24</title>
<g id="a_edge25_Node000019_Node000024"><a xlink:title=" ">
<path fill="none" stroke="#63b8ff" d="M952.27,-111.59C940.38,-103.67 923.11,-92.16 909.1,-82.82"/>
<polygon fill="#63b8ff" stroke="#63b8ff" points="911.12,-79.95 900.85,-77.32 907.23,-85.78 911.12,-79.95"/>
</a>
</g>
</g>
<!-- Node24&#45;&gt;Node2 -->
<g id="edge26_Node000024_Node000002" class="edge">
<title>Node24&#45;&gt;Node2</title>
<g id="a_edge26_Node000024_Node000002"><a xlink:title=" ">
<path fill="none" stroke="#63b8ff" d="M871.96,-55.59C860.77,-47.74 844.56,-36.38 831.32,-27.09"/>
<polygon fill="#63b8ff" stroke="#63b8ff" points="833.33,-24.22 823.13,-21.35 829.31,-29.96 833.33,-24.22"/>
</a>
</g>
</g>
<!-- Node24&#45;&gt;Node7 -->
<g id="edge30_Node000024_Node000007" class="edge">
<title>Node24&#45;&gt;Node7</title>
<g id="a_edge30_Node000024_Node000007"><a xlink:title=" ">
<path fill="none" stroke="#63b8ff" d="M861.71,-61.95C802.58,-54.26 648.61,-33.87 578.77,-20.45"/>
<polygon fill="#63b8ff" stroke="#63b8ff" points="579.5,-17.03 569.01,-18.5 578.12,-23.89 579.5,-17.03"/>
</a>
</g>
</g>
<!-- Node24&#45;&gt;Node8 -->
<g id="edge32_Node000024_Node000008" class="edge">
<title>Node24&#45;&gt;Node8</title>
<g id="a_edge32_Node000024_Node000008"><a xlink:title=" ">
<path fill="none" stroke="#63b8ff" d="M861.73,-61.89C848.17,-60.13 830.82,-57.9 815.38,-56 682.62,-39.68 644.75,-48.01 510.93,-20.21"/>
<polygon fill="#63b8ff" stroke="#63b8ff" points="511.83,-16.82 501.33,-18.18 510.39,-23.67 511.83,-16.82"/>
</a>
</g>
</g>
<!-- Node24&#45;&gt;Node10 -->
<g id="edge36_Node000024_Node000010" class="edge">
<title>Node24&#45;&gt;Node10</title>
<g id="a_edge36_Node000024_Node000010"><a xlink:title=" ">
<path fill="none" stroke="#63b8ff" d="M861.61,-61.52C819.07,-55.12 726.92,-40.46 639.5,-20.29"/>
<polygon fill="#63b8ff" stroke="#63b8ff" points="640.32,-16.89 629.79,-18.02 638.73,-23.7 640.32,-16.89"/>
</a>
</g>
</g>
<!-- Node25 -->
<g id="Node000025" class="node">
<title>Node25</title>
<g id="a_Node000025"><a xlink:title=" ">
<polygon fill="#e0e0e0" stroke="#999999" points="1092.38,-20 998.38,-20 998.38,0 1092.38,0 1092.38,-20"/>
<text text-anchor="middle" x="1045.38" y="-6.5" font-family="Helvetica,sans-Serif" font-size="10.00">condition_variable</text>
</a>
</g>
</g>
<!-- Node24&#45;&gt;Node25 -->
<g id="edge27_Node000024_Node000025" class="edge">
<title>Node24&#45;&gt;Node25</title>
<g id="a_edge27_Node000024_Node000025"><a xlink:title=" ">
<path fill="none" stroke="#63b8ff" d="M908.98,-57.03C934.69,-48.36 976.19,-34.35 1006.67,-24.06"/>
<polygon fill="#63b8ff" stroke="#63b8ff" points="1007.57,-27.45 1015.92,-20.94 1005.33,-20.82 1007.57,-27.45"/>
</a>
</g>
</g>
<!-- Node26 -->
<g id="Node000026" class="node">
<title>Node26</title>
<g id="a_Node000026"><a xlink:title=" ">
<polygon fill="#e0e0e0" stroke="#999999" points="1162,-20 1110.75,-20 1110.75,0 1162,0 1162,-20"/>
<text text-anchor="middle" x="1136.38" y="-6.5" font-family="Helvetica,sans-Serif" font-size="10.00">memory</text>
</a>
</g>
</g>
<!-- Node24&#45;&gt;Node26 -->
<g id="edge28_Node000024_Node000026" class="edge">
<title>Node24&#45;&gt;Node26</title>
<g id="a_edge28_Node000024_Node000026"><a xlink:title=" ">
<path fill="none" stroke="#63b8ff" d="M909.08,-58.1C911.87,-57.36 914.68,-56.64 917.38,-56 995.11,-37.5 1018.22,-38.28 1099.65,-20.27"/>
<polygon fill="#63b8ff" stroke="#63b8ff" points="1099.95,-23.79 1108.95,-18.18 1098.42,-16.96 1099.95,-23.79"/>
</a>
</g>
</g>
<!-- Node27 -->
<g id="Node000027" class="node">
<title>Node27</title>
<g id="a_Node000027"><a xlink:title=" ">
<polygon fill="#e0e0e0" stroke="#999999" points="1222.88,-20 1179.88,-20 1179.88,0 1222.88,0 1222.88,-20"/>
<text text-anchor="middle" x="1201.38" y="-6.5" font-family="Helvetica,sans-Serif" font-size="10.00">mutex</text>
</a>
</g>
</g>
<!-- Node24&#45;&gt;Node27 -->
<g id="edge29_Node000024_Node000027" class="edge">
<title>Node24&#45;&gt;Node27</title>
<g id="a_edge29_Node000024_Node000027"><a xlink:title=" ">
<path fill="none" stroke="#63b8ff" d="M909.05,-57.96C911.85,-57.24 914.66,-56.57 917.38,-56 1025.46,-33.25 1057.99,-43.74 1168.57,-20.34"/>
<polygon fill="#63b8ff" stroke="#63b8ff" points="1169.01,-23.83 1178.04,-18.29 1167.53,-16.99 1169.01,-23.83"/>
</a>
</g>
</g>
<!-- Node28 -->
<g id="Node000028" class="node">
<title>Node28</title>
<g id="a_Node000028"><a xlink:title=" ">
<polygon fill="#e0e0e0" stroke="#999999" points="1292,-20 1240.75,-20 1240.75,0 1292,0 1292,-20"/>
<text text-anchor="middle" x="1266.38" y="-6.5" font-family="Helvetica,sans-Serif" font-size="10.00">ostream</text>
</a>
</g>
</g>
<!-- Node24&#45;&gt;Node28 -->
<g id="edge31_Node000024_Node000028" class="edge">
<title>Node24&#45;&gt;Node28</title>
<g id="a_edge31_Node000024_Node000028"><a xlink:title=" ">
<path fill="none" stroke="#63b8ff" d="M909.04,-57.89C911.83,-57.18 914.66,-56.53 917.38,-56 1052.13,-29.53 1091.89,-45.25 1229.52,-20.3"/>
<polygon fill="#63b8ff" stroke="#63b8ff" points="1229.79,-23.81 1238.99,-18.55 1228.52,-16.93 1229.79,-23.81"/>
</a>
</g>
</g>
<!-- Node29 -->
<g id="Node000029" class="node">
<title>Node29</title>
<g id="a_Node000029"><a xlink:title=" ">
<polygon fill="#e0e0e0" stroke="#999999" points="1375.12,-20 1309.62,-20 1309.62,0 1375.12,0 1375.12,-20"/>
<text text-anchor="middle" x="1342.38" y="-6.5" font-family="Helvetica,sans-Serif" font-size="10.00">string_view</text>
</a>
</g>
</g>
<!-- Node24&#45;&gt;Node29 -->
<g id="edge33_Node000024_Node000029" class="edge">
<title>Node24&#45;&gt;Node29</title>
<g id="a_edge33_Node000024_Node000029"><a xlink:title=" ">
<path fill="none" stroke="#63b8ff" d="M909.03,-57.83C911.82,-57.14 914.65,-56.51 917.38,-56 1082.28,-25.34 1129.97,-45.52 1298.07,-20.34"/>
<polygon fill="#63b8ff" stroke="#63b8ff" points="1298.47,-23.82 1307.83,-18.85 1297.41,-16.91 1298.47,-23.82"/>
</a>
</g>
</g>
<!-- Node30 -->
<g id="Node000030" class="node">
<title>Node30</title>
<g id="a_Node000030"><a xlink:title=" ">
<polygon fill="#e0e0e0" stroke="#999999" points="916.25,-20 854.5,-20 854.5,0 916.25,0 916.25,-20"/>
<text text-anchor="middle" x="885.38" y="-6.5" font-family="Helvetica,sans-Serif" font-size="10.00">type_traits</text>
</a>
</g>
</g>
<!-- Node24&#45;&gt;Node30 -->
<g id="edge34_Node000024_Node000030" class="edge">
<title>Node24&#45;&gt;Node30</title>
<g id="a_edge34_Node000024_Node000030"><a xlink:title=" ">
<path fill="none" stroke="#63b8ff" d="M885.38,-55.59C885.38,-49.01 885.38,-39.96 885.38,-31.73"/>
<polygon fill="#63b8ff" stroke="#63b8ff" points="888.88,-31.81 885.38,-21.81 881.88,-31.81 888.88,-31.81"/>
</a>
</g>
</g>
<!-- Node31 -->
<g id="Node000031" class="node">
<title>Node31</title>
<g id="a_Node000031"><a xlink:title=" ">
<polygon fill="#e0e0e0" stroke="#999999" points="980,-20 934.75,-20 934.75,0 980,0 980,-20"/>
<text text-anchor="middle" x="957.38" y="-6.5" font-family="Helvetica,sans-Serif" font-size="10.00">variant</text>
</a>
</g>
</g>
<!-- Node24&#45;&gt;Node31 -->
<g id="edge35_Node000024_Node000031" class="edge">
<title>Node24&#45;&gt;Node31</title>
<g id="a_edge35_Node000024_Node000031"><a xlink:title=" ">
<path fill="none" stroke="#63b8ff" d="M897.92,-55.59C908.34,-47.77 923.42,-36.46 935.79,-27.19"/>
<polygon fill="#63b8ff" stroke="#63b8ff" points="937.87,-30.01 943.77,-21.21 933.67,-24.41 937.87,-30.01"/>
</a>
</g>
</g>
</g>
</svg>

<g id="navigator" transform="translate(0 0)" fill="#404254">
  <rect fill="#f2f5e9" fill-opacity="0.5" stroke="#606060" stroke-width=".5" x="0" y="0" width="60" height="60"/>
  <use id="zoomplus" xlink:href="#zoomPlus" x="17" y="9" onmousedown="handleZoom(evt,'in')"/>
  <use id="zoomminus" xlink:href="#zoomMin" x="42" y="9" onmousedown="handleZoom(evt,'out')"/>
  <use id="reset" xlink:href="#resetDef" x="30" y="36" onmousedown="handleReset()"/>
   <use id="arrowup" xlink:href="#arrowUp" x="0" y="0" onmousedown="handlePan(0,-1)"/>
  <use id="arrowright" xlink:href="#arrowRight" x="0" y="0" onmousedown="handlePan(1,0)"/>
  <use id="arrowdown" xlink:href="#arrowDown" x="0" y="0" onmousedown="handlePan(0,1)"/>
  <use id="arrowleft" xlink:href="#arrowLeft" x="0" y="0" onmousedown="handlePan(-1,0)"/>
</g>
<svg viewBox="0 0 15 15" width="100%" height="30px" preserveAspectRatio="xMaxYMin meet">
 <g id="arrow_out" transform="scale(0.3 0.3)">
  <a xlink:href="network_8cpp__incl_org.svg" target="_base">
   <rect id="button" ry="5" rx="5" y="6" x="6" height="38" width="38"
        fill="#f2f5e9" fill-opacity="0.5" stroke="#606060" stroke-width="1.0"/>
   <path id="arrow"
     d="M 11.500037,31.436501 C 11.940474,20.09759 22.043105,11.32322 32.158766,21.979434 L 37.068811,17.246167 C 37.068811,17.246167 37.088388,32 37.088388,32 L 22.160133,31.978069 C 22.160133,31.978069 26.997745,27.140456 26.997745,27.140456 C 18.528582,18.264221 13.291696,25.230495 11.500037,31.436501 z"
     style="fill:#404040;"/>
  </a>
 </g>
</svg>

<style type='text/css'>
<![CDATA[
[data-mouse-over-selected='false'] { opacity: 0.7; }
[data-mouse-over-selected='true']  { opacity: 1.0; }
]]>
</style>
<script type="application/ecmascript"><![CDATA[
document.addEventListener('DOMContentLoaded', (event) => {
  highlightEdges();
  highlightAdjacentNodes();
});
]]></script>
</svg>
