<?xml version="1.0" encoding="UTF-8" standalone="no"?>
<!DOCTYPE svg PUBLIC "-//W3C//DTD SVG 1.1//EN"
 "http://www.w3.org/Graphics/SVG/1.1/DTD/svg11.dtd">
<!-- Generated by graphviz version 12.2.1 (0)
 -->
<!-- Title: src/platform/macos/nv12_zero_device.cpp Pages: 1 -->
<!--zoomable 400 -->

<svg id="main" version="1.1" xmlns="http://www.w3.org/2000/svg" xmlns:xlink="http://www.w3.org/1999/xlink" xml:space="preserve" onload="init(evt)">

<style type="text/css"><![CDATA[
.node, .edge {opacity: 0.7;}
.node.selected, .edge.selected {opacity: 1;}
.edge:hover path { stroke: red; }
.edge:hover polygon { stroke: red; fill: red; }
]]></style>

<defs>
  <circle id="rim" cx="0" cy="0" r="7"/>
  <circle id="rim2" cx="0" cy="0" r="3.5"/>
  <g id="zoomPlus">
    <use xlink:href="#rim" fill="#404040"><set attributeName="fill" to="#808080" begin="zoomplus.mouseover" end="zoomplus.mouseout"/></use>
    <path d="M-4,0h8M0,-4v8" fill="none" stroke="white" stroke-width="1.5" pointer-events="none"/>
  </g>
  <g id="zoomMin">
    <use xlink:href="#rim" fill="#404040"><set attributeName="fill" to="#808080" begin="zoomminus.mouseover" end="zoomminus.mouseout"/></use>
    <path d="M-4,0h8" fill="none" stroke="white" stroke-width="1.5" pointer-events="none"/>
  </g>
  <g id="arrowUp" transform="translate(30 24)">
    <use xlink:href="#rim"/>
    <path pointer-events="none" fill="none" stroke="white" stroke-width="1.5" d="M0,-3.0v7 M-2.5,-0.5L0,-3.0L2.5,-0.5"/>
  </g>
  <g id="arrowRight" transform="rotate(90) translate(36 -43)">
    <use xlink:href="#rim"/>
    <path pointer-events="none" fill="none" stroke="white" stroke-width="1.5" d="M0,-3.0v7 M-2.5,-0.5L0,-3.0L2.5,-0.5"/>
  </g>
  <g id="arrowDown" transform="rotate(180) translate(-30 -48)">
    <use xlink:href="#rim"/>
    <path pointer-events="none" fill="none" stroke="white" stroke-width="1.5" d="M0,-3.0v7 M-2.5,-0.5L0,-3.0L2.5,-0.5"/>
  </g>
  <g id="arrowLeft" transform="rotate(270) translate(-36 17)">
    <use xlink:href="#rim"/>
    <path pointer-events="none" fill="none" stroke="white" stroke-width="1.5" d="M0,-3.0v7 M-2.5,-0.5L0,-3.0L2.5,-0.5"/>
  </g>
  <g id="resetDef">
    <use xlink:href="#rim2" fill="#404040"><set attributeName="fill" to="#808080" begin="reset.mouseover" end="reset.mouseout"/></use>
  </g>
</defs>
<script type="application/ecmascript">
var viewWidth = 1485;
var viewHeight = 400;
var sectionId = 'dynsection-0';
</script>
<script type="application/ecmascript" xlink:href="svg.min.js"/>
<svg id="graph" class="graph">
<g id="viewport">
<title>src/platform/macos/nv12_zero_device.cpp</title>
<!-- Node1 -->
<g id="Node000001" class="node">
<title>Node1</title>
<g id="a_Node000001"><a xlink:title="Definitions for NV12 zero copy device on macOS.">
<polygon fill="#999999" stroke="#666666" points="967.25,-392 850.75,-392 850.75,-360 967.25,-360 967.25,-392"/>
<text text-anchor="start" x="858.75" y="-378.5" font-family="Helvetica,sans-Serif" font-size="10.00">src/platform/macos</text>
<text text-anchor="middle" x="909" y="-366.5" font-family="Helvetica,sans-Serif" font-size="10.00">/nv12_zero_device.cpp</text>
</a>
</g>
</g>
<!-- Node2 -->
<g id="Node000002" class="node">
<title>Node2</title>
<g id="a_Node000002"><a xlink:title=" ">
<polygon fill="#e0e0e0" stroke="#999999" points="716.62,-318 677.38,-318 677.38,-298 716.62,-298 716.62,-318"/>
<text text-anchor="middle" x="697" y="-304.5" font-family="Helvetica,sans-Serif" font-size="10.00">utility</text>
</a>
</g>
</g>
<!-- Node1&#45;&gt;Node2 -->
<g id="edge1_Node000001_Node000002" class="edge">
<title>Node1&#45;&gt;Node2</title>
<g id="a_edge1_Node000001_Node000002"><a xlink:title=" ">
<path fill="none" stroke="#63b8ff" d="M850.31,-361.91C813.91,-352.99 766.52,-339.93 726,-324 725.37,-323.75 724.74,-323.5 724.11,-323.23"/>
<polygon fill="#63b8ff" stroke="#63b8ff" points="725.82,-320.17 715.28,-319.12 722.86,-326.51 725.82,-320.17"/>
</a>
</g>
</g>
<!-- Node3 -->
<g id="Node000003" class="node">
<title>Node3</title>
<g id="a_Node000003"><a xlink:href="av__img__t_8h.html" target="_top" xlink:title="Declarations for AV image types on macOS.">
<polygon fill="white" stroke="#666666" points="959,-324 859,-324 859,-292 959,-292 959,-324"/>
<text text-anchor="start" x="867" y="-310.5" font-family="Helvetica,sans-Serif" font-size="10.00">src/platform/macos</text>
<text text-anchor="middle" x="909" y="-298.5" font-family="Helvetica,sans-Serif" font-size="10.00">/av_img_t.h</text>
</a>
</g>
</g>
<!-- Node1&#45;&gt;Node3 -->
<g id="edge2_Node000001_Node000003" class="edge">
<title>Node1&#45;&gt;Node3</title>
<g id="a_edge2_Node000001_Node000003"><a xlink:title=" ">
<path fill="none" stroke="#63b8ff" d="M909,-359.69C909,-352.53 909,-343.79 909,-335.59"/>
<polygon fill="#63b8ff" stroke="#63b8ff" points="912.5,-335.74 909,-325.74 905.5,-335.74 912.5,-335.74"/>
</a>
</g>
</g>
<!-- Node40 -->
<g id="Node000040" class="node">
<title>Node40</title>
<g id="a_Node000040"><a xlink:href="nv12__zero__device_8h.html" target="_top" xlink:title="Declarations for NV12 zero copy device on macOS.">
<polygon fill="white" stroke="#666666" points="841,-324 735,-324 735,-292 841,-292 841,-324"/>
<text text-anchor="start" x="743" y="-310.5" font-family="Helvetica,sans-Serif" font-size="10.00">src/platform/macos</text>
<text text-anchor="middle" x="788" y="-298.5" font-family="Helvetica,sans-Serif" font-size="10.00">/nv12_zero_device.h</text>
</a>
</g>
</g>
<!-- Node1&#45;&gt;Node40 -->
<g id="edge53_Node000001_Node000040" class="edge">
<title>Node1&#45;&gt;Node40</title>
<g id="a_edge53_Node000001_Node000040"><a xlink:title=" ">
<path fill="none" stroke="#63b8ff" d="M880.63,-359.53C864.4,-350.67 843.82,-339.45 826.18,-329.83"/>
<polygon fill="#63b8ff" stroke="#63b8ff" points="827.98,-326.82 817.52,-325.1 824.62,-332.96 827.98,-326.82"/>
</a>
</g>
</g>
<!-- Node41 -->
<g id="Node000041" class="node">
<title>Node41</title>
<g id="a_Node000041"><a xlink:href="video_8h.html" target="_top" xlink:title="Declarations for video.">
<polygon fill="white" stroke="#666666" points="1171,-318 1107,-318 1107,-298 1171,-298 1171,-318"/>
<text text-anchor="middle" x="1139" y="-304.5" font-family="Helvetica,sans-Serif" font-size="10.00">src/video.h</text>
</a>
</g>
</g>
<!-- Node1&#45;&gt;Node41 -->
<g id="edge55_Node000001_Node000041" class="edge">
<title>Node1&#45;&gt;Node41</title>
<g id="a_edge55_Node000001_Node000041"><a xlink:title=" ">
<path fill="none" stroke="#63b8ff" d="M962.92,-359.53C1003.53,-347.87 1058.44,-332.12 1096.09,-321.31"/>
<polygon fill="#63b8ff" stroke="#63b8ff" points="1096.6,-324.81 1105.25,-318.69 1094.67,-318.08 1096.6,-324.81"/>
</a>
</g>
</g>
<!-- Node45 -->
<g id="Node000045" class="node">
<title>Node45</title>
<g id="a_Node000045"><a xlink:title=" ">
<polygon fill="#e0e0e0" stroke="#999999" points="1283,-318 1189,-318 1189,-298 1283,-298 1283,-318"/>
<text text-anchor="middle" x="1236" y="-304.5" font-family="Helvetica,sans-Serif" font-size="10.00">libavutil/imgutils.h</text>
</a>
</g>
</g>
<!-- Node1&#45;&gt;Node45 -->
<g id="edge65_Node000001_Node000045" class="edge">
<title>Node1&#45;&gt;Node45</title>
<g id="a_edge65_Node000001_Node000045"><a xlink:title=" ">
<path fill="none" stroke="#63b8ff" d="M967.68,-365.28C1022.75,-355.84 1107.3,-340.55 1180,-324 1183.74,-323.15 1187.62,-322.22 1191.5,-321.25"/>
<polygon fill="#63b8ff" stroke="#63b8ff" points="1192.07,-324.72 1200.88,-318.83 1190.32,-317.94 1192.07,-324.72"/>
</a>
</g>
</g>
<!-- Node4 -->
<g id="Node000004" class="node">
<title>Node4</title>
<g id="a_Node000004"><a xlink:title=" ">
<polygon fill="#e0e0e0" stroke="#999999" points="925.88,-256 804.12,-256 804.12,-236 925.88,-236 925.88,-256"/>
<text text-anchor="middle" x="865" y="-242.5" font-family="Helvetica,sans-Serif" font-size="10.00">CoreMedia/CoreMedia.h</text>
</a>
</g>
</g>
<!-- Node3&#45;&gt;Node4 -->
<g id="edge3_Node000003_Node000004" class="edge">
<title>Node3&#45;&gt;Node4</title>
<g id="a_edge3_Node000003_Node000004"><a xlink:title=" ">
<path fill="none" stroke="#63b8ff" d="M897.67,-291.55C891.88,-283.65 884.78,-273.97 878.69,-265.66"/>
<polygon fill="#63b8ff" stroke="#63b8ff" points="881.53,-263.62 872.79,-257.63 875.89,-267.76 881.53,-263.62"/>
</a>
</g>
</g>
<!-- Node5 -->
<g id="Node000005" class="node">
<title>Node5</title>
<g id="a_Node000005"><a xlink:title=" ">
<polygon fill="#e0e0e0" stroke="#999999" points="786.38,-256 667.62,-256 667.62,-236 786.38,-236 786.38,-256"/>
<text text-anchor="middle" x="727" y="-242.5" font-family="Helvetica,sans-Serif" font-size="10.00">CoreVideo/CoreVideo.h</text>
</a>
</g>
</g>
<!-- Node3&#45;&gt;Node5 -->
<g id="edge4_Node000003_Node000005" class="edge">
<title>Node3&#45;&gt;Node5</title>
<g id="a_edge4_Node000003_Node000005"><a xlink:title=" ">
<path fill="none" stroke="#63b8ff" d="M862.13,-291.55C832.47,-281.77 794.56,-269.27 766.44,-260"/>
<polygon fill="#63b8ff" stroke="#63b8ff" points="767.84,-256.78 757.24,-256.97 765.64,-263.43 767.84,-256.78"/>
</a>
</g>
</g>
<!-- Node6 -->
<g id="Node000006" class="node">
<title>Node6</title>
<g id="a_Node000006"><a xlink:href="common_8h.html" target="_top" xlink:title="Declarations for common platform specific utilities.">
<polygon fill="white" stroke="#666666" points="1004.25,-200 887.75,-200 887.75,-180 1004.25,-180 1004.25,-200"/>
<text text-anchor="middle" x="946" y="-186.5" font-family="Helvetica,sans-Serif" font-size="10.00">src/platform/common.h</text>
</a>
</g>
</g>
<!-- Node3&#45;&gt;Node6 -->
<g id="edge5_Node000003_Node000006" class="edge">
<title>Node3&#45;&gt;Node6</title>
<g id="a_edge5_Node000003_Node000006"><a xlink:title=" ">
<path fill="none" stroke="#63b8ff" d="M918.24,-291.91C923.89,-282.02 930.82,-268.64 935,-256 939.75,-241.66 942.52,-224.82 944.1,-211.88"/>
<polygon fill="#63b8ff" stroke="#63b8ff" points="947.57,-212.29 945.14,-201.98 940.61,-211.56 947.57,-212.29"/>
</a>
</g>
</g>
<!-- Node7 -->
<g id="Node000007" class="node">
<title>Node7</title>
<g id="a_Node000007"><a xlink:title=" ">
<polygon fill="#e0e0e0" stroke="#999999" points="40,-20 0,-20 0,0 40,0 40,-20"/>
<text text-anchor="middle" x="20" y="-6.5" font-family="Helvetica,sans-Serif" font-size="10.00">bitset</text>
</a>
</g>
</g>
<!-- Node6&#45;&gt;Node7 -->
<g id="edge6_Node000006_Node000007" class="edge">
<title>Node6&#45;&gt;Node7</title>
<g id="a_edge6_Node000006_Node000007"><a xlink:title=" ">
<path fill="none" stroke="#63b8ff" d="M887.4,-187.93C747.89,-184.93 399.33,-174.5 287,-144 190.79,-117.87 88.3,-55.83 43.37,-26.67"/>
<polygon fill="#63b8ff" stroke="#63b8ff" points="45.5,-23.87 35.22,-21.31 41.66,-29.73 45.5,-23.87"/>
</a>
</g>
</g>
<!-- Node8 -->
<g id="Node000008" class="node">
<title>Node8</title>
<g id="a_Node000008"><a xlink:title=" ">
<polygon fill="#e0e0e0" stroke="#999999" points="702.5,-138 641.5,-138 641.5,-118 702.5,-118 702.5,-138"/>
<text text-anchor="middle" x="672" y="-124.5" font-family="Helvetica,sans-Serif" font-size="10.00">filesystem</text>
</a>
</g>
</g>
<!-- Node6&#45;&gt;Node8 -->
<g id="edge7_Node000006_Node000008" class="edge">
<title>Node6&#45;&gt;Node8</title>
<g id="a_edge7_Node000006_Node000008"><a xlink:title=" ">
<path fill="none" stroke="#63b8ff" d="M887.67,-180.59C839.94,-173.04 770.94,-160.59 712,-144 710,-143.44 707.96,-142.82 705.91,-142.16"/>
<polygon fill="#63b8ff" stroke="#63b8ff" points="707.07,-138.86 696.48,-138.89 704.78,-145.47 707.07,-138.86"/>
</a>
</g>
</g>
<!-- Node9 -->
<g id="Node000009" class="node">
<title>Node9</title>
<g id="a_Node000009"><a xlink:title=" ">
<polygon fill="#e0e0e0" stroke="#999999" points="1375,-20 1317,-20 1317,0 1375,0 1375,-20"/>
<text text-anchor="middle" x="1346" y="-6.5" font-family="Helvetica,sans-Serif" font-size="10.00">functional</text>
</a>
</g>
</g>
<!-- Node6&#45;&gt;Node9 -->
<g id="edge8_Node000006_Node000009" class="edge">
<title>Node6&#45;&gt;Node9</title>
<g id="a_edge8_Node000006_Node000009"><a xlink:title=" ">
<path fill="none" stroke="#63b8ff" d="M1004.73,-184.01C1055.14,-178.36 1129.08,-166.8 1190,-144 1245.61,-123.18 1262.41,-117.38 1305,-76 1318.59,-62.79 1329.72,-44.23 1336.94,-30.33"/>
<polygon fill="#63b8ff" stroke="#63b8ff" points="1339.9,-32.23 1341.19,-21.72 1333.62,-29.13 1339.9,-32.23"/>
</a>
</g>
</g>
<!-- Node10 -->
<g id="Node000010" class="node">
<title>Node10</title>
<g id="a_Node000010"><a xlink:title=" ">
<polygon fill="#e0e0e0" stroke="#999999" points="1298.5,-20 1255.5,-20 1255.5,0 1298.5,0 1298.5,-20"/>
<text text-anchor="middle" x="1277" y="-6.5" font-family="Helvetica,sans-Serif" font-size="10.00">mutex</text>
</a>
</g>
</g>
<!-- Node6&#45;&gt;Node10 -->
<g id="edge9_Node000006_Node000010" class="edge">
<title>Node6&#45;&gt;Node10</title>
<g id="a_edge9_Node000006_Node000010"><a xlink:title=" ">
<path fill="none" stroke="#63b8ff" d="M960.49,-179.61C973.59,-170.91 993.17,-157.33 1009,-144 1051.55,-108.16 1049.43,-83.12 1098,-56 1154.11,-24.68 1178.11,-36.1 1244.06,-20.29"/>
<polygon fill="#63b8ff" stroke="#63b8ff" points="1244.72,-23.74 1253.55,-17.88 1243,-16.95 1244.72,-23.74"/>
</a>
</g>
</g>
<!-- Node11 -->
<g id="Node000011" class="node">
<title>Node11</title>
<g id="a_Node000011"><a xlink:title=" ">
<polygon fill="#e0e0e0" stroke="#999999" points="624,-20 584,-20 584,0 624,0 624,-20"/>
<text text-anchor="middle" x="604" y="-6.5" font-family="Helvetica,sans-Serif" font-size="10.00">string</text>
</a>
</g>
</g>
<!-- Node6&#45;&gt;Node11 -->
<g id="edge10_Node000006_Node000011" class="edge">
<title>Node6&#45;&gt;Node11</title>
<g id="a_edge10_Node000006_Node000011"><a xlink:title=" ">
<path fill="none" stroke="#63b8ff" d="M887.29,-188.37C806.77,-186.25 667.92,-177.65 632,-144 601.1,-115.05 599.76,-61.34 601.72,-31.8"/>
<polygon fill="#63b8ff" stroke="#63b8ff" points="605.2,-32.21 602.59,-21.94 598.23,-31.6 605.2,-32.21"/>
</a>
</g>
</g>
<!-- Node12 -->
<g id="Node000012" class="node">
<title>Node12</title>
<g id="a_Node000012"><a xlink:title=" ">
<polygon fill="#e0e0e0" stroke="#999999" points="859.12,-138 720.88,-138 720.88,-118 859.12,-118 859.12,-138"/>
<text text-anchor="middle" x="790" y="-124.5" font-family="Helvetica,sans-Serif" font-size="10.00">boost/core/noncopyable.hpp</text>
</a>
</g>
</g>
<!-- Node6&#45;&gt;Node12 -->
<g id="edge11_Node000006_Node000012" class="edge">
<title>Node6&#45;&gt;Node12</title>
<g id="a_edge11_Node000006_Node000012"><a xlink:title=" ">
<path fill="none" stroke="#63b8ff" d="M921.62,-179.62C895.71,-169.66 854.5,-153.81 825.1,-142.5"/>
<polygon fill="#63b8ff" stroke="#63b8ff" points="826.46,-139.27 815.87,-138.95 823.95,-145.81 826.46,-139.27"/>
</a>
</g>
</g>
<!-- Node13 -->
<g id="Node000013" class="node">
<title>Node13</title>
<g id="a_Node000013"><a xlink:href="config_8h.html" target="_top" xlink:title="Declarations for the configuration of Sunshine.">
<polygon fill="white" stroke="#666666" points="233.5,-76 166.5,-76 166.5,-56 233.5,-56 233.5,-76"/>
<text text-anchor="middle" x="200" y="-62.5" font-family="Helvetica,sans-Serif" font-size="10.00">src/config.h</text>
</a>
</g>
</g>
<!-- Node6&#45;&gt;Node13 -->
<g id="edge12_Node000006_Node000013" class="edge">
<title>Node6&#45;&gt;Node13</title>
<g id="a_edge12_Node000006_Node000013"><a xlink:title=" ">
<path fill="none" stroke="#63b8ff" d="M887.39,-186.68C763.25,-181.37 477.43,-167.01 383,-144 325.03,-129.87 261.79,-99.65 226.91,-81.55"/>
<polygon fill="#63b8ff" stroke="#63b8ff" points="228.85,-78.62 218.37,-77.06 225.59,-84.81 228.85,-78.62"/>
</a>
</g>
</g>
<!-- Node19 -->
<g id="Node000019" class="node">
<title>Node19</title>
<g id="a_Node000019"><a xlink:href="logging_8h.html" target="_top" xlink:title="Declarations for logging related functions.">
<polygon fill="white" stroke="#666666" points="463.75,-138 392.25,-138 392.25,-118 463.75,-118 463.75,-138"/>
<text text-anchor="middle" x="428" y="-124.5" font-family="Helvetica,sans-Serif" font-size="10.00">src/logging.h</text>
</a>
</g>
</g>
<!-- Node6&#45;&gt;Node19 -->
<g id="edge20_Node000006_Node000019" class="edge">
<title>Node6&#45;&gt;Node19</title>
<g id="a_edge20_Node000006_Node000019"><a xlink:title=" ">
<path fill="none" stroke="#63b8ff" d="M887.33,-182.2C783.72,-170.2 570.3,-145.48 475.35,-134.48"/>
<polygon fill="#63b8ff" stroke="#63b8ff" points="475.94,-131.03 465.61,-133.36 475.14,-137.98 475.94,-131.03"/>
</a>
</g>
</g>
<!-- Node25 -->
<g id="Node000025" class="node">
<title>Node25</title>
<g id="a_Node000025"><a xlink:href="thread__safe_8h.html" target="_top" xlink:title="Declarations for thread&#45;safe data structures.">
<polygon fill="white" stroke="#666666" points="1180.88,-138 1089.12,-138 1089.12,-118 1180.88,-118 1180.88,-138"/>
<text text-anchor="middle" x="1135" y="-124.5" font-family="Helvetica,sans-Serif" font-size="10.00">src/thread_safe.h</text>
</a>
</g>
</g>
<!-- Node6&#45;&gt;Node25 -->
<g id="edge29_Node000006_Node000025" class="edge">
<title>Node6&#45;&gt;Node25</title>
<g id="a_edge29_Node000006_Node000025"><a xlink:title=" ">
<path fill="none" stroke="#63b8ff" d="M975.53,-179.62C1007.62,-169.44 1059.06,-153.11 1094.81,-141.76"/>
<polygon fill="#63b8ff" stroke="#63b8ff" points="1095.45,-145.23 1103.92,-138.87 1093.33,-138.56 1095.45,-145.23"/>
</a>
</g>
</g>
<!-- Node30 -->
<g id="Node000030" class="node">
<title>Node30</title>
<g id="a_Node000030"><a xlink:href="utility_8h.html" target="_top" xlink:title="Declarations for utility functions.">
<polygon fill="white" stroke="#666666" points="971.38,-76 924.62,-76 924.62,-56 971.38,-56 971.38,-76"/>
<text text-anchor="middle" x="948" y="-62.5" font-family="Helvetica,sans-Serif" font-size="10.00">utility.h</text>
</a>
</g>
</g>
<!-- Node6&#45;&gt;Node30 -->
<g id="edge49_Node000006_Node000030" class="edge">
<title>Node6&#45;&gt;Node30</title>
<g id="a_edge49_Node000006_Node000030"><a xlink:title=" ">
<path fill="none" stroke="#63b8ff" d="M960.99,-179.62C972.15,-171.67 986.52,-159.17 993,-144 998.59,-130.92 998.44,-125.14 993,-112 988.36,-100.79 979.41,-90.91 970.71,-83.29"/>
<polygon fill="#63b8ff" stroke="#63b8ff" points="973.09,-80.71 963.11,-77.15 968.69,-86.16 973.09,-80.71"/>
</a>
</g>
</g>
<!-- Node37 -->
<g id="Node000037" class="node">
<title>Node37</title>
<g id="a_Node000037"><a xlink:href="video__colorspace_8h.html" target="_top" xlink:title="Declarations for colorspace functions.">
<polygon fill="white" stroke="#666666" points="1452.25,-138 1335.75,-138 1335.75,-118 1452.25,-118 1452.25,-138"/>
<text text-anchor="middle" x="1394" y="-124.5" font-family="Helvetica,sans-Serif" font-size="10.00">src/video_colorspace.h</text>
</a>
</g>
</g>
<!-- Node6&#45;&gt;Node37 -->
<g id="edge50_Node000006_Node000037" class="edge">
<title>Node6&#45;&gt;Node37</title>
<g id="a_edge50_Node000006_Node000037"><a xlink:title=" ">
<path fill="none" stroke="#63b8ff" d="M1004.51,-183.58C1078.65,-176.34 1210.24,-162.29 1322,-144 1327.99,-143.02 1334.23,-141.89 1340.43,-140.69"/>
<polygon fill="#63b8ff" stroke="#63b8ff" points="1340.86,-144.17 1349.99,-138.79 1339.5,-137.31 1340.86,-144.17"/>
</a>
</g>
</g>
<!-- Node39 -->
<g id="Node000039" class="node">
<title>Node39</title>
<g id="a_Node000039"><a xlink:title=" ">
<polygon fill="#e0e0e0" stroke="#999999" points="984.38,-144 877.62,-144 877.62,-112 984.38,-112 984.38,-144"/>
<text text-anchor="start" x="885.62" y="-130.5" font-family="Helvetica,sans-Serif" font-size="10.00">moonlight&#45;common&#45;c</text>
<text text-anchor="middle" x="931" y="-118.5" font-family="Helvetica,sans-Serif" font-size="10.00">/src/Limelight.h</text>
</a>
</g>
</g>
<!-- Node6&#45;&gt;Node39 -->
<g id="edge52_Node000006_Node000039" class="edge">
<title>Node6&#45;&gt;Node39</title>
<g id="a_edge52_Node000006_Node000039"><a xlink:title=" ">
<path fill="none" stroke="#63b8ff" d="M943.66,-179.62C942.01,-173.02 939.71,-163.84 937.53,-155.11"/>
<polygon fill="#63b8ff" stroke="#63b8ff" points="940.97,-154.46 935.15,-145.61 934.18,-156.16 940.97,-154.46"/>
</a>
</g>
</g>
<!-- Node13&#45;&gt;Node7 -->
<g id="edge13_Node000013_Node000007" class="edge">
<title>Node13&#45;&gt;Node7</title>
<g id="a_edge13_Node000013_Node000007"><a xlink:title=" ">
<path fill="none" stroke="#63b8ff" d="M167.86,-55.54C139.48,-47.15 96.71,-34.46 51,-20.59"/>
<polygon fill="#63b8ff" stroke="#63b8ff" points="52.31,-17.32 41.72,-17.76 50.27,-24.02 52.31,-17.32"/>
</a>
</g>
</g>
<!-- Node13&#45;&gt;Node11 -->
<g id="edge16_Node000013_Node000011" class="edge">
<title>Node13&#45;&gt;Node11</title>
<g id="a_edge16_Node000013_Node000011"><a xlink:title=" ">
<path fill="none" stroke="#63b8ff" d="M233.74,-57.61C236.87,-57.03 239.99,-56.48 243,-56 386.01,-33.34 427.65,-49.31 572.46,-20.16"/>
<polygon fill="#63b8ff" stroke="#63b8ff" points="572.96,-23.63 582.05,-18.19 571.55,-16.78 572.96,-23.63"/>
</a>
</g>
</g>
<!-- Node14 -->
<g id="Node000014" class="node">
<title>Node14</title>
<g id="a_Node000014"><a xlink:title=" ">
<polygon fill="#e0e0e0" stroke="#999999" points="333.62,-20 288.38,-20 288.38,0 333.62,0 333.62,-20"/>
<text text-anchor="middle" x="311" y="-6.5" font-family="Helvetica,sans-Serif" font-size="10.00">chrono</text>
</a>
</g>
</g>
<!-- Node13&#45;&gt;Node14 -->
<g id="edge14_Node000013_Node000014" class="edge">
<title>Node13&#45;&gt;Node14</title>
<g id="a_edge14_Node000013_Node000014"><a xlink:title=" ">
<path fill="none" stroke="#63b8ff" d="M219.33,-55.59C236.42,-47.28 261.6,-35.03 281.25,-25.47"/>
<polygon fill="#63b8ff" stroke="#63b8ff" points="282.69,-28.66 290.15,-21.14 279.63,-22.37 282.69,-28.66"/>
</a>
</g>
</g>
<!-- Node15 -->
<g id="Node000015" class="node">
<title>Node15</title>
<g id="a_Node000015"><a xlink:title=" ">
<polygon fill="#e0e0e0" stroke="#999999" points="565.88,-20 516.12,-20 516.12,0 565.88,0 565.88,-20"/>
<text text-anchor="middle" x="541" y="-6.5" font-family="Helvetica,sans-Serif" font-size="10.00">optional</text>
</a>
</g>
</g>
<!-- Node13&#45;&gt;Node15 -->
<g id="edge15_Node000013_Node000015" class="edge">
<title>Node13&#45;&gt;Node15</title>
<g id="a_edge15_Node000013_Node000015"><a xlink:title=" ">
<path fill="none" stroke="#63b8ff" d="M233.76,-57.7C236.88,-57.1 239.99,-56.52 243,-56 356.16,-36.47 388.91,-42.78 504.73,-20.23"/>
<polygon fill="#63b8ff" stroke="#63b8ff" points="505.22,-23.7 514.35,-18.33 503.86,-16.84 505.22,-23.7"/>
</a>
</g>
</g>
<!-- Node16 -->
<g id="Node000016" class="node">
<title>Node16</title>
<g id="a_Node000016"><a xlink:title=" ">
<polygon fill="#e0e0e0" stroke="#999999" points="270.38,-20 187.62,-20 187.62,0 270.38,0 270.38,-20"/>
<text text-anchor="middle" x="229" y="-6.5" font-family="Helvetica,sans-Serif" font-size="10.00">unordered_map</text>
</a>
</g>
</g>
<!-- Node13&#45;&gt;Node16 -->
<g id="edge17_Node000013_Node000016" class="edge">
<title>Node13&#45;&gt;Node16</title>
<g id="a_edge17_Node000013_Node000016"><a xlink:title=" ">
<path fill="none" stroke="#63b8ff" d="M205.05,-55.59C208.79,-48.63 214.02,-38.89 218.64,-30.29"/>
<polygon fill="#63b8ff" stroke="#63b8ff" points="221.64,-32.1 223.29,-21.63 215.48,-28.79 221.64,-32.1"/>
</a>
</g>
</g>
<!-- Node17 -->
<g id="Node000017" class="node">
<title>Node17</title>
<g id="a_Node000017"><a xlink:title=" ">
<polygon fill="#e0e0e0" stroke="#999999" points="685.5,-20 642.5,-20 642.5,0 685.5,0 685.5,-20"/>
<text text-anchor="middle" x="664" y="-6.5" font-family="Helvetica,sans-Serif" font-size="10.00">vector</text>
</a>
</g>
</g>
<!-- Node13&#45;&gt;Node17 -->
<g id="edge18_Node000013_Node000017" class="edge">
<title>Node13&#45;&gt;Node17</title>
<g id="a_edge18_Node000013_Node000017"><a xlink:title=" ">
<path fill="none" stroke="#63b8ff" d="M233.74,-57.56C236.86,-56.98 239.98,-56.45 243,-56 411.52,-30.67 459.95,-51.5 630.94,-20.01"/>
<polygon fill="#63b8ff" stroke="#63b8ff" points="631.44,-23.48 640.62,-18.19 630.15,-16.6 631.44,-23.48"/>
</a>
</g>
</g>
<!-- Node18 -->
<g id="Node000018" class="node">
<title>Node18</title>
<g id="a_Node000018"><a xlink:href="nvenc__config_8h.html" target="_top" xlink:title="Declarations for NVENC encoder configuration.">
<polygon fill="white" stroke="#666666" points="169.62,-20 58.38,-20 58.38,0 169.62,0 169.62,-20"/>
<text text-anchor="middle" x="114" y="-6.5" font-family="Helvetica,sans-Serif" font-size="10.00">nvenc/nvenc_config.h</text>
</a>
</g>
</g>
<!-- Node13&#45;&gt;Node18 -->
<g id="edge19_Node000013_Node000018" class="edge">
<title>Node13&#45;&gt;Node18</title>
<g id="a_edge19_Node000013_Node000018"><a xlink:title=" ">
<path fill="none" stroke="#63b8ff" d="M185.02,-55.59C172.27,-47.59 153.71,-35.93 138.76,-26.54"/>
<polygon fill="#63b8ff" stroke="#63b8ff" points="140.71,-23.64 130.38,-21.28 136.99,-29.57 140.71,-23.64"/>
</a>
</g>
</g>
<!-- Node19&#45;&gt;Node13 -->
<g id="edge23_Node000019_Node000013" class="edge">
<title>Node19&#45;&gt;Node13</title>
<g id="a_edge23_Node000019_Node000013"><a xlink:title=" ">
<path fill="none" stroke="#63b8ff" d="M392.12,-117.56C352.29,-107.08 287.95,-90.14 244.83,-78.8"/>
<polygon fill="#63b8ff" stroke="#63b8ff" points="245.83,-75.44 235.27,-76.28 244.05,-82.21 245.83,-75.44"/>
</a>
</g>
</g>
<!-- Node20 -->
<g id="Node000020" class="node">
<title>Node20</title>
<g id="a_Node000020"><a xlink:title=" ">
<polygon fill="#e0e0e0" stroke="#999999" points="485.5,-76 370.5,-76 370.5,-56 485.5,-56 485.5,-76"/>
<text text-anchor="middle" x="428" y="-62.5" font-family="Helvetica,sans-Serif" font-size="10.00">boost/log/common.hpp</text>
</a>
</g>
</g>
<!-- Node19&#45;&gt;Node20 -->
<g id="edge21_Node000019_Node000020" class="edge">
<title>Node19&#45;&gt;Node20</title>
<g id="a_edge21_Node000019_Node000020"><a xlink:title=" ">
<path fill="none" stroke="#63b8ff" d="M428,-117.62C428,-109.56 428,-97.65 428,-87.41"/>
<polygon fill="#63b8ff" stroke="#63b8ff" points="431.5,-87.63 428,-77.63 424.5,-87.63 431.5,-87.63"/>
</a>
</g>
</g>
<!-- Node21 -->
<g id="Node000021" class="node">
<title>Node21</title>
<g id="a_Node000021"><a xlink:title=" ">
<polygon fill="#e0e0e0" stroke="#999999" points="352.38,-76 251.62,-76 251.62,-56 352.38,-56 352.38,-76"/>
<text text-anchor="middle" x="302" y="-62.5" font-family="Helvetica,sans-Serif" font-size="10.00">boost/log/sinks.hpp</text>
</a>
</g>
</g>
<!-- Node19&#45;&gt;Node21 -->
<g id="edge22_Node000019_Node000021" class="edge">
<title>Node19&#45;&gt;Node21</title>
<g id="a_edge22_Node000019_Node000021"><a xlink:title=" ">
<path fill="none" stroke="#63b8ff" d="M408.31,-117.62C387.79,-107.85 355.37,-92.41 331.72,-81.15"/>
<polygon fill="#63b8ff" stroke="#63b8ff" points="333.45,-78.1 322.92,-76.96 330.44,-84.42 333.45,-78.1"/>
</a>
</g>
</g>
<!-- Node22 -->
<g id="Node000022" class="node">
<title>Node22</title>
<g id="a_Node000022"><a xlink:href="stat__trackers_8h.html" target="_top" xlink:title="Declarations for streaming statistic tracking.">
<polygon fill="white" stroke="#666666" points="584.62,-76 503.38,-76 503.38,-56 584.62,-56 584.62,-76"/>
<text text-anchor="middle" x="544" y="-62.5" font-family="Helvetica,sans-Serif" font-size="10.00">stat_trackers.h</text>
</a>
</g>
</g>
<!-- Node19&#45;&gt;Node22 -->
<g id="edge24_Node000019_Node000022" class="edge">
<title>Node19&#45;&gt;Node22</title>
<g id="a_edge24_Node000019_Node000022"><a xlink:title=" ">
<path fill="none" stroke="#63b8ff" d="M446.12,-117.62C464.85,-107.94 494.33,-92.69 516.05,-81.46"/>
<polygon fill="#63b8ff" stroke="#63b8ff" points="517.38,-84.71 524.66,-77 514.17,-78.49 517.38,-84.71"/>
</a>
</g>
</g>
<!-- Node22&#45;&gt;Node9 -->
<g id="edge26_Node000022_Node000009" class="edge">
<title>Node22&#45;&gt;Node9</title>
<g id="a_edge26_Node000022_Node000009"><a xlink:title=" ">
<path fill="none" stroke="#63b8ff" d="M584.68,-63.54C718.58,-58.58 1145.68,-41.61 1305.59,-20.05"/>
<polygon fill="#63b8ff" stroke="#63b8ff" points="1305.73,-23.56 1315.14,-18.7 1304.75,-16.63 1305.73,-23.56"/>
</a>
</g>
</g>
<!-- Node22&#45;&gt;Node14 -->
<g id="edge25_Node000022_Node000014" class="edge">
<title>Node22&#45;&gt;Node14</title>
<g id="a_edge25_Node000022_Node000014"><a xlink:title=" ">
<path fill="none" stroke="#63b8ff" d="M503.19,-56.7C464.58,-48.68 404.77,-35.79 344.78,-20.61"/>
<polygon fill="#63b8ff" stroke="#63b8ff" points="346,-17.31 335.44,-18.22 344.27,-24.09 346,-17.31"/>
</a>
</g>
</g>
<!-- Node23 -->
<g id="Node000023" class="node">
<title>Node23</title>
<g id="a_Node000023"><a xlink:title=" ">
<polygon fill="#e0e0e0" stroke="#999999" points="497.62,-20 458.38,-20 458.38,0 497.62,0 497.62,-20"/>
<text text-anchor="middle" x="478" y="-6.5" font-family="Helvetica,sans-Serif" font-size="10.00">limits</text>
</a>
</g>
</g>
<!-- Node22&#45;&gt;Node23 -->
<g id="edge27_Node000022_Node000023" class="edge">
<title>Node22&#45;&gt;Node23</title>
<g id="a_edge27_Node000022_Node000023"><a xlink:title=" ">
<path fill="none" stroke="#63b8ff" d="M532.5,-55.59C523.04,-47.85 509.4,-36.69 498.13,-27.47"/>
<polygon fill="#63b8ff" stroke="#63b8ff" points="500.49,-24.88 490.54,-21.26 496.06,-30.3 500.49,-24.88"/>
</a>
</g>
</g>
<!-- Node24 -->
<g id="Node000024" class="node">
<title>Node24</title>
<g id="a_Node000024"><a xlink:title=" ">
<polygon fill="#e0e0e0" stroke="#999999" points="440.75,-20 351.25,-20 351.25,0 440.75,0 440.75,-20"/>
<text text-anchor="middle" x="396" y="-6.5" font-family="Helvetica,sans-Serif" font-size="10.00">boost/format.hpp</text>
</a>
</g>
</g>
<!-- Node22&#45;&gt;Node24 -->
<g id="edge28_Node000022_Node000024" class="edge">
<title>Node22&#45;&gt;Node24</title>
<g id="a_edge28_Node000022_Node000024"><a xlink:title=" ">
<path fill="none" stroke="#63b8ff" d="M518.22,-55.59C494.6,-46.97 459.36,-34.12 432.78,-24.42"/>
<polygon fill="#63b8ff" stroke="#63b8ff" points="434,-21.14 423.4,-21 431.6,-27.71 434,-21.14"/>
</a>
</g>
</g>
<!-- Node25&#45;&gt;Node9 -->
<g id="edge33_Node000025_Node000009" class="edge">
<title>Node25&#45;&gt;Node9</title>
<g id="a_edge33_Node000025_Node000009"><a xlink:title=" ">
<path fill="none" stroke="#63b8ff" d="M1175.88,-117.56C1205.91,-109.47 1246.89,-95.93 1279,-76 1299.56,-63.24 1318.93,-43.26 1331.5,-28.82"/>
<polygon fill="#63b8ff" stroke="#63b8ff" points="1333.97,-31.31 1337.75,-21.41 1328.62,-26.8 1333.97,-31.31"/>
</a>
</g>
</g>
<!-- Node25&#45;&gt;Node10 -->
<g id="edge35_Node000025_Node000010" class="edge">
<title>Node25&#45;&gt;Node10</title>
<g id="a_edge35_Node000025_Node000010"><a xlink:title=" ">
<path fill="none" stroke="#63b8ff" d="M1126.06,-117.89C1113.07,-103.52 1092.08,-75.28 1107,-56 1144,-8.2 1180.41,-33.82 1244.11,-20.14"/>
<polygon fill="#63b8ff" stroke="#63b8ff" points="1244.66,-23.61 1253.54,-17.83 1242.99,-16.81 1244.66,-23.61"/>
</a>
</g>
</g>
<!-- Node25&#45;&gt;Node17 -->
<g id="edge36_Node000025_Node000017" class="edge">
<title>Node25&#45;&gt;Node17</title>
<g id="a_edge36_Node000025_Node000017"><a xlink:title=" ">
<path fill="none" stroke="#63b8ff" d="M1092.2,-117.55C1015,-100.3 847.16,-61.89 696.72,-20.67"/>
<polygon fill="#63b8ff" stroke="#63b8ff" points="697.95,-17.38 687.38,-18.1 696.09,-24.13 697.95,-17.38"/>
</a>
</g>
</g>
<!-- Node26 -->
<g id="Node000026" class="node">
<title>Node26</title>
<g id="a_Node000026"><a xlink:title=" ">
<polygon fill="#e0e0e0" stroke="#999999" points="1153.88,-76 1116.12,-76 1116.12,-56 1153.88,-56 1153.88,-76"/>
<text text-anchor="middle" x="1135" y="-62.5" font-family="Helvetica,sans-Serif" font-size="10.00">array</text>
</a>
</g>
</g>
<!-- Node25&#45;&gt;Node26 -->
<g id="edge30_Node000025_Node000026" class="edge">
<title>Node25&#45;&gt;Node26</title>
<g id="a_edge30_Node000025_Node000026"><a xlink:title=" ">
<path fill="none" stroke="#63b8ff" d="M1135,-117.62C1135,-109.56 1135,-97.65 1135,-87.41"/>
<polygon fill="#63b8ff" stroke="#63b8ff" points="1138.5,-87.63 1135,-77.63 1131.5,-87.63 1138.5,-87.63"/>
</a>
</g>
</g>
<!-- Node27 -->
<g id="Node000027" class="node">
<title>Node27</title>
<g id="a_Node000027"><a xlink:title=" ">
<polygon fill="#e0e0e0" stroke="#999999" points="1217.62,-76 1172.38,-76 1172.38,-56 1217.62,-56 1217.62,-76"/>
<text text-anchor="middle" x="1195" y="-62.5" font-family="Helvetica,sans-Serif" font-size="10.00">atomic</text>
</a>
</g>
</g>
<!-- Node25&#45;&gt;Node27 -->
<g id="edge31_Node000025_Node000027" class="edge">
<title>Node25&#45;&gt;Node27</title>
<g id="a_edge31_Node000025_Node000027"><a xlink:title=" ">
<path fill="none" stroke="#63b8ff" d="M1144.38,-117.62C1153.32,-108.68 1167.01,-94.99 1177.9,-84.1"/>
<polygon fill="#63b8ff" stroke="#63b8ff" points="1180.22,-86.73 1184.82,-77.18 1175.27,-81.78 1180.22,-86.73"/>
</a>
</g>
</g>
<!-- Node28 -->
<g id="Node000028" class="node">
<title>Node28</title>
<g id="a_Node000028"><a xlink:title=" ">
<polygon fill="#e0e0e0" stroke="#999999" points="1237,-20 1143,-20 1143,0 1237,0 1237,-20"/>
<text text-anchor="middle" x="1190" y="-6.5" font-family="Helvetica,sans-Serif" font-size="10.00">condition_variable</text>
</a>
</g>
</g>
<!-- Node25&#45;&gt;Node28 -->
<g id="edge32_Node000025_Node000028" class="edge">
<title>Node25&#45;&gt;Node28</title>
<g id="a_edge32_Node000025_Node000028"><a xlink:title=" ">
<path fill="none" stroke="#63b8ff" d="M1116.52,-117.67C1093.13,-104.59 1057.75,-79.73 1074,-56 1082.21,-44 1113.87,-32.18 1142.04,-23.66"/>
<polygon fill="#63b8ff" stroke="#63b8ff" points="1142.94,-27.05 1151.56,-20.88 1140.98,-20.33 1142.94,-27.05"/>
</a>
</g>
</g>
<!-- Node29 -->
<g id="Node000029" class="node">
<title>Node29</title>
<g id="a_Node000029"><a xlink:title=" ">
<polygon fill="#e0e0e0" stroke="#999999" points="1270.38,-76 1235.62,-76 1235.62,-56 1270.38,-56 1270.38,-76"/>
<text text-anchor="middle" x="1253" y="-62.5" font-family="Helvetica,sans-Serif" font-size="10.00">map</text>
</a>
</g>
</g>
<!-- Node25&#45;&gt;Node29 -->
<g id="edge34_Node000025_Node000029" class="edge">
<title>Node25&#45;&gt;Node29</title>
<g id="a_edge34_Node000025_Node000029"><a xlink:title=" ">
<path fill="none" stroke="#63b8ff" d="M1153.44,-117.62C1172.71,-107.82 1203.18,-92.33 1225.34,-81.07"/>
<polygon fill="#63b8ff" stroke="#63b8ff" points="1226.78,-84.26 1234.11,-76.6 1223.61,-78.02 1226.78,-84.26"/>
</a>
</g>
</g>
<!-- Node25&#45;&gt;Node30 -->
<g id="edge37_Node000025_Node000030" class="edge">
<title>Node25&#45;&gt;Node30</title>
<g id="a_edge37_Node000025_Node000030"><a xlink:title=" ">
<path fill="none" stroke="#63b8ff" d="M1105.78,-117.62C1072.41,-106.92 1017.87,-89.42 982.46,-78.06"/>
<polygon fill="#63b8ff" stroke="#63b8ff" points="983.72,-74.78 973.12,-75.06 981.58,-81.45 983.72,-74.78"/>
</a>
</g>
</g>
<!-- Node30&#45;&gt;Node10 -->
<g id="edge41_Node000030_Node000010" class="edge">
<title>Node30&#45;&gt;Node10</title>
<g id="a_edge41_Node000030_Node000010"><a xlink:title=" ">
<path fill="none" stroke="#63b8ff" d="M971.76,-62.5C1020.82,-57.1 1137.01,-43.14 1244.08,-20.15"/>
<polygon fill="#63b8ff" stroke="#63b8ff" points="1244.57,-23.63 1253.6,-18.08 1243.08,-16.79 1244.57,-23.63"/>
</a>
</g>
</g>
<!-- Node30&#45;&gt;Node11 -->
<g id="edge44_Node000030_Node000011" class="edge">
<title>Node30&#45;&gt;Node11</title>
<g id="a_edge44_Node000030_Node000011"><a xlink:title=" ">
<path fill="none" stroke="#63b8ff" d="M924.45,-62.93C873.41,-58.17 748.64,-45.06 635.41,-20.24"/>
<polygon fill="#63b8ff" stroke="#63b8ff" points="636.49,-16.89 625.96,-18.13 634.96,-23.73 636.49,-16.89"/>
</a>
</g>
</g>
<!-- Node30&#45;&gt;Node15 -->
<g id="edge42_Node000030_Node000015" class="edge">
<title>Node30&#45;&gt;Node15</title>
<g id="a_edge42_Node000030_Node000015"><a xlink:title=" ">
<path fill="none" stroke="#63b8ff" d="M924.26,-63.29C866.51,-58.87 714.01,-45.77 577.24,-20.18"/>
<polygon fill="#63b8ff" stroke="#63b8ff" points="578.13,-16.79 567.65,-18.36 576.82,-23.67 578.13,-16.79"/>
</a>
</g>
</g>
<!-- Node30&#45;&gt;Node17 -->
<g id="edge48_Node000030_Node000017" class="edge">
<title>Node30&#45;&gt;Node17</title>
<g id="a_edge48_Node000030_Node000017"><a xlink:title=" ">
<path fill="none" stroke="#63b8ff" d="M924.35,-61.75C881.03,-55.59 785.9,-41.16 696.97,-20.5"/>
<polygon fill="#63b8ff" stroke="#63b8ff" points="697.89,-17.12 687.35,-18.23 696.28,-23.93 697.89,-17.12"/>
</a>
</g>
</g>
<!-- Node30&#45;&gt;Node28 -->
<g id="edge39_Node000030_Node000028" class="edge">
<title>Node30&#45;&gt;Node28</title>
<g id="a_edge39_Node000030_Node000028"><a xlink:title=" ">
<path fill="none" stroke="#63b8ff" d="M971.64,-59.72C1009.65,-51.24 1085.27,-34.37 1136.75,-22.88"/>
<polygon fill="#63b8ff" stroke="#63b8ff" points="1137.19,-26.37 1146.19,-20.78 1135.67,-19.54 1137.19,-26.37"/>
</a>
</g>
</g>
<!-- Node31 -->
<g id="Node000031" class="node">
<title>Node31</title>
<g id="a_Node000031"><a xlink:title=" ">
<polygon fill="#e0e0e0" stroke="#999999" points="758.88,-20 703.12,-20 703.12,0 758.88,0 758.88,-20"/>
<text text-anchor="middle" x="731" y="-6.5" font-family="Helvetica,sans-Serif" font-size="10.00">algorithm</text>
</a>
</g>
</g>
<!-- Node30&#45;&gt;Node31 -->
<g id="edge38_Node000030_Node000031" class="edge">
<title>Node30&#45;&gt;Node31</title>
<g id="a_edge38_Node000030_Node000031"><a xlink:title=" ">
<path fill="none" stroke="#63b8ff" d="M924.36,-59.12C887.28,-49.89 815.03,-31.91 770.11,-20.73"/>
<polygon fill="#63b8ff" stroke="#63b8ff" points="771.06,-17.36 760.51,-18.34 769.37,-24.15 771.06,-17.36"/>
</a>
</g>
</g>
<!-- Node32 -->
<g id="Node000032" class="node">
<title>Node32</title>
<g id="a_Node000032"><a xlink:title=" ">
<polygon fill="#e0e0e0" stroke="#999999" points="828.62,-20 777.38,-20 777.38,0 828.62,0 828.62,-20"/>
<text text-anchor="middle" x="803" y="-6.5" font-family="Helvetica,sans-Serif" font-size="10.00">memory</text>
</a>
</g>
</g>
<!-- Node30&#45;&gt;Node32 -->
<g id="edge40_Node000030_Node000032" class="edge">
<title>Node30&#45;&gt;Node32</title>
<g id="a_edge40_Node000030_Node000032"><a xlink:title=" ">
<path fill="none" stroke="#63b8ff" d="M924.38,-56.2C901.11,-47.54 865.25,-34.18 838.53,-24.23"/>
<polygon fill="#63b8ff" stroke="#63b8ff" points="840.08,-21.07 829.49,-20.86 837.64,-27.63 840.08,-21.07"/>
</a>
</g>
</g>
<!-- Node33 -->
<g id="Node000033" class="node">
<title>Node33</title>
<g id="a_Node000033"><a xlink:title=" ">
<polygon fill="#e0e0e0" stroke="#999999" points="897.62,-20 846.38,-20 846.38,0 897.62,0 897.62,-20"/>
<text text-anchor="middle" x="872" y="-6.5" font-family="Helvetica,sans-Serif" font-size="10.00">ostream</text>
</a>
</g>
</g>
<!-- Node30&#45;&gt;Node33 -->
<g id="edge43_Node000030_Node000033" class="edge">
<title>Node30&#45;&gt;Node33</title>
<g id="a_edge43_Node000030_Node000033"><a xlink:title=" ">
<path fill="none" stroke="#63b8ff" d="M934.76,-55.59C923.71,-47.74 907.72,-36.38 894.64,-27.09"/>
<polygon fill="#63b8ff" stroke="#63b8ff" points="896.75,-24.3 886.58,-21.36 892.7,-30 896.75,-24.3"/>
</a>
</g>
</g>
<!-- Node34 -->
<g id="Node000034" class="node">
<title>Node34</title>
<g id="a_Node000034"><a xlink:title=" ">
<polygon fill="#e0e0e0" stroke="#999999" points="980.75,-20 915.25,-20 915.25,0 980.75,0 980.75,-20"/>
<text text-anchor="middle" x="948" y="-6.5" font-family="Helvetica,sans-Serif" font-size="10.00">string_view</text>
</a>
</g>
</g>
<!-- Node30&#45;&gt;Node34 -->
<g id="edge45_Node000030_Node000034" class="edge">
<title>Node30&#45;&gt;Node34</title>
<g id="a_edge45_Node000030_Node000034"><a xlink:title=" ">
<path fill="none" stroke="#63b8ff" d="M948,-55.59C948,-49.01 948,-39.96 948,-31.73"/>
<polygon fill="#63b8ff" stroke="#63b8ff" points="951.5,-31.81 948,-21.81 944.5,-31.81 951.5,-31.81"/>
</a>
</g>
</g>
<!-- Node35 -->
<g id="Node000035" class="node">
<title>Node35</title>
<g id="a_Node000035"><a xlink:title=" ">
<polygon fill="#e0e0e0" stroke="#999999" points="1060.88,-20 999.12,-20 999.12,0 1060.88,0 1060.88,-20"/>
<text text-anchor="middle" x="1030" y="-6.5" font-family="Helvetica,sans-Serif" font-size="10.00">type_traits</text>
</a>
</g>
</g>
<!-- Node30&#45;&gt;Node35 -->
<g id="edge46_Node000030_Node000035" class="edge">
<title>Node30&#45;&gt;Node35</title>
<g id="a_edge46_Node000030_Node000035"><a xlink:title=" ">
<path fill="none" stroke="#63b8ff" d="M962.28,-55.59C974.44,-47.59 992.14,-35.93 1006.4,-26.54"/>
<polygon fill="#63b8ff" stroke="#63b8ff" points="1007.91,-29.73 1014.34,-21.31 1004.06,-23.89 1007.91,-29.73"/>
</a>
</g>
</g>
<!-- Node36 -->
<g id="Node000036" class="node">
<title>Node36</title>
<g id="a_Node000036"><a xlink:title=" ">
<polygon fill="#e0e0e0" stroke="#999999" points="1124.62,-20 1079.38,-20 1079.38,0 1124.62,0 1124.62,-20"/>
<text text-anchor="middle" x="1102" y="-6.5" font-family="Helvetica,sans-Serif" font-size="10.00">variant</text>
</a>
</g>
</g>
<!-- Node30&#45;&gt;Node36 -->
<g id="edge47_Node000030_Node000036" class="edge">
<title>Node30&#45;&gt;Node36</title>
<g id="a_edge47_Node000030_Node000036"><a xlink:title=" ">
<path fill="none" stroke="#63b8ff" d="M971.73,-56.68C997.61,-47.6 1039.25,-33 1068.47,-22.76"/>
<polygon fill="#63b8ff" stroke="#63b8ff" points="1069.3,-26.18 1077.57,-19.56 1066.98,-19.57 1069.3,-26.18"/>
</a>
</g>
</g>
<!-- Node38 -->
<g id="Node000038" class="node">
<title>Node38</title>
<g id="a_Node000038"><a xlink:title=" ">
<polygon fill="#e0e0e0" stroke="#999999" points="1451.62,-76 1364.38,-76 1364.38,-56 1451.62,-56 1451.62,-76"/>
<text text-anchor="middle" x="1408" y="-62.5" font-family="Helvetica,sans-Serif" font-size="10.00">libavutil/pixfmt.h</text>
</a>
</g>
</g>
<!-- Node37&#45;&gt;Node38 -->
<g id="edge51_Node000037_Node000038" class="edge">
<title>Node37&#45;&gt;Node38</title>
<g id="a_edge51_Node000037_Node000038"><a xlink:title=" ">
<path fill="none" stroke="#63b8ff" d="M1396.19,-117.62C1398.09,-109.48 1400.91,-97.39 1403.32,-87.07"/>
<polygon fill="#63b8ff" stroke="#63b8ff" points="1406.67,-88.12 1405.53,-77.59 1399.85,-86.53 1406.67,-88.12"/>
</a>
</g>
</g>
<!-- Node40&#45;&gt;Node6 -->
<g id="edge54_Node000040_Node000006" class="edge">
<title>Node40&#45;&gt;Node6</title>
<g id="a_edge54_Node000040_Node000006"><a xlink:title=" ">
<path fill="none" stroke="#63b8ff" d="M734.56,-292.49C703.25,-282.79 668.11,-269.39 659,-256 654,-248.65 653.22,-242.75 659,-236 686.4,-203.97 800.4,-194.58 876.21,-191.92"/>
<polygon fill="#63b8ff" stroke="#63b8ff" points="876.17,-195.43 886.05,-191.61 875.95,-188.43 876.17,-195.43"/>
</a>
</g>
</g>
<!-- Node41&#45;&gt;Node6 -->
<g id="edge60_Node000041_Node000006" class="edge">
<title>Node41&#45;&gt;Node6</title>
<g id="a_edge60_Node000041_Node000006"><a xlink:title=" ">
<path fill="none" stroke="#63b8ff" d="M1106.75,-298.16C1079.76,-289.85 1040.97,-275.73 1011,-256 991.1,-242.9 972.3,-222.97 960.09,-208.63"/>
<polygon fill="#63b8ff" stroke="#63b8ff" points="963.11,-206.79 954.04,-201.32 957.71,-211.25 963.11,-206.79"/>
</a>
</g>
</g>
<!-- Node41&#45;&gt;Node25 -->
<g id="edge61_Node000041_Node000025" class="edge">
<title>Node41&#45;&gt;Node25</title>
<g id="a_edge61_Node000041_Node000025"><a xlink:title=" ">
<path fill="none" stroke="#63b8ff" d="M1163.13,-297.65C1168.63,-295.66 1174.49,-293.66 1180,-292 1245.64,-272.19 1287.55,-309.84 1330,-256 1374.73,-199.27 1261.82,-159.82 1189.68,-141.2"/>
<polygon fill="#63b8ff" stroke="#63b8ff" points="1190.94,-137.91 1180.39,-138.87 1189.23,-144.7 1190.94,-137.91"/>
</a>
</g>
</g>
<!-- Node41&#45;&gt;Node37 -->
<g id="edge62_Node000041_Node000037" class="edge">
<title>Node41&#45;&gt;Node37</title>
<g id="a_edge62_Node000041_Node000037"><a xlink:title=" ">
<path fill="none" stroke="#63b8ff" d="M1163.1,-297.55C1168.6,-295.57 1174.47,-293.6 1180,-292 1253.37,-270.83 1290.45,-306.19 1348,-256 1379.42,-228.6 1389.38,-178.01 1392.54,-149.65"/>
<polygon fill="#63b8ff" stroke="#63b8ff" points="1396.01,-150.13 1393.43,-139.86 1389.04,-149.5 1396.01,-150.13"/>
</a>
</g>
</g>
<!-- Node42 -->
<g id="Node000042" class="node">
<title>Node42</title>
<g id="a_Node000042"><a xlink:href="input_8h.html" target="_top" xlink:title="Declarations for gamepad, keyboard, and mouse input handling.">
<polygon fill="white" stroke="#666666" points="1320.62,-256 1275.38,-256 1275.38,-236 1320.62,-236 1320.62,-256"/>
<text text-anchor="middle" x="1298" y="-242.5" font-family="Helvetica,sans-Serif" font-size="10.00">input.h</text>
</a>
</g>
</g>
<!-- Node41&#45;&gt;Node42 -->
<g id="edge56_Node000041_Node000042" class="edge">
<title>Node41&#45;&gt;Node42</title>
<g id="a_edge56_Node000041_Node000042"><a xlink:title=" ">
<path fill="none" stroke="#63b8ff" d="M1163.84,-297.62C1190.91,-287.41 1234.37,-271.01 1264.46,-259.66"/>
<polygon fill="#63b8ff" stroke="#63b8ff" points="1265.34,-263.06 1273.46,-256.26 1262.87,-256.51 1265.34,-263.06"/>
</a>
</g>
</g>
<!-- Node43 -->
<g id="Node000043" class="node">
<title>Node43</title>
<g id="a_Node000043"><a xlink:title=" ">
<polygon fill="#e0e0e0" stroke="#999999" points="1130.25,-256 1019.75,-256 1019.75,-236 1130.25,-236 1130.25,-256"/>
<text text-anchor="middle" x="1075" y="-242.5" font-family="Helvetica,sans-Serif" font-size="10.00">libavcodec/avcodec.h</text>
</a>
</g>
</g>
<!-- Node41&#45;&gt;Node43 -->
<g id="edge63_Node000041_Node000043" class="edge">
<title>Node41&#45;&gt;Node43</title>
<g id="a_edge63_Node000041_Node000043"><a xlink:title=" ">
<path fill="none" stroke="#63b8ff" d="M1129,-297.62C1119.36,-288.59 1104.57,-274.72 1092.9,-263.78"/>
<polygon fill="#63b8ff" stroke="#63b8ff" points="1095.51,-261.43 1085.82,-257.15 1090.73,-266.54 1095.51,-261.43"/>
</a>
</g>
</g>
<!-- Node44 -->
<g id="Node000044" class="node">
<title>Node44</title>
<g id="a_Node000044"><a xlink:title=" ">
<polygon fill="#e0e0e0" stroke="#999999" points="1257.5,-256 1148.5,-256 1148.5,-236 1257.5,-236 1257.5,-256"/>
<text text-anchor="middle" x="1203" y="-242.5" font-family="Helvetica,sans-Serif" font-size="10.00">libswscale/swscale.h</text>
</a>
</g>
</g>
<!-- Node41&#45;&gt;Node44 -->
<g id="edge64_Node000041_Node000044" class="edge">
<title>Node41&#45;&gt;Node44</title>
<g id="a_edge64_Node000041_Node000044"><a xlink:title=" ">
<path fill="none" stroke="#63b8ff" d="M1149,-297.62C1158.64,-288.59 1173.43,-274.72 1185.1,-263.78"/>
<polygon fill="#63b8ff" stroke="#63b8ff" points="1187.27,-266.54 1192.18,-257.15 1182.49,-261.43 1187.27,-266.54"/>
</a>
</g>
</g>
<!-- Node42&#45;&gt;Node6 -->
<g id="edge58_Node000042_Node000006" class="edge">
<title>Node42&#45;&gt;Node6</title>
<g id="a_edge58_Node000042_Node000006"><a xlink:title=" ">
<path fill="none" stroke="#63b8ff" d="M1275.07,-237.95C1272.36,-237.23 1269.63,-236.56 1267,-236 1181.48,-217.69 1081.48,-205.03 1016.11,-197.9"/>
<polygon fill="#63b8ff" stroke="#63b8ff" points="1016.54,-194.43 1006.23,-196.84 1015.8,-201.39 1016.54,-194.43"/>
</a>
</g>
</g>
<!-- Node42&#45;&gt;Node9 -->
<g id="edge57_Node000042_Node000009" class="edge">
<title>Node42&#45;&gt;Node9</title>
<g id="a_edge57_Node000042_Node000009"><a xlink:title=" ">
<path fill="none" stroke="#63b8ff" d="M1320.84,-238.7C1358.09,-227.06 1430.8,-198.25 1461,-144 1480.03,-109.83 1483.05,-88.3 1461,-56 1444.37,-31.63 1412.38,-20.46 1386.35,-15.33"/>
<polygon fill="#63b8ff" stroke="#63b8ff" points="1387.2,-11.93 1376.75,-13.69 1386.02,-18.83 1387.2,-11.93"/>
</a>
</g>
</g>
<!-- Node42&#45;&gt;Node25 -->
<g id="edge59_Node000042_Node000025" class="edge">
<title>Node42&#45;&gt;Node25</title>
<g id="a_edge59_Node000042_Node000025"><a xlink:title=" ">
<path fill="none" stroke="#63b8ff" d="M1284.66,-235.51C1256.7,-215.61 1191.71,-169.36 1157.3,-144.87"/>
<polygon fill="#63b8ff" stroke="#63b8ff" points="1159.48,-142.12 1149.3,-139.18 1155.42,-147.83 1159.48,-142.12"/>
</a>
</g>
</g>
</g>
</svg>

<g id="navigator" transform="translate(0 0)" fill="#404254">
  <rect fill="#f2f5e9" fill-opacity="0.5" stroke="#606060" stroke-width=".5" x="0" y="0" width="60" height="60"/>
  <use id="zoomplus" xlink:href="#zoomPlus" x="17" y="9" onmousedown="handleZoom(evt,'in')"/>
  <use id="zoomminus" xlink:href="#zoomMin" x="42" y="9" onmousedown="handleZoom(evt,'out')"/>
  <use id="reset" xlink:href="#resetDef" x="30" y="36" onmousedown="handleReset()"/>
   <use id="arrowup" xlink:href="#arrowUp" x="0" y="0" onmousedown="handlePan(0,-1)"/>
  <use id="arrowright" xlink:href="#arrowRight" x="0" y="0" onmousedown="handlePan(1,0)"/>
  <use id="arrowdown" xlink:href="#arrowDown" x="0" y="0" onmousedown="handlePan(0,1)"/>
  <use id="arrowleft" xlink:href="#arrowLeft" x="0" y="0" onmousedown="handlePan(-1,0)"/>
</g>
<svg viewBox="0 0 15 15" width="100%" height="30px" preserveAspectRatio="xMaxYMin meet">
 <g id="arrow_out" transform="scale(0.3 0.3)">
  <a xlink:href="nv12__zero__device_8cpp__incl_org.svg" target="_base">
   <rect id="button" ry="5" rx="5" y="6" x="6" height="38" width="38"
        fill="#f2f5e9" fill-opacity="0.5" stroke="#606060" stroke-width="1.0"/>
   <path id="arrow"
     d="M 11.500037,31.436501 C 11.940474,20.09759 22.043105,11.32322 32.158766,21.979434 L 37.068811,17.246167 C 37.068811,17.246167 37.088388,32 37.088388,32 L 22.160133,31.978069 C 22.160133,31.978069 26.997745,27.140456 26.997745,27.140456 C 18.528582,18.264221 13.291696,25.230495 11.500037,31.436501 z"
     style="fill:#404040;"/>
  </a>
 </g>
</svg>

<style type='text/css'>
<![CDATA[
[data-mouse-over-selected='false'] { opacity: 0.7; }
[data-mouse-over-selected='true']  { opacity: 1.0; }
]]>
</style>
<script type="application/ecmascript"><![CDATA[
document.addEventListener('DOMContentLoaded', (event) => {
  highlightEdges();
  highlightAdjacentNodes();
});
]]></script>
</svg>
