<?xml version="1.0" encoding="UTF-8" standalone="no"?>
<!DOCTYPE svg PUBLIC "-//W3C//DTD SVG 1.1//EN"
 "http://www.w3.org/Graphics/SVG/1.1/DTD/svg11.dtd">
<!-- Generated by graphviz version 12.2.1 (0)
 -->
<!-- Title: src/platform/windows/nvprefs/nvapi_opensource_wrapper.cpp Pages: 1 -->
<svg width="904pt" height="220pt"
 viewBox="0.00 0.00 904.25 220.00" xmlns="http://www.w3.org/2000/svg" xmlns:xlink="http://www.w3.org/1999/xlink">
<g id="graph0" class="graph" transform="scale(1 1) rotate(0) translate(4 216)">
<title>src/platform/windows/nvprefs/nvapi_opensource_wrapper.cpp</title>
<!-- Node1 -->
<g id="Node000001" class="node">
<title>Node1</title>
<g id="a_Node000001"><a xlink:title="Definitions for the NVAPI wrapper.">
<polygon fill="#999999" stroke="#666666" points="368.25,-212 235.25,-212 235.25,-168 368.25,-168 368.25,-212"/>
<text text-anchor="start" x="243.25" y="-198.5" font-family="Helvetica,sans-Serif" font-size="10.00">src/platform/windows</text>
<text text-anchor="start" x="243.25" y="-186.5" font-family="Helvetica,sans-Serif" font-size="10.00">/nvprefs/nvapi_opensource</text>
<text text-anchor="middle" x="301.75" y="-174.5" font-family="Helvetica,sans-Serif" font-size="10.00">_wrapper.cpp</text>
</a>
</g>
</g>
<!-- Node2 -->
<g id="Node000002" class="node">
<title>Node2</title>
<g id="a_Node000002"><a xlink:title=" ">
<polygon fill="#e0e0e0" stroke="#999999" points="170.12,-132 135.38,-132 135.38,-112 170.12,-112 170.12,-132"/>
<text text-anchor="middle" x="152.75" y="-118.5" font-family="Helvetica,sans-Serif" font-size="10.00">map</text>
</a>
</g>
</g>
<!-- Node1&#45;&gt;Node2 -->
<g id="edge1_Node000001_Node000002" class="edge">
<title>Node1&#45;&gt;Node2</title>
<g id="a_edge1_Node000001_Node000002"><a xlink:title=" ">
<path fill="none" stroke="#63b8ff" d="M253.37,-167.57C229.43,-156.96 201.36,-144.53 180.96,-135.49"/>
<polygon fill="#63b8ff" stroke="#63b8ff" points="182.43,-132.32 171.87,-131.47 179.6,-138.72 182.43,-132.32"/>
</a>
</g>
</g>
<!-- Node3 -->
<g id="Node000003" class="node">
<title>Node3</title>
<g id="a_Node000003"><a xlink:href="driver__settings_8h.html" target="_top" xlink:title="Declarations for nvidia driver settings.">
<polygon fill="white" stroke="#666666" points="275.75,-132 187.75,-132 187.75,-112 275.75,-112 275.75,-132"/>
<text text-anchor="middle" x="231.75" y="-118.5" font-family="Helvetica,sans-Serif" font-size="10.00">driver_settings.h</text>
</a>
</g>
</g>
<!-- Node1&#45;&gt;Node3 -->
<g id="edge2_Node000001_Node000003" class="edge">
<title>Node1&#45;&gt;Node3</title>
<g id="a_edge2_Node000001_Node000003"><a xlink:title=" ">
<path fill="none" stroke="#63b8ff" d="M279.22,-167.75C269.74,-158.82 258.87,-148.57 249.92,-140.13"/>
<polygon fill="#63b8ff" stroke="#63b8ff" points="252.52,-137.77 242.84,-133.46 247.72,-142.86 252.52,-137.77"/>
</a>
</g>
</g>
<!-- Node11 -->
<g id="Node000011" class="node">
<title>Node11</title>
<g id="a_Node000011"><a xlink:href="nvprefs__common_8h.html" target="_top" xlink:title="Declarations for common nvidia preferences.">
<polygon fill="white" stroke="#666666" points="452.38,-132 353.12,-132 353.12,-112 452.38,-112 452.38,-132"/>
<text text-anchor="middle" x="402.75" y="-118.5" font-family="Helvetica,sans-Serif" font-size="10.00">nvprefs_common.h</text>
</a>
</g>
</g>
<!-- Node1&#45;&gt;Node11 -->
<g id="edge10_Node000001_Node000011" class="edge">
<title>Node1&#45;&gt;Node11</title>
<g id="a_edge10_Node000001_Node000011"><a xlink:title=" ">
<path fill="none" stroke="#63b8ff" d="M334.54,-167.57C349.05,-158.09 365.78,-147.16 379.05,-138.49"/>
<polygon fill="#63b8ff" stroke="#63b8ff" points="380.69,-141.59 387.15,-133.19 376.87,-135.73 380.69,-141.59"/>
</a>
</g>
</g>
<!-- Node23 -->
<g id="Node000023" class="node">
<title>Node23</title>
<g id="a_Node000023"><a xlink:title=" ">
<polygon fill="#e0e0e0" stroke="#999999" points="560.88,-132 470.62,-132 470.62,-112 560.88,-112 560.88,-132"/>
<text text-anchor="middle" x="515.75" y="-118.5" font-family="Helvetica,sans-Serif" font-size="10.00">nvapi_interface.h</text>
</a>
</g>
</g>
<!-- Node1&#45;&gt;Node23 -->
<g id="edge25_Node000001_Node000023" class="edge">
<title>Node1&#45;&gt;Node23</title>
<g id="a_edge25_Node000001_Node000023"><a xlink:title=" ">
<path fill="none" stroke="#63b8ff" d="M368.58,-168.39C403.16,-157.72 444.29,-145.04 474.27,-135.79"/>
<polygon fill="#63b8ff" stroke="#63b8ff" points="475.2,-139.17 483.73,-132.88 473.14,-132.48 475.2,-139.17"/>
</a>
</g>
</g>
<!-- Node4 -->
<g id="Node000004" class="node">
<title>Node4</title>
<g id="a_Node000004"><a xlink:title=" ">
<polygon fill="#e0e0e0" stroke="#999999" points="47.5,-76 0,-76 0,-56 47.5,-56 47.5,-76"/>
<text text-anchor="middle" x="23.75" y="-62.5" font-family="Helvetica,sans-Serif" font-size="10.00">nvapi.h</text>
</a>
</g>
</g>
<!-- Node3&#45;&gt;Node4 -->
<g id="edge3_Node000003_Node000004" class="edge">
<title>Node3&#45;&gt;Node4</title>
<g id="a_edge3_Node000003_Node000004"><a xlink:title=" ">
<path fill="none" stroke="#63b8ff" d="M194.16,-111.5C160.98,-103.08 111.02,-90.31 58.73,-76.5"/>
<polygon fill="#63b8ff" stroke="#63b8ff" points="59.92,-73.19 49.35,-74.01 58.12,-79.96 59.92,-73.19"/>
</a>
</g>
</g>
<!-- Node5 -->
<g id="Node000005" class="node">
<title>Node5</title>
<g id="a_Node000005"><a xlink:title=" ">
<polygon fill="#e0e0e0" stroke="#999999" points="179.5,-76 66,-76 66,-56 179.5,-56 179.5,-76"/>
<text text-anchor="middle" x="122.75" y="-62.5" font-family="Helvetica,sans-Serif" font-size="10.00">NvApiDriverSettings.h</text>
</a>
</g>
</g>
<!-- Node3&#45;&gt;Node5 -->
<g id="edge4_Node000003_Node000005" class="edge">
<title>Node3&#45;&gt;Node5</title>
<g id="a_edge4_Node000003_Node000005"><a xlink:title=" ">
<path fill="none" stroke="#63b8ff" d="M212.76,-111.59C195.99,-103.28 171.26,-91.03 151.96,-81.47"/>
<polygon fill="#63b8ff" stroke="#63b8ff" points="153.76,-78.45 143.24,-77.15 150.65,-84.73 153.76,-78.45"/>
</a>
</g>
</g>
<!-- Node6 -->
<g id="Node000006" class="node">
<title>Node6</title>
<g id="a_Node000006"><a xlink:href="undo__data_8h.html" target="_top" xlink:title="Declarations for undoing changes to nvidia preferences.">
<polygon fill="white" stroke="#666666" points="266.38,-76 197.12,-76 197.12,-56 266.38,-56 266.38,-76"/>
<text text-anchor="middle" x="231.75" y="-62.5" font-family="Helvetica,sans-Serif" font-size="10.00">undo_data.h</text>
</a>
</g>
</g>
<!-- Node3&#45;&gt;Node6 -->
<g id="edge5_Node000003_Node000006" class="edge">
<title>Node3&#45;&gt;Node6</title>
<g id="a_edge5_Node000003_Node000006"><a xlink:title=" ">
<path fill="none" stroke="#63b8ff" d="M231.75,-111.59C231.75,-105.01 231.75,-95.96 231.75,-87.73"/>
<polygon fill="#63b8ff" stroke="#63b8ff" points="235.25,-87.81 231.75,-77.81 228.25,-87.81 235.25,-87.81"/>
</a>
</g>
</g>
<!-- Node7 -->
<g id="Node000007" class="node">
<title>Node7</title>
<g id="a_Node000007"><a xlink:title=" ">
<polygon fill="#e0e0e0" stroke="#999999" points="95.38,-20 50.12,-20 50.12,0 95.38,0 95.38,-20"/>
<text text-anchor="middle" x="72.75" y="-6.5" font-family="Helvetica,sans-Serif" font-size="10.00">cstdint</text>
</a>
</g>
</g>
<!-- Node6&#45;&gt;Node7 -->
<g id="edge6_Node000006_Node000007" class="edge">
<title>Node6&#45;&gt;Node7</title>
<g id="a_edge6_Node000006_Node000007"><a xlink:title=" ">
<path fill="none" stroke="#63b8ff" d="M204.05,-55.59C176.88,-46.36 135.39,-32.28 106.35,-22.41"/>
<polygon fill="#63b8ff" stroke="#63b8ff" points="107.53,-19.11 96.93,-19.21 105.28,-25.74 107.53,-19.11"/>
</a>
</g>
</g>
<!-- Node8 -->
<g id="Node000008" class="node">
<title>Node8</title>
<g id="a_Node000008"><a xlink:title=" ">
<polygon fill="#e0e0e0" stroke="#999999" points="163.62,-20 113.88,-20 113.88,0 163.62,0 163.62,-20"/>
<text text-anchor="middle" x="138.75" y="-6.5" font-family="Helvetica,sans-Serif" font-size="10.00">optional</text>
</a>
</g>
</g>
<!-- Node6&#45;&gt;Node8 -->
<g id="edge7_Node000006_Node000008" class="edge">
<title>Node6&#45;&gt;Node8</title>
<g id="a_edge7_Node000006_Node000008"><a xlink:title=" ">
<path fill="none" stroke="#63b8ff" d="M215.55,-55.59C201.5,-47.44 180.92,-35.48 164.59,-26"/>
<polygon fill="#63b8ff" stroke="#63b8ff" points="166.79,-23.23 156.38,-21.24 163.28,-29.29 166.79,-23.23"/>
</a>
</g>
</g>
<!-- Node9 -->
<g id="Node000009" class="node">
<title>Node9</title>
<g id="a_Node000009"><a xlink:title=" ">
<polygon fill="#e0e0e0" stroke="#999999" points="221.75,-20 181.75,-20 181.75,0 221.75,0 221.75,-20"/>
<text text-anchor="middle" x="201.75" y="-6.5" font-family="Helvetica,sans-Serif" font-size="10.00">string</text>
</a>
</g>
</g>
<!-- Node6&#45;&gt;Node9 -->
<g id="edge8_Node000006_Node000009" class="edge">
<title>Node6&#45;&gt;Node9</title>
<g id="a_edge8_Node000006_Node000009"><a xlink:title=" ">
<path fill="none" stroke="#63b8ff" d="M226.52,-55.59C222.65,-48.63 217.24,-38.89 212.47,-30.29"/>
<polygon fill="#63b8ff" stroke="#63b8ff" points="215.57,-28.66 207.65,-21.62 209.45,-32.06 215.57,-28.66"/>
</a>
</g>
</g>
<!-- Node10 -->
<g id="Node000010" class="node">
<title>Node10</title>
<g id="a_Node000010"><a xlink:title=" ">
<polygon fill="#e0e0e0" stroke="#999999" points="283.25,-20 240.25,-20 240.25,0 283.25,0 283.25,-20"/>
<text text-anchor="middle" x="261.75" y="-6.5" font-family="Helvetica,sans-Serif" font-size="10.00">vector</text>
</a>
</g>
</g>
<!-- Node6&#45;&gt;Node10 -->
<g id="edge9_Node000006_Node000010" class="edge">
<title>Node6&#45;&gt;Node10</title>
<g id="a_edge9_Node000006_Node000010"><a xlink:title=" ">
<path fill="none" stroke="#63b8ff" d="M236.98,-55.59C240.85,-48.63 246.26,-38.89 251.03,-30.29"/>
<polygon fill="#63b8ff" stroke="#63b8ff" points="254.05,-32.06 255.85,-21.62 247.93,-28.66 254.05,-32.06"/>
</a>
</g>
</g>
<!-- Node12 -->
<g id="Node000012" class="node">
<title>Node12</title>
<g id="a_Node000012"><a xlink:title=" ">
<polygon fill="#e0e0e0" stroke="#999999" points="515,-76 452.5,-76 452.5,-56 515,-56 515,-76"/>
<text text-anchor="middle" x="483.75" y="-62.5" font-family="Helvetica,sans-Serif" font-size="10.00">windows.h</text>
</a>
</g>
</g>
<!-- Node11&#45;&gt;Node12 -->
<g id="edge11_Node000011_Node000012" class="edge">
<title>Node11&#45;&gt;Node12</title>
<g id="a_edge11_Node000011_Node000012"><a xlink:title=" ">
<path fill="none" stroke="#63b8ff" d="M416.86,-111.59C428.75,-103.67 446.02,-92.16 460.03,-82.82"/>
<polygon fill="#63b8ff" stroke="#63b8ff" points="461.89,-85.78 468.27,-77.32 458.01,-79.95 461.89,-85.78"/>
</a>
</g>
</g>
<!-- Node13 -->
<g id="Node000013" class="node">
<title>Node13</title>
<g id="a_Node000013"><a xlink:title=" ">
<polygon fill="#e0e0e0" stroke="#999999" points="582.62,-76 532.88,-76 532.88,-56 582.62,-56 582.62,-76"/>
<text text-anchor="middle" x="557.75" y="-62.5" font-family="Helvetica,sans-Serif" font-size="10.00">aclapi.h</text>
</a>
</g>
</g>
<!-- Node11&#45;&gt;Node13 -->
<g id="edge12_Node000011_Node000013" class="edge">
<title>Node11&#45;&gt;Node13</title>
<g id="a_edge12_Node000011_Node000013"><a xlink:title=" ">
<path fill="none" stroke="#63b8ff" d="M429.75,-111.59C455.32,-102.68 493.89,-89.25 522.01,-79.45"/>
<polygon fill="#63b8ff" stroke="#63b8ff" points="522.88,-82.86 531.17,-76.26 520.57,-76.25 522.88,-82.86"/>
</a>
</g>
</g>
<!-- Node14 -->
<g id="Node000014" class="node">
<title>Node14</title>
<g id="a_Node000014"><a xlink:href="utility_8h.html" target="_top" xlink:title="Declarations for utility functions.">
<polygon fill="white" stroke="#666666" points="434.38,-76 371.12,-76 371.12,-56 434.38,-56 434.38,-76"/>
<text text-anchor="middle" x="402.75" y="-62.5" font-family="Helvetica,sans-Serif" font-size="10.00">src/utility.h</text>
</a>
</g>
</g>
<!-- Node11&#45;&gt;Node14 -->
<g id="edge13_Node000011_Node000014" class="edge">
<title>Node11&#45;&gt;Node14</title>
<g id="a_edge13_Node000011_Node000014"><a xlink:title=" ">
<path fill="none" stroke="#63b8ff" d="M402.75,-111.59C402.75,-105.01 402.75,-95.96 402.75,-87.73"/>
<polygon fill="#63b8ff" stroke="#63b8ff" points="406.25,-87.81 402.75,-77.81 399.25,-87.81 406.25,-87.81"/>
</a>
</g>
</g>
<!-- Node14&#45;&gt;Node8 -->
<g id="edge18_Node000014_Node000008" class="edge">
<title>Node14&#45;&gt;Node8</title>
<g id="a_edge18_Node000014_Node000008"><a xlink:title=" ">
<path fill="none" stroke="#63b8ff" d="M370.99,-59.47C328.57,-51.93 250.86,-37.61 175.11,-20.42"/>
<polygon fill="#63b8ff" stroke="#63b8ff" points="175.96,-17.03 165.43,-18.21 174.4,-23.85 175.96,-17.03"/>
</a>
</g>
</g>
<!-- Node14&#45;&gt;Node9 -->
<g id="edge20_Node000014_Node000009" class="edge">
<title>Node14&#45;&gt;Node9</title>
<g id="a_edge20_Node000014_Node000009"><a xlink:title=" ">
<path fill="none" stroke="#63b8ff" d="M370.83,-56.95C338.57,-48.73 287.02,-35.4 232.91,-20.25"/>
<polygon fill="#63b8ff" stroke="#63b8ff" points="234.09,-16.94 223.51,-17.6 232.19,-23.68 234.09,-16.94"/>
</a>
</g>
</g>
<!-- Node14&#45;&gt;Node10 -->
<g id="edge24_Node000014_Node000010" class="edge">
<title>Node14&#45;&gt;Node10</title>
<g id="a_edge24_Node000014_Node000010"><a xlink:title=" ">
<path fill="none" stroke="#63b8ff" d="M378.19,-55.59C354.96,-46.7 319.94,-33.29 294.37,-23.49"/>
<polygon fill="#63b8ff" stroke="#63b8ff" points="295.72,-20.26 285.13,-19.95 293.21,-26.8 295.72,-20.26"/>
</a>
</g>
</g>
<!-- Node15 -->
<g id="Node000015" class="node">
<title>Node15</title>
<g id="a_Node000015"><a xlink:title=" ">
<polygon fill="#e0e0e0" stroke="#999999" points="653.62,-20 597.88,-20 597.88,0 653.62,0 653.62,-20"/>
<text text-anchor="middle" x="625.75" y="-6.5" font-family="Helvetica,sans-Serif" font-size="10.00">algorithm</text>
</a>
</g>
</g>
<!-- Node14&#45;&gt;Node15 -->
<g id="edge14_Node000014_Node000015" class="edge">
<title>Node14&#45;&gt;Node15</title>
<g id="a_edge14_Node000014_Node000015"><a xlink:title=" ">
<path fill="none" stroke="#63b8ff" d="M434.68,-57.29C469.56,-48.86 527.38,-34.88 586.43,-20.56"/>
<polygon fill="#63b8ff" stroke="#63b8ff" points="587.11,-24 596,-18.24 585.45,-17.2 587.11,-24"/>
</a>
</g>
</g>
<!-- Node16 -->
<g id="Node000016" class="node">
<title>Node16</title>
<g id="a_Node000016"><a xlink:title=" ">
<polygon fill="#e0e0e0" stroke="#999999" points="765.75,-20 671.75,-20 671.75,0 765.75,0 765.75,-20"/>
<text text-anchor="middle" x="718.75" y="-6.5" font-family="Helvetica,sans-Serif" font-size="10.00">condition_variable</text>
</a>
</g>
</g>
<!-- Node14&#45;&gt;Node16 -->
<g id="edge15_Node000014_Node000016" class="edge">
<title>Node14&#45;&gt;Node16</title>
<g id="a_edge15_Node000014_Node000016"><a xlink:title=" ">
<path fill="none" stroke="#63b8ff" d="M434.5,-57.85C437.62,-57.2 440.74,-56.58 443.75,-56 464.6,-52.01 586.09,-32.34 660.45,-20.37"/>
<polygon fill="#63b8ff" stroke="#63b8ff" points="660.7,-23.87 670.01,-18.83 659.58,-16.96 660.7,-23.87"/>
</a>
</g>
</g>
<!-- Node17 -->
<g id="Node000017" class="node">
<title>Node17</title>
<g id="a_Node000017"><a xlink:title=" ">
<polygon fill="#e0e0e0" stroke="#999999" points="835.38,-20 784.12,-20 784.12,0 835.38,0 835.38,-20"/>
<text text-anchor="middle" x="809.75" y="-6.5" font-family="Helvetica,sans-Serif" font-size="10.00">memory</text>
</a>
</g>
</g>
<!-- Node14&#45;&gt;Node17 -->
<g id="edge16_Node000014_Node000017" class="edge">
<title>Node14&#45;&gt;Node17</title>
<g id="a_edge16_Node000014_Node000017"><a xlink:title=" ">
<path fill="none" stroke="#63b8ff" d="M434.47,-57.68C437.6,-57.07 440.73,-56.49 443.75,-56 586.22,-32.68 627.18,-45.81 772.72,-20.11"/>
<polygon fill="#63b8ff" stroke="#63b8ff" points="773.14,-23.59 782.36,-18.37 771.9,-16.7 773.14,-23.59"/>
</a>
</g>
</g>
<!-- Node18 -->
<g id="Node000018" class="node">
<title>Node18</title>
<g id="a_Node000018"><a xlink:title=" ">
<polygon fill="#e0e0e0" stroke="#999999" points="896.25,-20 853.25,-20 853.25,0 896.25,0 896.25,-20"/>
<text text-anchor="middle" x="874.75" y="-6.5" font-family="Helvetica,sans-Serif" font-size="10.00">mutex</text>
</a>
</g>
</g>
<!-- Node14&#45;&gt;Node18 -->
<g id="edge17_Node000014_Node000018" class="edge">
<title>Node14&#45;&gt;Node18</title>
<g id="a_edge17_Node000014_Node000018"><a xlink:title=" ">
<path fill="none" stroke="#63b8ff" d="M434.46,-57.62C437.59,-57.02 440.72,-56.47 443.75,-56 616.98,-29.32 667.01,-52.87 841.78,-20.23"/>
<polygon fill="#63b8ff" stroke="#63b8ff" points="842.27,-23.7 851.44,-18.39 840.96,-16.82 842.27,-23.7"/>
</a>
</g>
</g>
<!-- Node19 -->
<g id="Node000019" class="node">
<title>Node19</title>
<g id="a_Node000019"><a xlink:title=" ">
<polygon fill="#e0e0e0" stroke="#999999" points="352.38,-20 301.12,-20 301.12,0 352.38,0 352.38,-20"/>
<text text-anchor="middle" x="326.75" y="-6.5" font-family="Helvetica,sans-Serif" font-size="10.00">ostream</text>
</a>
</g>
</g>
<!-- Node14&#45;&gt;Node19 -->
<g id="edge19_Node000014_Node000019" class="edge">
<title>Node14&#45;&gt;Node19</title>
<g id="a_edge19_Node000014_Node000019"><a xlink:title=" ">
<path fill="none" stroke="#63b8ff" d="M389.51,-55.59C378.46,-47.74 362.47,-36.38 349.39,-27.09"/>
<polygon fill="#63b8ff" stroke="#63b8ff" points="351.5,-24.3 341.33,-21.36 347.45,-30 351.5,-24.3"/>
</a>
</g>
</g>
<!-- Node20 -->
<g id="Node000020" class="node">
<title>Node20</title>
<g id="a_Node000020"><a xlink:title=" ">
<polygon fill="#e0e0e0" stroke="#999999" points="435.5,-20 370,-20 370,0 435.5,0 435.5,-20"/>
<text text-anchor="middle" x="402.75" y="-6.5" font-family="Helvetica,sans-Serif" font-size="10.00">string_view</text>
</a>
</g>
</g>
<!-- Node14&#45;&gt;Node20 -->
<g id="edge21_Node000014_Node000020" class="edge">
<title>Node14&#45;&gt;Node20</title>
<g id="a_edge21_Node000014_Node000020"><a xlink:title=" ">
<path fill="none" stroke="#63b8ff" d="M402.75,-55.59C402.75,-49.01 402.75,-39.96 402.75,-31.73"/>
<polygon fill="#63b8ff" stroke="#63b8ff" points="406.25,-31.81 402.75,-21.81 399.25,-31.81 406.25,-31.81"/>
</a>
</g>
</g>
<!-- Node21 -->
<g id="Node000021" class="node">
<title>Node21</title>
<g id="a_Node000021"><a xlink:title=" ">
<polygon fill="#e0e0e0" stroke="#999999" points="515.62,-20 453.88,-20 453.88,0 515.62,0 515.62,-20"/>
<text text-anchor="middle" x="484.75" y="-6.5" font-family="Helvetica,sans-Serif" font-size="10.00">type_traits</text>
</a>
</g>
</g>
<!-- Node14&#45;&gt;Node21 -->
<g id="edge22_Node000014_Node000021" class="edge">
<title>Node14&#45;&gt;Node21</title>
<g id="a_edge22_Node000014_Node000021"><a xlink:title=" ">
<path fill="none" stroke="#63b8ff" d="M417.03,-55.59C429.19,-47.59 446.89,-35.93 461.15,-26.54"/>
<polygon fill="#63b8ff" stroke="#63b8ff" points="462.66,-29.73 469.09,-21.31 458.81,-23.89 462.66,-29.73"/>
</a>
</g>
</g>
<!-- Node22 -->
<g id="Node000022" class="node">
<title>Node22</title>
<g id="a_Node000022"><a xlink:title=" ">
<polygon fill="#e0e0e0" stroke="#999999" points="579.38,-20 534.12,-20 534.12,0 579.38,0 579.38,-20"/>
<text text-anchor="middle" x="556.75" y="-6.5" font-family="Helvetica,sans-Serif" font-size="10.00">variant</text>
</a>
</g>
</g>
<!-- Node14&#45;&gt;Node22 -->
<g id="edge23_Node000014_Node000022" class="edge">
<title>Node14&#45;&gt;Node22</title>
<g id="a_edge23_Node000014_Node000022"><a xlink:title=" ">
<path fill="none" stroke="#63b8ff" d="M429.57,-55.59C455.59,-46.47 495.15,-32.6 523.23,-22.75"/>
<polygon fill="#63b8ff" stroke="#63b8ff" points="524.04,-26.18 532.32,-19.57 521.72,-19.57 524.04,-26.18"/>
</a>
</g>
</g>
</g>
</svg>
