<?xml version="1.0" encoding="UTF-8" standalone="no"?>
<!DOCTYPE svg PUBLIC "-//W3C//DTD SVG 1.1//EN"
 "http://www.w3.org/Graphics/SVG/1.1/DTD/svg11.dtd">
<!-- Generated by graphviz version 12.2.1 (0)
 -->
<!-- Title: src/nvenc/nvenc_d3d11_on_cuda.h Pages: 1 -->
<svg width="254pt" height="108pt"
 viewBox="0.00 0.00 253.88 108.00" xmlns="http://www.w3.org/2000/svg" xmlns:xlink="http://www.w3.org/1999/xlink">
<g id="graph0" class="graph" transform="scale(1 1) rotate(0) translate(4 104)">
<title>src/nvenc/nvenc_d3d11_on_cuda.h</title>
<!-- Node1 -->
<g id="Node000001" class="node">
<title>Node1</title>
<g id="a_Node000001"><a xlink:title="Declarations for CUDA NVENC encoder with Direct3D11 input surfaces.">
<polygon fill="#999999" stroke="#666666" points="184.75,-100 66,-100 66,-68 184.75,-68 184.75,-100"/>
<text text-anchor="start" x="74" y="-86.5" font-family="Helvetica,sans-Serif" font-size="10.00">src/nvenc/nvenc_d3d11</text>
<text text-anchor="middle" x="125.38" y="-74.5" font-family="Helvetica,sans-Serif" font-size="10.00">_on_cuda.h</text>
</a>
</g>
</g>
<!-- Node2 -->
<g id="Node000002" class="node">
<title>Node2</title>
<g id="a_Node000002"><a xlink:href="nvenc__d3d11__on__cuda_8cpp.html" target="_top" xlink:title="Definitions for CUDA NVENC encoder with Direct3D11 input surfaces.">
<polygon fill="white" stroke="#666666" points="118.75,-32 0,-32 0,0 118.75,0 118.75,-32"/>
<text text-anchor="start" x="8" y="-18.5" font-family="Helvetica,sans-Serif" font-size="10.00">src/nvenc/nvenc_d3d11</text>
<text text-anchor="middle" x="59.38" y="-6.5" font-family="Helvetica,sans-Serif" font-size="10.00">_on_cuda.cpp</text>
</a>
</g>
</g>
<!-- Node1&#45;&gt;Node2 -->
<g id="edge1_Node000001_Node000002" class="edge">
<title>Node1&#45;&gt;Node2</title>
<g id="a_edge1_Node000001_Node000002"><a xlink:title=" ">
<path fill="none" stroke="#63b8ff" d="M102.08,-59.71C92.96,-50.59 82.75,-40.37 74.6,-32.22"/>
<polygon fill="#63b8ff" stroke="#63b8ff" points="99.45,-62.03 109,-66.62 104.4,-57.08 99.45,-62.03"/>
</a>
</g>
</g>
<!-- Node3 -->
<g id="Node000003" class="node">
<title>Node3</title>
<g id="a_Node000003"><a xlink:href="display__vram_8cpp.html" target="_top" xlink:title="Definitions for handling video ram.">
<polygon fill="white" stroke="#666666" points="245.88,-32 136.88,-32 136.88,0 245.88,0 245.88,-32"/>
<text text-anchor="start" x="144.88" y="-18.5" font-family="Helvetica,sans-Serif" font-size="10.00">src/platform/windows</text>
<text text-anchor="middle" x="191.38" y="-6.5" font-family="Helvetica,sans-Serif" font-size="10.00">/display_vram.cpp</text>
</a>
</g>
</g>
<!-- Node1&#45;&gt;Node3 -->
<g id="edge2_Node000001_Node000003" class="edge">
<title>Node1&#45;&gt;Node3</title>
<g id="a_edge2_Node000001_Node000003"><a xlink:title=" ">
<path fill="none" stroke="#63b8ff" d="M148.67,-59.71C157.79,-50.59 168,-40.37 176.15,-32.22"/>
<polygon fill="#63b8ff" stroke="#63b8ff" points="146.35,-57.08 141.75,-66.62 151.3,-62.03 146.35,-57.08"/>
</a>
</g>
</g>
</g>
</svg>
