<?xml version="1.0" encoding="UTF-8" standalone="no"?>
<!DOCTYPE svg PUBLIC "-//W3C//DTD SVG 1.1//EN"
 "http://www.w3.org/Graphics/SVG/1.1/DTD/svg11.dtd">
<!-- Generated by graphviz version 12.2.1 (0)
 -->
<!-- Title: src/nvenc/nvenc_utils.h Pages: 1 -->
<svg width="539pt" height="96pt"
 viewBox="0.00 0.00 538.88 96.00" xmlns="http://www.w3.org/2000/svg" xmlns:xlink="http://www.w3.org/1999/xlink">
<g id="graph0" class="graph" transform="scale(1 1) rotate(0) translate(4 92)">
<title>src/nvenc/nvenc_utils.h</title>
<!-- Node1 -->
<g id="Node000001" class="node">
<title>Node1</title>
<g id="a_Node000001"><a xlink:title="Declarations for NVENC utilities.">
<polygon fill="#999999" stroke="#666666" points="327.12,-88 207.62,-88 207.62,-68 327.12,-68 327.12,-88"/>
<text text-anchor="middle" x="267.38" y="-74.5" font-family="Helvetica,sans-Serif" font-size="10.00">src/nvenc/nvenc_utils.h</text>
</a>
</g>
</g>
<!-- Node2 -->
<g id="Node000002" class="node">
<title>Node2</title>
<g id="a_Node000002"><a xlink:href="nvenc__d3d11__native_8cpp.html" target="_top" xlink:title="Definitions for native Direct3D11 NVENC encoder.">
<polygon fill="white" stroke="#666666" points="118.75,-32 0,-32 0,0 118.75,0 118.75,-32"/>
<text text-anchor="start" x="8" y="-18.5" font-family="Helvetica,sans-Serif" font-size="10.00">src/nvenc/nvenc_d3d11</text>
<text text-anchor="middle" x="59.38" y="-6.5" font-family="Helvetica,sans-Serif" font-size="10.00">_native.cpp</text>
</a>
</g>
</g>
<!-- Node1&#45;&gt;Node2 -->
<g id="edge1_Node000001_Node000002" class="edge">
<title>Node1&#45;&gt;Node2</title>
<g id="a_edge1_Node000001_Node000002"><a xlink:title=" ">
<path fill="none" stroke="#63b8ff" d="M224,-64.49C191.75,-55.19 147.56,-42.44 113.08,-32.49"/>
<polygon fill="#63b8ff" stroke="#63b8ff" points="222.84,-67.8 233.42,-67.21 224.78,-61.07 222.84,-67.8"/>
</a>
</g>
</g>
<!-- Node3 -->
<g id="Node000003" class="node">
<title>Node3</title>
<g id="a_Node000003"><a xlink:href="nvenc__d3d11__on__cuda_8cpp.html" target="_top" xlink:title="Definitions for CUDA NVENC encoder with Direct3D11 input surfaces.">
<polygon fill="white" stroke="#666666" points="255.75,-32 137,-32 137,0 255.75,0 255.75,-32"/>
<text text-anchor="start" x="145" y="-18.5" font-family="Helvetica,sans-Serif" font-size="10.00">src/nvenc/nvenc_d3d11</text>
<text text-anchor="middle" x="196.38" y="-6.5" font-family="Helvetica,sans-Serif" font-size="10.00">_on_cuda.cpp</text>
</a>
</g>
</g>
<!-- Node1&#45;&gt;Node3 -->
<g id="edge2_Node000001_Node000003" class="edge">
<title>Node1&#45;&gt;Node3</title>
<g id="a_edge2_Node000001_Node000003"><a xlink:title=" ">
<path fill="none" stroke="#63b8ff" d="M247.55,-60.24C237.21,-51.51 224.65,-40.9 214.57,-32.37"/>
<polygon fill="#63b8ff" stroke="#63b8ff" points="245.23,-62.87 255.13,-66.65 249.75,-57.52 245.23,-62.87"/>
</a>
</g>
</g>
<!-- Node4 -->
<g id="Node000004" class="node">
<title>Node4</title>
<g id="a_Node000004"><a xlink:href="nvenc__utils_8cpp.html" target="_top" xlink:title="Definitions for NVENC utilities.">
<polygon fill="white" stroke="#666666" points="403.38,-26 273.38,-26 273.38,-6 403.38,-6 403.38,-26"/>
<text text-anchor="middle" x="338.38" y="-12.5" font-family="Helvetica,sans-Serif" font-size="10.00">src/nvenc/nvenc_utils.cpp</text>
</a>
</g>
</g>
<!-- Node1&#45;&gt;Node4 -->
<g id="edge3_Node000001_Node000004" class="edge">
<title>Node1&#45;&gt;Node4</title>
<g id="a_edge3_Node000001_Node000004"><a xlink:title=" ">
<path fill="none" stroke="#63b8ff" d="M287.23,-60.22C300.3,-49.18 316.91,-35.14 327.59,-26.11"/>
<polygon fill="#63b8ff" stroke="#63b8ff" points="285,-57.52 279.62,-66.65 289.52,-62.87 285,-57.52"/>
</a>
</g>
</g>
<!-- Node5 -->
<g id="Node000005" class="node">
<title>Node5</title>
<g id="a_Node000005"><a xlink:href="display__vram_8cpp.html" target="_top" xlink:title="Definitions for handling video ram.">
<polygon fill="white" stroke="#666666" points="530.88,-32 421.88,-32 421.88,0 530.88,0 530.88,-32"/>
<text text-anchor="start" x="429.88" y="-18.5" font-family="Helvetica,sans-Serif" font-size="10.00">src/platform/windows</text>
<text text-anchor="middle" x="476.38" y="-6.5" font-family="Helvetica,sans-Serif" font-size="10.00">/display_vram.cpp</text>
</a>
</g>
</g>
<!-- Node1&#45;&gt;Node5 -->
<g id="edge4_Node000001_Node000005" class="edge">
<title>Node1&#45;&gt;Node5</title>
<g id="a_edge4_Node000001_Node000005"><a xlink:title=" ">
<path fill="none" stroke="#63b8ff" d="M310.96,-64.49C343.36,-55.19 387.77,-42.44 422.42,-32.49"/>
<polygon fill="#63b8ff" stroke="#63b8ff" points="310.13,-61.08 301.49,-67.21 312.06,-67.81 310.13,-61.08"/>
</a>
</g>
</g>
</g>
</svg>
