<?xml version="1.0" encoding="UTF-8" standalone="no"?>
<!DOCTYPE svg PUBLIC "-//W3C//DTD SVG 1.1//EN"
 "http://www.w3.org/Graphics/SVG/1.1/DTD/svg11.dtd">
<!-- Generated by graphviz version 12.2.1 (0)
 -->
<!-- Title: src/nvenc/nvenc_base.h Pages: 1 -->
<svg width="482pt" height="220pt"
 viewBox="0.00 0.00 482.12 220.00" xmlns="http://www.w3.org/2000/svg" xmlns:xlink="http://www.w3.org/1999/xlink">
<g id="graph0" class="graph" transform="scale(1 1) rotate(0) translate(4 216)">
<title>src/nvenc/nvenc_base.h</title>
<!-- Node1 -->
<g id="Node000001" class="node">
<title>Node1</title>
<g id="a_Node000001"><a xlink:title="Declarations for abstract platform&#45;agnostic base of standalone NVENC encoder.">
<polygon fill="#999999" stroke="#666666" points="276,-212 153.5,-212 153.5,-192 276,-192 276,-212"/>
<text text-anchor="middle" x="214.75" y="-198.5" font-family="Helvetica,sans-Serif" font-size="10.00">src/nvenc/nvenc_base.h</text>
</a>
</g>
</g>
<!-- Node2 -->
<g id="Node000002" class="node">
<title>Node2</title>
<g id="a_Node000002"><a xlink:href="nvenc__base_8cpp.html" target="_top" xlink:title="Definitions for abstract platform&#45;agnostic base of standalone NVENC encoder.">
<polygon fill="white" stroke="#666666" points="133.25,-156 0.25,-156 0.25,-136 133.25,-136 133.25,-156"/>
<text text-anchor="middle" x="66.75" y="-142.5" font-family="Helvetica,sans-Serif" font-size="10.00">src/nvenc/nvenc_base.cpp</text>
</a>
</g>
</g>
<!-- Node1&#45;&gt;Node2 -->
<g id="edge1_Node000001_Node000002" class="edge">
<title>Node1&#45;&gt;Node2</title>
<g id="a_edge1_Node000001_Node000002"><a xlink:title=" ">
<path fill="none" stroke="#63b8ff" d="M178.19,-187.66C151.67,-177.98 116.42,-165.12 92.73,-156.48"/>
<polygon fill="#63b8ff" stroke="#63b8ff" points="176.95,-190.94 187.55,-191.08 179.35,-184.36 176.95,-190.94"/>
</a>
</g>
</g>
<!-- Node3 -->
<g id="Node000003" class="node">
<title>Node3</title>
<g id="a_Node000003"><a xlink:href="nvenc__d3d11_8h.html" target="_top" xlink:title="Declarations for abstract Direct3D11 NVENC encoder.">
<polygon fill="white" stroke="#666666" points="278.25,-156 151.25,-156 151.25,-136 278.25,-136 278.25,-156"/>
<text text-anchor="middle" x="214.75" y="-142.5" font-family="Helvetica,sans-Serif" font-size="10.00">src/nvenc/nvenc_d3d11.h</text>
</a>
</g>
</g>
<!-- Node1&#45;&gt;Node3 -->
<g id="edge2_Node000001_Node000003" class="edge">
<title>Node1&#45;&gt;Node3</title>
<g id="a_edge2_Node000001_Node000003"><a xlink:title=" ">
<path fill="none" stroke="#63b8ff" d="M214.75,-180.13C214.75,-171.9 214.75,-162.85 214.75,-156.3"/>
<polygon fill="#63b8ff" stroke="#63b8ff" points="211.25,-180.08 214.75,-190.08 218.25,-180.08 211.25,-180.08"/>
</a>
</g>
</g>
<!-- Node10 -->
<g id="Node000010" class="node">
<title>Node10</title>
<g id="a_Node000010"><a xlink:href="video_8cpp.html" target="_top" xlink:title="Definitions for video.">
<polygon fill="white" stroke="#666666" points="371,-156 296.5,-156 296.5,-136 371,-136 371,-156"/>
<text text-anchor="middle" x="333.75" y="-142.5" font-family="Helvetica,sans-Serif" font-size="10.00">src/video.cpp</text>
</a>
</g>
</g>
<!-- Node1&#45;&gt;Node10 -->
<g id="edge10_Node000001_Node000010" class="edge">
<title>Node1&#45;&gt;Node10</title>
<g id="a_edge10_Node000001_Node000010"><a xlink:title=" ">
<path fill="none" stroke="#63b8ff" d="M245.87,-186.88C266.98,-177.3 294.32,-164.89 312.86,-156.48"/>
<polygon fill="#63b8ff" stroke="#63b8ff" points="244.52,-183.65 236.86,-190.97 247.41,-190.02 244.52,-183.65"/>
</a>
</g>
</g>
<!-- Node4 -->
<g id="Node000004" class="node">
<title>Node4</title>
<g id="a_Node000004"><a xlink:href="nvenc__d3d11_8cpp.html" target="_top" xlink:title="Definitions for abstract Direct3D11 NVENC encoder.">
<polygon fill="white" stroke="#666666" points="137.5,-94 0,-94 0,-74 137.5,-74 137.5,-94"/>
<text text-anchor="middle" x="68.75" y="-80.5" font-family="Helvetica,sans-Serif" font-size="10.00">src/nvenc/nvenc_d3d11.cpp</text>
</a>
</g>
</g>
<!-- Node3&#45;&gt;Node4 -->
<g id="edge3_Node000003_Node000004" class="edge">
<title>Node3&#45;&gt;Node4</title>
<g id="a_edge3_Node000003_Node000004"><a xlink:title=" ">
<path fill="none" stroke="#63b8ff" d="M181.6,-131.38C154.04,-120.05 115.55,-104.23 91.4,-94.31"/>
<polygon fill="#63b8ff" stroke="#63b8ff" points="179.96,-134.49 190.54,-135.05 182.62,-128.01 179.96,-134.49"/>
</a>
</g>
</g>
<!-- Node5 -->
<g id="Node000005" class="node">
<title>Node5</title>
<g id="a_Node000005"><a xlink:href="nvenc__d3d11__native_8h.html" target="_top" xlink:title="Declarations for native Direct3D11 NVENC encoder.">
<polygon fill="white" stroke="#666666" points="274.12,-100 155.38,-100 155.38,-68 274.12,-68 274.12,-100"/>
<text text-anchor="start" x="163.38" y="-86.5" font-family="Helvetica,sans-Serif" font-size="10.00">src/nvenc/nvenc_d3d11</text>
<text text-anchor="middle" x="214.75" y="-74.5" font-family="Helvetica,sans-Serif" font-size="10.00">_native.h</text>
</a>
</g>
</g>
<!-- Node3&#45;&gt;Node5 -->
<g id="edge4_Node000003_Node000005" class="edge">
<title>Node3&#45;&gt;Node5</title>
<g id="a_edge4_Node000003_Node000005"><a xlink:title=" ">
<path fill="none" stroke="#63b8ff" d="M214.75,-124.31C214.75,-116.37 214.75,-107.46 214.75,-100.14"/>
<polygon fill="#63b8ff" stroke="#63b8ff" points="211.25,-124.11 214.75,-134.11 218.25,-124.11 211.25,-124.11"/>
</a>
</g>
</g>
<!-- Node8 -->
<g id="Node000008" class="node">
<title>Node8</title>
<g id="a_Node000008"><a xlink:href="nvenc__d3d11__on__cuda_8h.html" target="_top" xlink:title="Declarations for CUDA NVENC encoder with Direct3D11 input surfaces.">
<polygon fill="white" stroke="#666666" points="411.12,-100 292.38,-100 292.38,-68 411.12,-68 411.12,-100"/>
<text text-anchor="start" x="300.38" y="-86.5" font-family="Helvetica,sans-Serif" font-size="10.00">src/nvenc/nvenc_d3d11</text>
<text text-anchor="middle" x="351.75" y="-74.5" font-family="Helvetica,sans-Serif" font-size="10.00">_on_cuda.h</text>
</a>
</g>
</g>
<!-- Node3&#45;&gt;Node8 -->
<g id="edge7_Node000003_Node000008" class="edge">
<title>Node3&#45;&gt;Node8</title>
<g id="a_edge7_Node000003_Node000008"><a xlink:title=" ">
<path fill="none" stroke="#63b8ff" d="M246.43,-131.12C267.34,-121.97 294.76,-109.96 316.38,-100.49"/>
<polygon fill="#63b8ff" stroke="#63b8ff" points="245.3,-127.8 237.54,-135.02 248.11,-134.21 245.3,-127.8"/>
</a>
</g>
</g>
<!-- Node6 -->
<g id="Node000006" class="node">
<title>Node6</title>
<g id="a_Node000006"><a xlink:href="nvenc__d3d11__native_8cpp.html" target="_top" xlink:title="Definitions for native Direct3D11 NVENC encoder.">
<polygon fill="white" stroke="#666666" points="210.12,-32 91.38,-32 91.38,0 210.12,0 210.12,-32"/>
<text text-anchor="start" x="99.38" y="-18.5" font-family="Helvetica,sans-Serif" font-size="10.00">src/nvenc/nvenc_d3d11</text>
<text text-anchor="middle" x="150.75" y="-6.5" font-family="Helvetica,sans-Serif" font-size="10.00">_native.cpp</text>
</a>
</g>
</g>
<!-- Node5&#45;&gt;Node6 -->
<g id="edge5_Node000005_Node000006" class="edge">
<title>Node5&#45;&gt;Node6</title>
<g id="a_edge5_Node000005_Node000006"><a xlink:title=" ">
<path fill="none" stroke="#63b8ff" d="M191.89,-59.43C183.12,-50.38 173.34,-40.29 165.51,-32.22"/>
<polygon fill="#63b8ff" stroke="#63b8ff" points="189.38,-61.86 198.85,-66.61 194.4,-56.99 189.38,-61.86"/>
</a>
</g>
</g>
<!-- Node7 -->
<g id="Node000007" class="node">
<title>Node7</title>
<g id="a_Node000007"><a xlink:href="display__vram_8cpp.html" target="_top" xlink:title="Definitions for handling video ram.">
<polygon fill="white" stroke="#666666" points="337.25,-32 228.25,-32 228.25,0 337.25,0 337.25,-32"/>
<text text-anchor="start" x="236.25" y="-18.5" font-family="Helvetica,sans-Serif" font-size="10.00">src/platform/windows</text>
<text text-anchor="middle" x="282.75" y="-6.5" font-family="Helvetica,sans-Serif" font-size="10.00">/display_vram.cpp</text>
</a>
</g>
</g>
<!-- Node5&#45;&gt;Node7 -->
<g id="edge6_Node000005_Node000007" class="edge">
<title>Node5&#45;&gt;Node7</title>
<g id="a_edge6_Node000005_Node000007"><a xlink:title=" ">
<path fill="none" stroke="#63b8ff" d="M238.75,-59.71C248.15,-50.59 258.67,-40.37 267.06,-32.22"/>
<polygon fill="#63b8ff" stroke="#63b8ff" points="236.35,-57.16 231.61,-66.64 241.22,-62.18 236.35,-57.16"/>
</a>
</g>
</g>
<!-- Node8&#45;&gt;Node7 -->
<g id="edge9_Node000008_Node000007" class="edge">
<title>Node8&#45;&gt;Node7</title>
<g id="a_edge9_Node000008_Node000007"><a xlink:title=" ">
<path fill="none" stroke="#63b8ff" d="M327.69,-59.99C318.08,-50.79 307.27,-40.46 298.67,-32.22"/>
<polygon fill="#63b8ff" stroke="#63b8ff" points="325.01,-62.26 334.65,-66.65 329.85,-57.2 325.01,-62.26"/>
</a>
</g>
</g>
<!-- Node9 -->
<g id="Node000009" class="node">
<title>Node9</title>
<g id="a_Node000009"><a xlink:href="nvenc__d3d11__on__cuda_8cpp.html" target="_top" xlink:title="Definitions for CUDA NVENC encoder with Direct3D11 input surfaces.">
<polygon fill="white" stroke="#666666" points="474.12,-32 355.38,-32 355.38,0 474.12,0 474.12,-32"/>
<text text-anchor="start" x="363.38" y="-18.5" font-family="Helvetica,sans-Serif" font-size="10.00">src/nvenc/nvenc_d3d11</text>
<text text-anchor="middle" x="414.75" y="-6.5" font-family="Helvetica,sans-Serif" font-size="10.00">_on_cuda.cpp</text>
</a>
</g>
</g>
<!-- Node8&#45;&gt;Node9 -->
<g id="edge8_Node000008_Node000009" class="edge">
<title>Node8&#45;&gt;Node9</title>
<g id="a_edge8_Node000008_Node000009"><a xlink:title=" ">
<path fill="none" stroke="#63b8ff" d="M374.25,-59.43C382.89,-50.38 392.52,-40.29 400.22,-32.22"/>
<polygon fill="#63b8ff" stroke="#63b8ff" points="371.78,-56.95 367.41,-66.6 376.84,-61.78 371.78,-56.95"/>
</a>
</g>
</g>
</g>
</svg>
