<?xml version="1.0" encoding="UTF-8" standalone="no"?>
<!DOCTYPE svg PUBLIC "-//W3C//DTD SVG 1.1//EN"
 "http://www.w3.org/Graphics/SVG/1.1/DTD/svg11.dtd">
<!-- Generated by graphviz version 12.2.1 (0)
 -->
<!-- Title: src/nvenc/nvenc_d3d11.cpp Pages: 1 -->
<svg width="1540pt" height="488pt"
 viewBox="0.00 0.00 1540.25 488.00" xmlns="http://www.w3.org/2000/svg" xmlns:xlink="http://www.w3.org/1999/xlink">
<g id="graph0" class="graph" transform="scale(1 1) rotate(0) translate(4 484)">
<title>src/nvenc/nvenc_d3d11.cpp</title>
<!-- Node1 -->
<g id="Node000001" class="node">
<title>Node1</title>
<g id="a_Node000001"><a xlink:title="Definitions for abstract Direct3D11 NVENC encoder.">
<polygon fill="#999999" stroke="#666666" points="845.38,-480 707.88,-480 707.88,-460 845.38,-460 845.38,-480"/>
<text text-anchor="middle" x="776.62" y="-466.5" font-family="Helvetica,sans-Serif" font-size="10.00">src/nvenc/nvenc_d3d11.cpp</text>
</a>
</g>
</g>
<!-- Node2 -->
<g id="Node000002" class="node">
<title>Node2</title>
<g id="a_Node000002"><a xlink:href="logging_8h.html" target="_top" xlink:title="Declarations for logging related functions.">
<polygon fill="white" stroke="#666666" points="1262.38,-138 1190.88,-138 1190.88,-118 1262.38,-118 1262.38,-138"/>
<text text-anchor="middle" x="1226.62" y="-124.5" font-family="Helvetica,sans-Serif" font-size="10.00">src/logging.h</text>
</a>
</g>
</g>
<!-- Node1&#45;&gt;Node2 -->
<g id="edge1_Node000001_Node000002" class="edge">
<title>Node1&#45;&gt;Node2</title>
<g id="a_edge1_Node000001_Node000002"><a xlink:title=" ">
<path fill="none" stroke="#63b8ff" d="M845.46,-466.37C971.52,-459.66 1226.62,-436.51 1226.62,-359 1226.62,-359 1226.62,-359 1226.62,-245 1226.62,-211.68 1226.62,-172.98 1226.62,-149.77"/>
<polygon fill="#63b8ff" stroke="#63b8ff" points="1230.13,-149.84 1226.63,-139.84 1223.13,-149.84 1230.13,-149.84"/>
</a>
</g>
</g>
<!-- Node17 -->
<g id="Node000017" class="node">
<title>Node17</title>
<g id="a_Node000017"><a xlink:href="nvenc__d3d11_8h.html" target="_top" xlink:title="Declarations for abstract Direct3D11 NVENC encoder.">
<polygon fill="white" stroke="#666666" points="466.25,-424 385,-424 385,-404 466.25,-404 466.25,-424"/>
<text text-anchor="middle" x="425.62" y="-410.5" font-family="Helvetica,sans-Serif" font-size="10.00">nvenc_d3d11.h</text>
</a>
</g>
</g>
<!-- Node1&#45;&gt;Node17 -->
<g id="edge17_Node000001_Node000017" class="edge">
<title>Node1&#45;&gt;Node17</title>
<g id="a_edge17_Node000001_Node000017"><a xlink:title=" ">
<path fill="none" stroke="#63b8ff" d="M715.08,-459.53C647.8,-449.18 541.15,-432.77 477.82,-423.03"/>
<polygon fill="#63b8ff" stroke="#63b8ff" points="478.43,-419.58 468.01,-421.52 477.36,-426.5 478.43,-419.58"/>
</a>
</g>
</g>
<!-- Node3 -->
<g id="Node000003" class="node">
<title>Node3</title>
<g id="a_Node000003"><a xlink:title=" ">
<polygon fill="#e0e0e0" stroke="#999999" points="1294.12,-76 1179.12,-76 1179.12,-56 1294.12,-56 1294.12,-76"/>
<text text-anchor="middle" x="1236.62" y="-62.5" font-family="Helvetica,sans-Serif" font-size="10.00">boost/log/common.hpp</text>
</a>
</g>
</g>
<!-- Node2&#45;&gt;Node3 -->
<g id="edge2_Node000002_Node000003" class="edge">
<title>Node2&#45;&gt;Node3</title>
<g id="a_edge2_Node000002_Node000003"><a xlink:title=" ">
<path fill="none" stroke="#63b8ff" d="M1228.19,-117.62C1229.53,-109.56 1231.52,-97.65 1233.22,-87.41"/>
<polygon fill="#63b8ff" stroke="#63b8ff" points="1236.67,-88.05 1234.86,-77.61 1229.76,-86.89 1236.67,-88.05"/>
</a>
</g>
</g>
<!-- Node4 -->
<g id="Node000004" class="node">
<title>Node4</title>
<g id="a_Node000004"><a xlink:title=" ">
<polygon fill="#e0e0e0" stroke="#999999" points="1413,-76 1312.25,-76 1312.25,-56 1413,-56 1413,-76"/>
<text text-anchor="middle" x="1362.62" y="-62.5" font-family="Helvetica,sans-Serif" font-size="10.00">boost/log/sinks.hpp</text>
</a>
</g>
</g>
<!-- Node2&#45;&gt;Node4 -->
<g id="edge3_Node000002_Node000004" class="edge">
<title>Node2&#45;&gt;Node4</title>
<g id="a_edge3_Node000002_Node000004"><a xlink:title=" ">
<path fill="none" stroke="#63b8ff" d="M1247.88,-117.62C1270.23,-107.76 1305.65,-92.13 1331.23,-80.85"/>
<polygon fill="#63b8ff" stroke="#63b8ff" points="1332.4,-84.16 1340.14,-76.92 1329.58,-77.75 1332.4,-84.16"/>
</a>
</g>
</g>
<!-- Node5 -->
<g id="Node000005" class="node">
<title>Node5</title>
<g id="a_Node000005"><a xlink:href="config_8h.html" target="_top" xlink:title="Declarations for the configuration of Sunshine.">
<polygon fill="white" stroke="#666666" points="840.88,-76 790.38,-76 790.38,-56 840.88,-56 840.88,-76"/>
<text text-anchor="middle" x="815.62" y="-62.5" font-family="Helvetica,sans-Serif" font-size="10.00">config.h</text>
</a>
</g>
</g>
<!-- Node2&#45;&gt;Node5 -->
<g id="edge4_Node000002_Node000005" class="edge">
<title>Node2&#45;&gt;Node5</title>
<g id="a_edge4_Node000002_Node000005"><a xlink:title=" ">
<path fill="none" stroke="#63b8ff" d="M1190.51,-121.73C1112.91,-110.4 930.95,-83.84 852.59,-72.4"/>
<polygon fill="#63b8ff" stroke="#63b8ff" points="853.27,-68.96 842.87,-70.98 852.26,-75.89 853.27,-68.96"/>
</a>
</g>
</g>
<!-- Node13 -->
<g id="Node000013" class="node">
<title>Node13</title>
<g id="a_Node000013"><a xlink:href="stat__trackers_8h.html" target="_top" xlink:title="Declarations for streaming statistic tracking.">
<polygon fill="white" stroke="#666666" points="1512.25,-76 1431,-76 1431,-56 1512.25,-56 1512.25,-76"/>
<text text-anchor="middle" x="1471.62" y="-62.5" font-family="Helvetica,sans-Serif" font-size="10.00">stat_trackers.h</text>
</a>
</g>
</g>
<!-- Node2&#45;&gt;Node13 -->
<g id="edge12_Node000002_Node000013" class="edge">
<title>Node2&#45;&gt;Node13</title>
<g id="a_edge12_Node000002_Node000013"><a xlink:title=" ">
<path fill="none" stroke="#63b8ff" d="M1262.78,-118.15C1304.92,-107.83 1374.81,-90.71 1422.01,-79.15"/>
<polygon fill="#63b8ff" stroke="#63b8ff" points="1422.55,-82.62 1431.43,-76.84 1420.88,-75.82 1422.55,-82.62"/>
</a>
</g>
</g>
<!-- Node6 -->
<g id="Node000006" class="node">
<title>Node6</title>
<g id="a_Node000006"><a xlink:title=" ">
<polygon fill="#e0e0e0" stroke="#999999" points="1121.62,-20 1081.62,-20 1081.62,0 1121.62,0 1121.62,-20"/>
<text text-anchor="middle" x="1101.62" y="-6.5" font-family="Helvetica,sans-Serif" font-size="10.00">bitset</text>
</a>
</g>
</g>
<!-- Node5&#45;&gt;Node6 -->
<g id="edge5_Node000005_Node000006" class="edge">
<title>Node5&#45;&gt;Node6</title>
<g id="a_edge5_Node000005_Node000006"><a xlink:title=" ">
<path fill="none" stroke="#63b8ff" d="M841.17,-58.86C845.64,-57.86 850.26,-56.86 854.62,-56 947.48,-37.64 975.08,-42.23 1070.14,-20.32"/>
<polygon fill="#63b8ff" stroke="#63b8ff" points="1070.72,-23.78 1079.65,-18.09 1069.12,-16.97 1070.72,-23.78"/>
</a>
</g>
</g>
<!-- Node7 -->
<g id="Node000007" class="node">
<title>Node7</title>
<g id="a_Node000007"><a xlink:title=" ">
<polygon fill="#e0e0e0" stroke="#999999" points="1185.25,-20 1140,-20 1140,0 1185.25,0 1185.25,-20"/>
<text text-anchor="middle" x="1162.62" y="-6.5" font-family="Helvetica,sans-Serif" font-size="10.00">chrono</text>
</a>
</g>
</g>
<!-- Node5&#45;&gt;Node7 -->
<g id="edge6_Node000005_Node000007" class="edge">
<title>Node5&#45;&gt;Node7</title>
<g id="a_edge6_Node000005_Node000007"><a xlink:title=" ">
<path fill="none" stroke="#63b8ff" d="M841.15,-58.74C845.62,-57.75 850.25,-56.79 854.62,-56 972.8,-34.71 1007.42,-44.21 1128.45,-20.16"/>
<polygon fill="#63b8ff" stroke="#63b8ff" points="1129.06,-23.61 1138.17,-18.19 1127.67,-16.75 1129.06,-23.61"/>
</a>
</g>
</g>
<!-- Node8 -->
<g id="Node000008" class="node">
<title>Node8</title>
<g id="a_Node000008"><a xlink:title=" ">
<polygon fill="#e0e0e0" stroke="#999999" points="775.5,-20 725.75,-20 725.75,0 775.5,0 775.5,-20"/>
<text text-anchor="middle" x="750.62" y="-6.5" font-family="Helvetica,sans-Serif" font-size="10.00">optional</text>
</a>
</g>
</g>
<!-- Node5&#45;&gt;Node8 -->
<g id="edge7_Node000005_Node000008" class="edge">
<title>Node5&#45;&gt;Node8</title>
<g id="a_edge7_Node000005_Node000008"><a xlink:title=" ">
<path fill="none" stroke="#63b8ff" d="M804.3,-55.59C794.98,-47.85 781.55,-36.69 770.45,-27.47"/>
<polygon fill="#63b8ff" stroke="#63b8ff" points="772.91,-24.96 762.98,-21.27 768.44,-30.35 772.91,-24.96"/>
</a>
</g>
</g>
<!-- Node9 -->
<g id="Node000009" class="node">
<title>Node9</title>
<g id="a_Node000009"><a xlink:title=" ">
<polygon fill="#e0e0e0" stroke="#999999" points="833.62,-20 793.62,-20 793.62,0 833.62,0 833.62,-20"/>
<text text-anchor="middle" x="813.62" y="-6.5" font-family="Helvetica,sans-Serif" font-size="10.00">string</text>
</a>
</g>
</g>
<!-- Node5&#45;&gt;Node9 -->
<g id="edge8_Node000005_Node000009" class="edge">
<title>Node5&#45;&gt;Node9</title>
<g id="a_edge8_Node000005_Node000009"><a xlink:title=" ">
<path fill="none" stroke="#63b8ff" d="M815.28,-55.59C815.03,-49.01 814.7,-39.96 814.39,-31.73"/>
<polygon fill="#63b8ff" stroke="#63b8ff" points="817.89,-31.67 814.03,-21.81 810.9,-31.93 817.89,-31.67"/>
</a>
</g>
</g>
<!-- Node10 -->
<g id="Node000010" class="node">
<title>Node10</title>
<g id="a_Node000010"><a xlink:title=" ">
<polygon fill="#e0e0e0" stroke="#999999" points="1064,-20 981.25,-20 981.25,0 1064,0 1064,-20"/>
<text text-anchor="middle" x="1022.62" y="-6.5" font-family="Helvetica,sans-Serif" font-size="10.00">unordered_map</text>
</a>
</g>
</g>
<!-- Node5&#45;&gt;Node10 -->
<g id="edge9_Node000005_Node000010" class="edge">
<title>Node5&#45;&gt;Node10</title>
<g id="a_edge9_Node000005_Node000010"><a xlink:title=" ">
<path fill="none" stroke="#63b8ff" d="M841.01,-58.38C874.33,-49.68 933.49,-34.25 975.22,-23.37"/>
<polygon fill="#63b8ff" stroke="#63b8ff" points="975.97,-26.79 984.76,-20.88 974.2,-20.01 975.97,-26.79"/>
</a>
</g>
</g>
<!-- Node11 -->
<g id="Node000011" class="node">
<title>Node11</title>
<g id="a_Node000011"><a xlink:title=" ">
<polygon fill="#e0e0e0" stroke="#999999" points="95.12,-20 52.12,-20 52.12,0 95.12,0 95.12,-20"/>
<text text-anchor="middle" x="73.62" y="-6.5" font-family="Helvetica,sans-Serif" font-size="10.00">vector</text>
</a>
</g>
</g>
<!-- Node5&#45;&gt;Node11 -->
<g id="edge10_Node000005_Node000011" class="edge">
<title>Node5&#45;&gt;Node11</title>
<g id="a_edge10_Node000005_Node000011"><a xlink:title=" ">
<path fill="none" stroke="#63b8ff" d="M789.89,-63.71C675.24,-57.9 212.38,-33.99 106.8,-19.73"/>
<polygon fill="#63b8ff" stroke="#63b8ff" points="107.41,-16.28 97,-18.22 106.35,-23.2 107.41,-16.28"/>
</a>
</g>
</g>
<!-- Node12 -->
<g id="Node000012" class="node">
<title>Node12</title>
<g id="a_Node000012"><a xlink:href="nvenc__config_8h.html" target="_top" xlink:title="Declarations for NVENC encoder configuration.">
<polygon fill="white" stroke="#666666" points="963.25,-20 852,-20 852,0 963.25,0 963.25,-20"/>
<text text-anchor="middle" x="907.62" y="-6.5" font-family="Helvetica,sans-Serif" font-size="10.00">nvenc/nvenc_config.h</text>
</a>
</g>
</g>
<!-- Node5&#45;&gt;Node12 -->
<g id="edge11_Node000005_Node000012" class="edge">
<title>Node5&#45;&gt;Node12</title>
<g id="a_edge11_Node000005_Node000012"><a xlink:title=" ">
<path fill="none" stroke="#63b8ff" d="M831.65,-55.59C845.42,-47.51 865.53,-35.71 881.6,-26.27"/>
<polygon fill="#63b8ff" stroke="#63b8ff" points="883.32,-29.33 890.17,-21.25 879.77,-23.29 883.32,-29.33"/>
</a>
</g>
</g>
<!-- Node13&#45;&gt;Node7 -->
<g id="edge13_Node000013_Node000007" class="edge">
<title>Node13&#45;&gt;Node7</title>
<g id="a_edge13_Node000013_Node000007"><a xlink:title=" ">
<path fill="none" stroke="#63b8ff" d="M1430.71,-57.56C1427.64,-57.03 1424.58,-56.5 1421.62,-56 1324.45,-39.55 1296.36,-41.69 1196.79,-20.25"/>
<polygon fill="#63b8ff" stroke="#63b8ff" points="1197.61,-16.85 1187.09,-18.14 1196.12,-23.69 1197.61,-16.85"/>
</a>
</g>
</g>
<!-- Node14 -->
<g id="Node000014" class="node">
<title>Node14</title>
<g id="a_Node000014"><a xlink:title=" ">
<polygon fill="#e0e0e0" stroke="#999999" points="1261.62,-20 1203.62,-20 1203.62,0 1261.62,0 1261.62,-20"/>
<text text-anchor="middle" x="1232.62" y="-6.5" font-family="Helvetica,sans-Serif" font-size="10.00">functional</text>
</a>
</g>
</g>
<!-- Node13&#45;&gt;Node14 -->
<g id="edge14_Node000013_Node000014" class="edge">
<title>Node13&#45;&gt;Node14</title>
<g id="a_edge14_Node000013_Node000014"><a xlink:title=" ">
<path fill="none" stroke="#63b8ff" d="M1430.54,-55.72C1386.43,-45.75 1316.81,-30.02 1272.99,-20.12"/>
<polygon fill="#63b8ff" stroke="#63b8ff" points="1273.9,-16.74 1263.37,-17.95 1272.35,-23.56 1273.9,-16.74"/>
</a>
</g>
</g>
<!-- Node15 -->
<g id="Node000015" class="node">
<title>Node15</title>
<g id="a_Node000015"><a xlink:title=" ">
<polygon fill="#e0e0e0" stroke="#999999" points="1532.25,-20 1493,-20 1493,0 1532.25,0 1532.25,-20"/>
<text text-anchor="middle" x="1512.62" y="-6.5" font-family="Helvetica,sans-Serif" font-size="10.00">limits</text>
</a>
</g>
</g>
<!-- Node13&#45;&gt;Node15 -->
<g id="edge15_Node000013_Node000015" class="edge">
<title>Node13&#45;&gt;Node15</title>
<g id="a_edge15_Node000013_Node000015"><a xlink:title=" ">
<path fill="none" stroke="#63b8ff" d="M1478.77,-55.59C1484.23,-48.39 1491.95,-38.23 1498.63,-29.43"/>
<polygon fill="#63b8ff" stroke="#63b8ff" points="1501.39,-31.58 1504.65,-21.5 1495.82,-27.35 1501.39,-31.58"/>
</a>
</g>
</g>
<!-- Node16 -->
<g id="Node000016" class="node">
<title>Node16</title>
<g id="a_Node000016"><a xlink:title=" ">
<polygon fill="#e0e0e0" stroke="#999999" points="1475.38,-20 1385.88,-20 1385.88,0 1475.38,0 1475.38,-20"/>
<text text-anchor="middle" x="1430.62" y="-6.5" font-family="Helvetica,sans-Serif" font-size="10.00">boost/format.hpp</text>
</a>
</g>
</g>
<!-- Node13&#45;&gt;Node16 -->
<g id="edge16_Node000013_Node000016" class="edge">
<title>Node13&#45;&gt;Node16</title>
<g id="a_edge16_Node000013_Node000016"><a xlink:title=" ">
<path fill="none" stroke="#63b8ff" d="M1464.48,-55.59C1459.02,-48.39 1451.3,-38.23 1444.62,-29.43"/>
<polygon fill="#63b8ff" stroke="#63b8ff" points="1447.43,-27.35 1438.6,-21.5 1441.86,-31.58 1447.43,-27.35"/>
</a>
</g>
</g>
<!-- Node18 -->
<g id="Node000018" class="node">
<title>Node18</title>
<g id="a_Node000018"><a xlink:title=" ">
<polygon fill="#e0e0e0" stroke="#999999" points="410.88,-368 354.38,-368 354.38,-348 410.88,-348 410.88,-368"/>
<text text-anchor="middle" x="382.62" y="-354.5" font-family="Helvetica,sans-Serif" font-size="10.00">comdef.h</text>
</a>
</g>
</g>
<!-- Node17&#45;&gt;Node18 -->
<g id="edge18_Node000017_Node000018" class="edge">
<title>Node17&#45;&gt;Node18</title>
<g id="a_edge18_Node000017_Node000018"><a xlink:title=" ">
<path fill="none" stroke="#63b8ff" d="M418.13,-403.59C412.34,-396.32 404.14,-386.02 397.08,-377.15"/>
<polygon fill="#63b8ff" stroke="#63b8ff" points="399.94,-375.12 390.97,-369.48 394.46,-379.49 399.94,-375.12"/>
</a>
</g>
</g>
<!-- Node19 -->
<g id="Node000019" class="node">
<title>Node19</title>
<g id="a_Node000019"><a xlink:title=" ">
<polygon fill="#e0e0e0" stroke="#999999" points="336.5,-368 286.75,-368 286.75,-348 336.5,-348 336.5,-368"/>
<text text-anchor="middle" x="311.62" y="-354.5" font-family="Helvetica,sans-Serif" font-size="10.00">d3d11.h</text>
</a>
</g>
</g>
<!-- Node17&#45;&gt;Node19 -->
<g id="edge19_Node000017_Node000019" class="edge">
<title>Node17&#45;&gt;Node19</title>
<g id="a_edge19_Node000017_Node000019"><a xlink:title=" ">
<path fill="none" stroke="#63b8ff" d="M405.77,-403.59C388.14,-395.24 362.12,-382.92 341.9,-373.34"/>
<polygon fill="#63b8ff" stroke="#63b8ff" points="343.54,-370.25 333.01,-369.13 340.54,-376.57 343.54,-370.25"/>
</a>
</g>
</g>
<!-- Node20 -->
<g id="Node000020" class="node">
<title>Node20</title>
<g id="a_Node000020"><a xlink:href="nvenc__base_8h.html" target="_top" xlink:title="Declarations for abstract platform&#45;agnostic base of standalone NVENC encoder.">
<polygon fill="white" stroke="#666666" points="506,-368 429.25,-368 429.25,-348 506,-348 506,-368"/>
<text text-anchor="middle" x="467.62" y="-354.5" font-family="Helvetica,sans-Serif" font-size="10.00">nvenc_base.h</text>
</a>
</g>
</g>
<!-- Node17&#45;&gt;Node20 -->
<g id="edge20_Node000017_Node000020" class="edge">
<title>Node17&#45;&gt;Node20</title>
<g id="a_edge20_Node000017_Node000020"><a xlink:title=" ">
<path fill="none" stroke="#63b8ff" d="M432.94,-403.59C438.6,-396.32 446.61,-386.02 453.51,-377.15"/>
<polygon fill="#63b8ff" stroke="#63b8ff" points="456.09,-379.54 459.46,-369.49 450.56,-375.24 456.09,-379.54"/>
</a>
</g>
</g>
<!-- Node20&#45;&gt;Node2 -->
<g id="edge28_Node000020_Node000002" class="edge">
<title>Node20&#45;&gt;Node2</title>
<g id="a_edge28_Node000020_Node000002"><a xlink:title=" ">
<path fill="none" stroke="#63b8ff" d="M506.25,-348.77C579.95,-332.82 745.52,-295.73 882.62,-256 957.41,-234.33 975.55,-226.88 1048.62,-200 1099.7,-181.21 1158.18,-157.45 1193.75,-142.73"/>
<polygon fill="#63b8ff" stroke="#63b8ff" points="1194.72,-146.12 1202.62,-139.05 1192.04,-139.65 1194.72,-146.12"/>
</a>
</g>
</g>
<!-- Node20&#45;&gt;Node12 -->
<g id="edge24_Node000020_Node000012" class="edge">
<title>Node20&#45;&gt;Node12</title>
<g id="a_edge24_Node000020_Node000012"><a xlink:title=" ">
<path fill="none" stroke="#63b8ff" d="M469.19,-347.61C475.7,-311.43 504.06,-179.74 581.62,-112 621.96,-76.78 767.85,-40.94 850.13,-22.92"/>
<polygon fill="#63b8ff" stroke="#63b8ff" points="850.8,-26.36 859.83,-20.82 849.31,-19.52 850.8,-26.36"/>
</a>
</g>
</g>
<!-- Node21 -->
<g id="Node000021" class="node">
<title>Node21</title>
<g id="a_Node000021"><a xlink:title=" ">
<polygon fill="#e0e0e0" stroke="#999999" points="129.25,-256 0,-256 0,-236 129.25,-236 129.25,-256"/>
<text text-anchor="middle" x="64.62" y="-242.5" font-family="Helvetica,sans-Serif" font-size="10.00">ffnvcodec/nvEncodeAPI.h</text>
</a>
</g>
</g>
<!-- Node20&#45;&gt;Node21 -->
<g id="edge21_Node000020_Node000021" class="edge">
<title>Node20&#45;&gt;Node21</title>
<g id="a_edge21_Node000020_Node000021"><a xlink:title=" ">
<path fill="none" stroke="#63b8ff" d="M428.89,-349.5C425.76,-348.97 422.64,-348.46 419.62,-348 351.28,-337.62 170.08,-347.27 110.62,-312 93.19,-301.66 80.64,-281.84 73.09,-266.79"/>
<polygon fill="#63b8ff" stroke="#63b8ff" points="76.32,-265.43 68.94,-257.83 69.97,-268.37 76.32,-265.43"/>
</a>
</g>
</g>
<!-- Node22 -->
<g id="Node000022" class="node">
<title>Node22</title>
<g id="a_Node000022"><a xlink:href="nvenc__colorspace_8h.html" target="_top" xlink:title="Declarations for NVENC YUV colorspace.">
<polygon fill="white" stroke="#666666" points="223.12,-312 120.12,-312 120.12,-292 223.12,-292 223.12,-312"/>
<text text-anchor="middle" x="171.62" y="-298.5" font-family="Helvetica,sans-Serif" font-size="10.00">nvenc_colorspace.h</text>
</a>
</g>
</g>
<!-- Node20&#45;&gt;Node22 -->
<g id="edge22_Node000020_Node000022" class="edge">
<title>Node20&#45;&gt;Node22</title>
<g id="a_edge22_Node000020_Node000022"><a xlink:title=" ">
<path fill="none" stroke="#63b8ff" d="M428.86,-349.71C425.73,-349.13 422.63,-348.55 419.62,-348 356.75,-336.4 284.85,-323.38 234.72,-314.34"/>
<polygon fill="#63b8ff" stroke="#63b8ff" points="235.37,-310.9 224.9,-312.57 234.13,-317.79 235.37,-310.9"/>
</a>
</g>
</g>
<!-- Node23 -->
<g id="Node000023" class="node">
<title>Node23</title>
<g id="a_Node000023"><a xlink:href="nvenc__encoded__frame_8h.html" target="_top" xlink:title="Declarations for NVENC encoded frame.">
<polygon fill="white" stroke="#666666" points="374.88,-312 252.38,-312 252.38,-292 374.88,-292 374.88,-312"/>
<text text-anchor="middle" x="313.62" y="-298.5" font-family="Helvetica,sans-Serif" font-size="10.00">nvenc_encoded_frame.h</text>
</a>
</g>
</g>
<!-- Node20&#45;&gt;Node23 -->
<g id="edge25_Node000020_Node000023" class="edge">
<title>Node20&#45;&gt;Node23</title>
<g id="a_edge25_Node000020_Node000023"><a xlink:title=" ">
<path fill="none" stroke="#63b8ff" d="M440.8,-347.59C416,-338.9 378.9,-325.89 351.16,-316.16"/>
<polygon fill="#63b8ff" stroke="#63b8ff" points="352.68,-312.99 342.09,-312.98 350.37,-319.59 352.68,-312.99"/>
</a>
</g>
</g>
<!-- Node25 -->
<g id="Node000025" class="node">
<title>Node25</title>
<g id="a_Node000025"><a xlink:href="video_8h.html" target="_top" xlink:title="Declarations for video.">
<polygon fill="white" stroke="#666666" points="575.62,-312 511.62,-312 511.62,-292 575.62,-292 575.62,-312"/>
<text text-anchor="middle" x="543.62" y="-298.5" font-family="Helvetica,sans-Serif" font-size="10.00">src/video.h</text>
</a>
</g>
</g>
<!-- Node20&#45;&gt;Node25 -->
<g id="edge29_Node000020_Node000025" class="edge">
<title>Node20&#45;&gt;Node25</title>
<g id="a_edge29_Node000020_Node000025"><a xlink:title=" ">
<path fill="none" stroke="#63b8ff" d="M480.86,-347.59C491.91,-339.74 507.91,-328.38 520.98,-319.09"/>
<polygon fill="#63b8ff" stroke="#63b8ff" points="522.93,-322 529.05,-313.36 518.87,-316.3 522.93,-322"/>
</a>
</g>
</g>
<!-- Node22&#45;&gt;Node21 -->
<g id="edge23_Node000022_Node000021" class="edge">
<title>Node22&#45;&gt;Node21</title>
<g id="a_edge23_Node000022_Node000021"><a xlink:title=" ">
<path fill="none" stroke="#63b8ff" d="M152.99,-291.59C136.59,-283.32 112.47,-271.14 93.56,-261.6"/>
<polygon fill="#63b8ff" stroke="#63b8ff" points="95.26,-258.54 84.76,-257.16 92.11,-264.79 95.26,-258.54"/>
</a>
</g>
</g>
<!-- Node23&#45;&gt;Node11 -->
<g id="edge27_Node000023_Node000011" class="edge">
<title>Node23&#45;&gt;Node11</title>
<g id="a_edge27_Node000023_Node000011"><a xlink:title=" ">
<path fill="none" stroke="#63b8ff" d="M273.86,-291.53C227.64,-277.89 157.62,-247.83 157.62,-191 157.62,-191 157.62,-191 157.62,-127 157.62,-84.89 120.86,-47.73 95.98,-27.4"/>
<polygon fill="#63b8ff" stroke="#63b8ff" points="98.34,-24.8 88.31,-21.39 94.02,-30.31 98.34,-24.8"/>
</a>
</g>
</g>
<!-- Node24 -->
<g id="Node000024" class="node">
<title>Node24</title>
<g id="a_Node000024"><a xlink:title=" ">
<polygon fill="#e0e0e0" stroke="#999999" points="336.25,-256 291,-256 291,-236 336.25,-236 336.25,-256"/>
<text text-anchor="middle" x="313.62" y="-242.5" font-family="Helvetica,sans-Serif" font-size="10.00">cstdint</text>
</a>
</g>
</g>
<!-- Node23&#45;&gt;Node24 -->
<g id="edge26_Node000023_Node000024" class="edge">
<title>Node23&#45;&gt;Node24</title>
<g id="a_edge26_Node000023_Node000024"><a xlink:title=" ">
<path fill="none" stroke="#63b8ff" d="M313.62,-291.59C313.62,-285.01 313.62,-275.96 313.62,-267.73"/>
<polygon fill="#63b8ff" stroke="#63b8ff" points="317.13,-267.81 313.63,-257.81 310.13,-267.81 317.13,-267.81"/>
</a>
</g>
</g>
<!-- Node26 -->
<g id="Node000026" class="node">
<title>Node26</title>
<g id="a_Node000026"><a xlink:href="input_8h.html" target="_top" xlink:title="Declarations for gamepad, keyboard, and mouse input handling.">
<polygon fill="white" stroke="#666666" points="617.25,-256 572,-256 572,-236 617.25,-236 617.25,-256"/>
<text text-anchor="middle" x="594.62" y="-242.5" font-family="Helvetica,sans-Serif" font-size="10.00">input.h</text>
</a>
</g>
</g>
<!-- Node25&#45;&gt;Node26 -->
<g id="edge30_Node000025_Node000026" class="edge">
<title>Node25&#45;&gt;Node26</title>
<g id="a_edge30_Node000025_Node000026"><a xlink:title=" ">
<path fill="none" stroke="#63b8ff" d="M552.51,-291.59C559.53,-284.16 569.53,-273.58 578.02,-264.58"/>
<polygon fill="#63b8ff" stroke="#63b8ff" points="580.48,-267.07 584.8,-257.4 575.39,-262.27 580.48,-267.07"/>
</a>
</g>
</g>
<!-- Node27 -->
<g id="Node000027" class="node">
<title>Node27</title>
<g id="a_Node000027"><a xlink:href="common_8h.html" target="_top" xlink:title="Declarations for common platform specific utilities.">
<polygon fill="white" stroke="#666666" points="793.62,-200 693.62,-200 693.62,-180 793.62,-180 793.62,-200"/>
<text text-anchor="middle" x="743.62" y="-186.5" font-family="Helvetica,sans-Serif" font-size="10.00">platform/common.h</text>
</a>
</g>
</g>
<!-- Node25&#45;&gt;Node27 -->
<g id="edge66_Node000025_Node000027" class="edge">
<title>Node25&#45;&gt;Node27</title>
<g id="a_edge66_Node000025_Node000027"><a xlink:title=" ">
<path fill="none" stroke="#63b8ff" d="M543.6,-291.56C544.1,-277.42 547.19,-250.82 562.62,-236 579.74,-219.56 636.6,-207.2 682.07,-199.63"/>
<polygon fill="#63b8ff" stroke="#63b8ff" points="682.55,-203.1 691.86,-198.05 681.43,-196.19 682.55,-203.1"/>
</a>
</g>
</g>
<!-- Node31 -->
<g id="Node000031" class="node">
<title>Node31</title>
<g id="a_Node000031"><a xlink:href="thread__safe_8h.html" target="_top" xlink:title="Declarations for thread&#45;safe data structures.">
<polygon fill="white" stroke="#666666" points="496.5,-138 404.75,-138 404.75,-118 496.5,-118 496.5,-138"/>
<text text-anchor="middle" x="450.62" y="-124.5" font-family="Helvetica,sans-Serif" font-size="10.00">src/thread_safe.h</text>
</a>
</g>
</g>
<!-- Node25&#45;&gt;Node31 -->
<g id="edge67_Node000025_Node000031" class="edge">
<title>Node25&#45;&gt;Node31</title>
<g id="a_edge67_Node000025_Node000031"><a xlink:title=" ">
<path fill="none" stroke="#63b8ff" d="M538.49,-291.51C523.72,-264.19 480.9,-185 461.01,-148.21"/>
<polygon fill="#63b8ff" stroke="#63b8ff" points="464.18,-146.72 456.35,-139.58 458.03,-150.05 464.18,-146.72"/>
</a>
</g>
</g>
<!-- Node43 -->
<g id="Node000043" class="node">
<title>Node43</title>
<g id="a_Node000043"><a xlink:href="video__colorspace_8h.html" target="_top" xlink:title="Declarations for colorspace functions.">
<polygon fill="white" stroke="#666666" points="386.88,-138 270.38,-138 270.38,-118 386.88,-118 386.88,-138"/>
<text text-anchor="middle" x="328.62" y="-124.5" font-family="Helvetica,sans-Serif" font-size="10.00">src/video_colorspace.h</text>
</a>
</g>
</g>
<!-- Node25&#45;&gt;Node43 -->
<g id="edge68_Node000025_Node000043" class="edge">
<title>Node25&#45;&gt;Node43</title>
<g id="a_edge68_Node000025_Node000043"><a xlink:title=" ">
<path fill="none" stroke="#63b8ff" d="M531.76,-291.51C496.74,-263.49 393.51,-180.91 349.2,-145.46"/>
<polygon fill="#63b8ff" stroke="#63b8ff" points="351.63,-142.92 341.64,-139.41 347.26,-148.39 351.63,-142.92"/>
</a>
</g>
</g>
<!-- Node46 -->
<g id="Node000046" class="node">
<title>Node46</title>
<g id="a_Node000046"><a xlink:title=" ">
<polygon fill="#e0e0e0" stroke="#999999" points="745.88,-256 635.38,-256 635.38,-236 745.88,-236 745.88,-256"/>
<text text-anchor="middle" x="690.62" y="-242.5" font-family="Helvetica,sans-Serif" font-size="10.00">libavcodec/avcodec.h</text>
</a>
</g>
</g>
<!-- Node25&#45;&gt;Node46 -->
<g id="edge69_Node000025_Node000046" class="edge">
<title>Node25&#45;&gt;Node46</title>
<g id="a_edge69_Node000025_Node000046"><a xlink:title=" ">
<path fill="none" stroke="#63b8ff" d="M569.23,-291.59C592.69,-282.97 627.69,-270.12 654.09,-260.42"/>
<polygon fill="#63b8ff" stroke="#63b8ff" points="655.22,-263.73 663.4,-257 652.81,-257.16 655.22,-263.73"/>
</a>
</g>
</g>
<!-- Node47 -->
<g id="Node000047" class="node">
<title>Node47</title>
<g id="a_Node000047"><a xlink:title=" ">
<polygon fill="#e0e0e0" stroke="#999999" points="873.12,-256 764.12,-256 764.12,-236 873.12,-236 873.12,-256"/>
<text text-anchor="middle" x="818.62" y="-242.5" font-family="Helvetica,sans-Serif" font-size="10.00">libswscale/swscale.h</text>
</a>
</g>
</g>
<!-- Node25&#45;&gt;Node47 -->
<g id="edge70_Node000025_Node000047" class="edge">
<title>Node25&#45;&gt;Node47</title>
<g id="a_edge70_Node000025_Node000047"><a xlink:title=" ">
<path fill="none" stroke="#63b8ff" d="M575.98,-294.65C621.01,-285.8 703.36,-269.63 759.51,-258.61"/>
<polygon fill="#63b8ff" stroke="#63b8ff" points="760.1,-262.06 769.24,-256.7 758.75,-255.19 760.1,-262.06"/>
</a>
</g>
</g>
<!-- Node26&#45;&gt;Node14 -->
<g id="edge31_Node000026_Node000014" class="edge">
<title>Node26&#45;&gt;Node14</title>
<g id="a_edge31_Node000026_Node000014"><a xlink:title=" ">
<path fill="none" stroke="#63b8ff" d="M617.63,-238.26C620.65,-237.46 623.7,-236.68 626.62,-236 843.25,-185.39 936.41,-271.62 1118.62,-144 1155.84,-117.94 1140.05,-89.6 1170.62,-56 1180.98,-44.63 1194.62,-34.35 1206.48,-26.49"/>
<polygon fill="#63b8ff" stroke="#63b8ff" points="1208.07,-29.63 1214.63,-21.31 1204.31,-23.72 1208.07,-29.63"/>
</a>
</g>
</g>
<!-- Node26&#45;&gt;Node27 -->
<g id="edge32_Node000026_Node000027" class="edge">
<title>Node26&#45;&gt;Node27</title>
<g id="a_edge32_Node000026_Node000027"><a xlink:title=" ">
<path fill="none" stroke="#63b8ff" d="M617.58,-236.68C641.43,-228.04 679.12,-214.38 707.07,-204.25"/>
<polygon fill="#63b8ff" stroke="#63b8ff" points="708,-207.63 716.21,-200.93 705.62,-201.05 708,-207.63"/>
</a>
</g>
</g>
<!-- Node26&#45;&gt;Node31 -->
<g id="edge65_Node000026_Node000031" class="edge">
<title>Node26&#45;&gt;Node31</title>
<g id="a_edge65_Node000026_Node000031"><a xlink:title=" ">
<path fill="none" stroke="#63b8ff" d="M582.84,-235.51C558.35,-215.78 501.71,-170.15 471.11,-145.51"/>
<polygon fill="#63b8ff" stroke="#63b8ff" points="473.33,-142.8 463.35,-139.25 468.94,-148.25 473.33,-142.8"/>
</a>
</g>
</g>
<!-- Node27&#45;&gt;Node2 -->
<g id="edge40_Node000027_Node000002" class="edge">
<title>Node27&#45;&gt;Node2</title>
<g id="a_edge40_Node000027_Node000002"><a xlink:title=" ">
<path fill="none" stroke="#63b8ff" d="M793.88,-183.61C867.14,-175.64 1007.51,-159.93 1126.62,-144 1143.87,-141.69 1162.76,-138.92 1179.42,-136.4"/>
<polygon fill="#63b8ff" stroke="#63b8ff" points="1179.71,-139.89 1189.06,-134.92 1178.65,-132.97 1179.71,-139.89"/>
</a>
</g>
</g>
<!-- Node27&#45;&gt;Node5 -->
<g id="edge39_Node000027_Node000005" class="edge">
<title>Node27&#45;&gt;Node5</title>
<g id="a_edge39_Node000027_Node000005"><a xlink:title=" ">
<path fill="none" stroke="#63b8ff" d="M751.18,-179.66C758.19,-170.77 768.72,-156.88 776.62,-144 788.24,-125.09 799.46,-102.3 806.86,-86.44"/>
<polygon fill="#63b8ff" stroke="#63b8ff" points="809.91,-88.2 810.9,-77.65 803.55,-85.28 809.91,-88.2"/>
</a>
</g>
</g>
<!-- Node27&#45;&gt;Node6 -->
<g id="edge33_Node000027_Node000006" class="edge">
<title>Node27&#45;&gt;Node6</title>
<g id="a_edge33_Node000027_Node000006"><a xlink:title=" ">
<path fill="none" stroke="#63b8ff" d="M755.88,-179.61C776.38,-164.19 819.23,-133.11 858.62,-112 931.73,-72.82 1023.34,-38.42 1070.46,-21.72"/>
<polygon fill="#63b8ff" stroke="#63b8ff" points="1071.47,-25.08 1079.74,-18.46 1069.15,-18.47 1071.47,-25.08"/>
</a>
</g>
</g>
<!-- Node27&#45;&gt;Node9 -->
<g id="edge37_Node000027_Node000009" class="edge">
<title>Node27&#45;&gt;Node9</title>
<g id="a_edge37_Node000027_Node000009"><a xlink:title=" ">
<path fill="none" stroke="#63b8ff" d="M745.18,-179.58C749.1,-157.25 760.6,-99.72 781.62,-56 786.12,-46.65 792.54,-37.15 798.45,-29.31"/>
<polygon fill="#63b8ff" stroke="#63b8ff" points="801.1,-31.61 804.54,-21.59 795.6,-27.27 801.1,-31.61"/>
</a>
</g>
</g>
<!-- Node27&#45;&gt;Node14 -->
<g id="edge35_Node000027_Node000014" class="edge">
<title>Node27&#45;&gt;Node14</title>
<g id="a_edge35_Node000027_Node000014"><a xlink:title=" ">
<path fill="none" stroke="#63b8ff" d="M794.01,-188.28C879.12,-186.14 1046.7,-177.65 1093.62,-144 1129,-118.63 1105.6,-86.53 1136.62,-56 1152.2,-40.68 1173.97,-29.89 1192.84,-22.72"/>
<polygon fill="#63b8ff" stroke="#63b8ff" points="1193.88,-26.07 1202.13,-19.42 1191.53,-19.48 1193.88,-26.07"/>
</a>
</g>
</g>
<!-- Node28 -->
<g id="Node000028" class="node">
<title>Node28</title>
<g id="a_Node000028"><a xlink:title=" ">
<polygon fill="#e0e0e0" stroke="#999999" points="928.12,-138 867.12,-138 867.12,-118 928.12,-118 928.12,-138"/>
<text text-anchor="middle" x="897.62" y="-124.5" font-family="Helvetica,sans-Serif" font-size="10.00">filesystem</text>
</a>
</g>
</g>
<!-- Node27&#45;&gt;Node28 -->
<g id="edge34_Node000027_Node000028" class="edge">
<title>Node27&#45;&gt;Node28</title>
<g id="a_edge34_Node000027_Node000028"><a xlink:title=" ">
<path fill="none" stroke="#63b8ff" d="M767.69,-179.62C793.27,-169.66 833.95,-153.81 862.98,-142.5"/>
<polygon fill="#63b8ff" stroke="#63b8ff" points="864.02,-145.85 872.07,-138.96 861.48,-139.33 864.02,-145.85"/>
</a>
</g>
</g>
<!-- Node29 -->
<g id="Node000029" class="node">
<title>Node29</title>
<g id="a_Node000029"><a xlink:title=" ">
<polygon fill="#e0e0e0" stroke="#999999" points="708.12,-20 665.12,-20 665.12,0 708.12,0 708.12,-20"/>
<text text-anchor="middle" x="686.62" y="-6.5" font-family="Helvetica,sans-Serif" font-size="10.00">mutex</text>
</a>
</g>
</g>
<!-- Node27&#45;&gt;Node29 -->
<g id="edge36_Node000027_Node000029" class="edge">
<title>Node27&#45;&gt;Node29</title>
<g id="a_edge36_Node000027_Node000029"><a xlink:title=" ">
<path fill="none" stroke="#63b8ff" d="M740.72,-179.93C731.92,-152.44 705.39,-69.6 693.06,-31.09"/>
<polygon fill="#63b8ff" stroke="#63b8ff" points="696.44,-30.16 690.05,-21.71 689.77,-32.3 696.44,-30.16"/>
</a>
</g>
</g>
<!-- Node30 -->
<g id="Node000030" class="node">
<title>Node30</title>
<g id="a_Node000030"><a xlink:title=" ">
<polygon fill="#e0e0e0" stroke="#999999" points="1084.75,-138 946.5,-138 946.5,-118 1084.75,-118 1084.75,-138"/>
<text text-anchor="middle" x="1015.62" y="-124.5" font-family="Helvetica,sans-Serif" font-size="10.00">boost/core/noncopyable.hpp</text>
</a>
</g>
</g>
<!-- Node27&#45;&gt;Node30 -->
<g id="edge38_Node000027_Node000030" class="edge">
<title>Node27&#45;&gt;Node30</title>
<g id="a_edge38_Node000027_Node000030"><a xlink:title=" ">
<path fill="none" stroke="#63b8ff" d="M786.42,-179.56C833.71,-169.13 909.97,-152.31 961.41,-140.96"/>
<polygon fill="#63b8ff" stroke="#63b8ff" points="962.14,-144.38 971.15,-138.81 960.63,-137.55 962.14,-144.38"/>
</a>
</g>
</g>
<!-- Node27&#45;&gt;Node31 -->
<g id="edge41_Node000027_Node000031" class="edge">
<title>Node27&#45;&gt;Node31</title>
<g id="a_edge41_Node000027_Node000031"><a xlink:title=" ">
<path fill="none" stroke="#63b8ff" d="M697.52,-179.56C646.26,-169.06 563.4,-152.09 507.99,-140.75"/>
<polygon fill="#63b8ff" stroke="#63b8ff" points="508.92,-137.37 498.43,-138.79 507.52,-144.22 508.92,-137.37"/>
</a>
</g>
</g>
<!-- Node36 -->
<g id="Node000036" class="node">
<title>Node36</title>
<g id="a_Node000036"><a xlink:href="utility_8h.html" target="_top" xlink:title="Declarations for utility functions.">
<polygon fill="white" stroke="#666666" points="586,-76 539.25,-76 539.25,-56 586,-56 586,-76"/>
<text text-anchor="middle" x="562.62" y="-62.5" font-family="Helvetica,sans-Serif" font-size="10.00">utility.h</text>
</a>
</g>
</g>
<!-- Node27&#45;&gt;Node36 -->
<g id="edge61_Node000027_Node000036" class="edge">
<title>Node27&#45;&gt;Node36</title>
<g id="a_edge61_Node000027_Node000036"><a xlink:title=" ">
<path fill="none" stroke="#63b8ff" d="M693.42,-187.9C657.52,-184.4 610.61,-173.84 581.62,-144 567.18,-129.13 563.16,-105.12 562.29,-87.86"/>
<polygon fill="#63b8ff" stroke="#63b8ff" points="565.79,-87.94 562.14,-78 558.79,-88.05 565.79,-87.94"/>
</a>
</g>
</g>
<!-- Node27&#45;&gt;Node43 -->
<g id="edge62_Node000027_Node000043" class="edge">
<title>Node27&#45;&gt;Node43</title>
<g id="a_edge62_Node000027_Node000043"><a xlink:title=" ">
<path fill="none" stroke="#63b8ff" d="M693.27,-183.95C625.39,-176.82 500.92,-162.55 395.62,-144 390.33,-143.07 384.82,-142 379.33,-140.87"/>
<polygon fill="#63b8ff" stroke="#63b8ff" points="380.17,-137.47 369.66,-138.8 378.71,-144.31 380.17,-137.47"/>
</a>
</g>
</g>
<!-- Node45 -->
<g id="Node000045" class="node">
<title>Node45</title>
<g id="a_Node000045"><a xlink:title=" ">
<polygon fill="#e0e0e0" stroke="#999999" points="697,-144 590.25,-144 590.25,-112 697,-112 697,-144"/>
<text text-anchor="start" x="598.25" y="-130.5" font-family="Helvetica,sans-Serif" font-size="10.00">moonlight&#45;common&#45;c</text>
<text text-anchor="middle" x="643.62" y="-118.5" font-family="Helvetica,sans-Serif" font-size="10.00">/src/Limelight.h</text>
</a>
</g>
</g>
<!-- Node27&#45;&gt;Node45 -->
<g id="edge64_Node000027_Node000045" class="edge">
<title>Node27&#45;&gt;Node45</title>
<g id="a_edge64_Node000027_Node000045"><a xlink:title=" ">
<path fill="none" stroke="#63b8ff" d="M728,-179.62C714.87,-171.75 695.6,-160.19 678.79,-150.1"/>
<polygon fill="#63b8ff" stroke="#63b8ff" points="680.92,-147.3 670.55,-145.15 677.32,-153.3 680.92,-147.3"/>
</a>
</g>
</g>
<!-- Node31&#45;&gt;Node11 -->
<g id="edge48_Node000031_Node000011" class="edge">
<title>Node31&#45;&gt;Node11</title>
<g id="a_edge48_Node000031_Node000011"><a xlink:title=" ">
<path fill="none" stroke="#63b8ff" d="M421.01,-117.56C393.21,-108.3 350.77,-93.11 315.62,-76 300.21,-68.49 298.6,-62.24 282.62,-56 210.67,-27.91 185.2,-38.26 106.51,-20.23"/>
<polygon fill="#63b8ff" stroke="#63b8ff" points="107.59,-16.89 97.05,-17.97 105.97,-23.69 107.59,-16.89"/>
</a>
</g>
</g>
<!-- Node31&#45;&gt;Node14 -->
<g id="edge45_Node000031_Node000014" class="edge">
<title>Node31&#45;&gt;Node14</title>
<g id="a_edge45_Node000031_Node000014"><a xlink:title=" ">
<path fill="none" stroke="#63b8ff" d="M496.77,-121.61C571.15,-112.82 722.11,-94.49 849.62,-76 999.75,-54.23 1040.39,-50.53 1192.09,-20.4"/>
<polygon fill="#63b8ff" stroke="#63b8ff" points="1192.6,-23.87 1201.73,-18.48 1191.24,-17 1192.6,-23.87"/>
</a>
</g>
</g>
<!-- Node31&#45;&gt;Node29 -->
<g id="edge47_Node000031_Node000029" class="edge">
<title>Node31&#45;&gt;Node29</title>
<g id="a_edge47_Node000031_Node000029"><a xlink:title=" ">
<path fill="none" stroke="#63b8ff" d="M485.78,-117.5C515.64,-108.75 559.18,-94.35 594.62,-76 621.15,-62.27 648.77,-41.79 666.74,-27.5"/>
<polygon fill="#63b8ff" stroke="#63b8ff" points="668.91,-30.24 674.48,-21.23 664.5,-24.8 668.91,-30.24"/>
</a>
</g>
</g>
<!-- Node32 -->
<g id="Node000032" class="node">
<title>Node32</title>
<g id="a_Node000032"><a xlink:title=" ">
<polygon fill="#e0e0e0" stroke="#999999" points="457.5,-76 419.75,-76 419.75,-56 457.5,-56 457.5,-76"/>
<text text-anchor="middle" x="438.62" y="-62.5" font-family="Helvetica,sans-Serif" font-size="10.00">array</text>
</a>
</g>
</g>
<!-- Node31&#45;&gt;Node32 -->
<g id="edge42_Node000031_Node000032" class="edge">
<title>Node31&#45;&gt;Node32</title>
<g id="a_edge42_Node000031_Node000032"><a xlink:title=" ">
<path fill="none" stroke="#63b8ff" d="M448.75,-117.62C447.12,-109.48 444.7,-97.39 442.64,-87.07"/>
<polygon fill="#63b8ff" stroke="#63b8ff" points="446.14,-86.72 440.74,-77.6 439.27,-88.09 446.14,-86.72"/>
</a>
</g>
</g>
<!-- Node33 -->
<g id="Node000033" class="node">
<title>Node33</title>
<g id="a_Node000033"><a xlink:title=" ">
<polygon fill="#e0e0e0" stroke="#999999" points="521.25,-76 476,-76 476,-56 521.25,-56 521.25,-76"/>
<text text-anchor="middle" x="498.62" y="-62.5" font-family="Helvetica,sans-Serif" font-size="10.00">atomic</text>
</a>
</g>
</g>
<!-- Node31&#45;&gt;Node33 -->
<g id="edge43_Node000031_Node000033" class="edge">
<title>Node31&#45;&gt;Node33</title>
<g id="a_edge43_Node000031_Node000033"><a xlink:title=" ">
<path fill="none" stroke="#63b8ff" d="M458.12,-117.62C465.07,-108.94 475.59,-95.8 484.16,-85.08"/>
<polygon fill="#63b8ff" stroke="#63b8ff" points="486.88,-87.29 490.39,-77.29 481.41,-82.92 486.88,-87.29"/>
</a>
</g>
</g>
<!-- Node34 -->
<g id="Node000034" class="node">
<title>Node34</title>
<g id="a_Node000034"><a xlink:title=" ">
<polygon fill="#e0e0e0" stroke="#999999" points="207.62,-20 113.62,-20 113.62,0 207.62,0 207.62,-20"/>
<text text-anchor="middle" x="160.62" y="-6.5" font-family="Helvetica,sans-Serif" font-size="10.00">condition_variable</text>
</a>
</g>
</g>
<!-- Node31&#45;&gt;Node34 -->
<g id="edge44_Node000031_Node000034" class="edge">
<title>Node31&#45;&gt;Node34</title>
<g id="a_edge44_Node000031_Node000034"><a xlink:title=" ">
<path fill="none" stroke="#63b8ff" d="M433.95,-117.69C403.35,-100.69 339.2,-65.51 315.62,-56 282.07,-42.46 242.92,-31.13 212.37,-23.23"/>
<polygon fill="#63b8ff" stroke="#63b8ff" points="213.54,-19.92 202.99,-20.85 211.82,-26.7 213.54,-19.92"/>
</a>
</g>
</g>
<!-- Node35 -->
<g id="Node000035" class="node">
<title>Node35</title>
<g id="a_Node000035"><a xlink:title=" ">
<polygon fill="#e0e0e0" stroke="#999999" points="402,-76 367.25,-76 367.25,-56 402,-56 402,-76"/>
<text text-anchor="middle" x="384.62" y="-62.5" font-family="Helvetica,sans-Serif" font-size="10.00">map</text>
</a>
</g>
</g>
<!-- Node31&#45;&gt;Node35 -->
<g id="edge46_Node000031_Node000035" class="edge">
<title>Node31&#45;&gt;Node35</title>
<g id="a_edge46_Node000031_Node000035"><a xlink:title=" ">
<path fill="none" stroke="#63b8ff" d="M440.31,-117.62C430.37,-108.59 415.11,-94.72 403.08,-83.78"/>
<polygon fill="#63b8ff" stroke="#63b8ff" points="405.52,-81.27 395.77,-77.13 400.81,-86.45 405.52,-81.27"/>
</a>
</g>
</g>
<!-- Node31&#45;&gt;Node36 -->
<g id="edge49_Node000031_Node000036" class="edge">
<title>Node31&#45;&gt;Node36</title>
<g id="a_edge49_Node000031_Node000036"><a xlink:title=" ">
<path fill="none" stroke="#63b8ff" d="M468.12,-117.62C486.12,-107.98 514.41,-92.83 535.35,-81.61"/>
<polygon fill="#63b8ff" stroke="#63b8ff" points="536.75,-84.83 543.91,-77.02 533.45,-78.66 536.75,-84.83"/>
</a>
</g>
</g>
<!-- Node36&#45;&gt;Node8 -->
<g id="edge54_Node000036_Node000008" class="edge">
<title>Node36&#45;&gt;Node8</title>
<g id="a_edge54_Node000036_Node000008"><a xlink:title=" ">
<path fill="none" stroke="#63b8ff" d="M586.44,-58.16C618.76,-48.88 676.81,-32.2 714.52,-21.37"/>
<polygon fill="#63b8ff" stroke="#63b8ff" points="715.41,-24.76 724.06,-18.63 713.48,-18.03 715.41,-24.76"/>
</a>
</g>
</g>
<!-- Node36&#45;&gt;Node9 -->
<g id="edge56_Node000036_Node000009" class="edge">
<title>Node36&#45;&gt;Node9</title>
<g id="a_edge56_Node000036_Node000009"><a xlink:title=" ">
<path fill="none" stroke="#63b8ff" d="M586.46,-60.98C625.47,-54.24 705.57,-39.66 782.58,-20.32"/>
<polygon fill="#63b8ff" stroke="#63b8ff" points="783.12,-23.79 791.95,-17.93 781.4,-17.01 783.12,-23.79"/>
</a>
</g>
</g>
<!-- Node36&#45;&gt;Node11 -->
<g id="edge60_Node000036_Node000011" class="edge">
<title>Node36&#45;&gt;Node11</title>
<g id="a_edge60_Node000036_Node000011"><a xlink:title=" ">
<path fill="none" stroke="#63b8ff" d="M538.98,-57.81C536.18,-57.12 533.35,-56.49 530.62,-56 347.31,-22.79 293.54,-53.41 106.83,-20.01"/>
<polygon fill="#63b8ff" stroke="#63b8ff" points="107.47,-16.57 97,-18.21 106.21,-23.45 107.47,-16.57"/>
</a>
</g>
</g>
<!-- Node36&#45;&gt;Node29 -->
<g id="edge53_Node000036_Node000029" class="edge">
<title>Node36&#45;&gt;Node29</title>
<g id="a_edge53_Node000036_Node000029"><a xlink:title=" ">
<path fill="none" stroke="#63b8ff" d="M584.22,-55.59C603.58,-47.17 632.23,-34.69 654.31,-25.07"/>
<polygon fill="#63b8ff" stroke="#63b8ff" points="655.7,-28.29 663.47,-21.08 652.9,-21.87 655.7,-28.29"/>
</a>
</g>
</g>
<!-- Node36&#45;&gt;Node34 -->
<g id="edge51_Node000036_Node000034" class="edge">
<title>Node36&#45;&gt;Node34</title>
<g id="a_edge51_Node000036_Node000034"><a xlink:title=" ">
<path fill="none" stroke="#63b8ff" d="M538.96,-57.89C536.17,-57.18 533.34,-56.53 530.62,-56 396.29,-29.59 357.73,-38.65 219.01,-20.26"/>
<polygon fill="#63b8ff" stroke="#63b8ff" points="219.84,-16.84 209.46,-18.96 218.9,-23.77 219.84,-16.84"/>
</a>
</g>
</g>
<!-- Node37 -->
<g id="Node000037" class="node">
<title>Node37</title>
<g id="a_Node000037"><a xlink:title=" ">
<polygon fill="#e0e0e0" stroke="#999999" points="345.5,-20 289.75,-20 289.75,0 345.5,0 345.5,-20"/>
<text text-anchor="middle" x="317.62" y="-6.5" font-family="Helvetica,sans-Serif" font-size="10.00">algorithm</text>
</a>
</g>
</g>
<!-- Node36&#45;&gt;Node37 -->
<g id="edge50_Node000036_Node000037" class="edge">
<title>Node36&#45;&gt;Node37</title>
<g id="a_edge50_Node000036_Node000037"><a xlink:title=" ">
<path fill="none" stroke="#63b8ff" d="M538.91,-58.12C536.12,-57.38 533.32,-56.65 530.62,-56 456.37,-37.99 434.41,-37.45 356.7,-20.39"/>
<polygon fill="#63b8ff" stroke="#63b8ff" points="357.88,-17.07 347.36,-18.31 356.36,-23.9 357.88,-17.07"/>
</a>
</g>
</g>
<!-- Node38 -->
<g id="Node000038" class="node">
<title>Node38</title>
<g id="a_Node000038"><a xlink:title=" ">
<polygon fill="#e0e0e0" stroke="#999999" points="415.25,-20 364,-20 364,0 415.25,0 415.25,-20"/>
<text text-anchor="middle" x="389.62" y="-6.5" font-family="Helvetica,sans-Serif" font-size="10.00">memory</text>
</a>
</g>
</g>
<!-- Node36&#45;&gt;Node38 -->
<g id="edge52_Node000036_Node000038" class="edge">
<title>Node36&#45;&gt;Node38</title>
<g id="a_edge52_Node000036_Node000038"><a xlink:title=" ">
<path fill="none" stroke="#63b8ff" d="M538.93,-57.6C509.92,-48.55 460.44,-33.1 426.45,-22.49"/>
<polygon fill="#63b8ff" stroke="#63b8ff" points="427.6,-19.19 417.01,-19.55 425.52,-25.87 427.6,-19.19"/>
</a>
</g>
</g>
<!-- Node39 -->
<g id="Node000039" class="node">
<title>Node39</title>
<g id="a_Node000039"><a xlink:title=" ">
<polygon fill="#e0e0e0" stroke="#999999" points="484.25,-20 433,-20 433,0 484.25,0 484.25,-20"/>
<text text-anchor="middle" x="458.62" y="-6.5" font-family="Helvetica,sans-Serif" font-size="10.00">ostream</text>
</a>
</g>
</g>
<!-- Node36&#45;&gt;Node39 -->
<g id="edge55_Node000036_Node000039" class="edge">
<title>Node36&#45;&gt;Node39</title>
<g id="a_edge55_Node000036_Node000039"><a xlink:title=" ">
<path fill="none" stroke="#63b8ff" d="M544.51,-55.59C528.65,-47.36 505.34,-35.26 487.01,-25.74"/>
<polygon fill="#63b8ff" stroke="#63b8ff" points="488.71,-22.68 478.23,-21.18 485.49,-28.89 488.71,-22.68"/>
</a>
</g>
</g>
<!-- Node40 -->
<g id="Node000040" class="node">
<title>Node40</title>
<g id="a_Node000040"><a xlink:title=" ">
<polygon fill="#e0e0e0" stroke="#999999" points="567.38,-20 501.88,-20 501.88,0 567.38,0 567.38,-20"/>
<text text-anchor="middle" x="534.62" y="-6.5" font-family="Helvetica,sans-Serif" font-size="10.00">string_view</text>
</a>
</g>
</g>
<!-- Node36&#45;&gt;Node40 -->
<g id="edge57_Node000036_Node000040" class="edge">
<title>Node36&#45;&gt;Node40</title>
<g id="a_edge57_Node000036_Node000040"><a xlink:title=" ">
<path fill="none" stroke="#63b8ff" d="M557.75,-55.59C554.13,-48.63 549.08,-38.89 544.63,-30.29"/>
<polygon fill="#63b8ff" stroke="#63b8ff" points="547.85,-28.91 540.14,-21.64 541.64,-32.13 547.85,-28.91"/>
</a>
</g>
</g>
<!-- Node41 -->
<g id="Node000041" class="node">
<title>Node41</title>
<g id="a_Node000041"><a xlink:title=" ">
<polygon fill="#e0e0e0" stroke="#999999" points="647.5,-20 585.75,-20 585.75,0 647.5,0 647.5,-20"/>
<text text-anchor="middle" x="616.62" y="-6.5" font-family="Helvetica,sans-Serif" font-size="10.00">type_traits</text>
</a>
</g>
</g>
<!-- Node36&#45;&gt;Node41 -->
<g id="edge58_Node000036_Node000041" class="edge">
<title>Node36&#45;&gt;Node41</title>
<g id="a_edge58_Node000036_Node000041"><a xlink:title=" ">
<path fill="none" stroke="#63b8ff" d="M572.03,-55.59C579.54,-48.08 590.27,-37.35 599.32,-28.3"/>
<polygon fill="#63b8ff" stroke="#63b8ff" points="601.66,-30.91 606.26,-21.37 596.71,-25.96 601.66,-30.91"/>
</a>
</g>
</g>
<!-- Node42 -->
<g id="Node000042" class="node">
<title>Node42</title>
<g id="a_Node000042"><a xlink:title=" ">
<polygon fill="#e0e0e0" stroke="#999999" points="271.25,-20 226,-20 226,0 271.25,0 271.25,-20"/>
<text text-anchor="middle" x="248.62" y="-6.5" font-family="Helvetica,sans-Serif" font-size="10.00">variant</text>
</a>
</g>
</g>
<!-- Node36&#45;&gt;Node42 -->
<g id="edge59_Node000036_Node000042" class="edge">
<title>Node36&#45;&gt;Node42</title>
<g id="a_edge59_Node000036_Node000042"><a xlink:title=" ">
<path fill="none" stroke="#63b8ff" d="M538.95,-57.97C536.15,-57.25 533.34,-56.57 530.62,-56 424.34,-33.5 392.49,-42.61 282.83,-20.2"/>
<polygon fill="#63b8ff" stroke="#63b8ff" points="283.59,-16.78 273.09,-18.16 282.16,-23.64 283.59,-16.78"/>
</a>
</g>
</g>
<!-- Node44 -->
<g id="Node000044" class="node">
<title>Node44</title>
<g id="a_Node000044"><a xlink:title=" ">
<polygon fill="#e0e0e0" stroke="#999999" points="273.25,-76 186,-76 186,-56 273.25,-56 273.25,-76"/>
<text text-anchor="middle" x="229.62" y="-62.5" font-family="Helvetica,sans-Serif" font-size="10.00">libavutil/pixfmt.h</text>
</a>
</g>
</g>
<!-- Node43&#45;&gt;Node44 -->
<g id="edge63_Node000043_Node000044" class="edge">
<title>Node43&#45;&gt;Node44</title>
<g id="a_edge63_Node000043_Node000044"><a xlink:title=" ">
<path fill="none" stroke="#63b8ff" d="M313.16,-117.62C297.54,-108.16 273.15,-93.38 254.76,-82.23"/>
<polygon fill="#63b8ff" stroke="#63b8ff" points="256.65,-79.28 246.28,-77.09 253.02,-85.27 256.65,-79.28"/>
</a>
</g>
</g>
</g>
</svg>
