<?xml version="1.0" encoding="UTF-8" standalone="no"?>
<!DOCTYPE svg PUBLIC "-//W3C//DTD SVG 1.1//EN"
 "http://www.w3.org/Graphics/SVG/1.1/DTD/svg11.dtd">
<!-- Generated by graphviz version 12.2.1 (0)
 -->
<!-- Title: src/nvenc/nvenc_base.h Pages: 1 -->
<!--zoomable 376 -->

<svg id="main" version="1.1" xmlns="http://www.w3.org/2000/svg" xmlns:xlink="http://www.w3.org/1999/xlink" xml:space="preserve" onload="init(evt)">

<style type="text/css"><![CDATA[
.node, .edge {opacity: 0.7;}
.node.selected, .edge.selected {opacity: 1;}
.edge:hover path { stroke: red; }
.edge:hover polygon { stroke: red; fill: red; }
]]></style>

<defs>
  <circle id="rim" cx="0" cy="0" r="7"/>
  <circle id="rim2" cx="0" cy="0" r="3.5"/>
  <g id="zoomPlus">
    <use xlink:href="#rim" fill="#404040"><set attributeName="fill" to="#808080" begin="zoomplus.mouseover" end="zoomplus.mouseout"/></use>
    <path d="M-4,0h8M0,-4v8" fill="none" stroke="white" stroke-width="1.5" pointer-events="none"/>
  </g>
  <g id="zoomMin">
    <use xlink:href="#rim" fill="#404040"><set attributeName="fill" to="#808080" begin="zoomminus.mouseover" end="zoomminus.mouseout"/></use>
    <path d="M-4,0h8" fill="none" stroke="white" stroke-width="1.5" pointer-events="none"/>
  </g>
  <g id="arrowUp" transform="translate(30 24)">
    <use xlink:href="#rim"/>
    <path pointer-events="none" fill="none" stroke="white" stroke-width="1.5" d="M0,-3.0v7 M-2.5,-0.5L0,-3.0L2.5,-0.5"/>
  </g>
  <g id="arrowRight" transform="rotate(90) translate(36 -43)">
    <use xlink:href="#rim"/>
    <path pointer-events="none" fill="none" stroke="white" stroke-width="1.5" d="M0,-3.0v7 M-2.5,-0.5L0,-3.0L2.5,-0.5"/>
  </g>
  <g id="arrowDown" transform="rotate(180) translate(-30 -48)">
    <use xlink:href="#rim"/>
    <path pointer-events="none" fill="none" stroke="white" stroke-width="1.5" d="M0,-3.0v7 M-2.5,-0.5L0,-3.0L2.5,-0.5"/>
  </g>
  <g id="arrowLeft" transform="rotate(270) translate(-36 17)">
    <use xlink:href="#rim"/>
    <path pointer-events="none" fill="none" stroke="white" stroke-width="1.5" d="M0,-3.0v7 M-2.5,-0.5L0,-3.0L2.5,-0.5"/>
  </g>
  <g id="resetDef">
    <use xlink:href="#rim2" fill="#404040"><set attributeName="fill" to="#808080" begin="reset.mouseover" end="reset.mouseout"/></use>
  </g>
</defs>
<script type="application/ecmascript">
var viewWidth = 1502;
var viewHeight = 376;
var sectionId = 'dynsection-0';
</script>
<script type="application/ecmascript" xlink:href="svg.min.js"/>
<svg id="graph" class="graph">
<g id="viewport">
<title>src/nvenc/nvenc_base.h</title>
<!-- Node1 -->
<g id="Node000001" class="node">
<title>Node1</title>
<g id="a_Node000001"><a xlink:title="Declarations for abstract platform&#45;agnostic base of standalone NVENC encoder.">
<polygon fill="#999999" stroke="#666666" points="419.25,-368 296.75,-368 296.75,-348 419.25,-348 419.25,-368"/>
<text text-anchor="middle" x="358" y="-354.5" font-family="Helvetica,sans-Serif" font-size="10.00">src/nvenc/nvenc_base.h</text>
</a>
</g>
</g>
<!-- Node2 -->
<g id="Node000002" class="node">
<title>Node2</title>
<g id="a_Node000002"><a xlink:title=" ">
<polygon fill="#e0e0e0" stroke="#999999" points="277.62,-256 148.38,-256 148.38,-236 277.62,-236 277.62,-256"/>
<text text-anchor="middle" x="213" y="-242.5" font-family="Helvetica,sans-Serif" font-size="10.00">ffnvcodec/nvEncodeAPI.h</text>
</a>
</g>
</g>
<!-- Node1&#45;&gt;Node2 -->
<g id="edge1_Node000001_Node000002" class="edge">
<title>Node1&#45;&gt;Node2</title>
<g id="a_edge1_Node000001_Node000002"><a xlink:title=" ">
<path fill="none" stroke="#63b8ff" d="M296.73,-347.57C256.91,-340.05 210.2,-328.1 198,-312 188.07,-298.89 193.77,-280.32 200.82,-266.38"/>
<polygon fill="#63b8ff" stroke="#63b8ff" points="203.85,-268.13 205.74,-257.71 197.76,-264.68 203.85,-268.13"/>
</a>
</g>
</g>
<!-- Node3 -->
<g id="Node000003" class="node">
<title>Node3</title>
<g id="a_Node000003"><a xlink:href="nvenc__colorspace_8h.html" target="_top" xlink:title="Declarations for NVENC YUV colorspace.">
<polygon fill="white" stroke="#666666" points="310.5,-312 207.5,-312 207.5,-292 310.5,-292 310.5,-312"/>
<text text-anchor="middle" x="259" y="-298.5" font-family="Helvetica,sans-Serif" font-size="10.00">nvenc_colorspace.h</text>
</a>
</g>
</g>
<!-- Node1&#45;&gt;Node3 -->
<g id="edge2_Node000001_Node000003" class="edge">
<title>Node1&#45;&gt;Node3</title>
<g id="a_edge2_Node000001_Node000003"><a xlink:title=" ">
<path fill="none" stroke="#63b8ff" d="M340.76,-347.59C325.66,-339.36 303.47,-327.26 286.02,-317.74"/>
<polygon fill="#63b8ff" stroke="#63b8ff" points="288.16,-314.92 277.71,-313.2 284.81,-321.07 288.16,-314.92"/>
</a>
</g>
</g>
<!-- Node4 -->
<g id="Node000004" class="node">
<title>Node4</title>
<g id="a_Node000004"><a xlink:href="nvenc__config_8h.html" target="_top" xlink:title="Declarations for NVENC encoder configuration.">
<polygon fill="white" stroke="#666666" points="496,-20 414,-20 414,0 496,0 496,-20"/>
<text text-anchor="middle" x="455" y="-6.5" font-family="Helvetica,sans-Serif" font-size="10.00">nvenc_config.h</text>
</a>
</g>
</g>
<!-- Node1&#45;&gt;Node4 -->
<g id="edge4_Node000001_Node000004" class="edge">
<title>Node1&#45;&gt;Node4</title>
<g id="a_edge4_Node000001_Node000004"><a xlink:title=" ">
<path fill="none" stroke="#63b8ff" d="M360.59,-347.75C373.5,-301.71 430.9,-96.96 449.3,-31.32"/>
<polygon fill="#63b8ff" stroke="#63b8ff" points="452.61,-32.48 451.94,-21.9 445.87,-30.59 452.61,-32.48"/>
</a>
</g>
</g>
<!-- Node5 -->
<g id="Node000005" class="node">
<title>Node5</title>
<g id="a_Node000005"><a xlink:href="nvenc__encoded__frame_8h.html" target="_top" xlink:title="Declarations for NVENC encoded frame.">
<polygon fill="white" stroke="#666666" points="527.25,-312 404.75,-312 404.75,-292 527.25,-292 527.25,-312"/>
<text text-anchor="middle" x="466" y="-298.5" font-family="Helvetica,sans-Serif" font-size="10.00">nvenc_encoded_frame.h</text>
</a>
</g>
</g>
<!-- Node1&#45;&gt;Node5 -->
<g id="edge5_Node000001_Node000005" class="edge">
<title>Node1&#45;&gt;Node5</title>
<g id="a_edge5_Node000001_Node000005"><a xlink:title=" ">
<path fill="none" stroke="#63b8ff" d="M376.81,-347.59C393.36,-339.32 417.71,-327.14 436.79,-317.6"/>
<polygon fill="#63b8ff" stroke="#63b8ff" points="438.31,-320.76 445.69,-313.16 435.18,-314.5 438.31,-320.76"/>
</a>
</g>
</g>
<!-- Node8 -->
<g id="Node000008" class="node">
<title>Node8</title>
<g id="a_Node000008"><a xlink:href="logging_8h.html" target="_top" xlink:title="Declarations for logging related functions.">
<polygon fill="white" stroke="#666666" points="374.75,-138 303.25,-138 303.25,-118 374.75,-118 374.75,-138"/>
<text text-anchor="middle" x="339" y="-124.5" font-family="Helvetica,sans-Serif" font-size="10.00">src/logging.h</text>
</a>
</g>
</g>
<!-- Node1&#45;&gt;Node8 -->
<g id="edge8_Node000001_Node000008" class="edge">
<title>Node1&#45;&gt;Node8</title>
<g id="a_edge8_Node000001_Node000008"><a xlink:title=" ">
<path fill="none" stroke="#63b8ff" d="M357.23,-347.78C354.42,-314.05 344.65,-196.86 340.69,-149.29"/>
<polygon fill="#63b8ff" stroke="#63b8ff" points="344.2,-149.27 339.88,-139.59 337.23,-149.85 344.2,-149.27"/>
</a>
</g>
</g>
<!-- Node21 -->
<g id="Node000021" class="node">
<title>Node21</title>
<g id="a_Node000021"><a xlink:href="video_8h.html" target="_top" xlink:title="Declarations for video.">
<polygon fill="white" stroke="#666666" points="740,-312 676,-312 676,-292 740,-292 740,-312"/>
<text text-anchor="middle" x="708" y="-298.5" font-family="Helvetica,sans-Serif" font-size="10.00">src/video.h</text>
</a>
</g>
</g>
<!-- Node1&#45;&gt;Node21 -->
<g id="edge24_Node000001_Node000021" class="edge">
<title>Node1&#45;&gt;Node21</title>
<g id="a_edge24_Node000001_Node000021"><a xlink:title=" ">
<path fill="none" stroke="#63b8ff" d="M419.37,-347.53C489.54,-336.71 602.66,-319.25 664.38,-309.73"/>
<polygon fill="#63b8ff" stroke="#63b8ff" points="664.81,-313.21 674.16,-308.22 663.74,-306.29 664.81,-313.21"/>
</a>
</g>
</g>
<!-- Node3&#45;&gt;Node2 -->
<g id="edge3_Node000003_Node000002" class="edge">
<title>Node3&#45;&gt;Node2</title>
<g id="a_edge3_Node000003_Node000002"><a xlink:title=" ">
<path fill="none" stroke="#63b8ff" d="M250.99,-291.59C244.72,-284.24 235.83,-273.8 228.22,-264.87"/>
<polygon fill="#63b8ff" stroke="#63b8ff" points="231.05,-262.79 221.9,-257.45 225.72,-267.33 231.05,-262.79"/>
</a>
</g>
</g>
<!-- Node6 -->
<g id="Node000006" class="node">
<title>Node6</title>
<g id="a_Node000006"><a xlink:title=" ">
<polygon fill="#e0e0e0" stroke="#999999" points="450.62,-256 405.38,-256 405.38,-236 450.62,-236 450.62,-256"/>
<text text-anchor="middle" x="428" y="-242.5" font-family="Helvetica,sans-Serif" font-size="10.00">cstdint</text>
</a>
</g>
</g>
<!-- Node5&#45;&gt;Node6 -->
<g id="edge6_Node000005_Node000006" class="edge">
<title>Node5&#45;&gt;Node6</title>
<g id="a_edge6_Node000005_Node000006"><a xlink:title=" ">
<path fill="none" stroke="#63b8ff" d="M459.38,-291.59C454.31,-284.39 447.16,-274.23 440.97,-265.43"/>
<polygon fill="#63b8ff" stroke="#63b8ff" points="444.03,-263.7 435.41,-257.54 438.31,-267.73 444.03,-263.7"/>
</a>
</g>
</g>
<!-- Node7 -->
<g id="Node000007" class="node">
<title>Node7</title>
<g id="a_Node000007"><a xlink:title=" ">
<polygon fill="#e0e0e0" stroke="#999999" points="595.5,-20 552.5,-20 552.5,0 595.5,0 595.5,-20"/>
<text text-anchor="middle" x="574" y="-6.5" font-family="Helvetica,sans-Serif" font-size="10.00">vector</text>
</a>
</g>
</g>
<!-- Node5&#45;&gt;Node7 -->
<g id="edge7_Node000005_Node000007" class="edge">
<title>Node5&#45;&gt;Node7</title>
<g id="a_edge7_Node000005_Node000007"><a xlink:title=" ">
<path fill="none" stroke="#63b8ff" d="M465.4,-291.68C463.66,-257.33 461.54,-135.72 512,-56 519.84,-43.62 532.41,-33.56 544.19,-26.12"/>
<polygon fill="#63b8ff" stroke="#63b8ff" points="545.62,-29.34 552.47,-21.26 542.08,-23.3 545.62,-29.34"/>
</a>
</g>
</g>
<!-- Node9 -->
<g id="Node000009" class="node">
<title>Node9</title>
<g id="a_Node000009"><a xlink:title=" ">
<polygon fill="#e0e0e0" stroke="#999999" points="270.5,-76 155.5,-76 155.5,-56 270.5,-56 270.5,-76"/>
<text text-anchor="middle" x="213" y="-62.5" font-family="Helvetica,sans-Serif" font-size="10.00">boost/log/common.hpp</text>
</a>
</g>
</g>
<!-- Node8&#45;&gt;Node9 -->
<g id="edge9_Node000008_Node000009" class="edge">
<title>Node8&#45;&gt;Node9</title>
<g id="a_edge9_Node000008_Node000009"><a xlink:title=" ">
<path fill="none" stroke="#63b8ff" d="M319.31,-117.62C298.79,-107.85 266.37,-92.41 242.72,-81.15"/>
<polygon fill="#63b8ff" stroke="#63b8ff" points="244.45,-78.1 233.92,-76.96 241.44,-84.42 244.45,-78.1"/>
</a>
</g>
</g>
<!-- Node10 -->
<g id="Node000010" class="node">
<title>Node10</title>
<g id="a_Node000010"><a xlink:title=" ">
<polygon fill="#e0e0e0" stroke="#999999" points="389.38,-76 288.62,-76 288.62,-56 389.38,-56 389.38,-76"/>
<text text-anchor="middle" x="339" y="-62.5" font-family="Helvetica,sans-Serif" font-size="10.00">boost/log/sinks.hpp</text>
</a>
</g>
</g>
<!-- Node8&#45;&gt;Node10 -->
<g id="edge10_Node000008_Node000010" class="edge">
<title>Node8&#45;&gt;Node10</title>
<g id="a_edge10_Node000008_Node000010"><a xlink:title=" ">
<path fill="none" stroke="#63b8ff" d="M339,-117.62C339,-109.56 339,-97.65 339,-87.41"/>
<polygon fill="#63b8ff" stroke="#63b8ff" points="342.5,-87.63 339,-77.63 335.5,-87.63 342.5,-87.63"/>
</a>
</g>
</g>
<!-- Node11 -->
<g id="Node000011" class="node">
<title>Node11</title>
<g id="a_Node000011"><a xlink:href="config_8h.html" target="_top" xlink:title="Declarations for the configuration of Sunshine.">
<polygon fill="white" stroke="#666666" points="781.25,-76 730.75,-76 730.75,-56 781.25,-56 781.25,-76"/>
<text text-anchor="middle" x="756" y="-62.5" font-family="Helvetica,sans-Serif" font-size="10.00">config.h</text>
</a>
</g>
</g>
<!-- Node8&#45;&gt;Node11 -->
<g id="edge11_Node000008_Node000011" class="edge">
<title>Node8&#45;&gt;Node11</title>
<g id="a_edge11_Node000008_Node000011"><a xlink:title=" ">
<path fill="none" stroke="#63b8ff" d="M374.91,-121.83C453.37,-110.54 639.37,-83.78 718.9,-72.34"/>
<polygon fill="#63b8ff" stroke="#63b8ff" points="719.38,-75.81 728.78,-70.92 718.38,-68.88 719.38,-75.81"/>
</a>
</g>
</g>
<!-- Node17 -->
<g id="Node000017" class="node">
<title>Node17</title>
<g id="a_Node000017"><a xlink:href="stat__trackers_8h.html" target="_top" xlink:title="Declarations for streaming statistic tracking.">
<polygon fill="white" stroke="#666666" points="137.62,-76 56.38,-76 56.38,-56 137.62,-56 137.62,-76"/>
<text text-anchor="middle" x="97" y="-62.5" font-family="Helvetica,sans-Serif" font-size="10.00">stat_trackers.h</text>
</a>
</g>
</g>
<!-- Node8&#45;&gt;Node17 -->
<g id="edge19_Node000008_Node000017" class="edge">
<title>Node8&#45;&gt;Node17</title>
<g id="a_edge19_Node000008_Node000017"><a xlink:title=" ">
<path fill="none" stroke="#63b8ff" d="M302.77,-118.02C261.11,-107.69 192.51,-90.68 146.08,-79.17"/>
<polygon fill="#63b8ff" stroke="#63b8ff" points="147.09,-75.81 136.55,-76.8 145.41,-82.61 147.09,-75.81"/>
</a>
</g>
</g>
<!-- Node11&#45;&gt;Node4 -->
<g id="edge18_Node000011_Node000004" class="edge">
<title>Node11&#45;&gt;Node4</title>
<g id="a_edge18_Node000011_Node000004"><a xlink:title=" ">
<path fill="none" stroke="#63b8ff" d="M730.34,-60.4C681.18,-51.58 572.86,-32.14 507.69,-20.45"/>
<polygon fill="#63b8ff" stroke="#63b8ff" points="508.4,-17.02 497.94,-18.7 507.16,-23.91 508.4,-17.02"/>
</a>
</g>
</g>
<!-- Node11&#45;&gt;Node7 -->
<g id="edge17_Node000011_Node000007" class="edge">
<title>Node11&#45;&gt;Node7</title>
<g id="a_edge17_Node000011_Node000007"><a xlink:title=" ">
<path fill="none" stroke="#63b8ff" d="M730.31,-57.38C697.86,-47.75 642,-31.17 606.58,-20.67"/>
<polygon fill="#63b8ff" stroke="#63b8ff" points="607.89,-17.4 597.31,-17.92 605.9,-24.12 607.89,-17.4"/>
</a>
</g>
</g>
<!-- Node12 -->
<g id="Node000012" class="node">
<title>Node12</title>
<g id="a_Node000012"><a xlink:title=" ">
<polygon fill="#e0e0e0" stroke="#999999" points="754,-20 714,-20 714,0 754,0 754,-20"/>
<text text-anchor="middle" x="734" y="-6.5" font-family="Helvetica,sans-Serif" font-size="10.00">bitset</text>
</a>
</g>
</g>
<!-- Node11&#45;&gt;Node12 -->
<g id="edge12_Node000011_Node000012" class="edge">
<title>Node11&#45;&gt;Node12</title>
<g id="a_edge12_Node000011_Node000012"><a xlink:title=" ">
<path fill="none" stroke="#63b8ff" d="M752.17,-55.59C749.39,-48.78 745.54,-39.32 742.09,-30.86"/>
<polygon fill="#63b8ff" stroke="#63b8ff" points="745.37,-29.64 738.36,-21.7 738.89,-32.28 745.37,-29.64"/>
</a>
</g>
</g>
<!-- Node13 -->
<g id="Node000013" class="node">
<title>Node13</title>
<g id="a_Node000013"><a xlink:title=" ">
<polygon fill="#e0e0e0" stroke="#999999" points="359.62,-20 314.38,-20 314.38,0 359.62,0 359.62,-20"/>
<text text-anchor="middle" x="337" y="-6.5" font-family="Helvetica,sans-Serif" font-size="10.00">chrono</text>
</a>
</g>
</g>
<!-- Node11&#45;&gt;Node13 -->
<g id="edge13_Node000011_Node000013" class="edge">
<title>Node11&#45;&gt;Node13</title>
<g id="a_edge13_Node000011_Node000013"><a xlink:title=" ">
<path fill="none" stroke="#63b8ff" d="M730.45,-61.76C672.54,-54.41 526.84,-35.87 405,-20 393.99,-18.57 381.97,-16.98 371.15,-15.55"/>
<polygon fill="#63b8ff" stroke="#63b8ff" points="371.85,-12.11 361.47,-14.26 370.93,-19.05 371.85,-12.11"/>
</a>
</g>
</g>
<!-- Node14 -->
<g id="Node000014" class="node">
<title>Node14</title>
<g id="a_Node000014"><a xlink:title=" ">
<polygon fill="#e0e0e0" stroke="#999999" points="821.88,-20 772.12,-20 772.12,0 821.88,0 821.88,-20"/>
<text text-anchor="middle" x="797" y="-6.5" font-family="Helvetica,sans-Serif" font-size="10.00">optional</text>
</a>
</g>
</g>
<!-- Node11&#45;&gt;Node14 -->
<g id="edge14_Node000011_Node000014" class="edge">
<title>Node11&#45;&gt;Node14</title>
<g id="a_edge14_Node000011_Node000014"><a xlink:title=" ">
<path fill="none" stroke="#63b8ff" d="M763.14,-55.59C768.61,-48.39 776.32,-38.23 783.01,-29.43"/>
<polygon fill="#63b8ff" stroke="#63b8ff" points="785.77,-31.58 789.02,-21.5 780.19,-27.35 785.77,-31.58"/>
</a>
</g>
</g>
<!-- Node15 -->
<g id="Node000015" class="node">
<title>Node15</title>
<g id="a_Node000015"><a xlink:title=" ">
<polygon fill="#e0e0e0" stroke="#999999" points="880,-20 840,-20 840,0 880,0 880,-20"/>
<text text-anchor="middle" x="860" y="-6.5" font-family="Helvetica,sans-Serif" font-size="10.00">string</text>
</a>
</g>
</g>
<!-- Node11&#45;&gt;Node15 -->
<g id="edge15_Node000011_Node000015" class="edge">
<title>Node11&#45;&gt;Node15</title>
<g id="a_edge15_Node000011_Node000015"><a xlink:title=" ">
<path fill="none" stroke="#63b8ff" d="M774.12,-55.59C789.97,-47.36 813.28,-35.26 831.62,-25.74"/>
<polygon fill="#63b8ff" stroke="#63b8ff" points="833.14,-28.89 840.4,-21.18 829.91,-22.68 833.14,-28.89"/>
</a>
</g>
</g>
<!-- Node16 -->
<g id="Node000016" class="node">
<title>Node16</title>
<g id="a_Node000016"><a xlink:title=" ">
<polygon fill="#e0e0e0" stroke="#999999" points="696.38,-20 613.62,-20 613.62,0 696.38,0 696.38,-20"/>
<text text-anchor="middle" x="655" y="-6.5" font-family="Helvetica,sans-Serif" font-size="10.00">unordered_map</text>
</a>
</g>
</g>
<!-- Node11&#45;&gt;Node16 -->
<g id="edge16_Node000011_Node000016" class="edge">
<title>Node11&#45;&gt;Node16</title>
<g id="a_edge16_Node000011_Node000016"><a xlink:title=" ">
<path fill="none" stroke="#63b8ff" d="M738.41,-55.59C723.08,-47.4 700.58,-35.37 682.81,-25.87"/>
<polygon fill="#63b8ff" stroke="#63b8ff" points="684.53,-22.82 674.06,-21.19 681.23,-28.99 684.53,-22.82"/>
</a>
</g>
</g>
<!-- Node17&#45;&gt;Node13 -->
<g id="edge20_Node000017_Node000013" class="edge">
<title>Node17&#45;&gt;Node13</title>
<g id="a_edge20_Node000017_Node000013"><a xlink:title=" ">
<path fill="none" stroke="#63b8ff" d="M137.98,-55.78C184.46,-45.32 259.41,-28.46 302.85,-18.68"/>
<polygon fill="#63b8ff" stroke="#63b8ff" points="303.5,-22.13 312.48,-16.52 301.96,-15.3 303.5,-22.13"/>
</a>
</g>
</g>
<!-- Node18 -->
<g id="Node000018" class="node">
<title>Node18</title>
<g id="a_Node000018"><a xlink:title=" ">
<polygon fill="#e0e0e0" stroke="#999999" points="58,-20 0,-20 0,0 58,0 58,-20"/>
<text text-anchor="middle" x="29" y="-6.5" font-family="Helvetica,sans-Serif" font-size="10.00">functional</text>
</a>
</g>
</g>
<!-- Node17&#45;&gt;Node18 -->
<g id="edge21_Node000017_Node000018" class="edge">
<title>Node17&#45;&gt;Node18</title>
<g id="a_edge21_Node000017_Node000018"><a xlink:title=" ">
<path fill="none" stroke="#63b8ff" d="M85.16,-55.59C75.31,-47.77 61.07,-36.46 49.39,-27.19"/>
<polygon fill="#63b8ff" stroke="#63b8ff" points="51.9,-24.72 41.89,-21.24 47.55,-30.2 51.9,-24.72"/>
</a>
</g>
</g>
<!-- Node19 -->
<g id="Node000019" class="node">
<title>Node19</title>
<g id="a_Node000019"><a xlink:title=" ">
<polygon fill="#e0e0e0" stroke="#999999" points="115.62,-20 76.38,-20 76.38,0 115.62,0 115.62,-20"/>
<text text-anchor="middle" x="96" y="-6.5" font-family="Helvetica,sans-Serif" font-size="10.00">limits</text>
</a>
</g>
</g>
<!-- Node17&#45;&gt;Node19 -->
<g id="edge22_Node000017_Node000019" class="edge">
<title>Node17&#45;&gt;Node19</title>
<g id="a_edge22_Node000017_Node000019"><a xlink:title=" ">
<path fill="none" stroke="#63b8ff" d="M96.83,-55.59C96.7,-49.01 96.54,-39.96 96.38,-31.73"/>
<polygon fill="#63b8ff" stroke="#63b8ff" points="99.88,-31.75 96.2,-21.81 92.89,-31.87 99.88,-31.75"/>
</a>
</g>
</g>
<!-- Node20 -->
<g id="Node000020" class="node">
<title>Node20</title>
<g id="a_Node000020"><a xlink:title=" ">
<polygon fill="#e0e0e0" stroke="#999999" points="222.75,-20 133.25,-20 133.25,0 222.75,0 222.75,-20"/>
<text text-anchor="middle" x="178" y="-6.5" font-family="Helvetica,sans-Serif" font-size="10.00">boost/format.hpp</text>
</a>
</g>
</g>
<!-- Node17&#45;&gt;Node20 -->
<g id="edge23_Node000017_Node000020" class="edge">
<title>Node17&#45;&gt;Node20</title>
<g id="a_edge23_Node000017_Node000020"><a xlink:title=" ">
<path fill="none" stroke="#63b8ff" d="M111.11,-55.59C123,-47.67 140.27,-36.16 154.28,-26.82"/>
<polygon fill="#63b8ff" stroke="#63b8ff" points="156.14,-29.78 162.52,-21.32 152.26,-23.95 156.14,-29.78"/>
</a>
</g>
</g>
<!-- Node22 -->
<g id="Node000022" class="node">
<title>Node22</title>
<g id="a_Node000022"><a xlink:href="input_8h.html" target="_top" xlink:title="Declarations for gamepad, keyboard, and mouse input handling.">
<polygon fill="white" stroke="#666666" points="679.62,-256 634.38,-256 634.38,-236 679.62,-236 679.62,-256"/>
<text text-anchor="middle" x="657" y="-242.5" font-family="Helvetica,sans-Serif" font-size="10.00">input.h</text>
</a>
</g>
</g>
<!-- Node21&#45;&gt;Node22 -->
<g id="edge25_Node000021_Node000022" class="edge">
<title>Node21&#45;&gt;Node22</title>
<g id="a_edge25_Node000021_Node000022"><a xlink:title=" ">
<path fill="none" stroke="#63b8ff" d="M699.12,-291.59C692.1,-284.16 682.1,-273.58 673.61,-264.58"/>
<polygon fill="#63b8ff" stroke="#63b8ff" points="676.23,-262.27 666.82,-257.4 671.14,-267.07 676.23,-262.27"/>
</a>
</g>
</g>
<!-- Node23 -->
<g id="Node000023" class="node">
<title>Node23</title>
<g id="a_Node000023"><a xlink:href="common_8h.html" target="_top" xlink:title="Declarations for common platform specific utilities.">
<polygon fill="white" stroke="#666666" points="836,-200 736,-200 736,-180 836,-180 836,-200"/>
<text text-anchor="middle" x="786" y="-186.5" font-family="Helvetica,sans-Serif" font-size="10.00">platform/common.h</text>
</a>
</g>
</g>
<!-- Node21&#45;&gt;Node23 -->
<g id="edge61_Node000021_Node000023" class="edge">
<title>Node21&#45;&gt;Node23</title>
<g id="a_edge61_Node000021_Node000023"><a xlink:title=" ">
<path fill="none" stroke="#63b8ff" d="M714.65,-291.62C727.49,-273.52 755.9,-233.45 772.74,-209.7"/>
<polygon fill="#63b8ff" stroke="#63b8ff" points="775.56,-211.77 778.49,-201.59 769.85,-207.72 775.56,-211.77"/>
</a>
</g>
</g>
<!-- Node27 -->
<g id="Node000027" class="node">
<title>Node27</title>
<g id="a_Node000027"><a xlink:href="thread__safe_8h.html" target="_top" xlink:title="Declarations for thread&#45;safe data structures.">
<polygon fill="white" stroke="#666666" points="608.88,-138 517.12,-138 517.12,-118 608.88,-118 608.88,-138"/>
<text text-anchor="middle" x="563" y="-124.5" font-family="Helvetica,sans-Serif" font-size="10.00">src/thread_safe.h</text>
</a>
</g>
</g>
<!-- Node21&#45;&gt;Node27 -->
<g id="edge62_Node000021_Node000027" class="edge">
<title>Node21&#45;&gt;Node27</title>
<g id="a_edge62_Node000021_Node000027"><a xlink:title=" ">
<path fill="none" stroke="#63b8ff" d="M706.98,-291.93C705.15,-278.73 700.39,-253.84 689,-236 663.28,-195.71 617.7,-162.56 588.98,-144.31"/>
<polygon fill="#63b8ff" stroke="#63b8ff" points="590.86,-141.36 580.52,-139.07 587.18,-147.31 590.86,-141.36"/>
</a>
</g>
</g>
<!-- Node39 -->
<g id="Node000039" class="node">
<title>Node39</title>
<g id="a_Node000039"><a xlink:href="video__colorspace_8h.html" target="_top" xlink:title="Declarations for colorspace functions.">
<polygon fill="white" stroke="#666666" points="1294.25,-138 1177.75,-138 1177.75,-118 1294.25,-118 1294.25,-138"/>
<text text-anchor="middle" x="1236" y="-124.5" font-family="Helvetica,sans-Serif" font-size="10.00">src/video_colorspace.h</text>
</a>
</g>
</g>
<!-- Node21&#45;&gt;Node39 -->
<g id="edge63_Node000021_Node000039" class="edge">
<title>Node21&#45;&gt;Node39</title>
<g id="a_edge63_Node000021_Node000039"><a xlink:title=" ">
<path fill="none" stroke="#63b8ff" d="M731.9,-291.59C765.44,-278.51 828.48,-254.37 883,-236 992.86,-198.99 1123.86,-160.82 1191.17,-141.63"/>
<polygon fill="#63b8ff" stroke="#63b8ff" points="1192.08,-145.01 1200.74,-138.91 1190.17,-138.28 1192.08,-145.01"/>
</a>
</g>
</g>
<!-- Node42 -->
<g id="Node000042" class="node">
<title>Node42</title>
<g id="a_Node000042"><a xlink:title=" ">
<polygon fill="#e0e0e0" stroke="#999999" points="1002.25,-256 891.75,-256 891.75,-236 1002.25,-236 1002.25,-256"/>
<text text-anchor="middle" x="947" y="-242.5" font-family="Helvetica,sans-Serif" font-size="10.00">libavcodec/avcodec.h</text>
</a>
</g>
</g>
<!-- Node21&#45;&gt;Node42 -->
<g id="edge64_Node000021_Node000042" class="edge">
<title>Node21&#45;&gt;Node42</title>
<g id="a_edge64_Node000021_Node000042"><a xlink:title=" ">
<path fill="none" stroke="#63b8ff" d="M740.23,-293.72C779.67,-284.81 846.97,-269.6 894.05,-258.96"/>
<polygon fill="#63b8ff" stroke="#63b8ff" points="894.8,-262.38 903.78,-256.77 893.25,-255.56 894.8,-262.38"/>
</a>
</g>
</g>
<!-- Node43 -->
<g id="Node000043" class="node">
<title>Node43</title>
<g id="a_Node000043"><a xlink:title=" ">
<polygon fill="#e0e0e0" stroke="#999999" points="616.5,-256 507.5,-256 507.5,-236 616.5,-236 616.5,-256"/>
<text text-anchor="middle" x="562" y="-242.5" font-family="Helvetica,sans-Serif" font-size="10.00">libswscale/swscale.h</text>
</a>
</g>
</g>
<!-- Node21&#45;&gt;Node43 -->
<g id="edge65_Node000021_Node000043" class="edge">
<title>Node21&#45;&gt;Node43</title>
<g id="a_edge65_Node000021_Node000043"><a xlink:title=" ">
<path fill="none" stroke="#63b8ff" d="M682.57,-291.59C659.26,-282.97 624.5,-270.12 598.28,-260.42"/>
<polygon fill="#63b8ff" stroke="#63b8ff" points="599.64,-257.19 589.05,-257 597.21,-263.76 599.64,-257.19"/>
</a>
</g>
</g>
<!-- Node22&#45;&gt;Node18 -->
<g id="edge26_Node000022_Node000018" class="edge">
<title>Node22&#45;&gt;Node18</title>
<g id="a_edge26_Node000022_Node000018"><a xlink:title=" ">
<path fill="none" stroke="#63b8ff" d="M634.05,-238.02C631.35,-237.3 628.62,-236.6 626,-236 390.02,-181.71 299.48,-263.71 89,-144 54.47,-124.36 45.31,-113.06 31,-76 25.51,-61.79 25.25,-44.51 26.24,-31.34"/>
<polygon fill="#63b8ff" stroke="#63b8ff" points="29.68,-32.03 27.27,-21.71 22.72,-31.28 29.68,-32.03"/>
</a>
</g>
</g>
<!-- Node22&#45;&gt;Node23 -->
<g id="edge27_Node000022_Node000023" class="edge">
<title>Node22&#45;&gt;Node23</title>
<g id="a_edge27_Node000022_Node000023"><a xlink:title=" ">
<path fill="none" stroke="#63b8ff" d="M679.47,-235.59C699.79,-227.09 729.95,-214.46 753.01,-204.81"/>
<polygon fill="#63b8ff" stroke="#63b8ff" points="754.09,-208.15 761.96,-201.06 751.38,-201.7 754.09,-208.15"/>
</a>
</g>
</g>
<!-- Node22&#45;&gt;Node27 -->
<g id="edge60_Node000022_Node000027" class="edge">
<title>Node22&#45;&gt;Node27</title>
<g id="a_edge60_Node000022_Node000027"><a xlink:title=" ">
<path fill="none" stroke="#63b8ff" d="M649.31,-235.51C633.67,-216.21 597.94,-172.11 577.7,-147.13"/>
<polygon fill="#63b8ff" stroke="#63b8ff" points="580.5,-145.04 571.49,-139.48 575.07,-149.45 580.5,-145.04"/>
</a>
</g>
</g>
<!-- Node23&#45;&gt;Node8 -->
<g id="edge35_Node000023_Node000008" class="edge">
<title>Node23&#45;&gt;Node8</title>
<g id="a_edge35_Node000023_Node000008"><a xlink:title=" ">
<path fill="none" stroke="#63b8ff" d="M735.59,-182.23C648.58,-170.55 471.4,-146.77 386.47,-135.37"/>
<polygon fill="#63b8ff" stroke="#63b8ff" points="386.99,-131.91 376.61,-134.05 386.06,-138.85 386.99,-131.91"/>
</a>
</g>
</g>
<!-- Node23&#45;&gt;Node11 -->
<g id="edge34_Node000023_Node000011" class="edge">
<title>Node23&#45;&gt;Node11</title>
<g id="a_edge34_Node000023_Node000011"><a xlink:title=" ">
<path fill="none" stroke="#63b8ff" d="M741.92,-179.5C708.38,-171.27 666.29,-158.45 656,-144 647.75,-132.41 648.28,-123.94 656,-112 669.97,-90.39 697.07,-79.06 719.53,-73.17"/>
<polygon fill="#63b8ff" stroke="#63b8ff" points="720.02,-76.65 728.96,-70.97 718.43,-69.83 720.02,-76.65"/>
</a>
</g>
</g>
<!-- Node23&#45;&gt;Node12 -->
<g id="edge28_Node000023_Node000012" class="edge">
<title>Node23&#45;&gt;Node12</title>
<g id="a_edge28_Node000023_Node000012"><a xlink:title=" ">
<path fill="none" stroke="#63b8ff" d="M836.31,-180.63C875.34,-172.99 924.78,-160.39 937,-144 945.5,-132.6 944.49,-124.09 937,-112 917.5,-80.51 816.97,-40.74 765.08,-21.88"/>
<polygon fill="#63b8ff" stroke="#63b8ff" points="766.51,-18.67 755.92,-18.59 764.14,-25.26 766.51,-18.67"/>
</a>
</g>
</g>
<!-- Node23&#45;&gt;Node15 -->
<g id="edge32_Node000023_Node000015" class="edge">
<title>Node23&#45;&gt;Node15</title>
<g id="a_edge32_Node000023_Node000015"><a xlink:title=" ">
<path fill="none" stroke="#63b8ff" d="M832.58,-179.55C879.64,-169.53 946.46,-153.82 954,-144 985.84,-102.51 922.59,-51.54 885.05,-26.45"/>
<polygon fill="#63b8ff" stroke="#63b8ff" points="887.25,-23.71 876.95,-21.2 883.43,-29.58 887.25,-23.71"/>
</a>
</g>
</g>
<!-- Node23&#45;&gt;Node18 -->
<g id="edge30_Node000023_Node000018" class="edge">
<title>Node23&#45;&gt;Node18</title>
<g id="a_edge30_Node000023_Node000018"><a xlink:title=" ">
<path fill="none" stroke="#63b8ff" d="M735.67,-187.34C646.16,-183.74 453.71,-173.05 294,-144 181.98,-123.62 127.57,-156.45 47,-76 35.34,-64.35 31.06,-45.86 29.57,-31.57"/>
<polygon fill="#63b8ff" stroke="#63b8ff" points="33.08,-31.65 28.96,-21.89 26.09,-32.09 33.08,-31.65"/>
</a>
</g>
</g>
<!-- Node24 -->
<g id="Node000024" class="node">
<title>Node24</title>
<g id="a_Node000024"><a xlink:title=" ">
<polygon fill="#e0e0e0" stroke="#999999" points="1159.5,-138 1098.5,-138 1098.5,-118 1159.5,-118 1159.5,-138"/>
<text text-anchor="middle" x="1129" y="-124.5" font-family="Helvetica,sans-Serif" font-size="10.00">filesystem</text>
</a>
</g>
</g>
<!-- Node23&#45;&gt;Node24 -->
<g id="edge29_Node000023_Node000024" class="edge">
<title>Node23&#45;&gt;Node24</title>
<g id="a_edge29_Node000023_Node000024"><a xlink:title=" ">
<path fill="none" stroke="#63b8ff" d="M836.3,-181.89C914.93,-170.69 1060.44,-149.66 1084,-144 1086.63,-143.37 1089.34,-142.65 1092.04,-141.88"/>
<polygon fill="#63b8ff" stroke="#63b8ff" points="1093.07,-145.22 1101.6,-138.94 1091.01,-138.53 1093.07,-145.22"/>
</a>
</g>
</g>
<!-- Node25 -->
<g id="Node000025" class="node">
<title>Node25</title>
<g id="a_Node000025"><a xlink:title=" ">
<polygon fill="#e0e0e0" stroke="#999999" points="1053.5,-20 1010.5,-20 1010.5,0 1053.5,0 1053.5,-20"/>
<text text-anchor="middle" x="1032" y="-6.5" font-family="Helvetica,sans-Serif" font-size="10.00">mutex</text>
</a>
</g>
</g>
<!-- Node23&#45;&gt;Node25 -->
<g id="edge31_Node000023_Node000025" class="edge">
<title>Node23&#45;&gt;Node25</title>
<g id="a_edge31_Node000023_Node000025"><a xlink:title=" ">
<path fill="none" stroke="#63b8ff" d="M836.22,-181.92C884,-174.3 951.54,-160.96 972,-144 1007.15,-114.86 1022.55,-60.82 1028.58,-31.39"/>
<polygon fill="#63b8ff" stroke="#63b8ff" points="1031.96,-32.39 1030.35,-21.92 1025.07,-31.1 1031.96,-32.39"/>
</a>
</g>
</g>
<!-- Node26 -->
<g id="Node000026" class="node">
<title>Node26</title>
<g id="a_Node000026"><a xlink:title=" ">
<polygon fill="#e0e0e0" stroke="#999999" points="803.12,-138 664.88,-138 664.88,-118 803.12,-118 803.12,-138"/>
<text text-anchor="middle" x="734" y="-124.5" font-family="Helvetica,sans-Serif" font-size="10.00">boost/core/noncopyable.hpp</text>
</a>
</g>
</g>
<!-- Node23&#45;&gt;Node26 -->
<g id="edge33_Node000023_Node000026" class="edge">
<title>Node23&#45;&gt;Node26</title>
<g id="a_edge33_Node000023_Node000026"><a xlink:title=" ">
<path fill="none" stroke="#63b8ff" d="M777.88,-179.62C770.28,-170.86 758.73,-157.53 749.38,-146.75"/>
<polygon fill="#63b8ff" stroke="#63b8ff" points="752.08,-144.52 742.89,-139.26 746.79,-149.11 752.08,-144.52"/>
</a>
</g>
</g>
<!-- Node23&#45;&gt;Node27 -->
<g id="edge36_Node000023_Node000027" class="edge">
<title>Node23&#45;&gt;Node27</title>
<g id="a_edge36_Node000023_Node000027"><a xlink:title=" ">
<path fill="none" stroke="#63b8ff" d="M751.16,-179.62C712.89,-169.33 651.29,-152.75 609.06,-141.39"/>
<polygon fill="#63b8ff" stroke="#63b8ff" points="609.99,-138.02 599.43,-138.8 608.18,-144.78 609.99,-138.02"/>
</a>
</g>
</g>
<!-- Node32 -->
<g id="Node000032" class="node">
<title>Node32</title>
<g id="a_Node000032"><a xlink:href="utility_8h.html" target="_top" xlink:title="Declarations for utility functions.">
<polygon fill="white" stroke="#666666" points="1106.38,-76 1059.62,-76 1059.62,-56 1106.38,-56 1106.38,-76"/>
<text text-anchor="middle" x="1083" y="-62.5" font-family="Helvetica,sans-Serif" font-size="10.00">utility.h</text>
</a>
</g>
</g>
<!-- Node23&#45;&gt;Node32 -->
<g id="edge56_Node000023_Node000032" class="edge">
<title>Node23&#45;&gt;Node32</title>
<g id="a_edge56_Node000023_Node000032"><a xlink:title=" ">
<path fill="none" stroke="#63b8ff" d="M836.23,-181.51C909.43,-170.43 1037.67,-150.29 1046,-144 1064.18,-130.26 1073.86,-105.28 1078.7,-87.5"/>
<polygon fill="#63b8ff" stroke="#63b8ff" points="1082.1,-88.34 1081.02,-77.8 1075.29,-86.71 1082.1,-88.34"/>
</a>
</g>
</g>
<!-- Node23&#45;&gt;Node39 -->
<g id="edge57_Node000023_Node000039" class="edge">
<title>Node23&#45;&gt;Node39</title>
<g id="a_edge57_Node000023_Node000039"><a xlink:title=" ">
<path fill="none" stroke="#63b8ff" d="M836.29,-181.8C840.92,-181.17 845.55,-180.56 850,-180 991.55,-162.06 1028.29,-167.62 1169,-144 1174.59,-143.06 1180.41,-141.96 1186.19,-140.77"/>
<polygon fill="#63b8ff" stroke="#63b8ff" points="1186.64,-144.26 1195.69,-138.75 1185.18,-137.41 1186.64,-144.26"/>
</a>
</g>
</g>
<!-- Node41 -->
<g id="Node000041" class="node">
<title>Node41</title>
<g id="a_Node000041"><a xlink:title=" ">
<polygon fill="#e0e0e0" stroke="#999999" points="928.38,-144 821.62,-144 821.62,-112 928.38,-112 928.38,-144"/>
<text text-anchor="start" x="829.62" y="-130.5" font-family="Helvetica,sans-Serif" font-size="10.00">moonlight&#45;common&#45;c</text>
<text text-anchor="middle" x="875" y="-118.5" font-family="Helvetica,sans-Serif" font-size="10.00">/src/Limelight.h</text>
</a>
</g>
</g>
<!-- Node23&#45;&gt;Node41 -->
<g id="edge59_Node000023_Node000041" class="edge">
<title>Node23&#45;&gt;Node41</title>
<g id="a_edge59_Node000023_Node000041"><a xlink:title=" ">
<path fill="none" stroke="#63b8ff" d="M799.91,-179.62C811.38,-171.89 828.1,-160.62 842.86,-150.67"/>
<polygon fill="#63b8ff" stroke="#63b8ff" points="844.61,-153.71 850.94,-145.22 840.69,-147.91 844.61,-153.71"/>
</a>
</g>
</g>
<!-- Node27&#45;&gt;Node7 -->
<g id="edge43_Node000027_Node000007" class="edge">
<title>Node27&#45;&gt;Node7</title>
<g id="a_edge43_Node000027_Node000007"><a xlink:title=" ">
<path fill="none" stroke="#63b8ff" d="M596.13,-117.55C628.33,-107.62 673.82,-91.34 684,-76 688.92,-68.59 688.95,-63.38 684,-56 679.39,-49.13 637.42,-33.22 606.68,-22.28"/>
<polygon fill="#63b8ff" stroke="#63b8ff" points="607.98,-19.03 597.39,-19.01 605.66,-25.63 607.98,-19.03"/>
</a>
</g>
</g>
<!-- Node27&#45;&gt;Node18 -->
<g id="edge40_Node000027_Node000018" class="edge">
<title>Node27&#45;&gt;Node18</title>
<g id="a_edge40_Node000027_Node000018"><a xlink:title=" ">
<path fill="none" stroke="#63b8ff" d="M545.79,-117.54C516.44,-101.89 454.4,-70.84 398,-56 258.39,-19.26 214.95,-43.83 69.5,-20.21"/>
<polygon fill="#63b8ff" stroke="#63b8ff" points="70.32,-16.79 59.88,-18.59 69.16,-23.7 70.32,-16.79"/>
</a>
</g>
</g>
<!-- Node27&#45;&gt;Node25 -->
<g id="edge42_Node000027_Node000025" class="edge">
<title>Node27&#45;&gt;Node25</title>
<g id="a_edge42_Node000027_Node000025"><a xlink:title=" ">
<path fill="none" stroke="#63b8ff" d="M609.28,-118.87C674.2,-107.34 788.96,-86.48 830,-76 890.72,-60.49 959.94,-36.89 999.55,-22.8"/>
<polygon fill="#63b8ff" stroke="#63b8ff" points="1000.48,-26.19 1008.71,-19.52 998.12,-19.6 1000.48,-26.19"/>
</a>
</g>
</g>
<!-- Node28 -->
<g id="Node000028" class="node">
<title>Node28</title>
<g id="a_Node000028"><a xlink:title=" ">
<polygon fill="#e0e0e0" stroke="#999999" points="558.88,-76 521.12,-76 521.12,-56 558.88,-56 558.88,-76"/>
<text text-anchor="middle" x="540" y="-62.5" font-family="Helvetica,sans-Serif" font-size="10.00">array</text>
</a>
</g>
</g>
<!-- Node27&#45;&gt;Node28 -->
<g id="edge37_Node000027_Node000028" class="edge">
<title>Node27&#45;&gt;Node28</title>
<g id="a_edge37_Node000027_Node000028"><a xlink:title=" ">
<path fill="none" stroke="#63b8ff" d="M559.41,-117.62C556.25,-109.39 551.55,-97.13 547.57,-86.74"/>
<polygon fill="#63b8ff" stroke="#63b8ff" points="550.88,-85.61 544.03,-77.53 544.35,-88.12 550.88,-85.61"/>
</a>
</g>
</g>
<!-- Node29 -->
<g id="Node000029" class="node">
<title>Node29</title>
<g id="a_Node000029"><a xlink:title=" ">
<polygon fill="#e0e0e0" stroke="#999999" points="622.62,-76 577.38,-76 577.38,-56 622.62,-56 622.62,-76"/>
<text text-anchor="middle" x="600" y="-62.5" font-family="Helvetica,sans-Serif" font-size="10.00">atomic</text>
</a>
</g>
</g>
<!-- Node27&#45;&gt;Node29 -->
<g id="edge38_Node000027_Node000029" class="edge">
<title>Node27&#45;&gt;Node29</title>
<g id="a_edge38_Node000027_Node000029"><a xlink:title=" ">
<path fill="none" stroke="#63b8ff" d="M568.78,-117.62C574.03,-109.12 581.91,-96.33 588.45,-85.74"/>
<polygon fill="#63b8ff" stroke="#63b8ff" points="591.32,-87.75 593.59,-77.4 585.36,-84.08 591.32,-87.75"/>
</a>
</g>
</g>
<!-- Node30 -->
<g id="Node000030" class="node">
<title>Node30</title>
<g id="a_Node000030"><a xlink:title=" ">
<polygon fill="#e0e0e0" stroke="#999999" points="992,-20 898,-20 898,0 992,0 992,-20"/>
<text text-anchor="middle" x="945" y="-6.5" font-family="Helvetica,sans-Serif" font-size="10.00">condition_variable</text>
</a>
</g>
</g>
<!-- Node27&#45;&gt;Node30 -->
<g id="edge39_Node000027_Node000030" class="edge">
<title>Node27&#45;&gt;Node30</title>
<g id="a_edge39_Node000027_Node000030"><a xlink:title=" ">
<path fill="none" stroke="#63b8ff" d="M609.29,-119.08C655.61,-110.57 728.63,-95.59 790,-76 835.01,-61.63 885.09,-39.44 915.82,-25.06"/>
<polygon fill="#63b8ff" stroke="#63b8ff" points="916.92,-28.41 924.47,-20.98 913.93,-22.08 916.92,-28.41"/>
</a>
</g>
</g>
<!-- Node31 -->
<g id="Node000031" class="node">
<title>Node31</title>
<g id="a_Node000031"><a xlink:title=" ">
<polygon fill="#e0e0e0" stroke="#999999" points="675.38,-76 640.62,-76 640.62,-56 675.38,-56 675.38,-76"/>
<text text-anchor="middle" x="658" y="-62.5" font-family="Helvetica,sans-Serif" font-size="10.00">map</text>
</a>
</g>
</g>
<!-- Node27&#45;&gt;Node31 -->
<g id="edge41_Node000027_Node000031" class="edge">
<title>Node27&#45;&gt;Node31</title>
<g id="a_edge41_Node000027_Node000031"><a xlink:title=" ">
<path fill="none" stroke="#63b8ff" d="M577.84,-117.62C592.76,-108.2 616.01,-93.52 633.64,-82.39"/>
<polygon fill="#63b8ff" stroke="#63b8ff" points="635.39,-85.42 641.98,-77.12 631.66,-79.5 635.39,-85.42"/>
</a>
</g>
</g>
<!-- Node27&#45;&gt;Node32 -->
<g id="edge44_Node000027_Node000032" class="edge">
<title>Node27&#45;&gt;Node32</title>
<g id="a_edge44_Node000027_Node000032"><a xlink:title=" ">
<path fill="none" stroke="#63b8ff" d="M609.28,-119.02C624.17,-116.59 640.76,-114.03 656,-112 801.24,-92.65 975.17,-76.49 1048.12,-70.02"/>
<polygon fill="#63b8ff" stroke="#63b8ff" points="1048.18,-73.53 1057.83,-69.17 1047.56,-66.56 1048.18,-73.53"/>
</a>
</g>
</g>
<!-- Node32&#45;&gt;Node7 -->
<g id="edge55_Node000032_Node000007" class="edge">
<title>Node32&#45;&gt;Node7</title>
<g id="a_edge55_Node000032_Node000007"><a xlink:title=" ">
<path fill="none" stroke="#63b8ff" d="M1059.4,-64.35C990.89,-62.14 786,-53.21 607.09,-20.03"/>
<polygon fill="#63b8ff" stroke="#63b8ff" points="607.85,-16.61 597.38,-18.19 606.55,-23.49 607.85,-16.61"/>
</a>
</g>
</g>
<!-- Node32&#45;&gt;Node14 -->
<g id="edge49_Node000032_Node000014" class="edge">
<title>Node32&#45;&gt;Node14</title>
<g id="a_edge49_Node000032_Node000014"><a xlink:title=" ">
<path fill="none" stroke="#63b8ff" d="M1059.25,-61.42C1016.2,-54.81 922.24,-39.71 833.29,-20.36"/>
<polygon fill="#63b8ff" stroke="#63b8ff" points="834.19,-16.97 823.67,-18.24 832.69,-23.81 834.19,-16.97"/>
</a>
</g>
</g>
<!-- Node32&#45;&gt;Node15 -->
<g id="edge51_Node000032_Node000015" class="edge">
<title>Node32&#45;&gt;Node15</title>
<g id="a_edge51_Node000032_Node000015"><a xlink:title=" ">
<path fill="none" stroke="#63b8ff" d="M1059.27,-60.08C1024.5,-52.75 957.47,-38.14 891.27,-20.46"/>
<polygon fill="#63b8ff" stroke="#63b8ff" points="892.25,-17.1 881.69,-17.88 890.43,-23.86 892.25,-17.1"/>
</a>
</g>
</g>
<!-- Node32&#45;&gt;Node25 -->
<g id="edge48_Node000032_Node000025" class="edge">
<title>Node32&#45;&gt;Node25</title>
<g id="a_edge48_Node000032_Node000025"><a xlink:title=" ">
<path fill="none" stroke="#63b8ff" d="M1074.12,-55.59C1067.1,-48.16 1057.1,-37.58 1048.61,-28.58"/>
<polygon fill="#63b8ff" stroke="#63b8ff" points="1051.23,-26.27 1041.82,-21.4 1046.14,-31.07 1051.23,-26.27"/>
</a>
</g>
</g>
<!-- Node32&#45;&gt;Node30 -->
<g id="edge46_Node000032_Node000030" class="edge">
<title>Node32&#45;&gt;Node30</title>
<g id="a_edge46_Node000032_Node000030"><a xlink:title=" ">
<path fill="none" stroke="#63b8ff" d="M1059.28,-55.72C1037.26,-47.1 1004.23,-34.18 979.33,-24.43"/>
<polygon fill="#63b8ff" stroke="#63b8ff" points="980.87,-21.28 970.28,-20.89 978.32,-27.8 980.87,-21.28"/>
</a>
</g>
</g>
<!-- Node33 -->
<g id="Node000033" class="node">
<title>Node33</title>
<g id="a_Node000033"><a xlink:title=" ">
<polygon fill="#e0e0e0" stroke="#999999" points="1354.88,-20 1299.12,-20 1299.12,0 1354.88,0 1354.88,-20"/>
<text text-anchor="middle" x="1327" y="-6.5" font-family="Helvetica,sans-Serif" font-size="10.00">algorithm</text>
</a>
</g>
</g>
<!-- Node32&#45;&gt;Node33 -->
<g id="edge45_Node000032_Node000033" class="edge">
<title>Node32&#45;&gt;Node33</title>
<g id="a_edge45_Node000032_Node000033"><a xlink:title=" ">
<path fill="none" stroke="#63b8ff" d="M1106.64,-60.06C1143.24,-52.36 1216.12,-36.88 1287.72,-20.48"/>
<polygon fill="#63b8ff" stroke="#63b8ff" points="1288.3,-23.94 1297.26,-18.29 1286.73,-17.12 1288.3,-23.94"/>
</a>
</g>
</g>
<!-- Node34 -->
<g id="Node000034" class="node">
<title>Node34</title>
<g id="a_Node000034"><a xlink:title=" ">
<polygon fill="#e0e0e0" stroke="#999999" points="1424.62,-20 1373.38,-20 1373.38,0 1424.62,0 1424.62,-20"/>
<text text-anchor="middle" x="1399" y="-6.5" font-family="Helvetica,sans-Serif" font-size="10.00">memory</text>
</a>
</g>
</g>
<!-- Node32&#45;&gt;Node34 -->
<g id="edge47_Node000032_Node000034" class="edge">
<title>Node32&#45;&gt;Node34</title>
<g id="a_edge47_Node000032_Node000034"><a xlink:title=" ">
<path fill="none" stroke="#63b8ff" d="M1106.82,-61.95C1153.67,-55.78 1261.28,-40.82 1361.8,-20.29"/>
<polygon fill="#63b8ff" stroke="#63b8ff" points="1362.5,-23.71 1371.59,-18.26 1361.09,-16.86 1362.5,-23.71"/>
</a>
</g>
</g>
<!-- Node35 -->
<g id="Node000035" class="node">
<title>Node35</title>
<g id="a_Node000035"><a xlink:title=" ">
<polygon fill="#e0e0e0" stroke="#999999" points="1493.62,-20 1442.38,-20 1442.38,0 1493.62,0 1493.62,-20"/>
<text text-anchor="middle" x="1468" y="-6.5" font-family="Helvetica,sans-Serif" font-size="10.00">ostream</text>
</a>
</g>
</g>
<!-- Node32&#45;&gt;Node35 -->
<g id="edge50_Node000032_Node000035" class="edge">
<title>Node32&#45;&gt;Node35</title>
<g id="a_edge50_Node000032_Node000035"><a xlink:title=" ">
<path fill="none" stroke="#63b8ff" d="M1106.58,-63.05C1161.74,-58.28 1303.56,-44.68 1430.99,-20.38"/>
<polygon fill="#63b8ff" stroke="#63b8ff" points="1431.46,-23.86 1440.61,-18.52 1430.12,-16.99 1431.46,-23.86"/>
</a>
</g>
</g>
<!-- Node36 -->
<g id="Node000036" class="node">
<title>Node36</title>
<g id="a_Node000036"><a xlink:title=" ">
<polygon fill="#e0e0e0" stroke="#999999" points="1136.75,-20 1071.25,-20 1071.25,0 1136.75,0 1136.75,-20"/>
<text text-anchor="middle" x="1104" y="-6.5" font-family="Helvetica,sans-Serif" font-size="10.00">string_view</text>
</a>
</g>
</g>
<!-- Node32&#45;&gt;Node36 -->
<g id="edge52_Node000032_Node000036" class="edge">
<title>Node32&#45;&gt;Node36</title>
<g id="a_edge52_Node000032_Node000036"><a xlink:title=" ">
<path fill="none" stroke="#63b8ff" d="M1086.66,-55.59C1089.31,-48.78 1092.99,-39.32 1096.28,-30.86"/>
<polygon fill="#63b8ff" stroke="#63b8ff" points="1099.47,-32.3 1099.84,-21.71 1092.95,-29.76 1099.47,-32.3"/>
</a>
</g>
</g>
<!-- Node37 -->
<g id="Node000037" class="node">
<title>Node37</title>
<g id="a_Node000037"><a xlink:title=" ">
<polygon fill="#e0e0e0" stroke="#999999" points="1216.88,-20 1155.12,-20 1155.12,0 1216.88,0 1216.88,-20"/>
<text text-anchor="middle" x="1186" y="-6.5" font-family="Helvetica,sans-Serif" font-size="10.00">type_traits</text>
</a>
</g>
</g>
<!-- Node32&#45;&gt;Node37 -->
<g id="edge53_Node000032_Node000037" class="edge">
<title>Node32&#45;&gt;Node37</title>
<g id="a_edge53_Node000032_Node000037"><a xlink:title=" ">
<path fill="none" stroke="#63b8ff" d="M1100.94,-55.59C1116.65,-47.36 1139.73,-35.26 1157.89,-25.74"/>
<polygon fill="#63b8ff" stroke="#63b8ff" points="1159.35,-28.93 1166.58,-21.18 1156.1,-22.73 1159.35,-28.93"/>
</a>
</g>
</g>
<!-- Node38 -->
<g id="Node000038" class="node">
<title>Node38</title>
<g id="a_Node000038"><a xlink:title=" ">
<polygon fill="#e0e0e0" stroke="#999999" points="1280.62,-20 1235.38,-20 1235.38,0 1280.62,0 1280.62,-20"/>
<text text-anchor="middle" x="1258" y="-6.5" font-family="Helvetica,sans-Serif" font-size="10.00">variant</text>
</a>
</g>
</g>
<!-- Node32&#45;&gt;Node38 -->
<g id="edge54_Node000032_Node000038" class="edge">
<title>Node32&#45;&gt;Node38</title>
<g id="a_edge54_Node000032_Node000038"><a xlink:title=" ">
<path fill="none" stroke="#63b8ff" d="M1106.6,-57.72C1136.86,-48.38 1189.54,-32.13 1224.09,-21.46"/>
<polygon fill="#63b8ff" stroke="#63b8ff" points="1225.08,-24.82 1233.6,-18.53 1223.02,-18.13 1225.08,-24.82"/>
</a>
</g>
</g>
<!-- Node40 -->
<g id="Node000040" class="node">
<title>Node40</title>
<g id="a_Node000040"><a xlink:title=" ">
<polygon fill="#e0e0e0" stroke="#999999" points="1279.62,-76 1192.38,-76 1192.38,-56 1279.62,-56 1279.62,-76"/>
<text text-anchor="middle" x="1236" y="-62.5" font-family="Helvetica,sans-Serif" font-size="10.00">libavutil/pixfmt.h</text>
</a>
</g>
</g>
<!-- Node39&#45;&gt;Node40 -->
<g id="edge58_Node000039_Node000040" class="edge">
<title>Node39&#45;&gt;Node40</title>
<g id="a_edge58_Node000039_Node000040"><a xlink:title=" ">
<path fill="none" stroke="#63b8ff" d="M1236,-117.62C1236,-109.56 1236,-97.65 1236,-87.41"/>
<polygon fill="#63b8ff" stroke="#63b8ff" points="1239.5,-87.63 1236,-77.63 1232.5,-87.63 1239.5,-87.63"/>
</a>
</g>
</g>
</g>
</svg>

<g id="navigator" transform="translate(0 0)" fill="#404254">
  <rect fill="#f2f5e9" fill-opacity="0.5" stroke="#606060" stroke-width=".5" x="0" y="0" width="60" height="60"/>
  <use id="zoomplus" xlink:href="#zoomPlus" x="17" y="9" onmousedown="handleZoom(evt,'in')"/>
  <use id="zoomminus" xlink:href="#zoomMin" x="42" y="9" onmousedown="handleZoom(evt,'out')"/>
  <use id="reset" xlink:href="#resetDef" x="30" y="36" onmousedown="handleReset()"/>
   <use id="arrowup" xlink:href="#arrowUp" x="0" y="0" onmousedown="handlePan(0,-1)"/>
  <use id="arrowright" xlink:href="#arrowRight" x="0" y="0" onmousedown="handlePan(1,0)"/>
  <use id="arrowdown" xlink:href="#arrowDown" x="0" y="0" onmousedown="handlePan(0,1)"/>
  <use id="arrowleft" xlink:href="#arrowLeft" x="0" y="0" onmousedown="handlePan(-1,0)"/>
</g>
<svg viewBox="0 0 15 15" width="100%" height="30px" preserveAspectRatio="xMaxYMin meet">
 <g id="arrow_out" transform="scale(0.3 0.3)">
  <a xlink:href="nvenc__base_8h__incl_org.svg" target="_base">
   <rect id="button" ry="5" rx="5" y="6" x="6" height="38" width="38"
        fill="#f2f5e9" fill-opacity="0.5" stroke="#606060" stroke-width="1.0"/>
   <path id="arrow"
     d="M 11.500037,31.436501 C 11.940474,20.09759 22.043105,11.32322 32.158766,21.979434 L 37.068811,17.246167 C 37.068811,17.246167 37.088388,32 37.088388,32 L 22.160133,31.978069 C 22.160133,31.978069 26.997745,27.140456 26.997745,27.140456 C 18.528582,18.264221 13.291696,25.230495 11.500037,31.436501 z"
     style="fill:#404040;"/>
  </a>
 </g>
</svg>

<style type='text/css'>
<![CDATA[
[data-mouse-over-selected='false'] { opacity: 0.7; }
[data-mouse-over-selected='true']  { opacity: 1.0; }
]]>
</style>
<script type="application/ecmascript"><![CDATA[
document.addEventListener('DOMContentLoaded', (event) => {
  highlightEdges();
  highlightAdjacentNodes();
});
]]></script>
</svg>
