<?xml version="1.0" encoding="UTF-8" standalone="no"?>
<!DOCTYPE svg PUBLIC "-//W3C//DTD SVG 1.1//EN"
 "http://www.w3.org/Graphics/SVG/1.1/DTD/svg11.dtd">
<!-- Generated by graphviz version 12.2.1 (0)
 -->
<!-- Title: src/nvenc/nvenc_colorspace.h Pages: 1 -->
<!--zoomable 276 -->

<svg id="main" version="1.1" xmlns="http://www.w3.org/2000/svg" xmlns:xlink="http://www.w3.org/1999/xlink" xml:space="preserve" onload="init(evt)">

<style type="text/css"><![CDATA[
.node, .edge {opacity: 0.7;}
.node.selected, .edge.selected {opacity: 1;}
.edge:hover path { stroke: red; }
.edge:hover polygon { stroke: red; fill: red; }
]]></style>

<defs>
  <circle id="rim" cx="0" cy="0" r="7"/>
  <circle id="rim2" cx="0" cy="0" r="3.5"/>
  <g id="zoomPlus">
    <use xlink:href="#rim" fill="#404040"><set attributeName="fill" to="#808080" begin="zoomplus.mouseover" end="zoomplus.mouseout"/></use>
    <path d="M-4,0h8M0,-4v8" fill="none" stroke="white" stroke-width="1.5" pointer-events="none"/>
  </g>
  <g id="zoomMin">
    <use xlink:href="#rim" fill="#404040"><set attributeName="fill" to="#808080" begin="zoomminus.mouseover" end="zoomminus.mouseout"/></use>
    <path d="M-4,0h8" fill="none" stroke="white" stroke-width="1.5" pointer-events="none"/>
  </g>
  <g id="arrowUp" transform="translate(30 24)">
    <use xlink:href="#rim"/>
    <path pointer-events="none" fill="none" stroke="white" stroke-width="1.5" d="M0,-3.0v7 M-2.5,-0.5L0,-3.0L2.5,-0.5"/>
  </g>
  <g id="arrowRight" transform="rotate(90) translate(36 -43)">
    <use xlink:href="#rim"/>
    <path pointer-events="none" fill="none" stroke="white" stroke-width="1.5" d="M0,-3.0v7 M-2.5,-0.5L0,-3.0L2.5,-0.5"/>
  </g>
  <g id="arrowDown" transform="rotate(180) translate(-30 -48)">
    <use xlink:href="#rim"/>
    <path pointer-events="none" fill="none" stroke="white" stroke-width="1.5" d="M0,-3.0v7 M-2.5,-0.5L0,-3.0L2.5,-0.5"/>
  </g>
  <g id="arrowLeft" transform="rotate(270) translate(-36 17)">
    <use xlink:href="#rim"/>
    <path pointer-events="none" fill="none" stroke="white" stroke-width="1.5" d="M0,-3.0v7 M-2.5,-0.5L0,-3.0L2.5,-0.5"/>
  </g>
  <g id="resetDef">
    <use xlink:href="#rim2" fill="#404040"><set attributeName="fill" to="#808080" begin="reset.mouseover" end="reset.mouseout"/></use>
  </g>
</defs>
<script type="application/ecmascript">
var viewWidth = 697;
var viewHeight = 276;
var sectionId = 'dynsection-1';
</script>
<script type="application/ecmascript" xlink:href="svg.min.js"/>
<svg id="graph" class="graph">
<g id="viewport">
<title>src/nvenc/nvenc_colorspace.h</title>
<!-- Node1 -->
<g id="Node000001" class="node">
<title>Node1</title>
<g id="a_Node000001"><a xlink:title="Declarations for NVENC YUV colorspace.">
<polygon fill="#999999" stroke="#666666" points="426.12,-268 277.38,-268 277.38,-248 426.12,-248 426.12,-268"/>
<text text-anchor="middle" x="351.75" y="-254.5" font-family="Helvetica,sans-Serif" font-size="10.00">src/nvenc/nvenc_colorspace.h</text>
</a>
</g>
</g>
<!-- Node2 -->
<g id="Node000002" class="node">
<title>Node2</title>
<g id="a_Node000002"><a xlink:href="nvenc__base_8h.html" target="_top" xlink:title="Declarations for abstract platform&#45;agnostic base of standalone NVENC encoder.">
<polygon fill="white" stroke="#666666" points="369,-212 246.5,-212 246.5,-192 369,-192 369,-212"/>
<text text-anchor="middle" x="307.75" y="-198.5" font-family="Helvetica,sans-Serif" font-size="10.00">src/nvenc/nvenc_base.h</text>
</a>
</g>
</g>
<!-- Node1&#45;&gt;Node2 -->
<g id="edge1_Node000001_Node000002" class="edge">
<title>Node1&#45;&gt;Node2</title>
<g id="a_edge1_Node000001_Node000002"><a xlink:title=" ">
<path fill="none" stroke="#63b8ff" d="M336.86,-238.72C329.62,-229.84 321.23,-219.55 315.33,-212.3"/>
<polygon fill="#63b8ff" stroke="#63b8ff" points="334.1,-240.88 343.13,-246.42 339.53,-236.46 334.1,-240.88"/>
</a>
</g>
</g>
<!-- Node12 -->
<g id="Node000012" class="node">
<title>Node12</title>
<g id="a_Node000012"><a xlink:href="nvenc__utils_8h.html" target="_top" xlink:title="Declarations for NVENC utilities.">
<polygon fill="white" stroke="#666666" points="548.5,-94 429,-94 429,-74 548.5,-74 548.5,-94"/>
<text text-anchor="middle" x="488.75" y="-80.5" font-family="Helvetica,sans-Serif" font-size="10.00">src/nvenc/nvenc_utils.h</text>
</a>
</g>
</g>
<!-- Node1&#45;&gt;Node12 -->
<g id="edge12_Node000001_Node000012" class="edge">
<title>Node1&#45;&gt;Node12</title>
<g id="a_edge12_Node000001_Node000012"><a xlink:title=" ">
<path fill="none" stroke="#63b8ff" d="M366.18,-238.88C395.17,-202.48 459.59,-121.61 481.38,-94.25"/>
<polygon fill="#63b8ff" stroke="#63b8ff" points="363.75,-236.32 360.25,-246.32 369.22,-240.68 363.75,-236.32"/>
</a>
</g>
</g>
<!-- Node3 -->
<g id="Node000003" class="node">
<title>Node3</title>
<g id="a_Node000003"><a xlink:href="nvenc__base_8cpp.html" target="_top" xlink:title="Definitions for abstract platform&#45;agnostic base of standalone NVENC encoder.">
<polygon fill="white" stroke="#666666" points="172.25,-156 39.25,-156 39.25,-136 172.25,-136 172.25,-156"/>
<text text-anchor="middle" x="105.75" y="-142.5" font-family="Helvetica,sans-Serif" font-size="10.00">src/nvenc/nvenc_base.cpp</text>
</a>
</g>
</g>
<!-- Node2&#45;&gt;Node3 -->
<g id="edge2_Node000002_Node000003" class="edge">
<title>Node2&#45;&gt;Node3</title>
<g id="a_edge2_Node000002_Node000003"><a xlink:title=" ">
<path fill="none" stroke="#63b8ff" d="M261.69,-188.69C225.1,-178.91 174.7,-165.43 141.21,-156.48"/>
<polygon fill="#63b8ff" stroke="#63b8ff" points="260.54,-192 271.1,-191.2 262.35,-185.24 260.54,-192"/>
</a>
</g>
</g>
<!-- Node4 -->
<g id="Node000004" class="node">
<title>Node4</title>
<g id="a_Node000004"><a xlink:href="nvenc__d3d11_8h.html" target="_top" xlink:title="Declarations for abstract Direct3D11 NVENC encoder.">
<polygon fill="white" stroke="#666666" points="317.25,-156 190.25,-156 190.25,-136 317.25,-136 317.25,-156"/>
<text text-anchor="middle" x="253.75" y="-142.5" font-family="Helvetica,sans-Serif" font-size="10.00">src/nvenc/nvenc_d3d11.h</text>
</a>
</g>
</g>
<!-- Node2&#45;&gt;Node4 -->
<g id="edge3_Node000002_Node000004" class="edge">
<title>Node2&#45;&gt;Node4</title>
<g id="a_edge3_Node000002_Node000004"><a xlink:title=" ">
<path fill="none" stroke="#63b8ff" d="M290.32,-183.57C281.25,-174.5 270.53,-163.78 263.05,-156.3"/>
<polygon fill="#63b8ff" stroke="#63b8ff" points="287.73,-185.93 297.27,-190.52 292.68,-180.98 287.73,-185.93"/>
</a>
</g>
</g>
<!-- Node11 -->
<g id="Node000011" class="node">
<title>Node11</title>
<g id="a_Node000011"><a xlink:href="video_8cpp.html" target="_top" xlink:title="Definitions for video.">
<polygon fill="white" stroke="#666666" points="410,-156 335.5,-156 335.5,-136 410,-136 410,-156"/>
<text text-anchor="middle" x="372.75" y="-142.5" font-family="Helvetica,sans-Serif" font-size="10.00">src/video.cpp</text>
</a>
</g>
</g>
<!-- Node2&#45;&gt;Node11 -->
<g id="edge11_Node000002_Node000011" class="edge">
<title>Node2&#45;&gt;Node11</title>
<g id="a_edge11_Node000002_Node000011"><a xlink:title=" ">
<path fill="none" stroke="#63b8ff" d="M327.73,-184.4C338.85,-175.17 352.28,-164.01 361.56,-156.3"/>
<polygon fill="#63b8ff" stroke="#63b8ff" points="325.69,-181.54 320.24,-190.63 330.16,-186.93 325.69,-181.54"/>
</a>
</g>
</g>
<!-- Node5 -->
<g id="Node000005" class="node">
<title>Node5</title>
<g id="a_Node000005"><a xlink:href="nvenc__d3d11_8cpp.html" target="_top" xlink:title="Definitions for abstract Direct3D11 NVENC encoder.">
<polygon fill="white" stroke="#666666" points="137.5,-94 0,-94 0,-74 137.5,-74 137.5,-94"/>
<text text-anchor="middle" x="68.75" y="-80.5" font-family="Helvetica,sans-Serif" font-size="10.00">src/nvenc/nvenc_d3d11.cpp</text>
</a>
</g>
</g>
<!-- Node4&#45;&gt;Node5 -->
<g id="edge4_Node000004_Node000005" class="edge">
<title>Node4&#45;&gt;Node5</title>
<g id="a_edge4_Node000004_Node000005"><a xlink:title=" ">
<path fill="none" stroke="#63b8ff" d="M214.07,-132.13C179.13,-120.8 129.07,-104.56 97.76,-94.41"/>
<polygon fill="#63b8ff" stroke="#63b8ff" points="212.81,-135.4 223.4,-135.16 214.97,-128.74 212.81,-135.4"/>
</a>
</g>
</g>
<!-- Node6 -->
<g id="Node000006" class="node">
<title>Node6</title>
<g id="a_Node000006"><a xlink:href="nvenc__d3d11__native_8h.html" target="_top" xlink:title="Declarations for native Direct3D11 NVENC encoder.">
<polygon fill="white" stroke="#666666" points="274.12,-100 155.38,-100 155.38,-68 274.12,-68 274.12,-100"/>
<text text-anchor="start" x="163.38" y="-86.5" font-family="Helvetica,sans-Serif" font-size="10.00">src/nvenc/nvenc_d3d11</text>
<text text-anchor="middle" x="214.75" y="-74.5" font-family="Helvetica,sans-Serif" font-size="10.00">_native.h</text>
</a>
</g>
</g>
<!-- Node4&#45;&gt;Node6 -->
<g id="edge5_Node000004_Node000006" class="edge">
<title>Node4&#45;&gt;Node6</title>
<g id="a_edge5_Node000004_Node000006"><a xlink:title=" ">
<path fill="none" stroke="#63b8ff" d="M241.4,-126C235.97,-117.65 229.69,-107.99 224.59,-100.14"/>
<polygon fill="#63b8ff" stroke="#63b8ff" points="238.45,-127.88 246.83,-134.36 244.32,-124.06 238.45,-127.88"/>
</a>
</g>
</g>
<!-- Node9 -->
<g id="Node000009" class="node">
<title>Node9</title>
<g id="a_Node000009"><a xlink:href="nvenc__d3d11__on__cuda_8h.html" target="_top" xlink:title="Declarations for CUDA NVENC encoder with Direct3D11 input surfaces.">
<polygon fill="white" stroke="#666666" points="411.12,-100 292.38,-100 292.38,-68 411.12,-68 411.12,-100"/>
<text text-anchor="start" x="300.38" y="-86.5" font-family="Helvetica,sans-Serif" font-size="10.00">src/nvenc/nvenc_d3d11</text>
<text text-anchor="middle" x="351.75" y="-74.5" font-family="Helvetica,sans-Serif" font-size="10.00">_on_cuda.h</text>
</a>
</g>
</g>
<!-- Node4&#45;&gt;Node9 -->
<g id="edge8_Node000004_Node000009" class="edge">
<title>Node4&#45;&gt;Node9</title>
<g id="a_edge8_Node000004_Node000009"><a xlink:title=" ">
<path fill="none" stroke="#63b8ff" d="M278.53,-129.83C293.25,-120.81 311.86,-109.42 326.64,-100.37"/>
<polygon fill="#63b8ff" stroke="#63b8ff" points="277.05,-126.63 270.35,-134.83 280.71,-132.6 277.05,-126.63"/>
</a>
</g>
</g>
<!-- Node7 -->
<g id="Node000007" class="node">
<title>Node7</title>
<g id="a_Node000007"><a xlink:href="nvenc__d3d11__native_8cpp.html" target="_top" xlink:title="Definitions for native Direct3D11 NVENC encoder.">
<polygon fill="white" stroke="#666666" points="276.12,-32 157.38,-32 157.38,0 276.12,0 276.12,-32"/>
<text text-anchor="start" x="165.38" y="-18.5" font-family="Helvetica,sans-Serif" font-size="10.00">src/nvenc/nvenc_d3d11</text>
<text text-anchor="middle" x="216.75" y="-6.5" font-family="Helvetica,sans-Serif" font-size="10.00">_native.cpp</text>
</a>
</g>
</g>
<!-- Node6&#45;&gt;Node7 -->
<g id="edge6_Node000006_Node000007" class="edge">
<title>Node6&#45;&gt;Node7</title>
<g id="a_edge6_Node000006_Node000007"><a xlink:title=" ">
<path fill="none" stroke="#63b8ff" d="M215.56,-56.31C215.81,-48.12 216.07,-39.38 216.29,-32.22"/>
<polygon fill="#63b8ff" stroke="#63b8ff" points="212.06,-56.08 215.26,-66.18 219.06,-56.29 212.06,-56.08"/>
</a>
</g>
</g>
<!-- Node8 -->
<g id="Node000008" class="node">
<title>Node8</title>
<g id="a_Node000008"><a xlink:href="display__vram_8cpp.html" target="_top" xlink:title="Definitions for handling video ram.">
<polygon fill="white" stroke="#666666" points="404.25,-32 295.25,-32 295.25,0 404.25,0 404.25,-32"/>
<text text-anchor="start" x="303.25" y="-18.5" font-family="Helvetica,sans-Serif" font-size="10.00">src/platform/windows</text>
<text text-anchor="middle" x="349.75" y="-6.5" font-family="Helvetica,sans-Serif" font-size="10.00">/display_vram.cpp</text>
</a>
</g>
</g>
<!-- Node6&#45;&gt;Node8 -->
<g id="edge7_Node000006_Node000008" class="edge">
<title>Node6&#45;&gt;Node8</title>
<g id="a_edge7_Node000006_Node000008"><a xlink:title=" ">
<path fill="none" stroke="#63b8ff" d="M256.74,-62.47C276.62,-52.75 299.97,-41.34 318.3,-32.38"/>
<polygon fill="#63b8ff" stroke="#63b8ff" points="255.21,-59.32 247.76,-66.86 258.28,-65.61 255.21,-59.32"/>
</a>
</g>
</g>
<!-- Node9&#45;&gt;Node8 -->
<g id="edge10_Node000009_Node000008" class="edge">
<title>Node9&#45;&gt;Node8</title>
<g id="a_edge10_Node000009_Node000008"><a xlink:title=" ">
<path fill="none" stroke="#63b8ff" d="M350.94,-56.31C350.69,-48.12 350.43,-39.38 350.21,-32.22"/>
<polygon fill="#63b8ff" stroke="#63b8ff" points="347.44,-56.29 351.24,-66.18 354.44,-56.08 347.44,-56.29"/>
</a>
</g>
</g>
<!-- Node10 -->
<g id="Node000010" class="node">
<title>Node10</title>
<g id="a_Node000010"><a xlink:href="nvenc__d3d11__on__cuda_8cpp.html" target="_top" xlink:title="Definitions for CUDA NVENC encoder with Direct3D11 input surfaces.">
<polygon fill="white" stroke="#666666" points="541.12,-32 422.38,-32 422.38,0 541.12,0 541.12,-32"/>
<text text-anchor="start" x="430.38" y="-18.5" font-family="Helvetica,sans-Serif" font-size="10.00">src/nvenc/nvenc_d3d11</text>
<text text-anchor="middle" x="481.75" y="-6.5" font-family="Helvetica,sans-Serif" font-size="10.00">_on_cuda.cpp</text>
</a>
</g>
</g>
<!-- Node9&#45;&gt;Node10 -->
<g id="edge9_Node000009_Node000010" class="edge">
<title>Node9&#45;&gt;Node10</title>
<g id="a_edge9_Node000009_Node000010"><a xlink:title=" ">
<path fill="none" stroke="#63b8ff" d="M392.45,-62.34C411.54,-52.65 433.89,-41.3 451.46,-32.38"/>
<polygon fill="#63b8ff" stroke="#63b8ff" points="390.91,-59.19 383.58,-66.84 394.08,-65.43 390.91,-59.19"/>
</a>
</g>
</g>
<!-- Node12&#45;&gt;Node7 -->
<g id="edge13_Node000012_Node000007" class="edge">
<title>Node12&#45;&gt;Node7</title>
<g id="a_edge13_Node000012_Node000007"><a xlink:title=" ">
<path fill="none" stroke="#63b8ff" d="M438.63,-70.84C392.83,-59.73 325.04,-43.28 276.45,-31.49"/>
<polygon fill="#63b8ff" stroke="#63b8ff" points="437.76,-74.23 448.31,-73.19 439.42,-67.43 437.76,-74.23"/>
</a>
</g>
</g>
<!-- Node12&#45;&gt;Node8 -->
<g id="edge16_Node000012_Node000008" class="edge">
<title>Node12&#45;&gt;Node8</title>
<g id="a_edge16_Node000012_Node000008"><a xlink:title=" ">
<path fill="none" stroke="#63b8ff" d="M458.51,-68.64C435.99,-57.95 405.28,-43.37 382.24,-32.43"/>
<polygon fill="#63b8ff" stroke="#63b8ff" points="456.93,-71.77 467.47,-72.89 459.94,-65.44 456.93,-71.77"/>
</a>
</g>
</g>
<!-- Node12&#45;&gt;Node10 -->
<g id="edge14_Node000012_Node000010" class="edge">
<title>Node12&#45;&gt;Node10</title>
<g id="a_edge14_Node000012_Node000010"><a xlink:title=" ">
<path fill="none" stroke="#63b8ff" d="M486.53,-62.1C485.51,-52.43 484.31,-41.16 483.37,-32.3"/>
<polygon fill="#63b8ff" stroke="#63b8ff" points="483.05,-62.46 487.59,-72.04 490.01,-61.73 483.05,-62.46"/>
</a>
</g>
</g>
<!-- Node13 -->
<g id="Node000013" class="node">
<title>Node13</title>
<g id="a_Node000013"><a xlink:href="nvenc__utils_8cpp.html" target="_top" xlink:title="Definitions for NVENC utilities.">
<polygon fill="white" stroke="#666666" points="688.75,-26 558.75,-26 558.75,-6 688.75,-6 688.75,-26"/>
<text text-anchor="middle" x="623.75" y="-12.5" font-family="Helvetica,sans-Serif" font-size="10.00">src/nvenc/nvenc_utils.cpp</text>
</a>
</g>
</g>
<!-- Node12&#45;&gt;Node13 -->
<g id="edge15_Node000012_Node000013" class="edge">
<title>Node12&#45;&gt;Node13</title>
<g id="a_edge15_Node000012_Node000013"><a xlink:title=" ">
<path fill="none" stroke="#63b8ff" d="M518.2,-68.6C544.38,-55.8 581.9,-37.46 604.44,-26.44"/>
<polygon fill="#63b8ff" stroke="#63b8ff" points="516.9,-65.34 509.45,-72.88 519.97,-71.63 516.9,-65.34"/>
</a>
</g>
</g>
</g>
</svg>

<g id="navigator" transform="translate(0 0)" fill="#404254">
  <rect fill="#f2f5e9" fill-opacity="0.5" stroke="#606060" stroke-width=".5" x="0" y="0" width="60" height="60"/>
  <use id="zoomplus" xlink:href="#zoomPlus" x="17" y="9" onmousedown="handleZoom(evt,'in')"/>
  <use id="zoomminus" xlink:href="#zoomMin" x="42" y="9" onmousedown="handleZoom(evt,'out')"/>
  <use id="reset" xlink:href="#resetDef" x="30" y="36" onmousedown="handleReset()"/>
   <use id="arrowup" xlink:href="#arrowUp" x="0" y="0" onmousedown="handlePan(0,-1)"/>
  <use id="arrowright" xlink:href="#arrowRight" x="0" y="0" onmousedown="handlePan(1,0)"/>
  <use id="arrowdown" xlink:href="#arrowDown" x="0" y="0" onmousedown="handlePan(0,1)"/>
  <use id="arrowleft" xlink:href="#arrowLeft" x="0" y="0" onmousedown="handlePan(-1,0)"/>
</g>
<svg viewBox="0 0 15 15" width="100%" height="30px" preserveAspectRatio="xMaxYMin meet">
 <g id="arrow_out" transform="scale(0.3 0.3)">
  <a xlink:href="nvenc__colorspace_8h__dep__incl_org.svg" target="_base">
   <rect id="button" ry="5" rx="5" y="6" x="6" height="38" width="38"
        fill="#f2f5e9" fill-opacity="0.5" stroke="#606060" stroke-width="1.0"/>
   <path id="arrow"
     d="M 11.500037,31.436501 C 11.940474,20.09759 22.043105,11.32322 32.158766,21.979434 L 37.068811,17.246167 C 37.068811,17.246167 37.088388,32 37.088388,32 L 22.160133,31.978069 C 22.160133,31.978069 26.997745,27.140456 26.997745,27.140456 C 18.528582,18.264221 13.291696,25.230495 11.500037,31.436501 z"
     style="fill:#404040;"/>
  </a>
 </g>
</svg>

<style type='text/css'>
<![CDATA[
[data-mouse-over-selected='false'] { opacity: 0.7; }
[data-mouse-over-selected='true']  { opacity: 1.0; }
]]>
</style>
<script type="application/ecmascript"><![CDATA[
document.addEventListener('DOMContentLoaded', (event) => {
  highlightEdges();
  highlightAdjacentNodes();
});
]]></script>
</svg>
