<?xml version="1.0" encoding="UTF-8" standalone="no"?>
<!DOCTYPE svg PUBLIC "-//W3C//DTD SVG 1.1//EN"
 "http://www.w3.org/Graphics/SVG/1.1/DTD/svg11.dtd">
<!-- Generated by graphviz version 12.2.1 (0)
 -->
<!-- Title: src/nvenc/nvenc_utils.cpp Pages: 1 -->
<svg width="1447pt" height="320pt"
 viewBox="0.00 0.00 1446.88 320.00" xmlns="http://www.w3.org/2000/svg" xmlns:xlink="http://www.w3.org/1999/xlink">
<g id="graph0" class="graph" transform="scale(1 1) rotate(0) translate(4 316)">
<title>src/nvenc/nvenc_utils.cpp</title>
<!-- Node1 -->
<g id="Node000001" class="node">
<title>Node1</title>
<g id="a_Node000001"><a xlink:title="Definitions for NVENC utilities.">
<polygon fill="#999999" stroke="#666666" points="366.62,-312 236.62,-312 236.62,-292 366.62,-292 366.62,-312"/>
<text text-anchor="middle" x="301.62" y="-298.5" font-family="Helvetica,sans-Serif" font-size="10.00">src/nvenc/nvenc_utils.cpp</text>
</a>
</g>
</g>
<!-- Node2 -->
<g id="Node000002" class="node">
<title>Node2</title>
<g id="a_Node000002"><a xlink:title=" ">
<polygon fill="#e0e0e0" stroke="#999999" points="286.75,-256 238.5,-256 238.5,-236 286.75,-236 286.75,-256"/>
<text text-anchor="middle" x="262.62" y="-242.5" font-family="Helvetica,sans-Serif" font-size="10.00">cassert</text>
</a>
</g>
</g>
<!-- Node1&#45;&gt;Node2 -->
<g id="edge1_Node000001_Node000002" class="edge">
<title>Node1&#45;&gt;Node2</title>
<g id="a_edge1_Node000001_Node000002"><a xlink:title=" ">
<path fill="none" stroke="#63b8ff" d="M294.83,-291.59C289.63,-284.39 282.29,-274.23 275.94,-265.43"/>
<polygon fill="#63b8ff" stroke="#63b8ff" points="278.92,-263.58 270.23,-257.53 273.24,-267.68 278.92,-263.58"/>
</a>
</g>
</g>
<!-- Node3 -->
<g id="Node000003" class="node">
<title>Node3</title>
<g id="a_Node000003"><a xlink:href="nvenc__utils_8h.html" target="_top" xlink:title="Declarations for NVENC utilities.">
<polygon fill="white" stroke="#666666" points="378.5,-256 304.75,-256 304.75,-236 378.5,-236 378.5,-256"/>
<text text-anchor="middle" x="341.62" y="-242.5" font-family="Helvetica,sans-Serif" font-size="10.00">nvenc_utils.h</text>
</a>
</g>
</g>
<!-- Node1&#45;&gt;Node3 -->
<g id="edge2_Node000001_Node000003" class="edge">
<title>Node1&#45;&gt;Node3</title>
<g id="a_edge2_Node000001_Node000003"><a xlink:title=" ">
<path fill="none" stroke="#63b8ff" d="M308.59,-291.59C313.93,-284.39 321.45,-274.23 327.97,-265.43"/>
<polygon fill="#63b8ff" stroke="#63b8ff" points="330.7,-267.63 333.84,-257.51 325.07,-263.47 330.7,-267.63"/>
</a>
</g>
</g>
<!-- Node4 -->
<g id="Node000004" class="node">
<title>Node4</title>
<g id="a_Node000004"><a xlink:title=" ">
<polygon fill="#e0e0e0" stroke="#999999" points="233.62,-200 163.62,-200 163.62,-180 233.62,-180 233.62,-200"/>
<text text-anchor="middle" x="198.62" y="-186.5" font-family="Helvetica,sans-Serif" font-size="10.00">dxgiformat.h</text>
</a>
</g>
</g>
<!-- Node3&#45;&gt;Node4 -->
<g id="edge3_Node000003_Node000004" class="edge">
<title>Node3&#45;&gt;Node4</title>
<g id="a_edge3_Node000003_Node000004"><a xlink:title=" ">
<path fill="none" stroke="#63b8ff" d="M316.72,-235.59C293.89,-226.97 259.84,-214.12 234.16,-204.42"/>
<polygon fill="#63b8ff" stroke="#63b8ff" points="235.74,-201.27 225.14,-201.01 233.26,-207.82 235.74,-201.27"/>
</a>
</g>
</g>
<!-- Node5 -->
<g id="Node000005" class="node">
<title>Node5</title>
<g id="a_Node000005"><a xlink:title=" ">
<polygon fill="#e0e0e0" stroke="#999999" points="129.25,-138 0,-138 0,-118 129.25,-118 129.25,-138"/>
<text text-anchor="middle" x="64.62" y="-124.5" font-family="Helvetica,sans-Serif" font-size="10.00">ffnvcodec/nvEncodeAPI.h</text>
</a>
</g>
</g>
<!-- Node3&#45;&gt;Node5 -->
<g id="edge4_Node000003_Node000005" class="edge">
<title>Node3&#45;&gt;Node5</title>
<g id="a_edge4_Node000003_Node000005"><a xlink:title=" ">
<path fill="none" stroke="#63b8ff" d="M329.82,-235.53C311.94,-221.58 276.45,-195.51 242.62,-180 204.39,-162.47 158.75,-149.53 123.25,-141.08"/>
<polygon fill="#63b8ff" stroke="#63b8ff" points="124.11,-137.68 113.58,-138.83 122.53,-144.5 124.11,-137.68"/>
</a>
</g>
</g>
<!-- Node6 -->
<g id="Node000006" class="node">
<title>Node6</title>
<g id="a_Node000006"><a xlink:href="nvenc__colorspace_8h.html" target="_top" xlink:title="Declarations for NVENC YUV colorspace.">
<polygon fill="white" stroke="#666666" points="393.12,-200 290.12,-200 290.12,-180 393.12,-180 393.12,-200"/>
<text text-anchor="middle" x="341.62" y="-186.5" font-family="Helvetica,sans-Serif" font-size="10.00">nvenc_colorspace.h</text>
</a>
</g>
</g>
<!-- Node3&#45;&gt;Node6 -->
<g id="edge5_Node000003_Node000006" class="edge">
<title>Node3&#45;&gt;Node6</title>
<g id="a_edge5_Node000003_Node000006"><a xlink:title=" ">
<path fill="none" stroke="#63b8ff" d="M341.62,-235.59C341.62,-229.01 341.62,-219.96 341.62,-211.73"/>
<polygon fill="#63b8ff" stroke="#63b8ff" points="345.13,-211.81 341.63,-201.81 338.13,-211.81 345.13,-211.81"/>
</a>
</g>
</g>
<!-- Node7 -->
<g id="Node000007" class="node">
<title>Node7</title>
<g id="a_Node000007"><a xlink:href="common_8h.html" target="_top" xlink:title="Declarations for common platform specific utilities.">
<polygon fill="white" stroke="#666666" points="723.88,-200 607.38,-200 607.38,-180 723.88,-180 723.88,-200"/>
<text text-anchor="middle" x="665.62" y="-186.5" font-family="Helvetica,sans-Serif" font-size="10.00">src/platform/common.h</text>
</a>
</g>
</g>
<!-- Node3&#45;&gt;Node7 -->
<g id="edge7_Node000003_Node000007" class="edge">
<title>Node3&#45;&gt;Node7</title>
<g id="a_edge7_Node000003_Node000007"><a xlink:title=" ">
<path fill="none" stroke="#63b8ff" d="M378.79,-238.81C432.06,-229.93 531.01,-213.44 597.6,-202.34"/>
<polygon fill="#63b8ff" stroke="#63b8ff" points="598.03,-205.81 607.32,-200.72 596.88,-198.91 598.03,-205.81"/>
</a>
</g>
</g>
<!-- Node38 -->
<g id="Node000038" class="node">
<title>Node38</title>
<g id="a_Node000038"><a xlink:href="video__colorspace_8h.html" target="_top" xlink:title="Declarations for colorspace functions.">
<polygon fill="white" stroke="#666666" points="1438.88,-138 1322.38,-138 1322.38,-118 1438.88,-118 1438.88,-138"/>
<text text-anchor="middle" x="1380.62" y="-124.5" font-family="Helvetica,sans-Serif" font-size="10.00">src/video_colorspace.h</text>
</a>
</g>
</g>
<!-- Node3&#45;&gt;Node38 -->
<g id="edge55_Node000003_Node000038" class="edge">
<title>Node3&#45;&gt;Node38</title>
<g id="a_edge55_Node000003_Node000038"><a xlink:title=" ">
<path fill="none" stroke="#63b8ff" d="M378.69,-242.49C507.63,-233.46 948.38,-200.19 1308.62,-144 1314.93,-143.02 1321.52,-141.85 1328.03,-140.6"/>
<polygon fill="#63b8ff" stroke="#63b8ff" points="1328.27,-144.12 1337.39,-138.74 1326.9,-137.25 1328.27,-144.12"/>
</a>
</g>
</g>
<!-- Node6&#45;&gt;Node5 -->
<g id="edge6_Node000006_Node000005" class="edge">
<title>Node6&#45;&gt;Node5</title>
<g id="a_edge6_Node000006_Node000005"><a xlink:title=" ">
<path fill="none" stroke="#63b8ff" d="M298.04,-179.56C249.78,-169.11 171.89,-152.24 119.51,-140.89"/>
<polygon fill="#63b8ff" stroke="#63b8ff" points="120.41,-137.5 109.89,-138.81 118.93,-144.34 120.41,-137.5"/>
</a>
</g>
</g>
<!-- Node8 -->
<g id="Node000008" class="node">
<title>Node8</title>
<g id="a_Node000008"><a xlink:title=" ">
<polygon fill="#e0e0e0" stroke="#999999" points="1276.62,-20 1236.62,-20 1236.62,0 1276.62,0 1276.62,-20"/>
<text text-anchor="middle" x="1256.62" y="-6.5" font-family="Helvetica,sans-Serif" font-size="10.00">bitset</text>
</a>
</g>
</g>
<!-- Node7&#45;&gt;Node8 -->
<g id="edge8_Node000007_Node000008" class="edge">
<title>Node7&#45;&gt;Node8</title>
<g id="a_edge8_Node000007_Node000008"><a xlink:title=" ">
<path fill="none" stroke="#63b8ff" d="M724.22,-185.19C854.76,-175.52 1163.82,-145.65 1237.62,-76 1249.66,-64.64 1254.21,-46.12 1255.86,-31.75"/>
<polygon fill="#63b8ff" stroke="#63b8ff" points="1259.33,-32.21 1256.57,-21.98 1252.35,-31.7 1259.33,-32.21"/>
</a>
</g>
</g>
<!-- Node9 -->
<g id="Node000009" class="node">
<title>Node9</title>
<g id="a_Node000009"><a xlink:title=" ">
<polygon fill="#e0e0e0" stroke="#999999" points="208.12,-138 147.12,-138 147.12,-118 208.12,-118 208.12,-138"/>
<text text-anchor="middle" x="177.62" y="-124.5" font-family="Helvetica,sans-Serif" font-size="10.00">filesystem</text>
</a>
</g>
</g>
<!-- Node7&#45;&gt;Node9 -->
<g id="edge9_Node000007_Node000009" class="edge">
<title>Node7&#45;&gt;Node9</title>
<g id="a_edge9_Node000007_Node000009"><a xlink:title=" ">
<path fill="none" stroke="#63b8ff" d="M607.2,-187.93C520.92,-185.27 354.83,-176.05 217.62,-144 215.31,-143.46 212.95,-142.82 210.59,-142.11"/>
<polygon fill="#63b8ff" stroke="#63b8ff" points="211.76,-138.82 201.17,-138.94 209.53,-145.45 211.76,-138.82"/>
</a>
</g>
</g>
<!-- Node10 -->
<g id="Node000010" class="node">
<title>Node10</title>
<g id="a_Node000010"><a xlink:title=" ">
<polygon fill="#e0e0e0" stroke="#999999" points="1410.62,-20 1352.62,-20 1352.62,0 1410.62,0 1410.62,-20"/>
<text text-anchor="middle" x="1381.62" y="-6.5" font-family="Helvetica,sans-Serif" font-size="10.00">functional</text>
</a>
</g>
</g>
<!-- Node7&#45;&gt;Node10 -->
<g id="edge10_Node000007_Node000010" class="edge">
<title>Node7&#45;&gt;Node10</title>
<g id="a_edge10_Node000007_Node000010"><a xlink:title=" ">
<path fill="none" stroke="#63b8ff" d="M724.04,-186.13C831.05,-180.41 1054.34,-166.2 1128.62,-144 1219.77,-116.76 1316.27,-55.74 1359.01,-26.8"/>
<polygon fill="#63b8ff" stroke="#63b8ff" points="1360.93,-29.73 1367.2,-21.19 1356.97,-23.96 1360.93,-29.73"/>
</a>
</g>
</g>
<!-- Node11 -->
<g id="Node000011" class="node">
<title>Node11</title>
<g id="a_Node000011"><a xlink:title=" ">
<polygon fill="#e0e0e0" stroke="#999999" points="193.12,-20 150.12,-20 150.12,0 193.12,0 193.12,-20"/>
<text text-anchor="middle" x="171.62" y="-6.5" font-family="Helvetica,sans-Serif" font-size="10.00">mutex</text>
</a>
</g>
</g>
<!-- Node7&#45;&gt;Node11 -->
<g id="edge11_Node000007_Node000011" class="edge">
<title>Node7&#45;&gt;Node11</title>
<g id="a_edge11_Node000007_Node000011"><a xlink:title=" ">
<path fill="none" stroke="#63b8ff" d="M660.37,-179.72C645.06,-153.82 597.59,-80.98 534.62,-56 399.64,-2.44 349.97,-47.21 204.56,-20.22"/>
<polygon fill="#63b8ff" stroke="#63b8ff" points="205.43,-16.82 194.95,-18.35 204.09,-23.7 205.43,-16.82"/>
</a>
</g>
</g>
<!-- Node12 -->
<g id="Node000012" class="node">
<title>Node12</title>
<g id="a_Node000012"><a xlink:title=" ">
<polygon fill="#e0e0e0" stroke="#999999" points="817.62,-20 777.62,-20 777.62,0 817.62,0 817.62,-20"/>
<text text-anchor="middle" x="797.62" y="-6.5" font-family="Helvetica,sans-Serif" font-size="10.00">string</text>
</a>
</g>
</g>
<!-- Node7&#45;&gt;Node12 -->
<g id="edge12_Node000007_Node000012" class="edge">
<title>Node7&#45;&gt;Node12</title>
<g id="a_edge12_Node000007_Node000012"><a xlink:title=" ">
<path fill="none" stroke="#63b8ff" d="M672.48,-179.62C688.4,-157.84 729.15,-102.21 763.62,-56 770.2,-47.18 777.55,-37.44 783.73,-29.28"/>
<polygon fill="#63b8ff" stroke="#63b8ff" points="786.39,-31.57 789.64,-21.49 780.81,-27.34 786.39,-31.57"/>
</a>
</g>
</g>
<!-- Node13 -->
<g id="Node000013" class="node">
<title>Node13</title>
<g id="a_Node000013"><a xlink:title=" ">
<polygon fill="#e0e0e0" stroke="#999999" points="364.75,-138 226.5,-138 226.5,-118 364.75,-118 364.75,-138"/>
<text text-anchor="middle" x="295.62" y="-124.5" font-family="Helvetica,sans-Serif" font-size="10.00">boost/core/noncopyable.hpp</text>
</a>
</g>
</g>
<!-- Node7&#45;&gt;Node13 -->
<g id="edge13_Node000007_Node000013" class="edge">
<title>Node7&#45;&gt;Node13</title>
<g id="a_edge13_Node000007_Node000013"><a xlink:title=" ">
<path fill="none" stroke="#63b8ff" d="M607,-180.54C548.17,-171.9 454.98,-157.84 374.62,-144 368.28,-142.91 361.66,-141.72 355.06,-140.51"/>
<polygon fill="#63b8ff" stroke="#63b8ff" points="356,-137.13 345.53,-138.74 354.72,-144.01 356,-137.13"/>
</a>
</g>
</g>
<!-- Node14 -->
<g id="Node000014" class="node">
<title>Node14</title>
<g id="a_Node000014"><a xlink:href="config_8h.html" target="_top" xlink:title="Declarations for the configuration of Sunshine.">
<polygon fill="white" stroke="#666666" points="839.12,-76 772.12,-76 772.12,-56 839.12,-56 839.12,-76"/>
<text text-anchor="middle" x="805.62" y="-62.5" font-family="Helvetica,sans-Serif" font-size="10.00">src/config.h</text>
</a>
</g>
</g>
<!-- Node7&#45;&gt;Node14 -->
<g id="edge14_Node000007_Node000014" class="edge">
<title>Node7&#45;&gt;Node14</title>
<g id="a_edge14_Node000007_Node000014"><a xlink:title=" ">
<path fill="none" stroke="#63b8ff" d="M685.27,-179.51C701.12,-171.33 723.51,-158.56 740.62,-144 761.15,-126.54 780.5,-102.21 792.67,-85.61"/>
<polygon fill="#63b8ff" stroke="#63b8ff" points="795.41,-87.79 798.38,-77.62 789.72,-83.72 795.41,-87.79"/>
</a>
</g>
</g>
<!-- Node20 -->
<g id="Node000020" class="node">
<title>Node20</title>
<g id="a_Node000020"><a xlink:href="logging_8h.html" target="_top" xlink:title="Declarations for logging related functions.">
<polygon fill="white" stroke="#666666" points="933.38,-138 861.88,-138 861.88,-118 933.38,-118 933.38,-138"/>
<text text-anchor="middle" x="897.62" y="-124.5" font-family="Helvetica,sans-Serif" font-size="10.00">src/logging.h</text>
</a>
</g>
</g>
<!-- Node7&#45;&gt;Node20 -->
<g id="edge22_Node000007_Node000020" class="edge">
<title>Node7&#45;&gt;Node20</title>
<g id="a_edge22_Node000007_Node000020"><a xlink:title=" ">
<path fill="none" stroke="#63b8ff" d="M702.13,-179.56C742.28,-169.18 806.9,-152.46 850.76,-141.12"/>
<polygon fill="#63b8ff" stroke="#63b8ff" points="851.44,-144.56 860.25,-138.67 849.69,-137.78 851.44,-144.56"/>
</a>
</g>
</g>
<!-- Node26 -->
<g id="Node000026" class="node">
<title>Node26</title>
<g id="a_Node000026"><a xlink:href="thread__safe_8h.html" target="_top" xlink:title="Declarations for thread&#45;safe data structures.">
<polygon fill="white" stroke="#666666" points="599.5,-138 507.75,-138 507.75,-118 599.5,-118 599.5,-138"/>
<text text-anchor="middle" x="553.62" y="-124.5" font-family="Helvetica,sans-Serif" font-size="10.00">src/thread_safe.h</text>
</a>
</g>
</g>
<!-- Node7&#45;&gt;Node26 -->
<g id="edge31_Node000007_Node000026" class="edge">
<title>Node7&#45;&gt;Node26</title>
<g id="a_edge31_Node000007_Node000026"><a xlink:title=" ">
<path fill="none" stroke="#63b8ff" d="M648.12,-179.62C630.13,-169.98 601.84,-154.83 580.9,-143.61"/>
<polygon fill="#63b8ff" stroke="#63b8ff" points="582.8,-140.66 572.34,-139.02 579.5,-146.83 582.8,-140.66"/>
</a>
</g>
</g>
<!-- Node31 -->
<g id="Node000031" class="node">
<title>Node31</title>
<g id="a_Node000031"><a xlink:href="utility_8h.html" target="_top" xlink:title="Declarations for utility functions.">
<polygon fill="white" stroke="#666666" points="643,-76 596.25,-76 596.25,-56 643,-56 643,-76"/>
<text text-anchor="middle" x="619.62" y="-62.5" font-family="Helvetica,sans-Serif" font-size="10.00">utility.h</text>
</a>
</g>
</g>
<!-- Node7&#45;&gt;Node31 -->
<g id="edge51_Node000007_Node000031" class="edge">
<title>Node7&#45;&gt;Node31</title>
<g id="a_edge51_Node000007_Node000031"><a xlink:title=" ">
<path fill="none" stroke="#63b8ff" d="M663.26,-179.84C659.38,-165.25 651.14,-135.94 641.62,-112 638.26,-103.53 633.96,-94.45 630.06,-86.68"/>
<polygon fill="#63b8ff" stroke="#63b8ff" points="633.17,-85.09 625.47,-77.81 626.95,-88.3 633.17,-85.09"/>
</a>
</g>
</g>
<!-- Node7&#45;&gt;Node38 -->
<g id="edge52_Node000007_Node000038" class="edge">
<title>Node7&#45;&gt;Node38</title>
<g id="a_edge52_Node000007_Node000038"><a xlink:title=" ">
<path fill="none" stroke="#63b8ff" d="M723.97,-187.56C837.2,-184.19 1094.41,-173.67 1308.62,-144 1315.19,-143.09 1322.05,-141.93 1328.82,-140.67"/>
<polygon fill="#63b8ff" stroke="#63b8ff" points="1329.43,-144.11 1338.56,-138.75 1328.08,-137.25 1329.43,-144.11"/>
</a>
</g>
</g>
<!-- Node40 -->
<g id="Node000040" class="node">
<title>Node40</title>
<g id="a_Node000040"><a xlink:title=" ">
<polygon fill="#e0e0e0" stroke="#999999" points="490,-144 383.25,-144 383.25,-112 490,-112 490,-144"/>
<text text-anchor="start" x="391.25" y="-130.5" font-family="Helvetica,sans-Serif" font-size="10.00">moonlight&#45;common&#45;c</text>
<text text-anchor="middle" x="436.62" y="-118.5" font-family="Helvetica,sans-Serif" font-size="10.00">/src/Limelight.h</text>
</a>
</g>
</g>
<!-- Node7&#45;&gt;Node40 -->
<g id="edge54_Node000007_Node000040" class="edge">
<title>Node7&#45;&gt;Node40</title>
<g id="a_edge54_Node000007_Node000040"><a xlink:title=" ">
<path fill="none" stroke="#63b8ff" d="M629.59,-179.56C595.32,-170.58 542.99,-156.87 501.47,-145.99"/>
<polygon fill="#63b8ff" stroke="#63b8ff" points="502.36,-142.61 491.8,-143.46 500.59,-149.38 502.36,-142.61"/>
</a>
</g>
</g>
<!-- Node14&#45;&gt;Node8 -->
<g id="edge15_Node000014_Node000008" class="edge">
<title>Node14&#45;&gt;Node8</title>
<g id="a_edge15_Node000014_Node000008"><a xlink:title=" ">
<path fill="none" stroke="#63b8ff" d="M839.49,-57.39C842.23,-56.88 844.97,-56.41 847.62,-56 1011.69,-30.74 1059.25,-52.35 1225.07,-20.12"/>
<polygon fill="#63b8ff" stroke="#63b8ff" points="1225.55,-23.6 1234.68,-18.22 1224.19,-16.73 1225.55,-23.6"/>
</a>
</g>
</g>
<!-- Node14&#45;&gt;Node12 -->
<g id="edge18_Node000014_Node000012" class="edge">
<title>Node14&#45;&gt;Node12</title>
<g id="a_edge18_Node000014_Node000012"><a xlink:title=" ">
<path fill="none" stroke="#63b8ff" d="M804.23,-55.59C803.24,-48.93 801.88,-39.75 800.65,-31.44"/>
<polygon fill="#63b8ff" stroke="#63b8ff" points="804.15,-31.17 799.22,-21.8 797.23,-32.2 804.15,-31.17"/>
</a>
</g>
</g>
<!-- Node15 -->
<g id="Node000015" class="node">
<title>Node15</title>
<g id="a_Node000015"><a xlink:title=" ">
<polygon fill="#e0e0e0" stroke="#999999" points="1111.25,-20 1066,-20 1066,0 1111.25,0 1111.25,-20"/>
<text text-anchor="middle" x="1088.62" y="-6.5" font-family="Helvetica,sans-Serif" font-size="10.00">chrono</text>
</a>
</g>
</g>
<!-- Node14&#45;&gt;Node15 -->
<g id="edge16_Node000014_Node000015" class="edge">
<title>Node14&#45;&gt;Node15</title>
<g id="a_edge16_Node000014_Node000015"><a xlink:title=" ">
<path fill="none" stroke="#63b8ff" d="M839.53,-57.61C842.26,-57.05 844.99,-56.51 847.62,-56 936.65,-38.8 962.72,-40.61 1054.42,-20.3"/>
<polygon fill="#63b8ff" stroke="#63b8ff" points="1055.16,-23.72 1064.15,-18.11 1053.62,-16.89 1055.16,-23.72"/>
</a>
</g>
</g>
<!-- Node16 -->
<g id="Node000016" class="node">
<title>Node16</title>
<g id="a_Node000016"><a xlink:title=" ">
<polygon fill="#e0e0e0" stroke="#999999" points="759.5,-20 709.75,-20 709.75,0 759.5,0 759.5,-20"/>
<text text-anchor="middle" x="734.62" y="-6.5" font-family="Helvetica,sans-Serif" font-size="10.00">optional</text>
</a>
</g>
</g>
<!-- Node14&#45;&gt;Node16 -->
<g id="edge17_Node000014_Node000016" class="edge">
<title>Node14&#45;&gt;Node16</title>
<g id="a_edge17_Node000014_Node000016"><a xlink:title=" ">
<path fill="none" stroke="#63b8ff" d="M793.26,-55.59C782.98,-47.77 768.11,-36.46 755.91,-27.19"/>
<polygon fill="#63b8ff" stroke="#63b8ff" points="758.13,-24.48 748.06,-21.21 753.9,-30.05 758.13,-24.48"/>
</a>
</g>
</g>
<!-- Node17 -->
<g id="Node000017" class="node">
<title>Node17</title>
<g id="a_Node000017"><a xlink:title=" ">
<polygon fill="#e0e0e0" stroke="#999999" points="1048,-20 965.25,-20 965.25,0 1048,0 1048,-20"/>
<text text-anchor="middle" x="1006.62" y="-6.5" font-family="Helvetica,sans-Serif" font-size="10.00">unordered_map</text>
</a>
</g>
</g>
<!-- Node14&#45;&gt;Node17 -->
<g id="edge19_Node000014_Node000017" class="edge">
<title>Node14&#45;&gt;Node17</title>
<g id="a_edge19_Node000014_Node000017"><a xlink:title=" ">
<path fill="none" stroke="#63b8ff" d="M839.27,-55.96C872.49,-47.04 923.54,-33.32 960.53,-23.38"/>
<polygon fill="#63b8ff" stroke="#63b8ff" points="961.31,-26.8 970.06,-20.82 959.49,-20.04 961.31,-26.8"/>
</a>
</g>
</g>
<!-- Node18 -->
<g id="Node000018" class="node">
<title>Node18</title>
<g id="a_Node000018"><a xlink:title=" ">
<polygon fill="#e0e0e0" stroke="#999999" points="692.12,-20 649.12,-20 649.12,0 692.12,0 692.12,-20"/>
<text text-anchor="middle" x="670.62" y="-6.5" font-family="Helvetica,sans-Serif" font-size="10.00">vector</text>
</a>
</g>
</g>
<!-- Node14&#45;&gt;Node18 -->
<g id="edge20_Node000014_Node000018" class="edge">
<title>Node14&#45;&gt;Node18</title>
<g id="a_edge20_Node000014_Node000018"><a xlink:title=" ">
<path fill="none" stroke="#63b8ff" d="M782.11,-55.59C760.23,-46.84 727.43,-33.72 703.06,-23.97"/>
<polygon fill="#63b8ff" stroke="#63b8ff" points="704.52,-20.79 693.94,-20.32 701.92,-27.29 704.52,-20.79"/>
</a>
</g>
</g>
<!-- Node19 -->
<g id="Node000019" class="node">
<title>Node19</title>
<g id="a_Node000019"><a xlink:href="nvenc__config_8h.html" target="_top" xlink:title="Declarations for NVENC encoder configuration.">
<polygon fill="white" stroke="#666666" points="947.25,-20 836,-20 836,0 947.25,0 947.25,-20"/>
<text text-anchor="middle" x="891.62" y="-6.5" font-family="Helvetica,sans-Serif" font-size="10.00">nvenc/nvenc_config.h</text>
</a>
</g>
</g>
<!-- Node14&#45;&gt;Node19 -->
<g id="edge21_Node000014_Node000019" class="edge">
<title>Node14&#45;&gt;Node19</title>
<g id="a_edge21_Node000014_Node000019"><a xlink:title=" ">
<path fill="none" stroke="#63b8ff" d="M820.61,-55.59C833.35,-47.59 851.92,-35.93 866.87,-26.54"/>
<polygon fill="#63b8ff" stroke="#63b8ff" points="868.64,-29.57 875.25,-21.28 864.92,-23.64 868.64,-29.57"/>
</a>
</g>
</g>
<!-- Node20&#45;&gt;Node14 -->
<g id="edge25_Node000020_Node000014" class="edge">
<title>Node20&#45;&gt;Node14</title>
<g id="a_edge25_Node000020_Node000014"><a xlink:title=" ">
<path fill="none" stroke="#63b8ff" d="M883.25,-117.62C868.8,-108.2 846.29,-93.52 829.22,-82.39"/>
<polygon fill="#63b8ff" stroke="#63b8ff" points="831.45,-79.67 821.17,-77.14 827.63,-85.53 831.45,-79.67"/>
</a>
</g>
</g>
<!-- Node21 -->
<g id="Node000021" class="node">
<title>Node21</title>
<g id="a_Node000021"><a xlink:title=" ">
<polygon fill="#e0e0e0" stroke="#999999" points="1228.12,-76 1113.12,-76 1113.12,-56 1228.12,-56 1228.12,-76"/>
<text text-anchor="middle" x="1170.62" y="-62.5" font-family="Helvetica,sans-Serif" font-size="10.00">boost/log/common.hpp</text>
</a>
</g>
</g>
<!-- Node20&#45;&gt;Node21 -->
<g id="edge23_Node000020_Node000021" class="edge">
<title>Node20&#45;&gt;Node21</title>
<g id="a_edge23_Node000020_Node000021"><a xlink:title=" ">
<path fill="none" stroke="#63b8ff" d="M933.6,-119.09C980.37,-108.82 1062.47,-90.77 1116.7,-78.85"/>
<polygon fill="#63b8ff" stroke="#63b8ff" points="1117.34,-82.3 1126.35,-76.73 1115.84,-75.46 1117.34,-82.3"/>
</a>
</g>
</g>
<!-- Node22 -->
<g id="Node000022" class="node">
<title>Node22</title>
<g id="a_Node000022"><a xlink:title=" ">
<polygon fill="#e0e0e0" stroke="#999999" points="1095,-76 994.25,-76 994.25,-56 1095,-56 1095,-76"/>
<text text-anchor="middle" x="1044.62" y="-62.5" font-family="Helvetica,sans-Serif" font-size="10.00">boost/log/sinks.hpp</text>
</a>
</g>
</g>
<!-- Node20&#45;&gt;Node22 -->
<g id="edge24_Node000020_Node000022" class="edge">
<title>Node20&#45;&gt;Node22</title>
<g id="a_edge24_Node000020_Node000022"><a xlink:title=" ">
<path fill="none" stroke="#63b8ff" d="M920.59,-117.62C944.97,-107.67 983.73,-91.85 1011.43,-80.55"/>
<polygon fill="#63b8ff" stroke="#63b8ff" points="1012.48,-83.9 1020.42,-76.88 1009.84,-77.42 1012.48,-83.9"/>
</a>
</g>
</g>
<!-- Node23 -->
<g id="Node000023" class="node">
<title>Node23</title>
<g id="a_Node000023"><a xlink:href="stat__trackers_8h.html" target="_top" xlink:title="Declarations for streaming statistic tracking.">
<polygon fill="white" stroke="#666666" points="938.25,-76 857,-76 857,-56 938.25,-56 938.25,-76"/>
<text text-anchor="middle" x="897.62" y="-62.5" font-family="Helvetica,sans-Serif" font-size="10.00">stat_trackers.h</text>
</a>
</g>
</g>
<!-- Node20&#45;&gt;Node23 -->
<g id="edge26_Node000020_Node000023" class="edge">
<title>Node20&#45;&gt;Node23</title>
<g id="a_edge26_Node000020_Node000023"><a xlink:title=" ">
<path fill="none" stroke="#63b8ff" d="M897.62,-117.62C897.62,-109.56 897.62,-97.65 897.62,-87.41"/>
<polygon fill="#63b8ff" stroke="#63b8ff" points="901.13,-87.63 897.63,-77.63 894.13,-87.63 901.13,-87.63"/>
</a>
</g>
</g>
<!-- Node23&#45;&gt;Node10 -->
<g id="edge28_Node000023_Node000010" class="edge">
<title>Node23&#45;&gt;Node10</title>
<g id="a_edge28_Node000023_Node000010"><a xlink:title=" ">
<path fill="none" stroke="#63b8ff" d="M938.72,-57.95C943.41,-57.24 948.11,-56.58 952.62,-56 1122.1,-34.36 1169.43,-47.6 1341.03,-20.21"/>
<polygon fill="#63b8ff" stroke="#63b8ff" points="1341.44,-23.69 1350.75,-18.63 1340.32,-16.78 1341.44,-23.69"/>
</a>
</g>
</g>
<!-- Node23&#45;&gt;Node15 -->
<g id="edge27_Node000023_Node000015" class="edge">
<title>Node23&#45;&gt;Node15</title>
<g id="a_edge27_Node000023_Node000015"><a xlink:title=" ">
<path fill="none" stroke="#63b8ff" d="M930.89,-55.59C965.56,-45.79 1019.6,-30.51 1054.56,-20.63"/>
<polygon fill="#63b8ff" stroke="#63b8ff" points="1055.5,-24 1064.17,-17.91 1053.6,-17.27 1055.5,-24"/>
</a>
</g>
</g>
<!-- Node24 -->
<g id="Node000024" class="node">
<title>Node24</title>
<g id="a_Node000024"><a xlink:title=" ">
<polygon fill="#e0e0e0" stroke="#999999" points="1334.25,-20 1295,-20 1295,0 1334.25,0 1334.25,-20"/>
<text text-anchor="middle" x="1314.62" y="-6.5" font-family="Helvetica,sans-Serif" font-size="10.00">limits</text>
</a>
</g>
</g>
<!-- Node23&#45;&gt;Node24 -->
<g id="edge29_Node000023_Node000024" class="edge">
<title>Node23&#45;&gt;Node24</title>
<g id="a_edge29_Node000023_Node000024"><a xlink:title=" ">
<path fill="none" stroke="#63b8ff" d="M938.73,-58.02C943.41,-57.3 948.12,-56.61 952.62,-56 1096.53,-36.46 1137.85,-49.53 1283.64,-20.01"/>
<polygon fill="#63b8ff" stroke="#63b8ff" points="1284.22,-23.46 1293.31,-18.02 1282.81,-16.61 1284.22,-23.46"/>
</a>
</g>
</g>
<!-- Node25 -->
<g id="Node000025" class="node">
<title>Node25</title>
<g id="a_Node000025"><a xlink:title=" ">
<polygon fill="#e0e0e0" stroke="#999999" points="1218.38,-20 1128.88,-20 1128.88,0 1218.38,0 1218.38,-20"/>
<text text-anchor="middle" x="1173.62" y="-6.5" font-family="Helvetica,sans-Serif" font-size="10.00">boost/format.hpp</text>
</a>
</g>
</g>
<!-- Node23&#45;&gt;Node25 -->
<g id="edge30_Node000023_Node000025" class="edge">
<title>Node23&#45;&gt;Node25</title>
<g id="a_edge30_Node000023_Node000025"><a xlink:title=" ">
<path fill="none" stroke="#63b8ff" d="M938.65,-56.97C986.07,-47.69 1064.4,-32.37 1117.46,-21.99"/>
<polygon fill="#63b8ff" stroke="#63b8ff" points="1118.08,-25.43 1127.22,-20.08 1116.74,-18.56 1118.08,-25.43"/>
</a>
</g>
</g>
<!-- Node26&#45;&gt;Node10 -->
<g id="edge35_Node000026_Node000010" class="edge">
<title>Node26&#45;&gt;Node10</title>
<g id="a_edge35_Node000026_Node000010"><a xlink:title=" ">
<path fill="none" stroke="#63b8ff" d="M599.96,-126.29C674.8,-123.97 826.14,-114.46 947.62,-76 965.82,-70.24 967.35,-61.5 985.62,-56 1135.31,-10.95 1183.75,-44.88 1341.22,-20.16"/>
<polygon fill="#63b8ff" stroke="#63b8ff" points="1341.44,-23.67 1350.75,-18.61 1340.32,-16.76 1341.44,-23.67"/>
</a>
</g>
</g>
<!-- Node26&#45;&gt;Node11 -->
<g id="edge37_Node000026_Node000011" class="edge">
<title>Node26&#45;&gt;Node11</title>
<g id="a_edge37_Node000026_Node000011"><a xlink:title=" ">
<path fill="none" stroke="#63b8ff" d="M551.09,-117.74C546.27,-102.08 534.2,-70.67 511.62,-56 456.08,-19.92 285.82,-32.71 204.35,-20.01"/>
<polygon fill="#63b8ff" stroke="#63b8ff" points="205.42,-16.64 194.96,-18.31 204.17,-23.53 205.42,-16.64"/>
</a>
</g>
</g>
<!-- Node26&#45;&gt;Node18 -->
<g id="edge38_Node000026_Node000018" class="edge">
<title>Node26&#45;&gt;Node18</title>
<g id="a_edge38_Node000026_Node000018"><a xlink:title=" ">
<path fill="none" stroke="#63b8ff" d="M586.19,-117.52C607.66,-109.67 634.82,-96.45 651.62,-76 661.91,-63.48 666.63,-45.6 668.79,-31.76"/>
<polygon fill="#63b8ff" stroke="#63b8ff" points="672.25,-32.31 669.97,-21.96 665.3,-31.48 672.25,-32.31"/>
</a>
</g>
</g>
<!-- Node27 -->
<g id="Node000027" class="node">
<title>Node27</title>
<g id="a_Node000027"><a xlink:title=" ">
<polygon fill="#e0e0e0" stroke="#999999" points="386.5,-76 348.75,-76 348.75,-56 386.5,-56 386.5,-76"/>
<text text-anchor="middle" x="367.62" y="-62.5" font-family="Helvetica,sans-Serif" font-size="10.00">array</text>
</a>
</g>
</g>
<!-- Node26&#45;&gt;Node27 -->
<g id="edge32_Node000026_Node000027" class="edge">
<title>Node26&#45;&gt;Node27</title>
<g id="a_edge32_Node000026_Node000027"><a xlink:title=" ">
<path fill="none" stroke="#63b8ff" d="M524.56,-117.62C490.05,-106.49 432.76,-88.01 397.77,-76.73"/>
<polygon fill="#63b8ff" stroke="#63b8ff" points="398.86,-73.4 388.27,-73.66 396.71,-80.06 398.86,-73.4"/>
</a>
</g>
</g>
<!-- Node28 -->
<g id="Node000028" class="node">
<title>Node28</title>
<g id="a_Node000028"><a xlink:title=" ">
<polygon fill="#e0e0e0" stroke="#999999" points="450.25,-76 405,-76 405,-56 450.25,-56 450.25,-76"/>
<text text-anchor="middle" x="427.62" y="-62.5" font-family="Helvetica,sans-Serif" font-size="10.00">atomic</text>
</a>
</g>
</g>
<!-- Node26&#45;&gt;Node28 -->
<g id="edge33_Node000026_Node000028" class="edge">
<title>Node26&#45;&gt;Node28</title>
<g id="a_edge33_Node000026_Node000028"><a xlink:title=" ">
<path fill="none" stroke="#63b8ff" d="M533.94,-117.62C513.41,-107.85 480.99,-92.41 457.35,-81.15"/>
<polygon fill="#63b8ff" stroke="#63b8ff" points="459.07,-78.1 448.54,-76.96 456.06,-84.42 459.07,-78.1"/>
</a>
</g>
</g>
<!-- Node29 -->
<g id="Node000029" class="node">
<title>Node29</title>
<g id="a_Node000029"><a xlink:title=" ">
<polygon fill="#e0e0e0" stroke="#999999" points="131.62,-20 37.62,-20 37.62,0 131.62,0 131.62,-20"/>
<text text-anchor="middle" x="84.62" y="-6.5" font-family="Helvetica,sans-Serif" font-size="10.00">condition_variable</text>
</a>
</g>
</g>
<!-- Node26&#45;&gt;Node29 -->
<g id="edge34_Node000026_Node000029" class="edge">
<title>Node26&#45;&gt;Node29</title>
<g id="a_edge34_Node000026_Node000029"><a xlink:title=" ">
<path fill="none" stroke="#63b8ff" d="M519.95,-117.57C512.91,-115.67 505.54,-113.72 498.62,-112 428.32,-94.46 410.07,-92.95 339.62,-76 266.74,-58.46 182.52,-36.7 131.45,-23.34"/>
<polygon fill="#63b8ff" stroke="#63b8ff" points="132.47,-19.99 121.91,-20.84 130.7,-26.76 132.47,-19.99"/>
</a>
</g>
</g>
<!-- Node30 -->
<g id="Node000030" class="node">
<title>Node30</title>
<g id="a_Node000030"><a xlink:title=" ">
<polygon fill="#e0e0e0" stroke="#999999" points="503,-76 468.25,-76 468.25,-56 503,-56 503,-76"/>
<text text-anchor="middle" x="485.62" y="-62.5" font-family="Helvetica,sans-Serif" font-size="10.00">map</text>
</a>
</g>
</g>
<!-- Node26&#45;&gt;Node30 -->
<g id="edge36_Node000026_Node000030" class="edge">
<title>Node26&#45;&gt;Node30</title>
<g id="a_edge36_Node000026_Node000030"><a xlink:title=" ">
<path fill="none" stroke="#63b8ff" d="M543,-117.62C532.66,-108.5 516.73,-94.45 504.28,-83.46"/>
<polygon fill="#63b8ff" stroke="#63b8ff" points="506.9,-81.11 497.09,-77.11 502.27,-86.35 506.9,-81.11"/>
</a>
</g>
</g>
<!-- Node26&#45;&gt;Node31 -->
<g id="edge39_Node000026_Node000031" class="edge">
<title>Node26&#45;&gt;Node31</title>
<g id="a_edge39_Node000026_Node000031"><a xlink:title=" ">
<path fill="none" stroke="#63b8ff" d="M563.94,-117.62C573.88,-108.59 589.14,-94.72 601.17,-83.78"/>
<polygon fill="#63b8ff" stroke="#63b8ff" points="603.44,-86.45 608.48,-77.13 598.73,-81.27 603.44,-86.45"/>
</a>
</g>
</g>
<!-- Node31&#45;&gt;Node11 -->
<g id="edge43_Node000031_Node000011" class="edge">
<title>Node31&#45;&gt;Node11</title>
<g id="a_edge43_Node000031_Node000011"><a xlink:title=" ">
<path fill="none" stroke="#63b8ff" d="M595.85,-58.68C591.47,-57.67 586.93,-56.72 582.62,-56 418.49,-28.43 370.61,-51.56 204.57,-20.23"/>
<polygon fill="#63b8ff" stroke="#63b8ff" points="205.42,-16.84 194.94,-18.38 204.1,-23.71 205.42,-16.84"/>
</a>
</g>
</g>
<!-- Node31&#45;&gt;Node12 -->
<g id="edge46_Node000031_Node000012" class="edge">
<title>Node31&#45;&gt;Node12</title>
<g id="a_edge46_Node000031_Node000012"><a xlink:title=" ">
<path fill="none" stroke="#63b8ff" d="M643.38,-57.89C670.79,-49.66 717.49,-35.62 766.52,-20.63"/>
<polygon fill="#63b8ff" stroke="#63b8ff" points="767.36,-24.03 775.9,-17.76 765.32,-17.34 767.36,-24.03"/>
</a>
</g>
</g>
<!-- Node31&#45;&gt;Node16 -->
<g id="edge44_Node000031_Node000016" class="edge">
<title>Node31&#45;&gt;Node16</title>
<g id="a_edge44_Node000031_Node000016"><a xlink:title=" ">
<path fill="none" stroke="#63b8ff" d="M639.66,-55.59C657.44,-47.24 683.69,-34.92 704.09,-25.34"/>
<polygon fill="#63b8ff" stroke="#63b8ff" points="705.5,-28.54 713.07,-21.12 702.53,-22.21 705.5,-28.54"/>
</a>
</g>
</g>
<!-- Node31&#45;&gt;Node18 -->
<g id="edge50_Node000031_Node000018" class="edge">
<title>Node31&#45;&gt;Node18</title>
<g id="a_edge50_Node000031_Node000018"><a xlink:title=" ">
<path fill="none" stroke="#63b8ff" d="M628.51,-55.59C635.53,-48.16 645.53,-37.58 654.02,-28.58"/>
<polygon fill="#63b8ff" stroke="#63b8ff" points="656.48,-31.07 660.8,-21.4 651.39,-26.27 656.48,-31.07"/>
</a>
</g>
</g>
<!-- Node31&#45;&gt;Node29 -->
<g id="edge41_Node000031_Node000029" class="edge">
<title>Node31&#45;&gt;Node29</title>
<g id="a_edge41_Node000031_Node000029"><a xlink:title=" ">
<path fill="none" stroke="#63b8ff" d="M595.92,-62.98C515.21,-56.08 250.62,-33.17 143.33,-20.24"/>
<polygon fill="#63b8ff" stroke="#63b8ff" points="143.81,-16.77 133.45,-19.02 142.95,-23.72 143.81,-16.77"/>
</a>
</g>
</g>
<!-- Node32 -->
<g id="Node000032" class="node">
<title>Node32</title>
<g id="a_Node000032"><a xlink:title=" ">
<polygon fill="#e0e0e0" stroke="#999999" points="266.5,-20 210.75,-20 210.75,0 266.5,0 266.5,-20"/>
<text text-anchor="middle" x="238.62" y="-6.5" font-family="Helvetica,sans-Serif" font-size="10.00">algorithm</text>
</a>
</g>
</g>
<!-- Node31&#45;&gt;Node32 -->
<g id="edge40_Node000031_Node000032" class="edge">
<title>Node31&#45;&gt;Node32</title>
<g id="a_edge40_Node000031_Node000032"><a xlink:title=" ">
<path fill="none" stroke="#63b8ff" d="M595.83,-58.76C591.46,-57.74 586.92,-56.77 582.62,-56 450.97,-32.36 412.84,-43.64 278,-20.22"/>
<polygon fill="#63b8ff" stroke="#63b8ff" points="278.78,-16.8 268.32,-18.5 277.56,-23.69 278.78,-16.8"/>
</a>
</g>
</g>
<!-- Node33 -->
<g id="Node000033" class="node">
<title>Node33</title>
<g id="a_Node000033"><a xlink:title=" ">
<polygon fill="#e0e0e0" stroke="#999999" points="399.25,-20 348,-20 348,0 399.25,0 399.25,-20"/>
<text text-anchor="middle" x="373.62" y="-6.5" font-family="Helvetica,sans-Serif" font-size="10.00">memory</text>
</a>
</g>
</g>
<!-- Node31&#45;&gt;Node33 -->
<g id="edge42_Node000031_Node000033" class="edge">
<title>Node31&#45;&gt;Node33</title>
<g id="a_edge42_Node000031_Node000033"><a xlink:title=" ">
<path fill="none" stroke="#63b8ff" d="M595.77,-59.06C591.4,-58.02 586.88,-56.96 582.62,-56 508.63,-39.39 486.86,-38.24 410.7,-20.63"/>
<polygon fill="#63b8ff" stroke="#63b8ff" points="411.58,-17.24 401.05,-18.37 409.99,-24.06 411.58,-17.24"/>
</a>
</g>
</g>
<!-- Node34 -->
<g id="Node000034" class="node">
<title>Node34</title>
<g id="a_Node000034"><a xlink:title=" ">
<polygon fill="#e0e0e0" stroke="#999999" points="468.25,-20 417,-20 417,0 468.25,0 468.25,-20"/>
<text text-anchor="middle" x="442.62" y="-6.5" font-family="Helvetica,sans-Serif" font-size="10.00">ostream</text>
</a>
</g>
</g>
<!-- Node31&#45;&gt;Node34 -->
<g id="edge45_Node000031_Node000034" class="edge">
<title>Node31&#45;&gt;Node34</title>
<g id="a_edge45_Node000031_Node000034"><a xlink:title=" ">
<path fill="none" stroke="#63b8ff" d="M595.75,-57.72C565.87,-48.6 514.36,-32.89 479.42,-22.22"/>
<polygon fill="#63b8ff" stroke="#63b8ff" points="480.74,-18.97 470.15,-19.4 478.69,-25.66 480.74,-18.97"/>
</a>
</g>
</g>
<!-- Node35 -->
<g id="Node000035" class="node">
<title>Node35</title>
<g id="a_Node000035"><a xlink:title=" ">
<polygon fill="#e0e0e0" stroke="#999999" points="551.38,-20 485.88,-20 485.88,0 551.38,0 551.38,-20"/>
<text text-anchor="middle" x="518.62" y="-6.5" font-family="Helvetica,sans-Serif" font-size="10.00">string_view</text>
</a>
</g>
</g>
<!-- Node31&#45;&gt;Node35 -->
<g id="edge47_Node000031_Node000035" class="edge">
<title>Node31&#45;&gt;Node35</title>
<g id="a_edge47_Node000031_Node000035"><a xlink:title=" ">
<path fill="none" stroke="#63b8ff" d="M602.03,-55.59C586.7,-47.4 564.21,-35.37 546.44,-25.87"/>
<polygon fill="#63b8ff" stroke="#63b8ff" points="548.16,-22.82 537.69,-21.19 544.86,-28.99 548.16,-22.82"/>
</a>
</g>
</g>
<!-- Node36 -->
<g id="Node000036" class="node">
<title>Node36</title>
<g id="a_Node000036"><a xlink:title=" ">
<polygon fill="#e0e0e0" stroke="#999999" points="631.5,-20 569.75,-20 569.75,0 631.5,0 631.5,-20"/>
<text text-anchor="middle" x="600.62" y="-6.5" font-family="Helvetica,sans-Serif" font-size="10.00">type_traits</text>
</a>
</g>
</g>
<!-- Node31&#45;&gt;Node36 -->
<g id="edge48_Node000031_Node000036" class="edge">
<title>Node31&#45;&gt;Node36</title>
<g id="a_edge48_Node000031_Node000036"><a xlink:title=" ">
<path fill="none" stroke="#63b8ff" d="M616.32,-55.59C613.95,-48.86 610.66,-39.53 607.72,-31.15"/>
<polygon fill="#63b8ff" stroke="#63b8ff" points="611.02,-30 604.4,-21.73 604.42,-32.32 611.02,-30"/>
</a>
</g>
</g>
<!-- Node37 -->
<g id="Node000037" class="node">
<title>Node37</title>
<g id="a_Node000037"><a xlink:title=" ">
<polygon fill="#e0e0e0" stroke="#999999" points="330.25,-20 285,-20 285,0 330.25,0 330.25,-20"/>
<text text-anchor="middle" x="307.62" y="-6.5" font-family="Helvetica,sans-Serif" font-size="10.00">variant</text>
</a>
</g>
</g>
<!-- Node31&#45;&gt;Node37 -->
<g id="edge49_Node000031_Node000037" class="edge">
<title>Node31&#45;&gt;Node37</title>
<g id="a_edge49_Node000031_Node000037"><a xlink:title=" ">
<path fill="none" stroke="#63b8ff" d="M595.81,-58.87C591.44,-57.84 586.91,-56.83 582.62,-56 478.6,-35.72 447.76,-42.82 341.75,-20.45"/>
<polygon fill="#63b8ff" stroke="#63b8ff" points="342.55,-17.04 332.04,-18.35 341.08,-23.88 342.55,-17.04"/>
</a>
</g>
</g>
<!-- Node39 -->
<g id="Node000039" class="node">
<title>Node39</title>
<g id="a_Node000039"><a xlink:title=" ">
<polygon fill="#e0e0e0" stroke="#999999" points="1424.25,-76 1337,-76 1337,-56 1424.25,-56 1424.25,-76"/>
<text text-anchor="middle" x="1380.62" y="-62.5" font-family="Helvetica,sans-Serif" font-size="10.00">libavutil/pixfmt.h</text>
</a>
</g>
</g>
<!-- Node38&#45;&gt;Node39 -->
<g id="edge53_Node000038_Node000039" class="edge">
<title>Node38&#45;&gt;Node39</title>
<g id="a_edge53_Node000038_Node000039"><a xlink:title=" ">
<path fill="none" stroke="#63b8ff" d="M1380.62,-117.62C1380.62,-109.56 1380.62,-97.65 1380.62,-87.41"/>
<polygon fill="#63b8ff" stroke="#63b8ff" points="1384.13,-87.63 1380.63,-77.63 1377.13,-87.63 1384.13,-87.63"/>
</a>
</g>
</g>
</g>
</svg>
