<?xml version="1.0" encoding="UTF-8" standalone="no"?>
<!DOCTYPE svg PUBLIC "-//W3C//DTD SVG 1.1//EN"
 "http://www.w3.org/Graphics/SVG/1.1/DTD/svg11.dtd">
<!-- Generated by graphviz version 12.2.1 (0)
 -->
<!-- Title: src/nvhttp.h Pages: 1 -->
<svg width="954pt" height="96pt"
 viewBox="0.00 0.00 953.88 96.00" xmlns="http://www.w3.org/2000/svg" xmlns:xlink="http://www.w3.org/1999/xlink">
<g id="graph0" class="graph" transform="scale(1 1) rotate(0) translate(4 92)">
<title>src/nvhttp.h</title>
<!-- Node1 -->
<g id="Node000001" class="node">
<title>Node1</title>
<g id="a_Node000001"><a xlink:title="Declarations for the nvhttp (GameStream) server.">
<polygon fill="#999999" stroke="#666666" points="494.62,-88 426.88,-88 426.88,-68 494.62,-68 494.62,-88"/>
<text text-anchor="middle" x="460.75" y="-74.5" font-family="Helvetica,sans-Serif" font-size="10.00">src/nvhttp.h</text>
</a>
</g>
</g>
<!-- Node2 -->
<g id="Node000002" class="node">
<title>Node2</title>
<g id="a_Node000002"><a xlink:href="config_8cpp.html" target="_top" xlink:title="Definitions for the configuration of Sunshine.">
<polygon fill="white" stroke="#666666" points="77.5,-26 0,-26 0,-6 77.5,-6 77.5,-26"/>
<text text-anchor="middle" x="38.75" y="-12.5" font-family="Helvetica,sans-Serif" font-size="10.00">src/config.cpp</text>
</a>
</g>
</g>
<!-- Node1&#45;&gt;Node2 -->
<g id="edge1_Node000001_Node000002" class="edge">
<title>Node1&#45;&gt;Node2</title>
<g id="a_edge1_Node000001_Node000002"><a xlink:title=" ">
<path fill="none" stroke="#63b8ff" d="M415.47,-74.24C344.69,-69.32 203.81,-57.11 86.75,-32 79.92,-30.54 72.67,-28.52 65.93,-26.44"/>
<polygon fill="#63b8ff" stroke="#63b8ff" points="414.9,-77.71 425.12,-74.89 415.38,-70.72 414.9,-77.71"/>
</a>
</g>
</g>
<!-- Node3 -->
<g id="Node000003" class="node">
<title>Node3</title>
<g id="a_Node000003"><a xlink:href="confighttp_8cpp.html" target="_top" xlink:title="Definitions for the Web UI Config HTTP server.">
<polygon fill="white" stroke="#666666" points="189.75,-26 95.75,-26 95.75,-6 189.75,-6 189.75,-26"/>
<text text-anchor="middle" x="142.75" y="-12.5" font-family="Helvetica,sans-Serif" font-size="10.00">src/confighttp.cpp</text>
</a>
</g>
</g>
<!-- Node1&#45;&gt;Node3 -->
<g id="edge2_Node000001_Node000003" class="edge">
<title>Node1&#45;&gt;Node3</title>
<g id="a_edge2_Node000001_Node000003"><a xlink:title=" ">
<path fill="none" stroke="#63b8ff" d="M415.39,-70.5C362.96,-62.69 274.19,-48.55 198.75,-32 191.38,-30.38 183.52,-28.43 176.09,-26.47"/>
<polygon fill="#63b8ff" stroke="#63b8ff" points="414.74,-73.94 425.14,-71.94 415.76,-67.02 414.74,-73.94"/>
</a>
</g>
</g>
<!-- Node4 -->
<g id="Node000004" class="node">
<title>Node4</title>
<g id="a_Node000004"><a xlink:href="httpcommon_8cpp.html" target="_top" xlink:title="Definitions for common HTTP.">
<polygon fill="white" stroke="#666666" points="313.38,-26 208.12,-26 208.12,-6 313.38,-6 313.38,-26"/>
<text text-anchor="middle" x="260.75" y="-12.5" font-family="Helvetica,sans-Serif" font-size="10.00">src/httpcommon.cpp</text>
</a>
</g>
</g>
<!-- Node1&#45;&gt;Node4 -->
<g id="edge3_Node000001_Node000004" class="edge">
<title>Node1&#45;&gt;Node4</title>
<g id="a_edge3_Node000001_Node000004"><a xlink:title=" ">
<path fill="none" stroke="#63b8ff" d="M418.83,-64.43C381.02,-53.08 326.25,-36.65 292.11,-26.41"/>
<polygon fill="#63b8ff" stroke="#63b8ff" points="417.47,-67.67 428.05,-67.19 419.48,-60.96 417.47,-67.67"/>
</a>
</g>
</g>
<!-- Node5 -->
<g id="Node000005" class="node">
<title>Node5</title>
<g id="a_Node000005"><a xlink:href="main_8cpp.html" target="_top" xlink:title="Definitions for the main entry point for Sunshine.">
<polygon fill="white" stroke="#666666" points="403.88,-26 331.62,-26 331.62,-6 403.88,-6 403.88,-26"/>
<text text-anchor="middle" x="367.75" y="-12.5" font-family="Helvetica,sans-Serif" font-size="10.00">src/main.cpp</text>
</a>
</g>
</g>
<!-- Node1&#45;&gt;Node5 -->
<g id="edge4_Node000001_Node000005" class="edge">
<title>Node1&#45;&gt;Node5</title>
<g id="a_edge4_Node000001_Node000005"><a xlink:title=" ">
<path fill="none" stroke="#63b8ff" d="M436.78,-61.54C419.5,-50.39 396.75,-35.71 382.18,-26.31"/>
<polygon fill="#63b8ff" stroke="#63b8ff" points="434.65,-64.32 444.95,-66.8 438.44,-58.44 434.65,-64.32"/>
</a>
</g>
</g>
<!-- Node6 -->
<g id="Node000006" class="node">
<title>Node6</title>
<g id="a_Node000006"><a xlink:href="nvhttp_8cpp.html" target="_top" xlink:title="Definitions for the nvhttp (GameStream) server.">
<polygon fill="white" stroke="#666666" points="499.88,-26 421.62,-26 421.62,-6 499.88,-6 499.88,-26"/>
<text text-anchor="middle" x="460.75" y="-12.5" font-family="Helvetica,sans-Serif" font-size="10.00">src/nvhttp.cpp</text>
</a>
</g>
</g>
<!-- Node1&#45;&gt;Node6 -->
<g id="edge5_Node000001_Node000006" class="edge">
<title>Node1&#45;&gt;Node6</title>
<g id="a_edge5_Node000001_Node000006"><a xlink:title=" ">
<path fill="none" stroke="#63b8ff" d="M460.75,-56.25C460.75,-45.97 460.75,-34.09 460.75,-26.11"/>
<polygon fill="#63b8ff" stroke="#63b8ff" points="457.25,-56.11 460.75,-66.11 464.25,-56.11 457.25,-56.11"/>
</a>
</g>
</g>
<!-- Node7 -->
<g id="Node000007" class="node">
<title>Node7</title>
<g id="a_Node000007"><a xlink:href="linux_2publish_8cpp.html" target="_top" xlink:title="Definitions for publishing services on Linux.">
<polygon fill="white" stroke="#666666" points="609.25,-32 518.25,-32 518.25,0 609.25,0 609.25,-32"/>
<text text-anchor="start" x="526.25" y="-18.5" font-family="Helvetica,sans-Serif" font-size="10.00">src/platform/linux</text>
<text text-anchor="middle" x="563.75" y="-6.5" font-family="Helvetica,sans-Serif" font-size="10.00">/publish.cpp</text>
</a>
</g>
</g>
<!-- Node1&#45;&gt;Node7 -->
<g id="edge6_Node000001_Node000007" class="edge">
<title>Node1&#45;&gt;Node7</title>
<g id="a_edge6_Node000001_Node000007"><a xlink:title=" ">
<path fill="none" stroke="#63b8ff" d="M486.35,-62.08C501.89,-53.03 521.68,-41.51 537.36,-32.37"/>
<polygon fill="#63b8ff" stroke="#63b8ff" points="485.03,-58.81 478.15,-66.86 488.55,-64.85 485.03,-58.81"/>
</a>
</g>
</g>
<!-- Node8 -->
<g id="Node000008" class="node">
<title>Node8</title>
<g id="a_Node000008"><a xlink:href="macos_2publish_8cpp.html" target="_top" xlink:title="Definitions for publishing services on macOS.">
<polygon fill="white" stroke="#666666" points="727.75,-32 627.75,-32 627.75,0 727.75,0 727.75,-32"/>
<text text-anchor="start" x="635.75" y="-18.5" font-family="Helvetica,sans-Serif" font-size="10.00">src/platform/macos</text>
<text text-anchor="middle" x="677.75" y="-6.5" font-family="Helvetica,sans-Serif" font-size="10.00">/publish.cpp</text>
</a>
</g>
</g>
<!-- Node1&#45;&gt;Node8 -->
<g id="edge7_Node000001_Node000008" class="edge">
<title>Node1&#45;&gt;Node8</title>
<g id="a_edge7_Node000001_Node000008"><a xlink:title=" ">
<path fill="none" stroke="#63b8ff" d="M505.66,-64.58C541.17,-54.76 590.74,-41.06 627.56,-30.88"/>
<polygon fill="#63b8ff" stroke="#63b8ff" points="504.82,-61.18 496.12,-67.22 506.69,-67.93 504.82,-61.18"/>
</a>
</g>
</g>
<!-- Node9 -->
<g id="Node000009" class="node">
<title>Node9</title>
<g id="a_Node000009"><a xlink:href="windows_2publish_8cpp.html" target="_top" xlink:title="Definitions for Windows mDNS service registration.">
<polygon fill="white" stroke="#666666" points="855.25,-32 746.25,-32 746.25,0 855.25,0 855.25,-32"/>
<text text-anchor="start" x="754.25" y="-18.5" font-family="Helvetica,sans-Serif" font-size="10.00">src/platform/windows</text>
<text text-anchor="middle" x="800.75" y="-6.5" font-family="Helvetica,sans-Serif" font-size="10.00">/publish.cpp</text>
</a>
</g>
</g>
<!-- Node1&#45;&gt;Node9 -->
<g id="edge8_Node000001_Node000009" class="edge">
<title>Node1&#45;&gt;Node9</title>
<g id="a_edge8_Node000001_Node000009"><a xlink:title=" ">
<path fill="none" stroke="#63b8ff" d="M505.94,-70.6C560.74,-62.62 655.84,-48.06 736.75,-32 739.77,-31.4 742.87,-30.76 745.99,-30.09"/>
<polygon fill="#63b8ff" stroke="#63b8ff" points="505.77,-67.09 496.38,-71.99 506.77,-74.02 505.77,-67.09"/>
</a>
</g>
</g>
<!-- Node10 -->
<g id="Node000010" class="node">
<title>Node10</title>
<g id="a_Node000010"><a xlink:href="upnp_8cpp.html" target="_top" xlink:title="Definitions for UPnP port mapping.">
<polygon fill="white" stroke="#666666" points="945.88,-26 873.62,-26 873.62,-6 945.88,-6 945.88,-26"/>
<text text-anchor="middle" x="909.75" y="-12.5" font-family="Helvetica,sans-Serif" font-size="10.00">src/upnp.cpp</text>
</a>
</g>
</g>
<!-- Node1&#45;&gt;Node10 -->
<g id="edge9_Node000001_Node000010" class="edge">
<title>Node1&#45;&gt;Node10</title>
<g id="a_edge9_Node000001_Node000010"><a xlink:title=" ">
<path fill="none" stroke="#63b8ff" d="M506.32,-75.05C581.69,-71.14 736.68,-60.15 864.75,-32 871.35,-30.55 878.33,-28.49 884.78,-26.36"/>
<polygon fill="#63b8ff" stroke="#63b8ff" points="506.25,-71.55 496.44,-75.55 506.6,-78.54 506.25,-71.55"/>
</a>
</g>
</g>
</g>
</svg>
