<?xml version="1.0" encoding="UTF-8" standalone="no"?>
<!DOCTYPE svg PUBLIC "-//W3C//DTD SVG 1.1//EN"
 "http://www.w3.org/Graphics/SVG/1.1/DTD/svg11.dtd">
<!-- Generated by graphviz version 12.2.1 (0)
 -->
<!-- Title: src/nvhttp.h Pages: 1 -->
<svg width="1008pt" height="208pt"
 viewBox="0.00 0.00 1007.62 208.00" xmlns="http://www.w3.org/2000/svg" xmlns:xlink="http://www.w3.org/1999/xlink">
<g id="graph0" class="graph" transform="scale(1 1) rotate(0) translate(4 204)">
<title>src/nvhttp.h</title>
<!-- Node1 -->
<g id="Node000001" class="node">
<title>Node1</title>
<g id="a_Node000001"><a xlink:title="Declarations for the nvhttp (GameStream) server.">
<polygon fill="#999999" stroke="#666666" points="666.5,-200 598.75,-200 598.75,-180 666.5,-180 666.5,-200"/>
<text text-anchor="middle" x="632.62" y="-186.5" font-family="Helvetica,sans-Serif" font-size="10.00">src/nvhttp.h</text>
</a>
</g>
</g>
<!-- Node2 -->
<g id="Node000002" class="node">
<title>Node2</title>
<g id="a_Node000002"><a xlink:title=" ">
<polygon fill="#e0e0e0" stroke="#999999" points="42.62,-20 2.62,-20 2.62,0 42.62,0 42.62,-20"/>
<text text-anchor="middle" x="22.62" y="-6.5" font-family="Helvetica,sans-Serif" font-size="10.00">string</text>
</a>
</g>
</g>
<!-- Node1&#45;&gt;Node2 -->
<g id="edge1_Node000001_Node000002" class="edge">
<title>Node1&#45;&gt;Node2</title>
<g id="a_edge1_Node000001_Node000002"><a xlink:title=" ">
<path fill="none" stroke="#63b8ff" d="M598.63,-188.45C479,-185.73 80.65,-169.66 5.62,-76 -4.84,-62.94 1.76,-44.11 9.59,-30.08"/>
<polygon fill="#63b8ff" stroke="#63b8ff" points="12.46,-32.08 14.75,-21.74 6.51,-28.4 12.46,-32.08"/>
</a>
</g>
</g>
<!-- Node3 -->
<g id="Node000003" class="node">
<title>Node3</title>
<g id="a_Node000003"><a xlink:title=" ">
<polygon fill="#e0e0e0" stroke="#999999" points="735.62,-144 635.62,-144 635.62,-112 735.62,-112 735.62,-144"/>
<text text-anchor="start" x="643.62" y="-130.5" font-family="Helvetica,sans-Serif" font-size="10.00">boost/property_tree</text>
<text text-anchor="middle" x="685.62" y="-118.5" font-family="Helvetica,sans-Serif" font-size="10.00">/ptree.hpp</text>
</a>
</g>
</g>
<!-- Node1&#45;&gt;Node3 -->
<g id="edge2_Node000001_Node000003" class="edge">
<title>Node1&#45;&gt;Node3</title>
<g id="a_edge2_Node000001_Node000003"><a xlink:title=" ">
<path fill="none" stroke="#63b8ff" d="M640.91,-179.62C647.26,-172.43 656.32,-162.17 664.63,-152.77"/>
<polygon fill="#63b8ff" stroke="#63b8ff" points="667.25,-155.09 671.25,-145.27 662,-150.45 667.25,-155.09"/>
</a>
</g>
</g>
<!-- Node4 -->
<g id="Node000004" class="node">
<title>Node4</title>
<g id="a_Node000004"><a xlink:title=" ">
<polygon fill="#e0e0e0" stroke="#999999" points="851.5,-138 753.75,-138 753.75,-118 851.5,-118 851.5,-138"/>
<text text-anchor="middle" x="802.62" y="-124.5" font-family="Helvetica,sans-Serif" font-size="10.00">nlohmann/json.hpp</text>
</a>
</g>
</g>
<!-- Node1&#45;&gt;Node4 -->
<g id="edge3_Node000001_Node000004" class="edge">
<title>Node1&#45;&gt;Node4</title>
<g id="a_edge3_Node000001_Node000004"><a xlink:title=" ">
<path fill="none" stroke="#63b8ff" d="M659.19,-179.62C687.67,-169.57 733.13,-153.53 765.22,-142.2"/>
<polygon fill="#63b8ff" stroke="#63b8ff" points="766.28,-145.54 774.54,-138.91 763.95,-138.94 766.28,-145.54"/>
</a>
</g>
</g>
<!-- Node5 -->
<g id="Node000005" class="node">
<title>Node5</title>
<g id="a_Node000005"><a xlink:title=" ">
<polygon fill="#e0e0e0" stroke="#999999" points="999.62,-144 869.62,-144 869.62,-112 999.62,-112 999.62,-144"/>
<text text-anchor="start" x="877.62" y="-130.5" font-family="Helvetica,sans-Serif" font-size="10.00">Simple&#45;Web&#45;Server/server</text>
<text text-anchor="middle" x="934.62" y="-118.5" font-family="Helvetica,sans-Serif" font-size="10.00">_https.hpp</text>
</a>
</g>
</g>
<!-- Node1&#45;&gt;Node5 -->
<g id="edge4_Node000001_Node000005" class="edge">
<title>Node1&#45;&gt;Node5</title>
<g id="a_edge4_Node000001_Node000005"><a xlink:title=" ">
<path fill="none" stroke="#63b8ff" d="M666.63,-182.35C709.1,-174.02 784.31,-159.24 858.35,-144.45"/>
<polygon fill="#63b8ff" stroke="#63b8ff" points="858.65,-147.96 867.77,-142.57 857.28,-141.09 858.65,-147.96"/>
</a>
</g>
</g>
<!-- Node6 -->
<g id="Node000006" class="node">
<title>Node6</title>
<g id="a_Node000006"><a xlink:href="crypto_8h.html" target="_top" xlink:title="Declarations for cryptography functions.">
<polygon fill="white" stroke="#666666" points="370.25,-138 319,-138 319,-118 370.25,-118 370.25,-138"/>
<text text-anchor="middle" x="344.62" y="-124.5" font-family="Helvetica,sans-Serif" font-size="10.00">crypto.h</text>
</a>
</g>
</g>
<!-- Node1&#45;&gt;Node6 -->
<g id="edge5_Node000001_Node000006" class="edge">
<title>Node1&#45;&gt;Node6</title>
<g id="a_edge5_Node000001_Node000006"><a xlink:title=" ">
<path fill="none" stroke="#63b8ff" d="M598.46,-181.88C544.07,-170.55 438.21,-148.5 381.92,-136.77"/>
<polygon fill="#63b8ff" stroke="#63b8ff" points="382.68,-133.35 372.17,-134.74 381.25,-140.21 382.68,-133.35"/>
</a>
</g>
</g>
<!-- Node23 -->
<g id="Node000023" class="node">
<title>Node23</title>
<g id="a_Node000023"><a xlink:href="thread__safe_8h.html" target="_top" xlink:title="Declarations for thread&#45;safe data structures.">
<polygon fill="white" stroke="#666666" points="617.25,-138 542,-138 542,-118 617.25,-118 617.25,-138"/>
<text text-anchor="middle" x="579.62" y="-124.5" font-family="Helvetica,sans-Serif" font-size="10.00">thread_safe.h</text>
</a>
</g>
</g>
<!-- Node1&#45;&gt;Node23 -->
<g id="edge23_Node000001_Node000023" class="edge">
<title>Node1&#45;&gt;Node23</title>
<g id="a_edge23_Node000001_Node000023"><a xlink:title=" ">
<path fill="none" stroke="#63b8ff" d="M624.34,-179.62C616.52,-170.77 604.59,-157.26 595.02,-146.43"/>
<polygon fill="#63b8ff" stroke="#63b8ff" points="597.92,-144.42 588.68,-139.25 592.67,-149.06 597.92,-144.42"/>
</a>
</g>
</g>
<!-- Node7 -->
<g id="Node000007" class="node">
<title>Node7</title>
<g id="a_Node000007"><a xlink:title=" ">
<polygon fill="#e0e0e0" stroke="#999999" points="503.5,-76 465.75,-76 465.75,-56 503.5,-56 503.5,-76"/>
<text text-anchor="middle" x="484.62" y="-62.5" font-family="Helvetica,sans-Serif" font-size="10.00">array</text>
</a>
</g>
</g>
<!-- Node6&#45;&gt;Node7 -->
<g id="edge6_Node000006_Node000007" class="edge">
<title>Node6&#45;&gt;Node7</title>
<g id="a_edge6_Node000006_Node000007"><a xlink:title=" ">
<path fill="none" stroke="#63b8ff" d="M366.5,-117.62C390.32,-107.42 428.55,-91.03 455.04,-79.68"/>
<polygon fill="#63b8ff" stroke="#63b8ff" points="456.39,-82.91 464.21,-75.75 453.64,-76.47 456.39,-82.91"/>
</a>
</g>
</g>
<!-- Node8 -->
<g id="Node000008" class="node">
<title>Node8</title>
<g id="a_Node000008"><a xlink:title=" ">
<polygon fill="#e0e0e0" stroke="#999999" points="191,-76 114.25,-76 114.25,-56 191,-56 191,-76"/>
<text text-anchor="middle" x="152.62" y="-62.5" font-family="Helvetica,sans-Serif" font-size="10.00">openssl/evp.h</text>
</a>
</g>
</g>
<!-- Node6&#45;&gt;Node8 -->
<g id="edge7_Node000006_Node000008" class="edge">
<title>Node6&#45;&gt;Node8</title>
<g id="a_edge7_Node000006_Node000008"><a xlink:title=" ">
<path fill="none" stroke="#63b8ff" d="M318.73,-118.91C286.59,-108.86 231.39,-91.62 193.51,-79.78"/>
<polygon fill="#63b8ff" stroke="#63b8ff" points="194.87,-76.54 184.28,-76.89 192.79,-83.22 194.87,-76.54"/>
</a>
</g>
</g>
<!-- Node9 -->
<g id="Node000009" class="node">
<title>Node9</title>
<g id="a_Node000009"><a xlink:title=" ">
<polygon fill="#e0e0e0" stroke="#999999" points="288.5,-76 208.75,-76 208.75,-56 288.5,-56 288.5,-76"/>
<text text-anchor="middle" x="248.62" y="-62.5" font-family="Helvetica,sans-Serif" font-size="10.00">openssl/rand.h</text>
</a>
</g>
</g>
<!-- Node6&#45;&gt;Node9 -->
<g id="edge8_Node000006_Node000009" class="edge">
<title>Node6&#45;&gt;Node9</title>
<g id="a_edge8_Node000006_Node000009"><a xlink:title=" ">
<path fill="none" stroke="#63b8ff" d="M329.62,-117.62C314.55,-108.2 291.05,-93.52 273.24,-82.39"/>
<polygon fill="#63b8ff" stroke="#63b8ff" points="275.14,-79.44 264.8,-77.11 271.43,-85.38 275.14,-79.44"/>
</a>
</g>
</g>
<!-- Node10 -->
<g id="Node000010" class="node">
<title>Node10</title>
<g id="a_Node000010"><a xlink:title=" ">
<polygon fill="#e0e0e0" stroke="#999999" points="383,-76 306.25,-76 306.25,-56 383,-56 383,-76"/>
<text text-anchor="middle" x="344.62" y="-62.5" font-family="Helvetica,sans-Serif" font-size="10.00">openssl/sha.h</text>
</a>
</g>
</g>
<!-- Node6&#45;&gt;Node10 -->
<g id="edge9_Node000006_Node000010" class="edge">
<title>Node6&#45;&gt;Node10</title>
<g id="a_edge9_Node000006_Node000010"><a xlink:title=" ">
<path fill="none" stroke="#63b8ff" d="M344.62,-117.62C344.62,-109.56 344.62,-97.65 344.62,-87.41"/>
<polygon fill="#63b8ff" stroke="#63b8ff" points="348.12,-87.63 344.62,-77.63 341.12,-87.63 348.12,-87.63"/>
</a>
</g>
</g>
<!-- Node11 -->
<g id="Node000011" class="node">
<title>Node11</title>
<g id="a_Node000011"><a xlink:title=" ">
<polygon fill="#e0e0e0" stroke="#999999" points="96.62,-76 14.62,-76 14.62,-56 96.62,-56 96.62,-76"/>
<text text-anchor="middle" x="55.62" y="-62.5" font-family="Helvetica,sans-Serif" font-size="10.00">openssl/x509.h</text>
</a>
</g>
</g>
<!-- Node6&#45;&gt;Node11 -->
<g id="edge10_Node000006_Node000011" class="edge">
<title>Node6&#45;&gt;Node11</title>
<g id="a_edge10_Node000006_Node000011"><a xlink:title=" ">
<path fill="none" stroke="#63b8ff" d="M318.72,-121.62C271.44,-111.81 170.31,-90.81 108.11,-77.9"/>
<polygon fill="#63b8ff" stroke="#63b8ff" points="108.96,-74.5 98.46,-75.89 107.53,-81.35 108.96,-74.5"/>
</a>
</g>
</g>
<!-- Node12 -->
<g id="Node000012" class="node">
<title>Node12</title>
<g id="a_Node000012"><a xlink:href="utility_8h.html" target="_top" xlink:title="Declarations for utility functions.">
<polygon fill="white" stroke="#666666" points="448,-76 401.25,-76 401.25,-56 448,-56 448,-76"/>
<text text-anchor="middle" x="424.62" y="-62.5" font-family="Helvetica,sans-Serif" font-size="10.00">utility.h</text>
</a>
</g>
</g>
<!-- Node6&#45;&gt;Node12 -->
<g id="edge11_Node000006_Node000012" class="edge">
<title>Node6&#45;&gt;Node12</title>
<g id="a_edge11_Node000006_Node000012"><a xlink:title=" ">
<path fill="none" stroke="#63b8ff" d="M357.12,-117.62C369.45,-108.38 388.54,-94.07 403.27,-83.01"/>
<polygon fill="#63b8ff" stroke="#63b8ff" points="405.1,-86.02 411,-77.22 400.9,-80.42 405.1,-86.02"/>
</a>
</g>
</g>
<!-- Node12&#45;&gt;Node2 -->
<g id="edge18_Node000012_Node000002" class="edge">
<title>Node12&#45;&gt;Node2</title>
<g id="a_edge18_Node000012_Node000002"><a xlink:title=" ">
<path fill="none" stroke="#63b8ff" d="M400.93,-58.09C397.82,-57.31 394.66,-56.59 391.62,-56 258.07,-30.03 222.57,-37.33 87.62,-20 76.79,-18.61 64.95,-17 54.38,-15.52"/>
<polygon fill="#63b8ff" stroke="#63b8ff" points="54.99,-12.08 44.6,-14.15 54.02,-19.01 54.99,-12.08"/>
</a>
</g>
</g>
<!-- Node13 -->
<g id="Node000013" class="node">
<title>Node13</title>
<g id="a_Node000013"><a xlink:title=" ">
<polygon fill="#e0e0e0" stroke="#999999" points="380.5,-20 324.75,-20 324.75,0 380.5,0 380.5,-20"/>
<text text-anchor="middle" x="352.62" y="-6.5" font-family="Helvetica,sans-Serif" font-size="10.00">algorithm</text>
</a>
</g>
</g>
<!-- Node12&#45;&gt;Node13 -->
<g id="edge12_Node000012_Node000013" class="edge">
<title>Node12&#45;&gt;Node13</title>
<g id="a_edge12_Node000012_Node000013"><a xlink:title=" ">
<path fill="none" stroke="#63b8ff" d="M412.08,-55.59C401.65,-47.77 386.58,-36.46 374.21,-27.19"/>
<polygon fill="#63b8ff" stroke="#63b8ff" points="376.33,-24.41 366.23,-21.21 372.13,-30.01 376.33,-24.41"/>
</a>
</g>
</g>
<!-- Node14 -->
<g id="Node000014" class="node">
<title>Node14</title>
<g id="a_Node000014"><a xlink:title=" ">
<polygon fill="#e0e0e0" stroke="#999999" points="700.62,-20 606.62,-20 606.62,0 700.62,0 700.62,-20"/>
<text text-anchor="middle" x="653.62" y="-6.5" font-family="Helvetica,sans-Serif" font-size="10.00">condition_variable</text>
</a>
</g>
</g>
<!-- Node12&#45;&gt;Node14 -->
<g id="edge13_Node000012_Node000014" class="edge">
<title>Node12&#45;&gt;Node14</title>
<g id="a_edge13_Node000012_Node000014"><a xlink:title=" ">
<path fill="none" stroke="#63b8ff" d="M448.35,-58.18C451.14,-57.43 453.94,-56.68 456.62,-56 504.22,-43.88 558.68,-31.56 598.26,-22.88"/>
<polygon fill="#63b8ff" stroke="#63b8ff" points="598.77,-26.35 607.79,-20.8 597.27,-19.51 598.77,-26.35"/>
</a>
</g>
</g>
<!-- Node15 -->
<g id="Node000015" class="node">
<title>Node15</title>
<g id="a_Node000015"><a xlink:title=" ">
<polygon fill="#e0e0e0" stroke="#999999" points="450.25,-20 399,-20 399,0 450.25,0 450.25,-20"/>
<text text-anchor="middle" x="424.62" y="-6.5" font-family="Helvetica,sans-Serif" font-size="10.00">memory</text>
</a>
</g>
</g>
<!-- Node12&#45;&gt;Node15 -->
<g id="edge14_Node000012_Node000015" class="edge">
<title>Node12&#45;&gt;Node15</title>
<g id="a_edge14_Node000012_Node000015"><a xlink:title=" ">
<path fill="none" stroke="#63b8ff" d="M424.62,-55.59C424.62,-49.01 424.62,-39.96 424.62,-31.73"/>
<polygon fill="#63b8ff" stroke="#63b8ff" points="428.12,-31.81 424.62,-21.81 421.12,-31.81 428.12,-31.81"/>
</a>
</g>
</g>
<!-- Node16 -->
<g id="Node000016" class="node">
<title>Node16</title>
<g id="a_Node000016"><a xlink:title=" ">
<polygon fill="#e0e0e0" stroke="#999999" points="762.12,-20 719.12,-20 719.12,0 762.12,0 762.12,-20"/>
<text text-anchor="middle" x="740.62" y="-6.5" font-family="Helvetica,sans-Serif" font-size="10.00">mutex</text>
</a>
</g>
</g>
<!-- Node12&#45;&gt;Node16 -->
<g id="edge15_Node000012_Node000016" class="edge">
<title>Node12&#45;&gt;Node16</title>
<g id="a_edge15_Node000012_Node000016"><a xlink:title=" ">
<path fill="none" stroke="#63b8ff" d="M448.3,-57.96C451.09,-57.24 453.91,-56.57 456.62,-56 564.29,-33.31 596.58,-43.22 707.7,-20.12"/>
<polygon fill="#63b8ff" stroke="#63b8ff" points="708.17,-23.6 717.23,-18.09 706.72,-16.75 708.17,-23.6"/>
</a>
</g>
</g>
<!-- Node17 -->
<g id="Node000017" class="node">
<title>Node17</title>
<g id="a_Node000017"><a xlink:title=" ">
<polygon fill="#e0e0e0" stroke="#999999" points="518.5,-20 468.75,-20 468.75,0 518.5,0 518.5,-20"/>
<text text-anchor="middle" x="493.62" y="-6.5" font-family="Helvetica,sans-Serif" font-size="10.00">optional</text>
</a>
</g>
</g>
<!-- Node12&#45;&gt;Node17 -->
<g id="edge16_Node000012_Node000017" class="edge">
<title>Node12&#45;&gt;Node17</title>
<g id="a_edge16_Node000012_Node000017"><a xlink:title=" ">
<path fill="none" stroke="#63b8ff" d="M436.64,-55.59C446.64,-47.77 461.09,-36.46 472.93,-27.19"/>
<polygon fill="#63b8ff" stroke="#63b8ff" points="474.83,-30.15 480.55,-21.23 470.52,-24.64 474.83,-30.15"/>
</a>
</g>
</g>
<!-- Node18 -->
<g id="Node000018" class="node">
<title>Node18</title>
<g id="a_Node000018"><a xlink:title=" ">
<polygon fill="#e0e0e0" stroke="#999999" points="588.25,-20 537,-20 537,0 588.25,0 588.25,-20"/>
<text text-anchor="middle" x="562.62" y="-6.5" font-family="Helvetica,sans-Serif" font-size="10.00">ostream</text>
</a>
</g>
</g>
<!-- Node12&#45;&gt;Node18 -->
<g id="edge17_Node000012_Node000018" class="edge">
<title>Node12&#45;&gt;Node18</title>
<g id="a_edge17_Node000012_Node000018"><a xlink:title=" ">
<path fill="none" stroke="#63b8ff" d="M448.35,-55.72C470.37,-47.1 503.4,-34.18 528.29,-24.43"/>
<polygon fill="#63b8ff" stroke="#63b8ff" points="529.3,-27.8 537.34,-20.89 526.75,-21.28 529.3,-27.8"/>
</a>
</g>
</g>
<!-- Node19 -->
<g id="Node000019" class="node">
<title>Node19</title>
<g id="a_Node000019"><a xlink:title=" ">
<polygon fill="#e0e0e0" stroke="#999999" points="162.37,-20 96.87,-20 96.87,0 162.37,0 162.37,-20"/>
<text text-anchor="middle" x="129.62" y="-6.5" font-family="Helvetica,sans-Serif" font-size="10.00">string_view</text>
</a>
</g>
</g>
<!-- Node12&#45;&gt;Node19 -->
<g id="edge19_Node000012_Node000019" class="edge">
<title>Node12&#45;&gt;Node19</title>
<g id="a_edge19_Node000012_Node000019"><a xlink:title=" ">
<path fill="none" stroke="#63b8ff" d="M400.9,-58.21C397.79,-57.42 394.64,-56.66 391.62,-56 298.31,-35.7 270.94,-38.17 173.83,-20.32"/>
<polygon fill="#63b8ff" stroke="#63b8ff" points="174.57,-16.9 164.1,-18.51 173.28,-23.78 174.57,-16.9"/>
</a>
</g>
</g>
<!-- Node20 -->
<g id="Node000020" class="node">
<title>Node20</title>
<g id="a_Node000020"><a xlink:title=" ">
<polygon fill="#e0e0e0" stroke="#999999" points="242.5,-20 180.75,-20 180.75,0 242.5,0 242.5,-20"/>
<text text-anchor="middle" x="211.62" y="-6.5" font-family="Helvetica,sans-Serif" font-size="10.00">type_traits</text>
</a>
</g>
</g>
<!-- Node12&#45;&gt;Node20 -->
<g id="edge20_Node000012_Node000020" class="edge">
<title>Node12&#45;&gt;Node20</title>
<g id="a_edge20_Node000012_Node000020"><a xlink:title=" ">
<path fill="none" stroke="#63b8ff" d="M400.85,-58.45C397.75,-57.62 394.61,-56.78 391.62,-56 344.46,-43.67 290.15,-30.19 253.63,-21.23"/>
<polygon fill="#63b8ff" stroke="#63b8ff" points="254.91,-17.94 244.36,-18.96 253.24,-24.74 254.91,-17.94"/>
</a>
</g>
</g>
<!-- Node21 -->
<g id="Node000021" class="node">
<title>Node21</title>
<g id="a_Node000021"><a xlink:title=" ">
<polygon fill="#e0e0e0" stroke="#999999" points="306.25,-20 261,-20 261,0 306.25,0 306.25,-20"/>
<text text-anchor="middle" x="283.62" y="-6.5" font-family="Helvetica,sans-Serif" font-size="10.00">variant</text>
</a>
</g>
</g>
<!-- Node12&#45;&gt;Node21 -->
<g id="edge21_Node000012_Node000021" class="edge">
<title>Node12&#45;&gt;Node21</title>
<g id="a_edge21_Node000012_Node000021"><a xlink:title=" ">
<path fill="none" stroke="#63b8ff" d="M401.02,-55.96C377.97,-47.13 342.69,-33.62 316.81,-23.71"/>
<polygon fill="#63b8ff" stroke="#63b8ff" points="318.37,-20.56 307.78,-20.25 315.87,-27.1 318.37,-20.56"/>
</a>
</g>
</g>
<!-- Node22 -->
<g id="Node000022" class="node">
<title>Node22</title>
<g id="a_Node000022"><a xlink:title=" ">
<polygon fill="#e0e0e0" stroke="#999999" points="823.12,-20 780.12,-20 780.12,0 823.12,0 823.12,-20"/>
<text text-anchor="middle" x="801.62" y="-6.5" font-family="Helvetica,sans-Serif" font-size="10.00">vector</text>
</a>
</g>
</g>
<!-- Node12&#45;&gt;Node22 -->
<g id="edge22_Node000012_Node000022" class="edge">
<title>Node12&#45;&gt;Node22</title>
<g id="a_edge22_Node000012_Node000022"><a xlink:title=" ">
<path fill="none" stroke="#63b8ff" d="M448.29,-57.89C451.08,-57.18 453.91,-56.53 456.62,-56 591.38,-29.53 631.57,-47.4 768.85,-20.26"/>
<polygon fill="#63b8ff" stroke="#63b8ff" points="769.19,-23.76 778.3,-18.34 767.8,-16.9 769.19,-23.76"/>
</a>
</g>
</g>
<!-- Node23&#45;&gt;Node7 -->
<g id="edge24_Node000023_Node000007" class="edge">
<title>Node23&#45;&gt;Node7</title>
<g id="a_edge24_Node000023_Node000007"><a xlink:title=" ">
<path fill="none" stroke="#63b8ff" d="M564.78,-117.62C549.86,-108.2 526.61,-93.52 508.99,-82.39"/>
<polygon fill="#63b8ff" stroke="#63b8ff" points="510.97,-79.5 500.64,-77.12 507.23,-85.42 510.97,-79.5"/>
</a>
</g>
</g>
<!-- Node23&#45;&gt;Node12 -->
<g id="edge31_Node000023_Node000012" class="edge">
<title>Node23&#45;&gt;Node12</title>
<g id="a_edge31_Node000023_Node000012"><a xlink:title=" ">
<path fill="none" stroke="#63b8ff" d="M555.41,-117.62C529.51,-107.6 488.23,-91.62 458.98,-80.3"/>
<polygon fill="#63b8ff" stroke="#63b8ff" points="460.42,-77.1 449.83,-76.76 457.89,-83.63 460.42,-77.1"/>
</a>
</g>
</g>
<!-- Node23&#45;&gt;Node14 -->
<g id="edge26_Node000023_Node000014" class="edge">
<title>Node23&#45;&gt;Node14</title>
<g id="a_edge26_Node000023_Node000014"><a xlink:title=" ">
<path fill="none" stroke="#63b8ff" d="M607.23,-117.57C642.27,-105.34 698.89,-84.54 704.62,-76 716.48,-58.36 697.53,-39.36 679.46,-26.49"/>
<polygon fill="#63b8ff" stroke="#63b8ff" points="681.78,-23.83 671.51,-21.2 677.89,-29.66 681.78,-23.83"/>
</a>
</g>
</g>
<!-- Node23&#45;&gt;Node16 -->
<g id="edge29_Node000023_Node000016" class="edge">
<title>Node23&#45;&gt;Node16</title>
<g id="a_edge29_Node000023_Node000016"><a xlink:title=" ">
<path fill="none" stroke="#63b8ff" d="M607.79,-117.53C647.76,-103.99 716.56,-80.26 720.62,-76 732.09,-63.97 736.99,-45.51 739.08,-31.34"/>
<polygon fill="#63b8ff" stroke="#63b8ff" points="742.52,-32.08 740.13,-21.76 735.56,-31.32 742.52,-32.08"/>
</a>
</g>
</g>
<!-- Node23&#45;&gt;Node22 -->
<g id="edge30_Node000023_Node000022" class="edge">
<title>Node23&#45;&gt;Node22</title>
<g id="a_edge30_Node000023_Node000022"><a xlink:title=" ">
<path fill="none" stroke="#63b8ff" d="M609.2,-117.54C614.98,-115.7 620.99,-113.79 626.62,-112 677.27,-95.92 695.65,-104.29 740.62,-76 759.99,-63.81 777.34,-44.02 788.54,-29.47"/>
<polygon fill="#63b8ff" stroke="#63b8ff" points="791.22,-31.73 794.36,-21.61 785.59,-27.57 791.22,-31.73"/>
</a>
</g>
</g>
<!-- Node24 -->
<g id="Node000024" class="node">
<title>Node24</title>
<g id="a_Node000024"><a xlink:title=" ">
<polygon fill="#e0e0e0" stroke="#999999" points="567.25,-76 522,-76 522,-56 567.25,-56 567.25,-76"/>
<text text-anchor="middle" x="544.62" y="-62.5" font-family="Helvetica,sans-Serif" font-size="10.00">atomic</text>
</a>
</g>
</g>
<!-- Node23&#45;&gt;Node24 -->
<g id="edge25_Node000023_Node000024" class="edge">
<title>Node23&#45;&gt;Node24</title>
<g id="a_edge25_Node000023_Node000024"><a xlink:title=" ">
<path fill="none" stroke="#63b8ff" d="M574.16,-117.62C569.19,-109.12 561.73,-96.33 555.55,-85.74"/>
<polygon fill="#63b8ff" stroke="#63b8ff" points="558.76,-84.29 550.7,-77.42 552.72,-87.82 558.76,-84.29"/>
</a>
</g>
</g>
<!-- Node25 -->
<g id="Node000025" class="node">
<title>Node25</title>
<g id="a_Node000025"><a xlink:title=" ">
<polygon fill="#e0e0e0" stroke="#999999" points="643.62,-76 585.62,-76 585.62,-56 643.62,-56 643.62,-76"/>
<text text-anchor="middle" x="614.62" y="-62.5" font-family="Helvetica,sans-Serif" font-size="10.00">functional</text>
</a>
</g>
</g>
<!-- Node23&#45;&gt;Node25 -->
<g id="edge27_Node000023_Node000025" class="edge">
<title>Node23&#45;&gt;Node25</title>
<g id="a_edge27_Node000023_Node000025"><a xlink:title=" ">
<path fill="none" stroke="#63b8ff" d="M585.09,-117.62C590.05,-109.12 597.51,-96.33 603.69,-85.74"/>
<polygon fill="#63b8ff" stroke="#63b8ff" points="606.53,-87.82 608.55,-77.42 600.48,-84.29 606.53,-87.82"/>
</a>
</g>
</g>
<!-- Node26 -->
<g id="Node000026" class="node">
<title>Node26</title>
<g id="a_Node000026"><a xlink:title=" ">
<polygon fill="#e0e0e0" stroke="#999999" points="696,-76 661.25,-76 661.25,-56 696,-56 696,-76"/>
<text text-anchor="middle" x="678.62" y="-62.5" font-family="Helvetica,sans-Serif" font-size="10.00">map</text>
</a>
</g>
</g>
<!-- Node23&#45;&gt;Node26 -->
<g id="edge28_Node000023_Node000026" class="edge">
<title>Node23&#45;&gt;Node26</title>
<g id="a_edge28_Node000023_Node000026"><a xlink:title=" ">
<path fill="none" stroke="#63b8ff" d="M595.09,-117.62C610.71,-108.16 635.1,-93.38 653.49,-82.23"/>
<polygon fill="#63b8ff" stroke="#63b8ff" points="655.23,-85.27 661.97,-77.09 651.6,-79.28 655.23,-85.27"/>
</a>
</g>
</g>
</g>
</svg>
