<?xml version="1.0" encoding="UTF-8" standalone="no"?>
<!DOCTYPE svg PUBLIC "-//W3C//DTD SVG 1.1//EN"
 "http://www.w3.org/Graphics/SVG/1.1/DTD/svg11.dtd">
<!-- Generated by graphviz version 12.2.1 (0)
 -->
<!-- Title: src/platform/windows/nvprefs/nvprefs_common.cpp Pages: 1 -->
<svg width="1446pt" height="208pt"
 viewBox="0.00 0.00 1446.25 208.00" xmlns="http://www.w3.org/2000/svg" xmlns:xlink="http://www.w3.org/1999/xlink">
<g id="graph0" class="graph" transform="scale(1 1) rotate(0) translate(4 204)">
<title>src/platform/windows/nvprefs/nvprefs_common.cpp</title>
<!-- Node1 -->
<g id="Node000001" class="node">
<title>Node1</title>
<g id="a_Node000001"><a xlink:title="Definitions for common nvidia preferences.">
<polygon fill="#999999" stroke="#666666" points="934.88,-200 786.88,-200 786.88,-168 934.88,-168 934.88,-200"/>
<text text-anchor="start" x="794.88" y="-186.5" font-family="Helvetica,sans-Serif" font-size="10.00">src/platform/windows</text>
<text text-anchor="middle" x="860.88" y="-174.5" font-family="Helvetica,sans-Serif" font-size="10.00">/nvprefs/nvprefs_common.cpp</text>
</a>
</g>
</g>
<!-- Node2 -->
<g id="Node000002" class="node">
<title>Node2</title>
<g id="a_Node000002"><a xlink:href="nvprefs__common_8h.html" target="_top" xlink:title="Declarations for common nvidia preferences.">
<polygon fill="white" stroke="#666666" points="466.5,-132 367.25,-132 367.25,-112 466.5,-112 466.5,-132"/>
<text text-anchor="middle" x="416.88" y="-118.5" font-family="Helvetica,sans-Serif" font-size="10.00">nvprefs_common.h</text>
</a>
</g>
</g>
<!-- Node1&#45;&gt;Node2 -->
<g id="edge1_Node000001_Node000002" class="edge">
<title>Node1&#45;&gt;Node2</title>
<g id="a_edge1_Node000001_Node000002"><a xlink:title=" ">
<path fill="none" stroke="#63b8ff" d="M786.56,-172.96C699.91,-161.25 558.33,-142.12 477.85,-131.24"/>
<polygon fill="#63b8ff" stroke="#63b8ff" points="478.79,-127.84 468.41,-129.96 477.85,-134.77 478.79,-127.84"/>
</a>
</g>
</g>
<!-- Node17 -->
<g id="Node000017" class="node">
<title>Node17</title>
<g id="a_Node000017"><a xlink:href="config_8h.html" target="_top" xlink:title="Declarations for the configuration of Sunshine.">
<polygon fill="white" stroke="#666666" points="894.38,-76 827.38,-76 827.38,-56 894.38,-56 894.38,-76"/>
<text text-anchor="middle" x="860.88" y="-62.5" font-family="Helvetica,sans-Serif" font-size="10.00">src/config.h</text>
</a>
</g>
</g>
<!-- Node1&#45;&gt;Node17 -->
<g id="edge16_Node000001_Node000017" class="edge">
<title>Node1&#45;&gt;Node17</title>
<g id="a_edge16_Node000001_Node000017"><a xlink:title=" ">
<path fill="none" stroke="#63b8ff" d="M860.88,-167.84C860.88,-147.41 860.88,-110.97 860.88,-87.95"/>
<polygon fill="#63b8ff" stroke="#63b8ff" points="864.38,-87.95 860.88,-77.95 857.38,-87.95 864.38,-87.95"/>
</a>
</g>
</g>
<!-- Node22 -->
<g id="Node000022" class="node">
<title>Node22</title>
<g id="a_Node000022"><a xlink:href="logging_8h.html" target="_top" xlink:title="Declarations for logging related functions.">
<polygon fill="white" stroke="#666666" points="1181.62,-132 1110.12,-132 1110.12,-112 1181.62,-112 1181.62,-132"/>
<text text-anchor="middle" x="1145.88" y="-118.5" font-family="Helvetica,sans-Serif" font-size="10.00">src/logging.h</text>
</a>
</g>
</g>
<!-- Node1&#45;&gt;Node22 -->
<g id="edge24_Node000001_Node000022" class="edge">
<title>Node1&#45;&gt;Node22</title>
<g id="a_edge24_Node000001_Node000022"><a xlink:title=" ">
<path fill="none" stroke="#63b8ff" d="M934.27,-167.55C986.01,-156.66 1053.78,-142.39 1098.52,-132.97"/>
<polygon fill="#63b8ff" stroke="#63b8ff" points="1099.11,-136.42 1108.17,-130.94 1097.66,-129.57 1099.11,-136.42"/>
</a>
</g>
</g>
<!-- Node3 -->
<g id="Node000003" class="node">
<title>Node3</title>
<g id="a_Node000003"><a xlink:title=" ">
<polygon fill="#e0e0e0" stroke="#999999" points="336.12,-76 273.62,-76 273.62,-56 336.12,-56 336.12,-76"/>
<text text-anchor="middle" x="304.88" y="-62.5" font-family="Helvetica,sans-Serif" font-size="10.00">windows.h</text>
</a>
</g>
</g>
<!-- Node2&#45;&gt;Node3 -->
<g id="edge2_Node000002_Node000003" class="edge">
<title>Node2&#45;&gt;Node3</title>
<g id="a_edge2_Node000002_Node000003"><a xlink:title=" ">
<path fill="none" stroke="#63b8ff" d="M397.37,-111.59C380.13,-103.28 354.72,-91.03 334.89,-81.47"/>
<polygon fill="#63b8ff" stroke="#63b8ff" points="336.43,-78.33 325.9,-77.14 333.39,-84.63 336.43,-78.33"/>
</a>
</g>
</g>
<!-- Node4 -->
<g id="Node000004" class="node">
<title>Node4</title>
<g id="a_Node000004"><a xlink:title=" ">
<polygon fill="#e0e0e0" stroke="#999999" points="403.75,-76 354,-76 354,-56 403.75,-56 403.75,-76"/>
<text text-anchor="middle" x="378.88" y="-62.5" font-family="Helvetica,sans-Serif" font-size="10.00">aclapi.h</text>
</a>
</g>
</g>
<!-- Node2&#45;&gt;Node4 -->
<g id="edge3_Node000002_Node000004" class="edge">
<title>Node2&#45;&gt;Node4</title>
<g id="a_edge3_Node000002_Node000004"><a xlink:title=" ">
<path fill="none" stroke="#63b8ff" d="M410.26,-111.59C405.19,-104.39 398.04,-94.23 391.85,-85.43"/>
<polygon fill="#63b8ff" stroke="#63b8ff" points="394.91,-83.7 386.29,-77.54 389.18,-87.73 394.91,-83.7"/>
</a>
</g>
</g>
<!-- Node5 -->
<g id="Node000005" class="node">
<title>Node5</title>
<g id="a_Node000005"><a xlink:href="utility_8h.html" target="_top" xlink:title="Declarations for utility functions.">
<polygon fill="white" stroke="#666666" points="485.5,-76 422.25,-76 422.25,-56 485.5,-56 485.5,-76"/>
<text text-anchor="middle" x="453.88" y="-62.5" font-family="Helvetica,sans-Serif" font-size="10.00">src/utility.h</text>
</a>
</g>
</g>
<!-- Node2&#45;&gt;Node5 -->
<g id="edge4_Node000002_Node000005" class="edge">
<title>Node2&#45;&gt;Node5</title>
<g id="a_edge4_Node000002_Node000005"><a xlink:title=" ">
<path fill="none" stroke="#63b8ff" d="M423.32,-111.59C428.2,-104.47 435.07,-94.45 441.05,-85.72"/>
<polygon fill="#63b8ff" stroke="#63b8ff" points="443.88,-87.77 446.65,-77.55 438.11,-83.82 443.88,-87.77"/>
</a>
</g>
</g>
<!-- Node6 -->
<g id="Node000006" class="node">
<title>Node6</title>
<g id="a_Node000006"><a xlink:title=" ">
<polygon fill="#e0e0e0" stroke="#999999" points="199.75,-20 144,-20 144,0 199.75,0 199.75,-20"/>
<text text-anchor="middle" x="171.88" y="-6.5" font-family="Helvetica,sans-Serif" font-size="10.00">algorithm</text>
</a>
</g>
</g>
<!-- Node5&#45;&gt;Node6 -->
<g id="edge5_Node000005_Node000006" class="edge">
<title>Node5&#45;&gt;Node6</title>
<g id="a_edge5_Node000005_Node000006"><a xlink:title=" ">
<path fill="none" stroke="#63b8ff" d="M422.12,-57.89C419,-57.24 415.88,-56.59 412.88,-56 326.09,-38.82 300.93,-38.86 211.36,-20.41"/>
<polygon fill="#63b8ff" stroke="#63b8ff" points="212.1,-16.99 201.6,-18.37 210.67,-23.84 212.1,-16.99"/>
</a>
</g>
</g>
<!-- Node7 -->
<g id="Node000007" class="node">
<title>Node7</title>
<g id="a_Node000007"><a xlink:title=" ">
<polygon fill="#e0e0e0" stroke="#999999" points="311.88,-20 217.88,-20 217.88,0 311.88,0 311.88,-20"/>
<text text-anchor="middle" x="264.88" y="-6.5" font-family="Helvetica,sans-Serif" font-size="10.00">condition_variable</text>
</a>
</g>
</g>
<!-- Node5&#45;&gt;Node7 -->
<g id="edge6_Node000005_Node000007" class="edge">
<title>Node5&#45;&gt;Node7</title>
<g id="a_edge6_Node000005_Node000007"><a xlink:title=" ">
<path fill="none" stroke="#63b8ff" d="M421.81,-55.84C390.74,-46.96 343.36,-33.42 308.79,-23.55"/>
<polygon fill="#63b8ff" stroke="#63b8ff" points="310.08,-20.28 299.5,-20.89 308.16,-27.01 310.08,-20.28"/>
</a>
</g>
</g>
<!-- Node8 -->
<g id="Node000008" class="node">
<title>Node8</title>
<g id="a_Node000008"><a xlink:title=" ">
<polygon fill="#e0e0e0" stroke="#999999" points="381.5,-20 330.25,-20 330.25,0 381.5,0 381.5,-20"/>
<text text-anchor="middle" x="355.88" y="-6.5" font-family="Helvetica,sans-Serif" font-size="10.00">memory</text>
</a>
</g>
</g>
<!-- Node5&#45;&gt;Node8 -->
<g id="edge7_Node000005_Node000008" class="edge">
<title>Node5&#45;&gt;Node8</title>
<g id="a_edge7_Node000005_Node000008"><a xlink:title=" ">
<path fill="none" stroke="#63b8ff" d="M436.8,-55.59C422,-47.44 400.31,-35.48 383.11,-26"/>
<polygon fill="#63b8ff" stroke="#63b8ff" points="384.85,-22.97 374.4,-21.21 381.47,-29.1 384.85,-22.97"/>
</a>
</g>
</g>
<!-- Node9 -->
<g id="Node000009" class="node">
<title>Node9</title>
<g id="a_Node000009"><a xlink:title=" ">
<polygon fill="#e0e0e0" stroke="#999999" points="442.38,-20 399.38,-20 399.38,0 442.38,0 442.38,-20"/>
<text text-anchor="middle" x="420.88" y="-6.5" font-family="Helvetica,sans-Serif" font-size="10.00">mutex</text>
</a>
</g>
</g>
<!-- Node5&#45;&gt;Node9 -->
<g id="edge8_Node000005_Node000009" class="edge">
<title>Node5&#45;&gt;Node9</title>
<g id="a_edge8_Node000005_Node000009"><a xlink:title=" ">
<path fill="none" stroke="#63b8ff" d="M448.13,-55.59C443.82,-48.55 437.78,-38.67 432.49,-30"/>
<polygon fill="#63b8ff" stroke="#63b8ff" points="435.55,-28.3 427.35,-21.59 429.57,-31.95 435.55,-28.3"/>
</a>
</g>
</g>
<!-- Node10 -->
<g id="Node000010" class="node">
<title>Node10</title>
<g id="a_Node000010"><a xlink:title=" ">
<polygon fill="#e0e0e0" stroke="#999999" points="662.75,-20 613,-20 613,0 662.75,0 662.75,-20"/>
<text text-anchor="middle" x="637.88" y="-6.5" font-family="Helvetica,sans-Serif" font-size="10.00">optional</text>
</a>
</g>
</g>
<!-- Node5&#45;&gt;Node10 -->
<g id="edge9_Node000005_Node000010" class="edge">
<title>Node5&#45;&gt;Node10</title>
<g id="a_edge9_Node000005_Node000010"><a xlink:title=" ">
<path fill="none" stroke="#63b8ff" d="M485.93,-55.59C518.3,-46.09 568.23,-31.44 601.93,-21.55"/>
<polygon fill="#63b8ff" stroke="#63b8ff" points="602.63,-24.99 611.24,-18.82 600.66,-18.28 602.63,-24.99"/>
</a>
</g>
</g>
<!-- Node11 -->
<g id="Node000011" class="node">
<title>Node11</title>
<g id="a_Node000011"><a xlink:title=" ">
<polygon fill="#e0e0e0" stroke="#999999" points="511.5,-20 460.25,-20 460.25,0 511.5,0 511.5,-20"/>
<text text-anchor="middle" x="485.88" y="-6.5" font-family="Helvetica,sans-Serif" font-size="10.00">ostream</text>
</a>
</g>
</g>
<!-- Node5&#45;&gt;Node11 -->
<g id="edge10_Node000005_Node000011" class="edge">
<title>Node5&#45;&gt;Node11</title>
<g id="a_edge10_Node000005_Node000011"><a xlink:title=" ">
<path fill="none" stroke="#63b8ff" d="M459.45,-55.59C463.62,-48.55 469.48,-38.67 474.62,-30"/>
<polygon fill="#63b8ff" stroke="#63b8ff" points="477.51,-31.99 479.59,-21.6 471.48,-28.42 477.51,-31.99"/>
</a>
</g>
</g>
<!-- Node12 -->
<g id="Node000012" class="node">
<title>Node12</title>
<g id="a_Node000012"><a xlink:title=" ">
<polygon fill="#e0e0e0" stroke="#999999" points="720.88,-20 680.88,-20 680.88,0 720.88,0 720.88,-20"/>
<text text-anchor="middle" x="700.88" y="-6.5" font-family="Helvetica,sans-Serif" font-size="10.00">string</text>
</a>
</g>
</g>
<!-- Node5&#45;&gt;Node12 -->
<g id="edge11_Node000005_Node000012" class="edge">
<title>Node5&#45;&gt;Node12</title>
<g id="a_edge11_Node000005_Node000012"><a xlink:title=" ">
<path fill="none" stroke="#63b8ff" d="M485.87,-59.4C526.48,-52.09 598.87,-38.31 669.76,-20.35"/>
<polygon fill="#63b8ff" stroke="#63b8ff" points="670.38,-23.8 679.2,-17.92 668.64,-17.02 670.38,-23.8"/>
</a>
</g>
</g>
<!-- Node13 -->
<g id="Node000013" class="node">
<title>Node13</title>
<g id="a_Node000013"><a xlink:title=" ">
<polygon fill="#e0e0e0" stroke="#999999" points="594.62,-20 529.12,-20 529.12,0 594.62,0 594.62,-20"/>
<text text-anchor="middle" x="561.88" y="-6.5" font-family="Helvetica,sans-Serif" font-size="10.00">string_view</text>
</a>
</g>
</g>
<!-- Node5&#45;&gt;Node13 -->
<g id="edge12_Node000005_Node000013" class="edge">
<title>Node5&#45;&gt;Node13</title>
<g id="a_edge12_Node000005_Node000013"><a xlink:title=" ">
<path fill="none" stroke="#63b8ff" d="M472.69,-55.59C489.23,-47.32 513.59,-35.14 532.67,-25.6"/>
<polygon fill="#63b8ff" stroke="#63b8ff" points="534.18,-28.76 541.56,-21.16 531.05,-22.5 534.18,-28.76"/>
</a>
</g>
</g>
<!-- Node14 -->
<g id="Node000014" class="node">
<title>Node14</title>
<g id="a_Node000014"><a xlink:title=" ">
<polygon fill="#e0e0e0" stroke="#999999" points="61.75,-20 0,-20 0,0 61.75,0 61.75,-20"/>
<text text-anchor="middle" x="30.88" y="-6.5" font-family="Helvetica,sans-Serif" font-size="10.00">type_traits</text>
</a>
</g>
</g>
<!-- Node5&#45;&gt;Node14 -->
<g id="edge13_Node000005_Node000014" class="edge">
<title>Node5&#45;&gt;Node14</title>
<g id="a_edge13_Node000005_Node000014"><a xlink:title=" ">
<path fill="none" stroke="#63b8ff" d="M422.16,-57.67C419.03,-57.06 415.9,-56.49 412.88,-56 265.54,-32.15 223.64,-44.22 72.86,-20.13"/>
<polygon fill="#63b8ff" stroke="#63b8ff" points="73.74,-16.73 63.31,-18.58 72.62,-23.64 73.74,-16.73"/>
</a>
</g>
</g>
<!-- Node15 -->
<g id="Node000015" class="node">
<title>Node15</title>
<g id="a_Node000015"><a xlink:title=" ">
<polygon fill="#e0e0e0" stroke="#999999" points="125.5,-20 80.25,-20 80.25,0 125.5,0 125.5,-20"/>
<text text-anchor="middle" x="102.88" y="-6.5" font-family="Helvetica,sans-Serif" font-size="10.00">variant</text>
</a>
</g>
</g>
<!-- Node5&#45;&gt;Node15 -->
<g id="edge14_Node000005_Node000015" class="edge">
<title>Node5&#45;&gt;Node15</title>
<g id="a_edge14_Node000005_Node000015"><a xlink:title=" ">
<path fill="none" stroke="#63b8ff" d="M422.14,-57.75C419.02,-57.12 415.89,-56.53 412.88,-56 293.73,-35.25 258.96,-44.35 137.12,-20.17"/>
<polygon fill="#63b8ff" stroke="#63b8ff" points="137.83,-16.75 127.33,-18.19 136.44,-23.61 137.83,-16.75"/>
</a>
</g>
</g>
<!-- Node16 -->
<g id="Node000016" class="node">
<title>Node16</title>
<g id="a_Node000016"><a xlink:title=" ">
<polygon fill="#e0e0e0" stroke="#999999" points="782.38,-20 739.38,-20 739.38,0 782.38,0 782.38,-20"/>
<text text-anchor="middle" x="760.88" y="-6.5" font-family="Helvetica,sans-Serif" font-size="10.00">vector</text>
</a>
</g>
</g>
<!-- Node5&#45;&gt;Node16 -->
<g id="edge15_Node000005_Node000016" class="edge">
<title>Node5&#45;&gt;Node16</title>
<g id="a_edge15_Node000005_Node000016"><a xlink:title=" ">
<path fill="none" stroke="#63b8ff" d="M485.99,-61.05C535.74,-54.65 634.6,-40.84 727.89,-20.21"/>
<polygon fill="#63b8ff" stroke="#63b8ff" points="728.48,-23.66 737.47,-18.05 726.94,-16.83 728.48,-23.66"/>
</a>
</g>
</g>
<!-- Node17&#45;&gt;Node10 -->
<g id="edge19_Node000017_Node000010" class="edge">
<title>Node17&#45;&gt;Node10</title>
<g id="a_edge19_Node000017_Node000010"><a xlink:title=" ">
<path fill="none" stroke="#63b8ff" d="M827.01,-57.21C791.36,-48.94 733.32,-35.32 674.16,-20.53"/>
<polygon fill="#63b8ff" stroke="#63b8ff" points="675.13,-17.16 664.58,-18.12 673.42,-23.95 675.13,-17.16"/>
</a>
</g>
</g>
<!-- Node17&#45;&gt;Node12 -->
<g id="edge20_Node000017_Node000012" class="edge">
<title>Node17&#45;&gt;Node12</title>
<g id="a_edge20_Node000017_Node000012"><a xlink:title=" ">
<path fill="none" stroke="#63b8ff" d="M833.01,-55.59C804.87,-46.1 761.49,-31.46 732.18,-21.57"/>
<polygon fill="#63b8ff" stroke="#63b8ff" points="733.35,-18.27 722.76,-18.38 731.11,-24.9 733.35,-18.27"/>
</a>
</g>
</g>
<!-- Node17&#45;&gt;Node16 -->
<g id="edge22_Node000017_Node000016" class="edge">
<title>Node17&#45;&gt;Node16</title>
<g id="a_edge22_Node000017_Node000016"><a xlink:title=" ">
<path fill="none" stroke="#63b8ff" d="M843.46,-55.59C828.21,-47.36 805.8,-35.26 788.17,-25.74"/>
<polygon fill="#63b8ff" stroke="#63b8ff" points="790.22,-22.87 779.76,-21.2 786.9,-29.03 790.22,-22.87"/>
</a>
</g>
</g>
<!-- Node18 -->
<g id="Node000018" class="node">
<title>Node18</title>
<g id="a_Node000018"><a xlink:title=" ">
<polygon fill="#e0e0e0" stroke="#999999" points="840.88,-20 800.88,-20 800.88,0 840.88,0 840.88,-20"/>
<text text-anchor="middle" x="820.88" y="-6.5" font-family="Helvetica,sans-Serif" font-size="10.00">bitset</text>
</a>
</g>
</g>
<!-- Node17&#45;&gt;Node18 -->
<g id="edge17_Node000017_Node000018" class="edge">
<title>Node17&#45;&gt;Node18</title>
<g id="a_edge17_Node000017_Node000018"><a xlink:title=" ">
<path fill="none" stroke="#63b8ff" d="M853.91,-55.59C848.57,-48.39 841.05,-38.23 834.53,-29.43"/>
<polygon fill="#63b8ff" stroke="#63b8ff" points="837.43,-27.47 828.66,-21.51 831.8,-31.63 837.43,-27.47"/>
</a>
</g>
</g>
<!-- Node19 -->
<g id="Node000019" class="node">
<title>Node19</title>
<g id="a_Node000019"><a xlink:title=" ">
<polygon fill="#e0e0e0" stroke="#999999" points="1133.5,-20 1088.25,-20 1088.25,0 1133.5,0 1133.5,-20"/>
<text text-anchor="middle" x="1110.88" y="-6.5" font-family="Helvetica,sans-Serif" font-size="10.00">chrono</text>
</a>
</g>
</g>
<!-- Node17&#45;&gt;Node19 -->
<g id="edge18_Node000017_Node000019" class="edge">
<title>Node17&#45;&gt;Node19</title>
<g id="a_edge18_Node000017_Node000019"><a xlink:title=" ">
<path fill="none" stroke="#63b8ff" d="M894.83,-58.89C935.85,-51.33 1007.16,-37.57 1076.76,-20.64"/>
<polygon fill="#63b8ff" stroke="#63b8ff" points="1077.56,-24.04 1086.44,-18.25 1075.89,-17.24 1077.56,-24.04"/>
</a>
</g>
</g>
<!-- Node20 -->
<g id="Node000020" class="node">
<title>Node20</title>
<g id="a_Node000020"><a xlink:title=" ">
<polygon fill="#e0e0e0" stroke="#999999" points="941.25,-20 858.5,-20 858.5,0 941.25,0 941.25,-20"/>
<text text-anchor="middle" x="899.88" y="-6.5" font-family="Helvetica,sans-Serif" font-size="10.00">unordered_map</text>
</a>
</g>
</g>
<!-- Node17&#45;&gt;Node20 -->
<g id="edge21_Node000017_Node000020" class="edge">
<title>Node17&#45;&gt;Node20</title>
<g id="a_edge21_Node000017_Node000020"><a xlink:title=" ">
<path fill="none" stroke="#63b8ff" d="M867.67,-55.59C872.87,-48.39 880.21,-38.23 886.56,-29.43"/>
<polygon fill="#63b8ff" stroke="#63b8ff" points="889.26,-31.68 892.27,-21.53 883.58,-27.58 889.26,-31.68"/>
</a>
</g>
</g>
<!-- Node21 -->
<g id="Node000021" class="node">
<title>Node21</title>
<g id="a_Node000021"><a xlink:href="nvenc__config_8h.html" target="_top" xlink:title="Declarations for NVENC encoder configuration.">
<polygon fill="white" stroke="#666666" points="1070.5,-20 959.25,-20 959.25,0 1070.5,0 1070.5,-20"/>
<text text-anchor="middle" x="1014.88" y="-6.5" font-family="Helvetica,sans-Serif" font-size="10.00">nvenc/nvenc_config.h</text>
</a>
</g>
</g>
<!-- Node17&#45;&gt;Node21 -->
<g id="edge23_Node000017_Node000021" class="edge">
<title>Node17&#45;&gt;Node21</title>
<g id="a_edge23_Node000017_Node000021"><a xlink:title=" ">
<path fill="none" stroke="#63b8ff" d="M887.7,-55.59C912.5,-46.9 949.6,-33.89 977.34,-24.16"/>
<polygon fill="#63b8ff" stroke="#63b8ff" points="978.13,-27.59 986.41,-20.98 975.82,-20.99 978.13,-27.59"/>
</a>
</g>
</g>
<!-- Node22&#45;&gt;Node17 -->
<g id="edge27_Node000022_Node000017" class="edge">
<title>Node22&#45;&gt;Node17</title>
<g id="a_edge27_Node000022_Node000017"><a xlink:title=" ">
<path fill="none" stroke="#63b8ff" d="M1109.78,-114.16C1057.79,-104.31 961.9,-86.14 905.53,-75.46"/>
<polygon fill="#63b8ff" stroke="#63b8ff" points="906.43,-72.07 895.95,-73.65 905.13,-78.95 906.43,-72.07"/>
</a>
</g>
</g>
<!-- Node23 -->
<g id="Node000023" class="node">
<title>Node23</title>
<g id="a_Node000023"><a xlink:title=" ">
<polygon fill="#e0e0e0" stroke="#999999" points="1319.38,-76 1204.38,-76 1204.38,-56 1319.38,-56 1319.38,-76"/>
<text text-anchor="middle" x="1261.88" y="-62.5" font-family="Helvetica,sans-Serif" font-size="10.00">boost/log/common.hpp</text>
</a>
</g>
</g>
<!-- Node22&#45;&gt;Node23 -->
<g id="edge25_Node000022_Node000023" class="edge">
<title>Node22&#45;&gt;Node23</title>
<g id="a_edge25_Node000022_Node000023"><a xlink:title=" ">
<path fill="none" stroke="#63b8ff" d="M1166.08,-111.59C1184.1,-103.21 1210.74,-90.8 1231.36,-81.21"/>
<polygon fill="#63b8ff" stroke="#63b8ff" points="1232.55,-84.51 1240.14,-77.12 1229.6,-78.17 1232.55,-84.51"/>
</a>
</g>
</g>
<!-- Node24 -->
<g id="Node000024" class="node">
<title>Node24</title>
<g id="a_Node000024"><a xlink:title=" ">
<polygon fill="#e0e0e0" stroke="#999999" points="1438.25,-76 1337.5,-76 1337.5,-56 1438.25,-56 1438.25,-76"/>
<text text-anchor="middle" x="1387.88" y="-62.5" font-family="Helvetica,sans-Serif" font-size="10.00">boost/log/sinks.hpp</text>
</a>
</g>
</g>
<!-- Node22&#45;&gt;Node24 -->
<g id="edge26_Node000022_Node000024" class="edge">
<title>Node22&#45;&gt;Node24</title>
<g id="a_edge26_Node000022_Node000024"><a xlink:title=" ">
<path fill="none" stroke="#63b8ff" d="M1182.1,-112.92C1222.55,-103.89 1288.38,-89.2 1334.67,-78.87"/>
<polygon fill="#63b8ff" stroke="#63b8ff" points="1335.22,-82.34 1344.21,-76.74 1333.69,-75.5 1335.22,-82.34"/>
</a>
</g>
</g>
<!-- Node25 -->
<g id="Node000025" class="node">
<title>Node25</title>
<g id="a_Node000025"><a xlink:href="stat__trackers_8h.html" target="_top" xlink:title="Declarations for streaming statistic tracking.">
<polygon fill="white" stroke="#666666" points="1186.5,-76 1105.25,-76 1105.25,-56 1186.5,-56 1186.5,-76"/>
<text text-anchor="middle" x="1145.88" y="-62.5" font-family="Helvetica,sans-Serif" font-size="10.00">stat_trackers.h</text>
</a>
</g>
</g>
<!-- Node22&#45;&gt;Node25 -->
<g id="edge28_Node000022_Node000025" class="edge">
<title>Node22&#45;&gt;Node25</title>
<g id="a_edge28_Node000022_Node000025"><a xlink:title=" ">
<path fill="none" stroke="#63b8ff" d="M1145.88,-111.59C1145.88,-105.01 1145.88,-95.96 1145.88,-87.73"/>
<polygon fill="#63b8ff" stroke="#63b8ff" points="1149.38,-87.81 1145.88,-77.81 1142.38,-87.81 1149.38,-87.81"/>
</a>
</g>
</g>
<!-- Node25&#45;&gt;Node19 -->
<g id="edge29_Node000025_Node000019" class="edge">
<title>Node25&#45;&gt;Node19</title>
<g id="a_edge29_Node000025_Node000019"><a xlink:title=" ">
<path fill="none" stroke="#63b8ff" d="M1139.78,-55.59C1135.16,-48.47 1128.67,-38.45 1123.01,-29.72"/>
<polygon fill="#63b8ff" stroke="#63b8ff" points="1126.1,-28.06 1117.72,-21.57 1120.23,-31.86 1126.1,-28.06"/>
</a>
</g>
</g>
<!-- Node26 -->
<g id="Node000026" class="node">
<title>Node26</title>
<g id="a_Node000026"><a xlink:title=" ">
<polygon fill="#e0e0e0" stroke="#999999" points="1209.88,-20 1151.88,-20 1151.88,0 1209.88,0 1209.88,-20"/>
<text text-anchor="middle" x="1180.88" y="-6.5" font-family="Helvetica,sans-Serif" font-size="10.00">functional</text>
</a>
</g>
</g>
<!-- Node25&#45;&gt;Node26 -->
<g id="edge30_Node000025_Node000026" class="edge">
<title>Node25&#45;&gt;Node26</title>
<g id="a_edge30_Node000025_Node000026"><a xlink:title=" ">
<path fill="none" stroke="#63b8ff" d="M1151.97,-55.59C1156.59,-48.47 1163.08,-38.45 1168.74,-29.72"/>
<polygon fill="#63b8ff" stroke="#63b8ff" points="1171.52,-31.86 1174.03,-21.57 1165.65,-28.06 1171.52,-31.86"/>
</a>
</g>
</g>
<!-- Node27 -->
<g id="Node000027" class="node">
<title>Node27</title>
<g id="a_Node000027"><a xlink:title=" ">
<polygon fill="#e0e0e0" stroke="#999999" points="1267.5,-20 1228.25,-20 1228.25,0 1267.5,0 1267.5,-20"/>
<text text-anchor="middle" x="1247.88" y="-6.5" font-family="Helvetica,sans-Serif" font-size="10.00">limits</text>
</a>
</g>
</g>
<!-- Node25&#45;&gt;Node27 -->
<g id="edge31_Node000025_Node000027" class="edge">
<title>Node25&#45;&gt;Node27</title>
<g id="a_edge31_Node000025_Node000027"><a xlink:title=" ">
<path fill="none" stroke="#63b8ff" d="M1163.64,-55.59C1179.2,-47.36 1202.06,-35.26 1220.04,-25.74"/>
<polygon fill="#63b8ff" stroke="#63b8ff" points="1221.43,-28.96 1228.63,-21.19 1218.16,-22.77 1221.43,-28.96"/>
</a>
</g>
</g>
<!-- Node28 -->
<g id="Node000028" class="node">
<title>Node28</title>
<g id="a_Node000028"><a xlink:title=" ">
<polygon fill="#e0e0e0" stroke="#999999" points="1374.62,-20 1285.12,-20 1285.12,0 1374.62,0 1374.62,-20"/>
<text text-anchor="middle" x="1329.88" y="-6.5" font-family="Helvetica,sans-Serif" font-size="10.00">boost/format.hpp</text>
</a>
</g>
</g>
<!-- Node25&#45;&gt;Node28 -->
<g id="edge32_Node000025_Node000028" class="edge">
<title>Node25&#45;&gt;Node28</title>
<g id="a_edge32_Node000025_Node000028"><a xlink:title=" ">
<path fill="none" stroke="#63b8ff" d="M1177.93,-55.59C1208.08,-46.74 1253.46,-33.43 1286.78,-23.65"/>
<polygon fill="#63b8ff" stroke="#63b8ff" points="1287.51,-27.08 1296.12,-20.91 1285.54,-20.36 1287.51,-27.08"/>
</a>
</g>
</g>
</g>
</svg>
