<?xml version="1.0" encoding="UTF-8" standalone="no"?>
<!DOCTYPE svg PUBLIC "-//W3C//DTD SVG 1.1//EN"
 "http://www.w3.org/Graphics/SVG/1.1/DTD/svg11.dtd">
<!-- Generated by graphviz version 12.2.1 (0)
 -->
<!-- Title: src/platform/windows/nvprefs/nvprefs_common.h Pages: 1 -->
<!--zoomable 188 -->

<svg id="main" version="1.1" xmlns="http://www.w3.org/2000/svg" xmlns:xlink="http://www.w3.org/1999/xlink" xml:space="preserve" onload="init(evt)">

<style type="text/css"><![CDATA[
.node, .edge {opacity: 0.7;}
.node.selected, .edge.selected {opacity: 1;}
.edge:hover path { stroke: red; }
.edge:hover polygon { stroke: red; fill: red; }
]]></style>

<defs>
  <circle id="rim" cx="0" cy="0" r="7"/>
  <circle id="rim2" cx="0" cy="0" r="3.5"/>
  <g id="zoomPlus">
    <use xlink:href="#rim" fill="#404040"><set attributeName="fill" to="#808080" begin="zoomplus.mouseover" end="zoomplus.mouseout"/></use>
    <path d="M-4,0h8M0,-4v8" fill="none" stroke="white" stroke-width="1.5" pointer-events="none"/>
  </g>
  <g id="zoomMin">
    <use xlink:href="#rim" fill="#404040"><set attributeName="fill" to="#808080" begin="zoomminus.mouseover" end="zoomminus.mouseout"/></use>
    <path d="M-4,0h8" fill="none" stroke="white" stroke-width="1.5" pointer-events="none"/>
  </g>
  <g id="arrowUp" transform="translate(30 24)">
    <use xlink:href="#rim"/>
    <path pointer-events="none" fill="none" stroke="white" stroke-width="1.5" d="M0,-3.0v7 M-2.5,-0.5L0,-3.0L2.5,-0.5"/>
  </g>
  <g id="arrowRight" transform="rotate(90) translate(36 -43)">
    <use xlink:href="#rim"/>
    <path pointer-events="none" fill="none" stroke="white" stroke-width="1.5" d="M0,-3.0v7 M-2.5,-0.5L0,-3.0L2.5,-0.5"/>
  </g>
  <g id="arrowDown" transform="rotate(180) translate(-30 -48)">
    <use xlink:href="#rim"/>
    <path pointer-events="none" fill="none" stroke="white" stroke-width="1.5" d="M0,-3.0v7 M-2.5,-0.5L0,-3.0L2.5,-0.5"/>
  </g>
  <g id="arrowLeft" transform="rotate(270) translate(-36 17)">
    <use xlink:href="#rim"/>
    <path pointer-events="none" fill="none" stroke="white" stroke-width="1.5" d="M0,-3.0v7 M-2.5,-0.5L0,-3.0L2.5,-0.5"/>
  </g>
  <g id="resetDef">
    <use xlink:href="#rim2" fill="#404040"><set attributeName="fill" to="#808080" begin="reset.mouseover" end="reset.mouseout"/></use>
  </g>
</defs>
<script type="application/ecmascript">
var viewWidth = 801;
var viewHeight = 188;
var sectionId = 'dynsection-1';
</script>
<script type="application/ecmascript" xlink:href="svg.min.js"/>
<svg id="graph" class="graph">
<g id="viewport">
<title>src/platform/windows/nvprefs/nvprefs_common.h</title>
<!-- Node1 -->
<g id="Node000001" class="node">
<title>Node1</title>
<g id="a_Node000001"><a xlink:title="Declarations for common nvidia preferences.">
<polygon fill="#999999" stroke="#666666" points="449.12,-180 311.62,-180 311.62,-148 449.12,-148 449.12,-180"/>
<text text-anchor="start" x="319.62" y="-166.5" font-family="Helvetica,sans-Serif" font-size="10.00">src/platform/windows</text>
<text text-anchor="middle" x="380.38" y="-154.5" font-family="Helvetica,sans-Serif" font-size="10.00">/nvprefs/nvprefs_common.h</text>
</a>
</g>
</g>
<!-- Node2 -->
<g id="Node000002" class="node">
<title>Node2</title>
<g id="a_Node000002"><a xlink:href="driver__settings_8cpp.html" target="_top" xlink:title="Definitions for nvidia driver settings.">
<polygon fill="white" stroke="#666666" points="136.75,-106 0,-106 0,-74 136.75,-74 136.75,-106"/>
<text text-anchor="start" x="8" y="-92.5" font-family="Helvetica,sans-Serif" font-size="10.00">src/platform/windows</text>
<text text-anchor="middle" x="68.38" y="-80.5" font-family="Helvetica,sans-Serif" font-size="10.00">/nvprefs/driver_settings.cpp</text>
</a>
</g>
</g>
<!-- Node1&#45;&gt;Node2 -->
<g id="edge1_Node000001_Node000002" class="edge">
<title>Node1&#45;&gt;Node2</title>
<g id="a_edge1_Node000001_Node000002"><a xlink:title=" ">
<path fill="none" stroke="#63b8ff" d="M300.08,-146.5C254.82,-136.95 197.3,-124.4 146.38,-112 139.29,-110.28 131.86,-108.38 124.53,-106.47"/>
<polygon fill="#63b8ff" stroke="#63b8ff" points="299.33,-149.92 309.84,-148.55 300.77,-143.07 299.33,-149.92"/>
</a>
</g>
</g>
<!-- Node3 -->
<g id="Node000003" class="node">
<title>Node3</title>
<g id="a_Node000003"><a xlink:href="nvapi__opensource__wrapper_8cpp.html" target="_top" xlink:title="Definitions for the NVAPI wrapper.">
<polygon fill="white" stroke="#666666" points="287.88,-112 154.88,-112 154.88,-68 287.88,-68 287.88,-112"/>
<text text-anchor="start" x="162.88" y="-98.5" font-family="Helvetica,sans-Serif" font-size="10.00">src/platform/windows</text>
<text text-anchor="start" x="162.88" y="-86.5" font-family="Helvetica,sans-Serif" font-size="10.00">/nvprefs/nvapi_opensource</text>
<text text-anchor="middle" x="221.38" y="-74.5" font-family="Helvetica,sans-Serif" font-size="10.00">_wrapper.cpp</text>
</a>
</g>
</g>
<!-- Node1&#45;&gt;Node3 -->
<g id="edge2_Node000001_Node000003" class="edge">
<title>Node1&#45;&gt;Node3</title>
<g id="a_edge2_Node000001_Node000003"><a xlink:title=" ">
<path fill="none" stroke="#63b8ff" d="M336.03,-142.92C315.07,-133.43 290.02,-122.09 268.7,-112.43"/>
<polygon fill="#63b8ff" stroke="#63b8ff" points="334.33,-145.99 344.89,-146.93 337.22,-139.62 334.33,-145.99"/>
</a>
</g>
</g>
<!-- Node4 -->
<g id="Node000004" class="node">
<title>Node4</title>
<g id="a_Node000004"><a xlink:href="nvprefs__common_8cpp.html" target="_top" xlink:title="Definitions for common nvidia preferences.">
<polygon fill="white" stroke="#666666" points="454.38,-106 306.38,-106 306.38,-74 454.38,-74 454.38,-106"/>
<text text-anchor="start" x="314.38" y="-92.5" font-family="Helvetica,sans-Serif" font-size="10.00">src/platform/windows</text>
<text text-anchor="middle" x="380.38" y="-80.5" font-family="Helvetica,sans-Serif" font-size="10.00">/nvprefs/nvprefs_common.cpp</text>
</a>
</g>
</g>
<!-- Node1&#45;&gt;Node4 -->
<g id="edge3_Node000001_Node000004" class="edge">
<title>Node1&#45;&gt;Node4</title>
<g id="a_edge3_Node000001_Node000004"><a xlink:title=" ">
<path fill="none" stroke="#63b8ff" d="M380.38,-136.49C380.38,-126.3 380.38,-115.03 380.38,-106.25"/>
<polygon fill="#63b8ff" stroke="#63b8ff" points="376.88,-136.22 380.38,-146.22 383.88,-136.22 376.88,-136.22"/>
</a>
</g>
</g>
<!-- Node5 -->
<g id="Node000005" class="node">
<title>Node5</title>
<g id="a_Node000005"><a xlink:href="undo__data_8cpp.html" target="_top" xlink:title="Definitions for undoing changes to nvidia preferences.">
<polygon fill="white" stroke="#666666" points="590.38,-106 472.38,-106 472.38,-74 590.38,-74 590.38,-106"/>
<text text-anchor="start" x="480.38" y="-92.5" font-family="Helvetica,sans-Serif" font-size="10.00">src/platform/windows</text>
<text text-anchor="middle" x="531.38" y="-80.5" font-family="Helvetica,sans-Serif" font-size="10.00">/nvprefs/undo_data.cpp</text>
</a>
</g>
</g>
<!-- Node1&#45;&gt;Node5 -->
<g id="edge4_Node000001_Node000005" class="edge">
<title>Node1&#45;&gt;Node5</title>
<g id="a_edge4_Node000001_Node000005"><a xlink:title=" ">
<path fill="none" stroke="#63b8ff" d="M423.07,-142.64C447.19,-131.14 476.85,-117 499.04,-106.42"/>
<polygon fill="#63b8ff" stroke="#63b8ff" points="421.65,-139.44 414.13,-146.9 424.67,-145.76 421.65,-139.44"/>
</a>
</g>
</g>
<!-- Node6 -->
<g id="Node000006" class="node">
<title>Node6</title>
<g id="a_Node000006"><a xlink:href="undo__file_8h.html" target="_top" xlink:title="Declarations for the nvidia undo file.">
<polygon fill="white" stroke="#666666" points="717.88,-106 608.88,-106 608.88,-74 717.88,-74 717.88,-106"/>
<text text-anchor="start" x="616.88" y="-92.5" font-family="Helvetica,sans-Serif" font-size="10.00">src/platform/windows</text>
<text text-anchor="middle" x="663.38" y="-80.5" font-family="Helvetica,sans-Serif" font-size="10.00">/nvprefs/undo_file.h</text>
</a>
</g>
</g>
<!-- Node1&#45;&gt;Node6 -->
<g id="edge5_Node000001_Node000006" class="edge">
<title>Node1&#45;&gt;Node6</title>
<g id="a_edge5_Node000001_Node000006"><a xlink:title=" ">
<path fill="none" stroke="#63b8ff" d="M460.52,-146.12C502.16,-136.9 553.75,-124.77 599.38,-112 605.46,-110.3 611.82,-108.38 618.08,-106.41"/>
<polygon fill="#63b8ff" stroke="#63b8ff" points="459.82,-142.69 450.8,-148.25 461.32,-149.52 459.82,-142.69"/>
</a>
</g>
</g>
<!-- Node7 -->
<g id="Node000007" class="node">
<title>Node7</title>
<g id="a_Node000007"><a xlink:href="nvprefs__interface_8cpp.html" target="_top" xlink:title="Definitions for nvidia preferences interface.">
<polygon fill="white" stroke="#666666" points="663.38,-32 515.38,-32 515.38,0 663.38,0 663.38,-32"/>
<text text-anchor="start" x="523.38" y="-18.5" font-family="Helvetica,sans-Serif" font-size="10.00">src/platform/windows</text>
<text text-anchor="middle" x="589.38" y="-6.5" font-family="Helvetica,sans-Serif" font-size="10.00">/nvprefs/nvprefs_interface.cpp</text>
</a>
</g>
</g>
<!-- Node6&#45;&gt;Node7 -->
<g id="edge6_Node000006_Node000007" class="edge">
<title>Node6&#45;&gt;Node7</title>
<g id="a_edge6_Node000006_Node000007"><a xlink:title=" ">
<path fill="none" stroke="#63b8ff" d="M639.56,-65.82C628.35,-54.92 615.29,-42.21 605.3,-32.5"/>
<polygon fill="#63b8ff" stroke="#63b8ff" points="636.99,-68.21 646.6,-72.68 641.87,-63.19 636.99,-68.21"/>
</a>
</g>
</g>
<!-- Node8 -->
<g id="Node000008" class="node">
<title>Node8</title>
<g id="a_Node000008"><a xlink:href="undo__file_8cpp.html" target="_top" xlink:title="Definitions for the nvidia undo file.">
<polygon fill="white" stroke="#666666" points="793.38,-32 681.38,-32 681.38,0 793.38,0 793.38,-32"/>
<text text-anchor="start" x="689.38" y="-18.5" font-family="Helvetica,sans-Serif" font-size="10.00">src/platform/windows</text>
<text text-anchor="middle" x="737.38" y="-6.5" font-family="Helvetica,sans-Serif" font-size="10.00">/nvprefs/undo_file.cpp</text>
</a>
</g>
</g>
<!-- Node6&#45;&gt;Node8 -->
<g id="edge7_Node000006_Node000008" class="edge">
<title>Node6&#45;&gt;Node8</title>
<g id="a_edge7_Node000006_Node000008"><a xlink:title=" ">
<path fill="none" stroke="#63b8ff" d="M687.19,-65.82C698.4,-54.92 711.46,-42.21 721.45,-32.5"/>
<polygon fill="#63b8ff" stroke="#63b8ff" points="684.88,-63.19 680.15,-72.68 689.76,-68.21 684.88,-63.19"/>
</a>
</g>
</g>
</g>
</svg>

<g id="navigator" transform="translate(0 0)" fill="#404254">
  <rect fill="#f2f5e9" fill-opacity="0.5" stroke="#606060" stroke-width=".5" x="0" y="0" width="60" height="60"/>
  <use id="zoomplus" xlink:href="#zoomPlus" x="17" y="9" onmousedown="handleZoom(evt,'in')"/>
  <use id="zoomminus" xlink:href="#zoomMin" x="42" y="9" onmousedown="handleZoom(evt,'out')"/>
  <use id="reset" xlink:href="#resetDef" x="30" y="36" onmousedown="handleReset()"/>
   <use id="arrowup" xlink:href="#arrowUp" x="0" y="0" onmousedown="handlePan(0,-1)"/>
  <use id="arrowright" xlink:href="#arrowRight" x="0" y="0" onmousedown="handlePan(1,0)"/>
  <use id="arrowdown" xlink:href="#arrowDown" x="0" y="0" onmousedown="handlePan(0,1)"/>
  <use id="arrowleft" xlink:href="#arrowLeft" x="0" y="0" onmousedown="handlePan(-1,0)"/>
</g>
<svg viewBox="0 0 15 15" width="100%" height="30px" preserveAspectRatio="xMaxYMin meet">
 <g id="arrow_out" transform="scale(0.3 0.3)">
  <a xlink:href="nvprefs__common_8h__dep__incl_org.svg" target="_base">
   <rect id="button" ry="5" rx="5" y="6" x="6" height="38" width="38"
        fill="#f2f5e9" fill-opacity="0.5" stroke="#606060" stroke-width="1.0"/>
   <path id="arrow"
     d="M 11.500037,31.436501 C 11.940474,20.09759 22.043105,11.32322 32.158766,21.979434 L 37.068811,17.246167 C 37.068811,17.246167 37.088388,32 37.088388,32 L 22.160133,31.978069 C 22.160133,31.978069 26.997745,27.140456 26.997745,27.140456 C 18.528582,18.264221 13.291696,25.230495 11.500037,31.436501 z"
     style="fill:#404040;"/>
  </a>
 </g>
</svg>

<style type='text/css'>
<![CDATA[
[data-mouse-over-selected='false'] { opacity: 0.7; }
[data-mouse-over-selected='true']  { opacity: 1.0; }
]]>
</style>
<script type="application/ecmascript"><![CDATA[
document.addEventListener('DOMContentLoaded', (event) => {
  highlightEdges();
  highlightAdjacentNodes();
});
]]></script>
</svg>
