<?xml version="1.0" encoding="UTF-8" standalone="no"?>
<!DOCTYPE svg PUBLIC "-//W3C//DTD SVG 1.1//EN"
 "http://www.w3.org/Graphics/SVG/1.1/DTD/svg11.dtd">
<!-- Generated by graphviz version 12.2.1 (0)
 -->
<!-- Title: src/platform/windows/nvprefs/nvprefs_common.h Pages: 1 -->
<svg width="801pt" height="188pt"
 viewBox="0.00 0.00 801.38 188.00" xmlns="http://www.w3.org/2000/svg" xmlns:xlink="http://www.w3.org/1999/xlink">
<g id="graph0" class="graph" transform="scale(1 1) rotate(0) translate(4 184)">
<title>src/platform/windows/nvprefs/nvprefs_common.h</title>
<!-- Node1 -->
<g id="Node000001" class="node">
<title>Node1</title>
<g id="a_Node000001"><a xlink:title="Declarations for common nvidia preferences.">
<polygon fill="#999999" stroke="#666666" points="449.12,-180 311.62,-180 311.62,-148 449.12,-148 449.12,-180"/>
<text text-anchor="start" x="319.62" y="-166.5" font-family="Helvetica,sans-Serif" font-size="10.00">src/platform/windows</text>
<text text-anchor="middle" x="380.38" y="-154.5" font-family="Helvetica,sans-Serif" font-size="10.00">/nvprefs/nvprefs_common.h</text>
</a>
</g>
</g>
<!-- Node2 -->
<g id="Node000002" class="node">
<title>Node2</title>
<g id="a_Node000002"><a xlink:href="driver__settings_8cpp.html" target="_top" xlink:title="Definitions for nvidia driver settings.">
<polygon fill="white" stroke="#666666" points="136.75,-106 0,-106 0,-74 136.75,-74 136.75,-106"/>
<text text-anchor="start" x="8" y="-92.5" font-family="Helvetica,sans-Serif" font-size="10.00">src/platform/windows</text>
<text text-anchor="middle" x="68.38" y="-80.5" font-family="Helvetica,sans-Serif" font-size="10.00">/nvprefs/driver_settings.cpp</text>
</a>
</g>
</g>
<!-- Node1&#45;&gt;Node2 -->
<g id="edge1_Node000001_Node000002" class="edge">
<title>Node1&#45;&gt;Node2</title>
<g id="a_edge1_Node000001_Node000002"><a xlink:title=" ">
<path fill="none" stroke="#63b8ff" d="M300.08,-146.5C254.82,-136.95 197.3,-124.4 146.38,-112 139.29,-110.28 131.86,-108.38 124.53,-106.47"/>
<polygon fill="#63b8ff" stroke="#63b8ff" points="299.33,-149.92 309.84,-148.55 300.77,-143.07 299.33,-149.92"/>
</a>
</g>
</g>
<!-- Node3 -->
<g id="Node000003" class="node">
<title>Node3</title>
<g id="a_Node000003"><a xlink:href="nvapi__opensource__wrapper_8cpp.html" target="_top" xlink:title="Definitions for the NVAPI wrapper.">
<polygon fill="white" stroke="#666666" points="287.88,-112 154.88,-112 154.88,-68 287.88,-68 287.88,-112"/>
<text text-anchor="start" x="162.88" y="-98.5" font-family="Helvetica,sans-Serif" font-size="10.00">src/platform/windows</text>
<text text-anchor="start" x="162.88" y="-86.5" font-family="Helvetica,sans-Serif" font-size="10.00">/nvprefs/nvapi_opensource</text>
<text text-anchor="middle" x="221.38" y="-74.5" font-family="Helvetica,sans-Serif" font-size="10.00">_wrapper.cpp</text>
</a>
</g>
</g>
<!-- Node1&#45;&gt;Node3 -->
<g id="edge2_Node000001_Node000003" class="edge">
<title>Node1&#45;&gt;Node3</title>
<g id="a_edge2_Node000001_Node000003"><a xlink:title=" ">
<path fill="none" stroke="#63b8ff" d="M336.03,-142.92C315.07,-133.43 290.02,-122.09 268.7,-112.43"/>
<polygon fill="#63b8ff" stroke="#63b8ff" points="334.33,-145.99 344.89,-146.93 337.22,-139.62 334.33,-145.99"/>
</a>
</g>
</g>
<!-- Node4 -->
<g id="Node000004" class="node">
<title>Node4</title>
<g id="a_Node000004"><a xlink:href="nvprefs__common_8cpp.html" target="_top" xlink:title="Definitions for common nvidia preferences.">
<polygon fill="white" stroke="#666666" points="454.38,-106 306.38,-106 306.38,-74 454.38,-74 454.38,-106"/>
<text text-anchor="start" x="314.38" y="-92.5" font-family="Helvetica,sans-Serif" font-size="10.00">src/platform/windows</text>
<text text-anchor="middle" x="380.38" y="-80.5" font-family="Helvetica,sans-Serif" font-size="10.00">/nvprefs/nvprefs_common.cpp</text>
</a>
</g>
</g>
<!-- Node1&#45;&gt;Node4 -->
<g id="edge3_Node000001_Node000004" class="edge">
<title>Node1&#45;&gt;Node4</title>
<g id="a_edge3_Node000001_Node000004"><a xlink:title=" ">
<path fill="none" stroke="#63b8ff" d="M380.38,-136.49C380.38,-126.3 380.38,-115.03 380.38,-106.25"/>
<polygon fill="#63b8ff" stroke="#63b8ff" points="376.88,-136.22 380.38,-146.22 383.88,-136.22 376.88,-136.22"/>
</a>
</g>
</g>
<!-- Node5 -->
<g id="Node000005" class="node">
<title>Node5</title>
<g id="a_Node000005"><a xlink:href="undo__data_8cpp.html" target="_top" xlink:title="Definitions for undoing changes to nvidia preferences.">
<polygon fill="white" stroke="#666666" points="590.38,-106 472.38,-106 472.38,-74 590.38,-74 590.38,-106"/>
<text text-anchor="start" x="480.38" y="-92.5" font-family="Helvetica,sans-Serif" font-size="10.00">src/platform/windows</text>
<text text-anchor="middle" x="531.38" y="-80.5" font-family="Helvetica,sans-Serif" font-size="10.00">/nvprefs/undo_data.cpp</text>
</a>
</g>
</g>
<!-- Node1&#45;&gt;Node5 -->
<g id="edge4_Node000001_Node000005" class="edge">
<title>Node1&#45;&gt;Node5</title>
<g id="a_edge4_Node000001_Node000005"><a xlink:title=" ">
<path fill="none" stroke="#63b8ff" d="M423.07,-142.64C447.19,-131.14 476.85,-117 499.04,-106.42"/>
<polygon fill="#63b8ff" stroke="#63b8ff" points="421.65,-139.44 414.13,-146.9 424.67,-145.76 421.65,-139.44"/>
</a>
</g>
</g>
<!-- Node6 -->
<g id="Node000006" class="node">
<title>Node6</title>
<g id="a_Node000006"><a xlink:href="undo__file_8h.html" target="_top" xlink:title="Declarations for the nvidia undo file.">
<polygon fill="white" stroke="#666666" points="717.88,-106 608.88,-106 608.88,-74 717.88,-74 717.88,-106"/>
<text text-anchor="start" x="616.88" y="-92.5" font-family="Helvetica,sans-Serif" font-size="10.00">src/platform/windows</text>
<text text-anchor="middle" x="663.38" y="-80.5" font-family="Helvetica,sans-Serif" font-size="10.00">/nvprefs/undo_file.h</text>
</a>
</g>
</g>
<!-- Node1&#45;&gt;Node6 -->
<g id="edge5_Node000001_Node000006" class="edge">
<title>Node1&#45;&gt;Node6</title>
<g id="a_edge5_Node000001_Node000006"><a xlink:title=" ">
<path fill="none" stroke="#63b8ff" d="M460.52,-146.12C502.16,-136.9 553.75,-124.77 599.38,-112 605.46,-110.3 611.82,-108.38 618.08,-106.41"/>
<polygon fill="#63b8ff" stroke="#63b8ff" points="459.82,-142.69 450.8,-148.25 461.32,-149.52 459.82,-142.69"/>
</a>
</g>
</g>
<!-- Node7 -->
<g id="Node000007" class="node">
<title>Node7</title>
<g id="a_Node000007"><a xlink:href="nvprefs__interface_8cpp.html" target="_top" xlink:title="Definitions for nvidia preferences interface.">
<polygon fill="white" stroke="#666666" points="663.38,-32 515.38,-32 515.38,0 663.38,0 663.38,-32"/>
<text text-anchor="start" x="523.38" y="-18.5" font-family="Helvetica,sans-Serif" font-size="10.00">src/platform/windows</text>
<text text-anchor="middle" x="589.38" y="-6.5" font-family="Helvetica,sans-Serif" font-size="10.00">/nvprefs/nvprefs_interface.cpp</text>
</a>
</g>
</g>
<!-- Node6&#45;&gt;Node7 -->
<g id="edge6_Node000006_Node000007" class="edge">
<title>Node6&#45;&gt;Node7</title>
<g id="a_edge6_Node000006_Node000007"><a xlink:title=" ">
<path fill="none" stroke="#63b8ff" d="M639.56,-65.82C628.35,-54.92 615.29,-42.21 605.3,-32.5"/>
<polygon fill="#63b8ff" stroke="#63b8ff" points="636.99,-68.21 646.6,-72.68 641.87,-63.19 636.99,-68.21"/>
</a>
</g>
</g>
<!-- Node8 -->
<g id="Node000008" class="node">
<title>Node8</title>
<g id="a_Node000008"><a xlink:href="undo__file_8cpp.html" target="_top" xlink:title="Definitions for the nvidia undo file.">
<polygon fill="white" stroke="#666666" points="793.38,-32 681.38,-32 681.38,0 793.38,0 793.38,-32"/>
<text text-anchor="start" x="689.38" y="-18.5" font-family="Helvetica,sans-Serif" font-size="10.00">src/platform/windows</text>
<text text-anchor="middle" x="737.38" y="-6.5" font-family="Helvetica,sans-Serif" font-size="10.00">/nvprefs/undo_file.cpp</text>
</a>
</g>
</g>
<!-- Node6&#45;&gt;Node8 -->
<g id="edge7_Node000006_Node000008" class="edge">
<title>Node6&#45;&gt;Node8</title>
<g id="a_edge7_Node000006_Node000008"><a xlink:title=" ">
<path fill="none" stroke="#63b8ff" d="M687.19,-65.82C698.4,-54.92 711.46,-42.21 721.45,-32.5"/>
<polygon fill="#63b8ff" stroke="#63b8ff" points="684.88,-63.19 680.15,-72.68 689.76,-68.21 684.88,-63.19"/>
</a>
</g>
</g>
</g>
</svg>
