<?xml version="1.0" encoding="UTF-8" standalone="no"?>
<!DOCTYPE svg PUBLIC "-//W3C//DTD SVG 1.1//EN"
 "http://www.w3.org/Graphics/SVG/1.1/DTD/svg11.dtd">
<!-- Generated by graphviz version 12.2.1 (0)
 -->
<!-- Title: src/platform/windows/nvprefs/nvprefs_interface.cpp Pages: 1 -->
<!--zoomable 264 -->

<svg id="main" version="1.1" xmlns="http://www.w3.org/2000/svg" xmlns:xlink="http://www.w3.org/1999/xlink" xml:space="preserve" onload="init(evt)">

<style type="text/css"><![CDATA[
.node, .edge {opacity: 0.7;}
.node.selected, .edge.selected {opacity: 1;}
.edge:hover path { stroke: red; }
.edge:hover polygon { stroke: red; fill: red; }
]]></style>

<defs>
  <circle id="rim" cx="0" cy="0" r="7"/>
  <circle id="rim2" cx="0" cy="0" r="3.5"/>
  <g id="zoomPlus">
    <use xlink:href="#rim" fill="#404040"><set attributeName="fill" to="#808080" begin="zoomplus.mouseover" end="zoomplus.mouseout"/></use>
    <path d="M-4,0h8M0,-4v8" fill="none" stroke="white" stroke-width="1.5" pointer-events="none"/>
  </g>
  <g id="zoomMin">
    <use xlink:href="#rim" fill="#404040"><set attributeName="fill" to="#808080" begin="zoomminus.mouseover" end="zoomminus.mouseout"/></use>
    <path d="M-4,0h8" fill="none" stroke="white" stroke-width="1.5" pointer-events="none"/>
  </g>
  <g id="arrowUp" transform="translate(30 24)">
    <use xlink:href="#rim"/>
    <path pointer-events="none" fill="none" stroke="white" stroke-width="1.5" d="M0,-3.0v7 M-2.5,-0.5L0,-3.0L2.5,-0.5"/>
  </g>
  <g id="arrowRight" transform="rotate(90) translate(36 -43)">
    <use xlink:href="#rim"/>
    <path pointer-events="none" fill="none" stroke="white" stroke-width="1.5" d="M0,-3.0v7 M-2.5,-0.5L0,-3.0L2.5,-0.5"/>
  </g>
  <g id="arrowDown" transform="rotate(180) translate(-30 -48)">
    <use xlink:href="#rim"/>
    <path pointer-events="none" fill="none" stroke="white" stroke-width="1.5" d="M0,-3.0v7 M-2.5,-0.5L0,-3.0L2.5,-0.5"/>
  </g>
  <g id="arrowLeft" transform="rotate(270) translate(-36 17)">
    <use xlink:href="#rim"/>
    <path pointer-events="none" fill="none" stroke="white" stroke-width="1.5" d="M0,-3.0v7 M-2.5,-0.5L0,-3.0L2.5,-0.5"/>
  </g>
  <g id="resetDef">
    <use xlink:href="#rim2" fill="#404040"><set attributeName="fill" to="#808080" begin="reset.mouseover" end="reset.mouseout"/></use>
  </g>
</defs>
<script type="application/ecmascript">
var viewWidth = 934;
var viewHeight = 264;
var sectionId = 'dynsection-0';
</script>
<script type="application/ecmascript" xlink:href="svg.min.js"/>
<svg id="graph" class="graph">
<g id="viewport">
<title>src/platform/windows/nvprefs/nvprefs_interface.cpp</title>
<!-- Node1 -->
<g id="Node000001" class="node">
<title>Node1</title>
<g id="a_Node000001"><a xlink:title="Definitions for nvidia preferences interface.">
<polygon fill="#999999" stroke="#666666" points="425.75,-256 277.75,-256 277.75,-224 425.75,-224 425.75,-256"/>
<text text-anchor="start" x="285.75" y="-242.5" font-family="Helvetica,sans-Serif" font-size="10.00">src/platform/windows</text>
<text text-anchor="middle" x="351.75" y="-230.5" font-family="Helvetica,sans-Serif" font-size="10.00">/nvprefs/nvprefs_interface.cpp</text>
</a>
</g>
</g>
<!-- Node2 -->
<g id="Node000002" class="node">
<title>Node2</title>
<g id="a_Node000002"><a xlink:title=" ">
<polygon fill="#e0e0e0" stroke="#999999" points="293.88,-188 245.62,-188 245.62,-168 293.88,-168 293.88,-188"/>
<text text-anchor="middle" x="269.75" y="-174.5" font-family="Helvetica,sans-Serif" font-size="10.00">cassert</text>
</a>
</g>
</g>
<!-- Node1&#45;&gt;Node2 -->
<g id="edge1_Node000001_Node000002" class="edge">
<title>Node1&#45;&gt;Node2</title>
<g id="a_edge1_Node000001_Node000002"><a xlink:title=" ">
<path fill="none" stroke="#63b8ff" d="M330.63,-223.55C318.65,-214.78 303.68,-203.83 291.58,-194.97"/>
<polygon fill="#63b8ff" stroke="#63b8ff" points="293.97,-192.38 283.83,-189.3 289.83,-198.03 293.97,-192.38"/>
</a>
</g>
</g>
<!-- Node3 -->
<g id="Node000003" class="node">
<title>Node3</title>
<g id="a_Node000003"><a xlink:href="driver__settings_8h.html" target="_top" xlink:title="Declarations for nvidia driver settings.">
<polygon fill="white" stroke="#666666" points="218.75,-132 130.75,-132 130.75,-112 218.75,-112 218.75,-132"/>
<text text-anchor="middle" x="174.75" y="-118.5" font-family="Helvetica,sans-Serif" font-size="10.00">driver_settings.h</text>
</a>
</g>
</g>
<!-- Node1&#45;&gt;Node3 -->
<g id="edge2_Node000001_Node000003" class="edge">
<title>Node1&#45;&gt;Node3</title>
<g id="a_edge2_Node000001_Node000003"><a xlink:title=" ">
<path fill="none" stroke="#63b8ff" d="M344.73,-223.57C336.71,-207.55 322.15,-182.82 302.75,-168 281.49,-151.75 253.89,-141.07 229.77,-134.2"/>
<polygon fill="#63b8ff" stroke="#63b8ff" points="230.99,-130.91 220.42,-131.7 229.18,-137.67 230.99,-130.91"/>
</a>
</g>
</g>
<!-- Node11 -->
<g id="Node000011" class="node">
<title>Node11</title>
<g id="a_Node000011"><a xlink:href="nvprefs__interface_8h.html" target="_top" xlink:title="Declarations for nvidia preferences interface.">
<polygon fill="white" stroke="#666666" points="673.38,-188 574.12,-188 574.12,-168 673.38,-168 673.38,-188"/>
<text text-anchor="middle" x="623.75" y="-174.5" font-family="Helvetica,sans-Serif" font-size="10.00">nvprefs_interface.h</text>
</a>
</g>
</g>
<!-- Node1&#45;&gt;Node11 -->
<g id="edge10_Node000001_Node000011" class="edge">
<title>Node1&#45;&gt;Node11</title>
<g id="a_edge10_Node000001_Node000011"><a xlink:title=" ">
<path fill="none" stroke="#63b8ff" d="M421.8,-223.55C467.79,-213.4 527.07,-200.33 569.48,-190.97"/>
<polygon fill="#63b8ff" stroke="#63b8ff" points="570.21,-194.39 579.22,-188.82 568.7,-187.56 570.21,-194.39"/>
</a>
</g>
</g>
<!-- Node13 -->
<g id="Node000013" class="node">
<title>Node13</title>
<g id="a_Node000013"><a xlink:href="undo__file_8h.html" target="_top" xlink:title="Declarations for the nvidia undo file.">
<polygon fill="white" stroke="#666666" points="413.38,-188 350.12,-188 350.12,-168 413.38,-168 413.38,-188"/>
<text text-anchor="middle" x="381.75" y="-174.5" font-family="Helvetica,sans-Serif" font-size="10.00">undo_file.h</text>
</a>
</g>
</g>
<!-- Node1&#45;&gt;Node13 -->
<g id="edge12_Node000001_Node000013" class="edge">
<title>Node1&#45;&gt;Node13</title>
<g id="a_edge12_Node000001_Node000013"><a xlink:title=" ">
<path fill="none" stroke="#63b8ff" d="M359.48,-223.55C363.3,-215.91 367.94,-206.61 372.01,-198.49"/>
<polygon fill="#63b8ff" stroke="#63b8ff" points="375.03,-200.27 376.37,-189.76 368.77,-197.14 375.03,-200.27"/>
</a>
</g>
</g>
<!-- Node4 -->
<g id="Node000004" class="node">
<title>Node4</title>
<g id="a_Node000004"><a xlink:title=" ">
<polygon fill="#e0e0e0" stroke="#999999" points="179.5,-76 132,-76 132,-56 179.5,-56 179.5,-76"/>
<text text-anchor="middle" x="155.75" y="-62.5" font-family="Helvetica,sans-Serif" font-size="10.00">nvapi.h</text>
</a>
</g>
</g>
<!-- Node3&#45;&gt;Node4 -->
<g id="edge3_Node000003_Node000004" class="edge">
<title>Node3&#45;&gt;Node4</title>
<g id="a_edge3_Node000003_Node000004"><a xlink:title=" ">
<path fill="none" stroke="#63b8ff" d="M171.44,-111.59C169.07,-104.86 165.79,-95.53 162.84,-87.15"/>
<polygon fill="#63b8ff" stroke="#63b8ff" points="166.14,-86 159.52,-77.73 159.54,-88.32 166.14,-86"/>
</a>
</g>
</g>
<!-- Node5 -->
<g id="Node000005" class="node">
<title>Node5</title>
<g id="a_Node000005"><a xlink:title=" ">
<polygon fill="#e0e0e0" stroke="#999999" points="113.5,-76 0,-76 0,-56 113.5,-56 113.5,-76"/>
<text text-anchor="middle" x="56.75" y="-62.5" font-family="Helvetica,sans-Serif" font-size="10.00">NvApiDriverSettings.h</text>
</a>
</g>
</g>
<!-- Node3&#45;&gt;Node5 -->
<g id="edge4_Node000003_Node000005" class="edge">
<title>Node3&#45;&gt;Node5</title>
<g id="a_edge4_Node000003_Node000005"><a xlink:title=" ">
<path fill="none" stroke="#63b8ff" d="M154.2,-111.59C135.87,-103.21 108.76,-90.8 87.79,-81.21"/>
<polygon fill="#63b8ff" stroke="#63b8ff" points="89.39,-78.09 78.84,-77.11 86.48,-84.45 89.39,-78.09"/>
</a>
</g>
</g>
<!-- Node6 -->
<g id="Node000006" class="node">
<title>Node6</title>
<g id="a_Node000006"><a xlink:href="undo__data_8h.html" target="_top" xlink:title="Declarations for undoing changes to nvidia preferences.">
<polygon fill="white" stroke="#666666" points="266.38,-76 197.12,-76 197.12,-56 266.38,-56 266.38,-76"/>
<text text-anchor="middle" x="231.75" y="-62.5" font-family="Helvetica,sans-Serif" font-size="10.00">undo_data.h</text>
</a>
</g>
</g>
<!-- Node3&#45;&gt;Node6 -->
<g id="edge5_Node000003_Node000006" class="edge">
<title>Node3&#45;&gt;Node6</title>
<g id="a_edge5_Node000003_Node000006"><a xlink:title=" ">
<path fill="none" stroke="#63b8ff" d="M184.68,-111.59C192.69,-104.01 204.17,-93.13 213.78,-84.02"/>
<polygon fill="#63b8ff" stroke="#63b8ff" points="215.98,-86.76 220.84,-77.34 211.17,-81.68 215.98,-86.76"/>
</a>
</g>
</g>
<!-- Node7 -->
<g id="Node000007" class="node">
<title>Node7</title>
<g id="a_Node000007"><a xlink:title=" ">
<polygon fill="#e0e0e0" stroke="#999999" points="125.38,-20 80.12,-20 80.12,0 125.38,0 125.38,-20"/>
<text text-anchor="middle" x="102.75" y="-6.5" font-family="Helvetica,sans-Serif" font-size="10.00">cstdint</text>
</a>
</g>
</g>
<!-- Node6&#45;&gt;Node7 -->
<g id="edge6_Node000006_Node000007" class="edge">
<title>Node6&#45;&gt;Node7</title>
<g id="a_edge6_Node000006_Node000007"><a xlink:title=" ">
<path fill="none" stroke="#63b8ff" d="M209.28,-55.59C188.96,-47.09 158.8,-34.46 135.74,-24.81"/>
<polygon fill="#63b8ff" stroke="#63b8ff" points="137.37,-21.7 126.79,-21.06 134.66,-28.15 137.37,-21.7"/>
</a>
</g>
</g>
<!-- Node8 -->
<g id="Node000008" class="node">
<title>Node8</title>
<g id="a_Node000008"><a xlink:title=" ">
<polygon fill="#e0e0e0" stroke="#999999" points="312.62,-20 262.88,-20 262.88,0 312.62,0 312.62,-20"/>
<text text-anchor="middle" x="287.75" y="-6.5" font-family="Helvetica,sans-Serif" font-size="10.00">optional</text>
</a>
</g>
</g>
<!-- Node6&#45;&gt;Node8 -->
<g id="edge7_Node000006_Node000008" class="edge">
<title>Node6&#45;&gt;Node8</title>
<g id="a_edge7_Node000006_Node000008"><a xlink:title=" ">
<path fill="none" stroke="#63b8ff" d="M241.5,-55.59C249.37,-48.01 260.65,-37.13 270.1,-28.02"/>
<polygon fill="#63b8ff" stroke="#63b8ff" points="272.25,-30.81 277.02,-21.35 267.39,-25.77 272.25,-30.81"/>
</a>
</g>
</g>
<!-- Node9 -->
<g id="Node000009" class="node">
<title>Node9</title>
<g id="a_Node000009"><a xlink:title=" ">
<polygon fill="#e0e0e0" stroke="#999999" points="183.75,-20 143.75,-20 143.75,0 183.75,0 183.75,-20"/>
<text text-anchor="middle" x="163.75" y="-6.5" font-family="Helvetica,sans-Serif" font-size="10.00">string</text>
</a>
</g>
</g>
<!-- Node6&#45;&gt;Node9 -->
<g id="edge8_Node000006_Node000009" class="edge">
<title>Node6&#45;&gt;Node9</title>
<g id="a_edge8_Node000006_Node000009"><a xlink:title=" ">
<path fill="none" stroke="#63b8ff" d="M219.91,-55.59C210.06,-47.77 195.82,-36.46 184.14,-27.19"/>
<polygon fill="#63b8ff" stroke="#63b8ff" points="186.65,-24.72 176.64,-21.24 182.3,-30.2 186.65,-24.72"/>
</a>
</g>
</g>
<!-- Node10 -->
<g id="Node000010" class="node">
<title>Node10</title>
<g id="a_Node000010"><a xlink:title=" ">
<polygon fill="#e0e0e0" stroke="#999999" points="245.25,-20 202.25,-20 202.25,0 245.25,0 245.25,-20"/>
<text text-anchor="middle" x="223.75" y="-6.5" font-family="Helvetica,sans-Serif" font-size="10.00">vector</text>
</a>
</g>
</g>
<!-- Node6&#45;&gt;Node10 -->
<g id="edge9_Node000006_Node000010" class="edge">
<title>Node6&#45;&gt;Node10</title>
<g id="a_edge9_Node000006_Node000010"><a xlink:title=" ">
<path fill="none" stroke="#63b8ff" d="M230.36,-55.59C229.37,-48.93 228.01,-39.75 226.78,-31.44"/>
<polygon fill="#63b8ff" stroke="#63b8ff" points="230.28,-31.17 225.35,-21.8 223.35,-32.2 230.28,-31.17"/>
</a>
</g>
</g>
<!-- Node12 -->
<g id="Node000012" class="node">
<title>Node12</title>
<g id="a_Node000012"><a xlink:title=" ">
<polygon fill="#e0e0e0" stroke="#999999" points="926.38,-20 875.12,-20 875.12,0 926.38,0 926.38,-20"/>
<text text-anchor="middle" x="900.75" y="-6.5" font-family="Helvetica,sans-Serif" font-size="10.00">memory</text>
</a>
</g>
</g>
<!-- Node11&#45;&gt;Node12 -->
<g id="edge11_Node000011_Node000012" class="edge">
<title>Node11&#45;&gt;Node12</title>
<g id="a_edge11_Node000011_Node000012"><a xlink:title=" ">
<path fill="none" stroke="#63b8ff" d="M639.44,-167.6C685.24,-140.15 819.1,-59.93 875.37,-26.21"/>
<polygon fill="#63b8ff" stroke="#63b8ff" points="877.16,-29.22 883.94,-21.08 873.56,-23.21 877.16,-29.22"/>
</a>
</g>
</g>
<!-- Node13&#45;&gt;Node6 -->
<g id="edge29_Node000013_Node000006" class="edge">
<title>Node13&#45;&gt;Node6</title>
<g id="a_edge29_Node000013_Node000006"><a xlink:title=" ">
<path fill="none" stroke="#63b8ff" d="M368.96,-167.62C343.28,-148.79 285.18,-106.18 253.44,-82.91"/>
<polygon fill="#63b8ff" stroke="#63b8ff" points="255.86,-80.34 245.73,-77.25 251.72,-85.99 255.86,-80.34"/>
</a>
</g>
</g>
<!-- Node14 -->
<g id="Node000014" class="node">
<title>Node14</title>
<g id="a_Node000014"><a xlink:title=" ">
<polygon fill="#e0e0e0" stroke="#999999" points="510.25,-132 449.25,-132 449.25,-112 510.25,-112 510.25,-132"/>
<text text-anchor="middle" x="479.75" y="-118.5" font-family="Helvetica,sans-Serif" font-size="10.00">filesystem</text>
</a>
</g>
</g>
<!-- Node13&#45;&gt;Node14 -->
<g id="edge13_Node000013_Node000014" class="edge">
<title>Node13&#45;&gt;Node14</title>
<g id="a_edge13_Node000013_Node000014"><a xlink:title=" ">
<path fill="none" stroke="#63b8ff" d="M398.82,-167.59C413.63,-159.44 435.32,-147.48 452.52,-138"/>
<polygon fill="#63b8ff" stroke="#63b8ff" points="454.15,-141.1 461.22,-133.21 450.77,-134.97 454.15,-141.1"/>
</a>
</g>
</g>
<!-- Node15 -->
<g id="Node000015" class="node">
<title>Node15</title>
<g id="a_Node000015"><a xlink:href="nvprefs__common_8h.html" target="_top" xlink:title="Declarations for common nvidia preferences.">
<polygon fill="white" stroke="#666666" points="431.38,-132 332.12,-132 332.12,-112 431.38,-112 431.38,-132"/>
<text text-anchor="middle" x="381.75" y="-118.5" font-family="Helvetica,sans-Serif" font-size="10.00">nvprefs_common.h</text>
</a>
</g>
</g>
<!-- Node13&#45;&gt;Node15 -->
<g id="edge14_Node000013_Node000015" class="edge">
<title>Node13&#45;&gt;Node15</title>
<g id="a_edge14_Node000013_Node000015"><a xlink:title=" ">
<path fill="none" stroke="#63b8ff" d="M381.75,-167.59C381.75,-161.01 381.75,-151.96 381.75,-143.73"/>
<polygon fill="#63b8ff" stroke="#63b8ff" points="385.25,-143.81 381.75,-133.81 378.25,-143.81 385.25,-143.81"/>
</a>
</g>
</g>
<!-- Node16 -->
<g id="Node000016" class="node">
<title>Node16</title>
<g id="a_Node000016"><a xlink:title=" ">
<polygon fill="#e0e0e0" stroke="#999999" points="376,-76 313.5,-76 313.5,-56 376,-56 376,-76"/>
<text text-anchor="middle" x="344.75" y="-62.5" font-family="Helvetica,sans-Serif" font-size="10.00">windows.h</text>
</a>
</g>
</g>
<!-- Node15&#45;&gt;Node16 -->
<g id="edge15_Node000015_Node000016" class="edge">
<title>Node15&#45;&gt;Node16</title>
<g id="a_edge15_Node000015_Node000016"><a xlink:title=" ">
<path fill="none" stroke="#63b8ff" d="M375.31,-111.59C370.42,-104.47 363.56,-94.45 357.57,-85.72"/>
<polygon fill="#63b8ff" stroke="#63b8ff" points="360.52,-83.82 351.98,-77.55 354.74,-87.77 360.52,-83.82"/>
</a>
</g>
</g>
<!-- Node17 -->
<g id="Node000017" class="node">
<title>Node17</title>
<g id="a_Node000017"><a xlink:title=" ">
<polygon fill="#e0e0e0" stroke="#999999" points="443.62,-76 393.88,-76 393.88,-56 443.62,-56 443.62,-76"/>
<text text-anchor="middle" x="418.75" y="-62.5" font-family="Helvetica,sans-Serif" font-size="10.00">aclapi.h</text>
</a>
</g>
</g>
<!-- Node15&#45;&gt;Node17 -->
<g id="edge16_Node000015_Node000017" class="edge">
<title>Node15&#45;&gt;Node17</title>
<g id="a_edge16_Node000015_Node000017"><a xlink:title=" ">
<path fill="none" stroke="#63b8ff" d="M388.19,-111.59C393.08,-104.47 399.94,-94.45 405.93,-85.72"/>
<polygon fill="#63b8ff" stroke="#63b8ff" points="408.76,-87.77 411.52,-77.55 402.98,-83.82 408.76,-87.77"/>
</a>
</g>
</g>
<!-- Node18 -->
<g id="Node000018" class="node">
<title>Node18</title>
<g id="a_Node000018"><a xlink:href="utility_8h.html" target="_top" xlink:title="Declarations for utility functions.">
<polygon fill="white" stroke="#666666" points="539.38,-76 476.12,-76 476.12,-56 539.38,-56 539.38,-76"/>
<text text-anchor="middle" x="507.75" y="-62.5" font-family="Helvetica,sans-Serif" font-size="10.00">src/utility.h</text>
</a>
</g>
</g>
<!-- Node15&#45;&gt;Node18 -->
<g id="edge17_Node000015_Node000018" class="edge">
<title>Node15&#45;&gt;Node18</title>
<g id="a_edge17_Node000015_Node000018"><a xlink:title=" ">
<path fill="none" stroke="#63b8ff" d="M403.7,-111.59C423.45,-103.13 452.74,-90.58 475.22,-80.94"/>
<polygon fill="#63b8ff" stroke="#63b8ff" points="476.43,-84.23 484.24,-77.08 473.67,-77.8 476.43,-84.23"/>
</a>
</g>
</g>
<!-- Node18&#45;&gt;Node8 -->
<g id="edge22_Node000018_Node000008" class="edge">
<title>Node18&#45;&gt;Node8</title>
<g id="a_edge22_Node000018_Node000008"><a xlink:title=" ">
<path fill="none" stroke="#63b8ff" d="M475.77,-57.48C440.85,-49.23 382.99,-35.41 324.01,-20.53"/>
<polygon fill="#63b8ff" stroke="#63b8ff" points="325.01,-17.18 314.45,-18.12 323.29,-23.96 325.01,-17.18"/>
</a>
</g>
</g>
<!-- Node18&#45;&gt;Node9 -->
<g id="edge24_Node000018_Node000009" class="edge">
<title>Node18&#45;&gt;Node9</title>
<g id="a_edge24_Node000018_Node000009"><a xlink:title=" ">
<path fill="none" stroke="#63b8ff" d="M475.78,-59.63C468.23,-58.41 460.21,-57.13 452.75,-56 341.32,-39.14 309.22,-44.42 194.92,-19.91"/>
<polygon fill="#63b8ff" stroke="#63b8ff" points="195.97,-16.56 185.45,-17.85 194.48,-23.4 195.97,-16.56"/>
</a>
</g>
</g>
<!-- Node18&#45;&gt;Node10 -->
<g id="edge28_Node000018_Node000010" class="edge">
<title>Node18&#45;&gt;Node10</title>
<g id="a_edge28_Node000018_Node000010"><a xlink:title=" ">
<path fill="none" stroke="#63b8ff" d="M475.95,-59.58C418.58,-49.77 300.24,-29.4 256.61,-20.32"/>
<polygon fill="#63b8ff" stroke="#63b8ff" points="257.62,-16.95 247.1,-18.21 256.11,-23.79 257.62,-16.95"/>
</a>
</g>
</g>
<!-- Node18&#45;&gt;Node12 -->
<g id="edge20_Node000018_Node000012" class="edge">
<title>Node18&#45;&gt;Node12</title>
<g id="a_edge20_Node000018_Node000012"><a xlink:title=" ">
<path fill="none" stroke="#63b8ff" d="M539.67,-62.45C600.79,-57.25 738.73,-44.03 863.58,-20.41"/>
<polygon fill="#63b8ff" stroke="#63b8ff" points="864.2,-23.85 873.36,-18.53 862.88,-16.98 864.2,-23.85"/>
</a>
</g>
</g>
<!-- Node19 -->
<g id="Node000019" class="node">
<title>Node19</title>
<g id="a_Node000019"><a xlink:title=" ">
<polygon fill="#e0e0e0" stroke="#999999" points="683.62,-20 627.88,-20 627.88,0 683.62,0 683.62,-20"/>
<text text-anchor="middle" x="655.75" y="-6.5" font-family="Helvetica,sans-Serif" font-size="10.00">algorithm</text>
</a>
</g>
</g>
<!-- Node18&#45;&gt;Node19 -->
<g id="edge18_Node000018_Node000019" class="edge">
<title>Node18&#45;&gt;Node19</title>
<g id="a_edge18_Node000018_Node000019"><a xlink:title=" ">
<path fill="none" stroke="#63b8ff" d="M533.53,-55.59C557.15,-46.97 592.39,-34.12 618.97,-24.42"/>
<polygon fill="#63b8ff" stroke="#63b8ff" points="620.15,-27.71 628.35,-21 617.75,-21.14 620.15,-27.71"/>
</a>
</g>
</g>
<!-- Node20 -->
<g id="Node000020" class="node">
<title>Node20</title>
<g id="a_Node000020"><a xlink:title=" ">
<polygon fill="#e0e0e0" stroke="#999999" points="795.75,-20 701.75,-20 701.75,0 795.75,0 795.75,-20"/>
<text text-anchor="middle" x="748.75" y="-6.5" font-family="Helvetica,sans-Serif" font-size="10.00">condition_variable</text>
</a>
</g>
</g>
<!-- Node18&#45;&gt;Node20 -->
<g id="edge19_Node000018_Node000020" class="edge">
<title>Node18&#45;&gt;Node20</title>
<g id="a_edge19_Node000018_Node000020"><a xlink:title=" ">
<path fill="none" stroke="#63b8ff" d="M539.75,-57.83C579.46,-48.93 647.75,-33.63 695.42,-22.95"/>
<polygon fill="#63b8ff" stroke="#63b8ff" points="696,-26.41 704.99,-20.81 694.47,-19.58 696,-26.41"/>
</a>
</g>
</g>
<!-- Node21 -->
<g id="Node000021" class="node">
<title>Node21</title>
<g id="a_Node000021"><a xlink:title=" ">
<polygon fill="#e0e0e0" stroke="#999999" points="857.25,-20 814.25,-20 814.25,0 857.25,0 857.25,-20"/>
<text text-anchor="middle" x="835.75" y="-6.5" font-family="Helvetica,sans-Serif" font-size="10.00">mutex</text>
</a>
</g>
</g>
<!-- Node18&#45;&gt;Node21 -->
<g id="edge21_Node000018_Node000021" class="edge">
<title>Node18&#45;&gt;Node21</title>
<g id="a_edge21_Node000018_Node000021"><a xlink:title=" ">
<path fill="none" stroke="#63b8ff" d="M539.65,-61.57C592.4,-55.6 701.24,-42 802.76,-20.17"/>
<polygon fill="#63b8ff" stroke="#63b8ff" points="803.33,-23.63 812.35,-18.08 801.83,-16.79 803.33,-23.63"/>
</a>
</g>
</g>
<!-- Node22 -->
<g id="Node000022" class="node">
<title>Node22</title>
<g id="a_Node000022"><a xlink:title=" ">
<polygon fill="#e0e0e0" stroke="#999999" points="382.38,-20 331.12,-20 331.12,0 382.38,0 382.38,-20"/>
<text text-anchor="middle" x="356.75" y="-6.5" font-family="Helvetica,sans-Serif" font-size="10.00">ostream</text>
</a>
</g>
</g>
<!-- Node18&#45;&gt;Node22 -->
<g id="edge23_Node000018_Node000022" class="edge">
<title>Node18&#45;&gt;Node22</title>
<g id="a_edge23_Node000018_Node000022"><a xlink:title=" ">
<path fill="none" stroke="#63b8ff" d="M481.45,-55.59C457.09,-46.88 420.63,-33.84 393.42,-24.11"/>
<polygon fill="#63b8ff" stroke="#63b8ff" points="394.77,-20.88 384.18,-20.81 392.41,-27.47 394.77,-20.88"/>
</a>
</g>
</g>
<!-- Node23 -->
<g id="Node000023" class="node">
<title>Node23</title>
<g id="a_Node000023"><a xlink:title=" ">
<polygon fill="#e0e0e0" stroke="#999999" points="465.5,-20 400,-20 400,0 465.5,0 465.5,-20"/>
<text text-anchor="middle" x="432.75" y="-6.5" font-family="Helvetica,sans-Serif" font-size="10.00">string_view</text>
</a>
</g>
</g>
<!-- Node18&#45;&gt;Node23 -->
<g id="edge25_Node000018_Node000023" class="edge">
<title>Node18&#45;&gt;Node23</title>
<g id="a_edge25_Node000018_Node000023"><a xlink:title=" ">
<path fill="none" stroke="#63b8ff" d="M494.69,-55.59C483.78,-47.74 468,-36.38 455.09,-27.09"/>
<polygon fill="#63b8ff" stroke="#63b8ff" points="457.3,-24.37 447.14,-21.36 453.21,-30.05 457.3,-24.37"/>
</a>
</g>
</g>
<!-- Node24 -->
<g id="Node000024" class="node">
<title>Node24</title>
<g id="a_Node000024"><a xlink:title=" ">
<polygon fill="#e0e0e0" stroke="#999999" points="545.62,-20 483.88,-20 483.88,0 545.62,0 545.62,-20"/>
<text text-anchor="middle" x="514.75" y="-6.5" font-family="Helvetica,sans-Serif" font-size="10.00">type_traits</text>
</a>
</g>
</g>
<!-- Node18&#45;&gt;Node24 -->
<g id="edge26_Node000018_Node000024" class="edge">
<title>Node18&#45;&gt;Node24</title>
<g id="a_edge26_Node000018_Node000024"><a xlink:title=" ">
<path fill="none" stroke="#63b8ff" d="M508.97,-55.59C509.83,-48.93 511.02,-39.75 512.1,-31.44"/>
<polygon fill="#63b8ff" stroke="#63b8ff" points="515.54,-32.17 513.35,-21.8 508.59,-31.27 515.54,-32.17"/>
</a>
</g>
</g>
<!-- Node25 -->
<g id="Node000025" class="node">
<title>Node25</title>
<g id="a_Node000025"><a xlink:title=" ">
<polygon fill="#e0e0e0" stroke="#999999" points="609.38,-20 564.12,-20 564.12,0 609.38,0 609.38,-20"/>
<text text-anchor="middle" x="586.75" y="-6.5" font-family="Helvetica,sans-Serif" font-size="10.00">variant</text>
</a>
</g>
</g>
<!-- Node18&#45;&gt;Node25 -->
<g id="edge27_Node000018_Node000025" class="edge">
<title>Node18&#45;&gt;Node25</title>
<g id="a_edge27_Node000018_Node000025"><a xlink:title=" ">
<path fill="none" stroke="#63b8ff" d="M521.51,-55.59C533.11,-47.67 549.95,-36.16 563.61,-26.82"/>
<polygon fill="#63b8ff" stroke="#63b8ff" points="565.35,-29.87 571.63,-21.33 561.4,-24.09 565.35,-29.87"/>
</a>
</g>
</g>
</g>
</svg>

<g id="navigator" transform="translate(0 0)" fill="#404254">
  <rect fill="#f2f5e9" fill-opacity="0.5" stroke="#606060" stroke-width=".5" x="0" y="0" width="60" height="60"/>
  <use id="zoomplus" xlink:href="#zoomPlus" x="17" y="9" onmousedown="handleZoom(evt,'in')"/>
  <use id="zoomminus" xlink:href="#zoomMin" x="42" y="9" onmousedown="handleZoom(evt,'out')"/>
  <use id="reset" xlink:href="#resetDef" x="30" y="36" onmousedown="handleReset()"/>
   <use id="arrowup" xlink:href="#arrowUp" x="0" y="0" onmousedown="handlePan(0,-1)"/>
  <use id="arrowright" xlink:href="#arrowRight" x="0" y="0" onmousedown="handlePan(1,0)"/>
  <use id="arrowdown" xlink:href="#arrowDown" x="0" y="0" onmousedown="handlePan(0,1)"/>
  <use id="arrowleft" xlink:href="#arrowLeft" x="0" y="0" onmousedown="handlePan(-1,0)"/>
</g>
<svg viewBox="0 0 15 15" width="100%" height="30px" preserveAspectRatio="xMaxYMin meet">
 <g id="arrow_out" transform="scale(0.3 0.3)">
  <a xlink:href="nvprefs__interface_8cpp__incl_org.svg" target="_base">
   <rect id="button" ry="5" rx="5" y="6" x="6" height="38" width="38"
        fill="#f2f5e9" fill-opacity="0.5" stroke="#606060" stroke-width="1.0"/>
   <path id="arrow"
     d="M 11.500037,31.436501 C 11.940474,20.09759 22.043105,11.32322 32.158766,21.979434 L 37.068811,17.246167 C 37.068811,17.246167 37.088388,32 37.088388,32 L 22.160133,31.978069 C 22.160133,31.978069 26.997745,27.140456 26.997745,27.140456 C 18.528582,18.264221 13.291696,25.230495 11.500037,31.436501 z"
     style="fill:#404040;"/>
  </a>
 </g>
</svg>

<style type='text/css'>
<![CDATA[
[data-mouse-over-selected='false'] { opacity: 0.7; }
[data-mouse-over-selected='true']  { opacity: 1.0; }
]]>
</style>
<script type="application/ecmascript"><![CDATA[
document.addEventListener('DOMContentLoaded', (event) => {
  highlightEdges();
  highlightAdjacentNodes();
});
]]></script>
</svg>
