<?xml version="1.0" encoding="UTF-8" standalone="no"?>
<!DOCTYPE svg PUBLIC "-//W3C//DTD SVG 1.1//EN"
 "http://www.w3.org/Graphics/SVG/1.1/DTD/svg11.dtd">
<!-- Generated by graphviz version 12.2.1 (0)
 -->
<!-- Title: src/platform/windows/audio.cpp Pages: 1 -->
<!--zoomable 276 -->

<svg id="main" version="1.1" xmlns="http://www.w3.org/2000/svg" xmlns:xlink="http://www.w3.org/1999/xlink" xml:space="preserve" onload="init(evt)">

<style type="text/css"><![CDATA[
.node, .edge {opacity: 0.7;}
.node.selected, .edge.selected {opacity: 1;}
.edge:hover path { stroke: red; }
.edge:hover polygon { stroke: red; fill: red; }
]]></style>

<defs>
  <circle id="rim" cx="0" cy="0" r="7"/>
  <circle id="rim2" cx="0" cy="0" r="3.5"/>
  <g id="zoomPlus">
    <use xlink:href="#rim" fill="#404040"><set attributeName="fill" to="#808080" begin="zoomplus.mouseover" end="zoomplus.mouseout"/></use>
    <path d="M-4,0h8M0,-4v8" fill="none" stroke="white" stroke-width="1.5" pointer-events="none"/>
  </g>
  <g id="zoomMin">
    <use xlink:href="#rim" fill="#404040"><set attributeName="fill" to="#808080" begin="zoomminus.mouseover" end="zoomminus.mouseout"/></use>
    <path d="M-4,0h8" fill="none" stroke="white" stroke-width="1.5" pointer-events="none"/>
  </g>
  <g id="arrowUp" transform="translate(30 24)">
    <use xlink:href="#rim"/>
    <path pointer-events="none" fill="none" stroke="white" stroke-width="1.5" d="M0,-3.0v7 M-2.5,-0.5L0,-3.0L2.5,-0.5"/>
  </g>
  <g id="arrowRight" transform="rotate(90) translate(36 -43)">
    <use xlink:href="#rim"/>
    <path pointer-events="none" fill="none" stroke="white" stroke-width="1.5" d="M0,-3.0v7 M-2.5,-0.5L0,-3.0L2.5,-0.5"/>
  </g>
  <g id="arrowDown" transform="rotate(180) translate(-30 -48)">
    <use xlink:href="#rim"/>
    <path pointer-events="none" fill="none" stroke="white" stroke-width="1.5" d="M0,-3.0v7 M-2.5,-0.5L0,-3.0L2.5,-0.5"/>
  </g>
  <g id="arrowLeft" transform="rotate(270) translate(-36 17)">
    <use xlink:href="#rim"/>
    <path pointer-events="none" fill="none" stroke="white" stroke-width="1.5" d="M0,-3.0v7 M-2.5,-0.5L0,-3.0L2.5,-0.5"/>
  </g>
  <g id="resetDef">
    <use xlink:href="#rim2" fill="#404040"><set attributeName="fill" to="#808080" begin="reset.mouseover" end="reset.mouseout"/></use>
  </g>
</defs>
<script type="application/ecmascript">
var viewWidth = 1616;
var viewHeight = 276;
var sectionId = 'dynsection-0';
</script>
<script type="application/ecmascript" xlink:href="svg.min.js"/>
<svg id="graph" class="graph">
<g id="viewport">
<title>src/platform/windows/audio.cpp</title>
<!-- Node1 -->
<g id="Node000001" class="node">
<title>Node1</title>
<g id="a_Node000001"><a xlink:title="Definitions for Windows audio capture.">
<polygon fill="#999999" stroke="#666666" points="435.88,-268 326.88,-268 326.88,-236 435.88,-236 435.88,-268"/>
<text text-anchor="start" x="334.88" y="-254.5" font-family="Helvetica,sans-Serif" font-size="10.00">src/platform/windows</text>
<text text-anchor="middle" x="381.38" y="-242.5" font-family="Helvetica,sans-Serif" font-size="10.00">/audio.cpp</text>
</a>
</g>
</g>
<!-- Node2 -->
<g id="Node000002" class="node">
<title>Node2</title>
<g id="a_Node000002"><a xlink:title=" ">
<polygon fill="#e0e0e0" stroke="#999999" points="70.75,-200 0,-200 0,-180 70.75,-180 70.75,-200"/>
<text text-anchor="middle" x="35.38" y="-186.5" font-family="Helvetica,sans-Serif" font-size="10.00">audioclient.h</text>
</a>
</g>
</g>
<!-- Node1&#45;&gt;Node2 -->
<g id="edge1_Node000001_Node000002" class="edge">
<title>Node1&#45;&gt;Node2</title>
<g id="a_edge1_Node000001_Node000002"><a xlink:title=" ">
<path fill="none" stroke="#63b8ff" d="M326.64,-242.22C268.61,-232.81 174,-217.14 82.37,-200.32"/>
<polygon fill="#63b8ff" stroke="#63b8ff" points="83.18,-196.91 72.71,-198.54 81.91,-203.8 83.18,-196.91"/>
</a>
</g>
</g>
<!-- Node3 -->
<g id="Node000003" class="node">
<title>Node3</title>
<g id="a_Node000003"><a xlink:title=" ">
<polygon fill="#e0e0e0" stroke="#999999" points="129.75,-200 89,-200 89,-180 129.75,-180 129.75,-200"/>
<text text-anchor="middle" x="109.38" y="-186.5" font-family="Helvetica,sans-Serif" font-size="10.00">avrt.h</text>
</a>
</g>
</g>
<!-- Node1&#45;&gt;Node3 -->
<g id="edge2_Node000001_Node000003" class="edge">
<title>Node1&#45;&gt;Node3</title>
<g id="a_edge2_Node000001_Node000003"><a xlink:title=" ">
<path fill="none" stroke="#63b8ff" d="M326.51,-241.01C279.54,-232.12 209.93,-218.13 141.23,-200.57"/>
<polygon fill="#63b8ff" stroke="#63b8ff" points="142.24,-197.22 131.68,-198.1 140.49,-204 142.24,-197.22"/>
</a>
</g>
</g>
<!-- Node4 -->
<g id="Node000004" class="node">
<title>Node4</title>
<g id="a_Node000004"><a xlink:title=" ">
<polygon fill="#e0e0e0" stroke="#999999" points="262.38,-138 180.38,-138 180.38,-118 262.38,-118 262.38,-138"/>
<text text-anchor="middle" x="221.38" y="-124.5" font-family="Helvetica,sans-Serif" font-size="10.00">mmdeviceapi.h</text>
</a>
</g>
</g>
<!-- Node1&#45;&gt;Node4 -->
<g id="edge3_Node000001_Node000004" class="edge">
<title>Node1&#45;&gt;Node4</title>
<g id="a_edge3_Node000001_Node000004"><a xlink:title=" ">
<path fill="none" stroke="#63b8ff" d="M336.93,-235.51C316.53,-227.03 292.83,-215.14 274.38,-200 256.6,-185.41 241.51,-163.65 232.03,-148.07"/>
<polygon fill="#63b8ff" stroke="#63b8ff" points="235.23,-146.61 227.17,-139.74 229.19,-150.14 235.23,-146.61"/>
</a>
</g>
</g>
<!-- Node5 -->
<g id="Node000005" class="node">
<title>Node5</title>
<g id="a_Node000005"><a xlink:title=" ">
<polygon fill="#e0e0e0" stroke="#999999" points="341,-200 283.75,-200 283.75,-180 341,-180 341,-200"/>
<text text-anchor="middle" x="312.38" y="-186.5" font-family="Helvetica,sans-Serif" font-size="10.00">newdev.h</text>
</a>
</g>
</g>
<!-- Node1&#45;&gt;Node5 -->
<g id="edge4_Node000001_Node000005" class="edge">
<title>Node1&#45;&gt;Node5</title>
<g id="a_edge4_Node000001_Node000005"><a xlink:title=" ">
<path fill="none" stroke="#63b8ff" d="M363.61,-235.55C353.82,-227.04 341.67,-216.48 331.66,-207.77"/>
<polygon fill="#63b8ff" stroke="#63b8ff" points="334.18,-205.32 324.34,-201.4 329.59,-210.6 334.18,-205.32"/>
</a>
</g>
</g>
<!-- Node6 -->
<g id="Node000006" class="node">
<title>Node6</title>
<g id="a_Node000006"><a xlink:title=" ">
<polygon fill="#e0e0e0" stroke="#999999" points="404,-200 358.75,-200 358.75,-180 404,-180 404,-200"/>
<text text-anchor="middle" x="381.38" y="-186.5" font-family="Helvetica,sans-Serif" font-size="10.00">roapi.h</text>
</a>
</g>
</g>
<!-- Node1&#45;&gt;Node6 -->
<g id="edge5_Node000001_Node000006" class="edge">
<title>Node1&#45;&gt;Node6</title>
<g id="a_edge5_Node000001_Node000006"><a xlink:title=" ">
<path fill="none" stroke="#63b8ff" d="M381.38,-235.55C381.38,-228.34 381.38,-219.66 381.38,-211.88"/>
<polygon fill="#63b8ff" stroke="#63b8ff" points="384.88,-211.92 381.38,-201.92 377.88,-211.92 384.88,-211.92"/>
</a>
</g>
</g>
<!-- Node7 -->
<g id="Node000007" class="node">
<title>Node7</title>
<g id="a_Node000007"><a xlink:title=" ">
<polygon fill="#e0e0e0" stroke="#999999" points="485,-200 421.75,-200 421.75,-180 485,-180 485,-200"/>
<text text-anchor="middle" x="453.38" y="-186.5" font-family="Helvetica,sans-Serif" font-size="10.00">synchapi.h</text>
</a>
</g>
</g>
<!-- Node1&#45;&gt;Node7 -->
<g id="edge6_Node000001_Node000007" class="edge">
<title>Node1&#45;&gt;Node7</title>
<g id="a_edge6_Node000001_Node000007"><a xlink:title=" ">
<path fill="none" stroke="#63b8ff" d="M399.92,-235.55C410.13,-227.04 422.8,-216.48 433.25,-207.77"/>
<polygon fill="#63b8ff" stroke="#63b8ff" points="435.48,-210.47 440.92,-201.38 431,-205.09 435.48,-210.47"/>
</a>
</g>
</g>
<!-- Node8 -->
<g id="Node000008" class="node">
<title>Node8</title>
<g id="a_Node000008"><a xlink:href="windows_2misc_8h.html" target="_top" xlink:title="Miscellaneous declarations for Windows.">
<polygon fill="white" stroke="#666666" points="280,-76 234.75,-76 234.75,-56 280,-56 280,-76"/>
<text text-anchor="middle" x="257.38" y="-62.5" font-family="Helvetica,sans-Serif" font-size="10.00">misc.h</text>
</a>
</g>
</g>
<!-- Node1&#45;&gt;Node8 -->
<g id="edge7_Node000001_Node000008" class="edge">
<title>Node1&#45;&gt;Node8</title>
<g id="a_edge7_Node000001_Node000008"><a xlink:title=" ">
<path fill="none" stroke="#63b8ff" d="M436.03,-238.78C473.14,-227.68 512.43,-208.61 494.38,-180 471.18,-143.24 351.02,-98.54 291.23,-78.13"/>
<polygon fill="#63b8ff" stroke="#63b8ff" points="292.5,-74.86 281.9,-74.98 290.26,-81.49 292.5,-74.86"/>
</a>
</g>
</g>
<!-- Node13 -->
<g id="Node000013" class="node">
<title>Node13</title>
<g id="a_Node000013"><a xlink:href="config_8h.html" target="_top" xlink:title="Declarations for the configuration of Sunshine.">
<polygon fill="white" stroke="#666666" points="715.88,-76 648.88,-76 648.88,-56 715.88,-56 715.88,-76"/>
<text text-anchor="middle" x="682.38" y="-62.5" font-family="Helvetica,sans-Serif" font-size="10.00">src/config.h</text>
</a>
</g>
</g>
<!-- Node1&#45;&gt;Node13 -->
<g id="edge12_Node000001_Node000013" class="edge">
<title>Node1&#45;&gt;Node13</title>
<g id="a_edge12_Node000001_Node000013"><a xlink:title=" ">
<path fill="none" stroke="#63b8ff" d="M436.22,-240.09C470.55,-231.94 515.02,-218.91 551.38,-200 604.62,-172.31 649.37,-115.09 670.07,-85.55"/>
<polygon fill="#63b8ff" stroke="#63b8ff" points="672.75,-87.83 675.5,-77.6 666.97,-83.88 672.75,-87.83"/>
</a>
</g>
</g>
<!-- Node20 -->
<g id="Node000020" class="node">
<title>Node20</title>
<g id="a_Node000020"><a xlink:href="logging_8h.html" target="_top" xlink:title="Declarations for logging related functions.">
<polygon fill="white" stroke="#666666" points="613.12,-138 541.62,-138 541.62,-118 613.12,-118 613.12,-138"/>
<text text-anchor="middle" x="577.38" y="-124.5" font-family="Helvetica,sans-Serif" font-size="10.00">src/logging.h</text>
</a>
</g>
</g>
<!-- Node1&#45;&gt;Node20 -->
<g id="edge20_Node000001_Node000020" class="edge">
<title>Node1&#45;&gt;Node20</title>
<g id="a_edge20_Node000001_Node000020"><a xlink:title=" ">
<path fill="none" stroke="#63b8ff" d="M436.25,-240.4C465.44,-232.75 500.7,-220.14 527.38,-200 545.56,-186.27 559.7,-164.01 568.23,-148.07"/>
<polygon fill="#63b8ff" stroke="#63b8ff" points="571.14,-150.08 572.54,-139.58 564.89,-146.92 571.14,-150.08"/>
</a>
</g>
</g>
<!-- Node27 -->
<g id="Node000027" class="node">
<title>Node27</title>
<g id="a_Node000027"><a xlink:href="common_8h.html" target="_top" xlink:title="Declarations for common platform specific utilities.">
<polygon fill="white" stroke="#666666" points="1103.62,-200 987.12,-200 987.12,-180 1103.62,-180 1103.62,-200"/>
<text text-anchor="middle" x="1045.38" y="-186.5" font-family="Helvetica,sans-Serif" font-size="10.00">src/platform/common.h</text>
</a>
</g>
</g>
<!-- Node1&#45;&gt;Node27 -->
<g id="edge29_Node000001_Node000027" class="edge">
<title>Node1&#45;&gt;Node27</title>
<g id="a_edge29_Node000001_Node000027"><a xlink:title=" ">
<path fill="none" stroke="#63b8ff" d="M436.28,-246.04C556.59,-235.17 843.3,-209.26 975.91,-197.28"/>
<polygon fill="#63b8ff" stroke="#63b8ff" points="975.95,-200.79 985.6,-196.4 975.32,-193.82 975.95,-200.79"/>
</a>
</g>
</g>
<!-- Node45 -->
<g id="Node000045" class="node">
<title>Node45</title>
<g id="a_Node000045"><a xlink:href="PolicyConfig_8h.html" target="_top" xlink:title="Undocumented COM&#45;interface IPolicyConfig.">
<polygon fill="white" stroke="#666666" points="227.25,-200 147.5,-200 147.5,-180 227.25,-180 227.25,-200"/>
<text text-anchor="middle" x="187.38" y="-186.5" font-family="Helvetica,sans-Serif" font-size="10.00">PolicyConfig.h</text>
</a>
</g>
</g>
<!-- Node1&#45;&gt;Node45 -->
<g id="edge62_Node000001_Node000045" class="edge">
<title>Node1&#45;&gt;Node45</title>
<g id="a_edge62_Node000001_Node000045"><a xlink:title=" ">
<path fill="none" stroke="#63b8ff" d="M331.42,-235.55C299.66,-225.73 259.03,-213.16 229.02,-203.88"/>
<polygon fill="#63b8ff" stroke="#63b8ff" points="230.11,-200.55 219.53,-200.94 228.05,-207.24 230.11,-200.55"/>
</a>
</g>
</g>
<!-- Node9 -->
<g id="Node000009" class="node">
<title>Node9</title>
<g id="a_Node000009"><a xlink:title=" ">
<polygon fill="#e0e0e0" stroke="#999999" points="391,-20 345.75,-20 345.75,0 391,0 391,-20"/>
<text text-anchor="middle" x="368.38" y="-6.5" font-family="Helvetica,sans-Serif" font-size="10.00">chrono</text>
</a>
</g>
</g>
<!-- Node8&#45;&gt;Node9 -->
<g id="edge8_Node000008_Node000009" class="edge">
<title>Node8&#45;&gt;Node9</title>
<g id="a_edge8_Node000008_Node000009"><a xlink:title=" ">
<path fill="none" stroke="#63b8ff" d="M276.71,-55.59C293.79,-47.28 318.98,-35.03 338.63,-25.47"/>
<polygon fill="#63b8ff" stroke="#63b8ff" points="340.07,-28.66 347.53,-21.14 337,-22.37 340.07,-28.66"/>
</a>
</g>
</g>
<!-- Node10 -->
<g id="Node000010" class="node">
<title>Node10</title>
<g id="a_Node000010"><a xlink:title=" ">
<polygon fill="#e0e0e0" stroke="#999999" points="474.12,-20 408.62,-20 408.62,0 474.12,0 474.12,-20"/>
<text text-anchor="middle" x="441.38" y="-6.5" font-family="Helvetica,sans-Serif" font-size="10.00">string_view</text>
</a>
</g>
</g>
<!-- Node8&#45;&gt;Node10 -->
<g id="edge9_Node000008_Node000010" class="edge">
<title>Node8&#45;&gt;Node10</title>
<g id="a_edge9_Node000008_Node000010"><a xlink:title=" ">
<path fill="none" stroke="#63b8ff" d="M280.31,-58.27C309.73,-49.64 361.36,-34.48 398.24,-23.66"/>
<polygon fill="#63b8ff" stroke="#63b8ff" points="399.1,-27.05 407.71,-20.88 397.13,-20.34 399.1,-27.05"/>
</a>
</g>
</g>
<!-- Node11 -->
<g id="Node000011" class="node">
<title>Node11</title>
<g id="a_Node000011"><a xlink:title=" ">
<polygon fill="#e0e0e0" stroke="#999999" points="98.62,-20 36.12,-20 36.12,0 98.62,0 98.62,-20"/>
<text text-anchor="middle" x="67.38" y="-6.5" font-family="Helvetica,sans-Serif" font-size="10.00">windows.h</text>
</a>
</g>
</g>
<!-- Node8&#45;&gt;Node11 -->
<g id="edge10_Node000008_Node000011" class="edge">
<title>Node8&#45;&gt;Node11</title>
<g id="a_edge10_Node000008_Node000011"><a xlink:title=" ">
<path fill="none" stroke="#63b8ff" d="M234.46,-58.49C203.64,-49.73 148.29,-34 109.78,-23.05"/>
<polygon fill="#63b8ff" stroke="#63b8ff" points="110.94,-19.74 100.36,-20.37 109.02,-26.48 110.94,-19.74"/>
</a>
</g>
</g>
<!-- Node12 -->
<g id="Node000012" class="node">
<title>Node12</title>
<g id="a_Node000012"><a xlink:title=" ">
<polygon fill="#e0e0e0" stroke="#999999" points="164.12,-20 116.62,-20 116.62,0 164.12,0 164.12,-20"/>
<text text-anchor="middle" x="140.38" y="-6.5" font-family="Helvetica,sans-Serif" font-size="10.00">winnt.h</text>
</a>
</g>
</g>
<!-- Node8&#45;&gt;Node12 -->
<g id="edge11_Node000008_Node000012" class="edge">
<title>Node8&#45;&gt;Node12</title>
<g id="a_edge11_Node000008_Node000012"><a xlink:title=" ">
<path fill="none" stroke="#63b8ff" d="M237,-55.59C218.82,-47.21 191.95,-34.8 171.16,-25.21"/>
<polygon fill="#63b8ff" stroke="#63b8ff" points="172.83,-22.13 162.29,-21.11 169.9,-28.48 172.83,-22.13"/>
</a>
</g>
</g>
<!-- Node13&#45;&gt;Node9 -->
<g id="edge14_Node000013_Node000009" class="edge">
<title>Node13&#45;&gt;Node9</title>
<g id="a_edge14_Node000013_Node000009"><a xlink:title=" ">
<path fill="none" stroke="#63b8ff" d="M648.49,-57.55C645.75,-57 643.02,-56.48 640.38,-56 537.36,-37.29 507.16,-42.75 402.38,-20.43"/>
<polygon fill="#63b8ff" stroke="#63b8ff" points="403.3,-17.05 392.79,-18.35 401.82,-23.89 403.3,-17.05"/>
</a>
</g>
</g>
<!-- Node14 -->
<g id="Node000014" class="node">
<title>Node14</title>
<g id="a_Node000014"><a xlink:title=" ">
<polygon fill="#e0e0e0" stroke="#999999" points="761.38,-20 721.38,-20 721.38,0 761.38,0 761.38,-20"/>
<text text-anchor="middle" x="741.38" y="-6.5" font-family="Helvetica,sans-Serif" font-size="10.00">bitset</text>
</a>
</g>
</g>
<!-- Node13&#45;&gt;Node14 -->
<g id="edge13_Node000013_Node000014" class="edge">
<title>Node13&#45;&gt;Node14</title>
<g id="a_edge13_Node000013_Node000014"><a xlink:title=" ">
<path fill="none" stroke="#63b8ff" d="M692.65,-55.59C700.94,-48.01 712.82,-37.13 722.78,-28.02"/>
<polygon fill="#63b8ff" stroke="#63b8ff" points="725.09,-30.65 730.1,-21.32 720.36,-25.49 725.09,-30.65"/>
</a>
</g>
</g>
<!-- Node15 -->
<g id="Node000015" class="node">
<title>Node15</title>
<g id="a_Node000015"><a xlink:title=" ">
<polygon fill="#e0e0e0" stroke="#999999" points="966.25,-20 916.5,-20 916.5,0 966.25,0 966.25,-20"/>
<text text-anchor="middle" x="941.38" y="-6.5" font-family="Helvetica,sans-Serif" font-size="10.00">optional</text>
</a>
</g>
</g>
<!-- Node13&#45;&gt;Node15 -->
<g id="edge15_Node000013_Node000015" class="edge">
<title>Node13&#45;&gt;Node15</title>
<g id="a_edge15_Node000013_Node000015"><a xlink:title=" ">
<path fill="none" stroke="#63b8ff" d="M716.23,-59.02C758.4,-51.41 832.89,-37.42 905.1,-20.66"/>
<polygon fill="#63b8ff" stroke="#63b8ff" points="905.79,-24.1 914.72,-18.41 904.19,-17.28 905.79,-24.1"/>
</a>
</g>
</g>
<!-- Node16 -->
<g id="Node000016" class="node">
<title>Node16</title>
<g id="a_Node000016"><a xlink:title=" ">
<polygon fill="#e0e0e0" stroke="#999999" points="1206.38,-20 1166.38,-20 1166.38,0 1206.38,0 1206.38,-20"/>
<text text-anchor="middle" x="1186.38" y="-6.5" font-family="Helvetica,sans-Serif" font-size="10.00">string</text>
</a>
</g>
</g>
<!-- Node13&#45;&gt;Node16 -->
<g id="edge16_Node000013_Node000016" class="edge">
<title>Node13&#45;&gt;Node16</title>
<g id="a_edge16_Node000013_Node000016"><a xlink:title=" ">
<path fill="none" stroke="#63b8ff" d="M716.28,-62.7C806.75,-56.43 1053.36,-38.39 1154.85,-20.04"/>
<polygon fill="#63b8ff" stroke="#63b8ff" points="1155.27,-23.53 1164.43,-18.21 1153.95,-16.65 1155.27,-23.53"/>
</a>
</g>
</g>
<!-- Node17 -->
<g id="Node000017" class="node">
<title>Node17</title>
<g id="a_Node000017"><a xlink:title=" ">
<polygon fill="#e0e0e0" stroke="#999999" points="703.75,-20 621,-20 621,0 703.75,0 703.75,-20"/>
<text text-anchor="middle" x="662.38" y="-6.5" font-family="Helvetica,sans-Serif" font-size="10.00">unordered_map</text>
</a>
</g>
</g>
<!-- Node13&#45;&gt;Node17 -->
<g id="edge17_Node000013_Node000017" class="edge">
<title>Node13&#45;&gt;Node17</title>
<g id="a_edge17_Node000013_Node000017"><a xlink:title=" ">
<path fill="none" stroke="#63b8ff" d="M678.89,-55.59C676.37,-48.78 672.86,-39.32 669.73,-30.86"/>
<polygon fill="#63b8ff" stroke="#63b8ff" points="673.1,-29.88 666.34,-21.72 666.54,-32.31 673.1,-29.88"/>
</a>
</g>
</g>
<!-- Node18 -->
<g id="Node000018" class="node">
<title>Node18</title>
<g id="a_Node000018"><a xlink:title=" ">
<polygon fill="#e0e0e0" stroke="#999999" points="898.88,-20 855.88,-20 855.88,0 898.88,0 898.88,-20"/>
<text text-anchor="middle" x="877.38" y="-6.5" font-family="Helvetica,sans-Serif" font-size="10.00">vector</text>
</a>
</g>
</g>
<!-- Node13&#45;&gt;Node18 -->
<g id="edge18_Node000013_Node000018" class="edge">
<title>Node13&#45;&gt;Node18</title>
<g id="a_edge18_Node000013_Node000018"><a xlink:title=" ">
<path fill="none" stroke="#63b8ff" d="M716.34,-55.84C747.33,-47.44 794.66,-34.53 844.94,-20.37"/>
<polygon fill="#63b8ff" stroke="#63b8ff" points="845.58,-23.83 854.25,-17.75 843.68,-17.09 845.58,-23.83"/>
</a>
</g>
</g>
<!-- Node19 -->
<g id="Node000019" class="node">
<title>Node19</title>
<g id="a_Node000019"><a xlink:href="nvenc__config_8h.html" target="_top" xlink:title="Declarations for NVENC encoder configuration.">
<polygon fill="white" stroke="#666666" points="603,-20 491.75,-20 491.75,0 603,0 603,-20"/>
<text text-anchor="middle" x="547.38" y="-6.5" font-family="Helvetica,sans-Serif" font-size="10.00">nvenc/nvenc_config.h</text>
</a>
</g>
</g>
<!-- Node13&#45;&gt;Node19 -->
<g id="edge19_Node000013_Node000019" class="edge">
<title>Node13&#45;&gt;Node19</title>
<g id="a_edge19_Node000013_Node000019"><a xlink:title=" ">
<path fill="none" stroke="#63b8ff" d="M658.86,-55.59C637.5,-47.05 605.74,-34.35 581.58,-24.68"/>
<polygon fill="#63b8ff" stroke="#63b8ff" points="583.06,-21.51 572.48,-21.04 580.46,-28.01 583.06,-21.51"/>
</a>
</g>
</g>
<!-- Node20&#45;&gt;Node13 -->
<g id="edge23_Node000020_Node000013" class="edge">
<title>Node20&#45;&gt;Node13</title>
<g id="a_edge23_Node000020_Node000013"><a xlink:title=" ">
<path fill="none" stroke="#63b8ff" d="M593.78,-117.62C610.5,-108.07 636.69,-93.11 656.26,-81.92"/>
<polygon fill="#63b8ff" stroke="#63b8ff" points="657.82,-85.06 664.77,-77.06 654.35,-78.98 657.82,-85.06"/>
</a>
</g>
</g>
<!-- Node21 -->
<g id="Node000021" class="node">
<title>Node21</title>
<g id="a_Node000021"><a xlink:title=" ">
<polygon fill="#e0e0e0" stroke="#999999" points="630.88,-76 515.88,-76 515.88,-56 630.88,-56 630.88,-76"/>
<text text-anchor="middle" x="573.38" y="-62.5" font-family="Helvetica,sans-Serif" font-size="10.00">boost/log/common.hpp</text>
</a>
</g>
</g>
<!-- Node20&#45;&gt;Node21 -->
<g id="edge21_Node000020_Node000021" class="edge">
<title>Node20&#45;&gt;Node21</title>
<g id="a_edge21_Node000020_Node000021"><a xlink:title=" ">
<path fill="none" stroke="#63b8ff" d="M576.75,-117.62C576.21,-109.56 575.42,-97.65 574.74,-87.41"/>
<polygon fill="#63b8ff" stroke="#63b8ff" points="578.24,-87.37 574.08,-77.62 571.26,-87.83 578.24,-87.37"/>
</a>
</g>
</g>
<!-- Node22 -->
<g id="Node000022" class="node">
<title>Node22</title>
<g id="a_Node000022"><a xlink:title=" ">
<polygon fill="#e0e0e0" stroke="#999999" points="398.75,-76 298,-76 298,-56 398.75,-56 398.75,-76"/>
<text text-anchor="middle" x="348.38" y="-62.5" font-family="Helvetica,sans-Serif" font-size="10.00">boost/log/sinks.hpp</text>
</a>
</g>
</g>
<!-- Node20&#45;&gt;Node22 -->
<g id="edge22_Node000020_Node000022" class="edge">
<title>Node20&#45;&gt;Node22</title>
<g id="a_edge22_Node000020_Node000022"><a xlink:title=" ">
<path fill="none" stroke="#63b8ff" d="M546.76,-117.58C540.37,-115.68 533.67,-113.73 527.38,-112 484.45,-100.17 435.38,-87.93 399.49,-79.2"/>
<polygon fill="#63b8ff" stroke="#63b8ff" points="400.34,-75.8 389.79,-76.85 398.69,-82.61 400.34,-75.8"/>
</a>
</g>
</g>
<!-- Node23 -->
<g id="Node000023" class="node">
<title>Node23</title>
<g id="a_Node000023"><a xlink:href="stat__trackers_8h.html" target="_top" xlink:title="Declarations for streaming statistic tracking.">
<polygon fill="white" stroke="#666666" points="498,-76 416.75,-76 416.75,-56 498,-56 498,-76"/>
<text text-anchor="middle" x="457.38" y="-62.5" font-family="Helvetica,sans-Serif" font-size="10.00">stat_trackers.h</text>
</a>
</g>
</g>
<!-- Node20&#45;&gt;Node23 -->
<g id="edge24_Node000020_Node000023" class="edge">
<title>Node20&#45;&gt;Node23</title>
<g id="a_edge24_Node000020_Node000023"><a xlink:title=" ">
<path fill="none" stroke="#63b8ff" d="M558.62,-117.62C539.16,-107.89 508.48,-92.55 485.99,-81.31"/>
<polygon fill="#63b8ff" stroke="#63b8ff" points="487.86,-78.33 477.35,-76.99 484.73,-84.59 487.86,-78.33"/>
</a>
</g>
</g>
<!-- Node23&#45;&gt;Node9 -->
<g id="edge25_Node000023_Node000009" class="edge">
<title>Node23&#45;&gt;Node9</title>
<g id="a_edge25_Node000023_Node000009"><a xlink:title=" ">
<path fill="none" stroke="#63b8ff" d="M441.87,-55.59C428.55,-47.51 409.1,-35.71 393.55,-26.27"/>
<polygon fill="#63b8ff" stroke="#63b8ff" points="395.66,-23.46 385.29,-21.26 392.03,-29.44 395.66,-23.46"/>
</a>
</g>
</g>
<!-- Node24 -->
<g id="Node000024" class="node">
<title>Node24</title>
<g id="a_Node000024"><a xlink:title=" ">
<polygon fill="#e0e0e0" stroke="#999999" points="837.38,-20 779.38,-20 779.38,0 837.38,0 837.38,-20"/>
<text text-anchor="middle" x="808.38" y="-6.5" font-family="Helvetica,sans-Serif" font-size="10.00">functional</text>
</a>
</g>
</g>
<!-- Node23&#45;&gt;Node24 -->
<g id="edge26_Node000023_Node000024" class="edge">
<title>Node23&#45;&gt;Node24</title>
<g id="a_edge26_Node000023_Node000024"><a xlink:title=" ">
<path fill="none" stroke="#63b8ff" d="M498.28,-57.49C501.36,-56.97 504.41,-56.47 507.38,-56 620.37,-38.1 652.47,-41.39 767.92,-20.31"/>
<polygon fill="#63b8ff" stroke="#63b8ff" points="768.29,-23.8 777.49,-18.53 767.02,-16.91 768.29,-23.8"/>
</a>
</g>
</g>
<!-- Node25 -->
<g id="Node000025" class="node">
<title>Node25</title>
<g id="a_Node000025"><a xlink:title=" ">
<polygon fill="#e0e0e0" stroke="#999999" points="221,-20 181.75,-20 181.75,0 221,0 221,-20"/>
<text text-anchor="middle" x="201.38" y="-6.5" font-family="Helvetica,sans-Serif" font-size="10.00">limits</text>
</a>
</g>
</g>
<!-- Node23&#45;&gt;Node25 -->
<g id="edge27_Node000023_Node000025" class="edge">
<title>Node23&#45;&gt;Node25</title>
<g id="a_edge27_Node000023_Node000025"><a xlink:title=" ">
<path fill="none" stroke="#63b8ff" d="M416.46,-57.52C365.14,-48.03 278.99,-31.79 232.42,-20.52"/>
<polygon fill="#63b8ff" stroke="#63b8ff" points="233.5,-17.18 222.95,-18.14 231.79,-23.97 233.5,-17.18"/>
</a>
</g>
</g>
<!-- Node26 -->
<g id="Node000026" class="node">
<title>Node26</title>
<g id="a_Node000026"><a xlink:title=" ">
<polygon fill="#e0e0e0" stroke="#999999" points="328.12,-20 238.62,-20 238.62,0 328.12,0 328.12,-20"/>
<text text-anchor="middle" x="283.38" y="-6.5" font-family="Helvetica,sans-Serif" font-size="10.00">boost/format.hpp</text>
</a>
</g>
</g>
<!-- Node23&#45;&gt;Node26 -->
<g id="edge28_Node000023_Node000026" class="edge">
<title>Node23&#45;&gt;Node26</title>
<g id="a_edge28_Node000023_Node000026"><a xlink:title=" ">
<path fill="none" stroke="#63b8ff" d="M427.07,-55.59C398.67,-46.78 356.01,-33.54 324.54,-23.78"/>
<polygon fill="#63b8ff" stroke="#63b8ff" points="325.95,-20.55 315.37,-20.93 323.88,-27.23 325.95,-20.55"/>
</a>
</g>
</g>
<!-- Node27&#45;&gt;Node13 -->
<g id="edge36_Node000027_Node000013" class="edge">
<title>Node27&#45;&gt;Node13</title>
<g id="a_edge36_Node000027_Node000013"><a xlink:title=" ">
<path fill="none" stroke="#63b8ff" d="M986.94,-186.49C907.76,-182.12 771.56,-170.85 730.38,-144 709.9,-130.66 696.62,-105.21 689.33,-87.23"/>
<polygon fill="#63b8ff" stroke="#63b8ff" points="692.61,-86.02 685.83,-77.87 686.05,-88.47 692.61,-86.02"/>
</a>
</g>
</g>
<!-- Node27&#45;&gt;Node14 -->
<g id="edge30_Node000027_Node000014" class="edge">
<title>Node27&#45;&gt;Node14</title>
<g id="a_edge30_Node000027_Node000014"><a xlink:title=" ">
<path fill="none" stroke="#63b8ff" d="M986.8,-185.11C946.49,-180.2 893.09,-169.09 852.38,-144 805.38,-115.04 768.71,-59.24 751.72,-29.97"/>
<polygon fill="#63b8ff" stroke="#63b8ff" points="754.9,-28.47 746.94,-21.48 748.8,-31.91 754.9,-28.47"/>
</a>
</g>
</g>
<!-- Node27&#45;&gt;Node16 -->
<g id="edge34_Node000027_Node000016" class="edge">
<title>Node27&#45;&gt;Node16</title>
<g id="a_edge34_Node000027_Node000016"><a xlink:title=" ">
<path fill="none" stroke="#63b8ff" d="M1051.07,-179.81C1060.71,-164.67 1081.34,-133.99 1103.38,-112 1122.25,-93.16 1133.98,-96.21 1151.38,-76 1163.13,-62.34 1172.53,-44.07 1178.62,-30.38"/>
<polygon fill="#63b8ff" stroke="#63b8ff" points="1181.68,-32.13 1182.34,-21.56 1175.23,-29.41 1181.68,-32.13"/>
</a>
</g>
</g>
<!-- Node27&#45;&gt;Node20 -->
<g id="edge37_Node000027_Node000020" class="edge">
<title>Node27&#45;&gt;Node20</title>
<g id="a_edge37_Node000027_Node000020"><a xlink:title=" ">
<path fill="none" stroke="#63b8ff" d="M986.92,-181.79C916.19,-173.04 793.52,-157.73 688.38,-144 667.5,-141.27 644.43,-138.17 624.76,-135.5"/>
<polygon fill="#63b8ff" stroke="#63b8ff" points="625.49,-132.07 615.11,-134.18 624.54,-139 625.49,-132.07"/>
</a>
</g>
</g>
<!-- Node27&#45;&gt;Node24 -->
<g id="edge32_Node000027_Node000024" class="edge">
<title>Node27&#45;&gt;Node24</title>
<g id="a_edge32_Node000027_Node000024"><a xlink:title=" ">
<path fill="none" stroke="#63b8ff" d="M996.81,-179.56C943.64,-166.4 860.72,-136.92 821.38,-76 812.86,-62.81 809.73,-45.22 808.66,-31.67"/>
<polygon fill="#63b8ff" stroke="#63b8ff" points="812.16,-31.53 808.23,-21.7 805.16,-31.84 812.16,-31.53"/>
</a>
</g>
</g>
<!-- Node28 -->
<g id="Node000028" class="node">
<title>Node28</title>
<g id="a_Node000028"><a xlink:title=" ">
<polygon fill="#e0e0e0" stroke="#999999" points="1172.88,-138 1111.88,-138 1111.88,-118 1172.88,-118 1172.88,-138"/>
<text text-anchor="middle" x="1142.38" y="-124.5" font-family="Helvetica,sans-Serif" font-size="10.00">filesystem</text>
</a>
</g>
</g>
<!-- Node27&#45;&gt;Node28 -->
<g id="edge31_Node000027_Node000028" class="edge">
<title>Node27&#45;&gt;Node28</title>
<g id="a_edge31_Node000027_Node000028"><a xlink:title=" ">
<path fill="none" stroke="#63b8ff" d="M1060.53,-179.62C1075.84,-170.16 1099.73,-155.38 1117.75,-144.23"/>
<polygon fill="#63b8ff" stroke="#63b8ff" points="1119.37,-147.34 1126.04,-139.11 1115.69,-141.39 1119.37,-147.34"/>
</a>
</g>
</g>
<!-- Node29 -->
<g id="Node000029" class="node">
<title>Node29</title>
<g id="a_Node000029"><a xlink:title=" ">
<polygon fill="#e0e0e0" stroke="#999999" points="1554.88,-20 1511.88,-20 1511.88,0 1554.88,0 1554.88,-20"/>
<text text-anchor="middle" x="1533.38" y="-6.5" font-family="Helvetica,sans-Serif" font-size="10.00">mutex</text>
</a>
</g>
</g>
<!-- Node27&#45;&gt;Node29 -->
<g id="edge33_Node000027_Node000029" class="edge">
<title>Node27&#45;&gt;Node29</title>
<g id="a_edge33_Node000027_Node000029"><a xlink:title=" ">
<path fill="none" stroke="#63b8ff" d="M1104.05,-188.61C1239.4,-187.09 1564.44,-179.72 1597.38,-144 1629.48,-109.17 1581.84,-55.28 1552.89,-28.03"/>
<polygon fill="#63b8ff" stroke="#63b8ff" points="1555.47,-25.65 1545.73,-21.5 1550.76,-30.82 1555.47,-25.65"/>
</a>
</g>
</g>
<!-- Node30 -->
<g id="Node000030" class="node">
<title>Node30</title>
<g id="a_Node000030"><a xlink:title=" ">
<polygon fill="#e0e0e0" stroke="#999999" points="1463.5,-138 1325.25,-138 1325.25,-118 1463.5,-118 1463.5,-138"/>
<text text-anchor="middle" x="1394.38" y="-124.5" font-family="Helvetica,sans-Serif" font-size="10.00">boost/core/noncopyable.hpp</text>
</a>
</g>
</g>
<!-- Node27&#45;&gt;Node30 -->
<g id="edge35_Node000027_Node000030" class="edge">
<title>Node27&#45;&gt;Node30</title>
<g id="a_edge35_Node000027_Node000030"><a xlink:title=" ">
<path fill="none" stroke="#63b8ff" d="M1103.86,-179.73C1158.8,-170.92 1243.26,-157.1 1316.38,-144 1322.4,-142.92 1328.68,-141.77 1334.94,-140.59"/>
<polygon fill="#63b8ff" stroke="#63b8ff" points="1335.48,-144.05 1344.66,-138.75 1334.18,-137.17 1335.48,-144.05"/>
</a>
</g>
</g>
<!-- Node31 -->
<g id="Node000031" class="node">
<title>Node31</title>
<g id="a_Node000031"><a xlink:href="thread__safe_8h.html" target="_top" xlink:title="Declarations for thread&#45;safe data structures.">
<polygon fill="white" stroke="#666666" points="1017.25,-138 925.5,-138 925.5,-118 1017.25,-118 1017.25,-138"/>
<text text-anchor="middle" x="971.38" y="-124.5" font-family="Helvetica,sans-Serif" font-size="10.00">src/thread_safe.h</text>
</a>
</g>
</g>
<!-- Node27&#45;&gt;Node31 -->
<g id="edge38_Node000027_Node000031" class="edge">
<title>Node27&#45;&gt;Node31</title>
<g id="a_edge38_Node000027_Node000031"><a xlink:title=" ">
<path fill="none" stroke="#63b8ff" d="M1033.81,-179.62C1022.45,-170.41 1004.89,-156.17 991.28,-145.14"/>
<polygon fill="#63b8ff" stroke="#63b8ff" points="993.76,-142.65 983.79,-139.07 989.35,-148.08 993.76,-142.65"/>
</a>
</g>
</g>
<!-- Node36 -->
<g id="Node000036" class="node">
<title>Node36</title>
<g id="a_Node000036"><a xlink:href="utility_8h.html" target="_top" xlink:title="Declarations for utility functions.">
<polygon fill="white" stroke="#666666" points="1142.75,-76 1096,-76 1096,-56 1142.75,-56 1142.75,-76"/>
<text text-anchor="middle" x="1119.38" y="-62.5" font-family="Helvetica,sans-Serif" font-size="10.00">utility.h</text>
</a>
</g>
</g>
<!-- Node27&#45;&gt;Node36 -->
<g id="edge58_Node000027_Node000036" class="edge">
<title>Node27&#45;&gt;Node36</title>
<g id="a_edge58_Node000027_Node000036"><a xlink:title=" ">
<path fill="none" stroke="#63b8ff" d="M1046.62,-179.8C1049.02,-164.64 1055.32,-133.93 1069.38,-112 1076.47,-100.94 1086.98,-90.91 1096.54,-83.14"/>
<polygon fill="#63b8ff" stroke="#63b8ff" points="1098.62,-85.96 1104.42,-77.09 1094.36,-80.41 1098.62,-85.96"/>
</a>
</g>
</g>
<!-- Node42 -->
<g id="Node000042" class="node">
<title>Node42</title>
<g id="a_Node000042"><a xlink:href="video__colorspace_8h.html" target="_top" xlink:title="Declarations for colorspace functions.">
<polygon fill="white" stroke="#666666" points="1307.62,-138 1191.12,-138 1191.12,-118 1307.62,-118 1307.62,-138"/>
<text text-anchor="middle" x="1249.38" y="-124.5" font-family="Helvetica,sans-Serif" font-size="10.00">src/video_colorspace.h</text>
</a>
</g>
</g>
<!-- Node27&#45;&gt;Node42 -->
<g id="edge59_Node000027_Node000042" class="edge">
<title>Node27&#45;&gt;Node42</title>
<g id="a_edge59_Node000027_Node000042"><a xlink:title=" ">
<path fill="none" stroke="#63b8ff" d="M1077.25,-179.62C1112.03,-169.4 1167.89,-152.97 1206.5,-141.61"/>
<polygon fill="#63b8ff" stroke="#63b8ff" points="1207.33,-145.01 1215.94,-138.84 1205.35,-138.3 1207.33,-145.01"/>
</a>
</g>
</g>
<!-- Node44 -->
<g id="Node000044" class="node">
<title>Node44</title>
<g id="a_Node000044"><a xlink:title=" ">
<polygon fill="#e0e0e0" stroke="#999999" points="1588.75,-144 1482,-144 1482,-112 1588.75,-112 1588.75,-144"/>
<text text-anchor="start" x="1490" y="-130.5" font-family="Helvetica,sans-Serif" font-size="10.00">moonlight&#45;common&#45;c</text>
<text text-anchor="middle" x="1535.38" y="-118.5" font-family="Helvetica,sans-Serif" font-size="10.00">/src/Limelight.h</text>
</a>
</g>
</g>
<!-- Node27&#45;&gt;Node44 -->
<g id="edge61_Node000027_Node000044" class="edge">
<title>Node27&#45;&gt;Node44</title>
<g id="a_edge61_Node000027_Node000044"><a xlink:title=" ">
<path fill="none" stroke="#63b8ff" d="M1104.06,-185.22C1184.5,-179.5 1333.64,-167.02 1470.43,-144.18"/>
<polygon fill="#63b8ff" stroke="#63b8ff" points="1470.75,-147.68 1480.02,-142.56 1469.58,-140.78 1470.75,-147.68"/>
</a>
</g>
</g>
<!-- Node31&#45;&gt;Node18 -->
<g id="edge45_Node000031_Node000018" class="edge">
<title>Node31&#45;&gt;Node18</title>
<g id="a_edge45_Node000031_Node000018"><a xlink:title=" ">
<path fill="none" stroke="#63b8ff" d="M963.68,-117.51C948.04,-98.21 912.31,-54.11 892.07,-29.13"/>
<polygon fill="#63b8ff" stroke="#63b8ff" points="894.88,-27.04 885.86,-21.48 889.44,-31.45 894.88,-27.04"/>
</a>
</g>
</g>
<!-- Node31&#45;&gt;Node24 -->
<g id="edge42_Node000031_Node000024" class="edge">
<title>Node31&#45;&gt;Node24</title>
<g id="a_edge42_Node000031_Node000024"><a xlink:title=" ">
<path fill="none" stroke="#63b8ff" d="M925.21,-118.21C897.52,-110.91 863.16,-98.04 839.38,-76 826.33,-63.92 818.22,-45.21 813.58,-30.95"/>
<polygon fill="#63b8ff" stroke="#63b8ff" points="817.05,-30.35 810.89,-21.73 810.33,-32.31 817.05,-30.35"/>
</a>
</g>
</g>
<!-- Node31&#45;&gt;Node29 -->
<g id="edge44_Node000031_Node000029" class="edge">
<title>Node31&#45;&gt;Node29</title>
<g id="a_edge44_Node000031_Node000029"><a xlink:title=" ">
<path fill="none" stroke="#63b8ff" d="M1004.3,-117.59C1068.34,-99.33 1205.34,-60.47 1227.38,-56 1345.06,-32.13 1380.35,-45.04 1500.42,-20.34"/>
<polygon fill="#63b8ff" stroke="#63b8ff" points="1500.98,-23.8 1510.05,-18.31 1499.54,-16.95 1500.98,-23.8"/>
</a>
</g>
</g>
<!-- Node32 -->
<g id="Node000032" class="node">
<title>Node32</title>
<g id="a_Node000032"><a xlink:title=" ">
<polygon fill="#e0e0e0" stroke="#999999" points="1014.25,-76 976.5,-76 976.5,-56 1014.25,-56 1014.25,-76"/>
<text text-anchor="middle" x="995.38" y="-62.5" font-family="Helvetica,sans-Serif" font-size="10.00">array</text>
</a>
</g>
</g>
<!-- Node31&#45;&gt;Node32 -->
<g id="edge39_Node000031_Node000032" class="edge">
<title>Node31&#45;&gt;Node32</title>
<g id="a_edge39_Node000031_Node000032"><a xlink:title=" ">
<path fill="none" stroke="#63b8ff" d="M975.12,-117.62C978.42,-109.39 983.32,-97.13 987.48,-86.74"/>
<polygon fill="#63b8ff" stroke="#63b8ff" points="990.7,-88.1 991.17,-77.52 984.2,-85.5 990.7,-88.1"/>
</a>
</g>
</g>
<!-- Node33 -->
<g id="Node000033" class="node">
<title>Node33</title>
<g id="a_Node000033"><a xlink:title=" ">
<polygon fill="#e0e0e0" stroke="#999999" points="1078,-76 1032.75,-76 1032.75,-56 1078,-56 1078,-76"/>
<text text-anchor="middle" x="1055.38" y="-62.5" font-family="Helvetica,sans-Serif" font-size="10.00">atomic</text>
</a>
</g>
</g>
<!-- Node31&#45;&gt;Node33 -->
<g id="edge40_Node000031_Node000033" class="edge">
<title>Node31&#45;&gt;Node33</title>
<g id="a_edge40_Node000031_Node000033"><a xlink:title=" ">
<path fill="none" stroke="#63b8ff" d="M984.5,-117.62C997.57,-108.29 1017.87,-93.79 1033.4,-82.7"/>
<polygon fill="#63b8ff" stroke="#63b8ff" points="1035.01,-85.85 1041.11,-77.19 1030.94,-80.15 1035.01,-85.85"/>
</a>
</g>
</g>
<!-- Node34 -->
<g id="Node000034" class="node">
<title>Node34</title>
<g id="a_Node000034"><a xlink:title=" ">
<polygon fill="#e0e0e0" stroke="#999999" points="1078.38,-20 984.38,-20 984.38,0 1078.38,0 1078.38,-20"/>
<text text-anchor="middle" x="1031.38" y="-6.5" font-family="Helvetica,sans-Serif" font-size="10.00">condition_variable</text>
</a>
</g>
</g>
<!-- Node31&#45;&gt;Node34 -->
<g id="edge41_Node000031_Node000034" class="edge">
<title>Node31&#45;&gt;Node34</title>
<g id="a_edge41_Node000031_Node000034"><a xlink:title=" ">
<path fill="none" stroke="#63b8ff" d="M967.97,-117.63C963.41,-103.41 957.02,-75.94 967.38,-56 974.08,-43.1 986.36,-33.12 998.39,-25.87"/>
<polygon fill="#63b8ff" stroke="#63b8ff" points="999.9,-29.04 1006.98,-21.15 996.53,-22.9 999.9,-29.04"/>
</a>
</g>
</g>
<!-- Node35 -->
<g id="Node000035" class="node">
<title>Node35</title>
<g id="a_Node000035"><a xlink:title=" ">
<polygon fill="#e0e0e0" stroke="#999999" points="882.75,-76 848,-76 848,-56 882.75,-56 882.75,-76"/>
<text text-anchor="middle" x="865.38" y="-62.5" font-family="Helvetica,sans-Serif" font-size="10.00">map</text>
</a>
</g>
</g>
<!-- Node31&#45;&gt;Node35 -->
<g id="edge43_Node000031_Node000035" class="edge">
<title>Node31&#45;&gt;Node35</title>
<g id="a_edge43_Node000031_Node000035"><a xlink:title=" ">
<path fill="none" stroke="#63b8ff" d="M954.81,-117.62C937.93,-108.07 911.49,-93.11 891.73,-81.92"/>
<polygon fill="#63b8ff" stroke="#63b8ff" points="893.57,-78.93 883.14,-77.05 890.12,-85.03 893.57,-78.93"/>
</a>
</g>
</g>
<!-- Node31&#45;&gt;Node36 -->
<g id="edge46_Node000031_Node000036" class="edge">
<title>Node31&#45;&gt;Node36</title>
<g id="a_edge46_Node000031_Node000036"><a xlink:title=" ">
<path fill="none" stroke="#63b8ff" d="M994.5,-117.62C1019.05,-107.67 1058.07,-91.85 1085.95,-80.55"/>
<polygon fill="#63b8ff" stroke="#63b8ff" points="1087.06,-83.88 1095.01,-76.88 1084.43,-77.39 1087.06,-83.88"/>
</a>
</g>
</g>
<!-- Node36&#45;&gt;Node10 -->
<g id="edge54_Node000036_Node000010" class="edge">
<title>Node36&#45;&gt;Node10</title>
<g id="a_edge54_Node000036_Node000010"><a xlink:title=" ">
<path fill="none" stroke="#63b8ff" d="M1095.74,-57.74C1092.94,-57.06 1090.11,-56.46 1087.38,-56 825.38,-11.89 751.21,-55.76 485.57,-20.24"/>
<polygon fill="#63b8ff" stroke="#63b8ff" points="486.29,-16.81 475.91,-18.92 485.35,-23.74 486.29,-16.81"/>
</a>
</g>
</g>
<!-- Node36&#45;&gt;Node15 -->
<g id="edge51_Node000036_Node000015" class="edge">
<title>Node36&#45;&gt;Node15</title>
<g id="a_edge51_Node000036_Node000015"><a xlink:title=" ">
<path fill="none" stroke="#63b8ff" d="M1095.74,-57.83C1065.44,-48.64 1012.63,-32.62 977.34,-21.91"/>
<polygon fill="#63b8ff" stroke="#63b8ff" points="978.58,-18.63 968,-19.08 976.55,-25.33 978.58,-18.63"/>
</a>
</g>
</g>
<!-- Node36&#45;&gt;Node16 -->
<g id="edge53_Node000036_Node000016" class="edge">
<title>Node36&#45;&gt;Node16</title>
<g id="a_edge53_Node000036_Node000016"><a xlink:title=" ">
<path fill="none" stroke="#63b8ff" d="M1131.05,-55.59C1140.65,-47.85 1154.5,-36.69 1165.94,-27.47"/>
<polygon fill="#63b8ff" stroke="#63b8ff" points="1168.07,-30.25 1173.66,-21.25 1163.68,-24.8 1168.07,-30.25"/>
</a>
</g>
</g>
<!-- Node36&#45;&gt;Node18 -->
<g id="edge57_Node000036_Node000018" class="edge">
<title>Node36&#45;&gt;Node18</title>
<g id="a_edge57_Node000036_Node000018"><a xlink:title=" ">
<path fill="none" stroke="#63b8ff" d="M1095.66,-58.11C1092.88,-57.37 1090.07,-56.65 1087.38,-56 1011.46,-37.76 988.49,-39.54 910.16,-20.52"/>
<polygon fill="#63b8ff" stroke="#63b8ff" points="911.28,-17.19 900.73,-18.19 909.6,-23.99 911.28,-17.19"/>
</a>
</g>
</g>
<!-- Node36&#45;&gt;Node29 -->
<g id="edge50_Node000036_Node000029" class="edge">
<title>Node36&#45;&gt;Node29</title>
<g id="a_edge50_Node000036_Node000029"><a xlink:title=" ">
<path fill="none" stroke="#63b8ff" d="M1143.16,-58.71C1147.53,-57.7 1152.08,-56.74 1156.38,-56 1305.58,-30.23 1349.3,-49.46 1500.47,-20.26"/>
<polygon fill="#63b8ff" stroke="#63b8ff" points="1500.92,-23.73 1510.06,-18.36 1499.57,-16.87 1500.92,-23.73"/>
</a>
</g>
</g>
<!-- Node36&#45;&gt;Node34 -->
<g id="edge48_Node000036_Node000034" class="edge">
<title>Node36&#45;&gt;Node34</title>
<g id="a_edge48_Node000036_Node000034"><a xlink:title=" ">
<path fill="none" stroke="#63b8ff" d="M1104.05,-55.59C1090.88,-47.51 1071.64,-35.71 1056.27,-26.27"/>
<polygon fill="#63b8ff" stroke="#63b8ff" points="1058.47,-23.52 1048.11,-21.27 1054.81,-29.48 1058.47,-23.52"/>
</a>
</g>
</g>
<!-- Node37 -->
<g id="Node000037" class="node">
<title>Node37</title>
<g id="a_Node000037"><a xlink:title=" ">
<polygon fill="#e0e0e0" stroke="#999999" points="1424.25,-20 1368.5,-20 1368.5,0 1424.25,0 1424.25,-20"/>
<text text-anchor="middle" x="1396.38" y="-6.5" font-family="Helvetica,sans-Serif" font-size="10.00">algorithm</text>
</a>
</g>
</g>
<!-- Node36&#45;&gt;Node37 -->
<g id="edge47_Node000036_Node000037" class="edge">
<title>Node36&#45;&gt;Node37</title>
<g id="a_edge47_Node000036_Node000037"><a xlink:title=" ">
<path fill="none" stroke="#63b8ff" d="M1143.21,-58.97C1147.58,-57.93 1152.1,-56.9 1156.38,-56 1242.54,-37.9 1267.75,-38.74 1356.93,-20.4"/>
<polygon fill="#63b8ff" stroke="#63b8ff" points="1357.58,-23.84 1366.65,-18.37 1356.15,-16.99 1357.58,-23.84"/>
</a>
</g>
</g>
<!-- Node38 -->
<g id="Node000038" class="node">
<title>Node38</title>
<g id="a_Node000038"><a xlink:title=" ">
<polygon fill="#e0e0e0" stroke="#999999" points="1494,-20 1442.75,-20 1442.75,0 1494,0 1494,-20"/>
<text text-anchor="middle" x="1468.38" y="-6.5" font-family="Helvetica,sans-Serif" font-size="10.00">memory</text>
</a>
</g>
</g>
<!-- Node36&#45;&gt;Node38 -->
<g id="edge49_Node000036_Node000038" class="edge">
<title>Node36&#45;&gt;Node38</title>
<g id="a_edge49_Node000036_Node000038"><a xlink:title=" ">
<path fill="none" stroke="#63b8ff" d="M1143.18,-58.8C1147.55,-57.78 1152.09,-56.8 1156.38,-56 1274.85,-33.96 1309.46,-42.93 1431.2,-20.19"/>
<polygon fill="#63b8ff" stroke="#63b8ff" points="1431.81,-23.63 1440.97,-18.32 1430.5,-16.76 1431.81,-23.63"/>
</a>
</g>
</g>
<!-- Node39 -->
<g id="Node000039" class="node">
<title>Node39</title>
<g id="a_Node000039"><a xlink:title=" ">
<polygon fill="#e0e0e0" stroke="#999999" points="1148,-20 1096.75,-20 1096.75,0 1148,0 1148,-20"/>
<text text-anchor="middle" x="1122.38" y="-6.5" font-family="Helvetica,sans-Serif" font-size="10.00">ostream</text>
</a>
</g>
</g>
<!-- Node36&#45;&gt;Node39 -->
<g id="edge52_Node000036_Node000039" class="edge">
<title>Node36&#45;&gt;Node39</title>
<g id="a_edge52_Node000036_Node000039"><a xlink:title=" ">
<path fill="none" stroke="#63b8ff" d="M1119.9,-55.59C1120.26,-49.01 1120.77,-39.96 1121.22,-31.73"/>
<polygon fill="#63b8ff" stroke="#63b8ff" points="1124.71,-31.99 1121.77,-21.81 1117.73,-31.6 1124.71,-31.99"/>
</a>
</g>
</g>
<!-- Node40 -->
<g id="Node000040" class="node">
<title>Node40</title>
<g id="a_Node000040"><a xlink:title=" ">
<polygon fill="#e0e0e0" stroke="#999999" points="1286.25,-20 1224.5,-20 1224.5,0 1286.25,0 1286.25,-20"/>
<text text-anchor="middle" x="1255.38" y="-6.5" font-family="Helvetica,sans-Serif" font-size="10.00">type_traits</text>
</a>
</g>
</g>
<!-- Node36&#45;&gt;Node40 -->
<g id="edge55_Node000036_Node000040" class="edge">
<title>Node36&#45;&gt;Node40</title>
<g id="a_edge55_Node000036_Node000040"><a xlink:title=" ">
<path fill="none" stroke="#63b8ff" d="M1143.06,-55.59C1164.58,-47.05 1196.58,-34.35 1220.92,-24.68"/>
<polygon fill="#63b8ff" stroke="#63b8ff" points="1222.09,-27.98 1230.09,-21.04 1219.51,-21.48 1222.09,-27.98"/>
</a>
</g>
</g>
<!-- Node41 -->
<g id="Node000041" class="node">
<title>Node41</title>
<g id="a_Node000041"><a xlink:title=" ">
<polygon fill="#e0e0e0" stroke="#999999" points="1350,-20 1304.75,-20 1304.75,0 1350,0 1350,-20"/>
<text text-anchor="middle" x="1327.38" y="-6.5" font-family="Helvetica,sans-Serif" font-size="10.00">variant</text>
</a>
</g>
</g>
<!-- Node36&#45;&gt;Node41 -->
<g id="edge56_Node000036_Node000041" class="edge">
<title>Node36&#45;&gt;Node41</title>
<g id="a_edge56_Node000036_Node000041"><a xlink:title=" ">
<path fill="none" stroke="#63b8ff" d="M1143.05,-59.14C1174.97,-51.19 1233.84,-36.4 1293.56,-20.44"/>
<polygon fill="#63b8ff" stroke="#63b8ff" points="1294.11,-23.92 1302.86,-17.95 1292.29,-17.16 1294.11,-23.92"/>
</a>
</g>
</g>
<!-- Node43 -->
<g id="Node000043" class="node">
<title>Node43</title>
<g id="a_Node000043"><a xlink:title=" ">
<polygon fill="#e0e0e0" stroke="#999999" points="1324,-76 1236.75,-76 1236.75,-56 1324,-56 1324,-76"/>
<text text-anchor="middle" x="1280.38" y="-62.5" font-family="Helvetica,sans-Serif" font-size="10.00">libavutil/pixfmt.h</text>
</a>
</g>
</g>
<!-- Node42&#45;&gt;Node43 -->
<g id="edge60_Node000042_Node000043" class="edge">
<title>Node42&#45;&gt;Node43</title>
<g id="a_edge60_Node000042_Node000043"><a xlink:title=" ">
<path fill="none" stroke="#63b8ff" d="M1254.22,-117.62C1258.57,-109.21 1265.08,-96.6 1270.52,-86.07"/>
<polygon fill="#63b8ff" stroke="#63b8ff" points="1273.49,-87.95 1274.97,-77.46 1267.27,-84.74 1273.49,-87.95"/>
</a>
</g>
</g>
<!-- Node45&#45;&gt;Node4 -->
<g id="edge63_Node000045_Node000004" class="edge">
<title>Node45&#45;&gt;Node4</title>
<g id="a_edge63_Node000045_Node000004"><a xlink:title=" ">
<path fill="none" stroke="#63b8ff" d="M192.69,-179.62C197.46,-171.21 204.6,-158.6 210.57,-148.07"/>
<polygon fill="#63b8ff" stroke="#63b8ff" points="213.58,-149.86 215.46,-139.43 207.49,-146.4 213.58,-149.86"/>
</a>
</g>
</g>
</g>
</svg>

<g id="navigator" transform="translate(0 0)" fill="#404254">
  <rect fill="#f2f5e9" fill-opacity="0.5" stroke="#606060" stroke-width=".5" x="0" y="0" width="60" height="60"/>
  <use id="zoomplus" xlink:href="#zoomPlus" x="17" y="9" onmousedown="handleZoom(evt,'in')"/>
  <use id="zoomminus" xlink:href="#zoomMin" x="42" y="9" onmousedown="handleZoom(evt,'out')"/>
  <use id="reset" xlink:href="#resetDef" x="30" y="36" onmousedown="handleReset()"/>
   <use id="arrowup" xlink:href="#arrowUp" x="0" y="0" onmousedown="handlePan(0,-1)"/>
  <use id="arrowright" xlink:href="#arrowRight" x="0" y="0" onmousedown="handlePan(1,0)"/>
  <use id="arrowdown" xlink:href="#arrowDown" x="0" y="0" onmousedown="handlePan(0,1)"/>
  <use id="arrowleft" xlink:href="#arrowLeft" x="0" y="0" onmousedown="handlePan(-1,0)"/>
</g>
<svg viewBox="0 0 15 15" width="100%" height="30px" preserveAspectRatio="xMaxYMin meet">
 <g id="arrow_out" transform="scale(0.3 0.3)">
  <a xlink:href="platform_2windows_2audio_8cpp__incl_org.svg" target="_base">
   <rect id="button" ry="5" rx="5" y="6" x="6" height="38" width="38"
        fill="#f2f5e9" fill-opacity="0.5" stroke="#606060" stroke-width="1.0"/>
   <path id="arrow"
     d="M 11.500037,31.436501 C 11.940474,20.09759 22.043105,11.32322 32.158766,21.979434 L 37.068811,17.246167 C 37.068811,17.246167 37.088388,32 37.088388,32 L 22.160133,31.978069 C 22.160133,31.978069 26.997745,27.140456 26.997745,27.140456 C 18.528582,18.264221 13.291696,25.230495 11.500037,31.436501 z"
     style="fill:#404040;"/>
  </a>
 </g>
</svg>

<style type='text/css'>
<![CDATA[
[data-mouse-over-selected='false'] { opacity: 0.7; }
[data-mouse-over-selected='true']  { opacity: 1.0; }
]]>
</style>
<script type="application/ecmascript"><![CDATA[
document.addEventListener('DOMContentLoaded', (event) => {
  highlightEdges();
  highlightAdjacentNodes();
});
]]></script>
</svg>
