<?xml version="1.0" encoding="UTF-8" standalone="no"?>
<!DOCTYPE svg PUBLIC "-//W3C//DTD SVG 1.1//EN"
 "http://www.w3.org/Graphics/SVG/1.1/DTD/svg11.dtd">
<!-- Generated by graphviz version 12.2.1 (0)
 -->
<!-- Title: src/platform/linux/audio.cpp Pages: 1 -->
<svg width="1428pt" height="276pt"
 viewBox="0.00 0.00 1427.62 276.00" xmlns="http://www.w3.org/2000/svg" xmlns:xlink="http://www.w3.org/1999/xlink">
<g id="graph0" class="graph" transform="scale(1 1) rotate(0) translate(4 272)">
<title>src/platform/linux/audio.cpp</title>
<!-- Node1 -->
<g id="Node000001" class="node">
<title>Node1</title>
<g id="a_Node000001"><a xlink:title="Definitions for audio control on Linux.">
<polygon fill="#999999" stroke="#666666" points="866.12,-268 775.12,-268 775.12,-236 866.12,-236 866.12,-268"/>
<text text-anchor="start" x="783.12" y="-254.5" font-family="Helvetica,sans-Serif" font-size="10.00">src/platform/linux</text>
<text text-anchor="middle" x="820.62" y="-242.5" font-family="Helvetica,sans-Serif" font-size="10.00">/audio.cpp</text>
</a>
</g>
</g>
<!-- Node2 -->
<g id="Node000002" class="node">
<title>Node2</title>
<g id="a_Node000002"><a xlink:title=" ">
<polygon fill="#e0e0e0" stroke="#999999" points="313.62,-20 273.62,-20 273.62,0 313.62,0 313.62,-20"/>
<text text-anchor="middle" x="293.62" y="-6.5" font-family="Helvetica,sans-Serif" font-size="10.00">bitset</text>
</a>
</g>
</g>
<!-- Node1&#45;&gt;Node2 -->
<g id="edge1_Node000001_Node000002" class="edge">
<title>Node1&#45;&gt;Node2</title>
<g id="a_edge1_Node000001_Node000002"><a xlink:title=" ">
<path fill="none" stroke="#63b8ff" d="M774.78,-249.63C701.47,-246.41 553.95,-235.67 434.62,-200 313.11,-163.68 245.06,-183.41 177.62,-76 172.9,-68.47 172.6,-63.33 177.62,-56 187.53,-41.54 231.48,-27.33 262.34,-18.86"/>
<polygon fill="#63b8ff" stroke="#63b8ff" points="263.21,-22.26 271.97,-16.3 261.4,-15.49 263.21,-22.26"/>
</a>
</g>
</g>
<!-- Node3 -->
<g id="Node000003" class="node">
<title>Node3</title>
<g id="a_Node000003"><a xlink:title=" ">
<polygon fill="#e0e0e0" stroke="#999999" points="846.25,-200 795,-200 795,-180 846.25,-180 846.25,-200"/>
<text text-anchor="middle" x="820.62" y="-186.5" font-family="Helvetica,sans-Serif" font-size="10.00">sstream</text>
</a>
</g>
</g>
<!-- Node1&#45;&gt;Node3 -->
<g id="edge2_Node000001_Node000003" class="edge">
<title>Node1&#45;&gt;Node3</title>
<g id="a_edge2_Node000001_Node000003"><a xlink:title=" ">
<path fill="none" stroke="#63b8ff" d="M820.62,-235.55C820.62,-228.34 820.62,-219.66 820.62,-211.88"/>
<polygon fill="#63b8ff" stroke="#63b8ff" points="824.13,-211.92 820.63,-201.92 817.13,-211.92 824.13,-211.92"/>
</a>
</g>
</g>
<!-- Node4 -->
<g id="Node000004" class="node">
<title>Node4</title>
<g id="a_Node000004"><a xlink:title=" ">
<polygon fill="#e0e0e0" stroke="#999999" points="907.12,-200 864.12,-200 864.12,-180 907.12,-180 907.12,-200"/>
<text text-anchor="middle" x="885.62" y="-186.5" font-family="Helvetica,sans-Serif" font-size="10.00">thread</text>
</a>
</g>
</g>
<!-- Node1&#45;&gt;Node4 -->
<g id="edge3_Node000001_Node000004" class="edge">
<title>Node1&#45;&gt;Node4</title>
<g id="a_edge3_Node000001_Node000004"><a xlink:title=" ">
<path fill="none" stroke="#63b8ff" d="M837.36,-235.55C846.49,-227.13 857.79,-216.69 867.17,-208.04"/>
<polygon fill="#63b8ff" stroke="#63b8ff" points="869.35,-210.79 874.32,-201.43 864.6,-205.65 869.35,-210.79"/>
</a>
</g>
</g>
<!-- Node5 -->
<g id="Node000005" class="node">
<title>Node5</title>
<g id="a_Node000005"><a xlink:title=" ">
<polygon fill="#e0e0e0" stroke="#999999" points="1010.5,-200 924.75,-200 924.75,-180 1010.5,-180 1010.5,-200"/>
<text text-anchor="middle" x="967.62" y="-186.5" font-family="Helvetica,sans-Serif" font-size="10.00">boost/regex.hpp</text>
</a>
</g>
</g>
<!-- Node1&#45;&gt;Node5 -->
<g id="edge4_Node000001_Node000005" class="edge">
<title>Node1&#45;&gt;Node5</title>
<g id="a_edge4_Node000001_Node000005"><a xlink:title=" ">
<path fill="none" stroke="#63b8ff" d="M858.48,-235.55C881.87,-226 911.63,-213.86 934.15,-204.66"/>
<polygon fill="#63b8ff" stroke="#63b8ff" points="935.24,-208 943.17,-200.98 932.59,-201.52 935.24,-208"/>
</a>
</g>
</g>
<!-- Node6 -->
<g id="Node000006" class="node">
<title>Node6</title>
<g id="a_Node000006"><a xlink:title=" ">
<polygon fill="#e0e0e0" stroke="#999999" points="1098.62,-200 1028.62,-200 1028.62,-180 1098.62,-180 1098.62,-200"/>
<text text-anchor="middle" x="1063.62" y="-186.5" font-family="Helvetica,sans-Serif" font-size="10.00">pulse/error.h</text>
</a>
</g>
</g>
<!-- Node1&#45;&gt;Node6 -->
<g id="edge5_Node000001_Node000006" class="edge">
<title>Node1&#45;&gt;Node6</title>
<g id="a_edge5_Node000001_Node000006"><a xlink:title=" ">
<path fill="none" stroke="#63b8ff" d="M866.62,-239.64C909.81,-228.98 974.11,-213.1 1017.39,-202.42"/>
<polygon fill="#63b8ff" stroke="#63b8ff" points="1018.12,-205.84 1026.98,-200.05 1016.44,-199.05 1018.12,-205.84"/>
</a>
</g>
</g>
<!-- Node7 -->
<g id="Node000007" class="node">
<title>Node7</title>
<g id="a_Node000007"><a xlink:title=" ">
<polygon fill="#e0e0e0" stroke="#999999" points="1214.12,-200 1117.12,-200 1117.12,-180 1214.12,-180 1214.12,-200"/>
<text text-anchor="middle" x="1165.62" y="-186.5" font-family="Helvetica,sans-Serif" font-size="10.00">pulse/pulseaudio.h</text>
</a>
</g>
</g>
<!-- Node1&#45;&gt;Node7 -->
<g id="edge6_Node000001_Node000007" class="edge">
<title>Node1&#45;&gt;Node7</title>
<g id="a_edge6_Node000001_Node000007"><a xlink:title=" ">
<path fill="none" stroke="#63b8ff" d="M866.44,-243.03C928.08,-232.31 1037.81,-213.23 1105.87,-201.39"/>
<polygon fill="#63b8ff" stroke="#63b8ff" points="1106.09,-204.91 1115.35,-199.74 1104.89,-198.01 1106.09,-204.91"/>
</a>
</g>
</g>
<!-- Node8 -->
<g id="Node000008" class="node">
<title>Node8</title>
<g id="a_Node000008"><a xlink:title=" ">
<polygon fill="#e0e0e0" stroke="#999999" points="1311.12,-200 1232.12,-200 1232.12,-180 1311.12,-180 1311.12,-200"/>
<text text-anchor="middle" x="1271.62" y="-186.5" font-family="Helvetica,sans-Serif" font-size="10.00">pulse/simple.h</text>
</a>
</g>
</g>
<!-- Node1&#45;&gt;Node8 -->
<g id="edge7_Node000001_Node000008" class="edge">
<title>Node1&#45;&gt;Node8</title>
<g id="a_edge7_Node000001_Node000008"><a xlink:title=" ">
<path fill="none" stroke="#63b8ff" d="M866.38,-246.11C939.21,-238.12 1086.23,-221.21 1220.55,-200.41"/>
<polygon fill="#63b8ff" stroke="#63b8ff" points="1221.01,-203.88 1230.35,-198.88 1219.93,-196.96 1221.01,-203.88"/>
</a>
</g>
</g>
<!-- Node9 -->
<g id="Node000009" class="node">
<title>Node9</title>
<g id="a_Node000009"><a xlink:href="config_8h.html" target="_top" xlink:title="Declarations for the configuration of Sunshine.">
<polygon fill="white" stroke="#666666" points="544.12,-76 477.12,-76 477.12,-56 544.12,-56 544.12,-76"/>
<text text-anchor="middle" x="510.62" y="-62.5" font-family="Helvetica,sans-Serif" font-size="10.00">src/config.h</text>
</a>
</g>
</g>
<!-- Node1&#45;&gt;Node9 -->
<g id="edge8_Node000001_Node000009" class="edge">
<title>Node1&#45;&gt;Node9</title>
<g id="a_edge8_Node000001_Node000009"><a xlink:title=" ">
<path fill="none" stroke="#63b8ff" d="M774.95,-243.88C732.14,-236.26 666.94,-222.17 613.62,-200 569.43,-181.62 547.98,-183.96 521.62,-144 510.61,-127.29 508.66,-104.12 508.97,-87.57"/>
<polygon fill="#63b8ff" stroke="#63b8ff" points="512.45,-88.1 509.46,-77.93 505.46,-87.74 512.45,-88.1"/>
</a>
</g>
</g>
<!-- Node16 -->
<g id="Node000016" class="node">
<title>Node16</title>
<g id="a_Node000016"><a xlink:href="logging_8h.html" target="_top" xlink:title="Declarations for logging related functions.">
<polygon fill="white" stroke="#666666" points="413.38,-138 341.88,-138 341.88,-118 413.38,-118 413.38,-138"/>
<text text-anchor="middle" x="377.62" y="-124.5" font-family="Helvetica,sans-Serif" font-size="10.00">src/logging.h</text>
</a>
</g>
</g>
<!-- Node1&#45;&gt;Node16 -->
<g id="edge16_Node000001_Node000016" class="edge">
<title>Node1&#45;&gt;Node16</title>
<g id="a_edge16_Node000001_Node000016"><a xlink:title=" ">
<path fill="none" stroke="#63b8ff" d="M774.8,-251.35C706.39,-250.33 574.69,-242.39 472.62,-200 442.34,-187.42 412.98,-163.02 395.1,-146.37"/>
<polygon fill="#63b8ff" stroke="#63b8ff" points="397.59,-143.91 387.95,-139.52 392.75,-148.97 397.59,-143.91"/>
</a>
</g>
</g>
<!-- Node23 -->
<g id="Node000023" class="node">
<title>Node23</title>
<g id="a_Node000023"><a xlink:href="common_8h.html" target="_top" xlink:title="Declarations for common platform specific utilities.">
<polygon fill="white" stroke="#666666" points="738.88,-200 622.38,-200 622.38,-180 738.88,-180 738.88,-200"/>
<text text-anchor="middle" x="680.62" y="-186.5" font-family="Helvetica,sans-Serif" font-size="10.00">src/platform/common.h</text>
</a>
</g>
</g>
<!-- Node1&#45;&gt;Node23 -->
<g id="edge25_Node000001_Node000023" class="edge">
<title>Node1&#45;&gt;Node23</title>
<g id="a_edge25_Node000001_Node000023"><a xlink:title=" ">
<path fill="none" stroke="#63b8ff" d="M784.57,-235.55C762.49,-226.09 734.47,-214.08 713.09,-204.91"/>
<polygon fill="#63b8ff" stroke="#63b8ff" points="714.54,-201.73 703.97,-201 711.78,-208.16 714.54,-201.73"/>
</a>
</g>
</g>
<!-- Node27 -->
<g id="Node000027" class="node">
<title>Node27</title>
<g id="a_Node000027"><a xlink:href="thread__safe_8h.html" target="_top" xlink:title="Declarations for thread&#45;safe data structures.">
<polygon fill="white" stroke="#666666" points="1252.5,-138 1160.75,-138 1160.75,-118 1252.5,-118 1252.5,-138"/>
<text text-anchor="middle" x="1206.62" y="-124.5" font-family="Helvetica,sans-Serif" font-size="10.00">src/thread_safe.h</text>
</a>
</g>
</g>
<!-- Node1&#45;&gt;Node27 -->
<g id="edge58_Node000001_Node000027" class="edge">
<title>Node1&#45;&gt;Node27</title>
<g id="a_edge58_Node000001_Node000027"><a xlink:title=" ">
<path fill="none" stroke="#63b8ff" d="M803.6,-235.7C788.44,-220.25 770.77,-196.39 785.62,-180 840.51,-119.45 1071.25,-158.8 1151.62,-144 1155.76,-143.24 1160.04,-142.32 1164.3,-141.31"/>
<polygon fill="#63b8ff" stroke="#63b8ff" points="1165.12,-144.71 1173.96,-138.86 1163.4,-137.92 1165.12,-144.71"/>
</a>
</g>
</g>
<!-- Node9&#45;&gt;Node2 -->
<g id="edge9_Node000009_Node000002" class="edge">
<title>Node9&#45;&gt;Node2</title>
<g id="a_edge9_Node000009_Node000002"><a xlink:title=" ">
<path fill="none" stroke="#63b8ff" d="M476.83,-57.62C441.28,-49.7 383.47,-36.38 324.81,-20.47"/>
<polygon fill="#63b8ff" stroke="#63b8ff" points="325.89,-17.13 315.32,-17.87 324.04,-23.88 325.89,-17.13"/>
</a>
</g>
</g>
<!-- Node10 -->
<g id="Node000010" class="node">
<title>Node10</title>
<g id="a_Node000010"><a xlink:title=" ">
<polygon fill="#e0e0e0" stroke="#999999" points="240.25,-20 195,-20 195,0 240.25,0 240.25,-20"/>
<text text-anchor="middle" x="217.62" y="-6.5" font-family="Helvetica,sans-Serif" font-size="10.00">chrono</text>
</a>
</g>
</g>
<!-- Node9&#45;&gt;Node10 -->
<g id="edge10_Node000009_Node000010" class="edge">
<title>Node9&#45;&gt;Node10</title>
<g id="a_edge10_Node000009_Node000010"><a xlink:title=" ">
<path fill="none" stroke="#63b8ff" d="M476.79,-58.9C429.34,-50.33 340.37,-34.18 264.62,-20 260.46,-19.22 256.09,-18.39 251.76,-17.57"/>
<polygon fill="#63b8ff" stroke="#63b8ff" points="252.53,-14.16 242.05,-15.72 251.22,-21.03 252.53,-14.16"/>
</a>
</g>
</g>
<!-- Node11 -->
<g id="Node000011" class="node">
<title>Node11</title>
<g id="a_Node000011"><a xlink:title=" ">
<polygon fill="#e0e0e0" stroke="#999999" points="745.5,-20 695.75,-20 695.75,0 745.5,0 745.5,-20"/>
<text text-anchor="middle" x="720.62" y="-6.5" font-family="Helvetica,sans-Serif" font-size="10.00">optional</text>
</a>
</g>
</g>
<!-- Node9&#45;&gt;Node11 -->
<g id="edge11_Node000009_Node000011" class="edge">
<title>Node9&#45;&gt;Node11</title>
<g id="a_edge11_Node000009_Node000011"><a xlink:title=" ">
<path fill="none" stroke="#63b8ff" d="M544.39,-56.46C577.62,-48.03 630.1,-34.67 684.48,-20.54"/>
<polygon fill="#63b8ff" stroke="#63b8ff" points="685.12,-23.99 693.92,-18.09 683.36,-17.22 685.12,-23.99"/>
</a>
</g>
</g>
<!-- Node12 -->
<g id="Node000012" class="node">
<title>Node12</title>
<g id="a_Node000012"><a xlink:title=" ">
<polygon fill="#e0e0e0" stroke="#999999" points="677.62,-20 637.62,-20 637.62,0 677.62,0 677.62,-20"/>
<text text-anchor="middle" x="657.62" y="-6.5" font-family="Helvetica,sans-Serif" font-size="10.00">string</text>
</a>
</g>
</g>
<!-- Node9&#45;&gt;Node12 -->
<g id="edge12_Node000009_Node000012" class="edge">
<title>Node9&#45;&gt;Node12</title>
<g id="a_edge12_Node000009_Node000012"><a xlink:title=" ">
<path fill="none" stroke="#63b8ff" d="M536.23,-55.59C561.42,-46.34 599.91,-32.2 626.77,-22.33"/>
<polygon fill="#63b8ff" stroke="#63b8ff" points="627.9,-25.65 636.08,-18.91 625.49,-19.08 627.9,-25.65"/>
</a>
</g>
</g>
<!-- Node13 -->
<g id="Node000013" class="node">
<title>Node13</title>
<g id="a_Node000013"><a xlink:title=" ">
<polygon fill="#e0e0e0" stroke="#999999" points="414,-20 331.25,-20 331.25,0 414,0 414,-20"/>
<text text-anchor="middle" x="372.62" y="-6.5" font-family="Helvetica,sans-Serif" font-size="10.00">unordered_map</text>
</a>
</g>
</g>
<!-- Node9&#45;&gt;Node13 -->
<g id="edge13_Node000009_Node000013" class="edge">
<title>Node9&#45;&gt;Node13</title>
<g id="a_edge13_Node000009_Node000013"><a xlink:title=" ">
<path fill="none" stroke="#63b8ff" d="M486.59,-55.59C464.66,-47.01 432,-34.23 407.25,-24.55"/>
<polygon fill="#63b8ff" stroke="#63b8ff" points="408.85,-21.42 398.26,-21.03 406.3,-27.93 408.85,-21.42"/>
</a>
</g>
</g>
<!-- Node14 -->
<g id="Node000014" class="node">
<title>Node14</title>
<g id="a_Node000014"><a xlink:title=" ">
<polygon fill="#e0e0e0" stroke="#999999" points="806.12,-20 763.12,-20 763.12,0 806.12,0 806.12,-20"/>
<text text-anchor="middle" x="784.62" y="-6.5" font-family="Helvetica,sans-Serif" font-size="10.00">vector</text>
</a>
</g>
</g>
<!-- Node9&#45;&gt;Node14 -->
<g id="edge14_Node000009_Node000014" class="edge">
<title>Node9&#45;&gt;Node14</title>
<g id="a_edge14_Node000009_Node000014"><a xlink:title=" ">
<path fill="none" stroke="#63b8ff" d="M544.42,-59.96C589.62,-52.97 672.43,-39.25 751.6,-20.54"/>
<polygon fill="#63b8ff" stroke="#63b8ff" points="752.37,-23.95 761.27,-18.22 750.73,-17.15 752.37,-23.95"/>
</a>
</g>
</g>
<!-- Node15 -->
<g id="Node000015" class="node">
<title>Node15</title>
<g id="a_Node000015"><a xlink:href="nvenc__config_8h.html" target="_top" xlink:title="Declarations for NVENC encoder configuration.">
<polygon fill="white" stroke="#666666" points="543.25,-20 432,-20 432,0 543.25,0 543.25,-20"/>
<text text-anchor="middle" x="487.62" y="-6.5" font-family="Helvetica,sans-Serif" font-size="10.00">nvenc/nvenc_config.h</text>
</a>
</g>
</g>
<!-- Node9&#45;&gt;Node15 -->
<g id="edge15_Node000009_Node000015" class="edge">
<title>Node9&#45;&gt;Node15</title>
<g id="a_edge15_Node000009_Node000015"><a xlink:title=" ">
<path fill="none" stroke="#63b8ff" d="M506.62,-55.59C503.72,-48.78 499.69,-39.32 496.08,-30.86"/>
<polygon fill="#63b8ff" stroke="#63b8ff" points="499.32,-29.52 492.18,-21.69 492.88,-32.26 499.32,-29.52"/>
</a>
</g>
</g>
<!-- Node16&#45;&gt;Node9 -->
<g id="edge19_Node000016_Node000009" class="edge">
<title>Node16&#45;&gt;Node9</title>
<g id="a_edge19_Node000016_Node000009"><a xlink:title=" ">
<path fill="none" stroke="#63b8ff" d="M398.41,-117.62C420.17,-107.81 454.6,-92.27 479.59,-81"/>
<polygon fill="#63b8ff" stroke="#63b8ff" points="480.93,-84.23 488.61,-76.93 478.06,-77.85 480.93,-84.23"/>
</a>
</g>
</g>
<!-- Node17 -->
<g id="Node000017" class="node">
<title>Node17</title>
<g id="a_Node000017"><a xlink:title=" ">
<polygon fill="#e0e0e0" stroke="#999999" points="302.12,-76 187.12,-76 187.12,-56 302.12,-56 302.12,-76"/>
<text text-anchor="middle" x="244.62" y="-62.5" font-family="Helvetica,sans-Serif" font-size="10.00">boost/log/common.hpp</text>
</a>
</g>
</g>
<!-- Node16&#45;&gt;Node17 -->
<g id="edge17_Node000016_Node000017" class="edge">
<title>Node16&#45;&gt;Node17</title>
<g id="a_edge17_Node000016_Node000017"><a xlink:title=" ">
<path fill="none" stroke="#63b8ff" d="M356.84,-117.62C335.08,-107.81 300.65,-92.27 275.66,-81"/>
<polygon fill="#63b8ff" stroke="#63b8ff" points="277.19,-77.85 266.64,-76.93 274.32,-84.23 277.19,-77.85"/>
</a>
</g>
</g>
<!-- Node18 -->
<g id="Node000018" class="node">
<title>Node18</title>
<g id="a_Node000018"><a xlink:title=" ">
<polygon fill="#e0e0e0" stroke="#999999" points="421,-76 320.25,-76 320.25,-56 421,-56 421,-76"/>
<text text-anchor="middle" x="370.62" y="-62.5" font-family="Helvetica,sans-Serif" font-size="10.00">boost/log/sinks.hpp</text>
</a>
</g>
</g>
<!-- Node16&#45;&gt;Node18 -->
<g id="edge18_Node000016_Node000018" class="edge">
<title>Node16&#45;&gt;Node18</title>
<g id="a_edge18_Node000016_Node000018"><a xlink:title=" ">
<path fill="none" stroke="#63b8ff" d="M376.53,-117.62C375.59,-109.56 374.2,-97.65 373.01,-87.41"/>
<polygon fill="#63b8ff" stroke="#63b8ff" points="376.5,-87.14 371.86,-77.62 369.55,-87.95 376.5,-87.14"/>
</a>
</g>
</g>
<!-- Node19 -->
<g id="Node000019" class="node">
<title>Node19</title>
<g id="a_Node000019"><a xlink:href="stat__trackers_8h.html" target="_top" xlink:title="Declarations for streaming statistic tracking.">
<polygon fill="white" stroke="#666666" points="130.25,-76 49,-76 49,-56 130.25,-56 130.25,-76"/>
<text text-anchor="middle" x="89.62" y="-62.5" font-family="Helvetica,sans-Serif" font-size="10.00">stat_trackers.h</text>
</a>
</g>
</g>
<!-- Node16&#45;&gt;Node19 -->
<g id="edge20_Node000016_Node000019" class="edge">
<title>Node16&#45;&gt;Node19</title>
<g id="a_edge20_Node000016_Node000019"><a xlink:title=" ">
<path fill="none" stroke="#63b8ff" d="M341.44,-119.46C291.02,-108.96 199.33,-89.86 141.6,-77.83"/>
<polygon fill="#63b8ff" stroke="#63b8ff" points="142.52,-74.44 132.01,-75.83 141.09,-81.3 142.52,-74.44"/>
</a>
</g>
</g>
<!-- Node19&#45;&gt;Node10 -->
<g id="edge21_Node000019_Node000010" class="edge">
<title>Node19&#45;&gt;Node10</title>
<g id="a_edge21_Node000019_Node000010"><a xlink:title=" ">
<path fill="none" stroke="#63b8ff" d="M111.92,-55.59C131.99,-47.13 161.74,-34.58 184.58,-24.94"/>
<polygon fill="#63b8ff" stroke="#63b8ff" points="185.91,-28.18 193.76,-21.07 183.19,-21.73 185.91,-28.18"/>
</a>
</g>
</g>
<!-- Node20 -->
<g id="Node000020" class="node">
<title>Node20</title>
<g id="a_Node000020"><a xlink:title=" ">
<polygon fill="#e0e0e0" stroke="#999999" points="619.62,-20 561.62,-20 561.62,0 619.62,0 619.62,-20"/>
<text text-anchor="middle" x="590.62" y="-6.5" font-family="Helvetica,sans-Serif" font-size="10.00">functional</text>
</a>
</g>
</g>
<!-- Node19&#45;&gt;Node20 -->
<g id="edge22_Node000019_Node000020" class="edge">
<title>Node19&#45;&gt;Node20</title>
<g id="a_edge22_Node000019_Node000020"><a xlink:title=" ">
<path fill="none" stroke="#63b8ff" d="M130.36,-60.78C145.24,-59.25 162.19,-57.53 177.62,-56 340.66,-39.84 385.53,-47.03 550.22,-20.19"/>
<polygon fill="#63b8ff" stroke="#63b8ff" points="550.46,-23.7 559.75,-18.62 549.32,-16.8 550.46,-23.7"/>
</a>
</g>
</g>
<!-- Node21 -->
<g id="Node000021" class="node">
<title>Node21</title>
<g id="a_Node000021"><a xlink:title=" ">
<polygon fill="#e0e0e0" stroke="#999999" points="39.25,-20 0,-20 0,0 39.25,0 39.25,-20"/>
<text text-anchor="middle" x="19.62" y="-6.5" font-family="Helvetica,sans-Serif" font-size="10.00">limits</text>
</a>
</g>
</g>
<!-- Node19&#45;&gt;Node21 -->
<g id="edge23_Node000019_Node000021" class="edge">
<title>Node19&#45;&gt;Node21</title>
<g id="a_edge23_Node000019_Node000021"><a xlink:title=" ">
<path fill="none" stroke="#63b8ff" d="M77.43,-55.59C67.29,-47.77 52.63,-36.46 40.61,-27.19"/>
<polygon fill="#63b8ff" stroke="#63b8ff" points="42.93,-24.56 32.88,-21.22 38.66,-30.1 42.93,-24.56"/>
</a>
</g>
</g>
<!-- Node22 -->
<g id="Node000022" class="node">
<title>Node22</title>
<g id="a_Node000022"><a xlink:title=" ">
<polygon fill="#e0e0e0" stroke="#999999" points="146.38,-20 56.88,-20 56.88,0 146.38,0 146.38,-20"/>
<text text-anchor="middle" x="101.62" y="-6.5" font-family="Helvetica,sans-Serif" font-size="10.00">boost/format.hpp</text>
</a>
</g>
</g>
<!-- Node19&#45;&gt;Node22 -->
<g id="edge24_Node000019_Node000022" class="edge">
<title>Node19&#45;&gt;Node22</title>
<g id="a_edge24_Node000019_Node000022"><a xlink:title=" ">
<path fill="none" stroke="#63b8ff" d="M91.72,-55.59C93.2,-48.93 95.24,-39.75 97.08,-31.44"/>
<polygon fill="#63b8ff" stroke="#63b8ff" points="100.48,-32.3 99.23,-21.78 93.64,-30.78 100.48,-32.3"/>
</a>
</g>
</g>
<!-- Node23&#45;&gt;Node2 -->
<g id="edge26_Node000023_Node000002" class="edge">
<title>Node23&#45;&gt;Node2</title>
<g id="a_edge26_Node000023_Node000002"><a xlink:title=" ">
<path fill="none" stroke="#63b8ff" d="M622.03,-179.53C590.77,-172.77 552.51,-161.66 521.62,-144 472.51,-115.91 478.12,-85.16 429.62,-56 424.97,-53.2 363.3,-33.25 324.62,-20.88"/>
<polygon fill="#63b8ff" stroke="#63b8ff" points="325.95,-17.63 315.36,-17.92 323.82,-24.29 325.95,-17.63"/>
</a>
</g>
</g>
<!-- Node23&#45;&gt;Node9 -->
<g id="edge32_Node000023_Node000009" class="edge">
<title>Node23&#45;&gt;Node9</title>
<g id="a_edge32_Node000023_Node000009"><a xlink:title=" ">
<path fill="none" stroke="#63b8ff" d="M622.65,-179.55C597.56,-173.03 569.28,-162.13 548.62,-144 531.59,-129.05 521.39,-104.7 515.91,-87.39"/>
<polygon fill="#63b8ff" stroke="#63b8ff" points="519.33,-86.6 513.2,-77.95 512.6,-88.53 519.33,-86.6"/>
</a>
</g>
</g>
<!-- Node23&#45;&gt;Node12 -->
<g id="edge30_Node000023_Node000012" class="edge">
<title>Node23&#45;&gt;Node12</title>
<g id="a_edge30_Node000023_Node000012"><a xlink:title=" ">
<path fill="none" stroke="#63b8ff" d="M739.21,-185.25C767.76,-180.12 799.71,-168.74 817.62,-144 825.97,-132.48 824.49,-124.45 817.62,-112 803.33,-86.07 729.8,-46.56 687.57,-25.47"/>
<polygon fill="#63b8ff" stroke="#63b8ff" points="689.18,-22.36 678.67,-21.07 686.08,-28.64 689.18,-22.36"/>
</a>
</g>
</g>
<!-- Node23&#45;&gt;Node16 -->
<g id="edge33_Node000023_Node000016" class="edge">
<title>Node23&#45;&gt;Node16</title>
<g id="a_edge33_Node000023_Node000016"><a xlink:title=" ">
<path fill="none" stroke="#63b8ff" d="M622.22,-179.61C572.22,-171.26 498.41,-158.2 434.62,-144 430.81,-143.15 426.87,-142.22 422.92,-141.26"/>
<polygon fill="#63b8ff" stroke="#63b8ff" points="423.9,-137.89 413.35,-138.84 422.19,-144.68 423.9,-137.89"/>
</a>
</g>
</g>
<!-- Node23&#45;&gt;Node20 -->
<g id="edge28_Node000023_Node000020" class="edge">
<title>Node23&#45;&gt;Node20</title>
<g id="a_edge28_Node000023_Node000020"><a xlink:title=" ">
<path fill="none" stroke="#63b8ff" d="M634.76,-179.58C615.2,-173.05 594.25,-162.12 582.62,-144 560.44,-109.4 572.91,-58.75 582.61,-31"/>
<polygon fill="#63b8ff" stroke="#63b8ff" points="585.85,-32.33 586.08,-21.73 579.3,-29.87 585.85,-32.33"/>
</a>
</g>
</g>
<!-- Node24 -->
<g id="Node000024" class="node">
<title>Node24</title>
<g id="a_Node000024"><a xlink:title=" ">
<polygon fill="#e0e0e0" stroke="#999999" points="652.12,-138 591.12,-138 591.12,-118 652.12,-118 652.12,-138"/>
<text text-anchor="middle" x="621.62" y="-124.5" font-family="Helvetica,sans-Serif" font-size="10.00">filesystem</text>
</a>
</g>
</g>
<!-- Node23&#45;&gt;Node24 -->
<g id="edge27_Node000023_Node000024" class="edge">
<title>Node23&#45;&gt;Node24</title>
<g id="a_edge27_Node000023_Node000024"><a xlink:title=" ">
<path fill="none" stroke="#63b8ff" d="M671.41,-179.62C662.61,-170.68 649.15,-156.99 638.44,-146.1"/>
<polygon fill="#63b8ff" stroke="#63b8ff" points="641.15,-143.87 631.65,-139.19 636.16,-148.78 641.15,-143.87"/>
</a>
</g>
</g>
<!-- Node25 -->
<g id="Node000025" class="node">
<title>Node25</title>
<g id="a_Node000025"><a xlink:title=" ">
<polygon fill="#e0e0e0" stroke="#999999" points="1307.12,-20 1264.12,-20 1264.12,0 1307.12,0 1307.12,-20"/>
<text text-anchor="middle" x="1285.62" y="-6.5" font-family="Helvetica,sans-Serif" font-size="10.00">mutex</text>
</a>
</g>
</g>
<!-- Node23&#45;&gt;Node25 -->
<g id="edge29_Node000023_Node000025" class="edge">
<title>Node23&#45;&gt;Node25</title>
<g id="a_edge29_Node000023_Node000025"><a xlink:title=" ">
<path fill="none" stroke="#63b8ff" d="M739.21,-183.87C754.33,-182.58 770.58,-181.21 785.62,-180 838.49,-175.74 1222.24,-179.52 1261.62,-144 1293.04,-115.66 1292.11,-61.26 1288.81,-31.57"/>
<polygon fill="#63b8ff" stroke="#63b8ff" points="1292.28,-31.13 1287.49,-21.68 1285.34,-32.05 1292.28,-31.13"/>
</a>
</g>
</g>
<!-- Node26 -->
<g id="Node000026" class="node">
<title>Node26</title>
<g id="a_Node000026"><a xlink:title=" ">
<polygon fill="#e0e0e0" stroke="#999999" points="808.75,-138 670.5,-138 670.5,-118 808.75,-118 808.75,-138"/>
<text text-anchor="middle" x="739.62" y="-124.5" font-family="Helvetica,sans-Serif" font-size="10.00">boost/core/noncopyable.hpp</text>
</a>
</g>
</g>
<!-- Node23&#45;&gt;Node26 -->
<g id="edge31_Node000023_Node000026" class="edge">
<title>Node23&#45;&gt;Node26</title>
<g id="a_edge31_Node000023_Node000026"><a xlink:title=" ">
<path fill="none" stroke="#63b8ff" d="M689.84,-179.62C698.64,-170.68 712.1,-156.99 722.81,-146.1"/>
<polygon fill="#63b8ff" stroke="#63b8ff" points="725.09,-148.78 729.6,-139.19 720.1,-143.87 725.09,-148.78"/>
</a>
</g>
</g>
<!-- Node23&#45;&gt;Node27 -->
<g id="edge34_Node000023_Node000027" class="edge">
<title>Node23&#45;&gt;Node27</title>
<g id="a_edge34_Node000023_Node000027"><a xlink:title=" ">
<path fill="none" stroke="#63b8ff" d="M739.15,-181.51C743.71,-180.98 748.24,-180.47 752.62,-180 929.66,-160.95 976.39,-175.55 1151.62,-144 1155.94,-143.22 1160.41,-142.27 1164.85,-141.21"/>
<polygon fill="#63b8ff" stroke="#63b8ff" points="1165.42,-144.68 1174.25,-138.83 1163.7,-137.9 1165.42,-144.68"/>
</a>
</g>
</g>
<!-- Node32 -->
<g id="Node000032" class="node">
<title>Node32</title>
<g id="a_Node000032"><a xlink:href="utility_8h.html" target="_top" xlink:title="Declarations for utility functions.">
<polygon fill="white" stroke="#666666" points="1062,-76 1015.25,-76 1015.25,-56 1062,-56 1062,-76"/>
<text text-anchor="middle" x="1038.62" y="-62.5" font-family="Helvetica,sans-Serif" font-size="10.00">utility.h</text>
</a>
</g>
</g>
<!-- Node23&#45;&gt;Node32 -->
<g id="edge54_Node000023_Node000032" class="edge">
<title>Node23&#45;&gt;Node32</title>
<g id="a_edge54_Node000023_Node000032"><a xlink:title=" ">
<path fill="none" stroke="#63b8ff" d="M739.32,-181.08C827.48,-169.09 984.4,-147.38 989.62,-144 1010.36,-130.58 1024.01,-104.96 1031.52,-86.97"/>
<polygon fill="#63b8ff" stroke="#63b8ff" points="1034.69,-88.46 1035.03,-77.87 1028.16,-85.93 1034.69,-88.46"/>
</a>
</g>
</g>
<!-- Node39 -->
<g id="Node000039" class="node">
<title>Node39</title>
<g id="a_Node000039"><a xlink:href="video__colorspace_8h.html" target="_top" xlink:title="Declarations for colorspace functions.">
<polygon fill="white" stroke="#666666" points="980.88,-138 864.38,-138 864.38,-118 980.88,-118 980.88,-138"/>
<text text-anchor="middle" x="922.62" y="-124.5" font-family="Helvetica,sans-Serif" font-size="10.00">src/video_colorspace.h</text>
</a>
</g>
</g>
<!-- Node23&#45;&gt;Node39 -->
<g id="edge55_Node000023_Node000039" class="edge">
<title>Node23&#45;&gt;Node39</title>
<g id="a_edge55_Node000023_Node000039"><a xlink:title=" ">
<path fill="none" stroke="#63b8ff" d="M718.7,-179.56C760.42,-169.22 827.49,-152.59 873.23,-141.25"/>
<polygon fill="#63b8ff" stroke="#63b8ff" points="874.04,-144.65 882.9,-138.85 872.35,-137.86 874.04,-144.65"/>
</a>
</g>
</g>
<!-- Node41 -->
<g id="Node000041" class="node">
<title>Node41</title>
<g id="a_Node000041"><a xlink:title=" ">
<polygon fill="#e0e0e0" stroke="#999999" points="1143,-144 1036.25,-144 1036.25,-112 1143,-112 1143,-144"/>
<text text-anchor="start" x="1044.25" y="-130.5" font-family="Helvetica,sans-Serif" font-size="10.00">moonlight&#45;common&#45;c</text>
<text text-anchor="middle" x="1089.62" y="-118.5" font-family="Helvetica,sans-Serif" font-size="10.00">/src/Limelight.h</text>
</a>
</g>
</g>
<!-- Node23&#45;&gt;Node41 -->
<g id="edge57_Node000023_Node000041" class="edge">
<title>Node23&#45;&gt;Node41</title>
<g id="a_edge57_Node000023_Node000041"><a xlink:title=" ">
<path fill="none" stroke="#63b8ff" d="M739.03,-181.61C829.34,-170.13 995.39,-148.83 1022.62,-144 1023.3,-143.88 1023.99,-143.76 1024.67,-143.63"/>
<polygon fill="#63b8ff" stroke="#63b8ff" points="1025.31,-147.07 1034.47,-141.75 1023.99,-140.2 1025.31,-147.07"/>
</a>
</g>
</g>
<!-- Node27&#45;&gt;Node14 -->
<g id="edge41_Node000027_Node000014" class="edge">
<title>Node27&#45;&gt;Node14</title>
<g id="a_edge41_Node000027_Node000014"><a xlink:title=" ">
<path fill="none" stroke="#63b8ff" d="M1172.33,-117.52C1165.48,-115.66 1158.33,-113.75 1151.62,-112 1087.37,-95.26 1068.68,-99.63 1006.62,-76 988.79,-69.21 986.51,-62.67 968.62,-56 905.98,-32.63 884.63,-37.53 817.28,-20.54"/>
<polygon fill="#63b8ff" stroke="#63b8ff" points="818.56,-17.26 808,-18.12 816.8,-24.03 818.56,-17.26"/>
</a>
</g>
</g>
<!-- Node27&#45;&gt;Node20 -->
<g id="edge38_Node000027_Node000020" class="edge">
<title>Node27&#45;&gt;Node20</title>
<g id="a_edge38_Node000027_Node000020"><a xlink:title=" ">
<path fill="none" stroke="#63b8ff" d="M1175.11,-117.58C1167.47,-115.52 1159.3,-113.52 1151.62,-112 1024.64,-86.91 989.99,-99.08 862.62,-76 779.39,-60.92 683.48,-36.26 630.68,-22.05"/>
<polygon fill="#63b8ff" stroke="#63b8ff" points="631.81,-18.72 621.24,-19.49 629.98,-25.48 631.81,-18.72"/>
</a>
</g>
</g>
<!-- Node27&#45;&gt;Node25 -->
<g id="edge40_Node000027_Node000025" class="edge">
<title>Node27&#45;&gt;Node25</title>
<g id="a_edge40_Node000027_Node000025"><a xlink:title=" ">
<path fill="none" stroke="#63b8ff" d="M1213.09,-117.51C1226.12,-98.38 1255.73,-54.89 1272.82,-29.8"/>
<polygon fill="#63b8ff" stroke="#63b8ff" points="1275.7,-31.79 1278.44,-21.55 1269.92,-27.85 1275.7,-31.79"/>
</a>
</g>
</g>
<!-- Node28 -->
<g id="Node000028" class="node">
<title>Node28</title>
<g id="a_Node000028"><a xlink:title=" ">
<polygon fill="#e0e0e0" stroke="#999999" points="1389.5,-76 1351.75,-76 1351.75,-56 1389.5,-56 1389.5,-76"/>
<text text-anchor="middle" x="1370.62" y="-62.5" font-family="Helvetica,sans-Serif" font-size="10.00">array</text>
</a>
</g>
</g>
<!-- Node27&#45;&gt;Node28 -->
<g id="edge35_Node000027_Node000028" class="edge">
<title>Node27&#45;&gt;Node28</title>
<g id="a_edge35_Node000027_Node000028"><a xlink:title=" ">
<path fill="none" stroke="#63b8ff" d="M1232.25,-117.62C1261.62,-106.88 1309.68,-89.3 1340.73,-77.94"/>
<polygon fill="#63b8ff" stroke="#63b8ff" points="1341.72,-81.3 1349.91,-74.58 1339.31,-74.73 1341.72,-81.3"/>
</a>
</g>
</g>
<!-- Node29 -->
<g id="Node000029" class="node">
<title>Node29</title>
<g id="a_Node000029"><a xlink:title=" ">
<polygon fill="#e0e0e0" stroke="#999999" points="1167.25,-76 1122,-76 1122,-56 1167.25,-56 1167.25,-76"/>
<text text-anchor="middle" x="1144.62" y="-62.5" font-family="Helvetica,sans-Serif" font-size="10.00">atomic</text>
</a>
</g>
</g>
<!-- Node27&#45;&gt;Node29 -->
<g id="edge36_Node000027_Node000029" class="edge">
<title>Node27&#45;&gt;Node29</title>
<g id="a_edge36_Node000027_Node000029"><a xlink:title=" ">
<path fill="none" stroke="#63b8ff" d="M1196.94,-117.62C1187.69,-108.68 1173.55,-94.99 1162.3,-84.1"/>
<polygon fill="#63b8ff" stroke="#63b8ff" points="1164.75,-81.6 1155.13,-77.17 1159.88,-86.63 1164.75,-81.6"/>
</a>
</g>
</g>
<!-- Node30 -->
<g id="Node000030" class="node">
<title>Node30</title>
<g id="a_Node000030"><a xlink:title=" ">
<polygon fill="#e0e0e0" stroke="#999999" points="1419.62,-20 1325.62,-20 1325.62,0 1419.62,0 1419.62,-20"/>
<text text-anchor="middle" x="1372.62" y="-6.5" font-family="Helvetica,sans-Serif" font-size="10.00">condition_variable</text>
</a>
</g>
</g>
<!-- Node27&#45;&gt;Node30 -->
<g id="edge37_Node000027_Node000030" class="edge">
<title>Node27&#45;&gt;Node30</title>
<g id="a_edge37_Node000027_Node000030"><a xlink:title=" ">
<path fill="none" stroke="#63b8ff" d="M1220.21,-117.51C1248.68,-97.61 1314.87,-51.36 1349.92,-26.87"/>
<polygon fill="#63b8ff" stroke="#63b8ff" points="1351.88,-29.76 1358.08,-21.17 1347.87,-24.03 1351.88,-29.76"/>
</a>
</g>
</g>
<!-- Node31 -->
<g id="Node000031" class="node">
<title>Node31</title>
<g id="a_Node000031"><a xlink:title=" ">
<polygon fill="#e0e0e0" stroke="#999999" points="1220,-76 1185.25,-76 1185.25,-56 1220,-56 1220,-76"/>
<text text-anchor="middle" x="1202.62" y="-62.5" font-family="Helvetica,sans-Serif" font-size="10.00">map</text>
</a>
</g>
</g>
<!-- Node27&#45;&gt;Node31 -->
<g id="edge39_Node000027_Node000031" class="edge">
<title>Node27&#45;&gt;Node31</title>
<g id="a_edge39_Node000027_Node000031"><a xlink:title=" ">
<path fill="none" stroke="#63b8ff" d="M1206,-117.62C1205.46,-109.56 1204.67,-97.65 1203.99,-87.41"/>
<polygon fill="#63b8ff" stroke="#63b8ff" points="1207.49,-87.37 1203.33,-77.62 1200.51,-87.83 1207.49,-87.37"/>
</a>
</g>
</g>
<!-- Node27&#45;&gt;Node32 -->
<g id="edge42_Node000027_Node000032" class="edge">
<title>Node27&#45;&gt;Node32</title>
<g id="a_edge42_Node000027_Node000032"><a xlink:title=" ">
<path fill="none" stroke="#63b8ff" d="M1180.38,-117.62C1151.4,-107.28 1104.65,-90.58 1072.83,-79.22"/>
<polygon fill="#63b8ff" stroke="#63b8ff" points="1074.27,-76.01 1063.68,-75.95 1071.92,-82.61 1074.27,-76.01"/>
</a>
</g>
</g>
<!-- Node32&#45;&gt;Node11 -->
<g id="edge47_Node000032_Node000011" class="edge">
<title>Node32&#45;&gt;Node11</title>
<g id="a_edge47_Node000032_Node000011"><a xlink:title=" ">
<path fill="none" stroke="#63b8ff" d="M1014.91,-62.07C967.7,-56.07 858.41,-41.29 756.87,-20.29"/>
<polygon fill="#63b8ff" stroke="#63b8ff" points="757.79,-16.91 747.29,-18.28 756.36,-23.76 757.79,-16.91"/>
</a>
</g>
</g>
<!-- Node32&#45;&gt;Node12 -->
<g id="edge49_Node000032_Node000012" class="edge">
<title>Node32&#45;&gt;Node12</title>
<g id="a_edge49_Node000032_Node000012"><a xlink:title=" ">
<path fill="none" stroke="#63b8ff" d="M1014.97,-61.95C1001.41,-60.21 984.06,-57.98 968.62,-56 846.85,-40.4 812.05,-46.46 689.08,-20.22"/>
<polygon fill="#63b8ff" stroke="#63b8ff" points="690.1,-16.85 679.58,-18.16 688.61,-23.7 690.1,-16.85"/>
</a>
</g>
</g>
<!-- Node32&#45;&gt;Node14 -->
<g id="edge53_Node000032_Node000014" class="edge">
<title>Node32&#45;&gt;Node14</title>
<g id="a_edge53_Node000032_Node000014"><a xlink:title=" ">
<path fill="none" stroke="#63b8ff" d="M1014.78,-59.02C1010.41,-57.98 1005.89,-56.93 1001.62,-56 922.32,-38.73 898.74,-40.04 817.29,-20.47"/>
<polygon fill="#63b8ff" stroke="#63b8ff" points="818.52,-17.17 807.98,-18.2 816.87,-23.97 818.52,-17.17"/>
</a>
</g>
</g>
<!-- Node32&#45;&gt;Node25 -->
<g id="edge46_Node000032_Node000025" class="edge">
<title>Node32&#45;&gt;Node25</title>
<g id="a_edge46_Node000032_Node000025"><a xlink:title=" ">
<path fill="none" stroke="#63b8ff" d="M1062.22,-60.8C1100.36,-53.87 1178.13,-39.13 1252.75,-20.57"/>
<polygon fill="#63b8ff" stroke="#63b8ff" points="1253.42,-24.01 1262.26,-18.18 1251.71,-17.22 1253.42,-24.01"/>
</a>
</g>
</g>
<!-- Node32&#45;&gt;Node30 -->
<g id="edge44_Node000032_Node000030" class="edge">
<title>Node32&#45;&gt;Node30</title>
<g id="a_edge44_Node000032_Node000030"><a xlink:title=" ">
<path fill="none" stroke="#63b8ff" d="M1062.38,-61.16C1114.4,-52.75 1239.7,-32.49 1314.18,-20.45"/>
<polygon fill="#63b8ff" stroke="#63b8ff" points="1314.42,-23.96 1323.74,-18.9 1313.31,-17.05 1314.42,-23.96"/>
</a>
</g>
</g>
<!-- Node33 -->
<g id="Node000033" class="node">
<title>Node33</title>
<g id="a_Node000033"><a xlink:title=" ">
<polygon fill="#e0e0e0" stroke="#999999" points="1107.5,-20 1051.75,-20 1051.75,0 1107.5,0 1107.5,-20"/>
<text text-anchor="middle" x="1079.62" y="-6.5" font-family="Helvetica,sans-Serif" font-size="10.00">algorithm</text>
</a>
</g>
</g>
<!-- Node32&#45;&gt;Node33 -->
<g id="edge43_Node000032_Node000033" class="edge">
<title>Node32&#45;&gt;Node33</title>
<g id="a_edge43_Node000032_Node000033"><a xlink:title=" ">
<path fill="none" stroke="#63b8ff" d="M1045.77,-55.59C1051.23,-48.39 1058.95,-38.23 1065.63,-29.43"/>
<polygon fill="#63b8ff" stroke="#63b8ff" points="1068.39,-31.58 1071.65,-21.5 1062.82,-27.35 1068.39,-31.58"/>
</a>
</g>
</g>
<!-- Node34 -->
<g id="Node000034" class="node">
<title>Node34</title>
<g id="a_Node000034"><a xlink:title=" ">
<polygon fill="#e0e0e0" stroke="#999999" points="1177.25,-20 1126,-20 1126,0 1177.25,0 1177.25,-20"/>
<text text-anchor="middle" x="1151.62" y="-6.5" font-family="Helvetica,sans-Serif" font-size="10.00">memory</text>
</a>
</g>
</g>
<!-- Node32&#45;&gt;Node34 -->
<g id="edge45_Node000032_Node000034" class="edge">
<title>Node32&#45;&gt;Node34</title>
<g id="a_edge45_Node000032_Node000034"><a xlink:title=" ">
<path fill="none" stroke="#63b8ff" d="M1058.31,-55.59C1075.78,-47.24 1101.58,-34.92 1121.62,-25.34"/>
<polygon fill="#63b8ff" stroke="#63b8ff" points="1122.91,-28.6 1130.42,-21.13 1119.89,-22.29 1122.91,-28.6"/>
</a>
</g>
</g>
<!-- Node35 -->
<g id="Node000035" class="node">
<title>Node35</title>
<g id="a_Node000035"><a xlink:title=" ">
<polygon fill="#e0e0e0" stroke="#999999" points="1246.25,-20 1195,-20 1195,0 1246.25,0 1246.25,-20"/>
<text text-anchor="middle" x="1220.62" y="-6.5" font-family="Helvetica,sans-Serif" font-size="10.00">ostream</text>
</a>
</g>
</g>
<!-- Node32&#45;&gt;Node35 -->
<g id="edge48_Node000032_Node000035" class="edge">
<title>Node32&#45;&gt;Node35</title>
<g id="a_edge48_Node000032_Node000035"><a xlink:title=" ">
<path fill="none" stroke="#63b8ff" d="M1062.42,-57.94C1093.42,-48.74 1147.92,-32.57 1184.16,-21.82"/>
<polygon fill="#63b8ff" stroke="#63b8ff" points="1184.73,-25.3 1193.32,-19.1 1182.74,-18.59 1184.73,-25.3"/>
</a>
</g>
</g>
<!-- Node36 -->
<g id="Node000036" class="node">
<title>Node36</title>
<g id="a_Node000036"><a xlink:title=" ">
<polygon fill="#e0e0e0" stroke="#999999" points="889.38,-20 823.88,-20 823.88,0 889.38,0 889.38,-20"/>
<text text-anchor="middle" x="856.62" y="-6.5" font-family="Helvetica,sans-Serif" font-size="10.00">string_view</text>
</a>
</g>
</g>
<!-- Node32&#45;&gt;Node36 -->
<g id="edge50_Node000032_Node000036" class="edge">
<title>Node32&#45;&gt;Node36</title>
<g id="a_edge50_Node000032_Node000036"><a xlink:title=" ">
<path fill="none" stroke="#63b8ff" d="M1014.83,-57.94C985.49,-49.24 935.09,-34.28 899.06,-23.59"/>
<polygon fill="#63b8ff" stroke="#63b8ff" points="900.41,-20.34 889.83,-20.85 898.42,-27.05 900.41,-20.34"/>
</a>
</g>
</g>
<!-- Node37 -->
<g id="Node000037" class="node">
<title>Node37</title>
<g id="a_Node000037"><a xlink:title=" ">
<polygon fill="#e0e0e0" stroke="#999999" points="969.5,-20 907.75,-20 907.75,0 969.5,0 969.5,-20"/>
<text text-anchor="middle" x="938.62" y="-6.5" font-family="Helvetica,sans-Serif" font-size="10.00">type_traits</text>
</a>
</g>
</g>
<!-- Node32&#45;&gt;Node37 -->
<g id="edge51_Node000032_Node000037" class="edge">
<title>Node32&#45;&gt;Node37</title>
<g id="a_edge51_Node000032_Node000037"><a xlink:title=" ">
<path fill="none" stroke="#63b8ff" d="M1021.21,-55.59C1005.96,-47.36 983.55,-35.26 965.92,-25.74"/>
<polygon fill="#63b8ff" stroke="#63b8ff" points="967.97,-22.87 957.51,-21.2 964.65,-29.03 967.97,-22.87"/>
</a>
</g>
</g>
<!-- Node38 -->
<g id="Node000038" class="node">
<title>Node38</title>
<g id="a_Node000038"><a xlink:title=" ">
<polygon fill="#e0e0e0" stroke="#999999" points="1033.25,-20 988,-20 988,0 1033.25,0 1033.25,-20"/>
<text text-anchor="middle" x="1010.62" y="-6.5" font-family="Helvetica,sans-Serif" font-size="10.00">variant</text>
</a>
</g>
</g>
<!-- Node32&#45;&gt;Node38 -->
<g id="edge52_Node000032_Node000038" class="edge">
<title>Node32&#45;&gt;Node38</title>
<g id="a_edge52_Node000032_Node000038"><a xlink:title=" ">
<path fill="none" stroke="#63b8ff" d="M1033.75,-55.59C1030.13,-48.63 1025.08,-38.89 1020.63,-30.29"/>
<polygon fill="#63b8ff" stroke="#63b8ff" points="1023.85,-28.91 1016.14,-21.64 1017.64,-32.13 1023.85,-28.91"/>
</a>
</g>
</g>
<!-- Node40 -->
<g id="Node000040" class="node">
<title>Node40</title>
<g id="a_Node000040"><a xlink:title=" ">
<polygon fill="#e0e0e0" stroke="#999999" points="959.25,-76 872,-76 872,-56 959.25,-56 959.25,-76"/>
<text text-anchor="middle" x="915.62" y="-62.5" font-family="Helvetica,sans-Serif" font-size="10.00">libavutil/pixfmt.h</text>
</a>
</g>
</g>
<!-- Node39&#45;&gt;Node40 -->
<g id="edge56_Node000039_Node000040" class="edge">
<title>Node39&#45;&gt;Node40</title>
<g id="a_edge56_Node000039_Node000040"><a xlink:title=" ">
<path fill="none" stroke="#63b8ff" d="M921.53,-117.62C920.59,-109.56 919.2,-97.65 918.01,-87.41"/>
<polygon fill="#63b8ff" stroke="#63b8ff" points="921.5,-87.14 916.86,-77.62 914.55,-87.95 921.5,-87.14"/>
</a>
</g>
</g>
</g>
</svg>
