<?xml version="1.0" encoding="UTF-8" standalone="no"?>
<!DOCTYPE svg PUBLIC "-//W3C//DTD SVG 1.1//EN"
 "http://www.w3.org/Graphics/SVG/1.1/DTD/svg11.dtd">
<!-- Generated by graphviz version 12.2.1 (0)
 -->
<!-- Title: src/platform/macos/input.cpp Pages: 1 -->
<svg width="1632pt" height="344pt"
 viewBox="0.00 0.00 1631.62 344.00" xmlns="http://www.w3.org/2000/svg" xmlns:xlink="http://www.w3.org/1999/xlink">
<g id="graph0" class="graph" transform="scale(1 1) rotate(0) translate(4 340)">
<title>src/platform/macos/input.cpp</title>
<!-- Node1 -->
<g id="Node000001" class="node">
<title>Node1</title>
<g id="a_Node000001"><a xlink:title="Definitions for macOS input handling.">
<polygon fill="#999999" stroke="#666666" points="675.88,-336 575.88,-336 575.88,-304 675.88,-304 675.88,-336"/>
<text text-anchor="start" x="583.88" y="-322.5" font-family="Helvetica,sans-Serif" font-size="10.00">src/platform/macos</text>
<text text-anchor="middle" x="625.88" y="-310.5" font-family="Helvetica,sans-Serif" font-size="10.00">/input.cpp</text>
</a>
</g>
</g>
<!-- Node2 -->
<g id="Node000002" class="node">
<title>Node2</title>
<g id="a_Node000002"><a xlink:title=" ">
<polygon fill="#e0e0e0" stroke="#999999" points="1516.5,-20 1471.25,-20 1471.25,0 1516.5,0 1516.5,-20"/>
<text text-anchor="middle" x="1493.88" y="-6.5" font-family="Helvetica,sans-Serif" font-size="10.00">chrono</text>
</a>
</g>
</g>
<!-- Node1&#45;&gt;Node2 -->
<g id="edge1_Node000001_Node000002" class="edge">
<title>Node1&#45;&gt;Node2</title>
<g id="a_edge1_Node000001_Node000002"><a xlink:title=" ">
<path fill="none" stroke="#63b8ff" d="M676.14,-317.46C870.35,-310.88 1560.88,-281.11 1560.88,-191 1560.88,-191 1560.88,-191 1560.88,-127 1560.88,-94.33 1558.66,-84.03 1541.88,-56 1535.27,-44.98 1525.2,-34.95 1515.99,-27.17"/>
<polygon fill="#63b8ff" stroke="#63b8ff" points="1518.41,-24.63 1508.41,-21.14 1514.05,-30.1 1518.41,-24.63"/>
</a>
</g>
</g>
<!-- Node3 -->
<g id="Node000003" class="node">
<title>Node3</title>
<g id="a_Node000003"><a xlink:title=" ">
<polygon fill="#e0e0e0" stroke="#999999" points="155.62,-262 102.12,-262 102.12,-242 155.62,-242 155.62,-262"/>
<text text-anchor="middle" x="128.88" y="-248.5" font-family="Helvetica,sans-Serif" font-size="10.00">iostream</text>
</a>
</g>
</g>
<!-- Node1&#45;&gt;Node3 -->
<g id="edge2_Node000001_Node000003" class="edge">
<title>Node1&#45;&gt;Node3</title>
<g id="a_edge2_Node000001_Node000003"><a xlink:title=" ">
<path fill="none" stroke="#63b8ff" d="M575.43,-318.26C489.54,-315.95 310,-306.47 163.88,-268 162.07,-267.53 160.24,-266.97 158.41,-266.37"/>
<polygon fill="#63b8ff" stroke="#63b8ff" points="160.14,-263.28 149.55,-262.99 157.65,-269.82 160.14,-263.28"/>
</a>
</g>
</g>
<!-- Node4 -->
<g id="Node000004" class="node">
<title>Node4</title>
<g id="a_Node000004"><a xlink:title=" ">
<polygon fill="#e0e0e0" stroke="#999999" points="216.38,-262 173.38,-262 173.38,-242 216.38,-242 216.38,-262"/>
<text text-anchor="middle" x="194.88" y="-248.5" font-family="Helvetica,sans-Serif" font-size="10.00">thread</text>
</a>
</g>
</g>
<!-- Node1&#45;&gt;Node4 -->
<g id="edge3_Node000001_Node000004" class="edge">
<title>Node1&#45;&gt;Node4</title>
<g id="a_edge3_Node000001_Node000004"><a xlink:title=" ">
<path fill="none" stroke="#63b8ff" d="M575.68,-318C498.62,-315.28 347.25,-305.2 224.88,-268 223.73,-267.65 222.58,-267.27 221.43,-266.85"/>
<polygon fill="#63b8ff" stroke="#63b8ff" points="223.24,-263.81 212.67,-263.05 220.45,-270.24 223.24,-263.81"/>
</a>
</g>
</g>
<!-- Node5 -->
<g id="Node000005" class="node">
<title>Node5</title>
<g id="a_Node000005"><a xlink:title=" ">
<polygon fill="#e0e0e0" stroke="#999999" points="347.62,-268 234.12,-268 234.12,-236 347.62,-236 347.62,-268"/>
<text text-anchor="start" x="242.12" y="-254.5" font-family="Helvetica,sans-Serif" font-size="10.00">ApplicationServices</text>
<text text-anchor="middle" x="290.88" y="-242.5" font-family="Helvetica,sans-Serif" font-size="10.00">/ApplicationServices.h</text>
</a>
</g>
</g>
<!-- Node1&#45;&gt;Node5 -->
<g id="edge4_Node000001_Node000005" class="edge">
<title>Node1&#45;&gt;Node5</title>
<g id="a_edge4_Node000001_Node000005"><a xlink:title=" ">
<path fill="none" stroke="#63b8ff" d="M575.69,-310.05C523.91,-300.68 440.51,-285.25 359.04,-268.41"/>
<polygon fill="#63b8ff" stroke="#63b8ff" points="360.07,-265.05 349.57,-266.44 358.65,-271.9 360.07,-265.05"/>
</a>
</g>
</g>
<!-- Node6 -->
<g id="Node000006" class="node">
<title>Node6</title>
<g id="a_Node000006"><a xlink:title=" ">
<polygon fill="#e0e0e0" stroke="#999999" points="456,-262 365.75,-262 365.75,-242 456,-242 456,-262"/>
<text text-anchor="middle" x="410.88" y="-248.5" font-family="Helvetica,sans-Serif" font-size="10.00">Carbon/Carbon.h</text>
</a>
</g>
</g>
<!-- Node1&#45;&gt;Node6 -->
<g id="edge5_Node000001_Node000006" class="edge">
<title>Node1&#45;&gt;Node6</title>
<g id="a_edge5_Node000001_Node000006"><a xlink:title=" ">
<path fill="none" stroke="#63b8ff" d="M575.47,-303.53C538.06,-292.04 487.66,-276.57 452.53,-265.79"/>
<polygon fill="#63b8ff" stroke="#63b8ff" points="453.73,-262.49 443.14,-262.9 451.67,-269.18 453.73,-262.49"/>
</a>
</g>
</g>
<!-- Node7 -->
<g id="Node000007" class="node">
<title>Node7</title>
<g id="a_Node000007"><a xlink:title=" ">
<polygon fill="#e0e0e0" stroke="#999999" points="639.5,-262 474.25,-262 474.25,-242 639.5,-242 639.5,-262"/>
<text text-anchor="middle" x="556.88" y="-248.5" font-family="Helvetica,sans-Serif" font-size="10.00">CoreFoundation/CoreFoundation.h</text>
</a>
</g>
</g>
<!-- Node1&#45;&gt;Node7 -->
<g id="edge6_Node000001_Node000007" class="edge">
<title>Node1&#45;&gt;Node7</title>
<g id="a_edge6_Node000001_Node000007"><a xlink:title=" ">
<path fill="none" stroke="#63b8ff" d="M609.87,-303.69C599.42,-293.7 585.76,-280.63 574.92,-270.26"/>
<polygon fill="#63b8ff" stroke="#63b8ff" points="577.35,-267.75 567.71,-263.36 572.52,-272.8 577.35,-267.75"/>
</a>
</g>
</g>
<!-- Node8 -->
<g id="Node000008" class="node">
<title>Node8</title>
<g id="a_Node000008"><a xlink:title=" ">
<polygon fill="#e0e0e0" stroke="#999999" points="732.5,-262 657.25,-262 657.25,-242 732.5,-242 732.5,-262"/>
<text text-anchor="middle" x="694.88" y="-248.5" font-family="Helvetica,sans-Serif" font-size="10.00">mach/mach.h</text>
</a>
</g>
</g>
<!-- Node1&#45;&gt;Node8 -->
<g id="edge7_Node000001_Node000008" class="edge">
<title>Node1&#45;&gt;Node8</title>
<g id="a_edge7_Node000001_Node000008"><a xlink:title=" ">
<path fill="none" stroke="#63b8ff" d="M641.88,-303.69C652.33,-293.7 665.99,-280.63 676.83,-270.26"/>
<polygon fill="#63b8ff" stroke="#63b8ff" points="679.23,-272.8 684.04,-263.36 674.4,-267.75 679.23,-272.8"/>
</a>
</g>
</g>
<!-- Node9 -->
<g id="Node000009" class="node">
<title>Node9</title>
<g id="a_Node000009"><a xlink:href="display__device_8h.html" target="_top" xlink:title="Declarations for display device handling.">
<polygon fill="white" stroke="#666666" points="131.5,-200 26.25,-200 26.25,-180 131.5,-180 131.5,-200"/>
<text text-anchor="middle" x="78.88" y="-186.5" font-family="Helvetica,sans-Serif" font-size="10.00">src/display_device.h</text>
</a>
</g>
</g>
<!-- Node1&#45;&gt;Node9 -->
<g id="edge8_Node000001_Node000009" class="edge">
<title>Node1&#45;&gt;Node9</title>
<g id="a_edge8_Node000001_Node000009"><a xlink:title=" ">
<path fill="none" stroke="#63b8ff" d="M575.48,-317.59C449.42,-313.58 128,-300.27 92.88,-268 77.66,-254.02 75.58,-229.47 76.4,-211.85"/>
<polygon fill="#63b8ff" stroke="#63b8ff" points="79.88,-212.26 77.24,-202 72.9,-211.67 79.88,-212.26"/>
</a>
</g>
</g>
<!-- Node13 -->
<g id="Node000013" class="node">
<title>Node13</title>
<g id="a_Node000013"><a xlink:href="input_8h.html" target="_top" xlink:title="Declarations for gamepad, keyboard, and mouse input handling.">
<polygon fill="white" stroke="#666666" points="812.75,-262 751,-262 751,-242 812.75,-242 812.75,-262"/>
<text text-anchor="middle" x="781.88" y="-248.5" font-family="Helvetica,sans-Serif" font-size="10.00">src/input.h</text>
</a>
</g>
</g>
<!-- Node1&#45;&gt;Node13 -->
<g id="edge12_Node000001_Node000013" class="edge">
<title>Node1&#45;&gt;Node13</title>
<g id="a_edge12_Node000001_Node000013"><a xlink:title=" ">
<path fill="none" stroke="#63b8ff" d="M662.45,-303.53C688.65,-292.44 723.64,-277.64 748.97,-266.92"/>
<polygon fill="#63b8ff" stroke="#63b8ff" points="750.28,-270.17 758.12,-263.05 747.55,-263.72 750.28,-270.17"/>
</a>
</g>
</g>
<!-- Node15 -->
<g id="Node000015" class="node">
<title>Node15</title>
<g id="a_Node000015"><a xlink:href="common_8h.html" target="_top" xlink:title="Declarations for common platform specific utilities.">
<polygon fill="white" stroke="#666666" points="824.88,-200 724.88,-200 724.88,-180 824.88,-180 824.88,-200"/>
<text text-anchor="middle" x="774.88" y="-186.5" font-family="Helvetica,sans-Serif" font-size="10.00">platform/common.h</text>
</a>
</g>
</g>
<!-- Node1&#45;&gt;Node15 -->
<g id="edge64_Node000001_Node000015" class="edge">
<title>Node1&#45;&gt;Node15</title>
<g id="a_edge64_Node000001_Node000015"><a xlink:title=" ">
<path fill="none" stroke="#63b8ff" d="M676.31,-312.88C728.3,-305.41 804.19,-290.88 821.88,-268 830.57,-256.75 827.46,-249.08 821.88,-236 817.07,-224.74 807.91,-214.95 798.94,-207.4"/>
<polygon fill="#63b8ff" stroke="#63b8ff" points="801.11,-204.66 791.06,-201.31 796.83,-210.19 801.11,-204.66"/>
</a>
</g>
</g>
<!-- Node25 -->
<g id="Node000025" class="node">
<title>Node25</title>
<g id="a_Node000025"><a xlink:href="logging_8h.html" target="_top" xlink:title="Declarations for logging related functions.">
<polygon fill="white" stroke="#666666" points="1270.62,-138 1199.12,-138 1199.12,-118 1270.62,-118 1270.62,-138"/>
<text text-anchor="middle" x="1234.88" y="-124.5" font-family="Helvetica,sans-Serif" font-size="10.00">src/logging.h</text>
</a>
</g>
</g>
<!-- Node1&#45;&gt;Node25 -->
<g id="edge63_Node000001_Node000025" class="edge">
<title>Node1&#45;&gt;Node25</title>
<g id="a_edge63_Node000001_Node000025"><a xlink:title=" ">
<path fill="none" stroke="#63b8ff" d="M676.3,-319.73C753.57,-319.27 904.83,-312.13 1023.88,-268 1102.41,-238.89 1181.17,-175.88 1216.13,-145.73"/>
<polygon fill="#63b8ff" stroke="#63b8ff" points="1218.06,-148.7 1223.29,-139.48 1213.45,-143.42 1218.06,-148.7"/>
</a>
</g>
</g>
<!-- Node36 -->
<g id="Node000036" class="node">
<title>Node36</title>
<g id="a_Node000036"><a xlink:href="utility_8h.html" target="_top" xlink:title="Declarations for utility functions.">
<polygon fill="white" stroke="#666666" points="683.25,-76 636.5,-76 636.5,-56 683.25,-56 683.25,-76"/>
<text text-anchor="middle" x="659.88" y="-62.5" font-family="Helvetica,sans-Serif" font-size="10.00">utility.h</text>
</a>
</g>
</g>
<!-- Node1&#45;&gt;Node36 -->
<g id="edge65_Node000001_Node000036" class="edge">
<title>Node1&#45;&gt;Node36</title>
<g id="a_edge65_Node000001_Node000036"><a xlink:title=" ">
<path fill="none" stroke="#63b8ff" d="M676.14,-310.86C797.38,-289.24 1088.87,-224.21 990.88,-112 989.66,-110.61 779.83,-82.81 694.93,-71.61"/>
<polygon fill="#63b8ff" stroke="#63b8ff" points="695.45,-68.15 685.08,-70.32 694.53,-75.09 695.45,-68.15"/>
</a>
</g>
</g>
<!-- Node10 -->
<g id="Node000010" class="node">
<title>Node10</title>
<g id="a_Node000010"><a xlink:title=" ">
<polygon fill="#e0e0e0" stroke="#999999" points="271.38,-138 210.38,-138 210.38,-118 271.38,-118 271.38,-138"/>
<text text-anchor="middle" x="240.88" y="-124.5" font-family="Helvetica,sans-Serif" font-size="10.00">filesystem</text>
</a>
</g>
</g>
<!-- Node9&#45;&gt;Node10 -->
<g id="edge9_Node000009_Node000010" class="edge">
<title>Node9&#45;&gt;Node10</title>
<g id="a_edge9_Node000009_Node000010"><a xlink:title=" ">
<path fill="none" stroke="#63b8ff" d="M104.19,-179.62C131.21,-169.62 174.27,-153.67 204.83,-142.35"/>
<polygon fill="#63b8ff" stroke="#63b8ff" points="205.89,-145.69 214.05,-138.93 203.46,-139.12 205.89,-145.69"/>
</a>
</g>
</g>
<!-- Node11 -->
<g id="Node000011" class="node">
<title>Node11</title>
<g id="a_Node000011"><a xlink:title=" ">
<polygon fill="#e0e0e0" stroke="#999999" points="196.5,-20 145.25,-20 145.25,0 196.5,0 196.5,-20"/>
<text text-anchor="middle" x="170.88" y="-6.5" font-family="Helvetica,sans-Serif" font-size="10.00">memory</text>
</a>
</g>
</g>
<!-- Node9&#45;&gt;Node11 -->
<g id="edge10_Node000009_Node000011" class="edge">
<title>Node9&#45;&gt;Node11</title>
<g id="a_edge10_Node000009_Node000011"><a xlink:title=" ">
<path fill="none" stroke="#63b8ff" d="M91.39,-179.52C101.66,-171.17 115.91,-158.16 124.88,-144 147.79,-107.83 160.89,-58.86 166.87,-31.56"/>
<polygon fill="#63b8ff" stroke="#63b8ff" points="170.28,-32.34 168.88,-21.84 163.43,-30.92 170.28,-32.34"/>
</a>
</g>
</g>
<!-- Node12 -->
<g id="Node000012" class="node">
<title>Node12</title>
<g id="a_Node000012"><a xlink:title=" ">
<polygon fill="#e0e0e0" stroke="#999999" points="115.75,-138 0,-138 0,-118 115.75,-118 115.75,-138"/>
<text text-anchor="middle" x="57.88" y="-124.5" font-family="Helvetica,sans-Serif" font-size="10.00">display_device/types.h</text>
</a>
</g>
</g>
<!-- Node9&#45;&gt;Node12 -->
<g id="edge11_Node000009_Node000012" class="edge">
<title>Node9&#45;&gt;Node12</title>
<g id="a_edge11_Node000009_Node000012"><a xlink:title=" ">
<path fill="none" stroke="#63b8ff" d="M75.59,-179.62C72.71,-171.39 68.42,-159.13 64.78,-148.74"/>
<polygon fill="#63b8ff" stroke="#63b8ff" points="68.17,-147.82 61.56,-139.54 61.56,-150.14 68.17,-147.82"/>
</a>
</g>
</g>
<!-- Node14 -->
<g id="Node000014" class="node">
<title>Node14</title>
<g id="a_Node000014"><a xlink:title=" ">
<polygon fill="#e0e0e0" stroke="#999999" points="280.88,-20 222.88,-20 222.88,0 280.88,0 280.88,-20"/>
<text text-anchor="middle" x="251.88" y="-6.5" font-family="Helvetica,sans-Serif" font-size="10.00">functional</text>
</a>
</g>
</g>
<!-- Node13&#45;&gt;Node14 -->
<g id="edge13_Node000013_Node000014" class="edge">
<title>Node13&#45;&gt;Node14</title>
<g id="a_edge13_Node000013_Node000014"><a xlink:title=" ">
<path fill="none" stroke="#63b8ff" d="M758.85,-241.52C753.36,-239.49 747.46,-237.51 741.88,-236 624.14,-204.22 279.55,-237.18 200.88,-144 171.64,-109.37 210.4,-56.15 234.79,-28.71"/>
<polygon fill="#63b8ff" stroke="#63b8ff" points="237.16,-31.3 241.36,-21.58 232.01,-26.56 237.16,-31.3"/>
</a>
</g>
</g>
<!-- Node13&#45;&gt;Node15 -->
<g id="edge14_Node000013_Node000015" class="edge">
<title>Node13&#45;&gt;Node15</title>
<g id="a_edge14_Node000013_Node000015"><a xlink:title=" ">
<path fill="none" stroke="#63b8ff" d="M780.78,-241.62C779.84,-233.56 778.45,-221.65 777.26,-211.41"/>
<polygon fill="#63b8ff" stroke="#63b8ff" points="780.75,-211.14 776.11,-201.62 773.8,-211.95 780.75,-211.14"/>
</a>
</g>
</g>
<!-- Node31 -->
<g id="Node000031" class="node">
<title>Node31</title>
<g id="a_Node000031"><a xlink:href="thread__safe_8h.html" target="_top" xlink:title="Declarations for thread&#45;safe data structures.">
<polygon fill="white" stroke="#666666" points="490.75,-138 399,-138 399,-118 490.75,-118 490.75,-138"/>
<text text-anchor="middle" x="444.88" y="-124.5" font-family="Helvetica,sans-Serif" font-size="10.00">src/thread_safe.h</text>
</a>
</g>
</g>
<!-- Node13&#45;&gt;Node31 -->
<g id="edge62_Node000013_Node000031" class="edge">
<title>Node13&#45;&gt;Node31</title>
<g id="a_edge62_Node000013_Node000031"><a xlink:title=" ">
<path fill="none" stroke="#63b8ff" d="M756.93,-241.59C751.95,-239.72 746.75,-237.79 741.88,-236 648.56,-201.7 538.36,-162.28 482.06,-142.22"/>
<polygon fill="#63b8ff" stroke="#63b8ff" points="483.56,-139.04 472.97,-138.98 481.21,-145.64 483.56,-139.04"/>
</a>
</g>
</g>
<!-- Node15&#45;&gt;Node10 -->
<g id="edge16_Node000015_Node000010" class="edge">
<title>Node15&#45;&gt;Node10</title>
<g id="a_edge16_Node000015_Node000010"><a xlink:title=" ">
<path fill="none" stroke="#63b8ff" d="M724.68,-188.17C635.46,-185.87 443.78,-177.12 285.88,-144 282.88,-143.37 279.81,-142.61 276.74,-141.77"/>
<polygon fill="#63b8ff" stroke="#63b8ff" points="277.86,-138.45 267.27,-138.89 275.82,-145.14 277.86,-138.45"/>
</a>
</g>
</g>
<!-- Node15&#45;&gt;Node14 -->
<g id="edge17_Node000015_Node000014" class="edge">
<title>Node15&#45;&gt;Node14</title>
<g id="a_edge17_Node000015_Node000014"><a xlink:title=" ">
<path fill="none" stroke="#63b8ff" d="M724.62,-189.36C649.81,-188.53 505.56,-181.59 389.88,-144 331.21,-124.94 306.57,-124.83 268.88,-76 259.05,-63.27 254.88,-45.41 253.12,-31.63"/>
<polygon fill="#63b8ff" stroke="#63b8ff" points="256.63,-31.54 252.23,-21.9 249.65,-32.18 256.63,-31.54"/>
</a>
</g>
</g>
<!-- Node16 -->
<g id="Node000016" class="node">
<title>Node16</title>
<g id="a_Node000016"><a xlink:title=" ">
<polygon fill="#e0e0e0" stroke="#999999" points="1165.88,-20 1125.88,-20 1125.88,0 1165.88,0 1165.88,-20"/>
<text text-anchor="middle" x="1145.88" y="-6.5" font-family="Helvetica,sans-Serif" font-size="10.00">bitset</text>
</a>
</g>
</g>
<!-- Node15&#45;&gt;Node16 -->
<g id="edge15_Node000015_Node000016" class="edge">
<title>Node15&#45;&gt;Node16</title>
<g id="a_edge15_Node000015_Node000016"><a xlink:title=" ">
<path fill="none" stroke="#63b8ff" d="M825.08,-188.23C875.73,-185.54 954.81,-175.97 1014.88,-144 1028.86,-136.56 1097.9,-62.9 1129.74,-28.51"/>
<polygon fill="#63b8ff" stroke="#63b8ff" points="1132.08,-31.14 1136.29,-21.42 1126.93,-26.39 1132.08,-31.14"/>
</a>
</g>
</g>
<!-- Node17 -->
<g id="Node000017" class="node">
<title>Node17</title>
<g id="a_Node000017"><a xlink:title=" ">
<polygon fill="#e0e0e0" stroke="#999999" points="437.38,-20 394.38,-20 394.38,0 437.38,0 437.38,-20"/>
<text text-anchor="middle" x="415.88" y="-6.5" font-family="Helvetica,sans-Serif" font-size="10.00">mutex</text>
</a>
</g>
</g>
<!-- Node15&#45;&gt;Node17 -->
<g id="edge18_Node000015_Node000017" class="edge">
<title>Node15&#45;&gt;Node17</title>
<g id="a_edge18_Node000015_Node000017"><a xlink:title=" ">
<path fill="none" stroke="#63b8ff" d="M724.39,-186.16C680.23,-181.86 615.58,-171.07 565.88,-144 517.3,-117.54 519.94,-91.91 477.88,-56 465.7,-45.61 451.28,-35.05 439.41,-26.77"/>
<polygon fill="#63b8ff" stroke="#63b8ff" points="441.61,-24.04 431.39,-21.26 437.65,-29.81 441.61,-24.04"/>
</a>
</g>
</g>
<!-- Node18 -->
<g id="Node000018" class="node">
<title>Node18</title>
<g id="a_Node000018"><a xlink:title=" ">
<polygon fill="#e0e0e0" stroke="#999999" points="1039.88,-20 999.88,-20 999.88,0 1039.88,0 1039.88,-20"/>
<text text-anchor="middle" x="1019.88" y="-6.5" font-family="Helvetica,sans-Serif" font-size="10.00">string</text>
</a>
</g>
</g>
<!-- Node15&#45;&gt;Node18 -->
<g id="edge19_Node000015_Node000018" class="edge">
<title>Node15&#45;&gt;Node18</title>
<g id="a_edge19_Node000015_Node000018"><a xlink:title=" ">
<path fill="none" stroke="#63b8ff" d="M825.29,-184.78C881.63,-179.02 967.95,-166.71 990.88,-144 1021,-114.15 1023.14,-60.8 1021.73,-31.56"/>
<polygon fill="#63b8ff" stroke="#63b8ff" points="1025.24,-31.56 1021.05,-21.83 1018.25,-32.05 1025.24,-31.56"/>
</a>
</g>
</g>
<!-- Node19 -->
<g id="Node000019" class="node">
<title>Node19</title>
<g id="a_Node000019"><a xlink:title=" ">
<polygon fill="#e0e0e0" stroke="#999999" points="982,-138 843.75,-138 843.75,-118 982,-118 982,-138"/>
<text text-anchor="middle" x="912.88" y="-124.5" font-family="Helvetica,sans-Serif" font-size="10.00">boost/core/noncopyable.hpp</text>
</a>
</g>
</g>
<!-- Node15&#45;&gt;Node19 -->
<g id="edge20_Node000015_Node000019" class="edge">
<title>Node15&#45;&gt;Node19</title>
<g id="a_edge20_Node000015_Node000019"><a xlink:title=" ">
<path fill="none" stroke="#63b8ff" d="M796.44,-179.62C819.12,-169.76 855.07,-154.13 881.02,-142.85"/>
<polygon fill="#63b8ff" stroke="#63b8ff" points="882.3,-146.11 890.08,-138.91 879.51,-139.69 882.3,-146.11"/>
</a>
</g>
</g>
<!-- Node20 -->
<g id="Node000020" class="node">
<title>Node20</title>
<g id="a_Node000020"><a xlink:href="config_8h.html" target="_top" xlink:title="Declarations for the configuration of Sunshine.">
<polygon fill="white" stroke="#666666" points="1181.38,-76 1114.38,-76 1114.38,-56 1181.38,-56 1181.38,-76"/>
<text text-anchor="middle" x="1147.88" y="-62.5" font-family="Helvetica,sans-Serif" font-size="10.00">src/config.h</text>
</a>
</g>
</g>
<!-- Node15&#45;&gt;Node20 -->
<g id="edge21_Node000015_Node000020" class="edge">
<title>Node15&#45;&gt;Node20</title>
<g id="a_edge21_Node000015_Node000020"><a xlink:title=" ">
<path fill="none" stroke="#63b8ff" d="M825.16,-187.18C904.82,-183.46 1055.55,-172.75 1099.88,-144 1120.37,-130.7 1133.65,-105.25 1140.94,-87.25"/>
<polygon fill="#63b8ff" stroke="#63b8ff" points="1144.22,-88.48 1144.43,-77.89 1137.66,-86.03 1144.22,-88.48"/>
</a>
</g>
</g>
<!-- Node15&#45;&gt;Node25 -->
<g id="edge29_Node000015_Node000025" class="edge">
<title>Node15&#45;&gt;Node25</title>
<g id="a_edge29_Node000015_Node000025"><a xlink:title=" ">
<path fill="none" stroke="#63b8ff" d="M825.34,-183.84C897.46,-176.26 1034.09,-161.15 1149.88,-144 1162.25,-142.17 1175.58,-139.94 1187.94,-137.76"/>
<polygon fill="#63b8ff" stroke="#63b8ff" points="1188.25,-141.26 1197.47,-136.06 1187.01,-134.37 1188.25,-141.26"/>
</a>
</g>
</g>
<!-- Node15&#45;&gt;Node31 -->
<g id="edge38_Node000015_Node000031" class="edge">
<title>Node15&#45;&gt;Node31</title>
<g id="a_edge38_Node000015_Node000031"><a xlink:title=" ">
<path fill="none" stroke="#63b8ff" d="M724.39,-181.82C669.98,-173.79 580.94,-159.82 504.88,-144 500.56,-143.1 496.09,-142.11 491.63,-141.07"/>
<polygon fill="#63b8ff" stroke="#63b8ff" points="492.63,-137.71 482.09,-138.79 491,-144.52 492.63,-137.71"/>
</a>
</g>
</g>
<!-- Node15&#45;&gt;Node36 -->
<g id="edge58_Node000015_Node000036" class="edge">
<title>Node15&#45;&gt;Node36</title>
<g id="a_edge58_Node000015_Node000036"><a xlink:title=" ">
<path fill="none" stroke="#63b8ff" d="M724.71,-184.69C671.98,-179 594.17,-166.9 575.88,-144 567,-132.89 568.57,-124.2 575.88,-112 586.64,-94.02 607.33,-82.81 625.48,-76.08"/>
<polygon fill="#63b8ff" stroke="#63b8ff" points="626.53,-79.42 634.9,-72.93 624.31,-72.78 626.53,-79.42"/>
</a>
</g>
</g>
<!-- Node42 -->
<g id="Node000042" class="node">
<title>Node42</title>
<g id="a_Node000042"><a xlink:href="video__colorspace_8h.html" target="_top" xlink:title="Declarations for colorspace functions.">
<polygon fill="white" stroke="#666666" points="826.12,-138 709.62,-138 709.62,-118 826.12,-118 826.12,-138"/>
<text text-anchor="middle" x="767.88" y="-124.5" font-family="Helvetica,sans-Serif" font-size="10.00">src/video_colorspace.h</text>
</a>
</g>
</g>
<!-- Node15&#45;&gt;Node42 -->
<g id="edge59_Node000015_Node000042" class="edge">
<title>Node15&#45;&gt;Node42</title>
<g id="a_edge59_Node000015_Node000042"><a xlink:title=" ">
<path fill="none" stroke="#63b8ff" d="M773.78,-179.62C772.84,-171.56 771.45,-159.65 770.26,-149.41"/>
<polygon fill="#63b8ff" stroke="#63b8ff" points="773.75,-149.14 769.11,-139.62 766.8,-149.95 773.75,-149.14"/>
</a>
</g>
</g>
<!-- Node44 -->
<g id="Node000044" class="node">
<title>Node44</title>
<g id="a_Node000044"><a xlink:title=" ">
<polygon fill="#e0e0e0" stroke="#999999" points="691.25,-144 584.5,-144 584.5,-112 691.25,-112 691.25,-144"/>
<text text-anchor="start" x="592.5" y="-130.5" font-family="Helvetica,sans-Serif" font-size="10.00">moonlight&#45;common&#45;c</text>
<text text-anchor="middle" x="637.88" y="-118.5" font-family="Helvetica,sans-Serif" font-size="10.00">/src/Limelight.h</text>
</a>
</g>
</g>
<!-- Node15&#45;&gt;Node44 -->
<g id="edge61_Node000015_Node000044" class="edge">
<title>Node15&#45;&gt;Node44</title>
<g id="a_edge61_Node000015_Node000044"><a xlink:title=" ">
<path fill="none" stroke="#63b8ff" d="M753.47,-179.62C734.87,-171.48 707.29,-159.4 683.74,-149.09"/>
<polygon fill="#63b8ff" stroke="#63b8ff" points="685.2,-145.9 674.63,-145.1 682.39,-152.32 685.2,-145.9"/>
</a>
</g>
</g>
<!-- Node20&#45;&gt;Node2 -->
<g id="edge23_Node000020_Node000002" class="edge">
<title>Node20&#45;&gt;Node2</title>
<g id="a_edge23_Node000020_Node000002"><a xlink:title=" ">
<path fill="none" stroke="#63b8ff" d="M1181.63,-57.69C1184.75,-57.09 1187.87,-56.51 1190.88,-56 1307.56,-36.1 1341.56,-44.54 1459.99,-20.35"/>
<polygon fill="#63b8ff" stroke="#63b8ff" points="1460.39,-23.85 1469.47,-18.38 1458.96,-16.99 1460.39,-23.85"/>
</a>
</g>
</g>
<!-- Node20&#45;&gt;Node16 -->
<g id="edge22_Node000020_Node000016" class="edge">
<title>Node20&#45;&gt;Node16</title>
<g id="a_edge22_Node000020_Node000016"><a xlink:title=" ">
<path fill="none" stroke="#63b8ff" d="M1147.53,-55.59C1147.28,-49.01 1146.95,-39.96 1146.64,-31.73"/>
<polygon fill="#63b8ff" stroke="#63b8ff" points="1150.14,-31.67 1146.28,-21.81 1143.15,-31.93 1150.14,-31.67"/>
</a>
</g>
</g>
<!-- Node20&#45;&gt;Node18 -->
<g id="edge25_Node000020_Node000018" class="edge">
<title>Node20&#45;&gt;Node18</title>
<g id="a_edge25_Node000020_Node000018"><a xlink:title=" ">
<path fill="none" stroke="#63b8ff" d="M1125.58,-55.59C1104.8,-46.83 1073.64,-33.68 1050.53,-23.93"/>
<polygon fill="#63b8ff" stroke="#63b8ff" points="1052.2,-20.84 1041.62,-20.17 1049.48,-27.29 1052.2,-20.84"/>
</a>
</g>
</g>
<!-- Node21 -->
<g id="Node000021" class="node">
<title>Node21</title>
<g id="a_Node000021"><a xlink:title=" ">
<polygon fill="#e0e0e0" stroke="#999999" points="1107.75,-20 1058,-20 1058,0 1107.75,0 1107.75,-20"/>
<text text-anchor="middle" x="1082.88" y="-6.5" font-family="Helvetica,sans-Serif" font-size="10.00">optional</text>
</a>
</g>
</g>
<!-- Node20&#45;&gt;Node21 -->
<g id="edge24_Node000020_Node000021" class="edge">
<title>Node20&#45;&gt;Node21</title>
<g id="a_edge24_Node000020_Node000021"><a xlink:title=" ">
<path fill="none" stroke="#63b8ff" d="M1136.55,-55.59C1127.23,-47.85 1113.8,-36.69 1102.7,-27.47"/>
<polygon fill="#63b8ff" stroke="#63b8ff" points="1105.16,-24.96 1095.23,-21.27 1100.69,-30.35 1105.16,-24.96"/>
</a>
</g>
</g>
<!-- Node22 -->
<g id="Node000022" class="node">
<title>Node22</title>
<g id="a_Node000022"><a xlink:title=" ">
<polygon fill="#e0e0e0" stroke="#999999" points="1396.25,-20 1313.5,-20 1313.5,0 1396.25,0 1396.25,-20"/>
<text text-anchor="middle" x="1354.88" y="-6.5" font-family="Helvetica,sans-Serif" font-size="10.00">unordered_map</text>
</a>
</g>
</g>
<!-- Node20&#45;&gt;Node22 -->
<g id="edge26_Node000020_Node000022" class="edge">
<title>Node20&#45;&gt;Node22</title>
<g id="a_edge26_Node000020_Node000022"><a xlink:title=" ">
<path fill="none" stroke="#63b8ff" d="M1181.59,-56.2C1215.9,-47.25 1269.35,-33.31 1307.81,-23.28"/>
<polygon fill="#63b8ff" stroke="#63b8ff" points="1308.48,-26.72 1317.27,-20.81 1306.71,-19.95 1308.48,-26.72"/>
</a>
</g>
</g>
<!-- Node23 -->
<g id="Node000023" class="node">
<title>Node23</title>
<g id="a_Node000023"><a xlink:title=" ">
<polygon fill="#e0e0e0" stroke="#999999" points="981.38,-20 938.38,-20 938.38,0 981.38,0 981.38,-20"/>
<text text-anchor="middle" x="959.88" y="-6.5" font-family="Helvetica,sans-Serif" font-size="10.00">vector</text>
</a>
</g>
</g>
<!-- Node20&#45;&gt;Node23 -->
<g id="edge27_Node000020_Node000023" class="edge">
<title>Node20&#45;&gt;Node23</title>
<g id="a_edge27_Node000020_Node000023"><a xlink:title=" ">
<path fill="none" stroke="#63b8ff" d="M1114.79,-55.55C1085.24,-47.11 1040.5,-34.3 992.5,-20.46"/>
<polygon fill="#63b8ff" stroke="#63b8ff" points="993.59,-17.13 983.01,-17.72 991.64,-23.86 993.59,-17.13"/>
</a>
</g>
</g>
<!-- Node24 -->
<g id="Node000024" class="node">
<title>Node24</title>
<g id="a_Node000024"><a xlink:href="nvenc__config_8h.html" target="_top" xlink:title="Declarations for NVENC encoder configuration.">
<polygon fill="white" stroke="#666666" points="1295.5,-20 1184.25,-20 1184.25,0 1295.5,0 1295.5,-20"/>
<text text-anchor="middle" x="1239.88" y="-6.5" font-family="Helvetica,sans-Serif" font-size="10.00">nvenc/nvenc_config.h</text>
</a>
</g>
</g>
<!-- Node20&#45;&gt;Node24 -->
<g id="edge28_Node000020_Node000024" class="edge">
<title>Node20&#45;&gt;Node24</title>
<g id="a_edge28_Node000020_Node000024"><a xlink:title=" ">
<path fill="none" stroke="#63b8ff" d="M1163.9,-55.59C1177.67,-47.51 1197.78,-35.71 1213.85,-26.27"/>
<polygon fill="#63b8ff" stroke="#63b8ff" points="1215.57,-29.33 1222.42,-21.25 1212.02,-23.29 1215.57,-29.33"/>
</a>
</g>
</g>
<!-- Node25&#45;&gt;Node20 -->
<g id="edge32_Node000025_Node000020" class="edge">
<title>Node25&#45;&gt;Node20</title>
<g id="a_edge32_Node000025_Node000020"><a xlink:title=" ">
<path fill="none" stroke="#63b8ff" d="M1221.28,-117.62C1207.75,-108.29 1186.72,-93.79 1170.64,-82.7"/>
<polygon fill="#63b8ff" stroke="#63b8ff" points="1172.84,-79.96 1162.62,-77.17 1168.86,-85.73 1172.84,-79.96"/>
</a>
</g>
</g>
<!-- Node26 -->
<g id="Node000026" class="node">
<title>Node26</title>
<g id="a_Node000026"><a xlink:title=" ">
<polygon fill="#e0e0e0" stroke="#999999" points="1314.38,-76 1199.38,-76 1199.38,-56 1314.38,-56 1314.38,-76"/>
<text text-anchor="middle" x="1256.88" y="-62.5" font-family="Helvetica,sans-Serif" font-size="10.00">boost/log/common.hpp</text>
</a>
</g>
</g>
<!-- Node25&#45;&gt;Node26 -->
<g id="edge30_Node000025_Node000026" class="edge">
<title>Node25&#45;&gt;Node26</title>
<g id="a_edge30_Node000025_Node000026"><a xlink:title=" ">
<path fill="none" stroke="#63b8ff" d="M1238.31,-117.62C1241.33,-109.39 1245.83,-97.13 1249.64,-86.74"/>
<polygon fill="#63b8ff" stroke="#63b8ff" points="1252.86,-88.13 1253.01,-77.53 1246.28,-85.72 1252.86,-88.13"/>
</a>
</g>
</g>
<!-- Node27 -->
<g id="Node000027" class="node">
<title>Node27</title>
<g id="a_Node000027"><a xlink:title=" ">
<polygon fill="#e0e0e0" stroke="#999999" points="1433.25,-76 1332.5,-76 1332.5,-56 1433.25,-56 1433.25,-76"/>
<text text-anchor="middle" x="1382.88" y="-62.5" font-family="Helvetica,sans-Serif" font-size="10.00">boost/log/sinks.hpp</text>
</a>
</g>
</g>
<!-- Node25&#45;&gt;Node27 -->
<g id="edge31_Node000025_Node000027" class="edge">
<title>Node25&#45;&gt;Node27</title>
<g id="a_edge31_Node000025_Node000027"><a xlink:title=" ">
<path fill="none" stroke="#63b8ff" d="M1258,-117.62C1282.55,-107.67 1321.57,-91.85 1349.45,-80.55"/>
<polygon fill="#63b8ff" stroke="#63b8ff" points="1350.56,-83.88 1358.51,-76.88 1347.93,-77.39 1350.56,-83.88"/>
</a>
</g>
</g>
<!-- Node28 -->
<g id="Node000028" class="node">
<title>Node28</title>
<g id="a_Node000028"><a xlink:href="stat__trackers_8h.html" target="_top" xlink:title="Declarations for streaming statistic tracking.">
<polygon fill="white" stroke="#666666" points="1532.5,-76 1451.25,-76 1451.25,-56 1532.5,-56 1532.5,-76"/>
<text text-anchor="middle" x="1491.88" y="-62.5" font-family="Helvetica,sans-Serif" font-size="10.00">stat_trackers.h</text>
</a>
</g>
</g>
<!-- Node25&#45;&gt;Node28 -->
<g id="edge33_Node000025_Node000028" class="edge">
<title>Node25&#45;&gt;Node28</title>
<g id="a_edge33_Node000025_Node000028"><a xlink:title=" ">
<path fill="none" stroke="#63b8ff" d="M1270.88,-118.59C1315.06,-108.28 1390.27,-90.72 1440.51,-78.99"/>
<polygon fill="#63b8ff" stroke="#63b8ff" points="1441.04,-82.46 1449.98,-76.78 1439.45,-75.65 1441.04,-82.46"/>
</a>
</g>
</g>
<!-- Node28&#45;&gt;Node2 -->
<g id="edge34_Node000028_Node000002" class="edge">
<title>Node28&#45;&gt;Node2</title>
<g id="a_edge34_Node000028_Node000002"><a xlink:title=" ">
<path fill="none" stroke="#63b8ff" d="M1492.22,-55.59C1492.47,-49.01 1492.8,-39.96 1493.11,-31.73"/>
<polygon fill="#63b8ff" stroke="#63b8ff" points="1496.6,-31.93 1493.47,-21.81 1489.61,-31.67 1496.6,-31.93"/>
</a>
</g>
</g>
<!-- Node28&#45;&gt;Node14 -->
<g id="edge35_Node000028_Node000014" class="edge">
<title>Node28&#45;&gt;Node14</title>
<g id="a_edge35_Node000028_Node000014"><a xlink:title=" ">
<path fill="none" stroke="#63b8ff" d="M1451.01,-57.15C1447.93,-56.71 1444.86,-56.32 1441.88,-56 974.47,-6.24 854.32,-43.87 384.88,-20 353.91,-18.43 318.93,-16.03 292.61,-14.11"/>
<polygon fill="#63b8ff" stroke="#63b8ff" points="292.92,-10.62 282.69,-13.38 292.4,-17.61 292.92,-10.62"/>
</a>
</g>
</g>
<!-- Node29 -->
<g id="Node000029" class="node">
<title>Node29</title>
<g id="a_Node000029"><a xlink:title=" ">
<polygon fill="#e0e0e0" stroke="#999999" points="1453.5,-20 1414.25,-20 1414.25,0 1453.5,0 1453.5,-20"/>
<text text-anchor="middle" x="1433.88" y="-6.5" font-family="Helvetica,sans-Serif" font-size="10.00">limits</text>
</a>
</g>
</g>
<!-- Node28&#45;&gt;Node29 -->
<g id="edge36_Node000028_Node000029" class="edge">
<title>Node28&#45;&gt;Node29</title>
<g id="a_edge36_Node000028_Node000029"><a xlink:title=" ">
<path fill="none" stroke="#63b8ff" d="M1481.77,-55.59C1473.62,-48.01 1461.94,-37.13 1452.16,-28.02"/>
<polygon fill="#63b8ff" stroke="#63b8ff" points="1454.67,-25.58 1444.97,-21.33 1449.9,-30.71 1454.67,-25.58"/>
</a>
</g>
</g>
<!-- Node30 -->
<g id="Node000030" class="node">
<title>Node30</title>
<g id="a_Node000030"><a xlink:title=" ">
<polygon fill="#e0e0e0" stroke="#999999" points="1623.62,-20 1534.12,-20 1534.12,0 1623.62,0 1623.62,-20"/>
<text text-anchor="middle" x="1578.88" y="-6.5" font-family="Helvetica,sans-Serif" font-size="10.00">boost/format.hpp</text>
</a>
</g>
</g>
<!-- Node28&#45;&gt;Node30 -->
<g id="edge37_Node000028_Node000030" class="edge">
<title>Node28&#45;&gt;Node30</title>
<g id="a_edge37_Node000028_Node000030"><a xlink:title=" ">
<path fill="none" stroke="#63b8ff" d="M1507.03,-55.59C1519.92,-47.59 1538.71,-35.93 1553.83,-26.54"/>
<polygon fill="#63b8ff" stroke="#63b8ff" points="1555.67,-29.53 1562.32,-21.28 1551.97,-23.58 1555.67,-29.53"/>
</a>
</g>
</g>
<!-- Node31&#45;&gt;Node14 -->
<g id="edge42_Node000031_Node000014" class="edge">
<title>Node31&#45;&gt;Node14</title>
<g id="a_edge42_Node000031_Node000014"><a xlink:title=" ">
<path fill="none" stroke="#63b8ff" d="M398.65,-120.71C365.43,-114.21 321.16,-101.29 289.88,-76 275.28,-64.2 265.1,-45.18 258.98,-30.76"/>
<polygon fill="#63b8ff" stroke="#63b8ff" points="262.38,-29.85 255.48,-21.81 255.86,-32.4 262.38,-29.85"/>
</a>
</g>
</g>
<!-- Node31&#45;&gt;Node17 -->
<g id="edge44_Node000031_Node000017" class="edge">
<title>Node31&#45;&gt;Node17</title>
<g id="a_edge44_Node000031_Node000017"><a xlink:title=" ">
<path fill="none" stroke="#63b8ff" d="M450.82,-117.5C458.72,-103.59 470.72,-77.03 461.88,-56 457.18,-44.84 448.22,-35.07 439.44,-27.5"/>
<polygon fill="#63b8ff" stroke="#63b8ff" points="441.75,-24.87 431.74,-21.4 437.4,-30.35 441.75,-24.87"/>
</a>
</g>
</g>
<!-- Node31&#45;&gt;Node23 -->
<g id="edge45_Node000031_Node000023" class="edge">
<title>Node31&#45;&gt;Node23</title>
<g id="a_edge45_Node000031_Node000023"><a xlink:title=" ">
<path fill="none" stroke="#63b8ff" d="M490.99,-121.42C541.42,-114.43 624.07,-100.3 691.88,-76 709.84,-69.56 711.83,-62.21 729.88,-56 811.86,-27.8 839.8,-39.93 926.8,-20.48"/>
<polygon fill="#63b8ff" stroke="#63b8ff" points="927.58,-23.89 936.52,-18.22 925.99,-17.07 927.58,-23.89"/>
</a>
</g>
</g>
<!-- Node32 -->
<g id="Node000032" class="node">
<title>Node32</title>
<g id="a_Node000032"><a xlink:title=" ">
<polygon fill="#e0e0e0" stroke="#999999" points="388.75,-76 351,-76 351,-56 388.75,-56 388.75,-76"/>
<text text-anchor="middle" x="369.88" y="-62.5" font-family="Helvetica,sans-Serif" font-size="10.00">array</text>
</a>
</g>
</g>
<!-- Node31&#45;&gt;Node32 -->
<g id="edge39_Node000031_Node000032" class="edge">
<title>Node31&#45;&gt;Node32</title>
<g id="a_edge39_Node000031_Node000032"><a xlink:title=" ">
<path fill="none" stroke="#63b8ff" d="M433.16,-117.62C421.64,-108.41 403.84,-94.17 390.05,-83.14"/>
<polygon fill="#63b8ff" stroke="#63b8ff" points="392.44,-80.57 382.45,-77.06 388.07,-86.04 392.44,-80.57"/>
</a>
</g>
</g>
<!-- Node33 -->
<g id="Node000033" class="node">
<title>Node33</title>
<g id="a_Node000033"><a xlink:title=" ">
<polygon fill="#e0e0e0" stroke="#999999" points="452.5,-76 407.25,-76 407.25,-56 452.5,-56 452.5,-76"/>
<text text-anchor="middle" x="429.88" y="-62.5" font-family="Helvetica,sans-Serif" font-size="10.00">atomic</text>
</a>
</g>
</g>
<!-- Node31&#45;&gt;Node33 -->
<g id="edge40_Node000031_Node000033" class="edge">
<title>Node31&#45;&gt;Node33</title>
<g id="a_edge40_Node000031_Node000033"><a xlink:title=" ">
<path fill="none" stroke="#63b8ff" d="M442.53,-117.62C440.49,-109.48 437.47,-97.39 434.89,-87.07"/>
<polygon fill="#63b8ff" stroke="#63b8ff" points="438.34,-86.43 432.52,-77.58 431.55,-88.13 438.34,-86.43"/>
</a>
</g>
</g>
<!-- Node34 -->
<g id="Node000034" class="node">
<title>Node34</title>
<g id="a_Node000034"><a xlink:title=" ">
<polygon fill="#e0e0e0" stroke="#999999" points="549.88,-20 455.88,-20 455.88,0 549.88,0 549.88,-20"/>
<text text-anchor="middle" x="502.88" y="-6.5" font-family="Helvetica,sans-Serif" font-size="10.00">condition_variable</text>
</a>
</g>
</g>
<!-- Node31&#45;&gt;Node34 -->
<g id="edge41_Node000031_Node000034" class="edge">
<title>Node31&#45;&gt;Node34</title>
<g id="a_edge41_Node000031_Node000034"><a xlink:title=" ">
<path fill="none" stroke="#63b8ff" d="M451.82,-117.58C458.97,-107.6 470.13,-91.23 477.88,-76 485.35,-61.31 491.95,-43.84 496.49,-30.72"/>
<polygon fill="#63b8ff" stroke="#63b8ff" points="499.71,-32.11 499.57,-21.52 493.07,-29.89 499.71,-32.11"/>
</a>
</g>
</g>
<!-- Node35 -->
<g id="Node000035" class="node">
<title>Node35</title>
<g id="a_Node000035"><a xlink:title=" ">
<polygon fill="#e0e0e0" stroke="#999999" points="333.25,-76 298.5,-76 298.5,-56 333.25,-56 333.25,-76"/>
<text text-anchor="middle" x="315.88" y="-62.5" font-family="Helvetica,sans-Serif" font-size="10.00">map</text>
</a>
</g>
</g>
<!-- Node31&#45;&gt;Node35 -->
<g id="edge43_Node000031_Node000035" class="edge">
<title>Node31&#45;&gt;Node35</title>
<g id="a_edge43_Node000031_Node000035"><a xlink:title=" ">
<path fill="none" stroke="#63b8ff" d="M424.72,-117.62C402.97,-107.51 368.17,-91.32 343.79,-79.98"/>
<polygon fill="#63b8ff" stroke="#63b8ff" points="345.32,-76.84 334.78,-75.79 342.37,-83.18 345.32,-76.84"/>
</a>
</g>
</g>
<!-- Node31&#45;&gt;Node36 -->
<g id="edge46_Node000031_Node000036" class="edge">
<title>Node31&#45;&gt;Node36</title>
<g id="a_edge46_Node000031_Node000036"><a xlink:title=" ">
<path fill="none" stroke="#63b8ff" d="M478.47,-117.62C518.43,-106.47 584.81,-87.95 625.23,-76.67"/>
<polygon fill="#63b8ff" stroke="#63b8ff" points="626,-80.09 634.69,-74.03 624.12,-73.35 626,-80.09"/>
</a>
</g>
</g>
<!-- Node36&#45;&gt;Node11 -->
<g id="edge49_Node000036_Node000011" class="edge">
<title>Node36&#45;&gt;Node11</title>
<g id="a_edge49_Node000036_Node000011"><a xlink:title=" ">
<path fill="none" stroke="#63b8ff" d="M636.07,-63.49C569.23,-59.05 374.23,-44.8 213.88,-20 211.96,-19.7 210,-19.38 208.02,-19.03"/>
<polygon fill="#63b8ff" stroke="#63b8ff" points="208.68,-15.59 198.2,-17.15 207.37,-22.47 208.68,-15.59"/>
</a>
</g>
</g>
<!-- Node36&#45;&gt;Node17 -->
<g id="edge50_Node000036_Node000017" class="edge">
<title>Node36&#45;&gt;Node17</title>
<g id="a_edge50_Node000036_Node000017"><a xlink:title=" ">
<path fill="none" stroke="#63b8ff" d="M636.1,-60.58C598.46,-53.45 522.62,-38.56 448.72,-20.31"/>
<polygon fill="#63b8ff" stroke="#63b8ff" points="449.85,-16.99 439.3,-17.96 448.16,-23.78 449.85,-16.99"/>
</a>
</g>
</g>
<!-- Node36&#45;&gt;Node18 -->
<g id="edge53_Node000036_Node000018" class="edge">
<title>Node36&#45;&gt;Node18</title>
<g id="a_edge53_Node000036_Node000018"><a xlink:title=" ">
<path fill="none" stroke="#63b8ff" d="M683.74,-61.87C750.44,-53.09 936.9,-28.47 988.23,-19.89"/>
<polygon fill="#63b8ff" stroke="#63b8ff" points="988.71,-23.37 997.9,-18.09 987.43,-16.48 988.71,-23.37"/>
</a>
</g>
</g>
<!-- Node36&#45;&gt;Node21 -->
<g id="edge51_Node000036_Node000021" class="edge">
<title>Node36&#45;&gt;Node21</title>
<g id="a_edge51_Node000036_Node000021"><a xlink:title=" ">
<path fill="none" stroke="#63b8ff" d="M683.52,-61.87C697.08,-60.09 714.43,-57.86 729.88,-56 867.93,-39.34 906.69,-45.96 1046.58,-20.18"/>
<polygon fill="#63b8ff" stroke="#63b8ff" points="1047.04,-23.65 1056.23,-18.38 1045.76,-16.77 1047.04,-23.65"/>
</a>
</g>
</g>
<!-- Node36&#45;&gt;Node23 -->
<g id="edge57_Node000036_Node000023" class="edge">
<title>Node36&#45;&gt;Node23</title>
<g id="a_edge57_Node000036_Node000023"><a xlink:title=" ">
<path fill="none" stroke="#63b8ff" d="M683.69,-58.89C688.06,-57.86 692.6,-56.85 696.88,-56 796.14,-36.3 825.67,-42.63 926.98,-20.41"/>
<polygon fill="#63b8ff" stroke="#63b8ff" points="927.54,-23.87 936.54,-18.27 926.01,-17.04 927.54,-23.87"/>
</a>
</g>
</g>
<!-- Node36&#45;&gt;Node34 -->
<g id="edge48_Node000036_Node000034" class="edge">
<title>Node36&#45;&gt;Node34</title>
<g id="a_edge48_Node000036_Node000034"><a xlink:title=" ">
<path fill="none" stroke="#63b8ff" d="M636.03,-56.8C610.85,-48.14 570.78,-34.36 541.17,-24.17"/>
<polygon fill="#63b8ff" stroke="#63b8ff" points="542.41,-20.9 531.82,-20.95 540.14,-27.52 542.41,-20.9"/>
</a>
</g>
</g>
<!-- Node37 -->
<g id="Node000037" class="node">
<title>Node37</title>
<g id="a_Node000037"><a xlink:title=" ">
<polygon fill="#e0e0e0" stroke="#999999" points="687.75,-20 632,-20 632,0 687.75,0 687.75,-20"/>
<text text-anchor="middle" x="659.88" y="-6.5" font-family="Helvetica,sans-Serif" font-size="10.00">algorithm</text>
</a>
</g>
</g>
<!-- Node36&#45;&gt;Node37 -->
<g id="edge47_Node000036_Node000037" class="edge">
<title>Node36&#45;&gt;Node37</title>
<g id="a_edge47_Node000036_Node000037"><a xlink:title=" ">
<path fill="none" stroke="#63b8ff" d="M659.88,-55.59C659.88,-49.01 659.88,-39.96 659.88,-31.73"/>
<polygon fill="#63b8ff" stroke="#63b8ff" points="663.38,-31.81 659.88,-21.81 656.38,-31.81 663.38,-31.81"/>
</a>
</g>
</g>
<!-- Node38 -->
<g id="Node000038" class="node">
<title>Node38</title>
<g id="a_Node000038"><a xlink:title=" ">
<polygon fill="#e0e0e0" stroke="#999999" points="757.5,-20 706.25,-20 706.25,0 757.5,0 757.5,-20"/>
<text text-anchor="middle" x="731.88" y="-6.5" font-family="Helvetica,sans-Serif" font-size="10.00">ostream</text>
</a>
</g>
</g>
<!-- Node36&#45;&gt;Node38 -->
<g id="edge52_Node000036_Node000038" class="edge">
<title>Node36&#45;&gt;Node38</title>
<g id="a_edge52_Node000036_Node000038"><a xlink:title=" ">
<path fill="none" stroke="#63b8ff" d="M672.42,-55.59C682.84,-47.77 697.92,-36.46 710.29,-27.19"/>
<polygon fill="#63b8ff" stroke="#63b8ff" points="712.37,-30.01 718.27,-21.21 708.17,-24.41 712.37,-30.01"/>
</a>
</g>
</g>
<!-- Node39 -->
<g id="Node000039" class="node">
<title>Node39</title>
<g id="a_Node000039"><a xlink:title=" ">
<polygon fill="#e0e0e0" stroke="#999999" points="840.62,-20 775.12,-20 775.12,0 840.62,0 840.62,-20"/>
<text text-anchor="middle" x="807.88" y="-6.5" font-family="Helvetica,sans-Serif" font-size="10.00">string_view</text>
</a>
</g>
</g>
<!-- Node36&#45;&gt;Node39 -->
<g id="edge54_Node000036_Node000039" class="edge">
<title>Node36&#45;&gt;Node39</title>
<g id="a_edge54_Node000036_Node000039"><a xlink:title=" ">
<path fill="none" stroke="#63b8ff" d="M683.65,-56.32C707.28,-47.7 743.84,-34.36 771.19,-24.38"/>
<polygon fill="#63b8ff" stroke="#63b8ff" points="772.3,-27.71 780.49,-20.99 769.9,-21.13 772.3,-27.71"/>
</a>
</g>
</g>
<!-- Node40 -->
<g id="Node000040" class="node">
<title>Node40</title>
<g id="a_Node000040"><a xlink:title=" ">
<polygon fill="#e0e0e0" stroke="#999999" points="920.75,-20 859,-20 859,0 920.75,0 920.75,-20"/>
<text text-anchor="middle" x="889.88" y="-6.5" font-family="Helvetica,sans-Serif" font-size="10.00">type_traits</text>
</a>
</g>
</g>
<!-- Node36&#45;&gt;Node40 -->
<g id="edge55_Node000036_Node000040" class="edge">
<title>Node36&#45;&gt;Node40</title>
<g id="a_edge55_Node000036_Node000040"><a xlink:title=" ">
<path fill="none" stroke="#63b8ff" d="M683.35,-59.25C687.84,-58.16 692.5,-57.04 696.88,-56 748.7,-43.66 808.45,-29.78 847.57,-20.74"/>
<polygon fill="#63b8ff" stroke="#63b8ff" points="848.34,-24.16 857.29,-18.5 846.76,-17.34 848.34,-24.16"/>
</a>
</g>
</g>
<!-- Node41 -->
<g id="Node000041" class="node">
<title>Node41</title>
<g id="a_Node000041"><a xlink:title=" ">
<polygon fill="#e0e0e0" stroke="#999999" points="613.5,-20 568.25,-20 568.25,0 613.5,0 613.5,-20"/>
<text text-anchor="middle" x="590.88" y="-6.5" font-family="Helvetica,sans-Serif" font-size="10.00">variant</text>
</a>
</g>
</g>
<!-- Node36&#45;&gt;Node41 -->
<g id="edge56_Node000036_Node000041" class="edge">
<title>Node36&#45;&gt;Node41</title>
<g id="a_edge56_Node000036_Node000041"><a xlink:title=" ">
<path fill="none" stroke="#63b8ff" d="M647.86,-55.59C637.86,-47.77 623.41,-36.46 611.57,-27.19"/>
<polygon fill="#63b8ff" stroke="#63b8ff" points="613.98,-24.64 603.95,-21.23 609.67,-30.15 613.98,-24.64"/>
</a>
</g>
</g>
<!-- Node43 -->
<g id="Node000043" class="node">
<title>Node43</title>
<g id="a_Node000043"><a xlink:title=" ">
<polygon fill="#e0e0e0" stroke="#999999" points="826.5,-76 739.25,-76 739.25,-56 826.5,-56 826.5,-76"/>
<text text-anchor="middle" x="782.88" y="-62.5" font-family="Helvetica,sans-Serif" font-size="10.00">libavutil/pixfmt.h</text>
</a>
</g>
</g>
<!-- Node42&#45;&gt;Node43 -->
<g id="edge60_Node000042_Node000043" class="edge">
<title>Node42&#45;&gt;Node43</title>
<g id="a_edge60_Node000042_Node000043"><a xlink:title=" ">
<path fill="none" stroke="#63b8ff" d="M770.22,-117.62C772.26,-109.48 775.28,-97.39 777.86,-87.07"/>
<polygon fill="#63b8ff" stroke="#63b8ff" points="781.2,-88.13 780.23,-77.58 774.41,-86.43 781.2,-88.13"/>
</a>
</g>
</g>
</g>
</svg>
