<?xml version="1.0" encoding="UTF-8" standalone="no"?>
<!DOCTYPE svg PUBLIC "-//W3C//DTD SVG 1.1//EN"
 "http://www.w3.org/Graphics/SVG/1.1/DTD/svg11.dtd">
<!-- Generated by graphviz version 12.2.1 (0)
 -->
<!-- Title: src/process.h Pages: 1 -->
<svg width="1732pt" height="264pt"
 viewBox="0.00 0.00 1732.25 264.00" xmlns="http://www.w3.org/2000/svg" xmlns:xlink="http://www.w3.org/1999/xlink">
<g id="graph0" class="graph" transform="scale(1 1) rotate(0) translate(4 260)">
<title>src/process.h</title>
<!-- Node1 -->
<g id="Node000001" class="node">
<title>Node1</title>
<g id="a_Node000001"><a xlink:title="Declarations for the startup and shutdown of the apps started by a streaming Session.">
<polygon fill="#999999" stroke="#666666" points="690,-256 614.75,-256 614.75,-236 690,-236 690,-256"/>
<text text-anchor="middle" x="652.38" y="-242.5" font-family="Helvetica,sans-Serif" font-size="10.00">src/process.h</text>
</a>
</g>
</g>
<!-- Node2 -->
<g id="Node000002" class="node">
<title>Node2</title>
<g id="a_Node000002"><a xlink:title=" ">
<polygon fill="#e0e0e0" stroke="#999999" points="338.25,-20 288.5,-20 288.5,0 338.25,0 338.25,-20"/>
<text text-anchor="middle" x="313.38" y="-6.5" font-family="Helvetica,sans-Serif" font-size="10.00">optional</text>
</a>
</g>
</g>
<!-- Node1&#45;&gt;Node2 -->
<g id="edge1_Node000001_Node000002" class="edge">
<title>Node1&#45;&gt;Node2</title>
<g id="a_edge1_Node000001_Node000002"><a xlink:title=" ">
<path fill="none" stroke="#63b8ff" d="M614.56,-244.43C561.41,-242.36 462.58,-233.82 386.38,-200 323.41,-172.05 304.11,-144.05 293.38,-76 291.99,-67.22 291.53,-64.7 293.38,-56 295.24,-47.23 298.92,-38.1 302.63,-30.38"/>
<polygon fill="#63b8ff" stroke="#63b8ff" points="305.68,-32.1 307.18,-21.61 299.47,-28.88 305.68,-32.1"/>
</a>
</g>
</g>
<!-- Node3 -->
<g id="Node000003" class="node">
<title>Node3</title>
<g id="a_Node000003"><a xlink:title=" ">
<polygon fill="#e0e0e0" stroke="#999999" points="82.75,-20 0,-20 0,0 82.75,0 82.75,-20"/>
<text text-anchor="middle" x="41.38" y="-6.5" font-family="Helvetica,sans-Serif" font-size="10.00">unordered_map</text>
</a>
</g>
</g>
<!-- Node1&#45;&gt;Node3 -->
<g id="edge2_Node000001_Node000003" class="edge">
<title>Node1&#45;&gt;Node3</title>
<g id="a_edge2_Node000001_Node000003"><a xlink:title=" ">
<path fill="none" stroke="#63b8ff" d="M614.43,-244.34C555.38,-242.23 438.67,-233.73 346.38,-200 228.93,-157.08 108.15,-65.27 61.47,-27.63"/>
<polygon fill="#63b8ff" stroke="#63b8ff" points="63.8,-25.01 53.83,-21.41 59.38,-30.44 63.8,-25.01"/>
</a>
</g>
</g>
<!-- Node4 -->
<g id="Node000004" class="node">
<title>Node4</title>
<g id="a_Node000004"><a xlink:title=" ">
<polygon fill="#e0e0e0" stroke="#999999" points="1329.25,-200 1219.5,-200 1219.5,-180 1329.25,-180 1329.25,-200"/>
<text text-anchor="middle" x="1274.38" y="-186.5" font-family="Helvetica,sans-Serif" font-size="10.00">boost/process/v1.hpp</text>
</a>
</g>
</g>
<!-- Node1&#45;&gt;Node4 -->
<g id="edge3_Node000001_Node000004" class="edge">
<title>Node1&#45;&gt;Node4</title>
<g id="a_edge3_Node000001_Node000004"><a xlink:title=" ">
<path fill="none" stroke="#63b8ff" d="M690.34,-242.72C778.96,-237.22 1006.58,-222.14 1207.86,-200.22"/>
<polygon fill="#63b8ff" stroke="#63b8ff" points="1208.18,-203.7 1217.74,-199.13 1207.42,-196.74 1208.18,-203.7"/>
</a>
</g>
</g>
<!-- Node5 -->
<g id="Node000005" class="node">
<title>Node5</title>
<g id="a_Node000005"><a xlink:href="config_8h.html" target="_top" xlink:title="Declarations for the configuration of Sunshine.">
<polygon fill="white" stroke="#666666" points="352.62,-76 302.12,-76 302.12,-56 352.62,-56 352.62,-76"/>
<text text-anchor="middle" x="327.38" y="-62.5" font-family="Helvetica,sans-Serif" font-size="10.00">config.h</text>
</a>
</g>
</g>
<!-- Node1&#45;&gt;Node5 -->
<g id="edge4_Node000001_Node000005" class="edge">
<title>Node1&#45;&gt;Node5</title>
<g id="a_edge4_Node000001_Node000005"><a xlink:title=" ">
<path fill="none" stroke="#63b8ff" d="M614.37,-238.74C536.73,-225.1 364.25,-190.18 329.38,-144 317.25,-127.94 318.69,-104.16 321.93,-87.28"/>
<polygon fill="#63b8ff" stroke="#63b8ff" points="325.26,-88.42 324.11,-77.89 318.44,-86.84 325.26,-88.42"/>
</a>
</g>
</g>
<!-- Node11 -->
<g id="Node000011" class="node">
<title>Node11</title>
<g id="a_Node000011"><a xlink:href="common_8h.html" target="_top" xlink:title="Declarations for common platform specific utilities.">
<polygon fill="white" stroke="#666666" points="702.38,-200 602.38,-200 602.38,-180 702.38,-180 702.38,-200"/>
<text text-anchor="middle" x="652.38" y="-186.5" font-family="Helvetica,sans-Serif" font-size="10.00">platform/common.h</text>
</a>
</g>
</g>
<!-- Node1&#45;&gt;Node11 -->
<g id="edge12_Node000001_Node000011" class="edge">
<title>Node1&#45;&gt;Node11</title>
<g id="a_edge12_Node000001_Node000011"><a xlink:title=" ">
<path fill="none" stroke="#63b8ff" d="M652.38,-235.59C652.38,-229.01 652.38,-219.96 652.38,-211.73"/>
<polygon fill="#63b8ff" stroke="#63b8ff" points="655.88,-211.81 652.38,-201.81 648.88,-211.81 655.88,-211.81"/>
</a>
</g>
</g>
<!-- Node27 -->
<g id="Node000027" class="node">
<title>Node27</title>
<g id="a_Node000027"><a xlink:href="utility_8h.html" target="_top" xlink:title="Declarations for utility functions.">
<polygon fill="white" stroke="#666666" points="1052.75,-76 1006,-76 1006,-56 1052.75,-56 1052.75,-76"/>
<text text-anchor="middle" x="1029.38" y="-62.5" font-family="Helvetica,sans-Serif" font-size="10.00">utility.h</text>
</a>
</g>
</g>
<!-- Node1&#45;&gt;Node27 -->
<g id="edge63_Node000001_Node000027" class="edge">
<title>Node1&#45;&gt;Node27</title>
<g id="a_edge63_Node000001_Node000027"><a xlink:title=" ">
<path fill="none" stroke="#63b8ff" d="M690.23,-240.78C778.17,-230.12 992.05,-198.96 1034.38,-144 1046.79,-127.87 1042.71,-103.77 1037.34,-86.83"/>
<polygon fill="#63b8ff" stroke="#63b8ff" points="1040.79,-86.09 1034.11,-77.86 1034.2,-88.46 1040.79,-86.09"/>
</a>
</g>
</g>
<!-- Node37 -->
<g id="Node000037" class="node">
<title>Node37</title>
<g id="a_Node000037"><a xlink:href="rtsp_8h.html" target="_top" xlink:title="Declarations for RTSP streaming.">
<polygon fill="white" stroke="#666666" points="1201.75,-200 1161,-200 1161,-180 1201.75,-180 1201.75,-200"/>
<text text-anchor="middle" x="1181.38" y="-186.5" font-family="Helvetica,sans-Serif" font-size="10.00">rtsp.h</text>
</a>
</g>
</g>
<!-- Node1&#45;&gt;Node37 -->
<g id="edge53_Node000001_Node000037" class="edge">
<title>Node1&#45;&gt;Node37</title>
<g id="a_edge53_Node000001_Node000037"><a xlink:title=" ">
<path fill="none" stroke="#63b8ff" d="M690.44,-242.04C770.41,-235.67 961.64,-219.63 1121.38,-200 1130.46,-198.88 1140.29,-197.49 1149.32,-196.13"/>
<polygon fill="#63b8ff" stroke="#63b8ff" points="1149.74,-199.61 1159.09,-194.63 1148.67,-192.69 1149.74,-199.61"/>
</a>
</g>
</g>
<!-- Node5&#45;&gt;Node2 -->
<g id="edge7_Node000005_Node000002" class="edge">
<title>Node5&#45;&gt;Node2</title>
<g id="a_edge7_Node000005_Node000002"><a xlink:title=" ">
<path fill="none" stroke="#63b8ff" d="M324.94,-55.59C323.21,-48.93 320.83,-39.75 318.67,-31.44"/>
<polygon fill="#63b8ff" stroke="#63b8ff" points="322.06,-30.56 316.17,-21.76 315.29,-32.32 322.06,-30.56"/>
</a>
</g>
</g>
<!-- Node5&#45;&gt;Node3 -->
<g id="edge9_Node000005_Node000003" class="edge">
<title>Node5&#45;&gt;Node3</title>
<g id="a_edge9_Node000005_Node000003"><a xlink:title=" ">
<path fill="none" stroke="#63b8ff" d="M301.74,-60.16C255.15,-51.36 155.69,-32.58 94.08,-20.95"/>
<polygon fill="#63b8ff" stroke="#63b8ff" points="95,-17.56 84.53,-19.15 93.71,-24.44 95,-17.56"/>
</a>
</g>
</g>
<!-- Node6 -->
<g id="Node000006" class="node">
<title>Node6</title>
<g id="a_Node000006"><a xlink:title=" ">
<polygon fill="#e0e0e0" stroke="#999999" points="140.38,-20 100.38,-20 100.38,0 140.38,0 140.38,-20"/>
<text text-anchor="middle" x="120.38" y="-6.5" font-family="Helvetica,sans-Serif" font-size="10.00">bitset</text>
</a>
</g>
</g>
<!-- Node5&#45;&gt;Node6 -->
<g id="edge5_Node000005_Node000006" class="edge">
<title>Node5&#45;&gt;Node6</title>
<g id="a_edge5_Node000005_Node000006"><a xlink:title=" ">
<path fill="none" stroke="#63b8ff" d="M301.91,-59.01C269.29,-51.25 210.76,-36.99 151.65,-20.53"/>
<polygon fill="#63b8ff" stroke="#63b8ff" points="152.65,-17.17 142.07,-17.84 150.75,-23.91 152.65,-17.17"/>
</a>
</g>
</g>
<!-- Node7 -->
<g id="Node000007" class="node">
<title>Node7</title>
<g id="a_Node000007"><a xlink:title=" ">
<polygon fill="#e0e0e0" stroke="#999999" points="402,-20 356.75,-20 356.75,0 402,0 402,-20"/>
<text text-anchor="middle" x="379.38" y="-6.5" font-family="Helvetica,sans-Serif" font-size="10.00">chrono</text>
</a>
</g>
</g>
<!-- Node5&#45;&gt;Node7 -->
<g id="edge6_Node000005_Node000007" class="edge">
<title>Node5&#45;&gt;Node7</title>
<g id="a_edge6_Node000005_Node000007"><a xlink:title=" ">
<path fill="none" stroke="#63b8ff" d="M336.43,-55.59C343.59,-48.16 353.78,-37.58 362.44,-28.58"/>
<polygon fill="#63b8ff" stroke="#63b8ff" points="364.96,-31.02 369.37,-21.39 359.91,-26.16 364.96,-31.02"/>
</a>
</g>
</g>
<!-- Node8 -->
<g id="Node000008" class="node">
<title>Node8</title>
<g id="a_Node000008"><a xlink:title=" ">
<polygon fill="#e0e0e0" stroke="#999999" points="460.38,-20 420.38,-20 420.38,0 460.38,0 460.38,-20"/>
<text text-anchor="middle" x="440.38" y="-6.5" font-family="Helvetica,sans-Serif" font-size="10.00">string</text>
</a>
</g>
</g>
<!-- Node5&#45;&gt;Node8 -->
<g id="edge8_Node000005_Node000008" class="edge">
<title>Node5&#45;&gt;Node8</title>
<g id="a_edge8_Node000005_Node000008"><a xlink:title=" ">
<path fill="none" stroke="#63b8ff" d="M347.06,-55.59C364.53,-47.24 390.33,-34.92 410.37,-25.34"/>
<polygon fill="#63b8ff" stroke="#63b8ff" points="411.66,-28.6 419.17,-21.13 408.64,-22.29 411.66,-28.6"/>
</a>
</g>
</g>
<!-- Node9 -->
<g id="Node000009" class="node">
<title>Node9</title>
<g id="a_Node000009"><a xlink:title=" ">
<polygon fill="#e0e0e0" stroke="#999999" points="762.88,-20 719.88,-20 719.88,0 762.88,0 762.88,-20"/>
<text text-anchor="middle" x="741.38" y="-6.5" font-family="Helvetica,sans-Serif" font-size="10.00">vector</text>
</a>
</g>
</g>
<!-- Node5&#45;&gt;Node9 -->
<g id="edge10_Node000005_Node000009" class="edge">
<title>Node5&#45;&gt;Node9</title>
<g id="a_edge10_Node000005_Node000009"><a xlink:title=" ">
<path fill="none" stroke="#63b8ff" d="M353.09,-62.54C424.12,-55.66 622.85,-35.82 708.41,-20"/>
<polygon fill="#63b8ff" stroke="#63b8ff" points="708.84,-23.48 717.99,-18.14 707.5,-16.61 708.84,-23.48"/>
</a>
</g>
</g>
<!-- Node10 -->
<g id="Node000010" class="node">
<title>Node10</title>
<g id="a_Node000010"><a xlink:href="nvenc__config_8h.html" target="_top" xlink:title="Declarations for NVENC encoder configuration.">
<polygon fill="white" stroke="#666666" points="270,-20 158.75,-20 158.75,0 270,0 270,-20"/>
<text text-anchor="middle" x="214.38" y="-6.5" font-family="Helvetica,sans-Serif" font-size="10.00">nvenc/nvenc_config.h</text>
</a>
</g>
</g>
<!-- Node5&#45;&gt;Node10 -->
<g id="edge11_Node000005_Node000010" class="edge">
<title>Node5&#45;&gt;Node10</title>
<g id="a_edge11_Node000005_Node000010"><a xlink:title=" ">
<path fill="none" stroke="#63b8ff" d="M307.69,-55.59C290.22,-47.24 264.42,-34.92 244.38,-25.34"/>
<polygon fill="#63b8ff" stroke="#63b8ff" points="246.11,-22.29 235.58,-21.13 243.09,-28.6 246.11,-22.29"/>
</a>
</g>
</g>
<!-- Node11&#45;&gt;Node5 -->
<g id="edge19_Node000011_Node000005" class="edge">
<title>Node11&#45;&gt;Node5</title>
<g id="a_edge19_Node000011_Node000005"><a xlink:title=" ">
<path fill="none" stroke="#63b8ff" d="M602.07,-187.71C526.64,-184.76 389.14,-175.15 352.38,-144 335.98,-130.11 330.25,-105.35 328.3,-87.65"/>
<polygon fill="#63b8ff" stroke="#63b8ff" points="331.79,-87.49 327.55,-77.78 324.81,-88.02 331.79,-87.49"/>
</a>
</g>
</g>
<!-- Node11&#45;&gt;Node6 -->
<g id="edge13_Node000011_Node000006" class="edge">
<title>Node11&#45;&gt;Node6</title>
<g id="a_edge13_Node000011_Node000006"><a xlink:title=" ">
<path fill="none" stroke="#63b8ff" d="M602.08,-188.56C537.16,-186.53 421.56,-177.92 329.38,-144 253,-115.9 175.35,-56.68 140.03,-27.7"/>
<polygon fill="#63b8ff" stroke="#63b8ff" points="142.32,-25.05 132.4,-21.34 137.84,-30.43 142.32,-25.05"/>
</a>
</g>
</g>
<!-- Node11&#45;&gt;Node8 -->
<g id="edge17_Node000011_Node000008" class="edge">
<title>Node11&#45;&gt;Node8</title>
<g id="a_edge17_Node000011_Node000008"><a xlink:title=" ">
<path fill="none" stroke="#63b8ff" d="M609.27,-179.51C581.13,-172.23 544.22,-160.6 514.38,-144 495.08,-133.27 493.79,-125.57 476.38,-112 454.78,-95.17 438.86,-100.37 426.38,-76 419.06,-61.71 423.82,-43.77 429.7,-30.35"/>
<polygon fill="#63b8ff" stroke="#63b8ff" points="432.69,-32.2 433.99,-21.69 426.42,-29.1 432.69,-32.2"/>
</a>
</g>
</g>
<!-- Node12 -->
<g id="Node000012" class="node">
<title>Node12</title>
<g id="a_Node000012"><a xlink:title=" ">
<polygon fill="#e0e0e0" stroke="#999999" points="712.88,-138 651.88,-138 651.88,-118 712.88,-118 712.88,-138"/>
<text text-anchor="middle" x="682.38" y="-124.5" font-family="Helvetica,sans-Serif" font-size="10.00">filesystem</text>
</a>
</g>
</g>
<!-- Node11&#45;&gt;Node12 -->
<g id="edge14_Node000011_Node000012" class="edge">
<title>Node11&#45;&gt;Node12</title>
<g id="a_edge14_Node000011_Node000012"><a xlink:title=" ">
<path fill="none" stroke="#63b8ff" d="M657.06,-179.62C661.23,-171.3 667.44,-158.86 672.67,-148.4"/>
<polygon fill="#63b8ff" stroke="#63b8ff" points="675.8,-149.98 677.14,-139.47 669.54,-146.85 675.8,-149.98"/>
</a>
</g>
</g>
<!-- Node13 -->
<g id="Node000013" class="node">
<title>Node13</title>
<g id="a_Node000013"><a xlink:title=" ">
<polygon fill="#e0e0e0" stroke="#999999" points="701.38,-20 643.38,-20 643.38,0 701.38,0 701.38,-20"/>
<text text-anchor="middle" x="672.38" y="-6.5" font-family="Helvetica,sans-Serif" font-size="10.00">functional</text>
</a>
</g>
</g>
<!-- Node11&#45;&gt;Node13 -->
<g id="edge15_Node000011_Node000013" class="edge">
<title>Node11&#45;&gt;Node13</title>
<g id="a_edge15_Node000011_Node000013"><a xlink:title=" ">
<path fill="none" stroke="#63b8ff" d="M647.43,-179.59C639.92,-163.85 628.06,-131.97 643.38,-112 680.9,-63.06 739.85,-124.94 777.38,-76 782.78,-68.95 782.27,-63.42 777.38,-56 769.71,-44.37 738.85,-31.96 712.56,-23.12"/>
<polygon fill="#63b8ff" stroke="#63b8ff" points="713.68,-19.81 703.09,-20.04 711.51,-26.46 713.68,-19.81"/>
</a>
</g>
</g>
<!-- Node14 -->
<g id="Node000014" class="node">
<title>Node14</title>
<g id="a_Node000014"><a xlink:title=" ">
<polygon fill="#e0e0e0" stroke="#999999" points="1263.88,-20 1220.88,-20 1220.88,0 1263.88,0 1263.88,-20"/>
<text text-anchor="middle" x="1242.38" y="-6.5" font-family="Helvetica,sans-Serif" font-size="10.00">mutex</text>
</a>
</g>
</g>
<!-- Node11&#45;&gt;Node14 -->
<g id="edge16_Node000011_Node000014" class="edge">
<title>Node11&#45;&gt;Node14</title>
<g id="a_edge16_Node000011_Node000014"><a xlink:title=" ">
<path fill="none" stroke="#63b8ff" d="M702.84,-186.78C792.64,-182.21 976.21,-169.94 1034.38,-144 1088.45,-119.89 1084.16,-87.36 1134.38,-56 1158.14,-41.16 1187.66,-29.24 1209.82,-21.41"/>
<polygon fill="#63b8ff" stroke="#63b8ff" points="1210.92,-24.74 1219.24,-18.19 1208.65,-18.12 1210.92,-24.74"/>
</a>
</g>
</g>
<!-- Node15 -->
<g id="Node000015" class="node">
<title>Node15</title>
<g id="a_Node000015"><a xlink:title=" ">
<polygon fill="#e0e0e0" stroke="#999999" points="869.5,-138 731.25,-138 731.25,-118 869.5,-118 869.5,-138"/>
<text text-anchor="middle" x="800.38" y="-124.5" font-family="Helvetica,sans-Serif" font-size="10.00">boost/core/noncopyable.hpp</text>
</a>
</g>
</g>
<!-- Node11&#45;&gt;Node15 -->
<g id="edge18_Node000011_Node000015" class="edge">
<title>Node11&#45;&gt;Node15</title>
<g id="a_edge18_Node000011_Node000015"><a xlink:title=" ">
<path fill="none" stroke="#63b8ff" d="M675.5,-179.62C700.05,-169.67 739.07,-153.85 766.95,-142.55"/>
<polygon fill="#63b8ff" stroke="#63b8ff" points="768.06,-145.88 776.01,-138.88 765.43,-139.39 768.06,-145.88"/>
</a>
</g>
</g>
<!-- Node16 -->
<g id="Node000016" class="node">
<title>Node16</title>
<g id="a_Node000016"><a xlink:href="logging_8h.html" target="_top" xlink:title="Declarations for logging related functions.">
<polygon fill="white" stroke="#666666" points="595.12,-138 523.62,-138 523.62,-118 595.12,-118 595.12,-138"/>
<text text-anchor="middle" x="559.38" y="-124.5" font-family="Helvetica,sans-Serif" font-size="10.00">src/logging.h</text>
</a>
</g>
</g>
<!-- Node11&#45;&gt;Node16 -->
<g id="edge20_Node000011_Node000016" class="edge">
<title>Node11&#45;&gt;Node16</title>
<g id="a_edge20_Node000011_Node000016"><a xlink:title=" ">
<path fill="none" stroke="#63b8ff" d="M637.84,-179.62C623.24,-170.2 600.48,-155.52 583.22,-144.39"/>
<polygon fill="#63b8ff" stroke="#63b8ff" points="585.38,-141.61 575.08,-139.13 581.58,-147.49 585.38,-141.61"/>
</a>
</g>
</g>
<!-- Node22 -->
<g id="Node000022" class="node">
<title>Node22</title>
<g id="a_Node000022"><a xlink:href="thread__safe_8h.html" target="_top" xlink:title="Declarations for thread&#45;safe data structures.">
<polygon fill="white" stroke="#666666" points="1227.25,-138 1135.5,-138 1135.5,-118 1227.25,-118 1227.25,-138"/>
<text text-anchor="middle" x="1181.38" y="-124.5" font-family="Helvetica,sans-Serif" font-size="10.00">src/thread_safe.h</text>
</a>
</g>
</g>
<!-- Node11&#45;&gt;Node22 -->
<g id="edge29_Node000011_Node000022" class="edge">
<title>Node11&#45;&gt;Node22</title>
<g id="a_edge29_Node000011_Node000022"><a xlink:title=" ">
<path fill="none" stroke="#63b8ff" d="M702.57,-184.55C783.05,-177.23 945.89,-161.69 1083.38,-144 1096.58,-142.3 1110.75,-140.26 1124.1,-138.24"/>
<polygon fill="#63b8ff" stroke="#63b8ff" points="1124.23,-141.76 1133.58,-136.78 1123.17,-134.84 1124.23,-141.76"/>
</a>
</g>
</g>
<!-- Node11&#45;&gt;Node27 -->
<g id="edge49_Node000011_Node000027" class="edge">
<title>Node11&#45;&gt;Node27</title>
<g id="a_edge49_Node000011_Node000027"><a xlink:title=" ">
<path fill="none" stroke="#63b8ff" d="M702.65,-189.61C790.8,-189.58 968.09,-184.35 1012.38,-144 1027.77,-129.98 1030.87,-105.44 1030.85,-87.83"/>
<polygon fill="#63b8ff" stroke="#63b8ff" points="1034.36,-87.85 1030.48,-77.99 1027.36,-88.12 1034.36,-87.85"/>
</a>
</g>
</g>
<!-- Node34 -->
<g id="Node000034" class="node">
<title>Node34</title>
<g id="a_Node000034"><a xlink:href="video__colorspace_8h.html" target="_top" xlink:title="Declarations for colorspace functions.">
<polygon fill="white" stroke="#666666" points="1003.62,-138 887.12,-138 887.12,-118 1003.62,-118 1003.62,-138"/>
<text text-anchor="middle" x="945.38" y="-124.5" font-family="Helvetica,sans-Serif" font-size="10.00">src/video_colorspace.h</text>
</a>
</g>
</g>
<!-- Node11&#45;&gt;Node34 -->
<g id="edge50_Node000011_Node000034" class="edge">
<title>Node11&#45;&gt;Node34</title>
<g id="a_edge50_Node000011_Node000034"><a xlink:title=" ">
<path fill="none" stroke="#63b8ff" d="M701.82,-179.5C747.65,-170.62 817.71,-156.83 878.38,-144 883.03,-143.02 887.87,-141.97 892.71,-140.91"/>
<polygon fill="#63b8ff" stroke="#63b8ff" points="893.46,-144.33 902.47,-138.76 891.95,-137.5 893.46,-144.33"/>
</a>
</g>
</g>
<!-- Node36 -->
<g id="Node000036" class="node">
<title>Node36</title>
<g id="a_Node000036"><a xlink:title=" ">
<polygon fill="#e0e0e0" stroke="#999999" points="467.75,-144 361,-144 361,-112 467.75,-112 467.75,-144"/>
<text text-anchor="start" x="369" y="-130.5" font-family="Helvetica,sans-Serif" font-size="10.00">moonlight&#45;common&#45;c</text>
<text text-anchor="middle" x="414.38" y="-118.5" font-family="Helvetica,sans-Serif" font-size="10.00">/src/Limelight.h</text>
</a>
</g>
</g>
<!-- Node11&#45;&gt;Node36 -->
<g id="edge52_Node000011_Node000036" class="edge">
<title>Node11&#45;&gt;Node36</title>
<g id="a_edge52_Node000011_Node000036"><a xlink:title=" ">
<path fill="none" stroke="#63b8ff" d="M614.93,-179.56C578.56,-170.39 522.61,-156.29 479.04,-145.3"/>
<polygon fill="#63b8ff" stroke="#63b8ff" points="479.98,-141.93 469.43,-142.88 478.27,-148.72 479.98,-141.93"/>
</a>
</g>
</g>
<!-- Node16&#45;&gt;Node5 -->
<g id="edge23_Node000016_Node000005" class="edge">
<title>Node16&#45;&gt;Node5</title>
<g id="a_edge23_Node000016_Node000005"><a xlink:title=" ">
<path fill="none" stroke="#63b8ff" d="M523.12,-117.62C479.72,-106.4 407.45,-87.71 363.92,-76.45"/>
<polygon fill="#63b8ff" stroke="#63b8ff" points="365,-73.12 354.44,-74 363.25,-79.89 365,-73.12"/>
</a>
</g>
</g>
<!-- Node17 -->
<g id="Node000017" class="node">
<title>Node17</title>
<g id="a_Node000017"><a xlink:title=" ">
<polygon fill="#e0e0e0" stroke="#999999" points="649.88,-76 534.88,-76 534.88,-56 649.88,-56 649.88,-76"/>
<text text-anchor="middle" x="592.38" y="-62.5" font-family="Helvetica,sans-Serif" font-size="10.00">boost/log/common.hpp</text>
</a>
</g>
</g>
<!-- Node16&#45;&gt;Node17 -->
<g id="edge21_Node000016_Node000017" class="edge">
<title>Node16&#45;&gt;Node17</title>
<g id="a_edge21_Node000016_Node000017"><a xlink:title=" ">
<path fill="none" stroke="#63b8ff" d="M564.53,-117.62C569.16,-109.21 576.1,-96.6 581.89,-86.07"/>
<polygon fill="#63b8ff" stroke="#63b8ff" points="584.88,-87.89 586.63,-77.44 578.75,-84.51 584.88,-87.89"/>
</a>
</g>
</g>
<!-- Node18 -->
<g id="Node000018" class="node">
<title>Node18</title>
<g id="a_Node000018"><a xlink:title=" ">
<polygon fill="#e0e0e0" stroke="#999999" points="768.75,-76 668,-76 668,-56 768.75,-56 768.75,-76"/>
<text text-anchor="middle" x="718.38" y="-62.5" font-family="Helvetica,sans-Serif" font-size="10.00">boost/log/sinks.hpp</text>
</a>
</g>
</g>
<!-- Node16&#45;&gt;Node18 -->
<g id="edge22_Node000016_Node000018" class="edge">
<title>Node16&#45;&gt;Node18</title>
<g id="a_edge22_Node000016_Node000018"><a xlink:title=" ">
<path fill="none" stroke="#63b8ff" d="M584.22,-117.62C610.74,-107.62 653,-91.67 683,-80.35"/>
<polygon fill="#63b8ff" stroke="#63b8ff" points="683.91,-83.75 692.03,-76.94 681.44,-77.2 683.91,-83.75"/>
</a>
</g>
</g>
<!-- Node19 -->
<g id="Node000019" class="node">
<title>Node19</title>
<g id="a_Node000019"><a xlink:href="stat__trackers_8h.html" target="_top" xlink:title="Declarations for streaming statistic tracking.">
<polygon fill="white" stroke="#666666" points="517,-76 435.75,-76 435.75,-56 517,-56 517,-76"/>
<text text-anchor="middle" x="476.38" y="-62.5" font-family="Helvetica,sans-Serif" font-size="10.00">stat_trackers.h</text>
</a>
</g>
</g>
<!-- Node16&#45;&gt;Node19 -->
<g id="edge24_Node000016_Node000019" class="edge">
<title>Node16&#45;&gt;Node19</title>
<g id="a_edge24_Node000016_Node000019"><a xlink:title=" ">
<path fill="none" stroke="#63b8ff" d="M546.41,-117.62C533.62,-108.38 513.82,-94.07 498.53,-83.01"/>
<polygon fill="#63b8ff" stroke="#63b8ff" points="500.63,-80.22 490.48,-77.2 496.53,-85.89 500.63,-80.22"/>
</a>
</g>
</g>
<!-- Node19&#45;&gt;Node7 -->
<g id="edge25_Node000019_Node000007" class="edge">
<title>Node19&#45;&gt;Node7</title>
<g id="a_edge25_Node000019_Node000007"><a xlink:title=" ">
<path fill="none" stroke="#63b8ff" d="M459.48,-55.59C444.83,-47.44 423.35,-35.48 406.33,-26"/>
<polygon fill="#63b8ff" stroke="#63b8ff" points="408.17,-23.02 397.73,-21.22 404.76,-29.14 408.17,-23.02"/>
</a>
</g>
</g>
<!-- Node19&#45;&gt;Node13 -->
<g id="edge26_Node000019_Node000013" class="edge">
<title>Node19&#45;&gt;Node13</title>
<g id="a_edge26_Node000019_Node000013"><a xlink:title=" ">
<path fill="none" stroke="#63b8ff" d="M510.52,-55.59C544.36,-46.27 596.21,-31.98 632.06,-22.11"/>
<polygon fill="#63b8ff" stroke="#63b8ff" points="632.93,-25.5 641.64,-19.47 631.07,-18.75 632.93,-25.5"/>
</a>
</g>
</g>
<!-- Node20 -->
<g id="Node000020" class="node">
<title>Node20</title>
<g id="a_Node000020"><a xlink:title=" ">
<polygon fill="#e0e0e0" stroke="#999999" points="625,-20 585.75,-20 585.75,0 625,0 625,-20"/>
<text text-anchor="middle" x="605.38" y="-6.5" font-family="Helvetica,sans-Serif" font-size="10.00">limits</text>
</a>
</g>
</g>
<!-- Node19&#45;&gt;Node20 -->
<g id="edge27_Node000019_Node000020" class="edge">
<title>Node19&#45;&gt;Node20</title>
<g id="a_edge27_Node000019_Node000020"><a xlink:title=" ">
<path fill="none" stroke="#63b8ff" d="M498.85,-55.59C519.91,-46.78 551.56,-33.53 574.9,-23.76"/>
<polygon fill="#63b8ff" stroke="#63b8ff" points="576.01,-27.09 583.88,-20 573.31,-20.63 576.01,-27.09"/>
</a>
</g>
</g>
<!-- Node21 -->
<g id="Node000021" class="node">
<title>Node21</title>
<g id="a_Node000021"><a xlink:title=" ">
<polygon fill="#e0e0e0" stroke="#999999" points="568.12,-20 478.62,-20 478.62,0 568.12,0 568.12,-20"/>
<text text-anchor="middle" x="523.38" y="-6.5" font-family="Helvetica,sans-Serif" font-size="10.00">boost/format.hpp</text>
</a>
</g>
</g>
<!-- Node19&#45;&gt;Node21 -->
<g id="edge28_Node000019_Node000021" class="edge">
<title>Node19&#45;&gt;Node21</title>
<g id="a_edge28_Node000019_Node000021"><a xlink:title=" ">
<path fill="none" stroke="#63b8ff" d="M484.56,-55.59C490.96,-48.24 500.05,-37.8 507.83,-28.87"/>
<polygon fill="#63b8ff" stroke="#63b8ff" points="510.36,-31.28 514.29,-21.44 505.08,-26.69 510.36,-31.28"/>
</a>
</g>
</g>
<!-- Node22&#45;&gt;Node9 -->
<g id="edge36_Node000022_Node000009" class="edge">
<title>Node22&#45;&gt;Node9</title>
<g id="a_edge36_Node000022_Node000009"><a xlink:title=" ">
<path fill="none" stroke="#63b8ff" d="M1139.84,-117.56C1102.13,-108.51 1045.28,-93.64 997.38,-76 977.6,-68.72 974.42,-62.53 954.38,-56 878.94,-31.44 853.98,-39.17 774.33,-20.51"/>
<polygon fill="#63b8ff" stroke="#63b8ff" points="775.28,-17.14 764.73,-18.19 773.63,-23.94 775.28,-17.14"/>
</a>
</g>
</g>
<!-- Node22&#45;&gt;Node13 -->
<g id="edge33_Node000022_Node000013" class="edge">
<title>Node22&#45;&gt;Node13</title>
<g id="a_edge33_Node000022_Node000013"><a xlink:title=" ">
<path fill="none" stroke="#63b8ff" d="M1135.28,-121.12C1088.47,-114.12 1014.51,-100.22 954.38,-76 938.47,-69.59 937.44,-62 921.38,-56 835.95,-24.11 806.41,-37.55 712.83,-20.12"/>
<polygon fill="#63b8ff" stroke="#63b8ff" points="713.69,-16.72 703.21,-18.25 712.36,-23.59 713.69,-16.72"/>
</a>
</g>
</g>
<!-- Node22&#45;&gt;Node14 -->
<g id="edge35_Node000022_Node000014" class="edge">
<title>Node22&#45;&gt;Node14</title>
<g id="a_edge35_Node000022_Node000014"><a xlink:title=" ">
<path fill="none" stroke="#63b8ff" d="M1169.47,-117.56C1153.49,-103.72 1128.63,-77.26 1142.38,-56 1150.2,-43.9 1183.73,-30.38 1209.84,-21.34"/>
<polygon fill="#63b8ff" stroke="#63b8ff" points="1210.68,-24.75 1219.04,-18.25 1208.45,-18.12 1210.68,-24.75"/>
</a>
</g>
</g>
<!-- Node23 -->
<g id="Node000023" class="node">
<title>Node23</title>
<g id="a_Node000023"><a xlink:title=" ">
<polygon fill="#e0e0e0" stroke="#999999" points="1338.25,-76 1300.5,-76 1300.5,-56 1338.25,-56 1338.25,-76"/>
<text text-anchor="middle" x="1319.38" y="-62.5" font-family="Helvetica,sans-Serif" font-size="10.00">array</text>
</a>
</g>
</g>
<!-- Node22&#45;&gt;Node23 -->
<g id="edge30_Node000022_Node000023" class="edge">
<title>Node22&#45;&gt;Node23</title>
<g id="a_edge30_Node000022_Node000023"><a xlink:title=" ">
<path fill="none" stroke="#63b8ff" d="M1202.94,-117.62C1226.29,-107.47 1263.68,-91.22 1289.77,-79.87"/>
<polygon fill="#63b8ff" stroke="#63b8ff" points="1291.02,-83.14 1298.8,-75.95 1288.23,-76.72 1291.02,-83.14"/>
</a>
</g>
</g>
<!-- Node24 -->
<g id="Node000024" class="node">
<title>Node24</title>
<g id="a_Node000024"><a xlink:title=" ">
<polygon fill="#e0e0e0" stroke="#999999" points="1282,-76 1236.75,-76 1236.75,-56 1282,-56 1282,-76"/>
<text text-anchor="middle" x="1259.38" y="-62.5" font-family="Helvetica,sans-Serif" font-size="10.00">atomic</text>
</a>
</g>
</g>
<!-- Node22&#45;&gt;Node24 -->
<g id="edge31_Node000022_Node000024" class="edge">
<title>Node22&#45;&gt;Node24</title>
<g id="a_edge31_Node000022_Node000024"><a xlink:title=" ">
<path fill="none" stroke="#63b8ff" d="M1193.56,-117.62C1205.58,-108.38 1224.19,-94.07 1238.56,-83.01"/>
<polygon fill="#63b8ff" stroke="#63b8ff" points="1240.28,-86.1 1246.07,-77.23 1236.01,-80.55 1240.28,-86.1"/>
</a>
</g>
</g>
<!-- Node25 -->
<g id="Node000025" class="node">
<title>Node25</title>
<g id="a_Node000025"><a xlink:title=" ">
<polygon fill="#e0e0e0" stroke="#999999" points="1376.38,-20 1282.38,-20 1282.38,0 1376.38,0 1376.38,-20"/>
<text text-anchor="middle" x="1329.38" y="-6.5" font-family="Helvetica,sans-Serif" font-size="10.00">condition_variable</text>
</a>
</g>
</g>
<!-- Node22&#45;&gt;Node25 -->
<g id="edge32_Node000022_Node000025" class="edge">
<title>Node22&#45;&gt;Node25</title>
<g id="a_edge32_Node000022_Node000025"><a xlink:title=" ">
<path fill="none" stroke="#63b8ff" d="M1176.98,-117.63C1170.8,-102.92 1161.72,-74.21 1175.38,-56 1187.12,-40.33 1232.43,-28.3 1270.88,-20.63"/>
<polygon fill="#63b8ff" stroke="#63b8ff" points="1271.39,-24.1 1280.55,-18.78 1270.06,-17.23 1271.39,-24.1"/>
</a>
</g>
</g>
<!-- Node26 -->
<g id="Node000026" class="node">
<title>Node26</title>
<g id="a_Node000026"><a xlink:title=" ">
<polygon fill="#e0e0e0" stroke="#999999" points="1218.75,-76 1184,-76 1184,-56 1218.75,-56 1218.75,-76"/>
<text text-anchor="middle" x="1201.38" y="-62.5" font-family="Helvetica,sans-Serif" font-size="10.00">map</text>
</a>
</g>
</g>
<!-- Node22&#45;&gt;Node26 -->
<g id="edge34_Node000022_Node000026" class="edge">
<title>Node22&#45;&gt;Node26</title>
<g id="a_edge34_Node000022_Node000026"><a xlink:title=" ">
<path fill="none" stroke="#63b8ff" d="M1184.5,-117.62C1187.25,-109.39 1191.33,-97.13 1194.8,-86.74"/>
<polygon fill="#63b8ff" stroke="#63b8ff" points="1198.02,-88.14 1197.86,-77.55 1191.38,-85.93 1198.02,-88.14"/>
</a>
</g>
</g>
<!-- Node22&#45;&gt;Node27 -->
<g id="edge37_Node000022_Node000027" class="edge">
<title>Node22&#45;&gt;Node27</title>
<g id="a_edge37_Node000022_Node000027"><a xlink:title=" ">
<path fill="none" stroke="#63b8ff" d="M1157.62,-117.62C1132.38,-107.66 1092.22,-91.81 1063.57,-80.5"/>
<polygon fill="#63b8ff" stroke="#63b8ff" points="1065.2,-77.38 1054.62,-76.96 1062.63,-83.89 1065.2,-77.38"/>
</a>
</g>
</g>
<!-- Node27&#45;&gt;Node2 -->
<g id="edge42_Node000027_Node000002" class="edge">
<title>Node27&#45;&gt;Node2</title>
<g id="a_edge42_Node000027_Node000002"><a xlink:title=" ">
<path fill="none" stroke="#63b8ff" d="M1005.79,-62.89C983.92,-60.98 950.46,-58.12 921.38,-56 670.18,-37.66 601.69,-60.22 349.86,-20.07"/>
<polygon fill="#63b8ff" stroke="#63b8ff" points="350.43,-16.62 340,-18.48 349.32,-23.53 350.43,-16.62"/>
</a>
</g>
</g>
<!-- Node27&#45;&gt;Node8 -->
<g id="edge44_Node000027_Node000008" class="edge">
<title>Node27&#45;&gt;Node8</title>
<g id="a_edge44_Node000027_Node000008"><a xlink:title=" ">
<path fill="none" stroke="#63b8ff" d="M1005.78,-63.01C983.9,-61.17 950.44,-58.37 921.38,-56 724.14,-39.93 669.24,-57.44 471.87,-20.08"/>
<polygon fill="#63b8ff" stroke="#63b8ff" points="472.79,-16.69 462.31,-18.25 471.47,-23.57 472.79,-16.69"/>
</a>
</g>
</g>
<!-- Node27&#45;&gt;Node9 -->
<g id="edge48_Node000027_Node000009" class="edge">
<title>Node27&#45;&gt;Node9</title>
<g id="a_edge48_Node000027_Node000009"><a xlink:title=" ">
<path fill="none" stroke="#63b8ff" d="M1005.55,-58.92C1001.18,-57.89 996.65,-56.87 992.38,-56 898.37,-36.94 870.36,-41.94 774.33,-20.45"/>
<polygon fill="#63b8ff" stroke="#63b8ff" points="775.25,-17.07 764.72,-18.25 773.69,-23.89 775.25,-17.07"/>
</a>
</g>
</g>
<!-- Node27&#45;&gt;Node14 -->
<g id="edge41_Node000027_Node000014" class="edge">
<title>Node27&#45;&gt;Node14</title>
<g id="a_edge41_Node000027_Node000014"><a xlink:title=" ">
<path fill="none" stroke="#63b8ff" d="M1052.97,-59.27C1093.48,-49.42 1174.71,-29.63 1209.33,-20.66"/>
<polygon fill="#63b8ff" stroke="#63b8ff" points="1210.22,-24.05 1218.99,-18.1 1208.43,-17.28 1210.22,-24.05"/>
</a>
</g>
</g>
<!-- Node27&#45;&gt;Node25 -->
<g id="edge39_Node000027_Node000025" class="edge">
<title>Node27&#45;&gt;Node25</title>
<g id="a_edge39_Node000027_Node000025"><a xlink:title=" ">
<path fill="none" stroke="#63b8ff" d="M1053.17,-60.72C1099.87,-52.31 1204.76,-33.43 1271,-21.51"/>
<polygon fill="#63b8ff" stroke="#63b8ff" points="1271.38,-25 1280.6,-19.78 1270.14,-18.11 1271.38,-25"/>
</a>
</g>
</g>
<!-- Node28 -->
<g id="Node000028" class="node">
<title>Node28</title>
<g id="a_Node000028"><a xlink:title=" ">
<polygon fill="#e0e0e0" stroke="#999999" points="1133.25,-20 1077.5,-20 1077.5,0 1133.25,0 1133.25,-20"/>
<text text-anchor="middle" x="1105.38" y="-6.5" font-family="Helvetica,sans-Serif" font-size="10.00">algorithm</text>
</a>
</g>
</g>
<!-- Node27&#45;&gt;Node28 -->
<g id="edge38_Node000027_Node000028" class="edge">
<title>Node27&#45;&gt;Node28</title>
<g id="a_edge38_Node000027_Node000028"><a xlink:title=" ">
<path fill="none" stroke="#63b8ff" d="M1042.61,-55.59C1053.66,-47.74 1069.66,-36.38 1082.73,-27.09"/>
<polygon fill="#63b8ff" stroke="#63b8ff" points="1084.68,-30 1090.8,-21.36 1080.62,-24.3 1084.68,-30"/>
</a>
</g>
</g>
<!-- Node29 -->
<g id="Node000029" class="node">
<title>Node29</title>
<g id="a_Node000029"><a xlink:title=" ">
<polygon fill="#e0e0e0" stroke="#999999" points="1203,-20 1151.75,-20 1151.75,0 1203,0 1203,-20"/>
<text text-anchor="middle" x="1177.38" y="-6.5" font-family="Helvetica,sans-Serif" font-size="10.00">memory</text>
</a>
</g>
</g>
<!-- Node27&#45;&gt;Node29 -->
<g id="edge40_Node000027_Node000029" class="edge">
<title>Node27&#45;&gt;Node29</title>
<g id="a_edge40_Node000027_Node000029"><a xlink:title=" ">
<path fill="none" stroke="#63b8ff" d="M1053.15,-56.32C1076.78,-47.7 1113.34,-34.36 1140.69,-24.38"/>
<polygon fill="#63b8ff" stroke="#63b8ff" points="1141.8,-27.71 1149.99,-20.99 1139.4,-21.13 1141.8,-27.71"/>
</a>
</g>
</g>
<!-- Node30 -->
<g id="Node000030" class="node">
<title>Node30</title>
<g id="a_Node000030"><a xlink:title=" ">
<polygon fill="#e0e0e0" stroke="#999999" points="832,-20 780.75,-20 780.75,0 832,0 832,-20"/>
<text text-anchor="middle" x="806.38" y="-6.5" font-family="Helvetica,sans-Serif" font-size="10.00">ostream</text>
</a>
</g>
</g>
<!-- Node27&#45;&gt;Node30 -->
<g id="edge43_Node000027_Node000030" class="edge">
<title>Node27&#45;&gt;Node30</title>
<g id="a_edge43_Node000027_Node000030"><a xlink:title=" ">
<path fill="none" stroke="#63b8ff" d="M1005.89,-59.27C1001.41,-58.18 996.75,-57.05 992.38,-56 928.3,-40.62 909.59,-37.21 843.39,-20.71"/>
<polygon fill="#63b8ff" stroke="#63b8ff" points="844.36,-17.35 833.81,-18.32 842.66,-24.14 844.36,-17.35"/>
</a>
</g>
</g>
<!-- Node31 -->
<g id="Node000031" class="node">
<title>Node31</title>
<g id="a_Node000031"><a xlink:title=" ">
<polygon fill="#e0e0e0" stroke="#999999" points="915.12,-20 849.62,-20 849.62,0 915.12,0 915.12,-20"/>
<text text-anchor="middle" x="882.38" y="-6.5" font-family="Helvetica,sans-Serif" font-size="10.00">string_view</text>
</a>
</g>
</g>
<!-- Node27&#45;&gt;Node31 -->
<g id="edge45_Node000027_Node000031" class="edge">
<title>Node27&#45;&gt;Node31</title>
<g id="a_edge45_Node000027_Node000031"><a xlink:title=" ">
<path fill="none" stroke="#63b8ff" d="M1005.76,-56.32C982.22,-47.68 945.75,-34.28 918.56,-24.29"/>
<polygon fill="#63b8ff" stroke="#63b8ff" points="919.92,-21.06 909.33,-20.9 917.51,-27.64 919.92,-21.06"/>
</a>
</g>
</g>
<!-- Node32 -->
<g id="Node000032" class="node">
<title>Node32</title>
<g id="a_Node000032"><a xlink:title=" ">
<polygon fill="#e0e0e0" stroke="#999999" points="995.25,-20 933.5,-20 933.5,0 995.25,0 995.25,-20"/>
<text text-anchor="middle" x="964.38" y="-6.5" font-family="Helvetica,sans-Serif" font-size="10.00">type_traits</text>
</a>
</g>
</g>
<!-- Node27&#45;&gt;Node32 -->
<g id="edge46_Node000027_Node000032" class="edge">
<title>Node27&#45;&gt;Node32</title>
<g id="a_edge46_Node000027_Node000032"><a xlink:title=" ">
<path fill="none" stroke="#63b8ff" d="M1018.05,-55.59C1008.73,-47.85 995.3,-36.69 984.2,-27.47"/>
<polygon fill="#63b8ff" stroke="#63b8ff" points="986.66,-24.96 976.73,-21.27 982.19,-30.35 986.66,-24.96"/>
</a>
</g>
</g>
<!-- Node33 -->
<g id="Node000033" class="node">
<title>Node33</title>
<g id="a_Node000033"><a xlink:title=" ">
<polygon fill="#e0e0e0" stroke="#999999" points="1059,-20 1013.75,-20 1013.75,0 1059,0 1059,-20"/>
<text text-anchor="middle" x="1036.38" y="-6.5" font-family="Helvetica,sans-Serif" font-size="10.00">variant</text>
</a>
</g>
</g>
<!-- Node27&#45;&gt;Node33 -->
<g id="edge47_Node000027_Node000033" class="edge">
<title>Node27&#45;&gt;Node33</title>
<g id="a_edge47_Node000027_Node000033"><a xlink:title=" ">
<path fill="none" stroke="#63b8ff" d="M1030.59,-55.59C1031.46,-48.93 1032.65,-39.75 1033.73,-31.44"/>
<polygon fill="#63b8ff" stroke="#63b8ff" points="1037.16,-32.17 1034.98,-21.8 1030.22,-31.27 1037.16,-32.17"/>
</a>
</g>
</g>
<!-- Node35 -->
<g id="Node000035" class="node">
<title>Node35</title>
<g id="a_Node000035"><a xlink:title=" ">
<polygon fill="#e0e0e0" stroke="#999999" points="912,-76 824.75,-76 824.75,-56 912,-56 912,-76"/>
<text text-anchor="middle" x="868.38" y="-62.5" font-family="Helvetica,sans-Serif" font-size="10.00">libavutil/pixfmt.h</text>
</a>
</g>
</g>
<!-- Node34&#45;&gt;Node35 -->
<g id="edge51_Node000034_Node000035" class="edge">
<title>Node34&#45;&gt;Node35</title>
<g id="a_edge51_Node000034_Node000035"><a xlink:title=" ">
<path fill="none" stroke="#63b8ff" d="M933.34,-117.62C921.59,-108.47 903.46,-94.34 889.33,-83.33"/>
<polygon fill="#63b8ff" stroke="#63b8ff" points="891.55,-80.63 881.52,-77.24 887.25,-86.15 891.55,-80.63"/>
</a>
</g>
</g>
<!-- Node37&#45;&gt;Node22 -->
<g id="edge62_Node000037_Node000022" class="edge">
<title>Node37&#45;&gt;Node22</title>
<g id="a_edge62_Node000037_Node000022"><a xlink:title=" ">
<path fill="none" stroke="#63b8ff" d="M1181.38,-179.62C1181.38,-171.56 1181.38,-159.65 1181.38,-149.41"/>
<polygon fill="#63b8ff" stroke="#63b8ff" points="1184.88,-149.63 1181.38,-139.63 1177.88,-149.63 1184.88,-149.63"/>
</a>
</g>
</g>
<!-- Node37&#45;&gt;Node24 -->
<g id="edge54_Node000037_Node000024" class="edge">
<title>Node37&#45;&gt;Node24</title>
<g id="a_edge54_Node000037_Node000024"><a xlink:title=" ">
<path fill="none" stroke="#63b8ff" d="M1197.58,-179.52C1209.9,-171.52 1226.39,-158.99 1236.38,-144 1247.84,-126.79 1253.74,-103.7 1256.67,-87.3"/>
<polygon fill="#63b8ff" stroke="#63b8ff" points="1260.08,-88.19 1258.15,-77.77 1253.16,-87.12 1260.08,-88.19"/>
</a>
</g>
</g>
<!-- Node38 -->
<g id="Node000038" class="node">
<title>Node38</title>
<g id="a_Node000038"><a xlink:href="crypto_8h.html" target="_top" xlink:title="Declarations for cryptography functions.">
<polygon fill="white" stroke="#666666" points="1420,-138 1368.75,-138 1368.75,-118 1420,-118 1420,-138"/>
<text text-anchor="middle" x="1394.38" y="-124.5" font-family="Helvetica,sans-Serif" font-size="10.00">crypto.h</text>
</a>
</g>
</g>
<!-- Node37&#45;&gt;Node38 -->
<g id="edge55_Node000037_Node000038" class="edge">
<title>Node37&#45;&gt;Node38</title>
<g id="a_edge55_Node000037_Node000038"><a xlink:title=" ">
<path fill="none" stroke="#63b8ff" d="M1201.95,-182.53C1204.77,-181.67 1207.64,-180.8 1210.38,-180 1261.25,-165.06 1320.38,-148.88 1357.59,-138.84"/>
<polygon fill="#63b8ff" stroke="#63b8ff" points="1358.19,-142.3 1366.94,-136.32 1356.38,-135.54 1358.19,-142.3"/>
</a>
</g>
</g>
<!-- Node38&#45;&gt;Node23 -->
<g id="edge56_Node000038_Node000023" class="edge">
<title>Node38&#45;&gt;Node23</title>
<g id="a_edge56_Node000038_Node000023"><a xlink:title=" ">
<path fill="none" stroke="#63b8ff" d="M1382.66,-117.62C1371.14,-108.41 1353.34,-94.17 1339.55,-83.14"/>
<polygon fill="#63b8ff" stroke="#63b8ff" points="1341.94,-80.57 1331.95,-77.06 1337.57,-86.04 1341.94,-80.57"/>
</a>
</g>
</g>
<!-- Node38&#45;&gt;Node27 -->
<g id="edge61_Node000038_Node000027" class="edge">
<title>Node38&#45;&gt;Node27</title>
<g id="a_edge61_Node000038_Node000027"><a xlink:title=" ">
<path fill="none" stroke="#63b8ff" d="M1368.42,-122.73C1304.08,-112.16 1137.21,-84.73 1064.31,-72.74"/>
<polygon fill="#63b8ff" stroke="#63b8ff" points="1064.98,-69.31 1054.54,-71.14 1063.84,-76.21 1064.98,-69.31"/>
</a>
</g>
</g>
<!-- Node39 -->
<g id="Node000039" class="node">
<title>Node39</title>
<g id="a_Node000039"><a xlink:title=" ">
<polygon fill="#e0e0e0" stroke="#999999" points="1626.75,-76 1550,-76 1550,-56 1626.75,-56 1626.75,-76"/>
<text text-anchor="middle" x="1588.38" y="-62.5" font-family="Helvetica,sans-Serif" font-size="10.00">openssl/evp.h</text>
</a>
</g>
</g>
<!-- Node38&#45;&gt;Node39 -->
<g id="edge57_Node000038_Node000039" class="edge">
<title>Node38&#45;&gt;Node39</title>
<g id="a_edge57_Node000038_Node000039"><a xlink:title=" ">
<path fill="none" stroke="#63b8ff" d="M1420.14,-119.03C1452.5,-109.02 1508.45,-91.72 1546.88,-79.83"/>
<polygon fill="#63b8ff" stroke="#63b8ff" points="1547.74,-83.23 1556.26,-76.93 1545.67,-76.54 1547.74,-83.23"/>
</a>
</g>
</g>
<!-- Node40 -->
<g id="Node000040" class="node">
<title>Node40</title>
<g id="a_Node000040"><a xlink:title=" ">
<polygon fill="#e0e0e0" stroke="#999999" points="1724.25,-76 1644.5,-76 1644.5,-56 1724.25,-56 1724.25,-76"/>
<text text-anchor="middle" x="1684.38" y="-62.5" font-family="Helvetica,sans-Serif" font-size="10.00">openssl/rand.h</text>
</a>
</g>
</g>
<!-- Node38&#45;&gt;Node40 -->
<g id="edge58_Node000038_Node000040" class="edge">
<title>Node38&#45;&gt;Node40</title>
<g id="a_edge58_Node000038_Node000040"><a xlink:title=" ">
<path fill="none" stroke="#63b8ff" d="M1420.37,-121.62C1468.14,-111.74 1570.7,-90.52 1632.99,-77.63"/>
<polygon fill="#63b8ff" stroke="#63b8ff" points="1633.57,-81.09 1642.65,-75.63 1632.15,-74.23 1633.57,-81.09"/>
</a>
</g>
</g>
<!-- Node41 -->
<g id="Node000041" class="node">
<title>Node41</title>
<g id="a_Node000041"><a xlink:title=" ">
<polygon fill="#e0e0e0" stroke="#999999" points="1432.75,-76 1356,-76 1356,-56 1432.75,-56 1432.75,-76"/>
<text text-anchor="middle" x="1394.38" y="-62.5" font-family="Helvetica,sans-Serif" font-size="10.00">openssl/sha.h</text>
</a>
</g>
</g>
<!-- Node38&#45;&gt;Node41 -->
<g id="edge59_Node000038_Node000041" class="edge">
<title>Node38&#45;&gt;Node41</title>
<g id="a_edge59_Node000038_Node000041"><a xlink:title=" ">
<path fill="none" stroke="#63b8ff" d="M1394.38,-117.62C1394.38,-109.56 1394.38,-97.65 1394.38,-87.41"/>
<polygon fill="#63b8ff" stroke="#63b8ff" points="1397.88,-87.63 1394.38,-77.63 1390.88,-87.63 1397.88,-87.63"/>
</a>
</g>
</g>
<!-- Node42 -->
<g id="Node000042" class="node">
<title>Node42</title>
<g id="a_Node000042"><a xlink:title=" ">
<polygon fill="#e0e0e0" stroke="#999999" points="1532.38,-76 1450.38,-76 1450.38,-56 1532.38,-56 1532.38,-76"/>
<text text-anchor="middle" x="1491.38" y="-62.5" font-family="Helvetica,sans-Serif" font-size="10.00">openssl/x509.h</text>
</a>
</g>
</g>
<!-- Node38&#45;&gt;Node42 -->
<g id="edge60_Node000038_Node000042" class="edge">
<title>Node38&#45;&gt;Node42</title>
<g id="a_edge60_Node000038_Node000042"><a xlink:title=" ">
<path fill="none" stroke="#63b8ff" d="M1409.53,-117.62C1424.84,-108.16 1448.73,-93.38 1466.75,-82.23"/>
<polygon fill="#63b8ff" stroke="#63b8ff" points="1468.37,-85.34 1475.04,-77.11 1464.69,-79.39 1468.37,-85.34"/>
</a>
</g>
</g>
</g>
</svg>
