<?xml version="1.0" encoding="UTF-8" standalone="no"?>
<!DOCTYPE svg PUBLIC "-//W3C//DTD SVG 1.1//EN"
 "http://www.w3.org/Graphics/SVG/1.1/DTD/svg11.dtd">
<!-- Generated by graphviz version 12.2.1 (0)
 -->
<!-- Title: src/round_robin.h Pages: 1 -->
<svg width="208pt" height="96pt"
 viewBox="0.00 0.00 208.00 96.00" xmlns="http://www.w3.org/2000/svg" xmlns:xlink="http://www.w3.org/1999/xlink">
<g id="graph0" class="graph" transform="scale(1 1) rotate(0) translate(4 92)">
<title>src/round_robin.h</title>
<!-- Node1 -->
<g id="Node000001" class="node">
<title>Node1</title>
<g id="a_Node000001"><a xlink:title="Declarations for a round&#45;robin iterator.">
<polygon fill="#999999" stroke="#666666" points="145,-88 54,-88 54,-68 145,-68 145,-88"/>
<text text-anchor="middle" x="99.5" y="-74.5" font-family="Helvetica,sans-Serif" font-size="10.00">src/round_robin.h</text>
</a>
</g>
</g>
<!-- Node2 -->
<g id="Node000002" class="node">
<title>Node2</title>
<g id="a_Node000002"><a xlink:href="kmsgrab_8cpp.html" target="_top" xlink:title="Definitions for KMS screen capture.">
<polygon fill="white" stroke="#666666" points="91,-32 0,-32 0,0 91,0 91,-32"/>
<text text-anchor="start" x="8" y="-18.5" font-family="Helvetica,sans-Serif" font-size="10.00">src/platform/linux</text>
<text text-anchor="middle" x="45.5" y="-6.5" font-family="Helvetica,sans-Serif" font-size="10.00">/kmsgrab.cpp</text>
</a>
</g>
</g>
<!-- Node1&#45;&gt;Node2 -->
<g id="edge1_Node000001_Node000002" class="edge">
<title>Node1&#45;&gt;Node2</title>
<g id="a_edge1_Node000001_Node000002"><a xlink:title=" ">
<path fill="none" stroke="#63b8ff" d="M83.39,-59.1C75.66,-50.51 66.5,-40.34 59.13,-32.14"/>
<polygon fill="#63b8ff" stroke="#63b8ff" points="80.76,-61.41 90.05,-66.5 85.96,-56.73 80.76,-61.41"/>
</a>
</g>
</g>
<!-- Node3 -->
<g id="Node000003" class="node">
<title>Node3</title>
<g id="a_Node000003"><a xlink:href="wayland_8cpp.html" target="_top" xlink:title="Definitions for Wayland capture.">
<polygon fill="white" stroke="#666666" points="200,-32 109,-32 109,0 200,0 200,-32"/>
<text text-anchor="start" x="117" y="-18.5" font-family="Helvetica,sans-Serif" font-size="10.00">src/platform/linux</text>
<text text-anchor="middle" x="154.5" y="-6.5" font-family="Helvetica,sans-Serif" font-size="10.00">/wayland.cpp</text>
</a>
</g>
</g>
<!-- Node1&#45;&gt;Node3 -->
<g id="edge2_Node000001_Node000003" class="edge">
<title>Node1&#45;&gt;Node3</title>
<g id="a_edge2_Node000001_Node000003"><a xlink:title=" ">
<path fill="none" stroke="#63b8ff" d="M115.66,-59.37C123.58,-50.73 133.03,-40.42 140.62,-32.14"/>
<polygon fill="#63b8ff" stroke="#63b8ff" points="113.29,-56.77 109.12,-66.51 118.45,-61.5 113.29,-56.77"/>
</a>
</g>
</g>
</g>
</svg>
