<?xml version="1.0" encoding="UTF-8" standalone="no"?>
<!DOCTYPE svg PUBLIC "-//W3C//DTD SVG 1.1//EN"
 "http://www.w3.org/Graphics/SVG/1.1/DTD/svg11.dtd">
<!-- Generated by graphviz version 12.2.1 (0)
 -->
<!-- Title: src/rswrapper.c Pages: 1 -->
<svg width="339pt" height="152pt"
 viewBox="0.00 0.00 338.88 152.00" xmlns="http://www.w3.org/2000/svg" xmlns:xlink="http://www.w3.org/1999/xlink">

<svg id="main" version="1.1" xmlns="http://www.w3.org/2000/svg" xmlns:xlink="http://www.w3.org/1999/xlink" xml:space="preserve">

<style type="text/css"><![CDATA[
.node, .edge {opacity: 0.7;}
.node.selected, .edge.selected {opacity: 1;}
.edge:hover path { stroke: red; }
.edge:hover polygon { stroke: red; fill: red; }
]]></style>
<script type="application/ecmascript" xlink:href="svg.min.js"/>
<svg id="graph" class="graph">
<g id="graph0" class="graph" transform="scale(1 1) rotate(0) translate(4 148)">
<title>src/rswrapper.c</title>
<!-- Node1 -->
<g id="Node000001" class="node">
<title>Node1</title>
<g id="a_Node000001"><a xlink:title="Wrappers for nanors vectorization with different ISA options.">
<polygon fill="#999999" stroke="#666666" points="227.12,-144 143.62,-144 143.62,-124 227.12,-124 227.12,-144"/>
<text text-anchor="middle" x="185.38" y="-130.5" font-family="Helvetica,sans-Serif" font-size="10.00">src/rswrapper.c</text>
</a>
</g>
</g>
<!-- Node2 -->
<g id="Node000002" class="node">
<title>Node2</title>
<g id="a_Node000002"><a xlink:title=" ">
<polygon fill="#e0e0e0" stroke="#999999" points="106.75,-88 0,-88 0,-56 106.75,-56 106.75,-88"/>
<text text-anchor="start" x="8" y="-74.5" font-family="Helvetica,sans-Serif" font-size="10.00">../third&#45;party/nanors</text>
<text text-anchor="middle" x="53.38" y="-62.5" font-family="Helvetica,sans-Serif" font-size="10.00">/deps/obl/autoshim.h</text>
</a>
</g>
</g>
<!-- Node1&#45;&gt;Node2 -->
<g id="edge1_Node000001_Node000002" class="edge">
<title>Node1&#45;&gt;Node2</title>
<g id="a_edge1_Node000001_Node000002"><a xlink:title=" ">
<path fill="none" stroke="#63b8ff" d="M164.75,-123.62C146.91,-115.52 120.5,-103.51 97.87,-93.23"/>
<polygon fill="#63b8ff" stroke="#63b8ff" points="99.38,-90.07 88.83,-89.12 96.49,-96.44 99.38,-90.07"/>
</a>
</g>
</g>
<!-- Node3 -->
<g id="Node000003" class="node">
<title>Node3</title>
<g id="a_Node000003"><a xlink:title=" ">
<polygon fill="#e0e0e0" stroke="#999999" points="245.5,-82 125.25,-82 125.25,-62 245.5,-62 245.5,-82"/>
<text text-anchor="middle" x="185.38" y="-68.5" font-family="Helvetica,sans-Serif" font-size="10.00">../third&#45;party/nanors/rs.c</text>
</a>
</g>
</g>
<!-- Node1&#45;&gt;Node3 -->
<g id="edge2_Node000001_Node000003" class="edge">
<title>Node1&#45;&gt;Node3</title>
<g id="a_edge2_Node000001_Node000003"><a xlink:title=" ">
<path fill="none" stroke="#63b8ff" d="M185.38,-123.62C185.38,-115.56 185.38,-103.65 185.38,-93.41"/>
<polygon fill="#63b8ff" stroke="#63b8ff" points="188.88,-93.63 185.38,-83.63 181.88,-93.63 188.88,-93.63"/>
</a>
</g>
</g>
<!-- Node4 -->
<g id="Node000004" class="node">
<title>Node4</title>
<g id="a_Node000004"><a xlink:href="rswrapper_8h.html" target="_top" xlink:title="Wrappers for nanors vectorization.">
<polygon fill="white" stroke="#666666" points="330.88,-82 263.88,-82 263.88,-62 330.88,-62 330.88,-82"/>
<text text-anchor="middle" x="297.38" y="-68.5" font-family="Helvetica,sans-Serif" font-size="10.00">rswrapper.h</text>
</a>
</g>
</g>
<!-- Node1&#45;&gt;Node4 -->
<g id="edge3_Node000001_Node000004" class="edge">
<title>Node1&#45;&gt;Node4</title>
<g id="a_edge3_Node000001_Node000004"><a xlink:title=" ">
<path fill="none" stroke="#63b8ff" d="M202.88,-123.62C220.87,-113.98 249.16,-98.83 270.1,-87.61"/>
<polygon fill="#63b8ff" stroke="#63b8ff" points="271.5,-90.83 278.66,-83.02 268.2,-84.66 271.5,-90.83"/>
</a>
</g>
</g>
<!-- Node5 -->
<g id="Node000005" class="node">
<title>Node5</title>
<g id="a_Node000005"><a xlink:title=" ">
<polygon fill="#e0e0e0" stroke="#999999" points="321.5,-20 273.25,-20 273.25,0 321.5,0 321.5,-20"/>
<text text-anchor="middle" x="297.38" y="-6.5" font-family="Helvetica,sans-Serif" font-size="10.00">stdint.h</text>
</a>
</g>
</g>
<!-- Node4&#45;&gt;Node5 -->
<g id="edge4_Node000004_Node000005" class="edge">
<title>Node4&#45;&gt;Node5</title>
<g id="a_edge4_Node000004_Node000005"><a xlink:title=" ">
<path fill="none" stroke="#63b8ff" d="M297.38,-61.62C297.38,-53.56 297.38,-41.65 297.38,-31.41"/>
<polygon fill="#63b8ff" stroke="#63b8ff" points="300.88,-31.63 297.38,-21.63 293.88,-31.63 300.88,-31.63"/>
</a>
</g>
</g>
</g>
</svg>
</svg>

<style type='text/css'>
<![CDATA[
[data-mouse-over-selected='false'] { opacity: 0.7; }
[data-mouse-over-selected='true']  { opacity: 1.0; }
]]>
</style>
<script type="application/ecmascript"><![CDATA[
document.addEventListener('DOMContentLoaded', (event) => {
  highlightEdges();
  highlightAdjacentNodes();
});
]]></script>
</svg>
