<?xml version="1.0" encoding="UTF-8" standalone="no"?>
<!DOCTYPE svg PUBLIC "-//W3C//DTD SVG 1.1//EN"
 "http://www.w3.org/Graphics/SVG/1.1/DTD/svg11.dtd">
<!-- Generated by graphviz version 12.2.1 (0)
 -->
<!-- Title: src/rtsp.h Pages: 1 -->
<svg width="826pt" height="140pt"
 viewBox="0.00 0.00 825.75 140.00" xmlns="http://www.w3.org/2000/svg" xmlns:xlink="http://www.w3.org/1999/xlink">
<g id="graph0" class="graph" transform="scale(1 1) rotate(0) translate(4 136)">
<title>src/rtsp.h</title>
<!-- Node1 -->
<g id="Node000001" class="node">
<title>Node1</title>
<g id="a_Node000001"><a xlink:title="Declarations for RTSP streaming.">
<polygon fill="#999999" stroke="#666666" points="306.38,-132 249.12,-132 249.12,-112 306.38,-112 306.38,-132"/>
<text text-anchor="middle" x="277.75" y="-118.5" font-family="Helvetica,sans-Serif" font-size="10.00">src/rtsp.h</text>
</a>
</g>
</g>
<!-- Node2 -->
<g id="Node000002" class="node">
<title>Node2</title>
<g id="a_Node000002"><a xlink:href="config_8cpp.html" target="_top" xlink:title="Definitions for the configuration of Sunshine.">
<polygon fill="white" stroke="#666666" points="77.5,-76 0,-76 0,-56 77.5,-56 77.5,-76"/>
<text text-anchor="middle" x="38.75" y="-62.5" font-family="Helvetica,sans-Serif" font-size="10.00">src/config.cpp</text>
</a>
</g>
</g>
<!-- Node1&#45;&gt;Node2 -->
<g id="edge1_Node000001_Node000002" class="edge">
<title>Node1&#45;&gt;Node2</title>
<g id="a_edge1_Node000001_Node000002"><a xlink:title=" ">
<path fill="none" stroke="#63b8ff" d="M237.69,-111.95C193.27,-101.91 122.08,-85.83 77.99,-75.87"/>
<polygon fill="#63b8ff" stroke="#63b8ff" points="236.92,-115.36 247.44,-114.15 238.46,-108.53 236.92,-115.36"/>
</a>
</g>
</g>
<!-- Node3 -->
<g id="Node000003" class="node">
<title>Node3</title>
<g id="a_Node000003"><a xlink:href="display__device_8cpp.html" target="_top" xlink:title="Definitions for display device handling.">
<polygon fill="white" stroke="#666666" points="211.62,-76 95.88,-76 95.88,-56 211.62,-56 211.62,-76"/>
<text text-anchor="middle" x="153.75" y="-62.5" font-family="Helvetica,sans-Serif" font-size="10.00">src/display_device.cpp</text>
</a>
</g>
</g>
<!-- Node1&#45;&gt;Node3 -->
<g id="edge2_Node000001_Node000003" class="edge">
<title>Node1&#45;&gt;Node3</title>
<g id="a_edge2_Node000001_Node000003"><a xlink:title=" ">
<path fill="none" stroke="#63b8ff" d="M245.62,-107.01C223.58,-97.41 194.92,-84.93 175.52,-76.48"/>
<polygon fill="#63b8ff" stroke="#63b8ff" points="244.2,-110.21 254.76,-110.99 246.99,-103.79 244.2,-110.21"/>
</a>
</g>
</g>
<!-- Node4 -->
<g id="Node000004" class="node">
<title>Node4</title>
<g id="a_Node000004"><a xlink:href="httpcommon_8cpp.html" target="_top" xlink:title="Definitions for common HTTP.">
<polygon fill="white" stroke="#666666" points="193.38,-20 88.12,-20 88.12,0 193.38,0 193.38,-20"/>
<text text-anchor="middle" x="140.75" y="-6.5" font-family="Helvetica,sans-Serif" font-size="10.00">src/httpcommon.cpp</text>
</a>
</g>
</g>
<!-- Node1&#45;&gt;Node4 -->
<g id="edge3_Node000001_Node000004" class="edge">
<title>Node1&#45;&gt;Node4</title>
<g id="a_edge3_Node000001_Node000004"><a xlink:title=" ">
<path fill="none" stroke="#63b8ff" d="M264.39,-102.63C253.66,-88.7 237.63,-69.7 220.75,-56 202.56,-41.24 178.88,-28.59 162.02,-20.5"/>
<polygon fill="#63b8ff" stroke="#63b8ff" points="261.5,-104.6 270.3,-110.5 267.1,-100.4 261.5,-104.6"/>
</a>
</g>
</g>
<!-- Node5 -->
<g id="Node000005" class="node">
<title>Node5</title>
<g id="a_Node000005"><a xlink:href="nvhttp_8cpp.html" target="_top" xlink:title="Definitions for the nvhttp (GameStream) server.">
<polygon fill="white" stroke="#666666" points="289.88,-20 211.62,-20 211.62,0 289.88,0 289.88,-20"/>
<text text-anchor="middle" x="250.75" y="-6.5" font-family="Helvetica,sans-Serif" font-size="10.00">src/nvhttp.cpp</text>
</a>
</g>
</g>
<!-- Node1&#45;&gt;Node5 -->
<g id="edge4_Node000001_Node000005" class="edge">
<title>Node1&#45;&gt;Node5</title>
<g id="a_edge4_Node000001_Node000005"><a xlink:title=" ">
<path fill="none" stroke="#63b8ff" d="M272.75,-100.64C266.88,-76.72 257.39,-38.03 253.05,-20.35"/>
<polygon fill="#63b8ff" stroke="#63b8ff" points="269.3,-101.27 275.09,-110.15 276.1,-99.61 269.3,-101.27"/>
</a>
</g>
</g>
<!-- Node6 -->
<g id="Node000006" class="node">
<title>Node6</title>
<g id="a_Node000006"><a xlink:href="process_8h.html" target="_top" xlink:title="Declarations for the startup and shutdown of the apps started by a streaming Session.">
<polygon fill="white" stroke="#666666" points="381.38,-76 306.12,-76 306.12,-56 381.38,-56 381.38,-76"/>
<text text-anchor="middle" x="343.75" y="-62.5" font-family="Helvetica,sans-Serif" font-size="10.00">src/process.h</text>
</a>
</g>
</g>
<!-- Node1&#45;&gt;Node6 -->
<g id="edge5_Node000001_Node000006" class="edge">
<title>Node1&#45;&gt;Node6</title>
<g id="a_edge5_Node000001_Node000006"><a xlink:title=" ">
<path fill="none" stroke="#63b8ff" d="M298.04,-104.4C309.33,-95.17 322.96,-84.01 332.39,-76.3"/>
<polygon fill="#63b8ff" stroke="#63b8ff" points="295.94,-101.59 290.42,-110.64 300.37,-107.01 295.94,-101.59"/>
</a>
</g>
</g>
<!-- Node12 -->
<g id="Node000012" class="node">
<title>Node12</title>
<g id="a_Node000012"><a xlink:href="rtsp_8cpp.html" target="_top" xlink:title="Definitions for RTSP streaming.">
<polygon fill="white" stroke="#666666" points="467.62,-76 399.88,-76 399.88,-56 467.62,-56 467.62,-76"/>
<text text-anchor="middle" x="433.75" y="-62.5" font-family="Helvetica,sans-Serif" font-size="10.00">src/rtsp.cpp</text>
</a>
</g>
</g>
<!-- Node1&#45;&gt;Node12 -->
<g id="edge13_Node000001_Node000012" class="edge">
<title>Node1&#45;&gt;Node12</title>
<g id="a_edge13_Node000001_Node000012"><a xlink:title=" ">
<path fill="none" stroke="#63b8ff" d="M315.54,-107.92C343.58,-98.21 381.17,-85.2 406.36,-76.48"/>
<polygon fill="#63b8ff" stroke="#63b8ff" points="314.66,-104.52 306.35,-111.1 316.95,-111.14 314.66,-104.52"/>
</a>
</g>
</g>
<!-- Node13 -->
<g id="Node000013" class="node">
<title>Node13</title>
<g id="a_Node000013"><a xlink:href="upnp_8cpp.html" target="_top" xlink:title="Definitions for UPnP port mapping.">
<polygon fill="white" stroke="#666666" points="557.88,-76 485.62,-76 485.62,-56 557.88,-56 557.88,-76"/>
<text text-anchor="middle" x="521.75" y="-62.5" font-family="Helvetica,sans-Serif" font-size="10.00">src/upnp.cpp</text>
</a>
</g>
</g>
<!-- Node1&#45;&gt;Node13 -->
<g id="edge14_Node000001_Node000013" class="edge">
<title>Node1&#45;&gt;Node13</title>
<g id="a_edge14_Node000001_Node000013"><a xlink:title=" ">
<path fill="none" stroke="#63b8ff" d="M317.85,-112.12C364.37,-101.83 440.4,-85 485.31,-75.07"/>
<polygon fill="#63b8ff" stroke="#63b8ff" points="317.18,-108.69 308.18,-114.27 318.7,-115.52 317.18,-108.69"/>
</a>
</g>
</g>
<!-- Node6&#45;&gt;Node4 -->
<g id="edge7_Node000006_Node000004" class="edge">
<title>Node6&#45;&gt;Node4</title>
<g id="a_edge7_Node000006_Node000004"><a xlink:title=" ">
<path fill="none" stroke="#63b8ff" d="M297.46,-52.69C260.7,-42.91 210.04,-29.43 176.39,-20.48"/>
<polygon fill="#63b8ff" stroke="#63b8ff" points="296.36,-56.02 306.93,-55.2 298.16,-49.25 296.36,-56.02"/>
</a>
</g>
</g>
<!-- Node6&#45;&gt;Node5 -->
<g id="edge9_Node000006_Node000005" class="edge">
<title>Node6&#45;&gt;Node5</title>
<g id="a_edge9_Node000006_Node000005"><a xlink:title=" ">
<path fill="none" stroke="#63b8ff" d="M318.05,-50.08C301.76,-40.62 281.16,-28.66 267.08,-20.48"/>
<polygon fill="#63b8ff" stroke="#63b8ff" points="315.84,-52.84 326.24,-54.83 319.35,-46.79 315.84,-52.84"/>
</a>
</g>
</g>
<!-- Node7 -->
<g id="Node000007" class="node">
<title>Node7</title>
<g id="a_Node000007"><a xlink:href="confighttp_8cpp.html" target="_top" xlink:title="Definitions for the Web UI Config HTTP server.">
<polygon fill="white" stroke="#666666" points="817.75,-20 723.75,-20 723.75,0 817.75,0 817.75,-20"/>
<text text-anchor="middle" x="770.75" y="-6.5" font-family="Helvetica,sans-Serif" font-size="10.00">src/confighttp.cpp</text>
</a>
</g>
</g>
<!-- Node6&#45;&gt;Node7 -->
<g id="edge6_Node000006_Node000007" class="edge">
<title>Node6&#45;&gt;Node7</title>
<g id="a_edge6_Node000006_Node000007"><a xlink:title=" ">
<path fill="none" stroke="#63b8ff" d="M393.06,-55.77C535.97,-34.6 574.83,-39.01 714.75,-20 717.58,-19.62 720.49,-19.2 723.42,-18.77"/>
<polygon fill="#63b8ff" stroke="#63b8ff" points="392.54,-52.31 383.17,-57.25 393.58,-59.23 392.54,-52.31"/>
</a>
</g>
</g>
<!-- Node8 -->
<g id="Node000008" class="node">
<title>Node8</title>
<g id="a_Node000008"><a xlink:href="main_8cpp.html" target="_top" xlink:title="Definitions for the main entry point for Sunshine.">
<polygon fill="white" stroke="#666666" points="379.88,-20 307.62,-20 307.62,0 379.88,0 379.88,-20"/>
<text text-anchor="middle" x="343.75" y="-6.5" font-family="Helvetica,sans-Serif" font-size="10.00">src/main.cpp</text>
</a>
</g>
</g>
<!-- Node6&#45;&gt;Node8 -->
<g id="edge8_Node000006_Node000008" class="edge">
<title>Node6&#45;&gt;Node8</title>
<g id="a_edge8_Node000006_Node000008"><a xlink:title=" ">
<path fill="none" stroke="#63b8ff" d="M343.75,-44.13C343.75,-35.9 343.75,-26.85 343.75,-20.3"/>
<polygon fill="#63b8ff" stroke="#63b8ff" points="340.25,-44.08 343.75,-54.08 347.25,-44.08 340.25,-44.08"/>
</a>
</g>
</g>
<!-- Node9 -->
<g id="Node000009" class="node">
<title>Node9</title>
<g id="a_Node000009"><a xlink:href="process_8cpp.html" target="_top" xlink:title="Definitions for the startup and shutdown of the apps started by a streaming Session.">
<polygon fill="white" stroke="#666666" points="483.62,-20 397.88,-20 397.88,0 483.62,0 483.62,-20"/>
<text text-anchor="middle" x="440.75" y="-6.5" font-family="Helvetica,sans-Serif" font-size="10.00">src/process.cpp</text>
</a>
</g>
</g>
<!-- Node6&#45;&gt;Node9 -->
<g id="edge10_Node000006_Node000009" class="edge">
<title>Node6&#45;&gt;Node9</title>
<g id="a_edge10_Node000006_Node000009"><a xlink:title=" ">
<path fill="none" stroke="#63b8ff" d="M370.55,-50.08C387.55,-40.62 409.03,-28.66 423.72,-20.48"/>
<polygon fill="#63b8ff" stroke="#63b8ff" points="369,-46.94 361.97,-54.86 372.41,-53.05 369,-46.94"/>
</a>
</g>
</g>
<!-- Node10 -->
<g id="Node000010" class="node">
<title>Node10</title>
<g id="a_Node000010"><a xlink:href="stream_8cpp.html" target="_top" xlink:title="Definitions for the streaming protocols.">
<polygon fill="white" stroke="#666666" points="583.38,-20 502.12,-20 502.12,0 583.38,0 583.38,-20"/>
<text text-anchor="middle" x="542.75" y="-6.5" font-family="Helvetica,sans-Serif" font-size="10.00">src/stream.cpp</text>
</a>
</g>
</g>
<!-- Node6&#45;&gt;Node10 -->
<g id="edge11_Node000006_Node000010" class="edge">
<title>Node6&#45;&gt;Node10</title>
<g id="a_edge11_Node000006_Node000010"><a xlink:title=" ">
<path fill="none" stroke="#63b8ff" d="M389.13,-52.69C425.17,-42.91 474.83,-29.43 507.82,-20.48"/>
<polygon fill="#63b8ff" stroke="#63b8ff" points="388.61,-49.2 379.87,-55.2 390.44,-55.96 388.61,-49.2"/>
</a>
</g>
</g>
<!-- Node11 -->
<g id="Node000011" class="node">
<title>Node11</title>
<g id="a_Node000011"><a xlink:href="system__tray_8cpp.html" target="_top" xlink:title="Definitions for the system tray icon and notification system.">
<polygon fill="white" stroke="#666666" points="706,-20 601.5,-20 601.5,0 706,0 706,-20"/>
<text text-anchor="middle" x="653.75" y="-6.5" font-family="Helvetica,sans-Serif" font-size="10.00">src/system_tray.cpp</text>
</a>
</g>
</g>
<!-- Node6&#45;&gt;Node11 -->
<g id="edge12_Node000006_Node000011" class="edge">
<title>Node6&#45;&gt;Node11</title>
<g id="a_edge12_Node000006_Node000011"><a xlink:title=" ">
<path fill="none" stroke="#63b8ff" d="M392.75,-55.67C471.08,-41.53 550.3,-28.15 601.05,-19.7"/>
<polygon fill="#63b8ff" stroke="#63b8ff" points="392.41,-52.17 383.19,-57.4 393.66,-59.06 392.41,-52.17"/>
</a>
</g>
</g>
</g>
</svg>
