<?xml version="1.0" encoding="UTF-8" standalone="no"?>
<!DOCTYPE svg PUBLIC "-//W3C//DTD SVG 1.1//EN"
 "http://www.w3.org/Graphics/SVG/1.1/DTD/svg11.dtd">
<!-- Generated by graphviz version 12.2.1 (0)
 -->
<!-- Title: src/rtsp.h Pages: 1 -->
<svg width="834pt" height="196pt"
 viewBox="0.00 0.00 833.88 196.00" xmlns="http://www.w3.org/2000/svg" xmlns:xlink="http://www.w3.org/1999/xlink">
<g id="graph0" class="graph" transform="scale(1 1) rotate(0) translate(4 192)">
<title>src/rtsp.h</title>
<!-- Node1 -->
<g id="Node000001" class="node">
<title>Node1</title>
<g id="a_Node000001"><a xlink:title="Declarations for RTSP streaming.">
<polygon fill="#999999" stroke="#666666" points="549.5,-188 492.25,-188 492.25,-168 549.5,-168 549.5,-188"/>
<text text-anchor="middle" x="520.88" y="-174.5" font-family="Helvetica,sans-Serif" font-size="10.00">src/rtsp.h</text>
</a>
</g>
</g>
<!-- Node2 -->
<g id="Node000002" class="node">
<title>Node2</title>
<g id="a_Node000002"><a xlink:title=" ">
<polygon fill="#e0e0e0" stroke="#999999" points="551.5,-76 506.25,-76 506.25,-56 551.5,-56 551.5,-76"/>
<text text-anchor="middle" x="528.88" y="-62.5" font-family="Helvetica,sans-Serif" font-size="10.00">atomic</text>
</a>
</g>
</g>
<!-- Node1&#45;&gt;Node2 -->
<g id="edge1_Node000001_Node000002" class="edge">
<title>Node1&#45;&gt;Node2</title>
<g id="a_edge1_Node000001_Node000002"><a xlink:title=" ">
<path fill="none" stroke="#63b8ff" d="M521.56,-167.62C522.84,-150.01 525.63,-111.59 527.37,-87.65"/>
<polygon fill="#63b8ff" stroke="#63b8ff" points="530.85,-88.09 528.08,-77.86 523.87,-87.58 530.85,-88.09"/>
</a>
</g>
</g>
<!-- Node3 -->
<g id="Node000003" class="node">
<title>Node3</title>
<g id="a_Node000003"><a xlink:href="crypto_8h.html" target="_top" xlink:title="Declarations for cryptography functions.">
<polygon fill="white" stroke="#666666" points="355.5,-132 304.25,-132 304.25,-112 355.5,-112 355.5,-132"/>
<text text-anchor="middle" x="329.88" y="-118.5" font-family="Helvetica,sans-Serif" font-size="10.00">crypto.h</text>
</a>
</g>
</g>
<!-- Node1&#45;&gt;Node3 -->
<g id="edge2_Node000001_Node000003" class="edge">
<title>Node1&#45;&gt;Node3</title>
<g id="a_edge2_Node000001_Node000003"><a xlink:title=" ">
<path fill="none" stroke="#63b8ff" d="M491.87,-168.8C458.29,-159.31 402.95,-143.66 366.46,-133.34"/>
<polygon fill="#63b8ff" stroke="#63b8ff" points="367.81,-130.09 357.23,-130.74 365.91,-136.82 367.81,-130.09"/>
</a>
</g>
</g>
<!-- Node21 -->
<g id="Node000021" class="node">
<title>Node21</title>
<g id="a_Node000021"><a xlink:href="thread__safe_8h.html" target="_top" xlink:title="Declarations for thread&#45;safe data structures.">
<polygon fill="white" stroke="#666666" points="624.5,-132 549.25,-132 549.25,-112 624.5,-112 624.5,-132"/>
<text text-anchor="middle" x="586.88" y="-118.5" font-family="Helvetica,sans-Serif" font-size="10.00">thread_safe.h</text>
</a>
</g>
</g>
<!-- Node1&#45;&gt;Node21 -->
<g id="edge20_Node000001_Node000021" class="edge">
<title>Node1&#45;&gt;Node21</title>
<g id="a_edge20_Node000001_Node000021"><a xlink:title=" ">
<path fill="none" stroke="#63b8ff" d="M532.37,-167.59C541.84,-159.85 555.48,-148.69 566.75,-139.47"/>
<polygon fill="#63b8ff" stroke="#63b8ff" points="568.82,-142.3 574.34,-133.26 564.38,-136.88 568.82,-142.3"/>
</a>
</g>
</g>
<!-- Node4 -->
<g id="Node000004" class="node">
<title>Node4</title>
<g id="a_Node000004"><a xlink:title=" ">
<polygon fill="#e0e0e0" stroke="#999999" points="423.75,-76 386,-76 386,-56 423.75,-56 423.75,-76"/>
<text text-anchor="middle" x="404.88" y="-62.5" font-family="Helvetica,sans-Serif" font-size="10.00">array</text>
</a>
</g>
</g>
<!-- Node3&#45;&gt;Node4 -->
<g id="edge3_Node000003_Node000004" class="edge">
<title>Node3&#45;&gt;Node4</title>
<g id="a_edge3_Node000003_Node000004"><a xlink:title=" ">
<path fill="none" stroke="#63b8ff" d="M342.94,-111.59C353.84,-103.74 369.63,-92.38 382.53,-83.09"/>
<polygon fill="#63b8ff" stroke="#63b8ff" points="384.41,-86.05 390.48,-77.36 380.32,-80.37 384.41,-86.05"/>
</a>
</g>
</g>
<!-- Node5 -->
<g id="Node000005" class="node">
<title>Node5</title>
<g id="a_Node000005"><a xlink:title=" ">
<polygon fill="#e0e0e0" stroke="#999999" points="368.25,-76 291.5,-76 291.5,-56 368.25,-56 368.25,-76"/>
<text text-anchor="middle" x="329.88" y="-62.5" font-family="Helvetica,sans-Serif" font-size="10.00">openssl/evp.h</text>
</a>
</g>
</g>
<!-- Node3&#45;&gt;Node5 -->
<g id="edge4_Node000003_Node000005" class="edge">
<title>Node3&#45;&gt;Node5</title>
<g id="a_edge4_Node000003_Node000005"><a xlink:title=" ">
<path fill="none" stroke="#63b8ff" d="M329.88,-111.59C329.88,-105.01 329.88,-95.96 329.88,-87.73"/>
<polygon fill="#63b8ff" stroke="#63b8ff" points="333.38,-87.81 329.88,-77.81 326.38,-87.81 333.38,-87.81"/>
</a>
</g>
</g>
<!-- Node6 -->
<g id="Node000006" class="node">
<title>Node6</title>
<g id="a_Node000006"><a xlink:title=" ">
<polygon fill="#e0e0e0" stroke="#999999" points="79.75,-76 0,-76 0,-56 79.75,-56 79.75,-76"/>
<text text-anchor="middle" x="39.88" y="-62.5" font-family="Helvetica,sans-Serif" font-size="10.00">openssl/rand.h</text>
</a>
</g>
</g>
<!-- Node3&#45;&gt;Node6 -->
<g id="edge5_Node000003_Node000006" class="edge">
<title>Node3&#45;&gt;Node6</title>
<g id="a_edge5_Node000003_Node000006"><a xlink:title=" ">
<path fill="none" stroke="#63b8ff" d="M303.88,-116.16C256.11,-107.27 153.55,-88.17 91.26,-76.57"/>
<polygon fill="#63b8ff" stroke="#63b8ff" points="92.08,-73.16 81.61,-74.77 90.8,-80.04 92.08,-73.16"/>
</a>
</g>
</g>
<!-- Node7 -->
<g id="Node000007" class="node">
<title>Node7</title>
<g id="a_Node000007"><a xlink:title=" ">
<polygon fill="#e0e0e0" stroke="#999999" points="174.25,-76 97.5,-76 97.5,-56 174.25,-56 174.25,-76"/>
<text text-anchor="middle" x="135.88" y="-62.5" font-family="Helvetica,sans-Serif" font-size="10.00">openssl/sha.h</text>
</a>
</g>
</g>
<!-- Node3&#45;&gt;Node7 -->
<g id="edge6_Node000003_Node000007" class="edge">
<title>Node3&#45;&gt;Node7</title>
<g id="a_edge6_Node000003_Node000007"><a xlink:title=" ">
<path fill="none" stroke="#63b8ff" d="M304.11,-113.83C272.69,-105.08 219.03,-90.15 180.76,-79.49"/>
<polygon fill="#63b8ff" stroke="#63b8ff" points="181.94,-76.19 171.37,-76.88 180.07,-82.93 181.94,-76.19"/>
</a>
</g>
</g>
<!-- Node8 -->
<g id="Node000008" class="node">
<title>Node8</title>
<g id="a_Node000008"><a xlink:title=" ">
<polygon fill="#e0e0e0" stroke="#999999" points="273.88,-76 191.88,-76 191.88,-56 273.88,-56 273.88,-76"/>
<text text-anchor="middle" x="232.88" y="-62.5" font-family="Helvetica,sans-Serif" font-size="10.00">openssl/x509.h</text>
</a>
</g>
</g>
<!-- Node3&#45;&gt;Node8 -->
<g id="edge7_Node000003_Node000008" class="edge">
<title>Node3&#45;&gt;Node8</title>
<g id="a_edge7_Node000003_Node000008"><a xlink:title=" ">
<path fill="none" stroke="#63b8ff" d="M312.98,-111.59C298.33,-103.44 276.85,-91.48 259.83,-82"/>
<polygon fill="#63b8ff" stroke="#63b8ff" points="261.67,-79.02 251.23,-77.22 258.26,-85.14 261.67,-79.02"/>
</a>
</g>
</g>
<!-- Node9 -->
<g id="Node000009" class="node">
<title>Node9</title>
<g id="a_Node000009"><a xlink:href="utility_8h.html" target="_top" xlink:title="Declarations for utility functions.">
<polygon fill="white" stroke="#666666" points="488.25,-76 441.5,-76 441.5,-56 488.25,-56 488.25,-76"/>
<text text-anchor="middle" x="464.88" y="-62.5" font-family="Helvetica,sans-Serif" font-size="10.00">utility.h</text>
</a>
</g>
</g>
<!-- Node3&#45;&gt;Node9 -->
<g id="edge8_Node000003_Node000009" class="edge">
<title>Node3&#45;&gt;Node9</title>
<g id="a_edge8_Node000003_Node000009"><a xlink:title=" ">
<path fill="none" stroke="#63b8ff" d="M353.39,-111.59C374.75,-103.05 406.51,-90.35 430.67,-80.68"/>
<polygon fill="#63b8ff" stroke="#63b8ff" points="431.79,-84.01 439.77,-77.04 429.19,-77.51 431.79,-84.01"/>
</a>
</g>
</g>
<!-- Node10 -->
<g id="Node000010" class="node">
<title>Node10</title>
<g id="a_Node000010"><a xlink:title=" ">
<polygon fill="#e0e0e0" stroke="#999999" points="152.75,-20 97,-20 97,0 152.75,0 152.75,-20"/>
<text text-anchor="middle" x="124.88" y="-6.5" font-family="Helvetica,sans-Serif" font-size="10.00">algorithm</text>
</a>
</g>
</g>
<!-- Node9&#45;&gt;Node10 -->
<g id="edge9_Node000009_Node000010" class="edge">
<title>Node9&#45;&gt;Node10</title>
<g id="a_edge9_Node000009_Node000010"><a xlink:title=" ">
<path fill="none" stroke="#63b8ff" d="M441.2,-57.94C438.41,-57.22 435.59,-56.56 432.88,-56 317.36,-32.21 283.28,-41.78 164.12,-20.23"/>
<polygon fill="#63b8ff" stroke="#63b8ff" points="165.05,-16.84 154.58,-18.47 163.78,-23.73 165.05,-16.84"/>
</a>
</g>
</g>
<!-- Node11 -->
<g id="Node000011" class="node">
<title>Node11</title>
<g id="a_Node000011"><a xlink:title=" ">
<polygon fill="#e0e0e0" stroke="#999999" points="825.88,-20 731.88,-20 731.88,0 825.88,0 825.88,-20"/>
<text text-anchor="middle" x="778.88" y="-6.5" font-family="Helvetica,sans-Serif" font-size="10.00">condition_variable</text>
</a>
</g>
</g>
<!-- Node9&#45;&gt;Node11 -->
<g id="edge10_Node000009_Node000011" class="edge">
<title>Node9&#45;&gt;Node11</title>
<g id="a_edge10_Node000009_Node000011"><a xlink:title=" ">
<path fill="none" stroke="#63b8ff" d="M488.56,-58.01C491.35,-57.28 494.17,-56.59 496.88,-56 538.33,-46.89 650.48,-29.84 720.21,-19.54"/>
<polygon fill="#63b8ff" stroke="#63b8ff" points="720.57,-23.03 729.95,-18.11 719.54,-16.1 720.57,-23.03"/>
</a>
</g>
</g>
<!-- Node12 -->
<g id="Node000012" class="node">
<title>Node12</title>
<g id="a_Node000012"><a xlink:title=" ">
<polygon fill="#e0e0e0" stroke="#999999" points="222.5,-20 171.25,-20 171.25,0 222.5,0 222.5,-20"/>
<text text-anchor="middle" x="196.88" y="-6.5" font-family="Helvetica,sans-Serif" font-size="10.00">memory</text>
</a>
</g>
</g>
<!-- Node9&#45;&gt;Node12 -->
<g id="edge11_Node000009_Node000012" class="edge">
<title>Node9&#45;&gt;Node12</title>
<g id="a_edge11_Node000009_Node000012"><a xlink:title=" ">
<path fill="none" stroke="#63b8ff" d="M441.18,-58.06C438.39,-57.32 435.57,-56.62 432.88,-56 347.88,-36.48 322.51,-39.07 233.94,-20.3"/>
<polygon fill="#63b8ff" stroke="#63b8ff" points="234.81,-16.9 224.3,-18.22 233.33,-23.75 234.81,-16.9"/>
</a>
</g>
</g>
<!-- Node13 -->
<g id="Node000013" class="node">
<title>Node13</title>
<g id="a_Node000013"><a xlink:title=" ">
<polygon fill="#e0e0e0" stroke="#999999" points="643.38,-20 600.38,-20 600.38,0 643.38,0 643.38,-20"/>
<text text-anchor="middle" x="621.88" y="-6.5" font-family="Helvetica,sans-Serif" font-size="10.00">mutex</text>
</a>
</g>
</g>
<!-- Node9&#45;&gt;Node13 -->
<g id="edge12_Node000009_Node000013" class="edge">
<title>Node9&#45;&gt;Node13</title>
<g id="a_edge12_Node000009_Node000013"><a xlink:title=" ">
<path fill="none" stroke="#63b8ff" d="M488.72,-56.8C515.65,-47.54 559.61,-32.42 589.59,-22.1"/>
<polygon fill="#63b8ff" stroke="#63b8ff" points="590.59,-25.46 598.9,-18.9 588.31,-18.84 590.59,-25.46"/>
</a>
</g>
</g>
<!-- Node14 -->
<g id="Node000014" class="node">
<title>Node14</title>
<g id="a_Node000014"><a xlink:title=" ">
<polygon fill="#e0e0e0" stroke="#999999" points="290.75,-20 241,-20 241,0 290.75,0 290.75,-20"/>
<text text-anchor="middle" x="265.88" y="-6.5" font-family="Helvetica,sans-Serif" font-size="10.00">optional</text>
</a>
</g>
</g>
<!-- Node9&#45;&gt;Node14 -->
<g id="edge13_Node000009_Node000014" class="edge">
<title>Node9&#45;&gt;Node14</title>
<g id="a_edge13_Node000009_Node000014"><a xlink:title=" ">
<path fill="none" stroke="#63b8ff" d="M441.12,-58.29C438.34,-57.51 435.55,-56.74 432.88,-56 387.75,-43.57 335.66,-29.6 301.82,-20.56"/>
<polygon fill="#63b8ff" stroke="#63b8ff" points="303.11,-17.28 292.54,-18.09 301.3,-24.05 303.11,-17.28"/>
</a>
</g>
</g>
<!-- Node15 -->
<g id="Node000015" class="node">
<title>Node15</title>
<g id="a_Node000015"><a xlink:title=" ">
<polygon fill="#e0e0e0" stroke="#999999" points="360.5,-20 309.25,-20 309.25,0 360.5,0 360.5,-20"/>
<text text-anchor="middle" x="334.88" y="-6.5" font-family="Helvetica,sans-Serif" font-size="10.00">ostream</text>
</a>
</g>
</g>
<!-- Node9&#45;&gt;Node15 -->
<g id="edge14_Node000009_Node000015" class="edge">
<title>Node9&#45;&gt;Node15</title>
<g id="a_edge14_Node000009_Node000015"><a xlink:title=" ">
<path fill="none" stroke="#63b8ff" d="M442.23,-55.59C421.76,-47.09 391.36,-34.46 368.13,-24.81"/>
<polygon fill="#63b8ff" stroke="#63b8ff" points="369.67,-21.66 359.09,-21.06 366.99,-28.13 369.67,-21.66"/>
</a>
</g>
</g>
<!-- Node16 -->
<g id="Node000016" class="node">
<title>Node16</title>
<g id="a_Node000016"><a xlink:title=" ">
<polygon fill="#e0e0e0" stroke="#999999" points="418.88,-20 378.88,-20 378.88,0 418.88,0 418.88,-20"/>
<text text-anchor="middle" x="398.88" y="-6.5" font-family="Helvetica,sans-Serif" font-size="10.00">string</text>
</a>
</g>
</g>
<!-- Node9&#45;&gt;Node16 -->
<g id="edge15_Node000009_Node000016" class="edge">
<title>Node9&#45;&gt;Node16</title>
<g id="a_edge15_Node000009_Node000016"><a xlink:title=" ">
<path fill="none" stroke="#63b8ff" d="M453.38,-55.59C443.91,-47.85 430.27,-36.69 419,-27.47"/>
<polygon fill="#63b8ff" stroke="#63b8ff" points="421.37,-24.88 411.41,-21.26 416.93,-30.3 421.37,-24.88"/>
</a>
</g>
</g>
<!-- Node17 -->
<g id="Node000017" class="node">
<title>Node17</title>
<g id="a_Node000017"><a xlink:title=" ">
<polygon fill="#e0e0e0" stroke="#999999" points="502.62,-20 437.12,-20 437.12,0 502.62,0 502.62,-20"/>
<text text-anchor="middle" x="469.88" y="-6.5" font-family="Helvetica,sans-Serif" font-size="10.00">string_view</text>
</a>
</g>
</g>
<!-- Node9&#45;&gt;Node17 -->
<g id="edge16_Node000009_Node000017" class="edge">
<title>Node9&#45;&gt;Node17</title>
<g id="a_edge16_Node000009_Node000017"><a xlink:title=" ">
<path fill="none" stroke="#63b8ff" d="M465.75,-55.59C466.36,-49.01 467.19,-39.96 467.96,-31.73"/>
<polygon fill="#63b8ff" stroke="#63b8ff" points="471.44,-32.09 468.87,-21.81 464.47,-31.44 471.44,-32.09"/>
</a>
</g>
</g>
<!-- Node18 -->
<g id="Node000018" class="node">
<title>Node18</title>
<g id="a_Node000018"><a xlink:title=" ">
<polygon fill="#e0e0e0" stroke="#999999" points="582.75,-20 521,-20 521,0 582.75,0 582.75,-20"/>
<text text-anchor="middle" x="551.88" y="-6.5" font-family="Helvetica,sans-Serif" font-size="10.00">type_traits</text>
</a>
</g>
</g>
<!-- Node9&#45;&gt;Node18 -->
<g id="edge17_Node000009_Node000018" class="edge">
<title>Node9&#45;&gt;Node18</title>
<g id="a_edge17_Node000009_Node000018"><a xlink:title=" ">
<path fill="none" stroke="#63b8ff" d="M480.03,-55.59C492.92,-47.59 511.71,-35.93 526.83,-26.54"/>
<polygon fill="#63b8ff" stroke="#63b8ff" points="528.67,-29.53 535.32,-21.28 524.97,-23.58 528.67,-29.53"/>
</a>
</g>
</g>
<!-- Node19 -->
<g id="Node000019" class="node">
<title>Node19</title>
<g id="a_Node000019"><a xlink:title=" ">
<polygon fill="#e0e0e0" stroke="#999999" points="78.5,-20 33.25,-20 33.25,0 78.5,0 78.5,-20"/>
<text text-anchor="middle" x="55.88" y="-6.5" font-family="Helvetica,sans-Serif" font-size="10.00">variant</text>
</a>
</g>
</g>
<!-- Node9&#45;&gt;Node19 -->
<g id="edge18_Node000009_Node000019" class="edge">
<title>Node9&#45;&gt;Node19</title>
<g id="a_edge18_Node000009_Node000019"><a xlink:title=" ">
<path fill="none" stroke="#63b8ff" d="M441.22,-57.86C438.42,-57.16 435.6,-56.52 432.88,-56 285.01,-27.7 241.33,-47.97 89.93,-20.06"/>
<polygon fill="#63b8ff" stroke="#63b8ff" points="90.8,-16.66 80.32,-18.24 89.5,-23.54 90.8,-16.66"/>
</a>
</g>
</g>
<!-- Node20 -->
<g id="Node000020" class="node">
<title>Node20</title>
<g id="a_Node000020"><a xlink:title=" ">
<polygon fill="#e0e0e0" stroke="#999999" points="704.38,-20 661.38,-20 661.38,0 704.38,0 704.38,-20"/>
<text text-anchor="middle" x="682.88" y="-6.5" font-family="Helvetica,sans-Serif" font-size="10.00">vector</text>
</a>
</g>
</g>
<!-- Node9&#45;&gt;Node20 -->
<g id="edge19_Node000009_Node000020" class="edge">
<title>Node9&#45;&gt;Node20</title>
<g id="a_edge19_Node000009_Node000020"><a xlink:title=" ">
<path fill="none" stroke="#63b8ff" d="M488.61,-58.19C491.39,-57.43 494.19,-56.69 496.88,-56 562.44,-39.22 582.19,-38.29 650.11,-20.61"/>
<polygon fill="#63b8ff" stroke="#63b8ff" points="650.72,-24.07 659.5,-18.14 648.94,-17.3 650.72,-24.07"/>
</a>
</g>
</g>
<!-- Node21&#45;&gt;Node2 -->
<g id="edge22_Node000021_Node000002" class="edge">
<title>Node21&#45;&gt;Node2</title>
<g id="a_edge22_Node000021_Node000002"><a xlink:title=" ">
<path fill="none" stroke="#63b8ff" d="M576.77,-111.59C568.62,-104.01 556.94,-93.13 547.16,-84.02"/>
<polygon fill="#63b8ff" stroke="#63b8ff" points="549.67,-81.58 539.97,-77.33 544.9,-86.71 549.67,-81.58"/>
</a>
</g>
</g>
<!-- Node21&#45;&gt;Node4 -->
<g id="edge21_Node000021_Node000004" class="edge">
<title>Node21&#45;&gt;Node4</title>
<g id="a_edge21_Node000021_Node000004"><a xlink:title=" ">
<path fill="none" stroke="#63b8ff" d="M553.45,-111.51C524.47,-103.22 481.12,-90.68 434.97,-76.59"/>
<polygon fill="#63b8ff" stroke="#63b8ff" points="436.17,-73.29 425.58,-73.71 434.12,-79.99 436.17,-73.29"/>
</a>
</g>
</g>
<!-- Node21&#45;&gt;Node9 -->
<g id="edge28_Node000021_Node000009" class="edge">
<title>Node21&#45;&gt;Node9</title>
<g id="a_edge28_Node000021_Node000009"><a xlink:title=" ">
<path fill="none" stroke="#63b8ff" d="M565.62,-111.59C546.59,-103.17 518.4,-90.69 496.67,-81.07"/>
<polygon fill="#63b8ff" stroke="#63b8ff" points="498.24,-77.94 487.68,-77.09 495.4,-84.34 498.24,-77.94"/>
</a>
</g>
</g>
<!-- Node21&#45;&gt;Node11 -->
<g id="edge23_Node000021_Node000011" class="edge">
<title>Node21&#45;&gt;Node11</title>
<g id="a_edge23_Node000021_Node000011"><a xlink:title=" ">
<path fill="none" stroke="#63b8ff" d="M624.84,-116.13C671.17,-109.41 745.73,-95.84 764.88,-76 776.16,-64.31 779.27,-45.82 779.78,-31.55"/>
<polygon fill="#63b8ff" stroke="#63b8ff" points="783.28,-31.85 779.71,-21.88 776.28,-31.9 783.28,-31.85"/>
</a>
</g>
</g>
<!-- Node21&#45;&gt;Node13 -->
<g id="edge26_Node000021_Node000013" class="edge">
<title>Node21&#45;&gt;Node13</title>
<g id="a_edge26_Node000021_Node000013"><a xlink:title=" ">
<path fill="none" stroke="#63b8ff" d="M588.94,-111.64C591.83,-98.91 597.45,-75.5 603.88,-56 606.64,-47.61 610.16,-38.54 613.35,-30.76"/>
<polygon fill="#63b8ff" stroke="#63b8ff" points="616.56,-32.15 617.22,-21.58 610.11,-29.43 616.56,-32.15"/>
</a>
</g>
</g>
<!-- Node21&#45;&gt;Node20 -->
<g id="edge27_Node000021_Node000020" class="edge">
<title>Node21&#45;&gt;Node20</title>
<g id="a_edge27_Node000021_Node000020"><a xlink:title=" ">
<path fill="none" stroke="#63b8ff" d="M593.29,-111.85C602.45,-98.97 620.05,-74.95 636.88,-56 645.46,-46.33 655.69,-36.2 664.32,-28.01"/>
<polygon fill="#63b8ff" stroke="#63b8ff" points="666.58,-30.69 671.49,-21.3 661.8,-25.57 666.58,-30.69"/>
</a>
</g>
</g>
<!-- Node22 -->
<g id="Node000022" class="node">
<title>Node22</title>
<g id="a_Node000022"><a xlink:title=" ">
<polygon fill="#e0e0e0" stroke="#999999" points="703.88,-76 645.88,-76 645.88,-56 703.88,-56 703.88,-76"/>
<text text-anchor="middle" x="674.88" y="-62.5" font-family="Helvetica,sans-Serif" font-size="10.00">functional</text>
</a>
</g>
</g>
<!-- Node21&#45;&gt;Node22 -->
<g id="edge24_Node000021_Node000022" class="edge">
<title>Node21&#45;&gt;Node22</title>
<g id="a_edge24_Node000021_Node000022"><a xlink:title=" ">
<path fill="none" stroke="#63b8ff" d="M602.2,-111.59C615.37,-103.51 634.61,-91.71 649.98,-82.27"/>
<polygon fill="#63b8ff" stroke="#63b8ff" points="651.44,-85.48 658.14,-77.27 647.78,-79.52 651.44,-85.48"/>
</a>
</g>
</g>
<!-- Node23 -->
<g id="Node000023" class="node">
<title>Node23</title>
<g id="a_Node000023"><a xlink:title=" ">
<polygon fill="#e0e0e0" stroke="#999999" points="756.25,-76 721.5,-76 721.5,-56 756.25,-56 756.25,-76"/>
<text text-anchor="middle" x="738.88" y="-62.5" font-family="Helvetica,sans-Serif" font-size="10.00">map</text>
</a>
</g>
</g>
<!-- Node21&#45;&gt;Node23 -->
<g id="edge25_Node000021_Node000023" class="edge">
<title>Node21&#45;&gt;Node23</title>
<g id="a_edge25_Node000021_Node000023"><a xlink:title=" ">
<path fill="none" stroke="#63b8ff" d="M613.35,-111.59C640.56,-101.93 682.78,-86.93 710.62,-77.04"/>
<polygon fill="#63b8ff" stroke="#63b8ff" points="711.56,-80.42 719.81,-73.77 709.21,-73.82 711.56,-80.42"/>
</a>
</g>
</g>
</g>
</svg>
