<?xml version="1.0" encoding="UTF-8" standalone="no"?>
<!DOCTYPE svg PUBLIC "-//W3C//DTD SVG 1.1//EN"
 "http://www.w3.org/Graphics/SVG/1.1/DTD/svg11.dtd">
<!-- Generated by graphviz version 12.2.1 (0)
 -->
<!-- Title: src/stream.h Pages: 1 -->
<svg width="1787pt" height="376pt"
 viewBox="0.00 0.00 1787.00 376.00" xmlns="http://www.w3.org/2000/svg" xmlns:xlink="http://www.w3.org/1999/xlink">
<g id="graph0" class="graph" transform="scale(1 1) rotate(0) translate(4 372)">
<title>src/stream.h</title>
<!-- Node1 -->
<g id="Node000001" class="node">
<title>Node1</title>
<g id="a_Node000001"><a xlink:title="Declarations for the streaming protocols.">
<polygon fill="#999999" stroke="#666666" points="1140.38,-368 1069.62,-368 1069.62,-348 1140.38,-348 1140.38,-368"/>
<text text-anchor="middle" x="1105" y="-354.5" font-family="Helvetica,sans-Serif" font-size="10.00">src/stream.h</text>
</a>
</g>
</g>
<!-- Node2 -->
<g id="Node000002" class="node">
<title>Node2</title>
<g id="a_Node000002"><a xlink:title=" ">
<polygon fill="#e0e0e0" stroke="#999999" points="978.62,-312 939.38,-312 939.38,-292 978.62,-292 978.62,-312"/>
<text text-anchor="middle" x="959" y="-298.5" font-family="Helvetica,sans-Serif" font-size="10.00">utility</text>
</a>
</g>
</g>
<!-- Node1&#45;&gt;Node2 -->
<g id="edge1_Node000001_Node000002" class="edge">
<title>Node1&#45;&gt;Node2</title>
<g id="a_edge1_Node000001_Node000002"><a xlink:title=" ">
<path fill="none" stroke="#63b8ff" d="M1079.57,-347.59C1054.55,-338.34 1016.32,-324.2 989.64,-314.33"/>
<polygon fill="#63b8ff" stroke="#63b8ff" points="991,-311.1 980.4,-310.92 988.57,-317.67 991,-311.1"/>
</a>
</g>
</g>
<!-- Node3 -->
<g id="Node000003" class="node">
<title>Node3</title>
<g id="a_Node000003"><a xlink:title=" ">
<polygon fill="#e0e0e0" stroke="#999999" points="1076.88,-312 997.12,-312 997.12,-292 1076.88,-292 1076.88,-312"/>
<text text-anchor="middle" x="1037" y="-298.5" font-family="Helvetica,sans-Serif" font-size="10.00">boost/asio.hpp</text>
</a>
</g>
</g>
<!-- Node1&#45;&gt;Node3 -->
<g id="edge2_Node000001_Node000003" class="edge">
<title>Node1&#45;&gt;Node3</title>
<g id="a_edge2_Node000001_Node000003"><a xlink:title=" ">
<path fill="none" stroke="#63b8ff" d="M1093.16,-347.59C1083.31,-339.77 1069.07,-328.46 1057.39,-319.19"/>
<polygon fill="#63b8ff" stroke="#63b8ff" points="1059.9,-316.72 1049.89,-313.24 1055.55,-322.2 1059.9,-316.72"/>
</a>
</g>
</g>
<!-- Node4 -->
<g id="Node000004" class="node">
<title>Node4</title>
<g id="a_Node000004"><a xlink:href="audio_8h.html" target="_top" xlink:title="Declarations for audio capture and encoding.">
<polygon fill="white" stroke="#666666" points="1062.75,-256 1015.25,-256 1015.25,-236 1062.75,-236 1062.75,-256"/>
<text text-anchor="middle" x="1039" y="-242.5" font-family="Helvetica,sans-Serif" font-size="10.00">audio.h</text>
</a>
</g>
</g>
<!-- Node1&#45;&gt;Node4 -->
<g id="edge3_Node000001_Node000004" class="edge">
<title>Node1&#45;&gt;Node4</title>
<g id="a_edge3_Node000001_Node000004"><a xlink:title=" ">
<path fill="none" stroke="#63b8ff" d="M1103.81,-347.56C1101.81,-334.32 1096.86,-309.89 1086,-292 1079.47,-281.25 1069.73,-271.34 1060.81,-263.57"/>
<polygon fill="#63b8ff" stroke="#63b8ff" points="1063.09,-260.92 1053.15,-257.27 1058.65,-266.32 1063.09,-260.92"/>
</a>
</g>
</g>
<!-- Node39 -->
<g id="Node000039" class="node">
<title>Node39</title>
<g id="a_Node000039"><a xlink:href="crypto_8h.html" target="_top" xlink:title="Declarations for cryptography functions.">
<polygon fill="white" stroke="#666666" points="1475.62,-138 1424.38,-138 1424.38,-118 1475.62,-118 1475.62,-138"/>
<text text-anchor="middle" x="1450" y="-124.5" font-family="Helvetica,sans-Serif" font-size="10.00">crypto.h</text>
</a>
</g>
</g>
<!-- Node1&#45;&gt;Node39 -->
<g id="edge55_Node000001_Node000039" class="edge">
<title>Node1&#45;&gt;Node39</title>
<g id="a_edge55_Node000001_Node000039"><a xlink:title=" ">
<path fill="none" stroke="#63b8ff" d="M1140.86,-355.24C1203.87,-350.22 1334.8,-330.84 1409,-256 1437.73,-227.03 1446.33,-177.81 1448.91,-149.92"/>
<polygon fill="#63b8ff" stroke="#63b8ff" points="1452.4,-150.17 1449.62,-139.95 1445.42,-149.67 1452.4,-150.17"/>
</a>
</g>
</g>
<!-- Node44 -->
<g id="Node000044" class="node">
<title>Node44</title>
<g id="a_Node000044"><a xlink:href="video_8h.html" target="_top" xlink:title="Declarations for video.">
<polygon fill="white" stroke="#666666" points="1180.75,-312 1133.25,-312 1133.25,-292 1180.75,-292 1180.75,-312"/>
<text text-anchor="middle" x="1157" y="-298.5" font-family="Helvetica,sans-Serif" font-size="10.00">video.h</text>
</a>
</g>
</g>
<!-- Node1&#45;&gt;Node44 -->
<g id="edge62_Node000001_Node000044" class="edge">
<title>Node1&#45;&gt;Node44</title>
<g id="a_edge62_Node000001_Node000044"><a xlink:title=" ">
<path fill="none" stroke="#63b8ff" d="M1114.06,-347.59C1121.22,-340.16 1131.41,-329.58 1140.07,-320.58"/>
<polygon fill="#63b8ff" stroke="#63b8ff" points="1142.58,-323.02 1147,-313.39 1137.54,-318.16 1142.58,-323.02"/>
</a>
</g>
</g>
<!-- Node5 -->
<g id="Node000005" class="node">
<title>Node5</title>
<g id="a_Node000005"><a xlink:href="common_8h.html" target="_top" xlink:title="Declarations for common platform specific utilities.">
<polygon fill="white" stroke="#666666" points="933,-200 833,-200 833,-180 933,-180 933,-200"/>
<text text-anchor="middle" x="883" y="-186.5" font-family="Helvetica,sans-Serif" font-size="10.00">platform/common.h</text>
</a>
</g>
</g>
<!-- Node4&#45;&gt;Node5 -->
<g id="edge4_Node000004_Node000005" class="edge">
<title>Node4&#45;&gt;Node5</title>
<g id="a_edge4_Node000004_Node000005"><a xlink:title=" ">
<path fill="none" stroke="#63b8ff" d="M1014.97,-236.68C989.88,-228 950.19,-214.26 920.88,-204.11"/>
<polygon fill="#63b8ff" stroke="#63b8ff" points="922.24,-200.88 911.64,-200.91 919.95,-207.49 922.24,-200.88"/>
</a>
</g>
</g>
<!-- Node6 -->
<g id="Node000006" class="node">
<title>Node6</title>
<g id="a_Node000006"><a xlink:title=" ">
<polygon fill="#e0e0e0" stroke="#999999" points="490,-20 450,-20 450,0 490,0 490,-20"/>
<text text-anchor="middle" x="470" y="-6.5" font-family="Helvetica,sans-Serif" font-size="10.00">bitset</text>
</a>
</g>
</g>
<!-- Node4&#45;&gt;Node6 -->
<g id="edge54_Node000004_Node000006" class="edge">
<title>Node4&#45;&gt;Node6</title>
<g id="a_edge54_Node000004_Node000006"><a xlink:title=" ">
<path fill="none" stroke="#63b8ff" d="M1014.95,-242.21C913.29,-230.2 522.3,-181.86 483,-144 452.88,-114.99 458.73,-60.89 464.83,-31.42"/>
<polygon fill="#63b8ff" stroke="#63b8ff" points="468.19,-32.45 467.02,-21.92 461.36,-30.88 468.19,-32.45"/>
</a>
</g>
</g>
<!-- Node24 -->
<g id="Node000024" class="node">
<title>Node24</title>
<g id="a_Node000024"><a xlink:href="thread__safe_8h.html" target="_top" xlink:title="Declarations for thread&#45;safe data structures.">
<polygon fill="white" stroke="#666666" points="1159.88,-138 1068.12,-138 1068.12,-118 1159.88,-118 1159.88,-138"/>
<text text-anchor="middle" x="1114" y="-124.5" font-family="Helvetica,sans-Serif" font-size="10.00">src/thread_safe.h</text>
</a>
</g>
</g>
<!-- Node4&#45;&gt;Node24 -->
<g id="edge52_Node000004_Node000024" class="edge">
<title>Node4&#45;&gt;Node24</title>
<g id="a_edge52_Node000004_Node000024"><a xlink:title=" ">
<path fill="none" stroke="#63b8ff" d="M1045.14,-235.51C1057.5,-216.38 1085.62,-172.89 1101.84,-147.8"/>
<polygon fill="#63b8ff" stroke="#63b8ff" points="1104.68,-149.87 1107.17,-139.57 1098.8,-146.07 1104.68,-149.87"/>
</a>
</g>
</g>
<!-- Node29 -->
<g id="Node000029" class="node">
<title>Node29</title>
<g id="a_Node000029"><a xlink:href="utility_8h.html" target="_top" xlink:title="Declarations for utility functions.">
<polygon fill="white" stroke="#666666" points="1076.38,-76 1029.62,-76 1029.62,-56 1076.38,-56 1076.38,-76"/>
<text text-anchor="middle" x="1053" y="-62.5" font-family="Helvetica,sans-Serif" font-size="10.00">utility.h</text>
</a>
</g>
</g>
<!-- Node4&#45;&gt;Node29 -->
<g id="edge53_Node000004_Node000029" class="edge">
<title>Node4&#45;&gt;Node29</title>
<g id="a_edge53_Node000004_Node000029"><a xlink:title=" ">
<path fill="none" stroke="#63b8ff" d="M1039.71,-235.93C1041.87,-208.56 1048.33,-126.31 1051.38,-87.59"/>
<polygon fill="#63b8ff" stroke="#63b8ff" points="1054.86,-88.02 1052.15,-77.78 1047.88,-87.47 1054.86,-88.02"/>
</a>
</g>
</g>
<!-- Node5&#45;&gt;Node6 -->
<g id="edge5_Node000005_Node000006" class="edge">
<title>Node5&#45;&gt;Node6</title>
<g id="a_edge5_Node000005_Node000006"><a xlink:title=" ">
<path fill="none" stroke="#63b8ff" d="M832.65,-189.53C742.32,-189.43 557.73,-184.15 510,-144 476.73,-116.01 470.48,-61.47 469.7,-31.66"/>
<polygon fill="#63b8ff" stroke="#63b8ff" points="473.2,-31.72 469.65,-21.73 466.2,-31.75 473.2,-31.72"/>
</a>
</g>
</g>
<!-- Node7 -->
<g id="Node000007" class="node">
<title>Node7</title>
<g id="a_Node000007"><a xlink:title=" ">
<polygon fill="#e0e0e0" stroke="#999999" points="579.5,-138 518.5,-138 518.5,-118 579.5,-118 579.5,-138"/>
<text text-anchor="middle" x="549" y="-124.5" font-family="Helvetica,sans-Serif" font-size="10.00">filesystem</text>
</a>
</g>
</g>
<!-- Node5&#45;&gt;Node7 -->
<g id="edge6_Node000005_Node000007" class="edge">
<title>Node5&#45;&gt;Node7</title>
<g id="a_edge6_Node000005_Node000007"><a xlink:title=" ">
<path fill="none" stroke="#63b8ff" d="M832.64,-183.75C774.58,-177.1 676.53,-164.03 594,-144 591.37,-143.36 588.67,-142.64 585.96,-141.86"/>
<polygon fill="#63b8ff" stroke="#63b8ff" points="586.99,-138.52 576.41,-138.92 584.93,-145.21 586.99,-138.52"/>
</a>
</g>
</g>
<!-- Node8 -->
<g id="Node000008" class="node">
<title>Node8</title>
<g id="a_Node000008"><a xlink:title=" ">
<polygon fill="#e0e0e0" stroke="#999999" points="58,-20 0,-20 0,0 58,0 58,-20"/>
<text text-anchor="middle" x="29" y="-6.5" font-family="Helvetica,sans-Serif" font-size="10.00">functional</text>
</a>
</g>
</g>
<!-- Node5&#45;&gt;Node8 -->
<g id="edge7_Node000005_Node000008" class="edge">
<title>Node5&#45;&gt;Node8</title>
<g id="a_edge7_Node000005_Node000008"><a xlink:title=" ">
<path fill="none" stroke="#63b8ff" d="M832.64,-187.61C734.93,-184.33 513.06,-173.95 329,-144 204.31,-123.71 147.2,-160.19 53,-76 40.37,-64.72 34.38,-46.19 31.54,-31.8"/>
<polygon fill="#63b8ff" stroke="#63b8ff" points="35.01,-31.33 30,-21.99 28.09,-32.41 35.01,-31.33"/>
</a>
</g>
</g>
<!-- Node9 -->
<g id="Node000009" class="node">
<title>Node9</title>
<g id="a_Node000009"><a xlink:title=" ">
<polygon fill="#e0e0e0" stroke="#999999" points="967.5,-20 924.5,-20 924.5,0 967.5,0 967.5,-20"/>
<text text-anchor="middle" x="946" y="-6.5" font-family="Helvetica,sans-Serif" font-size="10.00">mutex</text>
</a>
</g>
</g>
<!-- Node5&#45;&gt;Node9 -->
<g id="edge8_Node000005_Node000009" class="edge">
<title>Node5&#45;&gt;Node9</title>
<g id="a_edge8_Node000005_Node000009"><a xlink:title=" ">
<path fill="none" stroke="#63b8ff" d="M905.02,-179.53C919.24,-172.12 936.6,-160.32 945,-144 963.6,-107.86 957.09,-58.53 951.21,-31.24"/>
<polygon fill="#63b8ff" stroke="#63b8ff" points="954.7,-30.78 948.99,-21.86 947.89,-32.39 954.7,-30.78"/>
</a>
</g>
</g>
<!-- Node10 -->
<g id="Node000010" class="node">
<title>Node10</title>
<g id="a_Node000010"><a xlink:title=" ">
<polygon fill="#e0e0e0" stroke="#999999" points="778,-20 738,-20 738,0 778,0 778,-20"/>
<text text-anchor="middle" x="758" y="-6.5" font-family="Helvetica,sans-Serif" font-size="10.00">string</text>
</a>
</g>
</g>
<!-- Node5&#45;&gt;Node10 -->
<g id="edge9_Node000005_Node000010" class="edge">
<title>Node5&#45;&gt;Node10</title>
<g id="a_edge9_Node000005_Node000010"><a xlink:title=" ">
<path fill="none" stroke="#63b8ff" d="M865.64,-179.66C852.08,-171.65 833.49,-159.05 821,-144 792.01,-109.06 772.91,-58.54 763.94,-30.91"/>
<polygon fill="#63b8ff" stroke="#63b8ff" points="767.39,-30.22 761.07,-21.71 760.71,-32.3 767.39,-30.22"/>
</a>
</g>
</g>
<!-- Node11 -->
<g id="Node000011" class="node">
<title>Node11</title>
<g id="a_Node000011"><a xlink:title=" ">
<polygon fill="#e0e0e0" stroke="#999999" points="774.12,-138 635.88,-138 635.88,-118 774.12,-118 774.12,-138"/>
<text text-anchor="middle" x="705" y="-124.5" font-family="Helvetica,sans-Serif" font-size="10.00">boost/core/noncopyable.hpp</text>
</a>
</g>
</g>
<!-- Node5&#45;&gt;Node11 -->
<g id="edge10_Node000005_Node000011" class="edge">
<title>Node5&#45;&gt;Node11</title>
<g id="a_edge10_Node000005_Node000011"><a xlink:title=" ">
<path fill="none" stroke="#63b8ff" d="M855.19,-179.62C825.23,-169.53 777.35,-153.39 743.72,-142.05"/>
<polygon fill="#63b8ff" stroke="#63b8ff" points="744.94,-138.77 734.34,-138.89 742.7,-145.4 744.94,-138.77"/>
</a>
</g>
</g>
<!-- Node12 -->
<g id="Node000012" class="node">
<title>Node12</title>
<g id="a_Node000012"><a xlink:href="config_8h.html" target="_top" xlink:title="Declarations for the configuration of Sunshine.">
<polygon fill="white" stroke="#666666" points="641.5,-76 574.5,-76 574.5,-56 641.5,-56 641.5,-76"/>
<text text-anchor="middle" x="608" y="-62.5" font-family="Helvetica,sans-Serif" font-size="10.00">src/config.h</text>
</a>
</g>
</g>
<!-- Node5&#45;&gt;Node12 -->
<g id="edge11_Node000005_Node000012" class="edge">
<title>Node5&#45;&gt;Node12</title>
<g id="a_edge11_Node000005_Node000012"><a xlink:title=" ">
<path fill="none" stroke="#63b8ff" d="M832.69,-186.54C766.76,-182.28 656.1,-171.19 627,-144 611.7,-129.7 607.87,-105.22 607.29,-87.69"/>
<polygon fill="#63b8ff" stroke="#63b8ff" points="610.79,-87.93 607.31,-77.92 603.79,-87.92 610.79,-87.93"/>
</a>
</g>
</g>
<!-- Node18 -->
<g id="Node000018" class="node">
<title>Node18</title>
<g id="a_Node000018"><a xlink:href="logging_8h.html" target="_top" xlink:title="Declarations for logging related functions.">
<polygon fill="white" stroke="#666666" points="409.75,-138 338.25,-138 338.25,-118 409.75,-118 409.75,-138"/>
<text text-anchor="middle" x="374" y="-124.5" font-family="Helvetica,sans-Serif" font-size="10.00">src/logging.h</text>
</a>
</g>
</g>
<!-- Node5&#45;&gt;Node18 -->
<g id="edge19_Node000005_Node000018" class="edge">
<title>Node5&#45;&gt;Node18</title>
<g id="a_edge19_Node000005_Node000018"><a xlink:title=" ">
<path fill="none" stroke="#63b8ff" d="M832.8,-184.04C755.9,-176.3 604.32,-160.52 476,-144 457.94,-141.67 438.13,-138.83 420.81,-136.24"/>
<polygon fill="#63b8ff" stroke="#63b8ff" points="421.74,-132.84 411.33,-134.82 420.7,-139.77 421.74,-132.84"/>
</a>
</g>
</g>
<!-- Node5&#45;&gt;Node24 -->
<g id="edge28_Node000005_Node000024" class="edge">
<title>Node5&#45;&gt;Node24</title>
<g id="a_edge28_Node000005_Node000024"><a xlink:title=" ">
<path fill="none" stroke="#63b8ff" d="M919.35,-179.56C959.09,-169.24 1022.92,-152.66 1066.57,-141.32"/>
<polygon fill="#63b8ff" stroke="#63b8ff" points="1067.22,-144.77 1076.02,-138.87 1065.46,-137.99 1067.22,-144.77"/>
</a>
</g>
</g>
<!-- Node5&#45;&gt;Node29 -->
<g id="edge48_Node000005_Node000029" class="edge">
<title>Node5&#45;&gt;Node29</title>
<g id="a_edge48_Node000005_Node000029"><a xlink:title=" ">
<path fill="none" stroke="#63b8ff" d="M908.95,-179.63C928.85,-171.78 956.47,-159.39 978,-144 1001.73,-127.04 1024.45,-102.08 1038.54,-85.22"/>
<polygon fill="#63b8ff" stroke="#63b8ff" points="1041.21,-87.48 1044.82,-77.52 1035.79,-83.05 1041.21,-87.48"/>
</a>
</g>
</g>
<!-- Node36 -->
<g id="Node000036" class="node">
<title>Node36</title>
<g id="a_Node000036"><a xlink:href="video__colorspace_8h.html" target="_top" xlink:title="Declarations for colorspace functions.">
<polygon fill="white" stroke="#666666" points="1406.25,-138 1289.75,-138 1289.75,-118 1406.25,-118 1406.25,-138"/>
<text text-anchor="middle" x="1348" y="-124.5" font-family="Helvetica,sans-Serif" font-size="10.00">src/video_colorspace.h</text>
</a>
</g>
</g>
<!-- Node5&#45;&gt;Node36 -->
<g id="edge49_Node000005_Node000036" class="edge">
<title>Node5&#45;&gt;Node36</title>
<g id="a_edge49_Node000005_Node000036"><a xlink:title=" ">
<path fill="none" stroke="#63b8ff" d="M933.2,-182.52C1016.48,-171.78 1183.36,-150.24 1278.1,-138.02"/>
<polygon fill="#63b8ff" stroke="#63b8ff" points="1278.31,-141.52 1287.78,-136.77 1277.42,-134.58 1278.31,-141.52"/>
</a>
</g>
</g>
<!-- Node38 -->
<g id="Node000038" class="node">
<title>Node38</title>
<g id="a_Node000038"><a xlink:title=" ">
<polygon fill="#e0e0e0" stroke="#999999" points="936.38,-144 829.62,-144 829.62,-112 936.38,-112 936.38,-144"/>
<text text-anchor="start" x="837.62" y="-130.5" font-family="Helvetica,sans-Serif" font-size="10.00">moonlight&#45;common&#45;c</text>
<text text-anchor="middle" x="883" y="-118.5" font-family="Helvetica,sans-Serif" font-size="10.00">/src/Limelight.h</text>
</a>
</g>
</g>
<!-- Node5&#45;&gt;Node38 -->
<g id="edge51_Node000005_Node000038" class="edge">
<title>Node5&#45;&gt;Node38</title>
<g id="a_edge51_Node000005_Node000038"><a xlink:title=" ">
<path fill="none" stroke="#63b8ff" d="M883,-179.62C883,-173.1 883,-164.05 883,-155.4"/>
<polygon fill="#63b8ff" stroke="#63b8ff" points="886.5,-155.65 883,-145.65 879.5,-155.65 886.5,-155.65"/>
</a>
</g>
</g>
<!-- Node12&#45;&gt;Node6 -->
<g id="edge12_Node000012_Node000006" class="edge">
<title>Node12&#45;&gt;Node6</title>
<g id="a_edge12_Node000012_Node000006"><a xlink:title=" ">
<path fill="none" stroke="#63b8ff" d="M583.96,-55.59C560.82,-46.54 525.73,-32.81 500.61,-22.98"/>
<polygon fill="#63b8ff" stroke="#63b8ff" points="502.17,-19.83 491.59,-19.45 499.62,-26.35 502.17,-19.83"/>
</a>
</g>
</g>
<!-- Node12&#45;&gt;Node10 -->
<g id="edge15_Node000012_Node000010" class="edge">
<title>Node12&#45;&gt;Node10</title>
<g id="a_edge15_Node000012_Node000010"><a xlink:title=" ">
<path fill="none" stroke="#63b8ff" d="M634.13,-55.59C660.1,-46.25 699.91,-31.91 727.35,-22.03"/>
<polygon fill="#63b8ff" stroke="#63b8ff" points="728.28,-25.42 736.5,-18.74 725.91,-18.83 728.28,-25.42"/>
</a>
</g>
</g>
<!-- Node13 -->
<g id="Node000013" class="node">
<title>Node13</title>
<g id="a_Node000013"><a xlink:title=" ">
<polygon fill="#e0e0e0" stroke="#999999" points="355.62,-20 310.38,-20 310.38,0 355.62,0 355.62,-20"/>
<text text-anchor="middle" x="333" y="-6.5" font-family="Helvetica,sans-Serif" font-size="10.00">chrono</text>
</a>
</g>
</g>
<!-- Node12&#45;&gt;Node13 -->
<g id="edge13_Node000012_Node000013" class="edge">
<title>Node12&#45;&gt;Node13</title>
<g id="a_edge13_Node000012_Node000013"><a xlink:title=" ">
<path fill="none" stroke="#63b8ff" d="M574,-58.32C521.23,-47.96 420.18,-28.12 367.25,-17.73"/>
<polygon fill="#63b8ff" stroke="#63b8ff" points="368.08,-14.32 357.6,-15.83 366.73,-21.19 368.08,-14.32"/>
</a>
</g>
</g>
<!-- Node14 -->
<g id="Node000014" class="node">
<title>Node14</title>
<g id="a_Node000014"><a xlink:title=" ">
<polygon fill="#e0e0e0" stroke="#999999" points="906.88,-20 857.12,-20 857.12,0 906.88,0 906.88,-20"/>
<text text-anchor="middle" x="882" y="-6.5" font-family="Helvetica,sans-Serif" font-size="10.00">optional</text>
</a>
</g>
</g>
<!-- Node12&#45;&gt;Node14 -->
<g id="edge14_Node000012_Node000014" class="edge">
<title>Node12&#45;&gt;Node14</title>
<g id="a_edge14_Node000012_Node000014"><a xlink:title=" ">
<path fill="none" stroke="#63b8ff" d="M641.71,-59.6C686.37,-52.25 767.83,-38.18 845.85,-20.6"/>
<polygon fill="#63b8ff" stroke="#63b8ff" points="846.38,-24.06 855.35,-18.43 844.83,-17.24 846.38,-24.06"/>
</a>
</g>
</g>
<!-- Node15 -->
<g id="Node000015" class="node">
<title>Node15</title>
<g id="a_Node000015"><a xlink:title=" ">
<polygon fill="#e0e0e0" stroke="#999999" points="590.38,-20 507.62,-20 507.62,0 590.38,0 590.38,-20"/>
<text text-anchor="middle" x="549" y="-6.5" font-family="Helvetica,sans-Serif" font-size="10.00">unordered_map</text>
</a>
</g>
</g>
<!-- Node12&#45;&gt;Node15 -->
<g id="edge16_Node000012_Node000015" class="edge">
<title>Node12&#45;&gt;Node15</title>
<g id="a_edge16_Node000012_Node000015"><a xlink:title=" ">
<path fill="none" stroke="#63b8ff" d="M597.72,-55.59C589.43,-48.01 577.55,-37.13 567.6,-28.02"/>
<polygon fill="#63b8ff" stroke="#63b8ff" points="570.02,-25.49 560.28,-21.32 565.29,-30.65 570.02,-25.49"/>
</a>
</g>
</g>
<!-- Node16 -->
<g id="Node000016" class="node">
<title>Node16</title>
<g id="a_Node000016"><a xlink:title=" ">
<polygon fill="#e0e0e0" stroke="#999999" points="839.5,-20 796.5,-20 796.5,0 839.5,0 839.5,-20"/>
<text text-anchor="middle" x="818" y="-6.5" font-family="Helvetica,sans-Serif" font-size="10.00">vector</text>
</a>
</g>
</g>
<!-- Node12&#45;&gt;Node16 -->
<g id="edge17_Node000012_Node000016" class="edge">
<title>Node12&#45;&gt;Node16</title>
<g id="a_edge17_Node000012_Node000016"><a xlink:title=" ">
<path fill="none" stroke="#63b8ff" d="M641.75,-56.9C675.62,-48.69 729.55,-35.39 785.23,-20.41"/>
<polygon fill="#63b8ff" stroke="#63b8ff" points="785.81,-23.87 794.55,-17.89 783.98,-17.12 785.81,-23.87"/>
</a>
</g>
</g>
<!-- Node17 -->
<g id="Node000017" class="node">
<title>Node17</title>
<g id="a_Node000017"><a xlink:href="nvenc__config_8h.html" target="_top" xlink:title="Declarations for NVENC encoder configuration.">
<polygon fill="white" stroke="#666666" points="719.62,-20 608.38,-20 608.38,0 719.62,0 719.62,-20"/>
<text text-anchor="middle" x="664" y="-6.5" font-family="Helvetica,sans-Serif" font-size="10.00">nvenc/nvenc_config.h</text>
</a>
</g>
</g>
<!-- Node12&#45;&gt;Node17 -->
<g id="edge18_Node000012_Node000017" class="edge">
<title>Node12&#45;&gt;Node17</title>
<g id="a_edge18_Node000012_Node000017"><a xlink:title=" ">
<path fill="none" stroke="#63b8ff" d="M617.75,-55.59C625.62,-48.01 636.9,-37.13 646.35,-28.02"/>
<polygon fill="#63b8ff" stroke="#63b8ff" points="648.5,-30.81 653.27,-21.35 643.64,-25.77 648.5,-30.81"/>
</a>
</g>
</g>
<!-- Node18&#45;&gt;Node12 -->
<g id="edge22_Node000018_Node000012" class="edge">
<title>Node18&#45;&gt;Node12</title>
<g id="a_edge22_Node000018_Node000012"><a xlink:title=" ">
<path fill="none" stroke="#63b8ff" d="M410.05,-117.76C451.21,-107.2 518.58,-89.93 563.11,-78.51"/>
<polygon fill="#63b8ff" stroke="#63b8ff" points="563.91,-81.92 572.72,-76.05 562.17,-75.14 563.91,-81.92"/>
</a>
</g>
</g>
<!-- Node19 -->
<g id="Node000019" class="node">
<title>Node19</title>
<g id="a_Node000019"><a xlink:title=" ">
<polygon fill="#e0e0e0" stroke="#999999" points="305.5,-76 190.5,-76 190.5,-56 305.5,-56 305.5,-76"/>
<text text-anchor="middle" x="248" y="-62.5" font-family="Helvetica,sans-Serif" font-size="10.00">boost/log/common.hpp</text>
</a>
</g>
</g>
<!-- Node18&#45;&gt;Node19 -->
<g id="edge20_Node000018_Node000019" class="edge">
<title>Node18&#45;&gt;Node19</title>
<g id="a_edge20_Node000018_Node000019"><a xlink:title=" ">
<path fill="none" stroke="#63b8ff" d="M354.31,-117.62C333.79,-107.85 301.37,-92.41 277.72,-81.15"/>
<polygon fill="#63b8ff" stroke="#63b8ff" points="279.45,-78.1 268.92,-76.96 276.44,-84.42 279.45,-78.1"/>
</a>
</g>
</g>
<!-- Node20 -->
<g id="Node000020" class="node">
<title>Node20</title>
<g id="a_Node000020"><a xlink:title=" ">
<polygon fill="#e0e0e0" stroke="#999999" points="424.38,-76 323.62,-76 323.62,-56 424.38,-56 424.38,-76"/>
<text text-anchor="middle" x="374" y="-62.5" font-family="Helvetica,sans-Serif" font-size="10.00">boost/log/sinks.hpp</text>
</a>
</g>
</g>
<!-- Node18&#45;&gt;Node20 -->
<g id="edge21_Node000018_Node000020" class="edge">
<title>Node18&#45;&gt;Node20</title>
<g id="a_edge21_Node000018_Node000020"><a xlink:title=" ">
<path fill="none" stroke="#63b8ff" d="M374,-117.62C374,-109.56 374,-97.65 374,-87.41"/>
<polygon fill="#63b8ff" stroke="#63b8ff" points="377.5,-87.63 374,-77.63 370.5,-87.63 377.5,-87.63"/>
</a>
</g>
</g>
<!-- Node21 -->
<g id="Node000021" class="node">
<title>Node21</title>
<g id="a_Node000021"><a xlink:href="stat__trackers_8h.html" target="_top" xlink:title="Declarations for streaming statistic tracking.">
<polygon fill="white" stroke="#666666" points="172.62,-76 91.38,-76 91.38,-56 172.62,-56 172.62,-76"/>
<text text-anchor="middle" x="132" y="-62.5" font-family="Helvetica,sans-Serif" font-size="10.00">stat_trackers.h</text>
</a>
</g>
</g>
<!-- Node18&#45;&gt;Node21 -->
<g id="edge23_Node000018_Node000021" class="edge">
<title>Node18&#45;&gt;Node21</title>
<g id="a_edge23_Node000018_Node000021"><a xlink:title=" ">
<path fill="none" stroke="#63b8ff" d="M337.77,-118.02C296.11,-107.69 227.51,-90.68 181.08,-79.17"/>
<polygon fill="#63b8ff" stroke="#63b8ff" points="182.09,-75.81 171.55,-76.8 180.41,-82.61 182.09,-75.81"/>
</a>
</g>
</g>
<!-- Node21&#45;&gt;Node8 -->
<g id="edge25_Node000021_Node000008" class="edge">
<title>Node21&#45;&gt;Node8</title>
<g id="a_edge25_Node000021_Node000008"><a xlink:title=" ">
<path fill="none" stroke="#63b8ff" d="M114.06,-55.59C98.35,-47.36 75.27,-35.26 57.11,-25.74"/>
<polygon fill="#63b8ff" stroke="#63b8ff" points="58.9,-22.73 48.42,-21.18 55.65,-28.93 58.9,-22.73"/>
</a>
</g>
</g>
<!-- Node21&#45;&gt;Node13 -->
<g id="edge24_Node000021_Node000013" class="edge">
<title>Node21&#45;&gt;Node13</title>
<g id="a_edge24_Node000021_Node000013"><a xlink:title=" ">
<path fill="none" stroke="#63b8ff" d="M167.01,-55.59C204.06,-45.64 262.13,-30.04 298.84,-20.18"/>
<polygon fill="#63b8ff" stroke="#63b8ff" points="299.75,-23.56 308.5,-17.58 297.93,-16.8 299.75,-23.56"/>
</a>
</g>
</g>
<!-- Node22 -->
<g id="Node000022" class="node">
<title>Node22</title>
<g id="a_Node000022"><a xlink:title=" ">
<polygon fill="#e0e0e0" stroke="#999999" points="229.62,-20 190.38,-20 190.38,0 229.62,0 229.62,-20"/>
<text text-anchor="middle" x="210" y="-6.5" font-family="Helvetica,sans-Serif" font-size="10.00">limits</text>
</a>
</g>
</g>
<!-- Node21&#45;&gt;Node22 -->
<g id="edge26_Node000021_Node000022" class="edge">
<title>Node21&#45;&gt;Node22</title>
<g id="a_edge26_Node000021_Node000022"><a xlink:title=" ">
<path fill="none" stroke="#63b8ff" d="M145.59,-55.59C157.04,-47.67 173.66,-36.16 187.16,-26.82"/>
<polygon fill="#63b8ff" stroke="#63b8ff" points="188.83,-29.91 195.06,-21.34 184.85,-24.16 188.83,-29.91"/>
</a>
</g>
</g>
<!-- Node23 -->
<g id="Node000023" class="node">
<title>Node23</title>
<g id="a_Node000023"><a xlink:title=" ">
<polygon fill="#e0e0e0" stroke="#999999" points="172.75,-20 83.25,-20 83.25,0 172.75,0 172.75,-20"/>
<text text-anchor="middle" x="128" y="-6.5" font-family="Helvetica,sans-Serif" font-size="10.00">boost/format.hpp</text>
</a>
</g>
</g>
<!-- Node21&#45;&gt;Node23 -->
<g id="edge27_Node000021_Node000023" class="edge">
<title>Node21&#45;&gt;Node23</title>
<g id="a_edge27_Node000021_Node000023"><a xlink:title=" ">
<path fill="none" stroke="#63b8ff" d="M131.3,-55.59C130.82,-49.01 130.15,-39.96 129.54,-31.73"/>
<polygon fill="#63b8ff" stroke="#63b8ff" points="133.03,-31.52 128.8,-21.81 126.05,-32.04 133.03,-31.52"/>
</a>
</g>
</g>
<!-- Node24&#45;&gt;Node8 -->
<g id="edge32_Node000024_Node000008" class="edge">
<title>Node24&#45;&gt;Node8</title>
<g id="a_edge32_Node000024_Node000008"><a xlink:title=" ">
<path fill="none" stroke="#63b8ff" d="M1067.78,-122.31C1033.84,-119.01 986.59,-114.71 945,-112 849.23,-105.76 167.82,-118.97 82,-76 62.51,-66.24 47.7,-45.68 38.75,-30.28"/>
<polygon fill="#63b8ff" stroke="#63b8ff" points="41.85,-28.66 34.01,-21.53 35.7,-31.99 41.85,-28.66"/>
</a>
</g>
</g>
<!-- Node24&#45;&gt;Node9 -->
<g id="edge34_Node000024_Node000009" class="edge">
<title>Node24&#45;&gt;Node9</title>
<g id="a_edge34_Node000024_Node000009"><a xlink:title=" ">
<path fill="none" stroke="#63b8ff" d="M1094.05,-117.61C1074.71,-108.15 1044.88,-92.62 1021,-76 999.92,-61.33 977.96,-41.71 963.29,-27.87"/>
<polygon fill="#63b8ff" stroke="#63b8ff" points="965.91,-25.54 956.27,-21.15 961.07,-30.59 965.91,-25.54"/>
</a>
</g>
</g>
<!-- Node24&#45;&gt;Node16 -->
<g id="edge35_Node000024_Node000016" class="edge">
<title>Node24&#45;&gt;Node16</title>
<g id="a_edge35_Node000024_Node000016"><a xlink:title=" ">
<path fill="none" stroke="#63b8ff" d="M1089.78,-117.51C1036.72,-96.72 910.24,-47.15 850.41,-23.7"/>
<polygon fill="#63b8ff" stroke="#63b8ff" points="851.71,-20.45 841.12,-20.06 849.16,-26.97 851.71,-20.45"/>
</a>
</g>
</g>
<!-- Node25 -->
<g id="Node000025" class="node">
<title>Node25</title>
<g id="a_Node000025"><a xlink:title=" ">
<polygon fill="#e0e0e0" stroke="#999999" points="1286.88,-76 1249.12,-76 1249.12,-56 1286.88,-56 1286.88,-76"/>
<text text-anchor="middle" x="1268" y="-62.5" font-family="Helvetica,sans-Serif" font-size="10.00">array</text>
</a>
</g>
</g>
<!-- Node24&#45;&gt;Node25 -->
<g id="edge29_Node000024_Node000025" class="edge">
<title>Node24&#45;&gt;Node25</title>
<g id="a_edge29_Node000024_Node000025"><a xlink:title=" ">
<path fill="none" stroke="#63b8ff" d="M1138.06,-117.62C1165.22,-107.05 1209.4,-89.83 1238.58,-78.46"/>
<polygon fill="#63b8ff" stroke="#63b8ff" points="1239.5,-81.86 1247.55,-74.97 1236.96,-75.34 1239.5,-81.86"/>
</a>
</g>
</g>
<!-- Node26 -->
<g id="Node000026" class="node">
<title>Node26</title>
<g id="a_Node000026"><a xlink:title=" ">
<polygon fill="#e0e0e0" stroke="#999999" points="1192.62,-76 1147.38,-76 1147.38,-56 1192.62,-56 1192.62,-76"/>
<text text-anchor="middle" x="1170" y="-62.5" font-family="Helvetica,sans-Serif" font-size="10.00">atomic</text>
</a>
</g>
</g>
<!-- Node24&#45;&gt;Node26 -->
<g id="edge30_Node000024_Node000026" class="edge">
<title>Node24&#45;&gt;Node26</title>
<g id="a_edge30_Node000024_Node000026"><a xlink:title=" ">
<path fill="none" stroke="#63b8ff" d="M1122.75,-117.62C1131.02,-108.77 1143.62,-95.26 1153.74,-84.43"/>
<polygon fill="#63b8ff" stroke="#63b8ff" points="1156.2,-86.92 1160.46,-77.22 1151.08,-82.14 1156.2,-86.92"/>
</a>
</g>
</g>
<!-- Node27 -->
<g id="Node000027" class="node">
<title>Node27</title>
<g id="a_Node000027"><a xlink:title=" ">
<polygon fill="#e0e0e0" stroke="#999999" points="1519,-20 1425,-20 1425,0 1519,0 1519,-20"/>
<text text-anchor="middle" x="1472" y="-6.5" font-family="Helvetica,sans-Serif" font-size="10.00">condition_variable</text>
</a>
</g>
</g>
<!-- Node24&#45;&gt;Node27 -->
<g id="edge31_Node000024_Node000027" class="edge">
<title>Node24&#45;&gt;Node27</title>
<g id="a_edge31_Node000024_Node000027"><a xlink:title=" ">
<path fill="none" stroke="#63b8ff" d="M1130.1,-117.55C1161.42,-99.21 1228.51,-60.22 1240,-56 1256.12,-50.07 1350.41,-32.65 1413.71,-21.3"/>
<polygon fill="#63b8ff" stroke="#63b8ff" points="1414.04,-24.8 1423.26,-19.59 1412.81,-17.91 1414.04,-24.8"/>
</a>
</g>
</g>
<!-- Node28 -->
<g id="Node000028" class="node">
<title>Node28</title>
<g id="a_Node000028"><a xlink:title=" ">
<polygon fill="#e0e0e0" stroke="#999999" points="1129.38,-76 1094.62,-76 1094.62,-56 1129.38,-56 1129.38,-76"/>
<text text-anchor="middle" x="1112" y="-62.5" font-family="Helvetica,sans-Serif" font-size="10.00">map</text>
</a>
</g>
</g>
<!-- Node24&#45;&gt;Node28 -->
<g id="edge33_Node000024_Node000028" class="edge">
<title>Node24&#45;&gt;Node28</title>
<g id="a_edge33_Node000024_Node000028"><a xlink:title=" ">
<path fill="none" stroke="#63b8ff" d="M1113.69,-117.62C1113.42,-109.56 1113.02,-97.65 1112.68,-87.41"/>
<polygon fill="#63b8ff" stroke="#63b8ff" points="1116.19,-87.5 1112.35,-77.63 1109.19,-87.74 1116.19,-87.5"/>
</a>
</g>
</g>
<!-- Node24&#45;&gt;Node29 -->
<g id="edge36_Node000024_Node000029" class="edge">
<title>Node24&#45;&gt;Node29</title>
<g id="a_edge36_Node000024_Node000029"><a xlink:title=" ">
<path fill="none" stroke="#63b8ff" d="M1104.47,-117.62C1095.37,-108.68 1081.46,-94.99 1070.39,-84.1"/>
<polygon fill="#63b8ff" stroke="#63b8ff" points="1072.93,-81.69 1063.34,-77.17 1068.02,-86.68 1072.93,-81.69"/>
</a>
</g>
</g>
<!-- Node29&#45;&gt;Node9 -->
<g id="edge40_Node000029_Node000009" class="edge">
<title>Node29&#45;&gt;Node9</title>
<g id="a_edge40_Node000029_Node000009"><a xlink:title=" ">
<path fill="none" stroke="#63b8ff" d="M1034.36,-55.59C1017.97,-47.32 993.84,-35.14 974.94,-25.6"/>
<polygon fill="#63b8ff" stroke="#63b8ff" points="976.64,-22.54 966.13,-21.16 973.49,-28.79 976.64,-22.54"/>
</a>
</g>
</g>
<!-- Node29&#45;&gt;Node10 -->
<g id="edge43_Node000029_Node000010" class="edge">
<title>Node29&#45;&gt;Node10</title>
<g id="a_edge43_Node000029_Node000010"><a xlink:title=" ">
<path fill="none" stroke="#63b8ff" d="M1029.41,-61.99C984.61,-56.06 883.99,-41.74 789.17,-19.99"/>
<polygon fill="#63b8ff" stroke="#63b8ff" points="790.25,-16.65 779.72,-17.79 788.66,-23.46 790.25,-16.65"/>
</a>
</g>
</g>
<!-- Node29&#45;&gt;Node14 -->
<g id="edge41_Node000029_Node000014" class="edge">
<title>Node29&#45;&gt;Node14</title>
<g id="a_edge41_Node000029_Node000014"><a xlink:title=" ">
<path fill="none" stroke="#63b8ff" d="M1029.22,-57.49C1000.37,-48.38 951.42,-32.92 917.95,-22.35"/>
<polygon fill="#63b8ff" stroke="#63b8ff" points="919.28,-19.1 908.69,-19.43 917.17,-25.78 919.28,-19.1"/>
</a>
</g>
</g>
<!-- Node29&#45;&gt;Node16 -->
<g id="edge47_Node000029_Node000016" class="edge">
<title>Node29&#45;&gt;Node16</title>
<g id="a_edge47_Node000029_Node000016"><a xlink:title=" ">
<path fill="none" stroke="#63b8ff" d="M1029.19,-60.38C992.7,-53.17 920.57,-38.41 850.65,-20.55"/>
<polygon fill="#63b8ff" stroke="#63b8ff" points="851.92,-17.27 841.37,-18.16 850.17,-24.05 851.92,-17.27"/>
</a>
</g>
</g>
<!-- Node29&#45;&gt;Node27 -->
<g id="edge38_Node000029_Node000027" class="edge">
<title>Node29&#45;&gt;Node27</title>
<g id="a_edge38_Node000029_Node000027"><a xlink:title=" ">
<path fill="none" stroke="#63b8ff" d="M1076.69,-58.06C1079.8,-57.29 1082.97,-56.58 1086,-56 1227.41,-29.18 1267.83,-39.19 1413.53,-20.26"/>
<polygon fill="#63b8ff" stroke="#63b8ff" points="1413.71,-23.76 1423.17,-18.98 1412.79,-16.82 1413.71,-23.76"/>
</a>
</g>
</g>
<!-- Node30 -->
<g id="Node000030" class="node">
<title>Node30</title>
<g id="a_Node000030"><a xlink:title=" ">
<polygon fill="#e0e0e0" stroke="#999999" points="1040.88,-20 985.12,-20 985.12,0 1040.88,0 1040.88,-20"/>
<text text-anchor="middle" x="1013" y="-6.5" font-family="Helvetica,sans-Serif" font-size="10.00">algorithm</text>
</a>
</g>
</g>
<!-- Node29&#45;&gt;Node30 -->
<g id="edge37_Node000029_Node000030" class="edge">
<title>Node29&#45;&gt;Node30</title>
<g id="a_edge37_Node000029_Node000030"><a xlink:title=" ">
<path fill="none" stroke="#63b8ff" d="M1046.03,-55.59C1040.7,-48.39 1033.17,-38.23 1026.65,-29.43"/>
<polygon fill="#63b8ff" stroke="#63b8ff" points="1029.55,-27.47 1020.79,-21.51 1023.93,-31.63 1029.55,-27.47"/>
</a>
</g>
</g>
<!-- Node31 -->
<g id="Node000031" class="node">
<title>Node31</title>
<g id="a_Node000031"><a xlink:title=" ">
<polygon fill="#e0e0e0" stroke="#999999" points="1110.62,-20 1059.38,-20 1059.38,0 1110.62,0 1110.62,-20"/>
<text text-anchor="middle" x="1085" y="-6.5" font-family="Helvetica,sans-Serif" font-size="10.00">memory</text>
</a>
</g>
</g>
<!-- Node29&#45;&gt;Node31 -->
<g id="edge39_Node000029_Node000031" class="edge">
<title>Node29&#45;&gt;Node31</title>
<g id="a_edge39_Node000029_Node000031"><a xlink:title=" ">
<path fill="none" stroke="#63b8ff" d="M1058.57,-55.59C1062.75,-48.55 1068.6,-38.67 1073.74,-30"/>
<polygon fill="#63b8ff" stroke="#63b8ff" points="1076.63,-31.99 1078.72,-21.6 1070.61,-28.42 1076.63,-31.99"/>
</a>
</g>
</g>
<!-- Node32 -->
<g id="Node000032" class="node">
<title>Node32</title>
<g id="a_Node000032"><a xlink:title=" ">
<polygon fill="#e0e0e0" stroke="#999999" points="1179.62,-20 1128.38,-20 1128.38,0 1179.62,0 1179.62,-20"/>
<text text-anchor="middle" x="1154" y="-6.5" font-family="Helvetica,sans-Serif" font-size="10.00">ostream</text>
</a>
</g>
</g>
<!-- Node29&#45;&gt;Node32 -->
<g id="edge42_Node000029_Node000032" class="edge">
<title>Node29&#45;&gt;Node32</title>
<g id="a_edge42_Node000029_Node000032"><a xlink:title=" ">
<path fill="none" stroke="#63b8ff" d="M1070.59,-55.59C1085.92,-47.4 1108.42,-35.37 1126.19,-25.87"/>
<polygon fill="#63b8ff" stroke="#63b8ff" points="1127.77,-28.99 1134.94,-21.19 1124.47,-22.82 1127.77,-28.99"/>
</a>
</g>
</g>
<!-- Node33 -->
<g id="Node000033" class="node">
<title>Node33</title>
<g id="a_Node000033"><a xlink:title=" ">
<polygon fill="#e0e0e0" stroke="#999999" points="1262.75,-20 1197.25,-20 1197.25,0 1262.75,0 1262.75,-20"/>
<text text-anchor="middle" x="1230" y="-6.5" font-family="Helvetica,sans-Serif" font-size="10.00">string_view</text>
</a>
</g>
</g>
<!-- Node29&#45;&gt;Node33 -->
<g id="edge44_Node000029_Node000033" class="edge">
<title>Node29&#45;&gt;Node33</title>
<g id="a_edge44_Node000029_Node000033"><a xlink:title=" ">
<path fill="none" stroke="#63b8ff" d="M1076.87,-57.72C1105.4,-49.01 1153.61,-34.3 1188.33,-23.71"/>
<polygon fill="#63b8ff" stroke="#63b8ff" points="1189.09,-27.14 1197.64,-20.87 1187.05,-20.44 1189.09,-27.14"/>
</a>
</g>
</g>
<!-- Node34 -->
<g id="Node000034" class="node">
<title>Node34</title>
<g id="a_Node000034"><a xlink:title=" ">
<polygon fill="#e0e0e0" stroke="#999999" points="1342.88,-20 1281.12,-20 1281.12,0 1342.88,0 1342.88,-20"/>
<text text-anchor="middle" x="1312" y="-6.5" font-family="Helvetica,sans-Serif" font-size="10.00">type_traits</text>
</a>
</g>
</g>
<!-- Node29&#45;&gt;Node34 -->
<g id="edge45_Node000029_Node000034" class="edge">
<title>Node29&#45;&gt;Node34</title>
<g id="a_edge45_Node000029_Node000034"><a xlink:title=" ">
<path fill="none" stroke="#63b8ff" d="M1076.74,-58.3C1079.85,-57.49 1082.99,-56.7 1086,-56 1164.56,-37.71 1187.67,-37.25 1269.85,-20.38"/>
<polygon fill="#63b8ff" stroke="#63b8ff" points="1270.45,-23.84 1279.53,-18.38 1269.03,-16.98 1270.45,-23.84"/>
</a>
</g>
</g>
<!-- Node35 -->
<g id="Node000035" class="node">
<title>Node35</title>
<g id="a_Node000035"><a xlink:title=" ">
<polygon fill="#e0e0e0" stroke="#999999" points="1406.62,-20 1361.38,-20 1361.38,0 1406.62,0 1406.62,-20"/>
<text text-anchor="middle" x="1384" y="-6.5" font-family="Helvetica,sans-Serif" font-size="10.00">variant</text>
</a>
</g>
</g>
<!-- Node29&#45;&gt;Node35 -->
<g id="edge46_Node000029_Node000035" class="edge">
<title>Node29&#45;&gt;Node35</title>
<g id="a_edge46_Node000029_Node000035"><a xlink:title=" ">
<path fill="none" stroke="#63b8ff" d="M1076.7,-58.13C1079.82,-57.35 1082.97,-56.61 1086,-56 1199.37,-32.97 1233.15,-43.52 1349.85,-20.17"/>
<polygon fill="#63b8ff" stroke="#63b8ff" points="1350.45,-23.62 1359.54,-18.18 1349.04,-16.76 1350.45,-23.62"/>
</a>
</g>
</g>
<!-- Node37 -->
<g id="Node000037" class="node">
<title>Node37</title>
<g id="a_Node000037"><a xlink:title=" ">
<polygon fill="#e0e0e0" stroke="#999999" points="1392.62,-76 1305.38,-76 1305.38,-56 1392.62,-56 1392.62,-76"/>
<text text-anchor="middle" x="1349" y="-62.5" font-family="Helvetica,sans-Serif" font-size="10.00">libavutil/pixfmt.h</text>
</a>
</g>
</g>
<!-- Node36&#45;&gt;Node37 -->
<g id="edge50_Node000036_Node000037" class="edge">
<title>Node36&#45;&gt;Node37</title>
<g id="a_edge50_Node000036_Node000037"><a xlink:title=" ">
<path fill="none" stroke="#63b8ff" d="M1348.16,-117.62C1348.29,-109.56 1348.49,-97.65 1348.66,-87.41"/>
<polygon fill="#63b8ff" stroke="#63b8ff" points="1352.16,-87.68 1348.82,-77.63 1345.16,-87.57 1352.16,-87.68"/>
</a>
</g>
</g>
<!-- Node39&#45;&gt;Node25 -->
<g id="edge56_Node000039_Node000025" class="edge">
<title>Node39&#45;&gt;Node25</title>
<g id="a_edge56_Node000039_Node000025"><a xlink:title=" ">
<path fill="none" stroke="#63b8ff" d="M1429.05,-117.57C1424.46,-115.63 1419.6,-113.67 1415,-112 1366.33,-94.27 1350.69,-92.61 1298.26,-76.63"/>
<polygon fill="#63b8ff" stroke="#63b8ff" points="1299.3,-73.29 1288.71,-73.69 1297.24,-79.98 1299.3,-73.29"/>
</a>
</g>
</g>
<!-- Node39&#45;&gt;Node29 -->
<g id="edge61_Node000039_Node000029" class="edge">
<title>Node39&#45;&gt;Node29</title>
<g id="a_edge61_Node000039_Node000029"><a xlink:title=" ">
<path fill="none" stroke="#63b8ff" d="M1430.74,-117.54C1425.72,-115.41 1420.24,-113.38 1415,-112 1276.21,-75.53 1232.63,-102.07 1087.76,-76"/>
<polygon fill="#63b8ff" stroke="#63b8ff" points="1088.65,-72.6 1078.18,-74.22 1087.37,-79.49 1088.65,-72.6"/>
</a>
</g>
</g>
<!-- Node40 -->
<g id="Node000040" class="node">
<title>Node40</title>
<g id="a_Node000040"><a xlink:title=" ">
<polygon fill="#e0e0e0" stroke="#999999" points="1487.38,-76 1410.62,-76 1410.62,-56 1487.38,-56 1487.38,-76"/>
<text text-anchor="middle" x="1449" y="-62.5" font-family="Helvetica,sans-Serif" font-size="10.00">openssl/evp.h</text>
</a>
</g>
</g>
<!-- Node39&#45;&gt;Node40 -->
<g id="edge57_Node000039_Node000040" class="edge">
<title>Node39&#45;&gt;Node40</title>
<g id="a_edge57_Node000039_Node000040"><a xlink:title=" ">
<path fill="none" stroke="#63b8ff" d="M1449.84,-117.62C1449.71,-109.56 1449.51,-97.65 1449.34,-87.41"/>
<polygon fill="#63b8ff" stroke="#63b8ff" points="1452.84,-87.57 1449.18,-77.63 1445.84,-87.68 1452.84,-87.57"/>
</a>
</g>
</g>
<!-- Node41 -->
<g id="Node000041" class="node">
<title>Node41</title>
<g id="a_Node000041"><a xlink:title=" ">
<polygon fill="#e0e0e0" stroke="#999999" points="1584.88,-76 1505.12,-76 1505.12,-56 1584.88,-56 1584.88,-76"/>
<text text-anchor="middle" x="1545" y="-62.5" font-family="Helvetica,sans-Serif" font-size="10.00">openssl/rand.h</text>
</a>
</g>
</g>
<!-- Node39&#45;&gt;Node41 -->
<g id="edge58_Node000039_Node000041" class="edge">
<title>Node39&#45;&gt;Node41</title>
<g id="a_edge58_Node000039_Node000041"><a xlink:title=" ">
<path fill="none" stroke="#63b8ff" d="M1464.84,-117.62C1479.76,-108.2 1503.01,-93.52 1520.64,-82.39"/>
<polygon fill="#63b8ff" stroke="#63b8ff" points="1522.39,-85.42 1528.98,-77.12 1518.66,-79.5 1522.39,-85.42"/>
</a>
</g>
</g>
<!-- Node42 -->
<g id="Node000042" class="node">
<title>Node42</title>
<g id="a_Node000042"><a xlink:title=" ">
<polygon fill="#e0e0e0" stroke="#999999" points="1679.38,-76 1602.62,-76 1602.62,-56 1679.38,-56 1679.38,-76"/>
<text text-anchor="middle" x="1641" y="-62.5" font-family="Helvetica,sans-Serif" font-size="10.00">openssl/sha.h</text>
</a>
</g>
</g>
<!-- Node39&#45;&gt;Node42 -->
<g id="edge59_Node000039_Node000042" class="edge">
<title>Node39&#45;&gt;Node42</title>
<g id="a_edge59_Node000039_Node000042"><a xlink:title=" ">
<path fill="none" stroke="#63b8ff" d="M1475.76,-118.91C1507.73,-108.86 1562.64,-91.62 1600.32,-79.78"/>
<polygon fill="#63b8ff" stroke="#63b8ff" points="1601.01,-83.23 1609.5,-76.9 1598.91,-76.55 1601.01,-83.23"/>
</a>
</g>
</g>
<!-- Node43 -->
<g id="Node000043" class="node">
<title>Node43</title>
<g id="a_Node000043"><a xlink:title=" ">
<polygon fill="#e0e0e0" stroke="#999999" points="1779,-76 1697,-76 1697,-56 1779,-56 1779,-76"/>
<text text-anchor="middle" x="1738" y="-62.5" font-family="Helvetica,sans-Serif" font-size="10.00">openssl/x509.h</text>
</a>
</g>
</g>
<!-- Node39&#45;&gt;Node43 -->
<g id="edge60_Node000039_Node000043" class="edge">
<title>Node39&#45;&gt;Node43</title>
<g id="a_edge60_Node000039_Node000043"><a xlink:title=" ">
<path fill="none" stroke="#63b8ff" d="M1476.07,-121.57C1523.25,-111.74 1623.67,-90.82 1685.55,-77.93"/>
<polygon fill="#63b8ff" stroke="#63b8ff" points="1686.08,-81.39 1695.15,-75.93 1684.65,-74.54 1686.08,-81.39"/>
</a>
</g>
</g>
<!-- Node44&#45;&gt;Node5 -->
<g id="edge67_Node000044_Node000005" class="edge">
<title>Node44&#45;&gt;Node5</title>
<g id="a_edge67_Node000044_Node000005"><a xlink:title=" ">
<path fill="none" stroke="#63b8ff" d="M1132.96,-295.39C1102.75,-287.99 1049.55,-273.8 1006,-256 970.94,-241.68 932.69,-220.51 908.3,-206.26"/>
<polygon fill="#63b8ff" stroke="#63b8ff" points="910.14,-203.28 899.75,-201.21 906.57,-209.31 910.14,-203.28"/>
</a>
</g>
</g>
<!-- Node44&#45;&gt;Node24 -->
<g id="edge68_Node000044_Node000024" class="edge">
<title>Node44&#45;&gt;Node24</title>
<g id="a_edge68_Node000044_Node000024"><a xlink:title=" ">
<path fill="none" stroke="#63b8ff" d="M1151.15,-291.72C1145.85,-282.88 1138.23,-269.02 1134,-256 1122.19,-219.68 1117.23,-175.18 1115.24,-149.66"/>
<polygon fill="#63b8ff" stroke="#63b8ff" points="1118.76,-149.72 1114.58,-139.99 1111.77,-150.21 1118.76,-149.72"/>
</a>
</g>
</g>
<!-- Node44&#45;&gt;Node36 -->
<g id="edge69_Node000044_Node000036" class="edge">
<title>Node44&#45;&gt;Node36</title>
<g id="a_edge69_Node000044_Node000036"><a xlink:title=" ">
<path fill="none" stroke="#63b8ff" d="M1180.99,-300.08C1235.04,-297.46 1363.64,-287.93 1390,-256 1416.73,-223.62 1384.75,-173.63 1363.66,-147.06"/>
<polygon fill="#63b8ff" stroke="#63b8ff" points="1366.54,-145.05 1357.48,-139.57 1361.15,-149.51 1366.54,-145.05"/>
</a>
</g>
</g>
<!-- Node45 -->
<g id="Node000045" class="node">
<title>Node45</title>
<g id="a_Node000045"><a xlink:href="input_8h.html" target="_top" xlink:title="Declarations for gamepad, keyboard, and mouse input handling.">
<polygon fill="white" stroke="#666666" points="919.62,-256 874.38,-256 874.38,-236 919.62,-236 919.62,-256"/>
<text text-anchor="middle" x="897" y="-242.5" font-family="Helvetica,sans-Serif" font-size="10.00">input.h</text>
</a>
</g>
</g>
<!-- Node44&#45;&gt;Node45 -->
<g id="edge63_Node000044_Node000045" class="edge">
<title>Node44&#45;&gt;Node45</title>
<g id="a_edge63_Node000044_Node000045"><a xlink:title=" ">
<path fill="none" stroke="#63b8ff" d="M1133.01,-296.02C1086.61,-286.38 984.46,-265.17 931.05,-254.07"/>
<polygon fill="#63b8ff" stroke="#63b8ff" points="931.8,-250.65 921.3,-252.05 930.38,-257.51 931.8,-250.65"/>
</a>
</g>
</g>
<!-- Node46 -->
<g id="Node000046" class="node">
<title>Node46</title>
<g id="a_Node000046"><a xlink:title=" ">
<polygon fill="#e0e0e0" stroke="#999999" points="1253.25,-256 1142.75,-256 1142.75,-236 1253.25,-236 1253.25,-256"/>
<text text-anchor="middle" x="1198" y="-242.5" font-family="Helvetica,sans-Serif" font-size="10.00">libavcodec/avcodec.h</text>
</a>
</g>
</g>
<!-- Node44&#45;&gt;Node46 -->
<g id="edge70_Node000044_Node000046" class="edge">
<title>Node44&#45;&gt;Node46</title>
<g id="a_edge70_Node000044_Node000046"><a xlink:title=" ">
<path fill="none" stroke="#63b8ff" d="M1164.14,-291.59C1169.61,-284.39 1177.32,-274.23 1184.01,-265.43"/>
<polygon fill="#63b8ff" stroke="#63b8ff" points="1186.77,-267.58 1190.02,-257.5 1181.19,-263.35 1186.77,-267.58"/>
</a>
</g>
</g>
<!-- Node47 -->
<g id="Node000047" class="node">
<title>Node47</title>
<g id="a_Node000047"><a xlink:title=" ">
<polygon fill="#e0e0e0" stroke="#999999" points="1380.5,-256 1271.5,-256 1271.5,-236 1380.5,-236 1380.5,-256"/>
<text text-anchor="middle" x="1326" y="-242.5" font-family="Helvetica,sans-Serif" font-size="10.00">libswscale/swscale.h</text>
</a>
</g>
</g>
<!-- Node44&#45;&gt;Node47 -->
<g id="edge71_Node000044_Node000047" class="edge">
<title>Node44&#45;&gt;Node47</title>
<g id="a_edge71_Node000044_Node000047"><a xlink:title=" ">
<path fill="none" stroke="#63b8ff" d="M1181.21,-293.26C1208.4,-284.58 1252.96,-270.34 1285.48,-259.95"/>
<polygon fill="#63b8ff" stroke="#63b8ff" points="1286.53,-263.29 1294.99,-256.91 1284.4,-256.62 1286.53,-263.29"/>
</a>
</g>
</g>
<!-- Node45&#45;&gt;Node5 -->
<g id="edge65_Node000045_Node000005" class="edge">
<title>Node45&#45;&gt;Node5</title>
<g id="a_edge65_Node000045_Node000005"><a xlink:title=" ">
<path fill="none" stroke="#63b8ff" d="M894.56,-235.59C892.83,-228.93 890.45,-219.75 888.3,-211.44"/>
<polygon fill="#63b8ff" stroke="#63b8ff" points="891.69,-210.56 885.79,-201.76 884.91,-212.32 891.69,-210.56"/>
</a>
</g>
</g>
<!-- Node45&#45;&gt;Node8 -->
<g id="edge64_Node000045_Node000008" class="edge">
<title>Node45&#45;&gt;Node8</title>
<g id="a_edge64_Node000045_Node000008"><a xlink:title=" ">
<path fill="none" stroke="#63b8ff" d="M874.15,-244.1C759.15,-239.28 243.53,-214.05 102,-144 63.97,-125.18 52.88,-114.48 35,-76 28.56,-62.14 27.24,-44.84 27.43,-31.57"/>
<polygon fill="#63b8ff" stroke="#63b8ff" points="30.92,-32 27.89,-21.84 23.92,-31.67 30.92,-32"/>
</a>
</g>
</g>
<!-- Node45&#45;&gt;Node24 -->
<g id="edge66_Node000045_Node000024" class="edge">
<title>Node45&#45;&gt;Node24</title>
<g id="a_edge66_Node000045_Node000024"><a xlink:title=" ">
<path fill="none" stroke="#63b8ff" d="M914.76,-235.51C952.52,-215.32 1041.05,-168 1086.3,-143.81"/>
<polygon fill="#63b8ff" stroke="#63b8ff" points="1087.8,-146.98 1094.97,-139.17 1084.5,-140.8 1087.8,-146.98"/>
</a>
</g>
</g>
</g>
</svg>
