<?xml version="1.0" encoding="UTF-8" standalone="no"?>
<!DOCTYPE svg PUBLIC "-//W3C//DTD SVG 1.1//EN"
 "http://www.w3.org/Graphics/SVG/1.1/DTD/svg11.dtd">
<!-- Generated by graphviz version 12.2.1 (0)
 -->
<!-- Title: platf::img_t Pages: 1 -->
<!--zoomable 332 -->

<svg id="main" version="1.1" xmlns="http://www.w3.org/2000/svg" xmlns:xlink="http://www.w3.org/1999/xlink" xml:space="preserve" onload="init(evt)">

<style type="text/css"><![CDATA[
.node, .edge {opacity: 0.7;}
.node.selected, .edge.selected {opacity: 1;}
.edge:hover path { stroke: red; }
.edge:hover polygon { stroke: red; fill: red; }
]]></style>

<defs>
  <circle id="rim" cx="0" cy="0" r="7"/>
  <circle id="rim2" cx="0" cy="0" r="3.5"/>
  <g id="zoomPlus">
    <use xlink:href="#rim" fill="#404040"><set attributeName="fill" to="#808080" begin="zoomplus.mouseover" end="zoomplus.mouseout"/></use>
    <path d="M-4,0h8M0,-4v8" fill="none" stroke="white" stroke-width="1.5" pointer-events="none"/>
  </g>
  <g id="zoomMin">
    <use xlink:href="#rim" fill="#404040"><set attributeName="fill" to="#808080" begin="zoomminus.mouseover" end="zoomminus.mouseout"/></use>
    <path d="M-4,0h8" fill="none" stroke="white" stroke-width="1.5" pointer-events="none"/>
  </g>
  <g id="arrowUp" transform="translate(30 24)">
    <use xlink:href="#rim"/>
    <path pointer-events="none" fill="none" stroke="white" stroke-width="1.5" d="M0,-3.0v7 M-2.5,-0.5L0,-3.0L2.5,-0.5"/>
  </g>
  <g id="arrowRight" transform="rotate(90) translate(36 -43)">
    <use xlink:href="#rim"/>
    <path pointer-events="none" fill="none" stroke="white" stroke-width="1.5" d="M0,-3.0v7 M-2.5,-0.5L0,-3.0L2.5,-0.5"/>
  </g>
  <g id="arrowDown" transform="rotate(180) translate(-30 -48)">
    <use xlink:href="#rim"/>
    <path pointer-events="none" fill="none" stroke="white" stroke-width="1.5" d="M0,-3.0v7 M-2.5,-0.5L0,-3.0L2.5,-0.5"/>
  </g>
  <g id="arrowLeft" transform="rotate(270) translate(-36 17)">
    <use xlink:href="#rim"/>
    <path pointer-events="none" fill="none" stroke="white" stroke-width="1.5" d="M0,-3.0v7 M-2.5,-0.5L0,-3.0L2.5,-0.5"/>
  </g>
  <g id="resetDef">
    <use xlink:href="#rim2" fill="#404040"><set attributeName="fill" to="#808080" begin="reset.mouseover" end="reset.mouseout"/></use>
  </g>
</defs>
<script type="application/ecmascript">
var viewWidth = 505;
var viewHeight = 332;
var sectionId = 'dynsection-0';
</script>
<script type="application/ecmascript" xlink:href="svg.min.js"/>
<svg id="graph" class="graph">
<g id="viewport">
<title>platf::img_t</title>
<!-- Node1 -->
<g id="Node000001" class="node">
<title>Node1</title>
<g id="a_Node000001"><a xlink:title=" ">
<polygon fill="#999999" stroke="#666666" points="204.5,-172 139.75,-172 139.75,-152 204.5,-152 204.5,-172"/>
<text text-anchor="middle" x="172.12" y="-158.5" font-family="Helvetica,sans-Serif" font-size="10.00">platf::img_t</text>
</a>
</g>
</g>
<!-- Node3 -->
<g id="Node000003" class="node">
<title>Node3</title>
<g id="a_Node000003"><a xlink:href="classcuda_1_1img__t.html" target="_top" xlink:title=" ">
<polygon fill="white" stroke="#bfbfbf" points="330.75,-324 263.75,-324 263.75,-304 330.75,-304 330.75,-324"/>
<text text-anchor="middle" x="297.25" y="-310.5" font-family="Helvetica,sans-Serif" font-size="10.00">cuda::img_t</text>
</a>
</g>
</g>
<!-- Node1&#45;&gt;Node3 -->
<g id="edge2_Node000001_Node000003" class="edge">
<title>Node1&#45;&gt;Node3</title>
<g id="a_edge2_Node000001_Node000003"><a xlink:title=" ">
<path fill="none" stroke="#63b8ff" d="M178.44,-183.29C186.81,-212.51 205.79,-264.85 240.5,-295 246.98,-300.63 255.22,-304.61 263.35,-307.42"/>
<polygon fill="#63b8ff" stroke="#63b8ff" points="181.86,-182.52 175.88,-173.77 175.1,-184.34 181.86,-182.52"/>
</a>
</g>
</g>
<!-- Node4 -->
<g id="Node000004" class="node">
<title>Node4</title>
<g id="a_Node000004"><a xlink:href="classegl_1_1cursor__t.html" target="_top" xlink:title=" ">
<polygon fill="white" stroke="#bfbfbf" points="332.25,-286 262.25,-286 262.25,-266 332.25,-266 332.25,-286"/>
<text text-anchor="middle" x="297.25" y="-272.5" font-family="Helvetica,sans-Serif" font-size="10.00">egl::cursor_t</text>
</a>
</g>
</g>
<!-- Node1&#45;&gt;Node4 -->
<g id="edge3_Node000001_Node000004" class="edge">
<title>Node1&#45;&gt;Node4</title>
<g id="a_edge3_Node000001_Node000004"><a xlink:title=" ">
<path fill="none" stroke="#63b8ff" d="M182.93,-182.8C194.06,-204.26 214.13,-237.32 240.5,-257 246.81,-261.71 254.37,-265.3 261.85,-268.03"/>
<polygon fill="#63b8ff" stroke="#63b8ff" points="186.07,-181.25 178.49,-173.85 179.8,-184.36 186.07,-181.25"/>
</a>
</g>
</g>
<!-- Node6 -->
<g id="Node000006" class="node">
<title>Node6</title>
<g id="a_Node000006"><a xlink:href="structplatf_1_1av__img__t.html" target="_top" xlink:title=" ">
<polygon fill="white" stroke="#bfbfbf" points="337.5,-248 257,-248 257,-228 337.5,-228 337.5,-248"/>
<text text-anchor="middle" x="297.25" y="-234.5" font-family="Helvetica,sans-Serif" font-size="10.00">platf::av_img_t</text>
</a>
</g>
</g>
<!-- Node1&#45;&gt;Node6 -->
<g id="edge5_Node000001_Node000006" class="edge">
<title>Node1&#45;&gt;Node6</title>
<g id="a_edge5_Node000001_Node000006"><a xlink:title=" ">
<path fill="none" stroke="#63b8ff" d="M190.66,-180.06C203.5,-192.43 221.87,-208.45 240.5,-219 246.28,-222.28 252.72,-225.11 259.12,-227.52"/>
<polygon fill="#63b8ff" stroke="#63b8ff" points="193.36,-177.81 183.8,-173.25 188.43,-182.78 193.36,-177.81"/>
</a>
</g>
</g>
<!-- Node7 -->
<g id="Node000007" class="node">
<title>Node7</title>
<g id="a_Node000007"><a xlink:href="structplatf_1_1dxgi_1_1img__d3d__t.html" target="_top" xlink:title=" ">
<polygon fill="white" stroke="#bfbfbf" points="352.12,-210 242.38,-210 242.38,-190 352.12,-190 352.12,-210"/>
<text text-anchor="middle" x="297.25" y="-196.5" font-family="Helvetica,sans-Serif" font-size="10.00">platf::dxgi::img_d3d_t</text>
</a>
</g>
</g>
<!-- Node1&#45;&gt;Node7 -->
<g id="edge6_Node000001_Node000007" class="edge">
<title>Node1&#45;&gt;Node7</title>
<g id="a_edge6_Node000001_Node000007"><a xlink:title=" ">
<path fill="none" stroke="#63b8ff" d="M215.62,-175.12C230.94,-179.84 248.02,-185.11 262.49,-189.58"/>
<polygon fill="#63b8ff" stroke="#63b8ff" points="216.87,-171.84 206.28,-172.23 214.8,-178.53 216.87,-171.84"/>
</a>
</g>
</g>
<!-- Node8 -->
<g id="Node000008" class="node">
<title>Node8</title>
<g id="a_Node000008"><a xlink:href="structplatf_1_1dxgi_1_1img__t.html" target="_top" xlink:title=" ">
<polygon fill="white" stroke="#bfbfbf" points="341.62,-172 252.88,-172 252.88,-152 341.62,-152 341.62,-172"/>
<text text-anchor="middle" x="297.25" y="-158.5" font-family="Helvetica,sans-Serif" font-size="10.00">platf::dxgi::img_t</text>
</a>
</g>
</g>
<!-- Node1&#45;&gt;Node8 -->
<g id="edge7_Node000001_Node000008" class="edge">
<title>Node1&#45;&gt;Node8</title>
<g id="a_edge7_Node000001_Node000008"><a xlink:title=" ">
<path fill="none" stroke="#63b8ff" d="M216.21,-162C227.99,-162 240.77,-162 252.59,-162"/>
<polygon fill="#63b8ff" stroke="#63b8ff" points="216.35,-158.5 206.35,-162 216.35,-165.5 216.35,-158.5"/>
</a>
</g>
</g>
<!-- Node9 -->
<g id="Node000009" class="node">
<title>Node9</title>
<g id="a_Node000009"><a xlink:href="structplatf_1_1kms_1_1kms__img__t.html" target="_top" xlink:title=" ">
<polygon fill="white" stroke="#bfbfbf" points="354,-134 240.5,-134 240.5,-114 354,-114 354,-134"/>
<text text-anchor="middle" x="297.25" y="-120.5" font-family="Helvetica,sans-Serif" font-size="10.00">platf::kms::kms_img_t</text>
</a>
</g>
</g>
<!-- Node1&#45;&gt;Node9 -->
<g id="edge8_Node000001_Node000009" class="edge">
<title>Node1&#45;&gt;Node9</title>
<g id="a_edge8_Node000001_Node000009"><a xlink:title=" ">
<path fill="none" stroke="#63b8ff" d="M215.62,-148.88C230.94,-144.16 248.02,-138.89 262.49,-134.42"/>
<polygon fill="#63b8ff" stroke="#63b8ff" points="214.8,-145.47 206.28,-151.77 216.87,-152.16 214.8,-145.47"/>
</a>
</g>
</g>
<!-- Node10 -->
<g id="Node000010" class="node">
<title>Node10</title>
<g id="a_Node000010"><a xlink:href="structplatf_1_1shm__img__t.html" target="_top" xlink:title=" ">
<polygon fill="white" stroke="#bfbfbf" points="341.62,-96 252.88,-96 252.88,-76 341.62,-76 341.62,-96"/>
<text text-anchor="middle" x="297.25" y="-82.5" font-family="Helvetica,sans-Serif" font-size="10.00">platf::shm_img_t</text>
</a>
</g>
</g>
<!-- Node1&#45;&gt;Node10 -->
<g id="edge9_Node000001_Node000010" class="edge">
<title>Node1&#45;&gt;Node10</title>
<g id="a_edge9_Node000001_Node000010"><a xlink:title=" ">
<path fill="none" stroke="#63b8ff" d="M190.66,-143.94C203.5,-131.57 221.87,-115.55 240.5,-105 246.28,-101.72 252.72,-98.89 259.12,-96.48"/>
<polygon fill="#63b8ff" stroke="#63b8ff" points="188.43,-141.22 183.8,-150.75 193.36,-146.19 188.43,-141.22"/>
</a>
</g>
</g>
<!-- Node11 -->
<g id="Node000011" class="node">
<title>Node11</title>
<g id="a_Node000011"><a xlink:href="structplatf_1_1x11__img__t.html" target="_top" xlink:title=" ">
<polygon fill="white" stroke="#bfbfbf" points="339.75,-58 254.75,-58 254.75,-38 339.75,-38 339.75,-58"/>
<text text-anchor="middle" x="297.25" y="-44.5" font-family="Helvetica,sans-Serif" font-size="10.00">platf::x11_img_t</text>
</a>
</g>
</g>
<!-- Node1&#45;&gt;Node11 -->
<g id="edge10_Node000001_Node000011" class="edge">
<title>Node1&#45;&gt;Node11</title>
<g id="a_edge10_Node000001_Node000011"><a xlink:title=" ">
<path fill="none" stroke="#63b8ff" d="M182.93,-141.2C194.06,-119.74 214.13,-86.68 240.5,-67 245.09,-63.57 250.34,-60.74 255.74,-58.4"/>
<polygon fill="#63b8ff" stroke="#63b8ff" points="179.8,-139.64 178.49,-150.15 186.07,-142.75 179.8,-139.64"/>
</a>
</g>
</g>
<!-- Node12 -->
<g id="Node000012" class="node">
<title>Node12</title>
<g id="a_Node000012"><a xlink:href="structwl_1_1img__t.html" target="_top" xlink:title=" ">
<polygon fill="white" stroke="#bfbfbf" points="325.12,-20 269.38,-20 269.38,0 325.12,0 325.12,-20"/>
<text text-anchor="middle" x="297.25" y="-6.5" font-family="Helvetica,sans-Serif" font-size="10.00">wl::img_t</text>
</a>
</g>
</g>
<!-- Node1&#45;&gt;Node12 -->
<g id="edge11_Node000001_Node000012" class="edge">
<title>Node1&#45;&gt;Node12</title>
<g id="a_edge11_Node000001_Node000012"><a xlink:title=" ">
<path fill="none" stroke="#63b8ff" d="M178.44,-140.71C186.81,-111.49 205.79,-59.15 240.5,-29 248.53,-22.03 259.24,-17.58 269.12,-14.77"/>
<polygon fill="#63b8ff" stroke="#63b8ff" points="175.1,-139.66 175.88,-150.23 181.86,-141.48 175.1,-139.66"/>
</a>
</g>
</g>
<!-- Node2 -->
<g id="Node000002" class="node">
<title>Node2</title>
<g id="a_Node000002"><a xlink:title=" ">
<polygon fill="white" stroke="#bfbfbf" points="103.75,-178 0,-178 0,-146 103.75,-146 103.75,-178"/>
<text text-anchor="start" x="8" y="-164.5" font-family="Helvetica,sans-Serif" font-size="10.00">std::enable_shared</text>
<text text-anchor="middle" x="51.88" y="-152.5" font-family="Helvetica,sans-Serif" font-size="10.00">_from_this&lt; img_t &gt;</text>
</a>
</g>
</g>
<!-- Node2&#45;&gt;Node1 -->
<g id="edge1_Node000001_Node000002" class="edge">
<title>Node2&#45;&gt;Node1</title>
<g id="a_edge1_Node000001_Node000002"><a xlink:title=" ">
<path fill="none" stroke="#63b8ff" d="M115.36,-162C123.65,-162 131.86,-162 139.32,-162"/>
<polygon fill="#63b8ff" stroke="#63b8ff" points="115.57,-158.5 105.57,-162 115.57,-165.5 115.57,-158.5"/>
</a>
</g>
</g>
<!-- Node5 -->
<g id="Node000005" class="node">
<title>Node5</title>
<g id="a_Node000005"><a xlink:href="classegl_1_1img__descriptor__t.html" target="_top" xlink:title=" ">
<polygon fill="white" stroke="#bfbfbf" points="496.75,-286 390,-286 390,-266 496.75,-266 496.75,-286"/>
<text text-anchor="middle" x="443.38" y="-272.5" font-family="Helvetica,sans-Serif" font-size="10.00">egl::img_descriptor_t</text>
</a>
</g>
</g>
<!-- Node4&#45;&gt;Node5 -->
<g id="edge4_Node000004_Node000005" class="edge">
<title>Node4&#45;&gt;Node5</title>
<g id="a_edge4_Node000004_Node000005"><a xlink:title=" ">
<path fill="none" stroke="#63b8ff" d="M343.68,-276C358.26,-276 374.52,-276 389.58,-276"/>
<polygon fill="#63b8ff" stroke="#63b8ff" points="343.92,-272.5 333.92,-276 343.92,-279.5 343.92,-272.5"/>
</a>
</g>
</g>
</g>
</svg>

<g id="navigator" transform="translate(0 0)" fill="#404254">
  <rect fill="#f2f5e9" fill-opacity="0.5" stroke="#606060" stroke-width=".5" x="0" y="0" width="60" height="60"/>
  <use id="zoomplus" xlink:href="#zoomPlus" x="17" y="9" onmousedown="handleZoom(evt,'in')"/>
  <use id="zoomminus" xlink:href="#zoomMin" x="42" y="9" onmousedown="handleZoom(evt,'out')"/>
  <use id="reset" xlink:href="#resetDef" x="30" y="36" onmousedown="handleReset()"/>
   <use id="arrowup" xlink:href="#arrowUp" x="0" y="0" onmousedown="handlePan(0,-1)"/>
  <use id="arrowright" xlink:href="#arrowRight" x="0" y="0" onmousedown="handlePan(1,0)"/>
  <use id="arrowdown" xlink:href="#arrowDown" x="0" y="0" onmousedown="handlePan(0,1)"/>
  <use id="arrowleft" xlink:href="#arrowLeft" x="0" y="0" onmousedown="handlePan(-1,0)"/>
</g>
<svg viewBox="0 0 15 15" width="100%" height="30px" preserveAspectRatio="xMaxYMin meet">
 <g id="arrow_out" transform="scale(0.3 0.3)">
  <a xlink:href="structplatf_1_1img__t__inherit__graph_org.svg" target="_base">
   <rect id="button" ry="5" rx="5" y="6" x="6" height="38" width="38"
        fill="#f2f5e9" fill-opacity="0.5" stroke="#606060" stroke-width="1.0"/>
   <path id="arrow"
     d="M 11.500037,31.436501 C 11.940474,20.09759 22.043105,11.32322 32.158766,21.979434 L 37.068811,17.246167 C 37.068811,17.246167 37.088388,32 37.088388,32 L 22.160133,31.978069 C 22.160133,31.978069 26.997745,27.140456 26.997745,27.140456 C 18.528582,18.264221 13.291696,25.230495 11.500037,31.436501 z"
     style="fill:#404040;"/>
  </a>
 </g>
</svg>

<style type='text/css'>
<![CDATA[
[data-mouse-over-selected='false'] { opacity: 0.7; }
[data-mouse-over-selected='true']  { opacity: 1.0; }
]]>
</style>
<script type="application/ecmascript"><![CDATA[
document.addEventListener('DOMContentLoaded', (event) => {
  highlightEdges();
  highlightAdjacentNodes();
});
]]></script>
</svg>
