<?xml version="1.0" encoding="UTF-8" standalone="no"?>
<!DOCTYPE svg PUBLIC "-//W3C//DTD SVG 1.1//EN"
 "http://www.w3.org/Graphics/SVG/1.1/DTD/svg11.dtd">
<!-- Generated by graphviz version 12.2.1 (0)
 -->
<!-- Title: platf::encode_device_t Pages: 1 -->
<!--zoomable 311 -->

<svg id="main" version="1.1" xmlns="http://www.w3.org/2000/svg" xmlns:xlink="http://www.w3.org/1999/xlink" xml:space="preserve" onload="init(evt)">

<style type="text/css"><![CDATA[
.node, .edge {opacity: 0.7;}
.node.selected, .edge.selected {opacity: 1;}
.edge:hover path { stroke: red; }
.edge:hover polygon { stroke: red; fill: red; }
]]></style>

<defs>
  <circle id="rim" cx="0" cy="0" r="7"/>
  <circle id="rim2" cx="0" cy="0" r="3.5"/>
  <g id="zoomPlus">
    <use xlink:href="#rim" fill="#404040"><set attributeName="fill" to="#808080" begin="zoomplus.mouseover" end="zoomplus.mouseout"/></use>
    <path d="M-4,0h8M0,-4v8" fill="none" stroke="white" stroke-width="1.5" pointer-events="none"/>
  </g>
  <g id="zoomMin">
    <use xlink:href="#rim" fill="#404040"><set attributeName="fill" to="#808080" begin="zoomminus.mouseover" end="zoomminus.mouseout"/></use>
    <path d="M-4,0h8" fill="none" stroke="white" stroke-width="1.5" pointer-events="none"/>
  </g>
  <g id="arrowUp" transform="translate(30 24)">
    <use xlink:href="#rim"/>
    <path pointer-events="none" fill="none" stroke="white" stroke-width="1.5" d="M0,-3.0v7 M-2.5,-0.5L0,-3.0L2.5,-0.5"/>
  </g>
  <g id="arrowRight" transform="rotate(90) translate(36 -43)">
    <use xlink:href="#rim"/>
    <path pointer-events="none" fill="none" stroke="white" stroke-width="1.5" d="M0,-3.0v7 M-2.5,-0.5L0,-3.0L2.5,-0.5"/>
  </g>
  <g id="arrowDown" transform="rotate(180) translate(-30 -48)">
    <use xlink:href="#rim"/>
    <path pointer-events="none" fill="none" stroke="white" stroke-width="1.5" d="M0,-3.0v7 M-2.5,-0.5L0,-3.0L2.5,-0.5"/>
  </g>
  <g id="arrowLeft" transform="rotate(270) translate(-36 17)">
    <use xlink:href="#rim"/>
    <path pointer-events="none" fill="none" stroke="white" stroke-width="1.5" d="M0,-3.0v7 M-2.5,-0.5L0,-3.0L2.5,-0.5"/>
  </g>
  <g id="resetDef">
    <use xlink:href="#rim2" fill="#404040"><set attributeName="fill" to="#808080" begin="reset.mouseover" end="reset.mouseout"/></use>
  </g>
</defs>
<script type="application/ecmascript">
var viewWidth = 569;
var viewHeight = 311;
var sectionId = 'dynsection-0';
</script>
<script type="application/ecmascript" xlink:href="svg.min.js"/>
<svg id="graph" class="graph">
<g id="viewport">
<title>platf::encode_device_t</title>
<!-- Node1 -->
<g id="Node000001" class="node">
<title>Node1</title>
<g id="a_Node000001"><a xlink:title=" ">
<polygon fill="#999999" stroke="#666666" points="114.25,-92 0,-92 0,-72 114.25,-72 114.25,-92"/>
<text text-anchor="middle" x="57.12" y="-78.5" font-family="Helvetica,sans-Serif" font-size="10.00">platf::encode_device_t</text>
</a>
</g>
</g>
<!-- Node2 -->
<g id="Node000002" class="node">
<title>Node2</title>
<g id="a_Node000002"><a xlink:href="structplatf_1_1avcodec__encode__device__t.html" target="_top" xlink:title=" ">
<polygon fill="white" stroke="#bfbfbf" points="264.5,-164 150.25,-164 150.25,-132 264.5,-132 264.5,-164"/>
<text text-anchor="start" x="158.25" y="-150.5" font-family="Helvetica,sans-Serif" font-size="10.00">platf::avcodec_encode</text>
<text text-anchor="middle" x="207.38" y="-138.5" font-family="Helvetica,sans-Serif" font-size="10.00">_device_t</text>
</a>
</g>
</g>
<!-- Node1&#45;&gt;Node2 -->
<g id="edge1_Node000001_Node000002" class="edge">
<title>Node1&#45;&gt;Node2</title>
<g id="a_edge1_Node000001_Node000002"><a xlink:title=" ">
<path fill="none" stroke="#63b8ff" d="M91.97,-97.07C115.08,-107.35 145.68,-120.98 169.42,-131.55"/>
<polygon fill="#63b8ff" stroke="#63b8ff" points="93.56,-93.94 83,-93.07 90.71,-100.34 93.56,-93.94"/>
</a>
</g>
</g>
<!-- Node13 -->
<g id="Node000013" class="node">
<title>Node13</title>
<g id="a_Node000013"><a xlink:href="structplatf_1_1nvenc__encode__device__t.html" target="_top" xlink:title=" ">
<polygon fill="white" stroke="#bfbfbf" points="259.25,-73 155.5,-73 155.5,-41 259.25,-41 259.25,-73"/>
<text text-anchor="start" x="163.5" y="-59.5" font-family="Helvetica,sans-Serif" font-size="10.00">platf::nvenc_encode</text>
<text text-anchor="middle" x="207.38" y="-47.5" font-family="Helvetica,sans-Serif" font-size="10.00">_device_t</text>
</a>
</g>
</g>
<!-- Node1&#45;&gt;Node13 -->
<g id="edge12_Node000001_Node000013" class="edge">
<title>Node1&#45;&gt;Node13</title>
<g id="a_edge12_Node000001_Node000013"><a xlink:title=" ">
<path fill="none" stroke="#63b8ff" d="M125.75,-70.6C135.72,-68.91 145.85,-67.21 155.41,-65.59"/>
<polygon fill="#63b8ff" stroke="#63b8ff" points="125.37,-67.11 116.09,-72.23 126.53,-74.01 125.37,-67.11"/>
</a>
</g>
</g>
<!-- Node3 -->
<g id="Node000003" class="node">
<title>Node3</title>
<g id="a_Node000003"><a xlink:href="classcuda_1_1cuda__t.html" target="_top" xlink:title=" ">
<polygon fill="white" stroke="#bfbfbf" points="399,-284 326.75,-284 326.75,-264 399,-264 399,-284"/>
<text text-anchor="middle" x="362.88" y="-270.5" font-family="Helvetica,sans-Serif" font-size="10.00">cuda::cuda_t</text>
</a>
</g>
</g>
<!-- Node2&#45;&gt;Node3 -->
<g id="edge2_Node000002_Node000003" class="edge">
<title>Node2&#45;&gt;Node3</title>
<g id="a_edge2_Node000002_Node000003"><a xlink:title=" ">
<path fill="none" stroke="#63b8ff" d="M224.45,-173.93C240.78,-198.22 268.21,-233.84 300.5,-255 308.24,-260.07 317.42,-263.86 326.28,-266.65"/>
<polygon fill="#63b8ff" stroke="#63b8ff" points="227.38,-172.02 218.98,-165.56 221.52,-175.85 227.38,-172.02"/>
</a>
</g>
</g>
<!-- Node6 -->
<g id="Node000006" class="node">
<title>Node6</title>
<g id="a_Node000006"><a xlink:href="classcuda_1_1gl__cuda__vram__t.html" target="_top" xlink:title=" ">
<polygon fill="white" stroke="#bfbfbf" points="418.88,-246 306.88,-246 306.88,-226 418.88,-226 418.88,-246"/>
<text text-anchor="middle" x="362.88" y="-232.5" font-family="Helvetica,sans-Serif" font-size="10.00">cuda::gl_cuda_vram_t</text>
</a>
</g>
</g>
<!-- Node2&#45;&gt;Node6 -->
<g id="edge5_Node000002_Node000006" class="edge">
<title>Node2&#45;&gt;Node6</title>
<g id="a_edge5_Node000002_Node000006"><a xlink:title=" ">
<path fill="none" stroke="#63b8ff" d="M234.73,-171.61C252.33,-186.35 276.55,-204.79 300.5,-217 306.96,-220.29 314.09,-223.14 321.15,-225.55"/>
<polygon fill="#63b8ff" stroke="#63b8ff" points="237.2,-169.11 227.32,-165.27 232.65,-174.43 237.2,-169.11"/>
</a>
</g>
</g>
<!-- Node7 -->
<g id="Node000007" class="node">
<title>Node7</title>
<g id="a_Node000007"><a xlink:href="classplatf_1_1dxgi_1_1d3d__avcodec__encode__device__t.html" target="_top" xlink:title=" ">
<polygon fill="white" stroke="#bfbfbf" points="424.12,-208 301.62,-208 301.62,-176 424.12,-176 424.12,-208"/>
<text text-anchor="start" x="309.62" y="-194.5" font-family="Helvetica,sans-Serif" font-size="10.00">platf::dxgi::d3d_avcodec</text>
<text text-anchor="middle" x="362.88" y="-182.5" font-family="Helvetica,sans-Serif" font-size="10.00">_encode_device_t</text>
</a>
</g>
</g>
<!-- Node2&#45;&gt;Node7 -->
<g id="edge6_Node000002_Node000007" class="edge">
<title>Node2&#45;&gt;Node7</title>
<g id="a_edge6_Node000002_Node000007"><a xlink:title=" ">
<path fill="none" stroke="#63b8ff" d="M275.49,-167.24C285.18,-170.02 295.09,-172.86 304.57,-175.57"/>
<polygon fill="#63b8ff" stroke="#63b8ff" points="276.69,-163.94 266.12,-164.55 274.76,-170.67 276.69,-163.94"/>
</a>
</g>
</g>
<!-- Node8 -->
<g id="Node000008" class="node">
<title>Node8</title>
<g id="a_Node000008"><a xlink:href="classplatf_1_1nv12__zero__device.html" target="_top" xlink:title=" ">
<polygon fill="white" stroke="#bfbfbf" points="422.62,-158 303.12,-158 303.12,-138 422.62,-138 422.62,-158"/>
<text text-anchor="middle" x="362.88" y="-144.5" font-family="Helvetica,sans-Serif" font-size="10.00">platf::nv12_zero_device</text>
</a>
</g>
</g>
<!-- Node2&#45;&gt;Node8 -->
<g id="edge7_Node000002_Node000008" class="edge">
<title>Node2&#45;&gt;Node8</title>
<g id="a_edge7_Node000002_Node000008"><a xlink:title=" ">
<path fill="none" stroke="#63b8ff" d="M275.88,-148C284.83,-148 293.96,-148 302.76,-148"/>
<polygon fill="#63b8ff" stroke="#63b8ff" points="276.17,-144.5 266.17,-148 276.17,-151.5 276.17,-144.5"/>
</a>
</g>
</g>
<!-- Node9 -->
<g id="Node000009" class="node">
<title>Node9</title>
<g id="a_Node000009"><a xlink:href="classva_1_1va__t.html" target="_top" xlink:title=" ">
<polygon fill="white" stroke="#bfbfbf" points="388.5,-120 337.25,-120 337.25,-100 388.5,-100 388.5,-120"/>
<text text-anchor="middle" x="362.88" y="-106.5" font-family="Helvetica,sans-Serif" font-size="10.00">va::va_t</text>
</a>
</g>
</g>
<!-- Node2&#45;&gt;Node9 -->
<g id="edge8_Node000002_Node000009" class="edge">
<title>Node2&#45;&gt;Node9</title>
<g id="a_edge8_Node000002_Node000009"><a xlink:title=" ">
<path fill="none" stroke="#63b8ff" d="M275.58,-131.36C297.36,-125.97 320.19,-120.32 336.89,-116.19"/>
<polygon fill="#63b8ff" stroke="#63b8ff" points="275,-127.9 266.13,-133.7 276.68,-134.7 275,-127.9"/>
</a>
</g>
</g>
<!-- Node12 -->
<g id="Node000012" class="node">
<title>Node12</title>
<g id="a_Node000012"><a xlink:href="classvideo_1_1avcodec__software__encode__device__t.html" target="_top" xlink:title=" ">
<polygon fill="white" stroke="#bfbfbf" points="425.25,-82 300.5,-82 300.5,-50 425.25,-50 425.25,-82"/>
<text text-anchor="start" x="308.5" y="-68.5" font-family="Helvetica,sans-Serif" font-size="10.00">video::avcodec_software</text>
<text text-anchor="middle" x="362.88" y="-56.5" font-family="Helvetica,sans-Serif" font-size="10.00">_encode_device_t</text>
</a>
</g>
</g>
<!-- Node2&#45;&gt;Node12 -->
<g id="edge11_Node000002_Node000012" class="edge">
<title>Node2&#45;&gt;Node12</title>
<g id="a_edge11_Node000002_Node000012"><a xlink:title=" ">
<path fill="none" stroke="#63b8ff" d="M241.92,-125.37C259.05,-114.29 280.46,-101.19 300.5,-91 306.35,-88.03 312.63,-85.14 318.87,-82.44"/>
<polygon fill="#63b8ff" stroke="#63b8ff" points="240.08,-122.38 233.63,-130.78 243.92,-128.24 240.08,-122.38"/>
</a>
</g>
</g>
<!-- Node4 -->
<g id="Node000004" class="node">
<title>Node4</title>
<g id="a_Node000004"><a xlink:href="classcuda_1_1cuda__ram__t.html" target="_top" xlink:title=" ">
<polygon fill="white" stroke="#bfbfbf" points="557.88,-303 463.88,-303 463.88,-283 557.88,-283 557.88,-303"/>
<text text-anchor="middle" x="510.88" y="-289.5" font-family="Helvetica,sans-Serif" font-size="10.00">cuda::cuda_ram_t</text>
</a>
</g>
</g>
<!-- Node3&#45;&gt;Node4 -->
<g id="edge3_Node000003_Node000004" class="edge">
<title>Node3&#45;&gt;Node4</title>
<g id="a_edge3_Node000003_Node000004"><a xlink:title=" ">
<path fill="none" stroke="#63b8ff" d="M410.55,-280.07C427.49,-282.28 446.62,-284.77 463.54,-286.97"/>
<polygon fill="#63b8ff" stroke="#63b8ff" points="411.09,-276.61 400.72,-278.79 410.18,-283.56 411.09,-276.61"/>
</a>
</g>
</g>
<!-- Node5 -->
<g id="Node000005" class="node">
<title>Node5</title>
<g id="a_Node000005"><a xlink:href="classcuda_1_1cuda__vram__t.html" target="_top" xlink:title=" ">
<polygon fill="white" stroke="#bfbfbf" points="560.5,-265 461.25,-265 461.25,-245 560.5,-245 560.5,-265"/>
<text text-anchor="middle" x="510.88" y="-251.5" font-family="Helvetica,sans-Serif" font-size="10.00">cuda::cuda_vram_t</text>
</a>
</g>
</g>
<!-- Node3&#45;&gt;Node5 -->
<g id="edge4_Node000003_Node000005" class="edge">
<title>Node3&#45;&gt;Node5</title>
<g id="a_edge4_Node000003_Node000005"><a xlink:title=" ">
<path fill="none" stroke="#63b8ff" d="M410.5,-267.93C426.55,-265.84 444.56,-263.5 460.79,-261.39"/>
<polygon fill="#63b8ff" stroke="#63b8ff" points="410.18,-264.44 400.72,-269.21 411.09,-271.39 410.18,-264.44"/>
</a>
</g>
</g>
<!-- Node10 -->
<g id="Node000010" class="node">
<title>Node10</title>
<g id="a_Node000010"><a xlink:href="classva_1_1va__ram__t.html" target="_top" xlink:title=" ">
<polygon fill="white" stroke="#bfbfbf" points="547.38,-139 474.38,-139 474.38,-119 547.38,-119 547.38,-139"/>
<text text-anchor="middle" x="510.88" y="-125.5" font-family="Helvetica,sans-Serif" font-size="10.00">va::va_ram_t</text>
</a>
</g>
</g>
<!-- Node9&#45;&gt;Node10 -->
<g id="edge9_Node000009_Node000010" class="edge">
<title>Node9&#45;&gt;Node10</title>
<g id="a_edge9_Node000009_Node000010"><a xlink:title=" ">
<path fill="none" stroke="#63b8ff" d="M400.1,-114.71C422.62,-117.64 451.44,-121.4 473.91,-124.32"/>
<polygon fill="#63b8ff" stroke="#63b8ff" points="400.84,-111.28 390.47,-113.46 399.94,-118.22 400.84,-111.28"/>
</a>
</g>
</g>
<!-- Node11 -->
<g id="Node000011" class="node">
<title>Node11</title>
<g id="a_Node000011"><a xlink:href="classva_1_1va__vram__t.html" target="_top" xlink:title=" ">
<polygon fill="white" stroke="#bfbfbf" points="550,-101 471.75,-101 471.75,-81 550,-81 550,-101"/>
<text text-anchor="middle" x="510.88" y="-87.5" font-family="Helvetica,sans-Serif" font-size="10.00">va::va_vram_t</text>
</a>
</g>
</g>
<!-- Node9&#45;&gt;Node11 -->
<g id="edge10_Node000009_Node000011" class="edge">
<title>Node9&#45;&gt;Node11</title>
<g id="a_edge10_Node000009_Node000011"><a xlink:title=" ">
<path fill="none" stroke="#63b8ff" d="M400.33,-105.26C421.98,-102.44 449.41,-98.87 471.4,-96.01"/>
<polygon fill="#63b8ff" stroke="#63b8ff" points="399.94,-101.78 390.47,-106.54 400.84,-108.72 399.94,-101.78"/>
</a>
</g>
</g>
<!-- Node14 -->
<g id="Node000014" class="node">
<title>Node14</title>
<g id="a_Node000014"><a xlink:href="classplatf_1_1dxgi_1_1d3d__nvenc__encode__device__t.html" target="_top" xlink:title=" ">
<polygon fill="white" stroke="#bfbfbf" points="418.88,-32 306.88,-32 306.88,0 418.88,0 418.88,-32"/>
<text text-anchor="start" x="314.88" y="-18.5" font-family="Helvetica,sans-Serif" font-size="10.00">platf::dxgi::d3d_nvenc</text>
<text text-anchor="middle" x="362.88" y="-6.5" font-family="Helvetica,sans-Serif" font-size="10.00">_encode_device_t</text>
</a>
</g>
</g>
<!-- Node13&#45;&gt;Node14 -->
<g id="edge13_Node000013_Node000014" class="edge">
<title>Node13&#45;&gt;Node14</title>
<g id="a_edge13_Node000013_Node000014"><a xlink:title=" ">
<path fill="none" stroke="#63b8ff" d="M270.31,-40.46C282.28,-37.26 294.75,-33.93 306.5,-30.79"/>
<polygon fill="#63b8ff" stroke="#63b8ff" points="269.71,-36.99 260.95,-42.96 271.52,-43.76 269.71,-36.99"/>
</a>
</g>
</g>
</g>
</svg>

<g id="navigator" transform="translate(0 0)" fill="#404254">
  <rect fill="#f2f5e9" fill-opacity="0.5" stroke="#606060" stroke-width=".5" x="0" y="0" width="60" height="60"/>
  <use id="zoomplus" xlink:href="#zoomPlus" x="17" y="9" onmousedown="handleZoom(evt,'in')"/>
  <use id="zoomminus" xlink:href="#zoomMin" x="42" y="9" onmousedown="handleZoom(evt,'out')"/>
  <use id="reset" xlink:href="#resetDef" x="30" y="36" onmousedown="handleReset()"/>
   <use id="arrowup" xlink:href="#arrowUp" x="0" y="0" onmousedown="handlePan(0,-1)"/>
  <use id="arrowright" xlink:href="#arrowRight" x="0" y="0" onmousedown="handlePan(1,0)"/>
  <use id="arrowdown" xlink:href="#arrowDown" x="0" y="0" onmousedown="handlePan(0,1)"/>
  <use id="arrowleft" xlink:href="#arrowLeft" x="0" y="0" onmousedown="handlePan(-1,0)"/>
</g>
<svg viewBox="0 0 15 15" width="100%" height="30px" preserveAspectRatio="xMaxYMin meet">
 <g id="arrow_out" transform="scale(0.3 0.3)">
  <a xlink:href="structplatf_1_1encode__device__t__inherit__graph_org.svg" target="_base">
   <rect id="button" ry="5" rx="5" y="6" x="6" height="38" width="38"
        fill="#f2f5e9" fill-opacity="0.5" stroke="#606060" stroke-width="1.0"/>
   <path id="arrow"
     d="M 11.500037,31.436501 C 11.940474,20.09759 22.043105,11.32322 32.158766,21.979434 L 37.068811,17.246167 C 37.068811,17.246167 37.088388,32 37.088388,32 L 22.160133,31.978069 C 22.160133,31.978069 26.997745,27.140456 26.997745,27.140456 C 18.528582,18.264221 13.291696,25.230495 11.500037,31.436501 z"
     style="fill:#404040;"/>
  </a>
 </g>
</svg>

<style type='text/css'>
<![CDATA[
[data-mouse-over-selected='false'] { opacity: 0.7; }
[data-mouse-over-selected='true']  { opacity: 1.0; }
]]>
</style>
<script type="application/ecmascript"><![CDATA[
document.addEventListener('DOMContentLoaded', (event) => {
  highlightEdges();
  highlightAdjacentNodes();
});
]]></script>
</svg>
