<?xml version="1.0" encoding="UTF-8" standalone="no"?>
<!DOCTYPE svg PUBLIC "-//W3C//DTD SVG 1.1//EN"
 "http://www.w3.org/Graphics/SVG/1.1/DTD/svg11.dtd">
<!-- Generated by graphviz version 12.2.1 (0)
 -->
<!-- Title: platf::shm_attr_t Pages: 1 -->
<!--zoomable 252 -->

<svg id="main" version="1.1" xmlns="http://www.w3.org/2000/svg" xmlns:xlink="http://www.w3.org/1999/xlink" xml:space="preserve" onload="init(evt)">

<style type="text/css"><![CDATA[
.node, .edge {opacity: 0.7;}
.node.selected, .edge.selected {opacity: 1;}
.edge:hover path { stroke: red; }
.edge:hover polygon { stroke: red; fill: red; }
]]></style>

<defs>
  <circle id="rim" cx="0" cy="0" r="7"/>
  <circle id="rim2" cx="0" cy="0" r="3.5"/>
  <g id="zoomPlus">
    <use xlink:href="#rim" fill="#404040"><set attributeName="fill" to="#808080" begin="zoomplus.mouseover" end="zoomplus.mouseout"/></use>
    <path d="M-4,0h8M0,-4v8" fill="none" stroke="white" stroke-width="1.5" pointer-events="none"/>
  </g>
  <g id="zoomMin">
    <use xlink:href="#rim" fill="#404040"><set attributeName="fill" to="#808080" begin="zoomminus.mouseover" end="zoomminus.mouseout"/></use>
    <path d="M-4,0h8" fill="none" stroke="white" stroke-width="1.5" pointer-events="none"/>
  </g>
  <g id="arrowUp" transform="translate(30 24)">
    <use xlink:href="#rim"/>
    <path pointer-events="none" fill="none" stroke="white" stroke-width="1.5" d="M0,-3.0v7 M-2.5,-0.5L0,-3.0L2.5,-0.5"/>
  </g>
  <g id="arrowRight" transform="rotate(90) translate(36 -43)">
    <use xlink:href="#rim"/>
    <path pointer-events="none" fill="none" stroke="white" stroke-width="1.5" d="M0,-3.0v7 M-2.5,-0.5L0,-3.0L2.5,-0.5"/>
  </g>
  <g id="arrowDown" transform="rotate(180) translate(-30 -48)">
    <use xlink:href="#rim"/>
    <path pointer-events="none" fill="none" stroke="white" stroke-width="1.5" d="M0,-3.0v7 M-2.5,-0.5L0,-3.0L2.5,-0.5"/>
  </g>
  <g id="arrowLeft" transform="rotate(270) translate(-36 17)">
    <use xlink:href="#rim"/>
    <path pointer-events="none" fill="none" stroke="white" stroke-width="1.5" d="M0,-3.0v7 M-2.5,-0.5L0,-3.0L2.5,-0.5"/>
  </g>
  <g id="resetDef">
    <use xlink:href="#rim2" fill="#404040"><set attributeName="fill" to="#808080" begin="reset.mouseover" end="reset.mouseout"/></use>
  </g>
</defs>
<script type="application/ecmascript">
var viewWidth = 757;
var viewHeight = 252;
var sectionId = 'dynsection-1';
</script>
<script type="application/ecmascript" xlink:href="svg.min.js"/>
<svg id="graph" class="graph">
<g id="viewport">
<title>platf::shm_attr_t</title>
<!-- Node1 -->
<g id="Node000001" class="node">
<title>Node1</title>
<g id="a_Node000001"><a xlink:title=" ">
<polygon fill="#999999" stroke="#666666" points="748.75,-114 661.5,-114 661.5,-94 748.75,-94 748.75,-114"/>
<text text-anchor="middle" x="705.12" y="-100.5" font-family="Helvetica,sans-Serif" font-size="10.00">platf::shm_attr_t</text>
</a>
</g>
</g>
<!-- Node2 -->
<g id="Node000002" class="node">
<title>Node2</title>
<g id="a_Node000002"><a xlink:href="structplatf_1_1x11__attr__t.html" target="_top" xlink:title=" ">
<polygon fill="white" stroke="#bfbfbf" points="558.38,-218 474.88,-218 474.88,-198 558.38,-198 558.38,-218"/>
<text text-anchor="middle" x="516.62" y="-204.5" font-family="Helvetica,sans-Serif" font-size="10.00">platf::x11_attr_t</text>
</a>
</g>
</g>
<!-- Node2&#45;&gt;Node1 -->
<g id="edge1_Node000001_Node000002" class="edge">
<title>Node2&#45;&gt;Node1</title>
<g id="a_edge1_Node000001_Node000002"><a xlink:title=" ">
<path fill="none" stroke="#63b8ff" d="M570.2,-205.38C594.03,-202.21 621.69,-195.58 643.5,-182 670.73,-165.05 690.53,-131.24 699.22,-114.25"/>
<polygon fill="#63b8ff" stroke="#63b8ff" points="569.89,-201.9 560.35,-206.51 570.68,-208.85 569.89,-201.9"/>
</a>
</g>
</g>
<!-- Node3 -->
<g id="Node000003" class="node">
<title>Node3</title>
<g id="a_Node000003"><a xlink:href="classplatf_1_1display__t.html" target="_top" xlink:title=" ">
<polygon fill="white" stroke="#bfbfbf" points="343.25,-238 263.5,-238 263.5,-218 343.25,-218 343.25,-238"/>
<text text-anchor="middle" x="303.38" y="-224.5" font-family="Helvetica,sans-Serif" font-size="10.00">platf::display_t</text>
</a>
</g>
</g>
<!-- Node3&#45;&gt;Node2 -->
<g id="edge2_Node000002_Node000003" class="edge">
<title>Node3&#45;&gt;Node2</title>
<g id="a_edge2_Node000002_Node000003"><a xlink:title=" ">
<path fill="none" stroke="#63b8ff" d="M355.02,-223.21C391.56,-219.75 440.27,-215.13 474.43,-211.9"/>
<polygon fill="#63b8ff" stroke="#63b8ff" points="354.75,-219.72 345.12,-224.14 355.41,-226.68 354.75,-219.72"/>
</a>
</g>
</g>
<!-- Node4 -->
<g id="Node000004" class="node">
<title>Node4</title>
<g id="a_Node000004"><a xlink:href="classlogging_1_1time__delta__periodic__logger.html" target="_top" xlink:title="A helper class for tracking and logging short time intervals across a period of time.">
<polygon fill="white" stroke="#666666" points="97.75,-244 0,-244 0,-212 97.75,-212 97.75,-244"/>
<text text-anchor="start" x="8" y="-230.5" font-family="Helvetica,sans-Serif" font-size="10.00">logging::time_delta</text>
<text text-anchor="middle" x="48.88" y="-218.5" font-family="Helvetica,sans-Serif" font-size="10.00">_periodic_logger</text>
</a>
</g>
</g>
<!-- Node4&#45;&gt;Node3 -->
<g id="edge3_Node000003_Node000004" class="edge">
<title>Node4&#45;&gt;Node3</title>
<g id="a_edge3_Node000003_Node000004"><a xlink:title=" ">
<path fill="none" stroke="#9a32cd" stroke-dasharray="5,2" d="M109.32,-228C156.81,-228 222.01,-228 263.16,-228"/>
<polygon fill="#9a32cd" stroke="#9a32cd" points="109.48,-224.5 99.48,-228 109.48,-231.5 109.48,-224.5"/>
</a>
</g>
<text text-anchor="middle" x="168.62" y="-230.5" font-family="Helvetica,sans-Serif" font-size="10.00" fill="grey"> sleep_overshoot_logger</text>
</g>
<!-- Node5 -->
<g id="Node000005" class="node">
<title>Node5</title>
<g id="a_Node000005"><a xlink:href="classutil_1_1uniq__ptr.html" target="_top" xlink:title=" ">
<polygon fill="white" stroke="#bfbfbf" points="367.25,-198 239.5,-198 239.5,-142 367.25,-142 367.25,-198"/>
<text text-anchor="start" x="247.5" y="-184.5" font-family="Helvetica,sans-Serif" font-size="10.00">util::uniq_ptr&lt; T,</text>
<text text-anchor="start" x="247.5" y="-172.5" font-family="Helvetica,sans-Serif" font-size="10.00"> Destroy&lt; T *, void,</text>
<text text-anchor="start" x="247.5" y="-160.5" font-family="Helvetica,sans-Serif" font-size="10.00"> function &gt; &gt;&lt; _XDisplay,</text>
<text text-anchor="middle" x="303.38" y="-148.5" font-family="Helvetica,sans-Serif" font-size="10.00"> freeDisplay &gt;</text>
</a>
</g>
</g>
<!-- Node5&#45;&gt;Node1 -->
<g id="edge5_Node000001_Node000005" class="edge">
<title>Node5&#45;&gt;Node1</title>
<g id="a_edge5_Node000001_Node000005"><a xlink:title=" ">
<path fill="none" stroke="#9a32cd" stroke-dasharray="5,2" d="M378.91,-166.86C437.16,-163.35 519.9,-156.04 591,-141 621.32,-134.59 654.95,-122.98 677.6,-114.48"/>
<polygon fill="#9a32cd" stroke="#9a32cd" points="378.89,-163.36 369.11,-167.42 379.29,-170.34 378.89,-163.36"/>
</a>
</g>
<text text-anchor="middle" x="516.62" y="-164.42" font-family="Helvetica,sans-Serif" font-size="10.00" fill="grey"> shm_xdisplay</text>
</g>
<!-- Node5&#45;&gt;Node2 -->
<g id="edge4_Node000002_Node000005" class="edge">
<title>Node5&#45;&gt;Node2</title>
<g id="a_edge4_Node000002_Node000005"><a xlink:title=" ">
<path fill="none" stroke="#9a32cd" stroke-dasharray="5,2" d="M378.66,-183.36C410.85,-189.15 447.31,-195.71 474.51,-200.6"/>
<polygon fill="#9a32cd" stroke="#9a32cd" points="379.42,-179.94 368.96,-181.62 378.18,-186.83 379.42,-179.94"/>
</a>
</g>
<text text-anchor="middle" x="404.75" y="-193.78" font-family="Helvetica,sans-Serif" font-size="10.00" fill="grey"> xdisplay</text>
</g>
<!-- Node6 -->
<g id="Node000006" class="node">
<title>Node6</title>
<g id="a_Node000006"><a xlink:href="classutil_1_1uniq__ptr.html" target="_top" xlink:title=" ">
<polygon fill="white" stroke="#bfbfbf" points="591,-132 442.25,-132 442.25,-76 591,-76 591,-132"/>
<text text-anchor="start" x="450.25" y="-118.5" font-family="Helvetica,sans-Serif" font-size="10.00">util::uniq_ptr&lt; T,</text>
<text text-anchor="start" x="450.25" y="-106.5" font-family="Helvetica,sans-Serif" font-size="10.00"> Destroy&lt; T *, void,</text>
<text text-anchor="start" x="450.25" y="-94.5" font-family="Helvetica,sans-Serif" font-size="10.00"> function &gt; &gt;&lt; xcb_connection</text>
<text text-anchor="middle" x="516.62" y="-82.5" font-family="Helvetica,sans-Serif" font-size="10.00">_t, &amp;xcb::disconnect &gt;</text>
</a>
</g>
</g>
<!-- Node6&#45;&gt;Node1 -->
<g id="edge6_Node000001_Node000006" class="edge">
<title>Node6&#45;&gt;Node1</title>
<g id="a_edge6_Node000001_Node000006"><a xlink:title=" ">
<path fill="none" stroke="#9a32cd" stroke-dasharray="5,2" d="M602.79,-104C622.96,-104 643.64,-104 661.02,-104"/>
<polygon fill="#9a32cd" stroke="#9a32cd" points="602.85,-100.5 592.85,-104 602.85,-107.5 602.85,-100.5"/>
</a>
</g>
<text text-anchor="middle" x="626.25" y="-106.5" font-family="Helvetica,sans-Serif" font-size="10.00" fill="grey"> xcb</text>
</g>
<!-- Node7 -->
<g id="Node000007" class="node">
<title>Node7</title>
<g id="a_Node000007"><a xlink:href="classplatf_1_1shm__id__t.html" target="_top" xlink:title=" ">
<polygon fill="white" stroke="#bfbfbf" points="556.88,-58 476.38,-58 476.38,-38 556.88,-38 556.88,-58"/>
<text text-anchor="middle" x="516.62" y="-44.5" font-family="Helvetica,sans-Serif" font-size="10.00">platf::shm_id_t</text>
</a>
</g>
</g>
<!-- Node7&#45;&gt;Node1 -->
<g id="edge7_Node000001_Node000007" class="edge">
<title>Node7&#45;&gt;Node1</title>
<g id="a_edge7_Node000001_Node000007"><a xlink:title=" ">
<path fill="none" stroke="#9a32cd" stroke-dasharray="5,2" d="M568.35,-60.69C575.96,-62.72 583.7,-64.86 591,-67 619.36,-75.3 651.33,-85.87 674.04,-93.59"/>
<polygon fill="#9a32cd" stroke="#9a32cd" points="569.38,-57.34 558.82,-58.19 567.6,-64.11 569.38,-57.34"/>
</a>
</g>
<text text-anchor="middle" x="626.25" y="-85.04" font-family="Helvetica,sans-Serif" font-size="10.00" fill="grey"> shm_id</text>
</g>
<!-- Node8 -->
<g id="Node000008" class="node">
<title>Node8</title>
<g id="a_Node000008"><a xlink:href="classplatf_1_1shm__data__t.html" target="_top" xlink:title=" ">
<polygon fill="white" stroke="#bfbfbf" points="562.5,-20 470.75,-20 470.75,0 562.5,0 562.5,-20"/>
<text text-anchor="middle" x="516.62" y="-6.5" font-family="Helvetica,sans-Serif" font-size="10.00">platf::shm_data_t</text>
</a>
</g>
</g>
<!-- Node8&#45;&gt;Node1 -->
<g id="edge8_Node000001_Node000008" class="edge">
<title>Node8&#45;&gt;Node1</title>
<g id="a_edge8_Node000001_Node000008"><a xlink:title=" ">
<path fill="none" stroke="#9a32cd" stroke-dasharray="5,2" d="M573.51,-22.99C579.48,-24.81 585.41,-26.82 591,-29 631.62,-44.83 672.61,-76.95 692.22,-93.55"/>
<polygon fill="#9a32cd" stroke="#9a32cd" points="574.82,-19.72 564.24,-20.32 572.88,-26.45 574.82,-19.72"/>
</a>
</g>
<text text-anchor="middle" x="626.25" y="-59.35" font-family="Helvetica,sans-Serif" font-size="10.00" fill="grey"> data</text>
</g>
</g>
</svg>

<g id="navigator" transform="translate(0 0)" fill="#404254">
  <rect fill="#f2f5e9" fill-opacity="0.5" stroke="#606060" stroke-width=".5" x="0" y="0" width="60" height="60"/>
  <use id="zoomplus" xlink:href="#zoomPlus" x="17" y="9" onmousedown="handleZoom(evt,'in')"/>
  <use id="zoomminus" xlink:href="#zoomMin" x="42" y="9" onmousedown="handleZoom(evt,'out')"/>
  <use id="reset" xlink:href="#resetDef" x="30" y="36" onmousedown="handleReset()"/>
   <use id="arrowup" xlink:href="#arrowUp" x="0" y="0" onmousedown="handlePan(0,-1)"/>
  <use id="arrowright" xlink:href="#arrowRight" x="0" y="0" onmousedown="handlePan(1,0)"/>
  <use id="arrowdown" xlink:href="#arrowDown" x="0" y="0" onmousedown="handlePan(0,1)"/>
  <use id="arrowleft" xlink:href="#arrowLeft" x="0" y="0" onmousedown="handlePan(-1,0)"/>
</g>
<svg viewBox="0 0 15 15" width="100%" height="30px" preserveAspectRatio="xMaxYMin meet">
 <g id="arrow_out" transform="scale(0.3 0.3)">
  <a xlink:href="structplatf_1_1shm__attr__t__coll__graph_org.svg" target="_base">
   <rect id="button" ry="5" rx="5" y="6" x="6" height="38" width="38"
        fill="#f2f5e9" fill-opacity="0.5" stroke="#606060" stroke-width="1.0"/>
   <path id="arrow"
     d="M 11.500037,31.436501 C 11.940474,20.09759 22.043105,11.32322 32.158766,21.979434 L 37.068811,17.246167 C 37.068811,17.246167 37.088388,32 37.088388,32 L 22.160133,31.978069 C 22.160133,31.978069 26.997745,27.140456 26.997745,27.140456 C 18.528582,18.264221 13.291696,25.230495 11.500037,31.436501 z"
     style="fill:#404040;"/>
  </a>
 </g>
</svg>

<style type='text/css'>
<![CDATA[
[data-mouse-over-selected='false'] { opacity: 0.7; }
[data-mouse-over-selected='true']  { opacity: 1.0; }
]]>
</style>
<script type="application/ecmascript"><![CDATA[
document.addEventListener('DOMContentLoaded', (event) => {
  highlightEdges();
  highlightAdjacentNodes();
});
]]></script>
</svg>
