<?xml version="1.0" encoding="UTF-8" standalone="no"?>
<!DOCTYPE svg PUBLIC "-//W3C//DTD SVG 1.1//EN"
 "http://www.w3.org/Graphics/SVG/1.1/DTD/svg11.dtd">
<!-- Generated by graphviz version 12.2.1 (0)
 -->
<!-- Title: platf::client_input_raw_t Pages: 1 -->
<svg width="587pt" height="90pt"
 viewBox="0.00 0.00 587.25 90.00" xmlns="http://www.w3.org/2000/svg" xmlns:xlink="http://www.w3.org/1999/xlink">
<g id="graph0" class="graph" transform="scale(1 1) rotate(0) translate(4 86)">
<title>platf::client_input_raw_t</title>
<!-- Node1 -->
<g id="Node000001" class="node">
<title>Node1</title>
<g id="a_Node000001"><a xlink:title=" ">
<polygon fill="#999999" stroke="#666666" points="579.25,-82 489,-82 489,-50 579.25,-50 579.25,-82"/>
<text text-anchor="start" x="497" y="-68.5" font-family="Helvetica,sans-Serif" font-size="10.00">platf::client_input</text>
<text text-anchor="middle" x="534.12" y="-56.5" font-family="Helvetica,sans-Serif" font-size="10.00">_raw_t</text>
</a>
</g>
</g>
<!-- Node2 -->
<g id="Node000002" class="node">
<title>Node2</title>
<g id="a_Node000002"><a xlink:href="classplatf_1_1deinit__t.html" target="_top" xlink:title=" ">
<polygon fill="white" stroke="#bfbfbf" points="415.88,-76 342.12,-76 342.12,-56 415.88,-56 415.88,-76"/>
<text text-anchor="middle" x="379" y="-62.5" font-family="Helvetica,sans-Serif" font-size="10.00">client_input_t</text>
</a>
</g>
</g>
<!-- Node2&#45;&gt;Node1 -->
<g id="edge1_Node000001_Node000002" class="edge">
<title>Node2&#45;&gt;Node1</title>
<g id="a_edge1_Node000001_Node000002"><a xlink:title=" ">
<path fill="none" stroke="#63b8ff" d="M427.67,-59.7C447.12,-59.07 469.5,-59.1 488.62,-59.81"/>
<polygon fill="#63b8ff" stroke="#63b8ff" points="427.65,-56.19 417.8,-60.1 427.93,-63.19 427.65,-56.19"/>
</a>
</g>
</g>
<!-- Node2&#45;&gt;Node1 -->
<g id="edge2_Node000001_Node000002" class="edge">
<title>Node2&#45;&gt;Node1</title>
<g id="a_edge2_Node000001_Node000002"><a xlink:title=" ">
<path fill="none" stroke="#63b8ff" d="M427.67,-72.3C447.12,-72.93 469.5,-72.9 488.62,-72.19"/>
<polygon fill="#63b8ff" stroke="#63b8ff" points="427.93,-68.81 417.8,-71.9 427.65,-75.81 427.93,-68.81"/>
</a>
</g>
</g>
<!-- Node3 -->
<g id="Node000003" class="node">
<title>Node3</title>
<g id="a_Node000003"><a xlink:href="structplatf_1_1input__raw__t.html" target="_top" xlink:title=" ">
<polygon fill="white" stroke="#bfbfbf" points="424.5,-38 333.5,-38 333.5,-18 424.5,-18 424.5,-38"/>
<text text-anchor="middle" x="379" y="-24.5" font-family="Helvetica,sans-Serif" font-size="10.00">platf::input_raw_t</text>
</a>
</g>
</g>
<!-- Node3&#45;&gt;Node1 -->
<g id="edge3_Node000001_Node000003" class="edge">
<title>Node3&#45;&gt;Node1</title>
<g id="a_edge3_Node000001_Node000003"><a xlink:title=" ">
<path fill="none" stroke="#9a32cd" stroke-dasharray="5,2" d="M435.13,-41.19C446.97,-44.06 459.41,-47.11 471,-50 476.73,-51.43 482.75,-52.95 488.69,-54.47"/>
<polygon fill="#9a32cd" stroke="#9a32cd" points="436.02,-37.8 425.47,-38.85 434.37,-44.61 436.02,-37.8"/>
</a>
</g>
<text text-anchor="middle" x="456.75" y="-52.5" font-family="Helvetica,sans-Serif" font-size="10.00" fill="grey"> global</text>
</g>
<!-- Node4 -->
<g id="Node000004" class="node">
<title>Node4</title>
<g id="a_Node000004"><a xlink:href="classplatf_1_1vigem__t.html" target="_top" xlink:title=" ">
<polygon fill="white" stroke="#bfbfbf" points="268.25,-38 193,-38 193,-18 268.25,-18 268.25,-38"/>
<text text-anchor="middle" x="230.62" y="-24.5" font-family="Helvetica,sans-Serif" font-size="10.00">platf::vigem_t</text>
</a>
</g>
</g>
<!-- Node4&#45;&gt;Node3 -->
<g id="edge4_Node000003_Node000004" class="edge">
<title>Node4&#45;&gt;Node3</title>
<g id="a_edge4_Node000003_Node000004"><a xlink:title=" ">
<path fill="none" stroke="#9a32cd" stroke-dasharray="5,2" d="M280.05,-28C297.2,-28 316.41,-28 333.24,-28"/>
<polygon fill="#9a32cd" stroke="#9a32cd" points="280.08,-24.5 270.08,-28 280.08,-31.5 280.08,-24.5"/>
</a>
</g>
<text text-anchor="middle" x="300.88" y="-30.5" font-family="Helvetica,sans-Serif" font-size="10.00" fill="grey"> vigem</text>
</g>
<!-- Node5 -->
<g id="Node000005" class="node">
<title>Node5</title>
<g id="a_Node000005"><a xlink:href="classutil_1_1uniq__ptr.html" target="_top" xlink:title=" ">
<polygon fill="white" stroke="#bfbfbf" points="130.75,-56 0,-56 0,0 130.75,0 130.75,-56"/>
<text text-anchor="start" x="8" y="-42.5" font-family="Helvetica,sans-Serif" font-size="10.00">util::uniq_ptr&lt; T,</text>
<text text-anchor="start" x="8" y="-30.5" font-family="Helvetica,sans-Serif" font-size="10.00"> Destroy&lt; T *, void,</text>
<text text-anchor="start" x="8" y="-18.5" font-family="Helvetica,sans-Serif" font-size="10.00"> function &gt; &gt;&lt; _VIGEM</text>
<text text-anchor="middle" x="65.38" y="-6.5" font-family="Helvetica,sans-Serif" font-size="10.00">_CLIENT_T, vigem_free &gt;</text>
</a>
</g>
</g>
<!-- Node5&#45;&gt;Node4 -->
<g id="edge5_Node000004_Node000005" class="edge">
<title>Node5&#45;&gt;Node4</title>
<g id="a_edge5_Node000004_Node000005"><a xlink:title=" ">
<path fill="none" stroke="#9a32cd" stroke-dasharray="5,2" d="M142.35,-28C159.92,-28 177.83,-28 192.82,-28"/>
<polygon fill="#9a32cd" stroke="#9a32cd" points="142.41,-24.5 132.41,-28 142.41,-31.5 142.41,-24.5"/>
</a>
</g>
<text text-anchor="middle" x="161.88" y="-30.5" font-family="Helvetica,sans-Serif" font-size="10.00" fill="grey"> client</text>
</g>
</g>
</svg>
