<?xml version="1.0" encoding="UTF-8" standalone="no"?>
<!DOCTYPE svg PUBLIC "-//W3C//DTD SVG 1.1//EN"
 "http://www.w3.org/Graphics/SVG/1.1/DTD/svg11.dtd">
<!-- Generated by graphviz version 12.2.1 (0)
 -->
<!-- Title: platf::avcodec_encode_device_t Pages: 1 -->
<svg width="569pt" height="261pt"
 viewBox="0.00 0.00 568.50 261.00" xmlns="http://www.w3.org/2000/svg" xmlns:xlink="http://www.w3.org/1999/xlink">
<g id="graph0" class="graph" transform="scale(1 1) rotate(0) translate(4 257)">
<title>platf::avcodec_encode_device_t</title>
<!-- Node1 -->
<g id="Node000001" class="node">
<title>Node1</title>
<g id="a_Node000001"><a xlink:title=" ">
<polygon fill="#999999" stroke="#666666" points="264.5,-136 150.25,-136 150.25,-104 264.5,-104 264.5,-136"/>
<text text-anchor="start" x="158.25" y="-122.5" font-family="Helvetica,sans-Serif" font-size="10.00">platf::avcodec_encode</text>
<text text-anchor="middle" x="207.38" y="-110.5" font-family="Helvetica,sans-Serif" font-size="10.00">_device_t</text>
</a>
</g>
</g>
<!-- Node3 -->
<g id="Node000003" class="node">
<title>Node3</title>
<g id="a_Node000003"><a xlink:href="classcuda_1_1cuda__t.html" target="_top" xlink:title=" ">
<polygon fill="white" stroke="#bfbfbf" points="399,-234 326.75,-234 326.75,-214 399,-214 399,-234"/>
<text text-anchor="middle" x="362.88" y="-220.5" font-family="Helvetica,sans-Serif" font-size="10.00">cuda::cuda_t</text>
</a>
</g>
</g>
<!-- Node1&#45;&gt;Node3 -->
<g id="edge2_Node000001_Node000003" class="edge">
<title>Node1&#45;&gt;Node3</title>
<g id="a_edge2_Node000001_Node000003"><a xlink:title=" ">
<path fill="none" stroke="#63b8ff" d="M229.57,-144.85C246.92,-163.76 272.99,-189.15 300.5,-205 308.43,-209.57 317.57,-213.16 326.34,-215.93"/>
<polygon fill="#63b8ff" stroke="#63b8ff" points="232.31,-142.66 223.03,-137.54 227.1,-147.33 232.31,-142.66"/>
</a>
</g>
</g>
<!-- Node6 -->
<g id="Node000006" class="node">
<title>Node6</title>
<g id="a_Node000006"><a xlink:href="classcuda_1_1gl__cuda__vram__t.html" target="_top" xlink:title=" ">
<polygon fill="white" stroke="#bfbfbf" points="418.88,-196 306.88,-196 306.88,-176 418.88,-176 418.88,-196"/>
<text text-anchor="middle" x="362.88" y="-182.5" font-family="Helvetica,sans-Serif" font-size="10.00">cuda::gl_cuda_vram_t</text>
</a>
</g>
</g>
<!-- Node1&#45;&gt;Node6 -->
<g id="edge5_Node000001_Node000006" class="edge">
<title>Node1&#45;&gt;Node6</title>
<g id="a_edge5_Node000001_Node000006"><a xlink:title=" ">
<path fill="none" stroke="#63b8ff" d="M247.38,-141.77C263.52,-150.29 282.62,-159.74 300.5,-167 308.15,-170.11 316.5,-173.01 324.52,-175.56"/>
<polygon fill="#63b8ff" stroke="#63b8ff" points="249.03,-138.69 238.57,-137.05 245.73,-144.86 249.03,-138.69"/>
</a>
</g>
</g>
<!-- Node7 -->
<g id="Node000007" class="node">
<title>Node7</title>
<g id="a_Node000007"><a xlink:href="classplatf_1_1dxgi_1_1d3d__avcodec__encode__device__t.html" target="_top" xlink:title=" ">
<polygon fill="white" stroke="#bfbfbf" points="424.12,-158 301.62,-158 301.62,-126 424.12,-126 424.12,-158"/>
<text text-anchor="start" x="309.62" y="-144.5" font-family="Helvetica,sans-Serif" font-size="10.00">platf::dxgi::d3d_avcodec</text>
<text text-anchor="middle" x="362.88" y="-132.5" font-family="Helvetica,sans-Serif" font-size="10.00">_encode_device_t</text>
</a>
</g>
</g>
<!-- Node1&#45;&gt;Node7 -->
<g id="edge6_Node000001_Node000007" class="edge">
<title>Node1&#45;&gt;Node7</title>
<g id="a_edge6_Node000001_Node000007"><a xlink:title=" ">
<path fill="none" stroke="#63b8ff" d="M275.98,-129.69C284.38,-130.89 292.92,-132.12 301.2,-133.3"/>
<polygon fill="#63b8ff" stroke="#63b8ff" points="276.55,-126.24 266.16,-128.28 275.56,-133.17 276.55,-126.24"/>
</a>
</g>
</g>
<!-- Node8 -->
<g id="Node000008" class="node">
<title>Node8</title>
<g id="a_Node000008"><a xlink:href="classplatf_1_1nv12__zero__device.html" target="_top" xlink:title=" ">
<polygon fill="white" stroke="#bfbfbf" points="422.62,-108 303.12,-108 303.12,-88 422.62,-88 422.62,-108"/>
<text text-anchor="middle" x="362.88" y="-94.5" font-family="Helvetica,sans-Serif" font-size="10.00">platf::nv12_zero_device</text>
</a>
</g>
</g>
<!-- Node1&#45;&gt;Node8 -->
<g id="edge7_Node000001_Node000008" class="edge">
<title>Node1&#45;&gt;Node8</title>
<g id="a_edge7_Node000001_Node000008"><a xlink:title=" ">
<path fill="none" stroke="#63b8ff" d="M275.88,-110.33C284.83,-109.04 293.96,-107.73 302.76,-106.47"/>
<polygon fill="#63b8ff" stroke="#63b8ff" points="275.56,-106.83 266.16,-111.72 276.55,-113.76 275.56,-106.83"/>
</a>
</g>
</g>
<!-- Node9 -->
<g id="Node000009" class="node">
<title>Node9</title>
<g id="a_Node000009"><a xlink:href="classva_1_1va__t.html" target="_top" xlink:title=" ">
<polygon fill="white" stroke="#bfbfbf" points="388.5,-70 337.25,-70 337.25,-50 388.5,-50 388.5,-70"/>
<text text-anchor="middle" x="362.88" y="-56.5" font-family="Helvetica,sans-Serif" font-size="10.00">va::va_t</text>
</a>
</g>
</g>
<!-- Node1&#45;&gt;Node9 -->
<g id="edge8_Node000001_Node000009" class="edge">
<title>Node1&#45;&gt;Node9</title>
<g id="a_edge8_Node000001_Node000009"><a xlink:title=" ">
<path fill="none" stroke="#63b8ff" d="M252.59,-99.05C267.64,-92.26 284.66,-84.95 300.5,-79 312.3,-74.57 325.64,-70.34 336.86,-67.01"/>
<polygon fill="#63b8ff" stroke="#63b8ff" points="251.55,-95.67 243.91,-103.01 254.46,-102.04 251.55,-95.67"/>
</a>
</g>
</g>
<!-- Node12 -->
<g id="Node000012" class="node">
<title>Node12</title>
<g id="a_Node000012"><a xlink:href="classvideo_1_1avcodec__software__encode__device__t.html" target="_top" xlink:title=" ">
<polygon fill="white" stroke="#bfbfbf" points="425.25,-32 300.5,-32 300.5,0 425.25,0 425.25,-32"/>
<text text-anchor="start" x="308.5" y="-18.5" font-family="Helvetica,sans-Serif" font-size="10.00">video::avcodec_software</text>
<text text-anchor="middle" x="362.88" y="-6.5" font-family="Helvetica,sans-Serif" font-size="10.00">_encode_device_t</text>
</a>
</g>
</g>
<!-- Node1&#45;&gt;Node12 -->
<g id="edge11_Node000001_Node000012" class="edge">
<title>Node1&#45;&gt;Node12</title>
<g id="a_edge11_Node000001_Node000012"><a xlink:title=" ">
<path fill="none" stroke="#63b8ff" d="M232.11,-95.84C249.79,-78.85 275.15,-56.47 300.5,-41 305.61,-37.88 311.17,-35 316.8,-32.39"/>
<polygon fill="#63b8ff" stroke="#63b8ff" points="229.87,-93.14 225.17,-102.64 234.76,-98.15 229.87,-93.14"/>
</a>
</g>
</g>
<!-- Node2 -->
<g id="Node000002" class="node">
<title>Node2</title>
<g id="a_Node000002"><a xlink:href="structplatf_1_1encode__device__t.html" target="_top" xlink:title=" ">
<polygon fill="white" stroke="#bfbfbf" points="114.25,-130 0,-130 0,-110 114.25,-110 114.25,-130"/>
<text text-anchor="middle" x="57.12" y="-116.5" font-family="Helvetica,sans-Serif" font-size="10.00">platf::encode_device_t</text>
</a>
</g>
</g>
<!-- Node2&#45;&gt;Node1 -->
<g id="edge1_Node000001_Node000002" class="edge">
<title>Node2&#45;&gt;Node1</title>
<g id="a_edge1_Node000001_Node000002"><a xlink:title=" ">
<path fill="none" stroke="#63b8ff" d="M125.91,-120C133.99,-120 142.17,-120 150.06,-120"/>
<polygon fill="#63b8ff" stroke="#63b8ff" points="126.11,-116.5 116.11,-120 126.11,-123.5 126.11,-116.5"/>
</a>
</g>
</g>
<!-- Node4 -->
<g id="Node000004" class="node">
<title>Node4</title>
<g id="a_Node000004"><a xlink:href="classcuda_1_1cuda__ram__t.html" target="_top" xlink:title=" ">
<polygon fill="white" stroke="#bfbfbf" points="557.88,-253 463.88,-253 463.88,-233 557.88,-233 557.88,-253"/>
<text text-anchor="middle" x="510.88" y="-239.5" font-family="Helvetica,sans-Serif" font-size="10.00">cuda::cuda_ram_t</text>
</a>
</g>
</g>
<!-- Node3&#45;&gt;Node4 -->
<g id="edge3_Node000003_Node000004" class="edge">
<title>Node3&#45;&gt;Node4</title>
<g id="a_edge3_Node000003_Node000004"><a xlink:title=" ">
<path fill="none" stroke="#63b8ff" d="M410.55,-230.07C427.49,-232.28 446.62,-234.77 463.54,-236.97"/>
<polygon fill="#63b8ff" stroke="#63b8ff" points="411.09,-226.61 400.72,-228.79 410.18,-233.56 411.09,-226.61"/>
</a>
</g>
</g>
<!-- Node5 -->
<g id="Node000005" class="node">
<title>Node5</title>
<g id="a_Node000005"><a xlink:href="classcuda_1_1cuda__vram__t.html" target="_top" xlink:title=" ">
<polygon fill="white" stroke="#bfbfbf" points="560.5,-215 461.25,-215 461.25,-195 560.5,-195 560.5,-215"/>
<text text-anchor="middle" x="510.88" y="-201.5" font-family="Helvetica,sans-Serif" font-size="10.00">cuda::cuda_vram_t</text>
</a>
</g>
</g>
<!-- Node3&#45;&gt;Node5 -->
<g id="edge4_Node000003_Node000005" class="edge">
<title>Node3&#45;&gt;Node5</title>
<g id="a_edge4_Node000003_Node000005"><a xlink:title=" ">
<path fill="none" stroke="#63b8ff" d="M410.5,-217.93C426.55,-215.84 444.56,-213.5 460.79,-211.39"/>
<polygon fill="#63b8ff" stroke="#63b8ff" points="410.18,-214.44 400.72,-219.21 411.09,-221.39 410.18,-214.44"/>
</a>
</g>
</g>
<!-- Node10 -->
<g id="Node000010" class="node">
<title>Node10</title>
<g id="a_Node000010"><a xlink:href="classva_1_1va__ram__t.html" target="_top" xlink:title=" ">
<polygon fill="white" stroke="#bfbfbf" points="547.38,-89 474.38,-89 474.38,-69 547.38,-69 547.38,-89"/>
<text text-anchor="middle" x="510.88" y="-75.5" font-family="Helvetica,sans-Serif" font-size="10.00">va::va_ram_t</text>
</a>
</g>
</g>
<!-- Node9&#45;&gt;Node10 -->
<g id="edge9_Node000009_Node000010" class="edge">
<title>Node9&#45;&gt;Node10</title>
<g id="a_edge9_Node000009_Node000010"><a xlink:title=" ">
<path fill="none" stroke="#63b8ff" d="M400.1,-64.71C422.62,-67.64 451.44,-71.4 473.91,-74.32"/>
<polygon fill="#63b8ff" stroke="#63b8ff" points="400.84,-61.28 390.47,-63.46 399.94,-68.22 400.84,-61.28"/>
</a>
</g>
</g>
<!-- Node11 -->
<g id="Node000011" class="node">
<title>Node11</title>
<g id="a_Node000011"><a xlink:href="classva_1_1va__vram__t.html" target="_top" xlink:title=" ">
<polygon fill="white" stroke="#bfbfbf" points="550,-51 471.75,-51 471.75,-31 550,-31 550,-51"/>
<text text-anchor="middle" x="510.88" y="-37.5" font-family="Helvetica,sans-Serif" font-size="10.00">va::va_vram_t</text>
</a>
</g>
</g>
<!-- Node9&#45;&gt;Node11 -->
<g id="edge10_Node000009_Node000011" class="edge">
<title>Node9&#45;&gt;Node11</title>
<g id="a_edge10_Node000009_Node000011"><a xlink:title=" ">
<path fill="none" stroke="#63b8ff" d="M400.33,-55.26C421.98,-52.44 449.41,-48.87 471.4,-46.01"/>
<polygon fill="#63b8ff" stroke="#63b8ff" points="399.94,-51.78 390.47,-56.54 400.84,-58.72 399.94,-51.78"/>
</a>
</g>
</g>
</g>
</svg>
