<?xml version="1.0" encoding="UTF-8" standalone="no"?>
<!DOCTYPE svg PUBLIC "-//W3C//DTD SVG 1.1//EN"
 "http://www.w3.org/Graphics/SVG/1.1/DTD/svg11.dtd">
<!-- Generated by graphviz version 12.2.1 (0)
 -->
<!-- Title: util::__instantiation_of&lt; X, X&lt; Y... &gt; &gt; Pages: 1 -->
<svg width="182pt" height="96pt"
 viewBox="0.00 0.00 182.25 96.00" xmlns="http://www.w3.org/2000/svg" xmlns:xlink="http://www.w3.org/1999/xlink">
<g id="graph0" class="graph" transform="scale(1 1) rotate(0) translate(4 92)">
<title>util::__instantiation_of&lt; X, X&lt; Y... &gt; &gt;</title>
<!-- Node1 -->
<g id="Node000001" class="node">
<title>Node1</title>
<g id="a_Node000001"><a xlink:title=" ">
<polygon fill="#999999" stroke="#666666" points="137.5,-32 39,-32 39,0 137.5,0 137.5,-32"/>
<text text-anchor="start" x="47" y="-18.5" font-family="Helvetica,sans-Serif" font-size="10.00">util::__instantiation</text>
<text text-anchor="middle" x="88.25" y="-6.5" font-family="Helvetica,sans-Serif" font-size="10.00">_of&lt; X, X&lt; Y... &gt; &gt;</text>
</a>
</g>
</g>
<!-- Node2 -->
<g id="Node000002" class="node">
<title>Node2</title>
<g id="a_Node000002"><a xlink:title=" ">
<polygon fill="white" stroke="#bfbfbf" points="80.5,-88 0,-88 0,-68 80.5,-68 80.5,-88"/>
<text text-anchor="middle" x="40.25" y="-74.5" font-family="Helvetica,sans-Serif" font-size="10.00">std::false_type</text>
</a>
</g>
</g>
<!-- Node2&#45;&gt;Node1 -->
<g id="edge1_Node000001_Node000002" class="edge">
<title>Node2&#45;&gt;Node1</title>
<g id="a_edge1_Node000001_Node000002"><a xlink:title=" ">
<path fill="none" stroke="#63b8ff" d="M54.79,-58.83C61.61,-50.3 69.65,-40.25 76.14,-32.14"/>
<polygon fill="#63b8ff" stroke="#63b8ff" points="52.21,-56.45 48.7,-66.44 57.68,-60.82 52.21,-56.45"/>
</a>
</g>
</g>
<!-- Node3 -->
<g id="Node000003" class="node">
<title>Node3</title>
<g id="a_Node000003"><a xlink:title=" ">
<polygon fill="white" stroke="#bfbfbf" points="174.25,-88 98.25,-88 98.25,-68 174.25,-68 174.25,-88"/>
<text text-anchor="middle" x="136.25" y="-74.5" font-family="Helvetica,sans-Serif" font-size="10.00">std::true_type</text>
</a>
</g>
</g>
<!-- Node3&#45;&gt;Node1 -->
<g id="edge2_Node000001_Node000003" class="edge">
<title>Node3&#45;&gt;Node1</title>
<g id="a_edge2_Node000001_Node000003"><a xlink:title=" ">
<path fill="none" stroke="#63b8ff" d="M121.71,-58.83C114.89,-50.3 106.85,-40.25 100.36,-32.14"/>
<polygon fill="#63b8ff" stroke="#63b8ff" points="118.82,-60.82 127.8,-66.44 124.29,-56.45 118.82,-60.82"/>
</a>
</g>
</g>
</g>
</svg>
