<?xml version="1.0" encoding="UTF-8" standalone="no"?>
<!DOCTYPE svg PUBLIC "-//W3C//DTD SVG 1.1//EN"
 "http://www.w3.org/Graphics/SVG/1.1/DTD/svg11.dtd">
<!-- Generated by graphviz version 12.2.1 (0)
 -->
<!-- Title: platf::av_mic_t Pages: 1 -->
<svg width="250pt" height="165pt"
 viewBox="0.00 0.00 249.50 165.00" xmlns="http://www.w3.org/2000/svg" xmlns:xlink="http://www.w3.org/1999/xlink">
<g id="graph0" class="graph" transform="scale(1 1) rotate(0) translate(4 161)">
<title>platf::av_mic_t</title>
<!-- Node1 -->
<g id="Node000001" class="node">
<title>Node1</title>
<g id="a_Node000001"><a xlink:title=" ">
<polygon fill="#999999" stroke="#666666" points="88.62,-20 8.12,-20 8.12,0 88.62,0 88.62,-20"/>
<text text-anchor="middle" x="48.38" y="-6.5" font-family="Helvetica,sans-Serif" font-size="10.00">platf::av_mic_t</text>
</a>
</g>
</g>
<!-- Node2 -->
<g id="Node000002" class="node">
<title>Node2</title>
<g id="a_Node000002"><a xlink:href="classplatf_1_1mic__t.html" target="_top" xlink:title=" ">
<polygon fill="white" stroke="#bfbfbf" points="64.75,-88 0,-88 0,-68 64.75,-68 64.75,-88"/>
<text text-anchor="middle" x="32.38" y="-74.5" font-family="Helvetica,sans-Serif" font-size="10.00">platf::mic_t</text>
</a>
</g>
</g>
<!-- Node2&#45;&gt;Node1 -->
<g id="edge1_Node000001_Node000002" class="edge">
<title>Node2&#45;&gt;Node1</title>
<g id="a_edge1_Node000001_Node000002"><a xlink:title=" ">
<path fill="none" stroke="#63b8ff" d="M37.31,-56.65C40.23,-44.58 43.81,-29.84 46.09,-20.44"/>
<polygon fill="#63b8ff" stroke="#63b8ff" points="33.98,-55.53 35.02,-66.07 40.78,-57.18 33.98,-55.53"/>
</a>
</g>
</g>
<!-- Node3 -->
<g id="Node000003" class="node">
<title>Node3</title>
<g id="a_Node000003"><a xlink:href="interfaceAVAudio.html" target="_top" xlink:title=" ">
<polygon fill="white" stroke="#bfbfbf" points="135.75,-88 83,-88 83,-68 135.75,-68 135.75,-88"/>
<text text-anchor="middle" x="109.38" y="-74.5" font-family="Helvetica,sans-Serif" font-size="10.00">AVAudio</text>
</a>
</g>
</g>
<!-- Node3&#45;&gt;Node1 -->
<g id="edge2_Node000001_Node000003" class="edge">
<title>Node3&#45;&gt;Node1</title>
<g id="a_edge2_Node000001_Node000003"><a xlink:title=" ">
<path fill="none" stroke="#9a32cd" stroke-dasharray="5,2" d="M92.97,-59.25C81.42,-46.76 66.42,-30.53 57.1,-20.44"/>
<polygon fill="#9a32cd" stroke="#9a32cd" points="90.25,-61.46 99.61,-66.43 95.39,-56.71 90.25,-61.46"/>
</a>
</g>
<text text-anchor="middle" x="124.09" y="-40.5" font-family="Helvetica,sans-Serif" font-size="10.00" fill="grey"> av_audio_capture</text>
</g>
<!-- Node4 -->
<g id="Node000004" class="node">
<title>Node4</title>
<g id="a_Node000004"><a xlink:title=" ">
<polygon fill="white" stroke="#bfbfbf" points="78.75,-151 20,-151 20,-131 78.75,-131 78.75,-151"/>
<text text-anchor="middle" x="49.38" y="-137.5" font-family="Helvetica,sans-Serif" font-size="10.00">NSObject</text>
</a>
</g>
</g>
<!-- Node4&#45;&gt;Node3 -->
<g id="edge3_Node000003_Node000004" class="edge">
<title>Node4&#45;&gt;Node3</title>
<g id="a_edge3_Node000003_Node000004"><a xlink:title=" ">
<path fill="none" stroke="#63b8ff" d="M66.52,-122.57C77.47,-111.43 91.25,-97.43 100.18,-88.35"/>
<polygon fill="#63b8ff" stroke="#63b8ff" points="64.07,-120.07 59.55,-129.66 69.06,-124.98 64.07,-120.07"/>
</a>
</g>
</g>
<!-- Node5 -->
<g id="Node000005" class="node">
<title>Node5</title>
<g id="a_Node000005"><a xlink:title=" ">
<polygon fill="white" stroke="#bfbfbf" points="241.5,-157 97.25,-157 97.25,-125 241.5,-125 241.5,-157"/>
<text text-anchor="start" x="105.25" y="-143.5" font-family="Helvetica,sans-Serif" font-size="10.00">&lt;AVCaptureAudioDataOutput</text>
<text text-anchor="middle" x="169.38" y="-131.5" font-family="Helvetica,sans-Serif" font-size="10.00">SampleBufferDelegate&gt;</text>
</a>
</g>
</g>
<!-- Node5&#45;&gt;Node3 -->
<g id="edge4_Node000003_Node000005" class="edge">
<title>Node5&#45;&gt;Node3</title>
<g id="a_edge4_Node000003_Node000005"><a xlink:title=" ">
<path fill="none" stroke="#63b8ff" d="M146.41,-116.66C136.7,-106.78 125.94,-95.84 118.53,-88.31"/>
<polygon fill="#63b8ff" stroke="#63b8ff" points="143.67,-118.85 153.17,-123.53 148.66,-113.94 143.67,-118.85"/>
</a>
</g>
</g>
</g>
</svg>
