<?xml version="1.0" encoding="UTF-8" standalone="no"?>
<!DOCTYPE svg PUBLIC "-//W3C//DTD SVG 1.1//EN"
 "http://www.w3.org/Graphics/SVG/1.1/DTD/svg11.dtd">
<!-- Generated by graphviz version 12.2.1 (0)
 -->
<!-- Title: platf::mic_attr_t Pages: 1 -->
<svg width="275pt" height="102pt"
 viewBox="0.00 0.00 274.75 102.00" xmlns="http://www.w3.org/2000/svg" xmlns:xlink="http://www.w3.org/1999/xlink">
<g id="graph0" class="graph" transform="scale(1 1) rotate(0) translate(4 98)">
<title>platf::mic_attr_t</title>
<!-- Node1 -->
<g id="Node000001" class="node">
<title>Node1</title>
<g id="a_Node000001"><a xlink:title=" ">
<polygon fill="#999999" stroke="#666666" points="266.75,-66 182.5,-66 182.5,-46 266.75,-46 266.75,-66"/>
<text text-anchor="middle" x="224.62" y="-52.5" font-family="Helvetica,sans-Serif" font-size="10.00">platf::mic_attr_t</text>
</a>
</g>
</g>
<!-- Node2 -->
<g id="Node000002" class="node">
<title>Node2</title>
<g id="a_Node000002"><a xlink:href="classplatf_1_1mic__t.html" target="_top" xlink:title=" ">
<polygon fill="white" stroke="#bfbfbf" points="96.25,-94 31.5,-94 31.5,-74 96.25,-74 96.25,-94"/>
<text text-anchor="middle" x="63.88" y="-80.5" font-family="Helvetica,sans-Serif" font-size="10.00">platf::mic_t</text>
</a>
</g>
</g>
<!-- Node2&#45;&gt;Node1 -->
<g id="edge1_Node000001_Node000002" class="edge">
<title>Node2&#45;&gt;Node1</title>
<g id="a_edge1_Node000001_Node000002"><a xlink:title=" ">
<path fill="none" stroke="#63b8ff" d="M107.85,-76.42C130.99,-72.34 159.4,-67.33 182.29,-63.29"/>
<polygon fill="#63b8ff" stroke="#63b8ff" points="107.35,-72.95 98.11,-78.14 108.57,-79.85 107.35,-72.95"/>
</a>
</g>
</g>
<!-- Node3 -->
<g id="Node000003" class="node">
<title>Node3</title>
<g id="a_Node000003"><a xlink:href="classutil_1_1uniq__ptr.html" target="_top" xlink:title=" ">
<polygon fill="white" stroke="#bfbfbf" points="127.75,-56 0,-56 0,0 127.75,0 127.75,-56"/>
<text text-anchor="start" x="8" y="-42.5" font-family="Helvetica,sans-Serif" font-size="10.00">util::uniq_ptr&lt; T,</text>
<text text-anchor="start" x="8" y="-30.5" font-family="Helvetica,sans-Serif" font-size="10.00"> Destroy&lt; T *, void,</text>
<text text-anchor="start" x="8" y="-18.5" font-family="Helvetica,sans-Serif" font-size="10.00"> function &gt; &gt;&lt; pa_simple,</text>
<text text-anchor="middle" x="63.88" y="-6.5" font-family="Helvetica,sans-Serif" font-size="10.00"> pa_simple_free &gt;</text>
</a>
</g>
</g>
<!-- Node3&#45;&gt;Node1 -->
<g id="edge2_Node000001_Node000003" class="edge">
<title>Node3&#45;&gt;Node1</title>
<g id="a_edge2_Node000001_Node000003"><a xlink:title=" ">
<path fill="none" stroke="#9a32cd" stroke-dasharray="5,2" d="M139.25,-41.12C153.97,-43.71 168.92,-46.35 182.06,-48.67"/>
<polygon fill="#9a32cd" stroke="#9a32cd" points="140.02,-37.7 129.56,-39.41 138.8,-44.59 140.02,-37.7"/>
</a>
</g>
<text text-anchor="middle" x="155.12" y="-47.83" font-family="Helvetica,sans-Serif" font-size="10.00" fill="grey"> mic</text>
</g>
</g>
</svg>
