<?xml version="1.0" encoding="UTF-8" standalone="no"?>
<!DOCTYPE svg PUBLIC "-//W3C//DTD SVG 1.1//EN"
 "http://www.w3.org/Graphics/SVG/1.1/DTD/svg11.dtd">
<!-- Generated by graphviz version 12.2.1 (0)
 -->
<!-- Title: platf::av_display_t Pages: 1 -->
<svg width="556pt" height="128pt"
 viewBox="0.00 0.00 556.25 128.00" xmlns="http://www.w3.org/2000/svg" xmlns:xlink="http://www.w3.org/1999/xlink">
<g id="graph0" class="graph" transform="scale(1 1) rotate(0) translate(4 124)">
<title>platf::av_display_t</title>
<!-- Node1 -->
<g id="Node000001" class="node">
<title>Node1</title>
<g id="a_Node000001"><a xlink:title=" ">
<polygon fill="#999999" stroke="#666666" points="548.25,-88 452.75,-88 452.75,-68 548.25,-68 548.25,-88"/>
<text text-anchor="middle" x="500.5" y="-74.5" font-family="Helvetica,sans-Serif" font-size="10.00">platf::av_display_t</text>
</a>
</g>
</g>
<!-- Node2 -->
<g id="Node000002" class="node">
<title>Node2</title>
<g id="a_Node000002"><a xlink:href="classplatf_1_1display__t.html" target="_top" xlink:title=" ">
<polygon fill="white" stroke="#bfbfbf" points="365.75,-111 286,-111 286,-91 365.75,-91 365.75,-111"/>
<text text-anchor="middle" x="325.88" y="-97.5" font-family="Helvetica,sans-Serif" font-size="10.00">platf::display_t</text>
</a>
</g>
</g>
<!-- Node2&#45;&gt;Node1 -->
<g id="edge1_Node000001_Node000002" class="edge">
<title>Node2&#45;&gt;Node1</title>
<g id="a_edge1_Node000001_Node000002"><a xlink:title=" ">
<path fill="none" stroke="#63b8ff" d="M377.31,-94.28C401.06,-91.12 429.21,-87.37 452.5,-84.26"/>
<polygon fill="#63b8ff" stroke="#63b8ff" points="377,-90.79 367.55,-95.58 377.92,-97.73 377,-90.79"/>
</a>
</g>
</g>
<!-- Node3 -->
<g id="Node000003" class="node">
<title>Node3</title>
<g id="a_Node000003"><a xlink:href="classlogging_1_1time__delta__periodic__logger.html" target="_top" xlink:title="A helper class for tracking and logging short time intervals across a period of time.">
<polygon fill="white" stroke="#666666" points="121,-120 23.25,-120 23.25,-88 121,-88 121,-120"/>
<text text-anchor="start" x="31.25" y="-106.5" font-family="Helvetica,sans-Serif" font-size="10.00">logging::time_delta</text>
<text text-anchor="middle" x="72.12" y="-94.5" font-family="Helvetica,sans-Serif" font-size="10.00">_periodic_logger</text>
</a>
</g>
</g>
<!-- Node3&#45;&gt;Node2 -->
<g id="edge2_Node000002_Node000003" class="edge">
<title>Node3&#45;&gt;Node2</title>
<g id="a_edge2_Node000002_Node000003"><a xlink:title=" ">
<path fill="none" stroke="#9a32cd" stroke-dasharray="5,2" d="M132.7,-103.29C180.06,-102.73 244.93,-101.95 285.88,-101.46"/>
<polygon fill="#9a32cd" stroke="#9a32cd" points="132.84,-99.79 122.88,-103.41 132.92,-106.79 132.84,-99.79"/>
</a>
</g>
<text text-anchor="middle" x="215.12" y="-105.36" font-family="Helvetica,sans-Serif" font-size="10.00" fill="grey"> sleep_overshoot_logger</text>
</g>
<!-- Node4 -->
<g id="Node000004" class="node">
<title>Node4</title>
<g id="a_Node000004"><a xlink:href="interfaceAVVideo.html" target="_top" xlink:title=" ">
<polygon fill="white" stroke="#bfbfbf" points="352.62,-70 299.12,-70 299.12,-50 352.62,-50 352.62,-70"/>
<text text-anchor="middle" x="325.88" y="-56.5" font-family="Helvetica,sans-Serif" font-size="10.00">AVVideo</text>
</a>
</g>
</g>
<!-- Node4&#45;&gt;Node1 -->
<g id="edge3_Node000001_Node000004" class="edge">
<title>Node4&#45;&gt;Node1</title>
<g id="a_edge3_Node000001_Node000004"><a xlink:title=" ">
<path fill="none" stroke="#9a32cd" stroke-dasharray="5,2" d="M364.3,-62.61C385.08,-64.19 411.38,-66.4 434.75,-69 440.5,-69.64 446.53,-70.38 452.5,-71.16"/>
<polygon fill="#9a32cd" stroke="#9a32cd" points="364.81,-59.14 354.58,-61.89 364.29,-66.12 364.81,-59.14"/>
</a>
</g>
<text text-anchor="middle" x="409.25" y="-71.5" font-family="Helvetica,sans-Serif" font-size="10.00" fill="grey"> av_capture</text>
</g>
<!-- Node5 -->
<g id="Node000005" class="node">
<title>Node5</title>
<g id="a_Node000005"><a xlink:title=" ">
<polygon fill="white" stroke="#bfbfbf" points="101.5,-70 42.75,-70 42.75,-50 101.5,-50 101.5,-70"/>
<text text-anchor="middle" x="72.12" y="-56.5" font-family="Helvetica,sans-Serif" font-size="10.00">NSObject</text>
</a>
</g>
</g>
<!-- Node5&#45;&gt;Node4 -->
<g id="edge4_Node000004_Node000005" class="edge">
<title>Node5&#45;&gt;Node4</title>
<g id="a_edge4_Node000004_Node000005"><a xlink:title=" ">
<path fill="none" stroke="#63b8ff" d="M112.96,-60C165.02,-60 254.75,-60 298.86,-60"/>
<polygon fill="#63b8ff" stroke="#63b8ff" points="113.03,-56.5 103.03,-60 113.03,-63.5 113.03,-56.5"/>
</a>
</g>
</g>
<!-- Node6 -->
<g id="Node000006" class="node">
<title>Node6</title>
<g id="a_Node000006"><a xlink:title=" ">
<polygon fill="white" stroke="#bfbfbf" points="144.25,-32 0,-32 0,0 144.25,0 144.25,-32"/>
<text text-anchor="start" x="8" y="-18.5" font-family="Helvetica,sans-Serif" font-size="10.00">&lt;AVCaptureVideoDataOutput</text>
<text text-anchor="middle" x="72.12" y="-6.5" font-family="Helvetica,sans-Serif" font-size="10.00">SampleBufferDelegate&gt;</text>
</a>
</g>
</g>
<!-- Node6&#45;&gt;Node4 -->
<g id="edge5_Node000004_Node000006" class="edge">
<title>Node6&#45;&gt;Node4</title>
<g id="a_edge5_Node000004_Node000006"><a xlink:title=" ">
<path fill="none" stroke="#63b8ff" d="M155.65,-30.42C205.25,-39.09 265.08,-49.55 298.67,-55.42"/>
<polygon fill="#63b8ff" stroke="#63b8ff" points="156.54,-27.03 146.08,-28.75 155.33,-33.92 156.54,-27.03"/>
</a>
</g>
</g>
</g>
</svg>
