<?xml version="1.0" encoding="UTF-8" standalone="no"?>
<!DOCTYPE svg PUBLIC "-//W3C//DTD SVG 1.1//EN"
 "http://www.w3.org/Graphics/SVG/1.1/DTD/svg11.dtd">
<!-- Generated by graphviz version 12.2.1 (0)
 -->
<!-- Title: video::sync_session_ctx_t Pages: 1 -->
<svg width="214pt" height="108pt"
 viewBox="0.00 0.00 214.38 108.00" xmlns="http://www.w3.org/2000/svg" xmlns:xlink="http://www.w3.org/1999/xlink">
<g id="graph0" class="graph" transform="scale(1 1) rotate(0) translate(4 104)">
<title>video::sync_session_ctx_t</title>
<!-- Node1 -->
<g id="Node000001" class="node">
<title>Node1</title>
<g id="a_Node000001"><a xlink:title=" ">
<polygon fill="#999999" stroke="#666666" points="163.12,-32 57.88,-32 57.88,0 163.12,0 163.12,-32"/>
<text text-anchor="start" x="65.88" y="-18.5" font-family="Helvetica,sans-Serif" font-size="10.00">video::sync_session</text>
<text text-anchor="middle" x="110.5" y="-6.5" font-family="Helvetica,sans-Serif" font-size="10.00">_ctx_t</text>
</a>
</g>
</g>
<!-- Node2 -->
<g id="Node000002" class="node">
<title>Node2</title>
<g id="a_Node000002"><a xlink:href="classsafe_1_1event__t.html" target="_top" xlink:title=" ">
<polygon fill="white" stroke="#bfbfbf" points="109,-100 0,-100 0,-80 109,-80 109,-100"/>
<text text-anchor="middle" x="54.5" y="-86.5" font-family="Helvetica,sans-Serif" font-size="10.00">safe::event_t&lt; bool &gt;</text>
</a>
</g>
</g>
<!-- Node2&#45;&gt;Node1 -->
<g id="edge1_Node000001_Node000002" class="edge">
<title>Node2&#45;&gt;Node1</title>
<g id="a_edge1_Node000001_Node000002"><a xlink:title=" ">
<path fill="none" stroke="#9a32cd" stroke-dasharray="5,2" d="M68.79,-70.62C77.98,-58.82 89.77,-43.66 98.47,-32.47"/>
<polygon fill="#9a32cd" stroke="#9a32cd" points="66.13,-68.35 62.75,-78.39 71.65,-72.65 66.13,-68.35"/>
</a>
</g>
<text text-anchor="middle" x="107.8" y="-52.5" font-family="Helvetica,sans-Serif" font-size="10.00" fill="grey"> join_event</text>
</g>
<!-- Node3 -->
<g id="Node000003" class="node">
<title>Node3</title>
<g id="a_Node000003"><a xlink:href="structvideo_1_1config__t.html" target="_top" xlink:title=" ">
<polygon fill="white" stroke="#bfbfbf" points="206.38,-100 126.62,-100 126.62,-80 206.38,-80 206.38,-100"/>
<text text-anchor="middle" x="166.5" y="-86.5" font-family="Helvetica,sans-Serif" font-size="10.00">video::config_t</text>
</a>
</g>
</g>
<!-- Node3&#45;&gt;Node1 -->
<g id="edge2_Node000001_Node000003" class="edge">
<title>Node3&#45;&gt;Node1</title>
<g id="a_edge2_Node000001_Node000003"><a xlink:title=" ">
<path fill="none" stroke="#9a32cd" stroke-dasharray="5,2" d="M152.21,-70.62C143.02,-58.82 131.23,-43.66 122.53,-32.47"/>
<polygon fill="#9a32cd" stroke="#9a32cd" points="149.35,-72.65 158.25,-78.39 154.87,-68.35 149.35,-72.65"/>
</a>
</g>
<text text-anchor="middle" x="159.79" y="-52.5" font-family="Helvetica,sans-Serif" font-size="10.00" fill="grey"> config</text>
</g>
</g>
</svg>
