<?xml version="1.0" encoding="UTF-8" standalone="no"?>
<!DOCTYPE svg PUBLIC "-//W3C//DTD SVG 1.1//EN"
 "http://www.w3.org/Graphics/SVG/1.1/DTD/svg11.dtd">
<!-- Generated by graphviz version 12.2.1 (0)
 -->
<!-- Title: platf::x11_attr_t Pages: 1 -->
<svg width="534pt" height="108pt"
 viewBox="0.00 0.00 533.75 108.00" xmlns="http://www.w3.org/2000/svg" xmlns:xlink="http://www.w3.org/1999/xlink">
<g id="graph0" class="graph" transform="scale(1 1) rotate(0) translate(4 104)">
<title>platf::x11_attr_t</title>
<!-- Node1 -->
<g id="Node000001" class="node">
<title>Node1</title>
<g id="a_Node000001"><a xlink:title=" ">
<polygon fill="#999999" stroke="#666666" points="525.75,-51 442.25,-51 442.25,-31 525.75,-31 525.75,-51"/>
<text text-anchor="middle" x="484" y="-37.5" font-family="Helvetica,sans-Serif" font-size="10.00">platf::x11_attr_t</text>
</a>
</g>
</g>
<!-- Node2 -->
<g id="Node000002" class="node">
<title>Node2</title>
<g id="a_Node000002"><a xlink:href="classplatf_1_1display__t.html" target="_top" xlink:title=" ">
<polygon fill="white" stroke="#bfbfbf" points="343.25,-94 263.5,-94 263.5,-74 343.25,-74 343.25,-94"/>
<text text-anchor="middle" x="303.38" y="-80.5" font-family="Helvetica,sans-Serif" font-size="10.00">platf::display_t</text>
</a>
</g>
</g>
<!-- Node2&#45;&gt;Node1 -->
<g id="edge1_Node000001_Node000002" class="edge">
<title>Node2&#45;&gt;Node1</title>
<g id="a_edge1_Node000001_Node000002"><a xlink:title=" ">
<path fill="none" stroke="#63b8ff" d="M354.6,-71.91C382.21,-65.26 416.03,-57.12 442.03,-50.86"/>
<polygon fill="#63b8ff" stroke="#63b8ff" points="353.95,-68.47 345.05,-74.21 355.59,-75.27 353.95,-68.47"/>
</a>
</g>
</g>
<!-- Node3 -->
<g id="Node000003" class="node">
<title>Node3</title>
<g id="a_Node000003"><a xlink:href="classlogging_1_1time__delta__periodic__logger.html" target="_top" xlink:title="A helper class for tracking and logging short time intervals across a period of time.">
<polygon fill="white" stroke="#666666" points="97.75,-100 0,-100 0,-68 97.75,-68 97.75,-100"/>
<text text-anchor="start" x="8" y="-86.5" font-family="Helvetica,sans-Serif" font-size="10.00">logging::time_delta</text>
<text text-anchor="middle" x="48.88" y="-74.5" font-family="Helvetica,sans-Serif" font-size="10.00">_periodic_logger</text>
</a>
</g>
</g>
<!-- Node3&#45;&gt;Node2 -->
<g id="edge2_Node000002_Node000003" class="edge">
<title>Node3&#45;&gt;Node2</title>
<g id="a_edge2_Node000002_Node000003"><a xlink:title=" ">
<path fill="none" stroke="#9a32cd" stroke-dasharray="5,2" d="M109.32,-84C156.81,-84 222.01,-84 263.16,-84"/>
<polygon fill="#9a32cd" stroke="#9a32cd" points="109.48,-80.5 99.48,-84 109.48,-87.5 109.48,-80.5"/>
</a>
</g>
<text text-anchor="middle" x="168.62" y="-86.5" font-family="Helvetica,sans-Serif" font-size="10.00" fill="grey"> sleep_overshoot_logger</text>
</g>
<!-- Node4 -->
<g id="Node000004" class="node">
<title>Node4</title>
<g id="a_Node000004"><a xlink:href="classutil_1_1uniq__ptr.html" target="_top" xlink:title=" ">
<polygon fill="white" stroke="#bfbfbf" points="367.25,-56 239.5,-56 239.5,0 367.25,0 367.25,-56"/>
<text text-anchor="start" x="247.5" y="-42.5" font-family="Helvetica,sans-Serif" font-size="10.00">util::uniq_ptr&lt; T,</text>
<text text-anchor="start" x="247.5" y="-30.5" font-family="Helvetica,sans-Serif" font-size="10.00"> Destroy&lt; T *, void,</text>
<text text-anchor="start" x="247.5" y="-18.5" font-family="Helvetica,sans-Serif" font-size="10.00"> function &gt; &gt;&lt; _XDisplay,</text>
<text text-anchor="middle" x="303.38" y="-6.5" font-family="Helvetica,sans-Serif" font-size="10.00"> freeDisplay &gt;</text>
</a>
</g>
</g>
<!-- Node4&#45;&gt;Node1 -->
<g id="edge3_Node000001_Node000004" class="edge">
<title>Node4&#45;&gt;Node1</title>
<g id="a_edge3_Node000001_Node000004"><a xlink:title=" ">
<path fill="none" stroke="#9a32cd" stroke-dasharray="5,2" d="M379.06,-33.44C400.57,-35 423.25,-36.65 441.91,-38.01"/>
<polygon fill="#9a32cd" stroke="#9a32cd" points="379.34,-29.95 369.11,-32.71 378.83,-36.93 379.34,-29.95"/>
</a>
</g>
<text text-anchor="middle" x="404.75" y="-38.92" font-family="Helvetica,sans-Serif" font-size="10.00" fill="grey"> xdisplay</text>
</g>
</g>
</svg>
