<?xml version="1.0" encoding="UTF-8" standalone="no"?>
<!DOCTYPE svg PUBLIC "-//W3C//DTD SVG 1.1//EN"
 "http://www.w3.org/Graphics/SVG/1.1/DTD/svg11.dtd">
<!-- Generated by graphviz version 12.2.1 (0)
 -->
<!-- Title: egl::nv12_img_t Pages: 1 -->
<svg width="158pt" height="153pt"
 viewBox="0.00 0.00 158.25 153.00" xmlns="http://www.w3.org/2000/svg" xmlns:xlink="http://www.w3.org/1999/xlink">

<svg id="main" version="1.1" xmlns="http://www.w3.org/2000/svg" xmlns:xlink="http://www.w3.org/1999/xlink" xml:space="preserve">

<style type="text/css"><![CDATA[
.node, .edge {opacity: 0.7;}
.node.selected, .edge.selected {opacity: 1;}
.edge:hover path { stroke: red; }
.edge:hover polygon { stroke: red; fill: red; }
]]></style>
<script type="application/ecmascript" xlink:href="svg.min.js"/>
<svg id="graph" class="graph">
<g id="graph0" class="graph" transform="scale(1 1) rotate(0) translate(4 149)">
<title>egl::nv12_img_t</title>
<!-- Node1 -->
<g id="Node000001" class="node">
<title>Node1</title>
<g id="a_Node000001"><a xlink:title=" ">
<polygon fill="#999999" stroke="#666666" points="110.12,-20 25.12,-20 25.12,0 110.12,0 110.12,-20"/>
<text text-anchor="middle" x="67.62" y="-6.5" font-family="Helvetica,sans-Serif" font-size="10.00">egl::nv12_img_t</text>
</a>
</g>
</g>
<!-- Node2 -->
<g id="Node000002" class="node">
<title>Node2</title>
<g id="a_Node000002"><a xlink:href="classgl_1_1tex__t.html" target="_top" xlink:title=" ">
<polygon fill="white" stroke="#bfbfbf" points="51.25,-88 0,-88 0,-68 51.25,-68 51.25,-88"/>
<text text-anchor="middle" x="25.62" y="-74.5" font-family="Helvetica,sans-Serif" font-size="10.00">gl::tex_t</text>
</a>
</g>
</g>
<!-- Node2&#45;&gt;Node1 -->
<g id="edge1_Node000001_Node000002" class="edge">
<title>Node2&#45;&gt;Node1</title>
<g id="a_edge1_Node000001_Node000002"><a xlink:title=" ">
<path fill="none" stroke="#9a32cd" stroke-dasharray="5,2" d="M37.62,-58.15C45.47,-45.82 55.39,-30.23 61.62,-20.44"/>
<polygon fill="#9a32cd" stroke="#9a32cd" points="34.87,-55.95 32.46,-66.27 40.78,-59.71 34.87,-55.95"/>
</a>
</g>
<text text-anchor="middle" x="58.64" y="-40.5" font-family="Helvetica,sans-Serif" font-size="10.00" fill="grey"> tex</text>
</g>
<!-- Node3 -->
<g id="Node000003" class="node">
<title>Node3</title>
<g id="a_Node000003"><a xlink:href="classutil_1_1buffer__t.html" target="_top" xlink:title=" ">
<polygon fill="white" stroke="#bfbfbf" points="123.38,-145 9.88,-145 9.88,-125 123.38,-125 123.38,-145"/>
<text text-anchor="middle" x="66.62" y="-131.5" font-family="Helvetica,sans-Serif" font-size="10.00">util::buffer_t&lt; GLuint &gt;</text>
</a>
</g>
</g>
<!-- Node3&#45;&gt;Node2 -->
<g id="edge2_Node000002_Node000003" class="edge">
<title>Node3&#45;&gt;Node2</title>
<g id="a_edge2_Node000002_Node000003"><a xlink:title=" ">
<path fill="none" stroke="#63b8ff" d="M53.04,-115.77C46.17,-106.56 38.13,-95.78 32.54,-88.28"/>
<polygon fill="#63b8ff" stroke="#63b8ff" points="50.17,-117.78 58.95,-123.7 55.78,-113.6 50.17,-117.78"/>
</a>
</g>
</g>
<!-- Node4 -->
<g id="Node000004" class="node">
<title>Node4</title>
<g id="a_Node000004"><a xlink:href="classgl_1_1frame__buf__t.html" target="_top" xlink:title=" ">
<polygon fill="white" stroke="#bfbfbf" points="150.25,-88 69,-88 69,-68 150.25,-68 150.25,-88"/>
<text text-anchor="middle" x="109.62" y="-74.5" font-family="Helvetica,sans-Serif" font-size="10.00">gl::frame_buf_t</text>
</a>
</g>
</g>
<!-- Node3&#45;&gt;Node4 -->
<g id="edge4_Node000004_Node000003" class="edge">
<title>Node3&#45;&gt;Node4</title>
<g id="a_edge4_Node000004_Node000003"><a xlink:title=" ">
<path fill="none" stroke="#63b8ff" d="M80.65,-116.06C87.9,-106.79 96.45,-95.86 102.37,-88.28"/>
<polygon fill="#63b8ff" stroke="#63b8ff" points="78.06,-113.69 74.66,-123.73 83.57,-118 78.06,-113.69"/>
</a>
</g>
</g>
<!-- Node4&#45;&gt;Node1 -->
<g id="edge3_Node000001_Node000004" class="edge">
<title>Node4&#45;&gt;Node1</title>
<g id="a_edge3_Node000001_Node000004"><a xlink:title=" ">
<path fill="none" stroke="#9a32cd" stroke-dasharray="5,2" d="M97.63,-58.15C89.78,-45.82 79.86,-30.23 73.63,-20.44"/>
<polygon fill="#9a32cd" stroke="#9a32cd" points="94.47,-59.71 102.79,-66.27 100.38,-55.95 94.47,-59.71"/>
</a>
</g>
<text text-anchor="middle" x="100.64" y="-40.5" font-family="Helvetica,sans-Serif" font-size="10.00" fill="grey"> buf</text>
</g>
</g>
</svg>
</svg>

<style type='text/css'>
<![CDATA[
[data-mouse-over-selected='false'] { opacity: 0.7; }
[data-mouse-over-selected='true']  { opacity: 1.0; }
]]>
</style>
<script type="application/ecmascript"><![CDATA[
document.addEventListener('DOMContentLoaded', (event) => {
  highlightEdges();
  highlightAdjacentNodes();
});
]]></script>
</svg>
