<?xml version="1.0" encoding="UTF-8" standalone="no"?>
<!DOCTYPE svg PUBLIC "-//W3C//DTD SVG 1.1//EN"
 "http://www.w3.org/Graphics/SVG/1.1/DTD/svg11.dtd">
<!-- Generated by graphviz version 12.2.1 (0)
 -->
<!-- Title: config::video_t Pages: 1 -->
<svg width="293pt" height="176pt"
 viewBox="0.00 0.00 293.12 176.00" xmlns="http://www.w3.org/2000/svg" xmlns:xlink="http://www.w3.org/1999/xlink">

<svg id="main" version="1.1" xmlns="http://www.w3.org/2000/svg" xmlns:xlink="http://www.w3.org/1999/xlink" xml:space="preserve">

<style type="text/css"><![CDATA[
.node, .edge {opacity: 0.7;}
.node.selected, .edge.selected {opacity: 1;}
.edge:hover path { stroke: red; }
.edge:hover polygon { stroke: red; fill: red; }
]]></style>
<script type="application/ecmascript" xlink:href="svg.min.js"/>
<svg id="graph" class="graph">
<g id="graph0" class="graph" transform="scale(1 1) rotate(0) translate(4 172)">
<title>config::video_t</title>
<!-- Node1 -->
<g id="Node000001" class="node">
<title>Node1</title>
<g id="a_Node000001"><a xlink:title=" ">
<polygon fill="#999999" stroke="#666666" points="110.88,-20 31.12,-20 31.12,0 110.88,0 110.88,-20"/>
<text text-anchor="middle" x="71" y="-6.5" font-family="Helvetica,sans-Serif" font-size="10.00">config::video_t</text>
</a>
</g>
</g>
<!-- Node2 -->
<g id="Node000002" class="node">
<title>Node2</title>
<g id="a_Node000002"><a xlink:href="structnvenc_1_1nvenc__config.html" target="_top" xlink:title="NVENC encoder configuration.">
<polygon fill="white" stroke="#666666" points="106,-88 0,-88 0,-68 106,-68 106,-88"/>
<text text-anchor="middle" x="53" y="-74.5" font-family="Helvetica,sans-Serif" font-size="10.00">nvenc::nvenc_config</text>
</a>
</g>
</g>
<!-- Node2&#45;&gt;Node1 -->
<g id="edge1_Node000001_Node000002" class="edge">
<title>Node2&#45;&gt;Node1</title>
<g id="a_edge1_Node000001_Node000002"><a xlink:title=" ">
<path fill="none" stroke="#9a32cd" stroke-dasharray="5,2" d="M58.55,-56.65C61.84,-44.58 65.86,-29.84 68.43,-20.44"/>
<polygon fill="#9a32cd" stroke="#9a32cd" points="55.23,-55.52 55.98,-66.08 61.99,-57.36 55.23,-55.52"/>
</a>
</g>
<text text-anchor="middle" x="70.36" y="-40.5" font-family="Helvetica,sans-Serif" font-size="10.00" fill="grey"> nv</text>
</g>
<!-- Node3 -->
<g id="Node000003" class="node">
<title>Node3</title>
<g id="a_Node000003"><a xlink:href="structconfig_1_1video__t_1_1dd__t.html" target="_top" xlink:title=" ">
<polygon fill="white" stroke="#bfbfbf" points="228.25,-88 123.75,-88 123.75,-68 228.25,-68 228.25,-88"/>
<text text-anchor="middle" x="176" y="-74.5" font-family="Helvetica,sans-Serif" font-size="10.00">config::video_t::dd_t</text>
</a>
</g>
</g>
<!-- Node3&#45;&gt;Node1 -->
<g id="edge2_Node000001_Node000003" class="edge">
<title>Node3&#45;&gt;Node1</title>
<g id="a_edge2_Node000001_Node000003"><a xlink:title=" ">
<path fill="none" stroke="#9a32cd" stroke-dasharray="5,2" d="M151.45,-61.57C131.18,-48.83 103.08,-31.16 86.02,-20.44"/>
<polygon fill="#9a32cd" stroke="#9a32cd" points="149.35,-64.38 159.67,-66.74 153.07,-58.45 149.35,-64.38"/>
</a>
</g>
<text text-anchor="middle" x="139.65" y="-40.5" font-family="Helvetica,sans-Serif" font-size="10.00" fill="grey"> dd</text>
</g>
<!-- Node4 -->
<g id="Node000004" class="node">
<title>Node4</title>
<g id="a_Node000004"><a xlink:href="structconfig_1_1video__t_1_1dd__t_1_1mode__remapping__t.html" target="_top" xlink:title=" ">
<polygon fill="white" stroke="#bfbfbf" points="170.38,-168 57.62,-168 57.62,-136 170.38,-136 170.38,-168"/>
<text text-anchor="start" x="65.62" y="-154.5" font-family="Helvetica,sans-Serif" font-size="10.00">config::video_t::dd</text>
<text text-anchor="middle" x="114" y="-142.5" font-family="Helvetica,sans-Serif" font-size="10.00">_t::mode_remapping_t</text>
</a>
</g>
</g>
<!-- Node4&#45;&gt;Node3 -->
<g id="edge3_Node000003_Node000004" class="edge">
<title>Node4&#45;&gt;Node3</title>
<g id="a_edge3_Node000003_Node000004"><a xlink:title=" ">
<path fill="none" stroke="#9a32cd" stroke-dasharray="5,2" d="M111.73,-124.31C112.34,-117.86 114.05,-111.3 117.75,-106 123.3,-98.05 131.81,-92.39 140.62,-88.37"/>
<polygon fill="#9a32cd" stroke="#9a32cd" points="108.23,-123.98 111.63,-134.01 115.23,-124.05 108.23,-123.98"/>
</a>
</g>
<text text-anchor="middle" x="156.38" y="-108.5" font-family="Helvetica,sans-Serif" font-size="10.00" fill="grey"> mode_remapping</text>
</g>
<!-- Node5 -->
<g id="Node000005" class="node">
<title>Node5</title>
<g id="a_Node000005"><a xlink:href="structconfig_1_1video__t_1_1dd__t_1_1workarounds__t.html" target="_top" xlink:title=" ">
<polygon fill="white" stroke="#bfbfbf" points="285.12,-168 188.88,-168 188.88,-136 285.12,-136 285.12,-168"/>
<text text-anchor="start" x="196.88" y="-154.5" font-family="Helvetica,sans-Serif" font-size="10.00">config::video_t::dd</text>
<text text-anchor="middle" x="237" y="-142.5" font-family="Helvetica,sans-Serif" font-size="10.00">_t::workarounds_t</text>
</a>
</g>
</g>
<!-- Node5&#45;&gt;Node3 -->
<g id="edge4_Node000003_Node000005" class="edge">
<title>Node5&#45;&gt;Node3</title>
<g id="a_edge4_Node000003_Node000005"><a xlink:title=" ">
<path fill="none" stroke="#9a32cd" stroke-dasharray="5,2" d="M216.71,-127.05C205.48,-113.79 192.16,-98.07 183.89,-88.31"/>
<polygon fill="#9a32cd" stroke="#9a32cd" points="213.95,-129.21 223.09,-134.58 219.29,-124.68 213.95,-129.21"/>
</a>
</g>
<text text-anchor="middle" x="216.2" y="-108.5" font-family="Helvetica,sans-Serif" font-size="10.00" fill="grey"> wa</text>
</g>
</g>
</svg>
</svg>

<style type='text/css'>
<![CDATA[
[data-mouse-over-selected='false'] { opacity: 0.7; }
[data-mouse-over-selected='true']  { opacity: 1.0; }
]]>
</style>
<script type="application/ecmascript"><![CDATA[
document.addEventListener('DOMContentLoaded', (event) => {
  highlightEdges();
  highlightAdjacentNodes();
});
]]></script>
</svg>
