<?xml version="1.0" encoding="UTF-8" standalone="no"?>
<!DOCTYPE svg PUBLIC "-//W3C//DTD SVG 1.1//EN"
 "http://www.w3.org/Graphics/SVG/1.1/DTD/svg11.dtd">
<!-- Generated by graphviz version 12.2.1 (0)
 -->
<!-- Title: platf::dxgi::img_d3d_t Pages: 1 -->
<svg width="545pt" height="268pt"
 viewBox="0.00 0.00 544.50 268.00" xmlns="http://www.w3.org/2000/svg" xmlns:xlink="http://www.w3.org/1999/xlink">
<g id="graph0" class="graph" transform="scale(1 1) rotate(0) translate(4 264)">
<title>platf::dxgi::img_d3d_t</title>
<!-- Node1 -->
<g id="Node000001" class="node">
<title>Node1</title>
<g id="a_Node000001"><a xlink:title=" ">
<polygon fill="#999999" stroke="#666666" points="536.5,-158 426.75,-158 426.75,-138 536.5,-138 536.5,-158"/>
<text text-anchor="middle" x="481.62" y="-144.5" font-family="Helvetica,sans-Serif" font-size="10.00">platf::dxgi::img_d3d_t</text>
</a>
</g>
</g>
<!-- Node2 -->
<g id="Node000002" class="node">
<title>Node2</title>
<g id="a_Node000002"><a xlink:href="structplatf_1_1img__t.html" target="_top" xlink:title=" ">
<polygon fill="white" stroke="#bfbfbf" points="262.88,-254 198.12,-254 198.12,-234 262.88,-234 262.88,-254"/>
<text text-anchor="middle" x="230.5" y="-240.5" font-family="Helvetica,sans-Serif" font-size="10.00">platf::img_t</text>
</a>
</g>
</g>
<!-- Node2&#45;&gt;Node1 -->
<g id="edge1_Node000001_Node000002" class="edge">
<title>Node2&#45;&gt;Node1</title>
<g id="a_edge1_Node000001_Node000002"><a xlink:title=" ">
<path fill="none" stroke="#63b8ff" d="M274.04,-236.73C288.84,-233.72 305.44,-229.79 320.25,-225 361.14,-211.77 370.06,-204.72 408.75,-186 427.05,-177.15 447.5,-166.23 461.9,-158.37"/>
<polygon fill="#63b8ff" stroke="#63b8ff" points="273.76,-233.22 264.61,-238.56 275.1,-240.09 273.76,-233.22"/>
</a>
</g>
</g>
<!-- Node3 -->
<g id="Node000003" class="node">
<title>Node3</title>
<g id="a_Node000003"><a xlink:title=" ">
<polygon fill="white" stroke="#bfbfbf" points="103.75,-260 0,-260 0,-228 103.75,-228 103.75,-260"/>
<text text-anchor="start" x="8" y="-246.5" font-family="Helvetica,sans-Serif" font-size="10.00">std::enable_shared</text>
<text text-anchor="middle" x="51.88" y="-234.5" font-family="Helvetica,sans-Serif" font-size="10.00">_from_this&lt; img_t &gt;</text>
</a>
</g>
</g>
<!-- Node3&#45;&gt;Node2 -->
<g id="edge2_Node000002_Node000003" class="edge">
<title>Node3&#45;&gt;Node2</title>
<g id="a_edge2_Node000002_Node000003"><a xlink:title=" ">
<path fill="none" stroke="#63b8ff" d="M115.24,-244C143.11,-244 174.77,-244 197.69,-244"/>
<polygon fill="#63b8ff" stroke="#63b8ff" points="115.48,-240.5 105.48,-244 115.48,-247.5 115.48,-240.5"/>
</a>
</g>
</g>
<!-- Node4 -->
<g id="Node000004" class="node">
<title>Node4</title>
<g id="a_Node000004"><a xlink:href="classutil_1_1uniq__ptr.html" target="_top" xlink:title=" ">
<polygon fill="white" stroke="#bfbfbf" points="315.75,-216 145.25,-216 145.25,-160 315.75,-160 315.75,-216"/>
<text text-anchor="start" x="153.25" y="-202.5" font-family="Helvetica,sans-Serif" font-size="10.00">util::uniq_ptr&lt; T,</text>
<text text-anchor="start" x="153.25" y="-190.5" font-family="Helvetica,sans-Serif" font-size="10.00"> Destroy&lt; T *, void,</text>
<text text-anchor="start" x="153.25" y="-178.5" font-family="Helvetica,sans-Serif" font-size="10.00"> function &gt; &gt;&lt; ID3D11Texture2</text>
<text text-anchor="middle" x="230.5" y="-166.5" font-family="Helvetica,sans-Serif" font-size="10.00">D, Release&lt; ID3D11Texture2D &gt; &gt;</text>
</a>
</g>
</g>
<!-- Node4&#45;&gt;Node1 -->
<g id="edge3_Node000001_Node000004" class="edge">
<title>Node4&#45;&gt;Node1</title>
<g id="a_edge3_Node000001_Node000004"><a xlink:title=" ">
<path fill="none" stroke="#9a32cd" stroke-dasharray="5,2" d="M327.46,-172.59C361.09,-167.19 397.65,-161.32 426.61,-156.67"/>
<polygon fill="#9a32cd" stroke="#9a32cd" points="327,-169.12 317.68,-174.16 328.11,-176.03 327,-169.12"/>
</a>
</g>
<text text-anchor="middle" x="373.5" y="-172.89" font-family="Helvetica,sans-Serif" font-size="10.00" fill="grey"> capture_texture</text>
</g>
<!-- Node5 -->
<g id="Node000005" class="node">
<title>Node5</title>
<g id="a_Node000005"><a xlink:href="classutil_1_1uniq__ptr.html" target="_top" xlink:title=" ">
<polygon fill="white" stroke="#bfbfbf" points="320.25,-142 140.75,-142 140.75,-74 320.25,-74 320.25,-142"/>
<text text-anchor="start" x="148.75" y="-128.5" font-family="Helvetica,sans-Serif" font-size="10.00">util::uniq_ptr&lt; T,</text>
<text text-anchor="start" x="148.75" y="-116.5" font-family="Helvetica,sans-Serif" font-size="10.00"> Destroy&lt; T *, void,</text>
<text text-anchor="start" x="148.75" y="-104.5" font-family="Helvetica,sans-Serif" font-size="10.00"> function &gt; &gt;&lt; ID3D11Render</text>
<text text-anchor="start" x="148.75" y="-92.5" font-family="Helvetica,sans-Serif" font-size="10.00">TargetView, Release&lt; ID3D11Render</text>
<text text-anchor="middle" x="230.5" y="-80.5" font-family="Helvetica,sans-Serif" font-size="10.00">TargetView &gt; &gt;</text>
</a>
</g>
</g>
<!-- Node5&#45;&gt;Node1 -->
<g id="edge4_Node000001_Node000005" class="edge">
<title>Node5&#45;&gt;Node1</title>
<g id="a_edge4_Node000001_Node000005"><a xlink:title=" ">
<path fill="none" stroke="#9a32cd" stroke-dasharray="5,2" d="M332.04,-124.14C364.29,-129.32 398.77,-134.86 426.39,-139.29"/>
<polygon fill="#9a32cd" stroke="#9a32cd" points="332.66,-120.7 322.23,-122.57 331.55,-127.61 332.66,-120.7"/>
</a>
</g>
<text text-anchor="middle" x="373.5" y="-138.68" font-family="Helvetica,sans-Serif" font-size="10.00" fill="grey"> capture_rt</text>
</g>
<!-- Node6 -->
<g id="Node000006" class="node">
<title>Node6</title>
<g id="a_Node000006"><a xlink:href="classutil_1_1uniq__ptr.html" target="_top" xlink:title=" ">
<polygon fill="white" stroke="#bfbfbf" points="313.5,-56 147.5,-56 147.5,0 313.5,0 313.5,-56"/>
<text text-anchor="start" x="155.5" y="-42.5" font-family="Helvetica,sans-Serif" font-size="10.00">util::uniq_ptr&lt; T,</text>
<text text-anchor="start" x="155.5" y="-30.5" font-family="Helvetica,sans-Serif" font-size="10.00"> Destroy&lt; T *, void,</text>
<text text-anchor="start" x="155.5" y="-18.5" font-family="Helvetica,sans-Serif" font-size="10.00"> function &gt; &gt;&lt; IDXGIKeyedMutex,</text>
<text text-anchor="middle" x="230.5" y="-6.5" font-family="Helvetica,sans-Serif" font-size="10.00"> Release&lt; IDXGIKeyedMutex &gt; &gt;</text>
</a>
</g>
</g>
<!-- Node6&#45;&gt;Node1 -->
<g id="edge5_Node000001_Node000006" class="edge">
<title>Node6&#45;&gt;Node1</title>
<g id="a_edge5_Node000001_Node000006"><a xlink:title=" ">
<path fill="none" stroke="#9a32cd" stroke-dasharray="5,2" d="M311.35,-60.95C314.36,-62.3 317.34,-63.65 320.25,-65 360.31,-83.5 369.58,-89.69 408.75,-110 426.54,-119.23 446.71,-129.91 461.15,-137.59"/>
<polygon fill="#9a32cd" stroke="#9a32cd" points="312.95,-57.83 302.39,-57 310.12,-64.24 312.95,-57.83"/>
</a>
</g>
<text text-anchor="middle" x="373.5" y="-112.5" font-family="Helvetica,sans-Serif" font-size="10.00" fill="grey"> capture_mutex</text>
</g>
</g>
</svg>
