<?xml version="1.0" encoding="UTF-8" standalone="no"?>
<!DOCTYPE svg PUBLIC "-//W3C//DTD SVG 1.1//EN"
 "http://www.w3.org/Graphics/SVG/1.1/DTD/svg11.dtd">
<!-- Generated by graphviz version 12.2.1 (0)
 -->
<!-- Title: platf::kms::kms_img_t Pages: 1 -->
<svg width="122pt" height="152pt"
 viewBox="0.00 0.00 121.50 152.00" xmlns="http://www.w3.org/2000/svg" xmlns:xlink="http://www.w3.org/1999/xlink">
<g id="graph0" class="graph" transform="scale(1 1) rotate(0) translate(4 148)">
<title>platf::kms::kms_img_t</title>
<!-- Node1 -->
<g id="Node000001" class="node">
<title>Node1</title>
<g id="a_Node000001"><a xlink:title=" ">
<polygon fill="#999999" stroke="#666666" points="113.5,-20 0,-20 0,0 113.5,0 113.5,-20"/>
<text text-anchor="middle" x="56.75" y="-6.5" font-family="Helvetica,sans-Serif" font-size="10.00">platf::kms::kms_img_t</text>
</a>
</g>
</g>
<!-- Node2 -->
<g id="Node000002" class="node">
<title>Node2</title>
<g id="a_Node000002"><a xlink:href="structplatf_1_1img__t.html" target="_top" xlink:title=" ">
<polygon fill="white" stroke="#bfbfbf" points="89.12,-76 24.38,-76 24.38,-56 89.12,-56 89.12,-76"/>
<text text-anchor="middle" x="56.75" y="-62.5" font-family="Helvetica,sans-Serif" font-size="10.00">platf::img_t</text>
</a>
</g>
</g>
<!-- Node2&#45;&gt;Node1 -->
<g id="edge1_Node000001_Node000002" class="edge">
<title>Node2&#45;&gt;Node1</title>
<g id="a_edge1_Node000001_Node000002"><a xlink:title=" ">
<path fill="none" stroke="#63b8ff" d="M56.75,-44.13C56.75,-35.9 56.75,-26.85 56.75,-20.3"/>
<polygon fill="#63b8ff" stroke="#63b8ff" points="53.25,-44.08 56.75,-54.08 60.25,-44.08 53.25,-44.08"/>
</a>
</g>
</g>
<!-- Node3 -->
<g id="Node000003" class="node">
<title>Node3</title>
<g id="a_Node000003"><a xlink:title=" ">
<polygon fill="white" stroke="#bfbfbf" points="108.62,-144 4.88,-144 4.88,-112 108.62,-112 108.62,-144"/>
<text text-anchor="start" x="12.88" y="-130.5" font-family="Helvetica,sans-Serif" font-size="10.00">std::enable_shared</text>
<text text-anchor="middle" x="56.75" y="-118.5" font-family="Helvetica,sans-Serif" font-size="10.00">_from_this&lt; img_t &gt;</text>
</a>
</g>
</g>
<!-- Node3&#45;&gt;Node2 -->
<g id="edge2_Node000002_Node000003" class="edge">
<title>Node3&#45;&gt;Node2</title>
<g id="a_edge2_Node000002_Node000003"><a xlink:title=" ">
<path fill="none" stroke="#63b8ff" d="M56.75,-100.08C56.75,-91.6 56.75,-82.8 56.75,-76.41"/>
<polygon fill="#63b8ff" stroke="#63b8ff" points="53.25,-100.03 56.75,-110.03 60.25,-100.03 53.25,-100.03"/>
</a>
</g>
</g>
</g>
</svg>
