<?xml version="1.0" encoding="UTF-8" standalone="no"?>
<!DOCTYPE svg PUBLIC "-//W3C//DTD SVG 1.1//EN"
 "http://www.w3.org/Graphics/SVG/1.1/DTD/svg11.dtd">
<!-- Generated by graphviz version 12.2.1 (0)
 -->
<!-- Title: stream::session_t Pages: 1 -->
<svg width="829pt" height="302pt"
 viewBox="0.00 0.00 828.75 302.00" xmlns="http://www.w3.org/2000/svg" xmlns:xlink="http://www.w3.org/1999/xlink">
<g id="graph0" class="graph" transform="scale(1 1) rotate(0) translate(4 298)">
<title>stream::session_t</title>
<!-- Node1 -->
<g id="Node000001" class="node">
<title>Node1</title>
<g id="a_Node000001"><a xlink:title=" ">
<polygon fill="#999999" stroke="#666666" points="820.75,-146 726.75,-146 726.75,-126 820.75,-126 820.75,-146"/>
<text text-anchor="middle" x="773.75" y="-132.5" font-family="Helvetica,sans-Serif" font-size="10.00">stream::session_t</text>
</a>
</g>
</g>
<!-- Node2 -->
<g id="Node000002" class="node">
<title>Node2</title>
<g id="a_Node000002"><a xlink:href="structstream_1_1config__t.html" target="_top" xlink:title=" ">
<polygon fill="white" stroke="#bfbfbf" points="603.38,-272 516.88,-272 516.88,-252 603.38,-252 603.38,-272"/>
<text text-anchor="middle" x="560.12" y="-258.5" font-family="Helvetica,sans-Serif" font-size="10.00">stream::config_t</text>
</a>
</g>
</g>
<!-- Node2&#45;&gt;Node1 -->
<g id="edge1_Node000001_Node000002" class="edge">
<title>Node2&#45;&gt;Node1</title>
<g id="a_edge1_Node000001_Node000002"><a xlink:title=" ">
<path fill="none" stroke="#9a32cd" stroke-dasharray="5,2" d="M614.66,-253.16C644.37,-246.33 680.85,-234.62 708.75,-215 735.61,-196.12 757.22,-162.97 767.04,-146.25"/>
<polygon fill="#9a32cd" stroke="#9a32cd" points="614.14,-249.69 605.11,-255.22 615.62,-256.53 614.14,-249.69"/>
</a>
</g>
<text text-anchor="middle" x="677.62" y="-246.44" font-family="Helvetica,sans-Serif" font-size="10.00" fill="grey"> config</text>
</g>
<!-- Node3 -->
<g id="Node000003" class="node">
<title>Node3</title>
<g id="a_Node000003"><a xlink:href="structaudio_1_1config__t.html" target="_top" xlink:title=" ">
<polygon fill="white" stroke="#bfbfbf" points="402.5,-292 322.75,-292 322.75,-272 402.5,-272 402.5,-292"/>
<text text-anchor="middle" x="362.62" y="-278.5" font-family="Helvetica,sans-Serif" font-size="10.00">audio::config_t</text>
</a>
</g>
</g>
<!-- Node3&#45;&gt;Node2 -->
<g id="edge2_Node000002_Node000003" class="edge">
<title>Node3&#45;&gt;Node2</title>
<g id="a_edge2_Node000002_Node000003"><a xlink:title=" ">
<path fill="none" stroke="#9a32cd" stroke-dasharray="5,2" d="M414.01,-276.85C445.85,-273.59 486.53,-269.43 516.71,-266.34"/>
<polygon fill="#9a32cd" stroke="#9a32cd" points="413.82,-273.35 404.22,-277.85 414.53,-280.31 413.82,-273.35"/>
</a>
</g>
<text text-anchor="middle" x="456.12" y="-276.29" font-family="Helvetica,sans-Serif" font-size="10.00" fill="grey"> audio</text>
</g>
<!-- Node4 -->
<g id="Node000004" class="node">
<title>Node4</title>
<g id="a_Node000004"><a xlink:href="structaudio_1_1stream__params__t.html" target="_top" xlink:title=" ">
<polygon fill="white" stroke="#bfbfbf" points="144.62,-292 23.62,-292 23.62,-272 144.62,-272 144.62,-292"/>
<text text-anchor="middle" x="84.12" y="-278.5" font-family="Helvetica,sans-Serif" font-size="10.00">audio::stream_params_t</text>
</a>
</g>
</g>
<!-- Node4&#45;&gt;Node3 -->
<g id="edge3_Node000003_Node000004" class="edge">
<title>Node4&#45;&gt;Node3</title>
<g id="a_edge3_Node000003_Node000004"><a xlink:title=" ">
<path fill="none" stroke="#9a32cd" stroke-dasharray="5,2" d="M156.48,-282C209.41,-282 279.58,-282 322.62,-282"/>
<polygon fill="#9a32cd" stroke="#9a32cd" points="156.63,-278.5 146.63,-282 156.63,-285.5 156.63,-278.5"/>
</a>
</g>
<text text-anchor="middle" x="236.5" y="-284.5" font-family="Helvetica,sans-Serif" font-size="10.00" fill="grey"> customStreamParams</text>
</g>
<!-- Node5 -->
<g id="Node000005" class="node">
<title>Node5</title>
<g id="a_Node000005"><a xlink:href="structvideo_1_1config__t.html" target="_top" xlink:title=" ">
<polygon fill="white" stroke="#bfbfbf" points="402.5,-254 322.75,-254 322.75,-234 402.5,-234 402.5,-254"/>
<text text-anchor="middle" x="362.62" y="-240.5" font-family="Helvetica,sans-Serif" font-size="10.00">video::config_t</text>
</a>
</g>
</g>
<!-- Node5&#45;&gt;Node2 -->
<g id="edge4_Node000002_Node000005" class="edge">
<title>Node5&#45;&gt;Node2</title>
<g id="a_edge4_Node000002_Node000005"><a xlink:title=" ">
<path fill="none" stroke="#9a32cd" stroke-dasharray="5,2" d="M414.24,-243.83C432.97,-244.17 454.37,-245.04 473.75,-247 487.82,-248.42 503.07,-250.82 516.74,-253.29"/>
<polygon fill="#9a32cd" stroke="#9a32cd" points="414.52,-240.33 404.47,-243.7 414.43,-247.33 414.52,-240.33"/>
</a>
</g>
<text text-anchor="middle" x="456.12" y="-249.5" font-family="Helvetica,sans-Serif" font-size="10.00" fill="grey"> monitor</text>
</g>
<!-- Node6 -->
<g id="Node000006" class="node">
<title>Node6</title>
<g id="a_Node000006"><a xlink:href="classsafe_1_1shared__t.html" target="_top" xlink:title=" ">
<polygon fill="white" stroke="#bfbfbf" points="618.75,-234 501.5,-234 501.5,-202 618.75,-202 618.75,-234"/>
<text text-anchor="start" x="509.5" y="-220.5" font-family="Helvetica,sans-Serif" font-size="10.00">safe::shared_t&lt; stream</text>
<text text-anchor="middle" x="560.12" y="-208.5" font-family="Helvetica,sans-Serif" font-size="10.00">::broadcast_ctx_t &gt;</text>
</a>
</g>
</g>
<!-- Node6&#45;&gt;Node1 -->
<g id="edge5_Node000001_Node000006" class="edge">
<title>Node6&#45;&gt;Node1</title>
<g id="a_edge5_Node000001_Node000006"><a xlink:title=" ">
<path fill="none" stroke="#9a32cd" stroke-dasharray="5,2" d="M630.04,-204.12C655.4,-197.78 683.96,-189.15 708.75,-178 727.66,-169.5 747.29,-155.76 759.74,-146.33"/>
<polygon fill="#9a32cd" stroke="#9a32cd" points="629.38,-200.68 620.48,-206.43 631.03,-207.48 629.38,-200.68"/>
</a>
</g>
<text text-anchor="middle" x="677.62" y="-201.44" font-family="Helvetica,sans-Serif" font-size="10.00" fill="grey"> broadcast_ref</text>
</g>
<!-- Node7 -->
<g id="Node000007" class="node">
<title>Node7</title>
<g id="a_Node000007"><a xlink:href="classcrypto_1_1cipher_1_1cbc__t.html" target="_top" xlink:title=" ">
<polygon fill="white" stroke="#bfbfbf" points="612.75,-184 507.5,-184 507.5,-164 612.75,-164 612.75,-184"/>
<text text-anchor="middle" x="560.12" y="-170.5" font-family="Helvetica,sans-Serif" font-size="10.00">crypto::cipher::cbc_t</text>
</a>
</g>
</g>
<!-- Node7&#45;&gt;Node1 -->
<g id="edge6_Node000001_Node000007" class="edge">
<title>Node7&#45;&gt;Node1</title>
<g id="a_edge6_Node000001_Node000007"><a xlink:title=" ">
<path fill="none" stroke="#9a32cd" stroke-dasharray="5,2" d="M624.51,-165.2C650.67,-161.29 681.25,-156.36 708.75,-151 715.7,-149.65 723.03,-148.07 730.16,-146.46"/>
<polygon fill="#9a32cd" stroke="#9a32cd" points="624.09,-161.72 614.71,-166.65 625.12,-168.65 624.09,-161.72"/>
</a>
</g>
<text text-anchor="middle" x="677.62" y="-164.07" font-family="Helvetica,sans-Serif" font-size="10.00" fill="grey"> cipher</text>
</g>
<!-- Node8 -->
<g id="Node000008" class="node">
<title>Node8</title>
<g id="a_Node000008"><a xlink:href="classcrypto_1_1cipher_1_1cipher__t.html" target="_top" xlink:title=" ">
<polygon fill="white" stroke="#bfbfbf" points="420.5,-164 304.75,-164 304.75,-144 420.5,-144 420.5,-164"/>
<text text-anchor="middle" x="362.62" y="-150.5" font-family="Helvetica,sans-Serif" font-size="10.00">crypto::cipher::cipher_t</text>
</a>
</g>
</g>
<!-- Node8&#45;&gt;Node7 -->
<g id="edge7_Node000007_Node000008" class="edge">
<title>Node8&#45;&gt;Node7</title>
<g id="a_edge7_Node000007_Node000008"><a xlink:title=" ">
<path fill="none" stroke="#63b8ff" d="M432.4,-161.04C456.97,-163.55 484.21,-166.34 507.13,-168.68"/>
<polygon fill="#63b8ff" stroke="#63b8ff" points="432.77,-157.56 422.47,-160.02 432.06,-164.52 432.77,-157.56"/>
</a>
</g>
</g>
<!-- Node10 -->
<g id="Node000010" class="node">
<title>Node10</title>
<g id="a_Node000010"><a xlink:href="classcrypto_1_1cipher_1_1gcm__t.html" target="_top" xlink:title=" ">
<polygon fill="white" stroke="#bfbfbf" points="614.25,-146 506,-146 506,-126 614.25,-126 614.25,-146"/>
<text text-anchor="middle" x="560.12" y="-132.5" font-family="Helvetica,sans-Serif" font-size="10.00">crypto::cipher::gcm_t</text>
</a>
</g>
</g>
<!-- Node8&#45;&gt;Node10 -->
<g id="edge10_Node000010_Node000008" class="edge">
<title>Node8&#45;&gt;Node10</title>
<g id="a_edge10_Node000010_Node000008"><a xlink:title=" ">
<path fill="none" stroke="#63b8ff" d="M432.21,-147.69C456.35,-145.46 483.11,-143 505.81,-140.91"/>
<polygon fill="#63b8ff" stroke="#63b8ff" points="432.1,-144.18 422.47,-148.58 432.75,-151.15 432.1,-144.18"/>
</a>
</g>
</g>
<!-- Node9 -->
<g id="Node000009" class="node">
<title>Node9</title>
<g id="a_Node000009"><a xlink:href="classutil_1_1uniq__ptr.html" target="_top" xlink:title=" ">
<polygon fill="white" stroke="#bfbfbf" points="168.25,-182 0,-182 0,-126 168.25,-126 168.25,-182"/>
<text text-anchor="start" x="8" y="-168.5" font-family="Helvetica,sans-Serif" font-size="10.00">util::uniq_ptr&lt; T,</text>
<text text-anchor="start" x="8" y="-156.5" font-family="Helvetica,sans-Serif" font-size="10.00"> Destroy&lt; T *, void,</text>
<text text-anchor="start" x="8" y="-144.5" font-family="Helvetica,sans-Serif" font-size="10.00"> function &gt; &gt;&lt; EVP_CIPHER</text>
<text text-anchor="middle" x="84.12" y="-132.5" font-family="Helvetica,sans-Serif" font-size="10.00">_CTX, EVP_CIPHER_CTX_free &gt;</text>
</a>
</g>
</g>
<!-- Node9&#45;&gt;Node8 -->
<g id="edge8_Node000008_Node000009" class="edge">
<title>Node9&#45;&gt;Node8</title>
<g id="a_edge8_Node000008_Node000009"><a xlink:title=" ">
<path fill="none" stroke="#9a32cd" stroke-dasharray="5,2" d="M179.95,-154C221.31,-154 268.42,-154 304.31,-154"/>
<polygon fill="#9a32cd" stroke="#9a32cd" points="179.97,-150.5 169.97,-154 179.97,-157.5 179.97,-150.5"/>
</a>
</g>
<text text-anchor="middle" x="236.5" y="-168.5" font-family="Helvetica,sans-Serif" font-size="10.00" fill="grey"> decrypt_ctx</text>
<text text-anchor="middle" x="236.5" y="-156.5" font-family="Helvetica,sans-Serif" font-size="10.00" fill="grey">encrypt_ctx</text>
</g>
<!-- Node10&#45;&gt;Node1 -->
<g id="edge9_Node000001_Node000010" class="edge">
<title>Node10&#45;&gt;Node1</title>
<g id="a_edge9_Node000001_Node000010"><a xlink:title=" ">
<path fill="none" stroke="#9a32cd" stroke-dasharray="5,2" d="M625.76,-136C658.31,-136 697.03,-136 726.55,-136"/>
<polygon fill="#9a32cd" stroke="#9a32cd" points="626.04,-132.5 616.04,-136 626.04,-139.5 626.04,-132.5"/>
</a>
</g>
<text text-anchor="middle" x="677.62" y="-138.5" font-family="Helvetica,sans-Serif" font-size="10.00" fill="grey"> cipher</text>
</g>
<!-- Node11 -->
<g id="Node000011" class="node">
<title>Node11</title>
<g id="a_Node000011"><a xlink:href="classutil_1_1buffer__t.html" target="_top" xlink:title=" ">
<polygon fill="white" stroke="#bfbfbf" points="612,-108 508.25,-108 508.25,-88 612,-88 612,-108"/>
<text text-anchor="middle" x="560.12" y="-94.5" font-family="Helvetica,sans-Serif" font-size="10.00">util::buffer_t&lt; char &gt;</text>
</a>
</g>
</g>
<!-- Node11&#45;&gt;Node1 -->
<g id="edge11_Node000001_Node000011" class="edge">
<title>Node11&#45;&gt;Node1</title>
<g id="a_edge11_Node000001_Node000011"><a xlink:title=" ">
<path fill="none" stroke="#9a32cd" stroke-dasharray="5,2" d="M623.62,-105.94C649.99,-109.65 680.97,-114.47 708.75,-120 716.84,-121.61 725.44,-123.58 733.62,-125.58"/>
<polygon fill="#9a32cd" stroke="#9a32cd" points="624.12,-102.48 613.73,-104.58 623.16,-109.42 624.12,-102.48"/>
</a>
</g>
<text text-anchor="middle" x="677.62" y="-122.5" font-family="Helvetica,sans-Serif" font-size="10.00" fill="grey"> shards</text>
</g>
<!-- Node12 -->
<g id="Node000012" class="node">
<title>Node12</title>
<g id="a_Node000012"><a xlink:href="classutil_1_1buffer__t.html" target="_top" xlink:title=" ">
<polygon fill="white" stroke="#bfbfbf" points="608.62,-70 511.62,-70 511.62,-38 608.62,-38 608.62,-70"/>
<text text-anchor="start" x="519.62" y="-56.5" font-family="Helvetica,sans-Serif" font-size="10.00">util::buffer_t&lt; uint8</text>
<text text-anchor="middle" x="560.12" y="-44.5" font-family="Helvetica,sans-Serif" font-size="10.00">_t * &gt;</text>
</a>
</g>
</g>
<!-- Node12&#45;&gt;Node1 -->
<g id="edge12_Node000001_Node000012" class="edge">
<title>Node12&#45;&gt;Node1</title>
<g id="a_edge12_Node000001_Node000012"><a xlink:title=" ">
<path fill="none" stroke="#9a32cd" stroke-dasharray="5,2" d="M620.07,-65.47C647.71,-71.96 680.65,-81.36 708.75,-94 727.66,-102.5 747.29,-116.24 759.74,-125.67"/>
<polygon fill="#9a32cd" stroke="#9a32cd" points="620.98,-62.08 610.46,-63.28 619.43,-68.91 620.98,-62.08"/>
</a>
</g>
<text text-anchor="middle" x="677.62" y="-96.5" font-family="Helvetica,sans-Serif" font-size="10.00" fill="grey"> shards_p</text>
</g>
<!-- Node13 -->
<g id="Node000013" class="node">
<title>Node13</title>
<g id="a_Node000013"><a xlink:href="structstream_1_1audio__fec__packet__t.html" target="_top" xlink:title=" ">
<polygon fill="white" stroke="#bfbfbf" points="628.5,-20 491.75,-20 491.75,0 628.5,0 628.5,-20"/>
<text text-anchor="middle" x="560.12" y="-6.5" font-family="Helvetica,sans-Serif" font-size="10.00">stream::audio_fec_packet_t</text>
</a>
</g>
</g>
<!-- Node13&#45;&gt;Node1 -->
<g id="edge13_Node000001_Node000013" class="edge">
<title>Node13&#45;&gt;Node1</title>
<g id="a_edge13_Node000001_Node000013"><a xlink:title=" ">
<path fill="none" stroke="#9a32cd" stroke-dasharray="5,2" d="M632.14,-23.26C657.87,-30.38 686.13,-41.09 708.75,-57 735.61,-75.88 757.22,-109.03 767.04,-125.75"/>
<polygon fill="#9a32cd" stroke="#9a32cd" points="633.32,-19.95 622.76,-20.81 631.55,-26.72 633.32,-19.95"/>
</a>
</g>
<text text-anchor="middle" x="677.62" y="-59.5" font-family="Helvetica,sans-Serif" font-size="10.00" fill="grey"> fec_packet</text>
</g>
</g>
</svg>
