<?xml version="1.0" encoding="UTF-8" standalone="no"?>
<!DOCTYPE svg PUBLIC "-//W3C//DTD SVG 1.1//EN"
 "http://www.w3.org/Graphics/SVG/1.1/DTD/svg11.dtd">
<!-- Generated by graphviz version 12.2.1 (0)
 -->
<!-- Title: cbs::h264_t Pages: 1 -->
<svg width="98pt" height="188pt"
 viewBox="0.00 0.00 97.50 188.00" xmlns="http://www.w3.org/2000/svg" xmlns:xlink="http://www.w3.org/1999/xlink">
<g id="graph0" class="graph" transform="scale(1 1) rotate(0) translate(4 184)">
<title>cbs::h264_t</title>
<!-- Node1 -->
<g id="Node000001" class="node">
<title>Node1</title>
<g id="a_Node000001"><a xlink:title=" ">
<polygon fill="#999999" stroke="#666666" points="78.25,-20 11.25,-20 11.25,0 78.25,0 78.25,-20"/>
<text text-anchor="middle" x="44.75" y="-6.5" font-family="Helvetica,sans-Serif" font-size="10.00">cbs::h264_t</text>
</a>
</g>
</g>
<!-- Node2 -->
<g id="Node000002" class="node">
<title>Node2</title>
<g id="a_Node000002"><a xlink:href="structcbs_1_1nal__t.html" target="_top" xlink:title=" ">
<polygon fill="white" stroke="#bfbfbf" points="74.12,-88 15.38,-88 15.38,-68 74.12,-68 74.12,-88"/>
<text text-anchor="middle" x="44.75" y="-74.5" font-family="Helvetica,sans-Serif" font-size="10.00">cbs::nal_t</text>
</a>
</g>
</g>
<!-- Node2&#45;&gt;Node1 -->
<g id="edge1_Node000001_Node000002" class="edge">
<title>Node2&#45;&gt;Node1</title>
<g id="a_edge1_Node000001_Node000002"><a xlink:title=" ">
<path fill="none" stroke="#9a32cd" stroke-dasharray="5,2" d="M44.75,-56.28C44.75,-44.27 44.75,-29.74 44.75,-20.44"/>
<polygon fill="#9a32cd" stroke="#9a32cd" points="41.25,-56.03 44.75,-66.03 48.25,-56.03 41.25,-56.03"/>
</a>
</g>
<text text-anchor="middle" x="54.12" y="-40.5" font-family="Helvetica,sans-Serif" font-size="10.00" fill="grey"> sps</text>
</g>
<!-- Node3 -->
<g id="Node000003" class="node">
<title>Node3</title>
<g id="a_Node000003"><a xlink:href="classutil_1_1buffer__t.html" target="_top" xlink:title=" ">
<polygon fill="white" stroke="#bfbfbf" points="89.5,-180 0,-180 0,-148 89.5,-148 89.5,-180"/>
<text text-anchor="start" x="8" y="-166.5" font-family="Helvetica,sans-Serif" font-size="10.00">util::buffer_t&lt; std</text>
<text text-anchor="middle" x="44.75" y="-154.5" font-family="Helvetica,sans-Serif" font-size="10.00">::uint8_t &gt;</text>
</a>
</g>
</g>
<!-- Node3&#45;&gt;Node2 -->
<g id="edge2_Node000002_Node000003" class="edge">
<title>Node3&#45;&gt;Node2</title>
<g id="a_edge2_Node000002_Node000003"><a xlink:title=" ">
<path fill="none" stroke="#9a32cd" stroke-dasharray="5,2" d="M44.75,-136.37C44.75,-119.82 44.75,-99.57 44.75,-88.09"/>
<polygon fill="#9a32cd" stroke="#9a32cd" points="41.25,-136.08 44.75,-146.08 48.25,-136.08 41.25,-136.08"/>
</a>
</g>
<text text-anchor="middle" x="57.88" y="-120.5" font-family="Helvetica,sans-Serif" font-size="10.00" fill="grey"> _new</text>
<text text-anchor="middle" x="57.88" y="-108.5" font-family="Helvetica,sans-Serif" font-size="10.00" fill="grey">old</text>
</g>
</g>
</svg>
