<?xml version="1.0" encoding="UTF-8" standalone="no"?>
<!DOCTYPE svg PUBLIC "-//W3C//DTD SVG 1.1//EN"
 "http://www.w3.org/Graphics/SVG/1.1/DTD/svg11.dtd">
<!-- Generated by graphviz version 12.2.1 (0)
 -->
<!-- Title: stream::fec::fec_t Pages: 1 -->
<svg width="226pt" height="120pt"
 viewBox="0.00 0.00 226.38 120.00" xmlns="http://www.w3.org/2000/svg" xmlns:xlink="http://www.w3.org/1999/xlink">
<g id="graph0" class="graph" transform="scale(1 1) rotate(0) translate(4 116)">
<title>stream::fec::fec_t</title>
<!-- Node1 -->
<g id="Node000001" class="node">
<title>Node1</title>
<g id="a_Node000001"><a xlink:title=" ">
<polygon fill="#999999" stroke="#666666" points="157.5,-20 64.25,-20 64.25,0 157.5,0 157.5,-20"/>
<text text-anchor="middle" x="110.88" y="-6.5" font-family="Helvetica,sans-Serif" font-size="10.00">stream::fec::fec_t</text>
</a>
</g>
</g>
<!-- Node2 -->
<g id="Node000002" class="node">
<title>Node2</title>
<g id="a_Node000002"><a xlink:href="classutil_1_1buffer__t.html" target="_top" xlink:title=" ">
<polygon fill="white" stroke="#bfbfbf" points="103.75,-106 0,-106 0,-86 103.75,-86 103.75,-106"/>
<text text-anchor="middle" x="51.88" y="-92.5" font-family="Helvetica,sans-Serif" font-size="10.00">util::buffer_t&lt; char &gt;</text>
</a>
</g>
</g>
<!-- Node2&#45;&gt;Node1 -->
<g id="edge1_Node000001_Node000002" class="edge">
<title>Node2&#45;&gt;Node1</title>
<g id="a_edge1_Node000001_Node000002"><a xlink:title=" ">
<path fill="none" stroke="#9a32cd" stroke-dasharray="5,2" d="M64.85,-76.53C77.05,-59.16 94.81,-33.87 104.31,-20.35"/>
<polygon fill="#9a32cd" stroke="#9a32cd" points="62.17,-74.26 59.28,-84.45 67.9,-78.28 62.17,-74.26"/>
</a>
</g>
<text text-anchor="middle" x="110.54" y="-52.5" font-family="Helvetica,sans-Serif" font-size="10.00" fill="grey"> headers</text>
<text text-anchor="middle" x="110.54" y="-40.5" font-family="Helvetica,sans-Serif" font-size="10.00" fill="grey">shards</text>
</g>
<!-- Node3 -->
<g id="Node000003" class="node">
<title>Node3</title>
<g id="a_Node000003"><a xlink:href="classutil_1_1buffer__t.html" target="_top" xlink:title=" ">
<polygon fill="white" stroke="#bfbfbf" points="218.38,-112 121.38,-112 121.38,-80 218.38,-80 218.38,-112"/>
<text text-anchor="start" x="129.38" y="-98.5" font-family="Helvetica,sans-Serif" font-size="10.00">util::buffer_t&lt; uint8</text>
<text text-anchor="middle" x="169.88" y="-86.5" font-family="Helvetica,sans-Serif" font-size="10.00">_t * &gt;</text>
</a>
</g>
</g>
<!-- Node3&#45;&gt;Node1 -->
<g id="edge2_Node000001_Node000003" class="edge">
<title>Node3&#45;&gt;Node1</title>
<g id="a_edge2_Node000001_Node000003"><a xlink:title=" ">
<path fill="none" stroke="#9a32cd" stroke-dasharray="5,2" d="M154.6,-70.2C148.14,-60.05 140.38,-48.3 132.88,-38 128.46,-31.94 123.16,-25.42 118.87,-20.3"/>
<polygon fill="#9a32cd" stroke="#9a32cd" points="151.48,-71.82 159.77,-78.42 157.41,-68.09 151.48,-71.82"/>
</a>
</g>
<text text-anchor="middle" x="170.09" y="-46.5" font-family="Helvetica,sans-Serif" font-size="10.00" fill="grey"> shards_p</text>
</g>
</g>
</svg>
