<?xml version="1.0" encoding="UTF-8" standalone="no"?>
<!DOCTYPE svg PUBLIC "-//W3C//DTD SVG 1.1//EN"
 "http://www.w3.org/Graphics/SVG/1.1/DTD/svg11.dtd">
<!-- Generated by graphviz version 12.2.1 (0)
 -->
<!-- Title: src/sync.h Pages: 1 -->
<svg width="268pt" height="84pt"
 viewBox="0.00 0.00 268.12 84.00" xmlns="http://www.w3.org/2000/svg" xmlns:xlink="http://www.w3.org/1999/xlink">
<g id="graph0" class="graph" transform="scale(1 1) rotate(0) translate(4 80)">
<title>src/sync.h</title>
<!-- Node1 -->
<g id="Node000001" class="node">
<title>Node1</title>
<g id="a_Node000001"><a xlink:title="Declarations for synchronization utilities.">
<polygon fill="#999999" stroke="#666666" points="157.75,-76 96,-76 96,-56 157.75,-56 157.75,-76"/>
<text text-anchor="middle" x="126.88" y="-62.5" font-family="Helvetica,sans-Serif" font-size="10.00">src/sync.h</text>
</a>
</g>
</g>
<!-- Node2 -->
<g id="Node000002" class="node">
<title>Node2</title>
<g id="a_Node000002"><a xlink:href="rtsp_8cpp.html" target="_top" xlink:title="Definitions for RTSP streaming.">
<polygon fill="white" stroke="#666666" points="67.75,-20 0,-20 0,0 67.75,0 67.75,-20"/>
<text text-anchor="middle" x="33.88" y="-6.5" font-family="Helvetica,sans-Serif" font-size="10.00">src/rtsp.cpp</text>
</a>
</g>
</g>
<!-- Node1&#45;&gt;Node2 -->
<g id="edge1_Node000001_Node000002" class="edge">
<title>Node1&#45;&gt;Node2</title>
<g id="a_edge1_Node000001_Node000002"><a xlink:title=" ">
<path fill="none" stroke="#63b8ff" d="M101.18,-50.08C84.88,-40.62 64.29,-28.66 50.2,-20.48"/>
<polygon fill="#63b8ff" stroke="#63b8ff" points="98.96,-52.84 109.37,-54.83 102.48,-46.79 98.96,-52.84"/>
</a>
</g>
</g>
<!-- Node3 -->
<g id="Node000003" class="node">
<title>Node3</title>
<g id="a_Node000003"><a xlink:href="stream_8cpp.html" target="_top" xlink:title="Definitions for the streaming protocols.">
<polygon fill="white" stroke="#666666" points="167.5,-20 86.25,-20 86.25,0 167.5,0 167.5,-20"/>
<text text-anchor="middle" x="126.88" y="-6.5" font-family="Helvetica,sans-Serif" font-size="10.00">src/stream.cpp</text>
</a>
</g>
</g>
<!-- Node1&#45;&gt;Node3 -->
<g id="edge2_Node000001_Node000003" class="edge">
<title>Node1&#45;&gt;Node3</title>
<g id="a_edge2_Node000001_Node000003"><a xlink:title=" ">
<path fill="none" stroke="#63b8ff" d="M126.88,-44.13C126.88,-35.9 126.88,-26.85 126.88,-20.3"/>
<polygon fill="#63b8ff" stroke="#63b8ff" points="123.38,-44.08 126.88,-54.08 130.38,-44.08 123.38,-44.08"/>
</a>
</g>
</g>
<!-- Node4 -->
<g id="Node000004" class="node">
<title>Node4</title>
<g id="a_Node000004"><a xlink:href="video_8cpp.html" target="_top" xlink:title="Definitions for video.">
<polygon fill="white" stroke="#666666" points="260.12,-20 185.62,-20 185.62,0 260.12,0 260.12,-20"/>
<text text-anchor="middle" x="222.88" y="-6.5" font-family="Helvetica,sans-Serif" font-size="10.00">src/video.cpp</text>
</a>
</g>
</g>
<!-- Node1&#45;&gt;Node4 -->
<g id="edge3_Node000001_Node000004" class="edge">
<title>Node1&#45;&gt;Node4</title>
<g id="a_edge3_Node000001_Node000004"><a xlink:title=" ">
<path fill="none" stroke="#63b8ff" d="M153.4,-50.08C170.22,-40.62 191.48,-28.66 206.02,-20.48"/>
<polygon fill="#63b8ff" stroke="#63b8ff" points="151.92,-46.9 144.92,-54.85 155.35,-53 151.92,-46.9"/>
</a>
</g>
</g>
</g>
</svg>
