<?xml version="1.0" encoding="UTF-8" standalone="no"?>
<!DOCTYPE svg PUBLIC "-//W3C//DTD SVG 1.1//EN"
 "http://www.w3.org/Graphics/SVG/1.1/DTD/svg11.dtd">
<!-- Generated by graphviz version 12.2.1 (0)
 -->
<!-- Title: src/thread_pool.h Pages: 1 -->
<!--zoomable 220 -->

<svg id="main" version="1.1" xmlns="http://www.w3.org/2000/svg" xmlns:xlink="http://www.w3.org/1999/xlink" xml:space="preserve" onload="init(evt)">

<style type="text/css"><![CDATA[
.node, .edge {opacity: 0.7;}
.node.selected, .edge.selected {opacity: 1;}
.edge:hover path { stroke: red; }
.edge:hover polygon { stroke: red; fill: red; }
]]></style>

<defs>
  <circle id="rim" cx="0" cy="0" r="7"/>
  <circle id="rim2" cx="0" cy="0" r="3.5"/>
  <g id="zoomPlus">
    <use xlink:href="#rim" fill="#404040"><set attributeName="fill" to="#808080" begin="zoomplus.mouseover" end="zoomplus.mouseout"/></use>
    <path d="M-4,0h8M0,-4v8" fill="none" stroke="white" stroke-width="1.5" pointer-events="none"/>
  </g>
  <g id="zoomMin">
    <use xlink:href="#rim" fill="#404040"><set attributeName="fill" to="#808080" begin="zoomminus.mouseover" end="zoomminus.mouseout"/></use>
    <path d="M-4,0h8" fill="none" stroke="white" stroke-width="1.5" pointer-events="none"/>
  </g>
  <g id="arrowUp" transform="translate(30 24)">
    <use xlink:href="#rim"/>
    <path pointer-events="none" fill="none" stroke="white" stroke-width="1.5" d="M0,-3.0v7 M-2.5,-0.5L0,-3.0L2.5,-0.5"/>
  </g>
  <g id="arrowRight" transform="rotate(90) translate(36 -43)">
    <use xlink:href="#rim"/>
    <path pointer-events="none" fill="none" stroke="white" stroke-width="1.5" d="M0,-3.0v7 M-2.5,-0.5L0,-3.0L2.5,-0.5"/>
  </g>
  <g id="arrowDown" transform="rotate(180) translate(-30 -48)">
    <use xlink:href="#rim"/>
    <path pointer-events="none" fill="none" stroke="white" stroke-width="1.5" d="M0,-3.0v7 M-2.5,-0.5L0,-3.0L2.5,-0.5"/>
  </g>
  <g id="arrowLeft" transform="rotate(270) translate(-36 17)">
    <use xlink:href="#rim"/>
    <path pointer-events="none" fill="none" stroke="white" stroke-width="1.5" d="M0,-3.0v7 M-2.5,-0.5L0,-3.0L2.5,-0.5"/>
  </g>
  <g id="resetDef">
    <use xlink:href="#rim2" fill="#404040"><set attributeName="fill" to="#808080" begin="reset.mouseover" end="reset.mouseout"/></use>
  </g>
</defs>
<script type="application/ecmascript">
var viewWidth = 1471;
var viewHeight = 220;
var sectionId = 'dynsection-1';
</script>
<script type="application/ecmascript" xlink:href="svg.min.js"/>
<svg id="graph" class="graph">
<g id="viewport">
<title>src/thread_pool.h</title>
<!-- Node1 -->
<g id="Node000001" class="node">
<title>Node1</title>
<g id="a_Node000001"><a xlink:title="Declarations for the thread pool system.">
<polygon fill="#999999" stroke="#666666" points="805.62,-212 714.62,-212 714.62,-192 805.62,-192 805.62,-212"/>
<text text-anchor="middle" x="760.12" y="-198.5" font-family="Helvetica,sans-Serif" font-size="10.00">src/thread_pool.h</text>
</a>
</g>
</g>
<!-- Node2 -->
<g id="Node000002" class="node">
<title>Node2</title>
<g id="a_Node000002"><a xlink:href="entry__handler_8h.html" target="_top" xlink:title="Declarations for entry handling functions.">
<polygon fill="white" stroke="#666666" points="1198.75,-156 1099.5,-156 1099.5,-136 1198.75,-136 1198.75,-156"/>
<text text-anchor="middle" x="1149.12" y="-142.5" font-family="Helvetica,sans-Serif" font-size="10.00">src/entry_handler.h</text>
</a>
</g>
</g>
<!-- Node1&#45;&gt;Node2 -->
<g id="edge1_Node000001_Node000002" class="edge">
<title>Node1&#45;&gt;Node2</title>
<g id="a_edge1_Node000001_Node000002"><a xlink:title=" ">
<path fill="none" stroke="#63b8ff" d="M817.15,-193.08C893.28,-182.52 1026.92,-163.96 1099.24,-153.92"/>
<polygon fill="#63b8ff" stroke="#63b8ff" points="816.82,-189.6 807.39,-194.44 817.78,-196.53 816.82,-189.6"/>
</a>
</g>
</g>
<!-- Node5 -->
<g id="Node000005" class="node">
<title>Node5</title>
<g id="a_Node000005"><a xlink:href="globals_8h.html" target="_top" xlink:title="Declarations for globally accessible variables and functions.">
<polygon fill="white" stroke="#666666" points="795.88,-94 724.38,-94 724.38,-74 795.88,-74 795.88,-94"/>
<text text-anchor="middle" x="760.12" y="-80.5" font-family="Helvetica,sans-Serif" font-size="10.00">src/globals.h</text>
</a>
</g>
</g>
<!-- Node1&#45;&gt;Node5 -->
<g id="edge24_Node000001_Node000005" class="edge">
<title>Node1&#45;&gt;Node5</title>
<g id="a_edge24_Node000001_Node000005"><a xlink:title=" ">
<path fill="none" stroke="#63b8ff" d="M760.12,-180.23C760.12,-154.8 760.12,-112.84 760.12,-94.3"/>
<polygon fill="#63b8ff" stroke="#63b8ff" points="756.63,-179.99 760.13,-189.99 763.63,-179.99 756.63,-179.99"/>
</a>
</g>
</g>
<!-- Node9 -->
<g id="Node000009" class="node">
<title>Node9</title>
<g id="a_Node000009"><a xlink:href="input_8cpp.html" target="_top" xlink:title="Definitions for gamepad, keyboard, and mouse input handling.">
<polygon fill="white" stroke="#666666" points="72.25,-26 0,-26 0,-6 72.25,-6 72.25,-26"/>
<text text-anchor="middle" x="36.12" y="-12.5" font-family="Helvetica,sans-Serif" font-size="10.00">src/input.cpp</text>
</a>
</g>
</g>
<!-- Node1&#45;&gt;Node9 -->
<g id="edge25_Node000001_Node000009" class="edge">
<title>Node1&#45;&gt;Node9</title>
<g id="a_edge25_Node000001_Node000009"><a xlink:title=" ">
<path fill="none" stroke="#63b8ff" d="M706.34,-189.11C591.03,-163.3 311.71,-99.02 81.12,-32 75.27,-30.3 69.04,-28.33 63.15,-26.39"/>
<polygon fill="#63b8ff" stroke="#63b8ff" points="705.31,-192.47 715.83,-191.23 706.84,-185.64 705.31,-192.47"/>
</a>
</g>
</g>
<!-- Node3 -->
<g id="Node000003" class="node">
<title>Node3</title>
<g id="a_Node000003"><a xlink:href="config_8cpp.html" target="_top" xlink:title="Definitions for the configuration of Sunshine.">
<polygon fill="white" stroke="#666666" points="1120.88,-94 1043.38,-94 1043.38,-74 1120.88,-74 1120.88,-94"/>
<text text-anchor="middle" x="1082.12" y="-80.5" font-family="Helvetica,sans-Serif" font-size="10.00">src/config.cpp</text>
</a>
</g>
</g>
<!-- Node2&#45;&gt;Node3 -->
<g id="edge2_Node000002_Node000003" class="edge">
<title>Node2&#45;&gt;Node3</title>
<g id="a_edge2_Node000002_Node000003"><a xlink:title=" ">
<path fill="none" stroke="#63b8ff" d="M1130.39,-128.22C1118.06,-117.18 1102.38,-103.14 1092.3,-94.11"/>
<polygon fill="#63b8ff" stroke="#63b8ff" points="1127.74,-130.55 1137.53,-134.62 1132.41,-125.34 1127.74,-130.55"/>
</a>
</g>
</g>
<!-- Node4 -->
<g id="Node000004" class="node">
<title>Node4</title>
<g id="a_Node000004"><a xlink:href="entry__handler_8cpp.html" target="_top" xlink:title="Definitions for entry handling functions.">
<polygon fill="white" stroke="#666666" points="1204,-26 1094.25,-26 1094.25,-6 1204,-6 1204,-26"/>
<text text-anchor="middle" x="1149.12" y="-12.5" font-family="Helvetica,sans-Serif" font-size="10.00">src/entry_handler.cpp</text>
</a>
</g>
</g>
<!-- Node2&#45;&gt;Node4 -->
<g id="edge3_Node000002_Node000004" class="edge">
<title>Node2&#45;&gt;Node4</title>
<g id="a_edge3_Node000002_Node000004"><a xlink:title=" ">
<path fill="none" stroke="#63b8ff" d="M1149.12,-124.57C1149.12,-96.49 1149.12,-47.09 1149.12,-26.47"/>
<polygon fill="#63b8ff" stroke="#63b8ff" points="1145.63,-124.28 1149.13,-134.28 1152.63,-124.28 1145.63,-124.28"/>
</a>
</g>
</g>
<!-- Node2&#45;&gt;Node5 -->
<g id="edge4_Node000002_Node000005" class="edge">
<title>Node2&#45;&gt;Node5</title>
<g id="a_edge4_Node000002_Node000005"><a xlink:title=" ">
<path fill="none" stroke="#63b8ff" d="M1087.9,-135.56C1005.82,-122.9 862.72,-100.82 796.13,-90.55"/>
<polygon fill="#63b8ff" stroke="#63b8ff" points="1087.15,-138.98 1097.57,-137.05 1088.22,-132.06 1087.15,-138.98"/>
</a>
</g>
</g>
<!-- Node10 -->
<g id="Node000010" class="node">
<title>Node10</title>
<g id="a_Node000010"><a xlink:href="main_8cpp.html" target="_top" xlink:title="Definitions for the main entry point for Sunshine.">
<polygon fill="white" stroke="#666666" points="1294.25,-26 1222,-26 1222,-6 1294.25,-6 1294.25,-26"/>
<text text-anchor="middle" x="1258.12" y="-12.5" font-family="Helvetica,sans-Serif" font-size="10.00">src/main.cpp</text>
</a>
</g>
</g>
<!-- Node2&#45;&gt;Node10 -->
<g id="edge19_Node000002_Node000010" class="edge">
<title>Node2&#45;&gt;Node10</title>
<g id="a_edge19_Node000002_Node000010"><a xlink:title=" ">
<path fill="none" stroke="#63b8ff" d="M1162.99,-127.1C1175.34,-111.32 1194.05,-87.81 1211.12,-68 1224.02,-53.04 1239.68,-36.32 1249.27,-26.23"/>
<polygon fill="#63b8ff" stroke="#63b8ff" points="1160.5,-124.6 1157.12,-134.64 1166.02,-128.9 1160.5,-124.6"/>
</a>
</g>
</g>
<!-- Node14 -->
<g id="Node000014" class="node">
<title>Node14</title>
<g id="a_Node000014"><a xlink:href="windows_2misc_8cpp.html" target="_top" xlink:title="Miscellaneous definitions for Windows.">
<polygon fill="white" stroke="#666666" points="1421.62,-32 1312.62,-32 1312.62,0 1421.62,0 1421.62,-32"/>
<text text-anchor="start" x="1320.62" y="-18.5" font-family="Helvetica,sans-Serif" font-size="10.00">src/platform/windows</text>
<text text-anchor="middle" x="1367.12" y="-6.5" font-family="Helvetica,sans-Serif" font-size="10.00">/misc.cpp</text>
</a>
</g>
</g>
<!-- Node2&#45;&gt;Node14 -->
<g id="edge22_Node000002_Node000014" class="edge">
<title>Node2&#45;&gt;Node14</title>
<g id="a_edge22_Node000002_Node000014"><a xlink:title=" ">
<path fill="none" stroke="#63b8ff" d="M1172.07,-129.4C1183.99,-121.03 1198.64,-110.34 1211.12,-100 1227.11,-86.77 1227.72,-79.29 1245.12,-68 1268.04,-53.13 1296.02,-41.07 1319.39,-32.41"/>
<polygon fill="#63b8ff" stroke="#63b8ff" points="1170.27,-126.39 1164.04,-134.96 1174.26,-132.14 1170.27,-126.39"/>
</a>
</g>
</g>
<!-- Node19 -->
<g id="Node000019" class="node">
<title>Node19</title>
<g id="a_Node000019"><a xlink:href="linux_2misc_8cpp.html" target="_top" xlink:title="Miscellaneous definitions for Linux.">
<polygon fill="white" stroke="#666666" points="1344.62,-100 1253.62,-100 1253.62,-68 1344.62,-68 1344.62,-100"/>
<text text-anchor="start" x="1261.62" y="-86.5" font-family="Helvetica,sans-Serif" font-size="10.00">src/platform/linux</text>
<text text-anchor="middle" x="1299.12" y="-74.5" font-family="Helvetica,sans-Serif" font-size="10.00">/misc.cpp</text>
</a>
</g>
</g>
<!-- Node2&#45;&gt;Node19 -->
<g id="edge20_Node000002_Node000019" class="edge">
<title>Node2&#45;&gt;Node19</title>
<g id="a_edge20_Node000002_Node000019"><a xlink:title=" ">
<path fill="none" stroke="#63b8ff" d="M1183.18,-131.38C1206.15,-122.19 1236.51,-110.05 1260.4,-100.49"/>
<polygon fill="#63b8ff" stroke="#63b8ff" points="1181.95,-128.1 1173.97,-135.06 1184.55,-134.6 1181.95,-128.1"/>
</a>
</g>
</g>
<!-- Node20 -->
<g id="Node000020" class="node">
<title>Node20</title>
<g id="a_Node000020"><a xlink:href="misc_8mm.html" target="_top" xlink:title="Miscellaneous definitions for macOS platform.">
<polygon fill="white" stroke="#666666" points="1463.12,-100 1363.12,-100 1363.12,-68 1463.12,-68 1463.12,-100"/>
<text text-anchor="start" x="1371.12" y="-86.5" font-family="Helvetica,sans-Serif" font-size="10.00">src/platform/macos</text>
<text text-anchor="middle" x="1413.12" y="-74.5" font-family="Helvetica,sans-Serif" font-size="10.00">/misc.mm</text>
</a>
</g>
</g>
<!-- Node2&#45;&gt;Node20 -->
<g id="edge21_Node000002_Node000020" class="edge">
<title>Node2&#45;&gt;Node20</title>
<g id="a_edge21_Node000002_Node000020"><a xlink:title=" ">
<path fill="none" stroke="#63b8ff" d="M1205.6,-133.12C1246.84,-124.33 1304.05,-111.86 1354.12,-100 1357,-99.32 1359.96,-98.61 1362.94,-97.88"/>
<polygon fill="#63b8ff" stroke="#63b8ff" points="1204.95,-129.69 1195.89,-135.19 1206.4,-136.53 1204.95,-129.69"/>
</a>
</g>
</g>
<!-- Node21 -->
<g id="Node000021" class="node">
<title>Node21</title>
<g id="a_Node000021"><a xlink:href="system__tray_8cpp.html" target="_top" xlink:title="Definitions for the system tray icon and notification system.">
<polygon fill="white" stroke="#666666" points="1025.38,-94 920.88,-94 920.88,-74 1025.38,-74 1025.38,-94"/>
<text text-anchor="middle" x="973.12" y="-80.5" font-family="Helvetica,sans-Serif" font-size="10.00">src/system_tray.cpp</text>
</a>
</g>
</g>
<!-- Node2&#45;&gt;Node21 -->
<g id="edge23_Node000002_Node000021" class="edge">
<title>Node2&#45;&gt;Node21</title>
<g id="a_edge23_Node000002_Node000021"><a xlink:title=" ">
<path fill="none" stroke="#63b8ff" d="M1110.95,-131.98C1077.73,-120.66 1030.38,-104.52 1000.72,-94.41"/>
<polygon fill="#63b8ff" stroke="#63b8ff" points="1109.6,-135.22 1120.19,-135.14 1111.86,-128.6 1109.6,-135.22"/>
</a>
</g>
</g>
<!-- Node5&#45;&gt;Node4 -->
<g id="edge7_Node000005_Node000004" class="edge">
<title>Node5&#45;&gt;Node4</title>
<g id="a_edge7_Node000005_Node000004"><a xlink:title=" ">
<path fill="none" stroke="#63b8ff" d="M807.57,-76.68C871.04,-67.98 986.97,-51.18 1085.12,-32 1093.53,-30.36 1102.5,-28.39 1110.98,-26.43"/>
<polygon fill="#63b8ff" stroke="#63b8ff" points="807.28,-73.19 797.85,-78.01 808.23,-80.13 807.28,-73.19"/>
</a>
</g>
</g>
<!-- Node6 -->
<g id="Node000006" class="node">
<title>Node6</title>
<g id="a_Node000006"><a xlink:href="audio_8cpp.html" target="_top" xlink:title="Definitions for audio capture and encoding.">
<polygon fill="white" stroke="#666666" points="164.38,-26 89.88,-26 89.88,-6 164.38,-6 164.38,-26"/>
<text text-anchor="middle" x="127.12" y="-12.5" font-family="Helvetica,sans-Serif" font-size="10.00">src/audio.cpp</text>
</a>
</g>
</g>
<!-- Node5&#45;&gt;Node6 -->
<g id="edge5_Node000005_Node000006" class="edge">
<title>Node5&#45;&gt;Node6</title>
<g id="a_edge5_Node000005_Node000006"><a xlink:title=" ">
<path fill="none" stroke="#63b8ff" d="M712.72,-82.54C612.22,-80.76 370.78,-72.26 173.12,-32 166.38,-30.63 159.23,-28.59 152.64,-26.46"/>
<polygon fill="#63b8ff" stroke="#63b8ff" points="712.41,-86.03 722.47,-82.69 712.53,-79.03 712.41,-86.03"/>
</a>
</g>
</g>
<!-- Node7 -->
<g id="Node000007" class="node">
<title>Node7</title>
<g id="a_Node000007"><a xlink:href="confighttp_8cpp.html" target="_top" xlink:title="Definitions for the Web UI Config HTTP server.">
<polygon fill="white" stroke="#666666" points="276.12,-26 182.12,-26 182.12,-6 276.12,-6 276.12,-26"/>
<text text-anchor="middle" x="229.12" y="-12.5" font-family="Helvetica,sans-Serif" font-size="10.00">src/confighttp.cpp</text>
</a>
</g>
</g>
<!-- Node5&#45;&gt;Node7 -->
<g id="edge6_Node000005_Node000007" class="edge">
<title>Node5&#45;&gt;Node7</title>
<g id="a_edge6_Node000005_Node000007"><a xlink:title=" ">
<path fill="none" stroke="#63b8ff" d="M712.66,-80.34C626.77,-75 440.09,-60.89 285.12,-32 277.21,-30.52 268.77,-28.51 260.91,-26.43"/>
<polygon fill="#63b8ff" stroke="#63b8ff" points="712.39,-83.83 722.59,-80.95 712.82,-76.85 712.39,-83.83"/>
</a>
</g>
</g>
<!-- Node8 -->
<g id="Node000008" class="node">
<title>Node8</title>
<g id="a_Node000008"><a xlink:href="globals_8cpp.html" target="_top" xlink:title="Definitions for globally accessible variables and functions.">
<polygon fill="white" stroke="#666666" points="376.12,-26 294.12,-26 294.12,-6 376.12,-6 376.12,-26"/>
<text text-anchor="middle" x="335.12" y="-12.5" font-family="Helvetica,sans-Serif" font-size="10.00">src/globals.cpp</text>
</a>
</g>
</g>
<!-- Node5&#45;&gt;Node8 -->
<g id="edge8_Node000005_Node000008" class="edge">
<title>Node5&#45;&gt;Node8</title>
<g id="a_edge8_Node000005_Node000008"><a xlink:title=" ">
<path fill="none" stroke="#63b8ff" d="M712.83,-78.96C641.31,-72.31 501.61,-57.23 385.12,-32 378.13,-30.48 370.69,-28.48 363.74,-26.42"/>
<polygon fill="#63b8ff" stroke="#63b8ff" points="712.34,-82.43 722.62,-79.85 712.98,-75.46 712.34,-82.43"/>
</a>
</g>
</g>
<!-- Node5&#45;&gt;Node9 -->
<g id="edge9_Node000005_Node000009" class="edge">
<title>Node5&#45;&gt;Node9</title>
<g id="a_edge9_Node000005_Node000009"><a xlink:title=" ">
<path fill="none" stroke="#63b8ff" d="M712.47,-80.95C578.83,-74.96 202.34,-56.37 81.12,-32 74.34,-30.64 67.17,-28.55 60.59,-26.37"/>
<polygon fill="#63b8ff" stroke="#63b8ff" points="712.24,-84.44 722.38,-81.39 712.55,-77.45 712.24,-84.44"/>
</a>
</g>
</g>
<!-- Node5&#45;&gt;Node10 -->
<g id="edge10_Node000005_Node000010" class="edge">
<title>Node5&#45;&gt;Node10</title>
<g id="a_edge10_Node000005_Node000010"><a xlink:title=" ">
<path fill="none" stroke="#63b8ff" d="M807.44,-78.24C915.5,-67.29 1174.16,-40.59 1213.12,-32 1219.72,-30.55 1226.71,-28.49 1233.16,-26.35"/>
<polygon fill="#63b8ff" stroke="#63b8ff" points="807.34,-74.73 797.75,-79.22 808.05,-81.7 807.34,-74.73"/>
</a>
</g>
</g>
<!-- Node11 -->
<g id="Node000011" class="node">
<title>Node11</title>
<g id="a_Node000011"><a xlink:href="nvhttp_8cpp.html" target="_top" xlink:title="Definitions for the nvhttp (GameStream) server.">
<polygon fill="white" stroke="#666666" points="472.25,-26 394,-26 394,-6 472.25,-6 472.25,-26"/>
<text text-anchor="middle" x="433.12" y="-12.5" font-family="Helvetica,sans-Serif" font-size="10.00">src/nvhttp.cpp</text>
</a>
</g>
</g>
<!-- Node5&#45;&gt;Node11 -->
<g id="edge11_Node000005_Node000011" class="edge">
<title>Node5&#45;&gt;Node11</title>
<g id="a_edge11_Node000005_Node000011"><a xlink:title=" ">
<path fill="none" stroke="#63b8ff" d="M712.87,-76.16C657.08,-67.68 561.69,-51.87 481.12,-32 474.68,-30.41 467.84,-28.44 461.39,-26.46"/>
<polygon fill="#63b8ff" stroke="#63b8ff" points="712.25,-79.61 722.66,-77.64 713.29,-72.69 712.25,-79.61"/>
</a>
</g>
</g>
<!-- Node12 -->
<g id="Node000012" class="node">
<title>Node12</title>
<g id="a_Node000012"><a xlink:href="x11grab_8cpp.html" target="_top" xlink:title="Definitions for x11 capture.">
<polygon fill="white" stroke="#666666" points="581.62,-32 490.62,-32 490.62,0 581.62,0 581.62,-32"/>
<text text-anchor="start" x="498.62" y="-18.5" font-family="Helvetica,sans-Serif" font-size="10.00">src/platform/linux</text>
<text text-anchor="middle" x="536.12" y="-6.5" font-family="Helvetica,sans-Serif" font-size="10.00">/x11grab.cpp</text>
</a>
</g>
</g>
<!-- Node5&#45;&gt;Node12 -->
<g id="edge12_Node000005_Node000012" class="edge">
<title>Node5&#45;&gt;Node12</title>
<g id="a_edge12_Node000005_Node000012"><a xlink:title=" ">
<path fill="none" stroke="#63b8ff" d="M717.1,-70.32C678.28,-58.88 621.35,-42.11 581.74,-30.44"/>
<polygon fill="#63b8ff" stroke="#63b8ff" points="716,-73.65 726.58,-73.12 717.98,-66.93 716,-73.65"/>
</a>
</g>
</g>
<!-- Node13 -->
<g id="Node000013" class="node">
<title>Node13</title>
<g id="a_Node000013"><a xlink:href="platform_2windows_2input_8cpp.html" target="_top" xlink:title="Definitions for input handling on Windows.">
<polygon fill="white" stroke="#666666" points="708.62,-32 599.62,-32 599.62,0 708.62,0 708.62,-32"/>
<text text-anchor="start" x="607.62" y="-18.5" font-family="Helvetica,sans-Serif" font-size="10.00">src/platform/windows</text>
<text text-anchor="middle" x="654.12" y="-6.5" font-family="Helvetica,sans-Serif" font-size="10.00">/input.cpp</text>
</a>
</g>
</g>
<!-- Node5&#45;&gt;Node13 -->
<g id="edge13_Node000005_Node000013" class="edge">
<title>Node5&#45;&gt;Node13</title>
<g id="a_edge13_Node000005_Node000013"><a xlink:title=" ">
<path fill="none" stroke="#63b8ff" d="M735.61,-67.74C718.52,-57.09 695.8,-42.95 678.7,-32.3"/>
<polygon fill="#63b8ff" stroke="#63b8ff" points="733.31,-70.43 743.65,-72.74 737.01,-64.49 733.31,-70.43"/>
</a>
</g>
</g>
<!-- Node5&#45;&gt;Node14 -->
<g id="edge14_Node000005_Node000014" class="edge">
<title>Node5&#45;&gt;Node14</title>
<g id="a_edge14_Node000005_Node000014"><a xlink:title=" ">
<path fill="none" stroke="#63b8ff" d="M807.75,-78.22C837.71,-75.23 877.17,-71.33 912.12,-68 1085.85,-51.43 1130.87,-59.98 1303.12,-32 1306.17,-31.51 1309.28,-30.95 1312.41,-30.35"/>
<polygon fill="#63b8ff" stroke="#63b8ff" points="807.47,-74.73 797.86,-79.21 808.16,-81.7 807.47,-74.73"/>
</a>
</g>
</g>
<!-- Node15 -->
<g id="Node000015" class="node">
<title>Node15</title>
<g id="a_Node000015"><a xlink:href="rtsp_8cpp.html" target="_top" xlink:title="Definitions for RTSP streaming.">
<polygon fill="white" stroke="#666666" points="794,-26 726.25,-26 726.25,-6 794,-6 794,-26"/>
<text text-anchor="middle" x="760.12" y="-12.5" font-family="Helvetica,sans-Serif" font-size="10.00">src/rtsp.cpp</text>
</a>
</g>
</g>
<!-- Node5&#45;&gt;Node15 -->
<g id="edge15_Node000005_Node000015" class="edge">
<title>Node5&#45;&gt;Node15</title>
<g id="a_edge15_Node000005_Node000015"><a xlink:title=" ">
<path fill="none" stroke="#63b8ff" d="M760.12,-62.28C760.12,-50.27 760.12,-35.74 760.12,-26.44"/>
<polygon fill="#63b8ff" stroke="#63b8ff" points="756.63,-62.03 760.13,-72.03 763.63,-62.03 756.63,-62.03"/>
</a>
</g>
</g>
<!-- Node16 -->
<g id="Node000016" class="node">
<title>Node16</title>
<g id="a_Node000016"><a xlink:href="stream_8cpp.html" target="_top" xlink:title="Definitions for the streaming protocols.">
<polygon fill="white" stroke="#666666" points="893.75,-26 812.5,-26 812.5,-6 893.75,-6 893.75,-26"/>
<text text-anchor="middle" x="853.12" y="-12.5" font-family="Helvetica,sans-Serif" font-size="10.00">src/stream.cpp</text>
</a>
</g>
</g>
<!-- Node5&#45;&gt;Node16 -->
<g id="edge16_Node000005_Node000016" class="edge">
<title>Node5&#45;&gt;Node16</title>
<g id="a_edge16_Node000005_Node000016"><a xlink:title=" ">
<path fill="none" stroke="#63b8ff" d="M782.61,-67.04C800.5,-54.35 824.92,-37.02 839.83,-26.44"/>
<polygon fill="#63b8ff" stroke="#63b8ff" points="780.81,-64.03 774.68,-72.67 784.86,-69.73 780.81,-64.03"/>
</a>
</g>
</g>
<!-- Node17 -->
<g id="Node000017" class="node">
<title>Node17</title>
<g id="a_Node000017"><a xlink:href="upnp_8cpp.html" target="_top" xlink:title="Definitions for UPnP port mapping.">
<polygon fill="white" stroke="#666666" points="984.25,-26 912,-26 912,-6 984.25,-6 984.25,-26"/>
<text text-anchor="middle" x="948.12" y="-12.5" font-family="Helvetica,sans-Serif" font-size="10.00">src/upnp.cpp</text>
</a>
</g>
</g>
<!-- Node5&#45;&gt;Node17 -->
<g id="edge17_Node000005_Node000017" class="edge">
<title>Node5&#45;&gt;Node17</title>
<g id="a_edge17_Node000005_Node000017"><a xlink:title=" ">
<path fill="none" stroke="#63b8ff" d="M797.78,-69.78C834.32,-56.95 888.87,-37.8 921.24,-26.44"/>
<polygon fill="#63b8ff" stroke="#63b8ff" points="796.76,-66.43 788.49,-73.04 799.08,-73.03 796.76,-66.43"/>
</a>
</g>
</g>
<!-- Node18 -->
<g id="Node000018" class="node">
<title>Node18</title>
<g id="a_Node000018"><a xlink:href="video_8cpp.html" target="_top" xlink:title="Definitions for video.">
<polygon fill="white" stroke="#666666" points="1076.38,-26 1001.88,-26 1001.88,-6 1076.38,-6 1076.38,-26"/>
<text text-anchor="middle" x="1039.12" y="-12.5" font-family="Helvetica,sans-Serif" font-size="10.00">src/video.cpp</text>
</a>
</g>
</g>
<!-- Node5&#45;&gt;Node18 -->
<g id="edge18_Node000005_Node000018" class="edge">
<title>Node5&#45;&gt;Node18</title>
<g id="a_edge18_Node000005_Node000018"><a xlink:title=" ">
<path fill="none" stroke="#63b8ff" d="M807.44,-74.08C854.76,-64.83 929.44,-49.31 993.12,-32 999.12,-30.37 1005.5,-28.43 1011.53,-26.49"/>
<polygon fill="#63b8ff" stroke="#63b8ff" points="806.96,-70.61 797.81,-75.95 808.29,-77.48 806.96,-70.61"/>
</a>
</g>
</g>
</g>
</svg>

<g id="navigator" transform="translate(0 0)" fill="#404254">
  <rect fill="#f2f5e9" fill-opacity="0.5" stroke="#606060" stroke-width=".5" x="0" y="0" width="60" height="60"/>
  <use id="zoomplus" xlink:href="#zoomPlus" x="17" y="9" onmousedown="handleZoom(evt,'in')"/>
  <use id="zoomminus" xlink:href="#zoomMin" x="42" y="9" onmousedown="handleZoom(evt,'out')"/>
  <use id="reset" xlink:href="#resetDef" x="30" y="36" onmousedown="handleReset()"/>
   <use id="arrowup" xlink:href="#arrowUp" x="0" y="0" onmousedown="handlePan(0,-1)"/>
  <use id="arrowright" xlink:href="#arrowRight" x="0" y="0" onmousedown="handlePan(1,0)"/>
  <use id="arrowdown" xlink:href="#arrowDown" x="0" y="0" onmousedown="handlePan(0,1)"/>
  <use id="arrowleft" xlink:href="#arrowLeft" x="0" y="0" onmousedown="handlePan(-1,0)"/>
</g>
<svg viewBox="0 0 15 15" width="100%" height="30px" preserveAspectRatio="xMaxYMin meet">
 <g id="arrow_out" transform="scale(0.3 0.3)">
  <a xlink:href="thread__pool_8h__dep__incl_org.svg" target="_base">
   <rect id="button" ry="5" rx="5" y="6" x="6" height="38" width="38"
        fill="#f2f5e9" fill-opacity="0.5" stroke="#606060" stroke-width="1.0"/>
   <path id="arrow"
     d="M 11.500037,31.436501 C 11.940474,20.09759 22.043105,11.32322 32.158766,21.979434 L 37.068811,17.246167 C 37.068811,17.246167 37.088388,32 37.088388,32 L 22.160133,31.978069 C 22.160133,31.978069 26.997745,27.140456 26.997745,27.140456 C 18.528582,18.264221 13.291696,25.230495 11.500037,31.436501 z"
     style="fill:#404040;"/>
  </a>
 </g>
</svg>

<style type='text/css'>
<![CDATA[
[data-mouse-over-selected='false'] { opacity: 0.7; }
[data-mouse-over-selected='true']  { opacity: 1.0; }
]]>
</style>
<script type="application/ecmascript"><![CDATA[
document.addEventListener('DOMContentLoaded', (event) => {
  highlightEdges();
  highlightAdjacentNodes();
});
]]></script>
</svg>
