<?xml version="1.0" encoding="UTF-8" standalone="no"?>
<!DOCTYPE svg PUBLIC "-//W3C//DTD SVG 1.1//EN"
 "http://www.w3.org/Graphics/SVG/1.1/DTD/svg11.dtd">
<!-- Generated by graphviz version 12.2.1 (0)
 -->
<!-- Title: src/thread_pool.h Pages: 1 -->
<svg width="999pt" height="196pt"
 viewBox="0.00 0.00 999.25 196.00" xmlns="http://www.w3.org/2000/svg" xmlns:xlink="http://www.w3.org/1999/xlink">
<g id="graph0" class="graph" transform="scale(1 1) rotate(0) translate(4 192)">
<title>src/thread_pool.h</title>
<!-- Node1 -->
<g id="Node000001" class="node">
<title>Node1</title>
<g id="a_Node000001"><a xlink:title="Declarations for the thread pool system.">
<polygon fill="#999999" stroke="#666666" points="314.12,-188 223.12,-188 223.12,-168 314.12,-168 314.12,-188"/>
<text text-anchor="middle" x="268.62" y="-174.5" font-family="Helvetica,sans-Serif" font-size="10.00">src/thread_pool.h</text>
</a>
</g>
</g>
<!-- Node2 -->
<g id="Node000002" class="node">
<title>Node2</title>
<g id="a_Node000002"><a xlink:title=" ">
<polygon fill="#e0e0e0" stroke="#999999" points="254.12,-132 211.12,-132 211.12,-112 254.12,-112 254.12,-132"/>
<text text-anchor="middle" x="232.62" y="-118.5" font-family="Helvetica,sans-Serif" font-size="10.00">thread</text>
</a>
</g>
</g>
<!-- Node1&#45;&gt;Node2 -->
<g id="edge1_Node000001_Node000002" class="edge">
<title>Node1&#45;&gt;Node2</title>
<g id="a_edge1_Node000001_Node000002"><a xlink:title=" ">
<path fill="none" stroke="#63b8ff" d="M262.35,-167.59C257.61,-160.47 250.93,-150.45 245.1,-141.72"/>
<polygon fill="#63b8ff" stroke="#63b8ff" points="248.12,-139.94 239.66,-133.56 242.3,-143.82 248.12,-139.94"/>
</a>
</g>
</g>
<!-- Node3 -->
<g id="Node000003" class="node">
<title>Node3</title>
<g id="a_Node000003"><a xlink:href="task__pool_8h.html" target="_top" xlink:title="Declarations for the task pool system.">
<polygon fill="white" stroke="#666666" points="338.75,-132 272.5,-132 272.5,-112 338.75,-112 338.75,-132"/>
<text text-anchor="middle" x="305.62" y="-118.5" font-family="Helvetica,sans-Serif" font-size="10.00">task_pool.h</text>
</a>
</g>
</g>
<!-- Node1&#45;&gt;Node3 -->
<g id="edge2_Node000001_Node000003" class="edge">
<title>Node1&#45;&gt;Node3</title>
<g id="a_edge2_Node000001_Node000003"><a xlink:title=" ">
<path fill="none" stroke="#63b8ff" d="M275.07,-167.59C279.95,-160.47 286.82,-150.45 292.8,-141.72"/>
<polygon fill="#63b8ff" stroke="#63b8ff" points="295.63,-143.77 298.4,-133.55 289.86,-139.82 295.63,-143.77"/>
</a>
</g>
</g>
<!-- Node4 -->
<g id="Node000004" class="node">
<title>Node4</title>
<g id="a_Node000004"><a xlink:title=" ">
<polygon fill="#e0e0e0" stroke="#999999" points="45.25,-76 0,-76 0,-56 45.25,-56 45.25,-76"/>
<text text-anchor="middle" x="22.62" y="-62.5" font-family="Helvetica,sans-Serif" font-size="10.00">chrono</text>
</a>
</g>
</g>
<!-- Node3&#45;&gt;Node4 -->
<g id="edge3_Node000003_Node000004" class="edge">
<title>Node3&#45;&gt;Node4</title>
<g id="a_edge3_Node000003_Node000004"><a xlink:title=" ">
<path fill="none" stroke="#63b8ff" d="M272.18,-113.71C269.29,-113.11 266.41,-112.54 263.62,-112 174.6,-94.8 148.53,-96.61 56.83,-76.3"/>
<polygon fill="#63b8ff" stroke="#63b8ff" points="57.63,-72.89 47.1,-74.11 56.09,-79.72 57.63,-72.89"/>
</a>
</g>
</g>
<!-- Node5 -->
<g id="Node000005" class="node">
<title>Node5</title>
<g id="a_Node000005"><a xlink:title=" ">
<polygon fill="#e0e0e0" stroke="#999999" points="105.75,-76 63.5,-76 63.5,-56 105.75,-56 105.75,-76"/>
<text text-anchor="middle" x="84.62" y="-62.5" font-family="Helvetica,sans-Serif" font-size="10.00">deque</text>
</a>
</g>
</g>
<!-- Node3&#45;&gt;Node5 -->
<g id="edge4_Node000003_Node000005" class="edge">
<title>Node3&#45;&gt;Node5</title>
<g id="a_edge4_Node000003_Node000005"><a xlink:title=" ">
<path fill="none" stroke="#63b8ff" d="M272,-113.72C235.98,-105.78 176.87,-92.35 117.33,-76.61"/>
<polygon fill="#63b8ff" stroke="#63b8ff" points="118.24,-73.23 107.67,-74.03 116.43,-79.99 118.24,-73.23"/>
</a>
</g>
</g>
<!-- Node6 -->
<g id="Node000006" class="node">
<title>Node6</title>
<g id="a_Node000006"><a xlink:title=" ">
<polygon fill="#e0e0e0" stroke="#999999" points="181.62,-76 123.62,-76 123.62,-56 181.62,-56 181.62,-76"/>
<text text-anchor="middle" x="152.62" y="-62.5" font-family="Helvetica,sans-Serif" font-size="10.00">functional</text>
</a>
</g>
</g>
<!-- Node3&#45;&gt;Node6 -->
<g id="edge5_Node000003_Node000006" class="edge">
<title>Node3&#45;&gt;Node6</title>
<g id="a_edge5_Node000003_Node000006"><a xlink:title=" ">
<path fill="none" stroke="#63b8ff" d="M278.97,-111.59C254.44,-102.94 217.8,-90 190.28,-80.29"/>
<polygon fill="#63b8ff" stroke="#63b8ff" points="191.51,-77.01 180.91,-76.98 189.18,-83.61 191.51,-77.01"/>
</a>
</g>
</g>
<!-- Node7 -->
<g id="Node000007" class="node">
<title>Node7</title>
<g id="a_Node000007"><a xlink:title=" ">
<polygon fill="#e0e0e0" stroke="#999999" points="240,-76 199.25,-76 199.25,-56 240,-56 240,-76"/>
<text text-anchor="middle" x="219.62" y="-62.5" font-family="Helvetica,sans-Serif" font-size="10.00">future</text>
</a>
</g>
</g>
<!-- Node3&#45;&gt;Node7 -->
<g id="edge6_Node000003_Node000007" class="edge">
<title>Node3&#45;&gt;Node7</title>
<g id="a_edge6_Node000003_Node000007"><a xlink:title=" ">
<path fill="none" stroke="#63b8ff" d="M290.64,-111.59C277.9,-103.59 259.33,-91.93 244.38,-82.54"/>
<polygon fill="#63b8ff" stroke="#63b8ff" points="246.33,-79.64 236,-77.28 242.61,-85.57 246.33,-79.64"/>
</a>
</g>
</g>
<!-- Node8 -->
<g id="Node000008" class="node">
<title>Node8</title>
<g id="a_Node000008"><a xlink:title=" ">
<polygon fill="#e0e0e0" stroke="#999999" points="195.12,-20 152.12,-20 152.12,0 195.12,0 195.12,-20"/>
<text text-anchor="middle" x="173.62" y="-6.5" font-family="Helvetica,sans-Serif" font-size="10.00">mutex</text>
</a>
</g>
</g>
<!-- Node3&#45;&gt;Node8 -->
<g id="edge7_Node000003_Node000008" class="edge">
<title>Node3&#45;&gt;Node8</title>
<g id="a_edge7_Node000003_Node000008"><a xlink:title=" ">
<path fill="none" stroke="#63b8ff" d="M299.02,-111.79C289.12,-98.42 269.36,-73.31 248.62,-56 234.65,-44.33 217.31,-33.72 202.83,-25.74"/>
<polygon fill="#63b8ff" stroke="#63b8ff" points="204.68,-22.76 194.21,-21.13 201.38,-28.93 204.68,-22.76"/>
</a>
</g>
</g>
<!-- Node9 -->
<g id="Node000009" class="node">
<title>Node9</title>
<g id="a_Node000009"><a xlink:title=" ">
<polygon fill="#e0e0e0" stroke="#999999" points="262.5,-20 212.75,-20 212.75,0 262.5,0 262.5,-20"/>
<text text-anchor="middle" x="237.62" y="-6.5" font-family="Helvetica,sans-Serif" font-size="10.00">optional</text>
</a>
</g>
</g>
<!-- Node3&#45;&gt;Node9 -->
<g id="edge8_Node000003_Node000009" class="edge">
<title>Node3&#45;&gt;Node9</title>
<g id="a_edge8_Node000003_Node000009"><a xlink:title=" ">
<path fill="none" stroke="#63b8ff" d="M303.49,-111.61C300.2,-98.45 293.07,-74.1 281.62,-56 275.11,-45.69 265.91,-35.82 257.6,-27.96"/>
<polygon fill="#63b8ff" stroke="#63b8ff" points="260.01,-25.41 250.24,-21.31 255.32,-30.61 260.01,-25.41"/>
</a>
</g>
</g>
<!-- Node10 -->
<g id="Node000010" class="node">
<title>Node10</title>
<g id="a_Node000010"><a xlink:title=" ">
<polygon fill="#e0e0e0" stroke="#999999" points="342.5,-20 280.75,-20 280.75,0 342.5,0 342.5,-20"/>
<text text-anchor="middle" x="311.62" y="-6.5" font-family="Helvetica,sans-Serif" font-size="10.00">type_traits</text>
</a>
</g>
</g>
<!-- Node3&#45;&gt;Node10 -->
<g id="edge9_Node000003_Node000010" class="edge">
<title>Node3&#45;&gt;Node10</title>
<g id="a_edge9_Node000003_Node000010"><a xlink:title=" ">
<path fill="none" stroke="#63b8ff" d="M309.49,-111.54C312.93,-102.57 317.71,-88.62 319.62,-76 321.9,-61.01 319.64,-43.99 316.94,-31.13"/>
<polygon fill="#63b8ff" stroke="#63b8ff" points="320.43,-30.67 314.71,-21.75 313.62,-32.29 320.43,-30.67"/>
</a>
</g>
</g>
<!-- Node11 -->
<g id="Node000011" class="node">
<title>Node11</title>
<g id="a_Node000011"><a xlink:title=" ">
<polygon fill="#e0e0e0" stroke="#999999" points="991.25,-20 952,-20 952,0 991.25,0 991.25,-20"/>
<text text-anchor="middle" x="971.62" y="-6.5" font-family="Helvetica,sans-Serif" font-size="10.00">utility</text>
</a>
</g>
</g>
<!-- Node3&#45;&gt;Node11 -->
<g id="edge10_Node000003_Node000011" class="edge">
<title>Node3&#45;&gt;Node11</title>
<g id="a_edge10_Node000003_Node000011"><a xlink:title=" ">
<path fill="none" stroke="#63b8ff" d="M339.14,-120.5C417.35,-118.76 617.63,-110.95 780.62,-76 838.82,-63.52 903.91,-38.97 941.1,-23.87"/>
<polygon fill="#63b8ff" stroke="#63b8ff" points="942.39,-27.13 950.31,-20.09 939.73,-20.65 942.39,-27.13"/>
</a>
</g>
</g>
<!-- Node12 -->
<g id="Node000012" class="node">
<title>Node12</title>
<g id="a_Node000012"><a xlink:title=" ">
<polygon fill="#e0e0e0" stroke="#999999" points="403.12,-20 360.12,-20 360.12,0 403.12,0 403.12,-20"/>
<text text-anchor="middle" x="381.62" y="-6.5" font-family="Helvetica,sans-Serif" font-size="10.00">vector</text>
</a>
</g>
</g>
<!-- Node3&#45;&gt;Node12 -->
<g id="edge11_Node000003_Node000012" class="edge">
<title>Node3&#45;&gt;Node12</title>
<g id="a_edge11_Node000003_Node000012"><a xlink:title=" ">
<path fill="none" stroke="#63b8ff" d="M312.1,-111.62C324.61,-93.52 352.29,-53.45 368.7,-29.7"/>
<polygon fill="#63b8ff" stroke="#63b8ff" points="371.5,-31.82 374.3,-21.6 365.74,-27.84 371.5,-31.82"/>
</a>
</g>
</g>
<!-- Node13 -->
<g id="Node000013" class="node">
<title>Node13</title>
<g id="a_Node000013"><a xlink:href="move__by__copy_8h.html" target="_top" xlink:title="Declarations for the MoveByCopy utility class.">
<polygon fill="white" stroke="#666666" points="771.38,-76 681.88,-76 681.88,-56 771.38,-56 771.38,-76"/>
<text text-anchor="middle" x="726.62" y="-62.5" font-family="Helvetica,sans-Serif" font-size="10.00">move_by_copy.h</text>
</a>
</g>
</g>
<!-- Node3&#45;&gt;Node13 -->
<g id="edge12_Node000003_Node000013" class="edge">
<title>Node3&#45;&gt;Node13</title>
<g id="a_edge12_Node000003_Node000013"><a xlink:title=" ">
<path fill="none" stroke="#63b8ff" d="M339.01,-116.72C410.93,-107.49 581.16,-85.66 670.17,-74.24"/>
<polygon fill="#63b8ff" stroke="#63b8ff" points="670.42,-77.74 679.89,-72.99 669.53,-70.79 670.42,-77.74"/>
</a>
</g>
</g>
<!-- Node14 -->
<g id="Node000014" class="node">
<title>Node14</title>
<g id="a_Node000014"><a xlink:href="utility_8h.html" target="_top" xlink:title="Declarations for utility functions.">
<polygon fill="white" stroke="#666666" points="538,-76 491.25,-76 491.25,-56 538,-56 538,-76"/>
<text text-anchor="middle" x="514.62" y="-62.5" font-family="Helvetica,sans-Serif" font-size="10.00">utility.h</text>
</a>
</g>
</g>
<!-- Node3&#45;&gt;Node14 -->
<g id="edge14_Node000003_Node000014" class="edge">
<title>Node3&#45;&gt;Node14</title>
<g id="a_edge14_Node000003_Node000014"><a xlink:title=" ">
<path fill="none" stroke="#63b8ff" d="M339.2,-112.32C377.77,-102.36 440.73,-86.09 479.81,-75.99"/>
<polygon fill="#63b8ff" stroke="#63b8ff" points="480.61,-79.4 489.41,-73.51 478.86,-72.63 480.61,-79.4"/>
</a>
</g>
</g>
<!-- Node13&#45;&gt;Node11 -->
<g id="edge13_Node000013_Node000011" class="edge">
<title>Node13&#45;&gt;Node11</title>
<g id="a_edge13_Node000013_Node000011"><a xlink:title=" ">
<path fill="none" stroke="#63b8ff" d="M771.59,-56.93C813.09,-49.19 876.61,-36.63 940.62,-20.32"/>
<polygon fill="#63b8ff" stroke="#63b8ff" points="941.46,-23.72 950.26,-17.83 939.71,-16.94 941.46,-23.72"/>
</a>
</g>
</g>
<!-- Node14&#45;&gt;Node8 -->
<g id="edge18_Node000014_Node000008" class="edge">
<title>Node14&#45;&gt;Node8</title>
<g id="a_edge18_Node000014_Node000008"><a xlink:title=" ">
<path fill="none" stroke="#63b8ff" d="M491,-62.79C440.44,-57.79 317.87,-44.34 206.56,-20.39"/>
<polygon fill="#63b8ff" stroke="#63b8ff" points="207.48,-17.01 196.96,-18.29 205.98,-23.85 207.48,-17.01"/>
</a>
</g>
</g>
<!-- Node14&#45;&gt;Node9 -->
<g id="edge19_Node000014_Node000009" class="edge">
<title>Node14&#45;&gt;Node9</title>
<g id="a_edge19_Node000014_Node000009"><a xlink:title=" ">
<path fill="none" stroke="#63b8ff" d="M491.05,-61.24C449.32,-54.47 359.54,-39.3 274.04,-20.4"/>
<polygon fill="#63b8ff" stroke="#63b8ff" points="274.82,-16.99 264.3,-18.23 273.3,-23.82 274.82,-16.99"/>
</a>
</g>
</g>
<!-- Node14&#45;&gt;Node10 -->
<g id="edge23_Node000014_Node000010" class="edge">
<title>Node14&#45;&gt;Node10</title>
<g id="a_edge23_Node000014_Node000010"><a xlink:title=" ">
<path fill="none" stroke="#63b8ff" d="M490.94,-58.7C457.31,-49.75 395.21,-33.23 353.65,-22.18"/>
<polygon fill="#63b8ff" stroke="#63b8ff" points="354.8,-18.86 344.24,-19.68 353,-25.63 354.8,-18.86"/>
</a>
</g>
</g>
<!-- Node14&#45;&gt;Node12 -->
<g id="edge25_Node000014_Node000012" class="edge">
<title>Node14&#45;&gt;Node12</title>
<g id="a_edge25_Node000014_Node000012"><a xlink:title=" ">
<path fill="none" stroke="#63b8ff" d="M491.46,-55.59C469.9,-46.84 437.59,-33.72 413.58,-23.97"/>
<polygon fill="#63b8ff" stroke="#63b8ff" points="415.19,-20.85 404.61,-20.33 412.56,-27.34 415.19,-20.85"/>
</a>
</g>
</g>
<!-- Node15 -->
<g id="Node000015" class="node">
<title>Node15</title>
<g id="a_Node000015"><a xlink:title=" ">
<polygon fill="#e0e0e0" stroke="#999999" points="933.5,-20 877.75,-20 877.75,0 933.5,0 933.5,-20"/>
<text text-anchor="middle" x="905.62" y="-6.5" font-family="Helvetica,sans-Serif" font-size="10.00">algorithm</text>
</a>
</g>
</g>
<!-- Node14&#45;&gt;Node15 -->
<g id="edge15_Node000014_Node000015" class="edge">
<title>Node14&#45;&gt;Node15</title>
<g id="a_edge15_Node000014_Node000015"><a xlink:title=" ">
<path fill="none" stroke="#63b8ff" d="M538.38,-62.91C593.94,-57.82 736.85,-43.61 866.15,-20.27"/>
<polygon fill="#63b8ff" stroke="#63b8ff" points="866.72,-23.72 875.92,-18.48 865.46,-16.84 866.72,-23.72"/>
</a>
</g>
</g>
<!-- Node16 -->
<g id="Node000016" class="node">
<title>Node16</title>
<g id="a_Node000016"><a xlink:title=" ">
<polygon fill="#e0e0e0" stroke="#999999" points="515.62,-20 421.62,-20 421.62,0 515.62,0 515.62,-20"/>
<text text-anchor="middle" x="468.62" y="-6.5" font-family="Helvetica,sans-Serif" font-size="10.00">condition_variable</text>
</a>
</g>
</g>
<!-- Node14&#45;&gt;Node16 -->
<g id="edge16_Node000014_Node000016" class="edge">
<title>Node14&#45;&gt;Node16</title>
<g id="a_edge16_Node000014_Node000016"><a xlink:title=" ">
<path fill="none" stroke="#63b8ff" d="M506.61,-55.59C500.35,-48.24 491.45,-37.8 483.84,-28.87"/>
<polygon fill="#63b8ff" stroke="#63b8ff" points="486.68,-26.79 477.53,-21.45 481.35,-31.33 486.68,-26.79"/>
</a>
</g>
</g>
<!-- Node17 -->
<g id="Node000017" class="node">
<title>Node17</title>
<g id="a_Node000017"><a xlink:title=" ">
<polygon fill="#e0e0e0" stroke="#999999" points="585.25,-20 534,-20 534,0 585.25,0 585.25,-20"/>
<text text-anchor="middle" x="559.62" y="-6.5" font-family="Helvetica,sans-Serif" font-size="10.00">memory</text>
</a>
</g>
</g>
<!-- Node14&#45;&gt;Node17 -->
<g id="edge17_Node000014_Node000017" class="edge">
<title>Node14&#45;&gt;Node17</title>
<g id="a_edge17_Node000014_Node000017"><a xlink:title=" ">
<path fill="none" stroke="#63b8ff" d="M522.46,-55.59C528.59,-48.24 537.3,-37.8 544.74,-28.87"/>
<polygon fill="#63b8ff" stroke="#63b8ff" points="547.19,-31.38 550.91,-21.46 541.82,-26.9 547.19,-31.38"/>
</a>
</g>
</g>
<!-- Node18 -->
<g id="Node000018" class="node">
<title>Node18</title>
<g id="a_Node000018"><a xlink:title=" ">
<polygon fill="#e0e0e0" stroke="#999999" points="654.25,-20 603,-20 603,0 654.25,0 654.25,-20"/>
<text text-anchor="middle" x="628.62" y="-6.5" font-family="Helvetica,sans-Serif" font-size="10.00">ostream</text>
</a>
</g>
</g>
<!-- Node14&#45;&gt;Node18 -->
<g id="edge20_Node000014_Node000018" class="edge">
<title>Node14&#45;&gt;Node18</title>
<g id="a_edge20_Node000014_Node000018"><a xlink:title=" ">
<path fill="none" stroke="#63b8ff" d="M534.48,-55.59C552.11,-47.24 578.13,-34.92 598.35,-25.34"/>
<polygon fill="#63b8ff" stroke="#63b8ff" points="599.71,-28.57 607.24,-21.13 596.71,-22.25 599.71,-28.57"/>
</a>
</g>
</g>
<!-- Node19 -->
<g id="Node000019" class="node">
<title>Node19</title>
<g id="a_Node000019"><a xlink:title=" ">
<polygon fill="#e0e0e0" stroke="#999999" points="712.62,-20 672.62,-20 672.62,0 712.62,0 712.62,-20"/>
<text text-anchor="middle" x="692.62" y="-6.5" font-family="Helvetica,sans-Serif" font-size="10.00">string</text>
</a>
</g>
</g>
<!-- Node14&#45;&gt;Node19 -->
<g id="edge21_Node000014_Node000019" class="edge">
<title>Node14&#45;&gt;Node19</title>
<g id="a_edge21_Node000014_Node000019"><a xlink:title=" ">
<path fill="none" stroke="#63b8ff" d="M538.38,-57.89C565.79,-49.66 612.49,-35.62 661.52,-20.63"/>
<polygon fill="#63b8ff" stroke="#63b8ff" points="662.36,-24.03 670.9,-17.76 660.32,-17.34 662.36,-24.03"/>
</a>
</g>
</g>
<!-- Node20 -->
<g id="Node000020" class="node">
<title>Node20</title>
<g id="a_Node000020"><a xlink:title=" ">
<polygon fill="#e0e0e0" stroke="#999999" points="796.38,-20 730.88,-20 730.88,0 796.38,0 796.38,-20"/>
<text text-anchor="middle" x="763.62" y="-6.5" font-family="Helvetica,sans-Serif" font-size="10.00">string_view</text>
</a>
</g>
</g>
<!-- Node14&#45;&gt;Node20 -->
<g id="edge22_Node000014_Node000020" class="edge">
<title>Node14&#45;&gt;Node20</title>
<g id="a_edge22_Node000014_Node000020"><a xlink:title=" ">
<path fill="none" stroke="#63b8ff" d="M538.05,-59.92C579.56,-50.92 666.62,-32.04 719.62,-20.54"/>
<polygon fill="#63b8ff" stroke="#63b8ff" points="720.19,-24 729.23,-18.46 718.71,-17.16 720.19,-24"/>
</a>
</g>
</g>
<!-- Node21 -->
<g id="Node000021" class="node">
<title>Node21</title>
<g id="a_Node000021"><a xlink:title=" ">
<polygon fill="#e0e0e0" stroke="#999999" points="859.25,-20 814,-20 814,0 859.25,0 859.25,-20"/>
<text text-anchor="middle" x="836.62" y="-6.5" font-family="Helvetica,sans-Serif" font-size="10.00">variant</text>
</a>
</g>
</g>
<!-- Node14&#45;&gt;Node21 -->
<g id="edge24_Node000014_Node000021" class="edge">
<title>Node14&#45;&gt;Node21</title>
<g id="a_edge24_Node000014_Node000021"><a xlink:title=" ">
<path fill="none" stroke="#63b8ff" d="M538.2,-62.4C586.28,-56.88 699.22,-42.79 802.74,-20.42"/>
<polygon fill="#63b8ff" stroke="#63b8ff" points="803.19,-23.91 812.21,-18.34 801.69,-17.07 803.19,-23.91"/>
</a>
</g>
</g>
</g>
</svg>
