<?xml version="1.0" encoding="UTF-8" standalone="no"?>
<!DOCTYPE svg PUBLIC "-//W3C//DTD SVG 1.1//EN"
 "http://www.w3.org/Graphics/SVG/1.1/DTD/svg11.dtd">
<!-- Generated by graphviz version 12.2.1 (0)
 -->
<!-- Title: src/thread_safe.h Pages: 1 -->
<svg width="792pt" height="140pt"
 viewBox="0.00 0.00 791.88 140.00" xmlns="http://www.w3.org/2000/svg" xmlns:xlink="http://www.w3.org/1999/xlink">
<g id="graph0" class="graph" transform="scale(1 1) rotate(0) translate(4 136)">
<title>src/thread_safe.h</title>
<!-- Node1 -->
<g id="Node000001" class="node">
<title>Node1</title>
<g id="a_Node000001"><a xlink:title="Declarations for thread&#45;safe data structures.">
<polygon fill="#999999" stroke="#666666" points="262.88,-132 171.12,-132 171.12,-112 262.88,-112 262.88,-132"/>
<text text-anchor="middle" x="217" y="-118.5" font-family="Helvetica,sans-Serif" font-size="10.00">src/thread_safe.h</text>
</a>
</g>
</g>
<!-- Node2 -->
<g id="Node000002" class="node">
<title>Node2</title>
<g id="a_Node000002"><a xlink:title=" ">
<polygon fill="#e0e0e0" stroke="#999999" points="67.88,-76 30.13,-76 30.13,-56 67.88,-56 67.88,-76"/>
<text text-anchor="middle" x="49" y="-62.5" font-family="Helvetica,sans-Serif" font-size="10.00">array</text>
</a>
</g>
</g>
<!-- Node1&#45;&gt;Node2 -->
<g id="edge1_Node000001_Node000002" class="edge">
<title>Node1&#45;&gt;Node2</title>
<g id="a_edge1_Node000001_Node000002"><a xlink:title=" ">
<path fill="none" stroke="#63b8ff" d="M187.74,-111.59C157.23,-101.79 109.65,-86.5 78.91,-76.61"/>
<polygon fill="#63b8ff" stroke="#63b8ff" points="80.05,-73.3 69.46,-73.58 77.91,-79.97 80.05,-73.3"/>
</a>
</g>
</g>
<!-- Node3 -->
<g id="Node000003" class="node">
<title>Node3</title>
<g id="a_Node000003"><a xlink:title=" ">
<polygon fill="#e0e0e0" stroke="#999999" points="131.62,-76 86.38,-76 86.38,-56 131.62,-56 131.62,-76"/>
<text text-anchor="middle" x="109" y="-62.5" font-family="Helvetica,sans-Serif" font-size="10.00">atomic</text>
</a>
</g>
</g>
<!-- Node1&#45;&gt;Node3 -->
<g id="edge2_Node000001_Node000003" class="edge">
<title>Node1&#45;&gt;Node3</title>
<g id="a_edge2_Node000001_Node000003"><a xlink:title=" ">
<path fill="none" stroke="#63b8ff" d="M198.19,-111.59C181.64,-103.32 157.29,-91.14 138.21,-81.6"/>
<polygon fill="#63b8ff" stroke="#63b8ff" points="139.82,-78.5 129.31,-77.16 136.69,-84.76 139.82,-78.5"/>
</a>
</g>
</g>
<!-- Node4 -->
<g id="Node000004" class="node">
<title>Node4</title>
<g id="a_Node000004"><a xlink:title=" ">
<polygon fill="#e0e0e0" stroke="#999999" points="94,-20 0,-20 0,0 94,0 94,-20"/>
<text text-anchor="middle" x="47" y="-6.5" font-family="Helvetica,sans-Serif" font-size="10.00">condition_variable</text>
</a>
</g>
</g>
<!-- Node1&#45;&gt;Node4 -->
<g id="edge3_Node000001_Node000004" class="edge">
<title>Node1&#45;&gt;Node4</title>
<g id="a_edge3_Node000001_Node000004"><a xlink:title=" ">
<path fill="none" stroke="#63b8ff" d="M207.81,-111.72C194.12,-98.26 167.19,-73.05 141,-56 122.33,-43.85 99.87,-32.97 81.59,-24.96"/>
<polygon fill="#63b8ff" stroke="#63b8ff" points="83.05,-21.78 72.48,-21.07 80.3,-28.22 83.05,-21.78"/>
</a>
</g>
</g>
<!-- Node5 -->
<g id="Node000005" class="node">
<title>Node5</title>
<g id="a_Node000005"><a xlink:title=" ">
<polygon fill="#e0e0e0" stroke="#999999" points="393,-76 335,-76 335,-56 393,-56 393,-76"/>
<text text-anchor="middle" x="364" y="-62.5" font-family="Helvetica,sans-Serif" font-size="10.00">functional</text>
</a>
</g>
</g>
<!-- Node1&#45;&gt;Node5 -->
<g id="edge4_Node000001_Node000005" class="edge">
<title>Node1&#45;&gt;Node5</title>
<g id="a_edge4_Node000001_Node000005"><a xlink:title=" ">
<path fill="none" stroke="#63b8ff" d="M242.61,-111.59C266.07,-102.97 301.07,-90.12 327.47,-80.42"/>
<polygon fill="#63b8ff" stroke="#63b8ff" points="328.59,-83.73 336.77,-77 326.18,-77.16 328.59,-83.73"/>
</a>
</g>
</g>
<!-- Node6 -->
<g id="Node000006" class="node">
<title>Node6</title>
<g id="a_Node000006"><a xlink:title=" ">
<polygon fill="#e0e0e0" stroke="#999999" points="445.38,-76 410.62,-76 410.62,-56 445.38,-56 445.38,-76"/>
<text text-anchor="middle" x="428" y="-62.5" font-family="Helvetica,sans-Serif" font-size="10.00">map</text>
</a>
</g>
</g>
<!-- Node1&#45;&gt;Node6 -->
<g id="edge5_Node000001_Node000006" class="edge">
<title>Node1&#45;&gt;Node6</title>
<g id="a_edge5_Node000001_Node000006"><a xlink:title=" ">
<path fill="none" stroke="#63b8ff" d="M261.04,-111.52C296.29,-103.66 347.19,-91.7 399.37,-76.59"/>
<polygon fill="#63b8ff" stroke="#63b8ff" points="400.11,-80.02 408.72,-73.85 398.14,-73.3 400.11,-80.02"/>
</a>
</g>
</g>
<!-- Node7 -->
<g id="Node000007" class="node">
<title>Node7</title>
<g id="a_Node000007"><a xlink:title=" ">
<polygon fill="#e0e0e0" stroke="#999999" points="155.5,-20 112.5,-20 112.5,0 155.5,0 155.5,-20"/>
<text text-anchor="middle" x="134" y="-6.5" font-family="Helvetica,sans-Serif" font-size="10.00">mutex</text>
</a>
</g>
</g>
<!-- Node1&#45;&gt;Node7 -->
<g id="edge6_Node000001_Node000007" class="edge">
<title>Node1&#45;&gt;Node7</title>
<g id="a_edge6_Node000001_Node000007"><a xlink:title=" ">
<path fill="none" stroke="#63b8ff" d="M211.55,-111.89C203.74,-99.06 188.68,-75.09 174,-56 166.78,-46.61 158.11,-36.71 150.69,-28.6"/>
<polygon fill="#63b8ff" stroke="#63b8ff" points="153.4,-26.37 144.02,-21.43 148.27,-31.13 153.4,-26.37"/>
</a>
</g>
</g>
<!-- Node8 -->
<g id="Node000008" class="node">
<title>Node8</title>
<g id="a_Node000008"><a xlink:title=" ">
<polygon fill="#e0e0e0" stroke="#999999" points="216.5,-20 173.5,-20 173.5,0 216.5,0 216.5,-20"/>
<text text-anchor="middle" x="195" y="-6.5" font-family="Helvetica,sans-Serif" font-size="10.00">vector</text>
</a>
</g>
</g>
<!-- Node1&#45;&gt;Node8 -->
<g id="edge7_Node000001_Node000008" class="edge">
<title>Node1&#45;&gt;Node8</title>
<g id="a_edge7_Node000001_Node000008"><a xlink:title=" ">
<path fill="none" stroke="#63b8ff" d="M217.11,-111.62C217.07,-98.88 216.33,-75.44 212,-56 210.12,-47.56 206.98,-38.58 203.9,-30.88"/>
<polygon fill="#63b8ff" stroke="#63b8ff" points="207.18,-29.64 200.05,-21.81 200.74,-32.38 207.18,-29.64"/>
</a>
</g>
</g>
<!-- Node9 -->
<g id="Node000009" class="node">
<title>Node9</title>
<g id="a_Node000009"><a xlink:href="utility_8h.html" target="_top" xlink:title="Declarations for utility functions.">
<polygon fill="white" stroke="#666666" points="317.38,-76 270.62,-76 270.62,-56 317.38,-56 317.38,-76"/>
<text text-anchor="middle" x="294" y="-62.5" font-family="Helvetica,sans-Serif" font-size="10.00">utility.h</text>
</a>
</g>
</g>
<!-- Node1&#45;&gt;Node9 -->
<g id="edge8_Node000001_Node000009" class="edge">
<title>Node1&#45;&gt;Node9</title>
<g id="a_edge8_Node000001_Node000009"><a xlink:title=" ">
<path fill="none" stroke="#63b8ff" d="M230.41,-111.59C241.61,-103.74 257.81,-92.38 271.06,-83.09"/>
<polygon fill="#63b8ff" stroke="#63b8ff" points="273.07,-85.96 279.24,-77.35 269.05,-80.22 273.07,-85.96"/>
</a>
</g>
</g>
<!-- Node9&#45;&gt;Node4 -->
<g id="edge10_Node000009_Node000004" class="edge">
<title>Node9&#45;&gt;Node4</title>
<g id="a_edge10_Node000009_Node000004"><a xlink:title=" ">
<path fill="none" stroke="#63b8ff" d="M270.32,-59.82C231.73,-51.39 154.32,-34.46 101.58,-22.93"/>
<polygon fill="#63b8ff" stroke="#63b8ff" points="102.39,-19.53 91.87,-20.81 100.89,-26.37 102.39,-19.53"/>
</a>
</g>
</g>
<!-- Node9&#45;&gt;Node7 -->
<g id="edge12_Node000009_Node000007" class="edge">
<title>Node9&#45;&gt;Node7</title>
<g id="a_edge12_Node000009_Node000007"><a xlink:title=" ">
<path fill="none" stroke="#63b8ff" d="M270.39,-57.03C242.91,-47.76 197.36,-32.38 166.53,-21.98"/>
<polygon fill="#63b8ff" stroke="#63b8ff" points="167.93,-18.76 157.34,-18.88 165.69,-25.39 167.93,-18.76"/>
</a>
</g>
</g>
<!-- Node9&#45;&gt;Node8 -->
<g id="edge19_Node000009_Node000008" class="edge">
<title>Node9&#45;&gt;Node8</title>
<g id="a_edge19_Node000009_Node000008"><a xlink:title=" ">
<path fill="none" stroke="#63b8ff" d="M276.76,-55.59C261.66,-47.36 239.47,-35.26 222.02,-25.74"/>
<polygon fill="#63b8ff" stroke="#63b8ff" points="224.16,-22.92 213.71,-21.2 220.81,-29.07 224.16,-22.92"/>
</a>
</g>
</g>
<!-- Node10 -->
<g id="Node000010" class="node">
<title>Node10</title>
<g id="a_Node000010"><a xlink:title=" ">
<polygon fill="#e0e0e0" stroke="#999999" points="783.88,-20 728.12,-20 728.12,0 783.88,0 783.88,-20"/>
<text text-anchor="middle" x="756" y="-6.5" font-family="Helvetica,sans-Serif" font-size="10.00">algorithm</text>
</a>
</g>
</g>
<!-- Node9&#45;&gt;Node10 -->
<g id="edge9_Node000009_Node000010" class="edge">
<title>Node9&#45;&gt;Node10</title>
<g id="a_edge9_Node000009_Node000010"><a xlink:title=" ">
<path fill="none" stroke="#63b8ff" d="M317.65,-57.83C320.45,-57.13 323.28,-56.5 326,-56 494.86,-24.79 543.93,-47.79 716.53,-20.16"/>
<polygon fill="#63b8ff" stroke="#63b8ff" points="717.01,-23.63 726.31,-18.56 715.88,-16.72 717.01,-23.63"/>
</a>
</g>
</g>
<!-- Node11 -->
<g id="Node000011" class="node">
<title>Node11</title>
<g id="a_Node000011"><a xlink:title=" ">
<polygon fill="#e0e0e0" stroke="#999999" points="285.62,-20 234.38,-20 234.38,0 285.62,0 285.62,-20"/>
<text text-anchor="middle" x="260" y="-6.5" font-family="Helvetica,sans-Serif" font-size="10.00">memory</text>
</a>
</g>
</g>
<!-- Node9&#45;&gt;Node11 -->
<g id="edge11_Node000009_Node000011" class="edge">
<title>Node9&#45;&gt;Node11</title>
<g id="a_edge11_Node000009_Node000011"><a xlink:title=" ">
<path fill="none" stroke="#63b8ff" d="M288.08,-55.59C283.64,-48.55 277.42,-38.67 271.96,-30"/>
<polygon fill="#63b8ff" stroke="#63b8ff" points="274.95,-28.18 266.66,-21.58 269.03,-31.91 274.95,-28.18"/>
</a>
</g>
</g>
<!-- Node12 -->
<g id="Node000012" class="node">
<title>Node12</title>
<g id="a_Node000012"><a xlink:title=" ">
<polygon fill="#e0e0e0" stroke="#999999" points="353.88,-20 304.12,-20 304.12,0 353.88,0 353.88,-20"/>
<text text-anchor="middle" x="329" y="-6.5" font-family="Helvetica,sans-Serif" font-size="10.00">optional</text>
</a>
</g>
</g>
<!-- Node9&#45;&gt;Node12 -->
<g id="edge13_Node000009_Node000012" class="edge">
<title>Node9&#45;&gt;Node12</title>
<g id="a_edge13_Node000009_Node000012"><a xlink:title=" ">
<path fill="none" stroke="#63b8ff" d="M300.1,-55.59C304.71,-48.47 311.21,-38.45 316.87,-29.72"/>
<polygon fill="#63b8ff" stroke="#63b8ff" points="319.65,-31.86 322.15,-21.57 313.77,-28.06 319.65,-31.86"/>
</a>
</g>
</g>
<!-- Node13 -->
<g id="Node000013" class="node">
<title>Node13</title>
<g id="a_Node000013"><a xlink:title=" ">
<polygon fill="#e0e0e0" stroke="#999999" points="423.62,-20 372.38,-20 372.38,0 423.62,0 423.62,-20"/>
<text text-anchor="middle" x="398" y="-6.5" font-family="Helvetica,sans-Serif" font-size="10.00">ostream</text>
</a>
</g>
</g>
<!-- Node9&#45;&gt;Node13 -->
<g id="edge14_Node000009_Node000013" class="edge">
<title>Node9&#45;&gt;Node13</title>
<g id="a_edge14_Node000009_Node000013"><a xlink:title=" ">
<path fill="none" stroke="#63b8ff" d="M312.12,-55.59C327.97,-47.36 351.28,-35.26 369.62,-25.74"/>
<polygon fill="#63b8ff" stroke="#63b8ff" points="371.14,-28.89 378.4,-21.18 367.91,-22.68 371.14,-28.89"/>
</a>
</g>
</g>
<!-- Node14 -->
<g id="Node000014" class="node">
<title>Node14</title>
<g id="a_Node000014"><a xlink:title=" ">
<polygon fill="#e0e0e0" stroke="#999999" points="482,-20 442,-20 442,0 482,0 482,-20"/>
<text text-anchor="middle" x="462" y="-6.5" font-family="Helvetica,sans-Serif" font-size="10.00">string</text>
</a>
</g>
</g>
<!-- Node9&#45;&gt;Node14 -->
<g id="edge15_Node000009_Node000014" class="edge">
<title>Node9&#45;&gt;Node14</title>
<g id="a_edge15_Node000009_Node000014"><a xlink:title=" ">
<path fill="none" stroke="#63b8ff" d="M317.71,-57.38C347.33,-47.86 398.07,-31.55 430.8,-21.03"/>
<polygon fill="#63b8ff" stroke="#63b8ff" points="431.68,-24.42 440.13,-18.03 429.54,-17.76 431.68,-24.42"/>
</a>
</g>
</g>
<!-- Node15 -->
<g id="Node000015" class="node">
<title>Node15</title>
<g id="a_Node000015"><a xlink:title=" ">
<polygon fill="#e0e0e0" stroke="#999999" points="565.75,-20 500.25,-20 500.25,0 565.75,0 565.75,-20"/>
<text text-anchor="middle" x="533" y="-6.5" font-family="Helvetica,sans-Serif" font-size="10.00">string_view</text>
</a>
</g>
</g>
<!-- Node9&#45;&gt;Node15 -->
<g id="edge16_Node000009_Node000015" class="edge">
<title>Node9&#45;&gt;Node15</title>
<g id="a_edge16_Node000009_Node000015"><a xlink:title=" ">
<path fill="none" stroke="#63b8ff" d="M317.72,-58.16C320.51,-57.4 323.31,-56.67 326,-56 333.92,-54.03 430.54,-33.12 488.93,-20.51"/>
<polygon fill="#63b8ff" stroke="#63b8ff" points="489.55,-23.96 498.58,-18.43 488.07,-17.11 489.55,-23.96"/>
</a>
</g>
</g>
<!-- Node16 -->
<g id="Node000016" class="node">
<title>Node16</title>
<g id="a_Node000016"><a xlink:title=" ">
<polygon fill="#e0e0e0" stroke="#999999" points="645.88,-20 584.12,-20 584.12,0 645.88,0 645.88,-20"/>
<text text-anchor="middle" x="615" y="-6.5" font-family="Helvetica,sans-Serif" font-size="10.00">type_traits</text>
</a>
</g>
</g>
<!-- Node9&#45;&gt;Node16 -->
<g id="edge17_Node000009_Node000016" class="edge">
<title>Node9&#45;&gt;Node16</title>
<g id="a_edge17_Node000009_Node000016"><a xlink:title=" ">
<path fill="none" stroke="#63b8ff" d="M317.68,-57.97C320.47,-57.25 323.29,-56.57 326,-56 431.86,-33.56 463.04,-39.84 572.81,-20.26"/>
<polygon fill="#63b8ff" stroke="#63b8ff" points="573.34,-23.72 582.55,-18.49 572.09,-16.83 573.34,-23.72"/>
</a>
</g>
</g>
<!-- Node17 -->
<g id="Node000017" class="node">
<title>Node17</title>
<g id="a_Node000017"><a xlink:title=" ">
<polygon fill="#e0e0e0" stroke="#999999" points="709.62,-20 664.38,-20 664.38,0 709.62,0 709.62,-20"/>
<text text-anchor="middle" x="687" y="-6.5" font-family="Helvetica,sans-Serif" font-size="10.00">variant</text>
</a>
</g>
</g>
<!-- Node9&#45;&gt;Node17 -->
<g id="edge18_Node000009_Node000017" class="edge">
<title>Node9&#45;&gt;Node17</title>
<g id="a_edge18_Node000009_Node000017"><a xlink:title=" ">
<path fill="none" stroke="#63b8ff" d="M317.66,-57.88C320.46,-57.17 323.28,-56.53 326,-56 466.88,-28.68 508.57,-47.06 653,-20.06"/>
<polygon fill="#63b8ff" stroke="#63b8ff" points="653.39,-23.55 662.55,-18.23 652.07,-16.68 653.39,-23.55"/>
</a>
</g>
</g>
</g>
</svg>
