<?xml version="1.0" encoding="UTF-8" standalone="no"?>
<!DOCTYPE svg PUBLIC "-//W3C//DTD SVG 1.1//EN"
 "http://www.w3.org/Graphics/SVG/1.1/DTD/svg11.dtd">
<!-- Generated by graphviz version 12.2.1 (0)
 -->
<!-- Title: src/platform/windows/nvprefs/undo_data.h Pages: 1 -->
<svg width="592pt" height="188pt"
 viewBox="0.00 0.00 592.38 188.00" xmlns="http://www.w3.org/2000/svg" xmlns:xlink="http://www.w3.org/1999/xlink">
<g id="graph0" class="graph" transform="scale(1 1) rotate(0) translate(4 184)">
<title>src/platform/windows/nvprefs/undo_data.h</title>
<!-- Node1 -->
<g id="Node000001" class="node">
<title>Node1</title>
<g id="a_Node000001"><a xlink:title="Declarations for undoing changes to nvidia preferences.">
<polygon fill="#999999" stroke="#666666" points="415.88,-180 306.88,-180 306.88,-148 415.88,-148 415.88,-180"/>
<text text-anchor="start" x="314.88" y="-166.5" font-family="Helvetica,sans-Serif" font-size="10.00">src/platform/windows</text>
<text text-anchor="middle" x="361.38" y="-154.5" font-family="Helvetica,sans-Serif" font-size="10.00">/nvprefs/undo_data.h</text>
</a>
</g>
</g>
<!-- Node2 -->
<g id="Node000002" class="node">
<title>Node2</title>
<g id="a_Node000002"><a xlink:href="driver__settings_8h.html" target="_top" xlink:title="Declarations for nvidia driver settings.">
<polygon fill="white" stroke="#666666" points="284.5,-112 158.25,-112 158.25,-80 284.5,-80 284.5,-112"/>
<text text-anchor="start" x="166.25" y="-98.5" font-family="Helvetica,sans-Serif" font-size="10.00">src/platform/windows</text>
<text text-anchor="middle" x="221.38" y="-86.5" font-family="Helvetica,sans-Serif" font-size="10.00">/nvprefs/driver_settings.h</text>
</a>
</g>
</g>
<!-- Node1&#45;&gt;Node2 -->
<g id="edge1_Node000001_Node000002" class="edge">
<title>Node1&#45;&gt;Node2</title>
<g id="a_edge1_Node000001_Node000002"><a xlink:title=" ">
<path fill="none" stroke="#63b8ff" d="M318.4,-142.74C297.66,-132.96 273.18,-121.42 253.99,-112.38"/>
<polygon fill="#63b8ff" stroke="#63b8ff" points="316.64,-145.78 327.18,-146.88 319.63,-139.45 316.64,-145.78"/>
</a>
</g>
</g>
<!-- Node6 -->
<g id="Node000006" class="node">
<title>Node6</title>
<g id="a_Node000006"><a xlink:href="undo__data_8cpp.html" target="_top" xlink:title="Definitions for undoing changes to nvidia preferences.">
<polygon fill="white" stroke="#666666" points="420.38,-112 302.38,-112 302.38,-80 420.38,-80 420.38,-112"/>
<text text-anchor="start" x="310.38" y="-98.5" font-family="Helvetica,sans-Serif" font-size="10.00">src/platform/windows</text>
<text text-anchor="middle" x="361.38" y="-86.5" font-family="Helvetica,sans-Serif" font-size="10.00">/nvprefs/undo_data.cpp</text>
</a>
</g>
</g>
<!-- Node1&#45;&gt;Node6 -->
<g id="edge5_Node000001_Node000006" class="edge">
<title>Node1&#45;&gt;Node6</title>
<g id="a_edge5_Node000001_Node000006"><a xlink:title=" ">
<path fill="none" stroke="#63b8ff" d="M361.38,-136.31C361.38,-128.12 361.38,-119.38 361.38,-112.22"/>
<polygon fill="#63b8ff" stroke="#63b8ff" points="357.88,-136.18 361.38,-146.18 364.88,-136.18 357.88,-136.18"/>
</a>
</g>
</g>
<!-- Node7 -->
<g id="Node000007" class="node">
<title>Node7</title>
<g id="a_Node000007"><a xlink:href="undo__file_8h.html" target="_top" xlink:title="Declarations for the nvidia undo file.">
<polygon fill="white" stroke="#666666" points="547.88,-112 438.88,-112 438.88,-80 547.88,-80 547.88,-112"/>
<text text-anchor="start" x="446.88" y="-98.5" font-family="Helvetica,sans-Serif" font-size="10.00">src/platform/windows</text>
<text text-anchor="middle" x="493.38" y="-86.5" font-family="Helvetica,sans-Serif" font-size="10.00">/nvprefs/undo_file.h</text>
</a>
</g>
</g>
<!-- Node1&#45;&gt;Node7 -->
<g id="edge6_Node000001_Node000007" class="edge">
<title>Node1&#45;&gt;Node7</title>
<g id="a_edge6_Node000001_Node000007"><a xlink:title=" ">
<path fill="none" stroke="#63b8ff" d="M402.43,-142.47C421.87,-132.75 444.7,-121.34 462.62,-112.38"/>
<polygon fill="#63b8ff" stroke="#63b8ff" points="401.06,-139.25 393.68,-146.85 404.19,-145.51 401.06,-139.25"/>
</a>
</g>
</g>
<!-- Node3 -->
<g id="Node000003" class="node">
<title>Node3</title>
<g id="a_Node000003"><a xlink:href="driver__settings_8cpp.html" target="_top" xlink:title="Definitions for nvidia driver settings.">
<polygon fill="white" stroke="#666666" points="136.75,-38 0,-38 0,-6 136.75,-6 136.75,-38"/>
<text text-anchor="start" x="8" y="-24.5" font-family="Helvetica,sans-Serif" font-size="10.00">src/platform/windows</text>
<text text-anchor="middle" x="68.38" y="-12.5" font-family="Helvetica,sans-Serif" font-size="10.00">/nvprefs/driver_settings.cpp</text>
</a>
</g>
</g>
<!-- Node2&#45;&gt;Node3 -->
<g id="edge2_Node000002_Node000003" class="edge">
<title>Node2&#45;&gt;Node3</title>
<g id="a_edge2_Node000002_Node000003"><a xlink:title=" ">
<path fill="none" stroke="#63b8ff" d="M178.44,-74.8C153.95,-63.27 123.72,-49.04 101.14,-38.42"/>
<polygon fill="#63b8ff" stroke="#63b8ff" points="176.64,-77.82 187.18,-78.91 179.63,-71.48 176.64,-77.82"/>
</a>
</g>
</g>
<!-- Node4 -->
<g id="Node000004" class="node">
<title>Node4</title>
<g id="a_Node000004"><a xlink:href="nvapi__opensource__wrapper_8cpp.html" target="_top" xlink:title="Definitions for the NVAPI wrapper.">
<polygon fill="white" stroke="#666666" points="287.88,-44 154.88,-44 154.88,0 287.88,0 287.88,-44"/>
<text text-anchor="start" x="162.88" y="-30.5" font-family="Helvetica,sans-Serif" font-size="10.00">src/platform/windows</text>
<text text-anchor="start" x="162.88" y="-18.5" font-family="Helvetica,sans-Serif" font-size="10.00">/nvprefs/nvapi_opensource</text>
<text text-anchor="middle" x="221.38" y="-6.5" font-family="Helvetica,sans-Serif" font-size="10.00">_wrapper.cpp</text>
</a>
</g>
</g>
<!-- Node2&#45;&gt;Node4 -->
<g id="edge3_Node000002_Node000004" class="edge">
<title>Node2&#45;&gt;Node4</title>
<g id="a_edge3_Node000002_Node000004"><a xlink:title=" ">
<path fill="none" stroke="#63b8ff" d="M221.38,-68.38C221.38,-60.43 221.38,-51.82 221.38,-44.26"/>
<polygon fill="#63b8ff" stroke="#63b8ff" points="217.88,-68.22 221.38,-78.22 224.88,-68.22 217.88,-68.22"/>
</a>
</g>
</g>
<!-- Node5 -->
<g id="Node000005" class="node">
<title>Node5</title>
<g id="a_Node000005"><a xlink:href="nvprefs__interface_8cpp.html" target="_top" xlink:title="Definitions for nvidia preferences interface.">
<polygon fill="white" stroke="#666666" points="454.38,-38 306.38,-38 306.38,-6 454.38,-6 454.38,-38"/>
<text text-anchor="start" x="314.38" y="-24.5" font-family="Helvetica,sans-Serif" font-size="10.00">src/platform/windows</text>
<text text-anchor="middle" x="380.38" y="-12.5" font-family="Helvetica,sans-Serif" font-size="10.00">/nvprefs/nvprefs_interface.cpp</text>
</a>
</g>
</g>
<!-- Node2&#45;&gt;Node5 -->
<g id="edge4_Node000002_Node000005" class="edge">
<title>Node2&#45;&gt;Node5</title>
<g id="a_edge4_Node000002_Node000005"><a xlink:title=" ">
<path fill="none" stroke="#63b8ff" d="M265.65,-74.95C291.17,-63.4 322.76,-49.09 346.32,-38.42"/>
<polygon fill="#63b8ff" stroke="#63b8ff" points="264.53,-71.62 256.86,-78.93 267.42,-77.99 264.53,-71.62"/>
</a>
</g>
</g>
<!-- Node7&#45;&gt;Node5 -->
<g id="edge7_Node000007_Node000005" class="edge">
<title>Node7&#45;&gt;Node5</title>
<g id="a_edge7_Node000007_Node000005"><a xlink:title=" ">
<path fill="none" stroke="#63b8ff" d="M459.71,-73.55C441.99,-62.26 420.65,-48.66 404.58,-38.42"/>
<polygon fill="#63b8ff" stroke="#63b8ff" points="457.54,-76.32 467.86,-78.74 461.3,-70.42 457.54,-76.32"/>
</a>
</g>
</g>
<!-- Node8 -->
<g id="Node000008" class="node">
<title>Node8</title>
<g id="a_Node000008"><a xlink:href="undo__file_8cpp.html" target="_top" xlink:title="Definitions for the nvidia undo file.">
<polygon fill="white" stroke="#666666" points="584.38,-38 472.38,-38 472.38,-6 584.38,-6 584.38,-38"/>
<text text-anchor="start" x="480.38" y="-24.5" font-family="Helvetica,sans-Serif" font-size="10.00">src/platform/windows</text>
<text text-anchor="middle" x="528.38" y="-12.5" font-family="Helvetica,sans-Serif" font-size="10.00">/nvprefs/undo_file.cpp</text>
</a>
</g>
</g>
<!-- Node7&#45;&gt;Node8 -->
<g id="edge8_Node000007_Node000008" class="edge">
<title>Node7&#45;&gt;Node8</title>
<g id="a_edge8_Node000007_Node000008"><a xlink:title=" ">
<path fill="none" stroke="#63b8ff" d="M505.78,-69.48C510.85,-59.04 516.56,-47.31 520.96,-38.25"/>
<polygon fill="#63b8ff" stroke="#63b8ff" points="502.68,-67.85 501.46,-78.37 508.98,-70.91 502.68,-67.85"/>
</a>
</g>
</g>
</g>
</svg>
