<?xml version="1.0" encoding="UTF-8" standalone="no"?>
<!DOCTYPE svg PUBLIC "-//W3C//DTD SVG 1.1//EN"
 "http://www.w3.org/Graphics/SVG/1.1/DTD/svg11.dtd">
<!-- Generated by graphviz version 12.2.1 (0)
 -->
<!-- Title: src/platform/windows/nvprefs/undo_file.cpp Pages: 1 -->
<svg width="853pt" height="264pt"
 viewBox="0.00 0.00 853.25 264.00" xmlns="http://www.w3.org/2000/svg" xmlns:xlink="http://www.w3.org/1999/xlink">
<g id="graph0" class="graph" transform="scale(1 1) rotate(0) translate(4 260)">
<title>src/platform/windows/nvprefs/undo_file.cpp</title>
<!-- Node1 -->
<g id="Node000001" class="node">
<title>Node1</title>
<g id="a_Node000001"><a xlink:title="Definitions for the nvidia undo file.">
<polygon fill="#999999" stroke="#666666" points="480.62,-256 368.62,-256 368.62,-224 480.62,-224 480.62,-256"/>
<text text-anchor="start" x="376.62" y="-242.5" font-family="Helvetica,sans-Serif" font-size="10.00">src/platform/windows</text>
<text text-anchor="middle" x="424.62" y="-230.5" font-family="Helvetica,sans-Serif" font-size="10.00">/nvprefs/undo_file.cpp</text>
</a>
</g>
</g>
<!-- Node2 -->
<g id="Node000002" class="node">
<title>Node2</title>
<g id="a_Node000002"><a xlink:href="undo__file_8h.html" target="_top" xlink:title="Declarations for the nvidia undo file.">
<polygon fill="white" stroke="#666666" points="456.25,-188 393,-188 393,-168 456.25,-168 456.25,-188"/>
<text text-anchor="middle" x="424.62" y="-174.5" font-family="Helvetica,sans-Serif" font-size="10.00">undo_file.h</text>
</a>
</g>
</g>
<!-- Node1&#45;&gt;Node2 -->
<g id="edge1_Node000001_Node000002" class="edge">
<title>Node1&#45;&gt;Node2</title>
<g id="a_edge1_Node000001_Node000002"><a xlink:title=" ">
<path fill="none" stroke="#63b8ff" d="M424.62,-223.55C424.62,-216.34 424.62,-207.66 424.62,-199.88"/>
<polygon fill="#63b8ff" stroke="#63b8ff" points="428.13,-199.92 424.63,-189.92 421.13,-199.92 428.13,-199.92"/>
</a>
</g>
</g>
<!-- Node3 -->
<g id="Node000003" class="node">
<title>Node3</title>
<g id="a_Node000003"><a xlink:title=" ">
<polygon fill="#e0e0e0" stroke="#999999" points="357.12,-132 296.12,-132 296.12,-112 357.12,-112 357.12,-132"/>
<text text-anchor="middle" x="326.62" y="-118.5" font-family="Helvetica,sans-Serif" font-size="10.00">filesystem</text>
</a>
</g>
</g>
<!-- Node2&#45;&gt;Node3 -->
<g id="edge2_Node000002_Node000003" class="edge">
<title>Node2&#45;&gt;Node3</title>
<g id="a_edge2_Node000002_Node000003"><a xlink:title=" ">
<path fill="none" stroke="#63b8ff" d="M407.55,-167.59C392.75,-159.44 371.06,-147.48 353.86,-138"/>
<polygon fill="#63b8ff" stroke="#63b8ff" points="355.6,-134.97 345.15,-133.21 352.22,-141.1 355.6,-134.97"/>
</a>
</g>
</g>
<!-- Node4 -->
<g id="Node000004" class="node">
<title>Node4</title>
<g id="a_Node000004"><a xlink:href="nvprefs__common_8h.html" target="_top" xlink:title="Declarations for common nvidia preferences.">
<polygon fill="white" stroke="#666666" points="474.25,-132 375,-132 375,-112 474.25,-112 474.25,-132"/>
<text text-anchor="middle" x="424.62" y="-118.5" font-family="Helvetica,sans-Serif" font-size="10.00">nvprefs_common.h</text>
</a>
</g>
</g>
<!-- Node2&#45;&gt;Node4 -->
<g id="edge3_Node000002_Node000004" class="edge">
<title>Node2&#45;&gt;Node4</title>
<g id="a_edge3_Node000002_Node000004"><a xlink:title=" ">
<path fill="none" stroke="#63b8ff" d="M424.62,-167.59C424.62,-161.01 424.62,-151.96 424.62,-143.73"/>
<polygon fill="#63b8ff" stroke="#63b8ff" points="428.13,-143.81 424.63,-133.81 421.13,-143.81 428.13,-143.81"/>
</a>
</g>
</g>
<!-- Node19 -->
<g id="Node000019" class="node">
<title>Node19</title>
<g id="a_Node000019"><a xlink:href="undo__data_8h.html" target="_top" xlink:title="Declarations for undoing changes to nvidia preferences.">
<polygon fill="white" stroke="#666666" points="735.25,-76 666,-76 666,-56 735.25,-56 735.25,-76"/>
<text text-anchor="middle" x="700.62" y="-62.5" font-family="Helvetica,sans-Serif" font-size="10.00">undo_data.h</text>
</a>
</g>
</g>
<!-- Node2&#45;&gt;Node19 -->
<g id="edge18_Node000002_Node000019" class="edge">
<title>Node2&#45;&gt;Node19</title>
<g id="a_edge18_Node000002_Node000019"><a xlink:title=" ">
<path fill="none" stroke="#63b8ff" d="M448.16,-167.62C497.04,-148.14 609.75,-103.22 666.57,-80.57"/>
<polygon fill="#63b8ff" stroke="#63b8ff" points="667.75,-83.87 675.75,-76.92 665.16,-77.37 667.75,-83.87"/>
</a>
</g>
</g>
<!-- Node5 -->
<g id="Node000005" class="node">
<title>Node5</title>
<g id="a_Node000005"><a xlink:title=" ">
<polygon fill="#e0e0e0" stroke="#999999" points="344.88,-76 282.38,-76 282.38,-56 344.88,-56 344.88,-76"/>
<text text-anchor="middle" x="313.62" y="-62.5" font-family="Helvetica,sans-Serif" font-size="10.00">windows.h</text>
</a>
</g>
</g>
<!-- Node4&#45;&gt;Node5 -->
<g id="edge4_Node000004_Node000005" class="edge">
<title>Node4&#45;&gt;Node5</title>
<g id="a_edge4_Node000004_Node000005"><a xlink:title=" ">
<path fill="none" stroke="#63b8ff" d="M405.29,-111.59C388.21,-103.28 363.02,-91.03 343.37,-81.47"/>
<polygon fill="#63b8ff" stroke="#63b8ff" points="345,-78.37 334.47,-77.14 341.93,-84.66 345,-78.37"/>
</a>
</g>
</g>
<!-- Node6 -->
<g id="Node000006" class="node">
<title>Node6</title>
<g id="a_Node000006"><a xlink:title=" ">
<polygon fill="#e0e0e0" stroke="#999999" points="412.5,-76 362.75,-76 362.75,-56 412.5,-56 412.5,-76"/>
<text text-anchor="middle" x="387.62" y="-62.5" font-family="Helvetica,sans-Serif" font-size="10.00">aclapi.h</text>
</a>
</g>
</g>
<!-- Node4&#45;&gt;Node6 -->
<g id="edge5_Node000004_Node000006" class="edge">
<title>Node4&#45;&gt;Node6</title>
<g id="a_edge5_Node000004_Node000006"><a xlink:title=" ">
<path fill="none" stroke="#63b8ff" d="M418.18,-111.59C413.3,-104.47 406.43,-94.45 400.45,-85.72"/>
<polygon fill="#63b8ff" stroke="#63b8ff" points="403.39,-83.82 394.85,-77.55 397.62,-87.77 403.39,-83.82"/>
</a>
</g>
</g>
<!-- Node7 -->
<g id="Node000007" class="node">
<title>Node7</title>
<g id="a_Node000007"><a xlink:href="utility_8h.html" target="_top" xlink:title="Declarations for utility functions.">
<polygon fill="white" stroke="#666666" points="494.25,-76 431,-76 431,-56 494.25,-56 494.25,-76"/>
<text text-anchor="middle" x="462.62" y="-62.5" font-family="Helvetica,sans-Serif" font-size="10.00">src/utility.h</text>
</a>
</g>
</g>
<!-- Node4&#45;&gt;Node7 -->
<g id="edge6_Node000004_Node000007" class="edge">
<title>Node4&#45;&gt;Node7</title>
<g id="a_edge6_Node000004_Node000007"><a xlink:title=" ">
<path fill="none" stroke="#63b8ff" d="M431.24,-111.59C436.31,-104.39 443.46,-94.23 449.65,-85.43"/>
<polygon fill="#63b8ff" stroke="#63b8ff" points="452.32,-87.73 455.21,-77.54 446.59,-83.7 452.32,-87.73"/>
</a>
</g>
</g>
<!-- Node8 -->
<g id="Node000008" class="node">
<title>Node8</title>
<g id="a_Node000008"><a xlink:title=" ">
<polygon fill="#e0e0e0" stroke="#999999" points="352.5,-20 296.75,-20 296.75,0 352.5,0 352.5,-20"/>
<text text-anchor="middle" x="324.62" y="-6.5" font-family="Helvetica,sans-Serif" font-size="10.00">algorithm</text>
</a>
</g>
</g>
<!-- Node7&#45;&gt;Node8 -->
<g id="edge7_Node000007_Node000008" class="edge">
<title>Node7&#45;&gt;Node8</title>
<g id="a_edge7_Node000007_Node000008"><a xlink:title=" ">
<path fill="none" stroke="#63b8ff" d="M438.59,-55.59C416.66,-47.01 384,-34.23 359.25,-24.55"/>
<polygon fill="#63b8ff" stroke="#63b8ff" points="360.85,-21.42 350.26,-21.03 358.3,-27.93 360.85,-21.42"/>
</a>
</g>
</g>
<!-- Node9 -->
<g id="Node000009" class="node">
<title>Node9</title>
<g id="a_Node000009"><a xlink:title=" ">
<polygon fill="#e0e0e0" stroke="#999999" points="464.62,-20 370.62,-20 370.62,0 464.62,0 464.62,-20"/>
<text text-anchor="middle" x="417.62" y="-6.5" font-family="Helvetica,sans-Serif" font-size="10.00">condition_variable</text>
</a>
</g>
</g>
<!-- Node7&#45;&gt;Node9 -->
<g id="edge8_Node000007_Node000009" class="edge">
<title>Node7&#45;&gt;Node9</title>
<g id="a_edge8_Node000007_Node000009"><a xlink:title=" ">
<path fill="none" stroke="#63b8ff" d="M454.79,-55.59C448.66,-48.24 439.95,-37.8 432.51,-28.87"/>
<polygon fill="#63b8ff" stroke="#63b8ff" points="435.43,-26.9 426.34,-21.46 430.06,-31.38 435.43,-26.9"/>
</a>
</g>
</g>
<!-- Node10 -->
<g id="Node000010" class="node">
<title>Node10</title>
<g id="a_Node000010"><a xlink:title=" ">
<polygon fill="#e0e0e0" stroke="#999999" points="534.25,-20 483,-20 483,0 534.25,0 534.25,-20"/>
<text text-anchor="middle" x="508.62" y="-6.5" font-family="Helvetica,sans-Serif" font-size="10.00">memory</text>
</a>
</g>
</g>
<!-- Node7&#45;&gt;Node10 -->
<g id="edge9_Node000007_Node000010" class="edge">
<title>Node7&#45;&gt;Node10</title>
<g id="a_edge9_Node000007_Node000010"><a xlink:title=" ">
<path fill="none" stroke="#63b8ff" d="M470.64,-55.59C476.9,-48.24 485.8,-37.8 493.41,-28.87"/>
<polygon fill="#63b8ff" stroke="#63b8ff" points="495.9,-31.33 499.72,-21.45 490.57,-26.79 495.9,-31.33"/>
</a>
</g>
</g>
<!-- Node11 -->
<g id="Node000011" class="node">
<title>Node11</title>
<g id="a_Node000011"><a xlink:title=" ">
<polygon fill="#e0e0e0" stroke="#999999" points="595.12,-20 552.12,-20 552.12,0 595.12,0 595.12,-20"/>
<text text-anchor="middle" x="573.62" y="-6.5" font-family="Helvetica,sans-Serif" font-size="10.00">mutex</text>
</a>
</g>
</g>
<!-- Node7&#45;&gt;Node11 -->
<g id="edge10_Node000007_Node000011" class="edge">
<title>Node7&#45;&gt;Node11</title>
<g id="a_edge10_Node000007_Node000011"><a xlink:title=" ">
<path fill="none" stroke="#63b8ff" d="M481.96,-55.59C499.04,-47.28 524.23,-35.03 543.88,-25.47"/>
<polygon fill="#63b8ff" stroke="#63b8ff" points="545.32,-28.66 552.78,-21.14 542.25,-22.37 545.32,-28.66"/>
</a>
</g>
</g>
<!-- Node12 -->
<g id="Node000012" class="node">
<title>Node12</title>
<g id="a_Node000012"><a xlink:title=" ">
<polygon fill="#e0e0e0" stroke="#999999" points="662.5,-20 612.75,-20 612.75,0 662.5,0 662.5,-20"/>
<text text-anchor="middle" x="637.62" y="-6.5" font-family="Helvetica,sans-Serif" font-size="10.00">optional</text>
</a>
</g>
</g>
<!-- Node7&#45;&gt;Node12 -->
<g id="edge11_Node000007_Node000012" class="edge">
<title>Node7&#45;&gt;Node12</title>
<g id="a_edge11_Node000007_Node000012"><a xlink:title=" ">
<path fill="none" stroke="#63b8ff" d="M493.11,-55.59C523.33,-46.27 569.62,-31.98 601.64,-22.11"/>
<polygon fill="#63b8ff" stroke="#63b8ff" points="602.34,-25.55 610.87,-19.26 600.28,-18.86 602.34,-25.55"/>
</a>
</g>
</g>
<!-- Node13 -->
<g id="Node000013" class="node">
<title>Node13</title>
<g id="a_Node000013"><a xlink:title=" ">
<polygon fill="#e0e0e0" stroke="#999999" points="51.25,-20 0,-20 0,0 51.25,0 51.25,-20"/>
<text text-anchor="middle" x="25.62" y="-6.5" font-family="Helvetica,sans-Serif" font-size="10.00">ostream</text>
</a>
</g>
</g>
<!-- Node7&#45;&gt;Node13 -->
<g id="edge12_Node000007_Node000013" class="edge">
<title>Node7&#45;&gt;Node13</title>
<g id="a_edge12_Node000007_Node000013"><a xlink:title=" ">
<path fill="none" stroke="#63b8ff" d="M430.91,-57.65C427.78,-57.05 424.65,-56.48 421.62,-56 265.53,-31.19 220.73,-47.98 62.6,-20.29"/>
<polygon fill="#63b8ff" stroke="#63b8ff" points="63.47,-16.89 53.01,-18.58 62.24,-23.78 63.47,-16.89"/>
</a>
</g>
</g>
<!-- Node14 -->
<g id="Node000014" class="node">
<title>Node14</title>
<g id="a_Node000014"><a xlink:title=" ">
<polygon fill="#e0e0e0" stroke="#999999" points="720.62,-20 680.62,-20 680.62,0 720.62,0 720.62,-20"/>
<text text-anchor="middle" x="700.62" y="-6.5" font-family="Helvetica,sans-Serif" font-size="10.00">string</text>
</a>
</g>
</g>
<!-- Node7&#45;&gt;Node14 -->
<g id="edge13_Node000007_Node000014" class="edge">
<title>Node7&#45;&gt;Node14</title>
<g id="a_edge13_Node000007_Node000014"><a xlink:title=" ">
<path fill="none" stroke="#63b8ff" d="M494.7,-59.01C533.81,-51.51 602.12,-37.78 669.59,-20.35"/>
<polygon fill="#63b8ff" stroke="#63b8ff" points="670.16,-23.82 678.95,-17.91 668.39,-17.05 670.16,-23.82"/>
</a>
</g>
</g>
<!-- Node15 -->
<g id="Node000015" class="node">
<title>Node15</title>
<g id="a_Node000015"><a xlink:title=" ">
<polygon fill="#e0e0e0" stroke="#999999" points="134.38,-20 68.88,-20 68.88,0 134.38,0 134.38,-20"/>
<text text-anchor="middle" x="101.62" y="-6.5" font-family="Helvetica,sans-Serif" font-size="10.00">string_view</text>
</a>
</g>
</g>
<!-- Node7&#45;&gt;Node15 -->
<g id="edge14_Node000007_Node000015" class="edge">
<title>Node7&#45;&gt;Node15</title>
<g id="a_edge14_Node000007_Node000015"><a xlink:title=" ">
<path fill="none" stroke="#63b8ff" d="M430.89,-57.75C427.77,-57.12 424.64,-56.53 421.62,-56 302.48,-35.25 268.4,-40.72 145.93,-20.26"/>
<polygon fill="#63b8ff" stroke="#63b8ff" points="146.53,-16.81 136.08,-18.59 145.36,-23.71 146.53,-16.81"/>
</a>
</g>
</g>
<!-- Node16 -->
<g id="Node000016" class="node">
<title>Node16</title>
<g id="a_Node000016"><a xlink:title=" ">
<polygon fill="#e0e0e0" stroke="#999999" points="214.5,-20 152.75,-20 152.75,0 214.5,0 214.5,-20"/>
<text text-anchor="middle" x="183.62" y="-6.5" font-family="Helvetica,sans-Serif" font-size="10.00">type_traits</text>
</a>
</g>
</g>
<!-- Node7&#45;&gt;Node16 -->
<g id="edge15_Node000007_Node000016" class="edge">
<title>Node7&#45;&gt;Node16</title>
<g id="a_edge15_Node000007_Node000016"><a xlink:title=" ">
<path fill="none" stroke="#63b8ff" d="M430.86,-57.91C427.75,-57.25 424.63,-56.6 421.62,-56 337.44,-39.11 313.19,-37.9 225.87,-20.38"/>
<polygon fill="#63b8ff" stroke="#63b8ff" points="226.59,-16.96 216.09,-18.4 225.2,-23.82 226.59,-16.96"/>
</a>
</g>
</g>
<!-- Node17 -->
<g id="Node000017" class="node">
<title>Node17</title>
<g id="a_Node000017"><a xlink:title=" ">
<polygon fill="#e0e0e0" stroke="#999999" points="278.25,-20 233,-20 233,0 278.25,0 278.25,-20"/>
<text text-anchor="middle" x="255.62" y="-6.5" font-family="Helvetica,sans-Serif" font-size="10.00">variant</text>
</a>
</g>
</g>
<!-- Node7&#45;&gt;Node17 -->
<g id="edge16_Node000007_Node000017" class="edge">
<title>Node7&#45;&gt;Node17</title>
<g id="a_edge16_Node000007_Node000017"><a xlink:title=" ">
<path fill="none" stroke="#63b8ff" d="M430.63,-57C397.7,-48.72 344.62,-35.23 289.69,-20.51"/>
<polygon fill="#63b8ff" stroke="#63b8ff" points="290.71,-17.16 280.14,-17.94 288.89,-23.92 290.71,-17.16"/>
</a>
</g>
</g>
<!-- Node18 -->
<g id="Node000018" class="node">
<title>Node18</title>
<g id="a_Node000018"><a xlink:title=" ">
<polygon fill="#e0e0e0" stroke="#999999" points="782.12,-20 739.12,-20 739.12,0 782.12,0 782.12,-20"/>
<text text-anchor="middle" x="760.62" y="-6.5" font-family="Helvetica,sans-Serif" font-size="10.00">vector</text>
</a>
</g>
</g>
<!-- Node7&#45;&gt;Node18 -->
<g id="edge17_Node000007_Node000018" class="edge">
<title>Node7&#45;&gt;Node18</title>
<g id="a_edge17_Node000007_Node000018"><a xlink:title=" ">
<path fill="none" stroke="#63b8ff" d="M494.51,-60.84C542.8,-54.28 637.55,-40.4 727.47,-20.26"/>
<polygon fill="#63b8ff" stroke="#63b8ff" points="728.24,-23.67 737.22,-18.04 726.69,-16.85 728.24,-23.67"/>
</a>
</g>
</g>
<!-- Node19&#45;&gt;Node12 -->
<g id="edge20_Node000019_Node000012" class="edge">
<title>Node19&#45;&gt;Node12</title>
<g id="a_edge20_Node000019_Node000012"><a xlink:title=" ">
<path fill="none" stroke="#63b8ff" d="M689.65,-55.59C680.71,-47.93 667.85,-36.91 657.16,-27.75"/>
<polygon fill="#63b8ff" stroke="#63b8ff" points="659.49,-25.13 649.62,-21.28 654.94,-30.45 659.49,-25.13"/>
</a>
</g>
</g>
<!-- Node19&#45;&gt;Node14 -->
<g id="edge21_Node000019_Node000014" class="edge">
<title>Node19&#45;&gt;Node14</title>
<g id="a_edge21_Node000019_Node000014"><a xlink:title=" ">
<path fill="none" stroke="#63b8ff" d="M700.62,-55.59C700.62,-49.01 700.62,-39.96 700.62,-31.73"/>
<polygon fill="#63b8ff" stroke="#63b8ff" points="704.13,-31.81 700.63,-21.81 697.13,-31.81 704.13,-31.81"/>
</a>
</g>
</g>
<!-- Node19&#45;&gt;Node18 -->
<g id="edge22_Node000019_Node000018" class="edge">
<title>Node19&#45;&gt;Node18</title>
<g id="a_edge22_Node000019_Node000018"><a xlink:title=" ">
<path fill="none" stroke="#63b8ff" d="M711.08,-55.59C719.59,-47.93 731.84,-36.91 742.02,-27.75"/>
<polygon fill="#63b8ff" stroke="#63b8ff" points="744.08,-30.6 749.17,-21.31 739.39,-25.4 744.08,-30.6"/>
</a>
</g>
</g>
<!-- Node20 -->
<g id="Node000020" class="node">
<title>Node20</title>
<g id="a_Node000020"><a xlink:title=" ">
<polygon fill="#e0e0e0" stroke="#999999" points="845.25,-20 800,-20 800,0 845.25,0 845.25,-20"/>
<text text-anchor="middle" x="822.62" y="-6.5" font-family="Helvetica,sans-Serif" font-size="10.00">cstdint</text>
</a>
</g>
</g>
<!-- Node19&#45;&gt;Node20 -->
<g id="edge19_Node000019_Node000020" class="edge">
<title>Node19&#45;&gt;Node20</title>
<g id="a_edge19_Node000019_Node000020"><a xlink:title=" ">
<path fill="none" stroke="#63b8ff" d="M721.88,-55.59C740.91,-47.17 769.1,-34.69 790.83,-25.07"/>
<polygon fill="#63b8ff" stroke="#63b8ff" points="792.1,-28.34 799.82,-21.09 789.26,-21.94 792.1,-28.34"/>
</a>
</g>
</g>
</g>
</svg>
