<?xml version="1.0" encoding="UTF-8" standalone="no"?>
<!DOCTYPE svg PUBLIC "-//W3C//DTD SVG 1.1//EN"
 "http://www.w3.org/Graphics/SVG/1.1/DTD/svg11.dtd">
<!-- Generated by graphviz version 12.2.1 (0)
 -->
<!-- Title: src/platform/linux/vaapi.h Pages: 1 -->
<svg width="1416pt" height="276pt"
 viewBox="0.00 0.00 1416.25 276.00" xmlns="http://www.w3.org/2000/svg" xmlns:xlink="http://www.w3.org/1999/xlink">
<g id="graph0" class="graph" transform="scale(1 1) rotate(0) translate(4 272)">
<title>src/platform/linux/vaapi.h</title>
<!-- Node1 -->
<g id="Node000001" class="node">
<title>Node1</title>
<g id="a_Node000001"><a xlink:title="Declarations for VA&#45;API hardware accelerated capture.">
<polygon fill="#999999" stroke="#666666" points="697.25,-268 606.25,-268 606.25,-236 697.25,-236 697.25,-268"/>
<text text-anchor="start" x="614.25" y="-254.5" font-family="Helvetica,sans-Serif" font-size="10.00">src/platform/linux</text>
<text text-anchor="middle" x="651.75" y="-242.5" font-family="Helvetica,sans-Serif" font-size="10.00">/vaapi.h</text>
</a>
</g>
</g>
<!-- Node2 -->
<g id="Node000002" class="node">
<title>Node2</title>
<g id="a_Node000002"><a xlink:href="linux_2misc_8h.html" target="_top" xlink:title="Miscellaneous declarations for Linux.">
<polygon fill="white" stroke="#666666" points="953.38,-138 908.12,-138 908.12,-118 953.38,-118 953.38,-138"/>
<text text-anchor="middle" x="930.75" y="-124.5" font-family="Helvetica,sans-Serif" font-size="10.00">misc.h</text>
</a>
</g>
</g>
<!-- Node1&#45;&gt;Node2 -->
<g id="edge1_Node000001_Node000002" class="edge">
<title>Node1&#45;&gt;Node2</title>
<g id="a_edge1_Node000001_Node000002"><a xlink:title=" ">
<path fill="none" stroke="#63b8ff" d="M687.09,-235.55C741.84,-211.6 846.35,-165.91 898.9,-142.93"/>
<polygon fill="#63b8ff" stroke="#63b8ff" points="900.14,-146.2 907.91,-138.99 897.34,-139.79 900.14,-146.2"/>
</a>
</g>
</g>
<!-- Node16 -->
<g id="Node000016" class="node">
<title>Node16</title>
<g id="a_Node000016"><a xlink:href="common_8h.html" target="_top" xlink:title="Declarations for common platform specific utilities.">
<polygon fill="white" stroke="#666666" points="667,-200 550.5,-200 550.5,-180 667,-180 667,-200"/>
<text text-anchor="middle" x="608.75" y="-186.5" font-family="Helvetica,sans-Serif" font-size="10.00">src/platform/common.h</text>
</a>
</g>
</g>
<!-- Node1&#45;&gt;Node16 -->
<g id="edge16_Node000001_Node000016" class="edge">
<title>Node1&#45;&gt;Node16</title>
<g id="a_edge16_Node000001_Node000016"><a xlink:title=" ">
<path fill="none" stroke="#63b8ff" d="M640.68,-235.55C635.02,-227.65 628.08,-217.97 622.12,-209.66"/>
<polygon fill="#63b8ff" stroke="#63b8ff" points="625.04,-207.73 616.37,-201.64 619.35,-211.81 625.04,-207.73"/>
</a>
</g>
</g>
<!-- Node3 -->
<g id="Node000003" class="node">
<title>Node3</title>
<g id="a_Node000003"><a xlink:title=" ">
<polygon fill="#e0e0e0" stroke="#999999" points="1098,-76 1047.5,-76 1047.5,-56 1098,-56 1098,-76"/>
<text text-anchor="middle" x="1072.75" y="-62.5" font-family="Helvetica,sans-Serif" font-size="10.00">unistd.h</text>
</a>
</g>
</g>
<!-- Node2&#45;&gt;Node3 -->
<g id="edge2_Node000002_Node000003" class="edge">
<title>Node2&#45;&gt;Node3</title>
<g id="a_edge2_Node000002_Node000003"><a xlink:title=" ">
<path fill="none" stroke="#63b8ff" d="M952.94,-117.62C976.38,-107.72 1013.6,-91.99 1040.33,-80.7"/>
<polygon fill="#63b8ff" stroke="#63b8ff" points="1041.47,-84.01 1049.32,-76.9 1038.75,-77.57 1041.47,-84.01"/>
</a>
</g>
</g>
<!-- Node4 -->
<g id="Node000004" class="node">
<title>Node4</title>
<g id="a_Node000004"><a xlink:title=" ">
<polygon fill="#e0e0e0" stroke="#999999" points="795.25,-20 752.25,-20 752.25,0 795.25,0 795.25,-20"/>
<text text-anchor="middle" x="773.75" y="-6.5" font-family="Helvetica,sans-Serif" font-size="10.00">vector</text>
</a>
</g>
</g>
<!-- Node2&#45;&gt;Node4 -->
<g id="edge3_Node000002_Node000004" class="edge">
<title>Node2&#45;&gt;Node4</title>
<g id="a_edge3_Node000002_Node000004"><a xlink:title=" ">
<path fill="none" stroke="#63b8ff" d="M917.9,-117.51C890.97,-97.61 828.37,-51.36 795.23,-26.87"/>
<polygon fill="#63b8ff" stroke="#63b8ff" points="797.68,-24.33 787.55,-21.2 793.52,-29.96 797.68,-24.33"/>
</a>
</g>
</g>
<!-- Node5 -->
<g id="Node000005" class="node">
<title>Node5</title>
<g id="a_Node000005"><a xlink:href="utility_8h.html" target="_top" xlink:title="Declarations for utility functions.">
<polygon fill="white" stroke="#666666" points="991.38,-76 928.12,-76 928.12,-56 991.38,-56 991.38,-76"/>
<text text-anchor="middle" x="959.75" y="-62.5" font-family="Helvetica,sans-Serif" font-size="10.00">src/utility.h</text>
</a>
</g>
</g>
<!-- Node2&#45;&gt;Node5 -->
<g id="edge4_Node000002_Node000005" class="edge">
<title>Node2&#45;&gt;Node5</title>
<g id="a_edge4_Node000002_Node000005"><a xlink:title=" ">
<path fill="none" stroke="#63b8ff" d="M935.28,-117.62C939.31,-109.3 945.32,-96.86 950.37,-86.4"/>
<polygon fill="#63b8ff" stroke="#63b8ff" points="953.49,-88 954.69,-77.48 947.18,-84.96 953.49,-88"/>
</a>
</g>
</g>
<!-- Node5&#45;&gt;Node4 -->
<g id="edge15_Node000005_Node000004" class="edge">
<title>Node5&#45;&gt;Node4</title>
<g id="a_edge15_Node000005_Node000004"><a xlink:title=" ">
<path fill="none" stroke="#63b8ff" d="M927.78,-55.72C893.9,-45.88 840.69,-30.43 806.51,-20.51"/>
<polygon fill="#63b8ff" stroke="#63b8ff" points="807.74,-17.22 797.17,-17.8 805.79,-23.95 807.74,-17.22"/>
</a>
</g>
</g>
<!-- Node6 -->
<g id="Node000006" class="node">
<title>Node6</title>
<g id="a_Node000006"><a xlink:title=" ">
<polygon fill="#e0e0e0" stroke="#999999" points="1347.62,-20 1291.88,-20 1291.88,0 1347.62,0 1347.62,-20"/>
<text text-anchor="middle" x="1319.75" y="-6.5" font-family="Helvetica,sans-Serif" font-size="10.00">algorithm</text>
</a>
</g>
</g>
<!-- Node5&#45;&gt;Node6 -->
<g id="edge5_Node000005_Node000006" class="edge">
<title>Node5&#45;&gt;Node6</title>
<g id="a_edge5_Node000005_Node000006"><a xlink:title=" ">
<path fill="none" stroke="#63b8ff" d="M991.87,-58.44C996.52,-57.57 1001.25,-56.73 1005.75,-56 1124.7,-36.65 1158.72,-42.34 1280.29,-20.27"/>
<polygon fill="#63b8ff" stroke="#63b8ff" points="1280.85,-23.73 1290.05,-18.47 1279.58,-16.85 1280.85,-23.73"/>
</a>
</g>
</g>
<!-- Node7 -->
<g id="Node000007" class="node">
<title>Node7</title>
<g id="a_Node000007"><a xlink:title=" ">
<polygon fill="#e0e0e0" stroke="#999999" points="907.75,-20 813.75,-20 813.75,0 907.75,0 907.75,-20"/>
<text text-anchor="middle" x="860.75" y="-6.5" font-family="Helvetica,sans-Serif" font-size="10.00">condition_variable</text>
</a>
</g>
</g>
<!-- Node5&#45;&gt;Node7 -->
<g id="edge6_Node000005_Node000007" class="edge">
<title>Node5&#45;&gt;Node7</title>
<g id="a_edge6_Node000005_Node000007"><a xlink:title=" ">
<path fill="none" stroke="#63b8ff" d="M942.51,-55.59C927.41,-47.36 905.22,-35.26 887.77,-25.74"/>
<polygon fill="#63b8ff" stroke="#63b8ff" points="889.91,-22.92 879.46,-21.2 886.56,-29.07 889.91,-22.92"/>
</a>
</g>
</g>
<!-- Node8 -->
<g id="Node000008" class="node">
<title>Node8</title>
<g id="a_Node000008"><a xlink:title=" ">
<polygon fill="#e0e0e0" stroke="#999999" points="977.38,-20 926.12,-20 926.12,0 977.38,0 977.38,-20"/>
<text text-anchor="middle" x="951.75" y="-6.5" font-family="Helvetica,sans-Serif" font-size="10.00">memory</text>
</a>
</g>
</g>
<!-- Node5&#45;&gt;Node8 -->
<g id="edge7_Node000005_Node000008" class="edge">
<title>Node5&#45;&gt;Node8</title>
<g id="a_edge7_Node000005_Node000008"><a xlink:title=" ">
<path fill="none" stroke="#63b8ff" d="M958.36,-55.59C957.37,-48.93 956.01,-39.75 954.78,-31.44"/>
<polygon fill="#63b8ff" stroke="#63b8ff" points="958.28,-31.17 953.35,-21.8 951.35,-32.2 958.28,-31.17"/>
</a>
</g>
</g>
<!-- Node9 -->
<g id="Node000009" class="node">
<title>Node9</title>
<g id="a_Node000009"><a xlink:title=" ">
<polygon fill="#e0e0e0" stroke="#999999" points="1408.25,-20 1365.25,-20 1365.25,0 1408.25,0 1408.25,-20"/>
<text text-anchor="middle" x="1386.75" y="-6.5" font-family="Helvetica,sans-Serif" font-size="10.00">mutex</text>
</a>
</g>
</g>
<!-- Node5&#45;&gt;Node9 -->
<g id="edge8_Node000005_Node000009" class="edge">
<title>Node5&#45;&gt;Node9</title>
<g id="a_edge8_Node000005_Node000009"><a xlink:title=" ">
<path fill="none" stroke="#63b8ff" d="M991.86,-58.33C996.51,-57.48 1001.24,-56.67 1005.75,-56 1157.23,-33.46 1200.92,-49.86 1353.72,-20.28"/>
<polygon fill="#63b8ff" stroke="#63b8ff" points="1354.3,-23.74 1363.43,-18.36 1352.94,-16.87 1354.3,-23.74"/>
</a>
</g>
</g>
<!-- Node10 -->
<g id="Node000010" class="node">
<title>Node10</title>
<g id="a_Node000010"><a xlink:title=" ">
<polygon fill="#e0e0e0" stroke="#999999" points="675.62,-20 625.88,-20 625.88,0 675.62,0 675.62,-20"/>
<text text-anchor="middle" x="650.75" y="-6.5" font-family="Helvetica,sans-Serif" font-size="10.00">optional</text>
</a>
</g>
</g>
<!-- Node5&#45;&gt;Node10 -->
<g id="edge9_Node000005_Node000010" class="edge">
<title>Node5&#45;&gt;Node10</title>
<g id="a_edge9_Node000005_Node000010"><a xlink:title=" ">
<path fill="none" stroke="#63b8ff" d="M927.8,-60.79C878.31,-54.06 779.91,-39.79 686.95,-20.3"/>
<polygon fill="#63b8ff" stroke="#63b8ff" points="687.93,-16.93 677.42,-18.27 686.47,-23.77 687.93,-16.93"/>
</a>
</g>
</g>
<!-- Node11 -->
<g id="Node000011" class="node">
<title>Node11</title>
<g id="a_Node000011"><a xlink:title=" ">
<polygon fill="#e0e0e0" stroke="#999999" points="1046.38,-20 995.12,-20 995.12,0 1046.38,0 1046.38,-20"/>
<text text-anchor="middle" x="1020.75" y="-6.5" font-family="Helvetica,sans-Serif" font-size="10.00">ostream</text>
</a>
</g>
</g>
<!-- Node5&#45;&gt;Node11 -->
<g id="edge10_Node000005_Node000011" class="edge">
<title>Node5&#45;&gt;Node11</title>
<g id="a_edge10_Node000005_Node000011"><a xlink:title=" ">
<path fill="none" stroke="#63b8ff" d="M970.38,-55.59C979.03,-47.93 991.48,-36.91 1001.83,-27.75"/>
<polygon fill="#63b8ff" stroke="#63b8ff" points="1003.95,-30.55 1009.11,-21.3 999.31,-25.31 1003.95,-30.55"/>
</a>
</g>
</g>
<!-- Node12 -->
<g id="Node000012" class="node">
<title>Node12</title>
<g id="a_Node000012"><a xlink:title=" ">
<polygon fill="#e0e0e0" stroke="#999999" points="733.75,-20 693.75,-20 693.75,0 733.75,0 733.75,-20"/>
<text text-anchor="middle" x="713.75" y="-6.5" font-family="Helvetica,sans-Serif" font-size="10.00">string</text>
</a>
</g>
</g>
<!-- Node5&#45;&gt;Node12 -->
<g id="edge11_Node000005_Node000012" class="edge">
<title>Node5&#45;&gt;Node12</title>
<g id="a_edge11_Node000005_Node000012"><a xlink:title=" ">
<path fill="none" stroke="#63b8ff" d="M927.71,-59.22C887.43,-51.76 815.96,-37.88 744.95,-20.11"/>
<polygon fill="#63b8ff" stroke="#63b8ff" points="746.04,-16.77 735.48,-17.71 744.32,-23.56 746.04,-16.77"/>
</a>
</g>
</g>
<!-- Node13 -->
<g id="Node000013" class="node">
<title>Node13</title>
<g id="a_Node000013"><a xlink:title=" ">
<polygon fill="#e0e0e0" stroke="#999999" points="1129.5,-20 1064,-20 1064,0 1129.5,0 1129.5,-20"/>
<text text-anchor="middle" x="1096.75" y="-6.5" font-family="Helvetica,sans-Serif" font-size="10.00">string_view</text>
</a>
</g>
</g>
<!-- Node5&#45;&gt;Node13 -->
<g id="edge12_Node000005_Node000013" class="edge">
<title>Node5&#45;&gt;Node13</title>
<g id="a_edge12_Node000005_Node000013"><a xlink:title=" ">
<path fill="none" stroke="#63b8ff" d="M983.61,-55.59C1005.29,-47.05 1037.52,-34.35 1062.04,-24.68"/>
<polygon fill="#63b8ff" stroke="#63b8ff" points="1063.27,-27.96 1071.29,-21.03 1060.71,-21.45 1063.27,-27.96"/>
</a>
</g>
</g>
<!-- Node14 -->
<g id="Node000014" class="node">
<title>Node14</title>
<g id="a_Node000014"><a xlink:title=" ">
<polygon fill="#e0e0e0" stroke="#999999" points="1209.62,-20 1147.88,-20 1147.88,0 1209.62,0 1209.62,-20"/>
<text text-anchor="middle" x="1178.75" y="-6.5" font-family="Helvetica,sans-Serif" font-size="10.00">type_traits</text>
</a>
</g>
</g>
<!-- Node5&#45;&gt;Node14 -->
<g id="edge13_Node000005_Node000014" class="edge">
<title>Node5&#45;&gt;Node14</title>
<g id="a_edge13_Node000005_Node000014"><a xlink:title=" ">
<path fill="none" stroke="#63b8ff" d="M991.59,-57.15C1029.85,-47.72 1094.14,-31.86 1136.51,-21.41"/>
<polygon fill="#63b8ff" stroke="#63b8ff" points="1137.24,-24.84 1146.11,-19.05 1135.56,-18.04 1137.24,-24.84"/>
</a>
</g>
</g>
<!-- Node15 -->
<g id="Node000015" class="node">
<title>Node15</title>
<g id="a_Node000015"><a xlink:title=" ">
<polygon fill="#e0e0e0" stroke="#999999" points="1273.38,-20 1228.12,-20 1228.12,0 1273.38,0 1273.38,-20"/>
<text text-anchor="middle" x="1250.75" y="-6.5" font-family="Helvetica,sans-Serif" font-size="10.00">variant</text>
</a>
</g>
</g>
<!-- Node5&#45;&gt;Node15 -->
<g id="edge14_Node000005_Node000015" class="edge">
<title>Node5&#45;&gt;Node15</title>
<g id="a_edge14_Node000005_Node000015"><a xlink:title=" ">
<path fill="none" stroke="#63b8ff" d="M991.4,-58.7C996.21,-57.77 1001.11,-56.85 1005.75,-56 1096.7,-39.42 1123.13,-40.89 1216.64,-20.27"/>
<polygon fill="#63b8ff" stroke="#63b8ff" points="1217.28,-23.71 1226.28,-18.11 1215.75,-16.88 1217.28,-23.71"/>
</a>
</g>
</g>
<!-- Node16&#45;&gt;Node5 -->
<g id="edge49_Node000016_Node000005" class="edge">
<title>Node16&#45;&gt;Node5</title>
<g id="a_edge49_Node000016_Node000005"><a xlink:title=" ">
<path fill="none" stroke="#63b8ff" d="M667.11,-182.77C713.02,-176.57 778,-164.87 831.75,-144 871.91,-128.41 913.84,-100.63 938.34,-83.05"/>
<polygon fill="#63b8ff" stroke="#63b8ff" points="940.19,-86.03 946.2,-77.31 936.06,-80.38 940.19,-86.03"/>
</a>
</g>
</g>
<!-- Node16&#45;&gt;Node9 -->
<g id="edge20_Node000016_Node000009" class="edge">
<title>Node16&#45;&gt;Node9</title>
<g id="a_edge20_Node000016_Node000009"><a xlink:title=" ">
<path fill="none" stroke="#63b8ff" d="M667.18,-187.49C789.45,-183.79 1068.39,-172.43 1158.75,-144 1242.21,-117.74 1328.01,-56.66 1366.23,-27.32"/>
<polygon fill="#63b8ff" stroke="#63b8ff" points="1368.36,-30.09 1374.1,-21.19 1364.06,-24.57 1368.36,-30.09"/>
</a>
</g>
</g>
<!-- Node16&#45;&gt;Node12 -->
<g id="edge21_Node000016_Node000012" class="edge">
<title>Node16&#45;&gt;Node12</title>
<g id="a_edge21_Node000016_Node000012"><a xlink:title=" ">
<path fill="none" stroke="#63b8ff" d="M630.81,-179.55C645.05,-172.15 662.41,-160.35 670.75,-144 677.21,-131.33 676.37,-125.06 670.75,-112 661.56,-90.63 641.94,-97.37 632.75,-76 629.24,-67.83 628.24,-63.66 632.75,-56 638.52,-46.2 662.61,-33.5 683.04,-24.09"/>
<polygon fill="#63b8ff" stroke="#63b8ff" points="684.19,-27.41 691.88,-20.13 681.33,-21.02 684.19,-27.41"/>
</a>
</g>
</g>
<!-- Node17 -->
<g id="Node000017" class="node">
<title>Node17</title>
<g id="a_Node000017"><a xlink:title=" ">
<polygon fill="#e0e0e0" stroke="#999999" points="377.75,-20 337.75,-20 337.75,0 377.75,0 377.75,-20"/>
<text text-anchor="middle" x="357.75" y="-6.5" font-family="Helvetica,sans-Serif" font-size="10.00">bitset</text>
</a>
</g>
</g>
<!-- Node16&#45;&gt;Node17 -->
<g id="edge17_Node000016_Node000017" class="edge">
<title>Node16&#45;&gt;Node17</title>
<g id="a_edge17_Node000016_Node000017"><a xlink:title=" ">
<path fill="none" stroke="#63b8ff" d="M592.37,-179.53C577.54,-170.78 555.24,-157.17 536.75,-144 486.04,-107.88 478.23,-92.44 427.75,-56 413.28,-45.56 396.48,-34.71 382.96,-26.29"/>
<polygon fill="#63b8ff" stroke="#63b8ff" points="385,-23.43 374.65,-21.16 381.32,-29.39 385,-23.43"/>
</a>
</g>
</g>
<!-- Node18 -->
<g id="Node000018" class="node">
<title>Node18</title>
<g id="a_Node000018"><a xlink:title=" ">
<polygon fill="#e0e0e0" stroke="#999999" points="163.25,-138 102.25,-138 102.25,-118 163.25,-118 163.25,-138"/>
<text text-anchor="middle" x="132.75" y="-124.5" font-family="Helvetica,sans-Serif" font-size="10.00">filesystem</text>
</a>
</g>
</g>
<!-- Node16&#45;&gt;Node18 -->
<g id="edge18_Node000016_Node000018" class="edge">
<title>Node16&#45;&gt;Node18</title>
<g id="a_edge18_Node000016_Node000018"><a xlink:title=" ">
<path fill="none" stroke="#63b8ff" d="M550.32,-187.87C465.72,-185.14 304.71,-175.82 171.75,-144 169.58,-143.48 167.37,-142.87 165.16,-142.2"/>
<polygon fill="#63b8ff" stroke="#63b8ff" points="166.32,-138.89 155.72,-138.94 164.04,-145.51 166.32,-138.89"/>
</a>
</g>
</g>
<!-- Node19 -->
<g id="Node000019" class="node">
<title>Node19</title>
<g id="a_Node000019"><a xlink:title=" ">
<polygon fill="#e0e0e0" stroke="#999999" points="255.75,-20 197.75,-20 197.75,0 255.75,0 255.75,-20"/>
<text text-anchor="middle" x="226.75" y="-6.5" font-family="Helvetica,sans-Serif" font-size="10.00">functional</text>
</a>
</g>
</g>
<!-- Node16&#45;&gt;Node19 -->
<g id="edge19_Node000016_Node000019" class="edge">
<title>Node16&#45;&gt;Node19</title>
<g id="a_edge19_Node000016_Node000019"><a xlink:title=" ">
<path fill="none" stroke="#63b8ff" d="M575.27,-179.57C551.26,-171.97 518.7,-159.94 492.75,-144 442.87,-113.36 446.21,-83.9 394.75,-56 383.49,-49.9 313.4,-32.13 267.38,-20.83"/>
<polygon fill="#63b8ff" stroke="#63b8ff" points="268.26,-17.44 257.71,-18.47 266.6,-24.24 268.26,-17.44"/>
</a>
</g>
</g>
<!-- Node20 -->
<g id="Node000020" class="node">
<title>Node20</title>
<g id="a_Node000020"><a xlink:title=" ">
<polygon fill="#e0e0e0" stroke="#999999" points="408.88,-138 270.62,-138 270.62,-118 408.88,-118 408.88,-138"/>
<text text-anchor="middle" x="339.75" y="-124.5" font-family="Helvetica,sans-Serif" font-size="10.00">boost/core/noncopyable.hpp</text>
</a>
</g>
</g>
<!-- Node16&#45;&gt;Node20 -->
<g id="edge22_Node000016_Node000020" class="edge">
<title>Node16&#45;&gt;Node20</title>
<g id="a_edge22_Node000016_Node000020"><a xlink:title=" ">
<path fill="none" stroke="#63b8ff" d="M566.42,-179.56C519.65,-169.13 444.24,-152.31 393.37,-140.96"/>
<polygon fill="#63b8ff" stroke="#63b8ff" points="394.27,-137.58 383.75,-138.81 392.75,-144.41 394.27,-137.58"/>
</a>
</g>
</g>
<!-- Node21 -->
<g id="Node000021" class="node">
<title>Node21</title>
<g id="a_Node000021"><a xlink:href="config_8h.html" target="_top" xlink:title="Declarations for the configuration of Sunshine.">
<polygon fill="white" stroke="#666666" points="585.25,-76 518.25,-76 518.25,-56 585.25,-56 585.25,-76"/>
<text text-anchor="middle" x="551.75" y="-62.5" font-family="Helvetica,sans-Serif" font-size="10.00">src/config.h</text>
</a>
</g>
</g>
<!-- Node16&#45;&gt;Node21 -->
<g id="edge23_Node000016_Node000021" class="edge">
<title>Node16&#45;&gt;Node21</title>
<g id="a_edge23_Node000016_Node000021"><a xlink:title=" ">
<path fill="none" stroke="#63b8ff" d="M586.69,-179.55C572.45,-172.15 555.09,-160.35 546.75,-144 537.73,-126.31 540.83,-103.29 545.04,-87.05"/>
<polygon fill="#63b8ff" stroke="#63b8ff" points="548.36,-88.18 547.86,-77.59 541.65,-86.18 548.36,-88.18"/>
</a>
</g>
</g>
<!-- Node25 -->
<g id="Node000025" class="node">
<title>Node25</title>
<g id="a_Node000025"><a xlink:href="logging_8h.html" target="_top" xlink:title="Declarations for logging related functions.">
<polygon fill="white" stroke="#666666" points="252.5,-138 181,-138 181,-118 252.5,-118 252.5,-138"/>
<text text-anchor="middle" x="216.75" y="-124.5" font-family="Helvetica,sans-Serif" font-size="10.00">src/logging.h</text>
</a>
</g>
</g>
<!-- Node16&#45;&gt;Node25 -->
<g id="edge31_Node000016_Node000025" class="edge">
<title>Node16&#45;&gt;Node25</title>
<g id="a_edge31_Node000016_Node000025"><a xlink:title=" ">
<path fill="none" stroke="#63b8ff" d="M550.12,-184.86C480.64,-179.17 361.67,-166.91 261.75,-144 258.94,-143.36 256.06,-142.61 253.18,-141.8"/>
<polygon fill="#63b8ff" stroke="#63b8ff" points="254.24,-138.46 243.65,-138.88 252.19,-145.15 254.24,-138.46"/>
</a>
</g>
</g>
<!-- Node31 -->
<g id="Node000031" class="node">
<title>Node31</title>
<g id="a_Node000031"><a xlink:href="thread__safe_8h.html" target="_top" xlink:title="Declarations for thread&#45;safe data structures.">
<polygon fill="white" stroke="#666666" points="822.62,-138 730.88,-138 730.88,-118 822.62,-118 822.62,-138"/>
<text text-anchor="middle" x="776.75" y="-124.5" font-family="Helvetica,sans-Serif" font-size="10.00">src/thread_safe.h</text>
</a>
</g>
</g>
<!-- Node16&#45;&gt;Node31 -->
<g id="edge40_Node000016_Node000031" class="edge">
<title>Node16&#45;&gt;Node31</title>
<g id="a_edge40_Node000016_Node000031"><a xlink:title=" ">
<path fill="none" stroke="#63b8ff" d="M635,-179.62C663.15,-169.57 708.07,-153.53 739.79,-142.2"/>
<polygon fill="#63b8ff" stroke="#63b8ff" points="740.74,-145.58 748.98,-138.92 738.39,-138.98 740.74,-145.58"/>
</a>
</g>
</g>
<!-- Node35 -->
<g id="Node000035" class="node">
<title>Node35</title>
<g id="a_Node000035"><a xlink:href="video__colorspace_8h.html" target="_top" xlink:title="Declarations for colorspace functions.">
<polygon fill="white" stroke="#666666" points="1150,-138 1033.5,-138 1033.5,-118 1150,-118 1150,-138"/>
<text text-anchor="middle" x="1091.75" y="-124.5" font-family="Helvetica,sans-Serif" font-size="10.00">src/video_colorspace.h</text>
</a>
</g>
</g>
<!-- Node16&#45;&gt;Node35 -->
<g id="edge50_Node000016_Node000035" class="edge">
<title>Node16&#45;&gt;Node35</title>
<g id="a_edge50_Node000016_Node000035"><a xlink:title=" ">
<path fill="none" stroke="#63b8ff" d="M667.49,-181.7C756.76,-170.61 926.25,-149.56 1021.77,-137.69"/>
<polygon fill="#63b8ff" stroke="#63b8ff" points="1022.04,-141.19 1031.54,-136.48 1021.18,-134.24 1022.04,-141.19"/>
</a>
</g>
</g>
<!-- Node37 -->
<g id="Node000037" class="node">
<title>Node37</title>
<g id="a_Node000037"><a xlink:title=" ">
<polygon fill="#e0e0e0" stroke="#999999" points="662.12,-144 555.38,-144 555.38,-112 662.12,-112 662.12,-144"/>
<text text-anchor="start" x="563.38" y="-130.5" font-family="Helvetica,sans-Serif" font-size="10.00">moonlight&#45;common&#45;c</text>
<text text-anchor="middle" x="608.75" y="-118.5" font-family="Helvetica,sans-Serif" font-size="10.00">/src/Limelight.h</text>
</a>
</g>
</g>
<!-- Node16&#45;&gt;Node37 -->
<g id="edge52_Node000016_Node000037" class="edge">
<title>Node16&#45;&gt;Node37</title>
<g id="a_edge52_Node000016_Node000037"><a xlink:title=" ">
<path fill="none" stroke="#63b8ff" d="M608.75,-179.62C608.75,-173.1 608.75,-164.05 608.75,-155.4"/>
<polygon fill="#63b8ff" stroke="#63b8ff" points="612.25,-155.65 608.75,-145.65 605.25,-155.65 612.25,-155.65"/>
</a>
</g>
</g>
<!-- Node21&#45;&gt;Node4 -->
<g id="edge29_Node000021_Node000004" class="edge">
<title>Node21&#45;&gt;Node4</title>
<g id="a_edge29_Node000021_Node000004"><a xlink:title=" ">
<path fill="none" stroke="#63b8ff" d="M585.69,-57.55C621.81,-49.51 680.88,-36.01 740.95,-20.37"/>
<polygon fill="#63b8ff" stroke="#63b8ff" points="741.52,-23.84 750.31,-17.92 739.75,-17.07 741.52,-23.84"/>
</a>
</g>
</g>
<!-- Node21&#45;&gt;Node10 -->
<g id="edge26_Node000021_Node000010" class="edge">
<title>Node21&#45;&gt;Node10</title>
<g id="a_edge26_Node000021_Node000010"><a xlink:title=" ">
<path fill="none" stroke="#63b8ff" d="M568.99,-55.59C584.09,-47.36 606.28,-35.26 623.73,-25.74"/>
<polygon fill="#63b8ff" stroke="#63b8ff" points="624.94,-29.07 632.04,-21.2 621.59,-22.92 624.94,-29.07"/>
</a>
</g>
</g>
<!-- Node21&#45;&gt;Node12 -->
<g id="edge27_Node000021_Node000012" class="edge">
<title>Node21&#45;&gt;Node12</title>
<g id="a_edge27_Node000021_Node000012"><a xlink:title=" ">
<path fill="none" stroke="#63b8ff" d="M579.97,-55.59C608.75,-46 653.27,-31.16 682.95,-21.27"/>
<polygon fill="#63b8ff" stroke="#63b8ff" points="683.71,-24.7 692.09,-18.22 681.5,-18.06 683.71,-24.7"/>
</a>
</g>
</g>
<!-- Node21&#45;&gt;Node17 -->
<g id="edge24_Node000021_Node000017" class="edge">
<title>Node21&#45;&gt;Node17</title>
<g id="a_edge24_Node000021_Node000017"><a xlink:title=" ">
<path fill="none" stroke="#63b8ff" d="M517.84,-56.12C486.7,-47.88 439.02,-35.07 389.04,-20.6"/>
<polygon fill="#63b8ff" stroke="#63b8ff" points="390.04,-17.24 379.46,-17.81 388.08,-23.96 390.04,-17.24"/>
</a>
</g>
</g>
<!-- Node22 -->
<g id="Node000022" class="node">
<title>Node22</title>
<g id="a_Node000022"><a xlink:title=" ">
<polygon fill="#e0e0e0" stroke="#999999" points="319.38,-20 274.12,-20 274.12,0 319.38,0 319.38,-20"/>
<text text-anchor="middle" x="296.75" y="-6.5" font-family="Helvetica,sans-Serif" font-size="10.00">chrono</text>
</a>
</g>
</g>
<!-- Node21&#45;&gt;Node22 -->
<g id="edge25_Node000021_Node000022" class="edge">
<title>Node21&#45;&gt;Node22</title>
<g id="a_edge25_Node000021_Node000022"><a xlink:title=" ">
<path fill="none" stroke="#63b8ff" d="M517.95,-59C476.26,-51.41 402.97,-37.51 330.86,-20.36"/>
<polygon fill="#63b8ff" stroke="#63b8ff" points="331.78,-16.98 321.24,-18.05 330.14,-23.79 331.78,-16.98"/>
</a>
</g>
</g>
<!-- Node23 -->
<g id="Node000023" class="node">
<title>Node23</title>
<g id="a_Node000023"><a xlink:title=" ">
<polygon fill="#e0e0e0" stroke="#999999" points="478.12,-20 395.38,-20 395.38,0 478.12,0 478.12,-20"/>
<text text-anchor="middle" x="436.75" y="-6.5" font-family="Helvetica,sans-Serif" font-size="10.00">unordered_map</text>
</a>
</g>
</g>
<!-- Node21&#45;&gt;Node23 -->
<g id="edge28_Node000021_Node000023" class="edge">
<title>Node21&#45;&gt;Node23</title>
<g id="a_edge28_Node000021_Node000023"><a xlink:title=" ">
<path fill="none" stroke="#63b8ff" d="M531.72,-55.59C513.94,-47.24 487.68,-34.92 467.29,-25.34"/>
<polygon fill="#63b8ff" stroke="#63b8ff" points="468.85,-22.21 458.31,-21.12 465.87,-28.54 468.85,-22.21"/>
</a>
</g>
</g>
<!-- Node24 -->
<g id="Node000024" class="node">
<title>Node24</title>
<g id="a_Node000024"><a xlink:href="nvenc__config_8h.html" target="_top" xlink:title="Declarations for NVENC encoder configuration.">
<polygon fill="white" stroke="#666666" points="607.38,-20 496.12,-20 496.12,0 607.38,0 607.38,-20"/>
<text text-anchor="middle" x="551.75" y="-6.5" font-family="Helvetica,sans-Serif" font-size="10.00">nvenc/nvenc_config.h</text>
</a>
</g>
</g>
<!-- Node21&#45;&gt;Node24 -->
<g id="edge30_Node000021_Node000024" class="edge">
<title>Node21&#45;&gt;Node24</title>
<g id="a_edge30_Node000021_Node000024"><a xlink:title=" ">
<path fill="none" stroke="#63b8ff" d="M551.75,-55.59C551.75,-49.01 551.75,-39.96 551.75,-31.73"/>
<polygon fill="#63b8ff" stroke="#63b8ff" points="555.25,-31.81 551.75,-21.81 548.25,-31.81 555.25,-31.81"/>
</a>
</g>
</g>
<!-- Node25&#45;&gt;Node21 -->
<g id="edge34_Node000025_Node000021" class="edge">
<title>Node25&#45;&gt;Node21</title>
<g id="a_edge34_Node000025_Node000021"><a xlink:title=" ">
<path fill="none" stroke="#63b8ff" d="M242.71,-117.52C248.89,-115.5 255.51,-113.51 261.75,-112 347.22,-91.28 449.27,-78.04 506.69,-71.62"/>
<polygon fill="#63b8ff" stroke="#63b8ff" points="506.84,-75.12 516.4,-70.55 506.07,-68.16 506.84,-75.12"/>
</a>
</g>
</g>
<!-- Node26 -->
<g id="Node000026" class="node">
<title>Node26</title>
<g id="a_Node000026"><a xlink:title=" ">
<polygon fill="#e0e0e0" stroke="#999999" points="385.25,-76 270.25,-76 270.25,-56 385.25,-56 385.25,-76"/>
<text text-anchor="middle" x="327.75" y="-62.5" font-family="Helvetica,sans-Serif" font-size="10.00">boost/log/common.hpp</text>
</a>
</g>
</g>
<!-- Node25&#45;&gt;Node26 -->
<g id="edge32_Node000025_Node000026" class="edge">
<title>Node25&#45;&gt;Node26</title>
<g id="a_edge32_Node000025_Node000026"><a xlink:title=" ">
<path fill="none" stroke="#63b8ff" d="M234.09,-117.62C251.85,-108.03 279.71,-92.97 300.43,-81.77"/>
<polygon fill="#63b8ff" stroke="#63b8ff" points="302.06,-84.86 309.2,-77.03 298.74,-78.71 302.06,-84.86"/>
</a>
</g>
</g>
<!-- Node27 -->
<g id="Node000027" class="node">
<title>Node27</title>
<g id="a_Node000027"><a xlink:title=" ">
<polygon fill="#e0e0e0" stroke="#999999" points="252.12,-76 151.38,-76 151.38,-56 252.12,-56 252.12,-76"/>
<text text-anchor="middle" x="201.75" y="-62.5" font-family="Helvetica,sans-Serif" font-size="10.00">boost/log/sinks.hpp</text>
</a>
</g>
</g>
<!-- Node25&#45;&gt;Node27 -->
<g id="edge33_Node000025_Node000027" class="edge">
<title>Node25&#45;&gt;Node27</title>
<g id="a_edge33_Node000025_Node000027"><a xlink:title=" ">
<path fill="none" stroke="#63b8ff" d="M214.41,-117.62C212.37,-109.48 209.35,-97.39 206.77,-87.07"/>
<polygon fill="#63b8ff" stroke="#63b8ff" points="210.22,-86.43 204.4,-77.58 203.43,-88.13 210.22,-86.43"/>
</a>
</g>
</g>
<!-- Node28 -->
<g id="Node000028" class="node">
<title>Node28</title>
<g id="a_Node000028"><a xlink:href="stat__trackers_8h.html" target="_top" xlink:title="Declarations for streaming statistic tracking.">
<polygon fill="white" stroke="#666666" points="133.38,-76 52.12,-76 52.12,-56 133.38,-56 133.38,-76"/>
<text text-anchor="middle" x="92.75" y="-62.5" font-family="Helvetica,sans-Serif" font-size="10.00">stat_trackers.h</text>
</a>
</g>
</g>
<!-- Node25&#45;&gt;Node28 -->
<g id="edge35_Node000025_Node000028" class="edge">
<title>Node25&#45;&gt;Node28</title>
<g id="a_edge35_Node000025_Node000028"><a xlink:title=" ">
<path fill="none" stroke="#63b8ff" d="M197.38,-117.62C177.26,-107.89 145.56,-92.55 122.32,-81.31"/>
<polygon fill="#63b8ff" stroke="#63b8ff" points="123.88,-78.17 113.35,-76.97 120.83,-84.47 123.88,-78.17"/>
</a>
</g>
</g>
<!-- Node28&#45;&gt;Node19 -->
<g id="edge37_Node000028_Node000019" class="edge">
<title>Node28&#45;&gt;Node19</title>
<g id="a_edge37_Node000028_Node000019"><a xlink:title=" ">
<path fill="none" stroke="#63b8ff" d="M116.09,-55.59C137.29,-47.05 168.82,-34.35 192.8,-24.68"/>
<polygon fill="#63b8ff" stroke="#63b8ff" points="193.86,-28.03 201.82,-21.05 191.24,-21.54 193.86,-28.03"/>
</a>
</g>
</g>
<!-- Node28&#45;&gt;Node22 -->
<g id="edge36_Node000028_Node000022" class="edge">
<title>Node28&#45;&gt;Node22</title>
<g id="a_edge36_Node000028_Node000022"><a xlink:title=" ">
<path fill="none" stroke="#63b8ff" d="M129.71,-55.54C162.26,-47.16 211.23,-34.44 262.68,-20.53"/>
<polygon fill="#63b8ff" stroke="#63b8ff" points="263.5,-23.93 272.23,-17.94 261.66,-17.18 263.5,-23.93"/>
</a>
</g>
</g>
<!-- Node29 -->
<g id="Node000029" class="node">
<title>Node29</title>
<g id="a_Node000029"><a xlink:title=" ">
<polygon fill="#e0e0e0" stroke="#999999" points="146.38,-20 107.12,-20 107.12,0 146.38,0 146.38,-20"/>
<text text-anchor="middle" x="126.75" y="-6.5" font-family="Helvetica,sans-Serif" font-size="10.00">limits</text>
</a>
</g>
</g>
<!-- Node28&#45;&gt;Node29 -->
<g id="edge38_Node000028_Node000029" class="edge">
<title>Node28&#45;&gt;Node29</title>
<g id="a_edge38_Node000028_Node000029"><a xlink:title=" ">
<path fill="none" stroke="#63b8ff" d="M98.67,-55.59C103.11,-48.55 109.33,-38.67 114.79,-30"/>
<polygon fill="#63b8ff" stroke="#63b8ff" points="117.72,-31.91 120.09,-21.58 111.8,-28.18 117.72,-31.91"/>
</a>
</g>
</g>
<!-- Node30 -->
<g id="Node000030" class="node">
<title>Node30</title>
<g id="a_Node000030"><a xlink:title=" ">
<polygon fill="#e0e0e0" stroke="#999999" points="89.5,-20 0,-20 0,0 89.5,0 89.5,-20"/>
<text text-anchor="middle" x="44.75" y="-6.5" font-family="Helvetica,sans-Serif" font-size="10.00">boost/format.hpp</text>
</a>
</g>
</g>
<!-- Node28&#45;&gt;Node30 -->
<g id="edge39_Node000028_Node000030" class="edge">
<title>Node28&#45;&gt;Node30</title>
<g id="a_edge39_Node000028_Node000030"><a xlink:title=" ">
<path fill="none" stroke="#63b8ff" d="M84.39,-55.59C77.85,-48.24 68.57,-37.8 60.63,-28.87"/>
<polygon fill="#63b8ff" stroke="#63b8ff" points="63.28,-26.58 54.02,-21.43 58.05,-31.23 63.28,-26.58"/>
</a>
</g>
</g>
<!-- Node31&#45;&gt;Node4 -->
<g id="edge47_Node000031_Node000004" class="edge">
<title>Node31&#45;&gt;Node4</title>
<g id="a_edge47_Node000031_Node000004"><a xlink:title=" ">
<path fill="none" stroke="#63b8ff" d="M784.92,-117.51C795.48,-104.05 811.76,-78.52 804.75,-56 801.74,-46.32 795.84,-36.88 789.99,-29.16"/>
<polygon fill="#63b8ff" stroke="#63b8ff" points="792.83,-27.11 783.78,-21.6 787.42,-31.55 792.83,-27.11"/>
</a>
</g>
</g>
<!-- Node31&#45;&gt;Node5 -->
<g id="edge48_Node000031_Node000005" class="edge">
<title>Node31&#45;&gt;Node5</title>
<g id="a_edge48_Node000031_Node000005"><a xlink:title=" ">
<path fill="none" stroke="#63b8ff" d="M805.34,-117.62C836.28,-107.48 885.8,-91.25 920.39,-79.9"/>
<polygon fill="#63b8ff" stroke="#63b8ff" points="921.21,-83.32 929.62,-76.88 919.02,-76.67 921.21,-83.32"/>
</a>
</g>
</g>
<!-- Node31&#45;&gt;Node7 -->
<g id="edge43_Node000031_Node000007" class="edge">
<title>Node31&#45;&gt;Node7</title>
<g id="a_edge43_Node000031_Node000007"><a xlink:title=" ">
<path fill="none" stroke="#63b8ff" d="M785.4,-117.55C794.4,-107.54 808.67,-91.14 819.75,-76 830.71,-61.03 841.86,-43.14 849.76,-29.92"/>
<polygon fill="#63b8ff" stroke="#63b8ff" points="852.73,-31.78 854.79,-21.39 846.69,-28.23 852.73,-31.78"/>
</a>
</g>
</g>
<!-- Node31&#45;&gt;Node9 -->
<g id="edge46_Node000031_Node000009" class="edge">
<title>Node31&#45;&gt;Node9</title>
<g id="a_edge46_Node000031_Node000009"><a xlink:title=" ">
<path fill="none" stroke="#63b8ff" d="M822.81,-120.13C868.81,-112.43 941.08,-98.06 1000.75,-76 1018.65,-69.38 1020.51,-61.61 1038.75,-56 1171.24,-15.22 1215.18,-46.85 1353.87,-20.24"/>
<polygon fill="#63b8ff" stroke="#63b8ff" points="1354.3,-23.73 1363.43,-18.34 1352.93,-16.86 1354.3,-23.73"/>
</a>
</g>
</g>
<!-- Node31&#45;&gt;Node19 -->
<g id="edge44_Node000031_Node000019" class="edge">
<title>Node31&#45;&gt;Node19</title>
<g id="a_edge44_Node000031_Node000019"><a xlink:title=" ">
<path fill="none" stroke="#63b8ff" d="M730.78,-118.95C677.46,-109.44 586.99,-92.79 509.75,-76 473.09,-68.03 464.29,-64.49 427.75,-56 358.87,-40 338.92,-36.83 267.17,-20.53"/>
<polygon fill="#63b8ff" stroke="#63b8ff" points="268.2,-17.17 257.67,-18.36 266.64,-24 268.2,-17.17"/>
</a>
</g>
</g>
<!-- Node32 -->
<g id="Node000032" class="node">
<title>Node32</title>
<g id="a_Node000032"><a xlink:title=" ">
<polygon fill="#e0e0e0" stroke="#999999" points="795.62,-76 757.88,-76 757.88,-56 795.62,-56 795.62,-76"/>
<text text-anchor="middle" x="776.75" y="-62.5" font-family="Helvetica,sans-Serif" font-size="10.00">array</text>
</a>
</g>
</g>
<!-- Node31&#45;&gt;Node32 -->
<g id="edge41_Node000031_Node000032" class="edge">
<title>Node31&#45;&gt;Node32</title>
<g id="a_edge41_Node000031_Node000032"><a xlink:title=" ">
<path fill="none" stroke="#63b8ff" d="M776.75,-117.62C776.75,-109.56 776.75,-97.65 776.75,-87.41"/>
<polygon fill="#63b8ff" stroke="#63b8ff" points="780.25,-87.63 776.75,-77.63 773.25,-87.63 780.25,-87.63"/>
</a>
</g>
</g>
<!-- Node33 -->
<g id="Node000033" class="node">
<title>Node33</title>
<g id="a_Node000033"><a xlink:title=" ">
<polygon fill="#e0e0e0" stroke="#999999" points="687.38,-76 642.12,-76 642.12,-56 687.38,-56 687.38,-76"/>
<text text-anchor="middle" x="664.75" y="-62.5" font-family="Helvetica,sans-Serif" font-size="10.00">atomic</text>
</a>
</g>
</g>
<!-- Node31&#45;&gt;Node33 -->
<g id="edge42_Node000031_Node000033" class="edge">
<title>Node31&#45;&gt;Node33</title>
<g id="a_edge42_Node000031_Node000033"><a xlink:title=" ">
<path fill="none" stroke="#63b8ff" d="M759.25,-117.62C741.25,-107.98 712.96,-92.83 692.03,-81.61"/>
<polygon fill="#63b8ff" stroke="#63b8ff" points="693.93,-78.66 683.46,-77.02 690.62,-84.83 693.93,-78.66"/>
</a>
</g>
</g>
<!-- Node34 -->
<g id="Node000034" class="node">
<title>Node34</title>
<g id="a_Node000034"><a xlink:title=" ">
<polygon fill="#e0e0e0" stroke="#999999" points="740.12,-76 705.38,-76 705.38,-56 740.12,-56 740.12,-76"/>
<text text-anchor="middle" x="722.75" y="-62.5" font-family="Helvetica,sans-Serif" font-size="10.00">map</text>
</a>
</g>
</g>
<!-- Node31&#45;&gt;Node34 -->
<g id="edge45_Node000031_Node000034" class="edge">
<title>Node31&#45;&gt;Node34</title>
<g id="a_edge45_Node000031_Node000034"><a xlink:title=" ">
<path fill="none" stroke="#63b8ff" d="M768.31,-117.62C760.34,-108.77 748.18,-95.26 738.43,-84.43"/>
<polygon fill="#63b8ff" stroke="#63b8ff" points="741.26,-82.33 731.96,-77.24 736.05,-87.01 741.26,-82.33"/>
</a>
</g>
</g>
<!-- Node36 -->
<g id="Node000036" class="node">
<title>Node36</title>
<g id="a_Node000036"><a xlink:title=" ">
<polygon fill="#e0e0e0" stroke="#999999" points="1203.38,-76 1116.12,-76 1116.12,-56 1203.38,-56 1203.38,-76"/>
<text text-anchor="middle" x="1159.75" y="-62.5" font-family="Helvetica,sans-Serif" font-size="10.00">libavutil/pixfmt.h</text>
</a>
</g>
</g>
<!-- Node35&#45;&gt;Node36 -->
<g id="edge51_Node000035_Node000036" class="edge">
<title>Node35&#45;&gt;Node36</title>
<g id="a_edge51_Node000035_Node000036"><a xlink:title=" ">
<path fill="none" stroke="#63b8ff" d="M1102.38,-117.62C1112.71,-108.5 1128.65,-94.45 1141.1,-83.46"/>
<polygon fill="#63b8ff" stroke="#63b8ff" points="1143.1,-86.35 1148.29,-77.11 1138.47,-81.11 1143.1,-86.35"/>
</a>
</g>
</g>
</g>
</svg>
