<?xml version="1.0" encoding="UTF-8" standalone="no"?>
<!DOCTYPE svg PUBLIC "-//W3C//DTD SVG 1.1//EN"
 "http://www.w3.org/Graphics/SVG/1.1/DTD/svg11.dtd">
<!-- Generated by graphviz version 12.2.1 (0)
 -->
<!-- Title: src/video.h Pages: 1 -->
<svg width="1898pt" height="300pt"
 viewBox="0.00 0.00 1897.88 300.00" xmlns="http://www.w3.org/2000/svg" xmlns:xlink="http://www.w3.org/1999/xlink">
<g id="graph0" class="graph" transform="scale(1 1) rotate(0) translate(4 296)">
<title>src/video.h</title>
<!-- Node1 -->
<g id="Node000001" class="node">
<title>Node1</title>
<g id="a_Node000001"><a xlink:title="Declarations for video.">
<polygon fill="#999999" stroke="#666666" points="970.38,-292 906.38,-292 906.38,-272 970.38,-272 970.38,-292"/>
<text text-anchor="middle" x="938.38" y="-278.5" font-family="Helvetica,sans-Serif" font-size="10.00">src/video.h</text>
</a>
</g>
</g>
<!-- Node2 -->
<g id="Node000002" class="node">
<title>Node2</title>
<g id="a_Node000002"><a xlink:href="main_8cpp.html" target="_top" xlink:title="Definitions for the main entry point for Sunshine.">
<polygon fill="white" stroke="#666666" points="233.5,-230 161.25,-230 161.25,-210 233.5,-210 233.5,-230"/>
<text text-anchor="middle" x="197.38" y="-216.5" font-family="Helvetica,sans-Serif" font-size="10.00">src/main.cpp</text>
</a>
</g>
</g>
<!-- Node1&#45;&gt;Node2 -->
<g id="edge1_Node000001_Node000002" class="edge">
<title>Node1&#45;&gt;Node2</title>
<g id="a_edge1_Node000001_Node000002"><a xlink:title=" ">
<path fill="none" stroke="#63b8ff" d="M894.66,-279.64C762.45,-275.31 368.25,-260.62 242.38,-236 235.59,-234.67 228.41,-232.6 221.83,-230.42"/>
<polygon fill="#63b8ff" stroke="#63b8ff" points="894.27,-283.13 904.38,-279.96 894.5,-276.14 894.27,-283.13"/>
</a>
</g>
</g>
<!-- Node3 -->
<g id="Node000003" class="node">
<title>Node3</title>
<g id="a_Node000003"><a xlink:href="nvenc__base_8h.html" target="_top" xlink:title="Declarations for abstract platform&#45;agnostic base of standalone NVENC encoder.">
<polygon fill="white" stroke="#666666" points="373.62,-230 251.12,-230 251.12,-210 373.62,-210 373.62,-230"/>
<text text-anchor="middle" x="312.38" y="-216.5" font-family="Helvetica,sans-Serif" font-size="10.00">src/nvenc/nvenc_base.h</text>
</a>
</g>
</g>
<!-- Node1&#45;&gt;Node3 -->
<g id="edge2_Node000001_Node000003" class="edge">
<title>Node1&#45;&gt;Node3</title>
<g id="a_edge2_Node000001_Node000003"><a xlink:title=" ">
<path fill="none" stroke="#63b8ff" d="M894.69,-279.16C801.23,-274.83 575.14,-262.35 387.38,-236 376.86,-234.52 365.59,-232.5 355.06,-230.43"/>
<polygon fill="#63b8ff" stroke="#63b8ff" points="894.28,-282.64 904.42,-279.6 894.59,-275.65 894.28,-282.64"/>
</a>
</g>
</g>
<!-- Node9 -->
<g id="Node000009" class="node">
<title>Node9</title>
<g id="a_Node000009"><a xlink:href="display__vram_8cpp.html" target="_top" xlink:title="Definitions for handling video ram.">
<polygon fill="white" stroke="#666666" points="437.88,-32 328.88,-32 328.88,0 437.88,0 437.88,-32"/>
<text text-anchor="start" x="336.88" y="-18.5" font-family="Helvetica,sans-Serif" font-size="10.00">src/platform/windows</text>
<text text-anchor="middle" x="383.38" y="-6.5" font-family="Helvetica,sans-Serif" font-size="10.00">/display_vram.cpp</text>
</a>
</g>
</g>
<!-- Node1&#45;&gt;Node9 -->
<g id="edge28_Node000001_Node000009" class="edge">
<title>Node1&#45;&gt;Node9</title>
<g id="a_edge28_Node000001_Node000009"><a xlink:title=" ">
<path fill="none" stroke="#63b8ff" d="M894.8,-279.23C787.64,-274.51 517.65,-260.33 485.38,-236 421.44,-187.81 458.43,-138.44 420.38,-68 413.51,-55.3 403.89,-42.13 396.18,-32.36"/>
<polygon fill="#63b8ff" stroke="#63b8ff" points="894.49,-282.72 904.63,-279.65 894.79,-275.72 894.49,-282.72"/>
</a>
</g>
</g>
<!-- Node12 -->
<g id="Node000012" class="node">
<title>Node12</title>
<g id="a_Node000012"><a xlink:href="video_8cpp.html" target="_top" xlink:title="Definitions for video.">
<polygon fill="white" stroke="#666666" points="411.62,-162 337.12,-162 337.12,-142 411.62,-142 411.62,-162"/>
<text text-anchor="middle" x="374.38" y="-148.5" font-family="Helvetica,sans-Serif" font-size="10.00">src/video.cpp</text>
</a>
</g>
</g>
<!-- Node1&#45;&gt;Node12 -->
<g id="edge34_Node000001_Node000012" class="edge">
<title>Node1&#45;&gt;Node12</title>
<g id="a_edge34_Node000001_Node000012"><a xlink:title=" ">
<path fill="none" stroke="#63b8ff" d="M894.56,-279.4C777.72,-274.82 464.85,-260.4 425.38,-236 397.61,-218.84 382.72,-180.38 377.08,-162.49"/>
<polygon fill="#63b8ff" stroke="#63b8ff" points="894.25,-282.89 904.38,-279.78 894.52,-275.9 894.25,-282.89"/>
</a>
</g>
</g>
<!-- Node13 -->
<g id="Node000013" class="node">
<title>Node13</title>
<g id="a_Node000013"><a xlink:href="nvhttp_8cpp.html" target="_top" xlink:title="Definitions for the nvhttp (GameStream) server.">
<polygon fill="white" stroke="#666666" points="711.5,-230 633.25,-230 633.25,-210 711.5,-210 711.5,-230"/>
<text text-anchor="middle" x="672.38" y="-216.5" font-family="Helvetica,sans-Serif" font-size="10.00">src/nvhttp.cpp</text>
</a>
</g>
</g>
<!-- Node1&#45;&gt;Node13 -->
<g id="edge13_Node000001_Node000013" class="edge">
<title>Node1&#45;&gt;Node13</title>
<g id="a_edge13_Node000001_Node000013"><a xlink:title=" ">
<path fill="none" stroke="#63b8ff" d="M894.81,-273.32C850.59,-265.23 780.3,-251.51 720.38,-236 714.04,-234.36 707.29,-232.39 700.92,-230.43"/>
<polygon fill="#63b8ff" stroke="#63b8ff" points="894.06,-276.75 904.52,-275.09 895.31,-269.86 894.06,-276.75"/>
</a>
</g>
</g>
<!-- Node14 -->
<g id="Node000014" class="node">
<title>Node14</title>
<g id="a_Node000014"><a xlink:href="cuda_8cpp.html" target="_top" xlink:title="Definitions for CUDA encoding.">
<polygon fill="white" stroke="#666666" points="820.88,-236 729.88,-236 729.88,-204 820.88,-204 820.88,-236"/>
<text text-anchor="start" x="737.88" y="-222.5" font-family="Helvetica,sans-Serif" font-size="10.00">src/platform/linux</text>
<text text-anchor="middle" x="775.38" y="-210.5" font-family="Helvetica,sans-Serif" font-size="10.00">/cuda.cpp</text>
</a>
</g>
</g>
<!-- Node1&#45;&gt;Node14 -->
<g id="edge14_Node000001_Node000014" class="edge">
<title>Node1&#45;&gt;Node14</title>
<g id="a_edge14_Node000001_Node000014"><a xlink:title=" ">
<path fill="none" stroke="#63b8ff" d="M902.38,-267.75C877.3,-258.52 843.77,-246.18 817.46,-236.49"/>
<polygon fill="#63b8ff" stroke="#63b8ff" points="900.89,-270.93 911.49,-271.1 903.31,-264.36 900.89,-270.93"/>
</a>
</g>
</g>
<!-- Node15 -->
<g id="Node000015" class="node">
<title>Node15</title>
<g id="a_Node000015"><a xlink:href="graphics_8cpp.html" target="_top" xlink:title="Definitions for graphics related functions.">
<polygon fill="white" stroke="#666666" points="929.88,-236 838.88,-236 838.88,-204 929.88,-204 929.88,-236"/>
<text text-anchor="start" x="846.88" y="-222.5" font-family="Helvetica,sans-Serif" font-size="10.00">src/platform/linux</text>
<text text-anchor="middle" x="884.38" y="-210.5" font-family="Helvetica,sans-Serif" font-size="10.00">/graphics.cpp</text>
</a>
</g>
</g>
<!-- Node1&#45;&gt;Node15 -->
<g id="edge15_Node000001_Node000015" class="edge">
<title>Node1&#45;&gt;Node15</title>
<g id="a_edge15_Node000001_Node000015"><a xlink:title=" ">
<path fill="none" stroke="#63b8ff" d="M922.26,-263.1C914.54,-254.51 905.38,-244.34 898,-236.14"/>
<polygon fill="#63b8ff" stroke="#63b8ff" points="919.63,-265.41 928.92,-270.5 924.84,-260.73 919.63,-265.41"/>
</a>
</g>
</g>
<!-- Node16 -->
<g id="Node000016" class="node">
<title>Node16</title>
<g id="a_Node000016"><a xlink:href="kmsgrab_8cpp.html" target="_top" xlink:title="Definitions for KMS screen capture.">
<polygon fill="white" stroke="#666666" points="1038.88,-236 947.88,-236 947.88,-204 1038.88,-204 1038.88,-236"/>
<text text-anchor="start" x="955.88" y="-222.5" font-family="Helvetica,sans-Serif" font-size="10.00">src/platform/linux</text>
<text text-anchor="middle" x="993.38" y="-210.5" font-family="Helvetica,sans-Serif" font-size="10.00">/kmsgrab.cpp</text>
</a>
</g>
</g>
<!-- Node1&#45;&gt;Node16 -->
<g id="edge16_Node000001_Node000016" class="edge">
<title>Node1&#45;&gt;Node16</title>
<g id="a_edge16_Node000001_Node000016"><a xlink:title=" ">
<path fill="none" stroke="#63b8ff" d="M954.53,-263.37C962.46,-254.73 971.9,-244.42 979.5,-236.14"/>
<polygon fill="#63b8ff" stroke="#63b8ff" points="952.17,-260.77 947.99,-270.51 957.33,-265.5 952.17,-260.77"/>
</a>
</g>
</g>
<!-- Node17 -->
<g id="Node000017" class="node">
<title>Node17</title>
<g id="a_Node000017"><a xlink:href="vaapi_8cpp.html" target="_top" xlink:title="Definitions for VA&#45;API hardware accelerated capture.">
<polygon fill="white" stroke="#666666" points="1147.88,-236 1056.88,-236 1056.88,-204 1147.88,-204 1147.88,-236"/>
<text text-anchor="start" x="1064.88" y="-222.5" font-family="Helvetica,sans-Serif" font-size="10.00">src/platform/linux</text>
<text text-anchor="middle" x="1102.38" y="-210.5" font-family="Helvetica,sans-Serif" font-size="10.00">/vaapi.cpp</text>
</a>
</g>
</g>
<!-- Node1&#45;&gt;Node17 -->
<g id="edge17_Node000001_Node000017" class="edge">
<title>Node1&#45;&gt;Node17</title>
<g id="a_edge17_Node000001_Node000017"><a xlink:title=" ">
<path fill="none" stroke="#63b8ff" d="M974.59,-267.75C999.82,-258.52 1033.56,-246.18 1060.03,-236.49"/>
<polygon fill="#63b8ff" stroke="#63b8ff" points="973.61,-264.38 965.42,-271.1 976.02,-270.96 973.61,-264.38"/>
</a>
</g>
</g>
<!-- Node18 -->
<g id="Node000018" class="node">
<title>Node18</title>
<g id="a_Node000018"><a xlink:href="wlgrab_8cpp.html" target="_top" xlink:title="Definitions for wlgrab capture.">
<polygon fill="white" stroke="#666666" points="1256.88,-236 1165.88,-236 1165.88,-204 1256.88,-204 1256.88,-236"/>
<text text-anchor="start" x="1173.88" y="-222.5" font-family="Helvetica,sans-Serif" font-size="10.00">src/platform/linux</text>
<text text-anchor="middle" x="1211.38" y="-210.5" font-family="Helvetica,sans-Serif" font-size="10.00">/wlgrab.cpp</text>
</a>
</g>
</g>
<!-- Node1&#45;&gt;Node18 -->
<g id="edge18_Node000001_Node000018" class="edge">
<title>Node1&#45;&gt;Node18</title>
<g id="a_edge18_Node000001_Node000018"><a xlink:title=" ">
<path fill="none" stroke="#63b8ff" d="M982.04,-272.94C1026.39,-264.54 1096.93,-250.59 1157.38,-236 1160.02,-235.36 1162.74,-234.68 1165.47,-233.98"/>
<polygon fill="#63b8ff" stroke="#63b8ff" points="981.48,-269.48 972.3,-274.77 982.77,-276.36 981.48,-269.48"/>
</a>
</g>
</g>
<!-- Node19 -->
<g id="Node000019" class="node">
<title>Node19</title>
<g id="a_Node000019"><a xlink:href="x11grab_8cpp.html" target="_top" xlink:title="Definitions for x11 capture.">
<polygon fill="white" stroke="#666666" points="1365.88,-236 1274.88,-236 1274.88,-204 1365.88,-204 1365.88,-236"/>
<text text-anchor="start" x="1282.88" y="-222.5" font-family="Helvetica,sans-Serif" font-size="10.00">src/platform/linux</text>
<text text-anchor="middle" x="1320.38" y="-210.5" font-family="Helvetica,sans-Serif" font-size="10.00">/x11grab.cpp</text>
</a>
</g>
</g>
<!-- Node1&#45;&gt;Node19 -->
<g id="edge19_Node000001_Node000019" class="edge">
<title>Node1&#45;&gt;Node19</title>
<g id="a_edge19_Node000001_Node000019"><a xlink:title=" ">
<path fill="none" stroke="#63b8ff" d="M981.84,-276.92C1044.95,-270.57 1165.43,-256.85 1266.38,-236 1269.04,-235.45 1271.77,-234.84 1274.52,-234.19"/>
<polygon fill="#63b8ff" stroke="#63b8ff" points="981.86,-273.4 972.25,-277.87 982.55,-280.37 981.86,-273.4"/>
</a>
</g>
</g>
<!-- Node20 -->
<g id="Node000020" class="node">
<title>Node20</title>
<g id="a_Node000020"><a xlink:href="display_8mm.html" target="_top" xlink:title="Definitions for display capture on macOS.">
<polygon fill="white" stroke="#666666" points="1484.38,-236 1384.38,-236 1384.38,-204 1484.38,-204 1484.38,-236"/>
<text text-anchor="start" x="1392.38" y="-222.5" font-family="Helvetica,sans-Serif" font-size="10.00">src/platform/macos</text>
<text text-anchor="middle" x="1434.38" y="-210.5" font-family="Helvetica,sans-Serif" font-size="10.00">/display.mm</text>
</a>
</g>
</g>
<!-- Node1&#45;&gt;Node20 -->
<g id="edge20_Node000001_Node000020" class="edge">
<title>Node1&#45;&gt;Node20</title>
<g id="a_edge20_Node000001_Node000020"><a xlink:title=" ">
<path fill="none" stroke="#63b8ff" d="M982.09,-278.62C1061.09,-273.85 1232.7,-261.34 1375.38,-236 1378.18,-235.5 1381.06,-234.94 1383.95,-234.34"/>
<polygon fill="#63b8ff" stroke="#63b8ff" points="981.96,-275.12 972.18,-279.21 982.37,-282.11 981.96,-275.12"/>
</a>
</g>
</g>
<!-- Node21 -->
<g id="Node000021" class="node">
<title>Node21</title>
<g id="a_Node000021"><a xlink:href="nv12__zero__device_8cpp.html" target="_top" xlink:title="Definitions for NV12 zero copy device on macOS.">
<polygon fill="white" stroke="#666666" points="1618.62,-236 1502.12,-236 1502.12,-204 1618.62,-204 1618.62,-236"/>
<text text-anchor="start" x="1510.12" y="-222.5" font-family="Helvetica,sans-Serif" font-size="10.00">src/platform/macos</text>
<text text-anchor="middle" x="1560.38" y="-210.5" font-family="Helvetica,sans-Serif" font-size="10.00">/nv12_zero_device.cpp</text>
</a>
</g>
</g>
<!-- Node1&#45;&gt;Node21 -->
<g id="edge21_Node000001_Node000021" class="edge">
<title>Node1&#45;&gt;Node21</title>
<g id="a_edge21_Node000001_Node000021"><a xlink:title=" ">
<path fill="none" stroke="#63b8ff" d="M982.09,-279.53C1076.1,-275.91 1304.33,-264.68 1493.38,-236 1496.09,-235.59 1498.85,-235.13 1501.64,-234.64"/>
<polygon fill="#63b8ff" stroke="#63b8ff" points="982.15,-276.02 972.29,-279.89 982.41,-283.02 982.15,-276.02"/>
</a>
</g>
</g>
<!-- Node22 -->
<g id="Node000022" class="node">
<title>Node22</title>
<g id="a_Node000022"><a xlink:href="display_8h.html" target="_top" xlink:title="Declarations for the Windows display backend.">
<polygon fill="white" stroke="#666666" points="614.88,-236 505.88,-236 505.88,-204 614.88,-204 614.88,-236"/>
<text text-anchor="start" x="513.88" y="-222.5" font-family="Helvetica,sans-Serif" font-size="10.00">src/platform/windows</text>
<text text-anchor="middle" x="560.38" y="-210.5" font-family="Helvetica,sans-Serif" font-size="10.00">/display.h</text>
</a>
</g>
</g>
<!-- Node1&#45;&gt;Node22 -->
<g id="edge22_Node000001_Node000022" class="edge">
<title>Node1&#45;&gt;Node22</title>
<g id="a_edge22_Node000001_Node000022"><a xlink:title=" ">
<path fill="none" stroke="#63b8ff" d="M895.06,-276.01C834.31,-268.75 720.47,-254.11 624.38,-236 621.35,-235.43 618.25,-234.81 615.12,-234.16"/>
<polygon fill="#63b8ff" stroke="#63b8ff" points="894.28,-279.45 904.62,-277.15 895.11,-272.5 894.28,-279.45"/>
</a>
</g>
</g>
<!-- Node23 -->
<g id="Node000023" class="node">
<title>Node23</title>
<g id="a_Node000023"><a xlink:href="display__base_8cpp.html" target="_top" xlink:title="Definitions for the Windows display base code.">
<polygon fill="white" stroke="#666666" points="576.88,-168 467.88,-168 467.88,-136 576.88,-136 576.88,-168"/>
<text text-anchor="start" x="475.88" y="-154.5" font-family="Helvetica,sans-Serif" font-size="10.00">src/platform/windows</text>
<text text-anchor="middle" x="522.38" y="-142.5" font-family="Helvetica,sans-Serif" font-size="10.00">/display_base.cpp</text>
</a>
</g>
</g>
<!-- Node1&#45;&gt;Node23 -->
<g id="edge27_Node000001_Node000023" class="edge">
<title>Node1&#45;&gt;Node23</title>
<g id="a_edge27_Node000001_Node000023"><a xlink:title=" ">
<path fill="none" stroke="#63b8ff" d="M894.87,-279.81C788.65,-276.47 522.79,-265.24 496.38,-236 479.17,-216.95 496.28,-186.6 509.72,-168.36"/>
<polygon fill="#63b8ff" stroke="#63b8ff" points="894.51,-283.3 904.61,-280.11 894.72,-276.31 894.51,-283.3"/>
</a>
</g>
</g>
<!-- Node26 -->
<g id="Node000026" class="node">
<title>Node26</title>
<g id="a_Node000026"><a xlink:href="rtsp_8cpp.html" target="_top" xlink:title="Definitions for RTSP streaming.">
<polygon fill="white" stroke="#666666" points="1667.25,-162 1599.5,-162 1599.5,-142 1667.25,-142 1667.25,-162"/>
<text text-anchor="middle" x="1633.38" y="-148.5" font-family="Helvetica,sans-Serif" font-size="10.00">src/rtsp.cpp</text>
</a>
</g>
</g>
<!-- Node1&#45;&gt;Node26 -->
<g id="edge29_Node000001_Node000026" class="edge">
<title>Node1&#45;&gt;Node26</title>
<g id="a_edge29_Node000001_Node000026"><a xlink:title=" ">
<path fill="none" stroke="#63b8ff" d="M982.3,-281.4C1126.94,-282.28 1581.67,-281.39 1627.38,-236 1647.06,-216.45 1640.59,-179.54 1636.13,-162.3"/>
<polygon fill="#63b8ff" stroke="#63b8ff" points="982.39,-277.9 972.37,-281.33 982.34,-284.9 982.39,-277.9"/>
</a>
</g>
</g>
<!-- Node27 -->
<g id="Node000027" class="node">
<title>Node27</title>
<g id="a_Node000027"><a xlink:href="stream_8h.html" target="_top" xlink:title="Declarations for the streaming protocols.">
<polygon fill="white" stroke="#666666" points="1744.75,-230 1674,-230 1674,-210 1744.75,-210 1744.75,-230"/>
<text text-anchor="middle" x="1709.38" y="-216.5" font-family="Helvetica,sans-Serif" font-size="10.00">src/stream.h</text>
</a>
</g>
</g>
<!-- Node1&#45;&gt;Node27 -->
<g id="edge30_Node000001_Node000027" class="edge">
<title>Node1&#45;&gt;Node27</title>
<g id="a_edge30_Node000001_Node000027"><a xlink:title=" ">
<path fill="none" stroke="#63b8ff" d="M981.89,-279.63C1117.12,-275.15 1528.9,-259.88 1660.38,-236 1667.64,-234.68 1675.35,-232.64 1682.44,-230.48"/>
<polygon fill="#63b8ff" stroke="#63b8ff" points="982.17,-276.12 972.29,-279.94 982.4,-283.11 982.17,-276.12"/>
</a>
</g>
</g>
<!-- Node30 -->
<g id="Node000030" class="node">
<title>Node30</title>
<g id="a_Node000030"><a xlink:href="video__colorspace_8cpp.html" target="_top" xlink:title="Definitions for colorspace functions.">
<polygon fill="white" stroke="#666666" points="1889.88,-230 1762.88,-230 1762.88,-210 1889.88,-210 1889.88,-230"/>
<text text-anchor="middle" x="1826.38" y="-216.5" font-family="Helvetica,sans-Serif" font-size="10.00">src/video_colorspace.cpp</text>
</a>
</g>
</g>
<!-- Node1&#45;&gt;Node30 -->
<g id="edge35_Node000001_Node000030" class="edge">
<title>Node1&#45;&gt;Node30</title>
<g id="a_edge35_Node000001_Node000030"><a xlink:title=" ">
<path fill="none" stroke="#63b8ff" d="M982.2,-280.85C1104.66,-279.93 1460.63,-273.95 1753.38,-236 1763.9,-234.64 1775.17,-232.61 1785.63,-230.48"/>
<polygon fill="#63b8ff" stroke="#63b8ff" points="982.25,-277.35 972.27,-280.91 982.29,-284.35 982.25,-277.35"/>
</a>
</g>
</g>
<!-- Node4 -->
<g id="Node000004" class="node">
<title>Node4</title>
<g id="a_Node000004"><a xlink:href="nvenc__base_8cpp.html" target="_top" xlink:title="Definitions for abstract platform&#45;agnostic base of standalone NVENC encoder.">
<polygon fill="white" stroke="#666666" points="318.88,-162 185.88,-162 185.88,-142 318.88,-142 318.88,-162"/>
<text text-anchor="middle" x="252.38" y="-148.5" font-family="Helvetica,sans-Serif" font-size="10.00">src/nvenc/nvenc_base.cpp</text>
</a>
</g>
</g>
<!-- Node3&#45;&gt;Node4 -->
<g id="edge3_Node000003_Node000004" class="edge">
<title>Node3&#45;&gt;Node4</title>
<g id="a_edge3_Node000003_Node000004"><a xlink:title=" ">
<path fill="none" stroke="#63b8ff" d="M296.24,-201.25C284.88,-188.76 270.13,-172.53 260.96,-162.44"/>
<polygon fill="#63b8ff" stroke="#63b8ff" points="293.44,-203.38 302.76,-208.42 298.62,-198.67 293.44,-203.38"/>
</a>
</g>
</g>
<!-- Node5 -->
<g id="Node000005" class="node">
<title>Node5</title>
<g id="a_Node000005"><a xlink:href="nvenc__d3d11_8h.html" target="_top" xlink:title="Declarations for abstract Direct3D11 NVENC encoder.">
<polygon fill="white" stroke="#666666" points="167.88,-162 40.87,-162 40.87,-142 167.88,-142 167.88,-162"/>
<text text-anchor="middle" x="104.38" y="-148.5" font-family="Helvetica,sans-Serif" font-size="10.00">src/nvenc/nvenc_d3d11.h</text>
</a>
</g>
</g>
<!-- Node3&#45;&gt;Node5 -->
<g id="edge4_Node000003_Node000005" class="edge">
<title>Node3&#45;&gt;Node5</title>
<g id="a_edge4_Node000003_Node000005"><a xlink:title=" ">
<path fill="none" stroke="#63b8ff" d="M271.76,-206.11C231.33,-193.28 170.24,-173.9 134.12,-162.44"/>
<polygon fill="#63b8ff" stroke="#63b8ff" points="270.54,-209.4 281.13,-209.09 272.66,-202.73 270.54,-209.4"/>
</a>
</g>
</g>
<!-- Node3&#45;&gt;Node12 -->
<g id="edge12_Node000003_Node000012" class="edge">
<title>Node3&#45;&gt;Node12</title>
<g id="a_edge12_Node000003_Node000012"><a xlink:title=" ">
<path fill="none" stroke="#63b8ff" d="M329.05,-201.25C340.79,-188.76 356.03,-172.53 365.51,-162.44"/>
<polygon fill="#63b8ff" stroke="#63b8ff" points="326.59,-198.76 322.29,-208.44 331.69,-203.55 326.59,-198.76"/>
</a>
</g>
</g>
<!-- Node6 -->
<g id="Node000006" class="node">
<title>Node6</title>
<g id="a_Node000006"><a xlink:href="nvenc__d3d11_8cpp.html" target="_top" xlink:title="Definitions for abstract Direct3D11 NVENC encoder.">
<polygon fill="white" stroke="#666666" points="411.12,-94 273.62,-94 273.62,-74 411.12,-74 411.12,-94"/>
<text text-anchor="middle" x="342.38" y="-80.5" font-family="Helvetica,sans-Serif" font-size="10.00">src/nvenc/nvenc_d3d11.cpp</text>
</a>
</g>
</g>
<!-- Node5&#45;&gt;Node6 -->
<g id="edge5_Node000005_Node000006" class="edge">
<title>Node5&#45;&gt;Node6</title>
<g id="a_edge5_Node000005_Node000006"><a xlink:title=" ">
<path fill="none" stroke="#63b8ff" d="M149.38,-138.52C195.62,-125.7 266.57,-106.02 308.34,-94.44"/>
<polygon fill="#63b8ff" stroke="#63b8ff" points="148.63,-135.09 139.93,-141.14 150.5,-141.84 148.63,-135.09"/>
</a>
</g>
</g>
<!-- Node7 -->
<g id="Node000007" class="node">
<title>Node7</title>
<g id="a_Node000007"><a xlink:href="nvenc__d3d11__native_8h.html" target="_top" xlink:title="Declarations for native Direct3D11 NVENC encoder.">
<polygon fill="white" stroke="#666666" points="255.75,-100 137,-100 137,-68 255.75,-68 255.75,-100"/>
<text text-anchor="start" x="145" y="-86.5" font-family="Helvetica,sans-Serif" font-size="10.00">src/nvenc/nvenc_d3d11</text>
<text text-anchor="middle" x="196.38" y="-74.5" font-family="Helvetica,sans-Serif" font-size="10.00">_native.h</text>
</a>
</g>
</g>
<!-- Node5&#45;&gt;Node7 -->
<g id="edge6_Node000005_Node000007" class="edge">
<title>Node5&#45;&gt;Node7</title>
<g id="a_edge6_Node000005_Node000007"><a xlink:title=" ">
<path fill="none" stroke="#63b8ff" d="M126.49,-135.14C141.22,-124.57 160.48,-110.75 175.05,-100.3"/>
<polygon fill="#63b8ff" stroke="#63b8ff" points="124.87,-131.99 118.79,-140.66 128.95,-137.68 124.87,-131.99"/>
</a>
</g>
</g>
<!-- Node10 -->
<g id="Node000010" class="node">
<title>Node10</title>
<g id="a_Node000010"><a xlink:href="nvenc__d3d11__on__cuda_8h.html" target="_top" xlink:title="Declarations for CUDA NVENC encoder with Direct3D11 input surfaces.">
<polygon fill="white" stroke="#666666" points="118.75,-100 0,-100 0,-68 118.75,-68 118.75,-100"/>
<text text-anchor="start" x="8" y="-86.5" font-family="Helvetica,sans-Serif" font-size="10.00">src/nvenc/nvenc_d3d11</text>
<text text-anchor="middle" x="59.38" y="-74.5" font-family="Helvetica,sans-Serif" font-size="10.00">_on_cuda.h</text>
</a>
</g>
</g>
<!-- Node5&#45;&gt;Node10 -->
<g id="edge9_Node000005_Node000010" class="edge">
<title>Node5&#45;&gt;Node10</title>
<g id="a_edge9_Node000005_Node000010"><a xlink:title=" ">
<path fill="none" stroke="#63b8ff" d="M91.44,-132.03C84.58,-121.97 76.25,-109.76 69.81,-100.3"/>
<polygon fill="#63b8ff" stroke="#63b8ff" points="88.55,-134 97.07,-140.29 94.33,-130.06 88.55,-134"/>
</a>
</g>
</g>
<!-- Node8 -->
<g id="Node000008" class="node">
<title>Node8</title>
<g id="a_Node000008"><a xlink:href="nvenc__d3d11__native_8cpp.html" target="_top" xlink:title="Definitions for native Direct3D11 NVENC encoder.">
<polygon fill="white" stroke="#666666" points="255.75,-32 137,-32 137,0 255.75,0 255.75,-32"/>
<text text-anchor="start" x="145" y="-18.5" font-family="Helvetica,sans-Serif" font-size="10.00">src/nvenc/nvenc_d3d11</text>
<text text-anchor="middle" x="196.38" y="-6.5" font-family="Helvetica,sans-Serif" font-size="10.00">_native.cpp</text>
</a>
</g>
</g>
<!-- Node7&#45;&gt;Node8 -->
<g id="edge7_Node000007_Node000008" class="edge">
<title>Node7&#45;&gt;Node8</title>
<g id="a_edge7_Node000007_Node000008"><a xlink:title=" ">
<path fill="none" stroke="#63b8ff" d="M196.38,-56.31C196.38,-48.12 196.38,-39.38 196.38,-32.22"/>
<polygon fill="#63b8ff" stroke="#63b8ff" points="192.88,-56.18 196.38,-66.18 199.88,-56.18 192.88,-56.18"/>
</a>
</g>
</g>
<!-- Node7&#45;&gt;Node9 -->
<g id="edge8_Node000007_Node000009" class="edge">
<title>Node7&#45;&gt;Node9</title>
<g id="a_edge8_Node000007_Node000009"><a xlink:title=" ">
<path fill="none" stroke="#63b8ff" d="M250.72,-63.82C278.94,-53.86 312.96,-41.85 339.48,-32.49"/>
<polygon fill="#63b8ff" stroke="#63b8ff" points="249.91,-60.39 241.65,-67.02 252.24,-66.99 249.91,-60.39"/>
</a>
</g>
</g>
<!-- Node10&#45;&gt;Node9 -->
<g id="edge11_Node000010_Node000009" class="edge">
<title>Node10&#45;&gt;Node9</title>
<g id="a_edge11_Node000010_Node000009"><a xlink:title=" ">
<path fill="none" stroke="#63b8ff" d="M130.19,-67.64C204.72,-52.14 279.35,-37.35 328.6,-27.68"/>
<polygon fill="#63b8ff" stroke="#63b8ff" points="129.76,-64.16 120.68,-69.62 131.19,-71.01 129.76,-64.16"/>
</a>
</g>
</g>
<!-- Node11 -->
<g id="Node000011" class="node">
<title>Node11</title>
<g id="a_Node000011"><a xlink:href="nvenc__d3d11__on__cuda_8cpp.html" target="_top" xlink:title="Definitions for CUDA NVENC encoder with Direct3D11 input surfaces.">
<polygon fill="white" stroke="#666666" points="118.75,-32 0,-32 0,0 118.75,0 118.75,-32"/>
<text text-anchor="start" x="8" y="-18.5" font-family="Helvetica,sans-Serif" font-size="10.00">src/nvenc/nvenc_d3d11</text>
<text text-anchor="middle" x="59.38" y="-6.5" font-family="Helvetica,sans-Serif" font-size="10.00">_on_cuda.cpp</text>
</a>
</g>
</g>
<!-- Node10&#45;&gt;Node11 -->
<g id="edge10_Node000010_Node000011" class="edge">
<title>Node10&#45;&gt;Node11</title>
<g id="a_edge10_Node000010_Node000011"><a xlink:title=" ">
<path fill="none" stroke="#63b8ff" d="M59.38,-56.31C59.38,-48.12 59.38,-39.38 59.38,-32.22"/>
<polygon fill="#63b8ff" stroke="#63b8ff" points="55.88,-56.18 59.38,-66.18 62.88,-56.18 55.88,-56.18"/>
</a>
</g>
</g>
<!-- Node22&#45;&gt;Node9 -->
<g id="edge25_Node000022_Node000009" class="edge">
<title>Node22&#45;&gt;Node9</title>
<g id="a_edge25_Node000022_Node000009"><a xlink:title=" ">
<path fill="none" stroke="#63b8ff" d="M626.44,-203.87C735.01,-186.25 899.82,-212.91 840.38,-136 791.11,-72.27 548.22,-36.26 437.98,-22.97"/>
<polygon fill="#63b8ff" stroke="#63b8ff" points="625.84,-200.42 616.63,-205.65 627.09,-207.31 625.84,-200.42"/>
</a>
</g>
</g>
<!-- Node22&#45;&gt;Node23 -->
<g id="edge23_Node000022_Node000023" class="edge">
<title>Node22&#45;&gt;Node23</title>
<g id="a_edge23_Node000022_Node000023"><a xlink:title=" ">
<path fill="none" stroke="#63b8ff" d="M545.83,-193.74C540.88,-185.14 535.5,-175.79 531.14,-168.22"/>
<polygon fill="#63b8ff" stroke="#63b8ff" points="542.78,-195.46 550.81,-202.38 548.85,-191.97 542.78,-195.46"/>
</a>
</g>
</g>
<!-- Node24 -->
<g id="Node000024" class="node">
<title>Node24</title>
<g id="a_Node000024"><a xlink:href="display__ram_8cpp.html" target="_top" xlink:title="Definitions for handling ram.">
<polygon fill="white" stroke="#666666" points="703.88,-168 594.88,-168 594.88,-136 703.88,-136 703.88,-168"/>
<text text-anchor="start" x="602.88" y="-154.5" font-family="Helvetica,sans-Serif" font-size="10.00">src/platform/windows</text>
<text text-anchor="middle" x="649.38" y="-142.5" font-family="Helvetica,sans-Serif" font-size="10.00">/display_ram.cpp</text>
</a>
</g>
</g>
<!-- Node22&#45;&gt;Node24 -->
<g id="edge24_Node000022_Node000024" class="edge">
<title>Node22&#45;&gt;Node24</title>
<g id="a_edge24_Node000022_Node000024"><a xlink:title=" ">
<path fill="none" stroke="#63b8ff" d="M590.21,-196.87C602.79,-187.55 617.13,-176.91 628.54,-168.45"/>
<polygon fill="#63b8ff" stroke="#63b8ff" points="588.18,-194.02 582.23,-202.79 592.35,-199.65 588.18,-194.02"/>
</a>
</g>
</g>
<!-- Node25 -->
<g id="Node000025" class="node">
<title>Node25</title>
<g id="a_Node000025"><a xlink:href="display__wgc_8cpp.html" target="_top" xlink:title="Definitions for WinRT Windows.Graphics.Capture API.">
<polygon fill="white" stroke="#666666" points="830.88,-168 721.88,-168 721.88,-136 830.88,-136 830.88,-168"/>
<text text-anchor="start" x="729.88" y="-154.5" font-family="Helvetica,sans-Serif" font-size="10.00">src/platform/windows</text>
<text text-anchor="middle" x="776.38" y="-142.5" font-family="Helvetica,sans-Serif" font-size="10.00">/display_wgc.cpp</text>
</a>
</g>
</g>
<!-- Node22&#45;&gt;Node25 -->
<g id="edge26_Node000022_Node000025" class="edge">
<title>Node22&#45;&gt;Node25</title>
<g id="a_edge26_Node000022_Node000025"><a xlink:title=" ">
<path fill="none" stroke="#63b8ff" d="M621.86,-200.21C654.7,-190.18 694.63,-177.98 725.68,-168.49"/>
<polygon fill="#63b8ff" stroke="#63b8ff" points="621.01,-196.81 612.46,-203.08 623.05,-203.51 621.01,-196.81"/>
</a>
</g>
</g>
<!-- Node27&#45;&gt;Node26 -->
<g id="edge31_Node000027_Node000026" class="edge">
<title>Node27&#45;&gt;Node26</title>
<g id="a_edge31_Node000027_Node000026"><a xlink:title=" ">
<path fill="none" stroke="#63b8ff" d="M1690.18,-202.33C1675.64,-189.71 1656.2,-172.82 1644.24,-162.44"/>
<polygon fill="#63b8ff" stroke="#63b8ff" points="1687.5,-204.64 1697.34,-208.55 1692.09,-199.35 1687.5,-204.64"/>
</a>
</g>
</g>
<!-- Node28 -->
<g id="Node000028" class="node">
<title>Node28</title>
<g id="a_Node000028"><a xlink:href="stream_8cpp.html" target="_top" xlink:title="Definitions for the streaming protocols.">
<polygon fill="white" stroke="#666666" points="1857,-162 1775.75,-162 1775.75,-142 1857,-142 1857,-162"/>
<text text-anchor="middle" x="1816.38" y="-148.5" font-family="Helvetica,sans-Serif" font-size="10.00">src/stream.cpp</text>
</a>
</g>
</g>
<!-- Node27&#45;&gt;Node28 -->
<g id="edge32_Node000027_Node000028" class="edge">
<title>Node27&#45;&gt;Node28</title>
<g id="a_edge32_Node000027_Node000028"><a xlink:title=" ">
<path fill="none" stroke="#63b8ff" d="M1734.39,-203.57C1755.04,-190.83 1783.68,-173.16 1801.07,-162.44"/>
<polygon fill="#63b8ff" stroke="#63b8ff" points="1732.67,-200.52 1725.99,-208.75 1736.34,-206.48 1732.67,-200.52"/>
</a>
</g>
</g>
<!-- Node29 -->
<g id="Node000029" class="node">
<title>Node29</title>
<g id="a_Node000029"><a xlink:href="upnp_8cpp.html" target="_top" xlink:title="Definitions for UPnP port mapping.">
<polygon fill="white" stroke="#666666" points="1757.5,-162 1685.25,-162 1685.25,-142 1757.5,-142 1757.5,-162"/>
<text text-anchor="middle" x="1721.38" y="-148.5" font-family="Helvetica,sans-Serif" font-size="10.00">src/upnp.cpp</text>
</a>
</g>
</g>
<!-- Node27&#45;&gt;Node29 -->
<g id="edge33_Node000027_Node000029" class="edge">
<title>Node27&#45;&gt;Node29</title>
<g id="a_edge33_Node000027_Node000029"><a xlink:title=" ">
<path fill="none" stroke="#63b8ff" d="M1713.14,-198.28C1715.33,-186.27 1717.97,-171.74 1719.66,-162.44"/>
<polygon fill="#63b8ff" stroke="#63b8ff" points="1709.71,-197.59 1711.37,-208.05 1716.6,-198.84 1709.71,-197.59"/>
</a>
</g>
</g>
</g>
</svg>
