<?xml version="1.0" encoding="UTF-8" standalone="no"?>
<!DOCTYPE svg PUBLIC "-//W3C//DTD SVG 1.1//EN"
 "http://www.w3.org/Graphics/SVG/1.1/DTD/svg11.dtd">
<!-- Generated by graphviz version 12.2.1 (0)
 -->
<!-- Title: src/video.h Pages: 1 -->
<svg width="1414pt" height="320pt"
 viewBox="0.00 0.00 1413.75 320.00" xmlns="http://www.w3.org/2000/svg" xmlns:xlink="http://www.w3.org/1999/xlink">
<g id="graph0" class="graph" transform="scale(1 1) rotate(0) translate(4 316)">
<title>src/video.h</title>
<!-- Node1 -->
<g id="Node000001" class="node">
<title>Node1</title>
<g id="a_Node000001"><a xlink:title="Declarations for video.">
<polygon fill="#999999" stroke="#666666" points="890.5,-312 826.5,-312 826.5,-292 890.5,-292 890.5,-312"/>
<text text-anchor="middle" x="858.5" y="-298.5" font-family="Helvetica,sans-Serif" font-size="10.00">src/video.h</text>
</a>
</g>
</g>
<!-- Node2 -->
<g id="Node000002" class="node">
<title>Node2</title>
<g id="a_Node000002"><a xlink:href="input_8h.html" target="_top" xlink:title="Declarations for gamepad, keyboard, and mouse input handling.">
<polygon fill="white" stroke="#666666" points="778.12,-256 732.88,-256 732.88,-236 778.12,-236 778.12,-256"/>
<text text-anchor="middle" x="755.5" y="-242.5" font-family="Helvetica,sans-Serif" font-size="10.00">input.h</text>
</a>
</g>
</g>
<!-- Node1&#45;&gt;Node2 -->
<g id="edge1_Node000001_Node000002" class="edge">
<title>Node1&#45;&gt;Node2</title>
<g id="a_edge1_Node000001_Node000002"><a xlink:title=" ">
<path fill="none" stroke="#63b8ff" d="M840.56,-291.59C824.85,-283.36 801.77,-271.26 783.61,-261.74"/>
<polygon fill="#63b8ff" stroke="#63b8ff" points="785.4,-258.73 774.92,-257.18 782.15,-264.93 785.4,-258.73"/>
</a>
</g>
</g>
<!-- Node4 -->
<g id="Node000004" class="node">
<title>Node4</title>
<g id="a_Node000004"><a xlink:href="common_8h.html" target="_top" xlink:title="Declarations for common platform specific utilities.">
<polygon fill="white" stroke="#666666" points="850.5,-200 750.5,-200 750.5,-180 850.5,-180 850.5,-200"/>
<text text-anchor="middle" x="800.5" y="-186.5" font-family="Helvetica,sans-Serif" font-size="10.00">platform/common.h</text>
</a>
</g>
</g>
<!-- Node1&#45;&gt;Node4 -->
<g id="edge52_Node000001_Node000004" class="edge">
<title>Node1&#45;&gt;Node4</title>
<g id="a_edge52_Node000001_Node000004"><a xlink:title=" ">
<path fill="none" stroke="#63b8ff" d="M853.55,-291.62C844.1,-273.68 823.26,-234.17 810.7,-210.35"/>
<polygon fill="#63b8ff" stroke="#63b8ff" points="813.9,-208.91 806.14,-201.69 807.71,-212.17 813.9,-208.91"/>
</a>
</g>
</g>
<!-- Node22 -->
<g id="Node000022" class="node">
<title>Node22</title>
<g id="a_Node000022"><a xlink:href="thread__safe_8h.html" target="_top" xlink:title="Declarations for thread&#45;safe data structures.">
<polygon fill="white" stroke="#666666" points="567.38,-138 475.62,-138 475.62,-118 567.38,-118 567.38,-138"/>
<text text-anchor="middle" x="521.5" y="-124.5" font-family="Helvetica,sans-Serif" font-size="10.00">src/thread_safe.h</text>
</a>
</g>
</g>
<!-- Node1&#45;&gt;Node22 -->
<g id="edge53_Node000001_Node000022" class="edge">
<title>Node1&#45;&gt;Node22</title>
<g id="a_edge53_Node000001_Node000022"><a xlink:title=" ">
<path fill="none" stroke="#63b8ff" d="M826.27,-292C798.54,-283.85 757.72,-270.87 723.5,-256 675.71,-235.24 664.65,-227.68 620.5,-200 592.75,-182.6 562.35,-160.28 542.66,-145.35"/>
<polygon fill="#63b8ff" stroke="#63b8ff" points="544.94,-142.68 534.86,-139.39 540.69,-148.24 544.94,-142.68"/>
</a>
</g>
</g>
<!-- Node34 -->
<g id="Node000034" class="node">
<title>Node34</title>
<g id="a_Node000034"><a xlink:href="video__colorspace_8h.html" target="_top" xlink:title="Declarations for colorspace functions.">
<polygon fill="white" stroke="#666666" points="1405.75,-138 1289.25,-138 1289.25,-118 1405.75,-118 1405.75,-138"/>
<text text-anchor="middle" x="1347.5" y="-124.5" font-family="Helvetica,sans-Serif" font-size="10.00">src/video_colorspace.h</text>
</a>
</g>
</g>
<!-- Node1&#45;&gt;Node34 -->
<g id="edge54_Node000001_Node000034" class="edge">
<title>Node1&#45;&gt;Node34</title>
<g id="a_edge54_Node000001_Node000034"><a xlink:title=" ">
<path fill="none" stroke="#63b8ff" d="M861.38,-291.86C866.36,-277.62 877.96,-250.3 897.5,-236 957.58,-192.02 1166.74,-155.61 1277.47,-138.88"/>
<polygon fill="#63b8ff" stroke="#63b8ff" points="1277.98,-142.35 1287.35,-137.4 1276.95,-135.42 1277.98,-142.35"/>
</a>
</g>
</g>
<!-- Node37 -->
<g id="Node000037" class="node">
<title>Node37</title>
<g id="a_Node000037"><a xlink:title=" ">
<polygon fill="#e0e0e0" stroke="#999999" points="1016.75,-256 906.25,-256 906.25,-236 1016.75,-236 1016.75,-256"/>
<text text-anchor="middle" x="961.5" y="-242.5" font-family="Helvetica,sans-Serif" font-size="10.00">libavcodec/avcodec.h</text>
</a>
</g>
</g>
<!-- Node1&#45;&gt;Node37 -->
<g id="edge55_Node000001_Node000037" class="edge">
<title>Node1&#45;&gt;Node37</title>
<g id="a_edge55_Node000001_Node000037"><a xlink:title=" ">
<path fill="none" stroke="#63b8ff" d="M876.44,-291.59C892.15,-283.36 915.23,-271.26 933.39,-261.74"/>
<polygon fill="#63b8ff" stroke="#63b8ff" points="934.85,-264.93 942.08,-257.18 931.6,-258.73 934.85,-264.93"/>
</a>
</g>
</g>
<!-- Node38 -->
<g id="Node000038" class="node">
<title>Node38</title>
<g id="a_Node000038"><a xlink:title=" ">
<polygon fill="#e0e0e0" stroke="#999999" points="1144,-256 1035,-256 1035,-236 1144,-236 1144,-256"/>
<text text-anchor="middle" x="1089.5" y="-242.5" font-family="Helvetica,sans-Serif" font-size="10.00">libswscale/swscale.h</text>
</a>
</g>
</g>
<!-- Node1&#45;&gt;Node38 -->
<g id="edge56_Node000001_Node000038" class="edge">
<title>Node1&#45;&gt;Node38</title>
<g id="a_edge56_Node000001_Node000038"><a xlink:title=" ">
<path fill="none" stroke="#63b8ff" d="M890.62,-293.49C928.79,-284.57 992.98,-269.56 1038.08,-259.02"/>
<polygon fill="#63b8ff" stroke="#63b8ff" points="1038.7,-262.47 1047.64,-256.79 1037.11,-255.65 1038.7,-262.47"/>
</a>
</g>
</g>
<!-- Node3 -->
<g id="Node000003" class="node">
<title>Node3</title>
<g id="a_Node000003"><a xlink:title=" ">
<polygon fill="#e0e0e0" stroke="#999999" points="1152.5,-20 1094.5,-20 1094.5,0 1152.5,0 1152.5,-20"/>
<text text-anchor="middle" x="1123.5" y="-6.5" font-family="Helvetica,sans-Serif" font-size="10.00">functional</text>
</a>
</g>
</g>
<!-- Node2&#45;&gt;Node3 -->
<g id="edge2_Node000002_Node000003" class="edge">
<title>Node2&#45;&gt;Node3</title>
<g id="a_edge2_Node000002_Node000003"><a xlink:title=" ">
<path fill="none" stroke="#63b8ff" d="M750.92,-235.75C740.27,-212.82 716.6,-152.29 741.5,-112 742.41,-110.52 851.84,-56.53 853.5,-56 949.51,-25.37 980.95,-39.02 1082.99,-20.32"/>
<polygon fill="#63b8ff" stroke="#63b8ff" points="1083.43,-23.79 1092.6,-18.49 1082.13,-16.92 1083.43,-23.79"/>
</a>
</g>
</g>
<!-- Node2&#45;&gt;Node4 -->
<g id="edge3_Node000002_Node000004" class="edge">
<title>Node2&#45;&gt;Node4</title>
<g id="a_edge3_Node000002_Node000004"><a xlink:title=" ">
<path fill="none" stroke="#63b8ff" d="M763.34,-235.59C769.47,-228.24 778.17,-217.8 785.61,-208.87"/>
<polygon fill="#63b8ff" stroke="#63b8ff" points="788.07,-211.38 791.78,-201.46 782.69,-206.9 788.07,-211.38"/>
</a>
</g>
</g>
<!-- Node2&#45;&gt;Node22 -->
<g id="edge51_Node000002_Node000022" class="edge">
<title>Node2&#45;&gt;Node22</title>
<g id="a_edge51_Node000002_Node000022"><a xlink:title=" ">
<path fill="none" stroke="#63b8ff" d="M736.35,-235.51C695.46,-215.23 599.36,-167.6 550.76,-143.5"/>
<polygon fill="#63b8ff" stroke="#63b8ff" points="552.46,-140.44 541.94,-139.13 549.35,-146.71 552.46,-140.44"/>
</a>
</g>
</g>
<!-- Node4&#45;&gt;Node3 -->
<g id="edge6_Node000004_Node000003" class="edge">
<title>Node4&#45;&gt;Node3</title>
<g id="a_edge6_Node000004_Node000003"><a xlink:title=" ">
<path fill="none" stroke="#63b8ff" d="M850.79,-181.78C855.42,-181.16 860.05,-180.56 864.5,-180 937.04,-170.91 1142.72,-198.45 1191.5,-144 1200.99,-133.41 1197.92,-124.69 1191.5,-112 1179.3,-87.89 1158,-98.14 1142.5,-76 1133.21,-62.73 1128.41,-44.91 1125.97,-31.28"/>
<polygon fill="#63b8ff" stroke="#63b8ff" points="1129.48,-31.07 1124.54,-21.7 1122.55,-32.1 1129.48,-31.07"/>
</a>
</g>
</g>
<!-- Node5 -->
<g id="Node000005" class="node">
<title>Node5</title>
<g id="a_Node000005"><a xlink:title=" ">
<polygon fill="#e0e0e0" stroke="#999999" points="1210.5,-20 1170.5,-20 1170.5,0 1210.5,0 1210.5,-20"/>
<text text-anchor="middle" x="1190.5" y="-6.5" font-family="Helvetica,sans-Serif" font-size="10.00">bitset</text>
</a>
</g>
</g>
<!-- Node4&#45;&gt;Node5 -->
<g id="edge4_Node000004_Node000005" class="edge">
<title>Node4&#45;&gt;Node5</title>
<g id="a_edge4_Node000004_Node000005"><a xlink:title=" ">
<path fill="none" stroke="#63b8ff" d="M850.79,-181.76C855.42,-181.14 860.05,-180.55 864.5,-180 940.79,-170.65 1145.31,-187.76 1208.5,-144 1242.97,-120.13 1259.93,-94.13 1242.5,-56 1237.12,-44.23 1226.98,-34.36 1217.07,-26.9"/>
<polygon fill="#63b8ff" stroke="#63b8ff" points="1219.26,-24.16 1209.05,-21.35 1215.28,-29.91 1219.26,-24.16"/>
</a>
</g>
</g>
<!-- Node6 -->
<g id="Node000006" class="node">
<title>Node6</title>
<g id="a_Node000006"><a xlink:title=" ">
<polygon fill="#e0e0e0" stroke="#999999" points="901,-138 840,-138 840,-118 901,-118 901,-138"/>
<text text-anchor="middle" x="870.5" y="-124.5" font-family="Helvetica,sans-Serif" font-size="10.00">filesystem</text>
</a>
</g>
</g>
<!-- Node4&#45;&gt;Node6 -->
<g id="edge5_Node000004_Node000006" class="edge">
<title>Node4&#45;&gt;Node6</title>
<g id="a_edge5_Node000004_Node000006"><a xlink:title=" ">
<path fill="none" stroke="#63b8ff" d="M811.44,-179.62C822.08,-170.5 838.48,-156.45 851.3,-145.46"/>
<polygon fill="#63b8ff" stroke="#63b8ff" points="853.4,-148.26 858.72,-139.1 848.85,-142.95 853.4,-148.26"/>
</a>
</g>
</g>
<!-- Node7 -->
<g id="Node000007" class="node">
<title>Node7</title>
<g id="a_Node000007"><a xlink:title=" ">
<polygon fill="#e0e0e0" stroke="#999999" points="43,-20 0,-20 0,0 43,0 43,-20"/>
<text text-anchor="middle" x="21.5" y="-6.5" font-family="Helvetica,sans-Serif" font-size="10.00">mutex</text>
</a>
</g>
</g>
<!-- Node4&#45;&gt;Node7 -->
<g id="edge7_Node000004_Node000007" class="edge">
<title>Node4&#45;&gt;Node7</title>
<g id="a_edge7_Node000004_Node000007"><a xlink:title=" ">
<path fill="none" stroke="#63b8ff" d="M750.12,-184.09C684.47,-177.26 566.27,-163.5 466.5,-144 347.59,-120.76 318.31,-111.62 202.5,-76 149.72,-59.76 89.59,-37.38 53.64,-23.56"/>
<polygon fill="#63b8ff" stroke="#63b8ff" points="55.29,-20.45 44.7,-20.11 52.77,-26.98 55.29,-20.45"/>
</a>
</g>
</g>
<!-- Node8 -->
<g id="Node000008" class="node">
<title>Node8</title>
<g id="a_Node000008"><a xlink:title=" ">
<polygon fill="#e0e0e0" stroke="#999999" points="654.5,-20 614.5,-20 614.5,0 654.5,0 654.5,-20"/>
<text text-anchor="middle" x="634.5" y="-6.5" font-family="Helvetica,sans-Serif" font-size="10.00">string</text>
</a>
</g>
</g>
<!-- Node4&#45;&gt;Node8 -->
<g id="edge8_Node000004_Node000008" class="edge">
<title>Node4&#45;&gt;Node8</title>
<g id="a_edge8_Node000004_Node000008"><a xlink:title=" ">
<path fill="none" stroke="#63b8ff" d="M781.02,-179.57C765.65,-171.51 744.25,-158.88 728.5,-144 691.65,-109.18 660.31,-57.89 644.84,-30.29"/>
<polygon fill="#63b8ff" stroke="#63b8ff" points="647.98,-28.74 640.1,-21.66 641.84,-32.11 647.98,-28.74"/>
</a>
</g>
</g>
<!-- Node9 -->
<g id="Node000009" class="node">
<title>Node9</title>
<g id="a_Node000009"><a xlink:title=" ">
<polygon fill="#e0e0e0" stroke="#999999" points="1057.62,-138 919.38,-138 919.38,-118 1057.62,-118 1057.62,-138"/>
<text text-anchor="middle" x="988.5" y="-124.5" font-family="Helvetica,sans-Serif" font-size="10.00">boost/core/noncopyable.hpp</text>
</a>
</g>
</g>
<!-- Node4&#45;&gt;Node9 -->
<g id="edge9_Node000004_Node000009" class="edge">
<title>Node4&#45;&gt;Node9</title>
<g id="a_edge9_Node000004_Node000009"><a xlink:title=" ">
<path fill="none" stroke="#63b8ff" d="M829.88,-179.62C861.65,-169.48 912.53,-153.25 948.07,-141.9"/>
<polygon fill="#63b8ff" stroke="#63b8ff" points="949.12,-145.24 957.58,-138.87 946.99,-138.57 949.12,-145.24"/>
</a>
</g>
</g>
<!-- Node10 -->
<g id="Node000010" class="node">
<title>Node10</title>
<g id="a_Node000010"><a xlink:href="config_8h.html" target="_top" xlink:title="Declarations for the configuration of Sunshine.">
<polygon fill="white" stroke="#666666" points="767,-76 700,-76 700,-56 767,-56 767,-76"/>
<text text-anchor="middle" x="733.5" y="-62.5" font-family="Helvetica,sans-Serif" font-size="10.00">src/config.h</text>
</a>
</g>
</g>
<!-- Node4&#45;&gt;Node10 -->
<g id="edge10_Node000004_Node000010" class="edge">
<title>Node4&#45;&gt;Node10</title>
<g id="a_edge10_Node000004_Node000010"><a xlink:title=" ">
<path fill="none" stroke="#63b8ff" d="M780.86,-179.51C767.38,-171.88 750.39,-159.84 741.5,-144 731.85,-126.8 730.63,-104.01 731.35,-87.7"/>
<polygon fill="#63b8ff" stroke="#63b8ff" points="734.84,-87.98 732.11,-77.74 727.86,-87.45 734.84,-87.98"/>
</a>
</g>
</g>
<!-- Node16 -->
<g id="Node000016" class="node">
<title>Node16</title>
<g id="a_Node000016"><a xlink:href="logging_8h.html" target="_top" xlink:title="Declarations for logging related functions.">
<polygon fill="white" stroke="#666666" points="822.25,-138 750.75,-138 750.75,-118 822.25,-118 822.25,-138"/>
<text text-anchor="middle" x="786.5" y="-124.5" font-family="Helvetica,sans-Serif" font-size="10.00">src/logging.h</text>
</a>
</g>
</g>
<!-- Node4&#45;&gt;Node16 -->
<g id="edge18_Node000004_Node000016" class="edge">
<title>Node4&#45;&gt;Node16</title>
<g id="a_edge18_Node000004_Node000016"><a xlink:title=" ">
<path fill="none" stroke="#63b8ff" d="M798.31,-179.62C796.41,-171.48 793.59,-159.39 791.18,-149.07"/>
<polygon fill="#63b8ff" stroke="#63b8ff" points="794.65,-148.53 788.97,-139.59 787.83,-150.12 794.65,-148.53"/>
</a>
</g>
</g>
<!-- Node4&#45;&gt;Node22 -->
<g id="edge27_Node000004_Node000022" class="edge">
<title>Node4&#45;&gt;Node22</title>
<g id="a_edge27_Node000004_Node000022"><a xlink:title=" ">
<path fill="none" stroke="#63b8ff" d="M751.66,-179.58C707.2,-170.86 639.78,-157.27 581.5,-144 577.5,-143.09 573.35,-142.11 569.19,-141.12"/>
<polygon fill="#63b8ff" stroke="#63b8ff" points="570.26,-137.78 559.72,-138.81 568.61,-144.58 570.26,-137.78"/>
</a>
</g>
</g>
<!-- Node27 -->
<g id="Node000027" class="node">
<title>Node27</title>
<g id="a_Node000027"><a xlink:href="utility_8h.html" target="_top" xlink:title="Declarations for utility functions.">
<polygon fill="white" stroke="#666666" points="568.88,-76 522.12,-76 522.12,-56 568.88,-56 568.88,-76"/>
<text text-anchor="middle" x="545.5" y="-62.5" font-family="Helvetica,sans-Serif" font-size="10.00">utility.h</text>
</a>
</g>
</g>
<!-- Node4&#45;&gt;Node27 -->
<g id="edge47_Node000004_Node000027" class="edge">
<title>Node4&#45;&gt;Node27</title>
<g id="a_edge47_Node000004_Node000027"><a xlink:title=" ">
<path fill="none" stroke="#63b8ff" d="M750.06,-184.1C712.08,-178.67 659.86,-167.35 619.5,-144 594.14,-129.33 571.9,-103.44 558.58,-85.77"/>
<polygon fill="#63b8ff" stroke="#63b8ff" points="561.42,-83.71 552.71,-77.68 555.76,-87.83 561.42,-83.71"/>
</a>
</g>
</g>
<!-- Node4&#45;&gt;Node34 -->
<g id="edge48_Node000004_Node000034" class="edge">
<title>Node4&#45;&gt;Node34</title>
<g id="a_edge48_Node000004_Node000034"><a xlink:title=" ">
<path fill="none" stroke="#63b8ff" d="M850.78,-181.68C855.41,-181.08 860.04,-180.51 864.5,-180 1046.69,-159.23 1094.09,-170.75 1275.5,-144 1281.89,-143.06 1288.57,-141.9 1295.17,-140.65"/>
<polygon fill="#63b8ff" stroke="#63b8ff" points="1295.53,-144.15 1304.66,-138.78 1294.18,-137.28 1295.53,-144.15"/>
</a>
</g>
</g>
<!-- Node36 -->
<g id="Node000036" class="node">
<title>Node36</title>
<g id="a_Node000036"><a xlink:title=" ">
<polygon fill="#e0e0e0" stroke="#999999" points="1182.88,-144 1076.12,-144 1076.12,-112 1182.88,-112 1182.88,-144"/>
<text text-anchor="start" x="1084.12" y="-130.5" font-family="Helvetica,sans-Serif" font-size="10.00">moonlight&#45;common&#45;c</text>
<text text-anchor="middle" x="1129.5" y="-118.5" font-family="Helvetica,sans-Serif" font-size="10.00">/src/Limelight.h</text>
</a>
</g>
</g>
<!-- Node4&#45;&gt;Node36 -->
<g id="edge50_Node000004_Node000036" class="edge">
<title>Node4&#45;&gt;Node36</title>
<g id="a_edge50_Node000004_Node000036"><a xlink:title=" ">
<path fill="none" stroke="#63b8ff" d="M850.69,-181.52C902,-173.65 984.24,-160.42 1065.06,-144.21"/>
<polygon fill="#63b8ff" stroke="#63b8ff" points="1065.35,-147.72 1074.45,-142.31 1063.96,-140.86 1065.35,-147.72"/>
</a>
</g>
</g>
<!-- Node10&#45;&gt;Node5 -->
<g id="edge11_Node000010_Node000005" class="edge">
<title>Node10&#45;&gt;Node5</title>
<g id="a_edge11_Node000010_Node000005"><a xlink:title=" ">
<path fill="none" stroke="#63b8ff" d="M767.48,-62.29C851.33,-55.49 1067.4,-37.1 1158.99,-20.07"/>
<polygon fill="#63b8ff" stroke="#63b8ff" points="1159.41,-23.56 1168.55,-18.19 1158.06,-16.69 1159.41,-23.56"/>
</a>
</g>
</g>
<!-- Node10&#45;&gt;Node8 -->
<g id="edge14_Node000010_Node000008" class="edge">
<title>Node10&#45;&gt;Node8</title>
<g id="a_edge14_Node000010_Node000008"><a xlink:title=" ">
<path fill="none" stroke="#63b8ff" d="M716.26,-55.59C701.16,-47.36 678.97,-35.26 661.52,-25.74"/>
<polygon fill="#63b8ff" stroke="#63b8ff" points="663.66,-22.92 653.21,-21.2 660.31,-29.07 663.66,-22.92"/>
</a>
</g>
</g>
<!-- Node11 -->
<g id="Node000011" class="node">
<title>Node11</title>
<g id="a_Node000011"><a xlink:title=" ">
<polygon fill="#e0e0e0" stroke="#999999" points="1076.12,-20 1030.88,-20 1030.88,0 1076.12,0 1076.12,-20"/>
<text text-anchor="middle" x="1053.5" y="-6.5" font-family="Helvetica,sans-Serif" font-size="10.00">chrono</text>
</a>
</g>
</g>
<!-- Node10&#45;&gt;Node11 -->
<g id="edge12_Node000010_Node000011" class="edge">
<title>Node10&#45;&gt;Node11</title>
<g id="a_edge12_Node000010_Node000011"><a xlink:title=" ">
<path fill="none" stroke="#63b8ff" d="M767.3,-58.5C772.06,-57.63 776.9,-56.77 781.5,-56 884.75,-38.61 914.73,-42.83 1019.5,-20.43"/>
<polygon fill="#63b8ff" stroke="#63b8ff" points="1020.06,-23.9 1029.09,-18.35 1018.57,-17.05 1020.06,-23.9"/>
</a>
</g>
</g>
<!-- Node12 -->
<g id="Node000012" class="node">
<title>Node12</title>
<g id="a_Node000012"><a xlink:title=" ">
<polygon fill="#e0e0e0" stroke="#999999" points="783.38,-20 733.62,-20 733.62,0 783.38,0 783.38,-20"/>
<text text-anchor="middle" x="758.5" y="-6.5" font-family="Helvetica,sans-Serif" font-size="10.00">optional</text>
</a>
</g>
</g>
<!-- Node10&#45;&gt;Node12 -->
<g id="edge13_Node000010_Node000012" class="edge">
<title>Node10&#45;&gt;Node12</title>
<g id="a_edge13_Node000010_Node000012"><a xlink:title=" ">
<path fill="none" stroke="#63b8ff" d="M737.85,-55.59C741.05,-48.7 745.49,-39.1 749.44,-30.57"/>
<polygon fill="#63b8ff" stroke="#63b8ff" points="752.53,-32.22 753.56,-21.67 746.18,-29.28 752.53,-32.22"/>
</a>
</g>
</g>
<!-- Node13 -->
<g id="Node000013" class="node">
<title>Node13</title>
<g id="a_Node000013"><a xlink:title=" ">
<polygon fill="#e0e0e0" stroke="#999999" points="883.88,-20 801.12,-20 801.12,0 883.88,0 883.88,-20"/>
<text text-anchor="middle" x="842.5" y="-6.5" font-family="Helvetica,sans-Serif" font-size="10.00">unordered_map</text>
</a>
</g>
</g>
<!-- Node10&#45;&gt;Node13 -->
<g id="edge15_Node000010_Node000013" class="edge">
<title>Node10&#45;&gt;Node13</title>
<g id="a_edge15_Node000010_Node000013"><a xlink:title=" ">
<path fill="none" stroke="#63b8ff" d="M752.49,-55.59C769.26,-47.28 793.99,-35.03 813.29,-25.47"/>
<polygon fill="#63b8ff" stroke="#63b8ff" points="814.6,-28.73 822.01,-21.15 811.49,-22.45 814.6,-28.73"/>
</a>
</g>
</g>
<!-- Node14 -->
<g id="Node000014" class="node">
<title>Node14</title>
<g id="a_Node000014"><a xlink:title=" ">
<polygon fill="#e0e0e0" stroke="#999999" points="716,-20 673,-20 673,0 716,0 716,-20"/>
<text text-anchor="middle" x="694.5" y="-6.5" font-family="Helvetica,sans-Serif" font-size="10.00">vector</text>
</a>
</g>
</g>
<!-- Node10&#45;&gt;Node14 -->
<g id="edge16_Node000010_Node000014" class="edge">
<title>Node10&#45;&gt;Node14</title>
<g id="a_edge16_Node000010_Node000014"><a xlink:title=" ">
<path fill="none" stroke="#63b8ff" d="M726.71,-55.59C721.51,-48.39 714.17,-38.23 707.81,-29.43"/>
<polygon fill="#63b8ff" stroke="#63b8ff" points="710.79,-27.58 702.1,-21.53 705.12,-31.68 710.79,-27.58"/>
</a>
</g>
</g>
<!-- Node15 -->
<g id="Node000015" class="node">
<title>Node15</title>
<g id="a_Node000015"><a xlink:href="nvenc__config_8h.html" target="_top" xlink:title="Declarations for NVENC encoder configuration.">
<polygon fill="white" stroke="#666666" points="1013.12,-20 901.88,-20 901.88,0 1013.12,0 1013.12,-20"/>
<text text-anchor="middle" x="957.5" y="-6.5" font-family="Helvetica,sans-Serif" font-size="10.00">nvenc/nvenc_config.h</text>
</a>
</g>
</g>
<!-- Node10&#45;&gt;Node15 -->
<g id="edge17_Node000010_Node000015" class="edge">
<title>Node10&#45;&gt;Node15</title>
<g id="a_edge17_Node000010_Node000015"><a xlink:title=" ">
<path fill="none" stroke="#63b8ff" d="M767.04,-56.92C804.23,-47.95 864.63,-33.39 907.43,-23.07"/>
<polygon fill="#63b8ff" stroke="#63b8ff" points="908.08,-26.51 916.98,-20.77 906.44,-19.71 908.08,-26.51"/>
</a>
</g>
</g>
<!-- Node16&#45;&gt;Node10 -->
<g id="edge21_Node000016_Node000010" class="edge">
<title>Node16&#45;&gt;Node10</title>
<g id="a_edge21_Node000016_Node000010"><a xlink:title=" ">
<path fill="none" stroke="#63b8ff" d="M778.22,-117.62C770.39,-108.77 758.46,-95.26 748.89,-84.43"/>
<polygon fill="#63b8ff" stroke="#63b8ff" points="751.8,-82.42 742.55,-77.25 746.55,-87.06 751.8,-82.42"/>
</a>
</g>
</g>
<!-- Node17 -->
<g id="Node000017" class="node">
<title>Node17</title>
<g id="a_Node000017"><a xlink:title=" ">
<polygon fill="#e0e0e0" stroke="#999999" points="977,-76 862,-76 862,-56 977,-56 977,-76"/>
<text text-anchor="middle" x="919.5" y="-62.5" font-family="Helvetica,sans-Serif" font-size="10.00">boost/log/common.hpp</text>
</a>
</g>
</g>
<!-- Node16&#45;&gt;Node17 -->
<g id="edge19_Node000016_Node000017" class="edge">
<title>Node16&#45;&gt;Node17</title>
<g id="a_edge19_Node000016_Node000017"><a xlink:title=" ">
<path fill="none" stroke="#63b8ff" d="M807.28,-117.62C829.05,-107.81 863.48,-92.27 888.46,-81"/>
<polygon fill="#63b8ff" stroke="#63b8ff" points="889.81,-84.23 897.49,-76.93 886.93,-77.85 889.81,-84.23"/>
</a>
</g>
</g>
<!-- Node18 -->
<g id="Node000018" class="node">
<title>Node18</title>
<g id="a_Node000018"><a xlink:title=" ">
<polygon fill="#e0e0e0" stroke="#999999" points="1095.88,-76 995.12,-76 995.12,-56 1095.88,-56 1095.88,-76"/>
<text text-anchor="middle" x="1045.5" y="-62.5" font-family="Helvetica,sans-Serif" font-size="10.00">boost/log/sinks.hpp</text>
</a>
</g>
</g>
<!-- Node16&#45;&gt;Node18 -->
<g id="edge20_Node000016_Node000018" class="edge">
<title>Node16&#45;&gt;Node18</title>
<g id="a_edge20_Node000016_Node000018"><a xlink:title=" ">
<path fill="none" stroke="#63b8ff" d="M813,-117.61C819.04,-115.62 825.46,-113.64 831.5,-112 882.29,-98.24 940.82,-86.19 983.82,-78.03"/>
<polygon fill="#63b8ff" stroke="#63b8ff" points="984.29,-81.5 993.47,-76.22 982.99,-74.62 984.29,-81.5"/>
</a>
</g>
</g>
<!-- Node19 -->
<g id="Node000019" class="node">
<title>Node19</title>
<g id="a_Node000019"><a xlink:href="stat__trackers_8h.html" target="_top" xlink:title="Declarations for streaming statistic tracking.">
<polygon fill="white" stroke="#666666" points="1233.12,-76 1151.88,-76 1151.88,-56 1233.12,-56 1233.12,-76"/>
<text text-anchor="middle" x="1192.5" y="-62.5" font-family="Helvetica,sans-Serif" font-size="10.00">stat_trackers.h</text>
</a>
</g>
</g>
<!-- Node16&#45;&gt;Node19 -->
<g id="edge22_Node000016_Node000019" class="edge">
<title>Node16&#45;&gt;Node19</title>
<g id="a_edge22_Node000016_Node000019"><a xlink:title=" ">
<path fill="none" stroke="#63b8ff" d="M811.95,-117.54C818.27,-115.47 825.07,-113.46 831.5,-112 860.92,-105.33 1047.54,-83.55 1140.3,-72.93"/>
<polygon fill="#63b8ff" stroke="#63b8ff" points="1140.63,-76.41 1150.16,-71.8 1139.83,-69.46 1140.63,-76.41"/>
</a>
</g>
</g>
<!-- Node19&#45;&gt;Node3 -->
<g id="edge24_Node000019_Node000003" class="edge">
<title>Node19&#45;&gt;Node3</title>
<g id="a_edge24_Node000019_Node000003"><a xlink:title=" ">
<path fill="none" stroke="#63b8ff" d="M1180.48,-55.59C1170.49,-47.77 1156.04,-36.46 1144.19,-27.19"/>
<polygon fill="#63b8ff" stroke="#63b8ff" points="1146.61,-24.64 1136.57,-21.23 1142.29,-30.15 1146.61,-24.64"/>
</a>
</g>
</g>
<!-- Node19&#45;&gt;Node11 -->
<g id="edge23_Node000019_Node000011" class="edge">
<title>Node19&#45;&gt;Node11</title>
<g id="a_edge23_Node000019_Node000011"><a xlink:title=" ">
<path fill="none" stroke="#63b8ff" d="M1168.29,-55.59C1145.79,-46.85 1112.09,-33.76 1087.01,-24.02"/>
<polygon fill="#63b8ff" stroke="#63b8ff" points="1088.51,-20.85 1077.92,-20.49 1085.98,-27.37 1088.51,-20.85"/>
</a>
</g>
</g>
<!-- Node20 -->
<g id="Node000020" class="node">
<title>Node20</title>
<g id="a_Node000020"><a xlink:title=" ">
<polygon fill="#e0e0e0" stroke="#999999" points="1268.12,-20 1228.88,-20 1228.88,0 1268.12,0 1268.12,-20"/>
<text text-anchor="middle" x="1248.5" y="-6.5" font-family="Helvetica,sans-Serif" font-size="10.00">limits</text>
</a>
</g>
</g>
<!-- Node19&#45;&gt;Node20 -->
<g id="edge25_Node000019_Node000020" class="edge">
<title>Node19&#45;&gt;Node20</title>
<g id="a_edge25_Node000019_Node000020"><a xlink:title=" ">
<path fill="none" stroke="#63b8ff" d="M1202.25,-55.59C1210.12,-48.01 1221.4,-37.13 1230.85,-28.02"/>
<polygon fill="#63b8ff" stroke="#63b8ff" points="1233,-30.81 1237.77,-21.35 1228.14,-25.77 1233,-30.81"/>
</a>
</g>
</g>
<!-- Node21 -->
<g id="Node000021" class="node">
<title>Node21</title>
<g id="a_Node000021"><a xlink:title=" ">
<polygon fill="#e0e0e0" stroke="#999999" points="1375.25,-20 1285.75,-20 1285.75,0 1375.25,0 1375.25,-20"/>
<text text-anchor="middle" x="1330.5" y="-6.5" font-family="Helvetica,sans-Serif" font-size="10.00">boost/format.hpp</text>
</a>
</g>
</g>
<!-- Node19&#45;&gt;Node21 -->
<g id="edge26_Node000019_Node000021" class="edge">
<title>Node19&#45;&gt;Node21</title>
<g id="a_edge26_Node000019_Node000021"><a xlink:title=" ">
<path fill="none" stroke="#63b8ff" d="M1216.54,-55.59C1238.47,-47.01 1271.13,-34.23 1295.87,-24.55"/>
<polygon fill="#63b8ff" stroke="#63b8ff" points="1296.83,-27.93 1304.87,-21.03 1294.28,-21.42 1296.83,-27.93"/>
</a>
</g>
</g>
<!-- Node22&#45;&gt;Node3 -->
<g id="edge31_Node000022_Node000003" class="edge">
<title>Node22&#45;&gt;Node3</title>
<g id="a_edge31_Node000022_Node000003"><a xlink:title=" ">
<path fill="none" stroke="#63b8ff" d="M567.48,-121.17C619.2,-113.84 705.27,-99.32 776.5,-76 796.53,-69.44 799.27,-61.92 819.5,-56 930.52,-23.48 966.06,-40.65 1082.92,-20.28"/>
<polygon fill="#63b8ff" stroke="#63b8ff" points="1083.39,-23.75 1092.61,-18.53 1082.15,-16.87 1083.39,-23.75"/>
</a>
</g>
</g>
<!-- Node22&#45;&gt;Node7 -->
<g id="edge33_Node000022_Node000007" class="edge">
<title>Node22&#45;&gt;Node7</title>
<g id="a_edge33_Node000022_Node000007"><a xlink:title=" ">
<path fill="none" stroke="#63b8ff" d="M476.01,-117.54C393.88,-100.27 215.18,-61.77 54.52,-20.41"/>
<polygon fill="#63b8ff" stroke="#63b8ff" points="55.49,-17.04 44.94,-17.93 53.74,-23.82 55.49,-17.04"/>
</a>
</g>
</g>
<!-- Node22&#45;&gt;Node14 -->
<g id="edge34_Node000022_Node000014" class="edge">
<title>Node22&#45;&gt;Node14</title>
<g id="a_edge34_Node000022_Node000014"><a xlink:title=" ">
<path fill="none" stroke="#63b8ff" d="M535.66,-117.51C565.46,-97.53 634.9,-50.96 671.3,-26.56"/>
<polygon fill="#63b8ff" stroke="#63b8ff" points="673.02,-29.62 679.37,-21.14 669.12,-23.8 673.02,-29.62"/>
</a>
</g>
</g>
<!-- Node23 -->
<g id="Node000023" class="node">
<title>Node23</title>
<g id="a_Node000023"><a xlink:title=" ">
<polygon fill="#e0e0e0" stroke="#999999" points="440.38,-76 402.62,-76 402.62,-56 440.38,-56 440.38,-76"/>
<text text-anchor="middle" x="421.5" y="-62.5" font-family="Helvetica,sans-Serif" font-size="10.00">array</text>
</a>
</g>
</g>
<!-- Node22&#45;&gt;Node23 -->
<g id="edge28_Node000022_Node000023" class="edge">
<title>Node22&#45;&gt;Node23</title>
<g id="a_edge28_Node000022_Node000023"><a xlink:title=" ">
<path fill="none" stroke="#63b8ff" d="M505.88,-117.62C490.1,-108.16 465.47,-93.38 446.88,-82.23"/>
<polygon fill="#63b8ff" stroke="#63b8ff" points="448.69,-79.23 438.31,-77.09 445.09,-85.23 448.69,-79.23"/>
</a>
</g>
</g>
<!-- Node24 -->
<g id="Node000024" class="node">
<title>Node24</title>
<g id="a_Node000024"><a xlink:title=" ">
<polygon fill="#e0e0e0" stroke="#999999" points="504.12,-76 458.88,-76 458.88,-56 504.12,-56 504.12,-76"/>
<text text-anchor="middle" x="481.5" y="-62.5" font-family="Helvetica,sans-Serif" font-size="10.00">atomic</text>
</a>
</g>
</g>
<!-- Node22&#45;&gt;Node24 -->
<g id="edge29_Node000022_Node000024" class="edge">
<title>Node22&#45;&gt;Node24</title>
<g id="a_edge29_Node000022_Node000024"><a xlink:title=" ">
<path fill="none" stroke="#63b8ff" d="M515.25,-117.62C509.52,-109.03 500.88,-96.07 493.77,-85.41"/>
<polygon fill="#63b8ff" stroke="#63b8ff" points="496.87,-83.75 488.41,-77.37 491.05,-87.63 496.87,-83.75"/>
</a>
</g>
</g>
<!-- Node25 -->
<g id="Node000025" class="node">
<title>Node25</title>
<g id="a_Node000025"><a xlink:title=" ">
<polygon fill="#e0e0e0" stroke="#999999" points="155.5,-20 61.5,-20 61.5,0 155.5,0 155.5,-20"/>
<text text-anchor="middle" x="108.5" y="-6.5" font-family="Helvetica,sans-Serif" font-size="10.00">condition_variable</text>
</a>
</g>
</g>
<!-- Node22&#45;&gt;Node25 -->
<g id="edge30_Node000022_Node000025" class="edge">
<title>Node22&#45;&gt;Node25</title>
<g id="a_edge30_Node000022_Node000025"><a xlink:title=" ">
<path fill="none" stroke="#63b8ff" d="M495.66,-117.62C469.57,-107.94 428.26,-92.02 393.5,-76 376.17,-68.01 373.54,-62.23 355.5,-56 337.97,-49.95 234.62,-32.06 167.28,-20.75"/>
<polygon fill="#63b8ff" stroke="#63b8ff" points="167.91,-17.3 157.47,-19.1 166.76,-24.21 167.91,-17.3"/>
</a>
</g>
</g>
<!-- Node26 -->
<g id="Node000026" class="node">
<title>Node26</title>
<g id="a_Node000026"><a xlink:title=" ">
<polygon fill="#e0e0e0" stroke="#999999" points="346.88,-76 312.12,-76 312.12,-56 346.88,-56 346.88,-76"/>
<text text-anchor="middle" x="329.5" y="-62.5" font-family="Helvetica,sans-Serif" font-size="10.00">map</text>
</a>
</g>
</g>
<!-- Node22&#45;&gt;Node26 -->
<g id="edge32_Node000022_Node000026" class="edge">
<title>Node22&#45;&gt;Node26</title>
<g id="a_edge32_Node000022_Node000026"><a xlink:title=" ">
<path fill="none" stroke="#63b8ff" d="M491.5,-117.62C454.96,-106.2 393.68,-87.06 357.88,-75.87"/>
<polygon fill="#63b8ff" stroke="#63b8ff" points="359.25,-72.63 348.66,-72.99 357.16,-79.31 359.25,-72.63"/>
</a>
</g>
</g>
<!-- Node22&#45;&gt;Node27 -->
<g id="edge35_Node000022_Node000027" class="edge">
<title>Node22&#45;&gt;Node27</title>
<g id="a_edge35_Node000022_Node000027"><a xlink:title=" ">
<path fill="none" stroke="#63b8ff" d="M525.25,-117.62C528.55,-109.39 533.45,-97.13 537.61,-86.74"/>
<polygon fill="#63b8ff" stroke="#63b8ff" points="540.83,-88.1 541.29,-77.52 534.33,-85.5 540.83,-88.1"/>
</a>
</g>
</g>
<!-- Node27&#45;&gt;Node7 -->
<g id="edge39_Node000027_Node000007" class="edge">
<title>Node27&#45;&gt;Node7</title>
<g id="a_edge39_Node000027_Node000007"><a xlink:title=" ">
<path fill="none" stroke="#63b8ff" d="M521.85,-57.79C519.06,-57.1 516.23,-56.49 513.5,-56 314.82,-20.66 256.77,-55.53 54.69,-19.99"/>
<polygon fill="#63b8ff" stroke="#63b8ff" points="55.33,-16.55 44.87,-18.22 54.09,-23.44 55.33,-16.55"/>
</a>
</g>
</g>
<!-- Node27&#45;&gt;Node8 -->
<g id="edge42_Node000027_Node000008" class="edge">
<title>Node27&#45;&gt;Node8</title>
<g id="a_edge42_Node000027_Node000008"><a xlink:title=" ">
<path fill="none" stroke="#63b8ff" d="M561,-55.59C574.32,-47.51 593.78,-35.71 609.33,-26.27"/>
<polygon fill="#63b8ff" stroke="#63b8ff" points="610.85,-29.44 617.58,-21.26 607.22,-23.46 610.85,-29.44"/>
</a>
</g>
</g>
<!-- Node27&#45;&gt;Node12 -->
<g id="edge40_Node000027_Node000012" class="edge">
<title>Node27&#45;&gt;Node12</title>
<g id="a_edge40_Node000027_Node000012"><a xlink:title=" ">
<path fill="none" stroke="#63b8ff" d="M569.13,-59.26C601.62,-51.34 662.18,-36.43 722.45,-20.76"/>
<polygon fill="#63b8ff" stroke="#63b8ff" points="723.03,-24.23 731.83,-18.32 721.27,-17.45 723.03,-24.23"/>
</a>
</g>
</g>
<!-- Node27&#45;&gt;Node14 -->
<g id="edge46_Node000027_Node000014" class="edge">
<title>Node27&#45;&gt;Node14</title>
<g id="a_edge46_Node000027_Node000014"><a xlink:title=" ">
<path fill="none" stroke="#63b8ff" d="M569.11,-56.44C594.32,-47.31 634.42,-32.77 662.47,-22.61"/>
<polygon fill="#63b8ff" stroke="#63b8ff" points="663.3,-26.03 671.51,-19.33 660.92,-19.45 663.3,-26.03"/>
</a>
</g>
</g>
<!-- Node27&#45;&gt;Node25 -->
<g id="edge37_Node000027_Node000025" class="edge">
<title>Node27&#45;&gt;Node25</title>
<g id="a_edge37_Node000027_Node000025"><a xlink:title=" ">
<path fill="none" stroke="#63b8ff" d="M521.84,-57.86C519.05,-57.16 516.22,-56.52 513.5,-56 363.92,-27.47 321.09,-39.77 167.11,-20.26"/>
<polygon fill="#63b8ff" stroke="#63b8ff" points="167.7,-16.81 157.33,-18.99 166.8,-23.75 167.7,-16.81"/>
</a>
</g>
</g>
<!-- Node28 -->
<g id="Node000028" class="node">
<title>Node28</title>
<g id="a_Node000028"><a xlink:title=" ">
<polygon fill="#e0e0e0" stroke="#999999" points="457.38,-20 401.62,-20 401.62,0 457.38,0 457.38,-20"/>
<text text-anchor="middle" x="429.5" y="-6.5" font-family="Helvetica,sans-Serif" font-size="10.00">algorithm</text>
</a>
</g>
</g>
<!-- Node27&#45;&gt;Node28 -->
<g id="edge36_Node000027_Node000028" class="edge">
<title>Node27&#45;&gt;Node28</title>
<g id="a_edge36_Node000027_Node000028"><a xlink:title=" ">
<path fill="none" stroke="#63b8ff" d="M525.29,-55.59C507.27,-47.21 480.63,-34.8 460.02,-25.21"/>
<polygon fill="#63b8ff" stroke="#63b8ff" points="461.78,-22.17 451.24,-21.12 458.82,-28.51 461.78,-22.17"/>
</a>
</g>
</g>
<!-- Node29 -->
<g id="Node000029" class="node">
<title>Node29</title>
<g id="a_Node000029"><a xlink:title=" ">
<polygon fill="#e0e0e0" stroke="#999999" points="527.12,-20 475.88,-20 475.88,0 527.12,0 527.12,-20"/>
<text text-anchor="middle" x="501.5" y="-6.5" font-family="Helvetica,sans-Serif" font-size="10.00">memory</text>
</a>
</g>
</g>
<!-- Node27&#45;&gt;Node29 -->
<g id="edge38_Node000027_Node000029" class="edge">
<title>Node27&#45;&gt;Node29</title>
<g id="a_edge38_Node000027_Node000029"><a xlink:title=" ">
<path fill="none" stroke="#63b8ff" d="M537.84,-55.59C531.91,-48.32 523.51,-38.02 516.29,-29.15"/>
<polygon fill="#63b8ff" stroke="#63b8ff" points="519.06,-27.01 510.03,-21.47 513.64,-31.43 519.06,-27.01"/>
</a>
</g>
</g>
<!-- Node30 -->
<g id="Node000030" class="node">
<title>Node30</title>
<g id="a_Node000030"><a xlink:title=" ">
<polygon fill="#e0e0e0" stroke="#999999" points="596.12,-20 544.88,-20 544.88,0 596.12,0 596.12,-20"/>
<text text-anchor="middle" x="570.5" y="-6.5" font-family="Helvetica,sans-Serif" font-size="10.00">ostream</text>
</a>
</g>
</g>
<!-- Node27&#45;&gt;Node30 -->
<g id="edge41_Node000027_Node000030" class="edge">
<title>Node27&#45;&gt;Node30</title>
<g id="a_edge41_Node000027_Node000030"><a xlink:title=" ">
<path fill="none" stroke="#63b8ff" d="M549.85,-55.59C553.05,-48.7 557.49,-39.1 561.44,-30.57"/>
<polygon fill="#63b8ff" stroke="#63b8ff" points="564.53,-32.22 565.56,-21.67 558.18,-29.28 564.53,-32.22"/>
</a>
</g>
</g>
<!-- Node31 -->
<g id="Node000031" class="node">
<title>Node31</title>
<g id="a_Node000031"><a xlink:title=" ">
<polygon fill="#e0e0e0" stroke="#999999" points="239.25,-20 173.75,-20 173.75,0 239.25,0 239.25,-20"/>
<text text-anchor="middle" x="206.5" y="-6.5" font-family="Helvetica,sans-Serif" font-size="10.00">string_view</text>
</a>
</g>
</g>
<!-- Node27&#45;&gt;Node31 -->
<g id="edge43_Node000027_Node000031" class="edge">
<title>Node27&#45;&gt;Node31</title>
<g id="a_edge43_Node000027_Node000031"><a xlink:title=" ">
<path fill="none" stroke="#63b8ff" d="M521.82,-57.95C519.03,-57.23 516.21,-56.56 513.5,-56 400.64,-32.58 367.57,-39.98 250.67,-20.24"/>
<polygon fill="#63b8ff" stroke="#63b8ff" points="251.41,-16.82 240.96,-18.57 250.22,-23.72 251.41,-16.82"/>
</a>
</g>
</g>
<!-- Node32 -->
<g id="Node000032" class="node">
<title>Node32</title>
<g id="a_Node000032"><a xlink:title=" ">
<polygon fill="#e0e0e0" stroke="#999999" points="319.38,-20 257.62,-20 257.62,0 319.38,0 319.38,-20"/>
<text text-anchor="middle" x="288.5" y="-6.5" font-family="Helvetica,sans-Serif" font-size="10.00">type_traits</text>
</a>
</g>
</g>
<!-- Node27&#45;&gt;Node32 -->
<g id="edge44_Node000027_Node000032" class="edge">
<title>Node27&#45;&gt;Node32</title>
<g id="a_edge44_Node000027_Node000032"><a xlink:title=" ">
<path fill="none" stroke="#63b8ff" d="M521.79,-58.1C519,-57.36 516.2,-56.64 513.5,-56 435.42,-37.46 412.39,-37.18 330.59,-20.37"/>
<polygon fill="#63b8ff" stroke="#63b8ff" points="331.47,-16.98 320.97,-18.37 330.05,-23.84 331.47,-16.98"/>
</a>
</g>
</g>
<!-- Node33 -->
<g id="Node000033" class="node">
<title>Node33</title>
<g id="a_Node000033"><a xlink:title=" ">
<polygon fill="#e0e0e0" stroke="#999999" points="383.12,-20 337.88,-20 337.88,0 383.12,0 383.12,-20"/>
<text text-anchor="middle" x="360.5" y="-6.5" font-family="Helvetica,sans-Serif" font-size="10.00">variant</text>
</a>
</g>
</g>
<!-- Node27&#45;&gt;Node33 -->
<g id="edge45_Node000027_Node000033" class="edge">
<title>Node27&#45;&gt;Node33</title>
<g id="a_edge45_Node000027_Node000033"><a xlink:title=" ">
<path fill="none" stroke="#63b8ff" d="M521.69,-58.05C489.24,-48.58 430.93,-31.56 394.05,-20.79"/>
<polygon fill="#63b8ff" stroke="#63b8ff" points="395.38,-17.53 384.8,-18.09 393.42,-24.25 395.38,-17.53"/>
</a>
</g>
</g>
<!-- Node35 -->
<g id="Node000035" class="node">
<title>Node35</title>
<g id="a_Node000035"><a xlink:title=" ">
<polygon fill="#e0e0e0" stroke="#999999" points="1391.12,-76 1303.88,-76 1303.88,-56 1391.12,-56 1391.12,-76"/>
<text text-anchor="middle" x="1347.5" y="-62.5" font-family="Helvetica,sans-Serif" font-size="10.00">libavutil/pixfmt.h</text>
</a>
</g>
</g>
<!-- Node34&#45;&gt;Node35 -->
<g id="edge49_Node000034_Node000035" class="edge">
<title>Node34&#45;&gt;Node35</title>
<g id="a_edge49_Node000034_Node000035"><a xlink:title=" ">
<path fill="none" stroke="#63b8ff" d="M1347.5,-117.62C1347.5,-109.56 1347.5,-97.65 1347.5,-87.41"/>
<polygon fill="#63b8ff" stroke="#63b8ff" points="1351,-87.63 1347.5,-77.63 1344,-87.63 1351,-87.63"/>
</a>
</g>
</g>
</g>
</svg>
