<?xml version="1.0" encoding="UTF-8" standalone="no"?>
<!DOCTYPE svg PUBLIC "-//W3C//DTD SVG 1.1//EN"
 "http://www.w3.org/Graphics/SVG/1.1/DTD/svg11.dtd">
<!-- Generated by graphviz version 12.2.1 (0)
 -->
<!-- Title: src/video_colorspace.cpp Pages: 1 -->
<svg width="1438pt" height="376pt"
 viewBox="0.00 0.00 1438.12 376.00" xmlns="http://www.w3.org/2000/svg" xmlns:xlink="http://www.w3.org/1999/xlink">
<g id="graph0" class="graph" transform="scale(1 1) rotate(0) translate(4 372)">
<title>src/video_colorspace.cpp</title>
<!-- Node1 -->
<g id="Node000001" class="node">
<title>Node1</title>
<g id="a_Node000001"><a xlink:title="Definitions for colorspace functions.">
<polygon fill="#999999" stroke="#666666" points="719.12,-368 592.12,-368 592.12,-348 719.12,-348 719.12,-368"/>
<text text-anchor="middle" x="655.62" y="-354.5" font-family="Helvetica,sans-Serif" font-size="10.00">src/video_colorspace.cpp</text>
</a>
</g>
</g>
<!-- Node2 -->
<g id="Node000002" class="node">
<title>Node2</title>
<g id="a_Node000002"><a xlink:href="video__colorspace_8h.html" target="_top" xlink:title="Declarations for colorspace functions.">
<polygon fill="white" stroke="#666666" points="314.62,-138 214.62,-138 214.62,-118 314.62,-118 314.62,-138"/>
<text text-anchor="middle" x="264.62" y="-124.5" font-family="Helvetica,sans-Serif" font-size="10.00">video_colorspace.h</text>
</a>
</g>
</g>
<!-- Node1&#45;&gt;Node2 -->
<g id="edge1_Node000001_Node000002" class="edge">
<title>Node1&#45;&gt;Node2</title>
<g id="a_edge1_Node000001_Node000002"><a xlink:title=" ">
<path fill="none" stroke="#63b8ff" d="M637.24,-347.62C619.92,-338.7 593.32,-324.78 570.62,-312 464.66,-252.32 341.12,-176.46 289.38,-144.41"/>
<polygon fill="#63b8ff" stroke="#63b8ff" points="291.37,-141.52 281.03,-139.22 287.68,-147.47 291.37,-141.52"/>
</a>
</g>
</g>
<!-- Node4 -->
<g id="Node000004" class="node">
<title>Node4</title>
<g id="a_Node000004"><a xlink:href="logging_8h.html" target="_top" xlink:title="Declarations for logging related functions.">
<polygon fill="white" stroke="#666666" points="388.12,-138 333.12,-138 333.12,-118 388.12,-118 388.12,-138"/>
<text text-anchor="middle" x="360.62" y="-124.5" font-family="Helvetica,sans-Serif" font-size="10.00">logging.h</text>
</a>
</g>
</g>
<!-- Node1&#45;&gt;Node4 -->
<g id="edge3_Node000001_Node000004" class="edge">
<title>Node1&#45;&gt;Node4</title>
<g id="a_edge3_Node000001_Node000004"><a xlink:title=" ">
<path fill="none" stroke="#63b8ff" d="M643.7,-347.78C598.76,-313.05 439.33,-189.83 381.65,-145.25"/>
<polygon fill="#63b8ff" stroke="#63b8ff" points="383.95,-142.61 373.9,-139.26 379.67,-148.15 383.95,-142.61"/>
</a>
</g>
</g>
<!-- Node19 -->
<g id="Node000019" class="node">
<title>Node19</title>
<g id="a_Node000019"><a xlink:href="video_8h.html" target="_top" xlink:title="Declarations for video.">
<polygon fill="white" stroke="#666666" points="838.38,-312 790.88,-312 790.88,-292 838.38,-292 838.38,-312"/>
<text text-anchor="middle" x="814.62" y="-298.5" font-family="Helvetica,sans-Serif" font-size="10.00">video.h</text>
</a>
</g>
</g>
<!-- Node1&#45;&gt;Node19 -->
<g id="edge19_Node000001_Node000019" class="edge">
<title>Node1&#45;&gt;Node19</title>
<g id="a_edge19_Node000001_Node000019"><a xlink:title=" ">
<path fill="none" stroke="#63b8ff" d="M683.32,-347.59C710.11,-338.5 750.79,-324.68 779.76,-314.84"/>
<polygon fill="#63b8ff" stroke="#63b8ff" points="780.85,-318.17 789.19,-311.64 778.59,-311.54 780.85,-318.17"/>
</a>
</g>
</g>
<!-- Node39 -->
<g id="Node000039" class="node">
<title>Node39</title>
<g id="a_Node000039"><a xlink:title=" ">
<polygon fill="#e0e0e0" stroke="#999999" points="1105.12,-256 996.12,-256 996.12,-236 1105.12,-236 1105.12,-256"/>
<text text-anchor="middle" x="1050.62" y="-242.5" font-family="Helvetica,sans-Serif" font-size="10.00">libswscale/swscale.h</text>
</a>
</g>
</g>
<!-- Node1&#45;&gt;Node39 -->
<g id="edge60_Node000001_Node000039" class="edge">
<title>Node1&#45;&gt;Node39</title>
<g id="a_edge60_Node000001_Node000039"><a xlink:title=" ">
<path fill="none" stroke="#63b8ff" d="M700.5,-347.54C739.57,-339.06 797.64,-325.84 847.62,-312 905.82,-295.89 972.29,-273.91 1012.85,-260.09"/>
<polygon fill="#63b8ff" stroke="#63b8ff" points="1013.82,-263.46 1022.15,-256.91 1011.55,-256.84 1013.82,-263.46"/>
</a>
</g>
</g>
<!-- Node3 -->
<g id="Node000003" class="node">
<title>Node3</title>
<g id="a_Node000003"><a xlink:title=" ">
<polygon fill="#e0e0e0" stroke="#999999" points="87.25,-76 0,-76 0,-56 87.25,-56 87.25,-76"/>
<text text-anchor="middle" x="43.62" y="-62.5" font-family="Helvetica,sans-Serif" font-size="10.00">libavutil/pixfmt.h</text>
</a>
</g>
</g>
<!-- Node2&#45;&gt;Node3 -->
<g id="edge2_Node000002_Node000003" class="edge">
<title>Node2&#45;&gt;Node3</title>
<g id="a_edge2_Node000002_Node000003"><a xlink:title=" ">
<path fill="none" stroke="#63b8ff" d="M230.09,-117.62C192.17,-107.33 131.12,-90.75 89.27,-79.39"/>
<polygon fill="#63b8ff" stroke="#63b8ff" points="90.31,-76.05 79.74,-76.8 88.47,-82.8 90.31,-76.05"/>
</a>
</g>
</g>
<!-- Node5 -->
<g id="Node000005" class="node">
<title>Node5</title>
<g id="a_Node000005"><a xlink:title=" ">
<polygon fill="#e0e0e0" stroke="#999999" points="438.12,-76 323.12,-76 323.12,-56 438.12,-56 438.12,-76"/>
<text text-anchor="middle" x="380.62" y="-62.5" font-family="Helvetica,sans-Serif" font-size="10.00">boost/log/common.hpp</text>
</a>
</g>
</g>
<!-- Node4&#45;&gt;Node5 -->
<g id="edge4_Node000004_Node000005" class="edge">
<title>Node4&#45;&gt;Node5</title>
<g id="a_edge4_Node000004_Node000005"><a xlink:title=" ">
<path fill="none" stroke="#63b8ff" d="M363.75,-117.62C366.5,-109.39 370.58,-97.13 374.05,-86.74"/>
<polygon fill="#63b8ff" stroke="#63b8ff" points="377.27,-88.14 377.11,-77.55 370.63,-85.93 377.27,-88.14"/>
</a>
</g>
</g>
<!-- Node6 -->
<g id="Node000006" class="node">
<title>Node6</title>
<g id="a_Node000006"><a xlink:title=" ">
<polygon fill="#e0e0e0" stroke="#999999" points="305,-76 204.25,-76 204.25,-56 305,-56 305,-76"/>
<text text-anchor="middle" x="254.62" y="-62.5" font-family="Helvetica,sans-Serif" font-size="10.00">boost/log/sinks.hpp</text>
</a>
</g>
</g>
<!-- Node4&#45;&gt;Node6 -->
<g id="edge5_Node000004_Node000006" class="edge">
<title>Node4&#45;&gt;Node6</title>
<g id="a_edge5_Node000004_Node000006"><a xlink:title=" ">
<path fill="none" stroke="#63b8ff" d="M344.06,-117.62C327.18,-108.07 300.74,-93.11 280.98,-81.92"/>
<polygon fill="#63b8ff" stroke="#63b8ff" points="282.82,-78.93 272.39,-77.05 279.37,-85.03 282.82,-78.93"/>
</a>
</g>
</g>
<!-- Node7 -->
<g id="Node000007" class="node">
<title>Node7</title>
<g id="a_Node000007"><a xlink:href="config_8h.html" target="_top" xlink:title="Declarations for the configuration of Sunshine.">
<polygon fill="white" stroke="#666666" points="506.88,-76 456.38,-76 456.38,-56 506.88,-56 506.88,-76"/>
<text text-anchor="middle" x="481.62" y="-62.5" font-family="Helvetica,sans-Serif" font-size="10.00">config.h</text>
</a>
</g>
</g>
<!-- Node4&#45;&gt;Node7 -->
<g id="edge6_Node000004_Node000007" class="edge">
<title>Node4&#45;&gt;Node7</title>
<g id="a_edge6_Node000004_Node000007"><a xlink:title=" ">
<path fill="none" stroke="#63b8ff" d="M379.53,-117.62C399.16,-107.89 430.1,-92.55 452.78,-81.31"/>
<polygon fill="#63b8ff" stroke="#63b8ff" points="454.09,-84.56 461.5,-76.98 450.98,-78.29 454.09,-84.56"/>
</a>
</g>
</g>
<!-- Node15 -->
<g id="Node000015" class="node">
<title>Node15</title>
<g id="a_Node000015"><a xlink:href="stat__trackers_8h.html" target="_top" xlink:title="Declarations for streaming statistic tracking.">
<polygon fill="white" stroke="#666666" points="186.25,-76 105,-76 105,-56 186.25,-56 186.25,-76"/>
<text text-anchor="middle" x="145.62" y="-62.5" font-family="Helvetica,sans-Serif" font-size="10.00">stat_trackers.h</text>
</a>
</g>
</g>
<!-- Node4&#45;&gt;Node15 -->
<g id="edge14_Node000004_Node000015" class="edge">
<title>Node4&#45;&gt;Node15</title>
<g id="a_edge14_Node000004_Node000015"><a xlink:title=" ">
<path fill="none" stroke="#63b8ff" d="M338.9,-117.61C333.93,-115.63 328.63,-113.64 323.62,-112 281.94,-98.35 233.64,-86.37 197.88,-78.21"/>
<polygon fill="#63b8ff" stroke="#63b8ff" points="198.73,-74.82 188.21,-76.04 197.19,-81.65 198.73,-74.82"/>
</a>
</g>
</g>
<!-- Node8 -->
<g id="Node000008" class="node">
<title>Node8</title>
<g id="a_Node000008"><a xlink:title=" ">
<polygon fill="#e0e0e0" stroke="#999999" points="552.62,-20 512.62,-20 512.62,0 552.62,0 552.62,-20"/>
<text text-anchor="middle" x="532.62" y="-6.5" font-family="Helvetica,sans-Serif" font-size="10.00">bitset</text>
</a>
</g>
</g>
<!-- Node7&#45;&gt;Node8 -->
<g id="edge7_Node000007_Node000008" class="edge">
<title>Node7&#45;&gt;Node8</title>
<g id="a_edge7_Node000007_Node000008"><a xlink:title=" ">
<path fill="none" stroke="#63b8ff" d="M490.51,-55.59C497.53,-48.16 507.53,-37.58 516.02,-28.58"/>
<polygon fill="#63b8ff" stroke="#63b8ff" points="518.48,-31.07 522.8,-21.4 513.39,-26.27 518.48,-31.07"/>
</a>
</g>
</g>
<!-- Node9 -->
<g id="Node000009" class="node">
<title>Node9</title>
<g id="a_Node000009"><a xlink:title=" ">
<polygon fill="#e0e0e0" stroke="#999999" points="247.25,-20 202,-20 202,0 247.25,0 247.25,-20"/>
<text text-anchor="middle" x="224.62" y="-6.5" font-family="Helvetica,sans-Serif" font-size="10.00">chrono</text>
</a>
</g>
</g>
<!-- Node7&#45;&gt;Node9 -->
<g id="edge8_Node000007_Node000009" class="edge">
<title>Node7&#45;&gt;Node9</title>
<g id="a_edge8_Node000007_Node000009"><a xlink:title=" ">
<path fill="none" stroke="#63b8ff" d="M456.05,-58.26C452.88,-57.47 449.68,-56.7 446.62,-56 380.45,-40.79 302.55,-25.63 258.84,-17.37"/>
<polygon fill="#63b8ff" stroke="#63b8ff" points="259.68,-13.96 249.21,-15.55 258.39,-20.84 259.68,-13.96"/>
</a>
</g>
</g>
<!-- Node10 -->
<g id="Node000010" class="node">
<title>Node10</title>
<g id="a_Node000010"><a xlink:title=" ">
<polygon fill="#e0e0e0" stroke="#999999" points="815.5,-20 765.75,-20 765.75,0 815.5,0 815.5,-20"/>
<text text-anchor="middle" x="790.62" y="-6.5" font-family="Helvetica,sans-Serif" font-size="10.00">optional</text>
</a>
</g>
</g>
<!-- Node7&#45;&gt;Node10 -->
<g id="edge9_Node000007_Node000010" class="edge">
<title>Node7&#45;&gt;Node10</title>
<g id="a_edge9_Node000007_Node000010"><a xlink:title=" ">
<path fill="none" stroke="#63b8ff" d="M507.18,-61.66C554.14,-55.34 657.5,-40.61 754.28,-20.33"/>
<polygon fill="#63b8ff" stroke="#63b8ff" points="754.9,-23.77 763.96,-18.27 753.45,-16.92 754.9,-23.77"/>
</a>
</g>
</g>
<!-- Node11 -->
<g id="Node000011" class="node">
<title>Node11</title>
<g id="a_Node000011"><a xlink:title=" ">
<polygon fill="#e0e0e0" stroke="#999999" points="686.62,-20 646.62,-20 646.62,0 686.62,0 686.62,-20"/>
<text text-anchor="middle" x="666.62" y="-6.5" font-family="Helvetica,sans-Serif" font-size="10.00">string</text>
</a>
</g>
</g>
<!-- Node7&#45;&gt;Node11 -->
<g id="edge10_Node000007_Node000011" class="edge">
<title>Node7&#45;&gt;Node11</title>
<g id="a_edge10_Node000007_Node000011"><a xlink:title=" ">
<path fill="none" stroke="#63b8ff" d="M507.34,-57.75C536.25,-49.57 584.84,-35.7 635.52,-20.59"/>
<polygon fill="#63b8ff" stroke="#63b8ff" points="636.33,-24 644.91,-17.78 634.33,-17.29 636.33,-24"/>
</a>
</g>
</g>
<!-- Node12 -->
<g id="Node000012" class="node">
<title>Node12</title>
<g id="a_Node000012"><a xlink:title=" ">
<polygon fill="#e0e0e0" stroke="#999999" points="495,-20 412.25,-20 412.25,0 495,0 495,-20"/>
<text text-anchor="middle" x="453.62" y="-6.5" font-family="Helvetica,sans-Serif" font-size="10.00">unordered_map</text>
</a>
</g>
</g>
<!-- Node7&#45;&gt;Node12 -->
<g id="edge11_Node000007_Node000012" class="edge">
<title>Node7&#45;&gt;Node12</title>
<g id="a_edge11_Node000007_Node000012"><a xlink:title=" ">
<path fill="none" stroke="#63b8ff" d="M476.75,-55.59C473.13,-48.63 468.08,-38.89 463.63,-30.29"/>
<polygon fill="#63b8ff" stroke="#63b8ff" points="466.85,-28.91 459.14,-21.64 460.64,-32.13 466.85,-28.91"/>
</a>
</g>
</g>
<!-- Node13 -->
<g id="Node000013" class="node">
<title>Node13</title>
<g id="a_Node000013"><a xlink:title=" ">
<polygon fill="#e0e0e0" stroke="#999999" points="748.12,-20 705.12,-20 705.12,0 748.12,0 748.12,-20"/>
<text text-anchor="middle" x="726.62" y="-6.5" font-family="Helvetica,sans-Serif" font-size="10.00">vector</text>
</a>
</g>
</g>
<!-- Node7&#45;&gt;Node13 -->
<g id="edge12_Node000007_Node000013" class="edge">
<title>Node7&#45;&gt;Node13</title>
<g id="a_edge12_Node000007_Node000013"><a xlink:title=" ">
<path fill="none" stroke="#63b8ff" d="M507.13,-60.28C545.5,-53.04 620.57,-38.35 693.87,-20.29"/>
<polygon fill="#63b8ff" stroke="#63b8ff" points="694.34,-23.78 703.2,-17.96 692.65,-16.98 694.34,-23.78"/>
</a>
</g>
</g>
<!-- Node14 -->
<g id="Node000014" class="node">
<title>Node14</title>
<g id="a_Node000014"><a xlink:href="nvenc__config_8h.html" target="_top" xlink:title="Declarations for NVENC encoder configuration.">
<polygon fill="white" stroke="#666666" points="394.25,-20 283,-20 283,0 394.25,0 394.25,-20"/>
<text text-anchor="middle" x="338.62" y="-6.5" font-family="Helvetica,sans-Serif" font-size="10.00">nvenc/nvenc_config.h</text>
</a>
</g>
</g>
<!-- Node7&#45;&gt;Node14 -->
<g id="edge13_Node000007_Node000014" class="edge">
<title>Node7&#45;&gt;Node14</title>
<g id="a_edge13_Node000007_Node000014"><a xlink:title=" ">
<path fill="none" stroke="#63b8ff" d="M456.72,-55.59C433.89,-46.97 399.84,-34.12 374.16,-24.42"/>
<polygon fill="#63b8ff" stroke="#63b8ff" points="375.74,-21.27 365.14,-21.01 373.26,-27.82 375.74,-21.27"/>
</a>
</g>
</g>
<!-- Node15&#45;&gt;Node9 -->
<g id="edge15_Node000015_Node000009" class="edge">
<title>Node15&#45;&gt;Node9</title>
<g id="a_edge15_Node000015_Node000009"><a xlink:title=" ">
<path fill="none" stroke="#63b8ff" d="M159.39,-55.59C170.98,-47.67 187.82,-36.16 201.49,-26.82"/>
<polygon fill="#63b8ff" stroke="#63b8ff" points="203.23,-29.87 209.51,-21.33 199.28,-24.09 203.23,-29.87"/>
</a>
</g>
</g>
<!-- Node16 -->
<g id="Node000016" class="node">
<title>Node16</title>
<g id="a_Node000016"><a xlink:title=" ">
<polygon fill="#e0e0e0" stroke="#999999" points="628.62,-20 570.62,-20 570.62,0 628.62,0 628.62,-20"/>
<text text-anchor="middle" x="599.62" y="-6.5" font-family="Helvetica,sans-Serif" font-size="10.00">functional</text>
</a>
</g>
</g>
<!-- Node15&#45;&gt;Node16 -->
<g id="edge16_Node000015_Node000016" class="edge">
<title>Node15&#45;&gt;Node16</title>
<g id="a_edge16_Node000015_Node000016"><a xlink:title=" ">
<path fill="none" stroke="#63b8ff" d="M186.51,-57.37C189.59,-56.87 192.65,-56.41 195.62,-56 353.88,-34.01 398.42,-46.31 558.99,-20.23"/>
<polygon fill="#63b8ff" stroke="#63b8ff" points="559.46,-23.7 568.75,-18.62 558.32,-16.79 559.46,-23.7"/>
</a>
</g>
</g>
<!-- Node17 -->
<g id="Node000017" class="node">
<title>Node17</title>
<g id="a_Node000017"><a xlink:title=" ">
<polygon fill="#e0e0e0" stroke="#999999" points="174.25,-20 135,-20 135,0 174.25,0 174.25,-20"/>
<text text-anchor="middle" x="154.62" y="-6.5" font-family="Helvetica,sans-Serif" font-size="10.00">limits</text>
</a>
</g>
</g>
<!-- Node15&#45;&gt;Node17 -->
<g id="edge17_Node000015_Node000017" class="edge">
<title>Node15&#45;&gt;Node17</title>
<g id="a_edge17_Node000015_Node000017"><a xlink:title=" ">
<path fill="none" stroke="#63b8ff" d="M147.19,-55.59C148.3,-48.93 149.83,-39.75 151.22,-31.44"/>
<polygon fill="#63b8ff" stroke="#63b8ff" points="154.63,-32.23 152.83,-21.79 147.73,-31.08 154.63,-32.23"/>
</a>
</g>
</g>
<!-- Node18 -->
<g id="Node000018" class="node">
<title>Node18</title>
<g id="a_Node000018"><a xlink:title=" ">
<polygon fill="#e0e0e0" stroke="#999999" points="117.38,-20 27.88,-20 27.88,0 117.38,0 117.38,-20"/>
<text text-anchor="middle" x="72.62" y="-6.5" font-family="Helvetica,sans-Serif" font-size="10.00">boost/format.hpp</text>
</a>
</g>
</g>
<!-- Node15&#45;&gt;Node18 -->
<g id="edge18_Node000015_Node000018" class="edge">
<title>Node15&#45;&gt;Node18</title>
<g id="a_edge18_Node000015_Node000018"><a xlink:title=" ">
<path fill="none" stroke="#63b8ff" d="M132.91,-55.59C122.23,-47.7 106.75,-36.24 94.14,-26.92"/>
<polygon fill="#63b8ff" stroke="#63b8ff" points="96.53,-24.33 86.41,-21.2 92.37,-29.96 96.53,-24.33"/>
</a>
</g>
</g>
<!-- Node19&#45;&gt;Node2 -->
<g id="edge57_Node000019_Node000002" class="edge">
<title>Node19&#45;&gt;Node2</title>
<g id="a_edge57_Node000019_Node000002"><a xlink:title=" ">
<path fill="none" stroke="#63b8ff" d="M790.42,-293.66C761.26,-284.8 710.83,-269.42 667.62,-256 534.96,-214.79 378.05,-165.06 305.35,-141.96"/>
<polygon fill="#63b8ff" stroke="#63b8ff" points="306.46,-138.64 295.87,-138.94 304.34,-145.31 306.46,-138.64"/>
</a>
</g>
</g>
<!-- Node20 -->
<g id="Node000020" class="node">
<title>Node20</title>
<g id="a_Node000020"><a xlink:href="input_8h.html" target="_top" xlink:title="Declarations for gamepad, keyboard, and mouse input handling.">
<polygon fill="white" stroke="#666666" points="897.25,-256 852,-256 852,-236 897.25,-236 897.25,-256"/>
<text text-anchor="middle" x="874.62" y="-242.5" font-family="Helvetica,sans-Serif" font-size="10.00">input.h</text>
</a>
</g>
</g>
<!-- Node19&#45;&gt;Node20 -->
<g id="edge20_Node000019_Node000020" class="edge">
<title>Node19&#45;&gt;Node20</title>
<g id="a_edge20_Node000019_Node000020"><a xlink:title=" ">
<path fill="none" stroke="#63b8ff" d="M825.08,-291.59C833.59,-283.93 845.84,-272.91 856.02,-263.75"/>
<polygon fill="#63b8ff" stroke="#63b8ff" points="858.08,-266.6 863.17,-257.31 853.39,-261.4 858.08,-266.6"/>
</a>
</g>
</g>
<!-- Node21 -->
<g id="Node000021" class="node">
<title>Node21</title>
<g id="a_Node000021"><a xlink:href="common_8h.html" target="_top" xlink:title="Declarations for common platform specific utilities.">
<polygon fill="white" stroke="#666666" points="830.62,-200 730.62,-200 730.62,-180 830.62,-180 830.62,-200"/>
<text text-anchor="middle" x="780.62" y="-186.5" font-family="Helvetica,sans-Serif" font-size="10.00">platform/common.h</text>
</a>
</g>
</g>
<!-- Node19&#45;&gt;Node21 -->
<g id="edge55_Node000019_Node000021" class="edge">
<title>Node19&#45;&gt;Node21</title>
<g id="a_edge55_Node000019_Node000021"><a xlink:title=" ">
<path fill="none" stroke="#63b8ff" d="M812.03,-291.71C808.47,-279.07 801.8,-255.75 795.62,-236 793.05,-227.75 790.06,-218.71 787.44,-210.9"/>
<polygon fill="#63b8ff" stroke="#63b8ff" points="790.84,-210.05 784.32,-201.71 784.22,-212.3 790.84,-210.05"/>
</a>
</g>
</g>
<!-- Node25 -->
<g id="Node000025" class="node">
<title>Node25</title>
<g id="a_Node000025"><a xlink:href="thread__safe_8h.html" target="_top" xlink:title="Declarations for thread&#45;safe data structures.">
<polygon fill="white" stroke="#666666" points="1089.5,-138 997.75,-138 997.75,-118 1089.5,-118 1089.5,-138"/>
<text text-anchor="middle" x="1043.62" y="-124.5" font-family="Helvetica,sans-Serif" font-size="10.00">src/thread_safe.h</text>
</a>
</g>
</g>
<!-- Node19&#45;&gt;Node25 -->
<g id="edge56_Node000019_Node000025" class="edge">
<title>Node19&#45;&gt;Node25</title>
<g id="a_edge56_Node000019_Node000025"><a xlink:title=" ">
<path fill="none" stroke="#63b8ff" d="M838.74,-291.51C857.94,-283.43 885.07,-270.78 906.62,-256 955.19,-222.69 1003.79,-172.73 1027.94,-146.51"/>
<polygon fill="#63b8ff" stroke="#63b8ff" points="1030.26,-149.16 1034.4,-139.41 1025.08,-144.45 1030.26,-149.16"/>
</a>
</g>
</g>
<!-- Node38 -->
<g id="Node000038" class="node">
<title>Node38</title>
<g id="a_Node000038"><a xlink:title=" ">
<polygon fill="#e0e0e0" stroke="#999999" points="786.88,-256 676.38,-256 676.38,-236 786.88,-236 786.88,-256"/>
<text text-anchor="middle" x="731.62" y="-242.5" font-family="Helvetica,sans-Serif" font-size="10.00">libavcodec/avcodec.h</text>
</a>
</g>
</g>
<!-- Node19&#45;&gt;Node38 -->
<g id="edge58_Node000019_Node000038" class="edge">
<title>Node19&#45;&gt;Node38</title>
<g id="a_edge58_Node000019_Node000038"><a xlink:title=" ">
<path fill="none" stroke="#63b8ff" d="M800.17,-291.59C787.87,-283.59 769.95,-271.93 755.52,-262.54"/>
<polygon fill="#63b8ff" stroke="#63b8ff" points="757.75,-259.82 747.46,-257.3 753.94,-265.69 757.75,-259.82"/>
</a>
</g>
</g>
<!-- Node19&#45;&gt;Node39 -->
<g id="edge59_Node000019_Node000039" class="edge">
<title>Node19&#45;&gt;Node39</title>
<g id="a_edge59_Node000019_Node000039"><a xlink:title=" ">
<path fill="none" stroke="#63b8ff" d="M838.55,-295.53C875.73,-287.02 948.27,-270.42 998.07,-259.03"/>
<polygon fill="#63b8ff" stroke="#63b8ff" points="998.82,-262.44 1007.79,-256.8 997.26,-255.62 998.82,-262.44"/>
</a>
</g>
</g>
<!-- Node20&#45;&gt;Node16 -->
<g id="edge21_Node000020_Node000016" class="edge">
<title>Node20&#45;&gt;Node16</title>
<g id="a_edge21_Node000020_Node000016"><a xlink:title=" ">
<path fill="none" stroke="#63b8ff" d="M875.26,-235.81C876.39,-213.01 876.62,-152.75 851.62,-112 829.87,-76.54 814.17,-73.91 776.62,-56 770.39,-53.02 690.49,-33.21 640.2,-20.89"/>
<polygon fill="#63b8ff" stroke="#63b8ff" points="641.05,-17.5 630.5,-18.52 639.38,-24.3 641.05,-17.5"/>
</a>
</g>
</g>
<!-- Node20&#45;&gt;Node21 -->
<g id="edge22_Node000020_Node000021" class="edge">
<title>Node20&#45;&gt;Node21</title>
<g id="a_edge22_Node000020_Node000021"><a xlink:title=" ">
<path fill="none" stroke="#63b8ff" d="M858.25,-235.59C844.05,-227.44 823.24,-215.48 806.74,-206"/>
<polygon fill="#63b8ff" stroke="#63b8ff" points="808.85,-203.18 798.44,-201.23 805.37,-209.25 808.85,-203.18"/>
</a>
</g>
</g>
<!-- Node20&#45;&gt;Node25 -->
<g id="edge54_Node000020_Node000025" class="edge">
<title>Node20&#45;&gt;Node25</title>
<g id="a_edge54_Node000020_Node000025"><a xlink:title=" ">
<path fill="none" stroke="#63b8ff" d="M884.9,-235.56C899.55,-222.33 927.57,-197.9 953.62,-180 973.21,-166.55 996.58,-153.38 1014.61,-143.79"/>
<polygon fill="#63b8ff" stroke="#63b8ff" points="1016.22,-146.9 1023.45,-139.16 1012.97,-140.7 1016.22,-146.9"/>
</a>
</g>
</g>
<!-- Node21&#45;&gt;Node2 -->
<g id="edge52_Node000021_Node000002" class="edge">
<title>Node21&#45;&gt;Node2</title>
<g id="a_edge52_Node000021_Node000002"><a xlink:title=" ">
<path fill="none" stroke="#63b8ff" d="M730.25,-186.53C645.69,-181.82 470.08,-169.68 323.62,-144 318.94,-143.18 314.08,-142.18 309.25,-141.1"/>
<polygon fill="#63b8ff" stroke="#63b8ff" points="310.14,-137.71 299.6,-138.8 308.52,-144.52 310.14,-137.71"/>
</a>
</g>
</g>
<!-- Node21&#45;&gt;Node4 -->
<g id="edge30_Node000021_Node000004" class="edge">
<title>Node21&#45;&gt;Node4</title>
<g id="a_edge30_Node000021_Node000004"><a xlink:title=" ">
<path fill="none" stroke="#63b8ff" d="M730.17,-186.6C657.1,-182.31 517.95,-171.09 402.62,-144 400.02,-143.39 397.35,-142.67 394.68,-141.88"/>
<polygon fill="#63b8ff" stroke="#63b8ff" points="395.92,-138.6 385.33,-138.83 393.75,-145.26 395.92,-138.6"/>
</a>
</g>
</g>
<!-- Node21&#45;&gt;Node7 -->
<g id="edge29_Node000021_Node000007" class="edge">
<title>Node21&#45;&gt;Node7</title>
<g id="a_edge29_Node000021_Node000007"><a xlink:title=" ">
<path fill="none" stroke="#63b8ff" d="M730.31,-186.05C639.25,-180.21 454.75,-165.79 435.62,-144 419.29,-125.4 440.99,-100.2 459.78,-83.78"/>
<polygon fill="#63b8ff" stroke="#63b8ff" points="461.95,-86.52 467.42,-77.45 457.48,-81.13 461.95,-86.52"/>
</a>
</g>
</g>
<!-- Node21&#45;&gt;Node8 -->
<g id="edge23_Node000021_Node000008" class="edge">
<title>Node21&#45;&gt;Node8</title>
<g id="a_edge23_Node000021_Node000008"><a xlink:title=" ">
<path fill="none" stroke="#63b8ff" d="M730.3,-185.62C670.99,-180.55 577.47,-168.8 553.62,-144 524.55,-113.76 525.92,-60.57 529.34,-31.46"/>
<polygon fill="#63b8ff" stroke="#63b8ff" points="532.77,-32.15 530.69,-21.77 525.84,-31.19 532.77,-32.15"/>
</a>
</g>
</g>
<!-- Node21&#45;&gt;Node11 -->
<g id="edge27_Node000021_Node000011" class="edge">
<title>Node21&#45;&gt;Node11</title>
<g id="a_edge27_Node000021_Node000011"><a xlink:title=" ">
<path fill="none" stroke="#63b8ff" d="M817.87,-179.65C836.24,-172.95 856.75,-161.87 867.62,-144 875.02,-131.85 871.63,-125.65 867.62,-112 859.29,-83.61 855.55,-73.41 831.62,-56 783.83,-21.22 758.57,-35.46 697.79,-20.34"/>
<polygon fill="#63b8ff" stroke="#63b8ff" points="698.9,-17.01 688.34,-17.8 697.08,-23.77 698.9,-17.01"/>
</a>
</g>
</g>
<!-- Node21&#45;&gt;Node16 -->
<g id="edge25_Node000021_Node000016" class="edge">
<title>Node21&#45;&gt;Node16</title>
<g id="a_edge25_Node000021_Node000016"><a xlink:title=" ">
<path fill="none" stroke="#63b8ff" d="M798.84,-179.51C811.46,-171.82 827.27,-159.69 834.62,-144 840.66,-131.12 842.45,-123.88 834.62,-112 812.15,-77.87 700.53,-40.61 639.56,-22.36"/>
<polygon fill="#63b8ff" stroke="#63b8ff" points="640.83,-19.09 630.25,-19.61 638.84,-25.8 640.83,-19.09"/>
</a>
</g>
</g>
<!-- Node22 -->
<g id="Node000022" class="node">
<title>Node22</title>
<g id="a_Node000022"><a xlink:title=" ">
<polygon fill="#e0e0e0" stroke="#999999" points="506.12,-138 445.12,-138 445.12,-118 506.12,-118 506.12,-138"/>
<text text-anchor="middle" x="475.62" y="-124.5" font-family="Helvetica,sans-Serif" font-size="10.00">filesystem</text>
</a>
</g>
</g>
<!-- Node21&#45;&gt;Node22 -->
<g id="edge24_Node000021_Node000022" class="edge">
<title>Node21&#45;&gt;Node22</title>
<g id="a_edge24_Node000021_Node000022"><a xlink:title=" ">
<path fill="none" stroke="#63b8ff" d="M730.31,-182.58C677.59,-175.32 592.59,-162.11 520.62,-144 518,-143.34 515.3,-142.6 512.6,-141.81"/>
<polygon fill="#63b8ff" stroke="#63b8ff" points="513.64,-138.47 503.05,-138.85 511.56,-145.16 513.64,-138.47"/>
</a>
</g>
</g>
<!-- Node23 -->
<g id="Node000023" class="node">
<title>Node23</title>
<g id="a_Node000023"><a xlink:title=" ">
<polygon fill="#e0e0e0" stroke="#999999" points="1430.12,-20 1387.12,-20 1387.12,0 1430.12,0 1430.12,-20"/>
<text text-anchor="middle" x="1408.62" y="-6.5" font-family="Helvetica,sans-Serif" font-size="10.00">mutex</text>
</a>
</g>
</g>
<!-- Node21&#45;&gt;Node23 -->
<g id="edge26_Node000021_Node000023" class="edge">
<title>Node21&#45;&gt;Node23</title>
<g id="a_edge26_Node000021_Node000023"><a xlink:title=" ">
<path fill="none" stroke="#63b8ff" d="M831.02,-184.85C894.2,-178.97 1005.51,-166.36 1098.62,-144 1189.1,-122.27 1211.99,-114.65 1296.62,-76 1328.4,-61.49 1362.87,-40.65 1385.05,-26.5"/>
<polygon fill="#63b8ff" stroke="#63b8ff" points="1386.83,-29.52 1393.33,-21.16 1383.03,-23.64 1386.83,-29.52"/>
</a>
</g>
</g>
<!-- Node24 -->
<g id="Node000024" class="node">
<title>Node24</title>
<g id="a_Node000024"><a xlink:title=" ">
<polygon fill="#e0e0e0" stroke="#999999" points="700.75,-138 562.5,-138 562.5,-118 700.75,-118 700.75,-138"/>
<text text-anchor="middle" x="631.62" y="-124.5" font-family="Helvetica,sans-Serif" font-size="10.00">boost/core/noncopyable.hpp</text>
</a>
</g>
</g>
<!-- Node21&#45;&gt;Node24 -->
<g id="edge28_Node000021_Node000024" class="edge">
<title>Node21&#45;&gt;Node24</title>
<g id="a_edge28_Node000021_Node000024"><a xlink:title=" ">
<path fill="none" stroke="#63b8ff" d="M757.34,-179.62C732.63,-169.67 693.35,-153.85 665.27,-142.55"/>
<polygon fill="#63b8ff" stroke="#63b8ff" points="666.73,-139.36 656.15,-138.87 664.12,-145.86 666.73,-139.36"/>
</a>
</g>
</g>
<!-- Node21&#45;&gt;Node25 -->
<g id="edge31_Node000021_Node000025" class="edge">
<title>Node21&#45;&gt;Node25</title>
<g id="a_edge31_Node000021_Node000025"><a xlink:title=" ">
<path fill="none" stroke="#63b8ff" d="M825.06,-179.51C866.23,-170.63 929.17,-156.84 983.62,-144 987.45,-143.1 991.41,-142.15 995.38,-141.18"/>
<polygon fill="#63b8ff" stroke="#63b8ff" points="996.19,-144.59 1005.07,-138.8 994.52,-137.79 996.19,-144.59"/>
</a>
</g>
</g>
<!-- Node30 -->
<g id="Node000030" class="node">
<title>Node30</title>
<g id="a_Node000030"><a xlink:href="utility_8h.html" target="_top" xlink:title="Declarations for utility functions.">
<polygon fill="white" stroke="#666666" points="1044,-76 997.25,-76 997.25,-56 1044,-56 1044,-76"/>
<text text-anchor="middle" x="1020.62" y="-62.5" font-family="Helvetica,sans-Serif" font-size="10.00">utility.h</text>
</a>
</g>
</g>
<!-- Node21&#45;&gt;Node30 -->
<g id="edge51_Node000021_Node000030" class="edge">
<title>Node21&#45;&gt;Node30</title>
<g id="a_edge51_Node000021_Node000030"><a xlink:title=" ">
<path fill="none" stroke="#63b8ff" d="M830.97,-182.39C865.13,-176.25 910.32,-164.8 945.62,-144 971.27,-128.89 994.06,-102.73 1007.61,-85.14"/>
<polygon fill="#63b8ff" stroke="#63b8ff" points="1010.07,-87.7 1013.24,-77.6 1004.46,-83.52 1010.07,-87.7"/>
</a>
</g>
</g>
<!-- Node37 -->
<g id="Node000037" class="node">
<title>Node37</title>
<g id="a_Node000037"><a xlink:title=" ">
<polygon fill="#e0e0e0" stroke="#999999" points="826,-144 719.25,-144 719.25,-112 826,-112 826,-144"/>
<text text-anchor="start" x="727.25" y="-130.5" font-family="Helvetica,sans-Serif" font-size="10.00">moonlight&#45;common&#45;c</text>
<text text-anchor="middle" x="772.62" y="-118.5" font-family="Helvetica,sans-Serif" font-size="10.00">/src/Limelight.h</text>
</a>
</g>
</g>
<!-- Node21&#45;&gt;Node37 -->
<g id="edge53_Node000021_Node000037" class="edge">
<title>Node21&#45;&gt;Node37</title>
<g id="a_edge53_Node000021_Node000037"><a xlink:title=" ">
<path fill="none" stroke="#63b8ff" d="M779.38,-179.62C778.5,-173.1 777.3,-164.05 776.15,-155.4"/>
<polygon fill="#63b8ff" stroke="#63b8ff" points="779.63,-155.09 774.84,-145.64 772.7,-156.02 779.63,-155.09"/>
</a>
</g>
</g>
<!-- Node25&#45;&gt;Node13 -->
<g id="edge38_Node000025_Node000013" class="edge">
<title>Node25&#45;&gt;Node13</title>
<g id="a_edge38_Node000025_Node000013"><a xlink:title=" ">
<path fill="none" stroke="#63b8ff" d="M1033.97,-117.7C1017.36,-102.28 981.69,-71.57 945.62,-56 870.42,-23.53 842.08,-38.88 759.67,-20.47"/>
<polygon fill="#63b8ff" stroke="#63b8ff" points="760.52,-17.08 749.98,-18.2 758.92,-23.89 760.52,-17.08"/>
</a>
</g>
</g>
<!-- Node25&#45;&gt;Node16 -->
<g id="edge35_Node000025_Node000016" class="edge">
<title>Node25&#45;&gt;Node16</title>
<g id="a_edge35_Node000025_Node000016"><a xlink:title=" ">
<path fill="none" stroke="#63b8ff" d="M1024.83,-117.62C993.46,-102.35 928.1,-72.23 869.62,-56 772.52,-29.05 742.1,-39.27 640.13,-20.33"/>
<polygon fill="#63b8ff" stroke="#63b8ff" points="641,-16.93 630.52,-18.49 639.68,-23.81 641,-16.93"/>
</a>
</g>
</g>
<!-- Node25&#45;&gt;Node23 -->
<g id="edge37_Node000025_Node000023" class="edge">
<title>Node25&#45;&gt;Node23</title>
<g id="a_edge37_Node000025_Node000023"><a xlink:title=" ">
<path fill="none" stroke="#63b8ff" d="M1089.96,-118.26C1133.53,-109.5 1200.31,-94.63 1256.62,-76 1300.31,-61.55 1348.89,-39.7 1379.1,-25.4"/>
<polygon fill="#63b8ff" stroke="#63b8ff" points="1380.48,-28.62 1387.99,-21.15 1377.46,-22.3 1380.48,-28.62"/>
</a>
</g>
</g>
<!-- Node26 -->
<g id="Node000026" class="node">
<title>Node26</title>
<g id="a_Node000026"><a xlink:title=" ">
<polygon fill="#e0e0e0" stroke="#999999" points="1152.5,-76 1114.75,-76 1114.75,-56 1152.5,-56 1152.5,-76"/>
<text text-anchor="middle" x="1133.62" y="-62.5" font-family="Helvetica,sans-Serif" font-size="10.00">array</text>
</a>
</g>
</g>
<!-- Node25&#45;&gt;Node26 -->
<g id="edge32_Node000025_Node000026" class="edge">
<title>Node25&#45;&gt;Node26</title>
<g id="a_edge32_Node000025_Node000026"><a xlink:title=" ">
<path fill="none" stroke="#63b8ff" d="M1057.69,-117.62C1071.82,-108.2 1093.85,-93.52 1110.55,-82.39"/>
<polygon fill="#63b8ff" stroke="#63b8ff" points="1112.02,-85.61 1118.4,-77.15 1108.14,-79.78 1112.02,-85.61"/>
</a>
</g>
</g>
<!-- Node27 -->
<g id="Node000027" class="node">
<title>Node27</title>
<g id="a_Node000027"><a xlink:title=" ">
<polygon fill="#e0e0e0" stroke="#999999" points="1216.25,-76 1171,-76 1171,-56 1216.25,-56 1216.25,-76"/>
<text text-anchor="middle" x="1193.62" y="-62.5" font-family="Helvetica,sans-Serif" font-size="10.00">atomic</text>
</a>
</g>
</g>
<!-- Node25&#45;&gt;Node27 -->
<g id="edge33_Node000025_Node000027" class="edge">
<title>Node25&#45;&gt;Node27</title>
<g id="a_edge33_Node000025_Node000027"><a xlink:title=" ">
<path fill="none" stroke="#63b8ff" d="M1067.06,-117.62C1092.09,-107.62 1131.95,-91.67 1160.25,-80.35"/>
<polygon fill="#63b8ff" stroke="#63b8ff" points="1161.45,-83.64 1169.44,-76.67 1158.85,-77.14 1161.45,-83.64"/>
</a>
</g>
</g>
<!-- Node28 -->
<g id="Node000028" class="node">
<title>Node28</title>
<g id="a_Node000028"><a xlink:title=" ">
<polygon fill="#e0e0e0" stroke="#999999" points="1368.62,-20 1274.62,-20 1274.62,0 1368.62,0 1368.62,-20"/>
<text text-anchor="middle" x="1321.62" y="-6.5" font-family="Helvetica,sans-Serif" font-size="10.00">condition_variable</text>
</a>
</g>
</g>
<!-- Node25&#45;&gt;Node28 -->
<g id="edge34_Node000025_Node000028" class="edge">
<title>Node25&#45;&gt;Node28</title>
<g id="a_edge34_Node000025_Node000028"><a xlink:title=" ">
<path fill="none" stroke="#63b8ff" d="M1089.95,-118.34C1127.62,-110.28 1181.57,-96.43 1225.62,-76 1253.8,-62.94 1282.88,-42.01 1301.54,-27.45"/>
<polygon fill="#63b8ff" stroke="#63b8ff" points="1303.7,-30.2 1309.34,-21.23 1299.34,-24.72 1303.7,-30.2"/>
</a>
</g>
</g>
<!-- Node29 -->
<g id="Node000029" class="node">
<title>Node29</title>
<g id="a_Node000029"><a xlink:title=" ">
<polygon fill="#e0e0e0" stroke="#999999" points="1097,-76 1062.25,-76 1062.25,-56 1097,-56 1097,-76"/>
<text text-anchor="middle" x="1079.62" y="-62.5" font-family="Helvetica,sans-Serif" font-size="10.00">map</text>
</a>
</g>
</g>
<!-- Node25&#45;&gt;Node29 -->
<g id="edge36_Node000025_Node000029" class="edge">
<title>Node25&#45;&gt;Node29</title>
<g id="a_edge36_Node000025_Node000029"><a xlink:title=" ">
<path fill="none" stroke="#63b8ff" d="M1049.25,-117.62C1054.35,-109.12 1062.03,-96.33 1068.38,-85.74"/>
<polygon fill="#63b8ff" stroke="#63b8ff" points="1071.23,-87.79 1073.38,-77.41 1065.23,-84.18 1071.23,-87.79"/>
</a>
</g>
</g>
<!-- Node25&#45;&gt;Node30 -->
<g id="edge39_Node000025_Node000030" class="edge">
<title>Node25&#45;&gt;Node30</title>
<g id="a_edge39_Node000025_Node000030"><a xlink:title=" ">
<path fill="none" stroke="#63b8ff" d="M1040.03,-117.62C1036.87,-109.39 1032.17,-97.13 1028.19,-86.74"/>
<polygon fill="#63b8ff" stroke="#63b8ff" points="1031.51,-85.61 1024.66,-77.53 1024.97,-88.12 1031.51,-85.61"/>
</a>
</g>
</g>
<!-- Node30&#45;&gt;Node10 -->
<g id="edge44_Node000030_Node000010" class="edge">
<title>Node30&#45;&gt;Node10</title>
<g id="a_edge44_Node000030_Node000010"><a xlink:title=" ">
<path fill="none" stroke="#63b8ff" d="M996.75,-59.13C992.39,-58.08 987.87,-57 983.62,-56 916.53,-40.25 896.88,-37.52 827.02,-20.52"/>
<polygon fill="#63b8ff" stroke="#63b8ff" points="827.87,-17.12 817.32,-18.15 826.2,-23.92 827.87,-17.12"/>
</a>
</g>
</g>
<!-- Node30&#45;&gt;Node11 -->
<g id="edge46_Node000030_Node000011" class="edge">
<title>Node30&#45;&gt;Node11</title>
<g id="a_edge46_Node000030_Node000011"><a xlink:title=" ">
<path fill="none" stroke="#63b8ff" d="M997.24,-61.99C932.84,-53.66 754.37,-30.38 698.15,-20.04"/>
<polygon fill="#63b8ff" stroke="#63b8ff" points="699.09,-16.65 688.59,-18.11 697.7,-23.52 699.09,-16.65"/>
</a>
</g>
</g>
<!-- Node30&#45;&gt;Node13 -->
<g id="edge50_Node000030_Node000013" class="edge">
<title>Node30&#45;&gt;Node13</title>
<g id="a_edge50_Node000030_Node000013"><a xlink:title=" ">
<path fill="none" stroke="#63b8ff" d="M996.8,-58.9C992.43,-57.87 987.9,-56.86 983.62,-56 886.99,-36.62 858.22,-42.28 759.56,-20.43"/>
<polygon fill="#63b8ff" stroke="#63b8ff" points="760.49,-17.05 749.97,-18.26 758.95,-23.88 760.49,-17.05"/>
</a>
</g>
</g>
<!-- Node30&#45;&gt;Node23 -->
<g id="edge43_Node000030_Node000023" class="edge">
<title>Node30&#45;&gt;Node23</title>
<g id="a_edge43_Node000030_Node000023"><a xlink:title=" ">
<path fill="none" stroke="#63b8ff" d="M1044.31,-58.07C1047.43,-57.29 1050.59,-56.58 1053.62,-56 1192.47,-29.52 1233.54,-47.38 1375.85,-20.01"/>
<polygon fill="#63b8ff" stroke="#63b8ff" points="1376.1,-23.52 1385.24,-18.16 1374.75,-16.65 1376.1,-23.52"/>
</a>
</g>
</g>
<!-- Node30&#45;&gt;Node28 -->
<g id="edge41_Node000030_Node000028" class="edge">
<title>Node30&#45;&gt;Node28</title>
<g id="a_edge41_Node000030_Node000028"><a xlink:title=" ">
<path fill="none" stroke="#63b8ff" d="M1044.35,-58.23C1047.46,-57.43 1050.61,-56.66 1053.62,-56 1073.69,-51.59 1190.52,-32.35 1263.15,-20.5"/>
<polygon fill="#63b8ff" stroke="#63b8ff" points="1263.6,-23.97 1272.91,-18.91 1262.48,-17.06 1263.6,-23.97"/>
</a>
</g>
</g>
<!-- Node31 -->
<g id="Node000031" class="node">
<title>Node31</title>
<g id="a_Node000031"><a xlink:title=" ">
<polygon fill="#e0e0e0" stroke="#999999" points="1117.5,-20 1061.75,-20 1061.75,0 1117.5,0 1117.5,-20"/>
<text text-anchor="middle" x="1089.62" y="-6.5" font-family="Helvetica,sans-Serif" font-size="10.00">algorithm</text>
</a>
</g>
</g>
<!-- Node30&#45;&gt;Node31 -->
<g id="edge40_Node000030_Node000031" class="edge">
<title>Node30&#45;&gt;Node31</title>
<g id="a_edge40_Node000030_Node000031"><a xlink:title=" ">
<path fill="none" stroke="#63b8ff" d="M1032.64,-55.59C1042.64,-47.77 1057.09,-36.46 1068.93,-27.19"/>
<polygon fill="#63b8ff" stroke="#63b8ff" points="1070.83,-30.15 1076.55,-21.23 1066.52,-24.64 1070.83,-30.15"/>
</a>
</g>
</g>
<!-- Node32 -->
<g id="Node000032" class="node">
<title>Node32</title>
<g id="a_Node000032"><a xlink:title=" ">
<polygon fill="#e0e0e0" stroke="#999999" points="1187.25,-20 1136,-20 1136,0 1187.25,0 1187.25,-20"/>
<text text-anchor="middle" x="1161.62" y="-6.5" font-family="Helvetica,sans-Serif" font-size="10.00">memory</text>
</a>
</g>
</g>
<!-- Node30&#45;&gt;Node32 -->
<g id="edge42_Node000030_Node000032" class="edge">
<title>Node30&#45;&gt;Node32</title>
<g id="a_edge42_Node000030_Node000032"><a xlink:title=" ">
<path fill="none" stroke="#63b8ff" d="M1044.23,-55.96C1066.73,-47.34 1100.89,-34.26 1126.57,-24.43"/>
<polygon fill="#63b8ff" stroke="#63b8ff" points="1127.5,-27.82 1135.59,-20.97 1125,-21.28 1127.5,-27.82"/>
</a>
</g>
</g>
<!-- Node33 -->
<g id="Node000033" class="node">
<title>Node33</title>
<g id="a_Node000033"><a xlink:title=" ">
<polygon fill="#e0e0e0" stroke="#999999" points="1256.25,-20 1205,-20 1205,0 1256.25,0 1256.25,-20"/>
<text text-anchor="middle" x="1230.62" y="-6.5" font-family="Helvetica,sans-Serif" font-size="10.00">ostream</text>
</a>
</g>
</g>
<!-- Node30&#45;&gt;Node33 -->
<g id="edge45_Node000030_Node000033" class="edge">
<title>Node30&#45;&gt;Node33</title>
<g id="a_edge45_Node000030_Node000033"><a xlink:title=" ">
<path fill="none" stroke="#63b8ff" d="M1044.4,-58.46C1047.5,-57.62 1050.64,-56.78 1053.62,-56 1113.68,-40.25 1131.33,-36.74 1193.78,-20.71"/>
<polygon fill="#63b8ff" stroke="#63b8ff" points="1194.37,-24.17 1203.18,-18.29 1192.62,-17.39 1194.37,-24.17"/>
</a>
</g>
</g>
<!-- Node34 -->
<g id="Node000034" class="node">
<title>Node34</title>
<g id="a_Node000034"><a xlink:title=" ">
<polygon fill="#e0e0e0" stroke="#999999" points="899.38,-20 833.88,-20 833.88,0 899.38,0 899.38,-20"/>
<text text-anchor="middle" x="866.62" y="-6.5" font-family="Helvetica,sans-Serif" font-size="10.00">string_view</text>
</a>
</g>
</g>
<!-- Node30&#45;&gt;Node34 -->
<g id="edge47_Node000030_Node000034" class="edge">
<title>Node30&#45;&gt;Node34</title>
<g id="a_edge47_Node000030_Node000034"><a xlink:title=" ">
<path fill="none" stroke="#63b8ff" d="M996.9,-56.68C972.14,-48 932.95,-34.26 904.02,-24.11"/>
<polygon fill="#63b8ff" stroke="#63b8ff" points="905.51,-20.93 894.91,-20.92 903.19,-27.53 905.51,-20.93"/>
</a>
</g>
</g>
<!-- Node35 -->
<g id="Node000035" class="node">
<title>Node35</title>
<g id="a_Node000035"><a xlink:title=" ">
<polygon fill="#e0e0e0" stroke="#999999" points="979.5,-20 917.75,-20 917.75,0 979.5,0 979.5,-20"/>
<text text-anchor="middle" x="948.62" y="-6.5" font-family="Helvetica,sans-Serif" font-size="10.00">type_traits</text>
</a>
</g>
</g>
<!-- Node30&#45;&gt;Node35 -->
<g id="edge48_Node000030_Node000035" class="edge">
<title>Node30&#45;&gt;Node35</title>
<g id="a_edge48_Node000030_Node000035"><a xlink:title=" ">
<path fill="none" stroke="#63b8ff" d="M1008.08,-55.59C997.66,-47.77 982.58,-36.46 970.21,-27.19"/>
<polygon fill="#63b8ff" stroke="#63b8ff" points="972.33,-24.41 962.23,-21.21 968.13,-30.01 972.33,-24.41"/>
</a>
</g>
</g>
<!-- Node36 -->
<g id="Node000036" class="node">
<title>Node36</title>
<g id="a_Node000036"><a xlink:title=" ">
<polygon fill="#e0e0e0" stroke="#999999" points="1043.25,-20 998,-20 998,0 1043.25,0 1043.25,-20"/>
<text text-anchor="middle" x="1020.62" y="-6.5" font-family="Helvetica,sans-Serif" font-size="10.00">variant</text>
</a>
</g>
</g>
<!-- Node30&#45;&gt;Node36 -->
<g id="edge49_Node000030_Node000036" class="edge">
<title>Node30&#45;&gt;Node36</title>
<g id="a_edge49_Node000030_Node000036"><a xlink:title=" ">
<path fill="none" stroke="#63b8ff" d="M1020.62,-55.59C1020.62,-49.01 1020.62,-39.96 1020.62,-31.73"/>
<polygon fill="#63b8ff" stroke="#63b8ff" points="1024.13,-31.81 1020.63,-21.81 1017.13,-31.81 1024.13,-31.81"/>
</a>
</g>
</g>
</g>
</svg>
