<?xml version="1.0" encoding="UTF-8" standalone="no"?>
<!DOCTYPE svg PUBLIC "-//W3C//DTD SVG 1.1//EN"
 "http://www.w3.org/Graphics/SVG/1.1/DTD/svg11.dtd">
<!-- Generated by graphviz version 12.2.1 (0)
 -->
<!-- Title: src/platform/linux/wayland.h Pages: 1 -->
<!--zoomable 332 -->

<svg id="main" version="1.1" xmlns="http://www.w3.org/2000/svg" xmlns:xlink="http://www.w3.org/1999/xlink" xml:space="preserve" onload="init(evt)">

<style type="text/css"><![CDATA[
.node, .edge {opacity: 0.7;}
.node.selected, .edge.selected {opacity: 1;}
.edge:hover path { stroke: red; }
.edge:hover polygon { stroke: red; fill: red; }
]]></style>

<defs>
  <circle id="rim" cx="0" cy="0" r="7"/>
  <circle id="rim2" cx="0" cy="0" r="3.5"/>
  <g id="zoomPlus">
    <use xlink:href="#rim" fill="#404040"><set attributeName="fill" to="#808080" begin="zoomplus.mouseover" end="zoomplus.mouseout"/></use>
    <path d="M-4,0h8M0,-4v8" fill="none" stroke="white" stroke-width="1.5" pointer-events="none"/>
  </g>
  <g id="zoomMin">
    <use xlink:href="#rim" fill="#404040"><set attributeName="fill" to="#808080" begin="zoomminus.mouseover" end="zoomminus.mouseout"/></use>
    <path d="M-4,0h8" fill="none" stroke="white" stroke-width="1.5" pointer-events="none"/>
  </g>
  <g id="arrowUp" transform="translate(30 24)">
    <use xlink:href="#rim"/>
    <path pointer-events="none" fill="none" stroke="white" stroke-width="1.5" d="M0,-3.0v7 M-2.5,-0.5L0,-3.0L2.5,-0.5"/>
  </g>
  <g id="arrowRight" transform="rotate(90) translate(36 -43)">
    <use xlink:href="#rim"/>
    <path pointer-events="none" fill="none" stroke="white" stroke-width="1.5" d="M0,-3.0v7 M-2.5,-0.5L0,-3.0L2.5,-0.5"/>
  </g>
  <g id="arrowDown" transform="rotate(180) translate(-30 -48)">
    <use xlink:href="#rim"/>
    <path pointer-events="none" fill="none" stroke="white" stroke-width="1.5" d="M0,-3.0v7 M-2.5,-0.5L0,-3.0L2.5,-0.5"/>
  </g>
  <g id="arrowLeft" transform="rotate(270) translate(-36 17)">
    <use xlink:href="#rim"/>
    <path pointer-events="none" fill="none" stroke="white" stroke-width="1.5" d="M0,-3.0v7 M-2.5,-0.5L0,-3.0L2.5,-0.5"/>
  </g>
  <g id="resetDef">
    <use xlink:href="#rim2" fill="#404040"><set attributeName="fill" to="#808080" begin="reset.mouseover" end="reset.mouseout"/></use>
  </g>
</defs>
<script type="application/ecmascript">
var viewWidth = 1655;
var viewHeight = 332;
var sectionId = 'dynsection-0';
</script>
<script type="application/ecmascript" xlink:href="svg.min.js"/>
<svg id="graph" class="graph">
<g id="viewport">
<title>src/platform/linux/wayland.h</title>
<!-- Node1 -->
<g id="Node000001" class="node">
<title>Node1</title>
<g id="a_Node000001"><a xlink:title="Declarations for Wayland capture.">
<polygon fill="#999999" stroke="#666666" points="814.12,-324 723.12,-324 723.12,-292 814.12,-292 814.12,-324"/>
<text text-anchor="start" x="731.12" y="-310.5" font-family="Helvetica,sans-Serif" font-size="10.00">src/platform/linux</text>
<text text-anchor="middle" x="768.62" y="-298.5" font-family="Helvetica,sans-Serif" font-size="10.00">/wayland.h</text>
</a>
</g>
</g>
<!-- Node2 -->
<g id="Node000002" class="node">
<title>Node2</title>
<g id="a_Node000002"><a xlink:title=" ">
<polygon fill="#e0e0e0" stroke="#999999" points="321.62,-20 281.62,-20 281.62,0 321.62,0 321.62,-20"/>
<text text-anchor="middle" x="301.62" y="-6.5" font-family="Helvetica,sans-Serif" font-size="10.00">bitset</text>
</a>
</g>
</g>
<!-- Node1&#45;&gt;Node2 -->
<g id="edge1_Node000001_Node000002" class="edge">
<title>Node1&#45;&gt;Node2</title>
<g id="a_edge1_Node000001_Node000002"><a xlink:title=" ">
<path fill="none" stroke="#63b8ff" d="M722.78,-303.14C580.91,-290.59 158.62,-248.4 158.62,-191 158.62,-191 158.62,-191 158.62,-127 158.62,-94.33 155.55,-80.08 177.62,-56 190.4,-42.07 238.24,-27.4 270.62,-18.73"/>
<polygon fill="#63b8ff" stroke="#63b8ff" points="271.1,-22.22 279.89,-16.31 269.33,-15.45 271.1,-22.22"/>
</a>
</g>
</g>
<!-- Node3 -->
<g id="Node000003" class="node">
<title>Node3</title>
<g id="a_Node000003"><a xlink:title=" ">
<polygon fill="#e0e0e0" stroke="#999999" points="679.12,-256 546.12,-256 546.12,-236 679.12,-236 679.12,-256"/>
<text text-anchor="middle" x="612.62" y="-242.5" font-family="Helvetica,sans-Serif" font-size="10.00">linux&#45;dmabuf&#45;unstable&#45;v1.h</text>
</a>
</g>
</g>
<!-- Node1&#45;&gt;Node3 -->
<g id="edge2_Node000001_Node000003" class="edge">
<title>Node1&#45;&gt;Node3</title>
<g id="a_edge2_Node000001_Node000003"><a xlink:title=" ">
<path fill="none" stroke="#63b8ff" d="M728.45,-291.55C703.51,-281.96 671.77,-269.75 647.82,-260.54"/>
<polygon fill="#63b8ff" stroke="#63b8ff" points="649.09,-257.27 638.5,-256.95 646.58,-263.81 649.09,-257.27"/>
</a>
</g>
</g>
<!-- Node4 -->
<g id="Node000004" class="node">
<title>Node4</title>
<g id="a_Node000004"><a xlink:title=" ">
<polygon fill="#e0e0e0" stroke="#999999" points="840.38,-256 696.88,-256 696.88,-236 840.38,-236 840.38,-256"/>
<text text-anchor="middle" x="768.62" y="-242.5" font-family="Helvetica,sans-Serif" font-size="10.00">wlr&#45;screencopy&#45;unstable&#45;v1.h</text>
</a>
</g>
</g>
<!-- Node1&#45;&gt;Node4 -->
<g id="edge3_Node000001_Node000004" class="edge">
<title>Node1&#45;&gt;Node4</title>
<g id="a_edge3_Node000001_Node000004"><a xlink:title=" ">
<path fill="none" stroke="#63b8ff" d="M768.62,-291.55C768.62,-284.34 768.62,-275.66 768.62,-267.88"/>
<polygon fill="#63b8ff" stroke="#63b8ff" points="772.13,-267.92 768.63,-257.92 765.13,-267.92 772.13,-267.92"/>
</a>
</g>
</g>
<!-- Node5 -->
<g id="Node000005" class="node">
<title>Node5</title>
<g id="a_Node000005"><a xlink:title=" ">
<polygon fill="#e0e0e0" stroke="#999999" points="981.25,-256 858,-256 858,-236 981.25,-236 981.25,-256"/>
<text text-anchor="middle" x="919.62" y="-242.5" font-family="Helvetica,sans-Serif" font-size="10.00">xdg&#45;output&#45;unstable&#45;v1.h</text>
</a>
</g>
</g>
<!-- Node1&#45;&gt;Node5 -->
<g id="edge4_Node000001_Node000005" class="edge">
<title>Node1&#45;&gt;Node5</title>
<g id="a_edge4_Node000001_Node000005"><a xlink:title=" ">
<path fill="none" stroke="#63b8ff" d="M807.51,-291.55C831.65,-281.96 862.38,-269.75 885.56,-260.54"/>
<polygon fill="#63b8ff" stroke="#63b8ff" points="886.54,-263.91 894.54,-256.97 883.96,-257.41 886.54,-263.91"/>
</a>
</g>
</g>
<!-- Node6 -->
<g id="Node000006" class="node">
<title>Node6</title>
<g id="a_Node000006"><a xlink:href="graphics_8h.html" target="_top" xlink:title="Declarations for graphics related functions.">
<polygon fill="white" stroke="#666666" points="1357.12,-256 1296.12,-256 1296.12,-236 1357.12,-236 1357.12,-256"/>
<text text-anchor="middle" x="1326.62" y="-242.5" font-family="Helvetica,sans-Serif" font-size="10.00">graphics.h</text>
</a>
</g>
</g>
<!-- Node1&#45;&gt;Node6 -->
<g id="edge5_Node000001_Node000006" class="edge">
<title>Node1&#45;&gt;Node6</title>
<g id="a_edge5_Node000001_Node000006"><a xlink:title=" ">
<path fill="none" stroke="#63b8ff" d="M814.29,-302.09C920.32,-290.69 1181.96,-262.56 1284.47,-251.53"/>
<polygon fill="#63b8ff" stroke="#63b8ff" points="1284.8,-255.02 1294.37,-250.47 1284.05,-248.06 1284.8,-255.02"/>
</a>
</g>
</g>
<!-- Node7 -->
<g id="Node000007" class="node">
<title>Node7</title>
<g id="a_Node000007"><a xlink:title=" ">
<polygon fill="#e0e0e0" stroke="#999999" points="695.5,-20 645.75,-20 645.75,0 695.5,0 695.5,-20"/>
<text text-anchor="middle" x="670.62" y="-6.5" font-family="Helvetica,sans-Serif" font-size="10.00">optional</text>
</a>
</g>
</g>
<!-- Node6&#45;&gt;Node7 -->
<g id="edge6_Node000006_Node000007" class="edge">
<title>Node6&#45;&gt;Node7</title>
<g id="a_edge6_Node000006_Node000007"><a xlink:title=" ">
<path fill="none" stroke="#63b8ff" d="M1295.89,-244.73C1191.53,-243.47 851.65,-236.58 749.62,-200 708.77,-185.35 689.67,-182.5 669.62,-144 650.85,-107.95 658.37,-58.59 664.9,-31.27"/>
<polygon fill="#63b8ff" stroke="#63b8ff" points="668.22,-32.42 667.35,-21.86 661.44,-30.66 668.22,-32.42"/>
</a>
</g>
</g>
<!-- Node8 -->
<g id="Node000008" class="node">
<title>Node8</title>
<g id="a_Node000008"><a xlink:title=" ">
<polygon fill="#e0e0e0" stroke="#999999" points="1520.38,-20 1454.88,-20 1454.88,0 1520.38,0 1520.38,-20"/>
<text text-anchor="middle" x="1487.62" y="-6.5" font-family="Helvetica,sans-Serif" font-size="10.00">string_view</text>
</a>
</g>
</g>
<!-- Node6&#45;&gt;Node8 -->
<g id="edge7_Node000006_Node000008" class="edge">
<title>Node6&#45;&gt;Node8</title>
<g id="a_edge7_Node000006_Node000008"><a xlink:title=" ">
<path fill="none" stroke="#63b8ff" d="M1354.7,-235.65C1375.07,-228.02 1402.61,-215.92 1423.62,-200 1449.76,-180.21 1458.43,-174.01 1471.62,-144 1487.95,-106.86 1489.46,-58.57 1488.76,-31.58"/>
<polygon fill="#63b8ff" stroke="#63b8ff" points="1492.26,-31.55 1488.36,-21.7 1485.27,-31.83 1492.26,-31.55"/>
</a>
</g>
</g>
<!-- Node9 -->
<g id="Node000009" class="node">
<title>Node9</title>
<g id="a_Node000009"><a xlink:title=" ">
<polygon fill="#e0e0e0" stroke="#999999" points="1576.62,-200 1518.62,-200 1518.62,-180 1576.62,-180 1576.62,-200"/>
<text text-anchor="middle" x="1547.62" y="-186.5" font-family="Helvetica,sans-Serif" font-size="10.00">glad/egl.h</text>
</a>
</g>
</g>
<!-- Node6&#45;&gt;Node9 -->
<g id="edge8_Node000006_Node000009" class="edge">
<title>Node6&#45;&gt;Node9</title>
<g id="a_edge8_Node000006_Node000009"><a xlink:title=" ">
<path fill="none" stroke="#63b8ff" d="M1357.35,-237.49C1396.44,-227.94 1464.04,-211.42 1507.25,-200.87"/>
<polygon fill="#63b8ff" stroke="#63b8ff" points="1507.86,-204.32 1516.74,-198.55 1506.2,-197.52 1507.86,-204.32"/>
</a>
</g>
</g>
<!-- Node10 -->
<g id="Node000010" class="node">
<title>Node10</title>
<g id="a_Node000010"><a xlink:title=" ">
<polygon fill="#e0e0e0" stroke="#999999" points="1647,-200 1594.25,-200 1594.25,-180 1647,-180 1647,-200"/>
<text text-anchor="middle" x="1620.62" y="-186.5" font-family="Helvetica,sans-Serif" font-size="10.00">glad/gl.h</text>
</a>
</g>
</g>
<!-- Node6&#45;&gt;Node10 -->
<g id="edge9_Node000006_Node000010" class="edge">
<title>Node6&#45;&gt;Node10</title>
<g id="a_edge9_Node000006_Node000010"><a xlink:title=" ">
<path fill="none" stroke="#63b8ff" d="M1357.48,-240.45C1404.18,-233.4 1495.83,-218.87 1582.79,-200.48"/>
<polygon fill="#63b8ff" stroke="#63b8ff" points="1583.4,-203.93 1592.44,-198.42 1581.93,-197.08 1583.4,-203.93"/>
</a>
</g>
</g>
<!-- Node11 -->
<g id="Node000011" class="node">
<title>Node11</title>
<g id="a_Node000011"><a xlink:href="linux_2misc_8h.html" target="_top" xlink:title="Miscellaneous declarations for Linux.">
<polygon fill="white" stroke="#666666" points="1462.25,-138 1417,-138 1417,-118 1462.25,-118 1462.25,-138"/>
<text text-anchor="middle" x="1439.62" y="-124.5" font-family="Helvetica,sans-Serif" font-size="10.00">misc.h</text>
</a>
</g>
</g>
<!-- Node6&#45;&gt;Node11 -->
<g id="edge10_Node000006_Node000011" class="edge">
<title>Node6&#45;&gt;Node11</title>
<g id="a_edge10_Node000006_Node000011"><a xlink:title=" ">
<path fill="none" stroke="#63b8ff" d="M1349.51,-235.58C1365.91,-227.92 1387.65,-215.81 1402.62,-200 1416.64,-185.2 1426.74,-164.07 1432.81,-148.7"/>
<polygon fill="#63b8ff" stroke="#63b8ff" points="1435.95,-150.3 1436.14,-139.7 1429.39,-147.87 1435.95,-150.3"/>
</a>
</g>
</g>
<!-- Node14 -->
<g id="Node000014" class="node">
<title>Node14</title>
<g id="a_Node000014"><a xlink:href="utility_8h.html" target="_top" xlink:title="Declarations for utility functions.">
<polygon fill="white" stroke="#666666" points="1270.25,-76 1207,-76 1207,-56 1270.25,-56 1270.25,-76"/>
<text text-anchor="middle" x="1238.62" y="-62.5" font-family="Helvetica,sans-Serif" font-size="10.00">src/utility.h</text>
</a>
</g>
</g>
<!-- Node6&#45;&gt;Node14 -->
<g id="edge63_Node000006_Node000014" class="edge">
<title>Node6&#45;&gt;Node14</title>
<g id="a_edge63_Node000006_Node000014"><a xlink:title=" ">
<path fill="none" stroke="#63b8ff" d="M1332.27,-235.67C1345.47,-212.56 1375.24,-151.64 1348.62,-112 1340.64,-100.11 1308.95,-87.87 1281.62,-79.17"/>
<polygon fill="#63b8ff" stroke="#63b8ff" points="1282.68,-75.84 1272.09,-76.23 1280.62,-82.52 1282.68,-75.84"/>
</a>
</g>
</g>
<!-- Node23 -->
<g id="Node000023" class="node">
<title>Node23</title>
<g id="a_Node000023"><a xlink:href="logging_8h.html" target="_top" xlink:title="Declarations for logging related functions.">
<polygon fill="white" stroke="#666666" points="409.38,-138 337.88,-138 337.88,-118 409.38,-118 409.38,-138"/>
<text text-anchor="middle" x="373.62" y="-124.5" font-family="Helvetica,sans-Serif" font-size="10.00">src/logging.h</text>
</a>
</g>
</g>
<!-- Node6&#45;&gt;Node23 -->
<g id="edge25_Node000006_Node000023" class="edge">
<title>Node6&#45;&gt;Node23</title>
<g id="a_edge25_Node000006_Node000023"><a xlink:title=" ">
<path fill="none" stroke="#63b8ff" d="M1295.89,-243.87C1159.82,-238.76 615.08,-217.4 540.62,-200 488.53,-187.83 432.07,-160.56 399.96,-143.59"/>
<polygon fill="#63b8ff" stroke="#63b8ff" points="401.84,-140.62 391.37,-138.98 398.53,-146.79 401.84,-140.62"/>
</a>
</g>
</g>
<!-- Node34 -->
<g id="Node000034" class="node">
<title>Node34</title>
<g id="a_Node000034"><a xlink:href="common_8h.html" target="_top" xlink:title="Declarations for common platform specific utilities.">
<polygon fill="white" stroke="#666666" points="874.88,-200 758.38,-200 758.38,-180 874.88,-180 874.88,-200"/>
<text text-anchor="middle" x="816.62" y="-186.5" font-family="Helvetica,sans-Serif" font-size="10.00">src/platform/common.h</text>
</a>
</g>
</g>
<!-- Node6&#45;&gt;Node34 -->
<g id="edge41_Node000006_Node000034" class="edge">
<title>Node6&#45;&gt;Node34</title>
<g id="a_edge41_Node000006_Node000034"><a xlink:title=" ">
<path fill="none" stroke="#63b8ff" d="M1295.87,-241.74C1215.71,-233.26 998.82,-210.29 886.36,-198.38"/>
<polygon fill="#63b8ff" stroke="#63b8ff" points="886.97,-194.93 876.66,-197.36 886.23,-201.89 886.97,-194.93"/>
</a>
</g>
</g>
<!-- Node41 -->
<g id="Node000041" class="node">
<title>Node41</title>
<g id="a_Node000041"><a xlink:href="video__colorspace_8h.html" target="_top" xlink:title="Declarations for colorspace functions.">
<polygon fill="white" stroke="#666666" points="1322.88,-138 1206.38,-138 1206.38,-118 1322.88,-118 1322.88,-138"/>
<text text-anchor="middle" x="1264.62" y="-124.5" font-family="Helvetica,sans-Serif" font-size="10.00">src/video_colorspace.h</text>
</a>
</g>
</g>
<!-- Node6&#45;&gt;Node41 -->
<g id="edge64_Node000006_Node000041" class="edge">
<title>Node6&#45;&gt;Node41</title>
<g id="a_edge64_Node000006_Node000041"><a xlink:title=" ">
<path fill="none" stroke="#63b8ff" d="M1321.55,-235.51C1311.37,-216.46 1288.29,-173.28 1274.85,-148.14"/>
<polygon fill="#63b8ff" stroke="#63b8ff" points="1278.11,-146.8 1270.31,-139.63 1271.94,-150.1 1278.11,-146.8"/>
</a>
</g>
</g>
<!-- Node12 -->
<g id="Node000012" class="node">
<title>Node12</title>
<g id="a_Node000012"><a xlink:title=" ">
<polygon fill="#e0e0e0" stroke="#999999" points="1462.88,-76 1412.38,-76 1412.38,-56 1462.88,-56 1462.88,-76"/>
<text text-anchor="middle" x="1437.62" y="-62.5" font-family="Helvetica,sans-Serif" font-size="10.00">unistd.h</text>
</a>
</g>
</g>
<!-- Node11&#45;&gt;Node12 -->
<g id="edge11_Node000011_Node000012" class="edge">
<title>Node11&#45;&gt;Node12</title>
<g id="a_edge11_Node000011_Node000012"><a xlink:title=" ">
<path fill="none" stroke="#63b8ff" d="M1439.31,-117.62C1439.04,-109.56 1438.65,-97.65 1438.31,-87.41"/>
<polygon fill="#63b8ff" stroke="#63b8ff" points="1441.81,-87.5 1437.98,-77.63 1434.81,-87.74 1441.81,-87.5"/>
</a>
</g>
</g>
<!-- Node13 -->
<g id="Node000013" class="node">
<title>Node13</title>
<g id="a_Node000013"><a xlink:title=" ">
<polygon fill="#e0e0e0" stroke="#999999" points="1076.12,-20 1033.12,-20 1033.12,0 1076.12,0 1076.12,-20"/>
<text text-anchor="middle" x="1054.62" y="-6.5" font-family="Helvetica,sans-Serif" font-size="10.00">vector</text>
</a>
</g>
</g>
<!-- Node11&#45;&gt;Node13 -->
<g id="edge12_Node000011_Node000013" class="edge">
<title>Node11&#45;&gt;Node13</title>
<g id="a_edge12_Node000011_Node000013"><a xlink:title=" ">
<path fill="none" stroke="#63b8ff" d="M1422.39,-117.73C1393.62,-102.62 1333.62,-72.71 1279.62,-56 1198.89,-31.02 1172.45,-39.87 1087.71,-20.51"/>
<polygon fill="#63b8ff" stroke="#63b8ff" points="1088.51,-17.1 1077.98,-18.21 1086.91,-23.92 1088.51,-17.1"/>
</a>
</g>
</g>
<!-- Node11&#45;&gt;Node14 -->
<g id="edge13_Node000011_Node000014" class="edge">
<title>Node11&#45;&gt;Node14</title>
<g id="a_edge13_Node000011_Node000014"><a xlink:title=" ">
<path fill="none" stroke="#63b8ff" d="M1417.48,-117.53C1412.62,-115.59 1407.48,-113.64 1402.62,-112 1362.05,-98.26 1314.78,-85.64 1281.45,-77.28"/>
<polygon fill="#63b8ff" stroke="#63b8ff" points="1282.72,-73.99 1272.17,-74.98 1281.04,-80.79 1282.72,-73.99"/>
</a>
</g>
</g>
<!-- Node14&#45;&gt;Node7 -->
<g id="edge18_Node000014_Node000007" class="edge">
<title>Node14&#45;&gt;Node7</title>
<g id="a_edge18_Node000014_Node000007"><a xlink:title=" ">
<path fill="none" stroke="#63b8ff" d="M1206.83,-57.4C1204.06,-56.87 1201.3,-56.4 1198.62,-56 984.48,-24.29 923.75,-55.26 706.88,-20.05"/>
<polygon fill="#63b8ff" stroke="#63b8ff" points="707.69,-16.64 697.26,-18.46 706.55,-23.54 707.69,-16.64"/>
</a>
</g>
</g>
<!-- Node14&#45;&gt;Node8 -->
<g id="edge21_Node000014_Node000008" class="edge">
<title>Node14&#45;&gt;Node8</title>
<g id="a_edge21_Node000014_Node000008"><a xlink:title=" ">
<path fill="none" stroke="#63b8ff" d="M1270.67,-58.05C1314.66,-48.51 1393.93,-31.32 1443.5,-20.57"/>
<polygon fill="#63b8ff" stroke="#63b8ff" points="1444.01,-24.04 1453.04,-18.5 1442.52,-17.2 1444.01,-24.04"/>
</a>
</g>
</g>
<!-- Node14&#45;&gt;Node13 -->
<g id="edge24_Node000014_Node000013" class="edge">
<title>Node14&#45;&gt;Node13</title>
<g id="a_edge24_Node000014_Node000013"><a xlink:title=" ">
<path fill="none" stroke="#63b8ff" d="M1206.75,-55.76C1177.85,-47.36 1133.78,-34.52 1087.44,-20.82"/>
<polygon fill="#63b8ff" stroke="#63b8ff" points="1088.61,-17.52 1078.03,-18.03 1086.62,-24.23 1088.61,-17.52"/>
</a>
</g>
</g>
<!-- Node15 -->
<g id="Node000015" class="node">
<title>Node15</title>
<g id="a_Node000015"><a xlink:title=" ">
<polygon fill="#e0e0e0" stroke="#999999" points="1213.5,-20 1157.75,-20 1157.75,0 1213.5,0 1213.5,-20"/>
<text text-anchor="middle" x="1185.62" y="-6.5" font-family="Helvetica,sans-Serif" font-size="10.00">algorithm</text>
</a>
</g>
</g>
<!-- Node14&#45;&gt;Node15 -->
<g id="edge14_Node000014_Node000015" class="edge">
<title>Node14&#45;&gt;Node15</title>
<g id="a_edge14_Node000014_Node000015"><a xlink:title=" ">
<path fill="none" stroke="#63b8ff" d="M1229.39,-55.59C1222.02,-48.08 1211.49,-37.35 1202.61,-28.3"/>
<polygon fill="#63b8ff" stroke="#63b8ff" points="1205.31,-26.06 1195.81,-21.38 1200.32,-30.97 1205.31,-26.06"/>
</a>
</g>
</g>
<!-- Node16 -->
<g id="Node000016" class="node">
<title>Node16</title>
<g id="a_Node000016"><a xlink:title=" ">
<polygon fill="#e0e0e0" stroke="#999999" points="1014.62,-20 920.62,-20 920.62,0 1014.62,0 1014.62,-20"/>
<text text-anchor="middle" x="967.62" y="-6.5" font-family="Helvetica,sans-Serif" font-size="10.00">condition_variable</text>
</a>
</g>
</g>
<!-- Node14&#45;&gt;Node16 -->
<g id="edge15_Node000014_Node000016" class="edge">
<title>Node14&#45;&gt;Node16</title>
<g id="a_edge15_Node000014_Node000016"><a xlink:title=" ">
<path fill="none" stroke="#63b8ff" d="M1206.77,-57.74C1204.01,-57.14 1201.27,-56.56 1198.62,-56 1140.07,-43.71 1072.93,-30.76 1026.18,-21.92"/>
<polygon fill="#63b8ff" stroke="#63b8ff" points="1027.01,-18.52 1016.53,-20.1 1025.71,-25.4 1027.01,-18.52"/>
</a>
</g>
</g>
<!-- Node17 -->
<g id="Node000017" class="node">
<title>Node17</title>
<g id="a_Node000017"><a xlink:title=" ">
<polygon fill="#e0e0e0" stroke="#999999" points="1283.25,-20 1232,-20 1232,0 1283.25,0 1283.25,-20"/>
<text text-anchor="middle" x="1257.62" y="-6.5" font-family="Helvetica,sans-Serif" font-size="10.00">memory</text>
</a>
</g>
</g>
<!-- Node14&#45;&gt;Node17 -->
<g id="edge16_Node000014_Node000017" class="edge">
<title>Node14&#45;&gt;Node17</title>
<g id="a_edge16_Node000014_Node000017"><a xlink:title=" ">
<path fill="none" stroke="#63b8ff" d="M1241.93,-55.59C1244.3,-48.86 1247.59,-39.53 1250.53,-31.15"/>
<polygon fill="#63b8ff" stroke="#63b8ff" points="1253.83,-32.32 1253.85,-21.73 1247.23,-30 1253.83,-32.32"/>
</a>
</g>
</g>
<!-- Node18 -->
<g id="Node000018" class="node">
<title>Node18</title>
<g id="a_Node000018"><a xlink:title=" ">
<polygon fill="#e0e0e0" stroke="#999999" points="902.12,-20 859.12,-20 859.12,0 902.12,0 902.12,-20"/>
<text text-anchor="middle" x="880.62" y="-6.5" font-family="Helvetica,sans-Serif" font-size="10.00">mutex</text>
</a>
</g>
</g>
<!-- Node14&#45;&gt;Node18 -->
<g id="edge17_Node000014_Node000018" class="edge">
<title>Node14&#45;&gt;Node18</title>
<g id="a_edge17_Node000014_Node000018"><a xlink:title=" ">
<path fill="none" stroke="#63b8ff" d="M1206.8,-57.55C1204.04,-56.99 1201.29,-56.47 1198.62,-56 1075.58,-34.49 1039.55,-45.34 913.76,-20.12"/>
<polygon fill="#63b8ff" stroke="#63b8ff" points="914.51,-16.7 904.02,-18.13 913.11,-23.56 914.51,-16.7"/>
</a>
</g>
</g>
<!-- Node19 -->
<g id="Node000019" class="node">
<title>Node19</title>
<g id="a_Node000019"><a xlink:title=" ">
<polygon fill="#e0e0e0" stroke="#999999" points="1352.25,-20 1301,-20 1301,0 1352.25,0 1352.25,-20"/>
<text text-anchor="middle" x="1326.62" y="-6.5" font-family="Helvetica,sans-Serif" font-size="10.00">ostream</text>
</a>
</g>
</g>
<!-- Node14&#45;&gt;Node19 -->
<g id="edge19_Node000014_Node000019" class="edge">
<title>Node14&#45;&gt;Node19</title>
<g id="a_edge19_Node000014_Node000019"><a xlink:title=" ">
<path fill="none" stroke="#63b8ff" d="M1253.95,-55.59C1267.12,-47.51 1286.36,-35.71 1301.73,-26.27"/>
<polygon fill="#63b8ff" stroke="#63b8ff" points="1303.19,-29.48 1309.89,-21.27 1299.53,-23.52 1303.19,-29.48"/>
</a>
</g>
</g>
<!-- Node20 -->
<g id="Node000020" class="node">
<title>Node20</title>
<g id="a_Node000020"><a xlink:title=" ">
<polygon fill="#e0e0e0" stroke="#999999" points="753.62,-20 713.62,-20 713.62,0 753.62,0 753.62,-20"/>
<text text-anchor="middle" x="733.62" y="-6.5" font-family="Helvetica,sans-Serif" font-size="10.00">string</text>
</a>
</g>
</g>
<!-- Node14&#45;&gt;Node20 -->
<g id="edge20_Node000014_Node000020" class="edge">
<title>Node14&#45;&gt;Node20</title>
<g id="a_edge20_Node000014_Node000020"><a xlink:title=" ">
<path fill="none" stroke="#63b8ff" d="M1206.82,-57.47C1204.06,-56.93 1201.3,-56.43 1198.62,-56 1114.59,-42.53 855.86,-20.91 765.31,-13.55"/>
<polygon fill="#63b8ff" stroke="#63b8ff" points="765.69,-10.07 755.44,-12.75 765.12,-17.04 765.69,-10.07"/>
</a>
</g>
</g>
<!-- Node21 -->
<g id="Node000021" class="node">
<title>Node21</title>
<g id="a_Node000021"><a xlink:title=" ">
<polygon fill="#e0e0e0" stroke="#999999" points="1432.5,-20 1370.75,-20 1370.75,0 1432.5,0 1432.5,-20"/>
<text text-anchor="middle" x="1401.62" y="-6.5" font-family="Helvetica,sans-Serif" font-size="10.00">type_traits</text>
</a>
</g>
</g>
<!-- Node14&#45;&gt;Node21 -->
<g id="edge22_Node000014_Node000021" class="edge">
<title>Node14&#45;&gt;Node21</title>
<g id="a_edge22_Node000014_Node000021"><a xlink:title=" ">
<path fill="none" stroke="#63b8ff" d="M1267.02,-55.59C1293.38,-46.86 1332.89,-33.77 1362.29,-24.03"/>
<polygon fill="#63b8ff" stroke="#63b8ff" points="1363.18,-27.42 1371.57,-20.96 1360.98,-20.78 1363.18,-27.42"/>
</a>
</g>
</g>
<!-- Node22 -->
<g id="Node000022" class="node">
<title>Node22</title>
<g id="a_Node000022"><a xlink:title=" ">
<polygon fill="#e0e0e0" stroke="#999999" points="1139.25,-20 1094,-20 1094,0 1139.25,0 1139.25,-20"/>
<text text-anchor="middle" x="1116.62" y="-6.5" font-family="Helvetica,sans-Serif" font-size="10.00">variant</text>
</a>
</g>
</g>
<!-- Node14&#45;&gt;Node22 -->
<g id="edge23_Node000014_Node000022" class="edge">
<title>Node14&#45;&gt;Node22</title>
<g id="a_edge23_Node000014_Node000022"><a xlink:title=" ">
<path fill="none" stroke="#63b8ff" d="M1217.37,-55.59C1198.34,-47.17 1170.15,-34.69 1148.42,-25.07"/>
<polygon fill="#63b8ff" stroke="#63b8ff" points="1149.99,-21.94 1139.43,-21.09 1147.15,-28.34 1149.99,-21.94"/>
</a>
</g>
</g>
<!-- Node24 -->
<g id="Node000024" class="node">
<title>Node24</title>
<g id="a_Node000024"><a xlink:title=" ">
<polygon fill="#e0e0e0" stroke="#999999" points="420.12,-76 305.12,-76 305.12,-56 420.12,-56 420.12,-76"/>
<text text-anchor="middle" x="362.62" y="-62.5" font-family="Helvetica,sans-Serif" font-size="10.00">boost/log/common.hpp</text>
</a>
</g>
</g>
<!-- Node23&#45;&gt;Node24 -->
<g id="edge26_Node000023_Node000024" class="edge">
<title>Node23&#45;&gt;Node24</title>
<g id="a_edge26_Node000023_Node000024"><a xlink:title=" ">
<path fill="none" stroke="#63b8ff" d="M371.91,-117.62C370.43,-109.56 368.24,-97.65 366.37,-87.41"/>
<polygon fill="#63b8ff" stroke="#63b8ff" points="369.81,-86.81 364.57,-77.6 362.93,-88.07 369.81,-86.81"/>
</a>
</g>
</g>
<!-- Node25 -->
<g id="Node000025" class="node">
<title>Node25</title>
<g id="a_Node000025"><a xlink:title=" ">
<polygon fill="#e0e0e0" stroke="#999999" points="287,-76 186.25,-76 186.25,-56 287,-56 287,-76"/>
<text text-anchor="middle" x="236.62" y="-62.5" font-family="Helvetica,sans-Serif" font-size="10.00">boost/log/sinks.hpp</text>
</a>
</g>
</g>
<!-- Node23&#45;&gt;Node25 -->
<g id="edge27_Node000023_Node000025" class="edge">
<title>Node23&#45;&gt;Node25</title>
<g id="a_edge27_Node000023_Node000025"><a xlink:title=" ">
<path fill="none" stroke="#63b8ff" d="M352.22,-117.62C329.7,-107.76 294.02,-92.13 268.25,-80.85"/>
<polygon fill="#63b8ff" stroke="#63b8ff" points="269.83,-77.72 259.27,-76.92 267.02,-84.13 269.83,-77.72"/>
</a>
</g>
</g>
<!-- Node26 -->
<g id="Node000026" class="node">
<title>Node26</title>
<g id="a_Node000026"><a xlink:href="config_8h.html" target="_top" xlink:title="Declarations for the configuration of Sunshine.">
<polygon fill="white" stroke="#666666" points="526.88,-76 476.38,-76 476.38,-56 526.88,-56 526.88,-76"/>
<text text-anchor="middle" x="501.62" y="-62.5" font-family="Helvetica,sans-Serif" font-size="10.00">config.h</text>
</a>
</g>
</g>
<!-- Node23&#45;&gt;Node26 -->
<g id="edge28_Node000023_Node000026" class="edge">
<title>Node23&#45;&gt;Node26</title>
<g id="a_edge28_Node000023_Node000026"><a xlink:title=" ">
<path fill="none" stroke="#63b8ff" d="M393.62,-117.62C414.48,-107.85 447.41,-92.41 471.43,-81.15"/>
<polygon fill="#63b8ff" stroke="#63b8ff" points="472.83,-84.37 480.39,-76.95 469.85,-78.03 472.83,-84.37"/>
</a>
</g>
</g>
<!-- Node30 -->
<g id="Node000030" class="node">
<title>Node30</title>
<g id="a_Node000030"><a xlink:href="stat__trackers_8h.html" target="_top" xlink:title="Declarations for streaming statistic tracking.">
<polygon fill="white" stroke="#666666" points="130.25,-76 49,-76 49,-56 130.25,-56 130.25,-76"/>
<text text-anchor="middle" x="89.62" y="-62.5" font-family="Helvetica,sans-Serif" font-size="10.00">stat_trackers.h</text>
</a>
</g>
</g>
<!-- Node23&#45;&gt;Node30 -->
<g id="edge36_Node000023_Node000030" class="edge">
<title>Node23&#45;&gt;Node30</title>
<g id="a_edge36_Node000023_Node000030"><a xlink:title=" ">
<path fill="none" stroke="#63b8ff" d="M337.66,-119.4C288.08,-108.93 198.46,-89.99 141.6,-77.98"/>
<polygon fill="#63b8ff" stroke="#63b8ff" points="142.33,-74.56 131.82,-75.91 140.88,-81.41 142.33,-74.56"/>
</a>
</g>
</g>
<!-- Node26&#45;&gt;Node2 -->
<g id="edge29_Node000026_Node000002" class="edge">
<title>Node26&#45;&gt;Node2</title>
<g id="a_edge29_Node000026_Node000002"><a xlink:title=" ">
<path fill="none" stroke="#63b8ff" d="M476.04,-58.64C444.55,-50.73 389.21,-36.57 332.79,-20.53"/>
<polygon fill="#63b8ff" stroke="#63b8ff" points="333.9,-17.21 323.33,-17.82 331.98,-23.94 333.9,-17.21"/>
</a>
</g>
</g>
<!-- Node26&#45;&gt;Node7 -->
<g id="edge31_Node000026_Node000007" class="edge">
<title>Node26&#45;&gt;Node7</title>
<g id="a_edge31_Node000026_Node000007"><a xlink:title=" ">
<path fill="none" stroke="#63b8ff" d="M527.29,-56.8C555.87,-47.67 602.28,-32.84 634.51,-22.54"/>
<polygon fill="#63b8ff" stroke="#63b8ff" points="635.37,-25.94 643.83,-19.56 633.24,-19.27 635.37,-25.94"/>
</a>
</g>
</g>
<!-- Node26&#45;&gt;Node13 -->
<g id="edge34_Node000026_Node000013" class="edge">
<title>Node26&#45;&gt;Node13</title>
<g id="a_edge34_Node000026_Node000013"><a xlink:title=" ">
<path fill="none" stroke="#63b8ff" d="M527.21,-63.46C615.26,-58.07 906.26,-39.4 1021.5,-19.94"/>
<polygon fill="#63b8ff" stroke="#63b8ff" points="1022.02,-23.4 1031.25,-18.2 1020.79,-16.51 1022.02,-23.4"/>
</a>
</g>
</g>
<!-- Node26&#45;&gt;Node20 -->
<g id="edge32_Node000026_Node000020" class="edge">
<title>Node26&#45;&gt;Node20</title>
<g id="a_edge32_Node000026_Node000020"><a xlink:title=" ">
<path fill="none" stroke="#63b8ff" d="M527.11,-60.06C563.77,-52.79 633.72,-38.38 702.4,-20.42"/>
<polygon fill="#63b8ff" stroke="#63b8ff" points="703.17,-23.84 711.94,-17.9 701.38,-17.07 703.17,-23.84"/>
</a>
</g>
</g>
<!-- Node27 -->
<g id="Node000027" class="node">
<title>Node27</title>
<g id="a_Node000027"><a xlink:title=" ">
<polygon fill="#e0e0e0" stroke="#999999" points="245.25,-20 200,-20 200,0 245.25,0 245.25,-20"/>
<text text-anchor="middle" x="222.62" y="-6.5" font-family="Helvetica,sans-Serif" font-size="10.00">chrono</text>
</a>
</g>
</g>
<!-- Node26&#45;&gt;Node27 -->
<g id="edge30_Node000026_Node000027" class="edge">
<title>Node26&#45;&gt;Node27</title>
<g id="a_edge30_Node000026_Node000027"><a xlink:title=" ">
<path fill="none" stroke="#63b8ff" d="M475.88,-60.02C425.37,-50.24 313.33,-28.56 256.74,-17.6"/>
<polygon fill="#63b8ff" stroke="#63b8ff" points="257.51,-14.19 247.03,-15.72 256.18,-21.06 257.51,-14.19"/>
</a>
</g>
</g>
<!-- Node28 -->
<g id="Node000028" class="node">
<title>Node28</title>
<g id="a_Node000028"><a xlink:title=" ">
<polygon fill="#e0e0e0" stroke="#999999" points="422,-20 339.25,-20 339.25,0 422,0 422,-20"/>
<text text-anchor="middle" x="380.62" y="-6.5" font-family="Helvetica,sans-Serif" font-size="10.00">unordered_map</text>
</a>
</g>
</g>
<!-- Node26&#45;&gt;Node28 -->
<g id="edge33_Node000026_Node000028" class="edge">
<title>Node26&#45;&gt;Node28</title>
<g id="a_edge33_Node000026_Node000028"><a xlink:title=" ">
<path fill="none" stroke="#63b8ff" d="M480.55,-55.59C461.67,-47.17 433.71,-34.69 412.16,-25.07"/>
<polygon fill="#63b8ff" stroke="#63b8ff" points="413.81,-21.98 403.25,-21.1 410.95,-28.37 413.81,-21.98"/>
</a>
</g>
</g>
<!-- Node29 -->
<g id="Node000029" class="node">
<title>Node29</title>
<g id="a_Node000029"><a xlink:href="nvenc__config_8h.html" target="_top" xlink:title="Declarations for NVENC encoder configuration.">
<polygon fill="white" stroke="#666666" points="551.25,-20 440,-20 440,0 551.25,0 551.25,-20"/>
<text text-anchor="middle" x="495.62" y="-6.5" font-family="Helvetica,sans-Serif" font-size="10.00">nvenc/nvenc_config.h</text>
</a>
</g>
</g>
<!-- Node26&#45;&gt;Node29 -->
<g id="edge35_Node000026_Node000029" class="edge">
<title>Node26&#45;&gt;Node29</title>
<g id="a_edge35_Node000026_Node000029"><a xlink:title=" ">
<path fill="none" stroke="#63b8ff" d="M500.58,-55.59C499.85,-49.01 498.84,-39.96 497.93,-31.73"/>
<polygon fill="#63b8ff" stroke="#63b8ff" points="501.41,-31.35 496.83,-21.8 494.45,-32.13 501.41,-31.35"/>
</a>
</g>
</g>
<!-- Node30&#45;&gt;Node27 -->
<g id="edge37_Node000030_Node000027" class="edge">
<title>Node30&#45;&gt;Node27</title>
<g id="a_edge37_Node000030_Node000027"><a xlink:title=" ">
<path fill="none" stroke="#63b8ff" d="M112.79,-55.59C133.96,-47 165.51,-34.19 189.37,-24.5"/>
<polygon fill="#63b8ff" stroke="#63b8ff" points="190.37,-27.87 198.32,-20.87 187.74,-21.39 190.37,-27.87"/>
</a>
</g>
</g>
<!-- Node31 -->
<g id="Node000031" class="node">
<title>Node31</title>
<g id="a_Node000031"><a xlink:title=" ">
<polygon fill="#e0e0e0" stroke="#999999" points="627.62,-20 569.62,-20 569.62,0 627.62,0 627.62,-20"/>
<text text-anchor="middle" x="598.62" y="-6.5" font-family="Helvetica,sans-Serif" font-size="10.00">functional</text>
</a>
</g>
</g>
<!-- Node30&#45;&gt;Node31 -->
<g id="edge38_Node000030_Node000031" class="edge">
<title>Node30&#45;&gt;Node31</title>
<g id="a_edge38_Node000030_Node000031"><a xlink:title=" ">
<path fill="none" stroke="#63b8ff" d="M130.36,-60.76C145.23,-59.24 162.19,-57.51 177.62,-56 344.12,-39.66 389.97,-47.42 558,-20.23"/>
<polygon fill="#63b8ff" stroke="#63b8ff" points="558.45,-23.7 567.75,-18.63 557.32,-16.79 558.45,-23.7"/>
</a>
</g>
</g>
<!-- Node32 -->
<g id="Node000032" class="node">
<title>Node32</title>
<g id="a_Node000032"><a xlink:title=" ">
<polygon fill="#e0e0e0" stroke="#999999" points="39.25,-20 0,-20 0,0 39.25,0 39.25,-20"/>
<text text-anchor="middle" x="19.62" y="-6.5" font-family="Helvetica,sans-Serif" font-size="10.00">limits</text>
</a>
</g>
</g>
<!-- Node30&#45;&gt;Node32 -->
<g id="edge39_Node000030_Node000032" class="edge">
<title>Node30&#45;&gt;Node32</title>
<g id="a_edge39_Node000030_Node000032"><a xlink:title=" ">
<path fill="none" stroke="#63b8ff" d="M77.43,-55.59C67.29,-47.77 52.63,-36.46 40.61,-27.19"/>
<polygon fill="#63b8ff" stroke="#63b8ff" points="42.93,-24.56 32.88,-21.22 38.66,-30.1 42.93,-24.56"/>
</a>
</g>
</g>
<!-- Node33 -->
<g id="Node000033" class="node">
<title>Node33</title>
<g id="a_Node000033"><a xlink:title=" ">
<polygon fill="#e0e0e0" stroke="#999999" points="146.38,-20 56.88,-20 56.88,0 146.38,0 146.38,-20"/>
<text text-anchor="middle" x="101.62" y="-6.5" font-family="Helvetica,sans-Serif" font-size="10.00">boost/format.hpp</text>
</a>
</g>
</g>
<!-- Node30&#45;&gt;Node33 -->
<g id="edge40_Node000030_Node000033" class="edge">
<title>Node30&#45;&gt;Node33</title>
<g id="a_edge40_Node000030_Node000033"><a xlink:title=" ">
<path fill="none" stroke="#63b8ff" d="M91.72,-55.59C93.2,-48.93 95.24,-39.75 97.08,-31.44"/>
<polygon fill="#63b8ff" stroke="#63b8ff" points="100.48,-32.3 99.23,-21.78 93.64,-30.78 100.48,-32.3"/>
</a>
</g>
</g>
<!-- Node34&#45;&gt;Node2 -->
<g id="edge42_Node000034_Node000002" class="edge">
<title>Node34&#45;&gt;Node2</title>
<g id="a_edge42_Node000034_Node000002"><a xlink:title=" ">
<path fill="none" stroke="#63b8ff" d="M758.12,-186.04C704.09,-181.67 622.49,-170.83 556.62,-144 492.69,-117.96 490.13,-87.35 428.62,-56 411.64,-47.34 364.81,-31.47 333.01,-21.08"/>
<polygon fill="#63b8ff" stroke="#63b8ff" points="334.1,-17.75 323.5,-17.99 331.93,-24.41 334.1,-17.75"/>
</a>
</g>
</g>
<!-- Node34&#45;&gt;Node14 -->
<g id="edge59_Node000034_Node000014" class="edge">
<title>Node34&#45;&gt;Node14</title>
<g id="a_edge59_Node000034_Node000014"><a xlink:title=" ">
<path fill="none" stroke="#63b8ff" d="M874.94,-188.24C1003.29,-185.96 1301.27,-177.13 1331.62,-144 1341.23,-133.51 1339.18,-124.05 1331.62,-112 1325.13,-101.64 1299.15,-89.54 1276.3,-80.5"/>
<polygon fill="#63b8ff" stroke="#63b8ff" points="1277.77,-77.32 1267.18,-77 1275.26,-83.85 1277.77,-77.32"/>
</a>
</g>
</g>
<!-- Node34&#45;&gt;Node18 -->
<g id="edge45_Node000034_Node000018" class="edge">
<title>Node34&#45;&gt;Node18</title>
<g id="a_edge45_Node000034_Node000018"><a xlink:title=" ">
<path fill="none" stroke="#63b8ff" d="M817.04,-179.73C818.11,-164.49 821.95,-133.65 835.62,-112 849.12,-90.64 868.63,-98.75 879.62,-76 886.25,-62.29 886.17,-44.98 884.61,-31.68"/>
<polygon fill="#63b8ff" stroke="#63b8ff" points="888.08,-31.22 883.07,-21.88 881.17,-32.31 888.08,-31.22"/>
</a>
</g>
</g>
<!-- Node34&#45;&gt;Node20 -->
<g id="edge46_Node000034_Node000020" class="edge">
<title>Node34&#45;&gt;Node20</title>
<g id="a_edge46_Node000034_Node000020"><a xlink:title=" ">
<path fill="none" stroke="#63b8ff" d="M758.04,-183.62C732.02,-177.97 703.69,-166.63 687.62,-144 664.98,-112.11 672.46,-92.05 687.62,-56 692.32,-44.84 701.28,-35.07 710.06,-27.5"/>
<polygon fill="#63b8ff" stroke="#63b8ff" points="712.1,-30.35 717.76,-21.4 707.75,-24.87 712.1,-30.35"/>
</a>
</g>
</g>
<!-- Node34&#45;&gt;Node23 -->
<g id="edge49_Node000034_Node000023" class="edge">
<title>Node34&#45;&gt;Node23</title>
<g id="a_edge49_Node000034_Node000023"><a xlink:title=" ">
<path fill="none" stroke="#63b8ff" d="M758.05,-184.37C682.79,-177.9 548.3,-164.59 434.62,-144 429.79,-143.12 424.76,-142.09 419.76,-140.98"/>
<polygon fill="#63b8ff" stroke="#63b8ff" points="420.95,-137.67 410.42,-138.81 419.37,-144.49 420.95,-137.67"/>
</a>
</g>
</g>
<!-- Node34&#45;&gt;Node26 -->
<g id="edge48_Node000034_Node000026" class="edge">
<title>Node34&#45;&gt;Node26</title>
<g id="a_edge48_Node000034_Node000026"><a xlink:title=" ">
<path fill="none" stroke="#63b8ff" d="M757.97,-181.63C717.14,-175.11 662.08,-163.52 616.62,-144 580.28,-128.39 543.12,-101.01 521.22,-83.46"/>
<polygon fill="#63b8ff" stroke="#63b8ff" points="523.69,-80.95 513.73,-77.34 519.26,-86.37 523.69,-80.95"/>
</a>
</g>
</g>
<!-- Node34&#45;&gt;Node31 -->
<g id="edge44_Node000034_Node000031" class="edge">
<title>Node34&#45;&gt;Node31</title>
<g id="a_edge44_Node000034_Node000031"><a xlink:title=" ">
<path fill="none" stroke="#63b8ff" d="M757.9,-181.78C728.76,-175.7 694.56,-164.53 669.62,-144 633.2,-114.01 612.87,-60.32 604.03,-31.17"/>
<polygon fill="#63b8ff" stroke="#63b8ff" points="607.46,-30.43 601.34,-21.77 600.73,-32.35 607.46,-30.43"/>
</a>
</g>
</g>
<!-- Node35 -->
<g id="Node000035" class="node">
<title>Node35</title>
<g id="a_Node000035"><a xlink:title=" ">
<polygon fill="#e0e0e0" stroke="#999999" points="906.12,-138 845.12,-138 845.12,-118 906.12,-118 906.12,-138"/>
<text text-anchor="middle" x="875.62" y="-124.5" font-family="Helvetica,sans-Serif" font-size="10.00">filesystem</text>
</a>
</g>
</g>
<!-- Node34&#45;&gt;Node35 -->
<g id="edge43_Node000034_Node000035" class="edge">
<title>Node34&#45;&gt;Node35</title>
<g id="a_edge43_Node000034_Node000035"><a xlink:title=" ">
<path fill="none" stroke="#63b8ff" d="M825.84,-179.62C834.64,-170.68 848.1,-156.99 858.81,-146.1"/>
<polygon fill="#63b8ff" stroke="#63b8ff" points="861.09,-148.78 865.6,-139.19 856.1,-143.87 861.09,-148.78"/>
</a>
</g>
</g>
<!-- Node36 -->
<g id="Node000036" class="node">
<title>Node36</title>
<g id="a_Node000036"><a xlink:title=" ">
<polygon fill="#e0e0e0" stroke="#999999" points="1062.75,-138 924.5,-138 924.5,-118 1062.75,-118 1062.75,-138"/>
<text text-anchor="middle" x="993.62" y="-124.5" font-family="Helvetica,sans-Serif" font-size="10.00">boost/core/noncopyable.hpp</text>
</a>
</g>
</g>
<!-- Node34&#45;&gt;Node36 -->
<g id="edge47_Node000034_Node000036" class="edge">
<title>Node34&#45;&gt;Node36</title>
<g id="a_edge47_Node000034_Node000036"><a xlink:title=" ">
<path fill="none" stroke="#63b8ff" d="M844.28,-179.62C874.07,-169.53 921.68,-153.39 955.12,-142.05"/>
<polygon fill="#63b8ff" stroke="#63b8ff" points="956.09,-145.42 964.44,-138.89 953.84,-138.79 956.09,-145.42"/>
</a>
</g>
</g>
<!-- Node37 -->
<g id="Node000037" class="node">
<title>Node37</title>
<g id="a_Node000037"><a xlink:href="thread__safe_8h.html" target="_top" xlink:title="Declarations for thread&#45;safe data structures.">
<polygon fill="white" stroke="#666666" points="788.5,-138 696.75,-138 696.75,-118 788.5,-118 788.5,-138"/>
<text text-anchor="middle" x="742.62" y="-124.5" font-family="Helvetica,sans-Serif" font-size="10.00">src/thread_safe.h</text>
</a>
</g>
</g>
<!-- Node34&#45;&gt;Node37 -->
<g id="edge50_Node000034_Node000037" class="edge">
<title>Node34&#45;&gt;Node37</title>
<g id="a_edge50_Node000034_Node000037"><a xlink:title=" ">
<path fill="none" stroke="#63b8ff" d="M805.06,-179.62C793.7,-170.41 776.14,-156.17 762.53,-145.14"/>
<polygon fill="#63b8ff" stroke="#63b8ff" points="765.01,-142.65 755.04,-139.07 760.6,-148.08 765.01,-142.65"/>
</a>
</g>
</g>
<!-- Node34&#45;&gt;Node41 -->
<g id="edge60_Node000034_Node000041" class="edge">
<title>Node34&#45;&gt;Node41</title>
<g id="a_edge60_Node000034_Node000041"><a xlink:title=" ">
<path fill="none" stroke="#63b8ff" d="M875.15,-183.89C949.99,-176.93 1083.47,-163.13 1196.62,-144 1202.22,-143.05 1208.05,-141.95 1213.83,-140.78"/>
<polygon fill="#63b8ff" stroke="#63b8ff" points="1214.29,-144.26 1223.36,-138.78 1212.86,-137.41 1214.29,-144.26"/>
</a>
</g>
</g>
<!-- Node43 -->
<g id="Node000043" class="node">
<title>Node43</title>
<g id="a_Node000043"><a xlink:title=" ">
<polygon fill="#e0e0e0" stroke="#999999" points="1188,-144 1081.25,-144 1081.25,-112 1188,-112 1188,-144"/>
<text text-anchor="start" x="1089.25" y="-130.5" font-family="Helvetica,sans-Serif" font-size="10.00">moonlight&#45;common&#45;c</text>
<text text-anchor="middle" x="1134.62" y="-118.5" font-family="Helvetica,sans-Serif" font-size="10.00">/src/Limelight.h</text>
</a>
</g>
</g>
<!-- Node34&#45;&gt;Node43 -->
<g id="edge62_Node000034_Node000043" class="edge">
<title>Node34&#45;&gt;Node43</title>
<g id="a_edge62_Node000034_Node000043"><a xlink:title=" ">
<path fill="none" stroke="#63b8ff" d="M875.3,-179.66C924.58,-171.58 997.1,-159.17 1069.85,-144.29"/>
<polygon fill="#63b8ff" stroke="#63b8ff" points="1070.49,-147.73 1079.57,-142.29 1069.07,-140.88 1070.49,-147.73"/>
</a>
</g>
</g>
<!-- Node37&#45;&gt;Node13 -->
<g id="edge57_Node000037_Node000013" class="edge">
<title>Node37&#45;&gt;Node13</title>
<g id="a_edge57_Node000037_Node000013"><a xlink:title=" ">
<path fill="none" stroke="#63b8ff" d="M777.69,-117.56C811.57,-108.12 864.16,-92.66 908.62,-76 949.86,-60.55 996.09,-39.27 1025.27,-25.33"/>
<polygon fill="#63b8ff" stroke="#63b8ff" points="1026.71,-28.52 1034.2,-21.03 1023.68,-22.21 1026.71,-28.52"/>
</a>
</g>
</g>
<!-- Node37&#45;&gt;Node14 -->
<g id="edge58_Node000037_Node000014" class="edge">
<title>Node37&#45;&gt;Node14</title>
<g id="a_edge58_Node000037_Node000014"><a xlink:title=" ">
<path fill="none" stroke="#63b8ff" d="M788.9,-118.96C803.79,-116.53 820.38,-113.98 835.62,-112 992.78,-91.55 1036.62,-101.38 1195.67,-76.31"/>
<polygon fill="#63b8ff" stroke="#63b8ff" points="1196,-79.8 1205.32,-74.77 1194.89,-72.89 1196,-79.8"/>
</a>
</g>
</g>
<!-- Node37&#45;&gt;Node16 -->
<g id="edge53_Node000037_Node000016" class="edge">
<title>Node37&#45;&gt;Node16</title>
<g id="a_edge53_Node000037_Node000016"><a xlink:title=" ">
<path fill="none" stroke="#63b8ff" d="M775.85,-117.51C804.32,-108.71 845.93,-94.25 879.62,-76 904.99,-62.26 931.23,-41.95 948.38,-27.7"/>
<polygon fill="#63b8ff" stroke="#63b8ff" points="950.38,-30.59 955.76,-21.46 945.86,-25.24 950.38,-30.59"/>
</a>
</g>
</g>
<!-- Node37&#45;&gt;Node18 -->
<g id="edge56_Node000037_Node000018" class="edge">
<title>Node37&#45;&gt;Node18</title>
<g id="a_edge56_Node000037_Node000018"><a xlink:title=" ">
<path fill="none" stroke="#63b8ff" d="M785.98,-117.53C810.64,-110.07 840.36,-97.27 859.62,-76 870.83,-63.63 876.06,-45.21 878.5,-31.13"/>
<polygon fill="#63b8ff" stroke="#63b8ff" points="881.91,-32.03 879.8,-21.64 874.98,-31.08 881.91,-32.03"/>
</a>
</g>
</g>
<!-- Node37&#45;&gt;Node31 -->
<g id="edge54_Node000037_Node000031" class="edge">
<title>Node37&#45;&gt;Node31</title>
<g id="a_edge54_Node000037_Node000031"><a xlink:title=" ">
<path fill="none" stroke="#63b8ff" d="M730.84,-117.51C706.35,-97.78 649.71,-52.15 619.11,-27.51"/>
<polygon fill="#63b8ff" stroke="#63b8ff" points="621.33,-24.8 611.35,-21.25 616.94,-30.25 621.33,-24.8"/>
</a>
</g>
</g>
<!-- Node38 -->
<g id="Node000038" class="node">
<title>Node38</title>
<g id="a_Node000038"><a xlink:title=" ">
<polygon fill="#e0e0e0" stroke="#999999" points="734.5,-76 696.75,-76 696.75,-56 734.5,-56 734.5,-76"/>
<text text-anchor="middle" x="715.62" y="-62.5" font-family="Helvetica,sans-Serif" font-size="10.00">array</text>
</a>
</g>
</g>
<!-- Node37&#45;&gt;Node38 -->
<g id="edge51_Node000037_Node000038" class="edge">
<title>Node37&#45;&gt;Node38</title>
<g id="a_edge51_Node000037_Node000038"><a xlink:title=" ">
<path fill="none" stroke="#63b8ff" d="M738.41,-117.62C734.66,-109.3 729.06,-96.86 724.36,-86.4"/>
<polygon fill="#63b8ff" stroke="#63b8ff" points="727.64,-85.18 720.35,-77.49 721.26,-88.05 727.64,-85.18"/>
</a>
</g>
</g>
<!-- Node39 -->
<g id="Node000039" class="node">
<title>Node39</title>
<g id="a_Node000039"><a xlink:title=" ">
<polygon fill="#e0e0e0" stroke="#999999" points="798.25,-76 753,-76 753,-56 798.25,-56 798.25,-76"/>
<text text-anchor="middle" x="775.62" y="-62.5" font-family="Helvetica,sans-Serif" font-size="10.00">atomic</text>
</a>
</g>
</g>
<!-- Node37&#45;&gt;Node39 -->
<g id="edge52_Node000037_Node000039" class="edge">
<title>Node37&#45;&gt;Node39</title>
<g id="a_edge52_Node000037_Node000039"><a xlink:title=" ">
<path fill="none" stroke="#63b8ff" d="M747.78,-117.62C752.41,-109.21 759.35,-96.6 765.14,-86.07"/>
<polygon fill="#63b8ff" stroke="#63b8ff" points="768.13,-87.89 769.88,-77.44 762,-84.51 768.13,-87.89"/>
</a>
</g>
</g>
<!-- Node40 -->
<g id="Node000040" class="node">
<title>Node40</title>
<g id="a_Node000040"><a xlink:title=" ">
<polygon fill="#e0e0e0" stroke="#999999" points="851,-76 816.25,-76 816.25,-56 851,-56 851,-76"/>
<text text-anchor="middle" x="833.62" y="-62.5" font-family="Helvetica,sans-Serif" font-size="10.00">map</text>
</a>
</g>
</g>
<!-- Node37&#45;&gt;Node40 -->
<g id="edge55_Node000037_Node000040" class="edge">
<title>Node37&#45;&gt;Node40</title>
<g id="a_edge55_Node000037_Node000040"><a xlink:title=" ">
<path fill="none" stroke="#63b8ff" d="M756.84,-117.62C771.13,-108.2 793.41,-93.52 810.29,-82.39"/>
<polygon fill="#63b8ff" stroke="#63b8ff" points="811.82,-85.57 818.24,-77.14 807.97,-79.72 811.82,-85.57"/>
</a>
</g>
</g>
<!-- Node42 -->
<g id="Node000042" class="node">
<title>Node42</title>
<g id="a_Node000042"><a xlink:title=" ">
<polygon fill="#e0e0e0" stroke="#999999" points="1189.25,-76 1102,-76 1102,-56 1189.25,-56 1189.25,-76"/>
<text text-anchor="middle" x="1145.62" y="-62.5" font-family="Helvetica,sans-Serif" font-size="10.00">libavutil/pixfmt.h</text>
</a>
</g>
</g>
<!-- Node41&#45;&gt;Node42 -->
<g id="edge61_Node000041_Node000042" class="edge">
<title>Node41&#45;&gt;Node42</title>
<g id="a_edge61_Node000041_Node000042"><a xlink:title=" ">
<path fill="none" stroke="#63b8ff" d="M1246.03,-117.62C1226.82,-107.94 1196.58,-92.69 1174.3,-81.46"/>
<polygon fill="#63b8ff" stroke="#63b8ff" points="1175.94,-78.37 1165.44,-76.99 1172.79,-84.62 1175.94,-78.37"/>
</a>
</g>
</g>
</g>
</svg>

<g id="navigator" transform="translate(0 0)" fill="#404254">
  <rect fill="#f2f5e9" fill-opacity="0.5" stroke="#606060" stroke-width=".5" x="0" y="0" width="60" height="60"/>
  <use id="zoomplus" xlink:href="#zoomPlus" x="17" y="9" onmousedown="handleZoom(evt,'in')"/>
  <use id="zoomminus" xlink:href="#zoomMin" x="42" y="9" onmousedown="handleZoom(evt,'out')"/>
  <use id="reset" xlink:href="#resetDef" x="30" y="36" onmousedown="handleReset()"/>
   <use id="arrowup" xlink:href="#arrowUp" x="0" y="0" onmousedown="handlePan(0,-1)"/>
  <use id="arrowright" xlink:href="#arrowRight" x="0" y="0" onmousedown="handlePan(1,0)"/>
  <use id="arrowdown" xlink:href="#arrowDown" x="0" y="0" onmousedown="handlePan(0,1)"/>
  <use id="arrowleft" xlink:href="#arrowLeft" x="0" y="0" onmousedown="handlePan(-1,0)"/>
</g>
<svg viewBox="0 0 15 15" width="100%" height="30px" preserveAspectRatio="xMaxYMin meet">
 <g id="arrow_out" transform="scale(0.3 0.3)">
  <a xlink:href="wayland_8h__incl_org.svg" target="_base">
   <rect id="button" ry="5" rx="5" y="6" x="6" height="38" width="38"
        fill="#f2f5e9" fill-opacity="0.5" stroke="#606060" stroke-width="1.0"/>
   <path id="arrow"
     d="M 11.500037,31.436501 C 11.940474,20.09759 22.043105,11.32322 32.158766,21.979434 L 37.068811,17.246167 C 37.068811,17.246167 37.088388,32 37.088388,32 L 22.160133,31.978069 C 22.160133,31.978069 26.997745,27.140456 26.997745,27.140456 C 18.528582,18.264221 13.291696,25.230495 11.500037,31.436501 z"
     style="fill:#404040;"/>
  </a>
 </g>
</svg>

<style type='text/css'>
<![CDATA[
[data-mouse-over-selected='false'] { opacity: 0.7; }
[data-mouse-over-selected='true']  { opacity: 1.0; }
]]>
</style>
<script type="application/ecmascript"><![CDATA[
document.addEventListener('DOMContentLoaded', (event) => {
  highlightEdges();
  highlightAdjacentNodes();
});
]]></script>
</svg>
