<?xml version="1.0" encoding="UTF-8" standalone="no"?>
<!DOCTYPE svg PUBLIC "-//W3C//DTD SVG 1.1//EN"
 "http://www.w3.org/Graphics/SVG/1.1/DTD/svg11.dtd">
<!-- Generated by graphviz version 12.2.1 (0)
 -->
<!-- Title: src/platform/windows/misc.h Pages: 1 -->
<svg width="282pt" height="96pt"
 viewBox="0.00 0.00 282.38 96.00" xmlns="http://www.w3.org/2000/svg" xmlns:xlink="http://www.w3.org/1999/xlink">

<svg id="main" version="1.1" xmlns="http://www.w3.org/2000/svg" xmlns:xlink="http://www.w3.org/1999/xlink" xml:space="preserve">

<style type="text/css"><![CDATA[
.node, .edge {opacity: 0.7;}
.node.selected, .edge.selected {opacity: 1;}
.edge:hover path { stroke: red; }
.edge:hover polygon { stroke: red; fill: red; }
]]></style>
<script type="application/ecmascript" xlink:href="svg.min.js"/>
<svg id="graph" class="graph">
<g id="graph0" class="graph" transform="scale(1 1) rotate(0) translate(4 92)">
<title>src/platform/windows/misc.h</title>
<!-- Node1 -->
<g id="Node000001" class="node">
<title>Node1</title>
<g id="a_Node000001"><a xlink:title="Miscellaneous declarations for Windows.">
<polygon fill="#999999" stroke="#666666" points="191.12,-88 82.12,-88 82.12,-56 191.12,-56 191.12,-88"/>
<text text-anchor="start" x="90.12" y="-74.5" font-family="Helvetica,sans-Serif" font-size="10.00">src/platform/windows</text>
<text text-anchor="middle" x="136.62" y="-62.5" font-family="Helvetica,sans-Serif" font-size="10.00">/misc.h</text>
</a>
</g>
</g>
<!-- Node2 -->
<g id="Node000002" class="node">
<title>Node2</title>
<g id="a_Node000002"><a xlink:title=" ">
<polygon fill="#e0e0e0" stroke="#999999" points="45.25,-20 0,-20 0,0 45.25,0 45.25,-20"/>
<text text-anchor="middle" x="22.62" y="-6.5" font-family="Helvetica,sans-Serif" font-size="10.00">chrono</text>
</a>
</g>
</g>
<!-- Node1&#45;&gt;Node2 -->
<g id="edge1_Node000001_Node000002" class="edge">
<title>Node1&#45;&gt;Node2</title>
<g id="a_edge1_Node000001_Node000002"><a xlink:title=" ">
<path fill="none" stroke="#63b8ff" d="M107.27,-55.55C89.78,-46.35 67.72,-34.74 50.51,-25.68"/>
<polygon fill="#63b8ff" stroke="#63b8ff" points="52.32,-22.67 41.84,-21.11 49.06,-28.87 52.32,-22.67"/>
</a>
</g>
</g>
<!-- Node3 -->
<g id="Node000003" class="node">
<title>Node3</title>
<g id="a_Node000003"><a xlink:title=" ">
<polygon fill="#e0e0e0" stroke="#999999" points="128.38,-20 62.88,-20 62.88,0 128.38,0 128.38,-20"/>
<text text-anchor="middle" x="95.62" y="-6.5" font-family="Helvetica,sans-Serif" font-size="10.00">string_view</text>
</a>
</g>
</g>
<!-- Node1&#45;&gt;Node3 -->
<g id="edge2_Node000001_Node000003" class="edge">
<title>Node1&#45;&gt;Node3</title>
<g id="a_edge2_Node000001_Node000003"><a xlink:title=" ">
<path fill="none" stroke="#63b8ff" d="M126.07,-55.55C120.67,-47.65 114.06,-37.97 108.38,-29.66"/>
<polygon fill="#63b8ff" stroke="#63b8ff" points="111.44,-27.94 102.91,-21.66 105.66,-31.89 111.44,-27.94"/>
</a>
</g>
</g>
<!-- Node4 -->
<g id="Node000004" class="node">
<title>Node4</title>
<g id="a_Node000004"><a xlink:title=" ">
<polygon fill="#e0e0e0" stroke="#999999" points="208.88,-20 146.38,-20 146.38,0 208.88,0 208.88,-20"/>
<text text-anchor="middle" x="177.62" y="-6.5" font-family="Helvetica,sans-Serif" font-size="10.00">windows.h</text>
</a>
</g>
</g>
<!-- Node1&#45;&gt;Node4 -->
<g id="edge3_Node000001_Node000004" class="edge">
<title>Node1&#45;&gt;Node4</title>
<g id="a_edge3_Node000001_Node000004"><a xlink:title=" ">
<path fill="none" stroke="#63b8ff" d="M147.18,-55.55C152.58,-47.65 159.19,-37.97 164.87,-29.66"/>
<polygon fill="#63b8ff" stroke="#63b8ff" points="167.59,-31.89 170.34,-21.66 161.81,-27.94 167.59,-31.89"/>
</a>
</g>
</g>
<!-- Node5 -->
<g id="Node000005" class="node">
<title>Node5</title>
<g id="a_Node000005"><a xlink:title=" ">
<polygon fill="#e0e0e0" stroke="#999999" points="274.38,-20 226.88,-20 226.88,0 274.38,0 274.38,-20"/>
<text text-anchor="middle" x="250.62" y="-6.5" font-family="Helvetica,sans-Serif" font-size="10.00">winnt.h</text>
</a>
</g>
</g>
<!-- Node1&#45;&gt;Node5 -->
<g id="edge4_Node000001_Node000005" class="edge">
<title>Node1&#45;&gt;Node5</title>
<g id="a_edge4_Node000001_Node000005"><a xlink:title=" ">
<path fill="none" stroke="#63b8ff" d="M165.98,-55.55C183.47,-46.35 205.53,-34.74 222.74,-25.68"/>
<polygon fill="#63b8ff" stroke="#63b8ff" points="224.19,-28.87 231.41,-21.11 220.93,-22.67 224.19,-28.87"/>
</a>
</g>
</g>
</g>
</svg>
</svg>

<style type='text/css'>
<![CDATA[
[data-mouse-over-selected='false'] { opacity: 0.7; }
[data-mouse-over-selected='true']  { opacity: 1.0; }
]]>
</style>
<script type="application/ecmascript"><![CDATA[
document.addEventListener('DOMContentLoaded', (event) => {
  highlightEdges();
  highlightAdjacentNodes();
});
]]></script>
</svg>
