<?xml version="1.0" encoding="UTF-8" standalone="no"?>
<!DOCTYPE svg PUBLIC "-//W3C//DTD SVG 1.1//EN"
 "http://www.w3.org/Graphics/SVG/1.1/DTD/svg11.dtd">
<!-- Generated by graphviz version 12.2.1 (0)
 -->
<!-- Title: src/platform/windows/misc.h Pages: 1 -->
<svg width="1109pt" height="108pt"
 viewBox="0.00 0.00 1109.38 108.00" xmlns="http://www.w3.org/2000/svg" xmlns:xlink="http://www.w3.org/1999/xlink">
<g id="graph0" class="graph" transform="scale(1 1) rotate(0) translate(4 104)">
<title>src/platform/windows/misc.h</title>
<!-- Node1 -->
<g id="Node000001" class="node">
<title>Node1</title>
<g id="a_Node000001"><a xlink:title="Miscellaneous declarations for Windows.">
<polygon fill="#999999" stroke="#666666" points="617,-100 508,-100 508,-68 617,-68 617,-100"/>
<text text-anchor="start" x="516" y="-86.5" font-family="Helvetica,sans-Serif" font-size="10.00">src/platform/windows</text>
<text text-anchor="middle" x="562.5" y="-74.5" font-family="Helvetica,sans-Serif" font-size="10.00">/misc.h</text>
</a>
</g>
</g>
<!-- Node2 -->
<g id="Node000002" class="node">
<title>Node2</title>
<g id="a_Node000002"><a xlink:href="platform_2windows_2audio_8cpp.html" target="_top" xlink:title="Definitions for Windows audio capture.">
<polygon fill="white" stroke="#666666" points="109,-32 0,-32 0,0 109,0 109,-32"/>
<text text-anchor="start" x="8" y="-18.5" font-family="Helvetica,sans-Serif" font-size="10.00">src/platform/windows</text>
<text text-anchor="middle" x="54.5" y="-6.5" font-family="Helvetica,sans-Serif" font-size="10.00">/audio.cpp</text>
</a>
</g>
</g>
<!-- Node1&#45;&gt;Node2 -->
<g id="edge1_Node000001_Node000002" class="edge">
<title>Node1&#45;&gt;Node2</title>
<g id="a_edge1_Node000001_Node000002"><a xlink:title=" ">
<path fill="none" stroke="#63b8ff" d="M496.43,-77.91C409.21,-70.63 251.09,-55.47 117.5,-32 114.84,-31.53 112.13,-31.02 109.39,-30.48"/>
<polygon fill="#63b8ff" stroke="#63b8ff" points="495.97,-81.39 506.23,-78.72 496.55,-74.41 495.97,-81.39"/>
</a>
</g>
</g>
<!-- Node3 -->
<g id="Node000003" class="node">
<title>Node3</title>
<g id="a_Node000003"><a xlink:href="display__base_8cpp.html" target="_top" xlink:title="Definitions for the Windows display base code.">
<polygon fill="white" stroke="#666666" points="236,-32 127,-32 127,0 236,0 236,-32"/>
<text text-anchor="start" x="135" y="-18.5" font-family="Helvetica,sans-Serif" font-size="10.00">src/platform/windows</text>
<text text-anchor="middle" x="181.5" y="-6.5" font-family="Helvetica,sans-Serif" font-size="10.00">/display_base.cpp</text>
</a>
</g>
</g>
<!-- Node1&#45;&gt;Node3 -->
<g id="edge2_Node000001_Node000003" class="edge">
<title>Node1&#45;&gt;Node3</title>
<g id="a_edge2_Node000001_Node000003"><a xlink:title=" ">
<path fill="none" stroke="#63b8ff" d="M496.48,-73.88C431.99,-64.63 331.15,-49.24 244.5,-32 241.85,-31.47 239.15,-30.91 236.42,-30.33"/>
<polygon fill="#63b8ff" stroke="#63b8ff" points="495.8,-77.32 506.2,-75.27 496.79,-70.39 495.8,-77.32"/>
</a>
</g>
</g>
<!-- Node4 -->
<g id="Node000004" class="node">
<title>Node4</title>
<g id="a_Node000004"><a xlink:href="display__ram_8cpp.html" target="_top" xlink:title="Definitions for handling ram.">
<polygon fill="white" stroke="#666666" points="363,-32 254,-32 254,0 363,0 363,-32"/>
<text text-anchor="start" x="262" y="-18.5" font-family="Helvetica,sans-Serif" font-size="10.00">src/platform/windows</text>
<text text-anchor="middle" x="308.5" y="-6.5" font-family="Helvetica,sans-Serif" font-size="10.00">/display_ram.cpp</text>
</a>
</g>
</g>
<!-- Node1&#45;&gt;Node4 -->
<g id="edge3_Node000001_Node000004" class="edge">
<title>Node1&#45;&gt;Node4</title>
<g id="a_edge3_Node000001_Node000004"><a xlink:title=" ">
<path fill="none" stroke="#63b8ff" d="M496.61,-65.88C455.16,-55.11 402.32,-41.38 363.2,-31.21"/>
<polygon fill="#63b8ff" stroke="#63b8ff" points="495.67,-69.25 506.23,-68.38 497.44,-62.48 495.67,-69.25"/>
</a>
</g>
</g>
<!-- Node5 -->
<g id="Node000005" class="node">
<title>Node5</title>
<g id="a_Node000005"><a xlink:href="display__vram_8cpp.html" target="_top" xlink:title="Definitions for handling video ram.">
<polygon fill="white" stroke="#666666" points="490,-32 381,-32 381,0 490,0 490,-32"/>
<text text-anchor="start" x="389" y="-18.5" font-family="Helvetica,sans-Serif" font-size="10.00">src/platform/windows</text>
<text text-anchor="middle" x="435.5" y="-6.5" font-family="Helvetica,sans-Serif" font-size="10.00">/display_vram.cpp</text>
</a>
</g>
</g>
<!-- Node1&#45;&gt;Node5 -->
<g id="edge4_Node000001_Node000005" class="edge">
<title>Node1&#45;&gt;Node5</title>
<g id="a_edge4_Node000001_Node000005"><a xlink:title=" ">
<path fill="none" stroke="#63b8ff" d="M522.74,-62.34C504.09,-52.65 482.25,-41.3 465.09,-32.38"/>
<polygon fill="#63b8ff" stroke="#63b8ff" points="520.89,-65.32 531.38,-66.83 524.12,-59.11 520.89,-65.32"/>
</a>
</g>
</g>
<!-- Node6 -->
<g id="Node000006" class="node">
<title>Node6</title>
<g id="a_Node000006"><a xlink:href="display__wgc_8cpp.html" target="_top" xlink:title="Definitions for WinRT Windows.Graphics.Capture API.">
<polygon fill="white" stroke="#666666" points="617,-32 508,-32 508,0 617,0 617,-32"/>
<text text-anchor="start" x="516" y="-18.5" font-family="Helvetica,sans-Serif" font-size="10.00">src/platform/windows</text>
<text text-anchor="middle" x="562.5" y="-6.5" font-family="Helvetica,sans-Serif" font-size="10.00">/display_wgc.cpp</text>
</a>
</g>
</g>
<!-- Node1&#45;&gt;Node6 -->
<g id="edge5_Node000001_Node000006" class="edge">
<title>Node1&#45;&gt;Node6</title>
<g id="a_edge5_Node000001_Node000006"><a xlink:title=" ">
<path fill="none" stroke="#63b8ff" d="M562.5,-56.31C562.5,-48.12 562.5,-39.38 562.5,-32.22"/>
<polygon fill="#63b8ff" stroke="#63b8ff" points="559,-56.18 562.5,-66.18 566,-56.18 559,-56.18"/>
</a>
</g>
</g>
<!-- Node7 -->
<g id="Node000007" class="node">
<title>Node7</title>
<g id="a_Node000007"><a xlink:href="platform_2windows_2input_8cpp.html" target="_top" xlink:title="Definitions for input handling on Windows.">
<polygon fill="white" stroke="#666666" points="744,-32 635,-32 635,0 744,0 744,-32"/>
<text text-anchor="start" x="643" y="-18.5" font-family="Helvetica,sans-Serif" font-size="10.00">src/platform/windows</text>
<text text-anchor="middle" x="689.5" y="-6.5" font-family="Helvetica,sans-Serif" font-size="10.00">/input.cpp</text>
</a>
</g>
</g>
<!-- Node1&#45;&gt;Node7 -->
<g id="edge6_Node000001_Node000007" class="edge">
<title>Node1&#45;&gt;Node7</title>
<g id="a_edge6_Node000001_Node000007"><a xlink:title=" ">
<path fill="none" stroke="#63b8ff" d="M602.26,-62.34C620.91,-52.65 642.75,-41.3 659.91,-32.38"/>
<polygon fill="#63b8ff" stroke="#63b8ff" points="600.88,-59.11 593.62,-66.83 604.11,-65.32 600.88,-59.11"/>
</a>
</g>
</g>
<!-- Node8 -->
<g id="Node000008" class="node">
<title>Node8</title>
<g id="a_Node000008"><a xlink:href="windows_2misc_8cpp.html" target="_top" xlink:title="Miscellaneous definitions for Windows.">
<polygon fill="white" stroke="#666666" points="871,-32 762,-32 762,0 871,0 871,-32"/>
<text text-anchor="start" x="770" y="-18.5" font-family="Helvetica,sans-Serif" font-size="10.00">src/platform/windows</text>
<text text-anchor="middle" x="816.5" y="-6.5" font-family="Helvetica,sans-Serif" font-size="10.00">/misc.cpp</text>
</a>
</g>
</g>
<!-- Node1&#45;&gt;Node8 -->
<g id="edge7_Node000001_Node000008" class="edge">
<title>Node1&#45;&gt;Node8</title>
<g id="a_edge7_Node000001_Node000008"><a xlink:title=" ">
<path fill="none" stroke="#63b8ff" d="M628.39,-65.88C669.84,-55.11 722.68,-41.38 761.8,-31.21"/>
<polygon fill="#63b8ff" stroke="#63b8ff" points="627.56,-62.48 618.77,-68.38 629.33,-69.25 627.56,-62.48"/>
</a>
</g>
</g>
<!-- Node9 -->
<g id="Node000009" class="node">
<title>Node9</title>
<g id="a_Node000009"><a xlink:href="windows_2publish_8cpp.html" target="_top" xlink:title="Definitions for Windows mDNS service registration.">
<polygon fill="white" stroke="#666666" points="998,-32 889,-32 889,0 998,0 998,-32"/>
<text text-anchor="start" x="897" y="-18.5" font-family="Helvetica,sans-Serif" font-size="10.00">src/platform/windows</text>
<text text-anchor="middle" x="943.5" y="-6.5" font-family="Helvetica,sans-Serif" font-size="10.00">/publish.cpp</text>
</a>
</g>
</g>
<!-- Node1&#45;&gt;Node9 -->
<g id="edge8_Node000001_Node000009" class="edge">
<title>Node1&#45;&gt;Node9</title>
<g id="a_edge8_Node000001_Node000009"><a xlink:title=" ">
<path fill="none" stroke="#63b8ff" d="M628.52,-73.88C693.01,-64.63 793.85,-49.24 880.5,-32 883.15,-31.47 885.85,-30.91 888.58,-30.33"/>
<polygon fill="#63b8ff" stroke="#63b8ff" points="628.21,-70.39 618.8,-75.27 629.2,-77.32 628.21,-70.39"/>
</a>
</g>
</g>
<!-- Node10 -->
<g id="Node000010" class="node">
<title>Node10</title>
<g id="a_Node000010"><a xlink:href="process_8cpp.html" target="_top" xlink:title="Definitions for the startup and shutdown of the apps started by a streaming Session.">
<polygon fill="white" stroke="#666666" points="1101.38,-26 1015.62,-26 1015.62,-6 1101.38,-6 1101.38,-26"/>
<text text-anchor="middle" x="1058.5" y="-12.5" font-family="Helvetica,sans-Serif" font-size="10.00">src/process.cpp</text>
</a>
</g>
</g>
<!-- Node1&#45;&gt;Node10 -->
<g id="edge9_Node000001_Node000010" class="edge">
<title>Node1&#45;&gt;Node10</title>
<g id="a_edge9_Node000001_Node000010"><a xlink:title=" ">
<path fill="none" stroke="#63b8ff" d="M628.77,-78.98C716.21,-72.86 874.57,-58.96 1007.5,-32 1014.74,-30.53 1022.43,-28.52 1029.59,-26.44"/>
<polygon fill="#63b8ff" stroke="#63b8ff" points="628.68,-75.47 618.94,-79.65 629.16,-82.46 628.68,-75.47"/>
</a>
</g>
</g>
</g>
</svg>
