<?xml version="1.0" encoding="UTF-8" standalone="no"?>
<!DOCTYPE svg PUBLIC "-//W3C//DTD SVG 1.1//EN"
 "http://www.w3.org/Graphics/SVG/1.1/DTD/svg11.dtd">
<!-- Generated by graphviz version 12.2.1 (0)
 -->
<!-- Title: src/platform/linux/x11grab.h Pages: 1 -->
<!--zoomable 276 -->

<svg id="main" version="1.1" xmlns="http://www.w3.org/2000/svg" xmlns:xlink="http://www.w3.org/1999/xlink" xml:space="preserve" onload="init(evt)">

<style type="text/css"><![CDATA[
.node, .edge {opacity: 0.7;}
.node.selected, .edge.selected {opacity: 1;}
.edge:hover path { stroke: red; }
.edge:hover polygon { stroke: red; fill: red; }
]]></style>

<defs>
  <circle id="rim" cx="0" cy="0" r="7"/>
  <circle id="rim2" cx="0" cy="0" r="3.5"/>
  <g id="zoomPlus">
    <use xlink:href="#rim" fill="#404040"><set attributeName="fill" to="#808080" begin="zoomplus.mouseover" end="zoomplus.mouseout"/></use>
    <path d="M-4,0h8M0,-4v8" fill="none" stroke="white" stroke-width="1.5" pointer-events="none"/>
  </g>
  <g id="zoomMin">
    <use xlink:href="#rim" fill="#404040"><set attributeName="fill" to="#808080" begin="zoomminus.mouseover" end="zoomminus.mouseout"/></use>
    <path d="M-4,0h8" fill="none" stroke="white" stroke-width="1.5" pointer-events="none"/>
  </g>
  <g id="arrowUp" transform="translate(30 24)">
    <use xlink:href="#rim"/>
    <path pointer-events="none" fill="none" stroke="white" stroke-width="1.5" d="M0,-3.0v7 M-2.5,-0.5L0,-3.0L2.5,-0.5"/>
  </g>
  <g id="arrowRight" transform="rotate(90) translate(36 -43)">
    <use xlink:href="#rim"/>
    <path pointer-events="none" fill="none" stroke="white" stroke-width="1.5" d="M0,-3.0v7 M-2.5,-0.5L0,-3.0L2.5,-0.5"/>
  </g>
  <g id="arrowDown" transform="rotate(180) translate(-30 -48)">
    <use xlink:href="#rim"/>
    <path pointer-events="none" fill="none" stroke="white" stroke-width="1.5" d="M0,-3.0v7 M-2.5,-0.5L0,-3.0L2.5,-0.5"/>
  </g>
  <g id="arrowLeft" transform="rotate(270) translate(-36 17)">
    <use xlink:href="#rim"/>
    <path pointer-events="none" fill="none" stroke="white" stroke-width="1.5" d="M0,-3.0v7 M-2.5,-0.5L0,-3.0L2.5,-0.5"/>
  </g>
  <g id="resetDef">
    <use xlink:href="#rim2" fill="#404040"><set attributeName="fill" to="#808080" begin="reset.mouseover" end="reset.mouseout"/></use>
  </g>
</defs>
<script type="application/ecmascript">
var viewWidth = 1509;
var viewHeight = 276;
var sectionId = 'dynsection-0';
</script>
<script type="application/ecmascript" xlink:href="svg.min.js"/>
<svg id="graph" class="graph">
<g id="viewport">
<title>src/platform/linux/x11grab.h</title>
<!-- Node1 -->
<g id="Node000001" class="node">
<title>Node1</title>
<g id="a_Node000001"><a xlink:title="Declarations for x11 capture.">
<polygon fill="#999999" stroke="#666666" points="1221.12,-268 1130.12,-268 1130.12,-236 1221.12,-236 1221.12,-268"/>
<text text-anchor="start" x="1138.12" y="-254.5" font-family="Helvetica,sans-Serif" font-size="10.00">src/platform/linux</text>
<text text-anchor="middle" x="1175.62" y="-242.5" font-family="Helvetica,sans-Serif" font-size="10.00">/x11grab.h</text>
</a>
</g>
</g>
<!-- Node2 -->
<g id="Node000002" class="node">
<title>Node2</title>
<g id="a_Node000002"><a xlink:title=" ">
<polygon fill="#e0e0e0" stroke="#999999" points="829.5,-20 779.75,-20 779.75,0 829.5,0 829.5,-20"/>
<text text-anchor="middle" x="804.62" y="-6.5" font-family="Helvetica,sans-Serif" font-size="10.00">optional</text>
</a>
</g>
</g>
<!-- Node1&#45;&gt;Node2 -->
<g id="edge1_Node000001_Node000002" class="edge">
<title>Node1&#45;&gt;Node2</title>
<g id="a_edge1_Node000001_Node000002"><a xlink:title=" ">
<path fill="none" stroke="#63b8ff" d="M1172.53,-235.76C1163.6,-196.51 1133.71,-92.46 1061.62,-56 975.19,-12.28 939.37,-38.84 840.84,-20.19"/>
<polygon fill="#63b8ff" stroke="#63b8ff" points="841.79,-16.81 831.29,-18.26 840.4,-23.67 841.79,-16.81"/>
</a>
</g>
</g>
<!-- Node3 -->
<g id="Node000003" class="node">
<title>Node3</title>
<g id="a_Node000003"><a xlink:href="common_8h.html" target="_top" xlink:title="Declarations for common platform specific utilities.">
<polygon fill="white" stroke="#666666" points="782.88,-200 666.38,-200 666.38,-180 782.88,-180 782.88,-200"/>
<text text-anchor="middle" x="724.62" y="-186.5" font-family="Helvetica,sans-Serif" font-size="10.00">src/platform/common.h</text>
</a>
</g>
</g>
<!-- Node1&#45;&gt;Node3 -->
<g id="edge2_Node000001_Node000003" class="edge">
<title>Node1&#45;&gt;Node3</title>
<g id="a_edge2_Node000001_Node000003"><a xlink:title=" ">
<path fill="none" stroke="#63b8ff" d="M1129.9,-244.92C1050.79,-234.39 887.91,-212.72 794.52,-200.3"/>
<polygon fill="#63b8ff" stroke="#63b8ff" points="795.08,-196.84 784.71,-198.99 794.16,-203.78 795.08,-196.84"/>
</a>
</g>
</g>
<!-- Node26 -->
<g id="Node000026" class="node">
<title>Node26</title>
<g id="a_Node000026"><a xlink:href="utility_8h.html" target="_top" xlink:title="Declarations for utility functions.">
<polygon fill="white" stroke="#666666" points="1186,-76 1139.25,-76 1139.25,-56 1186,-56 1186,-76"/>
<text text-anchor="middle" x="1162.62" y="-62.5" font-family="Helvetica,sans-Serif" font-size="10.00">utility.h</text>
</a>
</g>
</g>
<!-- Node1&#45;&gt;Node26 -->
<g id="edge50_Node000001_Node000026" class="edge">
<title>Node1&#45;&gt;Node26</title>
<g id="a_edge50_Node000001_Node000026"><a xlink:title=" ">
<path fill="none" stroke="#63b8ff" d="M1180.77,-235.68C1188.68,-209.73 1201.73,-155.71 1189.62,-112 1187.05,-102.7 1181.99,-93.4 1176.93,-85.68"/>
<polygon fill="#63b8ff" stroke="#63b8ff" points="1179.8,-83.67 1171.16,-77.53 1174.08,-87.72 1179.8,-83.67"/>
</a>
</g>
</g>
<!-- Node4 -->
<g id="Node000004" class="node">
<title>Node4</title>
<g id="a_Node000004"><a xlink:title=" ">
<polygon fill="#e0e0e0" stroke="#999999" points="471.62,-20 431.62,-20 431.62,0 471.62,0 471.62,-20"/>
<text text-anchor="middle" x="451.62" y="-6.5" font-family="Helvetica,sans-Serif" font-size="10.00">bitset</text>
</a>
</g>
</g>
<!-- Node3&#45;&gt;Node4 -->
<g id="edge3_Node000003_Node000004" class="edge">
<title>Node3&#45;&gt;Node4</title>
<g id="a_edge3_Node000003_Node000004"><a xlink:title=" ">
<path fill="none" stroke="#63b8ff" d="M691.49,-179.57C667.28,-171.92 634.19,-159.8 607.62,-144 551.04,-110.35 494.78,-55.88 467.92,-28.26"/>
<polygon fill="#63b8ff" stroke="#63b8ff" points="470.77,-26.17 461.31,-21.38 465.72,-31.02 470.77,-26.17"/>
</a>
</g>
</g>
<!-- Node5 -->
<g id="Node000005" class="node">
<title>Node5</title>
<g id="a_Node000005"><a xlink:title=" ">
<polygon fill="#e0e0e0" stroke="#999999" points="1109.12,-138 1048.12,-138 1048.12,-118 1109.12,-118 1109.12,-138"/>
<text text-anchor="middle" x="1078.62" y="-124.5" font-family="Helvetica,sans-Serif" font-size="10.00">filesystem</text>
</a>
</g>
</g>
<!-- Node3&#45;&gt;Node5 -->
<g id="edge4_Node000003_Node000005" class="edge">
<title>Node3&#45;&gt;Node5</title>
<g id="a_edge4_Node000003_Node000005"><a xlink:title=" ">
<path fill="none" stroke="#63b8ff" d="M783.24,-184.42C846.87,-178.56 951.13,-166.39 1038.62,-144 1040.78,-143.45 1042.98,-142.82 1045.18,-142.14"/>
<polygon fill="#63b8ff" stroke="#63b8ff" points="1046.28,-145.46 1054.62,-138.92 1044.03,-138.84 1046.28,-145.46"/>
</a>
</g>
</g>
<!-- Node6 -->
<g id="Node000006" class="node">
<title>Node6</title>
<g id="a_Node000006"><a xlink:title=" ">
<polygon fill="#e0e0e0" stroke="#999999" points="349.62,-20 291.62,-20 291.62,0 349.62,0 349.62,-20"/>
<text text-anchor="middle" x="320.62" y="-6.5" font-family="Helvetica,sans-Serif" font-size="10.00">functional</text>
</a>
</g>
</g>
<!-- Node3&#45;&gt;Node6 -->
<g id="edge5_Node000003_Node000006" class="edge">
<title>Node3&#45;&gt;Node6</title>
<g id="a_edge5_Node000003_Node000006"><a xlink:title=" ">
<path fill="none" stroke="#63b8ff" d="M666.15,-187.65C584.13,-184.65 440.37,-175 399.62,-144 365.72,-118.21 384.73,-91.79 361.62,-56 355.21,-46.06 346.57,-36.22 338.88,-28.28"/>
<polygon fill="#63b8ff" stroke="#63b8ff" points="341.4,-25.85 331.83,-21.29 336.47,-30.82 341.4,-25.85"/>
</a>
</g>
</g>
<!-- Node7 -->
<g id="Node000007" class="node">
<title>Node7</title>
<g id="a_Node000007"><a xlink:title=" ">
<polygon fill="#e0e0e0" stroke="#999999" points="890.12,-20 847.12,-20 847.12,0 890.12,0 890.12,-20"/>
<text text-anchor="middle" x="868.62" y="-6.5" font-family="Helvetica,sans-Serif" font-size="10.00">mutex</text>
</a>
</g>
</g>
<!-- Node3&#45;&gt;Node7 -->
<g id="edge6_Node000003_Node000007" class="edge">
<title>Node3&#45;&gt;Node7</title>
<g id="a_edge6_Node000003_Node000007"><a xlink:title=" ">
<path fill="none" stroke="#63b8ff" d="M706.08,-179.59C693.23,-171.95 677.13,-159.83 669.62,-144 652.88,-108.66 645.02,-86.4 669.62,-56 715.77,1.01 760.07,-35.42 835.83,-20.29"/>
<polygon fill="#63b8ff" stroke="#63b8ff" points="836.28,-23.77 845.25,-18.13 834.72,-16.95 836.28,-23.77"/>
</a>
</g>
</g>
<!-- Node8 -->
<g id="Node000008" class="node">
<title>Node8</title>
<g id="a_Node000008"><a xlink:title=" ">
<polygon fill="#e0e0e0" stroke="#999999" points="1144.62,-20 1104.62,-20 1104.62,0 1144.62,0 1144.62,-20"/>
<text text-anchor="middle" x="1124.62" y="-6.5" font-family="Helvetica,sans-Serif" font-size="10.00">string</text>
</a>
</g>
</g>
<!-- Node3&#45;&gt;Node8 -->
<g id="edge7_Node000003_Node000008" class="edge">
<title>Node3&#45;&gt;Node8</title>
<g id="a_edge7_Node000003_Node000008"><a xlink:title=" ">
<path fill="none" stroke="#63b8ff" d="M783.3,-188.55C884.19,-186.82 1085.49,-178.95 1145.62,-144 1184.33,-121.51 1216.08,-95.29 1194.62,-56 1186.21,-40.59 1170.02,-29.67 1155.32,-22.45"/>
<polygon fill="#63b8ff" stroke="#63b8ff" points="1156.96,-19.35 1146.4,-18.46 1154.09,-25.74 1156.96,-19.35"/>
</a>
</g>
</g>
<!-- Node9 -->
<g id="Node000009" class="node">
<title>Node9</title>
<g id="a_Node000009"><a xlink:title=" ">
<polygon fill="#e0e0e0" stroke="#999999" points="546.75,-138 408.5,-138 408.5,-118 546.75,-118 546.75,-138"/>
<text text-anchor="middle" x="477.62" y="-124.5" font-family="Helvetica,sans-Serif" font-size="10.00">boost/core/noncopyable.hpp</text>
</a>
</g>
</g>
<!-- Node3&#45;&gt;Node9 -->
<g id="edge8_Node000003_Node000009" class="edge">
<title>Node3&#45;&gt;Node9</title>
<g id="a_edge8_Node000003_Node000009"><a xlink:title=" ">
<path fill="none" stroke="#63b8ff" d="M685.76,-179.56C643.09,-169.19 574.44,-152.52 527.75,-141.18"/>
<polygon fill="#63b8ff" stroke="#63b8ff" points="528.69,-137.8 518.14,-138.84 527.03,-144.6 528.69,-137.8"/>
</a>
</g>
</g>
<!-- Node10 -->
<g id="Node000010" class="node">
<title>Node10</title>
<g id="a_Node000010"><a xlink:href="config_8h.html" target="_top" xlink:title="Declarations for the configuration of Sunshine.">
<polygon fill="white" stroke="#666666" points="622.12,-76 555.12,-76 555.12,-56 622.12,-56 622.12,-76"/>
<text text-anchor="middle" x="588.62" y="-62.5" font-family="Helvetica,sans-Serif" font-size="10.00">src/config.h</text>
</a>
</g>
</g>
<!-- Node3&#45;&gt;Node10 -->
<g id="edge9_Node000003_Node000010" class="edge">
<title>Node3&#45;&gt;Node10</title>
<g id="a_edge9_Node000003_Node000010"><a xlink:title=" ">
<path fill="none" stroke="#63b8ff" d="M697.29,-179.5C678.62,-172.02 654.19,-160.14 636.62,-144 619,-127.81 605.39,-103.71 597.23,-86.8"/>
<polygon fill="#63b8ff" stroke="#63b8ff" points="600.46,-85.43 593.11,-77.8 594.09,-88.35 600.46,-85.43"/>
</a>
</g>
</g>
<!-- Node15 -->
<g id="Node000015" class="node">
<title>Node15</title>
<g id="a_Node000015"><a xlink:href="logging_8h.html" target="_top" xlink:title="Declarations for logging related functions.">
<polygon fill="white" stroke="#666666" points="338.38,-138 266.88,-138 266.88,-118 338.38,-118 338.38,-138"/>
<text text-anchor="middle" x="302.62" y="-124.5" font-family="Helvetica,sans-Serif" font-size="10.00">src/logging.h</text>
</a>
</g>
</g>
<!-- Node3&#45;&gt;Node15 -->
<g id="edge17_Node000003_Node000015" class="edge">
<title>Node3&#45;&gt;Node15</title>
<g id="a_edge17_Node000003_Node000015"><a xlink:title=" ">
<path fill="none" stroke="#63b8ff" d="M666.05,-183.55C594.92,-176.49 471.44,-162.82 366.62,-144 361.08,-143 355.3,-141.84 349.57,-140.6"/>
<polygon fill="#63b8ff" stroke="#63b8ff" points="350.7,-137.26 340.18,-138.49 349.17,-144.09 350.7,-137.26"/>
</a>
</g>
</g>
<!-- Node21 -->
<g id="Node000021" class="node">
<title>Node21</title>
<g id="a_Node000021"><a xlink:href="thread__safe_8h.html" target="_top" xlink:title="Declarations for thread&#45;safe data structures.">
<polygon fill="white" stroke="#666666" points="770.5,-138 678.75,-138 678.75,-118 770.5,-118 770.5,-138"/>
<text text-anchor="middle" x="724.62" y="-124.5" font-family="Helvetica,sans-Serif" font-size="10.00">src/thread_safe.h</text>
</a>
</g>
</g>
<!-- Node3&#45;&gt;Node21 -->
<g id="edge26_Node000003_Node000021" class="edge">
<title>Node3&#45;&gt;Node21</title>
<g id="a_edge26_Node000003_Node000021"><a xlink:title=" ">
<path fill="none" stroke="#63b8ff" d="M724.62,-179.62C724.62,-171.56 724.62,-159.65 724.62,-149.41"/>
<polygon fill="#63b8ff" stroke="#63b8ff" points="728.13,-149.63 724.63,-139.63 721.13,-149.63 728.13,-149.63"/>
</a>
</g>
</g>
<!-- Node3&#45;&gt;Node26 -->
<g id="edge46_Node000003_Node000026" class="edge">
<title>Node3&#45;&gt;Node26</title>
<g id="a_edge46_Node000003_Node000026"><a xlink:title=" ">
<path fill="none" stroke="#63b8ff" d="M783.35,-188.67C879.42,-187.11 1064.87,-179.42 1118.62,-144 1138.67,-130.79 1150.62,-105.1 1156.9,-87.04"/>
<polygon fill="#63b8ff" stroke="#63b8ff" points="1160.18,-88.27 1159.85,-77.69 1153.51,-86.17 1160.18,-88.27"/>
</a>
</g>
</g>
<!-- Node33 -->
<g id="Node000033" class="node">
<title>Node33</title>
<g id="a_Node000033"><a xlink:href="video__colorspace_8h.html" target="_top" xlink:title="Declarations for colorspace functions.">
<polygon fill="white" stroke="#666666" points="1029.88,-138 913.38,-138 913.38,-118 1029.88,-118 1029.88,-138"/>
<text text-anchor="middle" x="971.62" y="-124.5" font-family="Helvetica,sans-Serif" font-size="10.00">src/video_colorspace.h</text>
</a>
</g>
</g>
<!-- Node3&#45;&gt;Node33 -->
<g id="edge47_Node000003_Node000033" class="edge">
<title>Node3&#45;&gt;Node33</title>
<g id="a_edge47_Node000003_Node000033"><a xlink:title=" ">
<path fill="none" stroke="#63b8ff" d="M763.49,-179.56C806.16,-169.19 874.81,-152.52 921.5,-141.18"/>
<polygon fill="#63b8ff" stroke="#63b8ff" points="922.22,-144.6 931.11,-138.84 920.56,-137.8 922.22,-144.6"/>
</a>
</g>
</g>
<!-- Node35 -->
<g id="Node000035" class="node">
<title>Node35</title>
<g id="a_Node000035"><a xlink:title=" ">
<polygon fill="#e0e0e0" stroke="#999999" points="895,-144 788.25,-144 788.25,-112 895,-112 895,-144"/>
<text text-anchor="start" x="796.25" y="-130.5" font-family="Helvetica,sans-Serif" font-size="10.00">moonlight&#45;common&#45;c</text>
<text text-anchor="middle" x="841.62" y="-118.5" font-family="Helvetica,sans-Serif" font-size="10.00">/src/Limelight.h</text>
</a>
</g>
</g>
<!-- Node3&#45;&gt;Node35 -->
<g id="edge49_Node000003_Node000035" class="edge">
<title>Node3&#45;&gt;Node35</title>
<g id="a_edge49_Node000003_Node000035"><a xlink:title=" ">
<path fill="none" stroke="#63b8ff" d="M742.91,-179.62C758.56,-171.6 781.66,-159.75 801.58,-149.54"/>
<polygon fill="#63b8ff" stroke="#63b8ff" points="803,-152.74 810.3,-145.06 799.8,-146.51 803,-152.74"/>
</a>
</g>
</g>
<!-- Node10&#45;&gt;Node2 -->
<g id="edge12_Node000010_Node000002" class="edge">
<title>Node10&#45;&gt;Node2</title>
<g id="a_edge12_Node000010_Node000002"><a xlink:title=" ">
<path fill="none" stroke="#63b8ff" d="M622.42,-56.96C656.96,-48.68 712.45,-35.22 768.57,-20.75"/>
<polygon fill="#63b8ff" stroke="#63b8ff" points="769.15,-24.22 777.95,-18.32 767.39,-17.44 769.15,-24.22"/>
</a>
</g>
</g>
<!-- Node10&#45;&gt;Node4 -->
<g id="edge10_Node000010_Node000004" class="edge">
<title>Node10&#45;&gt;Node4</title>
<g id="a_edge10_Node000010_Node000004"><a xlink:title=" ">
<path fill="none" stroke="#63b8ff" d="M564.76,-55.59C542.02,-46.63 507.67,-33.09 482.78,-23.28"/>
<polygon fill="#63b8ff" stroke="#63b8ff" points="484.08,-20.03 473.5,-19.62 481.52,-26.54 484.08,-20.03"/>
</a>
</g>
</g>
<!-- Node10&#45;&gt;Node8 -->
<g id="edge13_Node000010_Node000008" class="edge">
<title>Node10&#45;&gt;Node8</title>
<g id="a_edge13_Node000010_Node000008"><a xlink:title=" ">
<path fill="none" stroke="#63b8ff" d="M622.5,-61.04C637,-59.39 654.13,-57.51 669.62,-56 855.04,-37.87 907.11,-55.65 1092.91,-20.14"/>
<polygon fill="#63b8ff" stroke="#63b8ff" points="1093.53,-23.58 1102.68,-18.24 1092.2,-16.71 1093.53,-23.58"/>
</a>
</g>
</g>
<!-- Node11 -->
<g id="Node000011" class="node">
<title>Node11</title>
<g id="a_Node000011"><a xlink:title=" ">
<polygon fill="#e0e0e0" stroke="#999999" points="413.25,-20 368,-20 368,0 413.25,0 413.25,-20"/>
<text text-anchor="middle" x="390.62" y="-6.5" font-family="Helvetica,sans-Serif" font-size="10.00">chrono</text>
</a>
</g>
</g>
<!-- Node10&#45;&gt;Node11 -->
<g id="edge11_Node000010_Node000011" class="edge">
<title>Node10&#45;&gt;Node11</title>
<g id="a_edge11_Node000010_Node000011"><a xlink:title=" ">
<path fill="none" stroke="#63b8ff" d="M554.9,-55.96C523.57,-47.54 475.34,-34.51 424.56,-20.52"/>
<polygon fill="#63b8ff" stroke="#63b8ff" points="425.72,-17.21 415.15,-17.92 423.86,-23.95 425.72,-17.21"/>
</a>
</g>
</g>
<!-- Node12 -->
<g id="Node000012" class="node">
<title>Node12</title>
<g id="a_Node000012"><a xlink:title=" ">
<polygon fill="#e0e0e0" stroke="#999999" points="572,-20 489.25,-20 489.25,0 572,0 572,-20"/>
<text text-anchor="middle" x="530.62" y="-6.5" font-family="Helvetica,sans-Serif" font-size="10.00">unordered_map</text>
</a>
</g>
</g>
<!-- Node10&#45;&gt;Node12 -->
<g id="edge14_Node000010_Node000012" class="edge">
<title>Node10&#45;&gt;Node12</title>
<g id="a_edge14_Node000010_Node000012"><a xlink:title=" ">
<path fill="none" stroke="#63b8ff" d="M578.52,-55.59C570.37,-48.01 558.69,-37.13 548.91,-28.02"/>
<polygon fill="#63b8ff" stroke="#63b8ff" points="551.42,-25.58 541.72,-21.33 546.65,-30.71 551.42,-25.58"/>
</a>
</g>
</g>
<!-- Node13 -->
<g id="Node000013" class="node">
<title>Node13</title>
<g id="a_Node000013"><a xlink:title=" ">
<polygon fill="#e0e0e0" stroke="#999999" points="762.12,-20 719.12,-20 719.12,0 762.12,0 762.12,-20"/>
<text text-anchor="middle" x="740.62" y="-6.5" font-family="Helvetica,sans-Serif" font-size="10.00">vector</text>
</a>
</g>
</g>
<!-- Node10&#45;&gt;Node13 -->
<g id="edge15_Node000010_Node000013" class="edge">
<title>Node10&#45;&gt;Node13</title>
<g id="a_edge15_Node000010_Node000013"><a xlink:title=" ">
<path fill="none" stroke="#63b8ff" d="M615.1,-55.59C640.97,-46.4 680.39,-32.4 708.14,-22.54"/>
<polygon fill="#63b8ff" stroke="#63b8ff" points="709.2,-25.88 717.45,-19.23 706.86,-19.28 709.2,-25.88"/>
</a>
</g>
</g>
<!-- Node14 -->
<g id="Node000014" class="node">
<title>Node14</title>
<g id="a_Node000014"><a xlink:href="nvenc__config_8h.html" target="_top" xlink:title="Declarations for NVENC encoder configuration.">
<polygon fill="white" stroke="#666666" points="701.25,-20 590,-20 590,0 701.25,0 701.25,-20"/>
<text text-anchor="middle" x="645.62" y="-6.5" font-family="Helvetica,sans-Serif" font-size="10.00">nvenc/nvenc_config.h</text>
</a>
</g>
</g>
<!-- Node10&#45;&gt;Node14 -->
<g id="edge16_Node000010_Node000014" class="edge">
<title>Node10&#45;&gt;Node14</title>
<g id="a_edge16_Node000010_Node000014"><a xlink:title=" ">
<path fill="none" stroke="#63b8ff" d="M598.55,-55.59C606.56,-48.01 618.04,-37.13 627.66,-28.02"/>
<polygon fill="#63b8ff" stroke="#63b8ff" points="629.86,-30.76 634.71,-21.34 625.04,-25.68 629.86,-30.76"/>
</a>
</g>
</g>
<!-- Node15&#45;&gt;Node10 -->
<g id="edge20_Node000015_Node000010" class="edge">
<title>Node15&#45;&gt;Node10</title>
<g id="a_edge20_Node000015_Node000010"><a xlink:title=" ">
<path fill="none" stroke="#63b8ff" d="M338.85,-119.4C391.02,-108.46 487.24,-88.27 543.82,-76.4"/>
<polygon fill="#63b8ff" stroke="#63b8ff" points="544.37,-79.86 553.44,-74.38 542.93,-73.01 544.37,-79.86"/>
</a>
</g>
</g>
<!-- Node16 -->
<g id="Node000016" class="node">
<title>Node16</title>
<g id="a_Node000016"><a xlink:title=" ">
<polygon fill="#e0e0e0" stroke="#999999" points="234.12,-76 119.12,-76 119.12,-56 234.12,-56 234.12,-76"/>
<text text-anchor="middle" x="176.62" y="-62.5" font-family="Helvetica,sans-Serif" font-size="10.00">boost/log/common.hpp</text>
</a>
</g>
</g>
<!-- Node15&#45;&gt;Node16 -->
<g id="edge18_Node000015_Node000016" class="edge">
<title>Node15&#45;&gt;Node16</title>
<g id="a_edge18_Node000015_Node000016"><a xlink:title=" ">
<path fill="none" stroke="#63b8ff" d="M282.94,-117.62C262.41,-107.85 229.99,-92.41 206.35,-81.15"/>
<polygon fill="#63b8ff" stroke="#63b8ff" points="208.07,-78.1 197.54,-76.96 205.06,-84.42 208.07,-78.1"/>
</a>
</g>
</g>
<!-- Node17 -->
<g id="Node000017" class="node">
<title>Node17</title>
<g id="a_Node000017"><a xlink:title=" ">
<polygon fill="#e0e0e0" stroke="#999999" points="353,-76 252.25,-76 252.25,-56 353,-56 353,-76"/>
<text text-anchor="middle" x="302.62" y="-62.5" font-family="Helvetica,sans-Serif" font-size="10.00">boost/log/sinks.hpp</text>
</a>
</g>
</g>
<!-- Node15&#45;&gt;Node17 -->
<g id="edge19_Node000015_Node000017" class="edge">
<title>Node15&#45;&gt;Node17</title>
<g id="a_edge19_Node000015_Node000017"><a xlink:title=" ">
<path fill="none" stroke="#63b8ff" d="M302.62,-117.62C302.62,-109.56 302.62,-97.65 302.62,-87.41"/>
<polygon fill="#63b8ff" stroke="#63b8ff" points="306.13,-87.63 302.63,-77.63 299.13,-87.63 306.13,-87.63"/>
</a>
</g>
</g>
<!-- Node18 -->
<g id="Node000018" class="node">
<title>Node18</title>
<g id="a_Node000018"><a xlink:href="stat__trackers_8h.html" target="_top" xlink:title="Declarations for streaming statistic tracking.">
<polygon fill="white" stroke="#666666" points="101.25,-76 20,-76 20,-56 101.25,-56 101.25,-76"/>
<text text-anchor="middle" x="60.62" y="-62.5" font-family="Helvetica,sans-Serif" font-size="10.00">stat_trackers.h</text>
</a>
</g>
</g>
<!-- Node15&#45;&gt;Node18 -->
<g id="edge21_Node000015_Node000018" class="edge">
<title>Node15&#45;&gt;Node18</title>
<g id="a_edge21_Node000015_Node000018"><a xlink:title=" ">
<path fill="none" stroke="#63b8ff" d="M266.4,-118.02C224.74,-107.69 156.13,-90.68 109.71,-79.17"/>
<polygon fill="#63b8ff" stroke="#63b8ff" points="110.72,-75.81 100.17,-76.8 109.03,-82.61 110.72,-75.81"/>
</a>
</g>
</g>
<!-- Node18&#45;&gt;Node6 -->
<g id="edge23_Node000018_Node000006" class="edge">
<title>Node18&#45;&gt;Node6</title>
<g id="a_edge23_Node000018_Node000006"><a xlink:title=" ">
<path fill="none" stroke="#63b8ff" d="M101.54,-56.5C150.39,-46.36 231.58,-29.49 280.21,-19.39"/>
<polygon fill="#63b8ff" stroke="#63b8ff" points="280.69,-22.87 289.77,-17.41 279.26,-16.02 280.69,-22.87"/>
</a>
</g>
</g>
<!-- Node18&#45;&gt;Node11 -->
<g id="edge22_Node000018_Node000011" class="edge">
<title>Node18&#45;&gt;Node11</title>
<g id="a_edge22_Node000018_Node000011"><a xlink:title=" ">
<path fill="none" stroke="#63b8ff" d="M101.51,-57.37C104.26,-56.9 106.98,-56.43 109.62,-56 216.41,-38.48 247.27,-42.87 356.47,-20.21"/>
<polygon fill="#63b8ff" stroke="#63b8ff" points="357.1,-23.65 366.16,-18.16 355.65,-16.8 357.1,-23.65"/>
</a>
</g>
</g>
<!-- Node19 -->
<g id="Node000019" class="node">
<title>Node19</title>
<g id="a_Node000019"><a xlink:title=" ">
<polygon fill="#e0e0e0" stroke="#999999" points="39.25,-20 0,-20 0,0 39.25,0 39.25,-20"/>
<text text-anchor="middle" x="19.62" y="-6.5" font-family="Helvetica,sans-Serif" font-size="10.00">limits</text>
</a>
</g>
</g>
<!-- Node18&#45;&gt;Node19 -->
<g id="edge24_Node000018_Node000019" class="edge">
<title>Node18&#45;&gt;Node19</title>
<g id="a_edge24_Node000018_Node000019"><a xlink:title=" ">
<path fill="none" stroke="#63b8ff" d="M53.48,-55.59C48.02,-48.39 40.3,-38.23 33.62,-29.43"/>
<polygon fill="#63b8ff" stroke="#63b8ff" points="36.43,-27.35 27.6,-21.5 30.86,-31.58 36.43,-27.35"/>
</a>
</g>
</g>
<!-- Node20 -->
<g id="Node000020" class="node">
<title>Node20</title>
<g id="a_Node000020"><a xlink:title=" ">
<polygon fill="#e0e0e0" stroke="#999999" points="146.38,-20 56.88,-20 56.88,0 146.38,0 146.38,-20"/>
<text text-anchor="middle" x="101.62" y="-6.5" font-family="Helvetica,sans-Serif" font-size="10.00">boost/format.hpp</text>
</a>
</g>
</g>
<!-- Node18&#45;&gt;Node20 -->
<g id="edge25_Node000018_Node000020" class="edge">
<title>Node18&#45;&gt;Node20</title>
<g id="a_edge25_Node000018_Node000020"><a xlink:title=" ">
<path fill="none" stroke="#63b8ff" d="M67.77,-55.59C73.23,-48.39 80.95,-38.23 87.63,-29.43"/>
<polygon fill="#63b8ff" stroke="#63b8ff" points="90.39,-31.58 93.65,-21.5 84.82,-27.35 90.39,-31.58"/>
</a>
</g>
</g>
<!-- Node21&#45;&gt;Node6 -->
<g id="edge30_Node000021_Node000006" class="edge">
<title>Node21&#45;&gt;Node6</title>
<g id="a_edge30_Node000021_Node000006"><a xlink:title=" ">
<path fill="none" stroke="#63b8ff" d="M691.49,-117.52C655.74,-107.28 597.14,-90.5 546.62,-76 481.51,-57.31 405.85,-35.54 360.68,-22.53"/>
<polygon fill="#63b8ff" stroke="#63b8ff" points="361.91,-19.25 351.33,-19.84 359.97,-25.97 361.91,-19.25"/>
</a>
</g>
</g>
<!-- Node21&#45;&gt;Node7 -->
<g id="edge32_Node000021_Node000007" class="edge">
<title>Node21&#45;&gt;Node7</title>
<g id="a_edge32_Node000021_Node000007"><a xlink:title=" ">
<path fill="none" stroke="#63b8ff" d="M733.07,-117.63C746.13,-103.41 772.37,-75.94 797.62,-56 811.5,-45.05 828.14,-34.39 841.82,-26.19"/>
<polygon fill="#63b8ff" stroke="#63b8ff" points="843.46,-29.29 850.31,-21.21 839.91,-23.25 843.46,-29.29"/>
</a>
</g>
</g>
<!-- Node21&#45;&gt;Node13 -->
<g id="edge33_Node000021_Node000013" class="edge">
<title>Node21&#45;&gt;Node13</title>
<g id="a_edge33_Node000021_Node000013"><a xlink:title=" ">
<path fill="none" stroke="#63b8ff" d="M725.93,-117.51C728.51,-98.81 734.3,-56.82 737.8,-31.51"/>
<polygon fill="#63b8ff" stroke="#63b8ff" points="741.24,-32.18 739.14,-21.8 734.3,-31.23 741.24,-32.18"/>
</a>
</g>
</g>
<!-- Node22 -->
<g id="Node000022" class="node">
<title>Node22</title>
<g id="a_Node000022"><a xlink:title=" ">
<polygon fill="#e0e0e0" stroke="#999999" points="844.5,-76 806.75,-76 806.75,-56 844.5,-56 844.5,-76"/>
<text text-anchor="middle" x="825.62" y="-62.5" font-family="Helvetica,sans-Serif" font-size="10.00">array</text>
</a>
</g>
</g>
<!-- Node21&#45;&gt;Node22 -->
<g id="edge27_Node000021_Node000022" class="edge">
<title>Node21&#45;&gt;Node22</title>
<g id="a_edge27_Node000021_Node000022"><a xlink:title=" ">
<path fill="none" stroke="#63b8ff" d="M740.41,-117.62C756.42,-108.11 781.45,-93.24 800.25,-82.08"/>
<polygon fill="#63b8ff" stroke="#63b8ff" points="801.84,-85.2 808.65,-77.08 798.27,-79.18 801.84,-85.2"/>
</a>
</g>
</g>
<!-- Node23 -->
<g id="Node000023" class="node">
<title>Node23</title>
<g id="a_Node000023"><a xlink:title=" ">
<polygon fill="#e0e0e0" stroke="#999999" points="908.25,-76 863,-76 863,-56 908.25,-56 908.25,-76"/>
<text text-anchor="middle" x="885.62" y="-62.5" font-family="Helvetica,sans-Serif" font-size="10.00">atomic</text>
</a>
</g>
</g>
<!-- Node21&#45;&gt;Node23 -->
<g id="edge28_Node000021_Node000023" class="edge">
<title>Node21&#45;&gt;Node23</title>
<g id="a_edge28_Node000021_Node000023"><a xlink:title=" ">
<path fill="none" stroke="#63b8ff" d="M749.78,-117.62C777.35,-107.35 821.7,-90.82 852.18,-79.46"/>
<polygon fill="#63b8ff" stroke="#63b8ff" points="853.16,-82.83 861.31,-76.06 850.72,-76.27 853.16,-82.83"/>
</a>
</g>
</g>
<!-- Node24 -->
<g id="Node000024" class="node">
<title>Node24</title>
<g id="a_Node000024"><a xlink:title=" ">
<polygon fill="#e0e0e0" stroke="#999999" points="1002.62,-20 908.62,-20 908.62,0 1002.62,0 1002.62,-20"/>
<text text-anchor="middle" x="955.62" y="-6.5" font-family="Helvetica,sans-Serif" font-size="10.00">condition_variable</text>
</a>
</g>
</g>
<!-- Node21&#45;&gt;Node24 -->
<g id="edge29_Node000021_Node000024" class="edge">
<title>Node21&#45;&gt;Node24</title>
<g id="a_edge29_Node000021_Node000024"><a xlink:title=" ">
<path fill="none" stroke="#63b8ff" d="M758.94,-117.58C765.79,-115.72 772.93,-113.79 779.62,-112 840.87,-95.66 867.11,-114.28 917.62,-76 932.75,-64.54 942.94,-45.17 948.93,-30.55"/>
<polygon fill="#63b8ff" stroke="#63b8ff" points="952.09,-32.1 952.32,-21.5 945.53,-29.64 952.09,-32.1"/>
</a>
</g>
</g>
<!-- Node25 -->
<g id="Node000025" class="node">
<title>Node25</title>
<g id="a_Node000025"><a xlink:title=" ">
<polygon fill="#e0e0e0" stroke="#999999" points="713,-76 678.25,-76 678.25,-56 713,-56 713,-76"/>
<text text-anchor="middle" x="695.62" y="-62.5" font-family="Helvetica,sans-Serif" font-size="10.00">map</text>
</a>
</g>
</g>
<!-- Node21&#45;&gt;Node25 -->
<g id="edge31_Node000021_Node000025" class="edge">
<title>Node21&#45;&gt;Node25</title>
<g id="a_edge31_Node000021_Node000025"><a xlink:title=" ">
<path fill="none" stroke="#63b8ff" d="M720.09,-117.62C716.07,-109.3 710.06,-96.86 705,-86.4"/>
<polygon fill="#63b8ff" stroke="#63b8ff" points="708.19,-84.96 700.69,-77.48 701.89,-88 708.19,-84.96"/>
</a>
</g>
</g>
<!-- Node21&#45;&gt;Node26 -->
<g id="edge34_Node000021_Node000026" class="edge">
<title>Node21&#45;&gt;Node26</title>
<g id="a_edge34_Node000021_Node000026"><a xlink:title=" ">
<path fill="none" stroke="#63b8ff" d="M756.14,-117.54C763.77,-115.49 771.95,-113.49 779.62,-112 846.04,-99.12 1046.28,-78.53 1127.66,-70.43"/>
<polygon fill="#63b8ff" stroke="#63b8ff" points="1127.89,-73.93 1137.5,-69.46 1127.2,-66.96 1127.89,-73.93"/>
</a>
</g>
</g>
<!-- Node26&#45;&gt;Node2 -->
<g id="edge39_Node000026_Node000002" class="edge">
<title>Node26&#45;&gt;Node2</title>
<g id="a_edge39_Node000026_Node000002"><a xlink:title=" ">
<path fill="none" stroke="#63b8ff" d="M1138.83,-58.79C1134.45,-57.77 1129.92,-56.79 1125.62,-56 1002.77,-33.43 966.84,-43.87 841.02,-20.22"/>
<polygon fill="#63b8ff" stroke="#63b8ff" points="841.76,-16.8 831.28,-18.35 840.44,-23.67 841.76,-16.8"/>
</a>
</g>
</g>
<!-- Node26&#45;&gt;Node7 -->
<g id="edge38_Node000026_Node000007" class="edge">
<title>Node26&#45;&gt;Node7</title>
<g id="a_edge38_Node000026_Node000007"><a xlink:title=" ">
<path fill="none" stroke="#63b8ff" d="M1138.8,-58.91C1134.43,-57.87 1129.9,-56.86 1125.62,-56 1029.41,-36.67 1000.87,-41.81 901.68,-20.2"/>
<polygon fill="#63b8ff" stroke="#63b8ff" points="902.55,-16.81 892.03,-18.06 901.03,-23.65 902.55,-16.81"/>
</a>
</g>
</g>
<!-- Node26&#45;&gt;Node8 -->
<g id="edge41_Node000026_Node000008" class="edge">
<title>Node26&#45;&gt;Node8</title>
<g id="a_edge41_Node000026_Node000008"><a xlink:title=" ">
<path fill="none" stroke="#63b8ff" d="M1156.01,-55.59C1150.94,-48.39 1143.79,-38.23 1137.6,-29.43"/>
<polygon fill="#63b8ff" stroke="#63b8ff" points="1140.66,-27.7 1132.04,-21.54 1134.93,-31.73 1140.66,-27.7"/>
</a>
</g>
</g>
<!-- Node26&#45;&gt;Node13 -->
<g id="edge45_Node000026_Node000013" class="edge">
<title>Node26&#45;&gt;Node13</title>
<g id="a_edge45_Node000026_Node000013"><a xlink:title=" ">
<path fill="none" stroke="#63b8ff" d="M1138.95,-62.84C1068.71,-56.34 861.35,-36.53 773.76,-20.26"/>
<polygon fill="#63b8ff" stroke="#63b8ff" points="774.44,-16.83 763.95,-18.33 773.09,-23.69 774.44,-16.83"/>
</a>
</g>
</g>
<!-- Node26&#45;&gt;Node24 -->
<g id="edge36_Node000026_Node000024" class="edge">
<title>Node26&#45;&gt;Node24</title>
<g id="a_edge36_Node000026_Node000024"><a xlink:title=" ">
<path fill="none" stroke="#63b8ff" d="M1138.88,-58.81C1105.83,-50.18 1045.26,-34.38 1002.83,-23.31"/>
<polygon fill="#63b8ff" stroke="#63b8ff" points="1003.95,-19.99 993.39,-20.85 1002.18,-26.76 1003.95,-19.99"/>
</a>
</g>
</g>
<!-- Node27 -->
<g id="Node000027" class="node">
<title>Node27</title>
<g id="a_Node000027"><a xlink:title=" ">
<polygon fill="#e0e0e0" stroke="#999999" points="1362.5,-20 1306.75,-20 1306.75,0 1362.5,0 1362.5,-20"/>
<text text-anchor="middle" x="1334.62" y="-6.5" font-family="Helvetica,sans-Serif" font-size="10.00">algorithm</text>
</a>
</g>
</g>
<!-- Node26&#45;&gt;Node27 -->
<g id="edge35_Node000026_Node000027" class="edge">
<title>Node26&#45;&gt;Node27</title>
<g id="a_edge35_Node000026_Node000027"><a xlink:title=" ">
<path fill="none" stroke="#63b8ff" d="M1186.18,-57.6C1214.37,-48.76 1261.97,-33.81 1295.66,-23.23"/>
<polygon fill="#63b8ff" stroke="#63b8ff" points="1296.57,-26.62 1305.07,-20.28 1294.48,-19.94 1296.57,-26.62"/>
</a>
</g>
</g>
<!-- Node28 -->
<g id="Node000028" class="node">
<title>Node28</title>
<g id="a_Node000028"><a xlink:title=" ">
<polygon fill="#e0e0e0" stroke="#999999" points="1432.25,-20 1381,-20 1381,0 1432.25,0 1432.25,-20"/>
<text text-anchor="middle" x="1406.62" y="-6.5" font-family="Helvetica,sans-Serif" font-size="10.00">memory</text>
</a>
</g>
</g>
<!-- Node26&#45;&gt;Node28 -->
<g id="edge37_Node000026_Node000028" class="edge">
<title>Node26&#45;&gt;Node28</title>
<g id="a_edge37_Node000026_Node000028"><a xlink:title=" ">
<path fill="none" stroke="#63b8ff" d="M1186.2,-60.24C1223.09,-52.73 1296.94,-37.42 1369.5,-20.43"/>
<polygon fill="#63b8ff" stroke="#63b8ff" points="1370.26,-23.85 1379.19,-18.15 1368.65,-17.03 1370.26,-23.85"/>
</a>
</g>
</g>
<!-- Node29 -->
<g id="Node000029" class="node">
<title>Node29</title>
<g id="a_Node000029"><a xlink:title=" ">
<polygon fill="#e0e0e0" stroke="#999999" points="1501.25,-20 1450,-20 1450,0 1501.25,0 1501.25,-20"/>
<text text-anchor="middle" x="1475.62" y="-6.5" font-family="Helvetica,sans-Serif" font-size="10.00">ostream</text>
</a>
</g>
</g>
<!-- Node26&#45;&gt;Node29 -->
<g id="edge40_Node000026_Node000029" class="edge">
<title>Node26&#45;&gt;Node29</title>
<g id="a_edge40_Node000026_Node000029"><a xlink:title=" ">
<path fill="none" stroke="#63b8ff" d="M1186.29,-61.99C1232.82,-55.89 1339.7,-41.06 1438.61,-20.48"/>
<polygon fill="#63b8ff" stroke="#63b8ff" points="1439.16,-23.95 1448.22,-18.46 1437.71,-17.1 1439.16,-23.95"/>
</a>
</g>
</g>
<!-- Node30 -->
<g id="Node000030" class="node">
<title>Node30</title>
<g id="a_Node000030"><a xlink:title=" ">
<polygon fill="#e0e0e0" stroke="#999999" points="1086.38,-20 1020.88,-20 1020.88,0 1086.38,0 1086.38,-20"/>
<text text-anchor="middle" x="1053.62" y="-6.5" font-family="Helvetica,sans-Serif" font-size="10.00">string_view</text>
</a>
</g>
</g>
<!-- Node26&#45;&gt;Node30 -->
<g id="edge42_Node000026_Node000030" class="edge">
<title>Node26&#45;&gt;Node30</title>
<g id="a_edge42_Node000026_Node000030"><a xlink:title=" ">
<path fill="none" stroke="#63b8ff" d="M1143.64,-55.59C1126.86,-47.28 1102.13,-35.03 1082.84,-25.47"/>
<polygon fill="#63b8ff" stroke="#63b8ff" points="1084.63,-22.45 1074.12,-21.15 1081.52,-28.73 1084.63,-22.45"/>
</a>
</g>
</g>
<!-- Node31 -->
<g id="Node000031" class="node">
<title>Node31</title>
<g id="a_Node000031"><a xlink:title=" ">
<polygon fill="#e0e0e0" stroke="#999999" points="1224.5,-20 1162.75,-20 1162.75,0 1224.5,0 1224.5,-20"/>
<text text-anchor="middle" x="1193.62" y="-6.5" font-family="Helvetica,sans-Serif" font-size="10.00">type_traits</text>
</a>
</g>
</g>
<!-- Node26&#45;&gt;Node31 -->
<g id="edge43_Node000026_Node000031" class="edge">
<title>Node26&#45;&gt;Node31</title>
<g id="a_edge43_Node000026_Node000031"><a xlink:title=" ">
<path fill="none" stroke="#63b8ff" d="M1168.02,-55.59C1172.07,-48.55 1177.74,-38.67 1182.72,-30"/>
<polygon fill="#63b8ff" stroke="#63b8ff" points="1185.59,-32.03 1187.53,-21.61 1179.52,-28.54 1185.59,-32.03"/>
</a>
</g>
</g>
<!-- Node32 -->
<g id="Node000032" class="node">
<title>Node32</title>
<g id="a_Node000032"><a xlink:title=" ">
<polygon fill="#e0e0e0" stroke="#999999" points="1288.25,-20 1243,-20 1243,0 1288.25,0 1288.25,-20"/>
<text text-anchor="middle" x="1265.62" y="-6.5" font-family="Helvetica,sans-Serif" font-size="10.00">variant</text>
</a>
</g>
</g>
<!-- Node26&#45;&gt;Node32 -->
<g id="edge44_Node000026_Node000032" class="edge">
<title>Node26&#45;&gt;Node32</title>
<g id="a_edge44_Node000026_Node000032"><a xlink:title=" ">
<path fill="none" stroke="#63b8ff" d="M1180.57,-55.59C1196.27,-47.36 1219.36,-35.26 1237.51,-25.74"/>
<polygon fill="#63b8ff" stroke="#63b8ff" points="1238.97,-28.93 1246.2,-21.18 1235.72,-22.73 1238.97,-28.93"/>
</a>
</g>
</g>
<!-- Node34 -->
<g id="Node000034" class="node">
<title>Node34</title>
<g id="a_Node000034"><a xlink:title=" ">
<polygon fill="#e0e0e0" stroke="#999999" points="1052.25,-76 965,-76 965,-56 1052.25,-56 1052.25,-76"/>
<text text-anchor="middle" x="1008.62" y="-62.5" font-family="Helvetica,sans-Serif" font-size="10.00">libavutil/pixfmt.h</text>
</a>
</g>
</g>
<!-- Node33&#45;&gt;Node34 -->
<g id="edge48_Node000033_Node000034" class="edge">
<title>Node33&#45;&gt;Node34</title>
<g id="a_edge48_Node000033_Node000034"><a xlink:title=" ">
<path fill="none" stroke="#63b8ff" d="M977.41,-117.62C982.65,-109.12 990.54,-96.33 997.07,-85.74"/>
<polygon fill="#63b8ff" stroke="#63b8ff" points="999.94,-87.75 1002.21,-77.4 993.98,-84.08 999.94,-87.75"/>
</a>
</g>
</g>
</g>
</svg>

<g id="navigator" transform="translate(0 0)" fill="#404254">
  <rect fill="#f2f5e9" fill-opacity="0.5" stroke="#606060" stroke-width=".5" x="0" y="0" width="60" height="60"/>
  <use id="zoomplus" xlink:href="#zoomPlus" x="17" y="9" onmousedown="handleZoom(evt,'in')"/>
  <use id="zoomminus" xlink:href="#zoomMin" x="42" y="9" onmousedown="handleZoom(evt,'out')"/>
  <use id="reset" xlink:href="#resetDef" x="30" y="36" onmousedown="handleReset()"/>
   <use id="arrowup" xlink:href="#arrowUp" x="0" y="0" onmousedown="handlePan(0,-1)"/>
  <use id="arrowright" xlink:href="#arrowRight" x="0" y="0" onmousedown="handlePan(1,0)"/>
  <use id="arrowdown" xlink:href="#arrowDown" x="0" y="0" onmousedown="handlePan(0,1)"/>
  <use id="arrowleft" xlink:href="#arrowLeft" x="0" y="0" onmousedown="handlePan(-1,0)"/>
</g>
<svg viewBox="0 0 15 15" width="100%" height="30px" preserveAspectRatio="xMaxYMin meet">
 <g id="arrow_out" transform="scale(0.3 0.3)">
  <a xlink:href="x11grab_8h__incl_org.svg" target="_base">
   <rect id="button" ry="5" rx="5" y="6" x="6" height="38" width="38"
        fill="#f2f5e9" fill-opacity="0.5" stroke="#606060" stroke-width="1.0"/>
   <path id="arrow"
     d="M 11.500037,31.436501 C 11.940474,20.09759 22.043105,11.32322 32.158766,21.979434 L 37.068811,17.246167 C 37.068811,17.246167 37.088388,32 37.088388,32 L 22.160133,31.978069 C 22.160133,31.978069 26.997745,27.140456 26.997745,27.140456 C 18.528582,18.264221 13.291696,25.230495 11.500037,31.436501 z"
     style="fill:#404040;"/>
  </a>
 </g>
</svg>

<style type='text/css'>
<![CDATA[
[data-mouse-over-selected='false'] { opacity: 0.7; }
[data-mouse-over-selected='true']  { opacity: 1.0; }
]]>
</style>
<script type="application/ecmascript"><![CDATA[
document.addEventListener('DOMContentLoaded', (event) => {
  highlightEdges();
  highlightAdjacentNodes();
});
]]></script>
</svg>
